<?xml version="1.0" encoding="UTF-8"?>
<!DOCTYPE svg PUBLIC "-//W3C//DTD SVG 1.1//EN" "http://www.w3.org/Graphics/SVG/1.1/DTD/svg11.dtd">
<!-- Creator: CorelDRAW -->
<svg xmlns="http://www.w3.org/2000/svg" xml:space="preserve" width="2.4337mm" height="5.5mm" version="1.1" style="shape-rendering:geometricPrecision; text-rendering:geometricPrecision; image-rendering:optimizeQuality; fill-rule:evenodd; clip-rule:evenodd"
viewBox="0 0 7.21 16.29"
 xmlns:xlink="http://www.w3.org/1999/xlink"
 xmlns:xodm="http://www.corel.com/coreldraw/odm/2003">
 <defs>
  <style type="text/css">
   <![CDATA[
    .fil1 {fill:#0A0A0A}
    .fil3 {fill:#302E2F}
    .fil7 {fill:#4F150F}
    .fil2 {fill:#515152}
    .fil9 {fill:#858586}
    .fil8 {fill:#981508}
    .fil12 {fill:#9D6A66}
    .fil6 {fill:#B2B2B2}
    .fil13 {fill:#D3847B}
    .fil4 {fill:#D5D5D6}
    .fil5 {fill:#D61908}
    .fil10 {fill:#E4432C}
    .fil11 {fill:#ED7357}
    .fil14 {fill:#F4AC91}
    .fil15 {fill:#F6CAB6}
    .fil0 {fill:#FEFCFC}
   ]]>
  </style>
 </defs>
 <g id="Camada_x0020_1">
  <metadata id="CorelCorpID_0Corel-Layer"/>
  <g id="_1769523043584">
   <path class="fil0" d="M2.98 13.23c-0.16,-0.14 -0.11,-0.08 -0.11,-0.62l0.01 -0.69c0,-0.01 0,-0.01 0,-0.02l0.15 -0c0.04,0.13 -0.04,1.11 0.02,1.18 0.05,0.05 1,0.07 1.14,-0.01 0.01,-0.32 -0.04,-0.91 0.01,-1.18l0.15 -0c0.05,0.12 0.02,0.55 0.02,0.72 0.01,0.67 0.04,0.49 -0.1,0.62 0.17,-0 0.14,-0.1 0.14,-0.25 -0,-0.26 0.03,-0.98 -0.03,-1.12 -0.11,-0.03 -1.42,-0.03 -1.5,-0 -0.11,0.05 -0.07,0.52 -0.07,0.67 0,0.13 0,0.26 -0,0.39 -0,0.3 0.05,0.22 0.01,0.32 -0.07,-0.11 -0.05,-0.36 -0.05,-0.55 0,-0.8 -0.09,-0.89 0.25,-0.89l1.14 0c0.26,-0 0.28,0.04 0.28,0.3 0,0.27 0.03,0.91 -0.03,1.13 -0.19,0.08 -1.32,0.04 -1.6,0.03l0.15 -0.03zm0.48 -0.24l-0.01 0.01c-0.05,-0 -0.04,0.01 -0.04,-0.03l0 0.01c-0.05,-0 -0.04,0.01 -0.04,-0.03l-0.03 -0 0.01 -0.01c-0.06,-0 -0.05,0.01 -0.05,-0.03 -0.03,-0.01 -0.02,0 -0.05,-0.02 -0.03,-0.03 -0.02,-0.03 -0.03,-0.04l-0.05 -0.07 0.01 0.01c-0,-0 -0.01,-0.01 -0.01,-0.01 -0.08,-0.1 -0.09,-0.23 -0.07,-0.36 0.02,-0.13 0.1,-0.22 0.17,-0.28 0.42,-0.39 1.06,0.1 0.8,0.63 -0.12,0.24 -0.4,0.32 -0.57,0.25l-0.03 -0.02zm2.86 -1.22l0.01 -3.67c-0.02,-0.12 -0.08,-0.04 -0.07,-0.17 0.03,-0.28 0.02,-0.46 0.02,-0.74 0,-0.33 0.04,-0.61 0.04,-0.96 -0,-0.31 -0.03,-0.72 -0,-1.02l-0.04 -0.94 -0.01 -0.42 -0.03 -0.01c-0.06,0.01 -0.03,-0.02 -0.04,0.07 -0,0.01 0,0.08 0,0.1 0.04,0.78 0.06,1.89 0.04,2.65 -0,0.12 0.01,0.3 -0.1,0.26 -0.07,-0.02 -0.09,-0.05 -0.12,-0.1l-0.01 0.61c-0.09,-0 -0.08,-0.02 -0.12,-0.03l0 -0.53 0 -1.9c0.01,-0.78 0.22,-1.39 0.22,-1.68l0.02 -0.09 0.02 -0.31 -0.13 -0.03c0,0.09 0,0.22 -0.03,0.28 0.02,0.11 -0.01,0.3 -0.05,0.39 0,0.04 0.01,0.01 -0,0.06 -0,0 -0.01,0.02 -0.01,0.02 -0,-0 -0.01,0.01 -0.01,0.02 -0.01,0.14 -0.05,0.3 -0.09,0.4l-1.05 -0.2c-0.37,-0.05 -0.76,-0.09 -1.14,-0.08 0,0.12 0.07,0.21 0.03,0.34 -0.08,0.24 0.03,0.95 -0.04,1.11 -0.02,-0.33 0.05,-0.83 -0.04,-1.13 -0.04,-0.14 0.03,-0.18 0.03,-0.32 -0.69,0.01 -1.51,0.11 -2.13,0.29l0.03 0.8c0.02,0.31 -0,0.63 0.02,0.94l0.05 0.02c0,0 0.01,0 0.01,0.01l0.03 0.01c0.04,0.08 0.03,0.9 0,1 -0.01,0.01 0.07,0.04 -0.07,0.03l-0.01 7.93c0.04,0.06 0.39,0.03 0.46,0.03 0.55,-0.01 3.64,0.02 3.68,-0.01 0.06,-0.05 0.03,-0.3 0.03,-0.42l-0 -7.27c0,-0.05 0.01,-0.14 0,-0.19 -0.01,-0.11 -0,-0.04 -0.03,-0.07 -0.06,-0.07 -0.01,0.05 -0.06,-0.05l-0 -0.86c0,-0.01 0,-0.05 0,-0.06 0.01,-0.06 -0.03,0.03 0.02,-0.07l0.1 -0c0.03,0.35 0,1.8 0.01,2.27l-0 6.23c-0,0.14 0.05,0.44 -0.04,0.54 -0.06,0.28 0.19,0.53 0.22,0.83l0.14 -0.05c-0.01,-0.11 -0.04,-0.15 -0,-0.22 0.04,-0.09 0.06,-0.08 0.06,-0.2l0.02 -0.07 0.02 -0.08 0.02 -0.1c-0.01,-0.07 -0.01,-0.09 0.05,-0.13 -0.26,-0.12 -0.17,-0.15 -0.16,-0.18 0,-0.01 0.01,-0.02 0.01,-0.02 0.03,0.08 0.14,0.16 0.21,0.21 -0.01,-0.15 0.03,-0.51 0.04,-0.7 0.02,-0.69 -0.03,-1.45 0,-2.14 -0.12,-0.05 -0.27,-0.22 -0.27,0.06l-0 1.92c-0,0.14 0.03,0.58 -0.03,0.69 -0.06,-0.17 -0.03,-1.76 -0.03,-2.16 -0,-0.18 -0.06,-0.54 0.07,-0.65 0.08,-0.02 0.11,0.02 0.2,0.04 0.02,-0.02 -0.03,-0.04 0.05,-0.01 0.05,0.02 -0.02,-0.01 0.04,0.02l0.03 0.01c-0.01,-0.09 -0.02,-0.05 -0.06,-0.1 -0.09,-0.05 0,0 -0.05,-0.04 -0.17,-0.13 -0.23,-0.1 -0.26,-0.21 -0.02,-0.08 -0.01,-2.82 -0.01,-3.2 -0,-0.22 -0.04,-0.37 0.11,-0.44l-0.02 0.03c-0.05,0.07 -0.04,0.06 -0.04,0.19 0,0.09 0,0.18 0,0.27 0,0.18 0,0.35 0,0.53l0 2.6c0.02,0.15 0.11,0.1 0.23,0.21 0,0 0.02,0.02 0.02,0.02zm-1.51 -0.58c-0.03,-0.04 -0.03,-0.03 -0.03,-0.11l0.01 -0.31 0.09 0.01c0.01,0.11 0.03,0.32 -0.01,0.41l-0.06 0zm-1.32 -0.01c-0.01,-0.11 -0.04,-0.32 0.01,-0.4 0.11,0.01 0.06,0.04 0.07,0.32 0.12,0.02 0.14,-0.03 0.15,0.06 -0.06,0.03 -0.14,0.02 -0.24,0.02zm1.53 -0.39c0.02,-0.01 -0.05,-0.03 0.07,-0.02 0.09,0.01 0.02,-0 0.04,0.03 0.01,0.01 0,-0.01 0.03,0.04 0,0.01 0.01,0.04 0.01,0.05 0.01,0.04 0.01,0.05 0.02,0.1l0.04 0.2c-0.18,0 -0.02,-0.09 -0.16,-0.08 -0.14,0.01 0.03,0.1 -0.16,0.08l0.11 -0.38zm-1.25 0.39c-0,-0 -0.01,-0.01 -0.01,-0.01 -0.01,-0.04 -0.03,0.04 0,-0.09l0.11 -0.3 0.09 -0 0.11 0.4c-0.19,0 -0,-0.05 -0.16,-0.08 -0.16,0.02 0.02,0.07 -0.14,0.08zm-0.61 -0.03c-0.01,-0.02 -0.06,-0.36 0.02,-0.37 0.07,-0 0.05,0.04 0.05,0.2 -0,0.19 0.1,0.16 0.11,0.06 0,-0.02 0,-0.08 0,-0.1 -0,-0.16 -0,-0.16 0.04,-0.16 0.07,-0 0.05,0.08 0.05,0.22 -0,0.21 -0.13,0.22 -0.27,0.15zm-1.14 -0.06l0.03 -0.15 0.05 -0.14c0.02,-0.02 -0,-0.01 0.04,-0.03 0.02,-0.01 0.02,-0 0.04,-0 0.07,0.05 0.09,0.18 0.09,0.26 0.02,0.02 0.03,0.02 0.04,0.08 0.02,0.1 -0,0.06 -0.01,0.08 -0.1,0 -0.08,0.01 -0.1,-0.09l-0.1 0c-0.03,0.11 -0.01,0.08 -0.13,0.09l0.02 -0.09c0,-0.01 0.01,-0.01 0.01,-0.02zm0.49 -0.23l0.02 0.07c0,0 0.03,0.03 0.03,0.03 0,0 0.01,0.02 0.01,0.01 0,-0 0.01,0.01 0.01,0.01l0.02 -0.08 0.02 -0.04c-0.01,-0.1 -0.02,0.07 0,-0.04 0,-0 0.01,-0.01 0.01,-0.01 0,-0.01 0.01,-0.01 0.01,-0.01 0.04,-0.03 0.07,-0.03 0.11,-0.02 0.04,0.04 0.03,0.01 0.03,0.1 0,0.03 -0,0.07 -0,0.1 0,0.06 0.02,0.18 -0.02,0.19 -0.02,0.04 0.02,0.01 -0.03,0.02 -0.06,0.01 -0.03,-0 -0.04,-0.01 -0.02,-0.02 -0.01,0 -0.03,-0.04 -0.01,-0.04 0,0 -0.01,-0.04 -0.01,-0.03 0,-0.03 -0.01,-0.07l-0.02 0.07c-0.01,0.07 -0.01,0.09 -0.09,0.1 -0.04,-0.04 -0.04,-0.01 -0.03,-0.08 -0.04,0.01 -0.03,0.01 -0.01,-0.04l0.01 -0.04c-0.03,-0.02 -0.01,0.02 -0.05,-0.06 -0,0.08 0.01,0.14 -0.02,0.21l-0.06 -0.01c-0.05,-0.09 -0.02,-0.29 -0.01,-0.4 0.08,-0.02 0.07,-0.03 0.14,0l0.01 0.07zm1.65 0.32c-0.05,-0.02 -0.05,0.06 -0.05,-0.18 0,-0.08 -0,-0.14 0.01,-0.22 0.15,0 0.12,0.11 0.2,0.22 0.02,-0.21 -0.03,-0.18 0.04,-0.21 0.05,0.02 0.03,-0.02 0.04,0.07l-0.01 0.32c-0.15,0 -0.08,-0.07 -0.2,-0.23 -0.01,0.23 0.02,0.2 -0.04,0.23zm-1.08 -0.06c-0,0.03 0.01,0.03 -0.02,0.02 0,0.03 0.01,0.02 -0.03,0.01 -0.05,0.05 -0.14,0.04 -0.23,0.03l0.01 -0.41c0.06,-0.01 0.2,-0.03 0.21,0.03 0.04,-0.01 0.03,-0.02 0.02,0.02 0.03,-0 0.02,-0.01 0.02,0.03 0.02,0.09 -0.03,0.05 -0.02,0.11 0.01,0.05 0.04,0.02 0.03,0.15zm1.46 -0.22c0,0.13 -0.02,0.14 0.04,0.21 0.16,-0.02 -0.02,-0.09 0.16,-0.06 -0,0.17 -0.19,0.18 -0.26,0.08 -0.03,-0.06 -0.08,-0.34 0.09,-0.34 0.02,-0.03 -0.04,-0.02 0.05,-0.02 0.05,0 0.02,0.01 0.03,0.02l0.04 0c0.04,-0.01 0.03,-0.02 0.02,0.02l0.01 0.03 0.03 0.06c-0.03,0.02 0.02,0.01 -0.04,0.02 -0.05,0 -0.03,-0.01 -0.04,-0.01l-0.03 -0.05 -0.06 0.02 -0.03 0.04zm-0.7 -0.16c0.01,-0.12 0.13,-0.12 0.15,0l-0.15 0zm-0.47 -1.47l-0 -0.49 0.5 0 0.01 0.5 0.5 0 -0.01 0.51 -0.5 -0 0 0.5 -0.51 -0.01 0 -0.49 -0.51 -0c-0.02,-0.11 -0.02,-0.42 0.01,-0.52l0.51 -0zm0.47 -1.26c0.01,-0.07 0.03,0.01 0.03,-0.26 0,-0.66 0.06,-0.64 -0.29,-0.64 -0.14,-0 -0.2,-0 -0.21,0.15 -0,0.03 -0,0.07 0,0.1l0 0.57c0.01,0.06 0.03,0.07 0.09,0.09l0.16 0.01c0.11,0 0.14,0.01 0.22,-0.02zm0.04 -0.36c-0,0.18 0.04,0.42 -0.11,0.46 -0.09,0.02 -0.32,0.04 -0.42,-0.07 -0.01,-0.07 0,-0.85 0.01,-0.87 0.04,-0.1 0.24,-0.08 0.35,-0.07 0.22,0.01 0.16,0.23 0.16,0.56zm-2.15 -1.83c0.01,-0.03 0.02,-0.07 0.04,-0.1l0.1 -0.05c0.16,-0.03 0.62,-0.04 0.82,-0.06 0.49,-0.05 1.78,-0.02 2.29,0.03 0.3,0.02 0.5,-0.03 0.52,0.22 0.01,0.13 -0.01,0.31 0.01,0.43 0,0.09 0,0.03 -0.02,0.05 -0.08,0.22 0.04,0.27 -0.25,0.32 -0.17,0.03 -1.4,0.01 -1.63,0.01 -0.36,-0 -0.74,-0 -1.1,0 -0.91,0.02 -0.59,-0.06 -0.76,-0.33 -0.01,-0.01 -0.03,0.03 -0.02,-0.05 -0.05,-0.07 -0.06,-0.37 0.01,-0.46zm0.16 -1.25c-0.02,-0.04 -0.01,-0.42 0.08,-0.5 0.06,0.11 -0.04,0.4 -0.08,0.5z"/>
   <path class="fil0" d="M4.41 1.97l0.06 -0.01c0,0.08 0.01,0.03 -0.02,0.07 -0.04,-0.01 -0.08,-0.01 -0.05,-0.06zm-1.7 0.02c-0,-0.04 -0.01,-0.03 0.03,-0.02 0.02,-0.03 0.03,-0.03 0.04,0 0.06,-0.01 0.01,0.05 0.01,0.05 0.01,0.05 0.01,0.02 -0.03,0.02 -0.04,0 -0.03,0 -0.05,-0.01 -0.05,0.01 -0.03,0.02 -0.02,-0.03l0.01 -0.01zm-1.14 0.32c0.01,-0.42 0.35,-1.46 0.52,-1.85l-0.26 0.91c-0.05,0.19 -0.19,0.81 -0.26,0.94zm0.6 -2.06c-0.02,0.08 -0.02,0.06 -0.08,0.11 -0.04,0.03 -0.06,0.05 -0.1,0.09 -0.06,0.06 -0.12,0.12 -0.19,0.2l-0.31 0.41c-0.02,0.03 -0.01,0.01 -0.03,0.03 -0.02,0.09 -0.02,0.05 -0.04,0.06 -0.02,0.1 -0.02,0.05 -0.04,0.06 0,0.08 0,0.02 -0.02,0.04l-0.05 0.07c0.01,0.04 0.02,0.03 -0.02,0.03l0 0 0 0.05c0,0.08 -0.16,1.18 -0.07,1.37 0.03,0.05 0.01,0.03 0.03,0l0.02 -0.04c-0.01,-0.05 -0.02,-0.03 0.03,-0.01 0.05,-0.07 0.05,-0.08 0.15,-0.13 0,-0.02 -0.01,-0.01 0.02,-0.03 0.02,-0.01 0.03,-0.02 0.08,-0.03l-0 0.01c0.09,-0.1 -0.09,0.04 0.02,-0.02 0.03,-0.02 0.01,-0.01 0.06,-0.02 0.1,-0.09 0.75,-0.23 0.94,-0.26 0.72,-0.12 1.54,-0.11 2.25,0.02 0.18,0.03 0.83,0.2 0.9,0.3 0.05,0.02 0.06,0.02 0.08,0.03l-0 0.01 0.03 -0c0.05,-0.01 0.04,-0.02 0.03,0.02 0.03,-0.01 0.03,-0.02 0.02,0.02 0.03,-0.01 0.02,-0.01 0.02,0.02 0.03,-0 0.02,-0.01 0.02,0.02 0.03,-0 0.03,-0.01 0.02,0.02 0.04,-0.01 0.03,-0.01 0.02,0.03 0.02,0.01 0.03,-0.04 0.02,0.04 0.04,0.03 0.03,-0.07 0.03,0.03l-0 -0.68c-0.02,-0.16 -0.08,-0.6 -0.07,-0.69 0.01,-0.19 -0.42,-0.64 -0.5,-0.75 -0.04,-0.06 -0.02,-0.02 -0.03,-0.07 -0.04,0.01 -0.03,0.02 -0.02,-0.02 -0.04,0.01 -0.03,0.02 -0.02,-0.02 -0.04,0.01 -0.03,0.02 -0.02,-0.02 -0.04,0.01 -0.03,0.02 -0.02,-0.02 -0.04,0.01 -0.03,0.02 -0.02,-0.02 -0.04,0.01 -0.03,0.02 -0.02,-0.02 -0.04,0.01 -0.03,0.02 -0.02,-0.02 -0.04,0.01 -0.03,0.02 -0.02,-0.02 -0.04,0.01 -0.03,0.02 -0.02,-0.02 -0.04,0.01 -0.03,0.02 -0.02,-0.02 -0.04,0.01 -0.03,0.02 -0.02,-0.02 -0.04,0.01 -0.03,0.02 -0.02,-0.02 -0.04,0.01 -0.03,0.02 -0.03,-0.01l-0.02 -0.02c-0.06,-0.04 -0.02,-0 -0.05,-0.07l-0.03 -0.01c-0.94,-0.17 -1.59,-0.23 -2.54,-0.06 -0.11,0.02 -0.23,0.06 -0.32,0.07z"/>
   <path class="fil0" d="M0.88 15.04c-0.01,0.09 0.01,0.21 0.07,0.25l0 -0.02c-0.02,-0.16 -0.1,-0.35 0.06,-0.43 0.04,0.06 0,-0.01 0.03,0.05 0.02,0.06 0.04,0.35 0.1,0.47 0.05,0.11 0.08,0.06 0.06,0.17 -0.01,0.07 -0.02,0.04 -0.01,0.12l0.11 0.03c0.01,-0.14 0.07,-0.29 0.13,-0.41 0.05,-0.09 0.15,-0.29 0.08,-0.42 -0.04,0.01 -0.03,0.02 -0.02,-0.02 -0.08,-0.1 -0.03,-0.69 -0.03,-0.86 0,-0.63 -0.02,-6.02 0.01,-6.21 -0.08,0 -0.06,0 -0.13,0.02l-0.11 0c0.04,-0.06 0.01,-0.05 0.1,-0.06 0.03,-0 0.1,0 0.14,0 -0.03,-0.14 0.01,-2.46 0,-2.87l-0.08 -0.77c0.01,-0.1 0.03,0.02 0.01,-0.07 -0.03,-0.27 -0.15,-0.59 -0.16,-0.89 -0.04,-0.06 -0.03,-0.16 -0.03,-0.25 -0.03,0 -0.13,0.03 -0.14,0 -0,-0.01 -0.01,-0.01 -0.02,-0.01 0.01,-0 0.01,-0 0.02,-0.01 0.01,-0 0.01,-0 0.02,-0.01 0.01,-0 0.01,-0 0.02,-0.01 0.01,-0 0.01,-0 0.02,-0 0.05,-0.01 0,-0 0.05,-0 -0.01,-0.3 -0.05,-0.26 -0.03,-0.72 0.01,-0.13 0.04,-0.54 0.07,-0.65 -0,0.01 -0.01,0.01 -0.01,0.01 -0,0 -0.01,0.01 -0.01,0.01l-0.06 0.06c-0.03,0.05 -0.04,0.29 -0.04,0.35 -0,0.11 0,0.12 -0.05,0.18l0.05 -0.55c0.05,-0.22 0.05,-0.44 0.12,-0.64 -0.38,0.34 -0.43,2.3 -0.35,2.57 0,0 0.01,0.02 0.01,0.01 0,-0 0,0.01 0.01,0.01 0.05,-0.03 0.05,-0.02 0.05,-0.08l0.04 -0.44c0.05,0.08 0.04,-0.01 0.03,0.11 -0.01,0.08 -0.05,0.28 -0.02,0.3l0.02 -0.01c0.01,-0.01 0.03,-0.03 0.04,-0.04 0.01,-0.09 -0,-0.18 -0.01,-0.27 -0,-0.18 -0.13,-0.04 -0.01,-0.16 0.01,0 0.01,0 0.01,0.01 0.04,0.04 0.08,0.48 0.08,0.54 0,0.14 0.06,0.3 0.09,0.45 0.18,0.87 0.13,1.68 0.12,2.59 -0,0.18 -0,0.37 -0,0.55 -0,0.42 0.04,0.39 -0.12,0.42l0.01 -0.94c0.03,0.12 0.01,0.39 -0.2,0.45 -0.09,-0.16 -0.04,-1.27 -0.05,-1.56l0.04 -1.39c0.01,-0.18 0,-0.14 -0.02,-0.15l-0.02 0.01c-0.01,0.13 0.02,0.35 -0.03,0.45 0.02,0.3 -0.01,0.62 -0.04,0.9l-0.01 1.41c0,0.1 0.02,0.14 0.03,0.21 0.03,0.15 0.01,0.86 0.03,1.12 0.11,-0.01 0.05,-0.05 0.19,-0.02 0.11,0.15 0.06,0.76 0.05,0.99l-0 2.08c0,0.27 0.06,0.59 -0.08,0.68l-0.07 0.04c-0,0 -0.01,0.01 -0.01,0.01 -0,0 -0.01,0.01 -0.01,0.01l-0.1 0.04c0.02,-0.03 -0.01,-0 0.04,-0.04 0.09,-0.07 0.18,-0.04 0.18,-0.24l-0 -1.53c0,-0.32 0.03,-1.79 -0.02,-1.99 -0.12,-0.02 -0.14,0.04 -0.22,0.09l-0.04 0.08 0.01 3.63 0.07 0.04c-0.04,0.02 -0.04,-0.01 -0.06,0.04 -0.03,0.07 -0.02,0.03 0.01,0.05l0.03 -0.02 0.02 -0.01 0 0.03c0.12,-0.01 0.08,-0.04 0.19,-0.04 0.12,0.15 0.07,0.52 0.07,0.75 0,0.25 0.03,1.94 -0.03,2.05l-0.1 0.1c-0,0 -0.01,0.01 -0.01,0.01l-0.05 0.03c-0.05,0.03 0.02,0 -0.04,0.02 0,-0 0.01,-0.02 0.01,-0.01 0,0.01 0.16,-0.15 0.17,-0.19l0 -1.16c-0,-0.22 0.03,-1.46 -0.02,-1.55 -0.04,-0.04 -0.09,-0.03 -0.14,-0 -0.04,0.02 -0.04,0.03 -0.06,0.04 -0.04,0.02 -0.03,0.02 -0.06,0.04 0.05,0.8 -0.04,1.94 0.03,2.78 0,0.05 -0,0.04 0.02,0.06 0,0 0.01,0 0.01,0.01l0.06 0.03 -0.07 0.06c-0,0 -0.01,0.01 -0.01,0.01 -0.03,0.04 -0.02,-0.07 -0.03,0.1zm-0.04 -2.97l-0.02 0.02c-0.02,0.47 -0,0.95 -0,1.42 0,0.24 -0,0.48 0,0.71 0.01,0.22 0.04,0.45 0.04,0.67l0.03 0 0 0 -0 -0.02c-0.05,-0.4 -0.04,-0.94 -0.04,-1.4 0,-0.21 0.03,-1.3 -0.01,-1.4z"/>
   <path class="fil1" d="M5.85 15.95c0.19,-0.06 0.02,0.04 0.24,-0.08 0.06,-0.03 -0.08,0.02 0.07,-0.03 -0.05,0.22 -0.2,0.22 -0.36,0.24l0.02 -0.05c0,-0 0,-0.01 0.01,-0.01 0.01,-0.02 0.02,-0.06 0.03,-0.07zm-2.6 -15.95l0.67 0c0.36,0.02 0.71,0.07 1.01,0.13 0.18,0.04 0.34,0.13 0.49,0.2 0.3,0.15 0.58,0.34 0.74,0.64 0.22,0.41 0.28,1.25 0.28,1.77l-0.02 0.75c0.09,-0.03 0.07,-0.08 0.18,-0.08 0.1,0 0.35,0.11 0.42,0.15 0.13,0.09 0.2,0.14 0.2,0.35 0,0.31 -0.15,0.2 -0.48,0.09 -0.16,-0.05 -0.25,-0.07 -0.28,-0.19l-0.04 0c0,0.13 0.02,0.23 0.02,0.39 -0,0.35 -0.02,0.93 0,1.22 0.01,0.12 0.02,0.23 0.02,0.39l-0 0.82c-0,0.27 0.06,0.18 0.06,0.35 0,0.3 0.02,0.35 -0.03,0.6 -0.02,0.11 -0.01,5.47 -0.01,5.57 0,0.34 0.02,1.82 -0.09,2.09 -0.02,0.05 -0.04,0.08 -0.06,0.12 -0.09,0.27 0.02,0.69 -0.48,0.78 -0.46,0.08 -1.2,0.09 -1.67,0.12 -0.6,0.05 -2.63,-0.02 -2.97,-0.17 -0.18,-0.08 -0.22,-0.23 -0.26,-0.45 -0.02,-0.1 -0.03,-0.21 -0.06,-0.29 -0.03,-0.1 -0.06,-0.08 -0.09,-0.26 -0.05,-0.35 -0.07,-0.97 -0.07,-1.34l0 -5.09c0,-0.22 0,-0.42 0.02,-0.61 0.03,-0.37 -0.03,-0.49 -0.04,-0.59 -0.04,-0.81 0.06,-0.55 0.06,-0.86 -0.01,-0.94 0.02,-1.86 0.02,-2.79 -0.08,0.03 -0.01,-0 -0.07,0.07 -0.04,0.05 -0.02,0.03 -0.07,0.05 -0.05,0.02 -0.12,0.05 -0.18,0.07 -0.08,0.03 -0.29,0.11 -0.38,0.11 -0.13,0 -0.14,-0.35 0.02,-0.51 0.08,-0.07 0.38,-0.21 0.53,-0.21 0.06,0 0.1,0.05 0.14,0.08 0,-0.78 -0.07,-2.14 0.41,-2.73 0.13,-0.16 0.26,-0.24 0.44,-0.35 0.42,-0.27 1,-0.39 1.6,-0.42zm3.14 6.82l0.02 -0c0.03,0 0.03,-0.01 0.02,0.02 0.06,0.09 0.07,0.61 0.01,0.69 0.01,0.04 0.03,0.04 -0.01,0.04 -0,0.02 -0,0.02 -0.02,0 -0.06,-0.04 0,0.05 -0.01,-0.02 -0.05,-0.02 -0.04,-0.02 -0.04,-0.1 0,-0 0,-0.06 0,-0.06 0.02,-0.1 0,-0.01 0.02,-0.05 0.04,-0.06 0.03,-0.2 0.03,-0.31 -0.01,-0 -0.08,0.01 -0.05,-0.16 0.01,-0.07 0.01,-0.04 0.03,-0.07zm-5.36 -0.08l0.12 -0.02 -0 0.13 -0.1 0.05 -0.02 -0.16zm5.02 -1.69c0.16,0.42 0.15,0.14 0.15,0.75 0,0.21 0.04,0.74 -0.02,0.9 -0.07,0.01 -0.11,-0.02 -0.13,-0.1 -0.03,-0.14 -0.05,-0.91 -0.05,-1.08 0,-0.07 -0.01,-0.36 0.01,-0.41 0.02,-0.06 -0,-0.02 0.04,-0.06zm-4.99 1.68c-0.03,-0.15 -0.04,-1.22 0.01,-1.37 0.02,-0.07 0.05,-0.08 0.08,-0.15 0.03,-0.08 0.04,-0.1 0.08,-0.16 0.01,0.13 0.03,1.5 -0.08,1.63 -0.07,0.08 0.01,0.03 -0.09,0.06zm5.1 -2.95l0.05 1.41c-0.06,-0.02 -0.13,-0.22 -0.15,-0.28 -0.07,-0.22 0.04,-0.94 0.1,-1.14zm-5.1 1.43c-0.05,-0.43 0.03,-0.96 0.03,-1.39 0.03,0.05 0.12,0.6 0.12,0.72 0.01,0.25 -0.03,0.51 -0.16,0.68zm5.71 -1.4c0.08,0 0.14,0.03 0.22,0.06 0.09,0.04 0.12,0.05 0.1,0.16l-0.47 -0.15c-0.08,-0.03 -0.08,-0.06 -0.09,-0.16 0.05,0.01 0.07,0.02 0.13,0.03 0.07,0.02 0.07,0.01 0.11,0.06zm-6.21 0.08l-0.05 0.02c-0.29,0.08 -0.37,0.17 -0.36,0.06 0.01,-0.05 0.05,-0.08 0.1,-0.1 0.07,-0.03 0.16,-0.05 0.22,-0.06 0.05,-0.06 0.04,-0.03 0.11,-0.06 0.06,-0.02 0.07,-0.03 0.13,-0.04 -0.02,0.12 -0.03,0.18 -0.15,0.18zm6.61 0.03c-0.18,-0.06 0.02,0.03 -0.11,-0.06 -0.1,-0.06 -0.11,-0.05 -0.22,-0.1l-0.3 -0.11 -0.01 -0.16c0.11,-0.06 0.49,0.07 0.59,0.21 0.04,0.06 0.06,0.13 0.06,0.22zm-7.09 0.02c0.01,-0.25 0.05,-0.27 0.22,-0.35 0.13,-0.07 0.29,-0.14 0.43,-0.1l0.02 0.16c-0.12,0.04 -0.24,0.08 -0.36,0.12 -0.2,0.06 -0.22,0.12 -0.32,0.17zm6.38 -0.29c-0.16,-0 -0.23,-0.02 -0.21,-0.13 0.01,-0 0.01,-0 0.02,-0l0.05 -0c0.18,0.02 0.13,0.1 0.14,0.14zm-5.45 -0.14c0.02,0.1 0.03,0.08 -0.08,0.11 -0.01,0 -0.08,0.01 -0.08,0.01 -0.05,-0.01 -0.02,0.01 -0.05,-0.04 0.01,-0.05 0.08,-0.08 0.14,-0.09l0.07 0zm0.12 -2.01c0.05,-0.02 0.01,0.01 0.04,-0.02 0.04,-0.03 0.01,-0 0.03,-0.04 0.04,0.01 0.03,0.02 0.02,-0.02 0.04,-0.02 0.01,-0 0.05,-0.03 0.03,-0.02 0,-0 0.04,-0.03l0 -0.05c-0.05,0.03 -0.02,0 -0.06,0.05 -0.02,0.02 -0.02,0.02 -0.03,0.05 -0.03,-0 -0.02,-0.01 -0.02,0.02 -0.05,-0.07 0.01,-0.28 0.03,-0.36 0.05,-0.31 0.07,-0.35 0.33,-0.53 0.05,-0.04 0.21,-0.12 0.23,-0.15 0,-0.06 -0.01,-0.05 0.05,-0.03 0.05,-0.02 0.04,-0.01 0.08,-0.05 0.09,-0 0.03,-0.01 0.05,0.02l0.01 -0.01 -0.01 -0.03 0.04 0.02 0.02 -0 -0.02 -0.04 0.05 0.02 0.02 0 -0.03 -0.05 0.14 -0.04c0.09,-0.02 0.21,-0.05 0.32,-0.07 0.95,-0.17 1.6,-0.11 2.54,0.06l0.03 0.01 0.15 0.05c-0,0 -0.01,0 -0.01,0.01 -0,0 -0.01,0 -0.01,0 -0,0 -0.01,0 -0.01,0l-0.05 0.01 0.02 0.02 0.03 0.01 0.02 -0 -0 0.02 0.02 -0 0 0.02 0.02 -0 0 0.02 0.02 0 0 0.02 0.02 0 0 0.02 0.02 0 0 0.02 0.02 0 0 0.02 0.02 0 0 0.02 0.02 0 0 0.02 0.02 0 0 0.02 0.02 0 0 0.02 0.02 0 0 0.02 0.01 -0 -0.01 -0.02 -0.02 -0.02 -0.02 -0.02 -0.02 -0.02 -0.02 -0.02 -0.02 -0.02 -0.02 -0.02 -0.02 -0.02 -0.02 -0.02 -0.02 -0.02 -0.02 -0.02 -0.02 -0.02 0.01 0c0.04,-0.03 -0.02,-0.03 0.06,-0.01 0.01,0 0.05,0.02 0.06,0.02 0.05,0.02 0.07,0.04 0.1,0.07 0.17,0.06 0.31,0.19 0.43,0.28 0.13,0.1 0.15,0.32 0.19,0.5l0.03 0 -0.02 -0.07 -0.01 -0.08c-0.04,-0.04 0,0.03 -0.02,-0.03 -0,-0.01 -0.01,-0.05 -0.01,-0.06l-0.03 -0.11 0.07 0.09 0.02 0.04 0.02 0.04 0.02 0.04 0.02 0.04 0.04 0.12 0.02 0.06 0.02 0.07c0.05,0.33 0.11,0.53 0.13,0.91 0.02,0.33 0,0.67 0.02,0.99l-0.01 0.23c-0.07,-0 -0.06,0 -0.08,-0.05l-0.04 -0 0 -0.05 -0.02 -0.02 -0.04 0.01c-0.07,0.24 -0.19,1.1 -0.2,1.38 -0.02,0.38 0.04,1.46 0.01,1.58 0.08,0.28 -0.04,0.45 0.14,0.6 0,0 0.01,0.01 0.01,0.01 0,0 0.01,0.01 0.01,0.01 0.11,0.04 0.1,-0.14 0.1,-0.26 0.02,-0.76 -0,-1.87 -0.04,-2.65 -0,-0.02 -0.01,-0.09 -0,-0.1 0.01,-0.1 -0.02,-0.06 0.04,-0.07 0.02,-0.02 0.04,-0.05 0.06,-0.07l0.05 0.01 0.02 0.53 0 0.02 0.02 2.3c0,0.19 -0.14,0.3 -0.02,0.98l0.03 0.02 0 0.39 -0 0.2 -0 0.06c0.06,0.16 0.02,3.07 0.02,3.51 -0.01,0.03 0.01,0.02 -0.01,0.03 -0.03,0.02 -0.02,0 -0.03,-0 -0.03,0 -0.03,0.01 -0.02,-0.03l-0.01 0.03c0.04,0.06 0.05,0.02 0.06,0.1l0.01 0.17c0.01,0.46 0,0.93 0,1.4 0,0.41 0.02,0.98 -0.04,1.37 0,0.07 0.02,0.15 -0.03,0.19l0.01 0.05c-0.01,0.11 -0,0.17 -0.11,0.18l-0.01 0.04c0.05,0.04 0.03,0.14 0.01,0.19 -0.04,0.09 -0,0.02 -0.04,0.05l-0.01 0.04 -0.02 0.14c0,0.09 0,0.02 -0.02,0.04 0.01,0.03 0.01,0.03 -0.02,0.02 0,0.04 0.01,0.03 -0.02,0.02 -0.01,0.03 0.01,0.02 -0.01,0.05 -0.1,0.02 -0.12,0.04 -0.24,0.05l0.01 -0.07c0.03,0.09 0.01,0.03 -0.02,0.06 -0.05,0.11 -0.27,0.11 -0.47,0.13 -0.18,0.02 -0.37,0.04 -0.55,0.05 -0.35,0.03 -0.83,0.07 -1.18,0.04l-0.01 -0.18 -0.01 0.02 -0 -0.01 -0 0.18 -0.43 0 -0.9 -0.04c-0.12,0.02 -0.05,-0 -0.07,-0.02 -0.04,0 -0.06,0 -0.1,-0 -0.01,-0 -0.05,-0.01 -0.06,-0.01 -0.05,-0.02 -0.01,-0 -0.04,-0.02 -0.17,0.02 -0.35,-0.05 -0.52,-0.04l-0.08 -0.01c0.01,0.05 0.01,0.05 0.03,0.08 -0.18,0.03 -0.33,-0.07 -0.37,-0.25 0.15,0.06 0.08,0.08 0.3,0.12 0,-0.01 0.01,-0.03 0,-0.04 -0,-0.04 -0,-0.02 -0.01,-0.04l-0.01 0.04c-0.06,-0.01 -0.16,-0.02 -0.2,-0.06 -0.03,-0.02 -0.02,-0.02 -0.04,-0.05 -0.05,-0.07 -0.09,-0.17 -0.11,-0.29 -0.03,-0.04 -0.02,0.05 -0.04,-0.08 0.01,-0.09 0.02,-0.08 -0.01,-0.15 -0.06,-0.05 -0.08,-0.16 -0.07,-0.25 -0.03,-0.06 -0.01,-0.01 -0.02,-0.08 -0.01,-0.07 0.02,-0 -0.01,-0.07 0,-0.22 -0.03,-0.44 -0.04,-0.67 -0.01,-0.24 -0,-0.48 -0,-0.71 -0,-0.47 -0.01,-0.96 0,-1.42l-0.01 -0.12c-0.01,-0.07 -0.01,-0.02 0.01,-0.08 0.02,-0.1 0.06,0 0.02,-0.04 -0,-0 -0.01,-0.02 -0.01,-0.02 -0,0 -0.01,-0.01 -0.01,-0.02l-0.01 -1.75c0,-0.57 -0.03,-1.25 0.01,-1.81 -0,-0.1 -0.01,-0.59 0.03,-0.64l-0.04 -0.04 -0.02 -0.01c-0.04,-0.15 -0.04,-0.62 0.01,-0.75 0.08,0 0.01,-0.01 0.04,0.03l0.01 -0.02c-0.07,-0.34 0,-2.09 -0,-2.47 -0.01,-0.11 -0,-0.21 -0,-0.32 0,-0.13 -0.03,-0.23 0.07,-0.26l0.05 0.08c0.03,0.01 0.03,-0.03 0.02,0.15l-0.04 1.39c0.01,0.29 -0.04,1.4 0.05,1.56 0.22,-0.06 0.23,-0.34 0.2,-0.45 -0.02,-0.3 0.07,-1.1 0.04,-1.66 -0.02,-0.38 -0.13,-1.12 -0.22,-1.48l-0.03 -0 -0.02 0.01c-0.01,0.04 0.03,0.03 -0.05,0.03 -0,0.06 0,0.05 -0.05,0.08 -0,-0 -0.01,-0.02 -0.01,-0.01 -0,0 -0.01,-0.01 -0.01,-0.01 -0.08,-0.27 -0.03,-2.23 0.35,-2.57 -0.07,0.2 -0.07,0.42 -0.12,0.64zm-0.25 6.05l-0.01 -0.05 -0 0.03c0,0.02 -0.02,0 0,0.02 0.03,0.04 -0.01,0.03 0.01,-0zm-0.01 4.23l0 0.01 -0 -0.01zm0.04 3.09c0.03,-0.03 0.03,0.03 0.01,-0.02 -0.03,-0.06 0.08,0.03 -0.01,-0.01l0 0.02 -0 -0 0 0z"/>
   <path class="fil2" d="M2.19 2.64c0,0.01 0.02,0.06 0.02,0.07 -0.05,0.04 -0.03,0.01 -0.13,0.06 -0.08,0.04 -0.09,0.05 -0.12,0.11l0.17 -0.02c-0.08,0.04 -0.25,0.1 -0.35,0.13 0,0.15 -0.01,0.09 0.05,0.18l0.09 0.11c0.15,0.17 0.15,0.02 0.25,0.16 0.15,0.22 0.17,0.14 0.39,0.16 0.16,0.01 0.33,-0.01 0.5,0.01 -0.01,-0.25 0.13,-0.27 0.52,-0.28 0.48,-0.02 0.52,0.04 0.56,0.27 0,-0 0.01,-0.01 0.01,-0.01 0,0 0.01,-0.01 0.01,-0.01 0.06,-0.03 0.14,-0.01 0.19,0.02l0.04 0.02c0.13,-0.19 0.15,0.04 0.36,-0.11 0.08,-0.05 0.19,-0.07 0.29,-0.07 -0,-0.01 -0.01,-0.02 -0.01,-0.02l-0.01 -0.03c-0.03,-0.06 -0.01,0.03 -0.01,-0.01 0.17,-0.04 0.01,-0.08 0.21,-0.08 -0.03,-0.04 -0.03,-0.03 0.02,-0.07 0.16,-0.12 0.23,-0.02 0.32,-0.22 -0.11,-0.04 -0.18,-0.06 -0.29,-0.1 0.15,-0.02 0.39,0.2 0.33,-0.09 -0.08,-0.01 -0.24,-0.08 -0.35,-0.11 -0.78,-0.24 -1.41,-0.22 -2.22,-0.19 -0.15,0.01 -0.29,0.03 -0.44,0.05 -0.13,0.02 -0.31,0.07 -0.42,0.07z"/>
   <path class="fil1" d="M2.19 2.64c0.12,-0 0.29,-0.05 0.42,-0.07 0.15,-0.02 0.29,-0.04 0.44,-0.05 0.81,-0.03 1.44,-0.05 2.22,0.19 0.11,0.03 0.27,0.1 0.35,0.11 0.23,0.05 0.26,0.22 0.22,0.45 -0.11,0.81 -0.1,0.57 -1.09,0.44 -0.15,-0.02 -0.33,-0.03 -0.47,-0.05 -0.24,-0.04 -0.11,-0 -0.2,-0.07 -0.06,-0.04 -0.13,-0.05 -0.21,-0.05 0.11,0.03 0.15,0.02 0.24,0.07 -0.03,0.02 0.01,0.01 -0.04,0.01l-0.18 -0.02c-0.09,-0.01 -0.15,0.01 -0.25,0.01 -0.18,0 -0.38,0.03 -0.53,0.02 -0,-0 -0,-0.01 -0,-0.01 0,0 0,-0.02 -0.02,-0.01 -0.13,0.04 -0.09,0.05 -0.32,0.06 -0.21,0.01 -0.23,-0.03 -0.44,0.04 -0.08,0.03 -0.33,0.07 -0.42,0.09 -0.42,0.08 -0.44,0.05 -0.53,-0.46 -0.03,-0.16 -0.05,-0.35 0.05,-0.45 0.1,-0.11 0.58,-0.25 0.77,-0.27zm3.76 0.1l0 0.01 -0.16 -0.17 0 -0.01c-0.14,0.02 -0.03,0.02 -0.08,-0.03 -0.07,-0.1 -0.72,-0.26 -0.9,-0.3 -0.71,-0.14 -1.53,-0.14 -2.25,-0.02 -0.19,0.03 -0.84,0.17 -0.94,0.26 -0.06,0.05 0.06,0.01 -0.08,0.05l0 -0.01c-0.05,0.05 0.07,0.05 -0.08,0.03 -0.03,0.02 -0.02,0.01 -0.02,0.03l-0.05 0.06c-0,0 -0.01,0.01 -0.01,0.01l-0.09 0.06 -0 0.01c0.02,0.04 0.02,0.03 -0.02,0.02l-0 0.04c0.14,-0.05 0.02,-0.04 0.14,-0.12 0.04,-0.03 -0.02,0.02 0.04,-0.02 0.16,-0.1 0.13,-0.12 0.44,-0.19 -0.11,0.03 -0.07,-0.02 -0.07,0.11 0.05,0.01 0.52,-0.06 0.59,-0.09 -0.24,0.02 -0.66,0.14 -0.89,0.24 -0.13,0.05 -0.19,0.07 -0.23,0.11 0,-0.08 0.01,-0.01 -0.04,-0.03 -0.03,0.07 -0.02,0.05 -0.02,0.15 0,0.06 0.01,0.12 0.01,0.18 0,0.3 0.13,0.62 0.16,0.89 0.06,0.05 0,-0.06 0.02,0.02 0.01,0.05 0.04,-0.01 -0.01,0.02l0.06 0.01c0.62,-0.18 1.44,-0.28 2.13,-0.29 -0,0.14 -0.07,0.19 -0.03,0.32 0.08,0.3 0.01,0.8 0.04,1.13 0.07,-0.16 -0.03,-0.88 0.04,-1.11 0.04,-0.13 -0.02,-0.21 -0.03,-0.34 0.39,-0.01 0.78,0.03 1.14,0.08l1.05 0.2c0.05,-0.11 0.08,-0.26 0.09,-0.4l0.02 -0.09c-0.01,-0.11 0.02,-0.29 0.05,-0.39 -0.02,-0.16 0.05,-0.19 -0.01,-0.38 -0.06,0.05 -0.05,-0.07 -0.05,0.06 0.03,-0.03 -0.02,-0.02 -0.08,-0.05l-0.37 -0.15c-0.17,-0.06 -0.36,-0.12 -0.55,-0.15 0.06,0.03 0.46,0.13 0.55,0.13 -0.02,-0.12 -0.02,-0.1 -0.15,-0.14l-0.66 -0.14c-0.29,-0.04 -0.67,-0.1 -0.96,-0.1l0.03 0.1c0.05,0.02 0.35,0.04 0.39,0.03 -0.14,-0 -0.91,-0.02 -0.97,0.01 0.08,-0.01 0.14,-0 0.22,-0.01 0.11,-0.01 0.13,-0.02 0.14,-0.1 -0.14,-0.05 -0.51,0.02 -0.69,0.03 -0.13,0.01 -0.56,0.04 -0.66,0.14l0.38 -0.01c-0.24,0.03 -0.28,-0.03 -0.66,0.02 0.52,-0.21 1.58,-0.26 2.18,-0.23 0.43,0.03 1.29,0.15 1.68,0.38 0,0 0.01,0.01 0.01,0.01 0.06,0.04 0.07,0.04 0.11,0.09 0.07,0.11 0.03,0.1 0.07,0.04z"/>
   <path class="fil3" d="M5.63 2.82c0.06,0.28 -0.17,0.06 -0.33,0.09 0.1,0.05 0.18,0.07 0.29,0.1 -0.09,0.21 -0.16,0.1 -0.32,0.22 -0.06,0.04 -0.05,0.04 -0.02,0.07 -0.2,0 -0.04,0.05 -0.21,0.08 -0.01,0.04 -0.02,-0.05 0.01,0.01l0.01 0.03c0,-0 0.01,0.01 0.01,0.02 -0.1,0 -0.22,0.02 -0.29,0.07 -0.21,0.15 -0.23,-0.08 -0.36,0.11l-0.04 -0.02c-0.06,-0.02 -0.14,-0.04 -0.19,-0.02 -0,0 -0.01,0.01 -0.01,0.01 -0,-0 -0.01,0 -0.01,0.01 -0.04,-0.23 -0.08,-0.28 -0.56,-0.27 -0.39,0.01 -0.53,0.03 -0.52,0.28 -0.16,-0.02 -0.34,0 -0.5,-0.01 -0.23,-0.02 -0.24,0.06 -0.39,-0.16 -0.1,-0.14 -0.1,0 -0.25,-0.16l-0.09 -0.11c-0.07,-0.09 -0.05,-0.03 -0.05,-0.18 0.1,-0.03 0.27,-0.09 0.35,-0.13l-0.17 0.02c0.02,-0.06 0.04,-0.07 0.12,-0.11 0.09,-0.05 0.08,-0.02 0.13,-0.06 -0.01,-0.02 -0.02,-0.07 -0.02,-0.07 -0.19,0.02 -0.67,0.16 -0.77,0.27 -0.09,0.1 -0.07,0.29 -0.05,0.45 0.09,0.51 0.11,0.54 0.53,0.46 0.09,-0.02 0.34,-0.06 0.42,-0.09 0.21,-0.07 0.23,-0.03 0.44,-0.04 0.23,-0.02 0.19,-0.03 0.32,-0.06 0.03,-0.01 0.02,0.01 0.02,0.01 0,-0 0,0.01 0,0.01 0.15,0.01 0.35,-0.02 0.53,-0.02 0.1,-0 0.16,-0.02 0.25,-0.01l0.18 0.02c0.05,-0 0,0.01 0.04,-0.01 -0.09,-0.06 -0.14,-0.04 -0.24,-0.07 0.09,-0 0.16,0 0.21,0.05 0.09,0.07 -0.03,0.03 0.2,0.07 0.15,0.03 0.32,0.03 0.47,0.05 0.99,0.13 0.98,0.37 1.09,-0.44 0.03,-0.24 0.01,-0.41 -0.22,-0.45z"/>
   <path class="fil0" d="M1.6 14.88l-0.03 0.27c0.01,0.03 -0.03,0.03 0.13,0.05 0.29,0.05 1.15,0.12 1.38,0.09l1.03 -0c0.28,0.07 1.26,-0.07 1.58,-0.11l-0.05 -0.32 -0.17 -0.02 -3.66 0c-0.02,0.01 -0.01,0.01 -0.06,0.02 -0.02,0.01 -0.04,0.01 -0.06,0.01 -0.04,0 -0.06,-0 -0.09,-0.01z"/>
   <path class="fil4" d="M4.67 15.44c0.01,0.01 -0.01,0.01 0.04,0.01 0.01,0 0.04,0 0.06,0 0.04,0 0.09,-0 0.13,-0l0.11 -0 -0.01 -0.01 -0.01 -0.01 -0.32 0.01zm-0.11 0.02c-0.1,0 -0.57,0 -0.61,0.06 -0.03,0.06 -0.02,0.21 -0.01,0.28 0.19,0.12 0.7,-0.05 0.95,0.01l-0.03 0.01c-0.35,0.09 -1.95,0.04 -2.33,0.01 -0.17,-0.02 -0.65,-0.09 -0.78,-0.08 -0.1,0.01 -0.03,0.01 -0.06,-0.02 -0.09,-0.02 -0.16,-0.01 -0.16,-0.1 -0,-0.04 0.05,-0.2 0.07,-0.23 0.08,-0.11 0.38,-0.01 0.53,-0.02 0.02,-0.01 -0.01,-0.02 0.05,-0.01 0.04,0.01 0.04,0.01 0.06,0.03 0.15,0.02 0.38,0.05 0.52,0.02 0.04,-0.01 0.04,-0.02 0.09,-0.01 0.03,0 0.04,0 0.06,0.01 0.06,0.02 0.04,0.01 0.06,0.02 0.45,0.02 0.9,0.01 1.35,-0 0.22,-0.01 0.46,-0.01 0.67,-0.04 0.17,-0.02 0.47,-0.07 0.61,-0.04 0.04,-0 0.03,-0.01 0.02,0.02l0.03 0.03c0.04,-0.01 0.03,-0.01 0.02,0.04 0.01,0.11 0.05,0.11 0.03,0.25 -0.11,0.07 -0.65,0.14 -0.82,0.12 0.04,-0.03 0.18,-0.03 0.27,-0.05l0.01 -0.01 -0.42 0.02c-0.15,-0 -0.17,-0.03 -0.14,-0.27 0.04,-0.03 -0,-0.01 0.06,-0.02l-0.1 -0.02zm-3.21 0.21c0.04,-0.01 0.03,-0.02 0.03,0.02l0.01 0.04 0.03 0.02c0.44,0.19 1.62,0.18 2.19,0.24l0.01 -0.02c0.01,0 0.02,0.01 0.03,0.01 0.02,0.01 0.02,0.01 0.05,0.01 0.06,0 0.05,0 0.09,-0.01 0.15,-0.07 0.7,-0.04 0.91,-0.06 0.15,-0.01 0.3,-0.03 0.45,-0.04 0.15,-0.02 0.29,-0.06 0.44,-0.05 0.02,-0.02 -0.01,-0.01 0.05,-0.03l0.24 -0.06c0.03,-0.13 -0.11,-0.44 -0.19,-0.53 -0.32,0.04 -1.3,0.17 -1.58,0.11l0.02 0.08c-0.13,0.04 -0.95,0.04 -1.07,-0.01l0.02 -0.06c-0.23,0.03 -1.09,-0.04 -1.38,-0.09 -0.16,-0.03 -0.12,-0.03 -0.13,-0.05 -0.01,0.01 -0.01,0.03 -0.02,0.06 -0.08,0.17 -0.15,0.22 -0.2,0.46zm4.41 0.13c-0.1,-0.01 -0.05,-0.03 -0.05,0.02 0.08,0.02 0.02,0.01 0.05,-0.02zm-4.38 -0.04c0,0.06 0,0.11 0.02,0.15 0.03,0.12 0.02,0.05 0.08,0.11 0.17,-0.01 0.35,0.07 0.52,0.04l0 0 -0.08 0c-0.04,0.01 -0.03,0.02 -0.03,-0.02l-0.29 -0.11c0.02,-0.02 0.01,-0.01 0.05,-0.03 0.03,-0.01 0.02,-0.01 0.06,-0.01l0.92 0.07c-0.04,-0.01 -0.24,-0.03 -0.3,-0.03 -0.13,-0.01 -0.21,-0.02 -0.33,-0.04 -0.24,-0.03 -0.41,-0.09 -0.61,-0.13z"/>
   <path class="fil5" d="M3.37 9.27c-0.03,0.03 0.01,0.01 -0.05,0.03 -0,0 -0.06,0 -0.06,0l-0.38 0 -0.01 0.47 0.37 -0c0.1,-0 0.08,-0.01 0.13,0.02l-0 0.49 0.51 0.01 -0 -0.5 0.5 0 0.01 -0.51 -0.5 -0 -0.01 -0.5 -0.5 -0 0 0.49z"/>
   <path class="fil3" d="M1.46 7.72l-0 0.04c0.03,0.06 0.02,0.81 0.02,0.87 0,0.71 -0.02,5.92 0.01,6.19l0.02 0.02c0.07,0.04 0,0.01 0.1,0.03 0.03,-0.03 0.02,-0.02 0.08,-0.02 0.04,-0 0.09,-0 0.13,-0l3.66 -0c0.07,-0 0.14,-0.02 0.18,0.03 0.05,-0.03 0.02,-0 0.06,-0.03 0.09,-0.1 0.04,-0.39 0.04,-0.54l0 -6.23c-0,-0.47 0.02,-1.92 -0.01,-2.27l-0.1 0c-0.05,0.09 -0.01,0.01 -0.02,0.07 -0,0.01 -0,0.05 -0,0.06l0 0.86c0.05,0.09 -0,-0.02 0.06,0.05 0.03,0.03 0.02,-0.03 0.03,0.07 0,0.04 -0,0.14 -0,0.19l0 7.27c0,0.12 0.02,0.37 -0.03,0.42 -0.04,0.03 -3.13,0.01 -3.68,0.01 -0.07,0 -0.43,0.03 -0.46,-0.03 -0.06,-0.11 -0.02,-3.49 -0.02,-3.93 0,-1.31 -0.01,-2.62 0,-3.93 0,-0.12 -0,-0.05 0.02,-0.07 0.02,-0.03 0,-0.02 0.07,-0.03l-0 -1 -0.12 -0.01c-0.02,0.32 0.04,1.76 -0.02,1.9z"/>
   <path class="fil4" d="M1.72 6.29c-0.01,0.09 0.01,0.04 0.02,0.05 0.17,0.27 -0.15,0.35 0.76,0.33 0.36,-0.01 0.74,-0 1.1,-0 0.24,0 1.46,0.02 1.63,-0.01 0.29,-0.05 0.17,-0.1 0.25,-0.32 0.02,-0.01 0.02,0.04 0.02,-0.05 -0.03,0.01 -0.02,-0.02 -0.02,0.05l-0.06 0.04c-0.1,0.06 -0.26,0.04 -0.38,0.05 -0.07,0 -0.12,-0.02 -0.11,0.04 -0.02,0.06 -0.06,0.08 -0.15,0.09 -0.24,0.01 -0.21,-0.06 -0.22,-0.08 -0.01,-0.05 -0.02,-0.03 -0.1,-0.03l-0.35 0.01c-0.31,0.01 -1.33,-0.04 -1.45,0.02 -0.01,0.03 0.03,0.02 -0.04,0.03 -0.09,0.04 -0.21,0.06 -0.3,-0 -0.04,-0.01 -0.08,-0.01 -0.12,-0.02 -0.09,-0.02 -0.01,-0.04 -0.14,-0.06l-0.08 -0.02c-0,-0.01 -0.01,-0 -0.02,-0.01 -0.05,0 -0.08,0 -0.13,-0.02l-0.09 -0.06c-0,-0.05 0.02,-0.03 -0.02,-0.05l0.01 -0.46c-0.07,0.09 -0.06,0.39 -0.01,0.46z"/>
   <path class="fil5" d="M3.05 5.68l0 0.61c0.19,0 1.02,0.03 1.13,-0.01 0.01,-0.13 0.03,-0.51 -0.01,-0.62l-1.1 0 -0.02 0.02z"/>
   <path class="fil6" d="M1.4 4.01c0.01,0.1 -0.01,-0.03 -0.01,0.07l0.08 0.77c0.01,0.41 -0.03,2.73 -0,2.87 -0.04,0 -0.11,-0 -0.14,-0 -0.09,0.01 -0.06,0 -0.1,0.06l0.11 0c0.06,-0.02 0.04,-0.02 0.13,-0.02 -0.03,0.19 -0.01,5.58 -0.01,6.21 0,0.17 -0.05,0.76 0.03,0.86 -0.01,0.04 -0.02,0.03 0.02,0.02 0.07,0.12 -0.03,0.33 -0.08,0.42 -0.06,0.12 -0.12,0.27 -0.13,0.41l0.05 -0.01 -0.01 0.03 0.04 -0.02 0.01 0.04 -0.01 0.02 0.04 0 -0.03 -0.02 -0.01 -0.04c0.01,-0.04 0.01,-0.03 -0.03,-0.02 0.05,-0.24 0.12,-0.29 0.2,-0.46 0.01,-0.02 0.02,-0.04 0.02,-0.06l0.03 -0.27c0.03,0.01 0.05,0.01 0.09,0.01 0.02,-0 0.04,-0 0.06,-0.01 0.05,-0.01 0.04,-0.01 0.06,-0.02 -0.04,0 -0.09,-0 -0.13,0 -0.07,0 -0.06,-0.01 -0.08,0.02 -0.1,-0.02 -0.02,0.01 -0.1,-0.03l-0.02 -0.02c-0.03,-0.27 -0.01,-5.49 -0.01,-6.19 0,-0.06 0.02,-0.81 -0.02,-0.87l0 -0.04c0.07,-0.15 0,-1.58 0.02,-1.9l0.12 0.01 0 1c-0.07,0.01 -0.05,0.01 -0.07,0.03 -0.03,0.02 -0.02,-0.05 -0.02,0.07 -0.01,1.31 0,2.62 -0,3.93 -0,0.44 -0.04,3.82 0.02,3.93l0.01 -7.93c0.15,0.01 0.06,-0.02 0.07,-0.03 0.03,-0.11 0.03,-0.92 -0,-1l-0.03 -0.01c-0,-0 -0.01,-0 -0.01,-0.01l-0.05 -0.02c-0.02,-0.31 0.01,-0.63 -0.02,-0.94l-0.03 -0.8 -0.06 -0.01c0.05,-0.03 0.02,0.03 0.01,-0.02 -0.02,-0.08 0.04,0.03 -0.02,-0.02z"/>
   <path class="fil4" d="M4.25 13.15c0.02,-0.18 0.12,-0.06 0.08,-0.02 -0.02,0.02 -0.06,0.02 -0.08,0.02zm0.06 -0.05c-0,-0.01 -0.05,-0.06 -0.02,-0 0,0 0.04,0.05 0.02,0zm-1.41 -0.02c0,-0 0.01,-0.01 0.01,-0.01 0,0 0.02,-0.01 0.02,-0.01 0.01,-0 0.04,-0.01 0.04,-0.01 0,0 0.04,-0.01 0.01,0.06 -0.03,0.06 0.02,0.01 -0.04,0.03l0.02 -0.06c-0.07,0.03 -0.03,0.03 -0.06,-0.01zm1.37 -1.16c0.04,-0.04 0.15,0.07 -0.02,0.09l0.02 -0.09zm0.03 0.03c0,0 0,0.01 0,0.01l-0 -0.01zm-1.31 0c-0.02,0.05 -0,0.04 -0.05,0.06 -0.02,-0.02 -0.06,-0.04 -0.02,-0.08 0.04,-0.04 0.05,-0.01 0.08,0.02zm-0.01 1.27l1.29 0c0.14,-0.13 0.1,0.05 0.1,-0.62 -0,-0.17 0.03,-0.6 -0.02,-0.72l-0.15 0c-0.05,0.27 0.01,0.86 -0.01,1.18 -0.13,0.08 -1.09,0.06 -1.14,0.01 -0.06,-0.07 0.01,-1.05 -0.02,-1.18l-0.15 0c-0,0.01 -0,0.01 -0,0.02l-0.01 0.69c-0,0.54 -0.05,0.48 0.11,0.62z"/>
   <path class="fil1" d="M5.15 15.76c-0.09,0.01 -0.22,0.02 -0.27,0.05 0.16,0.03 0.7,-0.05 0.82,-0.12 0.02,-0.14 -0.03,-0.14 -0.03,-0.25 -0.04,0 -0.02,0.01 -0.02,-0.04 -0.04,0.01 -0.04,0.05 -0.03,-0.03 -0.03,0 -0.02,0.01 -0.02,-0.02 -0.15,-0.03 -0.44,0.02 -0.61,0.04 -0.21,0.02 -0.45,0.03 -0.67,0.04 -0.45,0.02 -0.89,0.02 -1.35,0 -0.02,0 -0.11,-0 -0.12,-0 -0.12,0.01 -0.05,-0.02 -0.09,0.04l0.42 0c0.08,0.01 0.09,0.01 0.12,0.04 0.04,0.05 0.02,0.23 0.01,0.3 -0.2,0.06 -0.89,-0.01 -1.13,-0.04 -0.2,-0.01 -0.47,-0.04 -0.61,-0.1 0,-0.11 0.04,-0.21 0.09,-0.28 0.16,-0.03 0.42,0.03 0.54,0.03 0.11,0.01 0.19,0.02 0.28,0.02 0.04,0 0.1,0.01 0.14,0 0.13,-0 0.11,-0.01 0.13,-0.04 -0.14,0.03 -0.37,-0 -0.52,-0.02 -0.02,-0 -0.06,-0 -0.08,-0 -0.06,-0.01 -0.02,0.03 -0.03,-0.02 -0.15,0.02 -0.45,-0.09 -0.53,0.02 -0.03,0.04 -0.07,0.2 -0.07,0.23 0,0.09 0.07,0.08 0.16,0.1 0.1,-0 0.05,-0.01 0.06,0.02 0.13,-0.01 0.61,0.06 0.78,0.08 0.38,0.03 1.98,0.08 2.33,-0.01l0.03 -0.01c-0.25,-0.05 -0.76,0.11 -0.95,-0.01 -0.02,-0.07 -0.02,-0.22 0.01,-0.28 0.04,-0.06 0.52,-0.06 0.61,-0.06 0.03,-0.02 -0.03,-0 0.04,-0.02 0.04,-0.01 0.03,-0 0.06,-0l0.32 -0.01 0.57 -0.04 0.07 0.13c0.06,0.21 -0.02,0.23 -0.48,0.25z"/>
   <path class="fil1" d="M3.22 12.84c0.01,0.01 -0.01,0.01 0.03,0.04 0.03,0.03 0.02,0.02 0.05,0.02l0.05 0.03 -0.01 0.01 0.03 0 0.04 0.03 -0 -0.01 0.04 0.03 0.01 -0.01 0.01 -0 -0.13 -0.04c-0.03,-0.05 -0.02,-0.03 -0.03,-0.08l0.1 0.05c0.01,-0.07 0.02,-0.07 0.08,-0.1l-0.06 0.12c0.08,0.03 0.08,0.05 0.17,0.02l-0.01 -0.2c-0.01,-0.06 -0.03,-0.06 -0.06,-0.04 -0,0 -0.02,0.02 -0.02,0.02l-0.02 0.03c0.01,-0.03 0.02,-0.13 0.05,-0.12 0.05,0.01 -0.03,-0.01 0.03,0.02 0,0 0.01,0 0.01,0l0.12 0.02c-0.08,0.06 -0.04,0.16 -0.06,0.29l0.19 -0.05c-0.04,-0.16 -0.11,-0.18 -0.15,-0.33 0.07,0.03 0.06,-0 0.09,0.07 0.03,0.08 -0.01,-0.07 0,0.04l0.05 0.12c0.06,0.09 0,0.04 0.08,0.07 0.03,-0.07 0.06,-0.03 0.07,-0.13 -0.06,-0.03 -0.09,-0.02 -0.13,0.05 0.06,-0.06 0.06,-0.04 0.06,-0.11l-0.09 0.03c0.04,-0.05 0.01,-0.07 -0.02,-0.13l0.22 0.17c0.03,-0.1 0.07,-0.15 0.07,-0.26 -0.08,0 -0.11,0 -0.19,-0l-0.04 -0c-0,-0 -0.01,-0 -0.01,-0l-0.08 -0.01c0.04,-0.03 0.06,-0.02 0.09,-0.03 0,-0 0.03,-0.01 0.03,-0 0,0 0,-0.05 0,0.02l0.19 -0.01c-0.01,-0.1 -0.02,-0.18 -0.09,-0.25 -0.02,0.03 0.02,-0.05 -0.02,0.02l-0.02 0.1c-0.03,-0.12 -0.03,-0.08 0.01,-0.16l-0.1 -0.08 -0.07 0.1c0.02,-0.07 0.03,-0.05 0.03,-0.14l-0.17 -0.03c0,0.06 0,0.11 0,0.17 0,0.02 0,0.07 -0,0.08 -0.02,0.12 0,0.03 -0.03,0.07 -0.03,-0.07 -0.02,-0.11 -0.02,-0.19l-0.03 -0.01c-0,-0 -0.01,-0 -0.02,-0.01 -0.01,-0 -0.01,-0 -0.02,-0 -0.06,-0.02 0.02,0.01 -0.05,-0.01 0.06,-0.01 0.09,-0.01 0.12,-0.07 -0.04,-0.03 0.01,-0.01 -0.05,-0.02 -0.05,-0.01 -0.1,0.02 -0.15,0.04l0.05 0.09c0,0 0.01,0.01 0.01,0.01l-0.1 -0.06c-0,0.02 0.01,-0.01 -0.01,0.02l-0.05 0.07c-0.04,0.03 -0.06,0.03 -0.08,0.07 0.03,0.04 0.08,0.05 0.13,0.07 -0.06,-0.02 -0.08,-0.03 -0.15,-0.04l-0.03 0.15c0.13,0.01 0.23,-0.03 0.31,0.02 -0.03,0.12 0.01,0.02 -0.06,0.07 -0.05,0.03 -0.03,-0.05 -0.05,0.08 0.02,-0.09 -0.05,-0.03 -0.08,0.03 -0,-0.01 -0.02,-0.02 -0.02,-0.02 -0,-0 -0.01,-0.01 -0.01,-0.01l0.21 -0.11c-0.06,-0.03 -0.23,-0.02 -0.29,-0.02 -0,0.09 0.02,0.12 0.06,0.19 -0.03,0.04 -0.05,-0.01 -0.03,0.07l-0.01 -0.01c0.02,-0.01 0.02,0.03 0.02,-0.02l0.02 0.04c0.02,0.02 -0.03,0.03 0.01,-0 0.06,0.03 0.02,0.03 0.08,0.01 0.02,-0.07 0.02,-0.05 -0.03,-0.11 0,0 0.01,0.01 0.01,0.01l0.05 0.05c0.05,-0.05 0.05,-0.03 0.11,-0.08l-0.04 0.06c-0.02,0.03 -0.05,0.02 -0.01,0.09 -0.05,-0.02 -0.03,-0.04 -0.08,-0.01 -0.05,0.04 -0.03,0.04 -0.03,0.07 -0.01,-0 -0.01,-0.01 -0.01,-0.01l-0.03 -0.01c-0.07,-0.03 0.01,-0.05 -0.04,-0.01zm0.48 -0.43c0.03,0.1 0.03,0.24 -0.13,0.21 -0.07,-0.01 -0.03,0.03 -0.06,-0.04 -0.06,-0.12 0.05,-0.19 0.07,-0.21l0.12 0.04zm0.08 -0.05c-0.05,-0.02 -0.01,-0.02 -0.05,0 -0.02,0.01 -0.02,0.03 -0.02,0.03 -0,-0 -0.01,0.01 -0.01,0.02 0.02,-0.1 0.04,-0.08 -0.04,-0.12l0.07 0.03 0.04 -0.11c0.01,0.01 0.01,0.01 0.02,0.02l0.13 0.15 -0.1 0.05c-0.04,0.03 -0.02,0.02 -0.09,0.04 0.03,-0.04 0.05,-0.07 0.1,-0.09 0,-0 0.01,-0 0.01,-0 0.05,-0.01 -0.04,-0.01 0.04,-0 -0.05,-0.06 -0.02,-0.05 -0.09,-0.1 -0.06,0.07 -0.02,0.11 -0.01,0.1z"/>
   <path class="fil6" d="M6.18 14.96l-0.02 0.1 -0.02 0.08 -0.02 0.07c0.03,-0.04 0.02,-0.01 0.02,-0.07 0.04,-0.05 0.02,-0.02 0.02,-0.08 0.04,-0.02 0.02,-0.06 0.02,-0.1l0.05 -0.09 0.06 0.05c0,-0 0.01,-0.02 0.01,-0.01l-0 -0.07c0.06,0.06 0.04,0.04 0.07,0.04 0.06,-0.39 0.04,-0.96 0.04,-1.37 0,-0.47 0.01,-0.94 -0,-1.4 -0.02,-0.04 -0.04,-0.08 -0.07,-0.11 -0.01,-0.01 -0.04,-0.03 -0.04,-0.04 -0.04,-0.05 -0.05,0.04 -0.02,-0.05 -0.1,-0.02 -0.12,-0.06 -0.2,-0.04 -0.13,0.11 -0.07,0.47 -0.07,0.65 0,0.4 -0.03,1.99 0.03,2.16 0.06,-0.11 0.03,-0.56 0.03,-0.69l0 -1.92c-0.01,-0.28 0.14,-0.11 0.27,-0.06 -0.03,0.69 0.02,1.44 -0,2.14 -0,0.18 -0.05,0.54 -0.04,0.7 -0.07,-0.04 -0.19,-0.12 -0.21,-0.21 -0.01,0.01 -0.01,0.01 -0.01,0.02 -0,0.03 -0.1,0.07 0.16,0.18 -0.06,0.03 -0.06,0.06 -0.05,0.13zm0.17 0.16l-0.01 -0.05c0.02,-0.09 0.05,-0.09 -0.01,-0.15 -0.03,0.04 -0.02,0.34 -0.02,0.34l0.04 -0.14z"/>
   <path class="fil7" d="M2.66 6.49c0.11,-0.07 1.14,-0.01 1.45,-0.02l0.35 -0.01c0.08,0 0.09,-0.02 0.1,0.03 0.01,0 0.01,0 0.02,0.01l0.05 0.03c0,0 0.01,0.01 0.02,0.01l0.01 -0.04c-0,-0 -0,-0.01 -0.01,-0.01l-0.05 -0c0.06,-0.02 0.15,-0.05 0.25,-0.03 0,0.09 -0.05,0.05 -0.11,0.06 -0.11,0.03 -0.03,-0 -0.07,0.04 0.17,-0.01 0.17,0.01 0.26,-0.07 -0.01,-0.06 0.05,-0.04 0.11,-0.04 0.11,-0.01 0.28,0 0.38,-0.05l0.06 -0.04c-0,-0.07 -0.01,-0.03 0.02,-0.05 -0.02,-0.12 0,-0.3 -0.01,-0.43 -0.02,-0.25 -0.22,-0.19 -0.52,-0.22 -0.51,-0.04 -1.79,-0.07 -2.29,-0.03 -0.2,0.02 -0.66,0.02 -0.82,0.06l-0.1 0.05c-0.02,0.03 -0.03,0.06 -0.04,0.1l-0.01 0.46c0.04,0.02 0.02,-0 0.02,0.05l0.09 0.06c0.05,0.02 0.08,0.02 0.13,0.02 0.09,-0 0.1,0.01 0.18,0.02 0.04,0.01 0.12,-0.01 0.2,-0 -0.01,0.06 -0,0.03 -0.02,0.08 0.09,0.06 0.21,0.04 0.3,0 -0.01,-0.01 0.01,-0.01 -0.03,-0.01 -0.05,-0 -0.13,0.02 -0.21,-0.01 0.02,-0.11 -0.01,-0.04 0.24,-0.05l0.01 0.02c0.02,0.04 -0.02,0.02 0.03,0.02zm1.57 -0.2l-0.02 -0.38 0 -0.26 0.6 0.04 0.12 -0.01 0.42 0.04c0.04,0.01 0.06,0.01 0.1,0.02 -0.01,0.53 0.19,0.63 -0.53,0.66l-0.71 0.01 0.01 -0.12zm-2.37 -0.56c0.02,-0.02 -0,-0.02 0.07,-0.03l0.38 -0.03 0.12 0c0.13,-0.03 0.34,-0.04 0.48,-0.02 0.06,-0 0.06,-0.01 0.09,0.01l0.06 0.01 0.02 -0.02 1.1 0c0.03,0.11 0.02,0.49 0.01,0.62l0.01 0.12c-0.09,0.06 -1.07,0.05 -1.15,-0l0.02 -0.1 -0.06 0 0.01 0.1c-0.1,0.04 -0.81,-0.01 -0.97,-0.02 -0.17,-0.01 -0.25,-0.04 -0.28,-0.23 -0.01,-0.07 -0,-0.2 -0,-0.27 0.01,-0.15 0.01,-0.13 0.11,-0.15z"/>
   <path class="fil8" d="M1.05 3.37c0.09,0.36 0.2,1.1 0.22,1.48 0.03,0.56 -0.06,1.35 -0.04,1.66l-0.01 0.94c0.16,-0.03 0.12,0 0.12,-0.42 0,-0.18 0,-0.37 0,-0.55 0.01,-0.91 0.05,-1.72 -0.12,-2.59 -0.03,-0.15 -0.08,-0.31 -0.09,-0.45 -0.03,-0.03 -0,0.04 -0.04,-0.06 -0.01,-0.03 -0,-0.03 -0.01,-0.06 -0.02,0.09 0.01,0 -0.04,0.05z"/>
   <path class="fil0" d="M5.76 15.8c-0.02,0.03 0.04,0.04 -0.05,0.02l-0.13 0.01c-0.3,0.04 -0.55,0.11 -0.88,0.13 -0.33,0.01 -0.2,0.06 -0.43,0.08l-0.47 0.01 -0.01 -0.06c-0.04,0.01 -0.03,0.02 -0.09,0.01 -0.04,-0 -0.03,-0 -0.05,-0.01 -0,-0 -0.02,-0.01 -0.03,-0.01l0.01 0.18c0.34,0.03 0.83,-0.01 1.18,-0.04 0.19,-0.01 0.37,-0.03 0.55,-0.05 0.2,-0.02 0.42,-0.02 0.47,-0.13 0,-0.09 -0.01,-0.04 0.02,-0.06l-0 -0.09 -0.09 0.02z"/>
   <path class="fil8" d="M3 5.67l0 0.25 0 0.15 -0.01 0.22c-0.27,0.01 -0.9,0.02 -1.13,-0.03 -0.02,-0.1 -0.04,-0.44 -0,-0.52l0.07 -0.03c-0.07,0.01 -0.05,0.01 -0.07,0.03 -0.1,0.02 -0.1,-0.01 -0.11,0.15 -0,0.07 -0.01,0.2 0,0.27 0.03,0.19 0.11,0.22 0.28,0.23 0.16,0.01 0.88,0.05 0.97,0.02l-0.01 -0.1 0.06 -0 -0.02 0.1c0.09,0.05 1.06,0.06 1.15,0l-0.01 -0.12c-0.11,0.04 -0.93,0.01 -1.13,0.01l0 -0.61 0.02 -0.02 -0.02 0.02 -0.06 -0.01c-0.03,-0.02 -0.03,-0.01 -0.09,-0.01l0.09 0.01z"/>
   <path class="fil3" d="M5.98 2.77l0 -0.03 -0.03 0.01c-0.04,0.07 -0,0.07 -0.07,-0.04 -0.04,-0.06 -0.05,-0.05 -0.11,-0.09 -0,-0 -0.01,-0.01 -0.01,-0.01 -0.38,-0.23 -1.25,-0.36 -1.68,-0.38 -0.6,-0.04 -1.66,0.02 -2.18,0.23 0.38,-0.05 0.42,0.01 0.66,-0.02l-0.38 0.01c0.1,-0.1 0.53,-0.12 0.66,-0.14 0.18,-0.02 0.55,-0.08 0.69,-0.03 -0.02,0.09 -0.04,0.1 -0.14,0.1 -0.07,0 -0.14,0 -0.22,0.01 0.06,-0.04 0.83,-0.02 0.97,-0.01 -0.04,0.01 -0.34,-0.01 -0.39,-0.03l-0.03 -0.1c0.29,0 0.67,0.06 0.96,0.1l0.66 0.14c0.13,0.04 0.13,0.02 0.15,0.14 -0.09,-0 -0.49,-0.09 -0.55,-0.13 0.18,0.03 0.38,0.09 0.55,0.15l0.37 0.15c0.06,0.02 0.11,0.01 0.08,0.05 -0,-0.13 -0.01,-0.01 0.05,-0.06zm-0.03 -0.02l0.01 -0.05c-0.04,0.01 -0.04,0.01 -0.02,-0.03 -0.03,0 -0.03,0.01 -0.02,-0.02 -0.03,0 -0.03,0.01 -0.02,-0.02 -0.03,0 -0.02,0.01 -0.02,-0.02 -0.03,0.01 -0.03,0.02 -0.02,-0.02 -0.04,0.02 -0.03,0.03 -0.03,-0.02l-0.03 0 0.16 0.17zm-4.68 0.03l-0.02 -0.02 0.01 0.03c0.05,0.02 0.04,-0.05 0.04,0.03 0.04,-0.05 0.09,-0.06 0.23,-0.11 0.23,-0.09 0.65,-0.21 0.89,-0.24 -0.07,0.03 -0.54,0.1 -0.59,0.09 -0,-0.13 -0.04,-0.09 0.07,-0.11 -0.31,0.07 -0.28,0.09 -0.44,0.19 -0.06,0.04 0.01,-0.01 -0.04,0.02 -0.11,0.08 0,0.07 -0.14,0.12zm-0 -0.05l0.01 0.02c0.04,0.02 0.03,0.02 0.02,-0.02l-0.02 0zm0.17 -0.14c-0.09,0.05 -0.09,0.06 -0.15,0.13l0.09 -0.06c0,-0 0.01,-0.01 0.01,-0.01l0.05 -0.06zm0.1 -0.06c-0.05,0.01 -0.06,0.02 -0.08,0.03 0.15,0.03 0.03,0.02 0.08,-0.03zm0.08 -0.04c-0.05,0.01 -0.03,0.01 -0.06,0.02 -0.11,0.06 0.07,-0.08 -0.02,0.02 0.14,-0.03 0.02,0 0.08,-0.05zm4.09 0.06c0.05,0.05 -0.07,0.05 0.08,0.03 -0.02,-0.01 -0.03,-0.02 -0.08,-0.03z"/>
   <path class="fil8" d="M6.11 3.31c0,0.3 -0.21,0.91 -0.22,1.68l-0 1.9 0.02 0.52 0.07 0.02c0.03,-0.34 -0.06,-0.79 -0.01,-1.1 0.02,-0.12 -0.04,-1.2 -0.01,-1.58 0.02,-0.28 0.13,-1.13 0.2,-1.38 -0.01,-0.02 -0.01,-0.01 -0.02,-0.05 -0.01,-0.02 -0,-0.02 -0.01,-0.04 -0.01,-0.05 0.01,-0.02 -0.01,-0.07 0,0.02 0.03,0.09 -0.02,0.09z"/>
   <path class="fil9" d="M0.96 7.96c-0.01,0.08 -0,0.04 -0.04,0.1 0.08,-0.04 0.1,-0.11 0.22,-0.09 0.05,0.2 0.02,1.67 0.02,1.99l0 1.53c-0,0.2 -0.1,0.17 -0.18,0.24 -0.05,0.04 -0.02,0.01 -0.04,0.04l0.1 -0.04c0,-0 0.01,-0.01 0.01,-0.01 0,-0 0.01,-0.01 0.01,-0.01l0.07 -0.04c0.13,-0.09 0.08,-0.41 0.08,-0.68l0 -2.08c0,-0.23 0.05,-0.84 -0.05,-0.99 -0.14,-0.03 -0.09,0.02 -0.19,0.02zm-0.08 0.18l-0.04 0.07c0.06,0.08 0.02,0.31 0.02,0.42l-0 2.24c0,0.28 -0.03,0.66 0,0.92l0 0.01c-0.04,0 -0.03,-0.01 -0.03,0.03 0.05,0.04 0.01,-0.06 -0.02,0.04 -0.01,0.06 -0.02,0.01 -0.01,0.08 0.1,-0.02 0.02,0.01 0.09,-0.06 0.03,0 0.03,0.01 0.03,-0.02l-0.03 0.02c-0.02,-0.02 -0.04,0.02 -0.01,-0.05 0.03,-0.05 0.02,-0.03 0.06,-0.04l-0.07 -0.04 -0.01 -3.63z"/>
   <path class="fil0" d="M6 0.96l0.03 0.09 0.01 0.08 0.05 0.06c0.08,0.27 0.12,1.49 0.1,1.71 0.06,0.1 0.09,0.21 0.07,0.36 0.05,0.08 -0.01,0.13 0.05,0.2 0.02,-0.07 -0.01,-0.13 0.04,-0.21 -0.01,-0.32 -0,-0.66 -0.02,-0.99 -0.02,-0.37 -0.08,-0.58 -0.13,-0.91l-0.02 -0.07 -0.02 -0.06 -0.04 -0.12 -0.02 -0.04 -0.02 -0.04 -0.02 -0.04 -0.02 -0.04c-0.04,-0.04 0.03,-0.03 -0.03,-0.01 -0.03,0.01 -0,0 -0.01,0.03z"/>
   <path class="fil10" d="M5.13 5.95l-0 0.1c-0.03,0.02 -0.03,0.02 -0.05,0.03 -0.07,0.06 -0.04,0.07 -0.11,0.11 -0.18,0.12 -0.03,0.1 -0.19,0.09 -0.14,-0.01 -0.02,0.02 -0.1,-0.05 -0.09,-0.08 -0.05,0.01 -0.11,-0.11 -0.02,-0.03 -0,-0.02 -0.03,-0.04 -0.04,-0.03 0,-0.01 -0.05,-0.03 -0.03,-0.01 -0,0.06 -0.03,-0.01 -0,-0.01 -0.01,-0 -0.02,-0.01l0 -0.09c0.09,-0.04 0.12,-0.01 0.19,-0.07 0.25,-0.21 0.25,-0.09 0.26,-0.09l0.24 0.15zm-0.92 -0.04l0.02 0.38 0.79 0.01c0.13,-0.16 0.05,-0.01 0.13,-0.19l0.17 -0.01c0,-0.06 -0,-0.12 -0.04,-0.16 -0.03,-0.03 -0.04,-0.02 -0.06,-0.04 -0.04,-0.03 -0.01,-0 -0.05,-0.05 -0.16,-0.18 -0.2,-0.04 -0.24,-0.16l-0.12 0.01c-0.22,0.02 -0.16,-0.07 -0.38,0.21l-0.23 0.01z"/>
   <path class="fil3" d="M6.04 5.06c-0.04,0.04 -0.01,-0 -0.04,0.06 -0.02,0.05 -0.01,0.34 -0.01,0.41 -0,0.17 0.02,0.94 0.05,1.08 0.02,0.08 0.06,0.11 0.13,0.1 0.06,-0.15 0.02,-0.69 0.02,-0.9 0,-0.6 0.01,-0.33 -0.15,-0.75z"/>
   <path class="fil4" d="M6.06 1.2l0.04 0.31c-0.05,-0.02 -0.05,-0.03 -0.09,-0.05 -0.03,-0.02 -0.05,-0.04 -0.07,-0.06 -0.01,0.09 0.05,0.54 0.07,0.69l0 0.68c-0,-0.1 0.01,-0.01 -0.03,-0.03 0.01,-0.08 0,-0.02 -0.02,-0.04 0.01,-0.04 0.02,-0.03 -0.02,-0.03 0.01,-0.03 0.02,-0.03 -0.02,-0.02 0.01,-0.03 0.01,-0.02 -0.02,-0.02 0,-0.03 0.01,-0.02 -0.02,-0.02 0,-0.03 0.01,-0.03 -0.02,-0.02 0.01,-0.04 0.01,-0.03 -0.03,-0.02 0,0.04 -0.01,0.04 0.03,0.02 -0,0.03 -0.01,0.03 0.02,0.02 -0,0.03 -0.01,0.02 0.02,0.02 -0.01,0.03 -0.01,0.02 0.02,0.02 -0.01,0.03 -0.02,0.03 0.02,0.02 -0.02,0.04 -0.03,0.03 0.02,0.03l-0.01 0.05 -0 -0.01 0.03 -0.01 -0 0.03 0.03 0c0.01,0.04 -0.01,0.03 0.01,0.05 0.08,0.01 0.13,0.04 0.18,0.07 0.02,-0.22 -0.02,-1.43 -0.1,-1.71l-0.05 -0.06 0.02 0.07z"/>
   <path class="fil4" d="M6.31 11.77c0.05,-0 0.05,-0.02 0.04,0.02 0.03,-0.02 0.02,-0.02 0.02,0.03 0.04,-0.05 0.03,-0.12 0.03,-0.19l-0 -3.35 0 -0.06 -0.07 -0.12 -0.01 3.67z"/>
   <path class="fil3" d="M3.33 12.95l0.13 0.04 -0.01 0 0.03 0.02c0.18,0.07 0.46,-0.02 0.57,-0.25 0.27,-0.53 -0.37,-1.02 -0.8,-0.63 -0.07,0.06 -0.14,0.15 -0.17,0.28 -0.02,0.13 -0.01,0.26 0.07,0.36 0,0 0.01,0.01 0.01,0.01 -0.02,-0.08 -0,-0.02 0.03,-0.07 -0.04,-0.06 -0.06,-0.1 -0.06,-0.19 0.07,-0.01 0.23,-0.01 0.29,0.02l-0.21 0.11c0,0 0.01,0.01 0.01,0.01 0,0 0.01,0.01 0.02,0.02 0.03,-0.05 0.1,-0.11 0.08,-0.03 0.02,-0.13 0,-0.04 0.05,-0.08 0.07,-0.05 0.04,0.05 0.06,-0.07 -0.08,-0.05 -0.18,-0.01 -0.31,-0.02l0.03 -0.15c0.07,0.01 0.09,0.02 0.15,0.04 -0.04,-0.02 -0.1,-0.04 -0.13,-0.07 0.02,-0.04 0.04,-0.05 0.08,-0.07l0.05 -0.07c0.02,-0.03 0.01,-0 0.01,-0.02l0.1 0.06c-0,-0 -0.01,-0.01 -0.01,-0.01l-0.05 -0.09c0.06,-0.01 0.1,-0.05 0.15,-0.04 0.06,0.01 0.02,-0.01 0.05,0.02 -0.03,0.06 -0.05,0.06 -0.12,0.07 0.07,0.02 -0.02,-0.01 0.05,0.01 0,0 0.01,0 0.02,0 0.01,0 0.01,0 0.02,0.01l0.03 0.01c-0.01,0.08 -0.02,0.12 0.02,0.19 0.03,-0.04 0.01,0.05 0.03,-0.07 0,-0.02 0,-0.06 0,-0.08 0,-0.06 0,-0.11 -0,-0.17l0.17 0.03c0,0.08 -0.01,0.07 -0.03,0.14l0.07 -0.1 0.1 0.08c-0.05,0.09 -0.05,0.05 -0.01,0.16l0.02 -0.1c0.04,-0.08 -0,0 0.02,-0.02 0.07,0.06 0.08,0.15 0.09,0.25l-0.19 0.01c0,-0.07 -0,-0.02 -0,-0.02 -0,-0 -0.03,0 -0.03,0 -0.03,0.01 -0.05,0 -0.09,0.03l0.08 0.01c0,0 0.01,0 0.01,0l0.04 0c0.08,0 0.11,0 0.19,0 0,0.11 -0.04,0.17 -0.07,0.26l-0.22 -0.17c0.03,0.05 0.07,0.08 0.02,0.13l0.09 -0.03c-0,0.08 -0,0.05 -0.06,0.11 0.04,-0.07 0.06,-0.08 0.13,-0.05 -0.01,0.09 -0.03,0.05 -0.07,0.13 -0.08,-0.03 -0.02,0.02 -0.08,-0.07l-0.05 -0.12c-0.01,-0.11 0.03,0.05 -0,-0.04 -0.03,-0.07 -0.01,-0.04 -0.09,-0.07 0.03,0.15 0.11,0.17 0.15,0.33l-0.19 0.05c0.02,-0.14 -0.02,-0.23 0.06,-0.29l-0.12 -0.02c-0,-0 -0.01,-0 -0.01,-0 -0.06,-0.03 0.02,-0.01 -0.03,-0.02 -0.03,-0.01 -0.04,0.09 -0.05,0.12l0.02 -0.03c0,-0 0.02,-0.02 0.02,-0.02 0.03,-0.02 0.05,-0.02 0.06,0.04l0.01 0.2c-0.09,0.03 -0.09,0.01 -0.17,-0.02l0.06 -0.12c-0.06,0.03 -0.06,0.03 -0.08,0.1l-0.1 -0.05c0.01,0.05 0,0.03 0.03,0.08zm-0.15 -0.17l0.05 0.07c0.04,-0.03 -0.03,-0.02 0.04,0.01l0.03 0.01c0,0 0.01,0.01 0.01,0.01 -0,-0.03 -0.01,-0.03 0.03,-0.07 0.04,-0.03 0.03,-0.02 0.08,0.01 -0.05,-0.07 -0.01,-0.06 0.01,-0.09l0.04 -0.06c-0.05,0.05 -0.06,0.03 -0.11,0.08l-0.05 -0.05c-0,-0 -0.01,-0.01 -0.01,-0.01 0.05,0.06 0.05,0.04 0.03,0.11 -0.06,0.03 -0.03,0.02 -0.08,-0.01 -0.04,0.04 0.01,0.03 -0.01,0l-0.02 -0.04c0,0.05 -0,0.01 -0.02,0.02zm0.27 0.23l-0.04 -0.03c0,0.04 -0.01,0.03 0.04,0.03zm-0.04 -0.02l-0.04 -0.03c0,0.04 -0.01,0.03 0.04,0.03zm-0.06 -0.04l-0.05 -0.03c0,0.05 -0.01,0.03 0.05,0.03z"/>
   <path class="fil3" d="M1.05 6.74c0.1,-0.03 0.03,0.02 0.09,-0.06 0.11,-0.13 0.09,-1.5 0.08,-1.63 -0.04,0.06 -0.04,0.08 -0.08,0.16 -0.03,0.07 -0.06,0.08 -0.08,0.15 -0.05,0.15 -0.04,1.22 -0.01,1.37z"/>
   <path class="fil9" d="M6.34 11.83l0.01 -0.03c-0.01,0.03 -0.02,0.03 0.02,0.03 0.01,0 -0,0.02 0.03,0 0.03,-0.01 0,0 0.01,-0.03 -0,-0.44 0.04,-3.35 -0.02,-3.51l0 3.35c0,0.07 0.01,0.14 -0.03,0.19 0,-0.04 0.02,-0.05 -0.02,-0.03 0.01,-0.04 0.02,-0.03 -0.04,-0.02 -0,-0 -0.02,-0.02 -0.02,-0.02 -0.13,-0.11 -0.22,-0.06 -0.23,-0.21l-0 -2.6c0,-0.18 0,-0.35 -0,-0.53 0,-0.09 -0,-0.18 -0,-0.27 0,-0.12 -0.01,-0.12 0.04,-0.19l0.02 -0.03c-0.14,0.07 -0.11,0.22 -0.11,0.44 0,0.39 -0.01,3.13 0.01,3.2 0.03,0.11 0.09,0.08 0.26,0.21 0.05,0.04 -0.03,-0.01 0.05,0.04z"/>
   <path class="fil10" d="M2.21 5.92c-0.01,-0.05 -0.02,-0.03 0.03,-0.01 0.03,-0.12 0.17,-0.1 0.29,-0.09l0.07 0.11 0.01 -0.01 0.13 0.02c-0.04,0.23 -0,0.05 -0.15,0.2 -0.02,0.02 -0.08,0.09 -0.09,0.1 -0.03,0.03 0.02,0 -0.05,0.03 -0.03,0.01 -0.04,0.01 -0.09,0.01 -0.06,-0.08 -0.06,-0.1 -0.16,-0.15 -0.1,-0.06 -0.19,-0.03 -0.12,-0.19l0.13 -0.01zm0.79 0.15l-0 -0.15c-0.34,-0.04 -0.15,-0.02 -0.28,-0.12 -0.11,-0.08 -0.11,0.03 -0.12,-0.13l-0.18 0.01 -0.12 -0c-0.04,0.05 -0.02,0.04 -0.08,0.08 -0,0 -0.1,0.06 -0.1,0.06 -0.07,0.03 -0.05,-0 -0.13,0.04l-0.11 0.08 0 0.13c0.31,0.13 0.23,0.34 0.73,0.19 0.15,-0.05 0.1,-0.05 0.16,-0.16 0.08,-0.01 0.17,0 0.22,-0.03z"/>
   <path class="fil4" d="M2.62 15.72c0.01,0.03 0.02,0.03 -0.02,0.02 0.01,0.04 0.01,0.03 -0.03,0.02l-0.36 -0 -0.04 0.01c0.24,0.03 0.93,0.1 1.13,0.04 0.02,-0.06 0.03,-0.24 -0.01,-0.3 -0.03,-0.03 -0.04,-0.03 -0.12,-0.04l-0.42 -0 -0.14 0c0,0.01 0.01,0.01 0.01,0.02 0,0 0.01,0.01 0.01,0.02 0,0 0.03,0.06 0.01,0.16 -0.03,0.11 0,0.02 -0.02,0.06z"/>
   <path class="fil5" d="M6.32 8.11l0.07 0.12 0 -0.2 -0.04 -0.02c-0.02,-0.12 -0.03,-0.26 0,-0.39 -0.11,-0.68 0.02,-0.78 0.02,-0.98l-0.02 -2.3 -0.03 -0.02c-0.02,-0.02 -0.04,-0.03 -0.06,-0.04l0.04 0.94c-0.02,0.3 0,0.71 0,1.02 0,0.34 -0.04,0.63 -0.04,0.96 -0,0.29 0.01,0.46 -0.02,0.74 -0.01,0.13 0.04,0.05 0.07,0.17z"/>
   <path class="fil5" d="M2.06 0.33l-0.02 0 0.02 0zm-0.06 0.02l-0.03 0.01 -0.01 0.01c-0.06,0.03 -0.07,0.06 -0.14,0.03 -0.01,0.04 0,0.02 -0.05,0.03 -0.02,0.03 -0.18,0.12 -0.23,0.15 -0.26,0.18 -0.28,0.21 -0.33,0.53 -0.01,0.08 -0.08,0.29 -0.03,0.36 -0,-0.03 -0.01,-0.02 0.02,-0.02 0.01,-0.03 0.01,-0.03 0.03,-0.05 0.04,-0.05 0.01,-0.02 0.06,-0.05l-0 -0c-0.01,-0.05 -0.03,-0.05 0.02,-0.03 -0,-0.06 0.02,-0.06 0.05,-0.07 0,-0.07 -0.01,-0.03 0.02,-0.04 -0.01,-0.06 0.01,-0.05 0.04,-0.06 -0,-0.05 0.01,-0.05 0.04,-0.06 0.07,-0.19 0.43,-0.54 0.55,-0.68 0.06,-0.07 0.03,-0.02 0.01,-0.05l-0.02 0z"/>
   <path class="fil2" d="M4.27 13.23l-1.29 0 -0.15 0.03c0.27,0.02 1.4,0.05 1.6,-0.03 0.06,-0.22 0.03,-0.86 0.03,-1.13 -0,-0.27 -0.02,-0.3 -0.28,-0.3l-1.14 0c-0.34,-0 -0.25,0.1 -0.25,0.89 0,0.18 -0.02,0.44 0.05,0.55 0.04,-0.1 -0.01,-0.03 -0.01,-0.32 0,-0.13 0,-0.26 0,-0.39 -0,-0.15 -0.04,-0.63 0.07,-0.67 0.07,-0.03 1.38,-0.02 1.5,0 0.06,0.14 0.03,0.86 0.03,1.12 0,0.15 0.03,0.25 -0.14,0.25z"/>
   <path class="fil9" d="M0.95 11.9c-0.04,0.1 -0.07,0.01 -0.11,0.16 0.04,0.1 0.01,1.19 0.01,1.4 -0,0.46 -0.01,1 0.04,1.4 0.09,0.04 -0.02,-0.06 0.01,0.01 0.02,0.04 0.01,-0.01 -0.01,0.02l-0 -0 -0.03 -0c0.03,0.07 -0,0 0.01,0.07 0.01,0.06 -0.01,0.02 0.02,0.08 0.01,-0.17 -0,-0.07 0.03,-0.1 0,-0 0.01,-0.01 0.01,-0.01l0.07 -0.06 -0.06 -0.03c-0,-0 -0.01,-0 -0.01,-0.01 -0.03,-0.02 -0.02,-0.01 -0.02,-0.06 -0.07,-0.83 0.03,-1.97 -0.03,-2.78 0.04,-0.02 0.03,-0.01 0.06,-0.04 0.02,-0.01 0.02,-0.02 0.06,-0.04 0.05,-0.03 0.11,-0.04 0.14,0 0.05,0.09 0.02,1.33 0.02,1.55l-0 1.16c-0.01,0.04 -0.17,0.2 -0.17,0.19 -0,-0 -0.01,0.01 -0.01,0.01 0.06,-0.02 -0.01,0.01 0.04,-0.02l0.05 -0.03c0,-0 0.01,-0.01 0.01,-0.01l0.1 -0.1c0.06,-0.11 0.03,-1.81 0.03,-2.05 0,-0.23 0.05,-0.6 -0.07,-0.75 -0.11,-0 -0.07,0.03 -0.19,0.04z"/>
   <path class="fil5" d="M0.82 8.03c-0,-0.12 -0.04,-0.32 0.03,-0.41 0.03,0.03 0.03,-0.06 0.03,0.06l-0.03 0.33c-0,0 -0.01,0.01 -0.01,0.01 -0,0 -0.01,0 -0.02,0.01zm0.07 -3.71c-0.03,0.04 0.02,0 -0.03,0.03 0,0.38 -0.07,2.13 0,2.47 0.03,0.04 0.01,-0.05 0.03,0.06l0 0.61c-0.01,0.09 -0,0.05 -0.03,0.07 -0.02,0.03 0.02,0.04 -0.01,0 -0.02,-0.02 -0,-0.01 -0,-0.02 -0.02,0.05 0,0.01 -0.04,0.03l-0.02 -0.01 0.02 0.01 0.04 0.04c-0.04,0.05 -0.04,0.53 -0.03,0.64l0.02 -0.04 0.04 -0.07 0.04 -0.08c0.04,-0.05 0.03,-0.02 0.04,-0.1 -0.02,-0.27 -0.01,-0.97 -0.03,-1.12 -0.01,-0.08 -0.03,-0.11 -0.03,-0.21l0.01 -1.41c0.03,-0.28 0.06,-0.6 0.04,-0.9 -0.04,-0.03 -0,-0.02 -0.04,0z"/>
   <path class="fil5" d="M5.2 0.36l0.02 0.02 0.02 0.02 0.02 0.02 0.02 0.02 0.02 0.02 0.02 0.02 0.02 0.02 0.02 0.02 0.02 0.02 0.02 0.02 0.01 0.02c0.33,0.34 0.57,0.8 0.64,0.86l-0.02 -0.24c-0.04,-0.19 -0.06,-0.4 -0.19,-0.5 -0.12,-0.1 -0.26,-0.22 -0.43,-0.28 -0.09,-0.01 -0.17,-0.03 -0.22,-0.08l-0.01 -0 0.02 0.02zm0.8 0.6c0.01,-0.03 -0.01,-0.02 0.01,-0.03 0.05,-0.01 -0.01,-0.03 0.03,0.01l0.02 0.04 0.02 0.04 0.02 0.04 0.02 0.04 0.04 0.12 0.02 0.06 0.02 0.07 -0.02 -0.07 -0.02 -0.06 -0.04 -0.12 -0.02 -0.04 -0.02 -0.04 -0.02 -0.04 -0.02 -0.04 -0.07 -0.09 0.03 0.11c0,0.01 0,0.05 0.01,0.06 0.02,0.06 -0.02,-0.01 0.02,0.03l-0.03 -0.09z"/>
   <path class="fil3" d="M3.18 16.12c0.09,-0.03 0.04,-0.04 0.14,-0.05 0.02,-0 0.06,0 0.07,-0 0.09,-0.02 0.05,-0.01 0.08,-0.04 -0.02,-0.06 0.04,0 -0.04,-0.04 -0.03,0.04 0.05,0.04 -0.2,0.03 -0.19,-0.01 -0.43,-0.01 -0.61,-0.04l-0.92 -0.07c-0.03,0 -0.03,0 -0.06,0.01 -0.04,0.01 -0.02,0.01 -0.05,0.03l0.29 0.11c0.05,-0.01 0.04,-0.02 0.03,0.02l0.08 -0 -0.06 -0.06 0.03 -0.04c0.04,0.03 0.02,0.01 0.05,0.05l0.38 0c0.06,0.01 0.04,0 0.08,0.03 -0.17,0.05 -0.3,-0.04 -0.41,0.01l0.21 0c-0.03,0.04 0.05,0.03 -0.07,0.03 0.02,0.02 -0.05,0.05 0.07,0.02 0.06,-0.08 0.17,-0.01 0.26,-0.03 0.14,-0.02 0,-0.01 0.08,-0.05 0.01,-0.01 -0.04,-0.03 0.04,-0.01 0.05,0.01 0.01,-0.02 0.04,0.04 -0.04,0.03 -0.03,0.02 -0.09,0.03 0.12,-0 0.2,0.01 0.3,0.01 0.11,-0 0.17,-0.09 0.25,-0.02 -0.04,0.03 -0.06,0.01 -0.12,0.03l0.15 -0.01z"/>
   <path class="fil5" d="M1.93 5.71l-0.07 0.03c-0.04,0.08 -0.02,0.43 0,0.52 0.23,0.05 0.86,0.04 1.13,0.03l0.01 -0.22c-0.05,0.03 -0.14,0.02 -0.22,0.03 -0.06,0.11 -0.01,0.12 -0.16,0.16 -0.5,0.15 -0.41,-0.06 -0.73,-0.19l-0 -0.13 0.11 -0.08c0.07,-0.04 0.06,-0.01 0.13,-0.04 0,-0 0.1,-0.06 0.1,-0.06 0.05,-0.04 0.04,-0.03 0.08,-0.08l-0.38 0.03z"/>
   <path class="fil6" d="M2.18 15.77l0.04 -0.01 -0.22 -0.04c-0.02,-0.1 -0.02,-0.19 0,-0.27l0.24 0.02c0.06,-0.02 0.15,-0 0.23,-0 0.06,-0 0.11,0 0.15,0.01l0 0.25c-0.03,-0.01 -0.02,-0.01 -0.02,0.02 -0.03,-0.01 -0.03,-0.01 -0.03,0.02 0.04,0.01 0.03,0.02 0.03,-0.02 0.03,0.01 0.03,0.01 0.02,-0.02 0.02,-0.04 -0,0.05 0.02,-0.06 0.03,-0.1 -0.01,-0.16 -0.01,-0.16 -0,-0.01 -0.01,-0.01 -0.01,-0.02 -0,-0 -0.01,-0.01 -0.01,-0.02l0.14 -0c0.04,-0.06 -0.03,-0.02 0.09,-0.04 0.01,-0 0.11,0 0.12,0 -0.02,-0.01 -0,-0.01 -0.06,-0.02 -0.02,-0.01 -0.04,-0.01 -0.06,-0.01 -0.06,-0 -0.05,0 -0.09,0.01 -0.02,0.02 0,0.04 -0.13,0.04 -0.04,0 -0.1,-0 -0.14,-0 -0.1,-0.01 -0.18,-0.02 -0.28,-0.02 -0.12,-0.01 -0.38,-0.07 -0.54,-0.03 -0.04,0.07 -0.09,0.17 -0.09,0.28 0.14,0.06 0.41,0.09 0.61,0.1zm0.06 -0.37c-0.02,-0.01 -0.02,-0.02 -0.06,-0.03 -0.06,-0.01 -0.03,-0 -0.05,0.01 0.01,0.05 -0.03,0.01 0.03,0.02 0.02,0 0.06,0 0.08,0zm-0.55 0.34c0.02,0.03 -0.04,0.04 0.06,0.02 -0.01,-0.03 0.05,-0.03 -0.06,-0.02z"/>
   <path class="fil4" d="M0.82 8.25c-0.04,0.55 -0.01,1.24 -0.01,1.81l0.01 1.75c0,0 0.01,0.02 0.01,0.02 0,-0 0,0.01 0.01,0.02 0,-0.04 -0.01,-0.03 0.03,-0.03l-0 -0.01c-0.03,-0.26 -0,-0.65 -0,-0.92l0 -2.24c0,-0.12 0.04,-0.35 -0.02,-0.42l-0.02 0.04z"/>
   <path class="fil8" d="M5.02 6.3l-0.79 -0.01 -0.01 0.12 0.71 -0.01c0.72,-0.03 0.52,-0.13 0.53,-0.66 -0.04,-0.01 -0.06,-0.01 -0.1,-0.02 0.04,0.15 0.06,0.37 0.02,0.53 -0.09,0.04 -0.24,0.04 -0.35,0.05z"/>
   <path class="fil11" d="M4.74 5.93c0.02,-0.02 0,-0.02 0.04,-0.03 0.01,-0.01 -0.03,-0.02 0.05,-0.01 0.07,0.01 0.06,0.03 0.07,0.05 0.08,-0.01 0.07,-0 0.15,0.02 -0.06,0.13 0.02,0.07 -0.05,0.12l-0.12 0.07c-0.12,0.04 -0.08,-0.01 -0.24,-0.08 0,-0.12 -0.01,-0.13 0.12,-0.13zm-0.3 0.03l-0 0.09c0.01,0 0.01,-0 0.02,0.01 0.03,0.07 -0,-0 0.03,0.01 0.05,0.02 0.02,-0 0.05,0.03 0.02,0.02 0.01,0 0.03,0.04 0.07,0.11 0.02,0.03 0.11,0.11 0.09,0.07 -0.03,0.05 0.1,0.05 0.15,0.01 0.01,0.02 0.19,-0.09 0.07,-0.05 0.04,-0.05 0.11,-0.11 0.02,-0.01 0.02,-0.01 0.05,-0.03l0 -0.1 -0.24 -0.15c-0.01,-0.01 -0.01,-0.12 -0.26,0.09 -0.08,0.06 -0.1,0.03 -0.19,0.07z"/>
   <path class="fil3" d="M1.04 5.22c0.13,-0.17 0.16,-0.43 0.16,-0.68 -0,-0.11 -0.1,-0.66 -0.12,-0.72 -0,0.44 -0.08,0.96 -0.03,1.39z"/>
   <path class="fil3" d="M6.14 3.79c-0.06,0.19 -0.17,0.91 -0.1,1.14 0.02,0.06 0.09,0.25 0.15,0.28l-0.05 -1.41z"/>
   <path class="fil3" d="M0.06 3.95c0.09,-0.05 0.12,-0.1 0.32,-0.17 0.12,-0.04 0.24,-0.08 0.36,-0.12l-0.02 -0.16c-0.15,-0.04 -0.3,0.03 -0.43,0.1 -0.17,0.08 -0.21,0.1 -0.22,0.35z"/>
   <path class="fil3" d="M6.5 3.5l0.01 0.16 0.3 0.11c0.11,0.04 0.13,0.04 0.22,0.1 0.13,0.08 -0.07,-0.01 0.11,0.06 -0,-0.09 -0.02,-0.16 -0.06,-0.22 -0.1,-0.14 -0.48,-0.27 -0.59,-0.21z"/>
   <path class="fil6" d="M5.62 15.38c-0.01,0.08 -0.02,0.03 0.03,0.03 -0.01,0.04 -0.02,0.04 0.02,0.04 0.01,-0.05 0.03,-0.04 -0.02,-0.04l-0.03 -0.03c0.01,-0.03 0.01,-0.02 -0.02,-0.02 0,0.03 -0.01,0.02 0.02,0.02zm-0.64 0.05l0.01 0.01c0.09,0 0.17,-0.02 0.25,0.01 0.04,0.06 0.03,0.15 0.03,0.24l-0.1 0.06 -0.01 0.01c0.46,-0.02 0.54,-0.04 0.48,-0.25l-0.07 -0.13 -0.57 0.04z"/>
   <path class="fil5" d="M5.02 6.3c0.11,-0.01 0.26,-0.01 0.35,-0.05 0.04,-0.16 0.02,-0.39 -0.02,-0.53l-0.42 -0.04c0.04,0.12 0.07,-0.02 0.24,0.16 0.04,0.05 0.01,0.02 0.05,0.05 0.03,0.02 0.03,0.01 0.06,0.04 0.03,0.04 0.04,0.11 0.04,0.16l-0.17 0.01c-0.08,0.19 -0,0.03 -0.13,0.19z"/>
   <path class="fil5" d="M0.95 15.27c0.1,0.07 0.02,0.32 0.24,0.37 -0,-0.08 0,-0.06 0.01,-0.12 0.02,-0.11 -0.01,-0.06 -0.06,-0.17 -0.05,-0.12 -0.08,-0.41 -0.1,-0.47 -0.02,-0.05 0.01,0.01 -0.03,-0.05 -0.17,0.07 -0.08,0.26 -0.06,0.43zm0.08 0.28c0.01,-0.04 0.02,-0.03 -0.02,-0.03 0,0.04 -0.01,0.03 0.02,0.03z"/>
   <path class="fil5" d="M6.18 14.96c0,0.04 0.02,0.09 -0.02,0.1 0,0.07 0.02,0.04 -0.02,0.08 0,0.06 0.02,0.03 -0.02,0.07 -0,0.13 -0.02,0.11 -0.06,0.2 -0.03,0.08 -0,0.11 0,0.22 0.14,-0.11 0.1,-0.16 0.16,-0.31l0.01 -0.04 0.03 -0.02c0.01,-0.12 0.05,-0.24 0.03,-0.36l-0.06 -0.05 -0.05 0.09zm-0.01 0.64l-0.02 0.02c-0.08,0.07 -0.09,0.08 -0.24,0.11l-0 0.08c0.15,-0.05 0.27,-0.05 0.27,-0.2l0.02 0.02 0.01 -0.04 0.03 -0.14 -0.06 0.16z"/>
   <path class="fil11" d="M2.24 5.91c-0.05,-0.02 -0.05,-0.04 -0.03,0.01l-0.13 0.01c-0.07,0.16 0.02,0.14 0.12,0.19 0.09,0.05 0.1,0.07 0.16,0.15 0.05,-0 0.06,-0.01 0.09,-0.01 0.08,-0.03 0.02,-0 0.05,-0.03 0.01,-0.01 0.07,-0.08 0.09,-0.1 0.15,-0.15 0.11,0.02 0.15,-0.2l-0.13 -0.02 -0 0.11c-0.07,0.07 -0.08,0.03 -0.15,0.13 -0.12,0 -0.11,-0.04 -0.18,-0.09l-0.03 -0 -0.07 -0.02c0.02,-0.08 0.03,-0.03 0.03,-0.13 0.05,0.02 0.06,0.04 0.03,-0.01 0.16,0.03 0.05,-0.03 0.18,-0.03 0.13,-0 0.02,0.07 0.18,0.05l-0.07 -0.11c-0.12,-0 -0.26,-0.02 -0.29,0.09z"/>
   <path class="fil8" d="M4.11 15.3l-1.03 0 -0.02 0.06c0.12,0.05 0.94,0.05 1.07,0.01l-0.02 -0.08z"/>
   <path class="fil8" d="M3.79 15.98l0.01 0.06 0.47 -0.01c0.23,-0.02 0.11,-0.06 0.43,-0.08 0.33,-0.01 0.59,-0.08 0.88,-0.13l0 -0.01c-0.15,-0.01 -0.29,0.04 -0.44,0.05 -0.15,0.02 -0.3,0.03 -0.45,0.04 -0.21,0.02 -0.76,-0.01 -0.91,0.06z"/>
   <path class="fil8" d="M2.21 15.75l0.36 0c0,-0.03 -0.01,-0.02 0.03,-0.02 -0,-0.03 -0.01,-0.03 0.02,-0.02l-0 -0.25c-0.04,-0.01 -0.09,-0.02 -0.15,-0.01l0.08 0.03c-0.06,-0.01 -0.02,-0.01 -0.09,0 -0.06,0.02 -0.02,0 -0.05,0.03l0.11 0.01 0.01 0.16c-0.08,0 -0.16,0 -0.25,-0.01 -0.35,-0.05 -0.2,-0.03 -0.22,-0.01l0.02 -0.19 0.16 0.01 0.08 0.01c0.13,-0.01 0.04,0 0.08,-0.04l-0.17 -0.02 -0.24 -0.02c-0.02,0.08 -0.02,0.17 -0,0.27l0.22 0.04z"/>
   <path class="fil6" d="M1.2 1.45c0.01,0.04 0.02,0.03 -0.02,0.02 -0.02,0.04 0.01,0.01 -0.03,0.04 -0.04,0.03 0.01,0 -0.04,0.02l-0.05 0.55c0.05,-0.06 0.05,-0.07 0.05,-0.18 0,-0.07 0.01,-0.31 0.04,-0.35l0.06 -0.06c0,-0 0.01,-0.01 0.01,-0.01 0,-0 0.01,-0.01 0.01,-0.01 -0.03,0.11 -0.07,0.52 -0.07,0.65 -0.02,0.46 0.02,0.43 0.03,0.72 0.08,-0.03 0.04,-0.01 0.07,-0.05l-0.01 -0.03 0.02 0.02 0 -0.04 -0.01 -0.02 0.02 -0 0 -0.01c-0.04,-0.02 -0.04,-0.04 -0.03,0.01l-0.02 0.04c-0.02,0.03 -0,0.05 -0.03,-0 -0.09,-0.19 0.07,-1.29 0.07,-1.37 -0.03,0.02 -0.01,0.01 -0.04,0.03 -0.04,0.03 -0.01,0.01 -0.05,0.03z"/>
   <path class="fil5" d="M4.66 15.48c-0.02,0.05 -0.02,0.01 0,0.05 0.05,-0.04 0.19,-0.03 0.24,-0l0.08 0.01 0.01 0.14c-0.11,0.03 -0.14,0.05 -0.18,-0.01 -0.06,-0.1 0.01,-0.09 0.06,-0.15 -0.25,0.02 -0.21,-0.07 -0.23,0.19l-0.01 -0.16c-0.01,0.2 -0.03,0.19 0.21,0.18 0.1,-0 0.26,-0.02 0.35,-0.04 -0.02,0.03 0.01,-0.09 -0.01,-0.17l-0.21 0c0.04,-0.05 0.01,-0.06 0.15,-0.06l-0.12 -0.01 -0.11 0c-0.02,0.01 0.02,0 -0.05,0.02 -0.02,0 -0.04,0 -0.06,0.01 -0.04,0 -0.08,0 -0.12,-0z"/>
   <path class="fil4" d="M1.57 2.3c0.07,-0.13 0.21,-0.75 0.26,-0.94l0.26 -0.91c-0.17,0.38 -0.51,1.42 -0.52,1.85z"/>
   <path class="fil5" d="M4.15 11.18c0.06,-0.03 0.03,-0 0.04,-0.23 0.12,0.15 0.04,0.23 0.2,0.23l0.01 -0.32c-0.01,-0.1 0.01,-0.05 -0.04,-0.07 -0.08,0.03 -0.02,0 -0.04,0.21 -0.08,-0.11 -0.05,-0.21 -0.2,-0.22 -0.01,0.08 -0.01,0.14 -0.01,0.22 -0,0.24 -0,0.16 0.05,0.18z"/>
   <path class="fil5" d="M2.49 11.04l-0.01 0.04c0.04,0 0.02,-0.01 0.01,0.04 0,0 0.01,0 0.01,0.01 0,0.01 0.02,0.02 0.02,0.02 0.02,0.01 0.01,0.01 0.05,0.03l0.05 -0.07c-0,-0.05 -0.01,-0.03 0.02,-0.07l-0 -0.06 0.01 -0.03 0.02 -0.06c0.04,0.08 0.01,0.18 0.01,0.21 0.01,0.07 0,0.03 0.04,0.07 0.03,-0.04 0.04,0.06 0.03,-0.17 -0,-0.07 0,-0.14 0,-0.21l-0.11 0.01 -0.02 0.06c0.02,0.05 0.03,0.04 -0.02,0.04l-0.02 0.08 -0.02 0.04 -0.04 -0.09 -0.02 -0.07c-0.04,-0.07 -0.02,-0.08 -0.12,-0.06l-0.01 0.29c0.01,0.1 -0.01,0.05 0.03,0.09 0.05,-0.1 -0.01,-0.18 0.04,-0.26l0.05 0.14z"/>
   <path class="fil5" d="M3 5.93l-0 -0.25 -0.09 -0.01c-0.13,-0.02 -0.35,-0.01 -0.48,0.02l0.18 -0.01c0,0.15 0.01,0.04 0.12,0.13 0.13,0.1 -0.06,0.08 0.28,0.12z"/>
   <path class="fil4" d="M3.84 8.02c-0.08,0.03 -0.11,0.02 -0.22,0.02l-0.16 -0.01c-0.06,-0.01 -0.07,-0.03 -0.09,-0.09l-0 -0.57c-0,-0.03 -0,-0.08 0,-0.1 0.01,-0.15 0.07,-0.15 0.21,-0.15 0.34,0 0.29,-0.03 0.29,0.64 0,0.26 -0.02,0.18 -0.03,0.26zm-0.48 0.03c0.1,0.11 0.33,0.09 0.42,0.07 0.15,-0.04 0.11,-0.28 0.11,-0.46 0,-0.32 0.06,-0.54 -0.16,-0.56 -0.12,-0.01 -0.32,-0.02 -0.35,0.07 -0.01,0.02 -0.01,0.8 -0.01,0.87z"/>
   <path class="fil5" d="M4.21 5.91l0.23 -0.01c0.22,-0.29 0.16,-0.19 0.38,-0.21l-0.6 -0.04 -0 0.26z"/>
   <path class="fil3" d="M1 15.52l0.01 -0.04 0 0.04c0.04,-0 0.03,-0.01 0.02,0.03l0 0.02c0,0 0.01,0.01 0.01,0.01 0,0 0.01,0.01 0.01,0.01 0.09,0.07 0.13,0.11 0.28,0.11l-0.02 0.09 0.03 0.08 0 0c0.01,0.01 0.01,-0 0.01,0.04 0,0.02 -0,0.04 -0,0.04 -0.22,-0.04 -0.15,-0.07 -0.3,-0.12 0.04,0.18 0.19,0.28 0.37,0.25 -0.03,-0.03 -0.03,-0.03 -0.03,-0.08l0.08 0.01c-0.07,-0.05 -0.05,0.01 -0.08,-0.11 -0.01,-0.04 -0.02,-0.09 -0.02,-0.15l0 -0.02 0.01 -0.02 -0.01 -0.04 -0.04 0.02 0.01 -0.03 -0.05 0.01 -0.11 -0.03c-0.21,-0.05 -0.14,-0.3 -0.24,-0.37l-0 0.02c0.02,0.07 0.01,0.06 0.01,0.15 0.03,0.13 0.01,0.05 0.04,0.08z"/>
   <path class="fil5" d="M3.15 11.15c0.14,0.08 0.27,0.07 0.27,-0.15 0,-0.14 0.02,-0.22 -0.05,-0.22 -0.05,0 -0.05,-0 -0.04,0.16 0,0.02 0,0.08 -0,0.1 -0.02,0.1 -0.11,0.14 -0.11,-0.06 0,-0.16 0.02,-0.2 -0.05,-0.2 -0.08,0 -0.03,0.35 -0.02,0.37z"/>
   <path class="fil5" d="M2.98 11.02c0.03,-0.01 0.02,-0.02 0.02,0.02l-0 0.05c0,0.04 0.01,0.03 -0.02,0.02l-0.08 0.02 0 -0.12 0.08 0.02zm-0.01 -0.15c0.03,0.02 0.03,-0.05 0.02,0.05 -0.02,0.02 -0.03,0.02 -0.08,0.03 -0.02,-0.04 -0.01,0.03 -0.02,-0.05 -0.01,-0.04 0,-0.02 0.01,-0.05 0.12,-0.01 0.05,0 0.07,0.02zm0.07 0.29l0.03 -0.01c-0,-0.03 -0.01,-0.02 0.02,-0.02 0.02,-0.13 -0.02,-0.1 -0.03,-0.15 -0.01,-0.06 0.03,-0.02 0.02,-0.11 -0.05,0 -0.04,0.01 -0.02,-0.03l-0.02 -0.02 -0.21 -0.02 -0 0.38 0.22 -0.02z"/>
   <path class="fil5" d="M2.62 15.97c0.19,0.03 0.42,0.03 0.61,0.04 0.24,0.01 0.17,0.01 0.2,-0.03 0.07,0.04 0.01,-0.02 0.04,0.04l0.01 -0.04 0.13 -0.01 0 0.01c-0.56,-0.06 -1.74,-0.05 -2.19,-0.24l-0.04 0 -0 0.02c0.21,0.04 0.37,0.1 0.61,0.13 0.12,0.02 0.2,0.03 0.33,0.04 0.06,0 0.26,0.02 0.3,0.03z"/>
   <path class="fil5" d="M5.07 11.03c-0.04,-0.07 -0.03,-0.04 0,-0.14 0.11,0.15 0,0.14 0,0.14zm0.12 -0.06l-0.06 -0.18 -0.11 -0 -0.11 0.38c0.18,0.02 0.02,-0.07 0.16,-0.08 0.14,-0.01 -0.02,0.08 0.16,0.08l-0.04 -0.2z"/>
   <path class="fil5" d="M3.88 10.95c0,-0.01 0.02,-0.05 0.02,-0.07 0.07,0.18 0.02,0.12 0.01,0.14 -0.04,-0.02 -0.05,0.05 -0.03,-0.08zm-0.11 0.23c0.16,-0.02 -0.02,-0.07 0.14,-0.08 0.15,0.03 -0.03,0.08 0.16,0.08l-0.11 -0.4 -0.09 0 -0.11 0.3c-0.03,0.12 -0.01,0.05 -0,0.09 0,0 0,0.01 0.01,0.01z"/>
   <path class="fil9" d="M5.98 3.15c-0.04,0.1 -0.06,0.28 -0.05,0.39l-0.02 0.09c0,-0.01 0.01,-0.02 0.01,-0.02 0,0 0.01,-0.01 0.01,-0.02 0.01,-0.05 0.01,-0.02 0,-0.06 0.04,-0.1 0.07,-0.28 0.05,-0.39 0.04,-0.06 0.04,-0.19 0.03,-0.28l0.13 0.03 -0.02 0.31 -0.02 0.09c0.05,0 0.02,-0.07 0.02,-0.09 0.02,0.05 0,0.01 0.01,0.07 0,0.02 0,0.02 0.01,0.04 0.01,0.04 0.01,0.04 0.02,0.05l0.04 -0.01 0.02 0.02 -0 0.05 0.04 0 -0.03 -0.07 -0.01 0.02c0.01,-0.04 0.02,-0.03 -0.02,-0.02l-0.04 -0.04 0.01 -0.34c0.06,0.08 0.04,0.17 0.06,0.28 0,0.01 0.01,0.01 0.01,0.01l0.02 -0.02c0.02,-0.15 -0.02,-0.26 -0.07,-0.36 -0.05,-0.04 -0.1,-0.06 -0.18,-0.07 -0.02,-0.03 0,-0.01 -0.01,-0.05l-0.03 0c0.06,0.19 -0.02,0.22 0.01,0.38z"/>
   <path class="fil7" d="M5.05 0.24c0.03,0.07 -0,0.03 0.05,0.07l0.02 0.02c-0,0.03 -0.01,0.02 0.03,0.01 -0.01,0.04 -0.02,0.03 0.02,0.02 -0.01,0.04 -0.02,0.03 0.02,0.02 -0.01,0.04 -0.02,0.03 0.02,0.02 -0.01,0.04 -0.02,0.03 0.02,0.02 -0.01,0.04 -0.02,0.03 0.02,0.02 -0.01,0.04 -0.02,0.03 0.02,0.02 -0.01,0.04 -0.02,0.03 0.02,0.02 -0.01,0.04 -0.02,0.03 0.02,0.02 -0.01,0.04 -0.02,0.03 0.02,0.02 -0.01,0.04 -0.02,0.03 0.02,0.02 -0.01,0.04 -0.02,0.03 0.02,0.02 -0.01,0.04 -0.02,0.04 0.02,0.02 0.01,0.06 -0.01,0.02 0.03,0.07 0.08,0.11 0.52,0.56 0.5,0.75 0.03,0.02 0.04,0.04 0.07,0.06 0.03,0.02 0.04,0.03 0.09,0.05l-0.04 -0.31 -0.03 0 0.02 0.24c-0.07,-0.06 -0.31,-0.52 -0.64,-0.86l-0.01 0 -0 -0.02 -0.02 -0 -0 -0.02 -0.02 -0 -0 -0.02 -0.02 -0 -0 -0.02 -0.02 -0 -0 -0.02 -0.02 -0 -0 -0.02 -0.02 -0 -0 -0.02 -0.02 -0 -0 -0.02 -0.02 -0 -0 -0.02 -0.02 0 -0 -0.02 -0.02 0 -0 -0.02 -0.02 0 0 -0.02 -0.02 0 -0.03 -0.01 -0.02 -0.02 0.05 -0.01c0,-0 0.01,-0 0.01,-0 0,-0 0.01,-0 0.01,-0 0,-0 0.01,-0 0.01,-0.01l-0.15 -0.05 -0.03 -0.01 0.03 0.01zm0.36 0.18c-0.03,-0.03 -0.05,-0.05 -0.1,-0.07 -0.01,-0 -0.05,-0.02 -0.06,-0.02 -0.08,-0.02 -0.02,-0.02 -0.06,0.01 0.05,0.05 0.13,0.07 0.22,0.08z"/>
   <path class="fil5" d="M4.54 10.9l0.03 -0.04c0.02,-0.04 -0.04,-0.01 0.03,-0.04 0.05,0.03 0.03,0.01 0.06,0.07l0.07 -0.01 -0.01 -0.06 -0.01 -0.03c-0.03,0 -0.03,0.01 -0.02,-0.02l-0.04 -0 -0.09 0c-0.17,-0 -0.12,0.28 -0.09,0.34 0.07,0.11 0.25,0.1 0.26,-0.08 -0.18,-0.02 0.01,0.04 -0.16,0.06 -0.06,-0.07 -0.04,-0.07 -0.04,-0.21z"/>
   <path class="fil5" d="M2.16 11.03c-0.05,-0.03 -0.06,0.01 -0.02,-0.13 0.09,0.13 0.02,0.12 0.02,0.13zm-0.11 -0.1l-0.03 0.15 -0.01 0.09 0.07 -0.03c0,-0 0.01,-0.01 0.01,-0.01 0,-0 0.01,-0.01 0.01,-0.01 0,-0 0,-0.01 0.01,-0.01 0.02,-0.03 -0.04,-0.01 0.04,-0.02 0.08,-0.01 0.05,0.01 0.06,0.02 0.03,0.03 0.02,0.05 0.08,0.07 0.01,-0.03 0.02,0.04 0.01,-0.06 -0,-0.02 -0.02,-0.04 -0.02,-0.08l-0.07 -0.24 -0.1 0.01c-0,0.02 -0,0.05 -0.01,0.07 -0.02,0.07 -0.02,0.05 -0.04,0.07z"/>
   <path class="fil7" d="M4.88 15.51l0.03 0.01c-0.05,-0.02 -0.19,-0.04 -0.24,0 -0.02,-0.03 -0.02,0 -0,-0.05 0.04,0 0.08,0.01 0.12,0 0.02,-0 0.04,-0 0.06,-0.01 0.07,-0.01 0.02,-0.01 0.05,-0.02 -0.04,0 -0.09,0 -0.13,0 -0.01,-0 -0.04,-0 -0.06,-0 -0.04,-0.01 -0.02,-0.01 -0.04,-0.01 -0.03,-0 -0.03,-0.01 -0.06,0 -0.07,0.02 -0.01,0 -0.04,0.02l0.1 0.02c-0.07,0.01 -0.02,-0.01 -0.06,0.02 -0.02,0.24 -0,0.27 0.14,0.27l0.42 -0.02 0.1 -0.06c0.01,-0.09 0.01,-0.18 -0.03,-0.24 -0.08,-0.03 -0.15,-0.01 -0.25,-0.01l0.01 0.01 0.12 0.01 0.11 0.01 0.02 0.19 -0.06 0.02c-0.08,0.02 -0.25,0.04 -0.35,0.04 -0.23,0.01 -0.22,0.02 -0.21,-0.18l0.01 0.16c0.02,-0.26 -0.01,-0.17 0.23,-0.19z"/>
   <path class="fil5" d="M2.32 15.51l0.09 0.02 0 0.16c-0.06,0.01 -0.16,0.02 -0.2,-0.02 -0.06,-0.05 -0,-0.12 0.02,-0.16l-0.16 -0.01 -0.02 0.19c0.02,-0.02 -0.13,-0.03 0.22,0.01 0.08,0.01 0.16,0.01 0.25,0.01l-0.01 -0.16 -0.11 -0.01c0.03,-0.03 -0,-0.02 0.05,-0.03 0.06,-0.02 0.02,-0.01 0.09,-0l-0.08 -0.03c-0.08,-0 -0.17,-0.02 -0.23,0l0.17 0.02c-0.05,0.04 0.05,0.02 -0.08,0.04z"/>
   <path class="fil12" d="M1.19 2.84c-0.05,-0 -0.01,-0.01 -0.05,0 -0.01,0 -0.01,0 -0.02,0 -0.01,0 -0.01,0 -0.02,0.01 -0.01,0 -0.01,0 -0.02,0.01 -0.01,0 -0.01,0 -0.02,0.01 0.01,0 0.02,0 0.02,0.01 0.01,0.02 0.11,-0 0.14,-0 -0,0.09 -0.01,0.18 0.03,0.25 0,-0.06 -0.01,-0.12 -0.01,-0.18 -0,-0.1 -0.01,-0.07 0.02,-0.15 -0.03,0.04 0.01,0.02 -0.07,0.05zm-0.17 0.52l0.03 0c0.04,-0.04 0.02,0.04 0.04,-0.05 0,0.03 -0,0.03 0.01,0.06 0.03,0.1 0.01,0.03 0.04,0.06 -0,-0.06 -0.03,-0.5 -0.08,-0.54 -0,-0 -0.01,-0 -0.01,-0.01 -0.12,0.12 0.01,-0.02 0.01,0.16 0,0.09 0.01,0.18 0.01,0.27 -0.01,0.01 -0.03,0.03 -0.04,0.04zm-0.07 0.04c0.07,0 0.03,0.01 0.05,-0.03 -0.04,-0.03 0.01,-0.23 0.02,-0.3 0.01,-0.12 0.03,-0.03 -0.03,-0.11l-0.04 0.44z"/>
   <path class="fil2" d="M6.61 3.89l0.47 0.15c0.02,-0.11 -0.02,-0.13 -0.1,-0.16 -0.07,-0.03 -0.14,-0.06 -0.22,-0.06 -0.07,0.02 -0.16,0 -0.15,0.07z"/>
   <path class="fil7" d="M6.07 15.64l-0.14 0.05 -0.06 0 -0.01 0.09 0 0.09c-0.03,0.01 -0.02,-0.03 -0.02,0.06 0.04,-0.03 0.05,0.03 0.02,-0.06l-0.01 0.07c0.12,-0.01 0.14,-0.03 0.24,-0.05 0.02,-0.03 0,-0.02 0.01,-0.05 0.03,0.01 0.03,0.02 0.02,-0.02 0.03,0.01 0.03,0.01 0.02,-0.02 0.02,-0.02 0.02,0.04 0.02,-0.04 -0.03,0 -0.02,-0.01 -0.02,0.04 -0.03,-0.01 -0.02,-0.01 -0.02,0.02 -0.04,-0.01 -0.04,-0.02 -0.02,0.02l-0.22 0.04 0.02 -0.07 0 -0.08c0.15,-0.03 0.15,-0.04 0.24,-0.11l0.02 -0.02 0.06 -0.16 -0.03 0.14c0.04,-0.04 -0,0.04 0.04,-0.05 0.02,-0.06 0.04,-0.16 -0.01,-0.19 -0.06,0.14 -0.03,0.2 -0.16,0.31z"/>
   <path class="fil5" d="M3.49 11.18c0.1,0 0.18,0.01 0.24,-0.02 -0.02,-0.1 -0.03,-0.04 -0.15,-0.06 -0.01,-0.28 0.04,-0.31 -0.07,-0.32 -0.05,0.08 -0.03,0.29 -0.01,0.4z"/>
   <path class="fil13" d="M5.89 6.89l-0 0.53c0.04,0.01 0.04,0.03 0.12,0.03l0.01 -0.61c0.03,0.05 0.06,0.07 0.12,0.1 -0,-0 -0.01,-0.01 -0.01,-0.01 -0,-0 -0.01,-0.01 -0.01,-0.01 -0.18,-0.15 -0.06,-0.32 -0.14,-0.6 -0.05,0.31 0.04,0.75 0.01,1.1l-0.07 -0.02 -0.02 -0.52z"/>
   <path class="fil2" d="M0.49 3.93c0.02,-0.03 -0.04,-0.03 0.05,-0.02l0.02 -0.03c-0.04,-0.02 -0.06,-0.03 -0.11,-0.05 -0.06,0 -0.15,0.03 -0.22,0.06 -0.05,0.02 -0.09,0.05 -0.1,0.1 -0.01,0.11 0.07,0.03 0.36,-0.06z"/>
   <path class="fil0" d="M3.47 16.02c-0.03,0.03 0.01,0.03 -0.08,0.04 -0.02,0 -0.06,-0 -0.07,0 -0.1,0.01 -0.04,0.02 -0.14,0.05l-0.01 0.04 0.43 -0 0 -0.18 -0.13 0.01 -0.01 0.04z"/>
   <path class="fil14" d="M4.74 5.93c0.05,-0 0.1,-0 0.15,0 0.04,0.09 0.04,0.03 0.03,0.12 -0.18,0.08 -0.24,0.04 -0.18,-0.12zm0 0c-0.13,-0.01 -0.12,0.01 -0.12,0.13 0.16,0.06 0.12,0.12 0.24,0.08l0.12 -0.07c0.07,-0.05 -0.01,0.01 0.05,-0.12 -0.08,-0.02 -0.07,-0.03 -0.15,-0.02 -0.01,-0.01 0,-0.04 -0.07,-0.05 -0.07,-0.01 -0.03,0 -0.05,0.01 -0.04,0.02 -0.02,0.02 -0.04,0.03z"/>
   <path class="fil12" d="M5.69 15.19c0.07,0.09 0.22,0.4 0.19,0.53l-0.24 0.06c-0.06,0.02 -0.03,0.01 -0.05,0.03l-0 0.01 0.13 -0.01c-0.01,-0.05 -0.05,-0.03 0.05,-0.02l0.09 -0.02 0.01 -0.09 0.06 -0c-0.03,-0.3 -0.28,-0.55 -0.22,-0.83 -0.04,0.03 -0.01,0 -0.06,0.03 -0.03,-0.05 -0.11,-0.03 -0.18,-0.03l0.17 0.02 0.05 0.32z"/>
   <path class="fil3" d="M2.01 0.35c0.01,0.02 0.04,-0.02 -0.01,0.05 -0.12,0.14 -0.48,0.48 -0.55,0.68 -0.03,0.02 -0.05,0.01 -0.04,0.06 -0.03,0.02 -0.05,0 -0.04,0.06 -0.03,0 -0.02,-0.03 -0.02,0.04 -0.03,0.02 -0.05,0.01 -0.05,0.07 -0.04,-0.01 -0.03,-0.01 -0.02,0.03 0.04,0 0.02,0.01 0.02,-0.03l0.05 -0.07c0.02,-0.02 0.03,0.04 0.02,-0.04 0.02,-0.02 0.02,0.03 0.04,-0.06 0.02,-0.02 0.02,0.02 0.04,-0.06 0.02,-0.02 0.01,-0 0.03,-0.03l0.31 -0.41c0.07,-0.07 0.13,-0.13 0.19,-0.2 0.04,-0.03 0.06,-0.06 0.1,-0.09 0.06,-0.05 0.06,-0.03 0.08,-0.11l-0.14 0.04 0.03 0.05 -0.02 0 -0.05 -0.02 0.02 0.04zm-0.05 0.02l0.03 -0.01 -0.04 -0.02 0.01 0.03zm-0.15 0.04c-0.06,-0.02 -0.05,-0.04 -0.05,0.03 0.05,-0 0.04,0.01 0.05,-0.03 0.07,0.02 0.08,0 0.14,-0.03 -0.03,-0.03 0.04,-0.02 -0.05,-0.02 -0.04,0.04 -0.03,0.03 -0.08,0.05z"/>
   <path class="fil9" d="M2.27 16.12l0.9 0.04 0.01 -0.04 -0.15 0.01c0.06,-0.02 0.07,0 0.12,-0.03 -0.08,-0.08 -0.15,0.02 -0.25,0.02 -0.1,0 -0.18,-0.01 -0.3,-0.01 0.05,-0.02 0.05,0 0.09,-0.03 -0.03,-0.05 0.01,-0.03 -0.04,-0.04 -0.08,-0.02 -0.02,0 -0.04,0.01 -0.07,0.04 0.07,0.03 -0.08,0.05 -0.08,0.01 -0.2,-0.05 -0.26,0.03z"/>
   <path class="fil3" d="M3.69 12.41l-0.12 -0.04c-0.02,0.02 -0.13,0.09 -0.07,0.21 0.03,0.06 -0.01,0.03 0.06,0.04 0.15,0.02 0.16,-0.12 0.13,-0.21z"/>
   <path class="fil7" d="M0.85 6.85l0 0.18c-0.06,0.03 -0.02,-0 -0.06,0.02l0 0.29c0.05,0.05 0.06,-0.03 0.06,0.18l0.01 0.05c0.03,-0.02 0.02,0.02 0.03,-0.07l-0 -0.61c-0.02,-0.1 0,-0.02 -0.03,-0.06l-0.01 0.02z"/>
   <path class="fil4" d="M0.79 7.57l0.02 0.01c0.04,-0.02 0.03,0.02 0.04,-0.03l0 -0.03c0.01,-0.22 -0,-0.14 -0.06,-0.18l-0 -0.29c0.04,-0.02 -0.01,0.01 0.06,-0.02l-0 -0.18c-0.03,-0.03 0.04,-0.03 -0.04,-0.03 -0.05,0.13 -0.06,0.6 -0.01,0.75z"/>
   <path class="fil9" d="M6.37 7.35c-0.02,0.03 -0,-0.05 -0.02,0.05 -0,0 -0,0.06 -0,0.06 0,0.08 -0,0.08 0.04,0.1l-0.02 -0.21 0.04 0.02 0.02 -0.05c0.02,0.09 0.01,0.14 0.01,0.22l-0.01 0.04c0.04,0 0.02,0.01 0.01,-0.04 0.06,-0.08 0.04,-0.6 -0.01,-0.69 0.01,-0.03 0.01,-0.02 -0.02,-0.02l0.02 0.02c0.02,0.07 0.02,0.12 -0.01,0.18 -0.04,-0.08 -0.05,-0.1 -0.02,-0.21 -0.03,0.03 -0.02,-0.01 -0.03,0.07 -0.03,0.16 0.04,0.15 0.05,0.16 -0,0.1 0.01,0.24 -0.03,0.31z"/>
   <path class="fil3" d="M5.85 15.95c-0.01,0.01 -0.02,0.05 -0.03,0.07 -0,0 -0,0.01 -0.01,0.01l-0.02 0.05c0.17,-0.02 0.31,-0.02 0.36,-0.24 -0.15,0.05 -0,-0.01 -0.07,0.03 -0.21,0.11 -0.05,0.02 -0.24,0.08z"/>
   <path class="fil11" d="M3.36 9.8c-0.04,-0.03 -0.03,-0.02 -0.13,-0.02l-0.37 0 0.01 -0.47 0.38 -0c0,0 0.06,-0 0.06,-0 0.06,-0.01 0.02,0.01 0.05,-0.03l-0.51 0c-0.03,0.1 -0.02,0.41 -0.01,0.52l0.51 0z"/>
   <path class="fil9" d="M0.9 4.32c-0.02,-0.06 -0.05,-0.49 0.02,-0.52 0.05,0.06 -0,0.47 -0.02,0.52zm-0.03 0.03c0.06,-0.03 0.01,0 0.03,-0.03 0.04,-0.03 0,-0.03 0.04,-0 0.05,-0.1 0.03,-0.32 0.03,-0.45l0.02 -0.01 -0.05 -0.08c-0.11,0.02 -0.07,0.12 -0.07,0.26 -0,0.11 -0.01,0.22 0,0.32z"/>
   <path class="fil10" d="M2.26 15.6c0,-0 -0.02,-0.05 0.06,-0.03 0.07,0.02 0.01,-0 0.03,0.05 -0,0 -0.02,0.08 -0.09,-0.02zm0.15 -0.07l-0.09 -0.02 -0.08 -0.01c-0.03,0.04 -0.08,0.1 -0.02,0.16 0.04,0.04 0.14,0.03 0.2,0.02l-0 -0.16z"/>
   <path class="fil15" d="M2.53 5.98c-0.04,0.02 -0.02,0.02 -0.02,-0.02 -0.03,0.01 -0.02,0.01 -0.02,-0.02 -0.04,0.01 -0.03,0.01 -0.03,-0.02l-0.1 -0c-0.15,0.16 0.01,0.18 0.08,0.17 0.07,-0.01 0.07,-0.04 0.09,-0.1z"/>
   <path class="fil4" d="M1.89 4.58c0.05,-0.11 0.14,-0.39 0.08,-0.5 -0.09,0.09 -0.1,0.46 -0.08,0.5z"/>
   <path class="fil13" d="M2.49 11.04l-0.05 -0.14c-0.05,0.08 0.01,0.17 -0.04,0.26 -0.04,-0.03 -0.03,0.01 -0.03,-0.09l0.01 -0.29c0.1,-0.01 0.08,-0.01 0.12,0.06l0.02 0.07 0.04 0.09 0.02 -0.04c-0,-0 -0.01,-0.02 -0.01,-0.01 -0,0 -0.01,-0.01 -0.01,-0.01 -0,-0 -0.03,-0.03 -0.03,-0.03l-0.02 -0.07 -0.01 -0.07c-0.07,-0.03 -0.07,-0.03 -0.14,-0 -0.01,0.11 -0.04,0.31 0.01,0.4l0.06 0.01c0.03,-0.07 0.02,-0.13 0.02,-0.21 0.03,0.09 0.02,0.04 0.05,0.06z"/>
   <path class="fil14" d="M2.26 6.07l0.03 0c0.06,0.03 0.06,0.05 0.14,0.05 0.07,-0 0.09,-0.03 0.14,-0.06 0.01,-0.18 0,-0.05 -0.03,-0.09 0.01,-0.04 0.02,-0.03 -0.02,-0.02 0.01,-0.03 0.02,-0.03 -0.02,-0.02 0.01,-0.04 0.01,-0.03 -0.03,-0.02 0,0.03 -0.01,0.02 0.03,0.02 -0.01,0.03 -0.01,0.03 0.02,0.02 -0.01,0.04 -0.02,0.04 0.02,0.02 -0.02,0.06 -0.02,0.09 -0.09,0.1 -0.06,0.01 -0.22,-0.01 -0.08,-0.17l-0.13 0.02c-0.01,0.09 -0.02,0.07 0.02,0.13z"/>
   <path class="fil4" d="M6.33 4.32l0.03 0 -0.02 -0.53 -0.05 -0.01c-0.01,0.14 0,0.4 0.04,0.54z"/>
   <path class="fil9" d="M2 16.06l-0 -0c0.03,0.02 -0.01,0.01 0.04,0.02 0.01,0 0.05,0.01 0.06,0.01 0.04,0 0.07,0 0.1,0 0.12,-0 0.04,0.01 0.07,-0.03l-0.21 -0c0.11,-0.05 0.24,0.03 0.41,-0.01 -0.04,-0.02 -0.02,-0.02 -0.08,-0.03l-0.38 -0c-0.02,-0.04 -0.01,-0.02 -0.05,-0.05l-0.03 0.04 0.06 0.06zm-0.08 0c0.01,-0.04 0.02,-0.03 -0.03,-0.02 0,0.04 -0.01,0.03 0.03,0.02z"/>
   <path class="fil10" d="M4.88 15.64c-0.04,-0.02 -0,-0.04 -0,-0.05 0.07,-0.01 0.05,0 0.06,0.03 -0.02,0.01 0.02,0.06 -0.06,0.01zm0.03 -0.12l-0.03 -0.01c-0.06,0.07 -0.12,0.05 -0.06,0.15 0.04,0.06 0.07,0.04 0.18,0.01l-0.01 -0.14 -0.08 -0.01z"/>
   <path class="fil6" d="M1.11 15.81c0.07,0.03 0.14,0.05 0.24,0.06l-0.03 -0.08c-0.06,-0.01 -0.13,-0.03 -0.19,-0.06 -0.09,-0.05 -0.08,-0.08 -0.1,-0.16l-0 -0.02c-0.03,0 -0.02,0.01 -0.02,-0.03l-0 -0.04 -0.01 0.04c0.02,0.11 0.06,0.21 0.11,0.29z"/>
   <path class="fil3" d="M0.45 3.82c0.05,0.02 0.07,0.03 0.11,0.05l-0.02 0.03c-0.08,-0.01 -0.03,-0 -0.05,0.02l0.05 -0.02c0.12,0 0.14,-0.06 0.15,-0.18 -0.07,0.01 -0.08,0.02 -0.13,0.04 -0.07,0.02 -0.06,0 -0.11,0.06z"/>
   <path class="fil11" d="M4.85 11.17c-0.07,-0.03 -0.05,0.06 -0.05,-0.09l0 -0.23c0.02,-0.11 -0.02,-0.03 0.05,-0.06l0.01 0.36c-0,-0 -0,0.01 -0.01,0.02zm-0.04 0.02l0.06 -0c0.05,-0.09 0.03,-0.3 0.01,-0.41l-0.09 -0.01 -0.01 0.31c0,0.07 0,0.07 0.03,0.11z"/>
   <path class="fil3" d="M6.24 3.53c-0.02,0.11 0.05,0.13 0.21,0.13 -0,-0.04 0.04,-0.12 -0.14,-0.14l-0.05 0c-0.01,0 -0.01,0 -0.02,0z"/>
   <path class="fil6" d="M5.9 15.81l-0.02 0.07 0.22 -0.04c-0.01,-0.03 -0.01,-0.02 0.02,-0.02 -0,-0.03 -0.01,-0.03 0.02,-0.02 0,-0.05 -0.01,-0.04 0.02,-0.04l0.02 -0.14 -0.02 -0.02c-0,0.16 -0.11,0.15 -0.27,0.2z"/>
   <path class="fil0" d="M0.9 4.32c0.02,-0.05 0.06,-0.46 0.02,-0.52 -0.07,0.03 -0.04,0.46 -0.02,0.52z"/>
   <path class="fil13" d="M2.24 5.91c0.03,0.05 0.02,0.03 -0.03,0.01 0,0.1 -0.01,0.05 -0.03,0.13l0.07 0.02c-0.04,-0.06 -0.03,-0.04 -0.02,-0.13l0.13 -0.02 0.1 0c0.04,-0.01 0.04,-0.02 0.03,0.02 0.03,-0.01 0.03,-0.01 0.02,0.02 0.04,-0.01 0.03,-0.01 0.02,0.02 0.03,0.04 0.03,-0.09 0.03,0.09 -0.05,0.03 -0.07,0.05 -0.14,0.06 -0.08,0 -0.07,-0.02 -0.14,-0.05 0.07,0.06 0.05,0.09 0.18,0.09 0.07,-0.1 0.08,-0.06 0.15,-0.13l0 -0.11 -0.01 0.01c-0.16,0.01 -0.05,-0.06 -0.18,-0.05 -0.13,0 -0.02,0.07 -0.18,0.03z"/>
   <path class="fil9" d="M4.56 6.48c0.01,0.02 -0.02,0.09 0.22,0.08 0.09,-0 0.13,-0.02 0.15,-0.09 -0.1,0.08 -0.09,0.06 -0.26,0.07 0.04,-0.04 -0.04,-0.01 0.07,-0.04 0.06,-0.01 0.11,0.02 0.11,-0.06 -0.1,-0.02 -0.19,0.01 -0.25,0.03l0.05 0c0,0 0,0.01 0.01,0.01l-0.01 0.04c-0.01,-0 -0.01,-0.01 -0.02,-0.01l-0.05 -0.03c-0,-0.01 -0.01,-0.01 -0.02,-0.01z"/>
   <path class="fil5" d="M1.32 15.79l0.02 -0.09c-0.15,0 -0.19,-0.04 -0.28,-0.11 -0,-0 -0.01,-0.01 -0.01,-0.01 -0,-0 -0.01,-0.01 -0.01,-0.01 0.02,0.08 0.01,0.11 0.1,0.16 0.06,0.03 0.12,0.05 0.19,0.06z"/>
   <path class="fil8" d="M5.19 15.69l0.06 -0.02 -0.02 -0.19 -0.11 -0.01c-0.14,-0.01 -0.11,0.01 -0.15,0.06l0.21 -0c0.02,0.08 -0.01,0.21 0.01,0.17z"/>
   <path class="fil3" d="M0.78 3.61c0.04,0.05 0,0.03 0.05,0.04 0.01,0 0.07,-0.01 0.08,-0.01 0.1,-0.03 0.1,-0.01 0.08,-0.11l-0.07 -0c-0.06,0.01 -0.13,0.04 -0.14,0.09z"/>
   <path class="fil13" d="M2.04 10.94c0.02,-0.02 0.02,0 0.04,-0.07 0.01,-0.02 0.01,-0.05 0.01,-0.07l0.1 -0.01 0.07 0.24c0.01,0.03 0.02,0.05 0.02,0.08 0.01,0.11 0,0.03 -0.01,0.06 -0.07,-0.02 -0.05,-0.04 -0.08,-0.07 -0.01,-0 0.03,-0.02 -0.06,-0.02 -0.08,0.01 -0.02,-0.01 -0.04,0.02 -0,0 -0.01,0.01 -0.01,0.01 -0,0 -0.01,0.01 -0.01,0.01 -0,0 -0.01,0.01 -0.01,0.01l-0.07 0.03 0.01 -0.09c-0,0.01 -0.01,0.01 -0.01,0.02l-0.02 0.09c0.11,-0.01 0.1,0.01 0.13,-0.09l0.1 -0c0.03,0.1 0,0.09 0.1,0.09 0.01,-0.02 0.03,0.01 0.01,-0.08 -0.01,-0.06 -0.03,-0.06 -0.04,-0.08 0,-0.08 -0.02,-0.21 -0.09,-0.26 -0.02,0 -0.02,-0 -0.04,0 -0.04,0.02 -0.02,0.01 -0.04,0.03l-0.05 0.14z"/>
   <path class="fil5" d="M4.85 11.17c0,-0.01 0.01,-0.02 0.01,-0.02l-0.01 -0.36c-0.07,0.03 -0.03,-0.05 -0.05,0.06l-0 0.23c0.01,0.15 -0.01,0.06 0.05,0.09z"/>
   <path class="fil15" d="M4.81 5.95c0.06,0.02 0.05,0.01 0.07,0.07 -0.06,0.03 -0.07,0.04 -0.12,-0 0.02,-0.06 0.01,-0.04 0.05,-0.07zm0.08 -0.03c-0.05,-0.01 -0.1,-0.01 -0.15,-0 -0.06,0.15 -0,0.2 0.18,0.12 0,-0.08 0.01,-0.03 -0.03,-0.12z"/>
   <path class="fil4" d="M0.82 8.03c0,-0.01 0.01,-0.01 0.02,-0.01 0,-0 0.01,-0.01 0.01,-0.01l0.03 -0.33c0,-0.12 -0,-0.03 -0.03,-0.06 -0.06,0.09 -0.03,0.3 -0.03,0.41z"/>
   <path class="fil0" d="M6.21 3.36c0.04,-0.01 0.03,-0.02 0.02,0.02l0.01 -0.02 -0.01 -0.1c-0.02,-0.12 -0,-0.2 -0.06,-0.28l-0.01 0.34 0.04 0.04z"/>
   <path class="fil4" d="M6.4 8.02l-0 -0.39 -0.03 -0.02c-0.03,0.12 -0.02,0.26 -0,0.39l0.04 0.02z"/>
   <path class="fil3" d="M6.61 3.89c-0.01,-0.07 0.08,-0.05 0.15,-0.07 -0.04,-0.05 -0.04,-0.04 -0.11,-0.06 -0.05,-0.02 -0.07,-0.02 -0.13,-0.03 0.01,0.1 0.01,0.13 0.09,0.16z"/>
   <path class="fil2" d="M6.29 14.92c0.02,0.12 -0.01,0.24 -0.03,0.36l-0.03 0.02c0.11,-0.01 0.1,-0.07 0.11,-0.18l-0.04 0.14c0,0 -0,-0.3 0.02,-0.34 0.06,0.06 0.03,0.06 0.01,0.15 0.05,-0.04 0.03,-0.12 0.03,-0.19 -0.03,-0 -0.02,0.01 -0.07,-0.04l0 0.07c0,-0 -0,0.01 -0.01,0.01z"/>
   <path class="fil15" d="M2.74 11.17l-0.07 0.01c-0.04,-0.11 0.01,-0.14 -0.03,-0.24l-0.01 0.03 0 0.06c-0.03,0.04 -0.02,0.01 -0.02,0.07l-0.05 0.07c-0.04,-0.01 -0.03,-0.01 -0.05,-0.03 -0,-0 -0.02,-0.01 -0.02,-0.02 -0,-0 -0,-0.01 -0.01,-0.01 0.01,-0.05 0.02,-0.04 -0.01,-0.04 -0.01,0.05 -0.03,0.05 0.01,0.04 -0,0.07 -0,0.04 0.03,0.08 0.07,-0.01 0.08,-0.02 0.09,-0.1l0.02 -0.07c0.01,0.04 0,0.04 0.01,0.07 0.01,0.04 -0.01,-0 0.01,0.04 0.01,0.04 0.01,0.02 0.03,0.04 0.01,0.01 -0.02,0.03 0.04,0.01 0.05,-0.01 0.01,0.01 0.03,-0.02 0.05,-0.02 0.03,-0.14 0.02,-0.19 0,-0.03 0,-0.07 0,-0.1 -0,-0.09 0.01,-0.06 -0.03,-0.1 0.02,0.08 0.03,0.31 0,0.39z"/>
   <path class="fil9" d="M2.62 6.52c0.07,-0.01 0.03,0 0.04,-0.03 -0.05,-0.01 -0.01,0.01 -0.03,-0.02l-0.01 -0.02c-0.25,0.01 -0.22,-0.06 -0.24,0.05 0.08,0.03 0.16,0 0.21,0.01 0.04,0 0.02,0 0.03,0.01z"/>
   <path class="fil11" d="M3.03 11.16c0.03,0.01 0.03,0.02 0.03,-0.01 0.03,0 0.02,0.01 0.02,-0.02 -0.03,0 -0.02,-0.01 -0.02,0.02l-0.03 0.01 -0.22 0.02 0 -0.38 0.21 0.02 0.02 0.02c-0.01,0.04 -0.02,0.03 0.02,0.03 -0,-0.04 0.01,-0.03 -0.02,-0.03 0.01,-0.04 0.02,-0.03 -0.02,-0.02 -0.02,-0.06 -0.15,-0.04 -0.21,-0.03l-0.01 0.41c0.09,0.01 0.18,0.02 0.23,-0.03z"/>
   <polygon class="fil3" points="1.04,6.9 1.14,6.85 1.14,6.72 1.02,6.74 "/>
   <path class="fil9" d="M6.23 3.86l0.03 0.01 0.01 0.42c0.02,0.01 0.03,0.02 0.06,0.04l0.03 0.02 0 -0.02 -0.03 -0c-0.03,-0.13 -0.05,-0.39 -0.04,-0.54 -0.02,0.03 -0.04,0.05 -0.06,0.07z"/>
   <path class="fil11" d="M2.61 10.86l-0.02 0.04c0.05,0 0.03,0.01 0.02,-0.04l0.02 -0.06 0.11 -0.01c-0,0.07 -0.01,0.14 -0,0.21 0.01,0.23 0,0.13 -0.03,0.17 -0.03,-0.04 -0.03,-0 -0.04,-0.07 -0.01,-0.04 0.03,-0.14 -0.01,-0.21l-0.02 0.06 -0.01 0.03 0.01 -0.03c0.04,0.09 -0,0.12 0.03,0.24l0.07 -0.01c0.02,-0.08 0.02,-0.31 -0,-0.39 -0.04,-0.01 -0.07,-0.02 -0.11,0.02 -0,0 -0.01,0 -0.01,0.01 -0,0.01 -0.01,0.01 -0.01,0.01 -0.02,0.1 -0.01,-0.06 -0,0.04z"/>
   <path class="fil9" d="M2.32 6.52c0.02,-0.05 0.01,-0.03 0.02,-0.08 -0.08,-0.01 -0.16,0.01 -0.2,0 -0.08,-0.01 -0.09,-0.02 -0.18,-0.02 0.01,0 0.01,0 0.02,0.01l0.08 0.02c0.14,0.02 0.05,0.03 0.14,0.06 0.04,0.01 0.08,0.01 0.12,0.02z"/>
   <path class="fil3" d="M3.73 12.46c0.07,-0.02 0.04,-0.02 0.09,-0.04l0.1 -0.05 -0.13 -0.15c-0,-0 -0.01,-0.01 -0.02,-0.02l-0.04 0.11 -0.07 -0.03c0.08,0.04 0.06,0.01 0.04,0.12 0,-0 0.01,-0.02 0.01,-0.02 0,0 0,-0.01 0.02,-0.03 0.04,-0.02 -0,-0.02 0.05,-0 -0.01,0.01 -0.05,-0.03 0.01,-0.1 0.07,0.05 0.04,0.04 0.09,0.1 -0.08,-0.01 0,-0.01 -0.04,0 -0,0 -0.01,0 -0.01,0 -0.05,0.02 -0.07,0.05 -0.1,0.09z"/>
   <path class="fil6" d="M6.24 3.26l0.01 0.1 0.03 0.07c0.02,0.05 0.01,0.05 0.08,0.05l0.01 -0.23c-0.05,0.08 -0.02,0.14 -0.04,0.21 -0.05,-0.08 0.01,-0.13 -0.05,-0.2l-0.02 0.02c-0,-0.01 -0.01,-0.01 -0.01,-0.01z"/>
   <path class="fil8" d="M6.41 12.11l-0.01 -0.17 -0.03 -0.01c-0.06,-0.03 0.01,-0 -0.04,-0.02 -0.08,-0.03 -0.03,-0.01 -0.05,0.01 -0.03,0.09 -0.02,0.01 0.02,0.05 0.01,0.01 0.03,0.02 0.04,0.04 0.03,0.03 0.05,0.07 0.07,0.11z"/>
   <path class="fil4" d="M6.37 7.35l0.02 0.21c0.01,0.07 -0.05,-0.02 0.01,0.02 0.02,0.01 0.02,0.01 0.02,-0l0.01 -0.04c0.01,-0.08 0.02,-0.13 -0.01,-0.22l-0.02 0.05 -0.04 -0.02z"/>
   <path class="fil10" d="M3.84 10.75l0.15 0c-0.02,-0.12 -0.14,-0.12 -0.15,0z"/>
   <path class="fil5" d="M0.92 11.88c0,0.03 0.01,0.02 -0.03,0.02 -0.07,0.07 0.01,0.03 -0.09,0.06l0.01 0.12 0.02 -0.02c0.05,-0.16 0.08,-0.06 0.11,-0.16l-0 -0.03 -0.02 0.01z"/>
   <path class="fil4" d="M6.42 6.84l-0.02 -0.02 -0.02 0c-0.03,0.11 -0.02,0.13 0.02,0.21 0.03,-0.06 0.03,-0.11 0.01,-0.18z"/>
   <path class="fil5" d="M1.36 15.88l-0 -0c-0.11,-0.01 -0.17,-0.03 -0.24,-0.06 0.02,0.03 0.01,0.02 0.04,0.05 0.04,0.03 0.14,0.05 0.2,0.06l0.01 -0.04z"/>
   <path class="fil0" d="M4.76 6.02c0.06,0.04 0.06,0.03 0.12,0 -0.02,-0.05 -0.02,-0.05 -0.07,-0.07 -0.04,0.03 -0.03,0.01 -0.05,0.07z"/>
   <path class="fil0" d="M2.97 11.1l0.02 -0.02 0 -0.05 -0.02 -0.02c-0.13,0.02 -0.04,-0.02 -0.07,0.05 0.03,0.05 -0.05,0.02 0.07,0.04z"/>
   <path class="fil4" d="M5.07 11.03c0,0 0.11,0.01 0,-0.14 -0.03,0.1 -0.04,0.07 0,0.14z"/>
   <path class="fil9" d="M4.3 13.1c0.02,0.05 -0.02,-0 -0.02,-0 -0.04,-0.05 0.01,-0 0.02,0zm0.03 0.03c0.04,-0.04 -0.07,-0.16 -0.08,0.02 0.02,-0 0.06,0 0.08,-0.02z"/>
   <path class="fil9" d="M4.29 11.96l0 0.01c-0,0 -0,-0 -0,-0.01zm-0.05 0.06c0.17,-0.02 0.07,-0.13 0.02,-0.09l-0.02 0.09z"/>
   <path class="fil9" d="M2.93 12.01c0.05,-0.02 0.04,-0 0.05,-0.06 -0.02,-0.03 -0.03,-0.06 -0.08,-0.02 -0.04,0.04 -0,0.05 0.02,0.08z"/>
   <path class="fil14" d="M2.96 10.86l-0.01 0.06c-0.06,-0.02 -0.03,0.02 -0.05,-0.05l0.06 -0zm0 0c-0.02,-0.02 0.05,-0.03 -0.07,-0.02 -0.01,0.03 -0.01,0.01 -0.01,0.05 0.01,0.08 0,0.01 0.02,0.05 0.05,-0.01 0.05,-0.01 0.08,-0.03 0,-0.1 0,-0.03 -0.02,-0.05z"/>
   <path class="fil4" d="M2.16 11.03c0,-0.01 0.08,-0 -0.02,-0.13 -0.04,0.14 -0.04,0.1 0.02,0.13z"/>
   <path class="fil0" d="M3.91 11.03c0.01,-0.02 0.06,0.04 -0.01,-0.14 -0,0.02 -0.02,0.06 -0.02,0.07 -0.02,0.13 -0.01,0.06 0.03,0.08z"/>
   <path class="fil11" d="M2.26 15.6c0.08,0.1 0.09,0.02 0.09,0.02 -0.02,-0.05 0.04,-0.03 -0.03,-0.05 -0.08,-0.02 -0.06,0.02 -0.06,0.03z"/>
   <path class="fil13" d="M4.65 10.79l0.04 0c-0,0.03 -0.01,0.02 0.02,0.02l0.01 0.03 0.01 0.06 -0.07 0.01c-0.02,-0.06 -0.01,-0.04 -0.06,-0.07 -0.07,0.02 -0.01,-0 -0.03,0.04l-0.03 0.04 0.03 -0.04 0.06 -0.02 0.03 0.05c0.01,0.01 -0,0.02 0.04,0.01 0.07,-0.01 0.01,0 0.04,-0.02l-0.03 -0.06 -0.01 -0.03c0.01,-0.04 0.01,-0.03 -0.02,-0.02l-0.04 -0c-0.01,-0.01 0.02,-0.02 -0.03,-0.02 -0.09,-0 -0.03,-0 -0.05,0.02l0.09 -0z"/>
   <path class="fil6" d="M2.71 1.99c0.03,0 0.02,0.01 0.03,-0.02l0.04 0 0.01 0.05 -0.07 0.01c0.01,-0.04 0.02,-0.03 -0.02,-0.03 -0.01,0.05 -0.03,0.05 0.02,0.03 0.02,0.01 0.01,0.01 0.05,0.01 0.04,-0 0.04,0.02 0.03,-0.02 0,-0 0.05,-0.06 -0.01,-0.05 -0.01,-0.03 -0.02,-0.04 -0.04,-0 -0.04,-0.01 -0.03,-0.01 -0.03,0.02z"/>
   <path class="fil13" d="M5.13 10.8l0.06 0.18c-0.01,-0.05 -0,-0.05 -0.02,-0.1 -0,-0.01 -0.01,-0.04 -0.01,-0.05 -0.02,-0.05 -0.02,-0.03 -0.03,-0.04 -0.02,-0.03 0.05,-0.02 -0.04,-0.03 -0.12,-0.01 -0.05,0.01 -0.07,0.02l0.11 0z"/>
   <path class="fil9" d="M2.89 13.09c0.03,0.04 -0.02,0.03 0.06,0.01l-0.02 0.06c0.06,-0.03 0.01,0.03 0.04,-0.03 0.04,-0.07 -0.01,-0.06 -0.01,-0.06 -0.01,0 -0.03,0 -0.04,0.01 -0.01,0 -0.02,0.02 -0.02,0.01 -0,-0 -0.01,0 -0.01,0.01z"/>
   <path class="fil1" d="M4.46 2.03c0.02,-0.04 0.02,0.01 0.02,-0.07l-0.06 0.01c-0.04,0.05 0.01,0.05 0.05,0.06z"/>
   <path class="fil11" d="M4.87 15.59c-0,0 -0.04,0.02 0,0.05 0.09,0.05 0.05,-0 0.06,-0.01 -0.02,-0.03 0,-0.05 -0.06,-0.03z"/>
   <path class="fil14" d="M2.97 11.1c0.03,0.01 0.03,0.02 0.02,-0.02l-0.02 0.02c-0.12,-0.02 -0.04,0.02 -0.07,-0.04 0.03,-0.07 -0.05,-0.03 0.07,-0.05l0.02 0.02c0,-0.04 0.01,-0.03 -0.02,-0.02l-0.08 -0.02 -0 0.12 0.08 -0.02z"/>
   <path class="fil1" d="M2.71 1.99l-0.01 0.01c0.03,0 0.02,-0.01 0.02,0.03l0.07 -0.01 -0.01 -0.05 -0.04 -0c-0,0.03 0.01,0.02 -0.03,0.02z"/>
   <path class="fil0" d="M2.96 10.86l-0.06 0c0.02,0.07 -0.01,0.04 0.05,0.05l0.01 -0.06z"/>
  </g>
 </g>
</svg>
