<?xml version="1.0" encoding="UTF-8"?>
<!DOCTYPE svg PUBLIC "-//W3C//DTD SVG 1.1//EN" "http://www.w3.org/Graphics/SVG/1.1/DTD/svg11.dtd">
<!-- Creator: CorelDRAW -->
<svg xmlns="http://www.w3.org/2000/svg" xml:space="preserve" width="0.7761mm" height="1.7001mm" version="1.1" style="shape-rendering:geometricPrecision; text-rendering:geometricPrecision; image-rendering:optimizeQuality; fill-rule:evenodd; clip-rule:evenodd"
viewBox="0 0 0.42 0.92"
 xmlns:xlink="http://www.w3.org/1999/xlink"
 xmlns:xodm="http://www.corel.com/coreldraw/odm/2003">
 <defs>
  <style type="text/css">
   <![CDATA[
    .fil33 {fill:#060606}
    .fil50 {fill:#0974AA}
    .fil0 {fill:#0B0B0B}
    .fil42 {fill:#0B4D70}
    .fil52 {fill:#0D6795}
    .fil43 {fill:#11252F}
    .fil29 {fill:#141313}
    .fil66 {fill:#191916}
    .fil65 {fill:#198DC6}
    .fil68 {fill:#1C1B1B}
    .fil47 {fill:#1C1D1C}
    .fil15 {fill:#1D1D1A}
    .fil21 {fill:#1E1E1E}
    .fil49 {fill:#1F201D}
    .fil59 {fill:#1F84B5}
    .fil11 {fill:#232322}
    .fil54 {fill:#252522}
    .fil20 {fill:#262625}
    .fil16 {fill:#282726}
    .fil10 {fill:#292926}
    .fil13 {fill:#2A2A29}
    .fil56 {fill:#2A6E8F}
    .fil14 {fill:#2B2C2B}
    .fil25 {fill:#2E2E2C}
    .fil36 {fill:#2F302D}
    .fil34 {fill:#323231}
    .fil5 {fill:#353535}
    .fil57 {fill:#373736}
    .fil48 {fill:#373737}
    .fil22 {fill:#383838}
    .fil7 {fill:#393936}
    .fil35 {fill:#3B3B3A}
    .fil12 {fill:#3C3C3C}
    .fil3 {fill:#3E3E3D}
    .fil39 {fill:#3F403F}
    .fil60 {fill:#424242}
    .fil2 {fill:#474747}
    .fil70 {fill:#474847}
    .fil58 {fill:#484848}
    .fil72 {fill:#494946}
    .fil8 {fill:#494949}
    .fil71 {fill:#4A4A49}
    .fil41 {fill:#4B4B4B}
    .fil53 {fill:#4E4E4D}
    .fil61 {fill:#4F504F}
    .fil1 {fill:#525251}
    .fil28 {fill:#545353}
    .fil4 {fill:#565655}
    .fil24 {fill:#585656}
    .fil67 {fill:#595958}
    .fil45 {fill:#5B5A54}
    .fil6 {fill:#5C5B5B}
    .fil64 {fill:#5E5E5D}
    .fil31 {fill:#5F5F5E}
    .fil63 {fill:#605E5E}
    .fil9 {fill:#616160}
    .fil62 {fill:#627A87}
    .fil19 {fill:#666565}
    .fil46 {fill:#686867}
    .fil32 {fill:#6E6C6C}
    .fil37 {fill:#737373}
    .fil18 {fill:#77654D}
    .fil17 {fill:#787877}
    .fil26 {fill:#7B7B7B}
    .fil51 {fill:#848383}
    .fil30 {fill:#878787}
    .fil55 {fill:#91908E}
    .fil23 {fill:#93896F}
    .fil69 {fill:#9A9A9A}
    .fil44 {fill:#9CA1A2}
    .fil73 {fill:#A5A5A5}
    .fil38 {fill:#AF9E90}
    .fil27 {fill:#CABBAC}
    .fil74 {fill:#CC0000}
    .fil40 {fill:#F6F6F6}
   ]]>
  </style>
 </defs>
 <g id="Camada_x0020_1">
  <metadata id="CorelCorpID_0Corel-Layer"/>
  <g id="_1769517958992">
   <path class="fil0" d="M0.19 0.73c-0,-0 -0,-0 -0,-0.01 -0,-0.01 -0,-0.01 0,-0.01 0,0 0,0 0,0.01 -0,0 0,0.01 -0,0.01zm0.23 -0.54l0 0 -0 0.01c-0,0 -0.01,0 -0.02,0 -0.01,0 -0.04,0 -0.05,-0 -0,-0 -0,-0 -0.01,-0 -0,0 0,0 -0,0.01 0.01,-0 0,-0 0.01,0 0.01,0 0.03,0.01 0.04,0.01 0.01,0 0,0 0.01,0 0,-0 0,-0 0.01,0 0,0 -0,0.02 -0,0.02 -0,0.01 -0.01,0 -0.01,0l-0.04 -0.01c-0.02,-0 -0.01,0 -0.02,0 -0,0 -0.01,-0 -0.01,-0 -0,-0 -0,0 -0,-0l-0 -0.01c-0.01,-0.01 -0.05,-0.01 -0.06,-0.01 -0.02,0 -0.01,0 -0.02,0.01 0.01,0 0.01,-0 0.02,0 0.01,0.01 0,0.03 0,0.03 -0,0.02 -0,0 0,0.02 0,0.01 -0,0.01 -0,0.02 -0,0.01 0,0.01 -0,0.02 -0.01,0.02 -0.03,0 -0.03,0 0,0.03 -0,0.01 -0,0.02 -0,0 -0,0 -0,0.01 -0,0.02 -0,0.02 -0,0.03 -0,0 0,0.01 0,0.01 -0,0.02 -0.01,-0 -0.01,0.04l0.01 0.05c0,0.01 0,0.02 0,0.03 0,0.01 0,0.01 0,0.01 0,0.01 0,0.01 0,0.01 0,-0 0,-0.04 0,-0.04 0,-0 -0,-0.01 0,-0.01l0.01 -0c0,0 0.01,0.01 0.01,0 0,-0 0,-0.01 0,-0.01 0,-0 0.04,-0 0.05,-0 0,0 0,0.01 0,0.01 0.01,0.01 -0.01,0.03 -0.01,0.03 -0.01,0 -0.03,0 -0.04,0 -0.01,-0 -0.01,-0 -0.01,-0.01 -0,-0.01 -0.01,-0.01 -0.01,0 -0,0 0,0.01 0,0.01l-0 0.04c-0,0.01 -0,0.01 -0.01,0.01 -0,0 0,0.02 0,0.02 0,0.03 0.01,0.02 0.01,0.04 -0,0.01 -0,-0 -0,0.02 0,0.01 0,0.04 0.01,0.05 0,0 0,0.01 0,0.01 0,0 0,0.01 0,0.01 0,0.01 -0,0.02 -0.01,0.02 0,-0.01 0,-0 0,-0.01l0 0c0,-0 0,-0 0,-0.01 0,-0 0,-0 -0,-0.01l-0 0c-0,-0.01 -0,-0.02 -0,-0.03 -0,-0.01 -0,-0.03 -0,-0.03 -0,0 -0.01,0.01 -0.01,0.01 0,0.01 0.01,0.04 0.01,0.05l0 0.01c-0,-0 -0,0 -0,-0 -0,-0 0,-0 -0,-0 0,-0 0,-0.01 -0,-0.01l-0.01 0c0,0.01 0,0.01 0,0.02l-0 0.05c-0,0.01 -0,0.02 -0,0.02 0,-0 0,0 0,-0 0,-0 0,-0 0,-0l0.01 -0.04c-0,0.01 -0,0.02 -0,0.03 -0,0.01 -0,0.01 -0,0.01 -0,0.01 -0,0.01 -0.01,0.01 0,-0 0,-0 0,-0l0 -0c0,-0.01 0.01,-0.05 0.01,-0.06 -0,0 0,-0 -0,0l-0 0c-0,0 -0,0 -0,0l-0 0 0 0.01 0 0c0,0.01 -0,0.01 -0,0.01 -0,0 0,0.01 0,0.01l-0 0c-0,0 -0,0.01 -0,0.02 -0,-0 -0,-0 -0,-0.01 -0,-0.02 0,-0.01 0,-0.02 -0,-0.01 0,-0.01 0,-0.01 0,-0 -0,-0.01 -0,-0.02 0,-0.01 0,0 -0,-0.02 -0,-0.01 0,0 0,-0.01 -0,-0.01 -0,-0 0,-0.01 0,-0 -0,-0 -0,-0.01 0,-0 0,-0.01 -0,-0.01 -0,-0 -0,-0 -0,-0.01 0.01,-0 0,-0.01 0,-0.02l0 -0c-0.01,0 -0.01,0 -0.01,0 -0,-0 -0.02,-0 -0.02,-0 0,0.01 -0,0.01 -0,0.01 0,0.01 0,0 0,0.01 -0,0.01 -0,0 -0,0.01 0,0.01 0.01,0 0,0.02l0 0 -0 0c0,0 0,0 0,0 0,0 -0,0 0,0.01 -0,0 -0,0 -0,0.01 0.01,-0 0,-0 0,-0.01 0,0.01 0,0.01 -0,0.01 0,0.02 0,0 0,0.02l-0 -0.01c-0,0 -0,0 -0,0 0,0 0,0 0,0.01 -0,0.01 -0,0.01 -0,0.01 -0,0 -0,0.01 0,0.01 0,-0 -0,-0 0,-0.01 0,0.01 -0,0 -0,0.02 -0,0.01 -0,0.01 -0,0.01 0,-0 0,-0 0,-0 -0,0 -0,0 0,0.01l0 -0.01c0,0 -0,0.01 0,0.01l0 0 -0 0c-0,0.01 0,0.01 0,0.01 0,0.01 -0,0 -0,0.01 0,0.01 0,0 0,0.01 -0,0.01 0,0.01 0,0.01 -0,0.01 -0,0 0,0.01 0,0.01 -0,0.01 -0,0.01 0,0 0,0 0,0.01 0,0 -0,0 -0,0.01 -0,0.01 0,0 0,0.01l0 0.02 0 0c0,0 -0,-0 0,0 0,0 0,0 0,0 0.01,0 0,0 0.01,-0l0 0c0,0 0,0 0,0 0.01,-0 0,-0 0.01,-0.01l0 -0c0,-0 0,-0.01 0,-0.01 -0,-0.01 -0,-0 0,-0.01 -0,-0 -0,-0 -0,-0.01 0,-0 0,-0 -0,-0.01 -0,-0.01 0,-0 0,-0.01 -0,-0.01 -0,-0 -0,-0.01 0,-0 0,-0 0,-0.01l0 -0 -0 -0.01c0,-0 0.01,-0.01 0,-0.01l-0 -0.01c0,-0 0,-0 0,-0.01 -0,-0.01 -0,-0.01 -0,-0.01 0.01,-0 0,-0 0.01,-0 -0,0.01 -0,0 -0,0.01 0,0.01 0,0.01 -0,0.01 0,0.01 0,0 0,0.01 0,0.01 -0,0 -0,0.01 0,0 0,0 0,0.01 -0,0 -0,0 -0,0.01 -0,0 0,0 0,0.01 0,0 -0,0 -0,0.01 0,0.01 0,0 0,0.01 -0,0.01 0,0 0,0.01l-0 0.02c-0,0.01 -0.01,0.01 -0.02,0.01l-0.01 0c-0,-0 -0,-0 -0,-0 -0,-0 -0.01,-0.01 -0.01,-0.01 -0,-0 -0,-0.01 -0,-0.02 0,-0.01 -0,-0.01 0,-0.02 0,-0.01 -0,-0 0,-0.02 -0,-0.01 -0,-0 -0,-0.01 0,-0.01 -0,-0 -0,-0.01 0,-0.01 -0,-0.01 -0,-0.01 0,-0.01 0,-0 0,-0.01 -0,-0.01 0,-0.01 0,-0.01 0,-0.01 -0,-0.01 -0,-0.02 0,-0.01 0,-0.01 -0,-0.02 -0,-0.01 0,-0.01 0,-0.01 -0,-0 -0,-0 -0.01,-0 -0,-0 0,-0 -0,-0.01 -0.01,0 -0,0.01 -0,0.02 -0,-0 -0,-0.01 -0,-0.02 -0,0 -0,0 -0,0 -0,0 -0,0 -0,0 -0,-0 -0,-0 -0.01,-0 -0,-0.01 -0,-0 -0.01,-0 -0,-0.01 -0,-0.01 0.01,-0.02l0.01 -0.07 -0.01 -0 -0 -0 0 -0 0 -0 -0 -0c0,-0.01 0,-0.03 0,-0.04 0,-0.01 -0,-0.03 0.01,-0.03l0 -0.02c0,-0.01 0.01,-0.06 0.01,-0.07 0,-0 0,-0.01 0,-0.02 0,-0 0,-0.01 0,-0.01 0,-0.01 0,-0.03 -0,-0.03 -0,-0.01 -0,-0 -0.01,-0.01 -0,-0.01 0,-0.01 0,-0.01 -0,-0.01 0,-0.01 0,-0.01 0,-0 -0,-0.01 -0,-0.01 0,-0.01 0,-0.01 0,-0.01 -0,-0.01 -0,-0.01 -0,-0.01 -0,-0 -0.01,0.01 -0.02,0.01 -0.02,0 -0.02,-0.02 -0.02,-0.03 -0,-0.01 -0,-0.01 -0,-0.02 0,-0.01 -0,-0.02 -0,-0.03 -0,-0.01 -0,-0.02 0.01,-0.02 0.01,-0 0.01,-0 0.02,-0l-0 -0c-0.01,-0 -0.03,-0 -0.04,-0 -0.02,-0 -0.02,0 -0.03,0.01 -0,0 -0.01,0 -0.01,0l0 0.01c-0.01,0.01 -0.01,0.01 -0.02,-0 -0.01,0 -0,-0 -0.01,0l-0.02 0.01c-0.01,0 -0.02,0 -0.02,0.01 -0,0 -0,0 -0.01,0 -0,-0 -0,-0.02 -0,-0.02 0,-0 0,-0 0.01,-0 0.01,0 0.03,-0.01 0.04,-0.01 0.02,-0 0.01,-0 0.02,-0 0,-0.01 -0,-0 0,-0.01 -0.01,0 -0,0 -0.01,0 -0.02,0 -0.03,0 -0.05,-0 -0.01,-0 -0.01,-0 -0.01,-0.01 0.01,-0 0.01,0 0.01,0l0.03 0c0.01,-0 0,-0.01 0.02,-0.01 0.01,0 0.03,-0.01 0.04,0 0,-0 0.02,-0.01 0.02,-0.01l-0.03 0.01c0.01,0 0.03,-0.01 0.03,-0.01 -0.01,0 -0.02,0.01 -0.03,0.01 -0,0.01 -0,0 -0.01,0.01 -0.01,0 -0.01,0 -0.01,0.01 0.01,-0 0.02,-0 0.02,-0.01 0,0 0.01,0 0.01,-0 0,0 -0,0 0,0 0,0 0,-0 0.01,-0 0.03,-0 0.04,0.01 0.04,-0.02 -0.03,0 -0.03,0 -0.04,0.01 0,-0 0,-0 0,-0 0.02,-0.01 0.02,-0.01 0.04,-0.01 0.01,-0 0.01,0 0.01,-0 -0.01,-0.01 -0.03,0 -0.04,-0 0.01,-0 0.02,-0 0.02,-0l0 -0c-0.01,0 -0.01,0 -0.02,0 0.01,-0 0.02,-0.01 0.02,-0l0 0c0.01,-0 0,0 0,-0l0 -0c-0.01,-0 -0.02,-0 -0.03,0 0,-0 0.02,-0 0.02,-0 0,-0.01 0,-0.02 0,-0.03 0,-0.01 0,-0.01 0.01,-0.02 0,-0.01 -0,-0 -0,-0.01 -0,-0.01 0,-0.01 0,-0.01 -0,-0.01 -0,-0 -0,-0.01 0,-0.01 0,-0 0,-0.01 0,-0 -0,-0 -0,-0.01 -0,-0.01 0,-0 0,-0.01 -0,-0.01 -0,-0 0,-0.02 -0,-0.01 -0.01,-0.01 0,-0.01 -0,-0.01 -0,-0 -0,-0.01 0,-0 -0,0 -0,-0.01 0,-0.01 -0,-0 0,-0.01 0,-0.01 0.02,-0.01 0.03,-0.01 0.01,0.01 0.01,0 0.01,0.02 -0,0.01 0,0.02 0,0.03 -0,0.01 -0,0.01 -0,0.01 0,0.01 -0,0.01 -0,0.01l0 0.01c-0,0 0,0.01 0,0.01 -0,0.01 -0,0.01 0,0.01 0,0.01 -0,0.01 -0,0.01 0,0.01 0.01,-0 0.01,0.04 0.01,0 0.01,0 0.02,0 -0.01,-0 -0.02,-0.01 -0.03,-0l0 0c-0,0 -0,-0 -0,0l0.01 0 -0 -0c0,-0 0,-0 0.01,0l-0 0c0,0 0.01,-0 0.01,0 0,0 0.01,0 0.01,0l-0 -0c0.01,0 0.02,0.01 0.02,0.01 -0,-0 -0,-0 -0,-0 -0,-0 -0,-0 -0,-0 0,0 0.01,0 0.01,0 0.02,0 -0.01,-0.01 0.04,0 0.01,0 0.01,-0 0.02,0 0,0 0,0.01 0.01,0.01l0.03 0c0.01,-0 0.01,-0 0.01,-0zm-0.18 0.52c0,0 0,0.01 -0,0.02 -0,-0 -0,-0.01 0,-0.02zm0 0c0,0 0,0.01 0,0.01 -0,-0 -0,-0.01 -0,-0.01zm-0.07 0.01l0 -0.01 0 0 0.01 -0 -0 0.01 -0.01 0zm0 -0.02c0,-0 0,-0 0,0 0,0 -0,0 -0,0zm0.06 -0.03l0 0.01c0,0 0,0.01 0,0.01 0,0 0,0.01 0,0.01 -0.01,-0.01 -0,-0 -0.01,-0l-0 -0.03zm-0.06 0.02l0 0.01 -0 -0.01zm0.01 0.01c-0.01,-0 0,-0 -0.01,-0 -0,0.01 0,0.01 -0.01,0.01 0,-0.02 0.01,-0.04 0.01,-0.06l0 0c-0,0 -0,0.01 -0,0.01 0,0.01 -0,0.01 -0,0.01 -0,0.01 0,0.01 0,0.01 -0,0.01 -0,0 -0,0.01zm-0.01 -0.01c0,-0.01 0,-0.01 0,-0.02l0 -0.01c0,-0.01 -0,-0 0,-0l-0.01 0.03c-0,0.01 0,0.01 -0,0.01zm0.06 -0.03l0 0.01 -0 -0 -0 0 -0 -0c-0,-0.01 0,-0 0,-0.01l0 -0 -0 -0.01 0 -0 0.01 0.02c0,0.01 0,0.01 0,0.02l-0 0 -0 -0.02c-0,-0.01 -0,0 -0,-0 -0,-0.01 0,-0 -0,-0.01zm-0.07 0.06c-0,-0 -0,0 -0,-0.01 -0,-0.01 0,-0.06 0.01,-0.07l0.01 0.01c-0,0.02 -0.01,0.04 -0.01,0.05 -0,0.01 -0,0.02 -0,0.02zm-0.01 -0.1c0,0 0,-0 0,0 0,0 0,0 -0,0.01 -0,-0 -0,0 -0,-0.01zm0.02 -0.04c0.03,-0.04 0.01,-0.09 0.03,-0.09 0.03,-0 0,0.05 0.03,0.09 0,0 0.01,0.01 0.01,0.02 0,0.01 -0.01,0.02 -0.02,0.03 -0.01,0 -0.03,0.01 -0.04,0 -0.02,0 -0.03,-0.01 -0.03,-0.02 -0.01,-0.02 0,-0.03 0.01,-0.04zm-0.02 0.01c-0,-0.01 0,-0.02 0,-0.03 0,-0.01 0,-0.02 0.01,-0.02 0,0.01 -0,0.01 -0,0.02 -0,0 -0,0.01 -0,0.01 -0,0.01 0,0.01 -0,0.01zm0.09 -0.12c0,-0 -0,-0 0,-0l0 0.01c-0,0.01 -0,0.06 -0.01,0.07l-0 -0.01c-0,0 -0,0 -0,0l-0 0c0,-0.01 0,-0 0,-0.01 0,0 -0,0 0,0 0,-0.01 0,-0.02 0,-0.03 0,-0.01 -0,-0.02 0,-0.03zm-0.03 -0.04c0,0.02 0.01,0.05 0.01,0.07 0,0.02 0.01,0.06 0.01,0.07 -0,-0 -0,0 -0,-0 -0.01,-0.01 -0.01,-0.02 -0.01,-0.03l-0.01 -0.04c-0,-0.01 0,-0.01 -0,-0.02 -0,-0.01 -0,-0.05 -0,-0.06zm0.05 0.05c0,-0 0.01,-0 0.01,-0 0.01,-0 0.01,-0 0.01,0l-0.02 0c-0.01,0 -0,0 -0.01,-0zm0.03 0c-0,-0 0,-0 0,0 -0,0 -0,0 -0,-0zm-0.14 0.09c-0,-0.02 0.01,-0.06 0.01,-0.07 0,-0.01 0.01,-0.07 0.01,-0.08 0,0.01 0,0.03 0,0.04l-0 0.04c-0,0 -0,0.01 -0,0.02 0,0.01 0,0.01 -0,0.02 -0,0.01 0,0.02 -0.01,0.03zm0.08 -0.1c0,-0 0,-0 0.01,-0 -0,0.01 -0,0 -0.01,0zm0.01 0l-0 -0.01c0,-0 0,-0 0,-0 0,-0 -0,-0 0,-0 0,-0 -0,-0 0,-0l0.04 0c0,0 0,0.01 0,0.01l0 0 -0 0.01c-0.01,0 -0.01,-0 -0.02,-0 -0.01,0 -0.01,-0 -0.02,0 0,0 0.02,0 0.02,0 -0.01,0 -0.02,-0 -0.03,0l0 0.01c0.01,0 0.02,0 0.03,0 0,-0 0.01,-0.01 0.01,0 -0.01,0 -0.03,0 -0.04,0l-0 -0.01zm-0.04 -0.17c0,0 0,0 0,0 0,0 -0,0.01 -0,0.01 -0,0 -0,0 -0,0.01l-0 0.01c0,-0.01 0,-0.01 0,-0.01 -0,-0 -0,-0.01 -0,-0.01zm-0.05 0l0 0c-0,0 -0,-0 -0,-0zm0.05 -0.02c0,-0 0,-0 0.01,-0 0,0 0,0 0,0.01 0,0.01 0,0 0,0.01 -0,-0 -0.01,-0 -0.01,-0 -0,-0.01 -0,-0.01 0,-0.01zm-0.05 0.01c-0,-0.01 -0,-0.01 -0,-0.01l0.01 0c0,0 0,0.01 -0,0.01 -0.01,0 -0,0 -0.01,-0l-0 0zm0.08 0c-0,0 -0.01,0 -0.01,-0l-0 -0 0 -0.01 0 -0c0,-0 0,-0 0,-0l0.01 0c0,0 -0,0 -0,0l0 0c0,0 -0,0 0,0 0.01,0 -0,-0 0,0 -0,0.01 0,0.01 -0.01,0.02zm-0.08 -0.02l0 0c-0,0 -0,-0 -0,-0zm-0.03 0.02l-0 -0.01c0,-0.01 -0.01,-0.01 -0,-0.02 0,0 0,0 0,0.01 0,0.01 0.02,0.01 0.02,-0 0,0.02 -0,0.02 0,0.03l-0.01 0.01c-0.01,0 -0.01,0 -0.02,-0.01l0 -0zm0.1 -0.02c-0,-0 -0,0 -0.01,-0 -0.01,-0 -0,-0.02 -0,-0.03l0 0 0 0c0.01,0 0.01,-0 0.01,-0 -0,0.01 -0,0.01 -0,0.02 -0,0.01 -0,0.01 -0.01,0.01zm-0.1 -0.03c0.01,0 0.01,-0 0.01,-0 0,0.01 0,0.02 0,0.02 -0,0.01 -0,0.01 -0.01,0.01 -0.01,-0 -0.01,-0.02 -0.01,-0.03l0.01 0zm0.07 -0c0,-0 0,-0 0.01,-0 0,0.01 -0,0.01 -0,0.02l-0 0.01c-0,0 -0,0 -0,0 -0.01,-0.01 0,-0.02 -0,-0.03zm-0.05 0.03c-0,-0 -0,-0.01 -0.01,-0.01 -0,-0.01 -0,-0.01 -0,-0.02 0.01,0 0.01,-0 0.01,0 -0,0.01 -0,0.01 0,0.01 0,0.01 0,0.01 -0,0.01zm0.02 -0.04l-0 -0c0,0 0.01,0.01 0.01,0 0.01,-0 0.01,-0.01 0.01,-0.01l0 0.01 -0 0c-0,0.01 -0.02,0 -0.02,-0.01 -0,0 -0,0 0,0.01zm0.07 -0c0,0 -0,0 0,0 -0,0.01 -0,0.01 -0.01,0.01 -0.01,0 -0.01,0 -0.01,-0 -0.01,-0.01 -0.01,-0.01 -0.02,-0.01l-0 -0.01 -0 -0.01c0.01,-0 0.01,0 0.02,-0l0 0.01c0,0 -0,0 0,-0 0,-0 0,-0 0,-0 0.01,0.01 0.01,0.01 0.02,0l0 0zm-0.02 -0.02l0.01 0 0 0 0 0 -0 0 -0 0 0 0.01c-0.01,-0 -0,0 -0,-0 -0,-0 -0.01,-0 -0.01,-0.01l-0 -0c0,-0.01 0,-0 0,-0.01l0 -0zm-0.03 0.01c0.01,0.01 0,0.02 0,0.03 -0,0.01 -0,0.02 -0,0.03 0,0.01 -0,0.13 -0,0.14 -0,0.01 -0,0.05 -0,0.07 -0.01,-0.01 -0.01,-0.01 -0.02,-0 -0,-0.01 0,-0.01 0,-0.03 -0,-0.01 0,-0.03 -0,-0.03 -0.01,-0.02 -0,-0.05 -0,-0.07 -0,-0.03 0,-0.07 -0,-0.1 -0,-0.01 -0,-0.02 0,-0.03 0,0.03 0.04,0.02 0.03,-0zm-0.04 0.01l0 0.01c-0.01,-0 -0.01,-0 -0.02,0 -0,0 0,0 -0.01,0 -0,0 -0.01,0 -0.01,0 -0,-0 -0,-0 -0.01,-0 -0.01,-0 -0,-0.01 -0,-0.01 -0,-0 -0,-0 -0,-0.01 0,-0 0,-0 0,-0l0 0.01c0.01,0 0.01,0 0.02,-0 0,0 0,0 0,-0 0,-0 0,-0 0,-0.01 0,0 0.01,0 0.02,0l-0 0.01zm-0.02 -0.01c-0,0.01 -0.02,0 -0.01,-0.01 0.01,-0 0.01,-0 0.01,0l0 0 -0 0 -0 0 -0 0zm0.06 -0c-0,-0 -0,-0 -0.01,-0.01l0.01 0c0,0 0,0 0,0zm-0.04 -0c0,-0.01 0,-0 0.01,-0 -0,0 -0,0 -0.01,0zm0.22 -0c-0,-0 -0,0 -0,-0.01 0,-0 0,-0 0,-0 0,0 0,0.01 -0,0.01zm-0.07 -0.01c0,-0 0.01,-0 0,0 0,0 -0,0 -0,-0zm-0.27 0c0,-0 -0,-0 0,-0 -0,0 -0,0 -0,0zm-0.07 -0.01c0,0 0,0.01 0,0.01 -0,-0 -0,-0.01 -0,-0.01zm0.22 0.01c-0,-0.01 0,-0 0.01,-0 0,0 0,-0 0,0l-0.01 0zm-0.03 -0c0,-0 -0,0 -0,-0 0.01,0 0,0 0.01,0.01l-0.01 -0 0 -0zm-0.01 0.01l-0.01 -0 -0 -0c-0,-0 -0,-0 -0,-0 0,-0 0.01,-0 0.01,-0 0,-0.01 -0,-0 0,-0 0,0 0,0 0,0 0,0 0,0 -0,0 -0,0.01 0,0 0,0.01l-0 -0zm0.17 -0.02c0.01,-0 0.05,0.01 0.05,0.01l-0 0.01c-0.01,0 -0.04,-0.01 -0.05,-0.01l0 -0.01zm-0.11 0.01l0 0 -0.01 0.01c-0,0 -0.01,0 -0.01,0l-0 -0.01c0,-0 0,-0 0,-0 0,-0 0,-0 0,-0 0,-0 0,-0 0,-0 0.01,0 0,-0 0.01,0l0.01 0 -0 -0.01 0.01 -0 -0 0.01zm-0.24 -0c0.01,-0 0.04,-0.01 0.05,-0.01l0 0.01c-0.01,-0 -0.01,0 -0.01,0l-0.04 0.01 -0 -0.01zm0.2 0.02l-0 0c-0,0 -0,0 -0.01,-0l0 -0.01c0,-0.01 -0,-0.01 -0,-0.01l-0 0.01c-0,-0.01 0,-0.01 -0.01,-0.02l-0 -0.01 0 -0.01c0,0 0,0 0.01,0l0 0 0 0c0,-0 0,-0 0.01,-0 0,-0 0.01,-0 0.01,-0l0 -0c0,0.01 0,0.01 0,0.02 -0,0.01 -0,0.01 -0.01,0.01 0,0 0,-0 0,0l-0 0.01zm0.13 -0.02c-0,-0 -0,-0.01 0,-0.01 0,0 0,0.01 -0,0.01zm-0.01 -0l0 -0.01 0.01 0c-0,0 -0,0 0,0.01l-0 0.01 -0.01 -0c-0,-0 -0,-0 0,-0.01zm0.02 0.01c-0,-0 -0,-0 -0,-0 0,-0 0,-0.01 0,-0.01 0,0 0,0.01 -0,0.01zm-0.26 -0.01l-0 -0.01c0.01,-0 0.04,-0.01 0.05,-0.01 0.02,-0 0.04,0 0.06,0l0 0.01 -0 0.01c-0.02,0 -0.04,-0.01 -0.05,-0.01 -0.02,-0 -0.04,0 -0.05,0.01l-0 -0zm0.14 -0l0 -0.01c0.01,-0 0.05,-0 0.05,-0 0.01,0 0.04,0 0.05,0.01l0 0.01 -0 0c-0.01,-0 -0.04,-0.01 -0.05,-0.01 -0.01,0 -0.04,0.01 -0.05,0.01l-0 -0.01zm-0.16 0.01c-0,-0 -0,-0.01 -0,-0.01 0,0 0,0 0,0.01 0,0 0,0 -0,0.01zm0 -0.01zm0.27 -0l-0.27 0zm0.27 -0c0,-0 -0,-0 0,0 -0,0 -0,0 -0,-0zm-0 -0.01c0.01,-0 0,-0 0.01,0l0 0 -0 0c-0,-0 -0,-0 -0,-0 -0,-0 -0,-0 -0.01,-0l-0 -0zm-0.15 -0l0 0c-0,0 -0,-0 -0,-0zm0.02 -0c0,-0 0.01,-0 0.01,0 -0,0.01 -0.01,0 -0.01,-0zm-0.12 0.01l0 0.01 0 0.01 -0.01 0 -0 -0 -0 -0c-0,-0 -0,-0 -0,-0l-0 -0c-0,-0 -0,-0 -0,-0l-0 0.01c-0,-0 -0.01,-0 -0,-0.01 0,-0 0,-0 0,0l0 -0.01 -0.01 -0c-0,-0.01 0,0 0,-0.01 0,-0.01 -0,-0 -0,-0.01l0.03 -0c0,0 0,0 -0,0.01l-0.01 0c0,0 -0,0.01 0,0l-0.01 0 -0 0.01c-0.01,0 -0,-0 -0.01,-0.01l-0 0c0,0 0,-0 0,-0 0.01,-0 0.01,0 0.01,0 -0,0 0,0 -0.01,0 0,-0 0,-0 0,0l0 0c0,0 0,0 0,0zm0.15 -0.02c0,0 0,0 0,0.01 0,0 0,0 -0,0l-0 0 -0 -0 -0 -0c0,-0 -0,-0 0,-0l-0 -0 -0 -0 0 -0.01 0 0 0 0.01zm0.1 0.01l-0 0 -0 0c-0,0 -0,0 -0,0 -0,0 -0,0 -0,0 -0,0 -0,0 -0,0 -0.01,0.01 0.01,-0 -0,0l0 -0.01c-0,-0 -0,-0 -0,-0 0,-0.01 -0.01,-0 -0.01,-0 -0.01,-0 -0,0 -0.01,-0 0,-0 -0,-0 0.01,-0 0.01,0 0.01,0 0.02,0 0,0 0,0 -0,0.01 0,0 0,0 0,0.01 -0,-0 -0.01,-0 -0.01,0zm-0.15 -0.01l-0 0 0 -0.01c0.01,0 0,-0 0,0 0,0 -0,0.01 -0,0.01zm0.08 -0.01l-0 -0c0.01,0 0.02,0.01 0.03,0.01 0.02,0 0,0 0.03,0.01 -0,0 -0,0 0,0 -0,0 -0.02,-0 -0.02,-0 -0,-0 -0,-0 -0.01,-0l0 0c-0.01,-0 -0.01,-0 -0.01,-0 -0,0 -0.03,0 -0.03,0l-0 -0c-0.01,-0.01 -0.01,-0.01 -0.01,-0.02 0,0 0.01,0 0.02,0 0.01,0 0.01,0 0.01,0 -0.01,-0 -0.01,-0.01 -0.02,-0.01 -0.01,-0 -0.02,0 -0.02,-0 0,-0 -0,-0 0.01,-0 0.01,-0 0.03,0 0.03,0zm-0.08 -0.05c0,0.01 0,0.03 -0,0.03 -0,0 -0,-0 -0,-0 0,-0.01 -0,-0.02 0,-0.03zm0.03 0.02c0,0 0.01,0 0,0.01 -0,-0 -0,-0 0,-0.01zm0.02 -0.02c0.01,0 0,0.01 0,0.01 -0,0.01 0,0.01 0,0.02l-0 0 -0 -0.03zm-0.03 -0.13l-0 -0.01c0,-0 0,-0 0,-0l0.01 0c0,-0 0,-0 0,-0 0,0 0,0 0,0l-0 0.01 0 -0c0,0 0,0 0,0.01 0,0 0,-0 0,0 -0,0 -0,0 -0,0l0 0c-0,0.01 -0,0 -0,0.01 0,0.01 -0,0.01 -0,0.01 0,0 0,0 0,0.01 0,0 -0,0 -0,0.01 -0,0.01 0,0 0,0.01 -0,0 -0,0 -0,0.01 0,0.01 0,0 0,0.01 -0,0 -0,0.01 -0,0.01 0,0.01 -0,0 -0,0.01 0,0.01 0,0 0,0.01 -0,0.01 -0,0 -0,0.01 0,0.01 -0,0.01 0,0.02 0,0.01 -0,0.01 -0,0.01 -0,0.01 0,0.01 0,0.01 0,0.01 -0,0 -0,0.01 0,0.01 0,0 0,0.01 -0,-0.01 -0,-0 -0.01,-0.01 0,-0.01 0,-0 0,-0.01 0,-0 -0,-0 -0,-0.01 -0,-0.01 0,-0 -0,-0.01 -0,-0.01 0,-0.01 0,-0.02 -0,-0 -0,-0 -0,-0.01 0,-0 0,0 0,-0.01 -0,-0 -0,-0 -0.01,-0 -0,0.01 0,0 0,0.01 0,0.01 -0,-0 -0,0.01 0,0 0,-0 0,0 0,0.01 -0,0.01 -0,0.01 -0,0 -0,-0 -0,0.01 0,0.01 0,-0 0,0 0,0.01 -0,0 -0,0.01 0,0.01 0.01,-0 0,0.01 -0.01,0 -0.02,-0 -0.02,0.01 -0,-0.01 0,0 0,-0.01 0,-0.01 -0,-0 -0,-0.01 0,-0.01 0,0 0,-0.01 0,-0.01 -0,-0 -0,-0.01 -0,-0 0.01,-0.01 0,-0.02 -0,-0.01 0,-0.01 0,-0.01 0,-0.01 -0,-0.01 -0,-0.01 -0,-0.01 0,-0 0,-0.01 0,-0.01 -0,-0 -0,-0.01 -0,-0.01 0,-0 0,-0.01 0,-0.01 -0,-0 -0,-0.01 0,-0.01 0,-0 0,-0.01 0,-0.01 -0,-0 -0,-0.01 0,-0.01 0,-0 0,-0.01 -0,-0.01 -0,-0 -0,-0.01 0,-0 0,-0 0,-0.01 -0,-0.01 -0,-0 0,-0.01 -0,-0 -0,-0.01 -0,-0.01 0,-0.01 0,0 0,-0 -0,-0 -0,-0.01 0,-0.02 0,0 0,0 0,0l0 0z"/>
   <path class="fil1" d="M0.2 0.18l0 0 0 0.01 -0.01 0c0,-0.01 -0,-0.01 0,-0.01zm-0 -0.01l0.01 0 0 0.01 -0.01 -0 0 -0.01zm-0 -0.02l0.01 0 -0 0.01 -0.01 -0 0 -0.01zm0 -0.01c-0,-0 -0,-0 -0,-0.01 0,-0 0,-0 0.01,-0l-0 0.01 -0 0zm-0 -0.01c-0,-0.01 -0,-0.01 0.01,-0.01l-0 0.01c-0,0 -0,0 -0.01,0zm0.01 -0.11l0 -0c-0,0.01 -0,-0 -0,0 -0,0 -0,0 0,0l0 0.01 -0 -0.01c0,-0 0,-0 0.01,0 0,0.01 -0,0 -0,0.01 0,0 0.01,0 0,0.01 -0,0 -0,0 -0,0 0,0 0,-0 0,0.01 0,0.01 -0.01,0 -0,0.01 0,0 0,0 0,0.01 -0,0 -0,0 -0,0.01 -0,0.01 0,0 0,0.01 -0,0 -0.01,0 -0,0.01 0.01,0.01 -0,0.01 -0,0.01 -0,0.01 0,0 0,0.01 -0,-0 -0,-0 -0,-0l-0 -0c-0,-0 0,-0 -0,-0 -0,0 -0,0 -0,0l-0 0c-0,-0.01 0,-0 0,-0.01 -0,-0.01 -0,0 -0,-0 -0,-0 -0,-0 0,-0.01 0,-0 0,0 0,-0.01l-0 -0c-0,0 0,0 -0,0 -0,-0 -0,0 -0,-0.01l-0 0c-0,0 -0.01,0 -0,0.01 0,0 -0,-0.01 0,0.01l-0.01 0 -0 -0c0,0 0,0.01 0,0.01 0,0.01 -0,0.01 -0,0.01 -0,-0.01 0,-0.01 -0,-0.02 -0,-0.01 0,-0.01 0,-0.02 -0,-0.01 -0,-0.01 -0,-0.02 0,-0 0,-0.01 0,-0.01 -0,-0 -0,-0 -0,-0.01 0,-0 0,-0.01 0,-0.01 -0,-0.01 0,-0.01 0.01,-0.01l-0 -0c-0,0 -0,0 -0.01,0l0 -0.01 0.01 -0 0 0zm0.01 -0c0,-0 0,0 0.01,0 0,0 0,0 -0,0.01 -0,-0 -0,-0 -0,-0l-0 -0.01c0,0.01 -0,0 0,0.01l-0.01 -0 0 -0.01zm-0.01 -0l-0 -0c-0,-0 -0,-0 -0,-0 -0,0 -0.01,0.01 -0,0.02 -0,0.01 -0,-0 -0,0 -0,0 0,0.01 0,0.01 -0,0.01 -0,0 -0,0.01 0,0.01 -0,0.01 -0,0.01 -0,0.01 0,0 0,0.01 0,0.01 -0,0 -0,0.01 0,0 0,0 0,0.01 -0,0.01 -0,0 -0,0.01 0,0.01 0,0 0,0.01 -0,0.01 -0,0 -0,0.01 0,0.01 0,0 0,0.01 -0,0.01 -0,0 -0,0.01 0,0 0,0 0,0.01 -0,0 -0,0 -0,0.01 0.01,0.02 -0,0.02 -0,0.02 0,0.01 0,0 0,0.01 0,0.01 -0,0 -0,0.01 0,0.01 0,0 0,0.01 -0,0.01 -0.01,0 -0,0.01 0.01,-0.01 0.01,-0.01 0.02,-0.01 0,-0.01 -0,-0 -0,-0.01 -0,-0.01 0.01,-0 0,-0.01 -0,-0.01 -0,0 -0,-0 -0,-0.01 0,-0.01 0,-0.01 0,-0 0,0 0,-0.01 -0,-0 -0,-0 -0,-0 0,-0.01 0.01,-0 0,-0.01 -0,-0.01 -0.01,0 -0,-0.01 0,-0 0,-0 0.01,0 0,0.01 -0,0 -0,0.01 -0,0.01 -0,0.01 0,0.01 0,0.01 -0,0.01 -0,0.02 0,0.01 -0,0.01 0,0.01 0,0 0,0 0,0.01 -0,0.01 -0,-0 -0,0.01 0.01,0.01 0,-0 0.01,0.01 0,-0 -0,-0 -0,-0.01 -0,-0.01 0,-0 0,-0.01 -0,-0 -0,-0 -0,-0.01 0,-0 0,-0 0,-0.01 -0,-0.02 0,-0.01 -0,-0.02 -0,-0.01 -0,-0.01 0,-0.01 0,-0.01 -0,-0.01 -0,-0.01 -0,-0.01 0,-0 0,-0.01 -0,-0 -0,-0.01 0,-0.01 0,-0.01 0,-0 -0,-0.01 -0,-0.01 0,-0.01 0,-0.01 0,-0.01 -0,-0 -0,-0.01 0,-0 0,-0 0,-0.01 0,-0.01 -0,-0 -0,-0.01 -0,-0.01 0,-0.01 0,-0.01 -0,-0.01 -0,-0 0,-0.01l-0 -0c0,-0 0,-0 0,-0 0,-0 0,-0 -0,-0 -0,-0.01 0,-0 -0,-0.01l-0 0 -0.01 -0c-0,-0.01 -0,-0 -0,-0.01 -0.01,0 0,0 -0.01,0.01z"/>
   <path class="fil2" d="M0.19 0.58c0,0 0,0.01 0.01,0.01l0 -0c0.01,-0.01 -0,0 0,-0 -0,0 -0,0.01 -0,0.01l0 0.03c0,-0 0,-0.02 0,-0.03l0 -0.07c0,-0.01 -0,0 0,-0.01 0,-0 0,-0 0,-0 0,0 0,0 0,0.01 0,-0 0,-0 0,-0 -0,0.01 0,0.03 0,0.04 -0,0.01 0,0.03 0,0.04 0,0.01 0,0.03 0,0.04 0.01,0 0.03,-0.01 0.03,-0.02 0,-0.02 -0.01,-0.02 -0.02,-0.03 -0.02,-0.04 -0.01,-0.08 -0.02,-0.08 -0.01,0 -0.01,0.01 -0.01,0.01 -0,0.02 -0,0.04 -0.01,0.06z"/>
   <path class="fil3" d="M0.2 0.63c-0,0.01 0,0.01 -0,0.01 -0.01,0 -0.04,-0.02 -0.02,-0.04 0,-0 0.01,-0.01 0.01,-0.02 -0,-0 -0,0 -0,-0l-0 0c-0,-0 0,-0 -0,-0 -0.01,0.01 -0.02,0.02 -0.01,0.04 0,0.01 0.02,0.02 0.03,0.02 0.01,-0 0,0 0,-0l0.01 -0c0,-0.01 0,-0 0,-0.01 0,-0.01 -0,0 0,-0 0,-0 -0,-0.01 0,-0.02 0,-0.01 0,-0 -0,-0.01 -0,-0.01 0,-0.01 0,-0.02 0,0.01 0,0.01 0,0.02 0,-0.01 -0,-0.03 -0,-0.04 0,-0.01 -0,-0.03 -0,-0.04 -0,-0 0,-0 -0,0 -0,-0 0,-0 -0,-0.01 -0,0 -0,0 -0,0 -0,0.01 -0,-0 -0,0.01l-0 0.07c-0,0 -0,0.02 -0,0.03z"/>
   <path class="fil4" d="M0.2 0.87c-0,-0.01 -0,-0 0,-0.01 0,0 0,0 0,0l0 0c0,0 -0,-0 0,0l0 0 0 -0.01 -0 0.01 -0.01 -0zm0.01 -0.01c-0,0 -0.01,0 -0.01,-0.01 0,0 -0,0.01 0,0.01 -0,-0.01 -0,-0 -0,-0.01 0,-0 0,-0 0,-0l-0 0.01zm0.01 -0.02c0,-0 0,-0 0.01,-0 0,0.01 -0,0.01 -0,0.01 0,0 0,0 0,0.01 0,0.01 -0,0 -0,0.01 -0,0.01 0.01,0 0,0.01 -0,0.01 0,0 0,0.01 -0,0 -0,0 -0.01,0l-0 -0.01c0,-0.01 -0,-0 0,-0 -0,-0.01 -0,-0 -0,-0.01l0 -0c0,-0 0,0 0,-0 -0,-0.01 -0,0 -0,-0.01 -0,-0.01 0,-0 0,-0.01 0,-0 0,0 0,-0 -0,-0.01 -0,-0 -0,-0.01zm-0.01 -0.03l-0 0c-0,0 -0.01,0 -0,0.01 0,0.01 0,-0 0,0.01 0,0.01 -0.01,-0 -0,0.02l0 0c0,0.01 -0.01,0.01 -0.01,0 -0,-0.01 0,-0 0,-0.01 0,-0 -0,-0 -0,-0.01 0,-0.01 0,-0.01 0,-0.01 -0,-0 -0,-0 -0,-0l-0 -0c-0,0.01 -0,0.04 -0,0.05 0,0.01 -0,0.02 -0,0.03l0 0.02c0,-0 0,-0 0,-0l-0 -0c-0,-0.01 0,-0 0,-0.01l-0 -0 0 -0.01c0,0 0,0 0.01,0l-0 0c-0,0 -0,-0 -0,0l0 0 -0 0.01 0.01 0 0 -0c-0,-0 0,-0 -0,-0 -0,-0 -0,0 -0,-0 0,-0.01 -0,0 0,-0 0,-0 0,-0 0.01,-0.01 0,-0 0,-0 -0,-0.01 -0,-0.01 0,-0 0,-0.01 -0,-0.01 -0,-0 -0,-0.01 0,-0 0,-0 0,-0.01 -0,-0 -0,-0.01 0,-0.01 -0,-0 -0,-0 -0,-0.01 0,-0.01 0,-0 0,-0.01 -0,-0 -0,-0.01 -0,-0.01 0,-0.01 0,-0 0,-0.01 -0.01,-0 -0,-0 -0.01,0 0,0.01 0,0.01 0,0.01l-0.01 -0c-0,-0.01 0,-0.01 0,-0.01 0,-0.01 -0,-0 -0,-0.01 0,-0.01 0,-0 0.01,-0.01l-0 -0.01 -0 -0 0 0.01c-0.01,0 -0,0 -0.01,0.01z"/>
   <path class="fil5" d="M0.18 0.59c0,0 0,-0 0,0l0 -0c0,0 0,0 0,0l0 -0.01c0.01,-0.01 0.01,-0.04 0.01,-0.06 0,-0.01 -0,-0.01 0.01,-0.01 0.01,0 0,0.04 0.02,0.08 0.01,0.01 0.02,0.02 0.02,0.03 -0,0.01 -0.02,0.02 -0.03,0.02 -0,-0.01 -0,-0.03 -0,-0.04 0,-0.01 0,-0.01 -0,-0.02 -0,0.01 -0,0.01 -0,0.02 0,0.01 0,0 0,0.01 -0,0 0,0.01 -0,0.02 -0,0.01 -0,-0 -0,0 -0,0.01 0,0 -0,0.01l-0.01 0c-0,0 0,0 -0,0 0.01,0.01 0.03,-0 0.04,-0 0.01,-0.01 0.02,-0.02 0.02,-0.03 -0,-0.02 -0.01,-0.02 -0.01,-0.02 -0.03,-0.05 -0.01,-0.1 -0.03,-0.09 -0.02,0 0,0.05 -0.03,0.09z"/>
   <path class="fil6" d="M0.2 0.8l0 0c0,-0 0,0 0,-0.01 0,-0.01 -0,-0.01 -0,-0.01 -0,-0.01 0,-0 0,-0.01 0,-0.01 -0,-0.01 -0,-0.01 0,-0.01 0,-0 0,-0.01 -0,-0.01 -0,0 -0,-0.01l0.01 0 0 0.01c-0,0 -0,0 -0,-0 -0,0 -0,0 0,0 0,0 0,0 0,0l0 0c0,0.01 0,0.01 -0,0.01 0,0.02 0,0 0,0.01 0,0.01 -0,0 -0,0.01 -0,0 -0,0 -0,0 0,0 0,0 0,0l0 0c0.01,-0 -0,-0 0.01,-0.01l-0 -0.01c-0,-0.01 0,-0 0,-0.02 -0,-0.01 -0,0 -0,-0.01 -0,-0.01 0,-0 0,-0.01 0,-0 0,-0 -0,-0 -0,-0 -0,0 -0,-0 -0,-0.01 0,-0 0,-0.01 0,-0 -0,-0 -0,-0.01 -0,-0.01 0,-0.01 0,-0.01 0,-0.01 -0,-0.01 -0,-0.01 -0,-0 -0,-0 -0,-0.01l0 -0c0,-0.01 -0,-0 -0,-0.02l-0.01 -0c-0,0.01 -0,0 -0,0.02 0,0 0.01,0 0,0.01 -0,0.01 -0,0 -0,0.01 -0,0.01 0.01,0 0,0.02 -0,0 -0.01,0 -0.01,-0 -0,-0 0,-0.01 0,-0.01 -0,-0.01 -0,-0 -0,-0.01 -0,-0.01 0,-0.01 0,-0.01 -0,-0.01 -0,-0 -0,-0.01 -0,-0.01 0,-0.01 0,-0.01 0,-0.01 -0,-0.01 -0,-0.01 -0,-0 0,-0.01 0,-0.01 -0,-0 -0,-0 -0,-0 -0,0.01 -0,0.02 -0,0.03 0,0.01 -0,0.01 -0,0.01 0,0.03 -0,0.06 0,0.08z"/>
   <path class="fil7" d="M0.2 0.73l-0 0 -0 -0 0 -0zm-0.01 0.07c-0,-0.02 0,-0.05 -0,-0.08 -0,-0.01 0,-0.01 0,-0.01 -0,-0.01 -0,-0.02 0,-0.03 0,0 0,0 0,0 -0,0 -0,0 -0,0.01 0,0 0,0 0,0.01 -0,0 -0,0 -0,0.01 0,0.01 0,0 0,0.01 -0,0 -0,0 -0,0.01 0,0.01 0,-0 0,0.01 -0,0 -0,0 -0,0.01 0,0.01 0,0 0.01,0 0,-0.01 -0.01,-0.01 -0,-0.02 0,-0.01 0,0 0,-0.01 0,-0.01 -0,-0 -0,-0.01 0,-0.01 0,-0 0,-0.02l-0 -0c0,-0.01 -0,-0.01 0.01,-0.01l-0 -0.01 0.01 -0 -0 0.01 0 0c0,0.01 -0,0 -0,0.01 -0,0.01 0,0 0,0.01 0,-0 0,-0 0,-0 0,0 0,-0 0,-0 0,-0 0,-0 -0,-0 0,0 0,0 0,0l0 0c0,-0 0,-0 0,-0.01 0,-0 -0,-0 -0,-0.01 -0,-0 -0,0 -0,-0 -0,-0.01 0,-0 0,-0.01 -0,-0 -0,0 -0,-0.01l0.01 -0 0 0c0.01,-0 0,-0.01 0,-0.02l0 -0c-0.01,0 -0.01,0 -0.01,0 -0,-0 -0.02,-0 -0.02,-0 0,0.01 -0,0.01 -0,0.01 0,0.01 0,0 0,0.01 -0,0.01 -0,0 -0,0.01 0,0.01 0.01,0 0,0.02l0 0 -0 0c0,0 0,0 0,0 0,0 -0,0 0,0.01 -0,0 -0,0 -0,0.01 0.01,-0 0,-0 0,-0.01 0,0.01 0,0.01 -0,0.01 0,0.02 0,0 0,0.02l-0 -0.01c-0,0 -0,0 -0,0 0,0 0,0 0,0.01 -0,0.01 -0,0.01 -0,0.01 -0,0 -0,0.01 0,0.01 0,-0 -0,-0 0,-0.01 0,0.01 -0,0 -0,0.02 -0,0.01 -0,0.01 -0,0.01 0,-0 0,-0 0,-0 -0,0 -0,0 0,0.01l0 -0.01c0,0 -0,0.01 0,0.01z"/>
   <path class="fil8" d="M0.19 0.59c-0,0.01 -0.01,0.01 -0.01,0.02 -0.02,0.02 0.01,0.04 0.02,0.04 0,-0.01 0,-0.01 0,-0.01l-0 -0.03c0,-0 0,-0.01 0,-0.01 -0.01,0 0,-0 -0,0l-0 0c-0,-0.01 -0,-0.01 -0.01,-0.01l-0 0.01z"/>
   <path class="fil7" d="M0.2 0.8l-0 0c-0,0.01 0,0.01 0,0.01 0,0.01 -0,0 -0,0.01 0,0.01 0,0 0,0.01 -0,0.01 0,0.01 0,0.01 -0,0.01 -0,0 0,0.01 0,0.01 -0,0.01 -0,0.01 0,0 0,0 0,0.01 0,0 -0,0 -0,0.01 -0,0.01 0,0 0,0.01l0 0.02 0 0 -0 -0.01c0,-0 0,-0 0.01,0 0,0.01 -0,0 0,0.01l0 0 0 -0.01c0,-0 0,-0 0.01,-0 0,0 0,0 0,0.01l0 -0c0,-0 0,-0.01 0,-0.01 -0,-0.01 -0,-0 0,-0.01 -0,-0 -0,-0 -0,-0.01 -0.01,0.01 -0.01,0 -0.01,0.01 -0.01,0 0,-0 -0,0 0,0.01 0,0 0,0 0,0 0,-0 0,0l0 -0 0 0.01c-0.01,0 -0.01,0 -0.01,-0.01 0.01,-0 0,-0 0,-0l-0.01 -0 0 -0.01 -0 -0c0,-0 -0,-0 0,-0l-0 0c-0,0 -0,-0 -0,0.01l0 0c0,0 -0,0 -0,0l-0 -0.02c-0,-0.01 0,-0.02 0,-0.03 -0,-0.01 -0,-0.05 0,-0.05l0 0c0,0 0,0 0,0 -0,0.01 -0,0 -0,0.01 0,0 0,0 0,0.01 -0,0.01 -0,-0 -0,0.01 0,0.01 0.01,0.01 0.01,-0l-0 -0c-0,-0.02 0.01,-0.01 0,-0.02 -0,-0.01 -0,-0 -0,-0.01 -0,-0 0,-0 0,-0.01l0 -0 -0 -0c-0,-0 -0,-0 -0,-0 -0,-0 0,-0 0,-0 0,-0 0.01,0 0,-0.01 -0,-0.01 -0,0.01 -0,-0.01 0,-0 0.01,-0 0,-0.01l-0 -0c-0,-0 -0,-0 -0,-0 -0,-0 -0,-0 -0,-0 0,0 0,0 0,0l-0 -0.01 -0.01 -0c0,0.01 0,0 0,0.01 0,0.01 -0,0 -0,0.01 -0,0.01 0.01,0.01 0,0.01 -0,0 -0,0 -0,0.01 0,0.01 0.01,0 0,0.01 -0,0.01 0,0 -0,0.01z"/>
   <path class="fil9" d="M0.21 0.02l-0 0 0 0c-0,0.02 -0,0 -0,0.01 0,0 0,-0 0,0.01 0,0.01 -0,0 -0,0.01 -0,0.01 0,-0 0,0.01 -0,0 -0,0 -0.01,0 -0,-0.01 0,-0.01 0,-0.01 0,-0.01 -0,0 -0,-0.01 0,-0 0,0 0,-0.01l-0 -0c0,0 -0,0.01 -0,0.01 0,0 0,0.01 0,0.01 0,0 -0,0.01 -0,0.01 -0,0.01 0,0.01 0,0.02 0,0.01 -0,0.01 -0,0.02 0,0.01 0,0.01 0,0.02 0,-0 0,-0 0,-0.01 -0,-0 0,-0.01 -0,-0.01 -0,-0.01 0,-0 0,-0.01 0,-0.01 -0,-0 -0,-0.01 0,-0.01 0,-0 0,-0.01 -0,-0 -0,-0 -0,-0.01l0.01 -0 0 0.01c-0,0 -0.01,0 -0,0.01 0,0.01 -0,-0 0,0 0,0 0,0 0,0 0,0.01 -0,0 0,0.01 0.01,-0 0,0 0,-0 0,-0.01 0.01,-0.01 0,-0.01 -0,-0 -0.01,-0 -0,-0.01 0,-0.01 0,0 0,-0.01 0,-0.01 -0.01,-0 -0,-0.01 0,-0.01 0,0 0,-0.01 0,-0.01 -0,-0 -0,-0.01 0,-0.01 0,-0 0,-0.01l-0 -0 -0 -0.01c-0,-0 -0,0 -0,-0 0,-0.01 -0,0 0,-0l-0 0z"/>
   <path class="fil10" d="M0.22 0.78c0,0 0,0 -0,0l0 -0zm0 -0.02c0,0 0,0 -0,0 -0,-0 -0,-0 0,-0zm0 -0.03c-0,0 -0,0 -0,0 -0,-0 -0,-0 -0,-0.01 0,0 0,-0 0,0zm-0 -0.02c0,0 0,0 0,0.01 -0,-0 -0,-0 -0,-0.01zm0 -0l-0 0c0,0 0,0.01 0,0.01 0,0 0.01,0 0,0.01 -0,0 -0.01,0 -0,0.01 0,0 0,0 0,0.01 -0,0 -0.01,0 -0,0.01 0,0.01 -0,-0 0,0 0,0 0,-0 0,0 -0,0 -0,0 -0,0.01 0,0.01 0,-0 0,0.01 0,0.01 -0.01,0 -0,0.02l0 0 0 0.01c-0,0.01 -0,-0 -0.01,0.01 0,0.01 0.01,0 0,0.01 -0,0 -0,0 -0,0.01l0.01 0c0,-0.01 -0,-0.01 -0,-0.01 0.01,-0 0,-0.01 0.01,-0 0,0.01 -0,0 -0,0.01 -0,0.01 0,0.01 0,0.01 -0,0.01 -0,0 -0,0.01 -0,0.01 0,0 0,0.01 -0,0 -0,0.01 -0,0.01l0 -0 -0 -0.01c0,-0 0.01,-0.01 0,-0.01l-0 -0.01c0,-0 0,-0 0,-0.01 -0,-0.01 -0,-0.01 -0,-0.01 0.01,-0 0,-0 0.01,-0l-0 -0c0,-0 0,-0 0,-0 0,-0.01 0,-0.01 -0,-0.01 -0,0 -0,0.01 -0,0.02 -0,-0 -0,-0 -0,-0.01 -0,-0.02 0,-0.01 0,-0.02 -0,-0.01 0,-0.01 0,-0.01 0,-0 -0,-0.01 -0,-0.02 0,-0.01 0,0 -0,-0.02 -0,-0.01 0,0 0,-0.01 -0,-0.01 -0,-0 0,-0.01 0,-0 -0,-0 -0,-0.01 -0,0 -0,0 -0,0.01 0,0.01 -0,-0 0,0.01 -0,0.01 -0,0.01 -0,0.02 0,0 0,0 0,0 0,0 0,0 0,0.01 -0.01,0.01 0,0 -0,0.02 -0,0.01 0,0.01 0,0.01 0,0.01 -0,0.01 -0,0.01 -0,0.01 0,0.01 -0,0.01 -0,-0 -0.01,0 -0.01,-0.01 0,-0.01 0,-0 0,-0.01 -0,-0.01 -0,-0 -0,-0.01 0,-0.01 0,-0 0,-0.01 -0,-0 -0,-0 -0,-0.01 0,-0 0,-0 0,-0 0,-0.01 -0,-0 -0,-0.01 0,-0 0,-0 0,-0.01 -0,-0.01 -0.01,-0 -0,-0.01 0,-0 0,-0 0,-0.01 -0,-0 0,-0 -0.01,-0z"/>
   <path class="fil4" d="M0.21 0.7l0.01 0c0,0.02 0,0 0,0.02 0.01,0 0,-0 0.01,0 -0,0 0,0 -0,0.01 -0,0.01 0,0.01 0,0.01 0,0 -0,0 -0,0.01 0,0.01 0,0 0,0.01 -0,0 -0,-0 -0,0 -0,0 0,0 0,0.01 0,0.01 -0,0 -0,0.01 -0,0.01 0,0 0,0.01 -0,0.01 -0,0 -0,0.01 -0,0.01 0.01,0.01 0.01,0.01 0,-0 0,-0.01 0,-0.01 0,0 0,-0 0,-0.01 -0,-0 -0,-0 -0,-0.01 0,-0.02 -0,-0.01 0,-0.02 0,-0.01 -0,-0.01 -0,-0.01 -0,-0 -0,0 -0,-0 -0,-0.01 0,-0.01 0,-0.02 -0,-0.01 -0,0 -0,-0.01 -0,-0 -0,-0.01 0,-0.01 0,-0 0,-0.01 -0,-0.01 -0,-0 -0,-0 -0,-0.01l-0 -0 -0.01 0c-0,0.01 0,0 0,0.01 0,0.01 -0,0.01 -0,0.01 0,0.01 0,0 0,0 0,0 0,0 0,0.01 -0,0 -0,0 -0,0.01l-0 -0c-0,-0 0,-0 -0,-0 0,0 0,0 0,0 -0,0 -0,0 -0,0 -0,-0 -0,0 -0,0 -0,-0 -0,0 -0,-0.01 0,-0.01 0,0 0,-0.01l-0 -0 0 -0.01 -0.01 0 0 0.01c-0.01,0 -0,-0 -0.01,0.01l0 0z"/>
   <path class="fil9" d="M0.09 0.22c0.02,0 0,-0.01 0.05,-0.01 0.02,0 0.03,0 0.06,0l-0 -0.01c-0.02,0 -0.04,-0 -0.06,-0 -0.01,0 -0.04,0 -0.05,0.01l0 0.01z"/>
   <path class="fil11" d="M0.25 0.73c0,0 0,0 0,0.01 -0,-0 -0,-0 0,-0.01zm0 -0.01c-0,-0 -0,-0 -0,-0.01 0,0 0,0.01 0,0.01zm-0 -0.02c0,-0 0,0 0,0 0,0 -0,0 -0,-0zm0 0.04c0,-0.01 -0,-0.01 0,-0.01l0 0.01 0.01 0c0,-0.01 0,-0.01 0,-0.01 0,-0.01 0,-0 0,-0.01 0,-0.01 0,-0 0,-0.01l0 0c0,-0 0,-0 0,-0.01 0,-0 0,-0 -0,-0.01l-0 0c0,0 0,-0 0,0 -0.01,0 -0,0 -0.01,0.02 -0,-0.01 -0,-0.02 -0,-0.02l0 0.01c-0,-0 -0,0 -0,-0 -0,-0 0,-0 -0,-0 0,-0 0,-0.01 -0,-0.01l-0.01 0c0,0.01 0,0.01 0,0.02l-0 0.05c-0,0.01 -0,0.02 -0,0.02 0,-0 0,0 0,-0 0,-0 0,-0 0,-0l0.01 -0.04z"/>
   <path class="fil9" d="M0.22 0.22c0.01,-0 0.02,-0 0.03,-0 0.03,-0 0.02,-0 0.05,-0 0.01,0 0.02,0 0.02,0l0 -0.01c-0.01,-0 -0.04,-0.01 -0.05,-0.01 -0.01,-0 -0.05,0 -0.05,0l-0 0.01z"/>
   <path class="fil0" d="M0.15 0.63c-0,-0 -0,-0 -0.01,0l-0 -0c-0,0.01 -0,0.01 -0,0.02 -0,0 -0.04,0 -0.05,0 -0,-0 -0,-0.01 -0,-0.01 0,0 0,0.01 0.01,0.01 0,-0 0,-0 0,-0.01l-0 0c-0,0 -0,0 -0,0 -0,-0.01 0,-0 -0,-0.01l0 -0 -0 -0.01 0 -0 0 -0.01 0 0c0,-0 0,-0 -0,-0.01 -0,-0 -0,-0 -0.01,0 0,-0.01 0.01,-0.01 0.02,-0.01 0.02,0 0.03,-0 0.03,0.01 0,0 0,0 0,0.01l0 0.01 0.01 0c-0,-0.01 -0,-0 -0,-0.01 -0,-0 -0,-0.01 -0,-0.01 -0.01,-0 -0.04,-0 -0.05,-0 -0.01,0.02 -0.01,0.05 0,0.05l0.05 0c0.01,-0 0.01,-0.01 0.01,-0.02z"/>
   <path class="fil3" d="M0.35 0.22c0.01,0 0.04,0.01 0.05,0.01l0 -0.01c-0.01,-0 -0.05,-0.01 -0.05,-0.01l-0 0.01z"/>
   <path class="fil12" d="M0.01 0.23l0 0.01 0.04 -0.01c0.01,-0 0.01,-0 0.01,-0l-0 -0.01c-0.01,-0 -0.04,0.01 -0.05,0.01z"/>
   <path class="fil13" d="M0.09 0.22l0 0c0.02,-0 0.04,-0.01 0.05,-0.01 0.02,0 0.04,0.01 0.05,0.01l0 -0.01c-0.03,-0 -0.03,-0 -0.06,-0 -0.05,-0 -0.04,0.01 -0.05,0.01z"/>
   <path class="fil14" d="M0.22 0.22l0 0.01c0.01,0 0.04,-0 0.05,-0.01 0.01,-0 0.04,0 0.05,0.01l0 -0c-0.01,0 -0.02,-0 -0.02,-0 -0.03,-0 -0.02,-0 -0.05,0 -0.01,0 -0.02,0 -0.03,0z"/>
   <path class="fil13" d="M0.22 0.07c-0.01,-0 -0,0 -0,-0 0,-0 -0,-0 0,-0 0,0 0,0 0,0zm-0 -0.04l0 0c-0,0.01 -0,-0 -0,0.01 0,0 0,0 0,0.01 -0,0.01 -0,-0 -0,0.01 -0,0.01 0.01,0 0,0.01 -0,0.01 -0,-0 -0,0.01 -0,0.01 0,0.01 0,0.01 0,0.01 -0,-0 -0,0.01l0 0c0,0.01 -0,0 -0,0.01 -0,0 -0,0 -0,0.01 0,0.01 -0,-0 0,0 -0,0.01 -0.01,-0 -0,0.01l0 -0c0,-0 -0,-0 0,-0 0,0 -0,-0 0,0l0 0c0,0 0,0 0,0 0,-0.01 -0,-0.01 -0,-0.01 0,-0.01 0.01,-0 0,-0.01 -0,-0.01 0,-0.01 0,-0.01 0,-0.01 -0,-0 -0,-0.01 0,-0 0,-0 0,-0.01 0,-0 -0,-0 -0,-0.01 -0,-0.01 0,-0 0,-0.01 -0,-0.01 -0,-0 -0,-0.01 -0,-0 0,-0 0,-0 0,-0.01 -0,-0.01 -0,-0.01 0,-0 0,-0 0,-0.01 -0,-0 -0,-0 -0.01,-0l0 0.01z"/>
   <path class="fil15" d="M0.15 0.3l0.01 0c0,-0 -0,-0 0,-0 0,0 0,0 0.01,0l0 0 -0 0.01c-0.01,0 -0.01,0 -0.02,-0l-0 0c0.01,0.01 0.01,0.01 0.02,0.01l0.01 -0.01c-0,-0.01 0,-0.01 -0,-0.03 -0,0.01 -0.02,0.01 -0.02,0 -0,-0 0,-0.01 -0,-0.01 -0,0.01 0.01,0.01 0,0.02z"/>
   <path class="fil16" d="M0.07 0.22l0 0c0,0 0,0 0,0l0 0c0,0 0,0 0,0l-0 -0.01 0.01 -0c-0,-0 -0,-0 -0,-0l-0 -0c-0,-0 0,-0 -0,-0 0.01,-0 0,-0 0.01,-0 -0,-0 0,-0.01 -0.01,-0 -0,0 0,0 -0,0l0 -0c0.01,0 0,0.01 0.01,0.01l0 -0.01 0.01 -0c-0.01,0 -0,-0 -0,-0l0.01 0c0,-0.01 0,-0 0,-0.01l-0.03 0c-0,0 0,0 0,0.01 -0,0.01 -0,-0 -0,0.01l0.01 0 -0 0.01z"/>
   <path class="fil17" d="M0.16 0.18c-0,-0 -0.02,0.01 -0.02,0.01l-0.03 0.01c0.01,0 0.03,-0.01 0.03,-0.01l0 0 -0 0 0 0c0.02,-0.01 0.02,-0.01 0.04,-0.01 0.01,-0 0.01,0 0.01,-0 -0.01,-0.01 -0.03,0 -0.04,-0 0,-0 0,-0 0.01,-0 0.01,-0 0.02,-0.01 0.02,-0l0 -0 0 -0c-0.01,-0 -0.02,-0 -0.03,0z"/>
   <path class="fil13" d="M0.22 0.2c0,0 0,0.01 -0,0.02 -0,-0 -0,-0 -0.01,-0l0 0 -0 0.01c-0.01,0 -0,-0 -0.01,-0.01l0 -0.01 -0 -0 0 0.01 -0 0c-0,-0 -0,-0 -0,-0l-0 0c0.01,0.01 0,0.01 0.01,0.02l0 -0.01c0,0 0,0 0,0.01 0,-0 0,-0 0,-0 0,-0 0,0 0.01,0l0 -0.01c-0,-0 0,0 -0,-0 0.01,-0 0.01,0 0.01,-0.01 0,-0.01 0,-0.01 -0,-0.02l-0 0z"/>
   <path class="fil18" d="M0.16 0.27c0,0.01 0,0.02 0,0.03 0.01,-0 0.01,-0 0.01,-0.01 0,-0.01 -0,-0.02 -0,-0.02 -0.01,0 -0.01,0.01 -0.01,0z"/>
   <path class="fil19" d="M0.26 0.49l-0 -0 0 -0.01c-0,0 -0,0.02 -0,0.03 -0,0.01 -0,0.02 -0,0.03 -0,-0 -0,-0 -0,-0 -0,0.01 -0,0 -0,0.01l0 -0c0,-0 0,-0 0,-0l0 0.01c0.01,-0 0.01,-0.06 0.01,-0.07z"/>
   <path class="fil20" d="M0.15 0.26l-0 -0c0.01,0 0.01,0 0.01,0.01 0,0.01 -0,0 -0,0 0,0 0,0 0.01,0 0.01,-0 0,-0 0.01,-0 0,-0.01 0.01,-0 0.02,-0l0 -0.01c-0.01,0 -0.02,-0 -0.02,0 -0,0 -0.01,0 -0.01,-0 -0,-0 -0,-0 -0,-0l-0 -0.01c0,0 -0,-0 -0,0 -0,0 0,0 0,0.01 0,0 -0,0.01 0,0.01z"/>
   <path class="fil21" d="M0.3 0.48l-0.01 0 -0.01 -0 0 -0 0.01 0 0.01 0c0,0 0,-0 0,0l-0 0zm-0.03 0c0.01,-0 0,0 0.02,0 0.01,0 0.01,0 0.02,-0.01 0,0 -0,0 0,0l-0 -0c-0.01,-0 -0,-0 -0.01,-0.01l-0.04 0 -0 -0c-0,0 -0,0 -0,0 -0,0 -0,0 -0,0 -0,0 0,0 -0,0z"/>
   <path class="fil22" d="M0.15 0.31c0.01,0.01 0.01,0.01 0.02,0l0 -0.01 -0 -0c-0,-0 -0,-0 -0.01,-0 -0.01,-0 -0,-0 -0,0l-0.01 -0 0 0.01z"/>
   <path class="fil23" d="M0.26 0.27c0,0.01 -0,0.02 -0,0.03 0.01,-0 0.01,-0 0.01,-0.01 0,-0.01 0,-0.01 0,-0.02 -0.01,0 -0,0 -0.01,0z"/>
   <path class="fil24" d="M0.14 0.65c-0,-0 0,-0 -0,-0 -0.01,0 -0.03,0 -0.04,0l-0 -0 -0 0c-0,-0 -0,-0 -0.01,-0.01 0,0 0,0.01 0,0.01 0,0 0.04,0 0.05,-0z"/>
   <path class="fil16" d="M0.33 0.2l-0 0 0 -0 0 0 0 -0c0,-0 0.01,-0 0.01,-0 -0,-0 -0,-0 -0,-0.01 0,-0 0,-0 0,-0.01 -0.01,-0 -0.01,-0 -0.02,-0 -0.01,-0 -0.01,-0 -0.01,0 0,0 -0,0 0.01,0 0,0 0.01,-0 0.01,0 0,0 -0,-0 0,0l-0 0.01c0.01,-0 -0,0 0,-0 0,-0 0,-0 0,-0 0,-0 0,-0 0,-0 0,-0 0,-0 0,-0z"/>
   <path class="fil25" d="M0.21 0.83c-0,0.01 0,0.01 0,0.01 0,0 -0,0 -0,0 -0,0 -0,-0 -0,0.01 0,0.01 0,-0 0,0.01 -0,0.01 -0,-0 -0,0l-0 0c0,0.01 0,-0 0,0.01 -0,0 -0,-0 -0,0l0 0.01c0,-0 0,0 0.01,-0 0,-0.01 -0.01,-0 -0,-0.01 0.01,-0.01 -0,-0 -0,-0.01 0,-0 0,-0 0,-0.01 -0,-0 -0,-0 -0,-0.01 -0,-0 0,-0 0,-0.01 -0,-0 -0,0 -0.01,0z"/>
   <path class="fil1" d="M0.23 0.25c0.01,-0 0.02,-0 0.02,0 0.01,0 0.01,0 0.02,-0l-0 -0c-0.01,0.01 -0.01,0 -0.02,-0 0,-0 0,-0 -0,0 -0,0 0,0 -0,0l-0 -0.01c-0.01,0 -0.01,0 -0.02,0l0 0.01z"/>
   <path class="fil26" d="M0.09 0.63l0 0.01c0.01,-0 0.02,-0 0.02,-0 0.02,-0 0.02,0 0.02,0l0 -0 -0 -0c-0.01,0 -0,-0 -0.01,0 -0,0 -0.02,0 -0.02,0 -0.01,-0 -0.01,-0 -0.01,-0l-0 -0 -0 0 -0.01 -0z"/>
   <path class="fil27" d="M0.16 0.3c-0,-0.01 -0,-0.02 -0,-0.03l-0.01 -0c0,0.01 0,0.03 0.01,0.03z"/>
   <path class="fil28" d="M0.15 0.25c-0,0 0,0 0,0 0,0 0.01,0 0.01,0 0.01,-0 0.02,-0 0.02,-0l0 -0.01c-0.01,-0 -0.01,0 -0.02,-0 -0,0 -0,0 -0,0.01 -0,0 -0,0 -0,0 -0,0.01 -0.01,0.01 -0.02,0z"/>
   <path class="fil29" d="M0.11 0.64l-0 -0 0 -0 0 -0.01c0,-0 0.01,-0 0.02,0 0.01,-0 0.02,-0 0.01,0.01 -0,0 -0,0 -0.01,-0 -0,0 -0.02,0 -0.02,0zm-0.01 0l0 0c0.01,-0 0.03,0 0.04,-0l0 -0.01c-0,-0.01 -0,-0.01 -0.01,-0.01 -0.01,0 -0.02,-0 -0.02,0.01z"/>
   <path class="fil30" d="M0.27 0.48l0 0.01c0.01,0 0,0 0.01,0 0.01,-0 0.01,-0 0.02,-0 0.01,-0 0.01,0 0.02,0l0 -0.01c-0.01,-0 -0,0 -0,-0 -0.01,0.01 -0.01,0.01 -0.02,0.01 -0.02,0 -0.02,-0 -0.02,-0z"/>
   <path class="fil16" d="M0.23 0.25l0 0.01c0.01,-0 0.01,-0 0.02,0.01l-0 -0.01 0.01 0 0 0.01c0.01,-0 0.01,-0 0.01,-0.01 -0,-0 -0,-0 -0,-0 -0.01,0.01 -0,0.01 -0.02,0 -0.01,-0 -0.02,-0 -0.02,-0z"/>
   <path class="fil31" d="M0.1 0.62l0 -0 0 -0 0.01 0c0,-0 0,-0 0.01,-0 0.02,-0 0.02,0 0.02,0.01l0 -0c-0,-0 0,-0 -0,-0.01 -0,-0.01 -0.01,-0 -0.03,-0.01 -0.01,-0 -0.02,-0 -0.02,0.01 0,-0 0,-0 0.01,-0z"/>
   <path class="fil32" d="M0.27 0.19c0,0 0.01,0.01 0.01,0.01 0,0 0,0 0.01,0l-0 -0 -0.02 -0.02c-0.01,-0 -0.03,-0.01 -0.03,-0 -0.01,0 -0,-0 -0.01,0 0.01,0 0.02,0 0.02,0 0.01,0 0.01,0 0.02,0.01z"/>
   <path class="fil33" d="M0.1 0.62l0.03 0c-0,0.01 -0.01,0.01 -0.02,0.01 -0.01,0 -0.01,0 -0.02,-0.01zm-0 -0l0 0.01 0 0 0.03 0 0 -0c0,-0.01 -0,-0.01 -0.01,-0.01 -0.01,-0 -0.01,-0 -0.02,0l-0.01 -0 -0 0z"/>
   <path class="fil31" d="M0.27 0.49l0 0.01c0.01,0 0.04,0 0.04,-0 -0,-0.01 -0.01,-0 -0.01,-0 -0.01,-0 -0.03,0 -0.03,-0l-0 -0.01c0.01,-0 0.02,-0 0.03,-0 -0.01,-0 -0.02,0 -0.02,-0 -0.01,0 -0,0 -0.01,-0z"/>
   <path class="fil34" d="M0.2 0.11l0 0 0.01 -0c-0,-0.02 -0,-0 -0,-0.01 -0,-0 -0,-0.01 0,-0.01l0 -0c-0,-0 0,-0 -0,-0 -0,-0 -0,0 -0,-0 -0,-0.01 0,-0 0,-0.01l-0 -0.01 -0.01 0c-0,0.01 0,0.01 0,0.01 0,0.01 -0,0 -0,0.01 -0,0.01 0,0 0,0.01 -0,0.01 -0,0 -0,0.01z"/>
   <path class="fil35" d="M0.09 0.63l-0 0c0,0 0,-0 0.01,0l0 -0c-0,0 -0,0.01 -0,0.01l0 -0c0,-0.01 0.01,-0.01 0.02,-0.01 0.01,-0 0.01,0 0.01,0.01l-0 0.01c0,0 0,0 0,0 0,-0 0,-0.01 0,-0.02l0 0 0 -0 -0 0c-0.01,-0 -0.01,-0 -0.02,-0 -0.01,0 -0.02,0 -0.02,0z"/>
   <path class="fil36" d="M0.2 0.03l0 0c-0,0.01 0,0 -0,0.01 0,0.01 0,0 0,0.01 -0,0.01 -0,0 -0,0.01 0,0 0,0 0.01,-0 0,-0.01 -0.01,-0.01 -0,-0.01 0,-0 0,0 0,-0.01 -0,-0.01 -0,-0 -0,-0.01 0,-0.01 0,0 0,-0.01 -0.01,0 -0.01,0 -0.01,0.01z"/>
   <path class="fil17" d="M0.16 0.6c0,-0 0,-0 0,-0.01 0,-0 0,-0.01 0,-0.01 0,-0.01 0.01,-0.01 0,-0.02 -0.01,0 -0.01,0.01 -0.01,0.02 -0,0.01 -0,0.02 -0,0.03z"/>
   <path class="fil37" d="M0.24 0.18l0 0c0,-0 0,-0 0.01,0 0.01,0 0.01,0 0.02,0 0.01,0 0.02,0.01 0.02,0.01 -0,-0 -0,-0 -0,-0 -0,-0 -0,-0 -0,-0 -0,-0 -0.02,-0.01 -0.02,-0.01 -0.01,-0 -0.02,-0.01 -0.03,-0l0 0z"/>
   <path class="fil38" d="M0.25 0.29c0,0 0,0 0.01,0 -0,-0.01 0,-0.02 0,-0.03l-0 -0 -0 0c-0,0.01 -0,0.02 0,0.03z"/>
   <path class="fil36" d="M0.25 0.32l0 -0.01c0,0 0.01,0 0.01,0l-0 0.01c0.01,-0.01 0.01,-0.01 0.01,-0.02 -0.01,-0 0.01,0 -0,-0 -0,-0 -0,0 -0,-0l-0 -0c0,-0 0,-0 0,-0l-0.01 -0c-0,0 -0,0 -0,0l-0 0 -0 0.01 0 0z"/>
   <path class="fil3" d="M0.11 0.61c0.01,-0 0.01,-0 0.02,-0 0.01,0 0.01,0 0.01,0.01l-0 0 -0.03 -0c0,0 -0,0 0.01,0 0,0 0.02,0 0.02,-0 0.01,-0 0,-0 0.01,-0l-0 -0.01 -0 0c-0,-0.01 0,-0.01 -0.02,-0.01 -0,0 -0.01,-0 -0.01,0z"/>
   <path class="fil39" d="M0.25 0.32c0,0 0.01,0 0.01,0l0 -0.01c-0,-0 -0.01,-0 -0.01,-0l0 0.01z"/>
   <path class="fil26" d="M0.32 0.48c-0,-0 -0,-0.01 -0,-0.01l-0.04 -0 0 0 0.04 -0c0.01,0 0,0 0.01,0.01z"/>
   <path class="fil40" d="M0.1 0.64l0 0c0.01,0 0.02,0 0.02,-0 -0,-0 -0,-0 -0.01,-0.01 -0,-0 -0.01,-0 -0.02,-0l-0 0.01z"/>
   <path class="fil41" d="M0.17 0.24c-0,-0 0,-0 -0,-0 -0,0 -0.01,0.01 -0.01,0l0 -0.01 0 -0 0.01 -0c-0,-0 -0.01,-0 -0.01,-0 -0.01,0.02 0.01,0.02 0.01,0.01z"/>
   <path class="fil19" d="M0.21 0.2c0,0 0.01,0 0.01,0l-0 0.01c0,0 0,0 0.01,0 0,-0 0,-0.01 0,-0.02 -0,0 -0.01,0 -0.01,0 -0,0 -0.01,-0 -0.01,0z"/>
   <path class="fil35" d="M0.23 0.3c-0,0.01 -0,0.01 -0,0.01 0.01,0 0.01,-0 0.01,0 -0,-0 -0,-0 -0,-0.01 -0,-0 0,-0 -0,-0.01 -0,0 -0,0 -0.01,0z"/>
   <path class="fil42" d="M0.17 0.23l0.01 0 0 0 0 0c0,-0.01 -0,-0 -0,-0.01 0,-0 0,-0 0,-0 -0,-0 0,-0 -0,-0 -0,0 -0,-0 -0,0 -0,0 -0.01,-0 -0.01,0 0,0 -0,0 0,0z"/>
   <path class="fil43" d="M0.26 0.24c0,-0 0,-0 0,0 -0.01,-0 -0,-0 -0,-0zm-0.01 0c-0,-0 -0,-0 0,-0.01 0,0.01 0,0 0.01,0.01l-0 0c0,0 -0,0 0,0l-0 -0.01c-0,-0 -0,-0 -0,-0.01l-0 -0 -0 0c-0.01,-0 -0.01,0 -0.01,-0.01l-0 0c0,0.01 -0,0 -0,0.01l0 0z"/>
   <path class="fil41" d="M0.12 0.2c0,0 0.01,0 0.01,-0l0.01 -0.01c0,-0 0,-0 0,-0l-0 -0 0 -0c-0,0 -0.02,0.01 -0.03,0.01z"/>
   <path class="fil44" d="M0.21 0.22l0.01 0 -0 -0 0 -0.01c-0,0 -0.01,0 -0.01,-0l0 0.01z"/>
   <path class="fil45" d="M0.2 0.25c0,0.01 0.01,0.01 0.02,0l0 -0 -0 -0.01c-0,0 -0,0.01 -0.01,0.01 -0.01,0 -0.01,-0 -0.01,-0l0 0z"/>
   <path class="fil20" d="M0.2 0.01c0.01,-0 0,-0 0.01,-0.01 0,0 0,-0 0,0.01l0.01 0 0 -0.01c-0,-0 -0,-0 -0,-0 -0,0 -0,0 -0,0l-0.01 -0c-0,0 -0,0 -0,0l0 0.01z"/>
   <path class="fil18" d="M0.25 0.29c-0,-0.01 -0,-0.02 -0,-0.03l0 -0 -0 -0c-0,0.01 -0,0.03 0,0.03z"/>
   <path class="fil32" d="M0.2 0.22l0.01 0 -0 -0.01 -0 -0c-0,0 -0,0 -0.01,-0l-0 0.01z"/>
   <polygon class="fil46" points="0.18,0.72 0.18,0.71 0.17,0.71 0.17,0.71 0.17,0.72 "/>
   <path class="fil35" d="M0.25 0.26c0.01,0 0.01,0 0.01,0l-0 -0.01 -0.01 -0 0 0.01z"/>
   <path class="fil29" d="M0.15 0.63l0 0 -0 0c0,-0 0,-0 0.01,-0l0.01 0 0 -0c-0,0 -0.01,0 -0.01,-0 0,-0 0,-0 0.01,-0l0 0 -0 -0 -0.01 0 -0.01 -0z"/>
   <path class="fil47" d="M0.16 0.24l0 0c-0,0 0,0 -0,0l-0 -0zm0 0l-0 0.01c0,0 0.01,0 0.01,-0 0,0 0,0 0,0l0 -0 -0 -0c-0,-0 0,-0 0,-0l0 0 0 -0 -0 -0 -0.01 0 -0 0z"/>
   <path class="fil48" d="M0.18 0.31l0.01 0c0,0 0,0 -0,0.01 -0,-0 -0.01,-0 -0.01,-0.01zm0 0c0,0 0,0 0.01,0 0,-0 0,-0.01 0,-0.01l-0.01 -0c-0,0.01 -0,0.01 0,0.01l0 -0z"/>
   <path class="fil11" d="M0.2 0.91c0,0 -0,-0 0,0 0,0 0,0 0,0 0.01,0 0,0 0.01,-0 -0,-0 -0,-0 -0,-0.01 -0,-0 -0,-0 -0.01,-0l0 0.01z"/>
   <path class="fil49" d="M0.21 0.92c0,0 0,0 0,0 0.01,-0 0,-0 0.01,-0.01 -0,-0 -0,-0 -0,-0.01 -0,0 -0,0 -0.01,0l-0 0.01z"/>
   <polygon class="fil30" points="0.08,0.22 0.08,0.22 0.08,0.22 0.09,0.22 0.08,0.21 0.08,0.21 "/>
   <path class="fil13" d="M0.2 0.18c-0,0 -0,0 -0,0.01l0.01 -0 -0 -0.01 -0 -0z"/>
   <path class="fil50" d="M0.24 0.23c0,0.01 -0,0 -0,0.01l0 -0 0.01 -0.01 -0 -0 -0 -0 -0.01 -0 0 0z"/>
   <path class="fil26" d="M0.33 0.22c0,0 0,0 0.01,0 -0,-0 -0,-0 -0,-0.01l-0.01 -0 -0 0.01z"/>
   <path class="fil4" d="M0.21 0.24l-0 0.01c0,0 0,0 0.01,0l0 -0c-0,-0 -0,-0 -0.01,-0 -0,0 -0,0 -0,0z"/>
   <path class="fil12" d="M0.15 0.26c0,0 0,0 0.01,0 0,-0 0,0 0,-0 -0,-0 -0,-0 -0.01,-0.01l0 0z"/>
   <path class="fil20" d="M0.21 0.02l0 -0 -0 -0 -0.01 0 -0 0.01c0,0 0,0 0.01,-0z"/>
   <path class="fil51" d="M0.19 0.73c0,-0 0,-0 0,-0.01 0,-0.01 0,-0 -0,-0.01 -0,0 -0,0 -0,0.01 0,0.01 -0,0.01 0,0.01z"/>
   <path class="fil52" d="M0.22 0.25c-0.01,0 -0.01,0 -0.02,-0 -0,-0 -0,-0 -0,-0.01 -0.01,0.01 0.01,0.02 0.02,0.01z"/>
   <polygon class="fil25" points="0.2,0.15 0.21,0.15 0.21,0.14 0.2,0.14 "/>
   <path class="fil53" d="M0.23 0.68l0 -0 0 0 -0 -0.01c0,-0 0,-0 -0,-0l-0 0c0,0.01 -0,0 -0,0.01l0 0z"/>
   <path class="fil54" d="M0.22 0.9l-0 0c-0,0 0,0 -0,0 0,0.01 0,0.01 0.01,0.01l-0 -0.01 -0 0z"/>
   <path class="fil15" d="M0.21 0.02l0.01 0c-0.01,-0.01 0,0 -0,-0.01l0 0.01c0,0 0,0 0,0 0,-0 0,-0 0,-0.01 -0,-0 -0,-0 -0.01,-0l-0 0.01z"/>
   <path class="fil1" d="M0.22 0.22l-0.01 -0c0,0.01 0,0.01 0.01,0.01l0 -0.01z"/>
   <path class="fil11" d="M0.2 0.88l0 -0 0 -0c-0,-0 -0,-0 -0.01,-0l-0 0.01 0 0z"/>
   <path class="fil55" d="M0.24 0.71c-0,0 -0.01,0.01 -0,0.02 0,-0 0,-0.01 0,-0.02z"/>
   <path class="fil56" d="M0.23 0.23c0,0.01 -0,0 0,0l0 -0 -0 -0c-0,-0 -0,-0 -0.01,-0 -0,0 -0,0 -0,0 0,0 -0,0 -0,0 0,0 -0,0 -0,0z"/>
   <path class="fil16" d="M0.34 0.22c-0,0 -0.01,0 -0.01,-0 -0,0 -0,0 -0,0.01l0.01 0 0 -0.01z"/>
   <path class="fil42" d="M0.24 0.24l-0 0c0,-0.01 0,-0 0,-0.01l-0 0c-0.01,-0 -0,0 -0,-0l0 0.01c0,0 0.01,0 0.01,-0z"/>
   <path class="fil8" d="M0.41 0.24c0,-0 0,-0.01 0,-0.01 -0,0 -0,0 -0,0 -0,0.01 0,0.01 0,0.01z"/>
   <path class="fil57" d="M0.33 0.2l0 0c0,0 0,0 0.01,0 0,0 -0,0 0,0l0 -0 -0 -0c-0.01,-0 -0,-0 -0.01,-0z"/>
   <path class="fil58" d="M0.01 0.24c0,-0 0,-0.01 -0,-0.01 -0,0 -0,0.01 0,0.01z"/>
   <path class="fil47" d="M0.21 0.86l0 -0.01c-0,0 -0,-0 -0,0 -0,0 0,0 0,0.01 -0.01,-0 0,-0 -0,-0.01 -0,0.01 0,0.01 0.01,0.01z"/>
   <path class="fil59" d="M0.25 0.24c0,0 0,0 0.01,0.01l0 -0c-0.01,-0 -0.01,0 -0.01,-0.01 -0,0 -0,0 -0,0.01z"/>
   <path class="fil60" d="M0.35 0.23c0,-0 0.01,-0.01 0,-0.01 -0,0 -0,0.01 -0,0.01 0,0 -0,0 0,0z"/>
   <path class="fil11" d="M0.2 0.16c0,0 0,0 -0,0 -0,-0 -0,-0 0,-0zm-0 0.01l0.01 0 -0 -0.01 -0.01 -0 -0 0.01z"/>
   <path class="fil20" d="M0.2 0.12c0,0 0,0 -0,0 -0,-0 -0,-0 0,-0zm-0 0.01c0,-0 0,0 0.01,-0l0 -0.01c-0.01,0 -0.01,0 -0.01,0.01z"/>
   <polygon class="fil50" points="0.18,0.24 0.18,0.23 0.17,0.23 0.18,0.24 "/>
   <path class="fil12" d="M0.1 0.62c0,0 0,0 0,0.01 -0,0 -0,0 -0.01,0l-0 0 0.01 0 0 -0 -0 -0.01 -0 0z"/>
   <polygon class="fil40" points="0.29,0.48 0.3,0.48 0.3,0.48 0.3,0.48 0.3,0.48 0.29,0.48 "/>
   <path class="fil17" d="M0.16 0.64c0,-0 0,-0 0,-0.01 -0,-0.01 -0,-0 -0,-0 -0,0.01 0,0.01 0,0.01z"/>
   <path class="fil61" d="M0.18 0.31c0,0 0,0.01 0.01,0.01 0,-0 0,-0 0,-0.01l-0.01 -0z"/>
   <path class="fil3" d="M0.2 0.22l0 -0c0,-0 0,0 0,0l0 -0 -0.01 -0 0 0.01z"/>
   <path class="fil41" d="M0.07 0.22c0,-0 0,-0 0,-0.01 -0,-0 -0,-0 -0,-0.01 -0,0 0,0.01 0,0.01z"/>
   <polygon class="fil14" points="0.08,0.22 0.08,0.23 0.09,0.23 0.09,0.22 0.08,0.22 "/>
   <path class="fil6" d="M0.08 0.22l-0 -0c-0,-0 0,-0 -0,-0 -0,0 -0,0.01 0,0.01l0 -0.01z"/>
   <path class="fil62" d="M0.19 0.23l0.01 0c-0,-0.01 -0,-0.01 -0.01,-0.01 -0,0 0,-0 0,0l-0 0z"/>
   <path class="fil63" d="M0.34 0.22c0,-0 0,-0 0,-0.01 -0,0 -0.01,0 -0,0.01z"/>
   <path class="fil56" d="M0.22 0.23l0.01 -0c-0,-0 0,-0 -0,-0 -0,-0 -0.01,-0.01 -0.01,0z"/>
   <path class="fil64" d="M0.24 0.2l0 0 0 -0 0 -0c-0,-0 -0,-0 -0,-0.01l-0 -0 0 0z"/>
   <path class="fil65" d="M0.27 0.23l-0.01 -0c0,0.01 0,0 0.01,0.01l0 -0z"/>
   <polygon class="fil34" points="0.25,0.23 0.25,0.23 0.25,0.22 0.24,0.22 "/>
   <path class="fil66" d="M0.2 0.13c0,0 0,0 -0,0 -0,-0 -0,-0 0,-0zm-0 0c-0,0 -0,0 0,0.01l0 -0 0 -0.01c-0,-0 -0,-0 -0.01,0z"/>
   <path class="fil67" d="M0.24 0.71c-0,0 -0,0.01 0,0.01 0,-0 0,-0.01 -0,-0.01z"/>
   <path class="fil19" d="M0.21 0.2c0,0 0.01,0.01 0.01,0 -0,-0 -0.01,-0 -0.01,-0z"/>
   <path class="fil52" d="M0.23 0.24c0,-0 0,-0 0,-0l-0.01 -0c0,0 0,0.01 0.01,0.01z"/>
   <path class="fil68" d="M0.2 0.87l0.01 0 0 -0.01 -0 0.01 -0 -0c-0,-0 0,0 -0,-0l-0 -0c-0,-0 -0,-0 -0,-0 -0,0 -0,0 -0,0.01z"/>
   <polygon class="fil41" points="0.23,0.75 0.23,0.74 0.23,0.74 0.23,0.74 "/>
   <path class="fil19" d="M0.15 0.63c0,0 0,0 0.01,0l0 -0 -0 0 -0.01 0z"/>
   <path class="fil55" d="M0.26 0.49l-0 -0.01c-0,-0 -0,-0 -0,0l-0 0.01 0 0z"/>
   <path class="fil53" d="M0.17 0.24l0 -0 -0 -0c-0,0 -0,0 -0,0l0 0z"/>
   <path class="fil53" d="M0.22 0.17c0.01,-0 0,-0 0,-0.01 -0,0 -0,0 0,0.01z"/>
   <path class="fil1" d="M0.22 0.74c0,-0 0,0 0,-0 0,-0.01 -0,-0 -0,-0 -0,0 -0,0 0,0.01z"/>
   <path class="fil69" d="M0.26 0.49c-0,-0 -0,-0 -0.01,0 0,0 0,0.01 0.01,-0z"/>
   <path class="fil50" d="M0.19 0.24c0,-0 0,-0 0.01,-0 -0,-0 -0,-0 -0.01,0z"/>
   <path class="fil1" d="M0.22 0.72c0,-0 0,-0 -0,-0.01 0,0 -0,0 0,0.01z"/>
   <path class="fil59" d="M0.27 0.24l0 -0 0 -0 -0 -0c-0,0 -0,0 0,0.01z"/>
   <path class="fil70" d="M0.22 0.79c0.01,-0 0.01,-0 0,-0l-0 0z"/>
   <path class="fil30" d="M0.25 0.72c0,-0 0,-0 -0,-0.01 -0,0 -0,0 0,0.01z"/>
   <path class="fil71" d="M0.22 0.77c0,-0 0,-0 0,-0 -0,0 -0,0 -0,0z"/>
   <path class="fil72" d="M0.2 0.14c0,-0 0,-0 0,-0 -0,0 -0,0 -0,0z"/>
   <path class="fil1" d="M0.2 0.17c0,-0 0,-0 0,-0 -0,0 -0,0 -0,0z"/>
   <path class="fil19" d="M0.16 0.24l0 0c0,-0 0,0 0,-0l-0 -0z"/>
   <path class="fil53" d="M0.22 0.07c0,0 -0,0 0,0 -0,-0 -0,-0 -0,-0 -0,-0 -0,-0 -0,0z"/>
   <path class="fil53" d="M0.2 0.12c0,-0 0,-0 0,-0 -0,0 -0,0 -0,0z"/>
   <polygon class="fil67" points="0.33,0.2 0.33,0.2 0.33,0.2 0.33,0.2 "/>
   <path class="fil19" d="M0.34 0.21c0,0 -0,0 0,0 -0,-0 -0,-0 -0,-0z"/>
   <path class="fil44" d="M0.26 0.24c0,0 -0,0 0,0 -0,-0 0,-0 -0,-0z"/>
   <polygon class="fil28" points="0.2,0.74 0.2,0.74 0.2,0.73 "/>
   <path class="fil73" d="M0.31 0.5c0,0 0,0 0,0 0,-0 -0,-0 -0,-0z"/>
  </g>
  <path class="fil74" d="M0.23 0.44c0,-0.01 0,-0.12 0,-0.14 0,-0.01 -0,-0.02 0,-0.03 0,-0.01 0,-0.02 -0,-0.03 0.01,0.02 -0.03,0.04 -0.03,0 -0.01,0.01 -0,0.02 -0,0.03 0,0.03 0,0.07 0,0.1 0,0.02 -0,0.05 0,0.07 0,0.01 0,0.02 0,0.03 0,0.02 -0,0.02 -0,0.03 0.01,-0.01 0.01,-0.01 0.02,0 -0,-0.01 0,-0.06 0,-0.07zm0.02 0.22c0,0.01 0.01,0.04 0.01,0.05 0,0 0,0.02 0,0.02 0,-0.01 -0,-0.01 0.01,-0.02 -0,-0 0,-0 -0,-0 -0,-0.01 -0,-0.02 -0,-0.03 -0,-0.01 -0,-0.03 -0,-0.03 -0,0 -0.01,0.01 -0.01,0.01zm-0.07 -0l-0.01 -0.01c-0,0.01 -0.01,0.06 -0.01,0.07 0,0.01 0,0.01 0,0.01 0,-0 0,-0.01 0,-0.02 0,-0.02 0.01,-0.04 0.01,-0.05zm0.05 -0.21c-0,0.01 -0,0.05 0,0.06 0,0.01 -0,0.01 0,0.02l0.01 0.04c0,0.01 0,0.02 0.01,0.03 0,0 0,0 0,0 0,-0.01 -0.01,-0.06 -0.01,-0.07 -0,-0.02 -0,-0.05 -0.01,-0.07zm-0.03 0.04c0,-0.01 0,-0.03 -0,-0.04 -0,0.01 -0.01,0.06 -0.01,0.08 -0,0.02 -0.01,0.06 -0.01,0.07 0.01,-0.01 0.01,-0.02 0.01,-0.03 0,-0.01 0,-0.01 0,-0.02 -0,-0.01 0,-0.01 0,-0.02l0 -0.04z"/>
 </g>
</svg>
