<?xml version="1.0" encoding="UTF-8"?>
<!DOCTYPE svg PUBLIC "-//W3C//DTD SVG 1.1//EN" "http://www.w3.org/Graphics/SVG/1.1/DTD/svg11.dtd">
<!-- Creator: CorelDRAW -->
<svg xmlns="http://www.w3.org/2000/svg" xml:space="preserve" width="0.8312mm" height="1.7001mm" version="1.1" style="shape-rendering:geometricPrecision; text-rendering:geometricPrecision; image-rendering:optimizeQuality; fill-rule:evenodd; clip-rule:evenodd"
viewBox="0 0 0.47 0.97"
 xmlns:xlink="http://www.w3.org/1999/xlink"
 xmlns:xodm="http://www.corel.com/coreldraw/odm/2003">
 <defs>
  <style type="text/css">
   <![CDATA[
    .fil14 {fill:#373435}
    .fil23 {fill:#060606}
    .fil19 {fill:#0F0F0F}
    .fil45 {fill:#262626}
    .fil29 {fill:#272727}
    .fil22 {fill:#292929}
    .fil13 {fill:#2A2A2A}
    .fil18 {fill:#2B2B2B}
    .fil7 {fill:#2E2E2D}
    .fil26 {fill:#363635}
    .fil44 {fill:#3A3A39}
    .fil28 {fill:#3D3D3D}
    .fil20 {fill:#3E3E3E}
    .fil17 {fill:#404040}
    .fil31 {fill:#424241}
    .fil30 {fill:#434343}
    .fil21 {fill:#474747}
    .fil46 {fill:#4E4E4E}
    .fil35 {fill:#515151}
    .fil36 {fill:#555556}
    .fil53 {fill:#585758}
    .fil39 {fill:#5A5A59}
    .fil37 {fill:#5C5B5B}
    .fil15 {fill:#60605F}
    .fil10 {fill:#686767}
    .fil5 {fill:#6A6A69}
    .fil11 {fill:#6C6C6C}
    .fil41 {fill:#6E6D6D}
    .fil51 {fill:#70706F}
    .fil34 {fill:#767576}
    .fil6 {fill:#7B7B7B}
    .fil16 {fill:#7E7E7E}
    .fil52 {fill:#848383}
    .fil49 {fill:#868686}
    .fil27 {fill:#888787}
    .fil24 {fill:#898989}
    .fil47 {fill:#8D8D8D}
    .fil55 {fill:#8F8F90}
    .fil40 {fill:#919191}
    .fil2 {fill:#939393}
    .fil48 {fill:#959595}
    .fil3 {fill:#989897}
    .fil8 {fill:#9C9C9B}
    .fil33 {fill:#A2A2A1}
    .fil1 {fill:#A6A6A5}
    .fil4 {fill:#A8A8A7}
    .fil54 {fill:#ACACAB}
    .fil9 {fill:#B2B2B2}
    .fil56 {fill:#B6B6B5}
    .fil50 {fill:#BCBCBC}
    .fil58 {fill:#BEBEBD}
    .fil25 {fill:#C2C2C2}
    .fil43 {fill:#C4C4C3}
    .fil0 {fill:#CC0000}
    .fil38 {fill:#CC0606}
    .fil12 {fill:#D0D0CF}
    .fil57 {fill:lightgrey}
    .fil32 {fill:#DADAD8}
    .fil42 {fill:#EFF0F0}
   ]]>
  </style>
 </defs>
 <g id="Camada_x0020_1">
  <metadata id="CorelCorpID_0Corel-Layer"/>
  <g id="_1769171447632">
   <g>
    <path class="fil0" d="M0.25 0.52l0 -0.2c-0,-0.02 -0,-0.04 0,-0.06l0 -0.01c-0,0.01 -0.01,0.02 -0.02,0.02 -0.01,0 -0.02,-0.01 -0.02,-0.02l0 0.01c0.01,0.04 0,0.09 0,0.13 -0,0.04 0,0.09 0,0.13 0,-0 0,-0 0,-0l0.01 -0 0 0z"/>
    <path class="fil0" d="M0.25 0.44c-0,0.01 -0,0.09 0,0.1 -0,0.01 0,0.01 0,0.02 -0,0.01 0,0.01 0,0.02 -0,0.01 0.01,0.03 0.01,0.03 0,-0.01 -0.01,-0.08 -0.01,-0.1 -0,-0.03 -0.01,-0.06 -0.01,-0.07z"/>
    <path class="fil0" d="M0.22 0.51c0,-0.01 0,-0.01 0,-0.03 -0,-0.02 -0,-0.03 0,-0.05 -0,0.01 -0.01,0.04 -0.01,0.05l-0 0.06 -0.01 0.07c0.01,-0.02 0.01,-0 0.01,-0.03 0,-0.01 0.01,-0.03 0,-0.03 0,-0.01 0,-0.02 0,-0.03 0,-0 0,-0.01 0,-0.01z"/>
    <path class="fil0" d="M0.25 0.69l-0.03 0c0,0 0,0.02 -0,0.02 0,0 0.01,0 0.01,0 0.01,0 0.02,0 0.02,0 -0,-0.01 -0,-0.02 -0,-0.02z"/>
    <path class="fil0" d="M0.25 0.72c-0.01,0 -0.02,0 -0.04,0l-0 0.13 0.01 0 0.02 0 0.01 0 -0 -0.13z"/>
    <path class="fil0" d="M0.21 0.72c-0,-0.01 0,-0.02 0,-0.03l-0.01 -0 -0 0.03 -0 0c0,-0 0,-0 0.01,-0z"/>
    <path class="fil0" d="M0.27 0.69c0,0.01 0,0.02 0,0.03l0 0 0 0c0,0 0,0 0.01,0l-0 -0.03c-0,0 -0,0 -0.01,0z"/>
    <path class="fil0" d="M0.28 0.7c0,0.01 -0,0.18 -0,0.2 -0,0.04 -0.02,0.03 -0.05,0.03 -0.01,0 -0.03,0 -0.03,-0.01 -0,-0.01 -0,-0.05 -0,-0.06 0.01,-0 0.08,-0 0.09,0l0 -0.01 -0.09 0c-0,-0.02 -0,-0.09 -0,-0.12l-0 -0.01c0,0 -0,-0 0,-0 -0,-0 -0,-0 0,-0 -0,0 -0,0 -0,0 0,-0.02 -0,-0.03 0.01,-0.04 -0,-0 0,0 -0,-0 -0,-0 -0.01,0 -0.01,0.01 -0,0.01 -0,0.05 -0,0.06 -0,0.05 0,0.1 0,0.15 -0,0.03 0.02,0.03 0.05,0.03 0.06,-0 0.05,-0.01 0.05,-0.11 0,-0.03 0,-0.05 0,-0.08 -0,-0.02 0,-0.06 -0.01,-0.07 -0,0 0,0.01 0.01,0.01z"/>
    <path class="fil0" d="M0.2 0.74c0,-0.01 0,-0.01 0,-0.02 0,-0 0,-0 0,-0 -0.01,0 -0.01,0 -0.01,-0 0,0 0,0 -0,0 0,0 0,0 0,0l0 -0 -0 0 0 0.02c0.01,-0 0.01,-0 0.01,-0.01z"/>
    <path class="fil0" d="M0.27 0.72l0 0.02c0,0 0,0 0,0 0,0 0,0 0,0l-0 -0.02c-0,0 -0,0 -0.01,0z"/>
    <path class="fil0" d="M0.25 0.95c-0,-0 -0.01,-0 -0.02,-0 -0.01,0 -0.01,0 -0.02,0 0.01,0.02 0.03,0.02 0.03,0z"/>
    <path class="fil0" d="M0.23 0.94c0,0 0.02,0 0.03,-0 -0.01,-0.01 -0.03,-0 -0.03,-0 0,0 0,0 0,0z"/>
    <path class="fil0" d="M0.24 0.92c0.01,0 0,0 0.01,0 0,0 0.01,-0 0.01,-0l0 -0.06 -0.01 0 -0.02 0 -0.01 0 -0 0.06c0.02,0 0.01,-0 0.02,-0z"/>
   </g>
   <g>
    <path class="fil1" d="M0.22 0.23c-0.01,0 -0,0 -0.01,0 -0,0 -0,-0 -0,-0 0,0 0.01,0.01 0.01,-0z"/>
    <path class="fil1" d="M0.29 0.53c0,0 0,0 0.01,0 -0,-0 -0,-0 -0.01,-0z"/>
    <path class="fil2" d="M0.3 0.52c0.01,-0 0.03,-0 0.04,-0 -0,-0.01 -0,-0 -0.02,-0 -0.01,-0 -0.02,-0 -0.02,0.01z"/>
    <path class="fil2" d="M0.24 0.25c-0,-0 -0,-0.01 -0,-0.01l0.01 -0c0,0.01 0,0.01 -0,0.01 0.01,-0 0.01,-0 0.01,-0.01 0,-0 0,-0 0,-0 -0,-0 -0,-0 -0,-0 -0,0 -0,0 -0,0 -0,-0 -0,-0 -0.01,0l0 0.01 0 0z"/>
    <path class="fil2" d="M0.26 0.77c0,-0 0,0 0,-0 0,-0.01 -0,-0 -0,-0.01l-0 0.01c0,0 0,0 0,0.01z"/>
    <path class="fil3" d="M0.13 0.58c0.01,-0 0.03,-0 0.04,-0 -0,-0.01 -0,-0.01 -0.02,-0.01 -0.02,-0 -0.02,-0 -0.02,0.01z"/>
    <path class="fil3" d="M0.14 0.59c-0,0 0,-0 -0,0 0,0 -0.01,0 0.01,0 0.02,0 0.01,0 0.01,-0l-0.02 -0c-0,-0 -0,-0 -0,-0z"/>
    <path class="fil3" d="M0.17 0.59l0 -0c-0,0 -0,-0 -0.01,0 -0,0 -0,0 -0,0 0,0 0,0 0.01,0z"/>
    <path class="fil4" d="M0.25 0.23c-0,0 -0,-0 -0.01,0 -0.01,0 0,0 -0.01,0 -0.01,0 -0,-0 -0.01,-0 -0,-0 -0,-0 -0,-0 -0,-0 -0,-0 -0,-0l0 -0 -0 -0.01 0.02 0 -0 -0.01c-0,-0 -0,0 -0,-0 -0,0 -0,0 -0.01,0 -0,-0 0,0 -0,-0 -0,-0 -0,-0 -0.01,-0 -0,0.01 -0,0.02 0,0.02 0,0 -0,-0 0.01,0 0.01,0 0,-0 0.02,0l0 -0z"/>
    <path class="fil4" d="M0.21 0.77l0 -0.01c-0,0 -0,0 -0,0 -0,0 -0,0 -0,0 0,0 0,0 0.01,0z"/>
    <path class="fil5" d="M0.05 0.21c-0.01,-0.01 -0,-0 -0.03,0.01 -0,0 -0.01,0 -0.01,0.01 -0.01,0 -0.01,0 -0.01,0.01 0,0 0.02,-0 0.02,-0 -0,0 -0.01,0 -0.01,0 0,0 -0,0.01 0.01,-0 0,-0 0,-0 0,-0 0,-0 0,-0 0,-0 0,-0 0.01,-0 0.02,-0.01 0,-0 0,-0 0,-0 0,-0 -0,-0 0,-0 0.01,-0 0,0 0.01,-0 0,-0 -0,0 -0,-0 0.01,-0 0.01,-0 0.01,-0 -0,-0 -0,-0.01 -0.01,-0 -0,0 -0,0 -0,0.01z"/>
    <path class="fil5" d="M0.39 0.19c-0,-0 -0.01,-0.01 -0.02,-0.01 0,0 0,-0 0.01,0.01 0,0 0,0 0,0 0,-0 0,0 0,-0z"/>
    <path class="fil6" d="M0.3 0.53c0,0 0.01,-0 0.01,-0 0,-0 0.03,-0 0.03,0l0 0c0,-0 0,-0.01 0,-0.01 -0,-0 0,0 -0,-0l-0 -0c-0.01,0 -0,0 -0.01,0l-0.03 -0c-0.01,-0 -0,-0 -0.01,-0l-0 0.01z"/>
    <path class="fil6" d="M0.3 0.54c0,0 0,0 0.01,0l0.02 0c0.01,0 0.01,0 0.01,-0.01 -0,0 -0.01,0 -0.02,0 -0,0 -0.01,0 -0.01,0 -0.01,-0 -0.01,-0 -0.01,0z"/>
    <path class="fil6" d="M0.26 0.7l-0 -0c-0,-0 -0,-0 -0,-0 -0,-0 -0,-0 -0,-0 0,0 0,0 0,0.01z"/>
    <path class="fil7" d="M0.27 0.24c-0,-0.01 -0,-0 -0,-0.01 0,-0 0,-0 0,-0 0,0 0,0 -0,0.01 -0,0 -0,0 -0.01,0l-0 -0c0,-0 -0,-0 0.01,0zm0.01 0.01c-0,0 -0,0 -0,0 -0,0 -0,0 -0,0l-0 0c-0.01,0 -0,0.01 -0.01,0.01 0,0 0,0.01 0,0.01l0 -0c0,-0 0,-0 0,-0 0,-0 0,-0 0,-0l0 -0c0,0 0,0 0,-0 0,-0 -0,0 0,-0 0,-0 0,-0 0,-0 0.01,-0.01 0.01,-0.01 0.01,-0.02l-0.02 -0c0,0 0,0 -0,0.01 -0,0 -0,0 -0,0.01 0,0.01 0.01,0 0.01,0z"/>
    <path class="fil7" d="M0.19 0.23c-0,0.01 0,0.01 0,0.02l0.01 0c-0,-0 0,-0 -0.01,-0 0,-0 0,-0 0,-0 0,-0 0,-0 0,-0l0 -0.01c-0,0 -0,0 -0,0l-0 -0.01c-0,-0.01 -0,0 -0,-0 -0,-0 0,-0.01 0,-0.01 -0,-0 0,-0 -0,-0l-0 0c-0,0 -0,0 -0,0z"/>
    <path class="fil8" d="M0.18 0.59c0,0 0,0 0.01,0l-0.01 -0z"/>
    <path class="fil9" d="M0.24 0.25l0 -0c0,-0 0,-0.01 0,-0.01l-0.01 0c-0,0.01 0,0.01 0,0.01z"/>
    <path class="fil10" d="M0.21 0.15c0,0 0,0 -0,0 -0,0.01 -0,0.03 -0,0.04 0,0 -0,0 -0,0 -0,0 0,0 -0,0 -0.01,-0 -0.01,-0 -0.02,-0 -0.01,-0 -0.01,-0 -0.02,-0 -0.01,-0 -0.03,-0 -0.04,-0l-0 0c-0.01,0 -0,-0 -0.02,-0 -0.02,-0 -0.02,0 -0.02,0.01 0.01,-0 0.01,-0 0.01,-0 0,-0 0.01,-0 0.01,-0 0,0 0,-0 0,0l0.01 -0c0,-0 -0,-0 0,-0 0,-0 0,0 0.01,0 0,0 0,0 0,0 0,0 0,0 0,0 0,-0 -0,-0 0.01,-0 0.01,0 0.05,0 0.06,0.01 0,0 0,0.01 -0,0.01 0,0 0,0 0.01,0 -0,-0 -0,0 0,-0 0,0 0,-0 0,-0 0,-0 0,-0 0,-0 0,-0 0,0 0,-0 -0,-0 -0,-0 -0.01,-0 0,0 -0,-0.01 -0,-0.01 0,-0 0,-0.01 0,-0.01 0,-0.01 -0,-0.02 0,-0.03l-0 0 -0 0z"/>
    <path class="fil11" d="M0.26 0.2c0,-0 0,0 0,0 0,0 -0,0 -0,-0zm-0 -0.03l0 0.02c-0,0 -0,0 -0,0l-0 0c0,0 0,0 0,0 0,0 0,0 0,0l0.01 0c-0,-0 -0,-0 -0,-0l-0 -0.01c0,-0 -0,-0 0,-0 0.01,-0 0.02,-0.01 0.03,-0.01 0.01,-0 0.03,-0 0.03,-0 0.01,0 0,-0 0,0 0,-0 0,-0 0,-0l0 -0c0.02,-0 0.03,0.01 0.03,-0 -0.01,-0.01 -0.02,0.01 -0.02,0 -0.02,0 -0.03,-0 -0.04,0 -0.01,0 -0.01,0 -0.02,0 -0,0 -0.01,0 -0.02,0l-0 0c0,-0.01 -0,-0.02 -0,-0.03 -0,-0.01 0,-0.02 -0.01,-0.03l-0 0c-0,0.01 0,0 0,0.01 0,0 0,0.01 0,0.01 0,0.01 0,0.01 -0,0.01z"/>
    <path class="fil11" d="M0.41 0.2l0 -0.01 -0.01 -0 0 0.01c0,0 -0,0 0,0z"/>
    <path class="fil12" d="M0.08 0.21c0.02,-0.01 0.04,-0.03 0.07,-0.01 0.03,0.02 0.03,0.02 0.08,0.02l0 -0.01c-0.01,-0 -0.04,0 -0.05,-0 -0.01,-0 -0,0 -0,-0 -0,-0 -0.01,-0 -0.01,-0.01 -0,-0 -0.01,-0.01 -0.01,-0.01 -0.01,-0 -0.01,-0.01 -0.03,-0.01l-0.01 0c-0.01,-0 -0.02,0 -0.02,0.01l-0.02 0.01c0,0 0,0 0,0.01z"/>
    <path class="fil13" d="M0.23 0.2l-0 -0.02 0 -0.09 -0 -0.03 0 -0.06c-0.01,0.01 -0.01,0 -0.01,0.02 -0,0.01 -0,0.02 -0,0.03 0,0.02 0,0.04 0,0.06 -0,0.02 0,0.04 0,0.05l0 0.05c0,0.01 -0,0 0,0.01 0.01,-0 -0,0 0,-0.01 0,-0 0,0 0,-0z"/>
    <path class="fil13" d="M0.46 0.24l-0.05 -0.02c-0,-0 -0,-0 -0,-0l-0 -0c0,-0.01 0,-0.01 0.01,-0 0.01,0 0.03,0.02 0.04,0.02l0 -0c-0,-0 -0.01,-0 -0.01,-0.01l-0.04 -0.02c-0,-0 0,-0 -0,-0 -0,0 -0,0.01 -0.01,0.02l0.03 0.02c0.01,0 0.02,0.01 0.02,0.01 0,-0 -0,-0 0,-0.01z"/>
    <path class="fil14" d="M0.28 0.78c-0,-0 -0,-0 -0,-0 -0,-0.01 -0,-0 -0,-0.01l-0 0c0,0.02 -0.01,0.06 -0.01,0.06 0.01,-0 0.01,-0.03 0.01,-0.04 0,-0.01 0,-0 0,-0.01l0 -0.01z"/>
    <path class="fil15" d="M0.21 0.77c-0.01,-0 -0.01,0 -0.01,-0 0,-0 -0,-0 0,-0 0,-0 0,-0 0,-0l-0 -0c-0.01,0 -0.01,0 -0.01,-0l-0 0.01 0.01 0c0,-0 0,-0 0,-0z"/>
    <path class="fil16" d="M0.28 0.53l0.01 0 -0 -0c-0.01,0 -0,-0 -0.01,0z"/>
    <path class="fil17" d="M0.2 0.63c-0.01,0.01 -0.01,0.02 -0.01,0.03 0,0.01 0.01,0.02 0.02,0.02 0,-0 0,-0 0,-0.01 -0,-0 -0,-0 -0,-0 0,-0 0,0 0,-0 0,-0 0,-0 -0,-0 0,0 0,0 0,0l0 0c0,-0 0,0 0,-0 0,-0 0,-0 0,-0 0,-0.01 -0,-0 -0,-0 0,0 -0,0 0,0 0,0 0.01,0 0,0 -0,0 -0.01,0 0,0.01 0,-0.01 0,-0.01 0,-0.01 -0,0 0,-0 -0,0 -0,0 -0,0 -0,0.01 0,-0 0,-0 0,-0l0.01 -0c0,0 0,-0 0,-0l0 -0c0,-0 0,-0 0,-0.01 0,-0.01 -0,-0 -0,-0 0,0 -0,0.01 0.01,0 0,-0 0,-0 0,-0 0,-0 0,0 0,-0 0,-0 0,-0 -0,-0l-0 0c0,-0 0,0 0,-0 0,-0.01 -0,-0 -0,-0.01 0,-0.01 0,0 0,-0.01l-0 -0c0,-0 0,-0 0,-0 0,-0.01 -0,-0.02 -0,-0.02l-0.01 -0c-0,-0 -0,-0 -0,-0l0 0.01c0,0 -0,-0.01 -0,-0.01 -0.01,0 -0,-0 -0,0 -0,0 0,0 0,0 -0,-0 0,-0 -0,-0l-0 0c-0,0.01 0,0 0,0 -0,-0 0,-0 -0,-0 -0.01,0 0,0 -0,0 -0,0 -0,-0 -0,-0 -0,-0 -0,-0 -0,-0 -0.01,-0 0,-0 -0.01,-0 0,0 0,0 0,0.01 0,-0 0.01,-0 -0,-0 -0,0 -0,0 -0,0 0,-0 0.01,0 0,-0 -0,-0 -0,-0 -0,-0l-0 -0c-0,-0 -0,-0 -0,-0 -0,-0 -0,-0 -0,-0l-0 -0c-0,0 -0,0 -0,-0 -0,0 -0,0 -0,0z"/>
    <path class="fil17" d="M0.01 0.24c0,0 0,0 0,0.01l0.02 -0.01c0.01,-0 0.02,-0.01 0.02,-0.01l-0 -0.01c-0.01,0.01 -0.04,0.02 -0.05,0.03z"/>
    <path class="fil18" d="M0.2 0.63c0,-0 0.01,-0.01 0.01,-0.01 0.02,-0.03 0.01,-0.07 0.02,-0.08 0,-0.01 0.01,-0 0.02,0 0.01,0.01 -0,0.05 0.02,0.08 0.01,0.01 0.02,0.02 0.02,0.03 -0,0.02 -0.01,0.02 -0.02,0.03 -0.01,0 -0.04,0 -0.04,-0 -0.01,-0 -0.02,-0.01 -0.02,-0.02 -0,-0.01 0,-0.02 0.01,-0.03zm0.03 -0.1c-0.01,0 -0.01,0.01 -0.01,0.02 0,0.02 -0,0.04 -0.01,0.06 -0.01,0.01 -0,0 -0.01,0.01l-0 0c-0,0 -0,0 -0,0 -0.01,0.01 -0.02,0.04 -0,0.05l0 0c0,0 0,0 0,0 0.02,0.01 0.02,0.01 0.04,0.01 0.01,-0 0.02,-0 0.03,-0.01l0.01 -0.01c0.01,-0.01 0.01,-0.03 0,-0.04 -0,-0 -0,-0.01 -0.01,-0.01 -0,-0 -0,-0 -0,-0 -0,-0 -0,-0 -0,-0.01 -0,-0 -0,-0 -0.01,-0.01 -0.02,-0.02 -0.01,-0.05 -0.01,-0.07 -0,-0 -0,-0 -0,-0.01 -0,-0 -0,-0 -0,-0 -0,-0 -0,-0 -0,-0 -0,-0 -0.01,-0 -0.01,-0z"/>
    <path class="fil19" d="M0.22 0.95c0.01,0 0.01,-0 0.02,-0 0,-0 0.01,0 0.02,0 -0.01,0.02 -0.03,0.01 -0.03,-0zm-0.02 -0.23c0,0 0,0 0.01,0 -0,0 -0,0 -0,0 -0,0.01 -0,0.01 -0,0.02 -0,0.01 0,0.01 -0.01,0.01l-0 -0.02 0 -0 -0 0c0,-0 0,-0 0,-0 0,-0 0,-0 0,-0zm0.01 0l0 0c0,0 0.01,0 0.01,0 -0,0 -0,0 -0,0 0,0.01 -0,0.01 -0,0.02l-0 0c0,0 0,0.01 -0,0.01 -0.01,0 -0,-0.01 -0,-0.01 0,-0.01 0,-0.01 0,-0.02zm0.01 -0c0.01,-0 0.02,-0 0.04,-0l0 0.13 -0.01 -0 -0.02 -0 -0.01 0 0 -0.13zm0.05 -0c0,-0 0,-0 0.01,-0l0 0.02c-0,-0 -0,0 -0,-0 -0,-0 -0,-0 -0,-0l-0 -0.02zm0.01 -0.01c-0,0 -0,0 -0.01,0l-0 0 -0 -0c0,-0.01 -0,-0.02 -0,-0.03 0,-0 0,-0 0.01,-0l0 0.03zm-0.01 0l-0.01 0c-0,-0 -0,-0.01 -0,-0.01 0,-0 0,-0.01 0,-0.01l0 0 0 0.01 0 0c0,0.01 0,0.01 0,0.02zm-0.01 0c-0.01,0 -0.02,0 -0.02,0 -0.01,-0 -0.01,-0 -0.01,-0 0,-0.01 0,-0.02 0,-0.02l0.03 -0c-0,0.01 -0,0.02 0,0.02zm-0.04 -0c-0,-0 -0.01,-0 -0.01,-0l0 -0.02c0,-0 0,-0 0,-0 0,0 0,0.02 0,0.03zm-0.01 0c-0,0 -0.01,0 -0.01,0l0 -0 0 -0.03 0.01 0c-0,0.01 -0,0.02 -0,0.03zm-0.01 0l-0 0c-0,0 -0,0 -0,0 0,-0.01 0,-0.01 0,-0.02 -0,-0.01 -0,-0.01 0,-0.01 0,0.01 -0,0.02 -0,0.03zm-0.01 0.01c-0,-0 -0,-0 0,-0 -0,0 -0,0 -0,0 0,-0.02 -0,-0.03 0.01,-0.04 -0,-0 0,0 -0,-0 -0,-0 -0.01,0 -0.01,0.01 -0,0.01 -0,0.05 -0,0.06 -0,0.05 0,0.1 0,0.15 -0,0.03 0.02,0.03 0.05,0.03 0.06,-0 0.05,-0.01 0.05,-0.11 0,-0.03 0,-0.05 0,-0.08 -0,-0.02 0,-0.06 -0.01,-0.07 -0,0 0,0.01 0.01,0.01 0,0.01 -0,0.18 -0,0.2 -0,0.04 -0.02,0.03 -0.05,0.03 -0.01,0 -0.03,0 -0.03,-0.01 0.01,0 0.01,0 0.01,0.01 0,0 0.05,0 0.06,-0l0.01 -0.01c0,-0 0,-0 0,-0 0,-0 0,-0.01 0,-0.02l0 -0.04c0,-0 0,-0 0,-0l0 -0 0 -0.01 -0.09 0c-0,-0.02 -0,-0.09 -0,-0.12l-0 -0.01c0,0 -0,-0 0,-0zm0.05 0.24l-0 0c-0.02,-0 -0.01,-0.02 -0.02,-0.02 0,-0.01 0,-0.01 0,-0.01 -0.01,0 -0.02,-0.01 -0.03,-0.01 -0.01,-0.01 -0.01,-0.02 -0.01,-0.03 -0,-0.04 0,-0.12 -0,-0.15 -0,-0.01 -0,-0.04 0,-0.05 0,-0.01 0,-0.01 0.01,-0.01 -0,-0.01 -0.01,-0.01 -0.01,-0.03 0,-0.02 0.01,-0.03 0.02,-0.04 0,-0 0,-0.01 0,-0.02 0,-0 0,-0.01 0,-0.01 0,-0.01 0,-0.01 -0,-0.01 -0.01,0.03 -0,0.03 -0.01,0.03 -0,-0.01 -0,-0 -0.01,-0 0,0.02 -0.01,0.01 -0.03,0.01 -0.01,0 -0.01,0 -0.02,-0 -0,-0 -0,-0.01 -0,-0.02 0,-0 0,-0.01 0.01,-0.02 0,-0 0.04,-0 0.04,0 0.01,0.01 -0,0.01 0.01,0.01 0.01,-0 0.01,-0.01 0.01,-0.02 0,-0.01 0,-0.02 0.01,-0.02 0,-0 0,-0.01 0,-0.02l0 -0.04c0,-0.02 0,-0.03 0.01,-0.06 0.01,-0.02 0,-0.02 0,-0.05 0,-0.01 0,-0.01 -0,-0.01 -0.01,-0.01 -0,-0.02 -0,-0.03 0,-0.01 0,-0.02 0,-0.03 0,-0 0,0 0,-0l0 -0c-0,-0.01 -0,-0.01 -0,-0.02 0,-0 0,-0 0,-0.01 0,-0.01 -0,-0.01 -0,-0.01l-0 0 0 0 -0 0c-0,-0.01 0,-0 -0,-0.01 -0.01,0 -0,0 -0,0.01 0,0 0,0 0,0 -0.01,-0.01 -0.01,0 -0.01,-0 -0,-0 -0,-0.01 -0,-0.01 0,-0.01 0,-0.01 -0,-0.01 -0,-0.01 0,-0.01 0,-0.01 -0.03,0 -0.03,-0.01 -0.05,-0.02 -0.03,-0.02 -0.03,-0.01 -0.06,0 -0.01,0.01 0,0.01 -0.02,0.01l-0.04 0.02c-0,0 -0.01,0.01 -0.01,0.01 -0,-0 -0.01,-0.01 -0.01,-0.02 -0,-0.01 0.01,-0.01 0.01,-0.01 0,-0 0,-0 0,-0 -0.01,0 -0,0 -0.01,0 0,-0.01 -0,-0.01 0,-0.01 0.01,-0 0.03,-0.01 0.04,-0.02 0.01,-0 0,-0.01 0.01,-0.01 0.01,-0 0,-0 0.01,-0l0.02 -0.01c0.01,-0 0,-0 0.01,-0 0.01,-0 0.02,-0.01 0.04,0l-0 0c-0.01,0 -0,-0 -0.02,-0 -0.02,-0 -0.02,0 -0.02,0.01 0.01,-0 0.01,-0 0.01,-0 0,-0 0.01,-0 0.01,-0 0,0 0,-0 0,0 -0.01,-0 -0.02,0 -0.02,0.01l-0.02 0.01c0,0 0,0 0,0.01l0 0c0.03,-0.01 0.03,-0.04 0.07,0 0.01,0.01 0.01,0.01 0.02,0.01 0.01,0 0.04,0 0.05,0 0,-0.01 0,-0.01 -0,-0.01 -0.02,-0 -0.03,0 -0.05,-0 -0,-0 -0.01,-0 -0.01,-0.01 -0,-0 -0.01,-0.01 -0.01,-0.01 -0.01,-0 -0.01,-0.01 -0.03,-0.01 0,-0 -0,-0 0,-0 0,-0 0,0 0.01,0 0,0 0,0 0,0 0,0 0,0 0,0 0,0 -0,-0 0,0 0.02,0.01 0.02,0.03 0.05,0.03 0,-0.01 0.01,-0 0.01,-0.02 0,0 0,0.01 -0,0.01 0,0 0,0 0.01,0l0 0 0 -0.01c0,-0 0,0 0,-0l-0 -0.05c-0,0 -0,-0 -0,0 -0,0.01 0,0.03 -0,0.05 0,0 -0,-0.01 -0,-0.01 0,-0 0,-0.01 0,-0.01 0,-0.01 -0,-0.02 0,-0.03 -0,-0 -0,-0 -0,0l-0 0 -0 0c-0,0.01 -0,0.03 -0,0.04l-0 0c-0,0 0,0 -0,0 0,-0.01 0,-0.02 0,-0.03 -0,-0.03 0.01,-0.02 0.03,-0.02 0.02,0 0.03,-0 0.03,0.02l0 0.03 -0 0c0,-0.01 -0,-0.02 -0,-0.03 -0,-0.01 0,-0.02 -0.01,-0.03l-0 0c-0,0.01 0,0 0,0.01 0,0 0,0.01 0,0.01 0,0.01 0,0.01 -0,0.01 0,-0.01 0,-0.02 -0,-0.03 -0,-0 -0,-0 -0,-0.01l-0 0.05 -0 0 0 0.01 0 0 0.01 0c-0,-0 -0,-0 -0,-0l-0 -0.01c0,-0 -0,-0 0,-0 0,0.02 0.01,0.01 0.01,0.02 0.03,0 0.03,-0.01 0.05,-0.03 0,-0 0,-0 0,-0l0 -0c0,-0 0,-0 0,-0l0 -0c0.02,-0 0.03,0.01 0.03,-0 -0.01,-0.01 -0.02,0.01 -0.02,0 0,-0 0.02,-0 0.03,-0 0.01,0 0,0 0.02,0.01 0.01,0 0.01,0 0.01,0.01 0.01,0 0.01,-0 0.01,0 0,0.01 -0,0 0.01,0.01l0.01 0.01c-0,-0 -0.01,-0 -0.01,-0 -0,-0 -0,-0 -0,0 -0,-0 -0,0 -0,-0 -0,-0 -0,0 -0,-0 -0,-0 -0,-0.01 -0.01,-0 0,0.01 -0,0 0.01,0.01 0,0 0,0 0,0 0,0 -0.01,0 0.01,0 0,0 0,0 0,0 0.01,0 0.03,0.02 0.04,0.01 -0,-0 -0,-0 -0.01,-0l-0.02 -0.01c0.01,0 0.02,0.01 0.02,0.01 0,0 0.01,0 0.01,0.01 -0,0.01 -0.01,0 -0.01,0 0.01,0.01 0.02,-0 0,0.03 -0.01,0 -0.01,-0 -0.03,-0.01 -0.01,-0 -0.01,-0.01 -0.02,-0.01 -0.02,-0.01 -0.01,-0 -0.02,-0 -0.01,-0 -0.02,-0.02 -0.02,-0.02 0,0 0,0 0,0 0,0 0,0 0,0l0.01 0c0,-0 -0,-0 0,-0l-0.01 -0c-0,-0 -0,-0 -0,-0 -0,-0 -0,-0.01 -0.01,-0 -0.02,-0.01 -0.03,0 -0.04,0.01 -0.02,0.01 -0.02,0.02 -0.04,0.02 0,0.01 -0,0.02 -0,0.02 0,0 0.01,0.02 -0.01,0.02 -0,0 -0,0 -0,0.01 -0,0.01 -0,0.02 -0.01,0.03 0,-0.01 0,-0.01 0,-0.02 0,-0.01 0,-0.01 0,-0.02 -0,-0 -0,-0 -0,0l-0 -0 -0 -0 -0 0 0 0.01 0 0 -0 0.01 -0 0c-0,0.02 0.01,0.05 -0,0.06 -0,0.01 -0,0 -0,0.01 -0,0.01 -0,0.04 0,0.05 0.01,0.02 0.01,0.08 0.01,0.11 0,0.01 0,0.01 0,0.01l0 0c0,-0.01 0,-0.01 0,-0.02 0,-0.01 0,-0.01 0,-0.02l0.01 0c0,0 -0,0 0,0 0,0 0,0 0,0 0.01,-0.01 -0,-0.01 0.03,-0.01 0.01,-0 0.02,-0 0.02,0.01 0,0 0,0 0,0 0,0.01 0,0.01 0,0.02 -0,0.01 -0,0.01 -0.01,0.01 -0,0 -0.04,0 -0.04,-0 -0.01,-0.01 0,-0.01 -0.01,-0.01 -0.01,0.02 0,0.04 -0.02,0.04l0 0.04c0,0.01 -0,0 0,0.01 0,0 0,0.01 0.01,0.01 0.01,0.02 0.01,0.04 -0,0.05 0.01,0.01 0.01,0.01 0.01,0.03l-0 0.08c0,0.01 -0,0.02 -0,0.04 0,0.03 0,0.05 0,0.08 0,0.02 -0,0.04 -0.03,0.04 0,0.01 0,0 0,0.01 -0.01,0 -0,-0 -0.01,0 -0,0 -0,0 -0,0.01 -0,0 -0.01,0.01 -0.01,0.01zm-0.02 -0.02l0.04 -0 0 0.01c-0.01,0 -0.04,0 -0.05,-0l0 -0zm0.01 -0c0.01,-0 0.03,-0.01 0.03,0 -0,0 -0.03,0 -0.03,0 -0,-0 -0,0 -0,-0zm-0.03 -0.09l0 -0.07c0,-0 0,-0 0,-0.01l0 0 0 0.01c0,0 0,0 0,0 0,0.01 0,0.01 0,0.01 0,0 0,0.01 0,0.01l0.01 0.04c-0.01,0 -0.02,0 -0.02,-0zm0.08 -0.07l0 -0 0 0.07 -0.02 0c0,-0.01 0,-0.02 0,-0.02l-0 -0.05c0,-0 0,-0.01 0,-0.01l0 -0c0,-0 -0,0 0,-0 0,-0 0,-0 0,-0l0 0 0 -0c0,0.01 -0,0 0,0.01 0,0 0,0 0,0zm0 -0.01c-0,-0 0,-0 0,-0 0,0 0,0 -0,0zm-0.07 -0l0 0c0,0.02 0.01,0 0.01,0.02l-0 0.07c0,-0.02 -0.01,-0.07 -0.01,-0.08zm0.06 0c-0,-0 -0,0 -0,-0.01 -0,-0 0,-0.01 0,-0.01 0,0 0,0 0,0.01 -0,0 -0,0.01 -0,0.01zm-0.05 -0.02c0,0 0,0.01 0,0.01 -0,0.01 0,0.01 -0,0.01l0 -0.02zm0.07 0.01l-0 0.01 -0.01 0 -0 -0.01 0.01 -0zm-0.02 0.01l0 -0.01c0,0 0,0 0,0.01 -0,0.01 -0,0 -0,0 -0,-0 -0,-0 -0,-0.01zm-0.05 -0l-0 0.01c-0,0 -0,0 -0,0l-0.01 -0 0 -0.01c0,0 0,0 0.01,0l0 0zm-0.01 -0l0 0c0,0 0,0 0,0 0,0.01 -0,0.01 -0,0.01 -0,-0 -0,-0.01 0,-0.01zm0.08 -0c0,0 -0,0 -0,0 -0,-0 -0,0 -0,-0 0,0 0,-0 0,0zm-0.02 -0.01l0 -0.02 0.01 0c0,0.01 0,0.01 0,0.02l-0 0 -0 0.01c0,-0.01 -0,-0 -0,-0.01zm0.02 -0.03l0 0c-0,-0 -0,-0 -0,-0zm-0 -0.03c0,0 0,-0 0,0 0,0 0,0.01 0,0.01l-0 0c0,-0.01 -0,-0.01 -0,-0.02zm-0.05 -0.16c0,-0 0.01,-0 0.01,0 0,0 0,0 0,0 0,0 0,0 0,0 0,0 0,0 0,0.01 0,0.03 -0,0.05 0.01,0.07 0.01,0.01 0,0 0.01,0.01 0,0 0,0 0,0.01 0,0 0,0 0,0 0,0 0,0.01 0.01,0.01 0,0.01 0.01,0.03 -0,0.04l-0.01 0.01c-0.01,0 -0.02,0.01 -0.03,0.01 -0.02,0 -0.03,0 -0.04,-0.01 -0,0 -0,-0 -0,-0l-0 -0c-0.02,-0.02 -0.01,-0.04 0,-0.05 0,-0 0,-0 0,-0l0 -0c0.01,-0.01 0.01,-0.01 0.01,-0.01 0.01,-0.01 0.01,-0.04 0.01,-0.06 -0,-0.01 0,-0.02 0.01,-0.02zm-0.1 0.08c0.01,0 0.02,0 0.02,0 0,0 0.01,0 0.01,0 0.01,-0 0,0 0,-0 0,-0 -0,-0 0,-0l-0 0.01c-0.01,0 -0.01,0 -0.02,0 -0.01,-0 -0.02,0 -0.02,-0zm0.01 -0.01l0.02 0c0,0 0,0 0,0l-0.03 0c0,-0 0,-0 0.01,-0zm-0.02 -0.01l0 -0 0 -0 0 -0c0,0 0,0 0,0 0,0 0.01,0 0.02,0 0.02,0 0.01,-0 0.02,-0.01 0,0 0,-0 0,0.01l-0 0 0 0.01c-0.01,-0 -0,-0 -0.01,-0 -0,-0 -0.01,0 -0.01,0 -0,0 -0.01,0 -0.01,0 -0,0 -0,0 -0.01,0l-0 -0 0 -0.01zm0.06 -0c-0,0 -0,0 -0.01,-0l0.01 0zm-0.05 -0.01l0.03 0c-0,0 -0,0 -0,0l-0.02 0c-0,0 -0.01,-0 -0.01,-0zm-0.01 -0c0,-0.01 0,-0.01 0.02,-0.01 0.02,0 0.02,-0 0.02,0.01 -0.01,-0 -0.03,-0 -0.04,0zm0.06 0.02c-0,-0.01 0,-0.01 0.01,-0.02 0,-0.01 0,-0.02 0.01,-0.02 0,0.01 0,0.01 -0,0.01 -0,-0 -0,-0 -0,-0 -0,-0 -0,-0 -0,-0 -0,0.01 -0,0.01 -0,0.02 -0,0.01 0,0.02 -0.01,0.02zm0.11 -0.06c0,-0 0,-0 0.01,-0 0,0 0.01,-0 0.01,-0 0.01,0 0.02,0 0.02,-0 -0,0.01 -0,0.01 -0.01,0.01l-0.02 0c-0.01,0 -0.01,0 -0.01,-0zm0 -0.01l0.03 -0c0.01,0 0,-0 0.01,0l-0.03 -0zm0.03 -0.01c0.01,-0 0,-0 0.01,-0l0 0c0,0 0,-0 0,0 0,0 -0,0.01 -0,0.01l-0 -0c-0,-0 -0.03,-0 -0.03,-0 -0,0 -0.01,0 -0.01,0l0 -0.01c0.01,-0 0,0 0.01,0l0.03 0zm-0.05 0c0,-0 0,-0 0.01,-0l0 0c-0,0.01 -0,0.03 -0.01,0.04 -0,0 0,0 -0,-0l-0 -0c-0,-0 0,0 -0,-0 -0,-0 -0,0 -0,-0 -0,-0 -0,-0 -0,-0.01l0.01 0c0,-0.01 0,-0 0.01,-0.03zm0.01 0c-0,0 -0,0 -0.01,-0 0,-0 0,-0 0.01,0zm-0.07 -0.01c0,-0 0,-0 0,0 -0,0 -0,0 -0,0zm0.08 -0l0.03 0c-0,0 -0,0 -0,0l-0.02 0c-0,0 -0,-0 -0,-0zm0.02 -0.01c0.02,0 0.02,-0 0.02,0 -0.01,-0 -0.03,-0 -0.04,0 0,-0.01 0.01,-0.01 0.02,-0.01zm-0.06 -0c-0,0.02 0.01,0.09 0.01,0.1 -0.01,-0.01 -0.01,-0.02 -0.01,-0.03 0,-0.01 -0,-0.01 -0,-0.02 0,-0 -0,-0.01 -0,-0.02 -0.01,-0.01 -0.01,-0.09 -0,-0.1 0,0.01 0.01,0.04 0.01,0.07zm-0.04 0.01c0,0.01 -0,0.02 -0,0.03 0,0.01 -0,0.03 -0,0.03 -0.01,0.02 0,0.01 -0.01,0.03l0.01 -0.07 0 -0.06c0,-0.01 0,-0.04 0.01,-0.05 -0,0.02 -0,0.03 -0,0.05 0,0.02 -0,0.02 -0,0.03 -0,0 0,0.01 -0,0.01zm0.02 -0l-0.01 0c-0,0 -0,0 -0,0 0,-0.04 -0,-0.09 -0,-0.13 0,-0.04 0,-0.09 -0,-0.13l-0 -0.01c0,0 0,0.02 0.02,0.02 0.01,-0 0.01,-0.01 0.02,-0.02l-0 0.01c-0.01,0.02 -0,0.04 -0,0.06l-0 0.2 -0 -0zm-0.01 -0.27c0.02,0.01 0.01,-0.01 0.02,-0.01 0.01,0.01 0,0.02 -0.01,0.02 -0.01,0 -0.01,-0 -0.01,-0.01 -0,-0 -0,-0.01 0,-0.01 0,-0 0,-0 0,-0l0 0.01zm0.03 -0.01c0,0 0,-0 0,0.01l-0 0 0 -0.01zm-0.04 -0l0 0 0 0.01 -0 0 0 -0.01zm-0 -0.01c0,-0 0,0 0,0 -0,-0 -0,0 -0,-0zm0.03 0.01l-0 0 -0 -0 -0 -0.01c0.01,-0 0.01,-0 0.01,-0 0,-0 0,-0 0,-0 0,0 0,0 0,0 0,0 -0,0 -0,0 -0,0.01 0,0.01 -0.01,0.01zm0.04 -0.01c-0.01,-0 -0.01,0 -0.01,-0 -0,-0 0,-0 0,-0.01 0,-0 0,-0 0,-0.01l0.02 0c0,0.01 -0,0.02 -0.01,0.02 -0,0 -0,0 -0,0 -0,0 -0,0 -0,0 -0,0 -0,0 -0,0l-0 0c-0,0 -0,0 -0,0 -0,0 -0,0 -0,0l-0 0c0,-0.01 -0,-0.01 -0,-0.01 0.01,-0 0.01,-0 0.01,-0.01l0 -0c0,-0 0,-0 0,-0 0,-0 0,-0 0,-0zm-0.06 -0.02c-0,0.01 -0.01,0 -0.01,0 0,0 0,0 0,0 0,-0 -0,-0 0.01,-0zm-0.02 0c0,-0 0,-0 0,-0l0 -0c0.01,0 0,-0 0,0 0,0 -0.01,0 -0,0.01 0,0.01 -0,-0 0,0l0 0.01c0,-0 0,-0 0,-0l-0 0.01c-0,0 -0,0 -0,0 -0,0 -0,0 -0,0 0.01,0 0.01,0 0.01,0l-0.01 -0c-0,-0.01 -0,-0.02 -0,-0.02zm0.05 -0.02l-0 0.01 -0 0 -0 0c-0.01,-0 -0,0 -0.02,0 -0.01,-0 -0,0 -0.01,-0 -0,-0 -0,-0.02 -0,-0.02 0,0 0,0 0.01,0 0,0 -0,0 0,0 0,0 0.01,-0 0.01,-0 0,0 0,0 0,0l0 0.01zm0.22 0.02l-0 0.01c-0,0 -0,0 -0,0.01 -0.01,-0 -0.01,-0.01 -0.02,-0.01l-0.03 -0.02c0,-0.01 0,-0.01 0.01,-0.02 0,-0 0,-0 0,0l0.04 0.02c0,0 0.01,0.01 0.01,0.01l-0 0zm-0.45 0.01c-0,-0 -0,-0 -0,-0.01l-0 -0c0,-0 0,-0 0.01,-0l0.05 -0.02c0.01,0 0,0.01 0.01,0.02 -0.01,0 -0.01,0.01 -0.02,0.01l-0 0c-0,-0 -0,0 -0.01,0.01 -0,0 -0.02,0.01 -0.02,0.01 -0,-0 -0,-0 -0,-0.01zm0.2 -0.03l-0.01 0c0,-0 0.01,-0 0.01,-0 0,0 0,0 0,0zm0.02 -0c0,-0 0,-0 0,-0.01l0 0.01 -0.01 0zm-0.16 0.01c-0,-0 -0,-0 -0,-0.01l0 -0c0,0 0,-0 0.01,0.01 0,0.01 0,0.01 0,0.01 -0,0 -0,0 -0,0 -0,-0.01 0,-0.01 -0,-0.01zm0.33 -0c0,-0.01 0,-0.01 0.01,-0.01l0 0c-0,0.01 -0,0.01 -0.01,0.01zm-0.17 -0.21c0,-0 0.01,-0 0.02,0 0.01,0 0.01,0.01 0.01,0.02l0 0.08c0,0.02 -0,0.04 -0,0.05 -0,0.01 -0,0.02 -0,0.03 -0,0.01 0,0.02 -0,0.02 -0.01,-0 -0.01,-0 -0.01,-0.01l-0.01 -0c0,0 -0.01,0 -0.01,0 -0,0 -0,0 -0,0 -0.01,0.01 0,0 -0,0.01 -0,-0 -0,0 -0,-0.01l-0 -0.05c0,-0.02 -0,-0.04 -0,-0.05 0,-0.02 0,-0.04 -0,-0.06 0,-0.01 0,-0.02 0,-0.03 0,-0.01 0,-0.01 0.01,-0.02zm-0.17 0.2c-0,-0.01 -0,-0.01 0,-0.01 0.01,-0.01 0.01,0 0.01,0 -0,0 -0,0 -0.01,0 0,0 0,-0 0,0 -0,0 0,0 -0.01,0 -0,0 0,-0 -0,0 -0,0 -0,0 -0,0 -0.01,0 -0.01,0 -0.02,0.01 -0,0 0,0 -0,0 -0,0 -0,0 -0,0 -0.01,0.01 -0.01,0 -0.01,0 0,-0 0.01,-0 0.01,-0 -0,0 -0.02,0.01 -0.02,0 0,-0 0.01,-0 0.01,-0.01 0,-0 0.01,-0 0.01,-0.01 0.03,-0.01 0.02,-0.01 0.03,-0.01zm0.2 0.02l0 -0.01c0.01,-0 0.03,0 0.05,-0 0.01,-0 0.02,-0.01 0.03,-0.02 0.01,-0.01 0.02,-0.01 0.03,-0.01 0.01,0 0.03,0.01 0.03,0.01l-0 0.01c0,-0 0,-0 0,-0l0.01 -0.01c0,0 0,0 0,0 0,0 0,0 0,0 0,0 -0,0 -0,0.01 -0,0 -0,0 -0,0.01 -0,-0 0,-0 -0,-0 -0,-0 -0,0 -0.01,-0 -0.01,0 -0.02,-0.01 -0.03,-0.01 -0.02,0 -0.03,0.03 -0.06,0.03 -0.01,0 -0.03,-0 -0.04,0l0 -0zm0.15 -0.03c-0,-0 -0,-0 -0,-0l-0 -0.01 0.01 0 -0 0.01zm-0.02 -0.01l0 -0c0,-0 0,-0 0,-0 0.01,0 0,0 0.01,0 -0.01,0.01 -0,0.01 -0,0.01l-0.01 -0c-0,-0 0,-0 0,-0l-0 -0c-0,0 -0,0 -0,0 -0,0 0,0 -0,0l-0 -0zm0 0c-0,0 -0,0 -0,0 -0,-0 -0,0 -0,-0 -0.01,-0.01 -0,-0 -0.01,-0.01 0,-0.01 0.01,0 0.02,0.01z"/>
    <path class="fil19" d="M0.27 0.24c-0.01,-0.01 -0,-0 -0.01,-0l0 0c0,0 0,0 0.01,-0 0,-0 0,-0 0,-0.01 -0,0 -0,0 -0,0 -0,0 -0,-0 0,0.01z"/>
    <path class="fil20" d="M0.2 0.63c0,0 0,-0 0,-0 0,0 0,0 0,0l0 0c0,0 0,0 0,0 0,0 0,0 0,0l0 0c0,0 0,0 0,0 0.01,0 0,0 -0,0 0,-0 -0,-0 0,-0 0.01,-0 0,0 0,0 -0,-0 -0,-0 -0,-0.01 0.01,0 -0,0 0.01,0 0,0 0,0 0,0 0,0 0,0 0,0 0.01,0 -0,0 0,-0 0,-0 -0,-0 0,0 -0,0 -0,0 -0,-0l0 -0c0,0 0,-0 0,0 -0,-0 -0,0 -0,-0 0,-0 -0,-0 0,-0 0,0 0,0.01 0,0.01l-0 -0.01c0,0 0,0 0,0l0.01 0c0,-0 0.01,0.01 0,0.02 -0,0 -0,0 -0,0l0 0c-0,0.01 -0,0 -0,0.01 -0,0.01 0,0 0,0.01 -0,0 0,0 -0,0l0 -0c0.01,0 0.01,0 0,0 -0,0.01 0,-0 -0,0 -0,0 -0,0 -0,0 -0.01,0 -0.01,-0 -0.01,-0 0,0 0,-0 0,0 -0,0 0,0 -0,0.01l-0 0c-0,0 -0,0 -0,0l-0.01 0c-0,0 -0,0 -0,0 0,-0 -0,-0 0,-0.01 0,-0.01 0,-0 0,-0 -0,0 -0,-0 -0,0.01 -0.01,-0.01 -0,-0.01 -0,-0.01 0,0 -0,0 -0,-0 -0,-0 0,-0 -0,-0 0,0 0,-0 0,0 0,0 -0,0 -0,0 -0,0 0,0 -0,0l-0 -0c-0,-0 -0,-0 -0,-0 0,0 0,-0 0,0 -0,0 -0,0 -0,0 0,-0 -0,-0 0,0 0,0 -0,0 -0,0.01 0.01,0 0.03,0 0.04,0 0.01,-0 0.02,-0.01 0.02,-0.03 0,-0.01 -0.01,-0.03 -0.02,-0.03 -0.02,-0.03 -0.01,-0.07 -0.02,-0.08 -0,-0 -0.01,-0.01 -0.02,-0 -0.01,0.01 0,0.05 -0.02,0.08 -0,0.01 -0.01,0.01 -0.01,0.01z"/>
    <path class="fil21" d="M0.23 0.09l-0 0.09c0,0 0,0 0.01,0l0.01 -0.01c0,-0 0,-0 0,-0 0,-0 0,-0 0.01,-0l-0 -0.09 -0 0c-0,-0 -0,-0 -0,-0 -0,-0 -0,0 -0,-0 -0,-0 -0,0 -0,0 -0,-0.01 -0,-0 0,-0.01 -0,-0 -0.01,0 -0.01,-0 -0.01,-0 0,0 -0,-0 -0,0 0,0 -0,0 -0,0 0,0.01 -0,0.02z"/>
    <path class="fil22" d="M0.25 0.04l-0 0.03 0 0.09 0 0.03c0,0 -0,0 -0,0 -0,0 -0,0 -0,0l-0 0c-0,0 -0,0 -0,0 0,0 0,0 0.01,0.01 0,-0.01 0,-0.02 0,-0.02 0,-0.01 0,-0.02 0,-0.03 0,-0.02 0,-0.04 0,-0.05l-0 -0.08c-0,-0.01 -0,-0.01 -0.01,-0.02 0,0.01 0,0.03 0,0.04z"/>
    <path class="fil23" d="M0.23 0.86l0.02 0 0.01 -0 -0 0.06c-0,0 -0.01,0 -0.01,0 -0.01,-0 0,-0 -0.01,-0 -0.01,0 0.01,0 -0.02,0l0 -0.06 0.01 -0zm0.03 0.06l0 -0.06 0.02 0 0 0.04c0,0.01 -0.01,0.02 -0.02,0.02zm-0.06 -0.06l0.02 0 0 0.06c-0.01,-0 -0.02,-0.01 -0.02,-0.02 0,-0.01 -0,-0.03 0,-0.04zm0 0.06c0.01,0 0.01,0 0.01,0.01 0,0 0.05,0 0.06,-0l0.01 -0.01c0,-0 0,-0 0,-0 0,-0 0,-0.01 0,-0.02l0 -0.04c0,-0 0,-0 0,-0l0 -0c-0.01,-0 -0.08,-0 -0.09,-0 -0,0.01 -0,0.05 0,0.06z"/>
    <path class="fil24" d="M0.08 0.21l0 0c0.03,-0.01 0.03,-0.04 0.07,0 0.01,0.01 0.01,0.01 0.02,0.01 0.01,0 0.04,0 0.05,0 0,-0.01 0,-0.01 -0,-0.01 -0.02,-0 -0.03,0 -0.05,-0 0,0.01 -0,0 0,0 0.01,0 0.04,-0 0.05,0l-0 0.01c-0.05,-0 -0.05,0 -0.08,-0.02 -0.03,-0.02 -0.04,-0 -0.07,0.01z"/>
    <path class="fil25" d="M0.25 0.22c0.02,-0 0.04,0 0.06,-0.01 0.01,-0.01 0.02,-0.02 0.03,-0.02 0,-0 0.01,-0 0.01,-0.01 -0,0 -0.01,0 -0.01,0 -0.01,0 -0.01,0 -0.01,0.01 0,-0.01 -0,-0 0,-0 0.03,-0.03 0.05,-0 0.06,-0 0,-0 -0.02,-0.01 -0.03,-0.01 -0.02,-0 -0.03,0.01 -0.03,0.01 -0.01,0.01 -0.02,0.02 -0.03,0.02 -0.01,0 -0.04,-0 -0.05,0l-0 0.01z"/>
    <path class="fil26" d="M0.23 0l-0 0.06 0 -0.02c0,-0 0,0 -0,-0 0.01,0 0,-0 0,0 0,-0.01 0,-0 0.01,-0 -0,0.01 -0,0 0,0.01 0,0 0,0 0,0 0,-0.01 0,-0.04 -0,-0.04 -0,-0 -0.01,-0 -0.02,-0z"/>
    <path class="fil27" d="M0.25 0.22l-0 0c0.01,-0 0.03,0 0.04,-0 0.02,-0 0.04,-0.03 0.06,-0.03 0.02,-0 0.03,0.01 0.03,0.01l-0 -0c-0,-0 0,0 -0,-0 -0.02,-0.01 -0.01,-0.01 -0.03,-0.01 -0,0 -0.01,0 -0.01,0.01 -0.01,0.01 -0.02,0.01 -0.03,0.02 -0.01,0.01 -0.04,0 -0.06,0.01z"/>
    <path class="fil28" d="M0.23 0.06l0 0.03c0,-0 0,-0.01 0,-0.02 0,-0 0,0 0,-0 0.01,0 -0,0 0,0 0,0 0,0 0.01,0 -0.01,0 -0,-0 -0,0.01 0,0 0,-0 0,-0 0,0 -0,-0 0,0 0,0 0,0 0,0l0 -0 0 -0.03c-0,-0 -0,0 -0,-0 -0,-0 -0,-0 -0,-0.01 -0.01,0 -0.01,-0 -0.01,0 -0,-0 0,-0 -0,-0 0,0 0,0 0,0l-0 0.02z"/>
    <path class="fil29" d="M0.01 0.24c0,-0.01 0.04,-0.02 0.05,-0.03l0 0.01c-0.01,0.01 -0.01,0.01 -0.02,0.01l-0.02 0.01c0,0 0,0 0,0.01 0,-0 0.02,-0.01 0.02,-0.01 0,-0 0.01,-0.01 0.01,-0.01l0 -0c0.01,-0 0.01,-0.01 0.02,-0.01 -0,-0.01 -0,-0.01 -0.01,-0.02l-0.05 0.02c-0,0 -0,0 -0.01,0l0 0z"/>
    <path class="fil30" d="M0.23 0.18l0 0.02c0,-0 0.01,-0 0.01,-0l0.01 0c0,-0 0,-0 0,-0l0 -0c0,-0 0,-0 0,-0 0,-0 0,-0 0,-0l-0 -0.03c-0.01,0 -0.01,0 -0.01,0 -0,0 -0,0 -0,0l-0.01 0.01c-0,-0 -0,-0 -0.01,-0z"/>
    <path class="fil31" d="M0.46 0.24l0 -0.01c-0.01,-0 -0.03,-0.02 -0.04,-0.02 -0.01,-0 -0.01,-0.01 -0.01,0l0 0c0,0 0,0 0,0l0.05 0.02z"/>
    <path class="fil32" d="M0.35 0.19c0.02,0 0.01,-0 0.03,0.01 0.01,0 0,0 0,0 -0,-0 -0,-0 0,-0l0 -0.01c-0.01,-0 -0.04,-0.03 -0.06,0 -0,0 -0,-0 -0,0 0,-0 0.01,-0 0.01,-0.01 0,-0 0.01,-0 0.01,-0z"/>
    <path class="fil33" d="M0.23 0.25l-0 -0.01c-0,0 -0,0 -0,0 -0,0 -0,0.01 -0,0.01 0,0 0.01,0.01 0.01,0.01 0.01,-0 0.02,-0.01 0.01,-0.02 -0,0 -0,0.02 -0.02,0.01z"/>
    <path class="fil34" d="M0.44 0.21c-0,-0 0,-0 -0,-0 -0,-0 -0.01,-0 -0.01,-0 -0,-0 -0,-0 -0,0 -0,-0 -0,0 -0,-0 -0,-0 -0,0 -0,-0 -0,-0 -0,-0.01 -0.01,-0 0,0.01 -0,0 0.01,0.01 0,0 0,0 0,0 0,0 -0.01,0 0.01,0 0,0 0,0 0,0 0.01,0 0.03,0.02 0.04,0.01 -0,-0 -0,-0 -0.01,-0l-0.02 -0.01z"/>
    <path class="fil35" d="M0.29 0.53l-0.01 -0c-0,0.03 -0,0.02 -0.01,0.03l-0.01 -0c0,0 0,0 0,0.01 0,0.01 0,0 0,0 0.01,0 -0,-0 0,0l0 0c0,0 -0,0 0,0 0,-0.01 0,-0.03 0.01,-0.04z"/>
    <path class="fil36" d="M0.14 0.59c0,-0 -0,-0 0,-0 0,0 0,0 0,0l0.02 0c-0,0 0,0 -0.01,0 -0.02,-0 -0.01,0 -0.01,-0zm-0 -0.01c-0,0 -0,0 -0,0 -0,0 -0,-0 -0,-0l0 0c0,-0 0.01,-0 0.01,0 -0,0 -0,0 -0.01,0l-0 0.01 0 0c0,-0 0,-0 0.01,-0 0,-0 0.01,-0 0.01,-0 0,-0 0.01,-0 0.01,-0 0.01,0 0,0 0.01,0l-0 -0.01c-0.01,0 -0.01,0 -0.01,-0 0,-0 0,-0 0,-0 0,-0 0,-0 0.01,-0 0,-0.01 0,-0 -0,-0.01 -0.01,0 0,0.01 -0.02,0.01 -0.01,-0 -0.01,0 -0.02,-0z"/>
    <path class="fil37" d="M0.2 0.28c0,0.01 0,0.01 0,0.02 0,0 0,0.01 0,0.01 0,0 0,0.01 0,0.01 0,-0 0,0 0,-0l0 -0 -0 -0c-0,-0 -0.01,-0.03 -0.01,-0.03 0,0 0,0 0,0 0,0 0,0 0,0.01 0,0 0,0.01 0,0.01 0,-0 0,-0 0,-0.01 -0,-0 -0,0 -0,-0 -0,-0 -0,-0 -0,-0l-0 0c-0,-0.01 0,-0 -0,-0.01 -0.01,0 -0,0 -0,0.01 0,0 0,0 0,0z"/>
    <path class="fil38" d="M0.21 0.95c0.01,0 0.04,0 0.05,0l-0 -0.01 -0.04 0 -0 0z"/>
    <path class="fil39" d="M0.19 0.6c0.01,-0 0,-0 0.01,-0.02 0,-0.01 0,-0.01 0,-0.02 0,0 0,0 0,0 0,0 -0,0 0,0 0,-0 0,-0 0,-0.01 -0.01,0 -0.01,0.01 -0.01,0.02 -0,0.01 -0.01,0.02 -0.01,0.02z"/>
    <path class="fil40" d="M0.26 0.29l0 0 0 -0c-0,0 -0,0.01 -0,0.02l-0 0c0,-0 0,-0 0,-0 0,0 0,-0 0,-0 0,-0 0,-0 0,-0 0,-0.01 0,-0.01 0,-0.02 0,-0.01 0,-0.01 0,-0.02l-0 0 -0 -0c-0,0.01 -0,0.01 -0.01,0.02z"/>
    <path class="fil41" d="M0.13 0.6c0,0.01 0,0 0.02,0 0.01,0 0.02,0 0.02,-0l0 -0.01c-0,0 0,-0 -0,0 -0,0 0,0 -0,0 -0,0 -0.01,-0 -0.01,-0 -0.01,0 -0.02,0 -0.02,-0z"/>
    <polygon class="fil42" points="0.23,0.22 0.25,0.22 0.25,0.22 0.23,0.22 "/>
    <path class="fil43" d="M0.25 0.23l0 -0 -0.02 0 0 0c0,0 0,-0 0,0 0,0 0,0 0,0 0.01,0 0,0 0.01,0 0.01,-0 -0.01,0 0.01,-0 0,-0 0,-0 0.01,-0z"/>
    <path class="fil44" d="M0.38 0.2l0 0c0,0 0,0 0.01,0 0,0 0,0 0,0 0,-0 0,-0 0,-0.01 0,-0 0,-0 0,-0.01 -0,-0 -0,-0 -0,-0 -0,-0 -0,-0 -0,-0l0 0.01 -0.01 0.01c0,-0.01 0,-0 -0,-0z"/>
    <path class="fil45" d="M0.06 0.2c0,0.01 0,0 0,0.01 0,0 0,0.01 0,0.01 0,-0 0,0 0,-0 -0,-0 -0,-0 -0,-0.01 -0,-0.01 -0,-0.01 -0.01,-0.01l-0 0z"/>
    <path class="fil46" d="M0.39 0.19l0 0c0,0 -0,0 0,-0 0,-0 0,-0 0,-0l0 0c-0,0 -0,0 -0,0l0.01 0c0,-0 -0,0 0,-0.01 -0.01,0 -0.01,0 -0.01,-0 -0,0 -0,0 -0,0l-0 0z"/>
    <path class="fil47" d="M0.21 0.77c0,-0 0,-0 0,-0.01 0,-0.01 -0,-0.01 -0,-0.01l-0 0.02z"/>
    <polygon class="fil48" points="0.27,0.76 0.27,0.77 0.28,0.77 0.28,0.76 "/>
    <path class="fil49" d="M0.2 0.77c0,-0 0,0 0,-0.01 -0,-0 -0,-0 -0,-0l-0 -0c-0,0 -0,0.01 0,0.01z"/>
    <path class="fil50" d="M0.26 0.77c0,-0 0,-0.01 0,-0.01 0,-0.01 -0,-0.01 -0,-0.01 -0,0 -0,0.01 -0,0.01 0,0.01 0,0.01 0,0.01z"/>
    <path class="fil51" d="M0.37 0.21c0,0 0,0 0,0 0,0 0,0 0,0l0.01 0c0,-0 -0,-0 0,-0l-0.01 -0c-0,-0 -0,-0 -0,-0 -0,-0 -0,-0.01 -0.01,-0l0 0z"/>
    <path class="fil52" d="M0.39 0.2c-0,-0 -0,-0 -0,0 0,0 0,-0 0,0l0.01 -0.01 -0 -0.01 -0.01 0.01c-0,0 -0,0 -0,0z"/>
    <path class="fil53" d="M0.4 0.21c0.01,-0 0,0 0.01,-0.01l-0 -0c-0,0 -0,0 -0.01,0.01z"/>
    <path class="fil54" d="M0.2 0.21l0.01 -0c-0,-0 0,-0 -0,-0 -0,-0 -0.01,0 -0.01,0z"/>
    <path class="fil55" d="M0.13 0.59c0,0 0.01,0 0.01,-0 -0,-0 -0,-0 -0.01,-0l0 0z"/>
    <path class="fil56" d="M0.23 0.21l0.01 -0 -0 -0.01c-0,0 -0,0 -0,0.01z"/>
    <path class="fil57" d="M0.13 0.59c0,0 0,0 0,0 0,-0 0,0 0,-0 -0,-0 -0,-0 -0,-0l-0 0z"/>
    <path class="fil58" d="M0.28 0.76c0,-0 0,0 0,-0 -0,-0 -0,-0 -0,-0 0,0.01 -0,0 0,0z"/>
   </g>
  </g>
 </g>
</svg>
