<?xml version="1.0" encoding="UTF-8"?>
<!DOCTYPE svg PUBLIC "-//W3C//DTD SVG 1.1//EN" "http://www.w3.org/Graphics/SVG/1.1/DTD/svg11.dtd">
<!-- Creator: CorelDRAW -->
<svg xmlns="http://www.w3.org/2000/svg" xml:space="preserve" width="0.8mm" height="1.733mm" version="1.1" style="shape-rendering:geometricPrecision; text-rendering:geometricPrecision; image-rendering:optimizeQuality; fill-rule:evenodd; clip-rule:evenodd"
viewBox="0 0 0.45 0.98"
 xmlns:xlink="http://www.w3.org/1999/xlink"
 xmlns:xodm="http://www.corel.com/coreldraw/odm/2003">
 <defs>
  <style type="text/css">
   <![CDATA[
    .fil0 {fill:#0D0D0D}
    .fil1 {fill:#3D3D3D}
    .fil9 {fill:#466C7D}
    .fil6 {fill:#6C6C6C}
    .fil5 {fill:#6D5A45}
    .fil8 {fill:#6D8D9C}
    .fil4 {fill:#C0BFBE}
    .fil10 {fill:#CC0000}
    .fil7 {fill:#D31B1B}
    .fil2 {fill:#D6B185}
    .fil3 {fill:#F0F0F0}
   ]]>
  </style>
 </defs>
 <g id="Camada_x0020_1">
  <metadata id="CorelCorpID_0Corel-Layer"/>
  <g id="_1769521736304">
   <path class="fil0" d="M0.2 0.96c0,-0 -0,-0 0.01,-0l0.04 0 -0 0.01c-0,-0 -0.02,-0 -0.02,-0l-0.02 0c-0.01,-0 -0,0 -0,-0zm0.03 0.02l-0.01 0c-0.01,-0 -0.01,-0.01 -0.02,-0.02 0,-0.01 0,-0.01 0,-0.01 -0.05,0 -0.04,-0.03 -0.04,-0.06 -0,-0 0,-0.01 0,-0.02 -0,-0.03 -0,-0.15 0,-0.16 0,-0.01 0,-0.01 0.01,-0.01 0,-0 0.01,-0 0.01,-0.01 -0.01,-0.01 -0.01,-0.01 -0.01,-0.03 -0,-0.01 0,-0.02 0.01,-0.03 0.01,-0.01 0.01,-0.01 0.01,-0.03 0,-0.01 0,-0.02 0,-0.03 -0.01,-0 -0.01,-0 -0.01,-0.01 -0.01,-0.02 0,-0.03 -0.02,-0.03 0,0 0,0 -0,0.01 -0,0.01 -0.01,0.01 -0.02,0.01 -0,-0 -0.01,-0 -0.01,0 -0.01,0 -0.02,0 -0.02,-0 -0.01,-0.01 -0.01,-0.03 -0,-0.03 0.01,-0.01 0.04,-0.01 0.04,-0 0.01,0 0.01,0.01 0.01,0.01 0,0.01 0.01,-0 0.02,0 0,0 0.01,0.03 0.01,0.03 0.01,-0 0.01,0 0,-0.02l0 -0.06c0,-0.01 0,-0.02 0.01,-0.03 0,-0.01 0,-0.01 0,-0.02 -0,-0.02 0,-0.04 0,-0.06 -0,-0.01 -0,-0 -0,-0.01 -0,-0 -0,-0 -0,-0.01 -0,-0.04 0,-0.03 -0.01,-0.07 -0,-0.01 -0.01,-0.01 -0.01,-0.01 -0,0 -0,0.01 -0.01,-0 -0.01,-0.01 0,-0.01 0,-0.02 -0,-0.01 -0,-0.01 -0,-0.02 -0.03,0 -0.03,-0.02 -0.05,-0.02 -0,-0 -0,-0 -0.01,0 -0.01,0 -0.02,0.01 -0.02,0.01 -0,0 -0.01,0.01 -0.01,0.01 -0.01,0.01 -0.01,0 -0.02,0.01 -0.01,0 -0.01,0.01 -0.01,0.01 -0.02,-0.01 0.01,-0.02 0.02,-0.02 -0.01,0 -0.01,-0 -0.02,0 -0.01,0 -0.01,0 -0.02,0.01 -0.01,0 -0.01,0 -0.02,0.01l-0.02 0.01c-0.01,-0 -0.01,-0.02 -0.01,-0.02 0,-0 0.01,-0 0.01,-0 0,-0 0.01,-0 0.01,-0 -0.01,-0 -0.02,0.01 -0.02,-0 0.02,-0 0.02,0 0.05,-0.01 0.01,-0 0,-0 0.01,-0.01 0,-0 0,-0 0.01,-0l0.02 -0.01c0.02,-0.01 0.01,-0 0.02,-0 0,-0 0.01,-0 0.01,-0 0.02,-0 0.04,-0 0.05,-0 0.01,0 0.01,0 0.01,0 -0,-0 -0,-0 -0,-0 -0.03,-0.02 -0.07,-0.02 -0.11,-0.02 -0.03,0 -0.02,-0.03 -0.02,-0.05 0,-0.03 -0,-0.04 0.01,-0.06 0.01,-0.02 0.02,-0.02 0.05,-0.02 0.01,-0 0.02,-0.01 0.03,-0.01 0.01,-0 0.06,0 0.07,-0 0,-0 -0,-0.01 0.01,-0.02 0.01,-0 0.02,-0 0.03,-0 0.01,0.01 0.01,0.01 0.01,0.02 0.02,0 0.06,-0 0.08,0 0.02,0.01 0.05,0 0.06,0.02 0.01,0.01 0.01,0.02 0.01,0.04 0,0.01 0,0.05 -0,0.05 -0.01,0.01 -0.03,0.01 -0.04,0.01 -0.02,0 -0.03,-0 -0.05,0.01 -0.01,0 -0.03,0.01 -0.03,0.02 0.01,-0 0.04,-0 0.05,0 0.01,0 0.02,0 0.02,0 0,-0 0,-0 0.01,-0 0,0 0.01,0 0.01,0 0,0 0.01,0 0.01,0 0.01,0 0,0 0.01,0 0.01,0 0.01,0.01 0.02,0.01 0.01,0 0.01,0 0.02,0.01 0.01,0 0.02,-0 0.02,0.01 -0,0 -0,0 -0.01,0 -0,-0 -0.01,-0 -0.01,-0 -0,-0 -0,0 0,-0 0.01,0 0.01,0 0.02,0 -0,-0 -0.01,-0 -0.03,-0.01 -0.01,-0 -0.02,-0.01 -0.02,-0.01 0,0.01 -0,-0 0,0 0,0 0,0 0,0l-0 0c-0,0 -0,0 -0,0l0 0c0,-0 -0,-0 -0,-0 0,-0 -0,-0 -0,-0 0,-0 0,-0 0,-0 0,0 0,0 0,0 0,0 0.02,0.01 0.02,0.01l0.02 0.01c0.01,0.01 -0,0.02 -0.01,0.02l-0.04 -0.01c-0.02,-0.01 -0.01,-0 -0.02,-0 -0.01,-0 -0.01,-0 -0.01,-0.01 -0.01,0 -0.01,0 -0.01,0 -0.01,-0.01 0,-0.01 -0.02,-0.01 -0.01,-0 -0.03,0.01 -0.04,0.01 -0.01,0 -0.02,0.01 -0.03,0.01 0,0.01 0,0.01 -0,0.02 -0,0.01 0,0.01 0,0.01 0,0.01 -0,0.01 -0.01,0.01 -0,0 -0,0 -0.01,-0 -0,0.01 -0,0.01 -0,0.02 -0.01,0.02 -0.01,0.02 -0.01,0.05 0,0.03 -0,0.02 -0,0.03 -0,0.01 -0,0.07 0,0.07 0.01,0.02 0.01,0.07 0.01,0.1 0,0 0.01,0 0.01,0.01 0,0 0,0.02 0.01,0.02 0,0 0,0.01 0.01,0.01 0.01,-0 -0.01,-0.02 0.05,-0.02 0.01,0 0.01,0.02 0.01,0.03 -0,0.01 -0.02,0.01 -0.04,0.01 -0.01,0 -0.01,0 -0.01,-0 -0,-0.01 0,-0.01 -0,-0.01 -0,-0 -0.01,0 -0.01,0 -0,-0 -0,-0.01 -0.01,-0.01 -0,-0.01 -0,-0.01 -0,-0.01l-0 0c0,0.01 0,0.01 0,0.02 0,0 0,0.01 0,0.02 0,0.02 0.04,0.03 0.02,0.07 -0,0.01 -0.01,0.01 -0.01,0.01 0.01,0 0.02,0.01 0.02,0.02 0,0.01 0,0.15 0,0.18 0,0.01 -0,0.01 -0,0.02 -0,0.02 0,0.02 -0.01,0.03 -0.01,0.01 -0.02,0.01 -0.03,0.01 0,0 0,0.01 0,0.01 -0.01,0 -0,-0 -0.01,0 -0,0 -0,0 -0,0.01 -0,0 -0.01,0 -0.01,0zm-0.01 -0.24c0.01,0 0.02,-0 0.02,0l0 0.02 -0.02 0 0 -0.02zm-0.01 0.02c-0,-0 -0,-0.01 -0,-0.01 0,-0 -0,-0.01 0,-0.01 0,0 0,0.01 0,0.01 0,0.01 0,0.01 -0,0.01zm0.05 -0l0 -0c-0,0.01 -0,0 -0,0zm0.01 -0.03c-0,0 0,-0 -0,0 -0,0 -0,0 -0,0l-0 -0.01 -0 0 0 0c0,0.01 0,0 -0,0.01 -0,-0 0,-0 -0,-0.01 -0,-0.01 0,-0 -0,-0 0,-0.01 -0,0.01 0,-0 0,-0 -0,0 0,-0 0,-0 0,-0 0,-0.01 0,-0.01 -0,-0.01 -0,-0.01 0,0 0,0 0,0.01l-0 -0.01c-0.01,0 -0.02,-0 -0.02,-0 -0.01,0 -0.02,0 -0.02,-0l0.03 -0c0.01,-0 0.01,-0 0.02,0 0,-0 0,-0 0,-0l0 -0c0,0 0,-0 0.01,0.01 -0,-0 -0,-0.01 0,-0.01l0 0.02c0,-0.01 0,-0.02 -0,-0.02l0.01 -0c0,-0 -0,-0 0,-0 0,-0 0,0 0,0 0.02,0.01 0.02,0.04 0.02,0.06 0,0.05 0,0.12 -0,0.17 -0,0.03 -0.03,0.03 -0.06,0.03 -0.07,0 -0.06,-0.01 -0.06,-0.11 0,-0.03 -0,-0.06 0,-0.09 0,-0.03 -0,-0.06 0.02,-0.07 -0,0.01 -0.01,0.01 -0.01,0.01 -0.01,0.01 -0.01,0.06 -0,0.07l0.02 0c-0,-0 -0,-0.02 -0,-0.02 0,-0 -0,-0 0,-0 -0,0 -0,0.01 -0,0.01 0,-0 0,-0.01 0,-0.02l-0 0c-0,-0.01 0,-0.02 0,-0.03l-0 0.03c-0,0.02 0,0.02 -0.01,0.02 -0,-0.02 0,-0.06 0.01,-0.08 0,0 0.01,0 0.01,0.01l-0 0 0 -0 -0 0.01 0 0c-0,-0.01 -0,-0.01 0,-0.01 0,0 0,-0 0,0 0.01,0.01 -0,0.02 0.01,0.02l-0 0c-0,0.01 0,0.01 -0,0.01 -0,-0.01 0,-0.02 -0,-0.02 0,0.01 -0,0.03 -0,0.04 0,0.01 -0,0 -0,0.01l0.08 0c0,-0.01 0,-0.06 -0,-0.06 -0,-0.01 -0.01,-0.01 -0.01,-0.01 -0,0 -0,-0 -0,0l0 0.07 -0.01 -0c-0,-0.01 -0,-0.05 -0,-0.05l0 0.04c-0,-0 0,-0 -0,-0 -0,0.01 0.01,0.01 0,0.02 -0,-0 -0,-0.01 -0,-0.01 0,-0 0,-0.01 0,-0.01l-0 -0.01zm-0.08 0.03l0 -0.02 0.01 0 0 0.01c0,0 -0,0 -0,0.01 -0,0 -0,0 -0,0zm0.1 -0.02l0 -0 0.01 0 0 0.02c-0.01,-0 -0.01,-0.01 -0.01,-0.02zm-0.06 -0.02c0,-0 0,0 0,-0 -0,-0.01 -0,0 -0,-0.02 -0,-0.01 -0,-0 0,-0.01 0,0.01 -0,0.01 0,0.02l0 -0.02c0.01,-0 0.02,-0 0.03,0 0,0 0,0.01 0,0.01 -0,0.01 -0,0.01 0,0.01l0 0c0,0 0,0 0,0 0,0 0,0 0,0.01 -0,-0 0,-0 -0,-0.01l-0 0.01c-0.01,0 -0.02,0 -0.02,0l-0 -0.01c-0,0 -0,0 -0,0.01 -0,-0 -0,-0 -0,-0.01zm0.03 -0c0,-0 -0,-0.01 -0,-0 0,0.01 -0,0 0,0 0,0 0,0 0,0zm-0.06 0.01l-0 0c0,-0.01 0,-0.01 0,-0.02 0,-0.01 0,-0.01 0.01,-0.02 0,0.01 -0,0.01 -0,0.02 -0,0.01 0,0.02 -0,0.02zm0.09 -0.04c0.01,0.01 0.01,0.02 0.01,0.04 -0.01,0 -0.01,0 -0.01,-0.02 -0,-0.01 -0,-0.01 -0,-0.02zm-0.05 -0.17c0.02,-0.01 0.02,0.03 0.02,0.04 0.01,0.05 0.02,0.05 0.03,0.07 0.01,0.02 -0,0.05 -0.05,0.05 -0.02,0 -0.04,-0 -0.05,-0.02 -0.01,-0.02 -0.01,-0.04 0.01,-0.05 0.04,-0.04 0.01,-0.09 0.04,-0.1zm0.07 0.07c0,-0 0,-0 0.01,-0l0.02 0c0,0 0,0 0,0l-0.03 0 0 -0zm0.04 0l-0 0c0,-0.01 0,-0.01 0,0zm-0.01 -0c-0.01,-0.01 -0.01,-0 -0.02,-0 -0.01,0 -0.02,-0 -0.01,0.01 0,0 0.02,0 0.03,0 0.01,-0 0.01,0 0.01,0 -0.01,0 -0.03,0 -0.04,0 -0,-0.01 -0,-0.01 -0,-0.01 -0,-0 -0,-0 -0,-0 -0,-0.01 -0,-0 0,-0.01l0 -0c0,0 0,0 0,0.01 0.01,0 0.02,0 0.03,-0 0,-0 0,-0 0,-0 0,-0 0,0 0.01,0 0,-0 0,0 0,-0 0,-0 0,-0 0,-0l-0 0.01c-0,0 -0,-0 -0.01,-0l-0 0zm0 -0.01l0 0 0 0 -0 0 0 -0zm-0.01 0l-0.02 0c-0,0 -0,-0 -0.01,-0l0 -0 0.03 0c-0,0 -0,0 -0.01,0zm-0.04 0.01c-0.01,-0 -0.01,-0.01 -0.01,-0.01 -0,-0.01 -0,-0.01 -0,-0.01l-0 -0c-0,-0 -0.01,0 -0.01,-0.01l0.01 0c0,0.01 0,0.02 0.01,0.03 0,0 0,0 0,0.01zm-0.1 -0.07c0,-0 0,-0 0,-0l0 -0c0,-0 0,-0 0,-0 0,-0 -0,-0 0,-0 0,0 0,0 0,0.01 0,0.01 0,0.01 0.01,0.02l0 0c0,-0 0,-0 0.01,-0 -0,0.01 0,0.01 -0,0.02 -0.01,-0 -0,-0 -0.01,-0.01 -0,-0 -0,-0.01 -0.01,-0.02 -0,-0.01 -0.01,-0.01 -0.01,-0.01 -0,-0 -0,0 -0,-0l0 -0zm0.02 0.03c0,-0 0,-0 0,0 -0,0 -0,-0 -0,-0zm-0.06 -0.02l0.02 0c0,0 0,-0 0,0 -0,0 0,0 -0,0 -0,0 -0.02,0 -0.02,0 -0,0 -0,0 -0,-0 0,-0 0,-0 0,-0zm-0.01 -0c-0,0 -0,0 -0,0 -0,-0 -0,-0 0,-0zm0.13 0.07c-0.01,-0.01 -0.01,-0.02 -0.01,-0.03 -0,-0.01 -0,-0.03 -0.01,-0.04 -0,-0 -0,-0 -0,-0.01l0 -0.03c0,-0.01 0,-0.03 0,-0.04 0,0 0,-0 0,0 0.01,0.01 0.01,0.13 0.01,0.15l-0 -0zm-0.06 0.01c-0,-0.01 0,-0.03 0,-0.04 0,-0.01 0,-0.03 0,-0.04 0,-0.02 0,-0.07 0.01,-0.08 0,0.02 0,0.04 0.01,0.07 0,0.02 -0,0.01 -0,0.02 -0,0 -0,0.04 -0,0.04 -0,0.01 -0,0.01 -0,0.02 -0,0.01 -0,0.01 -0.01,0.02zm-0.07 -0.09l0 0 -0 0c0,-0 0,-0 0,-0zm0 -0l0.03 0c-0,0.01 -0.01,0 -0.02,0 -0,0 -0,-0 -0,-0 -0,-0 -0,-0 -0,-0zm0.03 -0c-0.01,-0 -0.03,-0 -0.04,-0 0,-0 0,-0 0.01,-0l0.03 0c0,0 0,0.01 0,0.01 0,0.01 0.01,0 0,0.01 -0,0 -0,-0 -0,0 -0,0.01 0,0 -0,0.01 -0,0 -0.04,0 -0.04,-0 0,-0 -0,-0 0.01,-0 0.03,0 0.03,0 0.03,-0.01 -0,-0 -0.01,-0 -0.02,-0 -0.01,0 -0.01,-0 -0.02,0 -0.01,-0.01 -0.01,0.01 -0.01,-0.01 0.01,0 0,0 0.01,-0 0,0.01 0.01,0 0.02,0 0.01,0 0.01,0 0.01,-0.01zm0.09 -0.22l0 0c-0,-0 -0,-0 -0,-0zm-0.05 -0.01l0 0c-0,0 -0,-0 -0,-0zm0 -0.01l0 -0c0,0 0,0 0,0.01 0,0 0,0.01 0,0.01l-0 0c0,-0 0,-0 -0,-0.01 0,-0 -0,-0 -0,-0l-0 -0c-0,-0 -0,-0 -0,-0zm0.05 0.01l-0 0c0,-0.01 -0,-0.01 0,-0.01 -0,0 -0,0 -0,0.01zm-0.05 -0.01c0,-0 0,-0 0,0 0,0 -0,0 -0,0zm-0 -0c-0,-0 0,-0 0,-0 0,0 0,0.01 -0,0zm0.05 0c0,-0 -0,-0 0,-0.01 0,-0 0,-0 0,-0.01 0,0.01 0,0.01 -0,0.01zm-0.05 -0.01l0 0c0,0 0,0.01 0,0.01 -0,-0 -0,-0.01 -0,-0.01zm0.03 0.25l-0.01 0 -0 0c-0.01,-0.06 -0.01,-0.19 -0.01,-0.26 0,0.01 0.01,0.01 0.02,0.01 0,-0 0,-0 0,-0 -0.01,0 -0.02,0 -0.02,-0.01 -0,-0.01 -0,-0.01 0,-0.02l0 0c-0.01,0.02 0.03,0.03 0.02,-0 0,0 0,0 0,0 0.01,0.01 0.01,0.02 -0,0.03l-0 0c-0,-0 -0,0 -0,0 0.01,-0 0.01,-0 0.01,-0.01 -0,0.06 0,0.13 -0,0.2 -0,0.02 -0,0.04 -0,0.06l-0.01 -0zm-0.04 -0.25l0 0c-0,-0 -0,-0 -0,-0zm0.01 -0.01c-0.01,-0 -0.02,-0 -0.02,-0.01 0,0 0.01,0.01 0.02,0.01 -0,0 -0,0 -0,0 -0,0 -0,0 -0,0 0.01,0 0,-0 0.01,0zm-0.01 -0.01c0,0 0,0 0,0 -0,-0 -0,-0 -0,-0l0 0zm0.04 -0.01c0,0 0,0 0,0.01 0,0 -0.01,0.01 -0.01,0.01 -0.01,0 -0.02,-0 -0.01,-0.02 0,0 0,0 0.01,0.01 0.01,0 0.01,0 0.01,-0l0 -0.01zm0.01 -0c0,0 0.01,0.01 0,0.01l-0 -0.01zm-0.03 -0.01l-0 -0c0,-0 0,-0 0.01,-0 -0,-0 -0,-0 -0,-0 -0,-0 -0.01,-0 -0.01,0l-0 0.01c-0,-0 -0,0 -0,0 -0,-0.01 -0,-0 -0,-0.01 -0,-0 -0,-0.01 0,-0.01 0,-0 0.01,-0 0.01,-0 0,0 0.01,-0 0.01,0 0,0 0,0.01 -0,0.02 -0,0.01 0,-0 -0,0 -0,0 -0,0 -0,0l-0 0c-0,-0 0,-0 -0.01,-0 -0,0 -0,0 -0,0 -0,0 -0,-0 0,0 -0,-0 -0,-0 0,-0 0,-0 0,-0 0.01,-0 0.01,0 0,0.01 0,0.02 -0.01,0 -0.01,0 -0.01,-0 -0,-0 -0,-0.01 0,-0.01zm-0.03 0.01c-0,-0.01 -0.01,-0 -0,-0.01 0,0 0,0 0.01,0 0,-0 0,-0 0.01,-0l-0 0.01c-0.01,-0 0,0 -0.01,-0 0,0.01 0.01,0 0.01,0.01 -0,0 0,0 -0,0 -0,-0 -0.01,-0 -0.01,-0.01 0,0 0,0 0.01,0zm0.06 -0c-0,-0 -0,-0.01 -0,-0.01 -0,-0.01 -0,-0 0,-0.01l0 0.02 -0 -0zm-0.01 -0.01c0,-0.01 -0,-0 0,-0.01 0,-0 -0,-0 0,-0l0 0.02c-0.01,-0 -0.01,-0 -0.01,-0.01zm-0.03 -0.01l0 0c0,0.01 0,0.01 -0,0.01l-0 0 0 -0.02zm-0.2 0.01c0,-0.01 -0,-0 0,-0.01 0,-0 0.01,-0 0.01,-0 0.01,-0 0.03,-0.01 0.04,-0.02l0.01 0.01 -0.05 0.02c-0,-0 -0,-0.01 -0,-0.01 -0,0.01 0,0.01 0,0.01 -0,0 -0.01,-0 -0.01,-0.01 -0,-0 -0,-0.01 -0,-0.01 0,0 0,0 0,0.01zm0.25 -0c0,-0 -0,-0 0,-0.01 0,0 0.01,0.01 0,0.01 0,0 -0,0 0,0 0,-0 0,0 0,-0 -0,0.01 -0,0.01 -0.01,0.01l-0 -0.02c0,0 0.01,0 0.01,-0 -0,0 -0,0 -0.01,0zm0.1 -0.03l0 -0.01 0.01 0 0 0 0.01 0c0,0 -0,0.01 0,0l-0 0.01c0,-0 0,-0 -0,-0l0 0 0 0c0,-0.01 0,-0.01 0.01,-0.01 0,0 0,0 0,0 -0,0 -0,0.01 -0,0.01 -0,0 -0,0 -0,0 0,0.01 0,0.01 0.01,0.01 -0,0 -0.01,-0 -0.01,-0 0,-0 0,0 0,-0 0,-0 0,-0 0,-0 0,-0 0,-0 0,-0 0,-0 0,-0 0,-0 0,-0 0,-0 0,-0 -0,0 -0,0 -0,0l0 -0.01c-0,0 -0,0 -0,0 -0,0 -0,0 -0,0 -0,-0 -0,-0 -0,-0 -0,-0 -0,-0 -0.01,-0 0.01,0 0,-0 0.01,0.01 -0,0 -0,0 -0.01,0 -0.01,-0 -0,-0.01 -0,-0.01 0,-0 0,-0 0,-0 0,-0 -0,-0 -0,-0 -0,-0 -0,0 0,-0zm0.03 0c0.02,0.01 0.04,0.01 0.05,0.02 -0,0.01 -0,0.01 -0.01,0.01 -0.01,-0 -0.02,-0.01 -0.03,-0.01 -0.01,-0 -0.02,-0.01 -0.02,-0.01l0 -0.01zm0.02 0c0,0 0,0 0,0l0.01 0c-0,-0 -0,-0 -0,-0 -0,-0 -0,-0 -0,-0l-0.02 -0.01 0.01 0zm-0.38 0c0,-0 0.01,-0 0.01,-0l0.01 -0 -0.02 0.01zm-0.02 -0c0,0 0,-0 0,-0 0.01,-0 0.04,-0.01 0.04,-0.01 0.01,-0 0,0 0,-0 0,-0 0,-0 0,-0 0.01,0 0.03,-0.01 0.03,-0.01 0,0 0,0 0,0 -0.01,0 -0.01,0 -0.02,0 -0.01,0 -0.01,0.01 -0.01,-0 -0,0 -0,0.01 -0,0.01 -0,0 0,-0 -0.01,-0 -0,0 -0.01,0.01 -0.01,0.01 0,0 0,-0 0.01,0 -0.01,0 -0.02,0.01 -0.03,0.01 -0,-0 -0,0 0,-0 0,-0 0,0 0,-0 -0,0 -0.02,0 -0.02,0l0 -0zm0.06 -0.02c-0.01,-0 -0.01,-0 -0,0.01 0,-0 0,-0 0,-0.01zm0 -0c0,0 -0,0 -0,0 0,-0 0,0 0,-0zm0.12 0.01l0 -0 0 -0.02c0,-0 0,0 0,-0 0,-0.01 -0.03,-0.02 -0.04,-0.02 -0.05,-0.02 -0.09,0.01 -0.1,-0.02 -0,-0.01 -0,-0.05 -0,-0.06 0,-0.02 0.01,-0.03 0.02,-0.04 0.01,-0.01 0.03,-0.01 0.04,-0.01 0.04,-0.01 0.08,-0 0.11,-0 0.05,0 0.07,-0 0.11,0.01 0.02,0 0.03,0 0.04,0.02 0.01,0.01 0.01,0.02 0.01,0.05 0,0.07 0.01,0.06 -0.06,0.06 -0.02,0 -0.05,0.01 -0.07,0.02 -0,0 -0.01,0.01 -0.02,0.01 -0,-0 0,-0.01 0.01,-0.01l-0 -0c-0,-0 -0,0 -0,0l0 -0.14 -0.05 0 0 0.14c-0.01,-0 -0.01,-0 -0.01,-0.01l0 -0.06c0,-0.02 0,-0.05 0,-0.07 -0.01,-0 -0.05,-0 -0.06,0 -0.04,0.01 -0.07,0.01 -0.07,0.05 0,0.01 -0,0.05 0,0.06 0.03,0 0.05,-0 0.08,0 0.01,0 0.02,0.01 0.03,0.01 0,0 0.02,0.02 0.02,0.02 -0,0 -0,0 -0.01,0 0,0 0,0 0,0l0 0.02 -0.01 0 0 -0zm0.2 -0.06c0,-0.01 0,-0.05 0,-0.06 -0,-0.05 -0.03,-0.04 -0.07,-0.05 -0.01,-0 -0.05,-0 -0.06,-0l0 0.14c0,-0 0.01,-0.01 0.03,-0.01 0.06,-0.02 0.06,-0.01 0.1,-0.01zm-0.31 0.07c-0.01,-0.01 -0,-0.02 0,-0l-0 0zm0.02 -0l0 -0c0.01,-0 0.02,-0.01 0.02,-0 -0.01,0 -0.01,0.01 -0.02,0.01zm-0.01 -0.02l0 0.01c-0.01,0 -0.01,0 -0.01,0 -0,-0.01 -0,-0 -0.01,-0.01l0.01 -0zm0.14 0c0,0 0,0 0,0.01 -0,-0 -0,-0 0,-0.01zm0.12 -0.01c0,-0 0.01,-0 0.01,0 0.01,0 0.01,0.01 0.01,0 0,0 0.01,0 0.01,0l0 0c0.01,-0 0.01,0 0.01,0 -0,0 -0,0 -0.01,-0 -0,0 -0,0 -0,0l-0 0c-0,-0 -0,0 -0,0 -0.01,-0 -0.01,0 -0.01,-0 -0,-0 -0,-0 0,-0.01 -0,0 -0,0 -0.01,0l0 0 -0.02 -0.01c0.01,0 0.01,0 0.01,0l-0.01 -0c-0,-0 -0,-0 -0,-0 -0,-0 -0.01,0.01 -0.01,-0.01l-0 0zm0.03 0.01c0,0 0,0 0,0l-0 -0c-0,-0 0,0 0,0zm-0.02 -0.01c-0,0 0,0 0,0 0,0 -0,-0 -0,-0zm-0.01 0.01l-0 0c-0.03,-0.01 -0.03,-0.01 -0.05,0.01 -0.02,0.01 -0.03,0.01 -0.06,0.01 -0,-0 -0,-0 -0,-0l0 -0.01c0.04,-0 0.03,0.01 0.06,-0.01 0.02,-0.01 0.03,-0.01 0.06,-0l-0 0.01zm-0.14 0.02l0 0c-0.03,0 -0.04,0 -0.06,-0.01 -0.03,-0.02 -0.02,-0.01 -0.05,-0l-0 -0 -0 -0 -0 -0.01c0.02,-0.01 0.04,-0.01 0.06,0 0.03,0.02 0.02,0.01 0.06,0.01l0 0.01zm-0.01 -0.02c-0,-0 0,-0 0,-0 0,0 0,0.01 -0,0zm-0.06 -0c0.02,-0 0.03,-0.01 0.04,-0 0,0 0,0.01 -0,0.01 -0,0.01 -0.01,0.01 -0.01,0.01 -0.01,0 -0.03,-0.01 -0.03,-0.02zm0.11 -0c0,0 0,0.01 0,0.01 -0,0.01 0,0 -0,0.01l0 -0.01c-0,-0 -0,-0 -0,-0l0 0.02c-0,0 -0,0 -0,0 -0,-0.01 0,-0.02 0,-0.03 0.01,0 0,0 0.01,0l-0 0.01zm-0.06 -0l0 0c-0,-0 -0,-0 -0,-0zm0.01 0.02c-0,-0 -0,-0.03 -0,-0.03l0.04 0c-0,0.01 -0,0.01 -0,0.02 0,0.01 0,0.01 0,0.02 -0,-0 -0.01,-0.01 -0.01,-0.01l-0 -0c-0,-0 -0,-0 -0,-0 -0,-0 0,0 -0,-0 -0.01,-0 -0.01,0 -0.01,0 -0,0 -0,0 -0,0 -0,0 -0,0 -0,0l-0.01 0.01zm-0.09 -0.02c0.01,-0 0.02,-0.01 0.03,-0 0.01,0 0.02,-0 0.03,0l0.01 0 0 0.01c-0.01,0 -0.01,-0 -0.01,-0l-0.01 -0c0,-0 0,-0 0,-0l-0.02 0c-0,0 -0.01,0 -0.01,0 -0.01,0 -0,0 -0.01,-0 -0.01,-0 -0.01,-0 -0.02,-0l-0.01 0 0 -0c0,-0 0,-0 0.01,-0zm-0.01 0l0 -0 -0 0zm0.23 -0c-0,0 0,0 0,0 0,0 -0,-0 -0,-0zm-0.01 0c-0.02,0.01 -0.01,0 -0.04,0.02 -0.01,0.01 -0.01,0.01 -0.03,0.01 -0,-0.01 -0,-0 -0.01,-0.01 -0,-0 -0,-0.01 -0,-0.01 0,0 0.01,-0 0.02,-0 0.03,-0 0.02,-0.01 0.05,-0.01l0.01 0 -0 0c0,0 0,-0 0,0l-0.02 -0zm-0.07 0l0 -0.01 0.01 -0c0.01,-0 0.01,-0 0.02,-0l0.01 0c-0,0 -0.01,0 -0.01,0 -0,0 -0.01,0 -0.01,0 -0.01,0 -0.02,0 -0.02,0zm-0.05 -0.1l0 -0c-0,-0 -0,-0 0,-0 -0,-0 -0,-0 0,-0 -0,-0 -0,-0 0,-0 -0,-0 -0.01,0 -0.01,0.01l0 -0.05 0.04 0 0 0.05c-0,-0 -0,-0 -0,-0l-0.01 -0.01c-0,-0 -0.01,-0 -0.01,0 -0,0 -0,0 -0,0l0 -0c-0,-0 -0,-0 0,-0 0.01,0 0.01,0 0.02,0 0,-0 0,-0 0,0 0,-0 0,-0 0,0 0,-0 0,-0 0,0 0,-0 0,-0 0,0 0.01,0.01 0,0.07 0,0.08l-0.04 -0c-0,-0.02 -0,-0.06 0,-0.08zm0.04 0.08c0,-0 0,-0 0,0 0,0 -0,0 -0,0zm-0 -0.13l0 0 0 0.11 -0 0 0 -0.11zm-0.05 0l0 0 0 0.11 -0 0 0 -0.11zm0.18 0.11l-0.05 0c-0.02,-0 -0.06,0.02 -0.07,0.02l0 -0.13c0.04,0 0.04,-0 0.08,0.01 0.01,0 0.02,0 0.03,0.01 0.01,0.01 0.01,0.04 0.01,0.06 0,0 0,0.01 0,0.01 0,0.01 0,0.01 -0.01,0.01zm-0.25 0l-0.05 0c-0.02,-0 -0.01,0 -0.01,-0.05 0,-0.03 0,-0.05 0.04,-0.05 0.01,-0 0.02,-0 0.03,-0.01 0.02,-0 0.04,-0 0.06,-0l0 0.13c-0.01,-0.01 -0.01,-0.01 -0.03,-0.01 -0.01,-0 -0.02,-0.01 -0.03,-0.01zm0.08 -0.12c0,-0.01 0,-0.02 0.02,-0.02 0.02,-0 0.02,0.01 0.02,0.02l-0.04 -0z"/>
   <path class="fil1" d="M0.22 0.53c-0.03,0.01 0,0.06 -0.04,0.1 -0.01,0.01 -0.02,0.03 -0.01,0.05 0.01,0.01 0.03,0.02 0.05,0.02 0.04,-0 0.05,-0.03 0.05,-0.05 -0.01,-0.02 -0.03,-0.02 -0.03,-0.07 -0,-0.02 0,-0.05 -0.02,-0.04z"/>
   <polygon class="fil2" points="0.2,0.9 0.26,0.9 0.27,0.78 0.2,0.78 "/>
   <path class="fil3" d="M0.22 0.09l-0 0 -0 0c-0,0 -0,0 -0,0 0,0 0,0 -0,0 0,0 0,0 -0,0 0,0 0,0 -0,0 -0,0.02 -0,0.06 -0,0.08l0.04 0c0,-0.02 0,-0.07 -0,-0.08l-0 -0 -0 -0 -0 -0 -0 -0c-0.01,-0 -0.01,-0 -0.02,-0l-0 0z"/>
   <path class="fil0" d="M0.27 0.88l0.01 0 0 0.02 -0.01 0 0 -0.02zm-0.07 -0.1l0.07 -0 -0 0.13 -0.07 0 0 -0.13zm-0.02 0.11c0,-0 0,-0 0.01,-0l0 0.02 -0.01 0 0 -0.02zm0 -0.01l0 -0.08c0,0 0,-0 0.01,0 0,0.01 0,0.07 0,0.08 0,0 -0,0 -0.01,0zm0.09 -0.08c0.01,-0 0,-0.01 0.01,-0.01l0 0.08c-0.01,0 -0.01,-0.01 -0.01,-0.04 0,-0.01 0,-0.03 0,-0.04zm-0.08 0.01c0,-0 0,-0.01 0,-0.01 0,-0.01 -0,-0.01 0,-0.02l0.01 0 -0 0.13 -0.01 -0c-0,-0.01 -0,-0.05 -0,-0.07 0,-0.01 -0,-0.02 -0,-0.03zm0.09 -0.02l0 -0 0 0c-0,0 -0,0 -0,0zm0 -0.01c-0,0 -0,0 -0.01,0 0,-0 -0,-0 0,-0 0,-0 0,0 0,0zm-0.09 0c0,-0 0,0 0,0 -0,0 -0,0 -0,-0zm-0.01 0.12l0.11 0 0 -0.13 -0.11 0 0 0.13z"/>
   <path class="fil1" d="M0.24 0.09c0,-0 0,-0 -0,-0 0,-0 0,-0 -0,-0l0 0 0 0 0 0 0 0c0,-0 0,-0 -0,-0 0,-0 0,-0 -0,-0zm-0.02 -0c-0,-0 -0,-0 -0,0 -0,-0 -0,-0 -0,0 -0,-0 -0,-0 -0,0l-0 0c0,0 0,0 0,-0 0,-0 0,0 0,-0 0,0 0,0 0,-0 0,0 0,0 0,-0l0 -0c-0,-0 -0,-0 0,-0 0,-0 0.01,-0 0.01,-0l0.01 0.01c0,0 0,0 0,0l0 -0.05 -0.04 -0 -0 0.05c0,-0 0,-0.01 0.01,-0.01zm0 -0c-0,0 -0,-0 -0,0l0 -0z"/>
   <path class="fil2" d="M0.25 0.93l0 -0c0,-0 0,-0 0,-0 0,-0 0,-0.01 0,-0.01l-0.06 0 -0 0.02c-0,-0 -0,-0 -0,-0.01 0,-0.01 -0,-0.01 -0,-0.01 0,0.01 0,0.01 -0,0.02 0,0 0,0 0.01,0 0,0 0,0 0.01,0 0,-0 0,-0 0,-0l0 -0c0,0.02 0,0.01 0.03,0.02 0.01,0 0.01,-0 0.01,-0.01l0 -0z"/>
   <path class="fil2" d="M0.18 0.9l0.01 0 0 -0.13 -0.01 -0c-0,0.01 0,0.01 -0,0.02 -0,0 -0,0 -0,0.01 -0,0.01 0,0.02 0,0.03 -0,0.01 -0,0.06 0,0.07z"/>
   <path class="fil0" d="M0.25 0.94c0,0 0,-0 0,0 -0,-0 -0,-0 -0,-0zm-0.05 0l0.01 0c-0,0.01 -0,0 -0.01,0l0 -0zm-0.01 -0.01c-0,-0 -0,0 -0,-0 -0,-0 -0,-0.01 -0,-0.01l0.01 -0c0,0 0,0.01 0,0.01l-0 0.01c-0.01,-0.01 -0,-0 0,-0.01zm0.07 0.01c0,-0.01 0.01,-0 0.01,-0.03l0.01 0c0,0.01 -0,0.03 -0.02,0.03zm-0.08 -0.03c0.01,0 0.01,0 0.01,0.01 0,0.01 0.01,0.01 0.01,0.01 -0.01,-0 -0.02,-0.01 -0.02,-0.03zm0.09 0.02c-0,0.01 -0,0.01 -0.01,0l-0 0c-0,0 -0,0 -0,0l-0 -0c-0,-0 -0,0 -0,-0 0,-0 0,-0 0,-0l-0 0c-0,0.01 0,0.01 -0.01,0.01 -0.03,-0 -0.03,0 -0.03,-0.02l-0 0c-0,0 -0,0 -0,0 -0,0 -0,-0 -0.01,-0 -0,-0 -0,-0 -0.01,-0 0,-0.01 0,-0.01 0,-0.02 0,0 0,0 0,0.01 -0,0 -0,0.01 0,0.01l0 -0.02 0.06 -0 0 -0 0.01 -0 -0 0.01c-0,0 -0,0 -0,0 0,0 0,0 -0,0.01zm-0 0l-0 -0 -0 0 -0 0 0 -0 0 -0zm0 -0.01l0 0c-0,-0 -0,-0 -0,-0zm-0.04 0.02c0.01,-0 0.03,0 0.04,-0 0.01,-0 0.02,-0.02 0.01,-0.03 -0.01,-0 -0.09,-0 -0.1,-0 -0,0.04 0.02,0.03 0.05,0.03z"/>
   <path class="fil1" d="M0.24 0.72c-0,-0.01 0,-0 0,0 0,0 -0,0 -0,0 -0,0 -0,0.01 -0,-0zm-0.03 0c0,0 -0,0.01 0,0.01 0,-0 -0,-0 0,-0.01l0 0.01c0.01,0 0.02,0 0.02,-0l0 -0.01c0.01,0 0,0.01 0,0.01 0,-0 0,-0.01 -0,-0.01 -0,-0 -0,-0 -0,-0l-0 -0c-0,-0 -0,-0 -0,-0.01 0,-0 0,-0.01 -0,-0.01 -0.01,-0 -0.02,-0 -0.03,-0l-0 0.02c-0.01,-0.01 -0,-0.01 -0,-0.02 -0,0 -0,-0 -0,0.01 0,0.02 0,0.01 0,0.02 0,0.01 -0,0 -0,0z"/>
   <path class="fil1" d="M0.01 0.24c-0,-0 -0,-0 -0,-0.01 -0,0 -0,0.01 0,0.01 0,0 0,0.01 0.01,0.01 -0,-0.01 -0,-0.01 -0,-0.01 0,0 0,0.01 0,0.01l0.05 -0.02 -0.01 -0.01c-0.01,0 -0.03,0.01 -0.04,0.02 -0,0 -0.01,0 -0.01,0 -0,0 0,0 -0,0.01z"/>
   <path class="fil4" d="M0.09 0.21l0 0c0.05,-0.02 0.05,0.01 0.08,0.01 0.01,0 0.02,0 0.04,0l0 -0.01c-0.04,0 -0.04,0 -0.06,-0.01 -0.02,-0.01 -0.04,-0.01 -0.06,-0l0 0.01z"/>
   <path class="fil4" d="M0.24 0.22c0.02,0 0.04,0 0.06,-0.01 0.02,-0.01 0.03,-0.01 0.05,-0.01l0 -0.01c-0.03,-0.01 -0.03,-0.01 -0.06,0 -0.03,0.02 -0.02,0.01 -0.06,0.01l-0 0.01z"/>
   <path class="fil3" d="M0.21 0.21l0.01 -0.01c0,-0 0,-0 0,-0 0,-0 0,-0 0,-0 0,-0 0.01,-0.01 0.01,-0 0,0 0,0 0,0 0,0 0,0 0,0l0 0c0,0 0.01,0.01 0.01,0.01 -0,-0.01 0,-0.01 -0,-0.02 -0,-0.01 -0,-0.01 0,-0.02l-0.04 -0c-0,0.01 -0,0.03 0,0.03z"/>
   <path class="fil1" d="M0.39 0.23c0.01,0 0.02,0.01 0.02,0.01 0.01,0 0.02,0.01 0.03,0.01 0.01,-0.01 0,-0.01 0.01,-0.01 -0.02,-0.01 -0.04,-0.01 -0.05,-0.02l-0 0.01z"/>
   <path class="fil1" d="M0.21 0.03l0.04 0c0,-0.01 -0,-0.02 -0.02,-0.02 -0.02,0 -0.02,0.01 -0.02,0.02z"/>
   <path class="fil1" d="M0.29 0.59c-0,0 -0,0 -0,0 -0,-0 -0,-0 0,-0zm-0 0.02c0.01,0 0.04,0 0.04,-0 -0,-0 -0,-0 -0.01,-0 -0.01,0 -0.03,0 -0.03,-0 -0,-0.01 0.01,-0.01 0.01,-0.01 0.01,-0 0.01,-0 0.02,0l0 -0c0,-0 0,0 0.01,0l0 -0.01c-0,0 -0,0 -0,0 -0,0 -0,0 -0,0 -0.01,0 -0,-0 -0.01,0 -0,0 -0,0 -0,0 -0.01,0 -0.02,0 -0.03,0 -0,-0.01 -0,-0.01 -0,-0.01l-0 0c-0,0.01 -0.01,0 -0,0.01 0,0 0,0 0,0 0,0.01 -0,0.01 0,0.01z"/>
   <path class="fil5" d="M0.12 0.52c0.01,-0 0.03,-0 0.04,0 -0,0.01 -0,0.01 -0.01,0.01 -0.01,-0 -0.02,0 -0.02,-0 -0,0 -0,0 -0.01,0 -0,0.02 0,-0 0.01,0.01 0.01,-0 0.01,-0 0.02,-0 0.01,-0 0.01,-0 0.02,0 0,0.01 0,0.01 -0.03,0.01 -0.02,-0 -0.01,-0 -0.01,0 0.01,0 0.04,0 0.04,0 0,-0 0,-0 0,-0.01 0,-0.01 -0,-0 0,-0 0.01,-0.01 0,-0 -0,-0.01 -0,-0 -0,-0.01 -0,-0.01l-0.03 -0c-0.01,0 -0.01,0 -0.01,0z"/>
   <path class="fil6" d="M0.09 0.21l-0 -0 0 0 0 0c0.03,-0.01 0.03,-0.01 0.05,0 0.02,0.01 0.03,0.01 0.06,0.01l-0 -0c-0.01,-0 -0.02,0 -0.04,-0 -0.04,-0.01 -0.03,-0.03 -0.08,-0.01z"/>
   <path class="fil6" d="M0.24 0.22c-0,0 -0,0 0,0 0.03,0 0.04,0 0.06,-0.01 0.02,-0.01 0.03,-0.02 0.05,-0.01l0 -0c-0.03,-0.01 -0.03,-0.01 -0.05,0.01 -0.02,0.01 -0.04,0.01 -0.06,0.01z"/>
   <path class="fil1" d="M0.21 0.74l0 0.02 0.02 -0 -0 -0.02c-0.01,-0 -0.02,-0 -0.02,-0z"/>
   <path class="fil6" d="M0.05 0.21l-0.01 0c-0,0 -0.01,0 -0.01,0l0.02 -0.01zm0.02 -0.01c0,0.01 0,0 -0,0 0,-0 0,0 0,-0zm-0.01 0.01c-0,-0.01 -0,-0.01 0,-0.01 -0,0 -0,0 -0,0.01zm-0.05 0.01c0,0 0.02,-0 0.02,-0 0,0 0,-0 -0,0 -0,0 -0,-0 -0,0 0.01,-0 0.02,-0.01 0.03,-0.01 -0,-0 -0,-0 -0.01,-0 0.01,-0 0.01,-0.01 0.01,-0.01 0.01,-0 0,0 0.01,0 0,-0 0,-0 0,-0.01 0,0.01 0.01,0 0.01,0 0.01,-0 0.01,-0 0.02,-0 -0,-0 -0,-0 -0,-0 -0.01,0 -0.03,0.01 -0.03,0.01 -0,-0 -0,-0 -0,0 -0,0 0,0 -0,0 -0.01,0 -0.03,0.01 -0.04,0.01 -0,0 -0,0 -0,0l-0 0z"/>
   <path class="fil1" d="M0.19 0.56c0,-0 0,-0 -0,-0 0,0 -0,0 0,0zm-0.02 -0.03c0,0 0,0 0,0 0,0 0,-0 0.01,0.01 0,0 0,0.02 0.01,0.02 0.01,0.01 -0,0 0.01,0.01 0,-0.01 0,-0.01 0,-0.02 -0.01,0 -0.01,0 -0.01,0l-0 -0c-0,-0.01 -0.01,-0.01 -0.01,-0.02 -0,-0 0,-0 -0,-0.01 -0.01,-0 -0,-0 -0,0 -0,0 -0,0 -0,0l-0 0c-0,0 -0,0 -0,0l-0 0z"/>
   <path class="fil1" d="M0.24 0.72l0 0c0,-0 -0,-0 -0,-0zm0 -0.01l0 0 0 0.01 -0 0 0 -0.01zm0 0.02l-0 -0 0 -0 0 0.01c0,-0 0,-0 0,-0 0,-0 0,-0 0,-0l-0 -0.03c-0,-0.01 -0,-0.01 -0.01,-0.01l-0 0c-0,0 -0,0 -0,0 -0,-0 -0.01,-0 -0.02,-0l-0.03 0c0,0 0.02,0 0.02,0 0.01,-0 0.02,0 0.02,0l0 0.01c-0,-0.01 0,-0 -0,-0.01 0,0.01 0,0.01 0,0.01 0,0 0,0 -0,0.01 -0,0 0,-0 -0,0 -0.01,0.01 0,-0.01 -0,0 0.01,0 0,-0 0,0 0,0 -0,0 0,0.01 0,-0 0,0 0,-0.01z"/>
   <path class="fil7" d="M0.21 0.96c-0.01,-0 -0.01,0 -0.01,0 0,0 -0,0 0,0l0.02 0c0.01,-0 0.02,-0 0.02,0l0 -0.01 -0.04 -0z"/>
   <path class="fil5" d="M0.26 0.57l0 0c0,0.01 0,0.01 0,0.01 0,0.01 0,0.01 0.01,0.01 0,-0.01 0,-0 -0,-0.01 -0,-0.01 -0.01,-0.02 -0.01,-0.03l-0.01 -0c-0,0.01 0,0.01 0.01,0.01z"/>
   <path class="fil5" d="M0.38 0.2l0 0c-0,0 -0,-0 -0,-0 -0,-0 -0,-0 -0,-0zm-0.01 -0.01c0,-0 0,0 0,0 -0,0 -0,0 -0,-0zm-0.02 -0.01l0 -0c-0,0.01 0,0 0.01,0.01 0,0 0,0 0,0l0.01 0c-0,-0 -0.01,-0 -0.01,-0l0.02 0.01 -0 -0c0.01,0 0.01,0 0.01,-0 -0,0 -0,0 -0,0.01 0,0 0,-0 0.01,0 0,-0 0,-0 0,-0l0 -0c0,0 0,-0 0,-0 0.01,0 0.01,0 0.01,0 -0,-0 0,-0.01 -0.01,-0l-0 -0c-0,-0 -0.01,-0 -0.01,-0 0,0 0,0 -0.01,-0 -0,-0 -0.01,-0 -0.01,0z"/>
   <path class="fil1" d="M0.37 0.21l-0 0 0 -0c0,0 0,-0 0,0 0,0 0,-0 0,0l0 -0.01c-0,0 -0,0 -0,-0l-0.01 -0 -0 -0c0,0 -0,0 0,0l-0 0 -0.01 -0c-0,0 -0,0 -0,0 0,0 0,0 0,0 0,0 -0,0 -0,0 -0,0 -0.01,0 0,0.01 0,0 0,0 0.01,-0 -0.01,-0.01 -0,-0 -0.01,-0.01 0.01,-0 0.01,-0 0.01,0 0,0 0,0 0,0 0,-0 0,-0 0,-0 0,-0 0,-0 0,-0l-0 0.01c0,-0 0,-0 0,-0 -0,0 -0,0 -0,0 0,0 0,0 0,0 0,0 0,0 0,0 0,0 0,0 -0,0 -0,0.01 -0,-0 -0,0 0,0 0.01,0.01 0.01,0 -0,0 -0.01,0 -0.01,-0.01 -0,-0 -0,-0 0,-0 0,-0 0,-0 0,-0.01 0,-0 -0,-0 -0,-0 -0,0 -0,-0 -0.01,0.01l-0 -0z"/>
   <path class="fil6" d="M0.23 0.26c-0.01,0 -0.01,0 -0.01,0 -0,-0.01 -0,-0 -0.01,-0.01 -0,0.01 0.01,0.02 0.01,0.02 0,-0 0.01,-0.01 0.01,-0.01 -0,-0 -0,-0 -0,-0.01l-0 0.01z"/>
   <path class="fil8" d="M0.4 0.21l0.02 0.01c0,0 0,0 0,0 0,0 0,0 0,0l-0.01 -0c-0,-0 -0,-0 -0,-0l-0.01 -0zm0.02 0.01l0 -0c-0,-0 -0,0 0,-0 0.01,0 0.01,0 0.02,0 -0,-0 -0.01,-0 -0.03,-0.01 -0.01,-0 -0.02,-0.01 -0.02,-0.01 0,0.01 -0,-0 0,0 0,0 0,0 0,0l-0 0c-0,0 -0,0 -0,0l0 0c0,-0 -0,-0 -0,-0 0,-0 -0,-0 -0,-0 0,-0 0,-0 0,-0 0,0 0,0 0,0 0,0 0.02,0.01 0.02,0.01z"/>
   <path class="fil5" d="M0.24 0.21l0 0.01c-0.01,0 -0.01,0 -0.02,0 -0.01,-0 -0,-0.01 -0,-0.01 -0,0 -0,0.01 -0,0.01 0,0.01 0,0 0,0.01 0,-0 0,-0 0,-0l0 -0.01c0,-0 0.01,-0 0.01,0 0,0 0,0 0,0 -0.01,-0 -0.01,-0 -0.01,0l0 0c0,0 0,0 0,-0l0 -0c-0,-0 -0,-0 -0,0 -0,-0 -0,-0 -0,-0 0,-0 0,-0 0,-0 0.01,-0 0.01,0 0.01,0l0 -0c0,-0 0,-0 0,-0 0,-0 -0,0 0,-0 0,-0.01 0,-0.02 0,-0.02z"/>
   <path class="fil6" d="M0.22 0.24l-0 0c0,0 0,0 -0,0 -0,0 -0,0.01 -0,0.01 0,0 0.01,0 0.01,0 0,-0 0,-0.01 -0,-0.02 -0,-0 -0,-0 -0.01,0z"/>
   <path class="fil8" d="M0.22 0.22c0.01,-0 0.01,-0 0.01,0 0,0.01 -0.01,0.01 -0.01,0.01 -0,-0 -0,-0 -0,-0.01zm0.02 -0c-0,-0 -0.01,-0 -0.01,-0 -0,-0 -0.01,-0 -0.01,0 0,0.01 -0,0.01 0,0.01 0.01,0 0.01,0 0.02,-0l-0 -0.01z"/>
   <path class="fil5" d="M0.26 0.24c0,-0 0,-0 0.01,-0 -0,0.01 -0.01,0 -0.01,0l0 0.02c0.01,0 0.01,-0 0.01,-0.01 -0,0 -0,0 -0,0 -0,0 -0,0 -0,-0 0.01,-0.01 0,-0.01 -0,-0.01 -0,0 -0,0 -0,0.01z"/>
   <path class="fil1" d="M0.08 0.21c0,0.01 0,0.01 0.01,0.01 0,-0 0.01,-0 0.01,-0l-0 -0.01 -0.01 0z"/>
   <path class="fil6" d="M0.19 0.25c-0,-0 -0,-0 -0.01,-0 0,0.01 0.01,0.01 0.01,0.01 0,0 0,0 0,-0 -0,-0.01 -0.01,0 -0.01,-0.01 0.01,0 -0,0 0.01,0l0 -0.01c-0,0 -0,0 -0.01,0 -0,-0 -0,-0 -0.01,-0 -0,0.01 0,0 0,0.01z"/>
   <path class="fil5" d="M0.26 0.2l0 -0 0 -0.01c-0.01,0 -0,0 -0.01,-0 0,0.01 -0,0.02 0,0.03 0,0 0,0 0,-0l-0 -0.02c0,0 0,0 0,0z"/>
   <path class="fil4" d="M0.22 0.23c0,0 0.02,0.01 0.01,-0.01 -0.01,-0 -0.01,-0 -0.01,0 0,0 -0,0 0,0.01z"/>
   <path class="fil5" d="M0.26 0.93l0 -0.01 -0 -0 -0.01 0 -0 -0.01 -0 0c0,0.01 0,0.01 -0,0.01 -0,0 -0,0 -0,0l-0 0c-0,0 -0,0 -0,0 0,0 0,0 0,0l0 0c0,-0 0,-0 0,-0l0 -0c0,0 0,0 0.01,-0l-0 0 -0 0 -0 0c-0,-0 -0,0.01 -0,-0 0.01,0 0,-0 0,0z"/>
   <path class="fil2" d="M0.26 0.91l0 0.01 0.01 -0c0,-0 0,-0 0,0l-0 0.01c-0,-0 0,-0 -0,-0 0,0.01 -0,0 0,0l0 -0 0 -0 0 0 0 -0c0,-0.01 0,-0.01 0,-0.01 0,-0 0,0 0,-0l0 -0.01 -0.01 0z"/>
   <path class="fil2" d="M0.19 0.93c-0,0 -0.01,-0 -0,0.01l0 -0.01c0,-0 -0,-0.01 -0,-0.01l-0.01 0c0,0 -0,0.01 0,0.01 0,0.01 0,0 0,0z"/>
   <path class="fil3" d="M0.2 0.77c0,-0 0,0 0,-0.01 0,-0.01 0,-0.01 -0,-0.01 -0,0 -0,0.01 -0,0.01 -0,0.01 -0,0.01 0,0.01z"/>
   <path class="fil9" d="M0.24 0.24c0,0.01 -0,0.01 0.01,0.01l-0 -0.02c-0,0 -0,-0 -0,0 -0,0 -0,-0 -0,0.01z"/>
   <path class="fil9" d="M0.21 0.25l0 -0c0,-0 0.01,-0.01 0,-0.01l-0 -0 -0 0.02z"/>
   <path class="fil9" d="M0.19 0.26c0,-0 0,-0 0,0 -0,-0 -0,0 -0,-0l-0 -0zm0.01 0.01c-0,-0.01 0,-0 -0.01,-0 0,-0 -0,-0 0,-0 0,-0 0,-0 0,-0 -0.01,0 -0.01,-0 -0.02,-0.01 0,0.01 0.01,0.01 0.02,0.01z"/>
   <path class="fil6" d="M0.08 0.22l0 -0c-0.01,-0.02 -0.01,-0.01 -0,0z"/>
   <path class="fil6" d="M0.36 0.21l0.01 0 0 -0c-0,0 -0,0 -0,-0l-0.01 -0 -0 0.01z"/>
   <path class="fil9" d="M0.25 0.25l0 0 -0 -0.02c-0,0 -0,-0 -0,0.01 0,0 0,0.01 0,0.01z"/>
   <path class="fil3" d="M0.34 0.19c0,-0 0.01,0 0,0 0,0 -0,0 -0,-0zm-0.01 -0c-0,0 -0,0 -0,0l0.02 0c-0,-0 0,-0 -0,-0l0 -0 -0.01 -0z"/>
   <path class="fil3" d="M0.11 0.19l-0 0 0 -0zm0 0l0 -0c-0,0 -0.01,-0 -0.01,0l-0 0 0.01 -0z"/>
   <path class="fil9" d="M0.25 0.26c0.01,-0 0,-0.01 -0,-0.01l0 0.01z"/>
   <path class="fil2" d="M0.27 0.78c0,0 0,0 0.01,0 -0,-0 0,-0 -0,-0 -0.01,0 -0,0 -0,0z"/>
   <path class="fil4" d="M0.37 0.21l-0 -0c-0,-0 0,-0 -0,-0l-0 0 0 -0z"/>
  </g>
  <path class="fil10" d="M0.07 0.15c-0,-0.01 -0,-0.04 -0,-0.06 0,-0.05 0.03,-0.04 0.07,-0.05 0.01,-0 0.05,-0 0.06,-0 0,0.02 -0,0.05 -0,0.07l-0 0.06c0,0.01 -0,0.01 0.01,0.01l-0 -0.14 0.05 -0 0 0.14c0,-0 0,-0 0,0l0 0c-0,0 -0.01,0 -0.01,0.01 0.01,0 0.01,-0 0.02,-0.01 0.02,-0.01 0.04,-0.02 0.07,-0.02 0.07,-0 0.06,0.01 0.06,-0.06 0,-0.02 0,-0.03 -0.01,-0.05 -0.01,-0.01 -0.02,-0.01 -0.04,-0.02 -0.04,-0.01 -0.06,-0.01 -0.11,-0.01 -0.04,-0 -0.08,-0 -0.11,0 -0.02,0 -0.03,0 -0.04,0.01 -0.01,0.01 -0.02,0.02 -0.02,0.04 0,0.01 -0,0.05 0,0.06 0.01,0.02 0.05,-0 0.1,0.02 0.01,0 0.04,0.02 0.04,0.02 -0,0 -0,0 -0,0l-0 0.02 -0 0 -0 0 0.01 -0 -0 -0.02c-0,-0 -0,-0 -0,-0 0,-0 0.01,-0 0.01,-0 -0,-0 -0.02,-0.02 -0.02,-0.02 -0.01,-0.01 -0.02,-0.01 -0.03,-0.01 -0.03,-0.01 -0.06,0 -0.08,-0zm0.12 0.54c-0,0.02 -0.01,0.06 -0.01,0.08 0.01,-0 0.01,0 0.01,-0.02l0 -0.03c-0,0.01 -0,0.02 -0,0.03l0 -0c-0,0.01 -0,0.01 -0,0.02 -0,-0 0,-0.01 0,-0.01 -0,0 -0,0 -0,0 0,0 0,0 -0,0 -0,0 -0,0.02 0,0.02l-0.02 -0c-0,-0.01 -0,-0.06 0,-0.07 0,-0.01 0.01,-0.01 0.01,-0.01 -0.03,0 -0.02,0.04 -0.02,0.07 -0,0.03 0,0.06 -0,0.09 -0,0.1 -0.01,0.11 0.06,0.11 0.03,-0 0.05,0 0.06,-0.03 0,-0.05 0,-0.12 0,-0.17 -0,-0.02 0,-0.05 -0.02,-0.06 -0,-0 -0,-0 -0,-0 -0.01,0 -0,0 -0,0l-0.01 0c0,0.01 0,0.02 0,0.02l-0 -0.02c-0,0 -0,0.01 -0,0.01l0 0.03 0 0.01c-0,0 -0,0.01 -0,0.01 -0,0.01 0,0.01 0,0.01 0.01,-0.01 -0,-0.01 -0,-0.02 0,0 0,0 0,0l-0 -0.04c0,0.01 0,0.04 0,0.05l0.01 0 -0 -0.07c0,-0 -0,-0 0,-0 0,0 0.01,0 0.01,0.01 0,0.01 0,0.06 0,0.06l-0.08 -0c0,-0.01 0,0 0,-0.01 -0,-0.01 0,-0.04 0,-0.04 0,0.01 -0,0.02 0,0.02 0,-0 0,-0.01 0,-0.01l0 -0c-0.01,-0.01 0,-0.01 -0.01,-0.02 0,-0.01 0,-0 -0,-0 -0,0 -0,0.01 -0,0.01l-0 0 0 -0.01 -0 0 0 -0c-0,-0 -0.01,-0 -0.01,-0.01zm-0.02 0.08l0.11 0 -0 0.13 -0.11 -0 -0 -0.13zm0 0.14c0.01,-0 0.1,-0 0.1,0 0,0.01 -0,0.02 -0.01,0.03 -0.01,0 -0.03,0 -0.04,0 -0.03,0 -0.06,0 -0.05,-0.03zm0.07 -0.42l-0 0.03c-0,0.01 0,0 0,0.01 0,0.01 0,0.03 0.01,0.04 0,0.01 0,0.03 0.01,0.03l0 0c-0,-0.02 -0,-0.14 -0.01,-0.15 -0,-0 -0,-0 -0,-0 -0,0.01 -0,0.03 -0,0.04zm-0.03 -0.04c-0.01,0.01 -0.01,0.06 -0.01,0.08 -0,0.01 -0,0.03 -0,0.04 -0,0.01 -0,0.03 -0,0.04 0,-0 0.01,-0.01 0.01,-0.02 0,-0.01 0,-0.01 0,-0.02 0,-0.01 0,-0.04 0,-0.04 0,-0.01 0.01,-0 0,-0.02 -0,-0.03 -0,-0.05 -0.01,-0.07zm0.02 -0.17c-0.01,0 -0.02,-0 -0.02,-0.01 -0,0.07 -0,0.19 0.01,0.26l0 -0 0.01 -0 0.01 0c0,-0.02 0,-0.04 0,-0.06 0,-0.06 0,-0.13 0,-0.2 -0,0 -0,0.01 -0.01,0.01 0,-0 0,-0 0,-0l0 -0c0.01,-0.01 0.01,-0.02 0,-0.03 -0,-0 -0,-0 -0,-0 0.01,0.03 -0.03,0.02 -0.02,0l-0 -0c-0,0.01 -0,0.01 -0,0.02 0,0.01 0.01,0.01 0.02,0.01 -0,0 0,0 -0,0zm0.03 -0.1l-0 -0.14c0.01,-0 0.05,-0 0.06,0 0.04,0.01 0.07,0.01 0.07,0.05 0,0.01 0,0.05 -0,0.06 -0.04,0.01 -0.05,-0.01 -0.1,0.01 -0.01,0.01 -0.02,0.01 -0.03,0.01z"/>
 </g>
</svg>
