<?xml version="1.0" encoding="UTF-8"?>
<!DOCTYPE svg PUBLIC "-//W3C//DTD SVG 1.1//EN" "http://www.w3.org/Graphics/SVG/1.1/DTD/svg11.dtd">
<!-- Creator: CorelDRAW -->
<svg xmlns="http://www.w3.org/2000/svg" xml:space="preserve" width="3.4463mm" height="9.6mm" version="1.1" style="shape-rendering:geometricPrecision; text-rendering:geometricPrecision; image-rendering:optimizeQuality; fill-rule:evenodd; clip-rule:evenodd"
viewBox="0 0 7.25 20.2"
 xmlns:xlink="http://www.w3.org/1999/xlink"
 xmlns:xodm="http://www.corel.com/coreldraw/odm/2003">
 <defs>
  <style type="text/css">
   <![CDATA[
    .fil10 {fill:#96989A}
    .fil4 {fill:#4B4B4D}
    .fil3 {fill:#373435}
    .fil5 {fill:black}
    .fil9 {fill:#92918F}
    .fil0 {fill:#CC0000}
    .fil8 {fill:red}
    .fil11 {fill:#FF6600}
    .fil1 {fill:white}
    .fil2 {fill:#373435;fill-rule:nonzero}
    .fil6 {fill:url(#id4)}
    .fil7 {fill:url(#id5)}
   ]]>
  </style>
      <mask id="id0">
  <linearGradient id="id1" gradientUnits="userSpaceOnUse" x1="4.64" y1="13.03" x2="1.63" y2="13.03">
   <stop offset="0" style="stop-opacity:1; stop-color:white"/>
   <stop offset="1" style="stop-opacity:0; stop-color:white"/>
  </linearGradient>
       <rect style="fill:url(#id1)" x="1.16" y="5.23" width="1.42" height="14.11"/>
      </mask>
      <mask id="id2">
  <linearGradient id="id3" gradientUnits="userSpaceOnUse" x1="2.61" y1="13.03" x2="5.62" y2="13.03">
   <stop offset="0" style="stop-opacity:1; stop-color:white"/>
   <stop offset="1" style="stop-opacity:0; stop-color:white"/>
  </linearGradient>
       <rect style="fill:url(#id3)" x="4.67" y="5.23" width="1.42" height="14.11"/>
      </mask>
  <linearGradient id="id4" gradientUnits="userSpaceOnUse" x1="0.22" y1="1.51" x2="0.31" y2="1.91">
   <stop offset="0" style="stop-opacity:1; stop-color:#464747"/>
   <stop offset="1" style="stop-opacity:1; stop-color:white"/>
  </linearGradient>
  <linearGradient id="id5" gradientUnits="userSpaceOnUse" x1="7.02" y1="1.91" x2="6.96" y2="1.51">
   <stop offset="0" style="stop-opacity:1; stop-color:#595959"/>
   <stop offset="1" style="stop-opacity:1; stop-color:white"/>
  </linearGradient>
 </defs>
 <g id="Camada_x0020_1">
  <metadata id="CorelCorpID_0Corel-Layer"/>
  <path class="fil0" d="M0.9 2l0.01 -0.7c-0.07,0 -0.06,-0.06 -0.07,0.35l-0.01 0.25c-0,0.12 -0.05,0.1 0.05,0.1 0.01,-0 0.02,-0 0.02,0zm5.45 -0.7l0.01 0.7 0.08 0c0.01,0 -0.01,0 -0.01,-0.1l-0.03 -0.6 -0.05 -0zm-1.95 0.9l0 0.81c0,0.06 0.09,0.06 0.09,0l0 -0.81 -0.04 -0.04 -0.04 0.04zm-1.64 0l0 0.81c0,0.06 0.09,0.06 0.09,0l0 -0.81 -0.04 -0.04 -0.04 0.04zm-1.82 -0.92l-0.02 2.09c-0,0.24 -0.01,0.35 0.18,0.5 0.17,-0.15 0.27,-0.27 0.28,-0.5 0,-0.09 0,-0.22 -0,-0.47l-0.02 -2.33 0.05 -0 0.02 2.33 -0.02 0.63c-0.05,0.14 -0.16,0.26 -0.27,0.36 0.11,0.06 0.91,0.02 1.13,0.01l1.59 -0.04c0.76,0 1.46,0.01 1.85,0.02l0.4 0.01c-0.17,-0.16 -0.28,-0.28 -0.28,-0.52 -0,-0.09 -0,-0.23 0,-0.47l0.02 -2.33 0.05 0 -0.02 2.33 0.02 0.62c0.04,0.14 0.16,0.25 0.26,0.35 0.2,-0.16 0.19,-0.28 0.18,-0.52l-0.03 -2.08c-0.03,-0.04 -0.02,-0.55 -0.09,-0.64l-0.27 -0.18 0.01 -0.01c-0.07,0.07 -0.11,0.05 -0.29,0.02 -0.33,-0.06 -0.89,-0.19 -1.21,-0.2 -0.17,-0.01 -0.46,-0.01 -0.76,-0.01 -0.49,0 -0.91,-0.02 -1.32,0.06l-0.95 0.18 -0.11 -0.04 0.01 0.01c-0.32,0.18 -0.3,0.13 -0.33,0.53l-0.03 0.3zm0.6 -0.66l-0.01 -0.05 1.12 -0.2 0.89 -0.02 0 -0 0.16 0 0 0c1.12,0.01 0.78,-0 2,0.22l-0.01 0.05 -1.12 -0.2 -1.92 0 -1.12 0.2zm0.42 2.32l0 -1.87c0,-0.13 0.2,-0.13 0.2,0l0 1.87 -0.05 0 0 -1.87c0,-0.07 -0.11,-0.07 -0.11,0l0 1.87 -0.05 0zm2.38 -0.74l0.09 -0.09 0.09 0.09 0 0.81c0,0.12 -0.18,0.12 -0.18,0l0 -0.81zm-1.14 -0.32c-0.14,0 -0.25,-0.11 -0.25,-0.25 0,-0.16 -0.03,-0.31 0.07,-0.41 0.05,-0.05 0.11,-0.07 0.18,-0.07l0.85 0c0.14,0 0.25,0.11 0.25,0.25 0,0.17 0.03,0.31 -0.07,0.41 -0.05,0.05 -0.11,0.07 -0.18,0.07l-0.85 0zm1.87 1.06l0 -1.87c0,-0.13 0.2,-0.13 0.2,0l0 1.87 -0.05 0 0 -1.87c0,-0.07 -0.11,-0.07 -0.11,0l0 1.87 -0.05 0zm-2.36 -0.74l0.09 -0.09 0.09 0.09 0 0.81c0,0.12 -0.18,0.12 -0.18,0l0 -0.81z"/>
  <g id="_1770140619264">
   <rect class="fil1" x="0.92" y="5.17" width="5.43" height="14.25"/>
   <g>
    <path class="fil2" d="M3.69 0.26l-0.01 0 -0.01 0 -0.01 0 -0.01 0 -0.01 0 -0.01 0 -0.01 0 -0.01 0 -0.01 0 -0.01 0 -0.01 0 -0.01 0 -0.01 0 -0.01 0 -0.01 0c-0.3,0 -0.59,0 -0.76,0.01 -0.2,0.01 -0.26,0.02 -0.44,0.05l-0.03 0.01c-0.11,0.02 -0.26,0.05 -0.41,0.08 -0.12,0.02 -0.24,0.05 -0.33,0.06 -0.1,0.02 -0.15,0.03 -0.18,0.03 -0.04,0 -0.05,-0 -0.07,-0.01 -0.02,-0.01 -0.03,-0.02 -0.04,-0.03l0.01 0.01 -0.1 0.06c-0.03,0.02 -0.06,0.03 -0.08,0.05 -0.02,0.01 -0.04,0.03 -0.06,0.04 -0.01,0.01 -0.02,0.02 -0.03,0.03 -0.01,0.01 -0.02,0.03 -0.02,0.05 -0.01,0.02 -0.01,0.06 -0.02,0.11 -0.01,0.05 -0.01,0.12 -0.02,0.19l-0.02 0.24c0,0.01 0,0.02 0,0.02 -0,0.01 -0,0.02 -0.01,0.03l-0 0 -0.01 0.63 -0.01 0.68c-0,0.37 -0.01,0.6 -0.01,0.77l-0 0.02c-0,0.08 -0,0.14 0,0.2 0,0.05 0.01,0.09 0.03,0.13 0.02,0.03 0.04,0.07 0.07,0.1 0.03,0.03 0.06,0.06 0.09,0.08 0.02,-0.02 0.05,-0.04 0.07,-0.07 0.03,-0.03 0.05,-0.06 0.08,-0.09 0.03,-0.03 0.05,-0.07 0.07,-0.1 0.02,-0.03 0.03,-0.06 0.04,-0.1 0.01,-0.03 0.02,-0.06 0.02,-0.15 0,-0.09 0,-0.22 -0,-0.47l-0.02 -2.33 0.05 -0 0.02 2.33c0,0.25 0,0.39 0,0.47 -0,0.09 -0.01,0.12 -0.02,0.16 -0.01,0.03 -0.03,0.07 -0.05,0.1 -0.02,0.04 -0.05,0.07 -0.07,0.11 -0.03,0.03 -0.05,0.06 -0.08,0.09 -0.02,0.02 -0.04,0.04 -0.06,0.06 0.02,0.01 0.04,0.02 0.09,0.02 0.07,0.01 0.17,0.01 0.37,0.01 0.17,-0 0.42,-0.01 0.67,-0.02 0.33,-0.01 0.67,-0.02 0.91,-0.03 0.1,-0 0.19,-0.01 0.25,-0.01 0.16,-0 0.17,-0 0.36,0l0.06 0c0.76,0 1.46,0.01 1.85,0.02 0.2,0 0.31,0.01 0.38,0.01 0.01,-0 0.01,-0.01 0.02,-0.01 -0.02,-0.02 -0.04,-0.04 -0.06,-0.06 -0.03,-0.03 -0.06,-0.06 -0.08,-0.09 -0.03,-0.03 -0.05,-0.07 -0.07,-0.11 -0.02,-0.03 -0.04,-0.07 -0.05,-0.1 -0.01,-0.04 -0.02,-0.07 -0.02,-0.16 -0,-0.09 -0,-0.23 0,-0.47l0.02 -2.33 0.05 0 -0.02 2.33c-0,0.25 -0,0.38 -0,0.47 0,0.08 0.01,0.12 0.02,0.15 0.01,0.03 0.02,0.06 0.04,0.1 0.02,0.03 0.04,0.07 0.07,0.1 0.02,0.03 0.05,0.06 0.08,0.09 0.02,0.02 0.05,0.05 0.07,0.07 0.03,-0.02 0.06,-0.05 0.09,-0.08 0.03,-0.03 0.05,-0.06 0.07,-0.1 0.02,-0.04 0.03,-0.08 0.03,-0.13 0,-0.05 0,-0.11 0,-0.2l-0 -0.02c-0,-0.16 -0.01,-0.39 -0.01,-0.77l-0.01 -0.68 -0.01 -0.63 -0 -0c-0.01,-0.01 -0.01,-0.02 -0.01,-0.03 -0,-0.01 -0,-0.02 0,-0.02l-0.02 -0.24c-0.01,-0.07 -0.01,-0.14 -0.02,-0.19 -0.01,-0.05 -0.01,-0.08 -0.02,-0.11 -0.01,-0.02 -0.01,-0.04 -0.02,-0.05 -0.01,-0.01 -0.02,-0.02 -0.03,-0.03 -0.01,-0.01 -0.03,-0.02 -0.06,-0.04 -0.02,-0.01 -0.05,-0.03 -0.08,-0.05l-0.1 -0.06 0.01 -0.01c-0.01,0.01 -0.03,0.03 -0.04,0.03 -0.01,0.01 -0.03,0.01 -0.07,0.01 -0.03,-0 -0.09,-0.01 -0.18,-0.03 -0.09,-0.02 -0.21,-0.04 -0.33,-0.06 -0.15,-0.03 -0.31,-0.06 -0.41,-0.08l-0.03 -0.01c-0.18,-0.04 -0.24,-0.05 -0.44,-0.05 -0.17,-0.01 -0.46,-0.01 -0.76,-0.01zm1.01 3.7c0,0.05 0.01,0.1 -0,0.13 -0.01,0.03 -0.02,0.04 -0.06,0.05 -0.03,0.01 -0.09,0.01 -0.19,0.01 -0.1,0 -0.25,0 -0.41,0l-0.26 0 0 0 -0.15 0 -0.15 0 0 -0 -0.26 -0c-0.17,-0 -0.31,-0 -0.41,-0 -0.1,-0 -0.16,-0 -0.19,-0.01 -0.04,-0.01 -0.06,-0.02 -0.06,-0.05 -0.01,-0.03 -0.01,-0.08 -0,-0.13l-0.27 0.01c-0.19,0.01 -0.38,0.01 -0.53,0.01 0.15,0.1 0.28,0.2 0.36,0.26 0.05,0.03 0.07,0.06 0.09,0.07 0.02,0.02 0.02,0.03 0.03,0.04 0.01,0.02 0.01,0.04 0.01,0.13l0 0.1c0,0.1 0.01,0.24 0.01,0.35l0.04 0c0.89,0 1.76,-0 2.21,-0 0.45,-0 0.48,-0.01 0.49,-0.01l0 -0c0.02,-0 0.03,-0 0.03,0.02 0,0.01 0,0.02 0.01,0.04 0,0.04 0,0.11 0.01,0.18l0 0 -0.05 0 0 -0c-0,-0.07 -0.01,-0.14 -0.01,-0.18l-0 -0.01c-0.03,0 -0.12,0 -0.48,0.01 -0.45,0 -1.33,0 -2.21,0l-0.03 0c0,0.02 0,0.05 0,0.07 0,0.07 -0,0.11 -0.03,0.13 -0.02,0.02 -0.06,0.02 -0.13,0.03l-0.23 0.01 -0.25 0c-0.05,0 -0.12,0 -0.17,-0l-0.2 -0c-0.06,-0 -0.12,-0 -0.15,-0 -0.04,-0 -0.06,-0.01 -0.08,-0.02 -0.02,-0.01 -0.03,-0.03 -0.04,-0.07 -0.03,-0.06 -0.07,-0.16 -0.11,-0.26 -0,-0.01 -0.01,-0.01 -0.01,-0.02 -0.01,-0.02 -0.01,-0.04 -0.02,-0.09 -0.01,-0.04 -0.02,-0.11 -0.03,-0.17 -0.01,-0.06 -0.02,-0.13 -0.03,-0.18 -0.01,-0.05 -0.01,-0.08 -0.01,-0.11 0,-0.03 0.01,-0.05 0.02,-0.06l0 -0.01c-0.01,-0.01 -0.02,-0.03 -0.03,-0.05 -0.01,-0.02 -0.02,-0.04 -0.02,-0.06 -0.01,-0.02 -0.01,-0.05 -0.01,-0.1 -0,-0.05 0,-0.12 0,-0.22l0.02 -0.92c0,-0.21 0.01,-0.35 0.01,-0.42 0,-0.03 0,-0.05 0,-0.06 -0.03,0 -0.05,0 -0.08,0 -0.01,-0 -0.03,-0 -0.04,-0.01 -0.01,-0.01 -0.02,-0.02 -0.03,-0.04 -0,-0.02 -0.01,-0.04 -0.01,-0.06 -0,-0.02 0,-0.05 0,-0.07 0,-0.03 0,-0.05 0.01,-0.07 0,-0.02 0.01,-0.04 0.01,-0.05 0,-0.02 0.01,-0.03 0.02,-0.04 0.01,-0.01 0.02,-0.01 0.04,-0.02 0.02,-0 0.05,0 0.08,0 -0,-0.02 -0,-0.06 -0,-0.13l0.01 -0.25c0,-0.09 0.01,-0.19 0.01,-0.25 0.01,-0.08 0.01,-0.12 0.02,-0.13l-0.04 0c-0.05,0 -0.1,0.01 -0.13,0.01 -0.04,0 -0.06,0.01 -0.09,0.01 -0.02,0 -0.04,0.01 -0.05,0.02 -0.01,0.01 -0.02,0.01 -0.03,0.02 -0.01,0.01 -0.02,0.02 -0.02,0.02l-0.01 0.01 0.01 0c0.01,0 0.01,0.01 0.02,0.01 0.01,0.01 0.01,0.01 0.02,0.02 0,0.01 0.01,0.02 0.01,0.04 0,0.02 0,0.05 0,0.1l-0 0.19 -0 0.1 0 0 0 0 0 0 0 0 0 0 0 0 0 0 0 0 0 0 0 0c-0,0.03 -0,0.07 -0,0.09 -0,0.05 -0,0.08 -0.01,0.1 -0,0.02 -0.01,0.03 -0.02,0.04 -0.01,0.01 -0.01,0.02 -0.03,0.03 -0.01,0.01 -0.03,0.01 -0.06,0.02 -0.03,0.01 -0.07,0.02 -0.11,0.03 -0.03,0.01 -0.06,0.01 -0.09,0.02 -0.03,0 -0.05,0 -0.07,0 -0.02,-0 -0.03,-0.01 -0.04,-0.02 -0.01,-0.01 -0.01,-0.01 -0.02,-0.02 -0,-0.01 -0.01,-0.02 -0.01,-0.03 -0,-0.01 -0,-0.02 -0.01,-0.04l-0.01 -0.1c-0.01,-0.05 -0.02,-0.12 -0.02,-0.18 -0,-0.04 -0.01,-0.07 -0.01,-0.1 -0.01,-0 -0.01,-0.01 -0.01,-0.02 -0,-0.01 0,-0.01 0,-0.03l0.01 -0.02c-0,-0.1 0.03,-0.11 0.06,-0.12l0 -0c0.01,-0 0.02,-0.01 0.02,-0.01 0.01,-0.01 0.02,-0.01 0.03,-0.02 0.01,-0.01 0.03,-0.01 0.04,-0.02 0.01,-0 0.01,-0.01 0.01,-0.01l0 -0.01c0,-0.01 0,-0.02 0.01,-0.04 0.01,-0.01 0.01,-0.03 0.02,-0.04 0.01,-0.01 0.02,-0.03 0.04,-0.04 0.02,-0.01 0.03,-0.03 0.05,-0.04 0.02,-0.01 0.04,-0.02 0.07,-0.03 0.03,-0.01 0.06,-0.02 0.09,-0.03 0.03,-0.01 0.07,-0.02 0.12,-0.03 0.06,-0.01 0.13,-0.03 0.21,-0.04 -0,-0.01 -0,-0.02 -0,-0.03 0,-0.03 0,-0.07 0.01,-0.12 0,-0.05 0.01,-0.1 0.02,-0.15 0.01,-0.05 0.01,-0.09 0.02,-0.13 0.01,-0.04 0.02,-0.07 0.03,-0.1 0.01,-0.03 0.03,-0.06 0.05,-0.08 0.02,-0.02 0.04,-0.04 0.07,-0.06l0.01 -0.16c0,-0.03 0,-0.05 0.01,-0.08 0,-0.02 0.01,-0.05 0.01,-0.06 0.01,-0.02 0.01,-0.04 0.03,-0.05 0.01,-0.01 0.03,-0.03 0.06,-0.04 0.02,-0.01 0.05,-0.02 0.08,-0.03 0.03,-0.01 0.06,-0.01 0.09,-0.02 0.03,-0 0.05,0 0.06,0.02 0.01,0.01 0.02,0.03 0.02,0.07 0,0.03 0,0.08 0,0.13l-0 0.07c0,0.01 0,0.01 0.01,0.01 0.02,-0 0.07,-0.01 0.16,-0.03l0.47 -0.1c0.12,-0.03 0.24,-0.05 0.33,-0.07 0.19,-0.04 0.21,-0.04 0.38,-0.04l0.43 -0.01 0.49 -0.01 0 -0 0.02 0 0.02 -0 0 0 0.49 0.01 0.43 0.01c0.16,0 0.19,0 0.38,0.04 0.09,0.02 0.21,0.04 0.33,0.07l0.47 0.1c0.09,0.02 0.14,0.03 0.16,0.03 0.01,0 0.01,-0 0.01,-0.01l-0 -0.07c-0,-0.04 -0,-0.09 0,-0.13 0,-0.03 0.01,-0.05 0.02,-0.07 0.01,-0.02 0.03,-0.02 0.06,-0.02 0.02,0 0.05,0.01 0.09,0.02 0.03,0.01 0.06,0.02 0.08,0.03 0.03,0.01 0.04,0.02 0.06,0.04 0.01,0.01 0.02,0.03 0.03,0.05 0.01,0.02 0.01,0.04 0.01,0.06 0,0.02 0.01,0.05 0.01,0.08l0.01 0.16c0.03,0.02 0.05,0.04 0.07,0.06 0.02,0.02 0.04,0.05 0.05,0.08 0.01,0.03 0.02,0.06 0.03,0.1 0.01,0.04 0.01,0.08 0.02,0.13 0.01,0.05 0.01,0.1 0.02,0.15 0,0.05 0.01,0.09 0.01,0.12 0,0.01 -0,0.03 -0,0.03 0.08,0.01 0.15,0.03 0.21,0.04 0.04,0.01 0.08,0.02 0.12,0.03 0.03,0.01 0.06,0.02 0.09,0.03 0.03,0.01 0.05,0.02 0.07,0.03 0.02,0.01 0.04,0.02 0.05,0.04 0.01,0.01 0.03,0.03 0.04,0.04 0.01,0.01 0.02,0.03 0.02,0.04 0.01,0.02 0.01,0.03 0.01,0.04l0 0.01c0,0 0,0 0.01,0.01 0.01,0.01 0.03,0.01 0.04,0.02 0.01,0.01 0.02,0.01 0.03,0.02 0.01,0 0.02,0.01 0.02,0.01l0 0c0.03,0.01 0.06,0.02 0.06,0.12l0.01 0.02c0,0.01 0,0.02 0,0.02 -0,0.01 -0,0.02 -0.01,0.02 -0,0.03 -0.01,0.07 -0.01,0.1 -0.01,0.06 -0.02,0.13 -0.02,0.18l-0.01 0.1c-0,0.02 -0.01,0.03 -0.01,0.04 -0,0.01 -0.01,0.02 -0.01,0.03 -0.01,0.01 -0.01,0.02 -0.02,0.02 -0.01,0.01 -0.02,0.01 -0.04,0.02 -0.02,0 -0.04,0 -0.07,-0 -0.02,-0 -0.06,-0.01 -0.09,-0.02 -0.04,-0.01 -0.08,-0.02 -0.11,-0.03 -0.03,-0.01 -0.04,-0.02 -0.06,-0.02 -0.01,-0.01 -0.02,-0.02 -0.03,-0.03 -0.01,-0.01 -0.01,-0.02 -0.02,-0.04 -0,-0.02 -0.01,-0.05 -0.01,-0.1 -0,-0.03 -0,-0.06 -0,-0.09l0 -0 0 -0 0 -0 0 -0 0 -0 0 -0 0 -0 -0 -0.1 -0 -0.19c-0,-0.05 -0,-0.08 0,-0.1 0,-0.02 0,-0.03 0.01,-0.04 0,-0.01 0.01,-0.02 0.02,-0.02 0.01,-0 0.01,-0.01 0.02,-0.01l0.01 -0 -0.01 -0.01c-0,-0.01 -0.01,-0.02 -0.02,-0.02 -0.01,-0.01 -0.02,-0.01 -0.03,-0.02 -0.01,-0.01 -0.03,-0.01 -0.05,-0.02 -0.02,-0 -0.05,-0.01 -0.09,-0.01 -0.04,-0 -0.08,-0.01 -0.13,-0.01l-0.04 -0c0.01,0.02 0.02,0.05 0.02,0.13 0,0.06 0.01,0.16 0.01,0.25l0.01 0.25c0,0.07 0,0.11 -0,0.13 0.03,-0 0.06,-0 0.08,-0 0.02,0 0.03,0.01 0.04,0.02 0.01,0.01 0.02,0.02 0.02,0.04 0,0.01 0.01,0.03 0.01,0.05 0,0.02 0,0.05 0.01,0.07 0,0.02 0,0.05 0,0.07 -0,0.02 -0,0.05 -0.01,0.06 -0,0.02 -0.01,0.03 -0.03,0.04 -0.01,0.01 -0.02,0.01 -0.04,0.01 -0.02,0 -0.05,-0 -0.08,-0 0,0.01 0,0.03 0,0.06 0,0.07 0.01,0.21 0.01,0.42l0.02 0.92c0,0.11 0,0.17 0,0.22 -0,0.05 -0,0.08 -0.01,0.1 -0.01,0.02 -0.01,0.05 -0.02,0.06 -0.01,0.01 -0.01,0.02 -0.02,0.03 0.01,0.01 0.01,0.01 0.01,0.02 0.01,0.02 0.02,0.04 0.02,0.06 0,0.02 -0,0.06 -0.01,0.11 -0.01,0.05 -0.02,0.11 -0.03,0.18 -0.01,0.06 -0.02,0.13 -0.03,0.17 -0.01,0.05 -0.02,0.07 -0.02,0.09 -0,0.01 -0.01,0.02 -0.01,0.02 -0.04,0.1 -0.08,0.2 -0.11,0.26 -0.02,0.04 -0.03,0.06 -0.04,0.07 -0.02,0.01 -0.04,0.02 -0.08,0.02 -0.04,0 -0.09,0 -0.15,0l-0.2 0 0 -0.05 0.2 -0c0.06,-0 0.11,-0 0.15,-0 0.03,-0 0.05,-0 0.06,-0.01 0.01,-0.01 0.02,-0.02 0.03,-0.05 0.02,-0.04 0.05,-0.11 0.08,-0.19 -0.01,0.01 -0.03,0.01 -0.05,0.02 -0.03,0.01 -0.07,0.02 -0.12,0.03 -0.04,0.01 -0.09,0.02 -0.13,0.03 -0.04,0.01 -0.08,0.01 -0.12,0.01 -0.03,0 -0.05,0 -0.07,0l-0 0.15 -0.05 0c0,-0.12 0,-0.25 0,-0.32 0,-0.04 0,-0.06 0.01,-0.08 0.01,-0.02 0.03,-0.03 0.06,-0.03 0.02,-0 0.04,-0.01 0.06,-0.01 -0,-0.12 -0.01,-0.23 -0.02,-0.29 -0.01,-0.02 -0.02,-0.03 -0.04,-0.04 -0.03,-0.01 -0.07,-0.01 -0.15,-0.01 -0.09,0 -0.21,0 -0.33,0.01 -0.09,0 -0.17,0.01 -0.23,0.01 -0.06,0.01 -0.1,0.01 -0.12,0.02 -0.01,0.01 -0.02,0.03 -0.02,0.06 -0,0.02 -0.01,0.05 -0.01,0.09 -0.01,0.06 -0.01,0.13 -0.02,0.17 -0.01,0.04 -0.02,0.06 -0.09,0.08 -0.06,0.01 -0.17,0.01 -0.39,0.01 -0.21,0 -0.53,0 -0.9,0.01l-1.21 0.01 -0 -0.05 1.21 -0.01c0.37,-0 0.68,-0 0.9,-0.01 0.21,-0 0.32,-0 0.38,-0.01 0.05,-0.01 0.05,-0.02 0.06,-0.04 0.01,-0.04 0.02,-0.11 0.02,-0.17 0,-0.03 0.01,-0.06 0.01,-0.09 0.01,-0.04 0.01,-0.07 0.04,-0.09 0.02,-0.02 0.06,-0.03 0.14,-0.03 0.06,-0.01 0.14,-0.01 0.23,-0.01 0.12,-0 0.24,-0.01 0.33,-0.01 0.08,-0 0.13,-0 0.16,0.01 0.04,0.01 0.06,0.03 0.07,0.07 0.02,0.06 0.02,0.18 0.03,0.3 0.04,-0 0.08,-0.01 0.11,-0.01 0.03,-0 0.05,-0.01 0.06,-0.02 0.01,-0.02 0.02,-0.05 0.03,-0.1 0.01,-0.12 0.01,-0.35 0,-0.47l-0 -0.02c-0,-0.1 -0,-0.11 -0.01,-0.12 -0,-0 -0,-0 -0.05,-0.01l-0.02 -0c-0.47,-0.01 -0.88,-0.01 -1.39,-0zm-1.08 0.15l0.4 -0c0.17,-0 0.31,-0 0.41,-0 0.1,-0 0.15,-0 0.19,-0.01 0.02,-0 0.03,-0.01 0.03,-0.02 0.01,-0.02 0.01,-0.07 0,-0.12 -0.22,-0.01 -0.44,-0.01 -0.6,-0.02l-0.2 -0.01 -0.41 -0 -0.02 0c-0.07,0 -0.15,0.01 -0.25,0.01 -0.16,0.01 -0.38,0.01 -0.6,0.02 -0,0.05 -0.01,0.1 0,0.12 0,0.01 0.01,0.01 0.03,0.02 0.03,0.01 0.09,0.01 0.19,0.01 0.1,0 0.25,0 0.41,0l0.4 0zm2.08 -3.48l-0.92 -0.17c-0.09,-0.02 -0.15,-0.03 -0.2,-0.03 -0.05,-0.01 -0.1,-0.01 -0.19,-0.01l-0.37 -0.01 -0.41 -0.01 -0.41 0.01 -0.37 0.01c-0.09,0 -0.14,0 -0.19,0.01 -0.05,0.01 -0.1,0.02 -0.2,0.03l-0.92 0.17 -0.01 -0.05 0.92 -0.17c0.1,-0.02 0.15,-0.03 0.2,-0.03 0.05,-0.01 0.1,-0.01 0.19,-0.01l0.37 -0.01 0.33 -0 0 -0 0.08 0 0.08 -0 0 0 0.33 0 0.37 0.01c0.09,0 0.14,0 0.19,0.01 0.05,0.01 0.1,0.02 0.2,0.03l0.92 0.17 -0.01 0.05zm0.15 -0.17l0 -0.03c0,-0.01 0,-0.03 0,-0.03 0,-0 -0,-0 -0.01,-0.01 -0.02,-0.01 -0.07,-0.02 -0.16,-0.04 -0.09,-0.02 -0.21,-0.04 -0.34,-0.07 -0.15,-0.03 -0.31,-0.06 -0.41,-0.08 -0.1,-0.02 -0.15,-0.03 -0.21,-0.03 -0.06,-0.01 -0.11,-0.01 -0.21,-0.01l-0.89 -0.01 -0.89 0.01c-0.1,0 -0.15,0 -0.21,0.01 -0.06,0.01 -0.11,0.01 -0.21,0.03 -0.1,0.02 -0.26,0.05 -0.41,0.08 -0.13,0.03 -0.25,0.05 -0.34,0.07 -0.09,0.02 -0.14,0.03 -0.16,0.04 -0.01,0 -0.01,0.01 -0.01,0.01 -0,0.01 0,0.02 0,0.03l0 0.03 0.01 -0c0.03,-0 0.08,-0.01 0.18,-0.03 0.08,-0.01 0.2,-0.04 0.33,-0.06 0.14,-0.03 0.3,-0.06 0.41,-0.08l0.03 -0.01c0.18,-0.04 0.24,-0.05 0.44,-0.05 0.17,-0.01 0.44,-0.01 0.73,-0.01l0 -0 0.03 0 0.01 0 0.01 0 0.01 0 0.01 0 0.01 0 0.01 0 0.01 0 0.01 0 0.01 0 0.01 0 0.01 0 0.01 0 0.01 0 0.01 0 0.01 0 0.03 0 0 0c0.29,0 0.56,0 0.73,0.01 0.2,0.01 0.26,0.02 0.44,0.05l0.03 0.01c0.11,0.02 0.27,0.05 0.41,0.08 0.13,0.02 0.25,0.05 0.33,0.06 0.09,0.02 0.14,0.03 0.18,0.03l0.01 0zm-2.26 -0.35l0 -0 0.03 0 0.03 -0 0 0 0.86 0.01c0.1,0 0.16,0 0.21,0.01 0.06,0.01 0.11,0.02 0.21,0.03l0.12 0.02c-0.05,-0.01 -0.09,-0.02 -0.13,-0.03 -0.19,-0.04 -0.21,-0.04 -0.37,-0.04l-0.43 -0.01 -0.51 -0.01 -0.51 0.01 -0.43 0.01c-0.16,0 -0.18,0 -0.37,0.04 -0.04,0.01 -0.08,0.02 -0.13,0.03l0.12 -0.02c0.1,-0.02 0.16,-0.03 0.21,-0.03 0.06,-0.01 0.11,-0.01 0.21,-0.01l0.86 -0.01zm2.26 0.24c0.01,0 0.01,0 0.01,0 0.04,0.02 0.04,0.03 0.04,0.05 0,0.01 -0,0.03 -0,0.04l-0 0c0.01,-0.01 0.01,-0.01 0.02,-0.02l0.02 -0.02c0.02,-0.02 0.04,-0.03 0.05,-0.04l0 -0c0.02,-0.01 0.02,-0.01 0.08,-0 0.03,0.01 0.07,0.02 0.11,0.03 0.02,0.01 0.03,0.01 0.05,0.02l-0.01 -0.13c-0,-0.03 -0,-0.05 -0.01,-0.07 -0,-0.02 -0.01,-0.04 -0.01,-0.06 -0,-0.01 -0.01,-0.02 -0.02,-0.03 -0.01,-0.01 -0.02,-0.02 -0.04,-0.03 -0.02,-0.01 -0.05,-0.02 -0.08,-0.02 -0.03,-0.01 -0.06,-0.01 -0.08,-0.01 -0.01,-0 -0.02,-0 -0.02,0 -0,0 -0.01,0.02 -0.01,0.04 -0,0.03 -0,0.08 0,0.12l0 0.07c-0,0.04 -0,0.06 -0.05,0.06 -0.01,-0 -0.03,-0 -0.05,-0.01zm-1.41 1.83c-0.01,0 -0.02,0 -0.03,0.01 -0.01,0.01 -0.01,0.02 -0.01,0.03l0 0.81c0,0.01 0.01,0.02 0.01,0.03 0.01,0.01 0.02,0.01 0.03,0.01 0.01,0 0.02,-0 0.03,-0.01 0.01,-0.01 0.01,-0.02 0.01,-0.03l0 -0.81c0,-0.01 -0,-0.02 -0.01,-0.03 -0.01,-0.01 -0.02,-0.01 -0.03,-0.01zm0 -0.05c0.02,0 0.05,0.01 0.06,0.03 0.02,0.02 0.03,0.04 0.03,0.06l0 0.81c0,0.02 -0.01,0.05 -0.03,0.06 -0.02,0.02 -0.04,0.03 -0.06,0.03 -0.02,0 -0.05,-0.01 -0.06,-0.03 -0.02,-0.02 -0.03,-0.04 -0.03,-0.06l0 -0.81c0,-0.02 0.01,-0.05 0.03,-0.06 0.02,-0.02 0.04,-0.03 0.06,-0.03zm0.79 0.83l0 -1.87c0,-0.01 -0.01,-0.03 -0.02,-0.04 -0.01,-0.01 -0.02,-0.02 -0.04,-0.02 -0.01,0 -0.03,0.01 -0.04,0.02 -0.01,0.01 -0.02,0.02 -0.02,0.04l0 1.87 -0.05 0 0 -1.87c0,-0.03 0.01,-0.05 0.03,-0.07 0.02,-0.02 0.04,-0.03 0.07,-0.03 0.03,0 0.05,0.01 0.07,0.03 0.02,0.02 0.03,0.04 0.03,0.07l0 1.87 -0.05 0zm0.93 0.98c0.03,0.01 0.04,0.02 0.04,0.03 0.01,0.02 0.01,0.03 0.01,0.14l0 0.02 0.11 0c0.02,0 0.02,0 0.03,0.01 0.01,0 0.02,0.01 0.03,0.02 0.01,0.01 0.03,0.02 0.04,0.04 0,-0.01 0.01,-0.01 0.01,-0.02 0.01,-0.02 0.02,-0.03 0.02,-0.05 0.01,-0.02 0.01,-0.05 0.01,-0.09 0,-0.05 -0,-0.11 -0,-0.22l-0.02 -0.92c-0,-0.21 -0.01,-0.35 -0.01,-0.42 -0,-0.05 0.01,-0.06 0.01,-0.06 -0.02,-0 -0.04,-0.01 -0.06,-0.01 -0.01,-0 -0.02,-0 -0.02,-0.01l-0.01 -0 0 0.22c0,0.37 0.01,0.6 0.01,0.77l0 0.02c0,0.08 0,0.15 -0,0.2 -0,0.06 -0.01,0.1 -0.03,0.14 -0.02,0.04 -0.04,0.08 -0.07,0.11 -0.03,0.04 -0.07,0.07 -0.1,0.1zm0.19 -1.92c0.01,-0 0.01,-0 0.02,0l0 0c0.02,0 0.05,0 0.06,0 0.01,0 -0.01,0 -0.01,-0.1l-0.01 -0.25c-0,-0.09 -0.01,-0.19 -0.01,-0.25 -0.01,-0.1 -0.01,-0.1 -0.01,-0.1l-0.05 -0 -0.01 -0 0.01 0.61 0 0.09zm-0.01 -0.88l0 0.09 0.12 0.01c0.05,0 0.1,0.01 0.13,0.01 0.04,0 0.07,0.01 0.09,0.01 0.03,0.01 0.04,0.01 0.06,0.02 0.01,0.01 0.03,0.02 0.04,0.03 0.01,0.01 0.02,0.02 0.03,0.03 0.01,0.01 0.01,0.02 0.01,0.03 0,0 0,0.01 0,0.01 0.03,0.01 0.06,0.01 0.09,0.02 0.03,0.01 0.07,0.01 0.1,0.02 -0,-0.01 -0,-0.01 -0.01,-0.02 -0,-0.01 -0.01,-0.02 -0.02,-0.03 -0.01,-0.01 -0.02,-0.02 -0.03,-0.03 -0.01,-0.01 -0.03,-0.02 -0.05,-0.03 -0.02,-0.01 -0.04,-0.02 -0.06,-0.03 -0.03,-0.01 -0.05,-0.02 -0.09,-0.03 -0.03,-0.01 -0.07,-0.02 -0.11,-0.03 -0.09,-0.02 -0.19,-0.04 -0.3,-0.06l-0 -0 -0.01 -0zm0.13 1.23l0 -0.02 0 0c0.03,0 0.06,0 0.08,0 0.01,-0 0.01,-0 0.02,-0 0,-0 0,-0 0.01,-0.01 0,-0.01 0,-0.03 0,-0.05 0,-0.02 -0,-0.05 -0,-0.07 -0,-0.02 -0,-0.05 -0.01,-0.07 -0,-0.02 -0,-0.03 -0.01,-0.04 -0,-0.01 -0,-0.01 -0.01,-0.02 -0,-0 -0.01,-0 -0.02,-0 -0.03,-0 -0.07,0 -0.11,0.01l-0 -0.03c-0.02,0 -0.04,-0 -0.06,-0l-0 0c-0,0 -0,0 -0,0.03 -0,0.02 -0,0.06 -0,0.1 0,0.04 0,0.08 0,0.1 0,0.02 0,0.04 0.01,0.04l0.02 0c0.02,0 0.04,0.01 0.06,0.01 0.01,0 0.02,0 0.03,0.02zm0.71 -0.71c-0.01,-0.01 -0.03,-0.01 -0.06,-0.02 -0.08,-0.03 -0.23,-0.08 -0.3,-0.11l-0 -0c-0.05,-0.02 -0.05,-0.02 -0.05,-0l0 0.31 0 0 0 0c0.01,0 0.02,0.01 0.05,0.02 0.06,0.02 0.19,0.05 0.32,0.08 0.01,-0.04 0.01,-0.1 0.02,-0.16 0,-0.04 0.01,-0.08 0.01,-0.11zm-0.04 0.31c-0.13,-0.03 -0.26,-0.06 -0.33,-0.08 -0.02,-0 -0.03,-0.01 -0.04,-0.01l0 0.05c0,0.05 0,0.08 0.01,0.1 0,0.01 0,0.02 0.01,0.02 0,0 0.01,0.01 0.01,0.01 0.01,0.01 0.02,0.01 0.05,0.02 0.03,0.01 0.07,0.02 0.1,0.03 0.03,0.01 0.06,0.01 0.08,0.02 0.02,0 0.04,0 0.05,0 0.01,-0 0.01,-0 0.02,-0.01 0,-0 0.01,-0.01 0.01,-0.01 0,-0 0,-0.01 0.01,-0.02 0,-0.01 0,-0.02 0.01,-0.04l0.01 -0.08zm-0.37 -0.51c0.01,0 0.03,0.01 0.06,0.02l0 0c0.08,0.03 0.23,0.08 0.31,0.11l0.04 0.02 0 -0.01 -0 -0c-0,-0.01 -0.01,-0.03 -0.01,-0.04 -0.01,-0.01 -0.01,-0.02 -0.03,-0.04 -0.01,-0.01 -0.02,-0.01 -0.02,-0.02 -0.01,-0.01 -0.03,-0.01 -0.04,-0.02l-0.02 -0.01 -0 -0c-0.01,-0.01 -0.03,-0.01 -0.04,-0.01 -0.03,-0.01 -0.07,-0.02 -0.11,-0.02 -0.04,-0.01 -0.08,-0.01 -0.11,-0.02l-0 0 -0.01 0 -0.01 0.01 -0 0c-0,0 -0,0.01 -0,0.02l-0 0.02zm-0.63 -0.93l0.07 -0.08c-0.02,-0.01 -0.04,-0.02 -0.05,-0.02 -0.04,-0.01 -0.08,-0.03 -0.1,-0.03 -0.03,-0.01 -0.04,-0.01 -0.04,-0l-0 0c-0.01,0.01 -0.03,0.01 -0.04,0.03l0.09 0.05c0.03,0.02 0.06,0.04 0.09,0.05l0 0zm0.11 -0.05l-0.07 0.08c0.01,0.01 0.01,0.01 0.02,0.02 0.02,0.01 0.03,0.03 0.04,0.04 0.01,0.02 0.02,0.04 0.03,0.06 0.01,0.03 0.01,0.06 0.02,0.11 0.01,0.05 0.01,0.12 0.02,0.19l0.01 0.11c0,-0 0.01,-0 0.01,-0 0.01,-0 0.02,-0 0.03,0l0 0 0 0c0.02,0 0.04,0.01 0.06,0.01l0.01 0c0.01,0 -0.01,-0 -0.01,-0.03 -0,-0.03 -0,-0.07 -0.01,-0.11 -0,-0.05 -0.01,-0.1 -0.02,-0.15 -0,-0.04 -0.01,-0.07 -0.02,-0.1l-0.09 0.02 -0.01 -0.04 0.09 -0.02c-0.01,-0.03 -0.01,-0.05 -0.02,-0.07 -0.01,-0.03 -0.02,-0.05 -0.04,-0.07 -0.01,-0.02 -0.03,-0.03 -0.05,-0.04zm0.11 4.36l0.01 -0.03 0 -0.01c0,-0.01 0.01,-0.03 0.01,-0.06 0.01,-0.04 0.02,-0.11 0.03,-0.17 0.01,-0.06 0.02,-0.13 0.03,-0.18 0.01,-0.05 0.01,-0.08 0.01,-0.1 -0,-0.02 -0.01,-0.03 -0.01,-0.04 -0.01,-0.01 -0.02,-0.02 -0.03,-0.04 -0.02,-0.02 -0.04,-0.03 -0.05,-0.04 -0.01,-0.01 -0.01,-0.01 -0.02,-0.01 -0,-0 -0.01,-0 -0.02,-0l-0.11 -0c0,0.13 0.01,0.32 -0.01,0.43 -0.01,0.07 -0.02,0.1 -0.04,0.13 -0.02,0.03 -0.05,0.03 -0.09,0.04 -0.04,0.01 -0.08,0.01 -0.12,0.01 -0.04,0 -0.07,0.01 -0.1,0.01 -0.02,0 -0.03,0.01 -0.03,0.01 -0,0.01 -0.01,0.02 -0.01,0.05 -0,0.03 -0,0.07 -0,0.12 0.02,-0 0.05,-0 0.07,-0 0.04,-0 0.08,-0.01 0.12,-0.01 0.04,-0.01 0.09,-0.01 0.13,-0.02 0.04,-0.01 0.08,-0.02 0.11,-0.03 0.03,-0.01 0.05,-0.02 0.06,-0.03 0.01,-0.01 0.02,-0.01 0.03,-0.02 0,-0 0,-0 0.01,-0.01zm-4.69 -0.85l-0.07 0c-0.2,0 -0.31,0 -0.37,-0.01 -0.02,0.01 -0.04,0.01 -0.06,0.02 -0.01,0 -0.02,0.01 -0.02,0.02 -0.01,0.02 -0.02,0.05 -0.03,0.1 -0.01,0.05 -0.01,0.13 -0.02,0.21 -0,0.09 -0.01,0.18 -0,0.24 0,0.06 0.01,0.09 0.01,0.11 0.01,0.01 0.02,0.02 0.03,0.03 0.02,0.01 0.04,0.02 0.07,0.03 0.03,0.01 0.06,0.02 0.08,0.02 0.05,0.01 0.09,0.01 0.13,0.01l0 0.05c-0.04,0 -0.09,0 -0.14,-0.01 -0.03,-0.01 -0.06,-0.01 -0.09,-0.02 -0.03,-0.01 -0.05,-0.02 -0.07,-0.03 -0.02,-0.01 -0.04,-0.02 -0.05,-0.05 -0.01,-0.02 -0.01,-0.06 -0.02,-0.12 -0,-0.06 -0,-0.16 0,-0.25 0,-0.08 0.01,-0.16 0.02,-0.21 0.01,-0.06 0.02,-0.1 0.03,-0.12 0.01,-0.02 0.02,-0.03 0.04,-0.03 -0.02,-0.01 -0.04,-0.02 -0.05,-0.03 -0.03,-0.02 -0.07,-0.06 -0.11,-0.1 -0.03,-0.03 -0.05,-0.07 -0.07,-0.11 -0.02,-0.04 -0.03,-0.09 -0.03,-0.14 -0,-0.05 -0,-0.12 -0,-0.2l0 -0.02c0,-0.16 0.01,-0.39 0.01,-0.77l0 -0.22 -0 0c-0.01,0 -0.02,0 -0.02,0.01 -0.02,0 -0.04,0.01 -0.06,0.01 -0,0 0.01,0.01 0.01,0.06 -0,0.07 -0.01,0.21 -0.01,0.42l-0.02 0.92c-0,0.11 -0,0.17 -0,0.22 0,0.04 0,0.07 0.01,0.09 0,0.02 0.01,0.04 0.02,0.05 0.01,0.01 0.01,0.02 0.02,0.03 0.02,-0.02 0.04,-0.04 0.05,-0.05 0.01,-0.01 0.02,-0.02 0.03,-0.02 0.01,-0 0.02,-0 0.04,-0.01l0.12 -0 0 0.05 -0.12 0c-0.01,0 -0.02,0 -0.02,0 -0,0 -0.01,0.01 -0.02,0.01 -0.01,0.01 -0.03,0.03 -0.05,0.04 -0.01,0.01 -0.02,0.02 -0.03,0.04 -0.01,0.01 -0.01,0.02 -0.01,0.04 -0,0.02 0,0.05 0.01,0.1 0.01,0.05 0.02,0.11 0.03,0.18 0.01,0.06 0.02,0.13 0.03,0.17 0.01,0.02 0.01,0.04 0.01,0.06l0 0.01 0.01 0.03c0,0 0,0 0.01,0.01 0.01,0.01 0.02,0.01 0.03,0.02 0.01,0.01 0.03,0.02 0.06,0.03 0.03,0.01 0.07,0.02 0.11,0.03 0.04,0.01 0.09,0.02 0.13,0.02 0.04,0.01 0.08,0.01 0.12,0.01 0.03,0 0.06,0 0.09,0l0 -0.07c0,-0.04 0,-0.07 -0,-0.1 -0,-0.03 -0.01,-0.05 -0.02,-0.07 -0.01,-0.02 -0.02,-0.04 -0.04,-0.06 -0.02,-0.02 -0.04,-0.04 -0.06,-0.06l0.03 -0.03c0.02,0.02 0.04,0.04 0.06,0.06 0.02,0.02 0.04,0.04 0.05,0.07 0.01,0.03 0.02,0.05 0.02,0.08 0,0.03 0,0.07 0,0.11l-0 0.07c-0,0.06 -0.01,0.13 -0,0.17 0,0.02 0.01,0.03 0.02,0.03 0.02,0.01 0.05,0.01 0.11,0.01l0.25 -0 0.23 -0.01c0.06,-0 0.08,-0 0.1,-0.01 0.01,-0.01 0.01,-0.04 0.01,-0.1 -0,-0.11 -0.01,-0.32 -0.02,-0.46l-0 -0.1c-0,-0.09 -0,-0.1 -0.01,-0.12 -0,-0.01 -0.01,-0.01 -0.02,-0.02 -0.01,-0.01 -0.04,-0.03 -0.08,-0.07 -0.09,-0.06 -0.25,-0.18 -0.41,-0.3zm-0.22 1.02c-0.03,-0 -0.06,-0 -0.09,-0 -0.04,-0 -0.08,-0.01 -0.12,-0.01 -0.04,-0.01 -0.09,-0.02 -0.13,-0.03 -0.04,-0.01 -0.09,-0.02 -0.12,-0.03 -0.02,-0.01 -0.04,-0.01 -0.05,-0.02 0.03,0.08 0.06,0.15 0.08,0.19 0.01,0.03 0.02,0.04 0.03,0.05 0.01,0.01 0.03,0.01 0.06,0.01 0.04,0 0.09,0 0.15,0l0.2 0c-0,-0.01 -0,-0.02 -0.01,-0.03 -0,-0.03 -0,-0.08 0,-0.13zm-0.05 -4.67c-0.02,0 -0.04,0.01 -0.05,0.01 -0.05,0 -0.05,-0.02 -0.05,-0.06l0 -0.07c0,-0.04 0,-0.09 0,-0.12 -0,-0.02 -0,-0.03 -0.01,-0.04 -0,-0 -0.01,-0 -0.02,-0 -0.02,0 -0.05,0.01 -0.08,0.01 -0.03,0.01 -0.06,0.02 -0.08,0.02 -0.02,0.01 -0.03,0.02 -0.04,0.03 -0.01,0.01 -0.01,0.02 -0.02,0.03 -0,0.02 -0.01,0.04 -0.01,0.06 -0,0.02 -0.01,0.05 -0.01,0.07l-0.01 0.13c0.02,-0.01 0.03,-0.01 0.05,-0.02 0.04,-0.01 0.08,-0.03 0.11,-0.03 0.05,-0.01 0.06,-0.01 0.08,0l0 0c0.01,0.01 0.03,0.02 0.05,0.04l0.02 0.02c0.01,0.01 0.01,0.01 0.02,0.02l-0 -0c-0,-0.02 -0,-0.03 -0,-0.04 0,-0.02 0,-0.03 0.04,-0.05 0,-0 0.01,-0 0.01,-0zm1.81 0.82l0.85 0c0.07,0 0.13,0.03 0.18,0.07 0.05,0.05 0.07,0.11 0.07,0.18l0 0.23c0,0.07 -0.03,0.13 -0.07,0.18 -0.05,0.05 -0.11,0.07 -0.18,0.07l-0.85 0c-0.07,0 -0.13,-0.03 -0.18,-0.07 -0.05,-0.05 -0.07,-0.11 -0.07,-0.18l0 -0.23c0,-0.07 0.03,-0.13 0.07,-0.18 0.05,-0.05 0.11,-0.07 0.18,-0.07zm0.85 0.05l-0.85 0c-0.06,0 -0.11,0.02 -0.14,0.06 -0.04,0.04 -0.06,0.09 -0.06,0.14l0 0.23c0,0.06 0.02,0.11 0.06,0.14 0.04,0.04 0.09,0.06 0.14,0.06l0.85 0c0.06,0 0.11,-0.02 0.14,-0.06 0.04,-0.04 0.06,-0.09 0.06,-0.14l0 -0.23c0,-0.06 -0.02,-0.11 -0.06,-0.14 -0.04,-0.04 -0.09,-0.06 -0.14,-0.06zm-1.25 0.92c0.02,0 0.05,0.01 0.06,0.03 0.02,0.02 0.03,0.04 0.03,0.06l0 0.81c0,0.02 -0.01,0.05 -0.03,0.06 -0.02,0.02 -0.04,0.03 -0.06,0.03 -0.02,0 -0.05,-0.01 -0.06,-0.03 -0.02,-0.02 -0.03,-0.04 -0.03,-0.06l0 -0.81c0,-0.02 0.01,-0.05 0.03,-0.06 0.02,-0.02 0.04,-0.03 0.06,-0.03zm0 0.05c-0.01,0 -0.02,0 -0.03,0.01 -0.01,0.01 -0.01,0.02 -0.01,0.03l0 0.81c0,0.01 0,0.02 0.01,0.03 0.01,0.01 0.02,0.01 0.03,0.01 0.01,0 0.02,-0 0.03,-0.01 0.01,-0.01 0.01,-0.02 0.01,-0.03l0 -0.81c0,-0.01 -0.01,-0.02 -0.01,-0.03 -0.01,-0.01 -0.02,-0.01 -0.03,-0.01zm-0.84 0.78l0 -1.87c0,-0.03 0.01,-0.05 0.03,-0.07 0.02,-0.02 0.04,-0.03 0.07,-0.03 0.03,0 0.05,0.01 0.07,0.03 0.02,0.02 0.03,0.04 0.03,0.07l0 1.87 -0.05 0 0 -1.87c0,-0.01 -0.01,-0.03 -0.02,-0.04 -0.01,-0.01 -0.02,-0.02 -0.04,-0.02 -0.01,0 -0.03,0.01 -0.04,0.02 -0.01,0.01 -0.02,0.02 -0.02,0.04l0 1.87 -0.05 0zm-1.07 -1.64l-0.01 0 -0.05 0c-0,0 -0,0 -0.01,0.1 -0,0.06 -0.01,0.16 -0.01,0.25l-0.01 0.25c-0,0.1 -0.02,0.1 -0.01,0.1 0.02,0 0.05,0 0.06,-0l0 0c0.01,-0 0.02,-0 0.02,0l0 -0.09 0.01 -0.61zm0 -0.08l0 -0.09 -0.01 0 -0 0c-0.11,0.02 -0.22,0.04 -0.3,0.06 -0.04,0.01 -0.08,0.02 -0.11,0.03 -0.03,0.01 -0.06,0.02 -0.09,0.03 -0.02,0.01 -0.05,0.02 -0.06,0.03 -0.02,0.01 -0.03,0.02 -0.05,0.03 -0.01,0.01 -0.02,0.02 -0.03,0.03 -0.01,0.01 -0.01,0.02 -0.02,0.03 -0,0.01 -0,0.02 -0.01,0.02 0.03,-0.01 0.06,-0.02 0.1,-0.02 0.03,-0.01 0.06,-0.01 0.09,-0.02 0,-0 0,-0.01 0,-0.01 0,-0.01 0.01,-0.02 0.01,-0.03 0.01,-0.01 0.02,-0.02 0.03,-0.03 0.01,-0.01 0.02,-0.02 0.04,-0.03 0.02,-0.01 0.04,-0.01 0.06,-0.02 0.02,-0 0.05,-0.01 0.09,-0.01 0.04,-0 0.08,-0.01 0.13,-0.01l0.12 -0.01zm-0.13 1.14c0.01,-0.01 0.01,-0.02 0.03,-0.02 0.02,-0 0.04,-0.01 0.06,-0.01l0.02 -0.01c0,-0.01 0,-0.02 0.01,-0.04 0,-0.03 0,-0.07 0,-0.1 0,-0.04 -0,-0.08 -0,-0.1 -0,-0.03 -0,-0.03 -0,-0.03l-0 0c-0.02,0 -0.04,0 -0.06,0l-0 0.03c-0.04,-0 -0.09,-0.01 -0.11,-0.01 -0.01,0 -0.01,0 -0.02,0 -0,0 -0,0.01 -0.01,0.02 -0,0.01 -0.01,0.03 -0.01,0.04 -0,0.02 -0,0.04 -0.01,0.07 -0,0.02 -0,0.05 -0,0.07 0,0.02 0,0.04 0,0.05 0,0.01 0,0.01 0.01,0.01 0,0 0.01,0 0.02,0 0.02,0 0.05,-0 0.08,-0l0 -0 0 0.02zm-0.33 -0.95c-0.04,0.01 -0.08,0.01 -0.11,0.02 -0.04,0.01 -0.07,0.02 -0.11,0.02 -0.01,0 -0.03,0.01 -0.04,0.01l-0 0 -0.02 0.01c-0.01,0.01 -0.03,0.01 -0.04,0.02 -0.01,0.01 -0.02,0.01 -0.02,0.02 -0.01,0.01 -0.02,0.02 -0.03,0.04 -0.01,0.01 -0.01,0.03 -0.01,0.04l-0 0 0 0.01 0.04 -0.02c0.08,-0.03 0.23,-0.08 0.3,-0.11l0 -0c0.03,-0.01 0.05,-0.02 0.06,-0.02l-0 -0.02c-0,-0.01 -0,-0.02 -0,-0.02 -0,-0 -0,-0 -0,-0 -0,-0 -0.01,-0 -0.01,-0.01l-0.01 -0 -0 -0zm0.02 0.46c-0.01,0 -0.02,0.01 -0.04,0.01 -0.07,0.02 -0.2,0.05 -0.33,0.08l0.01 0.08c0,0.02 0.01,0.03 0.01,0.04 0,0.01 0,0.01 0.01,0.02 0,0 0,0.01 0.01,0.01 0,0 0.01,0.01 0.02,0.01 0.01,0 0.03,0 0.05,-0 0.02,-0 0.05,-0.01 0.08,-0.02 0.04,-0.01 0.07,-0.02 0.1,-0.03 0.02,-0.01 0.04,-0.01 0.05,-0.02 0.01,-0 0.01,-0.01 0.01,-0.01 0,-0 0.01,-0.01 0.01,-0.02 0,-0.02 0.01,-0.05 0.01,-0.1l0 -0.05zm-0.37 0.04c0.13,-0.03 0.26,-0.06 0.32,-0.08 0.03,-0.01 0.04,-0.01 0.05,-0.02l0 -0 0 0 0 -0.31c0,-0.01 0,-0.01 -0.05,0l-0 0c-0.08,0.03 -0.23,0.08 -0.3,0.11 -0.03,0.01 -0.04,0.02 -0.06,0.02 0,0.03 0.01,0.07 0.01,0.11 0.01,0.06 0.01,0.11 0.02,0.16zm0.97 -1.36l-0.07 -0.08c-0.02,0.01 -0.04,0.03 -0.05,0.04 -0.02,0.02 -0.03,0.04 -0.04,0.07 -0.01,0.02 -0.02,0.05 -0.02,0.07l0.09 0.02 -0.01 0.04 -0.09 -0.02c-0.01,0.03 -0.01,0.06 -0.02,0.1 -0.01,0.05 -0.01,0.1 -0.02,0.15 -0,0.05 -0.01,0.09 -0.01,0.11 -0,0.02 -0.02,0.03 -0.01,0.03l0 -0c0.02,-0 0.04,-0.01 0.06,-0.01l0 -0 0 0c0.01,-0 0.02,-0 0.03,0 0,0 0.01,0 0.01,0l0.01 -0.11c0.01,-0.07 0.01,-0.14 0.02,-0.19 0.01,-0.05 0.01,-0.09 0.02,-0.11 0.01,-0.03 0.02,-0.05 0.03,-0.06 0.01,-0.02 0.02,-0.03 0.04,-0.04 0.01,-0.01 0.01,-0.01 0.02,-0.02zm-0.03 -0.1l0.07 0.08 0 -0c0.02,-0.01 0.05,-0.03 0.09,-0.05l0.09 -0.05c-0.02,-0.01 -0.03,-0.02 -0.04,-0.03l-0 -0c-0.01,-0 -0.01,-0.01 -0.04,0 -0.02,0.01 -0.06,0.02 -0.1,0.03 -0.02,0.01 -0.04,0.01 -0.05,0.02z"/>
    <path class="fil2" d="M0.89 5.11l5.54 0 0 14.35 -5.59 0 0 -14.35 0.05 0zm5.45 0.09l-5.41 0 0 14.17 5.41 0 0 -14.17z"/>
    <path class="fil2" d="M1.06 5.35l5.21 0 0 13.88 -5.26 0 0 -13.88 0.05 0zm5.12 0.09l-5.08 0 0 13.69 5.08 0 0 -13.69z"/>
    <path class="fil2" d="M6.35 18.92l-0.07 0 0 0.3 -0.25 0 0 0.15 0.32 0 0 -0.45zm-0.12 -0.09l0.21 0 0 0.63 -0.5 0 0 -0.33 0.25 0 0 -0.3 0.05 0z"/>
    <path class="fil2" d="M1.21 19.37l0 -0.15 -0.19 0 0 -0.3 -0.07 0 0 0.45 0.27 0zm0.09 -0.19l0 0.28 -0.45 0 0 -0.63 0.26 0 0 0.3 0.19 0 0 0.05z"/>
    <path class="fil2" d="M0.98 5.2l-0.04 0 0 0.33 0.07 0 0 -0.18 0.19 0 0 -0.12 -0.21 -0.01 -0.01 -0.02zm-0.09 -0.09l0.15 0 0.01 0.02 0.24 0.01 0 0.3 -0.19 0 0 0.18 -0.26 0 0 -0.51 0.05 0z"/>
    <path class="fil2" d="M6.07 5.25l0 0.1 0.2 0 0 0.18 0.07 0 0 -0.33 -0.06 0c-0.04,0.05 -0.09,0.05 -0.21,0.05zm-0.09 0.14l0 -0.24 0.08 -0c0.1,0 0.14,0 0.16,-0.03l0.01 -0.02 0.2 0 0 0.51 -0.26 0 0 -0.18 -0.2 0 0 -0.05z"/>
    <path class="fil2" d="M0.95 19.42l5.41 0 0 0.48 -5.43 0 0 -0.48 0.02 0zm5.36 0.05l-5.34 0 0 0.39 5.34 0 0 -0.39z"/>
    <path class="fil2" d="M6.15 19.85l0.16 0 0 -0.39 -0.16 0 0 0.39zm0.19 0.05l-0.23 0 0 -0.48 0.26 0 0 0.48 -0.02 0z"/>
    <path class="fil2" d="M0.97 19.85l0.16 0 0 -0.39 -0.16 0 0 0.39zm0.19 0.05l-0.23 0 0 -0.48 0.26 0 0 0.48 -0.02 0z"/>
    <path class="fil2" d="M3.33 19.85l0.16 0 0 -0.39 -0.16 0 0 0.39zm0.19 0.05l-0.23 0 0 -0.48 0.26 0 0 0.48 -0.02 0z"/>
    <path class="fil2" d="M3.74 19.85l0.16 0 0 -0.39 -0.16 0 0 0.39zm0.19 0.05l-0.23 0 0 -0.48 0.26 0 0 0.48 -0.02 0z"/>
    <path class="fil2" d="M0.96 19.89l1.43 0 0 0.24 -1.33 0c-0.03,0 -0.06,-0.01 -0.08,-0.03 -0.02,-0.02 -0.03,-0.05 -0.03,-0.08l0 -0.12 0.02 0zm1.38 0.05l-1.36 0 0 0.08c0,0.02 0.01,0.04 0.02,0.05 0.01,0.01 0.03,0.02 0.05,0.02l1.29 0 0 -0.15z"/>
    <path class="fil2" d="M6.31 19.93l-1.36 0 0 0.15 1.29 0c0.02,0 0.04,-0.01 0.05,-0.02 0.01,-0.01 0.02,-0.03 0.02,-0.05l0 -0.08zm-1.38 -0.05l1.43 0 0 0.12c0,0.03 -0.01,0.06 -0.03,0.08 -0.02,0.02 -0.05,0.03 -0.08,0.03l-1.33 0 0 -0.24 0.02 0z"/>
    <path class="fil2" d="M4.74 19.93l-2.2 0 0 0.15 0.1 0 0 0.05 -0.14 0 0 -0.24 0.02 0 2.27 0 0 0.24 -0.14 0 0 -0.05 0.1 0 0 -0.15zm-0.45 0.19l-1.3 0 0 -0.05 1.3 0 0 0.05z"/>
    <path class="fil2" d="M6.15 19.49l0 0.1 0.16 0 0 -0.1 -0.16 0zm-0.05 0.12l0 -0.17 0.26 0 0 0.19 -0.26 0 0 -0.02z"/>
    <path class="fil2" d="M1.13 19.59l0 -0.1 -0.16 0 0 0.1 0.16 0zm0.05 -0.12l0 0.17 -0.25 0 0 -0.19 0.25 0 0 0.02z"/>
    <path class="fil2" d="M1.52 20.08l0 -0.15 -0.31 0 0 0.15 0.31 0zm0.05 -0.17l0 0.22 -0.4 0 0 -0.24 0.4 0 0 0.02z"/>
    <path class="fil2" d="M1.79 19.93l0 0.15 0.31 0 0 -0.15 -0.31 0zm-0.05 0.17l0 -0.22 0.4 0 0 0.24 -0.4 0 0 -0.02z"/>
    <path class="fil2" d="M5.19 19.93l0 0.15 0.31 0 0 -0.15 -0.31 0zm-0.05 0.17l0 -0.22 0.4 0 0 0.24 -0.4 0 0 -0.02z"/>
    <path class="fil2" d="M5.76 19.93l0 0.15 0.31 0 0 -0.15 -0.31 0zm-0.05 0.17l0 -0.22 0.4 0 0 0.24 -0.4 0 0 -0.02z"/>
    <path class="fil2" d="M2.66 20l0 0.15 0.31 0 0 -0.15 -0.31 0zm-0.05 0.17l0 -0.22 0.4 0 0 0.24 -0.4 0 0 -0.02z"/>
    <path class="fil2" d="M4.31 20l0 0.15 0.31 0 0 -0.15 -0.31 0zm-0.05 0.17l0 -0.22 0.4 0 0 0.24 -0.4 0 0 -0.02z"/>
    <path class="fil2" d="M6.48 4.22c0.07,0.01 0.13,0.04 0.18,0.09 0.06,0.06 0.09,0.14 0.09,0.22l0 2.33c0,0.09 -0.04,0.16 -0.09,0.22 -0.06,0.06 -0.13,0.09 -0.21,0.09l0 -0.09c0.06,-0 0.11,-0.03 0.15,-0.07 0.04,-0.04 0.07,-0.1 0.07,-0.16l0 -2.33c0,-0.06 -0.03,-0.12 -0.07,-0.16 -0.02,-0.02 -0.05,-0.04 -0.08,-0.05 0,-0.01 0,-0.02 0,-0.03 -0,-0.03 -0.01,-0.05 -0.02,-0.06l-0 -0.01zm-5.72 0.1c-0.03,0.01 -0.07,0.03 -0.09,0.05 -0.04,0.04 -0.07,0.1 -0.07,0.16l0 2.33c0,0.06 0.03,0.12 0.07,0.16 0.04,0.04 0.1,0.07 0.16,0.07l0.02 0 0 0.09 -0.02 0c-0.09,0 -0.16,-0.04 -0.22,-0.09 -0.06,-0.06 -0.09,-0.14 -0.09,-0.22l0 -2.33c0,-0.09 0.04,-0.16 0.09,-0.22 0.05,-0.05 0.11,-0.08 0.18,-0.09l0 0 -0 0.01c-0.01,0.02 -0.02,0.04 -0.02,0.06 -0,0.01 -0,0.02 -0,0.03z"/>
    <path class="fil2" d="M0.87 5.93l0.23 0 0 0.34 -0.28 0 0 -0.34 0.05 0zm0 12.24l0.23 0 0 0.34 -0.28 0 0 -0.34 0.05 0zm0.14 0.09l-0.09 0 0 0.15 0.09 0 0 -0.15zm-0.14 -0.97l0.23 0 0 0.34 -0.28 0 0 -0.34 0.05 0zm0.14 0.09l-0.09 0 0 0.15 0.09 0 0 -0.15zm-0.14 -0.97l0.23 0 0 0.34 -0.28 0 0 -0.34 0.05 0zm0.14 0.09l-0.09 0 0 0.15 0.09 0 0 -0.15zm-0.14 -0.97l0.23 0 0 0.34 -0.28 0 0 -0.34 0.05 0zm0.14 0.09l-0.09 0 0 0.15 0.09 0 0 -0.15zm-0.14 -0.97l0.23 0 0 0.34 -0.28 0 0 -0.34 0.05 0zm0.14 0.09l-0.09 0 0 0.15 0.09 0 0 -0.15zm-0.14 -0.97l0.23 0 0 0.34 -0.28 0 0 -0.34 0.05 0zm0.14 0.09l-0.09 0 0 0.15 0.09 0 0 -0.15zm-0.14 -0.97l0.23 0 0 0.34 -0.28 0 0 -0.34 0.05 0zm0.14 0.09l-0.09 0 0 0.15 0.09 0 0 -0.15zm-0.14 -0.97l0.23 0 0 0.34 -0.28 0 0 -0.34 0.05 0zm0.14 0.09l-0.09 0 0 0.15 0.09 0 0 -0.15zm-0.14 -0.97l0.23 0 0 0.34 -0.28 0 0 -0.34 0.05 0zm0.14 0.09l-0.09 0 0 0.15 0.09 0 0 -0.15zm-0.14 -0.97l0.23 0 0 0.34 -0.28 0 0 -0.34 0.05 0zm0.14 0.09l-0.09 0 0 0.15 0.09 0 0 -0.15zm-0.14 -0.97l0.23 0 0 0.34 -0.28 0 0 -0.34 0.05 0zm0.14 0.09l-0.09 0 0 0.15 0.09 0 0 -0.15zm-0.14 -0.97l0.23 0 0 0.34 -0.28 0 0 -0.34 0.05 0zm0.14 0.09l-0.09 0 0 0.15 0.09 0 0 -0.15zm-0.14 -0.97l0.23 0 0 0.34 -0.28 0 0 -0.34 0.05 0zm0.14 0.09l-0.09 0 0 0.15 0.09 0 0 -0.15zm-0.14 -0.97l0.23 0 0 0.34 -0.28 0 0 -0.34 0.05 0zm0.14 0.09l-0.09 0 0 0.15 0.09 0 0 -0.15zm0 -0.87l-0.09 0 0 0.15 0.09 0 0 -0.15z"/>
    <path class="fil2" d="M6.21 5.93l0.23 0 0 0.34 -0.28 0 0 -0.34 0.05 0zm0 12.24l0.23 0 0 0.34 -0.28 0 0 -0.34 0.05 0zm0.14 0.09l-0.09 0 0 0.15 0.09 0 0 -0.15zm-0.14 -0.97l0.23 0 0 0.34 -0.28 0 0 -0.34 0.05 0zm0.14 0.09l-0.09 0 0 0.15 0.09 0 0 -0.15zm-0.14 -0.97l0.23 0 0 0.34 -0.28 0 0 -0.34 0.05 0zm0.14 0.09l-0.09 0 0 0.15 0.09 0 0 -0.15zm-0.14 -0.97l0.23 0 0 0.34 -0.28 0 0 -0.34 0.05 0zm0.14 0.09l-0.09 0 0 0.15 0.09 0 0 -0.15zm-0.14 -0.97l0.23 0 0 0.34 -0.28 0 0 -0.34 0.05 0zm0.14 0.09l-0.09 0 0 0.15 0.09 0 0 -0.15zm-0.14 -0.97l0.23 0 0 0.34 -0.28 0 0 -0.34 0.05 0zm0.14 0.09l-0.09 0 0 0.15 0.09 0 0 -0.15zm-0.14 -0.97l0.23 0 0 0.34 -0.28 0 0 -0.34 0.05 0zm0.14 0.09l-0.09 0 0 0.15 0.09 0 0 -0.15zm-0.14 -0.97l0.23 0 0 0.34 -0.28 0 0 -0.34 0.05 0zm0.14 0.09l-0.09 0 0 0.15 0.09 0 0 -0.15zm-0.14 -0.97l0.23 0 0 0.34 -0.28 0 0 -0.34 0.05 0zm0.14 0.09l-0.09 0 0 0.15 0.09 0 0 -0.15zm-0.14 -0.97l0.23 0 0 0.34 -0.28 0 0 -0.34 0.05 0zm0.14 0.09l-0.09 0 0 0.15 0.09 0 0 -0.15zm-0.14 -0.97l0.23 0 0 0.34 -0.28 0 0 -0.34 0.05 0zm0.14 0.09l-0.09 0 0 0.15 0.09 0 0 -0.15zm-0.14 -0.97l0.23 0 0 0.34 -0.28 0 0 -0.34 0.05 0zm0.14 0.09l-0.09 0 0 0.15 0.09 0 0 -0.15zm-0.14 -0.97l0.23 0 0 0.34 -0.28 0 0 -0.34 0.05 0zm0.14 0.09l-0.09 0 0 0.15 0.09 0 0 -0.15zm-0.14 -0.97l0.23 0 0 0.34 -0.28 0 0 -0.34 0.05 0zm0.14 0.09l-0.09 0 0 0.15 0.09 0 0 -0.15zm0 -0.87l-0.09 0 0 0.15 0.09 0 0 -0.15z"/>
    <g>
     <polygon class="fil3" style="mask:url(#id0)" points="2.37,5.44 1.37,5.44 1.37,19.13 2.37,19.13 "/>
     <polygon class="fil3" style="mask:url(#id2)" points="4.88,5.44 5.88,5.44 5.88,19.13 4.88,19.13 "/>
    </g>
   </g>
   <path class="fil4" d="M1.03 0.4c0.14,-0.06 0.21,-0.08 0.29,-0.01l0.04 0.04 0.05 -0.1c-0.14,0.03 -0.09,-0.02 -0.1,-0.25 -0,-0.04 0.01,-0.05 -0.11,-0.02 -0.17,0.04 -0.14,0.06 -0.17,0.34z"/>
   <path class="fil4" d="M1.28 0.42c-0.05,-0.05 -0.07,-0.04 -0.19,0 -0.02,0.01 -0.04,0.01 -0.05,0.02l0.07 0.08 0.18 -0.1z"/>
   <path class="fil4" d="M1.06 0.55l-0.07 -0.08 -0.11 0.18 0.09 0.02 -0.01 0.04 -0.09 -0.02 -0.04 0.36 0.05 0.02 0.04 0c0.01,-0.18 0.01,-0.43 0.11,-0.52 0.01,-0.01 0.01,-0.01 0.02,-0.02z"/>
   <path class="fil4" d="M1.39 0.38l0 0.06c0.3,-0.02 0.99,-0.22 1.41,-0.23 0.17,-0.01 0.44,-0.01 0.73,-0.01l0.19 0c0.98,0 0.8,-0.01 1.61,0.15l0.52 0.09c0.01,-0.08 0.04,-0.06 -0.17,-0.11l-0.96 -0.18 -1.1 -0.02 -1.1 0.02 -1.13 0.23z"/>
   <path class="fil4" d="M5.95 0.21c0,0.12 0.02,0.14 -0.1,0.12l0.05 0.1c0.09,-0.08 0.1,-0.12 0.32,-0.02 -0.02,-0.24 0.02,-0.33 -0.25,-0.36l-0.03 0.16z"/>
   <path class="fil4" d="M6.22 0.45l-0.2 -0.06c-0.01,0.01 -0.03,0.01 -0.04,0.03l0.18 0.1 0.07 -0.08z"/>
   <path class="fil4" d="M6.26 0.47l-0.07 0.08c0.12,0.08 0.11,0.23 0.13,0.43l0.01 0.11 0.1 0.01c0.01,0 -0.01,-0 -0.01,-0.03l-0.04 -0.36 -0.09 0.02 -0.01 -0.04 0.09 -0.02 -0.11 -0.18z"/>
   <path class="fil5" d="M0.41 1.37c0,-0.15 0.4,-0.14 0.49,-0.15l0 -0.09c-0.12,0.01 -0.65,0.09 -0.68,0.28l0.19 -0.04z"/>
   <path class="fil5" d="M0.44 1.41c-0.09,0.01 -0.39,0.05 -0.39,0.19l0.41 -0.15 -0.02 -0.05z"/>
   <path class="fil5" d="M0.46 1.87l-0.37 0.09c0.02,0.16 -0.01,0.21 0.29,0.11 0.08,-0.03 0.07,-0.03 0.08,-0.2z"/>
   <path class="fil6" d="M0.09 1.92l0.37 -0.09c0,-0.37 0.02,-0.33 -0.04,-0.3l-0.36 0.13 0.03 0.27z"/>
   <path class="fil5" d="M6.35 1.22c0.09,0.01 0.49,0 0.49,0.15l0.19 0.04c-0.03,-0.19 -0.56,-0.26 -0.68,-0.28l0 0.09z"/>
   <path class="fil5" d="M7.19 1.6c0,-0.15 -0.37,-0.21 -0.4,-0.19l-0.01 0.04 0.41 0.15z"/>
   <path class="fil7" d="M7.19 1.65l-0.36 -0.13c-0.07,-0.02 -0.05,-0.05 -0.04,0.3l0.37 0.09 0.03 -0.27z"/>
   <path class="fil5" d="M7.15 1.96l-0.37 -0.09c0.01,0.19 -0.02,0.18 0.18,0.23 0.18,0.05 0.16,0.02 0.19,-0.14z"/>
   <path class="fil5" d="M4.06 1.84c0.25,0 0.2,-0.29 0.2,-0.44 0,-0.11 -0.09,-0.2 -0.2,-0.2l-0.85 0c-0.25,0 -0.2,0.29 -0.2,0.44 0,0.11 0.09,0.2 0.2,0.2l0.85 0z"/>
   <path class="fil5" d="M0.87 2.33l0 -0.28c-0.02,0 -0.04,0 -0.06,0l-0 0.03c-0.13,-0.01 -0.15,-0.06 -0.15,0.19 0,0.08 -0,0.07 0.1,0.06l0 0.02 0.1 -0.03z"/>
   <path class="fil5" d="M6.43 2.05c-0.06,-0 -0.08,-0.06 -0.06,0.23 0,0.02 0,0.04 0.01,0.04l0.1 0.03 0 -0.02c0.09,0.01 0.12,0.05 0.1,-0.2 -0.01,-0.08 0,-0.07 -0.14,-0.06l-0 -0.03z"/>
   <path class="fil5" d="M4.66 3.96l-1.46 -0.02c-0.16,0.01 -0.38,0.01 -0.6,0.02 -0.01,0.18 -0.07,0.15 0.63,0.15l0.4 0 1.03 -0.03c0.01,-0.02 0.01,-0.07 0,-0.12z"/>
   <path class="fil5" d="M3.77 4.15l-0.29 -0 -0.86 -0.01c-0.08,-0.01 -0.07,-0.07 -0.07,-0.18l-0.8 0.02 0.48 0.37 0.03 0.58 2.74 -0.01c0.05,-0.01 0.04,0.08 0.05,0.19l0.74 0 0.01 -0.36 0.13 -0.04c-0.01,-0.36 -0,-0.34 -0.21,-0.34l-0.67 0.04 -0.05 0.32c-0.01,0.04 -0.02,0.06 -0.09,0.08l-2.49 0.03 -0 -0.05 2.49 -0.03c0.09,-0.01 0.06,-0.11 0.09,-0.3 0.01,-0.1 0.05,-0.11 0.18,-0.12l0.72 -0.01c0.1,0.03 0.09,0.2 0.1,0.37 0.22,-0.02 0.22,0.03 0.2,-0.62 -0,-0.14 0.02,-0.12 -0.08,-0.13 -0.47,-0.01 -0.88,-0.01 -1.39,-0 0.01,0.19 -0,0.19 -0.26,0.19l-0.67 0z"/>
   <path class="fil5" d="M2.18 4.37l-0.51 -0.39 -0.44 -0c-0.13,0.01 -0.12,0.17 -0.12,0.35 -0.02,0.37 -0.03,0.39 0.19,0.43 0.05,0.01 0.09,0.01 0.13,0.01l0 0.05c-0.08,0 -0.32,-0.02 -0.35,-0.11 -0.02,-0.06 -0.05,-0.67 0.07,-0.74 -0.11,-0.04 -0.25,-0.21 -0.27,-0.38l0.01 -0.99 0 -0.22 -0.09 0.02c-0,0 0.01,0.01 0.01,0.06l-0.03 1.34c-0,0.18 -0.02,0.29 0.05,0.39 0.09,-0.09 0.09,-0.07 0.24,-0.08l0 0.05c-0.11,0 -0.16,-0.02 -0.24,0.1 -0.04,0.06 0.06,0.56 0.09,0.59 0.09,0.08 0.41,0.11 0.54,0.12 0.01,-0.2 0.02,-0.23 -0.11,-0.35l0.03 -0.03c0.21,0.2 0.1,0.3 0.12,0.54l0.71 0 -0.02 -0.75z"/>
   <path class="fil5" d="M6.22 4.15c0,0.13 0.02,0.48 -0.04,0.56 -0.06,0.07 -0.32,0.05 -0.34,0.07l-0.01 0.18c0.11,-0 0.46,-0.04 0.53,-0.12 0.04,-0.09 0.13,-0.52 0.08,-0.58 -0.08,-0.12 -0.13,-0.1 -0.23,-0.1z"/>
   <polygon class="fil5" points="6.33,4.91 5.83,5 5.83,5.11 6.23,5.11 "/>
   <path class="fil5" d="M6.47 4.57c-0.05,0.28 -0.06,0.28 -0.18,0.54 0,0 -0,0 -0,0l0.15 0 0 0.51 0 0.3 0 0.34 0 0.54 0 0.28c0.06,-0 0.11,-0.03 0.15,-0.07 0.04,-0.04 0.07,-0.1 0.07,-0.16l0 -2.33c0,-0.06 -0.03,-0.12 -0.07,-0.16 -0.02,-0.02 -0.05,-0.04 -0.08,-0.05 0,0.07 -0.02,0.16 -0.04,0.26z"/>
   <path class="fil5" d="M4.99 4.97c-0.03,0 -0.12,0 -0.48,0.01l-2.25 0c0,0.06 0,0.1 -0,0.13l2.74 0 -0.01 -0.14z"/>
   <path class="fil5" d="M1.45 5.11l-0 -0.11 -0.51 -0.09c0.05,0.11 0.07,0.17 0.09,0.2l0.01 0 0.41 0z"/>
   <path class="fil5" d="M0.99 5.11l-0.16 -0.37c-0.02,-0.1 -0.1,-0.44 -0.05,-0.52 -0.01,0.02 -0.02,0.04 -0.02,0.06 -0,0.01 -0,0.02 -0,0.03 -0.03,0.01 -0.07,0.03 -0.09,0.05 -0.04,0.04 -0.07,0.1 -0.07,0.16l0 2.33c0,0.06 0.03,0.12 0.07,0.16 0.04,0.04 0.1,0.07 0.16,0.07l0 -0.28 0.02 0 0 -0.54 -0.02 0 0 -0.34 0.02 0 0 -0.3 0 -0.51 0.05 0 0.1 0z"/>
   <path class="fil5" d="M6.16 3.92c0.06,0.01 0.05,0.04 0.06,0.18 0.14,0 0.14,-0.01 0.22,0.07 0.06,-0.09 0.04,-0.22 0.04,-0.38l-0.03 -1.34c-0,-0.09 0.04,-0.05 -0.06,-0.07l-0.03 -0.01 0.02 1.01c0.01,0.25 0.01,0.38 -0.21,0.55z"/>
   <polygon class="fil8" points="1.21,19.23 1.01,19.23 1.01,18.92 0.94,18.92 0.94,19.37 1.21,19.37 "/>
   <polygon class="fil8" points="6.03,19.23 6.03,19.37 6.35,19.37 6.35,18.92 6.27,18.92 6.27,19.23 "/>
   <polygon class="fil9" points="3.28,19.85 3.28,19.47 1.3,19.47 1.18,19.46 1.18,19.63 1.18,19.85 "/>
   <polygon class="fil9" points="3.95,19.46 3.95,19.85 6.1,19.85 6.1,19.63 6.1,19.61 6.1,19.47 5.93,19.47 "/>
   <polygon class="fil9" points="3.91,19.85 3.91,19.47 3.74,19.47 3.74,19.85 "/>
   <polygon class="fil9" points="3.7,19.85 3.7,19.47 3.54,19.46 3.54,19.85 "/>
   <polygon class="fil9" points="3.49,19.85 3.49,19.47 3.33,19.47 3.33,19.85 "/>
   <polygon class="fil9" points="1.13,19.59 1.13,19.49 0.97,19.49 0.97,19.59 "/>
   <polygon class="fil10" points="1.13,19.63 0.97,19.63 0.97,19.85 1.13,19.85 "/>
   <polygon class="fil10" points="6.15,19.63 6.15,19.85 6.31,19.85 6.31,19.63 "/>
   <polygon class="fil9" points="6.15,19.59 6.31,19.59 6.31,19.49 6.15,19.49 "/>
   <path class="fil10" d="M1.17 20.08l0 -0.15 -0.19 0 0 0.08c0,0.02 0.01,0.04 0.02,0.05 0.01,0.01 0.03,0.02 0.05,0.02l0.12 0z"/>
   <polygon class="fil8" points="1.21,19.93 1.21,20.08 1.52,20.08 1.52,19.93 "/>
   <polygon class="fil10" points="1.57,19.93 1.57,20.08 1.74,20.08 1.74,19.93 "/>
   <polygon class="fil11" points="1.79,19.93 1.79,20.08 2.1,20.08 2.1,19.93 "/>
   <polygon class="fil10" points="2.14,19.93 2.14,20.08 2.34,20.08 2.34,19.93 "/>
   <polygon class="fil10" points="4.95,19.93 4.95,20.08 5.14,20.08 5.14,19.93 "/>
   <polygon class="fil11" points="5.19,19.93 5.19,20.08 5.5,20.08 5.5,19.93 "/>
   <polygon class="fil10" points="5.54,19.93 5.54,20.08 5.72,20.08 5.72,19.93 "/>
   <polygon class="fil8" points="5.76,19.93 5.76,20.08 6.07,20.08 6.07,19.93 "/>
   <path class="fil10" d="M6.12 19.93l0 0.15 0.12 0c0.02,0 0.04,-0.01 0.05,-0.02 0.01,-0.01 0.02,-0.03 0.02,-0.05l0 -0.08 -0.19 0z"/>
   <polygon class="fil4" points="2.62,20.08 2.62,19.96 3.02,19.96 3.02,20.08 4.27,20.08 4.27,19.96 4.67,19.96 4.67,20.08 4.74,20.08 4.74,19.93 2.54,19.93 2.54,20.08 "/>
   <polygon class="fil4" points="2.66,20 2.66,20.15 2.97,20.15 2.97,20 "/>
   <polygon class="fil4" points="4.31,20 4.31,20.15 4.62,20.15 4.62,20 "/>
  </g>
 </g>
</svg>
