<?xml version="1.0" encoding="UTF-8"?>
<!DOCTYPE svg PUBLIC "-//W3C//DTD SVG 1.1//EN" "http://www.w3.org/Graphics/SVG/1.1/DTD/svg11.dtd">
<!-- Creator: CorelDRAW -->
<svg xmlns="http://www.w3.org/2000/svg" xml:space="preserve" width="3.193mm" height="6.535mm" version="1.1" style="shape-rendering:geometricPrecision; text-rendering:geometricPrecision; image-rendering:optimizeQuality; fill-rule:evenodd; clip-rule:evenodd"
viewBox="0 0 5.92 12.11"
 xmlns:xlink="http://www.w3.org/1999/xlink"
 xmlns:xodm="http://www.corel.com/coreldraw/odm/2003">
 <defs>
  <style type="text/css">
   <![CDATA[
    .str0 {stroke:#373435;stroke-width:0.19;stroke-miterlimit:22.9256}
    .fil8 {fill:none}
    .fil14 {fill:#BDBFC1}
    .fil15 {fill:#4B4B4D}
    .fil3 {fill:black}
    .fil0 {fill:#CC0000}
    .fil13 {fill:red}
    .fil4 {fill:#FF6600}
    .fil1 {fill:white}
    .fil9 {fill:#373435;fill-rule:nonzero}
    .fil7 {fill:#373435;fill-rule:nonzero}
    .fil6 {fill:url(#id4)}
    .fil11 {fill:url(#id5)}
    .fil5 {fill:url(#id6)}
    .fil10 {fill:url(#id7)}
    .fil2 {fill:url(#id8)}
    .fil12 {fill:url(#id9)}
   ]]>
  </style>
       <mask id="id0">
  <linearGradient id="id1" gradientUnits="userSpaceOnUse" x1="2.24" y1="-1.88" x2="4.69" y2="1.68">
   <stop offset="0" style="stop-opacity:1; stop-color:white"/>
   <stop offset="0.0509804" style="stop-opacity:0.501961; stop-color:white"/>
   <stop offset="1" style="stop-opacity:0; stop-color:white"/>
  </linearGradient>
        <rect style="fill:url(#id1)" x="3.74" y="0.25" width="1.29" height="2.42"/>
       </mask>
       <mask id="id2">
  <linearGradient id="id3" gradientUnits="userSpaceOnUse" x1="3.61" y1="-1.88" x2="1.15" y2="1.68">
   <stop offset="0" style="stop-opacity:1; stop-color:white"/>
   <stop offset="0.0509804" style="stop-opacity:0.501961; stop-color:white"/>
   <stop offset="1" style="stop-opacity:0; stop-color:white"/>
  </linearGradient>
        <rect style="fill:url(#id3)" x="0.82" y="0.25" width="1.29" height="2.42"/>
       </mask>
  <linearGradient id="id4" gradientUnits="userSpaceOnUse" x1="0.21" y1="1.68" x2="0.22" y2="1.87">
   <stop offset="0" style="stop-opacity:1; stop-color:black"/>
   <stop offset="1" style="stop-opacity:1; stop-color:white"/>
  </linearGradient>
  <linearGradient id="id5" gradientUnits="userSpaceOnUse" xlink:href="#id4" x1="5.7" y1="1.68" x2="5.71" y2="1.87">
  </linearGradient>
  <linearGradient id="id6" gradientUnits="userSpaceOnUse" xlink:href="#id4" x1="0.19" y1="1.3" x2="0.22" y2="1.77">
  </linearGradient>
  <linearGradient id="id7" gradientUnits="userSpaceOnUse" xlink:href="#id4" x1="5.7" y1="1.3" x2="5.73" y2="1.77">
  </linearGradient>
  <linearGradient id="id8" gradientUnits="userSpaceOnUse" x1="1" y1="0.4" x2="4.86" y2="0.4">
   <stop offset="0" style="stop-opacity:1; stop-color:#3B3B3B"/>
   <stop offset="0.180392" style="stop-opacity:1; stop-color:#D6D6D6"/>
   <stop offset="0.321569" style="stop-opacity:1; stop-color:#3B3B3B"/>
   <stop offset="0.709804" style="stop-opacity:1; stop-color:#D6D6D6"/>
   <stop offset="1" style="stop-opacity:1; stop-color:#3B3B3B"/>
  </linearGradient>
  <linearGradient id="id9" gradientUnits="userSpaceOnUse" xlink:href="#id8" x1="1" y1="3.01" x2="4.86" y2="3.01">
  </linearGradient>
 </defs>
 <g id="Camada_x0020_1">
  <metadata id="CorelCorpID_0Corel-Layer"/>
  <path class="fil0" d="M4.95 2.87c0.02,0.08 0.04,0.16 0.05,0.22 0.01,0.05 0.01,0.09 0.01,0.12 0,0.03 -0,0.04 -0.01,0.06 -0.01,0.02 -0.02,0.03 -0.05,0.05 -0.03,0.01 -0.07,0.03 -0.14,0.04 -0.08,0.02 -0.2,0.04 -0.35,0.06 -0.12,0.01 -0.25,0.03 -0.4,0.03 -0.11,0.01 -0.22,0.01 -0.34,0.01l0 0 -0 -0 -0.05 -0c-0.18,0 -0.36,-0 -0.53,-0 -0.13,-0 -0.25,-0 -0.38,0 -0.17,0 -0.35,0 -0.53,0l-0.05 0 -0 0 0 -0c-0.12,-0 -0.23,-0 -0.34,-0.01 -0.15,-0.01 -0.29,-0.02 -0.4,-0.03 -0.15,-0.02 -0.27,-0.04 -0.35,-0.06 -0.07,-0.02 -0.12,-0.03 -0.14,-0.04 -0.03,-0.02 -0.04,-0.03 -0.05,-0.05 -0.01,-0.02 -0.01,-0.03 -0.01,-0.06 0,-0.03 0,-0.06 0.01,-0.12 0.01,-0.06 0.03,-0.14 0.05,-0.22 0.02,-0.07 0.03,-0.13 0.05,-0.17 0.02,-0.04 0.03,-0.07 0.04,-0.09l-0.02 -0c-0.04,-0 -0.08,-0.01 -0.1,-0.02 -0.03,-0.01 -0.05,-0.03 -0.06,-0.06l-0.03 0.08c-0.02,0.05 -0.04,0.11 -0.05,0.15 -0.01,0.03 -0.02,0.05 -0.02,0.06 -0.02,0.03 -0.03,0.02 -0.04,0.01 -0.01,-0.01 -0.01,-0.02 -0.01,-0.04 -0,-0.02 -0,-0.06 -0,-0.14 -0,-0.08 0,-0.19 0,-0.31 0,-0.1 0,-0.21 0,-0.33 0,-0.08 -0,-0.15 -0,-0.21 -0,0.01 -0,0.01 -0,0.02 -0.01,0.04 -0.04,0.06 -0.07,0.06 0,0.33 -0.02,1.06 0.03,1.3 0,0.12 0,0.17 0.03,0.21 0.01,0.02 0.03,0.04 0.05,0.05 0.02,0.02 0.05,0.03 0.09,0.05 0.04,0.01 0.08,0.03 0.12,0.04 0.04,0.01 0.09,0.02 0.14,0.03 0.05,0.01 0.1,0.02 0.19,0.02 0.09,0.01 0.22,0.01 0.41,0.01 0.05,0 0.11,0 0.17,0l0.02 -0c0.11,-0 0.11,-0 0.12,-0l0 0c0.12,0 0.25,0 0.39,0l0 -0c0.18,0 0.36,0 0.53,0 0.17,-0 0.35,-0 0.53,-0l0 0c0.14,0 0.27,-0 0.38,-0l0 -0c0,0 0,0 0.12,0l0.02 0c0.06,-0 0.12,-0 0.17,-0 0.2,-0 0.32,-0.01 0.41,-0.01 0.09,-0.01 0.14,-0.01 0.19,-0.02 0.05,-0.01 0.1,-0.02 0.14,-0.03 0.04,-0.01 0.08,-0.02 0.12,-0.04 0.03,-0.01 0.06,-0.03 0.09,-0.05 0.02,-0.02 0.04,-0.03 0.05,-0.05 0.02,-0.04 0.03,-0.09 0.03,-0.21 0.05,-0.25 0.02,-1.04 0.03,-1.34l0 0c-0,-0.01 -0,-0.01 -0.01,-0.02 -0.01,-0.09 -0,-0.14 0.02,-0.16l-0.03 0 -0.01 -0.5 -0.03 -0.01c-0.01,0 -0.03,-0 -0.04,-0 0.01,0.01 0.02,0.02 0.02,0.05 0,0.03 0,0.07 0,0.17l-0 0.06c-0,0.08 -0,0.18 -0,0.3 -0,0.09 -0,0.18 -0,0.29 0,0.12 0,0.23 0,0.33 0,0.12 0,0.23 0,0.31 -0,0.07 -0,0.11 -0,0.14 -0,0.03 -0.01,0.04 -0.01,0.04 -0.01,0.02 -0.03,0.02 -0.04,-0.01 -0.01,-0.01 -0.01,-0.03 -0.02,-0.06 -0.01,-0.04 -0.03,-0.1 -0.05,-0.15l-0.03 -0.09c-0,0 -0,0.01 -0,0.01 -0.01,0.03 -0.03,0.05 -0.06,0.06 -0.02,0.01 -0.04,0.02 -0.07,0.02 0.02,0.01 0.03,0.04 0.05,0.09 0.02,0.04 0.03,0.1 0.05,0.17zm-0.16 -2.09c-0,-0.01 -0,-0.01 -0,-0.02l0.04 -0c0.01,0.25 0.02,0.5 0.02,0.72 0.01,0.22 0.01,0.42 0.01,0.57 0,0.15 0,0.24 -0,0.31 -0,0.07 -0.01,0.1 -0.01,0.13 -0.01,0.04 -0.02,0.06 -0.06,0.08 -0.01,0 -0.02,0.01 -0.04,0.01 0.02,0 0.04,0 0.06,-0 0.04,-0 0.07,-0.01 0.09,-0.02 0.02,-0.01 0.03,-0.02 0.04,-0.04 0.02,-0.04 0.01,-0.11 0.01,-0.14l-0 -0.03 0.03 -0c0,-0.02 0,-0.04 0.01,-0.06 0,-0.05 0.01,-0.13 0.01,-0.22 0,-0.08 0.01,-0.18 0.01,-0.3 0,-0.11 0,-0.24 -0,-0.37 -0,-0.15 -0,-0.3 -0.01,-0.4 -0,-0.09 -0,-0.14 -0.01,-0.17 -0,-0.03 -0,-0.04 -0.01,-0.05 -0,-0.01 -0.01,-0.02 -0.01,-0.03 -0,-0.01 -0.01,-0.02 -0.02,-0.03 -0.02,-0.02 -0.05,-0.05 -0.09,-0.08 -0.01,0 -0.02,0.01 -0.02,0.01 -0.03,0.01 -0.05,0 -0.16,-0.04l-0.03 -0.01c-0.07,-0.02 -0.16,-0.05 -0.26,-0.08 -0.1,-0.03 -0.21,-0.06 -0.29,-0.08 -0.08,-0.02 -0.15,-0.03 -0.21,-0.04 -0.07,-0.01 -0.14,-0.01 -0.24,-0.02 -0.18,-0.01 -0.44,-0.02 -0.72,-0.04 -0.27,0.01 -0.54,0.03 -0.72,0.04 -0.1,0.01 -0.17,0.01 -0.24,0.02 -0.07,0.01 -0.13,0.02 -0.21,0.04 -0.08,0.02 -0.19,0.05 -0.29,0.08 -0.1,0.03 -0.2,0.06 -0.26,0.08l-0.03 0.01c-0.11,0.04 -0.13,0.04 -0.16,0.04 -0.01,-0 -0.01,-0 -0.02,-0.01 -0.03,0.03 -0.07,0.06 -0.09,0.08 -0.01,0.01 -0.02,0.02 -0.02,0.03 -0,0.01 -0.01,0.02 -0.01,0.03 -0,0.01 -0.01,0.02 -0.01,0.05 -0,0.03 -0,0.08 -0.01,0.17 -0,0.1 -0,0.25 -0.01,0.4 -0,0.13 -0,0.26 -0,0.37 0,0.12 0,0.22 0.01,0.3 0,0.1 0.01,0.17 0.01,0.22 0,0.03 0,0.05 0.01,0.06l0.02 0 -0 0.03c-0,0.01 -0,0.03 -0,0.04l0 0c0,0.01 0,0.02 -0,0.02 0,0.02 0,0.05 0.01,0.07 0.01,0.02 0.02,0.03 0.04,0.04 0.02,0.01 0.05,0.02 0.09,0.02 0.02,0 0.04,0 0.06,0 -0.02,-0 -0.03,-0.01 -0.04,-0.01 -0.05,-0.02 -0.06,-0.05 -0.06,-0.08 -0.01,-0.03 -0.01,-0.07 -0.01,-0.13 -0,-0.07 -0,-0.16 -0,-0.31 0,-0.15 0.01,-0.34 0.01,-0.57 0.01,-0.22 0.02,-0.47 0.02,-0.72l0.04 0c-0,0.02 -0,0.03 -0,0.05 -0.01,0.23 -0.02,0.46 -0.02,0.67 -0.01,0.19 -0.01,0.35 -0.01,0.49 -0,0.03 -0,0.05 -0,0.08 -0,0.15 -0,0.24 0,0.3 0,0.06 0.01,0.1 0.01,0.13 0,0.02 0.01,0.04 0.04,0.05 0.04,0.01 0.1,0.02 0.23,0.03 0.24,0.01 0.7,-0.01 1.06,-0.02 0.4,-0.01 0.72,-0.01 1.12,0 0.37,0.01 0.82,0.03 1.06,0.02 0.13,-0 0.2,-0.01 0.23,-0.03 0.03,-0.01 0.03,-0.03 0.04,-0.05 0.01,-0.03 0.01,-0.06 0.01,-0.13 0,-0.07 0,-0.16 0,-0.3 -0,-0.01 -0,-0.03 -0,-0.04 -0,-0.14 -0.01,-0.32 -0.01,-0.53 -0.01,-0.22 -0.01,-0.46 -0.02,-0.7zm-2.7 -0.3c-0.01,-0.01 -0.02,-0.01 -0.04,-0.02l-0.04 -0.03 0.03 -0.03 0.04 0.03c0.01,0.01 0.02,0.02 0.03,0.02 0.01,0.01 0.02,0.01 0.16,0 0.21,-0 0.45,-0.02 0.69,-0.01 0.25,-0 0.49,0.01 0.69,0.01 0.14,0 0.15,0 0.16,-0 0.01,-0 0.02,-0.01 0.03,-0.02l0.04 -0.03 0.02 0.03 -0.04 0.03c-0.01,0.01 -0.03,0.02 -0.04,0.02 -0.02,0.01 -0.03,0.01 -0.18,0.01l-0.63 -0.01 -0.06 -0 -0.06 0 -0.63 0.01c-0.15,0 -0.16,0 -0.18,-0.01zm1.64 1.68c0.03,0 0.05,0.02 0.05,0.05 0,0.03 -0.02,0.05 -0.05,0.05 -0.03,0 -0.05,-0.02 -0.05,-0.05 0,-0.03 0.02,-0.05 0.05,-0.05zm-1.55 0c0.03,0 0.05,0.02 0.05,0.05 0,0.03 -0.02,0.05 -0.05,0.05 -0.03,0 -0.05,-0.02 -0.05,-0.05 0,-0.03 0.02,-0.05 0.05,-0.05zm-1.46 -1.19c0.04,-0.01 0.07,0.01 0.1,0.04 0,-0.01 0,-0.01 0,-0.02 0,-0.09 0,-0.14 0.01,-0.17 0,-0.03 0.01,-0.04 0.01,-0.06 0,-0.01 0.01,-0.02 0.01,-0.03 0.01,-0.01 0.01,-0.02 0.03,-0.04 0.02,-0.02 0.05,-0.05 0.08,-0.08 -0.01,-0.01 -0.02,-0.02 -0.04,-0.02 -0.02,-0.01 -0.03,-0.03 -0.05,-0.04 -0.01,-0.01 -0.02,-0.02 -0.03,-0.04 -0,-0 -0,-0.01 -0,-0.01l-0.02 0.01c-0.03,0.02 -0.05,0.05 -0.07,0.06 -0.02,0.02 -0.03,0.03 -0.04,0.05 -0.01,0.02 -0.01,0.04 -0.02,0.08 -0.01,0.07 -0.01,0.18 -0.02,0.29l0.04 -0.04zm-0.02 0.39c-0,-0.1 -0,-0.14 0,-0.17 0,-0.02 0.01,-0.03 0.01,-0.04l-0.06 0.01 -0 0.48c0.02,-0.01 0.04,0 0.05,0.04 -0,-0.11 -0,-0.2 -0,-0.27l-0 -0.06zm4.41 -0.22c-0.08,-0.04 -0.02,-0.16 0.06,-0.17 -0,-0.1 -0.01,-0.19 -0.02,-0.25 -0,-0.04 -0.01,-0.06 -0.02,-0.08 -0.01,-0.02 -0.02,-0.04 -0.04,-0.05 -0.02,-0.02 -0.04,-0.04 -0.07,-0.06l-0.02 -0.01c-0,0 -0,0.01 -0,0.01 -0.01,0.01 -0.02,0.02 -0.03,0.04 -0.01,0.01 -0.03,0.03 -0.05,0.04 -0.01,0.01 -0.02,0.02 -0.04,0.02 0.03,0.03 0.06,0.06 0.08,0.08 0.01,0.01 0.02,0.03 0.03,0.04 0.01,0.01 0.01,0.02 0.01,0.03 0,0.01 0.01,0.02 0.01,0.06 0,0.03 0,0.08 0.01,0.17 0,0.03 0,0.05 0,0.09l0.07 0.07 0 -0z"/>
  <g id="_1770232195840">
   <polygon class="fil1" points="5.11,10.92 0.77,10.92 0.77,11.63 0.77,11.7 0.91,11.7 4.97,11.7 5.11,11.7 5.11,11.63 "/>
   <polygon class="fil1" points="0.77,10.89 5.11,10.89 5.11,10.34 0.77,10.34 "/>
   <polygon class="fil1" points="0.77,10.31 5.11,10.31 5.11,9.75 0.77,9.75 "/>
   <polygon class="fil1" points="0.77,9.72 5.11,9.72 5.11,9.17 0.77,9.17 "/>
   <polygon class="fil1" points="0.77,9.14 5.11,9.14 5.11,8.59 0.77,8.59 "/>
   <polygon class="fil1" points="0.77,8.56 5.11,8.56 5.11,8 0.77,8 "/>
   <polygon class="fil1" points="0.77,7.97 5.11,7.97 5.11,7.42 0.77,7.42 "/>
   <polygon class="fil1" points="0.77,7.39 5.11,7.39 5.11,6.84 0.77,6.84 "/>
   <polygon class="fil1" points="0.77,6.81 5.11,6.81 5.11,6.26 0.77,6.26 "/>
   <polygon class="fil1" points="0.77,6.22 5.11,6.22 5.11,5.67 0.77,5.67 "/>
   <polygon class="fil1" points="0.77,5.64 5.11,5.64 5.11,5.09 0.77,5.09 "/>
   <polygon class="fil1" points="0.77,5.06 5.11,5.06 5.11,4.51 0.77,4.51 "/>
   <polygon class="fil1" points="0.77,4.48 5.11,4.48 5.11,3.99 5.11,3.83 4.99,3.83 0.89,3.83 0.77,3.83 0.77,3.99 "/>
   <polygon class="fil1" points="0.89,3.78 4.99,3.78 4.99,3.63 0.89,3.63 "/>
   <path class="fil2" d="M2.46 0.23c-0.1,0 -0.19,0.01 -0.27,0.01 -0.08,0 -0.13,0.01 -0.18,0.02 -0.06,0.01 -0.11,0.02 -0.2,0.04 -0.08,0.02 -0.19,0.04 -0.29,0.07 -0.12,0.03 -0.23,0.06 -0.31,0.08 -0.07,0.02 -0.12,0.03 -0.14,0.04 -0.02,0.01 -0.03,0.02 -0.03,0.02 -0.01,0.02 -0.02,0.04 -0.02,0.07 0.01,0 0.02,0.01 0.03,0.01 0.02,0 0.04,-0 0.14,-0.04l0.03 -0.01c0.07,-0.02 0.16,-0.05 0.26,-0.08 0.1,-0.03 0.21,-0.06 0.29,-0.08 0.09,-0.02 0.15,-0.04 0.22,-0.05 0.07,-0.01 0.14,-0.01 0.24,-0.02 0.16,-0.01 0.39,-0.02 0.64,-0.03l0 -0.01 0 0c0.03,0 0.05,0 0.08,0 0.03,-0 0.05,-0 0.08,-0l0 0 0 0.01c0.25,0.01 0.48,0.02 0.64,0.03 0.1,0.01 0.17,0.01 0.24,0.02 0.07,0.01 0.13,0.02 0.22,0.05 0.09,0.02 0.19,0.05 0.29,0.08 0.1,0.03 0.2,0.06 0.26,0.08l0.03 0.01c0.1,0.03 0.12,0.04 0.14,0.04 0.01,-0 0.02,-0.01 0.03,-0.01 -0.01,-0.03 -0.01,-0.05 -0.02,-0.07 -0.01,-0.01 -0.01,-0.01 -0.03,-0.02 -0.03,-0.01 -0.07,-0.02 -0.14,-0.04 -0.08,-0.02 -0.19,-0.05 -0.31,-0.08 -0.11,-0.03 -0.21,-0.05 -0.29,-0.07 -0.09,-0.02 -0.14,-0.03 -0.2,-0.04 -0.06,-0.01 -0.11,-0.01 -0.18,-0.02 -0.08,-0 -0.17,-0.01 -0.27,-0.01l-0.27 -0.01 -0.2 -0.01 -0.2 0.01 -0.27 0.01z"/>
   <path class="fil3" d="M2.08 0.21c0,-0.01 0,-0.01 0,-0.02l0 -0.02 0 -0.03c0,-0 -0,-0.01 -0,-0.01 -0.01,-0.02 -0.03,-0.03 -0.05,-0.03l-0.15 0.01c-0.03,0 -0.05,0.03 -0.05,0.05l0 0 0 0.04 0 0c0,0.01 0.01,0.03 0.01,0.03 0.01,0.01 0.02,0.01 0.04,0.01l0.15 -0.01c0.02,-0 0.04,-0.02 0.05,-0.04z"/>
   <path class="fil3" d="M2.79 0.12l0.04 0.01c0.03,0.01 0.08,0.01 0.13,0.01 0.05,0 0.09,-0 0.13,-0.01l0.04 -0.01 -0.04 -0.01c-0.03,-0.01 -0.08,-0.01 -0.13,-0.01 -0.05,0 -0.09,0 -0.13,0.01l-0.04 0.01z"/>
   <path class="fil3" d="M3.83 0.14l0 0.04 0 0.01c0,0.01 0,0.02 0.01,0.03 0.01,0.02 0.02,0.03 0.04,0.03l0.15 0.01c0.01,0 0.01,-0 0.02,-0 0.02,-0.01 0.03,-0.02 0.03,-0.04 0,-0 0,-0.01 0,-0.01l0 -0.03 0 -0.02c0,-0.03 -0.02,-0.05 -0.05,-0.05l-0.15 -0.01c-0.03,-0 -0.05,0.02 -0.05,0.04l-0 0.01z"/>
   <path class="fil4" d="M1.13 0.34c-0.02,-0.01 -0.04,-0.03 -0.07,-0.03 -0.02,0 -0.04,0.01 -0.06,0.01 -0.02,0.01 -0.04,0.02 -0.06,0.02 -0.02,0.01 -0.02,0.01 -0.03,0.01 -0,0 -0.01,0.01 -0.01,0.01 -0,0.01 -0.01,0.02 -0.01,0.04l-0 0 0 -0 0.01 0.02 0.02 -0.01c0.03,-0.02 0.08,-0.04 0.14,-0.06 0.02,-0.01 0.04,-0.02 0.07,-0.02z"/>
   <path class="fil4" d="M4.73 0.34c0.02,0.01 0.05,0.02 0.07,0.02 0.06,0.02 0.11,0.04 0.14,0.06l0.02 0.01 0.01 -0.02 0 0 -0 -0c-0,-0.01 -0.01,-0.03 -0.01,-0.04 -0,-0.01 -0.01,-0.01 -0.01,-0.01 -0.01,-0 -0.02,-0.01 -0.03,-0.01 -0.02,-0.01 -0.04,-0.02 -0.06,-0.02 -0.02,-0.01 -0.05,-0.01 -0.06,-0.01 -0.03,-0 -0.05,0.01 -0.07,0.03z"/>
   <path class="fil3" d="M0.78 1.1c0.06,-0.01 -0.02,-0.15 -0.08,-0.09 -0.01,0.01 0.02,0.03 -0.06,0.06l-0.34 0.09c-0.1,0 -0,0.05 -0.08,0.09 -0.16,0.07 -0.19,0.05 -0.19,0.13l0.3 -0.12c-0.07,-0.09 0.07,-0.11 0.17,-0.13l0.1 -0.01 0 -0.01 0.04 0 0 0.01 0.13 -0.02z"/>
   <path class="fil5" d="M0.37 1.64l-0.01 -0.34 -0.32 0.13 0.01 0.34c0,0 0,-0.03 0.03,-0.04l0.28 -0.1z"/>
   <path class="fil6" d="M0.37 1.68l-0.32 0.1c0,0.1 0.01,0.12 0.26,0.02l0.06 -0.03 0 -0.09z"/>
   <path class="fil3" d="M0.41 1.74c-0,0.01 -0,0.02 -0,0.03 0.17,0.01 0.21,-0.01 0.2,0.06 0.05,-0.01 0.05,0.01 0.05,-0.09l-0.03 -0.05c-0.05,0.01 0,0.05 -0.09,0.05l-0.14 -0z"/>
   <path class="fil3" d="M0.74 1.41c0,0.08 0,0.18 0,0.3 0,0.09 0,0.2 0,0.29 0,0.1 -0,0.22 -0,0.33 -0,0.12 -0,0.23 -0,0.31 0,0.05 0,0.09 0,0.11l0 -0.01c0.01,-0.04 0.03,-0.09 0.05,-0.15l0.04 -0.13c0.01,-0.01 0.01,-0.02 0.01,-0.03 0,-0.01 0,-0.01 0,-0.02l-0 -0.01c-0,-0.02 -0.01,-0.05 -0.02,-0.13 -0.01,-0.05 -0.01,-0.13 -0.01,-0.23 -0,-0.08 -0.01,-0.18 -0.01,-0.3 -0,-0.11 -0,-0.25 0,-0.37 0,-0.09 0,-0.18 0,-0.26 -0.02,0.01 -0.04,0.01 -0.07,0.01l0.01 0.01 -0 0c-0.01,0.01 -0.02,0.01 -0.02,0.03 -0,0.03 -0,0.07 -0,0.16l0 0.06z"/>
   <g>
    <g>
     <g>
      <g>
       <g>
        <g>
         <path class="fil7" d="M0.72 0.96c0.01,-0 0.01,-0 0.02,-0 0.01,0 0.02,0 0.03,0.01 0.01,0 0.02,0.01 0.03,0.02 0.01,0.01 0.02,0.02 0.02,0.03 0.01,0.01 0.01,0.02 0.02,0.03 0,0.01 0.01,0.02 0,0.04 -0,0.01 -0,0.02 -0.01,0.03 -0,0.01 -0.01,0.02 -0.02,0.02 -0.01,0.01 -0.02,0.01 -0.03,0.01 -0.01,0 -0.02,0 -0.03,0l-0.01 -0c-0.02,-0 -0.05,-0 -0.11,0.01 -0.03,0.01 -0.08,0.01 -0.12,0.02 -0.04,0.01 -0.09,0.02 -0.12,0.03 -0.02,0.01 -0.03,0.01 -0.04,0.01l0 0.01c0,0 0,0.01 0,0.01 0,0 0,0 0.01,0.01 0.01,0.01 0.01,0.01 0.02,0.02 0.01,0.02 0.01,0.04 0.01,0.11l0 0.06c0,0.09 0,0.2 0,0.26l0.14 0 0.03 -0 0 -0c0.01,-0.01 0.01,-0.02 0.02,-0.03 0.01,-0.01 0.02,-0.01 0.03,-0.01 0.01,-0 0.02,-0 0.03,-0.01 0.01,-0 0.02,0 0.03,0.01 0.01,0.01 0.01,0.02 0.02,0.04 0,0.01 0,0.03 0,0.05 -0,0.02 -0,0.05 -0.01,0.06 -0,0.02 -0.01,0.03 -0.01,0.04 -0.01,0.01 -0.01,0.01 -0.02,0.02l-0.02 0 -0.03 0c-0.01,0 -0.01,0 -0.02,0 -0.01,-0 -0.02,-0 -0.02,-0.01 -0,-0.01 -0.01,-0.01 -0.01,-0.02l0 -0.02 -0.02 -0 -0.16 -0.01c-0,0 -0.01,0.01 -0.02,0.01 -0.01,0.01 -0.02,0.01 -0.05,0.02 -0.03,0.01 -0.06,0.03 -0.1,0.04 -0.03,0.01 -0.05,0.02 -0.07,0.02 -0.03,0.01 -0.05,0.01 -0.07,0.01 -0.02,-0 -0.04,-0.01 -0.05,-0.02 -0.02,-0.02 -0.02,-0.04 -0.03,-0.12l0 0 0 -0 -0 -0 0 -0 0 -0 0 -0 0 0 -0 -0.02 -0 -0.03c-0,-0.09 -0.01,-0.22 -0.01,-0.3 -0,-0.04 0,-0.07 0,-0.08 0,-0.02 0.01,-0.03 0.01,-0.04 0.01,-0.01 0.01,-0.01 0.02,-0.02 0.01,-0.01 0.02,-0.01 0.04,-0.02l0.06 -0.03c0.03,-0.01 0.05,-0.02 0.07,-0.03 0.01,-0 0.01,0.01 0.01,0.01l-0 -0.01c-0,-0.01 -0,-0.02 0,-0.03 0,-0.01 0.01,-0.02 0.01,-0.03 0.01,-0.01 0.01,-0.02 0.02,-0.02 0.01,-0 0.02,-0.01 0.03,-0.01 0.01,-0 0.02,-0 0.03,-0 0.01,-0 0.02,-0 0.02,-0 0.01,-0 0.02,-0 0.03,-0.01l0.06 -0.02 0.06 -0.02c0.06,-0.02 0.13,-0.04 0.19,-0.05l0 -0c0,-0.01 0,-0.02 0.01,-0.04 0.01,-0.01 0.01,-0.01 0.02,-0.01 0.01,-0 0.02,-0.01 0.03,-0.01zm-0.31 0.78c-0,0.01 -0,0.02 -0,0.03l0.14 0.01c0.02,0 0.03,0 0.04,0 0.01,0 0.02,0.01 0.02,0.02 0,0.01 0,0.02 0,0.03l-0 0.01 0.03 -0 0.02 -0c0,-0 0,0 0,0 0,-0 0,-0.01 0,-0.02 0,-0.02 0,-0.04 0.01,-0.06 0,-0.02 0,-0.04 0,-0.05 -0,-0.01 -0,-0.01 -0,-0.01 -0,-0 -0,0 -0,0 -0.01,0 -0.01,0 -0.02,0 -0.01,0 -0.01,0 -0.01,0.01 -0.01,0 -0.01,0.01 -0.01,0.02l-0 0.01c-0.01,0.01 -0.01,0.01 -0.02,0.02 -0.01,0 -0.02,0 -0.04,0l-0.14 -0zm-0.37 -0.36l0.27 -0.11 0.04 -0.01c-0,-0.01 -0.01,-0.01 -0.01,-0.02 -0,-0.01 -0,-0.02 -0.01,-0.03 -0,-0.01 -0,-0.02 0.02,-0.03 0.01,-0.01 0.03,-0.01 0.06,-0.02 0.03,-0.01 0.07,-0.02 0.12,-0.03 0.04,-0.01 0.09,-0.02 0.12,-0.02 0.06,-0.01 0.09,-0.01 0.11,-0.01l0.01 0c0.01,0 0.02,-0 0.03,-0 0.01,-0 0.01,-0 0.01,-0 0,-0 0,-0 0.01,-0.01 0,-0 0,-0.01 0,-0.02 0,-0.01 -0,-0.01 -0,-0.02 -0,-0.01 -0.01,-0.01 -0.01,-0.02 -0,-0.01 -0.01,-0.01 -0.02,-0.02 -0.01,-0.01 -0.02,-0.01 -0.02,-0.01 -0,-0 -0.01,-0 -0.01,-0 -0,-0 -0.01,0 -0.01,0 -0.01,0 -0.01,0 -0.02,0.01 -0,0 -0.01,0 -0.01,0.01 -0,0 -0,0.01 -0,0.01l0 0c-0,0.01 -0,0.01 -0,0.02 -0,0.01 -0.01,0.01 -0.01,0.01 -0.01,0 -0.01,0.01 -0.04,0.01 -0.06,0.02 -0.11,0.03 -0.17,0.05l-0.06 0.02 -0.05 0.02c-0.02,0.01 -0.02,0.01 -0.04,0.01 -0.01,0 -0.02,0 -0.03,0 -0.01,0 -0.02,0 -0.02,0 -0.01,0 -0.01,0 -0.01,0 -0,0 -0,0 -0.01,0.01 -0,0 -0,0.01 -0.01,0.02 -0,0.01 -0,0.01 -0,0.01l0 0c0.01,0.02 0.01,0.03 -0.03,0.05 -0.02,0.01 -0.04,0.02 -0.07,0.03l-0.06 0.03c-0.02,0.01 -0.03,0.01 -0.04,0.02 -0.01,0 -0.01,0.01 -0.01,0.01 -0,0 -0,0.01 -0,0.02 -0,0.01 -0,0.02 -0,0.03zm0.33 0.3c-0.01,0 -0.02,0.01 -0.03,0.01 -0.03,0.01 -0.06,0.02 -0.1,0.03l-0.14 0.04c-0.02,0.01 -0.03,0.01 -0.05,0.01 0,0.05 0,0.07 0.01,0.08 0,0 0.01,0.01 0.02,0.01 0.01,0 0.03,-0 0.06,-0.01 0.02,-0.01 0.05,-0.01 0.07,-0.02 0.03,-0.01 0.07,-0.03 0.09,-0.04 0.02,-0.01 0.04,-0.02 0.04,-0.02 0.01,-0 0.01,-0.01 0.02,-0.01l0 -0c0,-0.01 0,-0.03 0,-0.07l-0 -0.02zm-0.32 0.09c0,0 0,-0.03 0.03,-0.04l0.14 -0.04c0.04,-0.01 0.07,-0.02 0.1,-0.03 0.03,-0.01 0.04,-0.01 0.04,-0.02 0,-0.01 0,-0.02 0,-0.05l-0.01 -0.25 -0 -0.04 -0.32 0.13 0 0c0,0.07 0.01,0.21 0.01,0.3l0 0.03 0 0.02 0 0 0 0 0 0 0 0 0 0 0 0z"/>
         <path class="fil7" d="M5.19 0.96c-0.01,-0 -0.01,-0 -0.02,-0 -0.01,0 -0.02,0 -0.03,0.01 -0.01,0 -0.02,0.01 -0.03,0.02 -0.01,0.01 -0.02,0.02 -0.02,0.03 -0.01,0.01 -0.01,0.02 -0.02,0.03 -0,0.01 -0.01,0.02 -0,0.04 0,0.01 0,0.02 0.01,0.03 0,0.01 0.01,0.02 0.02,0.02 0.01,0.01 0.02,0.01 0.03,0.01 0.01,0 0.02,0 0.03,0l0.01 -0c0.02,-0 0.05,-0 0.11,0.01 0.03,0.01 0.08,0.01 0.12,0.02 0.04,0.01 0.09,0.02 0.12,0.03 0.02,0.01 0.03,0.01 0.04,0.01l-0 0.01c-0,0 -0,0.01 -0,0.01 -0,0 -0,0 -0.01,0.01 -0.01,0.01 -0.01,0.01 -0.02,0.02 -0.01,0.02 -0.01,0.04 -0.01,0.11l-0 0.06c-0,0.09 -0,0.2 -0,0.26l-0.14 0 -0.03 -0 -0 -0c-0.01,-0.01 -0.01,-0.02 -0.02,-0.03 -0.01,-0.01 -0.02,-0.01 -0.03,-0.01 -0.01,-0 -0.02,-0 -0.03,-0.01 -0.01,-0 -0.02,0 -0.03,0.01 -0.01,0.01 -0.01,0.02 -0.02,0.04 -0,0.01 -0,0.03 0,0.05 0,0.02 0,0.05 0.01,0.06 0,0.02 0.01,0.03 0.01,0.04 0.01,0.01 0.01,0.01 0.02,0.02l0.02 0 0.03 0c0.01,0 0.01,0 0.02,0 0.01,-0 0.02,-0 0.02,-0.01 0,-0.01 0.01,-0.01 0.01,-0.02l0 -0.02 0.02 -0 0.16 -0.01c0,0 0.01,0.01 0.02,0.01 0.01,0.01 0.02,0.01 0.05,0.02 0.03,0.01 0.06,0.03 0.1,0.04 0.03,0.01 0.05,0.02 0.07,0.02 0.03,0.01 0.05,0.01 0.07,0.01 0.02,-0 0.04,-0.01 0.05,-0.02 0.02,-0.02 0.02,-0.04 0.03,-0.12l0 0 0 -0 0 -0 0 -0 0 -0 0 -0 0 0 0 -0.02 0 -0.03c0,-0.09 0.01,-0.22 0.01,-0.3 0,-0.04 -0,-0.07 -0,-0.08 -0,-0.02 -0.01,-0.03 -0.01,-0.04 -0.01,-0.01 -0.01,-0.01 -0.02,-0.02 -0.01,-0.01 -0.02,-0.01 -0.04,-0.02l-0.06 -0.03c-0.03,-0.01 -0.05,-0.02 -0.07,-0.03 -0.01,-0 -0.01,0.01 -0.01,0.01l0 -0.01c0,-0.01 0,-0.02 -0,-0.03 -0,-0.01 -0.01,-0.02 -0.01,-0.03 -0.01,-0.01 -0.01,-0.02 -0.02,-0.02 -0.01,-0 -0.02,-0.01 -0.03,-0.01 -0.01,-0 -0.02,-0 -0.03,-0 -0.01,-0 -0.02,-0 -0.02,-0 -0.01,-0 -0.02,-0 -0.03,-0.01l-0.06 -0.02 -0.06 -0.02c-0.06,-0.02 -0.13,-0.04 -0.19,-0.05l0 -0c-0,-0.01 -0,-0.02 -0.01,-0.04 -0.01,-0.01 -0.01,-0.01 -0.02,-0.01 -0.01,-0 -0.02,-0.01 -0.03,-0.01zm0.31 0.78c0,0.01 0,0.02 0,0.03l-0.14 0.01c-0.02,0 -0.03,0 -0.04,0 -0.01,0 -0.02,0.01 -0.02,0.02 -0,0.01 -0,0.02 -0,0.03l0 0.01 -0.03 -0 -0.02 -0c-0,-0 -0,0 -0,0 -0,-0 -0,-0.01 -0,-0.02 -0,-0.02 -0,-0.04 -0.01,-0.06 -0,-0.02 -0,-0.04 -0,-0.05 0,-0.01 0,-0.01 0,-0.01 0,-0 0,0 0,0 0.01,0 0.01,0 0.02,0 0.01,0 0.01,0 0.01,0.01 0.01,0 0.01,0.01 0.01,0.02l0 0.01c0.01,0.01 0.01,0.01 0.02,0.02 0.01,0 0.02,0 0.04,0l0.14 -0zm0.37 -0.36l-0.27 -0.11 -0.04 -0.01c0,-0.01 0.01,-0.01 0.01,-0.02 0,-0.01 0,-0.02 0.01,-0.03 0,-0.01 0,-0.02 -0.02,-0.03 -0.01,-0.01 -0.03,-0.01 -0.06,-0.02 -0.03,-0.01 -0.07,-0.02 -0.12,-0.03 -0.04,-0.01 -0.09,-0.02 -0.12,-0.02 -0.06,-0.01 -0.09,-0.01 -0.11,-0.01l-0.01 0c-0.01,0 -0.02,-0 -0.03,-0 -0.01,-0 -0.01,-0 -0.01,-0 -0,-0 -0,-0 -0.01,-0.01 -0,-0 -0,-0.01 -0,-0.02 0,-0.01 0,-0.01 0,-0.02 0,-0.01 0.01,-0.01 0.01,-0.02 0,-0.01 0.01,-0.01 0.02,-0.02 0.01,-0.01 0.02,-0.01 0.02,-0.01 0,-0 0.01,-0 0.01,-0 0,-0 0.01,0 0.01,0 0.01,0 0.01,0 0.02,0.01 0,0 0.01,0 0.01,0.01 0,0 0,0.01 0,0.01l0 0c0,0.01 0,0.01 0,0.02 0,0.01 0.01,0.01 0.01,0.01 0.01,0 0.01,0.01 0.04,0.01 0.06,0.02 0.11,0.03 0.17,0.05l0.06 0.02 0.05 0.02c0.02,0.01 0.02,0.01 0.04,0.01 0.01,0 0.02,0 0.03,0 0.01,0 0.02,0 0.02,0 0.01,0 0.01,0 0.01,0 0,0 0,0 0.01,0.01 0,0 0,0.01 0.01,0.02 0,0.01 0,0.01 0,0.01l-0 0c-0.01,0.02 -0.01,0.03 0.03,0.05 0.02,0.01 0.04,0.02 0.07,0.03l0.06 0.03c0.02,0.01 0.03,0.01 0.04,0.02 0.01,0 0.01,0.01 0.01,0.01 0,0 0,0.01 0,0.02 0,0.01 0,0.02 0,0.03zm-0.33 0.3c0.01,0 0.02,0.01 0.03,0.01 0.03,0.01 0.06,0.02 0.1,0.03l0.14 0.04c0.02,0.01 0.03,0.01 0.05,0.01 -0,0.05 -0,0.07 -0.01,0.08 -0,0 -0.01,0.01 -0.02,0.01 -0.01,0 -0.03,-0 -0.06,-0.01 -0.02,-0.01 -0.05,-0.01 -0.07,-0.02 -0.03,-0.01 -0.07,-0.03 -0.09,-0.04 -0.02,-0.01 -0.04,-0.02 -0.04,-0.02 -0.01,-0 -0.01,-0.01 -0.02,-0.01l-0 -0c-0,-0.01 -0,-0.03 -0,-0.07l0 -0.02zm0.32 0.09c-0,0 -0,-0.03 -0.03,-0.04l-0.14 -0.04c-0.04,-0.01 -0.07,-0.02 -0.1,-0.03 -0.03,-0.01 -0.04,-0.01 -0.04,-0.02 -0,-0.01 -0,-0.02 -0,-0.05l0.01 -0.25 0 -0.04 0.32 0.13 0 0c-0,0.07 -0.01,0.21 -0.01,0.3l-0 0.03 -0 0.02 0 0 0 0 0 0 0 0 0 0 0 0z"/>
         <path class="fil7" d="M0.84 0.5l-0.02 0.01c-0.03,0.02 -0.05,0.05 -0.07,0.06 -0.02,0.02 -0.03,0.03 -0.04,0.05 -0.01,0.02 -0.01,0.04 -0.02,0.08 -0.01,0.07 -0.02,0.19 -0.02,0.31l-0.04 -0c0.01,-0.12 0.01,-0.24 0.02,-0.31 0,-0.04 0.01,-0.07 0.02,-0.09 0.01,-0.02 0.02,-0.04 0.04,-0.07 0.02,-0.02 0.04,-0.04 0.07,-0.07 0.01,-0.01 0.02,-0.02 0.03,-0.03l-0 -0 0.01 -0.05c0,-0.02 0.01,-0.03 0.01,-0.04 0.01,-0.01 0.01,-0.02 0.02,-0.03 0.01,-0.01 0.02,-0.01 0.04,-0.02 0.02,-0.01 0.04,-0.02 0.06,-0.02 0.03,-0.01 0.05,-0.01 0.08,-0.01 0.05,-0 0.08,0.02 0.11,0.04l-0.01 0.02c0.03,-0.01 0.06,-0.02 0.09,-0.03 0.07,-0.02 0.15,-0.04 0.24,-0.06 0.09,-0.02 0.18,-0.04 0.27,-0.06 0.03,-0.01 0.06,-0.01 0.09,-0.02l0 0.04c-0.03,0.01 -0.05,0.01 -0.08,0.02 -0.08,0.02 -0.18,0.04 -0.27,0.06 -0.08,0.02 -0.16,0.04 -0.23,0.06 -0.07,0.02 -0.13,0.04 -0.19,0.06 -0.06,0.02 -0.11,0.04 -0.14,0.06 -0.03,0.01 -0.04,0.02 -0.05,0.03 -0,0 -0,0 0,0.01 0,0.01 0.01,0.02 0.02,0.03 0.01,0.01 0.03,0.02 0.04,0.03 0.01,0 0.01,0.01 0.02,0.01 0.01,-0.03 0.01,-0.05 0.03,-0.07 0.01,-0.01 0.02,-0.03 0.05,-0.04 0.03,-0.01 0.07,-0.02 0.15,-0.05 0.08,-0.02 0.2,-0.05 0.31,-0.08 0.11,-0.03 0.21,-0.05 0.3,-0.07 0.02,-0.01 0.04,-0.01 0.06,-0.01 0.01,0.01 0.02,0.01 0.04,0.01l0.15 -0.01c0.02,-0 0.04,-0.02 0.05,-0.04 0.03,-0 0.06,-0 0.1,-0.01 0.08,-0 0.17,-0.01 0.27,-0.01l0.27 -0.01 0.26 -0.01 0 0.04 -0.26 0.01 -0.27 0.01c-0.1,0 -0.19,0.01 -0.27,0.01 -0.08,0 -0.13,0.01 -0.18,0.02 -0.06,0.01 -0.11,0.02 -0.2,0.04 -0.08,0.02 -0.19,0.04 -0.29,0.07 -0.12,0.03 -0.23,0.06 -0.31,0.08 -0.07,0.02 -0.12,0.03 -0.14,0.04 -0.02,0.01 -0.03,0.02 -0.03,0.02 -0.01,0.02 -0.02,0.04 -0.02,0.07 0.01,0 0.02,0.01 0.03,0.01 0.02,0 0.04,-0 0.14,-0.04l0.03 -0.01c0.07,-0.02 0.16,-0.05 0.26,-0.08 0.1,-0.03 0.21,-0.06 0.29,-0.08 0.09,-0.02 0.15,-0.04 0.22,-0.05 0.07,-0.01 0.14,-0.01 0.24,-0.02 0.19,-0.01 0.5,-0.03 0.8,-0.04l0 0 0 0.04 -0 0c-0.3,0.01 -0.6,0.03 -0.8,0.04 -0.1,0.01 -0.17,0.01 -0.24,0.02 -0.07,0.01 -0.13,0.02 -0.21,0.04 -0.08,0.02 -0.19,0.05 -0.29,0.08 -0.1,0.03 -0.2,0.06 -0.26,0.08l-0.03 0.01c-0.11,0.04 -0.13,0.04 -0.16,0.04 -0.01,-0 -0.01,-0 -0.02,-0.01 -0.03,0.03 -0.07,0.06 -0.09,0.08 -0.01,0.01 -0.02,0.02 -0.02,0.03 -0,0.01 -0.01,0.02 -0.01,0.03 -0,0.01 -0.01,0.02 -0.01,0.05 -0,0.03 -0,0.08 -0.01,0.17 -0,0.1 -0,0.25 -0.01,0.4 -0,0.13 -0,0.26 -0,0.37 0,0.12 0,0.22 0.01,0.3 0,0.1 0.01,0.17 0.01,0.22 0.01,0.07 0.01,0.1 0.02,0.12l0 0.02c0,0.02 -0,0.03 -0.01,0.06l-0.04 0.13c-0.02,0.05 -0.04,0.11 -0.05,0.15 -0.01,0.03 -0.02,0.05 -0.02,0.06 -0.02,0.03 -0.03,0.02 -0.04,0.01 -0.01,-0.01 -0.01,-0.02 -0.01,-0.04 -0,-0.02 -0,-0.06 -0,-0.14 -0,-0.08 0,-0.19 0,-0.31 0,-0.1 0,-0.21 0,-0.33 0,-0.11 -0,-0.21 -0,-0.29 -0,-0.12 -0,-0.22 -0,-0.3l-0 -0.06c-0,-0.1 -0,-0.14 0,-0.17 0.01,-0.04 0.02,-0.05 0.04,-0.06l0.01 0.02 0.01 0.01 -0 0c-0.01,0.01 -0.02,0.01 -0.02,0.03 -0,0.03 -0,0.07 -0,0.16l0 0.06c0,0.08 0,0.18 0,0.3 0,0.09 0,0.2 0,0.29 0,0.1 -0,0.22 -0,0.33 -0,0.12 -0,0.23 -0,0.31 0,0.05 0,0.09 0,0.11l0 -0.01c0.01,-0.04 0.03,-0.09 0.05,-0.15l0.04 -0.13c0.01,-0.03 0.01,-0.04 0.01,-0.05l-0 -0.02c-0,-0.02 -0.01,-0.05 -0.02,-0.13 -0.01,-0.05 -0.01,-0.13 -0.01,-0.23 -0,-0.08 -0.01,-0.18 -0.01,-0.3 -0,-0.11 -0,-0.25 0,-0.37 0,-0.15 0,-0.3 0.01,-0.4 0,-0.09 0,-0.14 0.01,-0.17 0,-0.03 0.01,-0.04 0.01,-0.06 0,-0.01 0.01,-0.02 0.01,-0.03 0.01,-0.01 0.01,-0.02 0.03,-0.04 0.02,-0.02 0.05,-0.05 0.08,-0.08 -0.01,-0.01 -0.02,-0.02 -0.04,-0.02 -0.02,-0.01 -0.03,-0.03 -0.05,-0.04 -0.01,-0.01 -0.02,-0.02 -0.03,-0.04 -0,-0 -0,-0.01 -0,-0.01zm1.24 -0.37c0.04,-0 0.08,-0.01 0.13,-0.01 0.08,-0.01 0.16,-0.01 0.25,-0.02 0.11,-0.01 0.21,-0.01 0.29,-0.01 0.14,-0 0.19,-0 0.24,-0l0 0 0 0c-0.01,-0 -0.02,-0 -0.03,-0 -0.1,0 -0.19,0.02 -0.19,0.04l0 0 -0.02 0c-0.08,0 -0.18,0.01 -0.29,0.01 -0.08,0 -0.17,0.01 -0.24,0.02 -0.05,0 -0.09,0.01 -0.13,0.01l0 -0.03c0,-0 -0,-0.01 -0,-0.01zm-0.96 0.21c-0.02,-0.01 -0.04,-0.03 -0.07,-0.03 -0.02,0 -0.04,0.01 -0.06,0.01 -0.02,0.01 -0.04,0.02 -0.06,0.02 -0.02,0.01 -0.02,0.01 -0.03,0.01 -0,0 -0.01,0.01 -0.01,0.01 -0,0.01 -0.01,0.02 -0.01,0.04l-0 0 0 -0 0.01 0.02 0.02 -0.01c0.03,-0.02 0.08,-0.04 0.14,-0.06 0.02,-0.01 0.04,-0.02 0.07,-0.02zm-0.49 1.49c0.01,0.3 -0.02,1.09 0.03,1.34 0,0.12 0,0.17 0.03,0.21 0.01,0.02 0.03,0.04 0.05,0.05 0.02,0.02 0.05,0.03 0.09,0.05 0.04,0.01 0.08,0.03 0.12,0.04 0.04,0.01 0.09,0.02 0.14,0.03 0.05,0.01 0.1,0.02 0.19,0.02 0.09,0.01 0.22,0.01 0.41,0.01 0.4,0.01 1.08,0 1.76,0l0 0.04c-0.68,0 -1.36,0 -1.76,-0 -0.2,-0 -0.33,-0.01 -0.42,-0.01 -0.09,-0.01 -0.14,-0.01 -0.2,-0.02 -0.05,-0.01 -0.1,-0.02 -0.14,-0.03 -0.05,-0.01 -0.09,-0.02 -0.12,-0.04 -0.04,-0.01 -0.07,-0.03 -0.1,-0.05 -0.03,-0.02 -0.05,-0.04 -0.07,-0.06 -0.03,-0.05 -0.03,-0.1 -0.03,-0.23 -0.05,-0.25 -0.02,-1.04 -0.03,-1.34l0.04 -0zm0.02 -0.72l-0.01 0.54 -0.04 -0 0.01 -0.54 0.04 0z"/>
         <path class="fil7" d="M5.01 0.5l0.02 0.01c0.03,0.02 0.05,0.05 0.07,0.06 0.02,0.02 0.03,0.03 0.04,0.05 0.01,0.02 0.01,0.04 0.02,0.08 0.01,0.07 0.02,0.19 0.02,0.31l0.04 -0c-0.01,-0.12 -0.01,-0.24 -0.02,-0.31 -0,-0.04 -0.01,-0.07 -0.02,-0.09 -0.01,-0.02 -0.02,-0.04 -0.04,-0.07 -0.02,-0.02 -0.04,-0.04 -0.07,-0.07 -0.01,-0.01 -0.02,-0.02 -0.03,-0.03l0 -0 -0.01 -0.05c-0,-0.02 -0.01,-0.03 -0.01,-0.04 -0.01,-0.01 -0.01,-0.02 -0.02,-0.03 -0.01,-0.01 -0.02,-0.01 -0.04,-0.02 -0.02,-0.01 -0.04,-0.02 -0.06,-0.02 -0.03,-0.01 -0.05,-0.01 -0.08,-0.01 -0.05,-0 -0.08,0.02 -0.11,0.04l0.01 0.02c-0.03,-0.01 -0.06,-0.02 -0.09,-0.03 -0.07,-0.02 -0.15,-0.04 -0.24,-0.06 -0.09,-0.02 -0.18,-0.04 -0.27,-0.06l-0.02 -0 0 0.03c0,0 -0,0.01 -0,0.01l0.02 0c0.08,0.02 0.18,0.04 0.27,0.06 0.08,0.02 0.16,0.04 0.23,0.06 0.07,0.02 0.13,0.04 0.19,0.06 0.06,0.02 0.11,0.04 0.14,0.06 0.03,0.01 0.04,0.02 0.05,0.03 0,0 0,0 -0,0.01 -0,0.01 -0.01,0.02 -0.02,0.03 -0.01,0.01 -0.03,0.02 -0.04,0.03 -0.01,0 -0.01,0.01 -0.02,0.01 -0.01,-0.03 -0.01,-0.05 -0.03,-0.07 -0.01,-0.01 -0.02,-0.03 -0.05,-0.04 -0.03,-0.01 -0.07,-0.02 -0.15,-0.05 -0.08,-0.02 -0.2,-0.05 -0.31,-0.08 -0.1,-0.03 -0.21,-0.05 -0.3,-0.07l-0.01 -0c-0.01,0 -0.01,0 -0.02,0l-0.15 -0.01c-0.02,-0 -0.03,-0.01 -0.04,-0.03 -0.05,-0.01 -0.1,-0.01 -0.17,-0.01 -0.08,-0 -0.17,-0.01 -0.27,-0.01l-0.27 -0.01 -0.26 -0.01 -0 0.04 0.26 0.01 0.27 0.01c0.1,0 0.19,0.01 0.27,0.01 0.08,0 0.13,0.01 0.18,0.02 0.06,0.01 0.11,0.02 0.2,0.04 0.08,0.02 0.19,0.04 0.29,0.07 0.12,0.03 0.23,0.06 0.31,0.08 0.07,0.02 0.12,0.03 0.14,0.04 0.02,0.01 0.03,0.02 0.03,0.02 0.01,0.02 0.02,0.04 0.02,0.07 -0.01,0 -0.02,0.01 -0.03,0.01 -0.02,0 -0.04,-0 -0.14,-0.04l-0.03 -0.01c-0.07,-0.02 -0.16,-0.05 -0.26,-0.08 -0.1,-0.03 -0.21,-0.06 -0.29,-0.08 -0.09,-0.02 -0.15,-0.04 -0.22,-0.05 -0.07,-0.01 -0.14,-0.01 -0.24,-0.02 -0.19,-0.01 -0.5,-0.03 -0.8,-0.04l-0 0 -0 0.04 0 0c0.3,0.01 0.6,0.03 0.8,0.04 0.1,0.01 0.17,0.01 0.24,0.02 0.07,0.01 0.13,0.02 0.21,0.04 0.08,0.02 0.19,0.05 0.29,0.08 0.1,0.03 0.2,0.06 0.26,0.08l0.03 0.01c0.11,0.04 0.13,0.04 0.16,0.04 0.01,-0 0.01,-0 0.02,-0.01 0.03,0.03 0.07,0.06 0.09,0.08 0.01,0.01 0.02,0.02 0.02,0.03 0,0.01 0.01,0.02 0.01,0.03 0,0.01 0.01,0.02 0.01,0.05 0,0.03 0,0.08 0.01,0.17 0,0.1 0,0.25 0.01,0.4 0,0.13 0,0.26 0,0.37 -0,0.12 -0,0.22 -0.01,0.3 -0,0.1 -0.01,0.17 -0.01,0.22 -0.01,0.07 -0.01,0.1 -0.02,0.12l-0 0.02c-0,0.02 0,0.03 0.01,0.06l0.04 0.13c0.02,0.05 0.04,0.11 0.05,0.15 0.01,0.03 0.02,0.05 0.02,0.06 0.02,0.03 0.03,0.02 0.04,0.01 0.01,-0.01 0.01,-0.02 0.01,-0.04 0,-0.02 0,-0.06 0,-0.14 0,-0.08 0,-0.19 -0,-0.31 -0,-0.1 -0,-0.21 -0,-0.33 0,-0.11 0,-0.21 0,-0.29 0,-0.12 0,-0.22 0,-0.3l0 -0.06c0,-0.1 0,-0.14 -0,-0.17 -0.01,-0.04 -0.02,-0.05 -0.04,-0.06l-0.01 0.02 -0.01 0.01 0 0c0.01,0.01 0.02,0.01 0.02,0.03 0,0.03 0,0.07 0,0.16l-0 0.06c-0,0.08 -0,0.18 -0,0.3 -0,0.09 -0,0.2 -0,0.29 0,0.1 0,0.22 0,0.33 0,0.12 0,0.23 0,0.31 -0,0.05 -0,0.09 -0,0.11l-0 -0.01c-0.01,-0.04 -0.03,-0.09 -0.05,-0.15l-0.04 -0.13c-0.01,-0.03 -0.01,-0.04 -0.01,-0.05l0 -0.02c0,-0.02 0.01,-0.05 0.02,-0.13 0.01,-0.05 0.01,-0.13 0.01,-0.23 0,-0.08 0.01,-0.18 0.01,-0.3 0,-0.11 0,-0.25 -0,-0.37 -0,-0.15 -0,-0.3 -0.01,-0.4 -0,-0.09 -0,-0.14 -0.01,-0.17 -0,-0.03 -0.01,-0.04 -0.01,-0.06 -0,-0.01 -0.01,-0.02 -0.01,-0.03 -0.01,-0.01 -0.01,-0.02 -0.03,-0.04 -0.02,-0.02 -0.05,-0.05 -0.08,-0.08 0.01,-0.01 0.02,-0.02 0.04,-0.02 0.02,-0.01 0.03,-0.03 0.05,-0.04 0.01,-0.01 0.02,-0.02 0.03,-0.04 0,-0 0,-0.01 0,-0.01zm-1.18 -0.37c-0.06,-0.01 -0.12,-0.02 -0.19,-0.02 -0.08,-0.01 -0.16,-0.01 -0.25,-0.02 -0.11,-0.01 -0.21,-0.01 -0.29,-0.01 -0.14,-0 -0.19,-0 -0.24,-0l-0 0 0 0.01c0.03,-0 0.06,-0.01 0.09,-0.01 0.1,0 0.19,0.02 0.19,0.04 0,0 -0,0 -0,0 0.07,0 0.16,0.01 0.25,0.01 0.08,0 0.17,0.01 0.24,0.02 0.07,0.01 0.13,0.01 0.19,0.02l0 -0.04 0 -0.01zm0.89 0.2c0.02,-0.01 0.04,-0.03 0.07,-0.03 0.02,0 0.04,0.01 0.06,0.01 0.02,0.01 0.05,0.02 0.06,0.02 0.02,0.01 0.02,0.01 0.03,0.01 0,0 0.01,0.01 0.01,0.01 0,0.01 0.01,0.02 0.01,0.04l0 0 -0 -0 -0.01 0.02 -0.02 -0.01c-0.03,-0.02 -0.08,-0.04 -0.14,-0.06 -0.02,-0.01 -0.04,-0.02 -0.07,-0.02zm0.49 1.49c-0.01,0.3 0.02,1.09 -0.03,1.34 -0,0.12 -0,0.17 -0.03,0.21 -0.01,0.02 -0.03,0.04 -0.05,0.05 -0.02,0.02 -0.05,0.03 -0.09,0.05 -0.04,0.01 -0.08,0.03 -0.12,0.04 -0.04,0.01 -0.09,0.02 -0.14,0.03 -0.05,0.01 -0.1,0.02 -0.19,0.02 -0.09,0.01 -0.22,0.01 -0.41,0.01 -0.4,0.01 -1.08,0 -1.76,0l0 0.04c0.68,0 1.36,0 1.76,-0 0.2,-0 0.33,-0.01 0.42,-0.01 0.09,-0.01 0.14,-0.01 0.2,-0.02 0.05,-0.01 0.1,-0.02 0.14,-0.03 0.05,-0.01 0.09,-0.02 0.12,-0.04 0.04,-0.01 0.07,-0.03 0.1,-0.05 0.03,-0.02 0.05,-0.04 0.07,-0.06 0.03,-0.05 0.03,-0.1 0.03,-0.23 0.05,-0.25 0.02,-1.04 0.03,-1.34l-0.04 -0zm-0.02 -0.72l0.01 0.54 0.04 -0 -0.01 -0.54 -0.04 0z"/>
         <path class="fil7" d="M1.05 0.76c-0.01,0.25 -0.02,0.5 -0.02,0.72 -0.01,0.22 -0.01,0.42 -0.01,0.57 -0,0.15 -0,0.24 0,0.3 0,0.06 0.01,0.1 0.01,0.13 0,0.02 0.01,0.04 0.04,0.05 0.04,0.01 0.1,0.02 0.23,0.03 0.24,0.01 0.7,-0.01 1.06,-0.02 0.4,-0.01 0.72,-0.01 1.12,0 0.37,0.01 0.82,0.03 1.06,0.02 0.13,-0 0.2,-0.01 0.23,-0.03 0.03,-0.01 0.03,-0.03 0.04,-0.05 0.01,-0.03 0.01,-0.06 0.01,-0.13 0,-0.07 0,-0.16 0,-0.3 -0,-0.15 -0.01,-0.34 -0.01,-0.57 -0.01,-0.22 -0.02,-0.47 -0.02,-0.72l0.04 -0c0.01,0.25 0.02,0.5 0.02,0.72 0.01,0.22 0.01,0.42 0.01,0.57 0,0.15 0,0.24 -0,0.31 -0,0.07 -0.01,0.1 -0.01,0.13 -0.01,0.04 -0.02,0.06 -0.06,0.08 -0.01,0 -0.02,0.01 -0.04,0.01 0.02,0 0.04,0 0.06,-0 0.04,-0 0.07,-0.01 0.09,-0.02 0.02,-0.01 0.03,-0.02 0.04,-0.04 0.02,-0.04 0.01,-0.11 0.01,-0.14l-0 -0.03 0.04 -0 0 0.04c0,0.04 0.01,0.11 -0.01,0.16 -0.01,0.03 -0.03,0.05 -0.06,0.06 -0.02,0.01 -0.04,0.02 -0.07,0.02 0.02,0.01 0.03,0.04 0.05,0.09 0.02,0.04 0.03,0.1 0.05,0.17 0.02,0.08 0.04,0.16 0.05,0.22 0.01,0.05 0.01,0.09 0.01,0.12 0,0.03 -0,0.04 -0.01,0.06 -0.01,0.02 -0.02,0.03 -0.05,0.05 -0.03,0.01 -0.07,0.03 -0.14,0.04 -0.08,0.02 -0.2,0.04 -0.35,0.06 -0.12,0.01 -0.25,0.03 -0.4,0.03 -0.11,0.01 -0.22,0.01 -0.34,0.01l0 0 -0 -0 -0.05 -0c-0.18,0 -0.36,-0 -0.53,-0 -0.13,-0 -0.25,-0 -0.38,0 -0.17,0 -0.35,0 -0.53,0l-0.05 0 -0 0 0 -0c-0.12,-0 -0.23,-0 -0.34,-0.01 -0.15,-0.01 -0.29,-0.02 -0.4,-0.03 -0.15,-0.02 -0.27,-0.04 -0.35,-0.06 -0.07,-0.02 -0.12,-0.03 -0.14,-0.04 -0.03,-0.02 -0.04,-0.03 -0.05,-0.05 -0.01,-0.02 -0.01,-0.03 -0.01,-0.06 0,-0.03 0,-0.06 0.01,-0.12 0.01,-0.06 0.03,-0.14 0.05,-0.22 0.02,-0.07 0.03,-0.13 0.05,-0.17 0.02,-0.04 0.03,-0.07 0.04,-0.09l-0.02 -0c-0.04,-0 -0.08,-0.01 -0.1,-0.02 -0.03,-0.01 -0.05,-0.03 -0.06,-0.06 -0.02,-0.05 -0.01,-0.12 -0.01,-0.16l0 -0.04 0.04 0 -0 0.03c-0,0.03 -0.01,0.1 0.01,0.14 0.01,0.02 0.02,0.03 0.04,0.04 0.02,0.01 0.05,0.02 0.09,0.02 0.02,0 0.04,0 0.06,0 -0.02,-0 -0.03,-0.01 -0.04,-0.01 -0.05,-0.02 -0.06,-0.05 -0.06,-0.08 -0.01,-0.03 -0.01,-0.07 -0.01,-0.13 -0,-0.07 -0,-0.16 -0,-0.31 0,-0.15 0.01,-0.34 0.01,-0.57 0.01,-0.22 0.02,-0.47 0.02,-0.72l0.04 0zm4.13 2.58l-0.05 0.2c-0,0.02 -0.01,0.03 -0.02,0.03 -0.01,0.01 -0.04,0.01 -0.08,0.01 -0.05,0 -0.12,0 -0.21,0 -0.1,0 -0.19,-0 -0.3,-0l-0.56 -0.01c-0.11,-0 -0.11,-0 -0.12,-0l-0.02 0.04c0.01,0 0.01,0.01 0.13,0.01l0.56 0.01c0.11,0 0.22,0 0.3,0 0.09,0 0.16,-0 0.21,-0 0.05,-0 0.08,-0.01 0.1,-0.02 0.02,-0.01 0.03,-0.03 0.03,-0.06l0.05 -0.2 -0.04 -0.01zm-4.51 0l0.05 0.2c0,0.02 0.01,0.03 0.02,0.03 0.01,0.01 0.04,0.01 0.08,0.01 0.05,0 0.12,0 0.21,0 0.1,0 0.19,-0 0.3,-0l0.56 -0.01c0.11,-0 0.11,-0 0.12,-0l0.02 0.04c-0.01,0 -0.01,0.01 -0.13,0.01l-0.56 0.01c-0.11,0 -0.22,0 -0.3,0 -0.09,0 -0.16,-0 -0.21,-0 -0.05,-0 -0.08,-0.01 -0.1,-0.02 -0.02,-0.01 -0.03,-0.03 -0.03,-0.06l-0.05 -0.2 0.04 -0.01zm4.13 -0.72c-0.08,0 -0.2,-0.01 -0.32,-0.02 -0.25,0 -0.67,-0.01 -1.01,-0.02l-1.12 0c-0.34,0.01 -0.76,0.03 -1.01,0.02 -0.09,0.01 -0.18,0.02 -0.26,0.02l0 0.02c-0.02,0 -0.03,0 -0.06,0.08 -0.01,0.04 -0.03,0.1 -0.05,0.17 -0.02,0.08 -0.04,0.16 -0.05,0.22 -0.01,0.05 -0.01,0.09 -0.01,0.11 -0,0.02 0,0.03 0.01,0.04 0,0.01 0.01,0.02 0.03,0.03 0.02,0.01 0.06,0.02 0.13,0.04 0.08,0.02 0.2,0.04 0.35,0.05 0.12,0.01 0.25,0.03 0.4,0.03 0.12,0.01 0.26,0.01 0.39,0.01 0.48,-0.01 0.96,-0.01 1.43,0 0.13,-0 0.27,-0 0.39,-0.01 0.15,-0.01 0.28,-0.02 0.4,-0.03 0.15,-0.02 0.27,-0.04 0.35,-0.05 0.07,-0.02 0.11,-0.03 0.13,-0.04 0.02,-0.01 0.03,-0.02 0.03,-0.03 0,-0.01 0.01,-0.02 0.01,-0.04 -0,-0.02 -0,-0.06 -0.01,-0.11 -0.01,-0.06 -0.03,-0.14 -0.05,-0.22 -0.02,-0.06 -0.03,-0.12 -0.05,-0.17 -0.03,-0.08 -0.05,-0.08 -0.06,-0.08l0 -0.02zm-2.77 -2.22l0.04 0.03c0.01,0.01 0.02,0.02 0.03,0.02 0.01,0.01 0.02,0.01 0.16,0 0.21,-0 0.45,-0.02 0.69,-0.01 0.25,-0 0.49,0.01 0.69,0.01 0.14,0 0.15,0 0.16,-0 0.01,-0 0.02,-0.01 0.03,-0.02l0.04 -0.03 0.02 0.03 -0.04 0.03c-0.01,0.01 -0.03,0.02 -0.04,0.02 -0.02,0.01 -0.03,0.01 -0.18,0.01l-0.63 -0.01 -0.06 -0 -0.06 0 -0.63 0.01c-0.15,0 -0.16,0 -0.18,-0.01 -0.01,-0.01 -0.02,-0.01 -0.04,-0.02l-0.04 -0.03 0.03 -0.03zm1.69 1.76c0.03,0 0.05,0.02 0.05,0.05 0,0.03 -0.02,0.05 -0.05,0.05 -0.03,0 -0.05,-0.02 -0.05,-0.05 0,-0.03 0.02,-0.05 0.05,-0.05zm-1.55 0c0.03,0 0.05,0.02 0.05,0.05 0,0.03 -0.02,0.05 -0.05,0.05 -0.03,0 -0.05,-0.02 -0.05,-0.05 0,-0.03 0.02,-0.05 0.05,-0.05z"/>
        </g>
        <path class="fil7" d="M0.58 3.59l0.15 0 4.42 0 0.17 0 0 0.39 0 7.95 -0 0 -0.35 0 -4.07 0 -0.35 0 0 -0.31 0 -7.64 0 -0.39 0.02 0zm4.57 8.03l0.13 0 0 -7.64 -0.13 0 0 7.64zm-0.18 0.27l0 -0.15 -4.07 0 0 0.15 4.07 0zm0.14 -0.19l0 -0.08 0 0 0 -7.64 0 -0.16 -0.12 0 -4.1 0 -0.12 0 0 0.16 0 7.64 0 0.08 0.14 0 4.07 0 0.14 0zm0.17 -0.04l-0.13 0 0 0.08 -0 0 -0.14 0 0 0.15 0.27 0 0 -0.23zm-4.55 0l-0.13 0 0 0.23 0.27 0 0 -0.15 -0.14 0 0 -0.08zm-0.13 -0.04l0.13 0 0 -7.64 -0.13 0 0 7.64zm4.39 -7.84l0 -0.15 -4.1 0 0 0.15 4.1 0zm0.17 -0.15c-0.01,0 -0.02,0.01 -0.04,0.01 -0.02,0 -0.04,0 -0.06,0.01l-0.03 0 0 0.13 0.12 0 0 0.16 0.13 0 0 -0.31 -0.12 0zm-4.56 0.31l0.13 0 0 -0.16 0.02 0 0.1 0 0 -0.13 -0.03 -0c-0.02,-0 -0.04,-0 -0.06,-0.01 -0.01,-0 -0.03,-0.01 -0.04,-0.01l-0.12 0 0 0.31z"/>
       </g>
       <polygon class="fil7" points="0.77,4.48 5.11,4.48 5.11,4.51 0.77,4.51 "/>
       <polygon class="fil7" points="0.77,5.06 5.11,5.06 5.11,5.09 0.77,5.09 "/>
       <polygon class="fil7" points="0.77,5.64 5.11,5.64 5.11,5.67 0.77,5.67 "/>
       <polygon class="fil7" points="0.77,6.22 5.11,6.22 5.11,6.26 0.77,6.26 "/>
       <polygon class="fil7" points="0.77,6.81 5.11,6.81 5.11,6.84 0.77,6.84 "/>
       <polygon class="fil7" points="0.77,7.39 5.11,7.39 5.11,7.42 0.77,7.42 "/>
       <polygon class="fil7" points="0.77,7.97 5.11,7.97 5.11,8 0.77,8 "/>
       <polygon class="fil7" points="0.77,8.56 5.11,8.56 5.11,8.59 0.77,8.59 "/>
       <polygon class="fil7" points="0.77,9.14 5.11,9.14 5.11,9.17 0.77,9.17 "/>
       <polygon class="fil7" points="0.77,9.72 5.11,9.72 5.11,9.75 0.77,9.75 "/>
       <polygon class="fil7" points="0.77,10.31 5.11,10.31 5.11,10.34 0.77,10.34 "/>
       <polygon class="fil7" points="0.77,10.89 5.11,10.89 5.11,10.92 0.77,10.92 "/>
       <g>
        <path class="fil7" d="M0.76 11.89l0.04 0 0.02 0 0.26 0 0.26 0 0.02 0 0.26 0 0.25 0 0 0.22 -0.25 0 -0.28 0 -0.26 0 -0.28 0 -0.06 0 0 -0.22 0.02 0zm0.32 0.04l0 0.14 0.26 0 0 -0.14 -0.26 0zm-0.28 0.14l0 -0.14 -0.02 0 0 0.14 0.02 0zm0.04 -0.14l0 0.14 0.19 0 0 -0.14 -0.19 0zm0.78 0l0 0.14 0.21 0 0 -0.14 -0.21 0zm-0.24 0l0 0.14 0.19 0 0 -0.14 -0.19 0z"/>
        <path class="fil7" d="M5.16 11.89l-0.04 0 -0.02 0 -0.26 0 -0.26 0 -0.02 0 -0.26 0 -0.25 0 0 0.22 0.25 0 0.28 0 0.26 0 0.28 0 0.06 0 0 -0.22 -0.02 0zm-0.32 0.04l0 0.14 -0.26 0 0 -0.14 0.26 0zm0.28 0.14l0 -0.14 0.02 0 0 0.14 -0.02 0zm-0.04 -0.14l0 0.14 -0.19 0 0 -0.14 0.19 0zm-0.78 0l0 0.14 -0.21 0 0 -0.14 0.21 0zm0.24 0l0 0.14 -0.19 0 0 -0.14 0.19 0z"/>
       </g>
       <path class="fil7" d="M1.98 11.89l0.69 0 0.58 0 0.7 0 0.05 0.05 0 0.11 -0.05 0.05 -0.7 0 -0.58 0 -0.7 0 -0.05 -0.05 0 -0.11 0.05 -0.05 0.01 0zm1.31 0.04l0.01 0.01 0 0.11 -0.01 0.01 0.64 0 0.03 -0.03 0 -0.08 -0.03 -0.03 -0.64 0zm-0.66 0.14l-0.01 -0.01 0 -0.11 0.01 -0.01 -0.64 0 -0.03 0.03 0 0.08 0.03 0.03 0.64 0zm0.06 -0.14l-0.03 0.03 0 0.08 0.03 0.03 0.55 0 0.03 -0.03 0 -0.08 -0.03 -0.03 -0.55 0z"/>
       <polygon class="fil7" points="1.07,2.62 4.85,2.62 4.85,2.7 1.07,2.7 "/>
      </g>
      <path class="fil3" style="mask:url(#id0)" d="M3.95 0.64c0.02,0.18 0.06,0.52 0.07,0.84 0.02,0.31 0.01,0.6 0.01,0.76 0,0.16 0,0.2 0.03,0.22 0.03,0.02 0.08,0.03 0.13,0.03 0.05,0 0.1,-0.01 0.18,-0.01 0.08,-0.01 0.19,-0.01 0.26,-0.01 0.07,-0 0.08,-0 0.11,-0.01 0.03,-0.01 0.06,-0.02 0.08,-0.21 0.02,-0.19 0.03,-0.56 0.02,-0.83 -0.01,-0.27 -0.02,-0.45 -0.03,-0.54 -0.01,-0.09 -0.01,-0.1 -0.02,-0.12 -0.01,-0.02 -0.02,-0.05 -0.1,-0.09 -0.08,-0.03 -0.22,-0.07 -0.34,-0.1 -0.12,-0.03 -0.22,-0.07 -0.29,-0.09 -0.07,-0.02 -0.11,-0.03 -0.13,-0.03 -0.02,0 -0.01,0.02 0.01,0.2z"/>
      <path class="fil3" style="mask:url(#id2)" d="M1.9 0.64c-0.02,0.18 -0.06,0.52 -0.07,0.84 -0.02,0.31 -0.01,0.6 -0.01,0.76 0,0.16 -0,0.2 -0.03,0.22 -0.03,0.02 -0.07,0.03 -0.13,0.03 -0.05,0 -0.1,-0.01 -0.18,-0.01 -0.08,-0.01 -0.19,-0.01 -0.26,-0.01 -0.07,-0 -0.08,-0 -0.11,-0.01 -0.03,-0.01 -0.06,-0.02 -0.08,-0.21 -0.02,-0.19 -0.03,-0.56 -0.02,-0.83 0.01,-0.27 0.02,-0.45 0.03,-0.54 0.01,-0.09 0.01,-0.1 0.02,-0.12 0.01,-0.02 0.02,-0.05 0.1,-0.09 0.08,-0.03 0.22,-0.07 0.34,-0.1 0.12,-0.03 0.22,-0.07 0.29,-0.09 0.07,-0.02 0.11,-0.03 0.13,-0.03 0.02,0 0.01,0.02 -0.01,0.2z"/>
     </g>
     <g>
      <rect class="fil8 str0" transform="matrix(0.219269 -0.0178004 -0 0.219266 1.83861 0.109039)" width="1.13" height="0.68" rx="0.23" ry="0.23"/>
      <rect class="fil8 str0" transform="matrix(-0.219269 -0.0178004 -0 0.219266 4.08016 0.109039)" width="1.13" height="0.68" rx="0.23" ry="0.23"/>
     </g>
     <path class="fil9" d="M2.96 0.06c0.05,0 0.1,0 0.14,0.01 0.04,0.01 0.07,0.03 0.07,0.05 0,0.02 -0.03,0.04 -0.07,0.05 -0.04,0.01 -0.08,0.01 -0.14,0.01 -0.05,0 -0.1,-0 -0.14,-0.01 -0.04,-0.01 -0.07,-0.03 -0.07,-0.05 0,-0.02 0.03,-0.04 0.07,-0.05 0.04,-0.01 0.08,-0.01 0.14,-0.01zm0.13 0.05c-0.03,-0.01 -0.08,-0.01 -0.13,-0.01 -0.05,0 -0.09,0 -0.13,0.01l-0.04 0.01 0.04 0.01c0.03,0.01 0.08,0.01 0.13,0.01 0.05,0 0.09,-0 0.13,-0.01l0.04 -0.01 -0.04 -0.01z"/>
    </g>
    <line class="fil8 str0" x1="5.13" y1="1.16" x2="5.02" y2= "1.06" />
   </g>
   <path class="fil3" d="M5.11 1.14l-0.07 -0.07c0,0.09 0,0.2 0,0.31 0,0.13 0,0.26 0,0.37 -0,0.12 -0,0.22 -0.01,0.3 -0,0.1 -0.01,0.17 -0.01,0.23 -0.01,0.07 -0.01,0.11 -0.02,0.13l-0 0.02c-0,0.01 0,0.02 0.01,0.05l0.04 0.13c0.02,0.05 0.04,0.11 0.05,0.15l0 0.01c0,-0.02 0,-0.06 0,-0.11 0,-0.08 -0,-0.19 -0,-0.31 -0,-0.11 -0,-0.23 -0,-0.33 0,-0.1 0,-0.2 0,-0.29 0,-0.12 0,-0.22 0,-0.3l0 -0.06c0,-0.09 0,-0.14 -0,-0.16 -0,-0.02 -0.01,-0.03 -0.02,-0.03l-0 -0 0.01 -0.01 0 -0.01z"/>
   <path class="fil3" d="M5.17 1c-0.05,0.01 -0.08,0.09 -0.03,0.1l0.08 0.01 0.02 -0 0 0 0.17 0.02c0.11,0.02 0.24,0.03 0.17,0.13l0.3 0.12c-0,-0.09 -0.03,-0.06 -0.19,-0.13 -0.08,-0.03 0.02,-0.08 -0.08,-0.09l-0.34 -0.09c-0.08,-0.02 -0.04,-0.04 -0.06,-0.06 -0,-0 -0,-0 -0,-0 0,0 0,0.01 0,0.01l-0.04 0c-0,-0.01 -0,-0.02 -0,-0.02z"/>
   <path class="fil10" d="M5.56 1.3l-0.01 0.34 0.28 0.1c0.03,0.01 0.03,0.04 0.03,0.04l0.01 -0.34 -0.32 -0.13z"/>
   <path class="fil11" d="M5.87 1.78l-0.32 -0.1 0 0.09 0.06 0.03c0.25,0.11 0.25,0.08 0.26,-0.02z"/>
   <path class="fil3" d="M5.51 1.77c-0,-0.01 -0,-0.02 -0,-0.03l-0.14 0c-0.09,0 -0.04,-0.04 -0.09,-0.05l-0.03 0.05c0,0.09 0,0.08 0.05,0.09 -0,-0.07 0.03,-0.05 0.2,-0.06z"/>
   <path class="fil12" d="M4.85 2.7l-3.77 0 0 -0.06c-0.01,0.01 -0.02,0.03 -0.04,0.07 -0.01,0.04 -0.03,0.1 -0.05,0.17 -0.02,0.08 -0.04,0.16 -0.05,0.22 -0.01,0.05 -0.01,0.09 -0.01,0.11 -0,0.02 0,0.03 0.01,0.04 0,0.01 0.01,0.02 0.03,0.03 0.02,0.01 0.06,0.02 0.13,0.04 0.08,0.02 0.2,0.04 0.35,0.05 0.12,0.01 0.25,0.03 0.4,0.03 0.12,0.01 0.26,0.01 0.39,0.01 0.48,-0.01 0.96,-0.01 1.43,0 0.13,-0 0.27,-0 0.39,-0.01 0.15,-0.01 0.28,-0.02 0.4,-0.03 0.15,-0.02 0.27,-0.04 0.35,-0.05 0.07,-0.02 0.11,-0.03 0.13,-0.04 0.02,-0.01 0.03,-0.02 0.03,-0.03 0,-0.01 0.01,-0.02 0.01,-0.04 -0,-0.02 -0,-0.06 -0.01,-0.11 -0.01,-0.06 -0.03,-0.14 -0.05,-0.22 -0.02,-0.06 -0.03,-0.12 -0.05,-0.17 -0.01,-0.02 -0.01,-0.04 -0.02,-0.05l0 0.04z"/>
   <path class="fil13" d="M0.85 3.78l0 -0.13 -0.03 -0c-0.02,-0 -0.04,-0 -0.06,-0.01 -0.01,-0 -0.03,-0.01 -0.04,-0.01l-0.12 0 0 0.31 0.13 0 0 -0.16 0.02 0 0.1 0z"/>
   <path class="fil13" d="M5.03 3.65l0 0.13 0.12 0 0 0.16 0.13 0 0 -0.31 -0.12 0c-0.01,0 -0.02,0.01 -0.04,0.01 -0.02,0 -0.04,0 -0.06,0.01l-0.03 0z"/>
   <polygon class="fil13" points="0.86,11.74 0.73,11.74 0.73,11.67 0.6,11.67 0.6,11.89 0.74,11.89 0.76,11.89 0.8,11.89 0.82,11.89 0.86,11.89 "/>
   <polygon class="fil13" points="5.01,11.74 5.01,11.89 5.1,11.89 5.12,11.89 5.16,11.89 5.18,11.89 5.28,11.89 5.28,11.67 5.15,11.67 5.15,11.74 "/>
   <polygon class="fil13" points="1.04,12.07 1.04,11.93 0.91,11.93 0.84,11.93 0.84,12.07 "/>
   <polygon class="fil4" points="1.38,11.93 1.38,12.07 1.58,12.07 1.58,11.93 "/>
   <polygon class="fil4" points="4.34,11.93 4.34,12.07 4.54,12.07 4.54,11.93 "/>
   <polygon class="fil13" points="4.88,11.93 4.88,12.07 5.08,12.07 5.08,11.93 4.97,11.93 "/>
   <polygon class="fil14" points="1.34,12.07 1.34,11.93 1.08,11.93 1.08,12.07 "/>
   <polygon class="fil14" points="1.62,11.93 1.62,12.07 1.83,12.07 1.83,11.93 "/>
   <polygon class="fil14" points="0.8,12.07 0.8,11.93 0.78,11.93 0.78,12.07 "/>
   <polygon class="fil14" points="4.09,11.93 4.09,12.07 4.3,12.07 4.3,11.93 "/>
   <polygon class="fil14" points="4.58,11.93 4.58,12.07 4.84,12.07 4.84,11.93 "/>
   <polygon class="fil14" points="5.12,11.93 5.12,12.07 5.14,12.07 5.14,11.93 "/>
   <polygon class="fil14" points="2.62,12.05 2.62,11.94 2.62,11.93 1.98,11.93 1.96,11.96 1.96,12.04 1.99,12.07 2.63,12.07 "/>
   <polygon class="fil14" points="2.66,11.96 2.66,12.04 2.69,12.07 3.23,12.07 3.26,12.04 3.26,11.96 3.24,11.93 2.68,11.93 "/>
   <polygon class="fil14" points="3.3,11.94 3.3,12.05 3.29,12.07 3.93,12.07 3.96,12.04 3.96,11.96 3.94,11.93 3.29,11.93 "/>
   <polygon class="fil1" points="3.25,11.89 3.95,11.89 3.95,11.89 4.05,11.89 4.3,11.89 4.56,11.89 4.58,11.89 4.84,11.89 4.97,11.89 4.97,11.74 0.91,11.74 0.91,11.89 1.08,11.89 1.34,11.89 1.36,11.89 1.62,11.89 1.87,11.89 1.97,11.89 1.97,11.89 1.98,11.89 2.67,11.89 "/>
   <polygon class="fil1" points="5.15,3.99 5.15,11.63 5.28,11.63 5.28,3.99 "/>
   <polygon class="fil1" points="0.73,11.63 0.73,3.99 0.6,3.99 0.6,11.63 "/>
   <path class="fil14" d="M4.82 3.59c0.09,0 0.16,-0 0.21,-0 0.05,-0 0.07,-0.01 0.08,-0.01 0.01,-0.01 0.01,-0.02 0.02,-0.03l0.02 -0.09c-0.01,0.01 -0.01,0.01 -0.02,0.02 -0.03,0.02 -0.06,0.03 -0.1,0.05 -0.04,0.01 -0.08,0.03 -0.12,0.04 -0.04,0.01 -0.09,0.02 -0.14,0.03 -0.01,0 -0.02,0 -0.03,0.01 0.03,0 0.06,0 0.09,0z"/>
   <path class="fil14" d="M1.09 3.59c-0.05,-0.01 -0.1,-0.02 -0.14,-0.03 -0.05,-0.01 -0.09,-0.02 -0.12,-0.04 -0.04,-0.01 -0.07,-0.03 -0.1,-0.05 -0.01,-0.01 -0.02,-0.01 -0.02,-0.02l0.02 0.09c0,0.02 0.01,0.03 0.02,0.03 0.01,0.01 0.04,0.01 0.08,0.01 0.05,0 0.12,0 0.21,0 0.03,0 0.06,0 0.09,-0 -0.01,-0 -0.02,-0 -0.03,-0.01z"/>
   <path class="fil15" d="M3.4 0.19c0.1,0 0.2,0.01 0.27,0.01 0.07,0 0.12,0.01 0.17,0.01 -0,-0.01 -0.01,-0.02 -0.01,-0.03l0 -0.01c-0.06,-0.01 -0.12,-0.02 -0.19,-0.02 -0.08,-0.01 -0.16,-0.01 -0.24,-0.02 -0.08,-0 -0.16,-0.01 -0.23,-0.01 -0,0.02 -0.03,0.04 -0.07,0.04 -0,0 -0.01,0 -0.01,0l0.05 0 0.27 0.01z"/>
   <path class="fil15" d="M2.72 0.18l0.1 -0c-0,-0 -0,-0 -0,-0 -0.04,-0.01 -0.07,-0.03 -0.07,-0.05l-0 0c-0.08,0 -0.18,0.01 -0.29,0.01 -0.08,0 -0.17,0.01 -0.24,0.02 -0.05,0 -0.09,0.01 -0.13,0.01l0 0.02c0,0.01 -0,0.01 -0,0.02 0.03,-0 0.06,-0 0.1,-0.01 0.08,-0 0.17,-0.01 0.27,-0.01l0.27 -0.01z"/>
   <path class="fil15" d="M1.5 0.33c0.11,-0.03 0.21,-0.05 0.3,-0.07l0.04 -0.01 0 -0.04 -0.07 0.01c-0.08,0.02 -0.18,0.04 -0.27,0.06 -0.08,0.02 -0.16,0.04 -0.23,0.06 -0.07,0.02 -0.13,0.04 -0.19,0.06 -0.06,0.02 -0.11,0.04 -0.14,0.06 -0.03,0.01 -0.04,0.02 -0.05,0.03 -0,0 -0,0 0,0.01 0,0.01 0.01,0.02 0.02,0.03 0.01,0.01 0.03,0.02 0.04,0.03 0.01,0 0.01,0.01 0.02,0.01 0.01,-0.03 0.01,-0.05 0.03,-0.07 0.01,-0.01 0.02,-0.03 0.05,-0.04 0.03,-0.01 0.07,-0.02 0.15,-0.05 0.08,-0.02 0.2,-0.05 0.31,-0.08z"/>
   <path class="fil15" d="M4.08 0.22l-0 0.01 0 -0.08c0,0 0,0.01 0,0.02l0 0.02 0 0.03c0,0 -0,0.01 -0,0.01l0.02 0c0.08,0.02 0.18,0.04 0.27,0.06 0.08,0.02 0.16,0.04 0.23,0.06 0.07,0.02 0.13,0.04 0.19,0.06 0.06,0.02 0.11,0.04 0.14,0.06 0.03,0.01 0.04,0.02 0.05,0.03 0,0 0,0 -0,0.01 -0,0.01 -0.01,0.02 -0.02,0.03 -0.01,0.01 -0.03,0.02 -0.04,0.03 -0.01,0 -0.01,0.01 -0.02,0.01 -0.01,-0.03 -0.01,-0.05 -0.03,-0.07 -0.01,-0.01 -0.02,-0.03 -0.05,-0.04 -0.03,-0.01 -0.07,-0.02 -0.15,-0.05 -0.08,-0.02 -0.2,-0.05 -0.31,-0.08 -0.1,-0.02 -0.2,-0.05 -0.28,-0.07l0 -0.04 0 -0.01z"/>
  </g>
 </g>
</svg>
