<?xml version="1.0" encoding="UTF-8"?>
<!DOCTYPE svg PUBLIC "-//W3C//DTD SVG 1.1//EN" "http://www.w3.org/Graphics/SVG/1.1/DTD/svg11.dtd">
<!-- Creator: CorelDRAW -->
<svg xmlns="http://www.w3.org/2000/svg" xml:space="preserve" width="2.4312mm" height="4.7mm" version="1.1" style="shape-rendering:geometricPrecision; text-rendering:geometricPrecision; image-rendering:optimizeQuality; fill-rule:evenodd; clip-rule:evenodd"
viewBox="0 0 3.13 6.05"
 xmlns:xlink="http://www.w3.org/1999/xlink"
 xmlns:xodm="http://www.corel.com/coreldraw/odm/2003">
 <defs>
  <style type="text/css">
   <![CDATA[
    .fil5 {fill:#373435}
    .fil0 {fill:#CC0000}
    .fil3 {fill:red}
    .fil4 {fill:white}
    .fil2 {fill:url(#id0)}
    .fil1 {fill:url(#id1)}
   ]]>
  </style>
  <linearGradient id="id0" gradientUnits="userSpaceOnUse" x1="0.93" y1="2.59" x2="2.16" y2="2.59">
   <stop offset="0" style="stop-opacity:1; stop-color:black"/>
   <stop offset="0.392157" style="stop-opacity:1; stop-color:#303030"/>
   <stop offset="0.568627" style="stop-opacity:1; stop-color:#616161"/>
   <stop offset="0.682353" style="stop-opacity:1; stop-color:#999999"/>
   <stop offset="0.870588" style="stop-opacity:1; stop-color:#D1D1D1"/>
   <stop offset="0.929412" style="stop-opacity:1; stop-color:dimgray"/>
   <stop offset="1" style="stop-opacity:1; stop-color:black"/>
  </linearGradient>
  <linearGradient id="id1" gradientUnits="userSpaceOnUse" x1="0.85" y1="2.42" x2="0.83" y2="4.64">
   <stop offset="0" style="stop-opacity:1; stop-color:black"/>
   <stop offset="0.309804" style="stop-opacity:1; stop-color:#2F2F2F"/>
   <stop offset="0.368627" style="stop-opacity:1; stop-color:#5E5E5E"/>
   <stop offset="0.431373" style="stop-opacity:1; stop-color:#2F2F2F"/>
   <stop offset="0.678431" style="stop-opacity:1; stop-color:black"/>
   <stop offset="0.898039" style="stop-opacity:1; stop-color:#1D1D1D"/>
   <stop offset="1" style="stop-opacity:1; stop-color:#3B3B3B"/>
  </linearGradient>
 </defs>
 <g id="Camada_x0020_1">
  <metadata id="CorelCorpID_0Corel-Layer"/>
  <path class="fil0" d="M2.68 0.28c0.07,0.07 0.13,0.19 0.17,0.28 0.05,0.13 0.08,0.33 0.08,0.51 0,0.16 0,0.36 -0.02,0.51 -0.01,0.04 -0.02,0.06 -0.02,0.09 0,0.26 -0.02,0.22 0.06,0.26 0.05,0.03 0.1,0.06 0.13,0.11 0.04,0.06 0.04,0.08 0.03,0.15 -0.09,0.02 -0.13,-0.02 -0.22,-0.04 0,0.17 0.01,0.36 0,0.49l0.01 0.37c0.04,0.28 -0.01,0.31 -0.01,0.32l0 0.13c-0,0.02 0,0.04 0,0.06 0,0.04 -0,0.04 -0,0.08 0,0.13 -0.01,0.53 0.01,0.63 0.02,0.11 0.01,0.19 0.02,0.25 0.05,0.28 0.04,0.71 -0.03,0.97 -0.05,0.2 -0.14,0.38 -0.34,0.46 -0.32,0.13 -0.64,0.13 -0.97,0.15l-0.02 -0 -0.02 0c-0.33,-0.02 -0.65,-0.02 -0.97,-0.15 -0.2,-0.08 -0.29,-0.26 -0.34,-0.46 -0.06,-0.25 -0.07,-0.68 -0.03,-0.97 0.01,-0.06 -0.01,-0.14 0.02,-0.25 0.02,-0.1 0.01,-0.5 0.01,-0.63 0,-0.04 -0.01,-0.04 -0,-0.08 0,-0.02 0,-0.05 0,-0.06l0 -0.13c0,-0.01 -0.05,-0.04 -0.01,-0.32l0.01 -0.37c-0,-0.12 0,-0.32 0,-0.49 -0.1,0.02 -0.13,0.07 -0.22,0.04 -0.02,-0.07 -0.01,-0.09 0.03,-0.15 0.03,-0.05 0.08,-0.08 0.13,-0.11 0.09,-0.04 0.06,-0 0.06,-0.26 0,-0.03 -0.01,-0.06 -0.02,-0.09 -0.02,-0.15 -0.02,-0.35 -0.02,-0.51 0,-0.18 0.03,-0.38 0.08,-0.51 0.04,-0.09 0.1,-0.21 0.17,-0.28 0.22,-0.23 0.73,-0.28 1.05,-0.28 0.02,0 0.04,0 0.07,0 0.03,-0 0.05,-0 0.07,-0 0.32,0 0.83,0.05 1.05,0.28z"/>
  <g id="_1764122766048">
   <path class="fil1" d="M0.55 3.13c-0.01,-0.07 0.01,-0.42 -0,-0.59 -0.01,-0.2 -0.08,-0.37 -0.1,-0.49 -0,0.02 -0.03,0.01 -0.05,0.04 -0.03,0.05 0.01,0.67 -0.02,0.76l-0 0.01 -0 -0.28c-0,0.16 -0.01,0.36 -0,0.48 0.01,0 0.04,0.02 0.07,0.04 0.03,0.01 0.07,0.02 0.1,0.03zm2.02 0c0.03,-0.01 0.07,-0.02 0.1,-0.03 0.04,-0.01 0.07,-0.03 0.07,-0.04 0.01,-0.12 0,-0.32 -0,-0.48l-0 0.28 -0 -0.01c-0.02,-0.09 0.01,-0.72 -0.02,-0.76 -0.02,-0.03 -0.05,-0.02 -0.05,-0.04 -0.02,0.12 -0.09,0.29 -0.1,0.49 -0.01,0.17 0.01,0.52 -0,0.59zm0.01 1.03c0.02,0.02 0,0.01 0.03,0.02l0.12 0.1c-0.01,-0.11 -0.01,-0.92 0,-1.02l-0.12 0.04c-0.05,0.01 -0.04,0.01 -0.04,0.08l0 0.34c0,0.14 -0.01,0.3 0,0.44zm-0.02 0.18c0,0.08 -0.01,0.2 0.01,0.28 0,0.02 0.06,0.19 0.08,0.21l0.02 0.04c0.01,0.01 0,0 0.01,0.01 0.01,-0.14 0.02,-0.28 0.03,-0.42 -0.04,-0.04 -0.07,-0.05 -0.1,-0.08l-0.05 -0.04zm-2.05 0.04c-0.03,0.03 -0.07,0.05 -0.1,0.08 0,0.14 0.02,0.28 0.03,0.42 0.01,-0.01 0,-0 0.01,-0.01l0.02 -0.04c0.03,-0.03 0.08,-0.19 0.08,-0.21 0.02,-0.08 0.01,-0.2 0.01,-0.28l-0.05 0.04zm-0 -1.08l-0.12 -0.04c0.01,0.1 0.01,0.91 0,1.02l0.12 -0.1c0.03,-0.01 0.01,-0 0.03,-0.02 0.01,-0.14 0,-0.3 0,-0.44l0 -0.34c0,-0.06 0.01,-0.06 -0.04,-0.08z"/>
   <path class="fil2" d="M2.26 5.2c-0.1,0.05 -0.44,0.09 -0.56,0.09l-0.13 0 -0 0 -0 0 -0.13 -0c-0.12,-0 -0.46,-0.04 -0.56,-0.09 -0.06,-0.02 -0.1,-0.03 -0.14,-0.06 -0.02,-0.02 -0.02,-0.03 -0.04,-0.04 -0.03,-0.01 -0.03,-0.01 -0.03,-0.04 -0,-0.01 0.01,-0.02 -0.04,-0.04 0,0.02 0,0.04 -0,0.06 -0,0 -0,0 -0,0 -0.01,0.02 -0.02,0.02 -0.04,0.08 -0.02,0.07 -0.06,0.14 -0.06,0.18 -0,0.01 -0,0.01 -0.01,0.03 -0.01,0.01 -0,0.01 -0.01,0.02 -0.03,0.06 0.06,0.1 0.12,0.14 0.04,0.02 0.09,0.05 0.14,0.06l0.15 0.05c0.02,0.01 0.05,0.01 0.08,0.02 0.03,0.01 0.05,0.01 0.08,0.02 0.16,0.03 0.34,0.04 0.5,0.04 0.16,-0 0.34,-0.02 0.5,-0.04 0.03,-0 0.05,-0.01 0.08,-0.02 0.03,-0.01 0.06,-0.01 0.08,-0.02l0.15 -0.05c0.05,-0.02 0.1,-0.04 0.14,-0.06 0.06,-0.04 0.16,-0.08 0.12,-0.14 -0,-0.01 -0,-0 -0.01,-0.02 -0,-0.01 -0,-0.02 -0.01,-0.03 -0.01,-0.04 -0.04,-0.11 -0.06,-0.18 -0.02,-0.06 -0.03,-0.06 -0.04,-0.08 -0,-0 -0,-0 -0,-0 -0,-0.02 -0,-0.04 -0,-0.06 -0.05,0.02 -0.04,0.03 -0.04,0.04 -0,0.03 -0,0.03 -0.03,0.04 -0.02,0.01 -0.03,0.02 -0.04,0.04 -0.05,0.04 -0.08,0.04 -0.14,0.06zm-0.36 -3.04l0 0c0.01,-0.02 0.01,0.01 -0,0zm-0.68 0c-0.01,0.01 -0.01,-0.02 -0,0l0 0zm-0.28 0.02l0.14 -0.02 0.1 -0.01 0.09 -0.01 0.02 0 0.16 -0.01 0.11 -0 0 0 0 0 0.11 0 0.16 0.01 0.02 -0 0.09 0.01 0.1 0.01 0.14 0.02c-0.03,0 -0.1,-0.01 -0.13,-0.02 -0.04,-0 -0.12,-0.02 -0.15,-0.01 -0,0 -0,0 -0,0 0,0 0,0 0,0 0,0 0,0 0,0.01l-0.08 0c0.04,0.02 0.44,0.04 0.66,0.14l-0.01 -0.01c-0,-0 -0,-0 -0,-0.01l-0.01 -0.03c0.02,-0.07 0.03,-0.15 0.05,-0.22 0.02,-0.06 0.04,-0.16 0.05,-0.23 0.01,-0.02 0.03,-0.14 0.03,-0.18 0,-0.07 -0.05,-0.1 -0.09,-0.12 -0.05,-0.06 -0.41,-0.14 -0.51,-0.15 -0.11,-0.01 -0.2,-0.02 -0.31,-0.02 -0.04,-0 -0.08,0 -0.12,0l0 0 -0 0 -0 0 0 0c-0.04,-0 -0.08,-0 -0.12,-0 -0.11,0 -0.2,0 -0.31,0.02 -0.09,0.01 -0.45,0.09 -0.51,0.15 -0.04,0.02 -0.09,0.05 -0.09,0.12 0,0.04 0.02,0.16 0.03,0.18 0.01,0.06 0.04,0.16 0.05,0.23 0.02,0.08 0.03,0.15 0.05,0.22l-0.01 0.03c-0,0 -0,0 -0,0.01l-0.01 0.01c0.22,-0.1 0.61,-0.12 0.66,-0.14l-0.08 -0c0,-0 0,-0 0,-0.01 0,-0 0,-0 0,-0 -0,-0 -0,-0 -0,-0 -0.03,-0 -0.12,0.01 -0.15,0.01 -0.04,0 -0.1,0.02 -0.13,0.02z"/>
   <path class="fil3" d="M0.51 5.48c-0.04,-0.06 -0.03,-0.04 -0.06,-0.07 -0.1,-0.1 -0.08,-0.13 -0.1,-0.16 -0.04,0.07 -0,0.21 0.04,0.27l0.09 0.08c0.03,0.02 0.07,0.05 0.11,0.05 -0.01,-0.02 -0.03,-0.02 -0.05,-0.04 0.02,0 0.03,0.01 0.05,0.02 0.05,0.02 0,-0 0.03,0.03 0.01,0.01 0.2,0.08 0.3,0.05 -0.11,-0.05 -0.28,-0.08 -0.36,-0.16 -0.04,-0.04 -0.02,-0.04 -0.05,-0.08z"/>
   <path class="fil3" d="M2.63 5.48c0.04,-0.06 0.03,-0.04 0.06,-0.07 0.1,-0.1 0.08,-0.13 0.1,-0.16 0.04,0.07 0,0.21 -0.04,0.27l-0.09 0.08c-0.03,0.02 -0.07,0.05 -0.11,0.05 0.01,-0.02 0.03,-0.02 0.05,-0.04 -0.02,0 -0.03,0.01 -0.05,0.02 -0.05,0.02 -0,-0 -0.03,0.03 -0.01,0.01 -0.2,0.08 -0.3,0.05 0.11,-0.05 0.28,-0.08 0.36,-0.16 0.04,-0.04 0.02,-0.04 0.05,-0.08z"/>
   <path class="fil4" d="M0.59 0.23c-0.19,0.09 -0.26,0.35 -0.19,0.49 0.02,-0.02 0.04,-0.13 0.16,-0.29 0.02,-0.02 0.04,-0.04 0.05,-0.06 0.02,-0.02 0.03,-0.04 0.05,-0.06 0.06,-0.05 0.06,-0.1 0.09,-0.15 -0.03,0.01 -0.13,0.05 -0.17,0.07z"/>
   <path class="fil4" d="M2.44 0.29c0.01,0.02 0.03,0.05 0.06,0.06 0.01,0.04 0.08,0.11 0.11,0.16 0.02,0.03 0.08,0.15 0.09,0.17l0.01 0.04c0.06,-0.08 0.02,-0.37 -0.19,-0.48 -0.04,-0.02 -0.12,-0.06 -0.17,-0.07 0.01,0.02 0.02,0.04 0.03,0.06 0,0 0,0 0.01,0.01 0.01,0.01 0.01,0.01 0.01,0.02 0.01,0.02 0.01,0.03 0.03,0.03z"/>
   <g>
    <path class="fil5" d="M1.57 5.97c-0.03,0 -0.07,0 -0.09,-0 -0.18,-0 -0.34,-0.02 -0.51,-0.05 -0.08,-0.01 -0.4,-0.08 -0.44,-0.11 -0.04,-0.01 -0.08,-0.03 -0.1,-0.07 -0.01,-0.01 -0.03,-0.03 -0.04,-0.04 -0.05,-0.06 -0.1,-0.2 -0.12,-0.3 -0.06,-0.15 -0.06,-0.72 -0.03,-0.89 0.04,-0.01 -0,-0 0.03,0.02l-0.02 -0.06c-0.03,-0.08 0,-0.2 0.01,-0.28 0.01,-0.05 0,-0.23 0,-0.3 0,-0.1 -0.01,-0.53 0.01,-0.59 -0.05,-0.04 -0.04,-0.21 -0.02,-0.27 0.02,-0.08 0.01,-0.2 0.01,-0.29 0,-0.08 -0.01,-0.57 0.01,-0.59 0.02,-0.02 0.03,-0.02 0.05,-0.05 0.02,-0.03 0.01,-0.04 0.03,-0.06l0.01 -0c0,-0 0,0 0,0.01 -0.02,0.23 -0,0.51 -0,0.75 -0,0.25 -0,0.49 -0,0.74 -0,0.24 -0.01,0.49 0.01,0.73 0.01,0.12 0.01,0.24 0.02,0.36 0.01,0.16 0.03,0.22 0.04,0.32 0.03,-0.01 0.01,0.01 0.03,-0.02 0,-0 0.01,-0.02 0.02,-0.03 0.1,-0.2 0.12,-0.29 0.12,-0.51 0,-0.24 -0,-0.48 -0,-0.72 0,-0.41 0.03,-1.02 -0.04,-1.4 -0.02,-0.11 -0.05,-0.22 -0.08,-0.32 -0.01,-0.05 -0.03,-0.11 -0.04,-0.16 -0.01,-0.05 -0.04,-0.11 -0.02,-0.16 -0,0 -0,0 -0,0l-0.03 0.02c-0.01,-0.02 -0.04,-0.04 -0.05,-0.05 -0.03,0 -0.03,0.01 -0.05,0.03 -0,0.03 -0,0.01 0.01,0.02 0,-0.02 0.01,-0.03 0.02,-0.04 0.09,0.01 0.07,0.17 0.05,0.26 -0.02,0.02 0.01,0 -0.02,0.01l-0.08 0.02c0,-0.09 -0.02,-0.16 0.01,-0.24 -0.02,-0.02 -0.03,-0.08 -0.03,-0.1 -0.01,-0.22 -0.03,-0.43 -0,-0.65 0.01,-0.1 0.03,-0.19 0.05,-0.28 0.01,-0.05 0.08,-0.2 0.1,-0.22 -0.03,0.11 -0.07,0.23 0,0.34 0.03,0.05 -0.05,0.41 -0,0.64 0.01,0.07 0.02,0.07 0.05,0.12 0.03,0.05 -0.01,0.13 -0.01,0.11 -0,-0 -0,0 -0,0 0.02,-0.02 -0,-0 0.02,-0.01l0.02 0.09c0.03,0.16 0.07,0.28 0.11,0.44 0.02,0.05 0.03,0.12 0.05,0.18 0.05,0.14 0.06,0.2 0.07,0.37 0.01,0.14 0.01,0.29 0.01,0.43 -0,0.29 0.01,0.58 0.01,0.87 0,0.16 0,0.72 0.04,0.84 -0.12,0.05 -0.06,0.03 -0.1,0.05l0 0.02c-0.01,0.01 -0.16,0.43 -0.19,0.49 -0.06,-0 -0.09,-0.11 -0.09,-0.13 -0.06,-0 -0.07,0.03 -0.06,0.09 0,0.03 0.01,0.11 0.02,0.12 0.01,0.07 0.05,0.1 0.07,0.14 0.02,0.02 0.04,0.04 0.07,0.05 0.03,0.01 0.06,0.02 0.08,0.04 0.02,-0 0.09,0.02 0.12,0.03 0.05,0.01 0.1,0.02 0.14,0.03 0.03,-0.01 0.08,0.01 0.11,-0.02 0.01,-0.01 -0,0 0.01,-0.01 0.01,-0.01 0.01,-0.01 0.01,-0.01 -0.07,-0 -0.27,-0.08 -0.34,-0.12 -0.04,-0.02 -0.07,-0.03 -0.07,-0.09 0.03,-0 0.15,0.07 0.21,0.09 0.22,0.09 0.52,0.13 0.81,0.13l0 0.25zm-0 0c0.03,0 0.07,0 0.09,-0 0.18,-0 0.34,-0.02 0.51,-0.05 0.08,-0.01 0.4,-0.08 0.44,-0.11 0.04,-0.01 0.08,-0.03 0.1,-0.07 0.01,-0.01 0.03,-0.03 0.04,-0.04 0.05,-0.06 0.1,-0.2 0.12,-0.3 0.06,-0.15 0.06,-0.72 0.03,-0.89 -0.04,-0.01 0,-0 -0.03,0.02l0.02 -0.06c0.03,-0.08 -0,-0.2 -0.01,-0.28 -0.01,-0.05 -0,-0.23 -0,-0.3 0,-0.1 0.01,-0.53 -0.01,-0.59 0.05,-0.04 0.04,-0.21 0.02,-0.27 -0.02,-0.08 -0.01,-0.2 -0.01,-0.29 -0,-0.08 0.01,-0.57 -0.01,-0.59 -0.02,-0.02 -0.03,-0.02 -0.05,-0.05 -0.02,-0.03 -0.01,-0.04 -0.03,-0.06l-0.01 -0c-0,-0 -0,0 -0,0.01 0.02,0.23 0,0.51 0,0.75 0,0.25 0,0.49 0,0.74 0,0.24 0.01,0.49 -0.01,0.73 -0.01,0.12 -0.01,0.24 -0.02,0.36 -0.01,0.16 -0.03,0.22 -0.04,0.32 -0.03,-0.01 -0.01,0.01 -0.03,-0.02 -0,-0 -0.01,-0.02 -0.02,-0.03 -0.1,-0.2 -0.12,-0.29 -0.12,-0.51 -0,-0.24 0,-0.48 0,-0.72 -0,-0.41 -0.03,-1.02 0.04,-1.4 0.02,-0.11 0.05,-0.22 0.08,-0.32 0.01,-0.05 0.03,-0.11 0.04,-0.16 0.01,-0.05 0.04,-0.11 0.02,-0.16 0,0 0,0 0,0l0.03 0.02c0.01,-0.02 0.04,-0.04 0.05,-0.05 0.03,0 0.03,0.01 0.05,0.03 0,0.03 0,0.01 -0.01,0.02 -0,-0.02 -0.01,-0.03 -0.02,-0.04 -0.09,0.01 -0.07,0.17 -0.05,0.26 0.02,0.02 -0.01,0 0.02,0.01l0.08 0.02c-0,-0.09 0.02,-0.16 -0.01,-0.24 0.02,-0.02 0.03,-0.08 0.03,-0.1 0.01,-0.22 0.03,-0.43 0,-0.65 -0.01,-0.1 -0.03,-0.19 -0.05,-0.28 -0.01,-0.05 -0.08,-0.2 -0.1,-0.22 0.03,0.11 0.07,0.23 -0,0.34 -0.03,0.05 0.05,0.41 0,0.64 -0.01,0.07 -0.02,0.07 -0.05,0.12 -0.03,0.05 0.01,0.13 0.01,0.11 0,-0 0,0 0,0 -0.02,-0.02 0,-0 -0.02,-0.01l-0.02 0.09c-0.03,0.16 -0.07,0.28 -0.11,0.44 -0.02,0.05 -0.03,0.12 -0.05,0.18 -0.05,0.14 -0.06,0.2 -0.07,0.37 -0.01,0.14 -0.01,0.29 -0.01,0.43 0,0.29 -0.01,0.58 -0.01,0.87 -0,0.16 -0,0.72 -0.04,0.84 0.12,0.05 0.06,0.03 0.1,0.05l-0 0.02c0.01,0.01 0.16,0.43 0.19,0.49 0.06,-0 0.09,-0.11 0.09,-0.13 0.06,-0 0.07,0.03 0.06,0.09 -0,0.03 -0.01,0.11 -0.02,0.12 -0.01,0.07 -0.05,0.1 -0.07,0.14 -0.02,0.02 -0.04,0.04 -0.07,0.05 -0.03,0.01 -0.06,0.02 -0.08,0.04 -0.02,-0 -0.09,0.02 -0.12,0.03 -0.05,0.01 -0.1,0.02 -0.14,0.03 -0.03,-0.01 -0.08,0.01 -0.11,-0.02 -0.01,-0.01 0,0 -0.01,-0.01 -0.01,-0.01 -0.01,-0.01 -0.01,-0.01 0.07,-0 0.27,-0.08 0.34,-0.12 0.04,-0.02 0.07,-0.03 0.07,-0.09 -0.03,-0 -0.15,0.07 -0.21,0.09 -0.22,0.09 -0.52,0.13 -0.81,0.13l0 0.25zm0 -1.18c0.21,-0 0.65,0 0.8,0.03 0.03,-0.3 0.04,-0.94 0.04,-1.26 0,-0.19 0,-0.92 0.04,-1.1 0.01,-0.04 0.03,-0.1 0.03,-0.14 -0.09,-0.04 -0.19,-0.07 -0.31,-0.08 -0.07,-0.01 -0.3,-0.05 -0.36,-0.04 -0.01,-0 0.01,-0 -0.02,-0.01 -0.01,-0 -0.02,-0 -0.03,-0 -0.01,-0 -0.03,-0 -0.04,-0 -0.05,-0 -0.1,-0 -0.15,-0l0 2.61zm0 0c-0.21,-0 -0.65,0 -0.8,0.03 -0.03,-0.3 -0.04,-0.94 -0.04,-1.26 -0,-0.19 -0,-0.92 -0.04,-1.1 -0.01,-0.04 -0.03,-0.1 -0.03,-0.14 0.09,-0.04 0.19,-0.07 0.31,-0.08 0.07,-0.01 0.3,-0.05 0.36,-0.04 0.01,-0 -0.01,-0 0.02,-0.01 0.01,-0 0.02,-0 0.03,-0 0.01,-0 0.03,-0 0.04,-0 0.05,-0 0.1,-0 0.15,-0l0 2.61zm-0.94 -3.28c0.05,-0.06 0.41,-0.14 0.51,-0.15 0.11,-0.01 0.2,-0.02 0.31,-0.02 0.04,-0 0.08,0 0.12,0l0 0 0 0 0 0 0 0c0.04,-0 0.08,-0 0.12,-0 0.11,0 0.2,0 0.31,0.02 0.09,0.01 0.45,0.09 0.51,0.15 0.04,0.02 0.09,0.05 0.09,0.12 -0,0.04 -0.02,0.16 -0.03,0.18 -0.01,0.06 -0.04,0.16 -0.05,0.23 -0.02,0.08 -0.03,0.15 -0.05,0.22l0.01 0.03c0,0 0,0 0,0.01l0.01 0.01c-0.22,-0.1 -0.61,-0.12 -0.66,-0.14l0.08 -0c0.01,-0.02 0.01,0.02 -0.01,-0.01 -0.01,-0.02 -0.01,0.01 -0,-0.01 0.03,-0 0.12,0.01 0.15,0.01 0.04,0 0.1,0.02 0.13,0.02l-0.14 -0.02 -0.1 -0.01 -0.09 -0.01 -0.02 0 -0.16 -0.01 -0.11 -0 0 0 -0 0 -0 0 0 0 -0.11 0 -0.16 0.01 -0.02 -0 -0.09 0.01 -0.1 0.01 -0.14 0.02c0.03,0 0.1,-0.01 0.13,-0.02 0.04,-0 0.12,-0.02 0.15,-0.01 0.01,0.02 0.01,-0.01 -0,0.01 -0.02,0.02 -0.01,-0.01 -0.01,0.01l0.08 0c-0.04,0.02 -0.44,0.04 -0.66,0.14l0.01 -0.01c0,-0 0,-0 0,-0.01l0.01 -0.03c-0.02,-0.07 -0.03,-0.15 -0.05,-0.22 -0.02,-0.06 -0.04,-0.16 -0.05,-0.23 -0.01,-0.02 -0.03,-0.14 -0.03,-0.18 -0,-0.07 0.05,-0.1 0.09,-0.12zm0.94 -0.22l0 0 -0 0 -0 0 0 0c-0.15,0 -0.3,0.01 -0.39,0.01 0.08,-0.02 0.23,-0.02 0.39,-0.02l0 0 0 -0 0 0 0 -0c0.16,-0 0.31,0 0.39,0.02 -0.09,-0 -0.24,-0.01 -0.39,-0.01zm-0 -0.03c-0.13,-0 -0.26,0 -0.35,0.02 -0.04,0.01 -0.08,0.01 -0.12,0.02l-0.1 0.02c-0,-0 -0,-0 -0,-0 -0,-0 -0,-0 -0.01,-0 -0,-0 -0,-0 -0.01,-0l-0.01 -0c-0.03,-0 -0.16,0.04 -0.19,0.04l-0.13 0.05c-0,0 -0.02,0.01 -0.02,0.01 -0.03,0.01 -0.03,0.01 -0.05,0.03 0.03,-0.01 0.3,-0.1 0.33,-0.08 -0.16,0.03 -0.24,0.08 -0.31,0.1 -0.03,0.01 -0.06,0.02 -0.09,0.03l0.03 -0.04c0.01,-0.01 -0,0 0.01,-0.01l0.03 -0.03c0.03,-0.03 0.15,-0.08 0.18,-0.09l0.19 -0.06c0.1,-0.03 0.35,-0.06 0.45,-0.06 0.06,-0 0.11,-0.01 0.17,-0.01l0 0 0 0 0 0 0 0 0 0 0 0c0.05,-0 0.11,0.01 0.17,0.01 0.11,0 0.35,0.04 0.45,0.06l0.19 0.06c0.04,0.01 0.15,0.07 0.18,0.09l0.03 0.03c0.01,0.02 0,0 0.01,0.01l0.03 0.04c-0.03,-0 -0.06,-0.02 -0.09,-0.03 -0.07,-0.02 -0.15,-0.07 -0.31,-0.1 0.03,-0.01 0.3,0.07 0.33,0.08 -0.02,-0.02 -0.02,-0.02 -0.05,-0.03 -0,-0 -0.02,-0.01 -0.02,-0.01l-0.13 -0.05c-0.03,-0.01 -0.16,-0.05 -0.19,-0.04l-0.01 0c-0,0 -0,0 -0.01,0 -0,0 -0,0 -0,0 -0,0 -0,0 -0.01,0l-0.1 -0.02c-0.04,-0.01 -0.08,-0.01 -0.12,-0.02 -0.1,-0.01 -0.22,-0.02 -0.35,-0.02zm0 -0.1l0 -0 -0 0 -0 0 0 0c-0.34,0 -0.76,0.04 -1.01,0.24 -0.02,0.02 -0.03,0.03 -0.05,0.05 -0.01,0.01 -0.01,0.02 -0.02,0.03 -0,0 -0.01,0.01 -0.01,0.01 -0.01,0.01 -0.01,0.01 -0.01,0.01 -0.05,-0.06 -0.04,-0.08 -0.06,-0.11l0 -0.38c0.01,-0.14 0,-0.23 0.06,-0.34 0.11,-0.22 0.16,-0.22 0.24,-0.35 0.01,-0.02 0.03,-0.04 0.04,-0.06 0.02,-0.03 0.02,-0.05 0.04,-0.06 0.01,-0.02 -0,-0.01 0.03,-0.02 0.01,-0 0.03,-0.01 0.04,-0.01 0.23,-0.06 0.48,-0.09 0.73,-0.09 0.25,0 0.5,0.03 0.73,0.09 0.01,0 0.03,0.01 0.04,0.01 0.03,0.01 0.01,-0 0.03,0.02 0.02,0.01 0.02,0.03 0.04,0.06 0.01,0.02 0.02,0.04 0.04,0.06 0.08,0.13 0.13,0.13 0.24,0.35 0.06,0.11 0.05,0.2 0.06,0.34l0 0.38c-0.02,0.03 -0.01,0.06 -0.06,0.11 -0.01,-0 -0,-0 -0.01,-0.01 -0,-0 -0.01,-0.01 -0.01,-0.01 -0.01,-0.01 -0.01,-0.02 -0.02,-0.03 -0.02,-0.02 -0.03,-0.03 -0.05,-0.05 -0.25,-0.19 -0.68,-0.23 -1.01,-0.24zm0 -1.1l0 0 -0 0 -0 0 0 0c-0.14,0 -0.28,0.01 -0.39,0.02 -0.1,0.01 -0.22,0.03 -0.32,0.06 -0.08,0.02 -0.03,0.03 -0.06,0.02l-0.02 -0.01c-0.06,0.01 -0.19,0.06 -0.25,0.1 -0,0 -0.01,0 -0.01,0.01 -0.01,0.01 -0.01,0.01 -0.02,0.02 -0.01,0.01 -0.01,0.01 -0.01,0.02 -0,0 -0,0 -0,0 -0,-0 -0,-0 -0,-0 -0,0 -0,0.01 0,0 0,-0 0,-0 0,-0 0.01,-0 0.02,-0.03 0.04,-0.04 0,-0 0,-0 0,-0 0.19,-0.16 0.69,-0.23 0.93,-0.22 0.03,0 0.07,0 0.12,0l0 0 0 0 0 0 0 -0c0.05,-0 0.09,-0 0.12,-0 0.24,-0 0.74,0.06 0.93,0.22 0,0 0,0 0,0 0.01,0.01 0.03,0.04 0.04,0.04 0,0 0,0 0,0 0,0 0,-0 0,-0 -0,0 -0,0 -0,0 -0,0 0,0 -0,-0 -0,-0 -0,-0.01 -0.01,-0.02 -0.01,-0.01 -0.01,-0.02 -0.02,-0.02 -0,-0 -0.01,-0 -0.01,-0.01 -0.05,-0.04 -0.19,-0.09 -0.25,-0.1l-0.02 0.01c-0.04,0.01 0.02,0 -0.06,-0.02 -0.1,-0.03 -0.22,-0.04 -0.32,-0.06 -0.12,-0.01 -0.25,-0.02 -0.39,-0.02zm-0 -0.05c-0.03,-0 -0.05,-0 -0.07,-0 -0.32,0 -0.83,0.05 -1.05,0.28 -0.07,0.07 -0.13,0.19 -0.17,0.28 -0.05,0.13 -0.08,0.33 -0.08,0.51 0,0.16 -0,0.36 0.02,0.51 0.01,0.04 0.02,0.06 0.02,0.09 0,0.26 0.02,0.22 -0.06,0.26 -0.05,0.03 -0.1,0.06 -0.13,0.11 -0.04,0.06 -0.04,0.08 -0.03,0.15 0.09,0.02 0.13,-0.02 0.22,-0.04 0,0.17 -0.01,0.36 -0,0.49l-0.01 0.37c-0.04,0.28 0.01,0.31 0.01,0.32l-0 0.13c0,0.02 -0,0.04 -0,0.06 -0,0.04 0,0.04 0,0.08 0,0.13 0.01,0.53 -0.01,0.63 -0.02,0.11 -0.01,0.19 -0.02,0.25 -0.05,0.28 -0.04,0.71 0.03,0.97 0.05,0.2 0.14,0.38 0.34,0.46 0.32,0.13 0.64,0.13 0.97,0.15l0.02 -0 0.02 0c0.33,-0.02 0.65,-0.02 0.97,-0.15 0.2,-0.08 0.29,-0.26 0.34,-0.46 0.06,-0.25 0.07,-0.68 0.03,-0.97 -0.01,-0.06 0.01,-0.14 -0.02,-0.25 -0.02,-0.1 -0.01,-0.5 -0.01,-0.63 0,-0.04 0.01,-0.04 0,-0.08 -0,-0.02 -0,-0.05 -0,-0.06l-0 -0.13c0,-0.01 0.05,-0.04 0.01,-0.32l-0.01 -0.37c0,-0.12 -0,-0.32 -0,-0.49 0.1,0.02 0.13,0.07 0.22,0.04 0.02,-0.07 0.01,-0.09 -0.03,-0.15 -0.03,-0.05 -0.08,-0.08 -0.13,-0.11 -0.09,-0.04 -0.06,-0 -0.06,-0.26 0,-0.03 0.01,-0.06 0.02,-0.09 0.02,-0.15 0.02,-0.35 0.02,-0.51 0,-0.18 -0.03,-0.38 -0.08,-0.51 -0.04,-0.09 -0.1,-0.21 -0.17,-0.28 -0.22,-0.23 -0.73,-0.28 -1.05,-0.28 -0.02,0 -0.04,0 -0.07,0zm0 6.02l0 0 -0 0 -0 0 0 0 -0.01 0c-0.19,0 -0.37,-0.01 -0.56,-0.04 -0.05,-0.01 -0.31,-0.06 -0.36,-0.08 -0.08,-0.03 -0.08,-0.02 -0.11,-0.06 0.04,0 0.08,0.02 0.12,0.03 0.03,0.01 0.07,0.02 0.11,0.03 0.23,0.05 0.51,0.08 0.8,0.08l0 0 0 0 0 0 0 0c0.29,-0 0.57,-0.03 0.8,-0.08 0.04,-0.01 0.08,-0.01 0.11,-0.03 0.04,-0.02 0.08,-0.03 0.12,-0.03 -0.03,0.04 -0.03,0.03 -0.11,0.06 -0.05,0.02 -0.31,0.07 -0.36,0.08 -0.19,0.02 -0.37,0.04 -0.56,0.04l-0.01 0zm-0 -0.31c-0.16,-0 -0.34,-0.02 -0.5,-0.04 -0.03,-0 -0.05,-0.01 -0.08,-0.02 -0.03,-0.01 -0.06,-0.01 -0.08,-0.02l-0.15 -0.05c-0.05,-0.02 -0.1,-0.04 -0.14,-0.06 -0.06,-0.04 -0.16,-0.08 -0.12,-0.14 0,-0.01 0,-0 0.01,-0.02 0,-0.01 0,-0.02 0.01,-0.03 0.01,-0.04 0.04,-0.11 0.06,-0.18 0.02,-0.06 0.03,-0.06 0.04,-0.08 0,-0 0,-0 0,-0 0,-0.02 0,-0.04 0,-0.06 0.05,0.02 0.04,0.03 0.04,0.04 0,0.03 0,0.03 0.03,0.04 0.02,0.01 0.03,0.02 0.04,0.04 0.05,0.04 0.08,0.04 0.14,0.06 0.1,0.05 0.44,0.09 0.56,0.09l0.13 0 0 0 0 0 0 0 0 0 0.13 -0c0.12,-0 0.46,-0.04 0.56,-0.09 0.06,-0.02 0.1,-0.03 0.14,-0.06 0.02,-0.02 0.02,-0.03 0.04,-0.04 0.03,-0.01 0.03,-0.01 0.03,-0.04 0,-0.01 -0.01,-0.02 0.04,-0.04 0,0.02 -0,0.04 0,0.06 0,0 0,0 0,0 0.01,0.02 0.02,0.02 0.04,0.08 0.02,0.07 0.06,0.14 0.06,0.18 0,0.01 0,0.01 0.01,0.03 0.01,0.01 0,0.01 0.01,0.02 0.03,0.06 -0.06,0.1 -0.12,0.14 -0.04,0.02 -0.09,0.05 -0.14,0.06l-0.15 0.05c-0.02,0.01 -0.05,0.01 -0.08,0.02 -0.03,0.01 -0.05,0.01 -0.08,0.02 -0.16,0.03 -0.34,0.04 -0.5,0.04zm0 -0.44c-0.23,-0 -0.46,-0.04 -0.69,-0.09 -0.02,-0.01 -0.09,-0.03 -0.11,-0.05 -0.04,-0.02 -0.07,-0.06 -0.09,-0.07 -0.04,-0.08 -0.06,-0.09 -0.01,-0.19 0.02,-0.02 0.01,-0.01 0.04,-0.03 0.02,-0.05 0.46,-0.06 0.87,-0.06l0 0 0 0 0 0 0 0c0.41,-0 0.85,0 0.87,0.06 0.03,0.01 0.02,0 0.04,0.03 0.05,0.09 0.03,0.11 -0.01,0.19 -0.02,0.01 -0.05,0.05 -0.09,0.07 -0.02,0.01 -0.1,0.04 -0.11,0.05 -0.23,0.05 -0.46,0.09 -0.69,0.09zm0.45 -4.23c0,0.04 0,0 -0.01,0.02 -0.04,0.01 -0.05,-0.05 0,-0.03 0.01,0.01 0.01,-0.02 0.01,0.02zm0.33 -0.84c0.04,0.03 -0.02,0.02 0,0.14 0.05,0.19 0.06,0.26 0.1,0.43 0.02,0.11 0.11,0.5 0.11,0.59 -0.02,-0.01 -0.02,-0.01 -0.04,-0.04 -0.05,-0.12 -0.09,-0.34 -0.11,-0.46 -0.03,-0.18 -0.1,-0.38 -0.1,-0.56l-0 -0.06c-0.02,-0.02 -0.12,-0.04 -0.15,-0.05 -0.19,-0.04 -0.38,-0.05 -0.58,-0.05 -0,-0 -0.01,-0 -0.02,-0l0 0 -0 0 0 0 -0 0 -0 0 -0 0 0 0 -0 0 -0 0 -0 0 0 0 -0 0 0 0c-0.01,0 -0.01,0 -0.02,0 -0.2,0 -0.38,0.01 -0.58,0.05 -0.03,0.01 -0.13,0.03 -0.15,0.05l-0 0.06c-0.01,0.18 -0.07,0.38 -0.1,0.56 -0.02,0.12 -0.07,0.35 -0.11,0.46 -0.01,0.03 -0.02,0.02 -0.04,0.04 0,-0.09 0.09,-0.48 0.11,-0.59 0.04,-0.18 0.05,-0.25 0.1,-0.43 0.03,-0.11 -0.03,-0.11 0,-0.14 0.23,-0.07 0.51,-0.1 0.78,-0.1l0 0 0 0 0 0 0 0c0.27,0 0.55,0.04 0.78,0.1zm0.27 4.18l-0.05 -0.04c0,0.08 -0.01,0.2 0.01,0.28 0,0.02 0.06,0.19 0.08,0.21l0.02 0.04c0.01,0.01 0,0 0.01,0.01 0.01,-0.14 0.02,-0.28 0.03,-0.42 -0.04,-0.04 -0.07,-0.05 -0.1,-0.08zm0.12 0.03c0,-0.04 0.01,-0.05 -0.01,-0.08l-0.08 -0.09c-0.02,-0.01 -0.04,-0.02 -0.07,-0.02 -0,0.04 -0.02,0.04 0.01,0.07l0.11 0.11c0.02,0.01 -0.01,0.01 0.03,0.01zm-0.12 -0.22l0.12 0.1c-0.01,-0.11 -0.01,-0.92 0,-1.02l-0.12 0.04c-0.05,0.01 -0.04,0.01 -0.04,0.08l0 0.34c0,0.14 -0.01,0.3 0,0.44 0.02,0.02 0,0.01 0.03,0.02zm0.14 -1.09l-0.16 0.07 -0.01 0.1c0.04,-0.01 0.03,-0.01 0.07,-0.02 -0.02,0 -0.02,0.02 -0.08,0.04 0.01,0.01 -0.02,0.01 0.03,0l0.15 -0.08 -0 -0.1zm-0.01 -0.24c-0.02,-0.09 0.01,-0.72 -0.02,-0.76 -0.02,-0.04 -0.06,-0.02 -0.05,-0.05 -0.02,0.13 -0.09,0.3 -0.1,0.5 -0.01,0.17 0.01,0.52 -0,0.59 0.03,-0.01 0.07,-0.02 0.1,-0.03 0.05,-0.02 0.09,-0.05 0.07,-0.03 0.02,-0.18 -0.01,-0.56 0,-0.68l-0 0.48 -0 -0.01zm0.34 -0.71c-0.01,-0.13 -0.13,-0.19 -0.25,-0.23 -0,0.12 -0,0.1 0.09,0.15 0.04,0.02 0.13,0.07 0.16,0.08zm-0.32 -0.25c-0.04,-0.03 -0.02,-0.05 -0.02,-0.14 -0,-0.01 -0,-0.01 -0,-0.02 0,0 0.01,-0.01 0,0.02 -0,0 -0,0.01 -0,0.01 -0.02,0.07 -0.01,0.02 -0.02,0.1 -0.01,0.05 -0.02,0.08 -0.02,0.13 0.02,0.01 0.07,0.02 0.09,0.02l0.01 -0.1 -0.03 -0.02zm-0.04 -1.18c0.07,-0.13 -0,-0.39 -0.19,-0.49 -0.04,-0.02 -0.13,-0.06 -0.17,-0.07 0.03,0.04 0.03,0.09 0.09,0.15 0.02,0.02 0.03,0.03 0.05,0.06 0.02,0.02 0.04,0.04 0.05,0.06 0.12,0.16 0.14,0.26 0.16,0.29zm-0.38 2.06l-0 0.56c-0,0.02 -0,1.26 -0.02,1.35 -0.01,0.05 -0.01,0.09 -0.06,0.09 -0.05,-0.05 -0.03,-0.19 -0.03,-0.28l0.01 -1.47c0,-0.08 0,-0.16 0,-0.24 0,-0.08 -0.01,-0.17 0.08,-0.16 0.03,0.04 0.02,0.1 0.02,0.16zm0.43 2.48c-0.02,0.03 -0,0.05 -0.1,0.16 -0.03,0.03 -0.02,0.01 -0.06,0.07 -0.03,0.04 -0.01,0.04 -0.05,0.08 -0.08,0.08 -0.25,0.11 -0.36,0.16 0.09,0.03 0.29,-0.04 0.3,-0.05 0.02,-0.03 -0.02,-0.01 0.03,-0.03 0.02,-0.01 0.03,-0.02 0.05,-0.02 -0.02,0.02 -0.03,0.01 -0.05,0.04 0.04,-0.01 0.09,-0.03 0.11,-0.05l0.09 -0.08c0.04,-0.06 0.08,-0.2 0.04,-0.27zm-1.67 -4.22c-0,0.04 -0,0 0.01,0.02 0.04,0.01 0.05,-0.05 -0,-0.03 -0.01,0.01 -0.01,-0.02 -0.01,0.02zm-0.59 3.34l0.05 -0.04c-0,0.08 0.01,0.2 -0.01,0.28 -0,0.02 -0.06,0.19 -0.08,0.21l-0.02 0.04c-0.01,0.01 -0,0 -0.01,0.01 -0.01,-0.14 -0.02,-0.28 -0.03,-0.42 0.04,-0.04 0.07,-0.05 0.1,-0.08zm-0.12 0.03c-0,-0.04 -0.01,-0.05 0.01,-0.08l0.08 -0.09c0.02,-0.01 0.04,-0.02 0.07,-0.02 0,0.04 0.02,0.04 -0.01,0.07l-0.11 0.11c-0.02,0.01 0.01,0.01 -0.03,0.01zm0.12 -0.22l-0.12 0.1c0.01,-0.11 0.01,-0.92 -0,-1.02l0.12 0.04c0.05,0.01 0.04,0.01 0.04,0.08l-0 0.34c-0,0.14 0.01,0.3 -0,0.44 -0.02,0.02 -0,0.01 -0.03,0.02zm-0.14 -1.09l0.16 0.07 0.01 0.1c-0.04,-0.01 -0.03,-0.01 -0.07,-0.02 0.02,0 0.02,0.02 0.08,0.04 -0.01,0.01 0.02,0.01 -0.03,0l-0.15 -0.08 0 -0.1zm0.01 -0.24c0.02,-0.09 -0.01,-0.72 0.02,-0.76 0.02,-0.04 0.06,-0.02 0.05,-0.05 0.02,0.13 0.09,0.3 0.1,0.5 0.01,0.17 -0.01,0.52 0,0.59 -0.03,-0.01 -0.07,-0.02 -0.1,-0.03 -0.05,-0.02 -0.09,-0.05 -0.07,-0.03 -0.02,-0.18 0.01,-0.56 -0,-0.68l0 0.48 0 -0.01zm-0.34 -0.71c0.01,-0.13 0.13,-0.19 0.25,-0.23 0,0.12 0,0.1 -0.09,0.15 -0.04,0.02 -0.13,0.07 -0.16,0.08zm0.32 -0.25c0.04,-0.03 0.02,-0.05 0.02,-0.14 0,-0.01 0,-0.01 0,-0.02 -0,0 -0.01,-0.01 -0,0.02 0,0 0,0.01 0,0.01 0.02,0.07 0.01,0.02 0.02,0.1 0.01,0.05 0.02,0.08 0.02,0.13 -0.02,0.01 -0.07,0.02 -0.09,0.02l-0.01 -0.1 0.03 -0.02zm0.04 -1.18c-0.07,-0.13 0,-0.39 0.19,-0.49 0.04,-0.02 0.13,-0.06 0.17,-0.07 -0.03,0.04 -0.03,0.09 -0.09,0.15 -0.02,0.02 -0.03,0.03 -0.05,0.06 -0.02,0.02 -0.04,0.04 -0.05,0.06 -0.12,0.16 -0.14,0.26 -0.16,0.29zm0.38 2.06l0 0.56c0,0.02 0,1.26 0.02,1.35 0.01,0.05 0.01,0.09 0.06,0.09 0.05,-0.05 0.03,-0.19 0.03,-0.28l-0.01 -1.47c-0,-0.08 -0,-0.16 -0,-0.24 -0,-0.08 0.01,-0.17 -0.08,-0.16 -0.03,0.04 -0.02,0.1 -0.02,0.16zm-0.43 2.48c0.02,0.03 0,0.05 0.1,0.16 0.03,0.03 0.02,0.01 0.06,0.07 0.03,0.04 0.01,0.04 0.05,0.08 0.08,0.08 0.25,0.11 0.36,0.16 -0.09,0.03 -0.29,-0.04 -0.3,-0.05 -0.02,-0.03 0.02,-0.01 -0.03,-0.03 -0.02,-0.01 -0.03,-0.02 -0.05,-0.02 0.02,0.02 0.03,0.01 0.05,0.04 -0.04,-0.01 -0.09,-0.03 -0.11,-0.05l-0.09 -0.08c-0.04,-0.06 -0.08,-0.2 -0.04,-0.27z"/>
   </g>
  </g>
 </g>
</svg>
