<?xml version="1.0" encoding="UTF-8"?>
<!DOCTYPE svg PUBLIC "-//W3C//DTD SVG 1.1//EN" "http://www.w3.org/Graphics/SVG/1.1/DTD/svg11.dtd">
<!-- Creator: CorelDRAW -->
<svg xmlns="http://www.w3.org/2000/svg" xml:space="preserve" width="2.2071mm" height="4.6001mm" version="1.1" style="shape-rendering:geometricPrecision; text-rendering:geometricPrecision; image-rendering:optimizeQuality; fill-rule:evenodd; clip-rule:evenodd"
viewBox="0 0 2.5 5.22"
 xmlns:xlink="http://www.w3.org/1999/xlink"
 xmlns:xodm="http://www.corel.com/coreldraw/odm/2003">
 <defs>
  <style type="text/css">
   <![CDATA[
    .fil3 {fill:#373435}
    .fil6 {fill:black}
    .fil1 {fill:#B0080A}
    .fil0 {fill:#CC0000}
    .fil2 {fill:white}
    .fil4 {fill:url(#id0)}
    .fil5 {fill:url(#id1)}
   ]]>
  </style>
  <linearGradient id="id0" gradientUnits="userSpaceOnUse" x1="0.47" y1="1.63" x2="2.04" y2="1.63">
   <stop offset="0" style="stop-opacity:1; stop-color:black"/>
   <stop offset="0.462745" style="stop-opacity:1; stop-color:#303030"/>
   <stop offset="0.658824" style="stop-opacity:1; stop-color:#616161"/>
   <stop offset="0.8" style="stop-opacity:1; stop-color:#D1D1D1"/>
   <stop offset="0.858824" style="stop-opacity:1; stop-color:dimgray"/>
   <stop offset="1" style="stop-opacity:1; stop-color:black"/>
  </linearGradient>
  <linearGradient id="id1" gradientUnits="userSpaceOnUse" x1="1.26" y1="1.77" x2="1.24" y2="4.02">
   <stop offset="0" style="stop-opacity:1; stop-color:black"/>
   <stop offset="0.309804" style="stop-opacity:1; stop-color:#2F2F2F"/>
   <stop offset="0.368627" style="stop-opacity:1; stop-color:#5E5E5E"/>
   <stop offset="0.431373" style="stop-opacity:1; stop-color:#2F2F2F"/>
   <stop offset="0.678431" style="stop-opacity:1; stop-color:black"/>
   <stop offset="0.898039" style="stop-opacity:1; stop-color:#1D1D1D"/>
   <stop offset="1" style="stop-opacity:1; stop-color:#3B3B3B"/>
  </linearGradient>
 </defs>
 <g id="Camada_x0020_1">
  <metadata id="CorelCorpID_0Corel-Layer"/>
  <path class="fil0" d="M2.31 3.78c0,0.04 0.01,0.09 0.02,0.13 0.02,0.12 0,0.47 -0.01,0.63 -0.01,0.14 -0.06,0.32 -0.15,0.43 -0.04,0.06 -0.09,0.1 -0.16,0.13 -0.11,0.04 -0.1,0.04 -0.22,0.07 -0.11,0.03 -0.4,0.05 -0.51,0.05 -0.01,-0 -0.03,-0 -0.04,-0 -0.01,0 -0.03,0 -0.04,0 -0.11,0 -0.4,-0.03 -0.51,-0.05 -0.11,-0.03 -0.11,-0.03 -0.22,-0.07 -0.07,-0.03 -0.12,-0.07 -0.16,-0.13 -0.08,-0.11 -0.13,-0.29 -0.15,-0.43 -0.02,-0.16 -0.03,-0.51 -0.01,-0.63 0.01,-0.04 0.02,-0.09 0.02,-0.13 0,-0.05 -0,-0.1 0.01,-0.14 0.02,-0.11 0.01,-0.57 0.01,-0.7 0,-0.11 0.01,-0.08 -0.01,-0.17 -0.01,-0.05 -0.01,-0.18 -0,-0.23 0.01,-0.03 0.01,-0.02 0.01,-0.06 0,-0.09 0.01,-0.6 -0.01,-0.63 -0.01,0.01 -0,0.01 -0.02,0.02l-0.06 0.02c-0.09,0.02 -0.08,0.02 -0.11,-0.01 0,-0.11 0.02,-0.14 0.09,-0.19 0.1,-0.07 0.13,-0.02 0.12,-0.11 -0.01,-0.05 0.01,-0.07 0,-0.12 -0,-0.04 -0.01,-0.08 -0.02,-0.12 -0.01,-0.04 -0.01,-0.08 -0.01,-0.13 -0.02,-0.21 -0.02,-0.53 0.06,-0.73 0.05,-0.12 0.13,-0.23 0.23,-0.3 0.19,-0.15 0.52,-0.17 0.77,-0.17 0.01,0 0.01,0 0.02,0l0 0 0 0 0 0 0 0 0 0c0.01,0 0.01,0 0.02,0 0.24,0 0.57,0.03 0.77,0.17 0.1,0.08 0.18,0.19 0.23,0.3 0.09,0.2 0.08,0.52 0.06,0.73 -0,0.04 -0,0.08 -0.01,0.13 -0.01,0.04 -0.02,0.07 -0.02,0.12 -0,0.05 0.01,0.07 0,0.12 -0.01,0.09 0.03,0.04 0.12,0.11 0.07,0.05 0.09,0.07 0.09,0.19 -0.03,0.03 -0.03,0.03 -0.11,0.01l-0.06 -0.02c-0.02,-0.01 -0.01,-0 -0.02,-0.02 -0.02,0.03 -0.01,0.54 -0.01,0.63 0,0.04 0.01,0.03 0.01,0.06 0.01,0.05 0.01,0.18 -0,0.23 -0.02,0.09 -0.01,0.06 -0.01,0.17 0,0.13 -0.01,0.6 0.01,0.7 0.01,0.04 0,0.09 0.01,0.14z"/>
  <g id="_1764431384240">
   <path class="fil1" d="M2.03 4.79c0.05,-0.02 0.06,-0.05 0.09,-0.09 0.04,-0.05 0.04,-0.06 0.06,-0.12 0.01,0 0.02,0 0.02,0.05 -0,0.09 -0.02,0.13 -0.07,0.2 -0.02,0.02 -0.04,0.04 -0.06,0.05 -0.1,0.06 -0.25,0.09 -0.35,0.07 0.01,-0 0.29,-0.1 0.33,-0.16z"/>
   <path class="fil2" d="M2.02 0.21c0.14,0.08 0.17,0.3 0.13,0.37 -0.02,-0.03 -0.04,-0.13 -0.12,-0.22 -0.02,-0.02 -0.04,-0.05 -0.05,-0.07 -0.06,-0.03 -0.11,-0.13 -0.12,-0.15 0.04,0 0.13,0.05 0.16,0.07z"/>
   <path class="fil1" d="M0.47 4.79c-0.05,-0.02 -0.06,-0.05 -0.09,-0.09 -0.04,-0.05 -0.04,-0.06 -0.06,-0.12 -0.01,0 -0.02,0 -0.02,0.05 0,0.09 0.02,0.13 0.07,0.2 0.02,0.02 0.04,0.04 0.06,0.05 0.1,0.06 0.25,0.09 0.35,0.07 -0.01,-0 -0.29,-0.1 -0.33,-0.16z"/>
   <path class="fil2" d="M0.48 0.21c-0.14,0.08 -0.17,0.3 -0.13,0.37 0.02,-0.03 0.04,-0.13 0.12,-0.22 0.02,-0.02 0.04,-0.05 0.05,-0.07 0.06,-0.03 0.11,-0.13 0.12,-0.15 -0.04,0 -0.13,0.05 -0.16,0.07z"/>
   <path class="fil3" d="M0.4 4.02c0,-0.01 -0.02,-0.1 -0.02,-0.13 -0.01,-0.05 -0.01,-0.11 -0.01,-0.16 0.03,-0.02 0.04,-0.04 0.09,-0.05 -0.01,0.09 -0.03,0.28 -0.06,0.35zm1.7 0c-0,-0.01 0.02,-0.1 0.02,-0.13 0.01,-0.05 0.01,-0.11 0.01,-0.16 -0.03,-0.02 -0.04,-0.04 -0.09,-0.05 0.01,0.09 0.03,0.28 0.06,0.35zm-0.85 -0.17c0.03,-0 0.03,-0.02 0.03,-0.13 0,-0.04 0,-0.07 -0.03,-0.08l0 0c-0,-0 -0,-0 -0,-0 -0,0 -0,0 -0,0l0 -0c-0.03,0 -0.03,0.04 -0.03,0.08 -0,0.11 0.01,0.13 0.03,0.13zm-0 -0.21l0 -0 0 0 0 0 0 0 0.02 0 0.02 0.01c0.01,0.06 0.01,0.17 -0.02,0.21 -0,0 -0.01,0 -0.01,0l0 0c-0,0 -0,0 -0,-0l0 0 -0 0 0 -0c-0,-0 -0.01,-0 -0.01,-0 -0.04,-0.05 -0.03,-0.15 -0.02,-0.21l0.02 -0.01 0.02 -0zm0.6 -3.34c-0,0.02 0.05,0.17 0.06,0.21 0.02,0.08 0.04,0.14 0.05,0.22 0.03,0.15 0.06,0.3 0.09,0.45l0 0.05c-0.02,-0.03 -0.02,-0.06 -0.03,-0.1 -0,-0.01 -0.01,-0.03 -0.01,-0.05 -0.03,-0.08 -0.04,-0.18 -0.06,-0.23 -0,-0 -0,-0 -0,-0.01 0,-0.03 -0.03,-0.18 -0.04,-0.22 -0.01,-0.04 -0.02,-0.03 -0.02,-0.06 -0.02,-0.08 -0.05,-0.19 -0.06,-0.28 -0.01,-0.05 -0.02,-0.06 -0.02,-0.1 -0.04,-0.01 -0.09,-0.02 -0.13,-0.03 -0.05,-0.01 -0.09,-0.01 -0.14,-0.02 -0.07,-0.01 -0.19,-0.02 -0.28,-0.01l0 0 -0 0 -0 0 0 0c-0.09,-0 -0.21,0 -0.28,0.01 -0.05,0.01 -0.09,0.01 -0.14,0.02 -0.04,0.01 -0.09,0.02 -0.13,0.03 -0.01,0.05 -0.01,0.06 -0.02,0.1 -0.02,0.09 -0.04,0.2 -0.06,0.28 -0.01,0.03 -0.02,0.02 -0.02,0.06 -0.01,0.04 -0.04,0.2 -0.04,0.22 -0,0 -0,0 -0,0.01 -0.03,0.05 -0.03,0.15 -0.06,0.23 -0.01,0.01 -0.01,0.03 -0.01,0.05 -0.01,0.04 -0.01,0.07 -0.03,0.1l0 -0.05c0.03,-0.15 0.05,-0.29 0.09,-0.45 0.02,-0.08 0.04,-0.14 0.05,-0.22 0.01,-0.05 0.06,-0.19 0.06,-0.21 0.02,-0.02 0.02,-0.04 0.03,-0.08 0.02,-0.07 0.01,-0.02 -0.01,-0.06 0.17,-0.06 0.38,-0.09 0.58,-0.08 0.2,-0 0.41,0.03 0.58,0.08 -0.02,0.04 -0.03,-0.01 -0.01,0.06 0.01,0.03 0.01,0.06 0.03,0.08zm0.18 4.5c-0.04,0.06 -0.32,0.15 -0.33,0.16 0.11,0.02 0.26,-0.01 0.35,-0.07 0.03,-0.01 0.05,-0.03 0.06,-0.05 0.05,-0.07 0.07,-0.11 0.07,-0.2 0,-0.05 -0.01,-0.05 -0.02,-0.05 -0.01,0.07 -0.02,0.08 -0.06,0.12 -0.03,0.04 -0.04,0.06 -0.09,0.09zm-0.05 0.2l0.01 -0.06 -0.03 0.03c-0,0 -0.03,0.01 -0.04,0.02 -0.22,0.09 -0.44,0.11 -0.68,0.11l-0.01 0 0 0 -0 0 -0 0 0 0 -0.01 -0c-0.24,-0 -0.46,-0.02 -0.68,-0.11 -0,-0 -0.03,-0.01 -0.04,-0.02l-0.03 -0.03 0.01 0.06c-0,0.01 -0.02,-0.04 -0.02,-0.05 -0.03,-0.08 -0.21,-0.03 -0.21,-0.34 -0,-0.04 0.01,-0.05 0.04,-0.06 0.07,0.23 0.12,0.19 0.14,0.25l0.02 -0.04c0.02,0.09 0.02,0.06 0.13,0.11 0.03,0.02 0.14,0.06 0.18,0.06 0.01,0.01 0.01,0.01 0.01,0.03 -0.09,0.04 -0.16,-0 -0.24,0.01 0.02,0.02 0.04,0.03 0.07,0.04 0.18,0.06 0.42,0.07 0.61,0.07l0 0 0 0 0 0 0 0c0.19,0 0.43,-0.01 0.61,-0.07 0.03,-0.01 0.05,-0.02 0.07,-0.04 -0.08,-0.01 -0.15,0.04 -0.24,-0.01 0,-0.02 0,-0.02 0.01,-0.03 0.04,-0 0.15,-0.04 0.18,-0.06 0.11,-0.06 0.11,-0.03 0.13,-0.11l0.02 0.04c0.02,-0.05 0.06,-0.01 0.14,-0.25 0.04,0.01 0.05,0.02 0.04,0.06 -0.01,0.31 -0.18,0.26 -0.21,0.34 -0,0.01 -0.02,0.06 -0.02,0.05zm-0.73 0.14c0.2,-0 0.63,-0.03 0.7,-0.1 0.03,0.01 0.02,-0.01 -0.03,0.04 0.03,-0 0.03,-0.01 0.06,-0.01 0.12,-0.04 0.13,-0.06 0.19,-0.15 0.05,-0.07 0.07,-0.16 0.1,-0.25 0.02,-0.14 0.04,-0.26 0.05,-0.41 0,-0.13 0.01,-0.31 -0.02,-0.44l-0.02 0.09c-0.01,0.01 -0.01,0.01 -0.02,0.02l0 -0.02c-0.03,0.01 -0.01,0.01 -0.02,0.02 -0.04,-0.02 -0.03,-0.02 -0.05,-0.05 0,0 0.06,0.07 0.09,-0.01 0.04,-0.1 0.01,-0.2 0,-0.28 -0.01,-0.1 0.02,-0.58 0,-0.8l0.02 -0.05c0,-0.02 0,-0.04 0,-0.06 0,-0.04 0,-0.09 -0,-0.12 -0.01,-0.04 -0.01,-0.03 -0.01,-0.05l-0 -0.19c0,-0.05 0.01,-0.48 -0.02,-0.49 -0.02,-0.03 -0.02,-0.03 -0.05,-0.04l-0.02 -0.01c-0.01,0.19 -0,0.41 0,0.6l-0 0.58c-0,0.24 -0.01,0.62 -0.03,0.85 -0.01,0.08 -0.01,0.21 -0.06,0.24 -0.11,-0.18 -0.08,-1.05 -0.08,-1.33 0,-0.22 0,-0.46 0.03,-0.67 0.01,-0.09 0.13,-0.54 0.11,-0.58 0.02,-0.01 -0.03,0 0.01,0 0.01,-0 -0.01,0.01 0.02,-0 0.02,-0.01 0.02,-0.04 0.02,-0.01 -0.05,0.01 -0.02,0.13 -0.03,0.18 0.05,-0.02 0.03,-0.03 0.1,-0.02 -0,-0.06 0.01,-0.14 -0.01,-0.19 0,-0.04 -0,0 0.01,-0.04 0,-0.02 0.01,-0.03 0.01,-0.04 0.01,-0.03 0.01,-0.05 0.01,-0.08 0.01,-0.32 0.05,-0.67 -0.14,-0.94 0.01,0.07 0.05,0.15 0.02,0.24 -0.02,0.06 -0.03,0 -0.03,0.1 0.01,0.18 0.04,0.54 -0.03,0.67l-0.02 0.02c0.02,-0.07 0.04,-0.07 0.05,-0.16 0.01,-0.11 0,-0.29 0,-0.41 -0,-0.04 -0,-0.06 -0.01,-0.1 -0,-0.05 -0,-0.07 -0.02,-0.09 0,-0.06 -0.17,-0.3 -0.2,-0.32 -0.01,-0.03 -0.05,-0.1 -0.07,-0.12 -0.05,-0.07 -0.39,-0.09 -0.47,-0.1 -0.04,-0 -0.08,-0 -0.12,-0l0 0 -0 0 -0 0 0 0c-0.04,-0 -0.08,0 -0.12,0 -0.09,0 -0.42,0.03 -0.47,0.1 -0.02,0.03 -0.06,0.09 -0.07,0.12 -0.03,0.02 -0.21,0.26 -0.2,0.32 -0.02,0.02 -0.02,0.04 -0.02,0.09 -0,0.04 -0.01,0.06 -0.01,0.1 -0,0.12 -0.01,0.3 0,0.41 0.01,0.09 0.02,0.09 0.05,0.16l-0.02 -0.02c-0.07,-0.13 -0.04,-0.49 -0.03,-0.67 0.01,-0.1 -0.01,-0.04 -0.03,-0.1 -0.03,-0.09 0.01,-0.16 0.02,-0.24 -0.19,0.27 -0.15,0.62 -0.14,0.94 0,0.03 0.01,0.05 0.01,0.08 0,0.01 0.01,0.03 0.01,0.04 0.01,0.04 0.01,-0 0.01,0.04 -0.02,0.05 -0.01,0.13 -0.01,0.19 0.06,-0.01 0.05,0 0.1,0.02 -0.01,-0.05 0.02,-0.17 -0.03,-0.18 -0,-0.02 -0,0 0.02,0.01 0.02,0.01 0,0 0.02,0 0.04,0 -0.01,-0.01 0.01,-0 -0.02,0.04 0.1,0.49 0.11,0.58 0.03,0.21 0.03,0.45 0.03,0.67 0,0.28 0.03,1.14 -0.08,1.33 -0.05,-0.03 -0.06,-0.16 -0.06,-0.24 -0.03,-0.24 -0.03,-0.62 -0.03,-0.85l-0 -0.58c0,-0.19 0.01,-0.41 0,-0.6l-0.02 0.01c-0.03,0.02 -0.03,0.01 -0.05,0.04 -0.03,0.01 -0.02,0.44 -0.02,0.49l-0 0.19c-0.01,0.02 -0.01,0.01 -0.01,0.05 -0,0.03 -0,0.09 -0,0.12 -0,0.02 -0,0.04 0,0.06l0.02 0.05c-0.02,0.21 0.01,0.7 0,0.8 -0.01,0.08 -0.04,0.18 0,0.28 0.03,0.08 0.09,0.01 0.09,0.01 -0.02,0.03 -0.02,0.03 -0.05,0.05 -0.01,-0.01 0,-0.01 -0.02,-0.02l0 0.02c-0.01,-0.01 -0.01,-0.01 -0.02,-0.02l-0.02 -0.09c-0.03,0.12 -0.02,0.31 -0.02,0.44 0,0.15 0.02,0.27 0.05,0.41 0.02,0.09 0.05,0.18 0.1,0.25 0.06,0.08 0.07,0.1 0.19,0.15 0.03,0.01 0.03,0.01 0.06,0.01 -0.05,-0.05 -0.06,-0.03 -0.03,-0.04 0.07,0.07 0.5,0.1 0.7,0.1zm0 -5.14c0.01,0 0.01,0 0.02,0 0.24,0 0.57,0.03 0.77,0.17 0.1,0.08 0.18,0.19 0.23,0.3 0.09,0.2 0.08,0.52 0.06,0.73 -0,0.04 -0,0.08 -0.01,0.13 -0.01,0.04 -0.02,0.07 -0.02,0.12 -0,0.05 0.01,0.07 0,0.12 -0.01,0.09 0.03,0.04 0.12,0.11 0.07,0.05 0.09,0.07 0.09,0.19 -0.03,0.03 -0.03,0.03 -0.11,0.01l-0.06 -0.02c-0.02,-0.01 -0.01,-0 -0.02,-0.02 -0.02,0.03 -0.01,0.54 -0.01,0.63 0,0.04 0.01,0.03 0.01,0.06 0.01,0.05 0.01,0.18 -0,0.23 -0.02,0.09 -0.01,0.06 -0.01,0.17 0,0.13 -0.01,0.6 0.01,0.7 0.01,0.04 0,0.09 0.01,0.14 0,0.04 0.01,0.09 0.02,0.13 0.02,0.12 0,0.47 -0.01,0.63 -0.01,0.14 -0.06,0.32 -0.15,0.43 -0.04,0.06 -0.09,0.1 -0.16,0.13 -0.11,0.04 -0.1,0.04 -0.22,0.07 -0.11,0.03 -0.4,0.05 -0.51,0.05 -0.01,-0 -0.03,-0 -0.04,-0 -0.01,0 -0.03,0 -0.04,0 -0.11,0 -0.4,-0.03 -0.51,-0.05 -0.11,-0.03 -0.11,-0.03 -0.22,-0.07 -0.07,-0.03 -0.12,-0.07 -0.16,-0.13 -0.08,-0.11 -0.13,-0.29 -0.15,-0.43 -0.02,-0.16 -0.03,-0.51 -0.01,-0.63 0.01,-0.04 0.02,-0.09 0.02,-0.13 0,-0.05 -0,-0.1 0.01,-0.14 0.02,-0.11 0.01,-0.57 0.01,-0.7 0,-0.11 0.01,-0.08 -0.01,-0.17 -0.01,-0.05 -0.01,-0.18 -0,-0.23 0.01,-0.03 0.01,-0.02 0.01,-0.06 0,-0.09 0.01,-0.6 -0.01,-0.63 -0.01,0.01 -0,0.01 -0.02,0.02l-0.06 0.02c-0.09,0.02 -0.08,0.02 -0.11,-0.01 0,-0.11 0.02,-0.14 0.09,-0.19 0.1,-0.07 0.13,-0.02 0.12,-0.11 -0.01,-0.05 0.01,-0.07 0,-0.12 -0,-0.04 -0.01,-0.08 -0.02,-0.12 -0.01,-0.04 -0.01,-0.08 -0.01,-0.13 -0.02,-0.21 -0.02,-0.53 0.06,-0.73 0.05,-0.12 0.13,-0.23 0.23,-0.3 0.19,-0.15 0.52,-0.17 0.77,-0.17 0.01,0 0.01,0 0.02,0l0 0 0 0 0 0 0 0 0 0zm-0 5.03c0.11,-0 0.22,-0.01 0.35,-0.02 -0.12,0.01 -0.23,0.02 -0.35,0.02l0 0 -0 0 -0 0 0 -0c-0.12,-0 -0.23,-0.01 -0.35,-0.02 0.13,0.01 0.24,0.01 0.35,0.02zm0.92 -2.38c-0.02,0 -0.08,0.04 -0.1,0.05l-0.01 0.07c0.1,-0.02 0.11,-0.06 0.11,-0.12zm0.04 -0.93l-0.01 -0.06c-0.05,0 -0.07,0.04 -0.05,0.08l0.05 0.01 -0.01 -0.04c0.02,0.04 0.01,0.02 0.02,0.01zm-0.24 -1.44c0.01,0.03 0.04,0.05 0.05,0.07 0.08,0.09 0.1,0.2 0.12,0.22 0.04,-0.07 0.01,-0.29 -0.13,-0.37 -0.03,-0.02 -0.12,-0.07 -0.16,-0.07 0.01,0.01 0.06,0.12 0.12,0.15zm0.35 1.53l0.16 0.04c0.02,-0.19 -0.24,-0.22 -0.25,-0.21 -0.02,0.06 0.01,0.1 0.02,0.14 0.01,0 0.05,0.02 0.07,0.03zm-0.22 0.14c-0.03,0.17 -0.03,0.15 -0.04,0.34 -0,0.08 0.01,0.33 -0.01,0.37 0.04,-0.01 0.07,-0.03 0.11,-0.05l-0.01 -0.81c-0,-0.05 0,-0.04 -0.03,-0.03 0.01,0.03 -0.02,0.14 -0.03,0.18zm-0.85 2.66l0 0 0 -0 0 0c0.13,0.01 0.26,0 0.42,-0.03 0.04,-0.01 0.06,-0.02 0.11,-0.03l-0.04 0.02c-0.24,0.06 -0.31,0.06 -0.49,0.06 -0.18,0 -0.25,0.01 -0.49,-0.06l-0.04 -0.02c0.04,0 0.07,0.02 0.11,0.03 0.15,0.03 0.28,0.03 0.42,0.03l0 -0zm0 0.04l0 0 0 0 0 0c0.23,0 0.56,-0.03 0.7,-0.17 0.05,-0.05 0.02,-0.2 0.01,-0.2 0.01,-0.07 -0,-0.28 -0.03,-0.33l-0.05 -0c-0.19,0.02 -0.42,0.04 -0.63,0.04l0 0 -0.01 0 0 0c-0.2,-0 -0.43,-0.02 -0.63,-0.04l-0.05 0c-0.03,0.05 -0.04,0.26 -0.03,0.33 -0,0.01 -0.04,0.16 0.01,0.2 0.14,0.14 0.47,0.17 0.7,0.17l0 -0zm0 -0.69l0 0 0 0 0 0 0 0 0 0c0.05,0 0.09,-0 0.11,-0 0.09,-0 0.18,-0.01 0.27,-0.01 0.08,-0 0.17,-0.02 0.24,-0.02 -0,-0.07 0,-0.17 0.01,-0.24 0,-0.08 0.01,-0.16 0.01,-0.24 0.01,-0.37 0.01,-0.86 0.04,-1.21 0,-0.06 0.03,-0.17 0.03,-0.21 -0.09,-0.07 -0.49,-0.1 -0.63,-0.1 -0.03,-0 -0.06,-0 -0.08,-0l-0 0c-0.03,0 -0.06,0 -0.08,0 -0.14,0 -0.54,0.03 -0.63,0.1 -0,0.05 0.03,0.15 0.03,0.21 0.03,0.36 0.02,0.84 0.04,1.21 0,0.08 0.01,0.16 0.01,0.24 0,0.07 0.01,0.17 0.01,0.24 0.08,0 0.16,0.02 0.24,0.02 0.09,0 0.18,0.01 0.27,0.01 0.02,0 0.06,0 0.11,0zm0 -2.09l0 -0 0 0 0 -0 0 0c0.04,0 0.07,0 0.11,0l0.11 0 0.04 -0 0.05 0c-0.02,0.02 -0.06,0.01 -0.08,0.01 -0.03,0 -0.06,0 -0.09,0 0.12,0 0.33,0.04 0.45,0.06 0.16,0.03 0.12,0.08 0.15,-0.09 -0.02,0.01 -0.01,0.04 -0.03,0.08 -0,0 -0,0.01 -0,0.01 -0,-0 -0,0 -0,0.01 -0,-0.01 -0,-0 -0.01,-0.02l0.02 -0.11c0.01,-0.04 0.02,-0.09 0.03,-0.13 0.01,-0.06 0.07,-0.22 0.01,-0.26 -0.03,-0.04 -0.09,-0.06 -0.15,-0.08 -0.05,-0.03 -0.35,-0.07 -0.41,-0.07 -0.07,-0 -0.14,-0 -0.2,-0l-0 0c-0.07,0 -0.14,0 -0.2,0 -0.07,0 -0.36,0.04 -0.41,0.07 -0.06,0.02 -0.12,0.03 -0.15,0.08 -0.05,0.03 0,0.2 0.01,0.26 0.01,0.04 0.02,0.09 0.03,0.13l0.02 0.11c-0,0.02 -0,0.01 -0.01,0.02 -0,-0 -0,-0.01 -0,-0.01 -0,0 -0,-0 -0,-0.01 -0.02,-0.04 -0.01,-0.07 -0.03,-0.08 0.04,0.17 -0.01,0.12 0.15,0.09 0.12,-0.03 0.34,-0.06 0.45,-0.06 -0.03,-0 -0.06,-0 -0.09,-0 -0.03,-0 -0.06,0 -0.08,-0.01l0.05 -0 0.04 0 0.11 -0c0.04,0 0.07,0 0.11,-0zm0 -0.66l0 0 0 0 0 0 0 0c0.11,0 0.22,0.01 0.29,0.02 0.06,0.01 0.12,0.01 0.19,0.03 0.21,0.05 0.19,0.06 0.34,0.11 -0.01,-0.05 -0.04,-0.05 -0.06,-0.08 -0.02,-0.02 -0,-0.01 -0.03,-0.04 -0.03,-0.02 -0.21,-0.07 -0.24,-0.08 -0.21,-0.04 -0.2,-0.02 -0.35,-0.04 -0.04,-0 -0.08,-0.01 -0.12,-0.01 -0.04,0 -0.08,0 -0.12,0.01 -0.15,0.01 -0.14,-0 -0.35,0.04 -0.04,0.01 -0.21,0.06 -0.24,0.08 -0.03,0.02 -0.01,0.01 -0.03,0.04 -0.03,0.03 -0.06,0.03 -0.06,0.08 0.15,-0.05 0.13,-0.06 0.34,-0.11 0.06,-0.02 0.13,-0.02 0.19,-0.03 0.07,-0.01 0.17,-0.02 0.29,-0.02zm0 -0.09l0 -0 0 0 0 -0 0 0c0.05,0 0.09,0 0.14,0 0.15,0 0.54,0.05 0.65,0.18 0.01,0.02 0.03,0.04 0.05,0.06 0.03,0.12 -0.06,0.45 -0.09,0.59 -0.05,0.23 -0.05,0.39 -0.06,0.63 -0.02,0.45 -0.02,0.9 -0.04,1.34 0.08,0 0.08,0.05 0.08,0.15 0,0.08 0.01,0.15 0.01,0.23 0.01,0.17 0.03,0.22 -0.19,0.3 -0.17,0.06 -0.38,0.08 -0.56,0.07 -0.17,0 -0.38,-0.01 -0.56,-0.07 -0.22,-0.08 -0.19,-0.13 -0.19,-0.3 0,-0.08 0.01,-0.15 0.01,-0.23 0.01,-0.1 0.01,-0.15 0.08,-0.15 -0.03,-0.44 -0.03,-0.89 -0.04,-1.34 -0.01,-0.24 -0.01,-0.4 -0.06,-0.63 -0.03,-0.14 -0.13,-0.46 -0.09,-0.59 0.02,-0.02 0.04,-0.04 0.05,-0.06 0.11,-0.13 0.5,-0.18 0.65,-0.18 0.05,-0 0.1,-0 0.14,-0zm0 0.05c0.23,-0 0.36,0.02 0.57,0.09 0.05,0.01 0.14,0.04 0.17,0.06 -0.05,-0.01 -0.13,-0.04 -0.17,-0.05 -0.04,-0.01 -0.11,-0.03 -0.17,-0.04 -0.08,-0.01 -0.24,-0.03 -0.41,-0.03 -0.17,0 -0.33,0.01 -0.41,0.03 -0.05,0.01 -0.12,0.03 -0.17,0.04 -0.04,0.01 -0.12,0.04 -0.17,0.05 0.04,-0.02 0.13,-0.05 0.17,-0.06 0.21,-0.06 0.35,-0.09 0.57,-0.09zm0.89 2.55c0.01,-0.08 0.01,-0.11 -0.06,-0.14 -0,0 -0,0 -0,0l-0.03 0.03c0,0 0,0 0,0 0,0.01 0,0 0.01,0.01 0.02,0.03 -0.04,0.01 0.05,0.07 0.02,0.02 0.01,0.02 0.04,0.02zm0.02 -0.92c-0.03,0 -0.08,0.04 -0.11,0.05l-0 0.63c0,0.05 -0,0.05 0.03,0.08 0.02,0.02 0.04,0.03 0.06,0.05 0.01,-0.05 -0,-0.14 0,-0.2l0.02 -0.61zm-1.69 2c0.04,0.06 0.32,0.15 0.33,0.16 -0.11,0.02 -0.26,-0.01 -0.35,-0.07 -0.03,-0.01 -0.05,-0.03 -0.06,-0.05 -0.05,-0.07 -0.07,-0.11 -0.07,-0.2 -0,-0.05 0.01,-0.05 0.02,-0.05 0.01,0.07 0.02,0.08 0.06,0.12 0.03,0.04 0.04,0.06 0.09,0.09zm-0.14 -2.14c0.02,0 0.08,0.04 0.1,0.05l0.01 0.07c-0.1,-0.02 -0.11,-0.06 -0.11,-0.12zm-0.04 -0.93l0.01 -0.06c0.05,0 0.07,0.04 0.05,0.08l-0.05 0.01 0.01 -0.04c-0.02,0.04 -0.01,0.02 -0.02,0.01zm0.24 -1.44c-0.01,0.03 -0.04,0.05 -0.05,0.07 -0.08,0.09 -0.1,0.2 -0.12,0.22 -0.04,-0.07 -0.01,-0.29 0.13,-0.37 0.03,-0.02 0.12,-0.07 0.16,-0.07 -0.01,0.01 -0.06,0.12 -0.12,0.15zm-0.35 1.53l-0.16 0.04c-0.02,-0.19 0.24,-0.22 0.25,-0.21 0.02,0.06 -0.01,0.1 -0.02,0.14 -0.01,0 -0.05,0.02 -0.07,0.03zm0.22 0.14c0.03,0.17 0.03,0.15 0.04,0.34 0,0.08 -0.01,0.33 0.01,0.37 -0.04,-0.01 -0.07,-0.03 -0.11,-0.05l0.01 -0.81c0,-0.05 -0,-0.04 0.03,-0.03 -0.01,0.03 0.02,0.14 0.03,0.18zm-0.04 1.76c-0.01,-0.08 -0.01,-0.11 0.06,-0.14 0,0 0,0 0,0l0.03 0.03c-0,0 -0,0 -0,0 -0,0.01 -0,0 -0.01,0.01 -0.02,0.03 0.04,0.01 -0.05,0.07 -0.02,0.02 -0.01,0.02 -0.04,0.02zm-0.02 -0.92c0.03,0 0.08,0.04 0.11,0.05l0 0.63c-0,0.05 0,0.05 -0.03,0.08 -0.02,0.02 -0.04,0.03 -0.06,0.05 -0.01,-0.05 0,-0.14 -0,-0.2l-0.02 -0.61z"/>
   <path class="fil4" d="M2 1.69c0.01,-0.06 0.07,-0.22 0.01,-0.26 -0.03,-0.04 -0.09,-0.06 -0.15,-0.08 -0.05,-0.03 -0.35,-0.07 -0.41,-0.07 -0.07,-0 -0.14,-0 -0.2,-0l-0 0c-0.07,0 -0.14,0 -0.2,0 -0.07,0 -0.36,0.04 -0.41,0.07 -0.06,0.02 -0.12,0.03 -0.15,0.08 -0.05,0.03 0,0.2 0.01,0.26 0.01,0.04 0.02,0.09 0.03,0.13l0.02 0.11c-0,0.02 -0,0.01 -0.01,0.02 -0,-0 -0,-0.01 -0,-0.01 -0,0 -0,-0 -0,-0.01 -0.02,-0.04 -0.01,-0.07 -0.03,-0.08 0.04,0.17 -0.01,0.12 0.15,0.09 0.12,-0.03 0.34,-0.06 0.45,-0.06 -0.03,-0 -0.06,-0 -0.09,-0 -0.03,-0 -0.06,0 -0.08,-0.01l0.05 -0 0.04 0 0.11 -0c0.04,0 0.07,0 0.11,-0l0 -0 0 0 0 -0 0 0c0.04,0 0.07,0 0.11,0l0.11 0 0.04 -0 0.05 0c-0.02,0.02 -0.06,0.01 -0.08,0.01 -0.03,0 -0.06,0 -0.09,0 0.12,0 0.33,0.04 0.45,0.06 0.16,0.03 0.12,0.08 0.15,-0.09 -0.02,0.01 -0.01,0.04 -0.03,0.08 -0,0 -0,0.01 -0,0.01 -0,-0 -0,0 -0,0.01 -0,-0.01 -0,-0 -0.01,-0.02l0.02 -0.11c0.01,-0.04 0.02,-0.09 0.03,-0.13zm-0.75 2.28c-0.2,-0 -0.43,-0.02 -0.63,-0.04l-0.05 0c-0.03,0.05 -0.04,0.26 -0.03,0.33 -0,0.01 -0.04,0.16 0.01,0.2 0.14,0.14 0.47,0.17 0.7,0.17l0 -0 0 0 0 0 0 0c0.23,0 0.56,-0.03 0.7,-0.17 0.05,-0.05 0.02,-0.2 0.01,-0.2 0.01,-0.07 -0,-0.28 -0.03,-0.33l-0.05 -0c-0.19,0.02 -0.42,0.04 -0.63,0.04l-0.01 0z"/>
   <path class="fil5" d="M0.46 3.67c-0.05,0.01 -0.06,0.03 -0.09,0.05 0,0.05 0,0.11 0.01,0.16 0,0.03 0.03,0.12 0.02,0.13 0.03,-0.07 0.04,-0.26 0.06,-0.35zm1.62 -0.13c0.02,0.02 0.04,0.03 0.06,0.05 0.01,-0.05 -0,-0.14 0,-0.2l0.02 -0.61c-0.03,0 -0.08,0.04 -0.11,0.05l-0 0.63c0,0.05 -0,0.05 0.03,0.08zm-0.04 0.13c0.01,0.09 0.03,0.28 0.06,0.35 -0,-0.01 0.02,-0.1 0.02,-0.13 0.01,-0.05 0.01,-0.11 0.01,-0.16 -0.03,-0.02 -0.04,-0.04 -0.09,-0.05zm0 -1c0.04,-0.01 0.07,-0.03 0.11,-0.05l-0.01 -0.81c-0,-0.05 0,-0.04 -0.03,-0.03 0.01,0.03 -0.02,0.14 -0.03,0.18 -0.03,0.17 -0.03,0.15 -0.04,0.34 -0,0.08 0.01,0.33 -0.01,0.37zm-1.59 0c-0.02,-0.04 -0.01,-0.3 -0.01,-0.37 -0.01,-0.19 -0.01,-0.17 -0.04,-0.34 -0.01,-0.05 -0.03,-0.15 -0.03,-0.18 -0.03,-0 -0.02,-0.01 -0.03,0.03l-0.01 0.81c0.04,0.02 0.07,0.04 0.11,0.05zm-0 0.17c-0.03,-0.02 -0.08,-0.05 -0.11,-0.05l0.02 0.61c0,0.06 -0.01,0.15 0,0.2 0.03,-0.01 0.04,-0.03 0.06,-0.05 0.03,-0.03 0.03,-0.03 0.03,-0.08l-0 -0.63z"/>
   <path class="fil6" d="M1.25 4.61l0 0 0 -0 0 0c0.13,0.01 0.26,0 0.42,-0.03 0.04,-0.01 0.06,-0.02 0.11,-0.03l-0.04 0.02c-0.24,0.06 -0.31,0.06 -0.49,0.06 -0.18,0 -0.25,0.01 -0.49,-0.06l-0.04 -0.02c0.04,0 0.07,0.02 0.11,0.03 0.15,0.03 0.28,0.03 0.42,0.03l0 -0z"/>
  </g>
 </g>
</svg>
