<?xml version="1.0" encoding="UTF-8"?>
<!DOCTYPE svg PUBLIC "-//W3C//DTD SVG 1.1//EN" "http://www.w3.org/Graphics/SVG/1.1/DTD/svg11.dtd">
<!-- Creator: CorelDRAW -->
<svg xmlns="http://www.w3.org/2000/svg" xml:space="preserve" width="2.1246mm" height="4mm" version="1.1" style="shape-rendering:geometricPrecision; text-rendering:geometricPrecision; image-rendering:optimizeQuality; fill-rule:evenodd; clip-rule:evenodd"
viewBox="0 0 2.47 4.66"
 xmlns:xlink="http://www.w3.org/1999/xlink"
 xmlns:xodm="http://www.corel.com/coreldraw/odm/2003">
 <defs>
  <style type="text/css">
   <![CDATA[
    .fil4 {fill:#373435}
    .fil0 {fill:#CC0000}
    .fil1 {fill:red}
    .fil5 {fill:white}
    .fil3 {fill:url(#id0)}
    .fil2 {fill:url(#id1)}
   ]]>
  </style>
  <linearGradient id="id0" gradientUnits="userSpaceOnUse" x1="0.77" y1="1.89" x2="1.67" y2="1.89">
   <stop offset="0" style="stop-opacity:1; stop-color:black"/>
   <stop offset="0.392157" style="stop-opacity:1; stop-color:#303030"/>
   <stop offset="0.568627" style="stop-opacity:1; stop-color:#616161"/>
   <stop offset="0.682353" style="stop-opacity:1; stop-color:#999999"/>
   <stop offset="0.870588" style="stop-opacity:1; stop-color:#D1D1D1"/>
   <stop offset="0.929412" style="stop-opacity:1; stop-color:dimgray"/>
   <stop offset="1" style="stop-opacity:1; stop-color:black"/>
  </linearGradient>
  <linearGradient id="id1" gradientUnits="userSpaceOnUse" x1="0.7" y1="1.91" x2="0.68" y2="3.47">
   <stop offset="0" style="stop-opacity:1; stop-color:black"/>
   <stop offset="0.309804" style="stop-opacity:1; stop-color:#2F2F2F"/>
   <stop offset="0.368627" style="stop-opacity:1; stop-color:#5E5E5E"/>
   <stop offset="0.431373" style="stop-opacity:1; stop-color:#2F2F2F"/>
   <stop offset="0.678431" style="stop-opacity:1; stop-color:black"/>
   <stop offset="0.898039" style="stop-opacity:1; stop-color:#1D1D1D"/>
   <stop offset="1" style="stop-opacity:1; stop-color:#3B3B3B"/>
  </linearGradient>
 </defs>
 <g id="Camada_x0020_1">
  <metadata id="CorelCorpID_0Corel-Layer"/>
  <path class="fil0" d="M2.32 0.85c0,0.11 0,0.19 -0.01,0.3 -0.03,0.19 -0.02,0.14 -0.02,0.34 0,0.03 0.03,0.01 0.12,0.07 0.06,0.04 0.1,0.1 0.06,0.17 -0.09,0.02 -0.09,-0.02 -0.18,-0.03 0,0.06 -0.01,0.56 0.01,0.6 0.04,-0.01 0.03,0.27 0,0.28 0,0.06 0,0.17 0,0.23 -0,0.04 -0.01,0.04 -0.01,0.08l0 0.3c0,0.08 0.02,0.15 0.02,0.23 -0,0.08 0.02,0.14 0.02,0.22 0,0.33 0.01,0.78 -0.29,0.93 -0.02,0.01 -0.02,0.01 -0.04,0.01 -0.08,0.02 -0.01,0.02 -0.19,0.04 -0.03,0 -0.07,0.01 -0.1,0.02 -0.11,0.01 -0.29,0.02 -0.47,0.02l-0 0 -0 0c-0.17,-0 -0.36,-0.01 -0.47,-0.02 -0.03,-0 -0.06,-0.01 -0.1,-0.02 -0.18,-0.02 -0.1,-0.02 -0.19,-0.04 -0.02,-0 -0.01,0 -0.04,-0.01 -0.31,-0.15 -0.29,-0.6 -0.29,-0.93 0,-0.08 0.02,-0.14 0.02,-0.22 -0,-0.08 0.02,-0.14 0.02,-0.23l0 -0.3c-0,-0.04 -0.01,-0.04 -0.01,-0.08 -0,-0.06 0,-0.17 0,-0.23 -0.03,-0.01 -0.04,-0.29 0,-0.28 0.01,-0.04 0.01,-0.55 0.01,-0.6 -0.09,0.02 -0.09,0.05 -0.18,0.03 -0.04,-0.07 0,-0.13 0.06,-0.17 0.09,-0.06 0.12,-0.04 0.12,-0.07 0,-0.21 0,-0.16 -0.02,-0.34 -0.02,-0.11 -0.01,-0.19 -0.01,-0.3 0,-0.13 0.02,-0.29 0.06,-0.38 0.04,-0.1 0.1,-0.19 0.18,-0.27 0.04,-0.04 0.09,-0.06 0.14,-0.09 0.16,-0.08 0.44,-0.11 0.7,-0.11 0.26,-0 0.54,0.03 0.7,0.11 0.06,0.03 0.1,0.05 0.14,0.09 0.08,0.08 0.14,0.17 0.18,0.27 0.04,0.1 0.06,0.25 0.06,0.38z"/>
  <g id="_1763367322288">
   <path class="fil1" d="M0.45 4.16c-0.02,-0.01 -0.02,-0.02 -0.03,-0.04 -0.03,-0.08 -0.05,-0.07 -0.1,-0.12 -0.01,-0.02 -0.04,-0.07 -0.05,-0.09 -0.01,0.06 0,0.13 0.02,0.18 0.02,0.06 0.03,0.06 0.06,0.1 0.04,0.04 0.06,0.03 0.11,0.05 0.03,0.01 0.06,0.02 0.08,0.03 0.05,0.01 0.13,0.03 0.19,0.03 0,-0 0,-0 0.01,-0 0.01,-0 0.01,-0.01 0.02,-0.01 0,-0 0,-0.01 -0,-0.01 -0,-0 -0.01,-0.01 -0.04,-0.01 -0.03,-0.01 -0.07,-0.02 -0.12,-0.03 -0.04,-0.01 -0.08,-0.03 -0.11,-0.04 -0.02,-0.01 -0.04,-0.02 -0.04,-0.02 -0,-0 -0,-0 -0.01,-0.01z"/>
   <path class="fil1" d="M1.97 4.18c-0.02,0.01 -0.06,0.03 -0.11,0.04 -0.04,0.01 -0.09,0.02 -0.12,0.03 -0.03,0.01 -0.04,0.01 -0.04,0.01 -0,0 -0.01,0.01 -0,0.01 0,0 0.01,0.01 0.02,0.01 0,0 0,0 0.01,0 0.06,-0 0.14,-0.02 0.19,-0.03 0.02,-0.01 0.06,-0.01 0.08,-0.03 0.06,-0.03 0.08,-0.01 0.11,-0.05 0.03,-0.04 0.05,-0.04 0.06,-0.1 0.02,-0.05 0.03,-0.12 0.02,-0.18 -0.01,0.01 -0.04,0.07 -0.05,0.09 -0.05,0.06 -0.07,0.05 -0.1,0.12 -0.01,0.02 -0.02,0.03 -0.03,0.04 -0,0 -0,0 -0.01,0.01 -0.01,0 -0.02,0.01 -0.04,0.02z"/>
   <path class="fil2" d="M2.02 2.58c-0,0.04 -0.01,0.53 0,0.55 0,0 0.08,0.08 0.1,0.09l0.01 -0.69c-0.02,0.01 -0.1,0.04 -0.12,0.05zm0.08 0.88c0.01,-0.09 0.02,-0.14 -0.08,-0.14 -0,0.08 0,0.26 0.05,0.32 0.02,-0.06 0.02,-0.12 0.03,-0.18zm-1.7 0.18c0.04,-0.05 0.05,-0.24 0.05,-0.32 -0.09,-0 -0.09,0.05 -0.08,0.14 0.01,0.06 0.01,0.13 0.03,0.18zm0.06 -1.06c-0.01,-0.01 -0.09,-0.05 -0.12,-0.05l0.01 0.69c0.02,-0.01 0.1,-0.09 0.1,-0.09 0.01,-0.02 0,-0.52 0,-0.55zm1.61 -0.68c-0.03,0.16 -0.02,0.35 -0.04,0.52 0.02,-0.01 0.03,-0.01 0.06,-0.02 0.03,-0.01 0.03,-0.02 0.06,-0.03l-0.01 -0.67c0,-0.02 0.01,-0.04 0.01,-0.05 -0,-0.01 -0.01,-0.01 -0.01,-0.01 -0.01,0 -0.01,0.01 -0.02,0.03 -0.01,0.02 -0.01,0.06 -0.02,0.09 -0,0.01 -0,0.01 -0.01,0.02 -0.01,0.04 -0.02,0.08 -0.03,0.12zm-1.67 0.5c0.03,0.01 0.03,0.01 0.06,0.02 -0.02,-0.17 -0.01,-0.36 -0.04,-0.52 -0.01,-0.05 -0.02,-0.1 -0.03,-0.14 -0.01,-0.03 -0.01,-0.06 -0.02,-0.08 -0.01,-0.02 -0.01,-0.03 -0.02,-0.03 -0.01,-0 -0.01,0 -0.01,0.01 -0,0.01 -0,0.01 -0,0.02 0,0.01 0,0.01 0,0.02l-0.01 0.67c0.03,0.01 0.03,0.01 0.06,0.03z"/>
   <path class="fil3" d="M0.44 1.34c-0,0.12 0.09,0.38 0.1,0.48 0.08,-0.01 0.16,-0.04 0.24,-0.05 0.08,-0.01 0.17,-0.02 0.25,-0.03l-0.03 -0.01c-0.01,-0 -0.03,-0 -0.04,-0 0.03,-0.01 0.04,0 0.05,-0.01l0.02 0 0.02 0 0.09 -0c0.03,-0 0.06,-0 0.09,-0l0 0 0 0 0 0 0 0c0.03,0 0.06,0 0.09,0l0.09 0 0.02 -0 0.02 -0c0.01,0.02 0.02,0.01 0.05,0.01 -0.01,0 -0.03,-0 -0.04,0l-0.03 0.01c0.08,0.01 0.17,0.02 0.25,0.03 0.08,0.01 0.17,0.04 0.24,0.05 0,-0.09 0.1,-0.36 0.1,-0.48 -0.09,-0.05 -0.14,-0.08 -0.27,-0.11 -0.06,-0.02 -0.24,-0.04 -0.31,-0.04 -0.03,-0 -0.12,0 -0.21,0l-0 0 -0 0c-0.09,-0 -0.18,-0 -0.21,-0 -0.07,0 -0.25,0.02 -0.31,0.04 -0.13,0.03 -0.18,0.05 -0.27,0.11zm0.7 2.55c-0.17,-0 -0.32,-0.02 -0.49,-0.05 -0.03,-0.01 -0.03,-0.02 -0.05,-0.01 -0.07,0.04 -0.08,0.18 -0.08,0.26 0,0.03 -0,0.01 0.01,0.04 0.05,0.03 0.18,0.07 0.26,0.09 0.11,0.03 0.28,0.04 0.44,0.04l0 0 0 0c0.16,0 0.33,-0.01 0.44,-0.04 0.07,-0.02 0.21,-0.05 0.26,-0.09 0.02,-0.03 0.01,-0.01 0.01,-0.04 0,-0.07 -0,-0.21 -0.08,-0.26 -0.02,-0 -0.02,0.01 -0.05,0.01 -0.16,0.03 -0.31,0.05 -0.49,0.05l-0.09 -0 -0.09 0zm0.06 0.27c0.01,-0 0.02,0 0.03,0 0.01,-0 0.02,-0 0.03,-0 0.05,0.05 0.09,0.04 0.21,0.03 0.09,-0 0.15,-0.02 0.24,-0.02 -0.01,0 -0,0 -0.02,0.01 -0.04,0.01 -0.36,0.04 -0.4,0.03 -0.03,-0.01 -0.05,-0.03 -0.07,-0.03 -0.03,0 -0.05,0.02 -0.07,0.03 -0.04,0.01 -0.36,-0.02 -0.4,-0.03 -0.01,-0 -0.01,-0 -0.02,-0.01 0.09,-0 0.15,0.01 0.24,0.02 0.12,0.01 0.16,0.02 0.21,-0.03zm0.03 0.05l0 -0 0 0 0 -0 0 0 -0 -0 -0 0z"/>
   <path class="fil4" d="M1.24 4.63l-0 0 -0 0 0 0c-0.22,0 -0.45,-0.01 -0.6,-0.04l-0.13 -0.04c-0.02,-0.01 -0.02,0 -0.02,0.01 -0.04,-0.02 -0.11,-0.05 -0.13,-0.1 0.03,0.01 0.16,0.09 0.27,0.1 0.01,0 0.01,0 0.02,0 -0,0 0.01,0.01 -0.02,0 -0,-0 -0,-0 -0.01,-0 -0.01,-0.01 -0.01,-0 -0.02,-0.02 0.06,0.01 0.13,0.03 0.2,0.03 0.11,0.01 0.28,0.02 0.44,0.02l0 0 0 0 0 0 0 0c0.15,-0 0.32,-0.01 0.44,-0.02 0.07,-0.01 0.13,-0.03 0.2,-0.03 -0.01,0.02 -0,0.01 -0.02,0.02 -0,0 -0,0 -0.01,0 -0.02,0.01 -0.01,0 -0.02,-0 0.01,-0 0.01,-0 0.02,-0 0.1,-0.01 0.23,-0.09 0.27,-0.1 -0.02,0.05 -0.09,0.08 -0.13,0.1 -0.01,-0.01 -0,-0.02 -0.02,-0.01l-0.13 0.04c-0.15,0.03 -0.38,0.05 -0.6,0.04l0 0zm-0.9 -2.95c-0,-0.01 -0,-0.02 0,-0.02 0,-0.01 0.01,-0.01 0.01,-0.01 0.01,0 0.01,0.01 0.02,0.03 0.01,0.02 0.01,0.05 0.02,0.08 0,0.05 0.02,0.1 0.03,0.14 0.03,0.16 0.02,0.35 0.04,0.52 -0.02,-0.01 -0.03,-0.01 -0.06,-0.02 -0.03,-0.01 -0.03,-0.02 -0.06,-0.03l0.01 -0.67c-0,-0.01 -0,-0.02 -0,-0.02zm0 -0.12c0,0 0,0.01 0.01,0.01 0,0.01 0,0.02 0,0.03 -0,0.01 -0,0.01 -0.01,0.02l-0.01 -0.01c-0,-0 -0.01,-0 -0.01,-0.01 -0.01,-0.01 -0.03,-0.01 -0.03,-0.02 -0,-0 -0,-0 -0,-0 -0,-0.01 0,-0.02 0,-0.03 -0,-0.02 -0.01,-0.02 -0.01,-0.03 -0,-0 -0,-0 -0,-0.01 0,0.01 0.01,0.03 0,0.04l-0.01 0.03c-0.01,0.06 -0.03,0.07 -0.08,0.09 -0.04,0.01 -0.1,0.04 -0.14,0.03 -0.02,-0.06 0.03,-0.11 0.06,-0.13 0.02,-0.01 0.11,-0.06 0.15,-0.06l0.07 0.01c0.01,0.01 0.02,0.02 0.03,0.03zm1.8 0.1c-0,-0.01 -0.01,-0.01 -0.01,-0.01 -0.01,0 -0.01,0.01 -0.02,0.03 -0.01,0.02 -0.01,0.06 -0.02,0.09 -0,0.01 -0,0.01 -0.01,0.02 -0.01,0.04 -0.02,0.08 -0.03,0.12 -0.03,0.16 -0.02,0.35 -0.04,0.52 0.02,-0.01 0.03,-0.01 0.06,-0.02 0.03,-0.01 0.03,-0.02 0.06,-0.03l-0.01 -0.67c0,-0.02 0.01,-0.04 0.01,-0.05zm-0 -0.1c0,0 0,0 0,0 0,0 -0,0.01 -0.01,0.02 -0,0.01 -0,0.02 -0,0.03 0,0.01 0,0.01 0.01,0.02l0.01 -0c0,-0 0.01,-0 0.01,-0.01 0.01,-0.01 0.03,-0.01 0.03,-0.02 0,-0 0,-0 0,-0 0,-0.01 -0,-0.02 -0,-0.03 0,-0.02 0.01,-0.02 0.01,-0.03 0,-0 0,-0 0,-0.01 -0,0.01 -0.01,0.03 -0,0.04l0.01 0.03c0.01,0.06 0.03,0.07 0.08,0.09 0.04,0.01 0.1,0.04 0.14,0.03 0.02,-0.06 -0.03,-0.11 -0.06,-0.13 -0.02,-0.01 -0.11,-0.06 -0.15,-0.06l-0.07 0.01c-0.01,0.01 -0.02,0.02 -0.03,0.03zm0.03 0.09c-0,0 -0,0 -0,0 -0,0.04 -0,0.09 0.01,0.11 -0.01,0.05 -0,0.2 -0,0.26 0.01,0.4 0.01,1.19 -0.06,1.57 -0.01,0.04 -0.01,0.07 -0.05,0.08l-0.04 -0.09c0,-0.04 -0.02,-0.09 -0.02,-0.13 -0.02,-0.1 -0.02,-0.35 -0.01,-0.46 0.01,-0.59 -0.03,-0.87 0.12,-1.45 0.03,-0.12 0.08,-0.19 -0.01,-0.22 -0.02,0.08 -0.04,0.17 -0.06,0.26 -0.11,0.44 -0.1,0.29 -0.13,0.8 -0.02,0.39 -0.02,0.79 -0.05,1.17 0.04,0.01 0.05,0 0.07,0.03 -0.09,-0.04 -0.19,-0.04 -0.3,-0.04 -0.12,-0 -0.25,-0 -0.39,-0 -0.14,0 -0.28,0 -0.39,0 -0.11,0 -0.21,-0 -0.3,0.04 0.02,-0.03 0.03,-0.02 0.07,-0.03 -0.03,-0.39 -0.02,-0.78 -0.05,-1.17 -0.03,-0.51 -0.02,-0.36 -0.13,-0.8 -0.02,-0.08 -0.03,-0.17 -0.06,-0.26 -0.09,0.03 -0.04,0.1 -0.01,0.22 0.15,0.58 0.11,0.85 0.12,1.45 0,0.1 0.01,0.36 -0.01,0.46 -0.01,0.04 -0.03,0.09 -0.02,0.13l-0.04 0.09c-0.03,-0.01 -0.04,-0.04 -0.05,-0.08 -0.07,-0.38 -0.07,-1.16 -0.06,-1.57 0,-0.06 0.01,-0.21 -0,-0.26 0.01,-0.02 0.01,-0.07 0.01,-0.11 -0,-0 -0,-0.01 -0,-0.01 -0,-0.01 -0.01,-0.01 -0.01,-0 -0,0 -0,0 -0,0l-0.03 0.03c-0.01,0.01 -0.02,0.02 -0.04,0.03l-0 0.06c0,0.09 -0,0.19 -0,0.28 0,0.37 -0,0.74 0,1.12 0,0.03 0,0.08 0,0.1 -0,0.04 -0.01,0.06 -0.01,0.1 -0.01,0.14 0.03,0.11 0.04,0.17l0.04 0.02 -0.03 0 -0.05 -0.09c-0,-0 -0,-0 -0,-0l-0.01 0.06c-0.03,0.2 -0.04,0.8 0.17,0.92 0.18,0.1 0.54,0.14 0.87,0.14 0.33,0 0.69,-0.04 0.87,-0.14 0.21,-0.12 0.2,-0.72 0.17,-0.92l-0.01 -0.06c-0,0 -0,0 -0,0l-0.05 0.09 -0.03 -0 0.04 -0.02c0.01,-0.06 0.04,-0.03 0.04,-0.17 -0,-0.04 -0.01,-0.06 -0.01,-0.1 -0,-0.03 0,-0.07 0,-0.1 0.01,-0.38 0,-0.74 0,-1.12 0,-0.09 -0,-0.19 -0,-0.28l-0 -0.06c-0.02,-0.01 -0.03,-0.02 -0.04,-0.03l-0.03 -0.03c-0,-0 -0,-0 -0,-0 -0.01,-0 -0.01,-0 -0.01,0 -0,0 -0,0 -0,0.01zm-0.93 1.88c-0.21,-0 -0.41,0.01 -0.62,0.01l-0 -0.12c-0.02,-0.26 -0.02,-0.54 -0.03,-0.8 -0,-0.14 -0.01,-0.27 -0.01,-0.41 -0.01,-0.24 -0.03,-0.22 -0.05,-0.38 0.2,-0.06 0.46,-0.09 0.71,-0.09 0.25,0 0.51,0.03 0.71,0.09 -0.02,0.16 -0.04,0.14 -0.05,0.38 -0,0.13 -0.01,0.27 -0.01,0.41 -0,0.26 -0.01,0.54 -0.03,0.8l-0 0.12c-0.21,-0.01 -0.41,-0.02 -0.62,-0.01zm0 -1.82l0 0 -0 0 -0 0 0 0c-0.03,0 -0.06,0 -0.09,0l-0.09 0 -0.02 -0 -0.02 -0c-0.01,0.02 -0.02,0.01 -0.05,0.01 0.01,0 0.03,-0 0.04,0l0.03 0.01c-0.08,0.01 -0.17,0.02 -0.25,0.03 -0.08,0.01 -0.17,0.04 -0.24,0.05 -0,-0.09 -0.1,-0.36 -0.1,-0.48 0.09,-0.05 0.14,-0.08 0.27,-0.11 0.06,-0.02 0.24,-0.04 0.31,-0.04 0.03,-0 0.12,0 0.21,0l0 0 0 0 0 0 0 0c0.09,-0 0.18,-0 0.21,-0 0.07,0 0.25,0.02 0.31,0.04 0.13,0.03 0.18,0.05 0.27,0.11 0,0.12 -0.09,0.38 -0.1,0.48 -0.08,-0.01 -0.16,-0.04 -0.24,-0.05 -0.08,-0.01 -0.17,-0.02 -0.25,-0.03l0.03 -0.01c0.01,-0 0.03,-0 0.04,-0 -0.03,-0.01 -0.04,0 -0.05,-0.01l-0.02 0 -0.02 0 -0.09 -0c-0.03,-0 -0.06,-0 -0.09,-0zm-0 -0.57c-0.06,-0 -0.13,-0 -0.2,-0 -0.12,-0 -0.2,0.02 -0.3,0.03 0.02,-0.02 0.03,-0.02 0.07,-0.03 0.14,-0.02 0.28,-0.03 0.42,-0.03l0 0 0 0 0 0 0 0c0.14,-0 0.29,0.01 0.42,0.03 0.04,0.01 0.05,0 0.07,0.03 -0.1,-0 -0.18,-0.03 -0.3,-0.03 -0.07,0 -0.14,0 -0.2,0zm0 -0.06c-0.03,-0 -0.06,0 -0.08,0 -0.13,0.01 -0.28,0.01 -0.41,0.05l-0.26 0.09c-0.06,0.02 -0.01,0 -0.06,0.03 -0.02,0.01 0.03,-0.01 -0.02,0.01 0.01,-0.05 0.03,-0.06 0.06,-0.08 0.17,-0.1 0.34,-0.11 0.53,-0.13 0.11,-0.01 0.16,-0.01 0.22,-0.01l0 0 0 0 0 0 0 0c0.06,-0 0.12,0 0.22,0.01 0.19,0.02 0.36,0.03 0.53,0.13 0.04,0.02 0.06,0.03 0.06,0.08 -0.06,-0.02 0,0 -0.02,-0.01 -0.04,-0.03 -0,-0.01 -0.06,-0.03l-0.26 -0.09c-0.12,-0.04 -0.28,-0.05 -0.41,-0.05 -0.02,-0 -0.05,-0 -0.08,-0zm0 -0.05l0 0 -0 0 -0 0 0 0c-0.29,0 -0.62,0.04 -0.78,0.16 -0.04,0.03 -0.06,0.06 -0.08,0.13l-0.06 0.02c0,0.02 0.01,0.02 -0.01,0.01 -0.01,0.06 -0.01,0.1 -0.01,0.16 -0.03,-0.02 -0.05,-0.01 -0.09,-0.02l0.01 -0.19c-0,-0.04 0,-0.02 -0.01,-0.05 -0.01,-0.02 -0.01,-0.03 -0.01,-0.05 -0.01,-0.19 -0.03,-0.28 -0.01,-0.49 0.01,-0.12 0.07,-0.33 0.13,-0.39 -0.01,0.08 -0.05,0.14 0,0.22 0.02,0.03 0.02,0.01 0.01,0.06 -0.01,0.16 -0.05,0.58 0.05,0.65 -0.02,-0.05 -0.04,-0.06 -0.05,-0.13 -0.01,-0.05 -0.01,-0.11 -0.01,-0.16 -0,-0.12 -0.01,-0.36 0.05,-0.46 0.08,-0.14 0.15,-0.19 0.22,-0.3 0.04,-0.06 0.04,-0.07 0.09,-0.09 0.13,-0.04 0.34,-0.05 0.54,-0.05l0 0 0 0 0 0 0 0c0.2,-0 0.41,0.01 0.54,0.05 0.05,0.02 0.06,0.03 0.09,0.09 0.07,0.11 0.14,0.16 0.22,0.3 0.06,0.1 0.05,0.34 0.05,0.46 -0,0.05 -0,0.11 -0.01,0.16 -0.01,0.07 -0.03,0.08 -0.05,0.13 0.1,-0.07 0.06,-0.49 0.05,-0.65 -0,-0.04 -0,-0.03 0.01,-0.06 0.05,-0.08 0.01,-0.15 0,-0.22 0.07,0.06 0.12,0.28 0.13,0.39 0.02,0.21 -0,0.3 -0.01,0.49 -0,0.02 -0,0.03 -0.01,0.05 -0.01,0.03 -0.01,0.01 -0.01,0.05l0.01 0.19c-0.05,0 -0.06,-0.01 -0.09,0.02 -0,-0.06 0,-0.1 -0.01,-0.16 -0.02,0.01 -0.01,0.01 -0.01,-0.01l-0.06 -0.02c-0.02,-0.07 -0.03,-0.1 -0.08,-0.13 -0.16,-0.11 -0.49,-0.15 -0.78,-0.16zm-0 -1.04c-0.26,-0 -0.54,0.03 -0.7,0.11 -0.06,0.03 -0.1,0.05 -0.14,0.09 -0.08,0.08 -0.14,0.17 -0.18,0.27 -0.04,0.1 -0.06,0.25 -0.06,0.38 0,0.11 -0,0.19 0.01,0.3 0.03,0.19 0.02,0.14 0.02,0.34 0,0.03 -0.03,0.01 -0.12,0.07 -0.06,0.04 -0.1,0.1 -0.06,0.17 0.09,0.02 0.09,-0.02 0.18,-0.03 0,0.06 0.01,0.56 -0.01,0.6 -0.04,-0.01 -0.03,0.27 -0,0.28 0,0.06 -0,0.17 -0,0.23 0,0.04 0.01,0.04 0.01,0.08l-0 0.3c0,0.08 -0.02,0.15 -0.02,0.23 0,0.08 -0.02,0.14 -0.02,0.22 0,0.33 -0.01,0.78 0.29,0.93 0.02,0.01 0.02,0.01 0.04,0.01 0.08,0.02 0.01,0.02 0.19,0.04 0.03,0 0.07,0.01 0.1,0.02 0.11,0.01 0.29,0.02 0.47,0.02l0 0 0 0 0 0 0 0c0.17,-0 0.36,-0.01 0.47,-0.02 0.03,-0 0.06,-0.01 0.1,-0.02 0.18,-0.02 0.1,-0.02 0.19,-0.04 0.02,-0 0.01,0 0.04,-0.01 0.31,-0.15 0.29,-0.6 0.29,-0.93 0,-0.08 -0.02,-0.14 -0.02,-0.22 0,-0.08 -0.02,-0.14 -0.02,-0.23l-0 -0.3c0,-0.04 0.01,-0.04 0.01,-0.08 0,-0.06 -0,-0.17 -0,-0.23 0.03,-0.01 0.04,-0.29 -0,-0.28 -0.01,-0.04 -0.01,-0.55 -0.01,-0.6 0.09,0.02 0.09,0.05 0.18,0.03 0.04,-0.07 -0,-0.13 -0.06,-0.17 -0.09,-0.06 -0.12,-0.04 -0.12,-0.07 0,-0.21 -0,-0.16 0.02,-0.34 0.02,-0.11 0.01,-0.19 0.01,-0.3 0,-0.13 -0.02,-0.29 -0.06,-0.38 -0.04,-0.1 -0.1,-0.19 -0.18,-0.27 -0.04,-0.04 -0.09,-0.06 -0.14,-0.09 -0.16,-0.08 -0.44,-0.11 -0.7,-0.11zm0.73 4.18c-0.02,0.01 -0.06,0.03 -0.11,0.04 -0.04,0.01 -0.09,0.02 -0.12,0.03 -0.03,0.01 -0.04,0.01 -0.04,0.01 -0,0 -0.01,0.01 -0,0.01 0,0 0.01,0.01 0.02,0.01 0,0 0,0 0.01,0 0.06,-0 0.14,-0.02 0.19,-0.03 0.02,-0.01 0.06,-0.01 0.08,-0.03 0.06,-0.03 0.08,-0.01 0.11,-0.05 0.03,-0.04 0.05,-0.04 0.06,-0.1 0.02,-0.05 0.03,-0.12 0.02,-0.18 -0.01,0.01 -0.04,0.07 -0.05,0.09 -0.05,0.06 -0.07,0.05 -0.1,0.12 -0.01,0.02 -0.02,0.03 -0.03,0.04 -0,0 -0,0 -0.01,0.01 -0.01,0 -0.02,0.01 -0.04,0.02zm-0.26 0.12c-0,-0 -0.01,-0 -0.01,-0.01 -0,-0 -0.01,-0.01 -0.01,-0.01 -0,-0 -0,-0.01 -0,-0.01 0,-0 0,-0.01 0.02,-0.01 0.01,-0 0.04,-0.01 0.07,-0.02 0.03,-0.01 0.06,-0.01 0.09,-0.02 0.02,-0.01 0.03,-0.01 0.05,-0.02 0.01,-0 0.01,-0.01 0.02,-0.01l0 -0c0.02,-0.01 0.04,-0.02 0.05,-0.02 0.01,-0.01 0.02,-0.01 0.03,-0.02 0.01,-0.01 0.02,-0.03 0.02,-0.05 -0.04,0 -0.12,0.05 -0.16,0.07 -0.17,0.06 -0.44,0.09 -0.63,0.09l-0.01 0 -0 0 -0.01 0c-0.19,-0 -0.46,-0.02 -0.63,-0.09 -0.04,-0.02 -0.12,-0.06 -0.16,-0.07 -0,0.02 0.01,0.04 0.02,0.05 0.01,0 0.01,0.01 0.03,0.02 0.01,0.01 0.03,0.02 0.05,0.02l0 0c0.01,0 0.01,0.01 0.02,0.01 0.01,0.01 0.03,0.01 0.05,0.02 0.03,0.01 0.06,0.02 0.09,0.02 0.03,0.01 0.06,0.01 0.07,0.02 0.01,0 0.02,0.01 0.02,0.01 0,0 0,0.01 -0,0.01 -0,0 -0.01,0.01 -0.01,0.01 -0,0 -0.01,0.01 -0.01,0.01 -0,0.01 0,0 -0.02,0.01 -0.04,0.01 -0.13,-0.01 -0.17,-0.02l-0.16 -0.04c-0.2,-0.09 -0.17,-0.36 -0.15,-0.38 0.04,0.01 0.02,0.01 0.05,0.07 0.02,0.03 0.03,0.05 0.07,0.07 0.05,-0.13 0.11,-0.25 0.14,-0.39 0,-0 0,-0 0,-0 0,0 -0,0.01 0.01,-0 -0.03,0.1 -0.03,0.12 0.07,0.17 0.08,0.04 0.15,0.05 0.24,0.06 0.13,0.01 0.26,0.02 0.39,0.02 0.13,-0 0.27,-0.01 0.39,-0.02 0.09,-0.01 0.17,-0.02 0.24,-0.06 0.09,-0.05 0.1,-0.07 0.07,-0.17 0.01,0.01 0.01,0 0.01,0 0,-0 0,0 0,0 0.04,0.13 0.1,0.26 0.14,0.39 0.04,-0.01 0.05,-0.03 0.07,-0.07 0.03,-0.06 0.01,-0.06 0.05,-0.07 0.02,0.02 0.05,0.3 -0.15,0.38l-0.16 0.04c-0.03,0.01 -0.13,0.03 -0.17,0.02 -0.02,-0.01 -0.01,-0 -0.02,-0.01zm-0.48 -0.06l0 0 0 0 0 0 0 0c0.16,0 0.33,-0.01 0.44,-0.04 0.07,-0.02 0.21,-0.05 0.26,-0.09 0.02,-0.03 0.01,-0.01 0.01,-0.04 0,-0.07 -0,-0.21 -0.08,-0.26 -0.02,-0 -0.02,0.01 -0.05,0.01 -0.16,0.03 -0.31,0.05 -0.49,0.05l-0.09 -0 -0.09 0c-0.17,-0 -0.32,-0.02 -0.49,-0.05 -0.03,-0.01 -0.03,-0.02 -0.05,-0.01 -0.07,0.04 -0.08,0.18 -0.08,0.26 0,0.03 -0,0.01 0.01,0.04 0.05,0.03 0.18,0.07 0.26,0.09 0.11,0.03 0.28,0.04 0.44,0.04zm0 0.14c0.25,-0 0.52,-0.02 0.65,-0.05 0.04,-0.01 0.1,-0.05 0.14,-0.05 -0.14,0.08 -0.13,0.06 -0.31,0.09 -0.14,0.02 -0.31,0.03 -0.48,0.03l0 0 -0 0 0 0c-0.17,0 -0.34,-0.01 -0.48,-0.03 -0.17,-0.03 -0.17,-0.02 -0.31,-0.09 0.03,0 0.1,0.04 0.14,0.05 0.13,0.03 0.4,0.05 0.65,0.05zm0.39 -3.42c-0.04,0 -0.04,-0.01 -0.03,-0.03l0.03 -0c0,0.01 0,0.02 -0,0.03zm-0.39 2.36l-0 0 0 0 -0 -0 -0 0 0 -0 -0 0c-0,0 -0,0 -0,0l-0.01 0.02c-0,0.01 -0,0.02 -0,0.03 -0,0.02 -0,0.04 -0,0.06 0,0.03 0,0.06 0.02,0.07 0.02,-0 0.02,-0.03 0.02,-0.07 0,-0.02 -0,-0.04 -0,-0.06 -0,-0.01 -0,-0.02 -0,-0.03l-0.01 -0.02c-0,-0 -0,-0 -0,-0zm-0 -0.01c0,-0 0,-0 0,-0l-0 0.01 0.03 0.01c-0,0.05 0.02,0.12 -0.01,0.17 -0.01,0 -0.01,0.01 -0.02,0.01l0 0 -0 -0 -0 0 0 -0c-0.01,-0 -0.01,-0 -0.02,-0.01 -0.02,-0.05 -0.01,-0.12 -0.01,-0.17l0.03 -0.01 -0 -0.01c0,0 0,0 0,0zm0.77 -2.23c0,-0.06 -0.07,-0.3 -0.08,-0.38 -0.01,-0.06 -0.03,-0.12 -0.04,-0.19 -0.01,-0.06 -0.03,-0.13 -0.04,-0.19 -0.01,-0.07 -0.02,-0.1 -0.05,-0.16 -0.04,-0.04 -0.46,-0.07 -0.53,-0.07 -0.01,0 -0.02,0 -0.03,0l0 0 -0 0 0 0 -0 0 0 -0c-0.01,-0 -0.02,-0 -0.03,-0 -0.07,0 -0.49,0.02 -0.53,0.07 -0.02,0.07 -0.04,0.09 -0.05,0.16 -0.02,0.05 -0.03,0.13 -0.04,0.19 -0.02,0.06 -0.03,0.12 -0.04,0.19 -0.01,0.08 -0.08,0.31 -0.08,0.38 -0.02,0.02 0,-0.01 -0.01,0.01 -0,0.01 -0,0.01 -0.01,0.02l-0.03 0.08c-0.01,-0.03 0.09,-0.43 0.11,-0.51 0.02,-0.09 0.03,-0.17 0.05,-0.25 0.02,-0.07 0.06,-0.18 0.07,-0.25 0.01,-0.03 0,-0.04 0.03,-0.05 0.02,-0.01 0.05,-0.01 0.06,-0.02 0.05,-0.01 0.1,-0.01 0.15,-0.02 0.09,-0.01 0.21,-0.02 0.32,-0.02 0.01,-0 0.02,0 0.03,0 0.01,-0 0.02,-0 0.03,-0 0.11,0 0.22,0.01 0.32,0.02 0.05,0.01 0.1,0.01 0.15,0.02 0.02,0 0.05,0.01 0.06,0.02 0.03,0.01 0.03,0.02 0.03,0.05 0.01,0.07 0.05,0.17 0.07,0.25 0.03,0.08 0.04,0.16 0.05,0.25 0.02,0.07 0.12,0.48 0.11,0.51l-0.03 -0.08c-0,-0.01 -0,-0.01 -0.01,-0.02 -0.01,-0.02 0.01,0 -0.01,-0.01zm-0.74 3.08c0.05,0.05 0.09,0.04 0.21,0.03 0.09,-0 0.15,-0.02 0.24,-0.02 -0.01,0 -0,0 -0.02,0.01 -0.04,0.01 -0.36,0.04 -0.4,0.03 -0.03,-0.01 -0.05,-0.03 -0.07,-0.03 -0.03,0 -0.05,0.02 -0.07,0.03 -0.04,0.01 -0.36,-0.02 -0.4,-0.03 -0.01,-0 -0.01,-0 -0.02,-0.01 0.09,-0 0.15,0.01 0.24,0.02 0.12,0.01 0.16,0.02 0.21,-0.03 0.01,-0 0.02,0 0.03,0 0.01,-0 0.02,-0 0.03,-0zm-0.03 0.05l0 0 0 -0 0 0 -0 -0 -0 0 0 -0zm0.83 -0.17c-0,-0.08 -0.1,-0.25 -0.09,-0.3 -0.05,0.07 -0.1,0.06 -0.07,0.09 0.04,0.06 0.07,0.18 0.07,0.25 0,-0 0.07,-0.04 0.09,-0.05zm0.01 -0.4c0.02,-0.06 0.02,-0.12 0.03,-0.18 0.01,-0.09 0.02,-0.14 -0.08,-0.14 -0,0.08 0,0.26 0.05,0.32zm0.04 -0.39c-0.07,-0.03 0.06,0 -0.1,-0.08 0.01,0.05 -0.02,0.12 0.1,0.16l0 -0.07zm0.02 -0.72c-0.02,0.01 -0.1,0.04 -0.12,0.05 -0,0.04 -0.01,0.53 0,0.55 0,0 0.08,0.08 0.1,0.09l0.01 -0.69zm-0.09 -0.07l-0.03 0.01c-0.01,0.04 0.01,0.04 -0.01,0.08 0.05,-0.02 0.11,-0.03 0.13,-0.05 -0.01,-0.02 0.01,-0.01 -0.01,-0.01 0.02,-0.01 -0.01,0.01 0.01,-0.01l-0 -0.05 -0.09 0.04zm0.09 -1.93c0.04,-0.06 0.02,-0.27 -0.16,-0.36 -0.02,-0.01 -0.11,-0.05 -0.13,-0.05 0.02,0.04 0.09,0.11 0.13,0.14 0.02,0.02 0.02,0.03 0.04,0.05 0.03,0.03 0.05,0.07 0.07,0.11 0.02,0.03 0.04,0.08 0.05,0.11zm-1.63 3.66c0.02,0.01 0.06,0.03 0.11,0.04 0.04,0.01 0.09,0.02 0.12,0.03 0.03,0.01 0.04,0.01 0.04,0.01 0,0 0.01,0.01 0,0.01 -0,0 -0.01,0.01 -0.02,0.01 -0,0 -0,0 -0.01,0 -0.06,-0 -0.14,-0.02 -0.19,-0.03 -0.02,-0.01 -0.06,-0.01 -0.08,-0.03 -0.06,-0.03 -0.08,-0.01 -0.11,-0.05 -0.03,-0.04 -0.05,-0.04 -0.06,-0.1 -0.02,-0.05 -0.03,-0.12 -0.02,-0.18 0.01,0.01 0.04,0.07 0.05,0.09 0.05,0.06 0.07,0.05 0.1,0.12 0.01,0.02 0.02,0.03 0.03,0.04 0,0 0,0 0.01,0.01 0.01,0 0.02,0.01 0.04,0.02zm0.35 -3.22c0.04,0 0.04,-0.01 0.03,-0.03l-0.03 -0c-0,0.01 -0,0.02 0,0.03zm-0.44 3.08c0,-0.08 0.1,-0.25 0.09,-0.3 0.05,0.07 0.1,0.06 0.07,0.09 -0.04,0.06 -0.07,0.18 -0.07,0.25 -0,-0 -0.07,-0.04 -0.09,-0.05zm-0.01 -0.4c-0.02,-0.06 -0.02,-0.12 -0.03,-0.18 -0.01,-0.09 -0.02,-0.14 0.08,-0.14 0,0.08 -0,0.26 -0.05,0.32zm-0.04 -0.39c0.07,-0.03 -0.06,0 0.1,-0.08 -0.01,0.05 0.02,0.12 -0.1,0.16l-0 -0.07zm-0.02 -0.72c0.02,0.01 0.1,0.04 0.12,0.05 0,0.04 0.01,0.53 -0,0.55 -0,0 -0.08,0.08 -0.1,0.09l-0.01 -0.69zm0.09 -0.07l0.03 0.01c0.01,0.04 -0.01,0.04 0.01,0.08 -0.05,-0.02 -0.11,-0.03 -0.13,-0.05 0.01,-0.02 -0.01,-0.01 0.01,-0.01 -0.02,-0.01 0.01,0.01 -0.01,-0.01l0 -0.05 0.09 0.04zm-0.09 -1.93c-0.04,-0.06 -0.02,-0.27 0.16,-0.36 0.02,-0.01 0.11,-0.05 0.13,-0.05 -0.02,0.04 -0.09,0.11 -0.13,0.14 -0.02,0.02 -0.02,0.03 -0.04,0.05 -0.03,0.03 -0.05,0.07 -0.07,0.11 -0.02,0.03 -0.04,0.08 -0.05,0.11z"/>
   <path class="fil5" d="M0.5 0.17c-0.18,0.09 -0.2,0.3 -0.16,0.36 0.02,-0.03 0.04,-0.08 0.05,-0.11 0.02,-0.04 0.04,-0.08 0.07,-0.11 0.02,-0.02 0.02,-0.03 0.04,-0.05 0.04,-0.03 0.11,-0.1 0.13,-0.14 -0.02,0 -0.11,0.03 -0.13,0.05z"/>
   <path class="fil5" d="M1.84 0.12c0.02,0.04 0.09,0.11 0.13,0.14 0.02,0.02 0.02,0.03 0.04,0.05 0.03,0.03 0.05,0.07 0.07,0.11 0.02,0.03 0.04,0.08 0.05,0.11 0.04,-0.06 0.02,-0.27 -0.16,-0.36 -0.02,-0.01 -0.11,-0.05 -0.13,-0.05z"/>
  </g>
 </g>
</svg>
