<?xml version="1.0" encoding="UTF-8"?>
<!DOCTYPE svg PUBLIC "-//W3C//DTD SVG 1.1//EN" "http://www.w3.org/Graphics/SVG/1.1/DTD/svg11.dtd">
<!-- Creator: CorelDRAW -->
<svg xmlns="http://www.w3.org/2000/svg" xml:space="preserve" width="3.209mm" height="10.3646mm" version="1.1" style="shape-rendering:geometricPrecision; text-rendering:geometricPrecision; image-rendering:optimizeQuality; fill-rule:evenodd; clip-rule:evenodd"
viewBox="0 0 6.68 21.59"
 xmlns:xlink="http://www.w3.org/1999/xlink"
 xmlns:xodm="http://www.corel.com/coreldraw/odm/2003">
 <defs>
  <style type="text/css">
   <![CDATA[
    .str0 {stroke:#373435;stroke-width:0.42;stroke-miterlimit:22.9256}
    .str1 {stroke:#373435;stroke-width:0.16;stroke-miterlimit:22.9256}
    .fil16 {fill:none}
    .fil8 {fill:#96989A}
    .fil15 {fill:#4B4B4D}
    .fil17 {fill:#373435}
    .fil9 {fill:#6B809B}
    .fil1 {fill:black}
    .fil13 {fill:#92918F}
    .fil0 {fill:#CC0000}
    .fil12 {fill:red}
    .fil14 {fill:#FF6600}
    .fil10 {fill:white}
    .fil11 {fill:#373435;fill-rule:nonzero}
    .fil5 {fill:url(#id0)}
    .fil4 {fill:url(#id1)}
    .fil7 {fill:url(#id2)}
    .fil6 {fill:url(#id3)}
    .fil2 {fill:url(#id4)}
    .fil3 {fill:url(#id5)}
   ]]>
  </style>
  <linearGradient id="id0" gradientUnits="userSpaceOnUse" x1="6.37" y1="1.93" x2="6.55" y2="2.22">
   <stop offset="0" style="stop-opacity:1; stop-color:white"/>
   <stop offset="1" style="stop-opacity:1; stop-color:#B5B5B5"/>
  </linearGradient>
  <linearGradient id="id1" gradientUnits="userSpaceOnUse" x1="0.2" y1="2.91" x2="0.31" y2="2.65">
   <stop offset="0" style="stop-opacity:1; stop-color:#585755"/>
   <stop offset="1" style="stop-opacity:1; stop-color:white"/>
  </linearGradient>
  <linearGradient id="id2" gradientUnits="userSpaceOnUse" xlink:href="#id0" x1="6.37" y1="2.65" x2="6.5" y2="2.91">
  </linearGradient>
  <linearGradient id="id3" gradientUnits="userSpaceOnUse" xlink:href="#id0" x1="6.27" y1="2.26" x2="6.61" y2="2.61">
  </linearGradient>
  <linearGradient id="id4" gradientUnits="userSpaceOnUse" xlink:href="#id1" x1="0.15" y1="2.22" x2="0.31" y2="1.93">
  </linearGradient>
  <linearGradient id="id5" gradientUnits="userSpaceOnUse" xlink:href="#id1" x1="0.08" y1="2.62" x2="0.4" y2="2.25">
  </linearGradient>
 </defs>
 <g id="Camada_x0020_1">
  <metadata id="CorelCorpID_0Corel-Layer"/>
  <path class="fil0" d="M3.29 0.06c-0.19,0.01 -0.38,0.02 -0.57,0.04 -0.19,0.02 -0.38,0.04 -0.57,0.07 -0.02,0 -0.04,0.01 -0.05,0.01 -0.02,0.01 -0.04,0.02 -0.05,0.03 -0.02,0.01 -0.02,0.02 -0.04,0.02 -0.01,0 -0.03,0 -0.04,0 -0.01,-0 -0.02,-0 -0.03,-0 -0.01,-0 -0.01,-0 0.01,-0.03 -0.11,0.02 -0.22,0.05 -0.33,0.08 -0.17,0.05 -0.32,0.09 -0.43,0.14 -0.1,0.04 -0.17,0.08 -0.21,0.12 -0.04,0.04 -0.07,0.07 -0.09,0.11 -0.02,0.04 -0.04,0.08 -0.05,0.14 -0.01,0.06 -0.03,0.14 -0.03,0.25 -0.01,0.11 -0.01,0.25 -0.02,0.41 -0,0.16 -0.01,0.34 -0.01,0.52 -0,0.18 -0,0.36 -0,0.53 0,0.07 0,0.13 0,0.19 0.1,-0.01 0.13,-0 0.12,0.01 0.02,0 0.01,0.01 -0.04,0.02 -0.02,0.01 -0.05,0.01 -0.08,0.02 0,0.07 0,0.14 0.01,0.19 0,0.08 0.01,0.15 0.02,0.2 0,0.02 0.01,0.03 0.01,0.05 0.01,0.06 0.03,0.09 0.05,0.13 0.02,0.04 0.05,0.07 0.09,0.09 0.03,0.02 0.07,0.04 0.11,0.05 0.08,0.02 0.18,0.01 0.34,-0.01l0.09 -0.01c0.11,-0.01 0.24,-0.02 0.39,-0.03 0.14,-0.01 0.31,-0.02 0.48,-0.03 0.17,-0.01 0.35,-0.02 0.52,-0.03 0.05,-0 0.1,-0.01 0.15,-0.01l-0 -0.01c0.04,-0 0.07,-0 0.13,-0 0.05,-0 0.11,0 0.19,0 0.08,-0 0.15,-0 0.19,-0 0.06,0 0.09,0 0.13,0l-0 0.01c0.05,0 0.1,0.01 0.15,0.01 0.17,0.01 0.35,0.02 0.52,0.03 0.17,0.01 0.33,0.02 0.48,0.03 0.15,0.01 0.28,0.02 0.39,0.03l0.09 0.01c0.16,0.02 0.26,0.03 0.34,0.01 0.04,-0.01 0.08,-0.03 0.11,-0.05 0.03,-0.02 0.06,-0.06 0.09,-0.09 0.02,-0.03 0.04,-0.07 0.05,-0.13 0.01,-0.06 0.02,-0.13 0.03,-0.25 0,-0.06 0,-0.12 0.01,-0.19 -0.03,-0 -0.06,-0.01 -0.08,-0.02 -0.05,-0.01 -0.06,-0.02 -0.04,-0.02 -0.01,-0.01 0.02,-0.02 0.12,-0.01 0,-0.06 0,-0.12 0,-0.19 0,-0.18 -0,-0.36 -0,-0.53 -0,-0.18 -0,-0.36 -0.01,-0.52 -0,-0.16 -0.01,-0.3 -0.02,-0.41 -0.01,-0.11 -0.02,-0.19 -0.03,-0.25 -0.01,-0.06 -0.03,-0.1 -0.05,-0.14 -0.02,-0.04 -0.04,-0.08 -0.09,-0.11 -0.04,-0.04 -0.11,-0.08 -0.21,-0.12 -0.11,-0.05 -0.26,-0.09 -0.43,-0.14 -0.1,-0.03 -0.21,-0.05 -0.33,-0.08 0.02,0.02 0.02,0.02 0.01,0.03 -0.01,0 -0.01,0 -0.03,0 -0.01,0 -0.03,-0 -0.04,-0 -0.01,-0 -0.01,-0.01 -0.04,-0.02 -0.01,-0.01 -0.03,-0.02 -0.05,-0.03 -0.02,-0 -0.04,-0.01 -0.05,-0.01 -0.19,-0.03 -0.38,-0.05 -0.57,-0.07 -0.19,-0.02 -0.38,-0.03 -0.57,-0.04 -0.01,0 -0.03,0.01 -0.05,0.01 -0.02,0 -0.04,-0 -0.05,-0.01zm1.66 2.54l-0.07 -1.68 0.04 -0 0.07 1.68 -0.04 0zm0.08 -0.63c0,-0.03 0,-0.06 0,-0.09 0,-0.03 0,-0.06 0.01,-0.08 0.01,-0.02 0.02,-0.02 0.03,-0.02 0.01,0 0.03,0.02 0.04,0.03 0.01,0.02 0.02,0.04 0.02,0.07 0,0.04 0.01,0.09 0,0.12 -0,0.03 -0.01,0.03 -0.02,0.03 -0.01,0 -0.02,0 -0.03,-0 -0.01,-0 -0.02,-0 -0.03,-0 -0.01,-0 -0.02,-0 -0.02,-0.01 -0.01,-0.01 -0.01,-0.02 -0.01,-0.05zm-0.91 0.6c0.22,0.01 0.44,0.03 0.58,0.04 0.14,0.01 0.22,0.02 0.27,0.02 0.05,0.01 0.06,0.01 0.08,0.02 0.01,0.01 0.03,0.01 0.05,0.03 0.02,0.02 0.05,0.05 0.09,0.1 0.09,0.1 0.24,0.27 0.4,0.45l0.01 0.01 -0.03 0.03 -0.01 -0.01c-0.15,-0.18 -0.31,-0.36 -0.4,-0.45 -0.04,-0.05 -0.07,-0.08 -0.09,-0.09 -0.02,-0.02 -0.03,-0.02 -0.04,-0.03 -0.01,-0 -0.02,-0.01 -0.06,-0.01 -0.05,-0.01 -0.12,-0.01 -0.27,-0.02 -0.15,-0.01 -0.37,-0.02 -0.58,-0.04 -0.21,-0.01 -0.42,-0.02 -0.57,-0.03 -0.08,-0 -0.15,-0.01 -0.21,-0.01 -0.06,0 -0.12,0 -0.21,0.01 -0.15,0.01 -0.36,0.02 -0.57,0.03 -0.22,0.01 -0.43,0.03 -0.58,0.04 -0.14,0.01 -0.22,0.02 -0.27,0.02 -0.04,0.01 -0.05,0.01 -0.06,0.01 -0.01,0 -0.02,0.01 -0.04,0.03 -0.02,0.02 -0.05,0.05 -0.09,0.09 -0.09,0.1 -0.24,0.27 -0.4,0.45l-0.01 0.01 -0.03 -0.03 0.01 -0.01c0.15,-0.18 0.31,-0.35 0.4,-0.45 0.04,-0.05 0.07,-0.08 0.09,-0.1 0.02,-0.02 0.03,-0.03 0.05,-0.03 0.01,-0.01 0.03,-0.01 0.08,-0.02 0.05,-0.01 0.12,-0.01 0.27,-0.02 0.15,-0.01 0.36,-0.02 0.58,-0.04 0.18,-0.01 0.37,-0.02 0.51,-0.03l-0 -0.01c0.04,-0 0.08,-0 0.15,-0 0.03,0 0.07,0 0.12,0 0.05,-0 0.08,-0 0.12,-0 0.07,-0 0.11,-0 0.15,0l-0 0.01c0.15,0.01 0.33,0.02 0.51,0.03zm-2.37 -1.65l0.04 0 -0.07 1.68 -0.04 -0 0.07 -1.68zm-0.19 0.89c0.01,-0.02 0.03,-0.03 0.04,-0.03 0.01,-0 0.02,0 0.03,0.02 0.01,0.02 0.01,0.04 0.01,0.08 0,0.03 0,0.07 0,0.09 0,0.03 -0,0.04 -0.01,0.05 -0.01,0.01 -0.01,0.01 -0.02,0.01 -0.01,0 -0.02,0 -0.03,0 -0.01,0 -0.02,0 -0.03,0 -0.01,-0 -0.02,-0 -0.02,-0.03 -0,-0.03 -0,-0.08 0,-0.12 0,-0.04 0.01,-0.06 0.02,-0.07z"/>
  <g id="_1769517969936">
   <g>
    <path class="fil1" d="M0.49 1.98l0.25 -0.11 0.01 0.01c0,-0.06 0,-0.12 0,-0.18 -0.15,0.05 -0.3,0.1 -0.38,0.13 -0.04,0.02 -0.07,0.02 -0.09,0.04 -0.02,0.01 -0.03,0.02 -0.05,0.04 -0.01,0.01 -0.03,0.03 -0.05,0.05 0.02,-0.02 0.04,-0.03 0.06,-0.04 0.03,-0.02 0.05,-0.03 0.06,-0.03 0.02,-0.01 0.03,-0.01 0.05,-0.01 0.01,0 0.03,0 0.04,0.01 0.01,0 0.02,0.01 0.03,0.02 0.01,0.01 0.02,0.01 0.02,0.04 0,0.01 0,0.03 0.01,0.07 0.01,-0.01 0.02,-0.01 0.05,-0.02z"/>
    <path class="fil1" d="M0.75 2.75c-0.06,0.01 -0.13,0.01 -0.2,0.02 -0.02,0 -0.04,0 -0.05,0 -0,0 -0.01,-0 -0.01,-0 -0,0.02 -0.01,0.03 -0.01,0.04 -0,0.01 -0.01,0.02 -0.01,0.03 -0,0 -0,0 -0,0 0.01,-0 0.03,-0 0.05,-0.01 0.02,-0 0.05,-0 0.08,-0 0.04,-0 0.07,-0 0.1,-0 0.03,0 0.04,0 0.05,0 -0,-0.03 -0,-0.05 -0,-0.08z"/>
    <path class="fil2" d="M0.05 2.24l0.36 -0.13c-0,-0.01 -0,-0.03 -0,-0.04 -0.01,-0.07 -0.01,-0.11 -0.01,-0.13 -0,-0.01 -0,-0.01 -0,-0.01 -0,-0 -0.01,-0.01 -0.02,-0.01 -0.01,-0 -0.02,-0 -0.02,-0 -0.01,-0 -0.02,0 -0.03,0 -0.01,0 -0.03,0.01 -0.05,0.03 -0.02,0.01 -0.05,0.03 -0.08,0.06 -0.03,0.02 -0.06,0.05 -0.1,0.08l-0.01 -0.02c-0,0.01 -0.01,0.01 -0.01,0.02 -0.01,0.02 -0.01,0.04 -0.01,0.09 -0,0.02 -0,0.04 -0,0.07z"/>
    <path class="fil3" d="M0.41 2.16l-0.36 0.13c-0,0.04 -0,0.07 -0,0.11 -0,0.07 0,0.14 0,0.2 0,0.04 0,0.08 0.01,0.11 0.01,-0 0.03,-0.01 0.04,-0.02 0.07,-0.02 0.2,-0.06 0.34,-0.1l-0.01 -0.17 -0 -0c-0,-0.01 -0,-0.02 -0,-0.03 -0.01,-0.08 -0.01,-0.17 -0.02,-0.24z"/>
    <path class="fil4" d="M0.44 2.65c-0.13,0.04 -0.26,0.08 -0.33,0.1 -0.04,0.01 -0.05,0.02 -0.05,0.02 0.01,0.05 0.01,0.08 0.02,0.1 0.01,0.02 0.01,0.03 0.02,0.04 0,0 0.01,0.01 0.02,0.01 0.01,0 0.01,0 0.02,-0 0.02,-0 0.04,-0 0.06,-0 0.02,-0 0.05,-0.01 0.07,-0.02 0.02,-0.01 0.05,-0.02 0.07,-0.03 0.03,-0.01 0.05,-0.02 0.07,-0.03 0.01,-0.01 0.02,-0.01 0.03,-0.02 0,-0 0.01,-0.01 0.01,-0.01 0,-0.01 0,-0.01 0.01,-0.03 0,-0.01 0,-0.03 0,-0.06 -0,-0.01 -0,-0.03 -0,-0.06z"/>
    <path class="fil1" d="M5.93 1.7c0,0.06 0,0.12 0,0.18l0.01 -0.01 0.25 0.11c0.03,0.01 0.04,0.02 0.05,0.02 0,-0.03 0,-0.05 0.01,-0.07 0,-0.03 0.01,-0.04 0.02,-0.04 0.01,-0.01 0.02,-0.01 0.03,-0.02 0.01,-0 0.02,-0.01 0.04,-0.01 0.01,-0 0.03,0 0.05,0.01 0.02,0.01 0.04,0.01 0.06,0.03 0.02,0.01 0.04,0.03 0.06,0.04 -0.02,-0.02 -0.04,-0.04 -0.05,-0.05 -0.02,-0.02 -0.03,-0.03 -0.05,-0.04 -0.02,-0.01 -0.04,-0.02 -0.09,-0.04 -0.08,-0.03 -0.23,-0.08 -0.38,-0.13z"/>
    <path class="fil1" d="M6.13 2.77c-0.06,-0.01 -0.13,-0.01 -0.2,-0.02 -0,0.03 -0,0.05 -0,0.08 0.01,-0 0.03,-0 0.05,-0 0.03,-0 0.06,0 0.1,0 0.03,0 0.06,0 0.08,0 0.02,0 0.04,0 0.05,0.01 -0,-0 -0,-0 -0,-0 -0.01,-0.01 -0.01,-0.02 -0.01,-0.03 -0,-0.01 -0.01,-0.02 -0.01,-0.04 -0,0 -0.01,0 -0.01,0 -0.01,-0 -0.03,-0 -0.05,-0z"/>
    <path class="fil5" d="M6.28 2.11l0.36 0.13c-0,-0.02 -0,-0.05 -0,-0.07 -0,-0.05 -0,-0.07 -0.01,-0.09 -0,-0.01 -0.01,-0.01 -0.01,-0.02l-0.01 0.02c-0.03,-0.03 -0.07,-0.05 -0.1,-0.08 -0.03,-0.02 -0.06,-0.04 -0.08,-0.06 -0.02,-0.01 -0.04,-0.02 -0.05,-0.03 -0.01,-0 -0.02,-0 -0.03,-0 -0.01,0 -0.02,0 -0.02,0 -0.01,0 -0.01,0.01 -0.02,0.01 -0,0 -0,0 -0,0.01 -0,0.02 -0.01,0.06 -0.01,0.13 -0,0.01 -0,0.03 -0,0.04z"/>
    <path class="fil6" d="M6.64 2.29l-0.36 -0.13c-0.01,0.07 -0.01,0.16 -0.02,0.24 -0,0.01 -0,0.02 -0,0.03l-0 0 -0.01 0.17c0.14,0.04 0.27,0.08 0.34,0.1 0.02,0.01 0.03,0.01 0.04,0.02 0,-0.03 0.01,-0.07 0.01,-0.11 0,-0.06 0,-0.13 0,-0.2 -0,-0.04 -0,-0.08 -0,-0.11z"/>
    <path class="fil7" d="M6.57 2.74c-0.07,-0.02 -0.2,-0.06 -0.33,-0.1 -0,0.02 -0,0.04 -0,0.06 -0,0.03 0,0.04 0,0.06 0,0.02 0,0.03 0.01,0.03 0,0.01 0,0.01 0.01,0.01 0,0.01 0.01,0.01 0.03,0.02 0.02,0.01 0.04,0.02 0.07,0.03 0.02,0.01 0.05,0.02 0.07,0.03 0.03,0.01 0.05,0.01 0.07,0.02 0.02,0 0.04,0 0.06,0 0.01,0 0.01,0 0.02,0 0.01,-0 0.01,-0 0.02,-0.01 0.01,-0.01 0.01,-0.02 0.02,-0.04 0.01,-0.02 0.01,-0.06 0.02,-0.1 -0,-0 -0.02,-0.01 -0.05,-0.02z"/>
    <path class="fil8" d="M1.53 5.08c-0,-0.27 -0,-0.52 -0,-0.66 -0,-0.08 -0,-0.13 -0.01,-0.15 -0,-0.02 -0.01,-0.02 -0.02,-0.02 -0.02,-0 -0.05,-0.01 -0.08,-0.01 -0.04,-0 -0.08,-0.01 -0.11,-0.01 -0.03,-0.01 -0.06,-0.02 -0.08,-0.03 -0.02,-0.01 -0.04,-0.03 -0.05,-0.04 -0.01,-0.01 -0.03,-0.03 -0.03,-0.05 -0.01,-0.02 -0.01,-0.06 -0.01,-0.11 -0,-0.1 0,-0.29 0.01,-0.47 -0.02,-0 -0.05,-0 -0.07,-0.01 -0.05,-0.01 -0.09,-0.03 -0.13,-0.06 -0.04,-0.03 -0.07,-0.06 -0.1,-0.1 -0.01,-0.01 -0.01,-0.02 -0.02,-0.04l0.01 0.84c0,0.13 0,0.24 0.01,0.32 0,0.09 0.01,0.16 0.02,0.22 0.01,0.06 0.02,0.12 0.04,0.17 0.02,0.05 0.03,0.09 0.04,0.12 0.01,0.03 0.02,0.05 0.03,0.06 0.02,0.01 0.04,0.02 0.09,0.02 0.05,0.01 0.13,0.01 0.21,0.01 0.08,0 0.17,0 0.26,0z"/>
    <path class="fil8" d="M5.08 4.14c0.01,0.21 0.02,0.57 0.02,0.95 0.1,-0 0.25,-0 0.33,-0 0.09,-0 0.16,-0 0.21,-0.01 0.05,-0 0.07,-0.01 0.09,-0.02 0.01,-0.01 0.02,-0.03 0.03,-0.06 0.01,-0.03 0.03,-0.07 0.04,-0.12 0.02,-0.05 0.03,-0.11 0.04,-0.17 0.01,-0.06 0.02,-0.14 0.02,-0.22 0,-0.09 0,-0.19 0.01,-0.32l0.01 -0.89c-0.01,0.03 -0.02,0.06 -0.04,0.09 -0.03,0.04 -0.06,0.08 -0.1,0.1 -0.04,0.03 -0.08,0.04 -0.13,0.06 -0.08,0.02 -0.19,0.01 -0.35,-0.01l-0.09 -0.01c-0.11,-0.01 -0.24,-0.02 -0.39,-0.03 -0.15,-0.01 -0.31,-0.02 -0.47,-0.03 -0,-0 -0,-0 -0.01,-0l0 0.19c0,0.06 -0,0.06 -0.06,0.06l-0.17 0c-0.01,0.02 -0.02,0.05 -0.04,0.07 0.26,0 0.5,0 0.65,0 0.08,0 0.13,0 0.16,0 0.03,0 0.05,0.01 0.07,0.01 0.02,0.01 0.03,0.01 0.04,0.02 0.01,0.01 0.03,0.02 0.04,0.04 0.01,0.02 0.03,0.04 0.04,0.08 0.01,0.04 0.02,0.11 0.03,0.23z"/>
    <path class="fil1" d="M1.98 4.2c-0,-0.1 -0.01,-0.15 -0.02,-0.17 -0.01,-0.02 -0.04,-0.03 -0.08,-0.03l-0.11 -0.02c-0.11,-0.02 -0.24,-0.04 -0.33,-0.06 -0.06,-0.01 -0.1,-0.03 -0.13,-0.05 -0.03,-0.02 -0.04,-0.05 -0.05,-0.09 -0.01,-0.04 -0.01,-0.08 -0.01,-0.13 -0,-0.04 -0,-0.09 0,-0.13 -0.03,0 -0.06,0 -0.09,0 -0.01,0.19 -0.01,0.37 -0.01,0.47 0,0.05 0.01,0.08 0.01,0.1 0.01,0.02 0.01,0.02 0.02,0.03 0.01,0.01 0.02,0.02 0.04,0.04 0.02,0.01 0.04,0.02 0.07,0.03 0.03,0.01 0.07,0.01 0.11,0.01 0.03,0 0.06,0 0.09,0.01 0.03,0.01 0.05,0.02 0.06,0.06 0.01,0.03 0.01,0.08 0.01,0.16 0,0.16 0,0.46 0,0.76 0.02,-0 0.05,-0 0.07,-0 0.06,-0 0.11,-0 0.16,-0l-0.01 -0.91c0,-0.01 0.01,-0.02 0.02,-0.02l0.04 -0c0.01,0 0.02,0.01 0.02,0.02l0.01 0.91c0.05,-0 0.09,0 0.13,0l-0.02 -0.55c-0.01,-0.17 -0.01,-0.32 -0.02,-0.42z"/>
    <path class="fil1" d="M1.78 3.93l0.11 0.02c0.06,0.01 0.09,0.02 0.11,0.06 0.02,0.03 0.02,0.09 0.03,0.19 0.01,0.1 0.01,0.25 0.02,0.43l0.02 0.56c0.1,0 0.16,0.01 0.2,0.02 0.04,0.01 0.06,0.02 0.08,0.04 0.01,0.01 0.02,0.03 0.03,0.04l0 0c0.01,0.01 0.02,0.03 0.03,0.04l0.02 0.03 -0 -0.27 -0.19 0c0,0.03 0,0.07 0,0.1l-0.04 0c-0,-0.04 -0,-0.08 -0,-0.13 0,-0 0,-0 0,-0l-0 -0.04c-0,-0.15 -0.01,-0.3 -0.01,-0.44 -0,-0.19 -0.01,-0.35 -0.02,-0.46 -0.01,-0.11 -0.01,-0.18 -0.02,-0.22 -0.01,-0.04 -0.01,-0.05 -0.02,-0.06 -0.01,-0.02 -0.02,-0.03 -0.04,-0.05 -0.02,-0.02 -0.04,-0.03 -0.06,-0.05l-0.04 -0.03c-0.04,-0.03 -0.09,-0.06 -0.12,-0.09 -0.04,-0.05 -0.04,-0.11 -0.04,-0.16 -0.12,0.01 -0.23,0.02 -0.31,0.03l-0.09 0.01c-0.04,0 -0.08,0.01 -0.11,0.01 -0,0.05 -0,0.09 -0,0.14 0,0.05 0,0.09 0.01,0.12 0.01,0.03 0.01,0.05 0.03,0.06 0.02,0.02 0.06,0.03 0.11,0.04 0.08,0.02 0.22,0.04 0.32,0.06z"/>
    <path class="fil1" d="M2.18 3.89c0.01,0.04 0.01,0.11 0.02,0.22 0,0.03 0,0.06 0,0.09 0,-0.01 0.01,-0.01 0.02,-0.01l2.23 -0.01c0.01,0 0.02,0.01 0.02,0.02l0 0.04c0,0.01 -0.01,0.02 -0.02,0.02l-2.23 0.01c-0.01,0 -0.01,-0 -0.02,-0.01 0,0.09 0.01,0.19 0.01,0.3 0,0.13 0.01,0.27 0.01,0.41l0.02 -0c0.36,-0.01 0.72,-0.02 1.03,-0.02l0.45 -0.01c0.13,-0 0.25,-0 0.35,-0 0.09,0 0.17,0 0.22,0 0.05,0 0.09,0.01 0.12,0.01 0.04,0.01 0.06,0.02 0.07,0.03l0 0c0.01,0.01 0.02,0.03 0.02,0.05l0.02 0.14c0.04,-0 0.08,-0.01 0.15,-0.01 0.1,-0 0.24,-0 0.39,0 -0,-0.41 -0.01,-0.82 -0.02,-1.04 -0.01,-0.11 -0.02,-0.18 -0.03,-0.22 -0.01,-0.04 -0.02,-0.05 -0.03,-0.06 -0.01,-0.01 -0.02,-0.02 -0.03,-0.03 -0.01,-0.01 -0.02,-0.01 -0.03,-0.02 -0.01,-0 -0.02,-0.01 -0.05,-0.01 -0.03,-0 -0.08,-0 -0.16,-0 -0.16,-0 -0.45,-0 -0.74,-0 -0.04,0 -0.09,0.01 -0.16,0.01l-1.1 -0.01c-0.07,-0.01 -0.04,-0.04 -0.04,-0.13l-0.54 -0.23c-0.08,0.01 -0.15,0.01 -0.23,0.02 -0.02,0 -0.04,0 -0.07,0l0.04 0c0,0.05 0,0.1 0.03,0.13 0.02,0.03 0.07,0.06 0.11,0.08l0.04 0.03c0.03,0.02 0.05,0.04 0.07,0.05 0.02,0.02 0.03,0.04 0.05,0.05 0.01,0.02 0.02,0.04 0.03,0.08z"/>
    <path class="fil1" d="M2.9 3.76c0.1,0 1.09,0.02 1.12,-0.03 0.01,-0.02 0.02,-0.04 0.03,-0.06 -0.02,-0 -0.04,-0 -0.09,-0l-1.25 -0c0,0.1 -0.05,0.09 0.2,0.09z"/>
    <path class="fil1" d="M2.68 3.62l1.36 0c0.01,0 0.02,0 0.02,0l0.19 -0c0.02,-0 0.02,-0 0.02,-0.02l-0 -0.2c-0.07,-0 -0.13,-0.01 -0.2,-0.01l0 0.22 -0.04 0 -0 -0.23c-0.07,-0 -0.15,-0.01 -0.22,-0.01 -0.16,-0.01 -0.31,-0.02 -0.42,-0.02 -0.02,-0 -0.03,-0 -0.05,-0 -0.01,0 -0.03,0 -0.05,0 -0.11,0 -0.26,0.01 -0.42,0.02 -0.07,0 -0.14,0.01 -0.22,0.01l-0 0.21 0.03 0.01z"/>
    <path class="fil9 str0" d="M2.61 3.6l0 -0.19c-0.08,0 -0.17,0.01 -0.25,0.02 -0.05,0 -0.1,0.01 -0.15,0.01l0.4 0.17z"/>
    <path class="fil1" d="M2.72 5.07l-0.25 0.01 0 0.48c0,0.05 0,0.12 0,0.21 0,0.14 0.01,0.35 0.01,0.56l0 0.03c0,0.25 0.01,0.51 0.01,0.69 0,0.17 0,0.26 0,0.32 -0,0.06 -0,0.08 -0.01,0.09 -0,0.01 -0,0.01 -0.01,0.02l0 0.27 0 0.43 0.07 0c0.01,0 0.02,0.01 0.02,0.02 -0,0.01 -0.01,0.02 -0.02,0.02l-0.07 -0 0 0.25c0,0 -0,0.01 -0,0.01l1.79 0c-0,-0 -0,-0.01 -0,-0.01l0 -0.72 0 -0.27c-0,-0 -0.01,-0.01 -0.01,-0.02 -0.01,-0.01 -0.01,-0.03 -0.01,-0.09 -0,-0.06 -0,-0.15 0,-0.32 0,-0.18 0,-0.44 0.01,-0.69l0 -0.03c0,-0.21 0.01,-0.42 0.01,-0.56 0,-0.09 0,-0.16 0,-0.21l0 -0.5c0,-0 0,-0 0,-0 -0.05,-0 -0.11,-0 -0.19,-0 -0.02,0 -0.04,0 -0.06,0l0.01 1.31 0.01 0.53c0,0 0,0 -0,0 0.03,0.03 0.05,0.06 0.07,0.09l0 0c0.04,0.05 0.06,0.11 0.08,0.17 0.02,0.06 0.04,0.13 0.04,0.19 0.01,0.06 0,0.12 -0,0.18 -0.01,0.06 -0.02,0.12 -0.03,0.17 -0.02,0.08 -0.04,0.15 -0.05,0.2l-0.02 0.06c-0.01,0.03 -0.01,0.06 -0.02,0.07l-0.01 0.03c-0,0.01 -0.01,0.02 -0.02,0.03 -0.01,0.01 -0.02,0.02 -0.05,0.04l-0.24 0.19 -0.03 0.05c-0.01,0.02 -0.02,0.03 -0.03,0.04 -0.01,0.01 -0.02,0.02 -0.03,0.02 -0.02,0.01 -0.03,-0 -0.03,-0.02 -0,-0.01 -0,-0.02 -0,-0.03l0 -0.04c0,-0.08 0.01,-0.16 0.01,-0.23 0,-0.03 0,-0.07 0.01,-0.11 0,-0.04 0,-0.08 -0,-0.11 -0,-0.03 -0.01,-0.04 -0.01,-0.05 -0,-0.01 -0.01,-0.01 -0.02,-0.02 -0.01,-0.01 -0.02,-0.01 -0.04,-0.02l-0 -0c-0.02,-0.01 -0.05,-0.01 -0.09,-0.02 -0.05,-0.01 -0.11,-0.01 -0.18,-0.02 -0.07,0.01 -0.14,0.01 -0.18,0.02 -0.04,0.01 -0.07,0.01 -0.09,0.02l-0 0c-0.02,0.01 -0.03,0.01 -0.04,0.02 -0.01,0.01 -0.01,0.01 -0.02,0.02 -0.01,0.01 -0.01,0.03 -0.01,0.05 -0,0.03 -0,0.07 -0,0.11 0,0.04 0,0.08 0,0.11 0,0.08 0.01,0.16 0.01,0.23l0 0.04c-0,0.01 -0,0.02 -0,0.03 -0,0.02 -0.02,0.03 -0.03,0.02 -0.01,-0 -0.02,-0.01 -0.03,-0.02 -0.01,-0.01 -0.02,-0.02 -0.03,-0.04l-0.03 -0.05 -0.24 -0.19c-0.03,-0.02 -0.04,-0.03 -0.05,-0.04 -0.01,-0.01 -0.02,-0.02 -0.02,-0.03l-0.01 -0.03c-0,-0.02 -0.01,-0.04 -0.02,-0.07l-0.02 -0.06c-0.02,-0.06 -0.03,-0.13 -0.05,-0.2 -0.01,-0.05 -0.02,-0.11 -0.03,-0.17 -0.01,-0.06 -0.01,-0.12 -0,-0.18 0.01,-0.07 0.02,-0.13 0.04,-0.19 0.02,-0.06 0.05,-0.12 0.08,-0.17l0 -0c0.02,-0.03 0.05,-0.06 0.07,-0.09 0,-0 0,-0 0,-0l0.01 -0.53 0.01 -1.29z"/>
    <path class="fil1" d="M2.76 5.07l-0.01 0.66c0,-0 0,-0 0,-0l0.39 -0.01c0.04,-0 0.06,-0 0.08,0 0.02,0.01 0.03,0.02 0.03,0.04l0.01 0.03c0,0.02 0.01,0.04 0.01,0.06 0,0.01 0.01,0.02 0.01,0.03 0,0 0.01,0.01 0.01,0.01 0,0 0,0 0,0 0,0 0.01,0 0.02,0l0 0c0.01,0 0.02,0.01 0.03,0.01 0.01,-0 0.03,-0.01 0.03,-0.01l0 -0c0.01,-0 0.02,-0 0.02,-0 0,0 0,0 0,0 0,-0 0.01,-0.01 0.01,-0.01 0,-0.01 0.01,-0.02 0.01,-0.03 0,-0.02 0.01,-0.04 0.01,-0.06l0.01 -0.03c0,-0.02 0.01,-0.03 0.03,-0.04 0.01,-0 0.04,-0 0.08,-0l0.39 0.01c0.01,0 0.01,0 0.02,0.01l-0.01 -0.69c-0.07,0 -0.15,0 -0.24,0 -0.13,0 -0.29,0 -0.45,0.01l-0.51 0.01z"/>
    <path class="fil1" d="M3.41 6.7c-0.02,-0 -0.04,-0 -0.05,-0 -0.02,0 -0.03,0 -0.05,0 -0.03,0 -0.06,0.01 -0.1,0.01 -0.04,0 -0.09,0.01 -0.14,0.02 -0.05,0.01 -0.1,0.03 -0.15,0.05 -0.05,0.02 -0.1,0.06 -0.15,0.1 -0.04,0.04 -0.08,0.08 -0.12,0.13l-0 0c-0.03,0.05 -0.06,0.11 -0.08,0.16 -0.02,0.06 -0.03,0.12 -0.04,0.18 -0.01,0.06 -0,0.12 0,0.18 0.01,0.06 0.02,0.11 0.03,0.16 0.02,0.08 0.04,0.15 0.05,0.2l0.02 0.06c0.01,0.04 0.01,0.06 0.02,0.07l0.01 0.02c0,0 0,0.01 0.01,0.01 0.01,0.01 0.02,0.02 0.05,0.04l0.24 0.19c0,0 0,0 0,0 0,0 0,0 0.01,0.01l0.04 0.06c-0,-0.08 -0.01,-0.17 -0.01,-0.25 -0,-0.03 -0,-0.07 -0.01,-0.11 -0,-0.04 -0,-0.08 0,-0.11 0,-0.03 0.01,-0.06 0.02,-0.07 0.01,-0.02 0.02,-0.03 0.03,-0.04 0.01,-0.01 0.03,-0.02 0.05,-0.02l0 -0c0.02,-0.01 0.05,-0.01 0.09,-0.02 0,-0 0.01,-0 0.01,-0 -0,-0 -0,-0.01 -0,-0.01 0,-0.01 0.01,-0.02 0.02,-0.02 0.05,0 0.1,0.01 0.15,0.01 0.05,-0 0.1,-0.01 0.15,-0.01 0.01,-0 0.02,0.01 0.02,0.02 0,0 -0,0.01 -0,0.01 0,0 0.01,0 0.01,0 0.04,0.01 0.07,0.01 0.09,0.02l0 0c0.02,0.01 0.04,0.01 0.05,0.02 0.01,0.01 0.03,0.02 0.03,0.04 0.01,0.02 0.01,0.04 0.01,0.07 0,0.03 0,0.07 0,0.11 -0,0.04 -0,0.08 -0.01,0.11 -0,0.08 -0.01,0.17 -0.01,0.25l0.04 -0.06c0,-0 0,-0 0.01,-0.01 0,-0 0,-0 0,-0l0.24 -0.19c0.02,-0.02 0.04,-0.03 0.05,-0.04 0.01,-0.01 0.01,-0.01 0.01,-0.01l0.01 -0.02c0,-0.02 0.01,-0.04 0.02,-0.07l0.02 -0.06c0.01,-0.05 0.03,-0.12 0.05,-0.2 0.01,-0.05 0.02,-0.11 0.03,-0.16 0.01,-0.06 0.01,-0.12 0,-0.18 -0.01,-0.06 -0.02,-0.12 -0.04,-0.18 -0.02,-0.06 -0.05,-0.11 -0.08,-0.16l-0 -0c-0.03,-0.05 -0.07,-0.09 -0.12,-0.13 -0.05,-0.04 -0.1,-0.07 -0.15,-0.1 -0.05,-0.02 -0.1,-0.04 -0.15,-0.05 -0.05,-0.01 -0.09,-0.02 -0.14,-0.02 -0.04,-0 -0.07,-0.01 -0.1,-0.01zm0.24 0.35l0 0zm-0.28 0.34c-0.01,-0 -0.03,-0 -0.04,0 0.01,-0 0.03,-0 0.04,0zm0 -0.04c-0.01,-0 -0.03,-0 -0.04,0 0.01,-0 0.03,-0 0.04,0zm0.25 -0.26l0 0zm-0.22 -0.1c0,-0.01 0.02,-0.02 0.03,-0.02 0.03,0.01 0.06,0.02 0.09,0.02 0.03,0.01 0.06,0.02 0.08,0.03 0.02,0.01 0.04,0.02 0.05,0.03 0.01,0.01 0.02,0.02 0.03,0.03 0.01,0.01 0.01,0.02 0.02,0.03 0,0.01 0.01,0.02 0.01,0.04l0 0c0,0.01 0,0.03 0,0.04 0,0.02 -0,0.03 -0,0.05 -0,0.02 -0,0.04 -0.01,0.06l-0 0c-0.01,0.02 -0.01,0.04 -0.03,0.06 -0.02,0.03 -0.06,0.04 -0.1,0.06 -0.01,0 -0.01,0 -0.02,-0 0.01,0.03 0.02,0.07 0.03,0.1l0 0c0,0.01 -0.01,0.02 -0.02,0.03 -0.01,0 -0.01,0 -0.01,-0 0,-0 0,-0 0,-0l0 -0.05c0,-0.02 0,-0.03 -0,-0.05 -0,-0.01 -0,-0.02 -0.01,-0.04 -0,-0 -0,-0 -0,-0 -0,-0 -0,-0 -0,-0 -0,-0 -0,-0 -0,-0.01 -0.01,-0.02 -0.03,-0.03 -0.06,-0.04 -0.03,-0.01 -0.06,-0.01 -0.1,-0.01 0.03,0 0.06,0 0.08,0 0.03,0 0.05,0.01 0.07,0.02 0.01,0.01 0.02,0.01 0.02,0.02 0,-0.01 0.01,-0.01 0.01,-0.01l0 -0c0.03,-0.01 0.06,-0.02 0.08,-0.04 0.01,-0.01 0.01,-0.02 0.02,-0.04l0 -0c0,-0.02 0.01,-0.03 0.01,-0.05 0,-0.02 0,-0.03 0,-0.05 0,-0.01 -0,-0.03 -0,-0.04l-0 -0c-0,-0.01 -0,-0.02 -0.01,-0.03 -0,-0.01 -0.01,-0.02 -0.01,-0.02 -0,-0.01 -0.01,-0.01 -0.02,-0.02 -0.01,-0.01 -0.02,-0.01 -0.04,-0.02 -0.02,-0.01 -0.04,-0.02 -0.07,-0.02 -0.03,-0.01 -0.06,-0.02 -0.09,-0.02 -0.01,-0 -0.02,-0.01 -0.02,-0.03zm-0.25 0.56c0.01,-0 0.01,-0.01 0.01,-0.02l0 -0c0.01,-0.04 0.02,-0.08 0.03,-0.1 0,-0.01 0.01,-0.02 0.01,-0.02 0.01,-0 0.02,-0.01 0.05,-0.01 0.02,-0 0.05,-0 0.08,-0 -0.03,0 -0.07,0 -0.09,0.01 -0.02,0 -0.03,0.01 -0.04,0.02 -0,0.01 -0.01,0.02 -0.01,0.03 -0,0.01 -0,0.03 -0,0.05l0 0.05c0,0.01 -0.01,0.02 -0.02,0.02 -0.01,0 -0.02,-0.01 -0.02,-0.02zm-0.1 -0.5l0 0zm0.03 0.03l0 0zm0.19 -0.11c0.01,-0 0.02,0 0.03,0.02 0,0.01 -0,0.02 -0.02,0.03 -0.03,0.01 -0.06,0.02 -0.09,0.02 -0.03,0.01 -0.05,0.02 -0.07,0.02 -0.02,0.01 -0.03,0.01 -0.04,0.02 -0.01,0.01 -0.01,0.01 -0.02,0.02 -0.01,0.01 -0.01,0.01 -0.01,0.02 -0,0.01 -0.01,0.02 -0.01,0.03l-0 0c-0,0.01 -0,0.02 -0,0.04 -0,0.02 0,0.03 0,0.05 0,0.02 0,0.03 0.01,0.05l0 0c0,0.01 0.01,0.03 0.02,0.04 0.02,0.02 0.05,0.03 0.08,0.04l0 0c0.01,0 0.01,0.01 0.01,0.01 -0,0.01 -0.01,0.01 -0.01,0.02 -0,0 -0,0 -0,0.01 -0.01,0 -0.01,0 -0.02,0 -0.04,-0.01 -0.07,-0.03 -0.1,-0.06 -0.01,-0.02 -0.02,-0.03 -0.03,-0.06l-0 -0c-0,-0.02 -0.01,-0.04 -0.01,-0.06 -0,-0.02 -0,-0.04 -0,-0.05 0,-0.02 0,-0.03 0,-0.04l0 -0c0,-0.01 0.01,-0.03 0.01,-0.04 0,-0.01 0.01,-0.02 0.02,-0.03 0.01,-0.01 0.01,-0.02 0.03,-0.03 0.01,-0.01 0.03,-0.02 0.05,-0.03 0.02,-0.01 0.05,-0.02 0.08,-0.03 0.03,-0.01 0.06,-0.02 0.09,-0.02z"/>
    <path class="fil1" d="M4.46 7.94l-0.16 -0 -0 0.53c0,0 -0,0.01 -0,0.01l0.18 0 -0 -0.03 -0.01 -0.39c-0,-0.04 -0,-0.07 -0,-0.11z"/>
    <path class="fil1" d="M2.43 8.17l-0 -0.23 -0.16 0c-0,0.03 -0,0.07 -0,0.11l-0.01 0.39 0 0.03 0.18 0c-0,-0 -0,-0.01 -0,-0.01l-0 -0.25 -0.07 -0c-0.01,-0 -0.02,-0.01 -0.02,-0.02 0,-0.01 0.01,-0.02 0.02,-0.02l0.07 0z"/>
    <path class="fil1" d="M2.21 8.45c0,-0.13 0.01,-0.27 0.01,-0.41 0,-0.1 0,-0.2 0,-0.27 0,-0.07 -0,-0.11 -0,-0.13 -0,-0.01 -0,-0.02 -0,-0.02 -0,-0 -0.01,-0 -0.02,-0.01l-0 -0c-0.02,-0 -0.05,-0 -0.1,-0.01 -0.05,-0 -0.13,-0 -0.2,-0 -0.07,0 -0.14,0 -0.18,0.01 -0.05,0 -0.08,0.01 -0.09,0.01l-0 0c-0.01,0 -0.02,0.01 -0.02,0.01 -0,0 -0,0.01 -0,0.02 -0,0.02 -0,0.06 -0,0.13 0,0.16 0,0.42 0,0.68 0,0 -0,0 -0,0.01l0.62 0 0 -0.02z"/>
    <path class="fil1" d="M1.49 8.45c0,-0.13 0.01,-0.27 0.01,-0.41 0,-0.1 0,-0.2 0,-0.27 0,-0.07 -0,-0.11 -0,-0.13 -0,-0.01 -0,-0.02 -0,-0.02 -0,-0 -0.01,-0 -0.02,-0.01l-0 -0c-0.02,-0 -0.05,-0 -0.1,-0.01 -0.05,-0 -0.13,-0 -0.2,-0 -0.07,0 -0.13,0 -0.18,0.01 -0.05,0 -0.08,0.01 -0.09,0.01l-0 0c-0.01,0 -0.02,0.01 -0.02,0.01 -0,0 -0,0.01 -0,0.02 -0,0.02 -0,0.06 -0,0.13 0,0.16 0,0.42 0,0.68 0,0 -0,0 -0,0.01l0.08 0 0.54 0 0 -0.02z"/>
    <path class="fil1" d="M4.51 8.04c0,0.04 0,0.09 0,0.13 0,-0 0.01,-0.01 0.02,-0.01l0.18 -0c0.01,-0 0.02,0.01 0.02,0.02 0,0.01 -0.01,0.02 -0.02,0.02l-0.18 0c-0.01,0 -0.01,-0 -0.02,-0 0,0.08 0,0.16 0,0.24l0 0.02 0.62 0c-0,-0 -0,-0 -0,-0.01 0,-0.26 0,-0.52 0,-0.68 0,-0.07 -0,-0.11 -0,-0.13 -0,-0.02 -0,-0.02 -0,-0.02 -0,-0 -0.01,-0 -0.02,-0.01l-0 -0c-0.02,-0 -0.05,-0.01 -0.09,-0.01 -0.05,-0 -0.12,-0 -0.18,-0.01 -0.07,-0 -0.15,-0 -0.2,0 -0.05,0 -0.08,0 -0.1,0.01l-0 0c-0.01,0 -0.02,0 -0.02,0.01 -0,0 -0,0 -0,0.02 -0,0.02 -0,0.06 -0,0.13 0,0.07 0,0.17 0,0.27z"/>
    <path class="fil1" d="M5.23 8.04c0,0.13 0.01,0.27 0.01,0.41l0 0.02 0.53 0 0.08 0c-0,-0 -0,-0 -0,-0.01 0,-0.26 0,-0.52 0,-0.68 0,-0.07 -0,-0.11 -0,-0.13 -0,-0.02 -0,-0.02 -0,-0.02 -0,-0 -0.01,-0 -0.02,-0.01l-0 -0c-0.02,-0 -0.05,-0.01 -0.09,-0.01 -0.05,-0 -0.12,-0 -0.18,-0.01 -0.07,-0 -0.15,-0 -0.2,0 -0.05,0 -0.08,0 -0.1,0.01l-0 0c-0.01,0 -0.02,0 -0.02,0.01 -0,0 -0,0 -0,0.02 -0,0.02 -0,0.06 -0,0.13 0,0.07 0,0.17 0,0.27z"/>
    <path class="fil1" d="M2.24 5.03l-0.02 0 0.02 -0zm0.05 -0c-0.02,0 -0.03,0 -0.05,0l0.05 -0zm0.15 -0l-0.15 0c0.05,-0 0.1,-0 0.15,-0zm0.32 -0.01c0.13,-0 0.27,-0.01 0.39,-0.01l-0.39 0.01zm-0.02 0c0.01,-0 0.01,-0 0.02,-0l-0.02 0zm1.67 0.04c-0,0 -0,0 0,0zm0 -0l0 0zm-0.03 0.17c0.01,-0.01 0.02,-0.02 0.05,-0.03 0.01,-0 0.01,-0 0.02,-0.01 0,-0 0.01,-0 0.01,-0 0,-0 0.01,-0 0.01,-0 0.01,-0 0.01,-0 0.02,-0 0.01,-0 0.01,-0 0.02,-0l-0.02 -0.14c-0,-0.02 -0,-0.03 -0.02,-0.05l-0 -0c-0.01,-0.01 -0.03,-0.02 -0.07,-0.03 -0.03,-0 -0.06,-0.01 -0.12,-0.01 -0.05,-0 -0.13,-0 -0.22,-0 -0.09,-0 -0.21,0 -0.35,0l-0.45 0.01c-0.32,0.01 -0.67,0.01 -1.03,0.02l-0.02 0 -0.02 0c-0.01,0 -0.02,0.01 -0.02,0.02 0,0.02 0,0.04 0,0.06 0,0.01 0.01,0.02 0.02,0.02l0.02 -0 0.19 -0 0 -0.02c0,-0.01 0.01,-0.02 0.02,-0.02 0,0 0,0 0,0 0,0 0,0 0,0 0.1,-0 0.2,-0 0.3,-0.01 0,0 0,0 0,0 0.01,0 0.02,0.01 0.02,0.02 0,0 0,0 0,0l-0 0.02 0.51 -0.01c0.16,-0 0.31,-0.01 0.45,-0.01 0.09,-0 0.17,-0 0.24,-0l0 -0c0,-0.01 0,-0.02 0.01,-0.02 0,-0 0.01,-0 0.01,-0 0,0 0.01,0 0.01,0 0.01,0 0.01,0.01 0.01,0.02l0 0c0.02,-0 0.04,-0 0.06,-0 0.08,0 0.14,0 0.19,0 0,-0.01 0.01,-0.02 0.02,-0.02 0.01,0 0.02,0.01 0.02,0.02l0 0 -0 0.3 0.02 -0.03c0.01,-0.01 0.02,-0.03 0.03,-0.04l0 -0c0.01,-0.01 0.02,-0.03 0.03,-0.04zm0.07 -0.18c-0,-0.01 -0,-0.02 -0.01,-0.03 -0.01,-0.01 -0.02,-0.01 -0.04,-0.01 0.03,0 0.04,0.01 0.04,0.02l0 0c0,0.01 0.01,0.01 0.01,0.02zm0.01 0.07l-0.01 -0.07c0,0.02 0.01,0.05 0.01,0.07z"/>
    <path class="fil1" d="M4.31 5.48c-0,0.02 -0,0.04 -0,0.08l-0 0.75 0.16 -0c-0,-0 -0.01,-0.01 -0.01,-0.01 -0.01,-0.01 -0.01,-0.02 -0.01,-0.03 -0,-0.01 -0,-0.01 -0,-0.02 0,-0.02 0,-0.05 0,-0.15l-0 -0.18c-0,-0.13 -0,-0.28 -0,-0.38 0,-0.07 0,-0.12 0.01,-0.14 0,-0.03 0.01,-0.04 0.02,-0.06 0.01,-0.01 0.02,-0.02 0.03,-0.03 0.01,-0.01 0.03,-0.02 0.05,-0.03 0.02,-0.01 0.04,-0.02 0.06,-0.03 0.01,-0 0.01,-0.01 0.02,-0.01 -0.05,0 -0.08,0.01 -0.11,0.01 -0,0 -0.01,0.01 -0.01,0.01l-0.04 0.01c-0.02,0.01 -0.03,0.02 -0.04,0.02 -0.01,0.01 -0.02,0.02 -0.03,0.03l-0 0c-0.01,0.01 -0.02,0.02 -0.02,0.04l-0.02 0.04 -0.02 0.04c-0,0.01 -0.01,0.02 -0.01,0.06z"/>
    <g>
     <rect class="fil10" x="0.81" y="8.52" width="5.03" height="12.4"/>
     <path class="fil11" d="M0.79 8.47l5.14 0 0 12.48 -5.18 0 0 -12.48 0.04 0zm5.06 0.08l-5.01 0 0 12.32 5.01 0 0 -12.32z"/>
     <path class="fil11" d="M0.94 8.68l4.83 0 0 12.07 -4.88 0 0 -12.07 0.04 0zm4.75 0.08l-4.71 0 0 11.91 4.71 0 0 -11.91z"/>
     <path class="fil11" d="M5.84 20.48l-0.07 0 0 0.26 -0.23 0 0 0.13 0.3 0 0 -0.39zm-0.11 -0.08l0.2 0 0 0.55 -0.47 0 0 -0.29 0.23 0 0 -0.26 0.04 0z"/>
     <path class="fil11" d="M1.08 20.87l0 -0.13 -0.18 0 0 -0.26 -0.07 0 0 0.39 0.25 0zm0.08 -0.17l0 0.25 -0.42 0 0 -0.55 0.24 0 0 0.26 0.18 0 0 0.04z"/>
     <path class="fil11" d="M0.87 8.55l-0.04 0 0 0.29 0.07 0 0 -0.16 0.17 0 0 -0.1 -0.2 -0.01 -0.01 -0.02zm-0.08 -0.08l0.14 0 0.01 0.02 0.22 0.01 0 0.26 -0.17 0 0 0.16 -0.24 0 0 -0.45 0.04 0z"/>
     <path class="fil11" d="M5.59 8.59l0 0.09 0.18 0 0 0.16 0.07 0 0 -0.29 -0.06 0c-0.04,0.04 -0.09,0.04 -0.2,0.04zm-0.08 0.13l0 -0.21 0.08 -0c0.1,0 0.13,0 0.15,-0.02l0.01 -0.02 0.18 0 0 0.45 -0.24 0 0 -0.16 -0.18 0 0 -0.04z"/>
     <path class="fil11" d="M0.84 20.91l5.02 0 0 0.42 -5.04 0 0 -0.42 0.02 0zm4.97 0.04l-4.95 0 0 0.34 4.95 0 0 -0.34z"/>
     <path class="fil11" d="M5.66 21.29l0.15 0 0 -0.34 -0.15 0 0 0.34zm0.17 0.04l-0.22 0 0 -0.42 0.24 0 0 0.42 -0.02 0z"/>
     <path class="fil11" d="M0.85 21.29l0.15 0 0 -0.34 -0.15 0 0 0.34zm0.17 0.04l-0.22 0 0 -0.42 0.24 0 0 0.42 -0.02 0z"/>
     <path class="fil11" d="M3.04 21.29l0.15 0 0 -0.34 -0.15 0 0 0.34zm0.17 0.04l-0.22 0 0 -0.42 0.24 0 0 0.42 -0.02 0z"/>
     <path class="fil11" d="M3.43 21.29l0.15 0 0 -0.34 -0.15 0 0 0.34zm0.17 0.04l-0.22 0 0 -0.42 0.24 0 0 0.42 -0.02 0z"/>
     <path class="fil11" d="M0.85 21.32l1.32 0 0 0.21 -1.24 0c-0.03,0 -0.06,-0.01 -0.08,-0.03 -0.02,-0.02 -0.03,-0.04 -0.03,-0.07l0 -0.11 0.02 0zm1.28 0.04l-1.26 0 0 0.07c0,0.02 0.01,0.03 0.02,0.04 0.01,0.01 0.03,0.02 0.04,0.02l1.2 0 0 -0.13z"/>
     <path class="fil11" d="M5.81 21.36l-1.26 0 0 0.13 1.2 0c0.02,0 0.03,-0.01 0.04,-0.02 0.01,-0.01 0.02,-0.03 0.02,-0.04l0 -0.07zm-1.28 -0.04l1.32 0 0 0.11c0,0.03 -0.01,0.05 -0.03,0.07 -0.02,0.02 -0.05,0.03 -0.07,0.03l-1.24 0 0 -0.21 0.02 0z"/>
     <path class="fil11" d="M4.36 21.36l-2.04 0 0 0.13 0.09 0 0 0.04 -0.13 0 0 -0.21 0.02 0 2.11 0 0 0.21 -0.13 0 0 -0.04 0.09 0 0 -0.13zm-0.42 0.17l-1.2 0 0 -0.04 1.2 0 0 0.04z"/>
     <path class="fil11" d="M5.66 20.97l0 0.09 0.15 0 0 -0.09 -0.15 0zm-0.04 0.11l0 -0.15 0.24 0 0 0.17 -0.24 0 0 -0.02z"/>
     <path class="fil11" d="M1.01 21.06l0 -0.09 -0.15 0 0 0.09 0.15 0zm0.04 -0.11l0 0.15 -0.23 0 0 -0.17 0.23 0 0 0.02z"/>
     <path class="fil11" d="M1.37 21.48l0 -0.13 -0.29 0 0 0.13 0.29 0zm0.04 -0.15l0 0.19 -0.37 0 0 -0.21 0.37 0 0 0.02z"/>
     <path class="fil11" d="M1.62 21.36l0 0.13 0.29 0 0 -0.13 -0.29 0zm-0.04 0.15l0 -0.19 0.37 0 0 0.21 -0.37 0 0 -0.02z"/>
     <path class="fil11" d="M4.77 21.36l0 0.13 0.29 0 0 -0.13 -0.29 0zm-0.04 0.15l0 -0.19 0.37 0 0 0.21 -0.37 0 0 -0.02z"/>
     <path class="fil11" d="M5.3 21.36l0 0.13 0.29 0 0 -0.13 -0.29 0zm-0.04 0.15l0 -0.19 0.37 0 0 0.21 -0.37 0 0 -0.02z"/>
     <path class="fil11" d="M2.43 21.42l0 0.13 0.29 0 0 -0.13 -0.29 0zm-0.04 0.15l0 -0.19 0.37 0 0 0.21 -0.37 0 0 -0.02z"/>
     <path class="fil11" d="M3.96 21.42l0 0.13 0.29 0 0 -0.13 -0.29 0zm-0.04 0.15l0 -0.19 0.37 0 0 0.21 -0.37 0 0 -0.02z"/>
     <path class="fil11" d="M0.77 9.18l0.21 0 0 0.29 -0.26 0 0 -0.29 0.04 0zm0 10.64l0.21 0 0 0.29 -0.26 0 0 -0.29 0.04 0zm0.13 0.08l-0.09 0 0 0.13 0.09 0 0 -0.13zm-0.13 -0.84l0.21 0 0 0.29 -0.26 0 0 -0.29 0.04 0zm0.13 0.08l-0.09 0 0 0.13 0.09 0 0 -0.13zm-0.13 -0.84l0.21 0 0 0.29 -0.26 0 0 -0.29 0.04 0zm0.13 0.08l-0.09 0 0 0.13 0.09 0 0 -0.13zm-0.13 -0.84l0.21 0 0 0.29 -0.26 0 0 -0.29 0.04 0zm0.13 0.08l-0.09 0 0 0.13 0.09 0 0 -0.13zm-0.13 -0.84l0.21 0 0 0.29 -0.26 0 0 -0.29 0.04 0zm0.13 0.08l-0.09 0 0 0.13 0.09 0 0 -0.13zm-0.13 -0.84l0.21 0 0 0.29 -0.26 0 0 -0.29 0.04 0zm0.13 0.08l-0.09 0 0 0.13 0.09 0 0 -0.13zm-0.13 -0.84l0.21 0 0 0.29 -0.26 0 0 -0.29 0.04 0zm0.13 0.08l-0.09 0 0 0.13 0.09 0 0 -0.13zm-0.13 -0.84l0.21 0 0 0.29 -0.26 0 0 -0.29 0.04 0zm0.13 0.08l-0.09 0 0 0.13 0.09 0 0 -0.13zm-0.13 -0.84l0.21 0 0 0.29 -0.26 0 0 -0.29 0.04 0zm0.13 0.08l-0.09 0 0 0.13 0.09 0 0 -0.13zm-0.13 -0.84l0.21 0 0 0.29 -0.26 0 0 -0.29 0.04 0zm0.13 0.08l-0.09 0 0 0.13 0.09 0 0 -0.13zm-0.13 -0.84l0.21 0 0 0.29 -0.26 0 0 -0.29 0.04 0zm0.13 0.08l-0.09 0 0 0.13 0.09 0 0 -0.13zm-0.13 -0.84l0.21 0 0 0.29 -0.26 0 0 -0.29 0.04 0zm0.13 0.08l-0.09 0 0 0.13 0.09 0 0 -0.13zm-0.13 -0.84l0.21 0 0 0.29 -0.26 0 0 -0.29 0.04 0zm0.13 0.08l-0.09 0 0 0.13 0.09 0 0 -0.13zm-0.13 -0.84l0.21 0 0 0.29 -0.26 0 0 -0.29 0.04 0zm0.13 0.08l-0.09 0 0 0.13 0.09 0 0 -0.13zm0 -0.76l-0.09 0 0 0.13 0.09 0 0 -0.13z"/>
     <path class="fil11" d="M5.71 9.18l0.21 0 0 0.29 -0.26 0 0 -0.29 0.04 0zm0 10.64l0.21 0 0 0.29 -0.26 0 0 -0.29 0.04 0zm0.13 0.08l-0.09 0 0 0.13 0.09 0 0 -0.13zm-0.13 -0.84l0.21 0 0 0.29 -0.26 0 0 -0.29 0.04 0zm0.13 0.08l-0.09 0 0 0.13 0.09 0 0 -0.13zm-0.13 -0.84l0.21 0 0 0.29 -0.26 0 0 -0.29 0.04 0zm0.13 0.08l-0.09 0 0 0.13 0.09 0 0 -0.13zm-0.13 -0.84l0.21 0 0 0.29 -0.26 0 0 -0.29 0.04 0zm0.13 0.08l-0.09 0 0 0.13 0.09 0 0 -0.13zm-0.13 -0.84l0.21 0 0 0.29 -0.26 0 0 -0.29 0.04 0zm0.13 0.08l-0.09 0 0 0.13 0.09 0 0 -0.13zm-0.13 -0.84l0.21 0 0 0.29 -0.26 0 0 -0.29 0.04 0zm0.13 0.08l-0.09 0 0 0.13 0.09 0 0 -0.13zm-0.13 -0.84l0.21 0 0 0.29 -0.26 0 0 -0.29 0.04 0zm0.13 0.08l-0.09 0 0 0.13 0.09 0 0 -0.13zm-0.13 -0.84l0.21 0 0 0.29 -0.26 0 0 -0.29 0.04 0zm0.13 0.08l-0.09 0 0 0.13 0.09 0 0 -0.13zm-0.13 -0.84l0.21 0 0 0.29 -0.26 0 0 -0.29 0.04 0zm0.13 0.08l-0.09 0 0 0.13 0.09 0 0 -0.13zm-0.13 -0.84l0.21 0 0 0.29 -0.26 0 0 -0.29 0.04 0zm0.13 0.08l-0.09 0 0 0.13 0.09 0 0 -0.13zm-0.13 -0.84l0.21 0 0 0.29 -0.26 0 0 -0.29 0.04 0zm0.13 0.08l-0.09 0 0 0.13 0.09 0 0 -0.13zm-0.13 -0.84l0.21 0 0 0.29 -0.26 0 0 -0.29 0.04 0zm0.13 0.08l-0.09 0 0 0.13 0.09 0 0 -0.13zm-0.13 -0.84l0.21 0 0 0.29 -0.26 0 0 -0.29 0.04 0zm0.13 0.08l-0.09 0 0 0.13 0.09 0 0 -0.13zm-0.13 -0.84l0.21 0 0 0.29 -0.26 0 0 -0.29 0.04 0zm0.13 0.08l-0.09 0 0 0.13 0.09 0 0 -0.13zm0 -0.76l-0.09 0 0 0.13 0.09 0 0 -0.13z"/>
     <polygon class="fil12" points="1.08,20.74 0.9,20.74 0.9,20.48 0.83,20.48 0.83,20.87 1.08,20.87 "/>
     <polygon class="fil12" points="5.55,20.74 5.55,20.87 5.84,20.87 5.84,20.48 5.78,20.48 5.78,20.74 "/>
     <polygon class="fil13" points="3,21.29 3,20.95 1.16,20.95 1.05,20.95 1.05,21.1 1.05,21.29 "/>
     <polygon class="fil13" points="3.63,20.95 3.63,21.29 5.62,21.29 5.62,21.1 5.62,21.08 5.62,20.95 5.46,20.95 "/>
     <polygon class="fil13" points="3.58,21.29 3.58,20.95 3.43,20.95 3.43,21.29 "/>
     <polygon class="fil13" points="3.39,21.29 3.39,20.95 3.24,20.95 3.24,21.29 "/>
     <polygon class="fil13" points="3.2,21.29 3.2,20.95 3.04,20.95 3.04,21.29 "/>
     <polygon class="fil13" points="1.01,21.06 1.01,20.97 0.86,20.97 0.86,21.06 "/>
     <polygon class="fil8" points="1.01,21.1 0.86,21.1 0.86,21.29 1.01,21.29 "/>
     <polygon class="fil8" points="5.66,21.1 5.66,21.29 5.81,21.29 5.81,21.1 "/>
     <polygon class="fil13" points="5.66,21.06 5.81,21.06 5.81,20.97 5.66,20.97 "/>
     <path class="fil8" d="M1.04 21.48l0 -0.13 -0.17 0 0 0.07c0,0.02 0.01,0.03 0.02,0.04 0.01,0.01 0.03,0.02 0.04,0.02l0.11 0z"/>
     <polygon class="fil12" points="1.08,21.36 1.08,21.48 1.37,21.48 1.37,21.36 "/>
     <polygon class="fil8" points="1.41,21.36 1.41,21.48 1.57,21.48 1.57,21.36 "/>
     <polygon class="fil14" points="1.62,21.36 1.62,21.48 1.9,21.48 1.9,21.36 "/>
     <polygon class="fil8" points="1.95,21.36 1.95,21.48 2.13,21.48 2.13,21.36 "/>
     <polygon class="fil8" points="4.55,21.36 4.55,21.48 4.73,21.48 4.73,21.36 "/>
     <polygon class="fil14" points="4.77,21.36 4.77,21.48 5.06,21.48 5.06,21.36 "/>
     <polygon class="fil8" points="5.1,21.36 5.1,21.48 5.26,21.48 5.26,21.36 "/>
     <polygon class="fil12" points="5.3,21.36 5.3,21.48 5.59,21.48 5.59,21.36 "/>
     <path class="fil8" d="M5.63 21.36l0 0.13 0.11 0c0.02,0 0.03,-0.01 0.04,-0.02 0.01,-0.01 0.02,-0.03 0.02,-0.04l0 -0.07 -0.17 0z"/>
     <polygon class="fil15" points="2.39,21.48 2.39,21.38 2.76,21.38 2.76,21.48 3.92,21.48 3.92,21.38 4.29,21.38 4.29,21.48 4.36,21.48 4.36,21.36 2.32,21.36 2.32,21.48 "/>
     <polygon class="fil15" points="2.43,21.42 2.43,21.55 2.71,21.55 2.71,21.42 "/>
     <polygon class="fil15" points="3.96,21.42 3.96,21.55 4.25,21.55 4.25,21.42 "/>
     <line class="fil16 str1" x1="0.98" y1="9.71" x2="5.69" y2= "9.71" />
     <line class="fil16 str1" x1="0.98" y1="10.97" x2="5.69" y2= "10.97" />
     <line class="fil16 str1" x1="0.98" y1="12.23" x2="5.69" y2= "12.23" />
     <line class="fil16 str1" x1="0.98" y1="13.48" x2="5.69" y2= "13.48" />
     <line class="fil16 str1" x1="0.98" y1="14.74" x2="5.69" y2= "14.74" />
     <line class="fil16 str1" x1="0.98" y1="16" x2="5.69" y2= "16" />
     <line class="fil16 str1" x1="0.98" y1="17.25" x2="5.69" y2= "17.25" />
     <line class="fil16 str1" x1="0.98" y1="18.51" x2="5.69" y2= "18.51" />
     <line class="fil16 str1" x1="0.98" y1="19.77" x2="5.69" y2= "19.77" />
    </g>
    <path class="fil8" d="M2.41 5.42l-0.02 -0.04 -0.02 -0.04c-0.01,-0.01 -0.01,-0.02 -0.02,-0.04l-0 -0c-0.01,-0.01 -0.02,-0.02 -0.03,-0.03 -0.01,-0.01 -0.02,-0.02 -0.06,-0.03 -0.04,-0.01 -0.1,-0.02 -0.2,-0.02 -0.05,-0 -0.1,-0 -0.17,-0 -0,0.01 -0.01,0.02 -0.02,0.02l-0.04 0c-0.01,0 -0.02,-0.01 -0.02,-0.02 -0.05,0 -0.1,0 -0.16,0 -0.17,0 -0.36,0.01 -0.54,0.02 -0,0 -0,0 -0,0 -0,0 -0,0 -0,0l-0 0c-0.08,0 -0.15,0 -0.19,0.01 -0.01,0 -0.02,0.01 -0.02,0.03 -0.01,0.03 -0.01,0.07 -0.02,0.15 -0,0.06 -0.01,0.14 -0.01,0.23 0.04,-0.04 0.08,-0.07 0.11,-0.09 0.02,-0.02 0.04,-0.03 0.08,-0.03 0.04,-0.01 0.1,-0.01 0.21,-0.01 0.18,-0 0.48,-0 0.71,-0l0.23 0c0.15,-0 0.16,-0 0.18,0.01 0.01,0.01 0.03,0.02 0.04,0.03l0 -0.01c-0,-0.03 -0,-0.06 -0,-0.08 -0,-0.04 -0.01,-0.05 -0.01,-0.06z"/>
    <path class="fil8" d="M1.97 5.55c-0.23,-0 -0.53,-0 -0.71,0 -0.11,0 -0.17,0 -0.21,0.01 -0.04,0.01 -0.05,0.01 -0.07,0.03 -0.03,0.02 -0.08,0.06 -0.13,0.1 -0,0.04 -0,0.08 -0,0.13 -0,0.05 -0,0.09 -0,0.14 0.05,-0.04 0.09,-0.07 0.12,-0.1 0.02,-0.02 0.04,-0.03 0.08,-0.03 0.04,-0.01 0.1,-0.01 0.21,-0.01 0.18,-0 0.48,-0 0.71,-0l0.23 0c0.15,0 0.16,0 0.18,0.01 0.01,0.01 0.03,0.02 0.04,0.03l-0 -0.26 -0 0 -0 -0c-0.02,-0.02 -0.04,-0.03 -0.05,-0.04 -0.01,-0.01 -0.02,-0.01 -0.17,-0.01l-0.23 0z"/>
    <path class="fil8" d="M1.97 5.84c-0.23,-0 -0.53,-0 -0.71,0 -0.11,0 -0.17,0 -0.21,0.01 -0.04,0.01 -0.05,0.01 -0.07,0.03 -0.03,0.03 -0.08,0.07 -0.13,0.11 0,0.04 0,0.07 0,0.11 0,0.09 0.01,0.14 0.02,0.18 0.01,0.02 0.02,0.04 0.03,0.05 0.01,-0 0.02,-0.01 0.02,-0.01l0 -0c0.02,-0.01 0.03,-0.01 0.08,-0.01 0.04,-0 0.11,-0 0.24,-0l1.18 0 -0 -0.42 -0 0 -0 -0c-0.02,-0.02 -0.04,-0.03 -0.05,-0.04 -0.01,-0.01 -0.02,-0.01 -0.17,-0.01l-0.23 -0z"/>
    <path class="fil8" d="M0.91 6.37c-0,0 -0,0 -0,0 0,-0 0,-0 0,-0zm1.52 -0.02l-1.18 -0c-0.13,-0 -0.2,-0 -0.24,0 -0.04,0 -0.05,0 -0.06,0.01l-0 0c-0.01,0 -0.02,0.01 -0.03,0.02 0.01,-0.01 0.01,-0.02 0,-0.03 -0,-0.01 -0.01,-0.01 -0.01,-0.02 -0.01,-0.01 -0.02,-0.03 -0.03,-0.05 -0.01,-0.04 -0.02,-0.09 -0.02,-0.18 -0,-0.03 -0,-0.07 -0,-0.11 -0.01,0.01 -0.02,0.02 -0.04,0.03l-0 0 -0.01 -0.01c0,0.03 0,0.06 0,0.09 0,0.09 0.01,0.15 0.03,0.19 0.01,0.03 0.02,0.05 0.03,0.07 0,0.01 0.01,0.01 0.01,0.02 0.01,0.01 0.02,0.01 0.03,0 -0.01,0.01 -0.02,0.02 -0.03,0.03 -0.01,0.01 -0.01,0.01 -0.01,0.03 -0,0.03 -0.01,0.07 -0.01,0.16 -0,0.09 -0.01,0.23 -0.01,0.37 -0,0.01 -0,0.01 -0,0.02 0.05,-0.04 0.1,-0.08 0.13,-0.11 0.02,-0.02 0.04,-0.03 0.08,-0.03 0.04,-0.01 0.1,-0.01 0.21,-0.01 0.18,-0 0.48,-0 0.71,-0l0.23 0c0.15,-0 0.16,-0 0.18,0.01 0.01,0.01 0.03,0.02 0.04,0.03l-0 -0.53z"/>
    <path class="fil8" d="M1.26 6.86c-0.11,0 -0.17,0 -0.21,0.01 -0.04,0.01 -0.05,0.01 -0.07,0.03 -0.04,0.03 -0.09,0.07 -0.14,0.12 -0,0.11 -0,0.22 -0.01,0.29 -0,0.09 0,0.14 0.01,0.16 0,0.02 0,0.02 0,0.02 0,0 0.01,0 0.02,0.01 0.01,0 0.01,0 0.02,0 0.01,0 0.02,0 0.05,0l0.23 -0 0.58 -0.01 0.39 -0.01c0.12,-0 0.19,-0.01 0.23,-0.01 0.03,-0 0.04,-0 0.05,-0.01 0.01,-0 0.01,-0 0.02,-0.01l-0 -0.55 -0 0 -0 -0c-0.02,-0.02 -0.04,-0.03 -0.05,-0.04 -0.01,-0.01 -0.02,-0.01 -0.17,-0.01l-0.23 -0c-0.23,-0 -0.53,-0 -0.71,0z"/>
    <path class="fil8" d="M4.52 6.9l0 0zm-0.03 -0.28l0.01 0.76c0,0.03 -0,0.04 -0,0.05l0 0c-0,0.01 -0,0.03 -0,0.03 0,0 0.01,0 0.01,0 0,-0 0,-0 0,-0 0.01,-0 0.03,-0.01 0.04,-0.02l0.01 0.02c0.01,0 0.01,0 0.02,0l0.39 0.01 0.58 0.01 0.23 0c0.04,0 0.04,0 0.05,-0 0.01,-0 0.02,-0 0.02,-0 0.01,-0 0.01,-0 0.02,-0.01 0,-0 0,-0 0,-0.02 0,-0.03 0.01,-0.07 0.01,-0.16 -0,-0.08 -0,-0.19 -0.01,-0.31 -0.04,-0.04 -0.08,-0.08 -0.11,-0.1 -0.02,-0.01 -0.03,-0.02 -0.06,-0.03 -0.03,-0.01 -0.09,-0.01 -0.18,-0.01 -0.16,-0 -0.42,-0 -0.62,-0l-0.2 0c-0.12,-0 -0.13,-0 -0.14,0.01 -0.01,0.01 -0.03,0.02 -0.04,0.04l-0.02 -0.01 0 -0c0.02,-0.02 0.03,-0.04 0.05,-0.05 0.01,-0.01 0.03,-0.01 0.16,-0.01l0.2 0c0.2,-0 0.47,-0 0.62,0 0.1,0 0.15,0 0.19,0.01 0.04,0.01 0.05,0.02 0.07,0.03 0.03,0.02 0.06,0.05 0.1,0.09 -0,-0.14 -0.01,-0.28 -0.01,-0.37 -0,-0.09 -0.01,-0.14 -0.01,-0.16 -0,-0.02 -0.01,-0.03 -0.01,-0.03 -0.01,-0.01 -0.02,-0.02 -0.03,-0.03 -0,-0 -0,-0 -0,-0 -0.01,-0.01 -0.02,-0.01 -0.03,-0.02l-0 -0c-0.01,-0 -0.02,-0.01 -0.06,-0.01 -0.04,-0 -0.11,-0 -0.24,-0l-0.87 0c-0.01,0 -0.02,0.01 -0.03,0.01 -0.01,0 -0.02,0.01 -0.03,0.01 -0.01,0.01 -0.03,0.02 -0.04,0.03 -0.01,0.01 -0.02,0.02 -0.02,0.03 -0.01,0.01 -0.01,0.02 -0.01,0.04 -0,0.03 -0,0.08 -0,0.15z"/>
    <path class="fil8" d="M4.52 5.96l0 0zm0.11 0.34l0.86 -0c0.13,-0 0.2,-0 0.24,0 0.04,0 0.06,0 0.08,0.01l0 0c0.01,0 0.02,0.01 0.02,0.01 0.01,-0.01 0.02,-0.03 0.03,-0.05 0.01,-0.04 0.02,-0.09 0.02,-0.18 0,-0.01 0,-0.03 0,-0.04 -0.04,-0.04 -0.08,-0.07 -0.1,-0.09 -0.02,-0.01 -0.03,-0.02 -0.06,-0.03 -0.03,-0.01 -0.09,-0.01 -0.18,-0.01 -0.16,-0 -0.42,-0 -0.62,-0l-0.2 0c-0.12,0 -0.13,0 -0.14,0.01 -0.01,0.01 -0.03,0.02 -0.04,0.04l-0.02 -0.01 0 -0c0.02,-0.02 0.03,-0.04 0.05,-0.05 0.01,-0.01 0.03,-0.01 0.16,-0.01l0.2 -0c0.2,-0 0.47,-0 0.62,0 0.1,0 0.15,0 0.19,0.01 0.04,0.01 0.05,0.02 0.07,0.03 0.02,0.02 0.05,0.05 0.09,0.08 0,-0.06 0,-0.13 -0,-0.2 -0,-0.14 -0.01,-0.29 -0.02,-0.39 -0,-0.08 -0.01,-0.13 -0.02,-0.15 -0,-0.02 -0.01,-0.02 -0.02,-0.03 -0.04,-0.01 -0.11,-0.01 -0.19,-0.01l-0 0c-0,0 -0,0 -0,0 -0,0 -0,0 -0,0 -0.19,-0.01 -0.38,-0.01 -0.54,-0.02 -0.16,-0 -0.3,-0 -0.4,-0l0.01 0.02 -0.07 0.03c-0.02,0.01 -0.04,0.02 -0.06,0.03 -0.02,0.01 -0.03,0.02 -0.04,0.03 -0.01,0.01 -0.02,0.02 -0.03,0.03 -0.01,0.01 -0.01,0.02 -0.01,0.04 -0,0.02 -0.01,0.07 -0.01,0.14 -0,0.1 0,0.25 0,0.38l0 0.18c0,0.09 -0,0.13 -0,0.15l0 0.01c0,0 0,0.01 0,0.01 0,0 0,0 0.01,0.01 0.01,0 0.02,0 0.04,0.01l0.03 0c0.01,0 0.03,0 0.04,0.01 0.01,0 0.01,0.01 0.02,0.01z"/>
    <path class="fil8" d="M3.98 6.85l-0 -0.47 -0.61 -0.01 -0.61 0.01 -0 0.47c0,-0 0,-0 0.01,-0.01 0.05,-0.04 0.1,-0.08 0.16,-0.1 0.05,-0.03 0.11,-0.04 0.16,-0.05 0.05,-0.01 0.1,-0.02 0.14,-0.02 0.01,-0 0.02,-0 0.03,-0 0,-0 0.01,-0.01 0.01,-0.01 0.02,-0 0.04,-0.01 0.08,-0 0.01,0 0.02,0 0.03,0 0.01,-0 0.02,-0 0.03,-0 0.04,-0 0.06,0 0.08,0 0.01,0 0.01,0 0.01,0.01 0.01,0 0.02,0 0.03,0 0.04,0 0.09,0.01 0.14,0.02 0.05,0.01 0.1,0.03 0.16,0.05 0.05,0.03 0.11,0.06 0.16,0.1 0,0 0,0 0.01,0.01z"/>
    <path class="fil8" d="M3.36 5.95c-0,0 -0,-0 -0.01,0 0,0 0,-0 0.01,0zm0 0.37l0.59 -0.01c0.01,0 0.02,0 0.02,0.01l-0.01 -0.55c-0,0.01 -0.01,0.01 -0.02,0.01l-0.39 -0.01c-0.04,-0 -0.06,-0 -0.07,0 -0,0 0,0 0,0l-0 0.03c-0,0.02 -0.01,0.05 -0.01,0.07 -0,0.02 -0.01,0.03 -0.02,0.04 -0.01,0.01 -0.02,0.02 -0.03,0.03 -0.01,0.01 -0.02,0.01 -0.03,0.01 -0.01,0 -0.03,0 -0.04,0 0.02,-0 0.04,-0.01 0.05,-0.01l0.01 -0c0.01,0 0.02,-0.01 0.02,-0.02 0,-0.01 -0.01,-0.02 -0.02,-0.02 -0,0 -0,0 -0,0 -0,0 -0.01,0 -0.02,0 -0,0 -0,0 -0,0l-0 0c-0.01,0 -0.02,0.01 -0.03,0.01 -0,0 -0,0 -0,0 -0.01,0 -0.02,-0 -0.03,-0 -0.01,-0 -0.02,-0 -0.02,-0.01 -0,-0 -0,-0 -0,-0 -0.01,-0 -0.02,-0.02 -0.02,-0.04 0,-0 -0,-0 -0,-0 -0,-0.02 -0.01,-0.04 -0.01,-0.06l-0 -0.03c-0.01,-0.02 -0.02,-0.04 -0.04,-0.05l-0.47 0.01 -0 0c-0.01,0 -0.02,0.01 -0.02,0.02 0,0.01 0.01,0.02 0.02,0.02l-0.01 0.55c0,-0.01 0.01,-0.01 0.02,-0.01l0.59 0.01z"/>
    <g>
     <path class="fil11" d="M3.3 0.06c-0.19,0.01 -0.39,0.02 -0.58,0.04 -0.19,0.02 -0.38,0.04 -0.57,0.07 -0.18,0.03 -0.36,0.07 -0.52,0.11 -0.17,0.05 -0.32,0.09 -0.43,0.14 -0.1,0.04 -0.17,0.08 -0.21,0.12 -0.04,0.04 -0.07,0.07 -0.09,0.11 -0.02,0.04 -0.04,0.08 -0.05,0.14 -0.01,0.06 -0.03,0.14 -0.03,0.25 -0.01,0.11 -0.01,0.25 -0.02,0.41 -0,0.16 -0.01,0.34 -0.01,0.52 -0,0.18 -0,0.36 -0,0.53 0,0.17 0,0.32 0.01,0.43 0,0.11 0.01,0.19 0.03,0.25 0.01,0.06 0.03,0.09 0.05,0.13 0.02,0.04 0.05,0.07 0.09,0.09 0.03,0.02 0.07,0.04 0.11,0.05 0.08,0.02 0.18,0.01 0.34,-0.01l0.09 -0.01c0.11,-0.01 0.24,-0.02 0.39,-0.03 0.14,-0.01 0.31,-0.02 0.48,-0.03 0.17,-0.01 0.35,-0.02 0.52,-0.03 0.16,-0.01 0.31,-0.02 0.42,-0.02 0.11,-0 0.18,-0.01 0.24,-0.01 0.06,0 0.09,0 0.13,0l-0 0.04c-0.04,-0 -0.07,-0 -0.12,-0 -0.05,-0 -0.13,0 -0.24,0.01 -0.11,0 -0.26,0.01 -0.42,0.02 -0.16,0.01 -0.34,0.02 -0.51,0.03 -0.17,0.01 -0.33,0.02 -0.47,0.03 -0.15,0.01 -0.28,0.02 -0.39,0.03l-0.09 0.01c-0.16,0.02 -0.27,0.03 -0.35,0.01 -0.05,-0.01 -0.09,-0.03 -0.13,-0.06 -0.04,-0.03 -0.07,-0.06 -0.1,-0.1 -0.02,-0.04 -0.04,-0.08 -0.06,-0.14 -0.01,-0.06 -0.02,-0.14 -0.03,-0.26 -0.01,-0.12 -0.01,-0.27 -0.01,-0.43 0,-0.16 0,-0.35 0,-0.53 0,-0.18 0,-0.36 0.01,-0.52 0,-0.16 0.01,-0.31 0.02,-0.42 0.01,-0.11 0.02,-0.19 0.04,-0.25 0.02,-0.06 0.03,-0.11 0.06,-0.15 0.02,-0.04 0.05,-0.09 0.1,-0.13 0.05,-0.04 0.11,-0.08 0.22,-0.13 0.11,-0.05 0.26,-0.1 0.43,-0.14 0.16,-0.04 0.34,-0.08 0.53,-0.11 0.19,-0.03 0.38,-0.05 0.58,-0.07 0.19,-0.02 0.39,-0.03 0.58,-0.04l0 0.04z"/>
     <path class="fil11" d="M1.09 3.24l0.01 -0.01c0.15,-0.18 0.31,-0.35 0.4,-0.45 0.04,-0.05 0.07,-0.08 0.09,-0.1 0.02,-0.02 0.03,-0.03 0.05,-0.03 0.01,-0.01 0.03,-0.01 0.08,-0.02 0.05,-0.01 0.12,-0.01 0.27,-0.02 0.15,-0.01 0.36,-0.02 0.58,-0.04 0.21,-0.01 0.42,-0.02 0.57,-0.03 0.16,-0.01 0.26,-0.01 0.33,-0.01 0.07,-0 0.11,-0 0.15,0l-0 0.04c-0.04,-0 -0.08,-0 -0.15,-0 -0.07,0 -0.17,0 -0.33,0.01 -0.15,0.01 -0.36,0.02 -0.57,0.03 -0.22,0.01 -0.43,0.03 -0.58,0.04 -0.14,0.01 -0.22,0.02 -0.27,0.02 -0.04,0.01 -0.05,0.01 -0.06,0.01 -0.01,0 -0.02,0.01 -0.04,0.03 -0.02,0.02 -0.05,0.05 -0.09,0.09 -0.09,0.1 -0.24,0.27 -0.4,0.45l-0.01 0.01 -0.03 -0.03z"/>
     <polygon class="fil11" points="1.69,2.6 1.76,0.92 1.8,0.93 1.73,2.6 "/>
     <path class="fil17" d="M1.55 2c-0,-0.03 -0,-0.08 0,-0.12 0,-0.04 0.01,-0.06 0.02,-0.07 0.01,-0.02 0.03,-0.03 0.04,-0.03 0.01,-0 0.02,0 0.03,0.02 0.01,0.02 0.01,0.04 0.01,0.08 0,0.03 0,0.07 0,0.09 0,0.03 -0,0.04 -0.01,0.05 -0.01,0.01 -0.01,0.01 -0.02,0.01 -0.01,0 -0.02,0 -0.03,0 -0.01,0 -0.02,0 -0.03,0 -0.01,-0 -0.02,-0 -0.02,-0.03z"/>
     <path class="fil17" d="M2.09 0.08c-0.04,0.03 -0.1,0.09 -0.13,0.12 -0.03,0.03 -0.02,0.03 -0.01,0.03 0.01,0 0.01,0 0.03,0 0.01,0 0.03,-0 0.04,-0 0.01,-0 0.01,-0.01 0.04,-0.02 0.02,-0.01 0.06,-0.04 0.08,-0.06 0.02,-0.02 0.03,-0.03 0.04,-0.04 0.01,-0.01 0.03,-0 0.03,-0.01 -0,-0.01 -0.02,-0.03 -0.04,-0.04 -0.02,-0.01 -0.04,-0.01 -0.08,0.02z"/>
     <path class="fil11" d="M0.78 1.69l-0.01 0c-0.16,0.05 -0.32,0.1 -0.4,0.13 -0.04,0.02 -0.07,0.02 -0.09,0.04 -0.02,0.01 -0.03,0.02 -0.05,0.04 -0.02,0.02 -0.04,0.04 -0.07,0.06 -0.03,0.03 -0.06,0.06 -0.07,0.08 -0.02,0.02 -0.02,0.03 -0.03,0.04 -0.01,0.02 -0.01,0.04 -0.01,0.09 -0,0.06 -0,0.14 -0.01,0.23 -0,0.07 0,0.14 0,0.2 0,0.06 0.01,0.11 0.01,0.16 0.01,0.05 0.01,0.08 0.02,0.11 0.01,0.02 0.01,0.03 0.02,0.04 0.01,0.01 0.02,0.01 0.03,0.01 0.02,0 0.04,0 0.06,0 0.02,-0 0.05,-0.01 0.08,-0.01 0.03,-0.01 0.05,-0.01 0.08,-0.02 0.03,-0.01 0.05,-0.02 0.07,-0.02l0.01 -0c0.03,-0.01 0.05,-0.02 0.09,-0.02 0.02,-0 0.05,-0 0.08,-0 0.04,-0 0.07,-0 0.1,-0 0.05,0 0.07,0 0.08,0.01l-0.01 0.04c-0.01,-0 -0.03,-0 -0.07,-0.01 -0.03,-0 -0.06,0 -0.1,0 -0.03,0 -0.06,0 -0.08,0 -0.04,0 -0.06,0.01 -0.08,0.02l-0.01 0c-0.02,0.01 -0.04,0.01 -0.07,0.02 -0.03,0.01 -0.05,0.02 -0.08,0.02 -0.03,0.01 -0.06,0.01 -0.08,0.01 -0.03,0 -0.05,0 -0.07,-0 -0.02,-0 -0.04,-0.01 -0.05,-0.02 -0.01,-0.01 -0.02,-0.03 -0.03,-0.06 -0.01,-0.03 -0.02,-0.06 -0.02,-0.11 -0.01,-0.04 -0.01,-0.09 -0.01,-0.16 -0,-0.06 -0,-0.13 -0,-0.2 0,-0.09 0,-0.17 0.01,-0.23 0,-0.05 0,-0.08 0.01,-0.1 0.01,-0.02 0.02,-0.04 0.04,-0.06 0.02,-0.02 0.05,-0.05 0.08,-0.08 0.02,-0.02 0.05,-0.05 0.07,-0.07 0.02,-0.02 0.04,-0.03 0.06,-0.04 0.02,-0.01 0.05,-0.02 0.09,-0.04 0.09,-0.03 0.25,-0.08 0.4,-0.13l0.01 -0 0.01 0.04z"/>
     <path class="fil11" d="M0.76 1.91l-0.25 0.11c-0.03,0.01 -0.04,0.02 -0.05,0.02 -0,0 -0,0 -0,0l-0 0c-0,0 0,-0 0,0.01l0 0.1 0.01 0.28 0.01 0.18c0,0.06 0.01,0.09 0.01,0.11 0,0.01 -0,0.01 -0,0.01l0.01 -0c0.01,-0 0.02,-0 0.05,-0 0.01,-0 0.21,-0.02 0.21,-0.02l0 0c0.13,-0.02 0.16,-0.01 0.15,0 0.02,0 0.01,0.01 -0.04,0.02 -0.03,0.01 -0.07,0.02 -0.11,0.02 -0.07,0.01 -0.14,0.01 -0.21,0.02 -0.02,0 -0.04,0 -0.05,0 -0.01,0 -0.02,-0 -0.03,-0.01 -0.01,-0.01 -0.02,-0.01 -0.02,-0.04 -0,-0.02 -0.01,-0.05 -0.01,-0.11l-0.01 -0.18 -0.01 -0.28 -0 -0.11c-0,-0.02 0,-0.03 0.01,-0.03 0,-0.01 0.01,-0.01 0.02,-0.02 0.01,-0.01 0.02,-0.01 0.05,-0.02l0.25 -0.11 0.02 0.04z"/>
     <path class="fil11" d="M0.06 2.05c0.03,-0.03 0.07,-0.05 0.1,-0.08 0.03,-0.02 0.06,-0.05 0.09,-0.06 0.03,-0.02 0.05,-0.03 0.06,-0.03 0.02,-0.01 0.03,-0.01 0.05,-0.01 0.01,0 0.03,0 0.04,0.01 0.01,0 0.02,0.01 0.03,0.02 0.01,0.01 0.02,0.01 0.02,0.04 0,0.02 0.01,0.06 0.01,0.13 0.01,0.08 0.02,0.21 0.02,0.33 0.01,0.08 0.01,0.17 0.01,0.23 0,0.07 0,0.12 0,0.14 -0,0.03 -0.01,0.04 -0.01,0.05 -0,0.01 -0.01,0.02 -0.01,0.03 -0.01,0.01 -0.02,0.02 -0.04,0.03 -0.02,0.01 -0.04,0.02 -0.07,0.04 -0.02,0.01 -0.05,0.02 -0.08,0.03 -0.03,0.01 -0.05,0.01 -0.08,0.02 -0.02,0 -0.04,0 -0.06,0.01 -0.02,0 -0.04,0 -0.05,-0 -0.02,-0 -0.03,-0.01 -0.04,-0.02 -0.01,-0.01 -0.02,-0.02 -0.02,-0.04 -0.01,-0.02 -0.01,-0.04 -0.01,-0.05 -0,-0.03 -0,-0.05 -0,-0.07l0 -0.01c0,-0.03 0,-0.04 0.09,-0.07 0.07,-0.02 0.2,-0.06 0.34,-0.1 -0,-0.06 -0.01,-0.13 -0.01,-0.2 -0.01,-0.12 -0.02,-0.25 -0.02,-0.33 -0.01,-0.07 -0.01,-0.11 -0.01,-0.13 -0,-0.01 -0,-0.01 -0,-0.01 -0,-0 -0.01,-0.01 -0.02,-0.01 -0.01,-0 -0.02,-0 -0.02,-0 -0.01,-0 -0.02,0 -0.03,0 -0.01,0 -0.03,0.01 -0.05,0.03 -0.02,0.01 -0.05,0.03 -0.08,0.06 -0.03,0.02 -0.06,0.05 -0.1,0.08l-0.03 -0.03zm0.39 0.72c0,-0.02 0,-0.06 -0,-0.12 -0.13,0.04 -0.26,0.08 -0.33,0.1 -0.05,0.02 -0.06,0.02 -0.06,0.02l-0 0.01c-0,0.02 -0,0.04 0,0.06 0,0.01 0,0.03 0.01,0.04 0,0.01 0.01,0.02 0.01,0.02 0,0 0.01,0.01 0.02,0.01 0.01,0 0.02,0 0.04,0 0.02,-0 0.04,-0 0.06,-0 0.02,-0 0.05,-0.01 0.07,-0.02 0.02,-0.01 0.05,-0.02 0.07,-0.03 0.03,-0.01 0.05,-0.02 0.07,-0.03 0.01,-0.01 0.02,-0.01 0.03,-0.02 0,-0 0.01,-0.01 0.01,-0.01 0,-0.01 0,-0.01 0.01,-0.03z"/>
     <polygon class="fil11" points="0.43,2.15 0.03,2.29 0.02,2.25 0.41,2.11 "/>
     <path class="fil11" d="M0.81 3.14l0.01 1.01c0,0.13 0,0.24 0.01,0.32 0,0.09 0.01,0.16 0.02,0.22 0.01,0.06 0.02,0.12 0.04,0.17 0.02,0.05 0.03,0.09 0.04,0.12 0.01,0.03 0.02,0.05 0.03,0.06 0.02,0.01 0.04,0.02 0.09,0.02 0.05,0.01 0.13,0.01 0.21,0.01 0.09,0 0.18,0 0.28,0l-0 0.04c-0.1,-0 -0.2,-0 -0.28,-0 -0.09,-0 -0.16,-0 -0.22,-0.01 -0.06,-0.01 -0.09,-0.01 -0.11,-0.03 -0.02,-0.02 -0.03,-0.04 -0.05,-0.08 -0.01,-0.03 -0.03,-0.08 -0.05,-0.13 -0.02,-0.05 -0.03,-0.11 -0.04,-0.18 -0.01,-0.07 -0.02,-0.14 -0.02,-0.23 -0,-0.09 -0,-0.19 -0.01,-0.33l-0.01 -1.01 0.04 -0z"/>
     <path class="fil11" d="M1.17 3.49l-0 0c-0.01,0.19 -0.01,0.38 -0.01,0.49 0,0.05 0.01,0.08 0.01,0.1 0.01,0.02 0.01,0.02 0.02,0.03 0.01,0.01 0.02,0.02 0.04,0.04 0.02,0.01 0.04,0.02 0.07,0.03 0.03,0.01 0.07,0.01 0.11,0.01 0.03,0 0.06,0 0.09,0.01 0.03,0.01 0.05,0.02 0.06,0.06 0.01,0.03 0.01,0.08 0.01,0.16 0,0.16 0,0.47 0,0.78l-0.04 0c-0,-0.31 -0,-0.62 -0,-0.78 -0,-0.08 -0,-0.13 -0.01,-0.15 -0,-0.02 -0.01,-0.02 -0.02,-0.02 -0.02,-0 -0.05,-0.01 -0.08,-0.01 -0.04,-0 -0.08,-0.01 -0.11,-0.01 -0.03,-0.01 -0.06,-0.02 -0.08,-0.03 -0.02,-0.01 -0.04,-0.03 -0.05,-0.04 -0.01,-0.01 -0.03,-0.03 -0.03,-0.05 -0.01,-0.02 -0.01,-0.06 -0.01,-0.11 -0,-0.11 0,-0.3 0.01,-0.49l0 -0 0.04 0z"/>
     <path class="fil11" d="M1.86 3.46c0,0.05 0,0.1 0.03,0.13 0.02,0.03 0.07,0.06 0.11,0.08l0.04 0.03c0.03,0.02 0.05,0.04 0.07,0.05 0.02,0.02 0.03,0.04 0.05,0.05 0.01,0.02 0.02,0.04 0.03,0.08 0.01,0.04 0.01,0.11 0.02,0.22 0.01,0.11 0.01,0.28 0.02,0.46 0,0.19 0.01,0.4 0.01,0.61l-0.04 0c-0,-0.21 -0.01,-0.42 -0.01,-0.61 -0,-0.19 -0.01,-0.35 -0.02,-0.46 -0.01,-0.11 -0.01,-0.18 -0.02,-0.22 -0.01,-0.04 -0.01,-0.05 -0.02,-0.06 -0.01,-0.02 -0.02,-0.03 -0.04,-0.05 -0.02,-0.02 -0.04,-0.03 -0.06,-0.05l-0.04 -0.03c-0.04,-0.03 -0.09,-0.06 -0.12,-0.09 -0.04,-0.05 -0.04,-0.11 -0.04,-0.16l0.04 0z"/>
     <path class="fil11" d="M1.3 3.48c-0,0.05 -0,0.11 -0,0.16 0,0.05 0,0.09 0.01,0.12 0.01,0.03 0.01,0.05 0.03,0.06 0.02,0.02 0.06,0.03 0.11,0.04 0.08,0.02 0.22,0.04 0.32,0.06l0.11 0.02c0.06,0.01 0.09,0.02 0.11,0.06 0.02,0.03 0.02,0.09 0.03,0.19 0.01,0.1 0.01,0.25 0.02,0.43l0.02 0.57 -0.04 0 -0.02 -0.57c-0.01,-0.17 -0.01,-0.32 -0.02,-0.42 -0,-0.1 -0.01,-0.15 -0.02,-0.17 -0.01,-0.02 -0.04,-0.03 -0.08,-0.03l-0.11 -0.02c-0.11,-0.02 -0.24,-0.04 -0.33,-0.06 -0.06,-0.01 -0.1,-0.03 -0.13,-0.05 -0.03,-0.02 -0.04,-0.05 -0.05,-0.09 -0.01,-0.04 -0.01,-0.08 -0.01,-0.13 -0,-0.05 -0,-0.1 0,-0.16l0.04 0z"/>
     <polygon class="fil11" points="1.82,5.22 1.82,4.27 1.86,4.27 1.87,5.22 "/>
     <path class="fil11" d="M1.8 5.22l-0.01 -0.95c0,-0.01 0.01,-0.02 0.02,-0.02l0.04 -0c0.01,0 0.02,0.01 0.02,0.02l0.01 0.95c0,0.01 -0.01,0.02 -0.02,0.02l-0.04 0c-0.01,0 -0.02,-0.01 -0.02,-0.02z"/>
     <path class="fil11" d="M2.13 3.39l0.47 0.19c0.05,0.02 0.08,0.03 0.09,0.04l1.27 0c0.05,0 0.08,0 0.1,0 0.02,0 0.04,0.01 0.04,0.02 0.01,0.01 0,0.02 -0,0.04l-0 0c-0.01,0.02 -0.02,0.04 -0.03,0.06l-0 0c-0.01,0.03 -0.02,0.05 -0.26,0.05 -0.1,0 -0.26,0.01 -0.41,0.01 -0.18,0 -0.36,-0 -0.48,-0 -0.11,-0 -0.17,-0 -0.2,-0.01 -0.05,-0.01 -0.05,-0.02 -0.04,-0.05l0 -0.01c0,-0.02 0,-0.05 0,-0.07 -0,-0.01 -0,-0.01 -0.08,-0.04l-0.47 -0.19 0.02 -0.04zm0.57 0.28c0,0.02 -0,0.05 -0,0.07l-0 0.01c0,0 0,0 0.01,0 0.03,0.01 0.08,0.01 0.19,0.01 0.12,0 0.3,0 0.48,0 0.16,-0 0.31,-0 0.41,-0.01 0.21,-0.01 0.21,-0.02 0.22,-0.03l0 -0c0.01,-0.02 0.02,-0.04 0.03,-0.06 -0.02,-0 -0.04,-0 -0.09,-0l-1.25 -0zm1.35 -0c0,0 0,0 0,0l-0 -0z"/>
     <path class="fil11" d="M3.96 3.75c0.29,0 0.58,0 0.74,0 0.08,0 0.13,0 0.16,0 0.03,0 0.05,0.01 0.07,0.01 0.02,0.01 0.03,0.01 0.04,0.02 0.01,0.01 0.03,0.02 0.04,0.04 0.01,0.02 0.03,0.04 0.04,0.08 0.01,0.04 0.02,0.11 0.03,0.23 0.02,0.23 0.02,0.65 0.02,1.07l-0.04 0c-0,-0.42 -0.01,-0.83 -0.02,-1.06 -0.01,-0.11 -0.02,-0.18 -0.03,-0.22 -0.01,-0.04 -0.02,-0.05 -0.03,-0.06 -0.01,-0.01 -0.02,-0.02 -0.03,-0.03 -0.01,-0.01 -0.02,-0.01 -0.03,-0.02 -0.01,-0 -0.02,-0.01 -0.05,-0.01 -0.03,-0 -0.08,-0 -0.16,-0 -0.16,-0 -0.45,-0 -0.74,-0l-0 -0.04z"/>
     <path class="fil11" d="M4.45 5.22l-0 -0.01c-0.01,-0.06 -0.01,-0.11 -0.02,-0.15 -0,-0.01 -0,-0.02 -0.04,-0.02 -0.05,-0.01 -0.14,-0.01 -0.33,-0.01 -0.19,-0 -0.47,0 -0.79,0.01 -0.33,0.01 -0.7,0.01 -1.07,0.02l-0 -0.04c0.37,-0.01 0.75,-0.02 1.07,-0.02 0.33,-0.01 0.61,-0.01 0.79,-0.01 0.19,0 0.28,0 0.33,0.01 0.06,0.01 0.07,0.03 0.07,0.06 0.01,0.03 0.01,0.09 0.02,0.15l0 0.01 -0.04 0.01z"/>
     <path class="fil11" d="M4.43 5.23l-0.02 -0.16 0 -0c-0,-0 -0.01,-0 -0.02,-0.01 -0.02,-0 -0.06,-0.01 -0.11,-0.01 -0.05,-0 -0.12,-0 -0.21,-0 -0.09,0 -0.21,0 -0.34,0 -0.13,0 -0.29,0 -0.45,0.01l-1.07 0.02c-0.01,0 -0.02,-0.01 -0.02,-0.02l-0 -0.04c-0,-0.01 0.01,-0.02 0.02,-0.02l0.04 -0c0.36,-0.01 0.72,-0.02 1.03,-0.02l0.45 -0.01c0.13,-0 0.25,-0 0.35,-0 0.09,0 0.17,0 0.22,0 0.05,0 0.09,0.01 0.12,0.01 0.04,0.01 0.06,0.02 0.07,0.03l0 0c0.01,0.01 0.02,0.03 0.02,0.05l0.02 0.16c0,0.01 -0.01,0.02 -0.02,0.02l-0.04 0.01c-0.01,0 -0.02,-0.01 -0.02,-0.02zm0.03 -0.1l0.01 0.07 -0.01 -0.07zm-0.01 -0.07l0.01 0.07c-0,-0.02 -0.01,-0.05 -0.01,-0.07 -0,-0.01 -0,-0.02 -0.01,-0.02l-0 -0c-0.01,-0.01 -0.02,-0.01 -0.04,-0.02 0.02,0 0.03,0.01 0.04,0.01 0.01,0.01 0.01,0.02 0.01,0.03zm-0.04 0.01c0,0 0,0 0,0l-0 -0zm-0.68 -0.06c0.13,-0 0.25,-0 0.34,-0 -0.09,0 -0.21,0 -0.34,0zm-0.45 0.01l0.45 -0.01c-0.13,0 -0.28,0 -0.45,0.01zm-0.52 0.01l0.39 -0.01c-0.28,0.01 -0.59,0.01 -0.91,0.02l-0.02 0 0.53 -0.01z"/>
     <polygon class="fil11" points="2.22,4.21 4.45,4.2 4.45,4.25 2.22,4.26 "/>
     <path class="fil11" d="M2.22 4.19l2.23 -0.01c0.01,0 0.02,0.01 0.02,0.02l0 0.04c0,0.01 -0.01,0.02 -0.02,0.02l-2.23 0.01c-0.01,0 -0.02,-0.01 -0.02,-0.02l-0 -0.04c0,-0.01 0.01,-0.02 0.02,-0.02z"/>
     <path class="fil11" d="M4.06 3.63l0.19 -0c0.02,-0 0.02,-0 0.02,-0.02l-0 -0.2 0.04 -0 0 0.2c0,0.06 -0,0.06 -0.06,0.06l-0.19 0 -0 -0.04z"/>
     <polygon class="fil11" points="2.61,3.63 2.61,3.38 2.66,3.38 2.66,3.63 "/>
     <path class="fil11" d="M5.94 3.14l-0.01 1.01c-0,0.13 -0,0.24 -0.01,0.33 -0,0.09 -0.01,0.16 -0.02,0.23 -0.01,0.07 -0.03,0.13 -0.04,0.18 -0.02,0.05 -0.03,0.09 -0.05,0.13 -0.01,0.04 -0.03,0.06 -0.05,0.08 -0.02,0.02 -0.06,0.03 -0.11,0.03 -0.05,0.01 -0.13,0.01 -0.22,0.01 -0.09,0 -0.25,0 -0.35,0l0 -0.04c0.1,-0 0.26,-0 0.35,-0 0.09,-0 0.16,-0 0.21,-0.01 0.05,-0 0.07,-0.01 0.09,-0.02 0.01,-0.01 0.02,-0.03 0.03,-0.06 0.01,-0.03 0.03,-0.07 0.04,-0.12 0.02,-0.05 0.03,-0.11 0.04,-0.17 0.01,-0.06 0.02,-0.14 0.02,-0.22 0,-0.09 0,-0.19 0.01,-0.32l0.01 -1.01 0.04 0z"/>
     <path class="fil11" d="M3.38 0.06c0.19,0.01 0.39,0.02 0.58,0.04 0.19,0.02 0.38,0.04 0.57,0.07 0.18,0.03 0.36,0.07 0.52,0.11 0.17,0.05 0.32,0.09 0.43,0.14 0.1,0.04 0.17,0.08 0.21,0.12 0.04,0.04 0.07,0.07 0.09,0.11 0.02,0.04 0.04,0.08 0.05,0.14 0.01,0.06 0.03,0.14 0.03,0.25 0.01,0.11 0.01,0.25 0.02,0.41 0,0.16 0.01,0.34 0.01,0.52 0,0.18 0,0.36 0,0.53 0,0.17 -0,0.32 -0.01,0.43 -0,0.11 -0.01,0.19 -0.03,0.25 -0.01,0.06 -0.03,0.09 -0.05,0.13 -0.02,0.04 -0.05,0.07 -0.09,0.09 -0.03,0.02 -0.07,0.04 -0.11,0.05 -0.08,0.02 -0.18,0.01 -0.34,-0.01l-0.09 -0.01c-0.11,-0.01 -0.24,-0.02 -0.39,-0.03 -0.14,-0.01 -0.31,-0.02 -0.48,-0.03 -0.17,-0.01 -0.35,-0.02 -0.52,-0.03 -0.16,-0.01 -0.31,-0.02 -0.42,-0.02 -0.11,-0 -0.18,-0.01 -0.24,-0.01 -0.06,0 -0.09,0 -0.13,0l0 0.04c0.04,-0 0.07,-0 0.12,-0 0.05,-0 0.13,0 0.24,0.01 0.11,0 0.26,0.01 0.42,0.02 0.16,0.01 0.34,0.02 0.51,0.03 0.17,0.01 0.33,0.02 0.47,0.03 0.15,0.01 0.28,0.02 0.39,0.03l0.09 0.01c0.16,0.02 0.27,0.03 0.35,0.01 0.05,-0.01 0.09,-0.03 0.13,-0.06 0.04,-0.03 0.07,-0.06 0.1,-0.1 0.02,-0.04 0.04,-0.08 0.06,-0.14 0.01,-0.06 0.02,-0.14 0.03,-0.26 0.01,-0.12 0.01,-0.27 0.01,-0.43 0,-0.16 -0,-0.35 -0,-0.53 -0,-0.18 -0,-0.36 -0.01,-0.52 -0,-0.16 -0.01,-0.31 -0.02,-0.42 -0.01,-0.11 -0.02,-0.19 -0.04,-0.25 -0.02,-0.06 -0.03,-0.11 -0.06,-0.15 -0.02,-0.04 -0.05,-0.09 -0.1,-0.13 -0.05,-0.04 -0.11,-0.08 -0.22,-0.13 -0.11,-0.05 -0.26,-0.1 -0.43,-0.14 -0.16,-0.04 -0.34,-0.08 -0.53,-0.11 -0.19,-0.03 -0.38,-0.05 -0.58,-0.07 -0.19,-0.02 -0.39,-0.03 -0.58,-0.04l-0 0.04z"/>
     <path class="fil11" d="M5.59 3.24l-0.01 -0.01c-0.15,-0.18 -0.31,-0.35 -0.4,-0.45 -0.04,-0.05 -0.07,-0.08 -0.09,-0.1 -0.02,-0.02 -0.03,-0.03 -0.05,-0.03 -0.01,-0.01 -0.03,-0.01 -0.08,-0.02 -0.05,-0.01 -0.12,-0.01 -0.27,-0.02 -0.15,-0.01 -0.36,-0.02 -0.58,-0.04 -0.21,-0.01 -0.42,-0.02 -0.57,-0.03 -0.16,-0.01 -0.26,-0.01 -0.33,-0.01 -0.07,-0 -0.11,-0 -0.15,0l0 0.04c0.04,-0 0.08,-0 0.15,-0 0.07,0 0.17,0 0.33,0.01 0.15,0.01 0.36,0.02 0.57,0.03 0.22,0.01 0.43,0.03 0.58,0.04 0.14,0.01 0.22,0.02 0.27,0.02 0.04,0.01 0.05,0.01 0.06,0.01 0.01,0 0.02,0.01 0.04,0.03 0.02,0.02 0.05,0.05 0.09,0.09 0.09,0.1 0.24,0.27 0.4,0.45l0.01 0.01 0.03 -0.03z"/>
     <polygon class="fil11" points="5,2.6 4.93,0.92 4.88,0.93 4.95,2.6 "/>
     <path class="fil17" d="M5.14 2c0,-0.03 0,-0.08 -0,-0.12 -0,-0.04 -0.01,-0.06 -0.02,-0.07 -0.01,-0.02 -0.03,-0.03 -0.04,-0.03 -0.01,-0 -0.02,0 -0.03,0.02 -0.01,0.02 -0.01,0.04 -0.01,0.08 -0,0.03 -0,0.07 -0,0.09 -0,0.03 0,0.04 0.01,0.05 0.01,0.01 0.01,0.01 0.02,0.01 0.01,0 0.02,0 0.03,0 0.01,0 0.02,0 0.03,0 0.01,-0 0.02,-0 0.02,-0.03z"/>
     <path class="fil17" d="M4.59 0.08c0.04,0.03 0.1,0.09 0.13,0.12 0.03,0.03 0.02,0.03 0.01,0.03 -0.01,0 -0.01,0 -0.03,0 -0.01,0 -0.03,-0 -0.04,-0 -0.01,-0 -0.01,-0.01 -0.04,-0.02 -0.02,-0.01 -0.06,-0.04 -0.08,-0.06 -0.02,-0.02 -0.03,-0.03 -0.04,-0.04 -0.01,-0.01 -0.03,-0 -0.03,-0.01 0,-0.01 0.02,-0.03 0.04,-0.04 0.02,-0.01 0.04,-0.01 0.08,0.02z"/>
     <path class="fil11" d="M5.9 1.69l0.01 0c0.16,0.05 0.32,0.1 0.4,0.13 0.04,0.02 0.07,0.02 0.09,0.04 0.02,0.01 0.03,0.02 0.05,0.04 0.02,0.02 0.04,0.04 0.07,0.06 0.03,0.03 0.06,0.06 0.07,0.08 0.02,0.02 0.02,0.03 0.03,0.04 0.01,0.02 0.01,0.04 0.01,0.09 0,0.06 0,0.14 0.01,0.23 0,0.07 0,0.14 -0,0.2 -0,0.06 -0.01,0.11 -0.01,0.16 -0.01,0.05 -0.01,0.08 -0.02,0.11 -0.01,0.02 -0.01,0.03 -0.02,0.04 -0.01,0.01 -0.02,0.01 -0.03,0.01 -0.02,0 -0.04,0 -0.06,0 -0.02,-0 -0.05,-0.01 -0.08,-0.01 -0.03,-0.01 -0.05,-0.01 -0.08,-0.02 -0.03,-0.01 -0.05,-0.02 -0.07,-0.02l-0.01 -0c-0.03,-0.01 -0.05,-0.02 -0.09,-0.02 -0.02,-0 -0.05,-0 -0.08,-0 -0.04,-0 -0.07,-0 -0.1,-0 -0.05,0 -0.07,0 -0.08,0.01l0.01 0.04c0.01,-0 0.03,-0 0.07,-0.01 0.03,-0 0.06,0 0.1,0 0.03,0 0.06,0 0.08,0 0.04,0 0.06,0.01 0.08,0.02l0.01 0c0.02,0.01 0.04,0.01 0.07,0.02 0.03,0.01 0.05,0.02 0.08,0.02 0.03,0.01 0.06,0.01 0.08,0.01 0.03,0 0.05,0 0.07,-0 0.02,-0 0.04,-0.01 0.05,-0.02 0.01,-0.01 0.02,-0.03 0.03,-0.06 0.01,-0.03 0.02,-0.06 0.02,-0.11 0.01,-0.04 0.01,-0.09 0.01,-0.16 0,-0.06 0,-0.13 0,-0.2 -0,-0.09 -0,-0.17 -0.01,-0.23 -0,-0.05 -0,-0.08 -0.01,-0.1 -0.01,-0.02 -0.02,-0.04 -0.04,-0.06 -0.02,-0.02 -0.05,-0.05 -0.08,-0.08 -0.02,-0.02 -0.05,-0.05 -0.07,-0.07 -0.02,-0.02 -0.04,-0.03 -0.06,-0.04 -0.02,-0.01 -0.05,-0.02 -0.09,-0.04 -0.09,-0.03 -0.25,-0.08 -0.4,-0.13l-0.01 -0 -0.01 0.04z"/>
     <path class="fil11" d="M5.92 1.91l0.25 0.11c0.03,0.01 0.04,0.02 0.05,0.02 0,0 0,0 0,0l0 0c0,0 -0,-0 -0,0.01l-0 0.1 -0.01 0.28 -0.01 0.18c-0,0.06 -0.01,0.09 -0.01,0.11 -0,0.01 0,0.01 0,0.01l-0.01 -0c-0.01,-0 -0.02,-0 -0.05,-0 -0.01,-0 -0.21,-0.02 -0.21,-0.02l-0 0c-0.12,-0.02 -0.16,-0.01 -0.15,0 -0.02,0 -0.01,0.01 0.04,0.02 0.03,0.01 0.07,0.02 0.11,0.02 0.07,0.01 0.14,0.01 0.21,0.02 0.02,0 0.04,0 0.05,0 0.01,0 0.02,-0 0.03,-0.01 0.01,-0.01 0.02,-0.01 0.02,-0.04 0,-0.02 0.01,-0.05 0.01,-0.11l0.01 -0.18 0.01 -0.28 0 -0.11c0,-0.02 -0,-0.03 -0.01,-0.03 -0,-0.01 -0.01,-0.01 -0.02,-0.02 -0.01,-0.01 -0.02,-0.01 -0.05,-0.02l-0.25 -0.11 -0.02 0.04z"/>
     <path class="fil11" d="M6.63 2.05c-0.03,-0.03 -0.07,-0.05 -0.1,-0.08 -0.03,-0.02 -0.06,-0.05 -0.09,-0.06 -0.03,-0.02 -0.05,-0.03 -0.06,-0.03 -0.02,-0.01 -0.03,-0.01 -0.05,-0.01 -0.01,0 -0.03,0 -0.04,0.01 -0.01,0 -0.02,0.01 -0.03,0.02 -0.01,0.01 -0.02,0.01 -0.02,0.04 -0,0.02 -0.01,0.06 -0.01,0.13 -0.01,0.08 -0.02,0.21 -0.02,0.33 -0.01,0.08 -0.01,0.17 -0.01,0.23 -0,0.07 -0,0.12 -0,0.14 0,0.03 0.01,0.04 0.01,0.05 0,0.01 0.01,0.02 0.01,0.03 0.01,0.01 0.02,0.02 0.04,0.03 0.02,0.01 0.04,0.02 0.07,0.04 0.02,0.01 0.05,0.02 0.08,0.03 0.03,0.01 0.05,0.01 0.08,0.02 0.02,0 0.04,0 0.06,0.01 0.02,0 0.04,0 0.05,-0 0.02,-0 0.03,-0.01 0.04,-0.02 0.01,-0.01 0.02,-0.02 0.02,-0.04 0.01,-0.02 0.01,-0.04 0.01,-0.05 0,-0.03 0,-0.05 0,-0.07l0 -0.01c-0,-0.03 -0,-0.04 -0.09,-0.07 -0.07,-0.02 -0.2,-0.06 -0.34,-0.1 0,-0.06 0.01,-0.13 0.01,-0.2 0.01,-0.12 0.02,-0.25 0.02,-0.33 0.01,-0.07 0.01,-0.11 0.01,-0.13 0,-0.01 0,-0.01 0,-0.01 0,-0 0.01,-0.01 0.02,-0.01 0.01,-0 0.02,-0 0.02,-0 0.01,-0 0.02,0 0.03,0 0.01,0 0.03,0.01 0.05,0.03 0.02,0.01 0.05,0.03 0.08,0.06 0.03,0.02 0.06,0.05 0.1,0.08l0.03 -0.03zm-0.39 0.72c-0,-0.02 -0,-0.06 0,-0.12 0.13,0.04 0.26,0.08 0.33,0.1 0.05,0.02 0.06,0.02 0.06,0.02l0 0.01c0,0.02 0,0.04 -0,0.06 -0,0.01 -0,0.03 -0.01,0.04 -0,0.01 -0.01,0.02 -0.01,0.02 -0,0 -0.01,0.01 -0.02,0.01 -0.01,0 -0.02,0 -0.04,0 -0.02,-0 -0.04,-0 -0.06,-0 -0.02,-0 -0.05,-0.01 -0.07,-0.02 -0.02,-0.01 -0.05,-0.02 -0.07,-0.03 -0.03,-0.01 -0.05,-0.02 -0.07,-0.03 -0.01,-0.01 -0.02,-0.01 -0.03,-0.02 -0,-0 -0.01,-0.01 -0.01,-0.01 -0,-0.01 -0,-0.01 -0.01,-0.03z"/>
     <polygon class="fil11" points="6.26,2.15 6.65,2.29 6.67,2.25 6.27,2.11 "/>
     <polygon class="fil11" points="4.07,3.63 4.07,3.38 4.03,3.38 4.03,3.63 "/>
     <path class="fil11" d="M1.09 5.24c-0.01,0 -0.02,-0.01 -0.02,-0.02 -0,-0.01 0.01,-0.02 0.02,-0.02 0.19,-0.01 0.38,-0.01 0.55,-0.02 0.17,-0 0.32,-0 0.42,-0 0.11,0 0.17,0.01 0.21,0.02 0.04,0.01 0.06,0.02 0.08,0.04 0.01,0.01 0.02,0.03 0.03,0.04l0 0c0.01,0.01 0.02,0.03 0.03,0.04l0.02 0.04 0.02 0.04c0.01,0.01 0.01,0.02 0.01,0.07 0,0.05 0.01,0.13 0.01,0.29 0,0.14 0.01,0.35 0.01,0.56l0 0.03c0,0.25 0.01,0.51 0.01,0.69 0,0.17 0,0.26 0,0.32 -0,0.06 -0,0.08 -0.01,0.09 -0.01,0.02 -0.01,0.03 -0.03,0.04 -0.01,0.01 -0.02,0.01 -0.03,0.01 -0.01,0 -0.02,0.01 -0.06,0.01 -0.04,0 -0.1,0 -0.23,0.01l-0.39 0.01 -0.58 0.01 -0.23 0c-0.04,0 -0.05,0 -0.06,-0 -0.01,-0 -0.02,-0 -0.03,-0 -0.01,-0 -0.02,-0.01 -0.03,-0.01 -0.01,-0.01 -0.02,-0.02 -0.03,-0.05 -0,-0.03 -0.01,-0.08 -0.01,-0.17 0,-0.09 0,-0.21 0.01,-0.34 0,-0.14 0.01,-0.28 0.01,-0.37 0,-0.09 0.01,-0.14 0.01,-0.17 0.01,-0.03 0.01,-0.04 0.02,-0.06 0.01,-0.01 0.02,-0.02 0.04,-0.03 0.01,-0.01 0.03,-0.02 0.04,-0.02l0 -0c0.02,-0.01 0.03,-0.01 0.08,-0.01 0.04,-0 0.11,-0 0.24,-0l1.2 0c-0,-0.2 -0.01,-0.4 -0.01,-0.54 -0,-0.16 -0.01,-0.24 -0.01,-0.29 -0,-0.04 -0.01,-0.05 -0.01,-0.06l-0.02 -0.04 -0.02 -0.04c-0.01,-0.01 -0.01,-0.02 -0.02,-0.04l-0 -0c-0.01,-0.01 -0.02,-0.02 -0.03,-0.03 -0.01,-0.01 -0.02,-0.02 -0.06,-0.03 -0.04,-0.01 -0.1,-0.02 -0.2,-0.02 -0.1,-0 -0.25,-0 -0.42,0 -0.17,0 -0.36,0.01 -0.55,0.02zm1.34 1.12l0 -0.01 -1.2 -0c-0.13,-0 -0.2,-0 -0.24,0 -0.04,0 -0.05,0 -0.06,0.01l-0 0c-0.01,0 -0.02,0.01 -0.03,0.02 -0.01,0.01 -0.02,0.02 -0.03,0.03 -0.01,0.01 -0.01,0.01 -0.01,0.03 -0,0.03 -0.01,0.07 -0.01,0.16 -0,0.09 -0.01,0.23 -0.01,0.37 -0,0.13 -0.01,0.25 -0.01,0.34 -0,0.09 0,0.14 0.01,0.16 0,0.02 0,0.02 0,0.02 0,0 0.01,0 0.02,0.01 0.01,0 0.01,0 0.02,0 0.01,0 0.02,0 0.05,0l0.23 -0 0.58 -0.01 0.39 -0.01c0.12,-0 0.19,-0.01 0.23,-0.01 0.03,-0 0.04,-0 0.05,-0.01 0.01,-0 0.01,-0 0.02,-0.01 0,-0 0.01,-0.01 0.01,-0.01 0,-0.01 0.01,-0.02 0.01,-0.08 0,-0.05 0,-0.15 -0,-0.32 -0,-0.18 -0,-0.44 -0.01,-0.69z"/>
     <path class="fil11" d="M0.91 6.34c0.01,0.01 0,0.02 -0,0.03 -0.01,0.01 -0.02,0 -0.03,-0 -0.02,-0.02 -0.03,-0.04 -0.05,-0.09 -0.01,-0.04 -0.02,-0.1 -0.03,-0.19 -0,-0.07 -0,-0.17 -0,-0.27 0,-0.14 0.01,-0.29 0.02,-0.39 0,-0.09 0.01,-0.13 0.02,-0.16 0.01,-0.04 0.03,-0.05 0.06,-0.06 0.04,-0.01 0.12,-0.01 0.2,-0.01l0 0c0.01,0 0.02,0.01 0.02,0.02 0,0.01 -0.01,0.02 -0.02,0.02l-0 0c-0.08,0 -0.15,0 -0.19,0.01 -0.01,0 -0.02,0.01 -0.02,0.03 -0.01,0.03 -0.01,0.07 -0.02,0.15 -0.01,0.1 -0.01,0.25 -0.02,0.39 -0,0.1 -0,0.2 0,0.27 0,0.09 0.01,0.14 0.02,0.18 0.01,0.03 0.02,0.05 0.04,0.07z"/>
     <path class="fil11" d="M2.42 5.05c0,-0.01 0.01,-0.02 0.02,-0.02 0.01,0 0.02,0.01 0.02,0.02l0 2.69c0,0.01 -0.01,0.02 -0.02,0.02 -0.01,0 -0.02,-0.01 -0.02,-0.02l-0 -2.69z"/>
     <path class="fil11" d="M2.72 5.05c0,-0.01 0.01,-0.02 0.02,-0.02 0.01,0 0.02,0.01 0.02,0.02l-0.02 1.84c-0,0.01 -0.01,0.02 -0.02,0.02 -0.01,0 -0.02,-0.01 -0.02,-0.02l0.02 -1.84z"/>
     <path class="fil11" d="M2.73 6.38c-0.01,0 -0.02,-0.01 -0.02,-0.02 -0,-0.01 0.01,-0.02 0.02,-0.02l1.23 -0.03c0.01,-0 0.02,0.01 0.02,0.02 0,0.01 -0.01,0.02 -0.02,0.02l-1.23 0.03z"/>
     <path class="fil11" d="M2.96 8.29c0.01,0.01 0.01,0.02 0,0.03 -0.01,0.01 -0.02,0.01 -0.03,0l-0.24 -0.19c-0.03,-0.02 -0.04,-0.03 -0.05,-0.04 -0.01,-0.01 -0.02,-0.02 -0.02,-0.03l-0.01 -0.03c-0,-0.02 -0.01,-0.04 -0.02,-0.07l-0.02 -0.06c-0.02,-0.06 -0.03,-0.13 -0.05,-0.2 -0.01,-0.05 -0.02,-0.11 -0.03,-0.17 -0.01,-0.06 -0.01,-0.12 -0,-0.18 0.01,-0.07 0.02,-0.13 0.04,-0.19 0.02,-0.06 0.05,-0.12 0.08,-0.17l0 -0c0.03,-0.05 0.08,-0.1 0.12,-0.14 0.05,-0.04 0.1,-0.08 0.16,-0.1 0.05,-0.03 0.11,-0.04 0.16,-0.05 0.05,-0.01 0.1,-0.02 0.14,-0.02 0.04,-0 0.07,-0.01 0.1,-0.01 0.04,-0 0.07,-0 0.09,-0 0.04,-0 0.06,0 0.08,0 0.01,0 0.02,0.01 0.02,0.02 0,0.01 -0.01,0.02 -0.02,0.02l-0 -0c-0.02,-0 -0.03,-0 -0.07,-0 -0.02,0 -0.05,0 -0.09,0 -0.03,0 -0.06,0.01 -0.1,0.01 -0.04,0 -0.09,0.01 -0.14,0.02 -0.05,0.01 -0.1,0.03 -0.15,0.05 -0.05,0.02 -0.1,0.06 -0.15,0.1 -0.04,0.04 -0.08,0.08 -0.12,0.13l-0 0c-0.03,0.05 -0.06,0.11 -0.08,0.16 -0.02,0.06 -0.03,0.12 -0.04,0.18 -0.01,0.06 -0,0.12 0,0.18 0.01,0.06 0.02,0.11 0.03,0.16 0.02,0.08 0.04,0.15 0.05,0.2l0.02 0.06c0.01,0.04 0.01,0.06 0.02,0.07l0.01 0.02c0,0 0,0.01 0.01,0.01 0.01,0.01 0.02,0.02 0.05,0.04l0.24 0.19z"/>
     <path class="fil11" d="M3.52 7.7c0.01,-0 0.02,0.01 0.02,0.02 0,0.01 -0.01,0.02 -0.02,0.02 -0.13,0.01 -0.26,0.02 -0.34,0.03 -0.04,0.01 -0.07,0.01 -0.09,0.02l-0 0c-0.02,0.01 -0.03,0.01 -0.04,0.02 -0.01,0.01 -0.01,0.01 -0.02,0.02 -0.01,0.01 -0.01,0.03 -0.01,0.05 -0,0.03 -0,0.07 -0,0.11 0,0.04 0,0.08 0,0.11 0,0.08 0.01,0.16 0.01,0.23l0 0.04c-0,0.01 -0,0.02 -0,0.03 -0,0.02 -0.02,0.03 -0.03,0.02 -0.01,-0 -0.02,-0.01 -0.03,-0.02 -0.01,-0.01 -0.02,-0.02 -0.03,-0.04l-0.03 -0.05c-0.01,-0.01 -0,-0.02 0.01,-0.03 0.01,-0.01 0.02,-0 0.03,0.01l0.04 0.06c-0,-0.08 -0.01,-0.17 -0.01,-0.25 -0,-0.03 -0,-0.07 -0.01,-0.11 -0,-0.04 -0,-0.08 0,-0.11 0,-0.03 0.01,-0.06 0.02,-0.07 0.01,-0.02 0.02,-0.03 0.03,-0.04 0.01,-0.01 0.03,-0.02 0.05,-0.02l0 -0c0.02,-0.01 0.05,-0.01 0.09,-0.02 0.08,-0.01 0.21,-0.02 0.34,-0.03z"/>
     <path class="fil11" d="M3.59 7.52c0,0.01 -0.01,0.02 -0.02,0.03 -0.01,0 -0.02,-0.01 -0.03,-0.02l-0 -0c-0.01,-0.04 -0.02,-0.08 -0.03,-0.1 -0,-0.01 -0.01,-0.02 -0.01,-0.02 -0.01,-0 -0.02,-0.01 -0.05,-0.01 -0.03,-0 -0.07,-0.01 -0.12,-0 -0.03,0 -0.07,0 -0.09,0.01 -0.02,0 -0.03,0.01 -0.04,0.02 -0,0.01 -0.01,0.02 -0.01,0.03 -0,0.01 -0,0.03 -0,0.05l0 0.05c0,0.01 -0.01,0.02 -0.02,0.02 -0.01,0 -0.02,-0.01 -0.02,-0.02l-0 -0.05c-0,-0.02 -0,-0.03 0,-0.05 0,-0.02 0,-0.04 0.01,-0.05 0.01,-0.02 0.03,-0.03 0.06,-0.04 0.03,-0.01 0.06,-0.01 0.1,-0.01 0.04,-0 0.09,0 0.12,0 0.03,0 0.05,0.01 0.07,0.02 0.02,0.01 0.02,0.02 0.03,0.04 0.01,0.03 0.02,0.07 0.03,0.11l0 0z"/>
     <path class="fil11" d="M3.16 7.37c0.01,0 0.02,0.02 0.01,0.03 -0,0.01 -0.02,0.02 -0.03,0.01 -0.04,-0.01 -0.07,-0.03 -0.1,-0.06 -0.01,-0.02 -0.02,-0.03 -0.03,-0.06l-0 -0c-0,-0.02 -0.01,-0.04 -0.01,-0.06 -0,-0.02 -0,-0.04 -0,-0.05 0,-0.02 0,-0.03 0,-0.04l0 -0c0,-0.01 0.01,-0.03 0.01,-0.04 0,-0.01 0.01,-0.02 0.02,-0.03 0.01,-0.01 0.01,-0.02 0.03,-0.03l0 -0c0.01,-0.01 0.03,-0.02 0.05,-0.03 0.02,-0.01 0.05,-0.02 0.08,-0.03 0.03,-0.01 0.06,-0.02 0.09,-0.02 0.01,-0 0.02,0 0.03,0.02 0,0.01 -0,0.02 -0.02,0.03 -0.03,0.01 -0.06,0.02 -0.09,0.02 -0.03,0.01 -0.05,0.02 -0.07,0.02 -0.02,0.01 -0.03,0.01 -0.04,0.02l-0 0c-0.01,0.01 -0.01,0.01 -0.02,0.02 -0.01,0.01 -0.01,0.01 -0.01,0.02 -0,0.01 -0.01,0.02 -0.01,0.03l-0 0c-0,0.01 -0,0.02 -0,0.04 -0,0.02 0,0.03 0,0.05 0,0.02 0,0.03 0.01,0.05l0 0c0,0.01 0.01,0.03 0.02,0.04 0.02,0.02 0.05,0.03 0.08,0.04l0 0z"/>
     <path class="fil11" d="M2.43 7.74c0,-0.01 0.01,-0.02 0.02,-0.02 0.01,0 0.02,0.01 0.02,0.02l0 0.72c0,0.01 -0.01,0.02 -0.02,0.02 -0.01,0 -0.02,-0.01 -0.02,-0.02l-0 -0.72z"/>
     <path class="fil11" d="M1.59 8.46c0,0.01 -0,0.01 -0.01,0.02l-0.03 0c-0,-0 -0.01,-0.01 -0.01,-0.02 -0,-0.28 -0,-0.55 -0,-0.68 0,-0.07 0,-0.11 0,-0.13 0,-0.03 0.01,-0.04 0.01,-0.05 0.01,-0.01 0.02,-0.02 0.04,-0.02l0 -0c0.02,-0 0.05,-0.01 0.1,-0.01 0.05,-0 0.12,-0 0.19,-0 0.07,-0 0.15,-0 0.2,0 0.05,0 0.08,0 0.1,0.01l0 0c0.02,0 0.03,0.01 0.04,0.02 0.01,0.01 0.02,0.02 0.02,0.05 0,0.02 0,0.06 0,0.13 -0,0.07 -0,0.17 -0,0.27l-0.01 0.39 0 0.04 -0.05 0 0 -0.03c0,-0.13 0.01,-0.27 0.01,-0.41 0,-0.1 0,-0.2 0,-0.27 0,-0.07 -0,-0.11 -0,-0.13 -0,-0.01 -0,-0.02 -0,-0.02 -0,-0 -0.01,-0 -0.02,-0.01l-0 -0c-0.02,-0 -0.05,-0 -0.1,-0.01 -0.05,-0 -0.13,-0 -0.2,-0 -0.07,0 -0.14,0 -0.18,0.01 -0.05,0 -0.08,0.01 -0.09,0.01l-0 0c-0.01,0 -0.02,0.01 -0.02,0.01 -0,0 -0,0.01 -0,0.02 -0,0.02 -0,0.06 -0,0.13 0,0.16 0,0.42 0,0.68z"/>
     <path class="fil11" d="M0.87 8.46c0,0.01 -0,0.01 -0.01,0.02l-0.03 0 0 0c-0,-0 -0.01,-0.01 -0.01,-0.02 -0,-0.28 -0,-0.55 -0,-0.68 0,-0.07 0,-0.11 0,-0.13 0,-0.03 0.01,-0.04 0.01,-0.05 0.01,-0.01 0.02,-0.02 0.04,-0.02l0 -0c0.02,-0 0.05,-0.01 0.1,-0.01 0.05,-0 0.12,-0 0.19,-0 0.07,-0 0.15,-0 0.2,0 0.05,0 0.08,0 0.1,0.01l0 0c0.02,0 0.03,0.01 0.04,0.02 0.01,0.01 0.02,0.02 0.02,0.05 0,0.02 0,0.06 0,0.13 -0,0.07 -0,0.17 -0,0.27l-0.01 0.39 -0 0.04 -0.05 0 0 -0.03c0,-0.13 0.01,-0.27 0.01,-0.41 0,-0.1 0,-0.2 0,-0.27 0,-0.07 -0,-0.11 -0,-0.13 -0,-0.01 -0,-0.02 -0,-0.02 -0,-0 -0.01,-0 -0.02,-0.01l-0 -0c-0.02,-0 -0.05,-0 -0.1,-0.01 -0.05,-0 -0.13,-0 -0.2,-0 -0.07,0 -0.13,0 -0.18,0.01 -0.05,0 -0.08,0.01 -0.09,0.01l-0 0c-0.01,0 -0.02,0.01 -0.02,0.01 -0,0 -0,0.01 -0,0.02 -0,0.02 -0,0.06 -0,0.13 0,0.16 0,0.42 0,0.68z"/>
     <path class="fil11" d="M2.25 7.94c-0.01,0 -0.02,-0.01 -0.02,-0.02 -0,-0.01 0.01,-0.02 0.02,-0.02l0.19 -0c0.01,-0 0.02,0.01 0.02,0.02 0,0.01 -0.01,0.02 -0.02,0.02l-0.19 0z"/>
     <path class="fil11" d="M5.63 5.24c0.01,0 0.02,-0.01 0.02,-0.02 0,-0.01 -0.01,-0.02 -0.02,-0.02 -0.19,-0.01 -0.38,-0.01 -0.55,-0.02 -0.17,-0 -0.32,-0 -0.42,-0 -0.11,0 -0.17,0.01 -0.21,0.02 -0.04,0.01 -0.06,0.02 -0.08,0.04 -0.01,0.01 -0.02,0.03 -0.03,0.04l-0 0c-0.01,0.01 -0.02,0.03 -0.03,0.04l-0.02 0.04 -0.02 0.04c-0.01,0.01 -0.01,0.02 -0.01,0.07 -0,0.05 -0.01,0.13 -0.01,0.29 -0,0.14 -0.01,0.35 -0.01,0.56l-0 0.03c-0,0.25 -0.01,0.51 -0.01,0.69 -0,0.17 -0,0.26 -0,0.32 0,0.06 0,0.08 0.01,0.09 0.01,0.02 0.02,0.03 0.03,0.04 0.01,0.01 0.02,0.01 0.03,0.01 0.01,0 0.02,0.01 0.06,0.01 0.04,0 0.1,0 0.23,0.01l0.39 0.01 0.58 0.01 0.23 0c0.04,0 0.05,0 0.06,-0 0.01,-0 0.02,-0 0.03,-0 0.01,-0 0.02,-0.01 0.03,-0.01 0.01,-0.01 0.02,-0.02 0.03,-0.05 0,-0.03 0.01,-0.08 0.01,-0.17 -0,-0.09 -0,-0.21 -0.01,-0.34 -0,-0.14 -0.01,-0.28 -0.01,-0.37 -0,-0.09 -0.01,-0.14 -0.01,-0.17 -0.01,-0.03 -0.01,-0.04 -0.03,-0.06 -0.01,-0.01 -0.02,-0.02 -0.04,-0.03 -0.01,-0.01 -0.03,-0.02 -0.04,-0.02l-0 -0c-0.02,-0.01 -0.03,-0.01 -0.08,-0.01 -0.04,-0 -0.11,-0 -0.24,-0l-1.2 0c0,-0.2 0.01,-0.4 0.01,-0.54 0,-0.16 0.01,-0.24 0.01,-0.29 0,-0.04 0.01,-0.05 0.01,-0.06l0.02 -0.04 0.02 -0.04c0.01,-0.01 0.01,-0.02 0.02,-0.04l0 -0c0.01,-0.01 0.02,-0.02 0.03,-0.03 0.01,-0.01 0.02,-0.02 0.06,-0.03 0.04,-0.01 0.1,-0.02 0.2,-0.02 0.1,-0 0.25,-0 0.42,0 0.17,0 0.36,0.01 0.55,0.02zm-1.34 1.12l0 -0.01 1.2 -0c0.13,-0 0.2,-0 0.24,0 0.04,0 0.05,0 0.06,0.01l0 0c0.01,0 0.02,0.01 0.03,0.02 0.01,0.01 0.02,0.02 0.03,0.03 0.01,0.01 0.01,0.01 0.01,0.03 0,0.03 0.01,0.07 0.01,0.16 0,0.09 0.01,0.23 0.01,0.37 0,0.13 0.01,0.25 0.01,0.34 0,0.09 -0,0.14 -0.01,0.16 -0,0.02 -0,0.02 -0,0.02 -0,0 -0.01,0 -0.02,0.01 -0.01,0 -0.01,0 -0.02,0 -0.01,0 -0.02,0 -0.05,0l-0.23 -0 -0.58 -0.01 -0.39 -0.01c-0.12,-0 -0.19,-0.01 -0.23,-0.01 -0.03,-0 -0.04,-0 -0.05,-0.01 -0.01,-0 -0.01,-0 -0.02,-0.01 -0,-0 -0.01,-0.01 -0.01,-0.01 -0,-0.01 -0.01,-0.02 -0.01,-0.08 -0,-0.05 -0,-0.15 0,-0.32 0,-0.18 0,-0.44 0.01,-0.69z"/>
     <path class="fil11" d="M5.82 6.34c-0.01,0.01 -0,0.02 0,0.03 0.01,0.01 0.02,0 0.03,-0 0.02,-0.02 0.03,-0.04 0.05,-0.09 0.01,-0.04 0.02,-0.1 0.03,-0.19 0,-0.07 0,-0.17 0,-0.27 -0,-0.14 -0.01,-0.29 -0.02,-0.39 -0,-0.09 -0.01,-0.13 -0.02,-0.16 -0.01,-0.04 -0.03,-0.05 -0.06,-0.06 -0.04,-0.01 -0.12,-0.01 -0.2,-0.01l-0 0c-0.01,0 -0.02,0.01 -0.02,0.02 0,0.01 0.01,0.02 0.02,0.02l0 0c0.08,0 0.15,0 0.19,0.01 0.01,0 0.02,0.01 0.02,0.03 0.01,0.03 0.01,0.07 0.02,0.15 0.01,0.1 0.01,0.25 0.02,0.39 0,0.1 0,0.2 -0,0.27 -0,0.09 -0.01,0.14 -0.02,0.18 -0.01,0.03 -0.02,0.05 -0.04,0.07z"/>
     <path class="fil11" d="M4.31 5.05c0,-0.01 -0.01,-0.02 -0.02,-0.02 -0.01,0 -0.02,0.01 -0.02,0.02l-0 2.69c0,0.01 0.01,0.02 0.02,0.02 0.01,0 0.02,-0.01 0.02,-0.02l0 -2.69z"/>
     <path class="fil11" d="M4.01 5.05c-0,-0.01 -0.01,-0.02 -0.02,-0.02 -0.01,0 -0.02,0.01 -0.02,0.02l0.02 1.84c0,0.01 0.01,0.02 0.02,0.02 0.01,0 0.02,-0.01 0.02,-0.02l-0.02 -1.84z"/>
     <path class="fil11" d="M4 6.38c0.01,0 0.02,-0.01 0.02,-0.02 0,-0.01 -0.01,-0.02 -0.02,-0.02l-1.23 -0.03c-0.01,-0 -0.02,0.01 -0.02,0.02 -0,0.01 0.01,0.02 0.02,0.02l1.23 0.03z"/>
     <path class="fil11" d="M3.95 5.78c0.01,0 0.02,-0.01 0.02,-0.02 0,-0.01 -0.01,-0.02 -0.02,-0.02l-0.39 -0.01c-0.04,-0 -0.06,-0 -0.08,0 -0.02,0.01 -0.03,0.02 -0.03,0.04l-0.01 0.03c-0,0.02 -0.01,0.04 -0.01,0.06 -0,0.01 -0.01,0.02 -0.01,0.03 -0,0.01 -0.01,0.01 -0.02,0.01 -0.01,0 -0.01,0.01 -0.02,0.01 -0.01,0 -0.02,0 -0.03,0 -0.01,-0 -0.03,-0.01 -0.04,-0.01l-0 -0c-0.01,-0 -0.02,-0 -0.02,-0 -0.01,0 -0.02,0.01 -0.02,0.02 0,0.01 0.01,0.02 0.02,0.02l0.01 0c0.01,0 0.03,0.01 0.05,0.01 0.01,0 0.03,-0 0.04,-0 0.01,-0 0.02,-0.01 0.03,-0.01 0.01,-0.01 0.02,-0.02 0.03,-0.03 0.01,-0.01 0.01,-0.02 0.02,-0.04 0.01,-0.02 0.01,-0.04 0.01,-0.07l0 -0.03c0,-0 -0,-0 -0,-0 0.01,-0 0.03,-0 0.07,0l0.39 0.01z"/>
     <path class="fil11" d="M2.76 5.78c-0.01,0 -0.02,-0.01 -0.02,-0.02 -0,-0.01 0.01,-0.02 0.02,-0.02l0.39 -0.01c0.04,-0 0.06,-0 0.08,0 0.02,0.01 0.03,0.02 0.03,0.04l0.01 0.03c0,0.02 0.01,0.04 0.01,0.06 0,0.01 0.01,0.02 0.01,0.03 0,0.01 0.01,0.01 0.02,0.01 0.01,0 0.01,0.01 0.02,0.01 0.01,0 0.02,0 0.03,0 0.01,-0 0.03,-0.01 0.04,-0.01l0 -0c0.01,-0 0.02,-0 0.02,-0 0.01,0 0.02,0.01 0.02,0.02 0,0.01 -0.01,0.02 -0.02,0.02l-0.01 0c-0.01,0 -0.03,0.01 -0.05,0.01 -0.01,0 -0.03,-0 -0.04,-0 -0.01,-0 -0.02,-0.01 -0.03,-0.01 -0.01,-0.01 -0.02,-0.02 -0.03,-0.03 -0.01,-0.01 -0.01,-0.02 -0.02,-0.04 -0.01,-0.02 -0.01,-0.04 -0.01,-0.07l-0 -0.03c0,-0 0,-0 0,-0 -0.01,-0 -0.03,-0 -0.07,0l-0.39 0.01z"/>
     <path class="fil11" d="M3.77 8.29c-0.01,0.01 -0.01,0.02 -0,0.03 0.01,0.01 0.02,0.01 0.03,0l0.24 -0.19c0.03,-0.02 0.04,-0.03 0.05,-0.04 0.01,-0.01 0.02,-0.02 0.02,-0.03l0.01 -0.03c0,-0.02 0.01,-0.04 0.02,-0.07l0.02 -0.06c0.02,-0.06 0.03,-0.13 0.05,-0.2 0.01,-0.05 0.02,-0.11 0.03,-0.17 0.01,-0.06 0.01,-0.12 0,-0.18 -0.01,-0.07 -0.02,-0.13 -0.04,-0.19 -0.02,-0.06 -0.05,-0.12 -0.08,-0.17l-0 -0c-0.03,-0.05 -0.08,-0.1 -0.12,-0.14 -0.05,-0.04 -0.1,-0.08 -0.16,-0.1 -0.05,-0.03 -0.11,-0.04 -0.16,-0.05 -0.05,-0.01 -0.1,-0.02 -0.14,-0.02 -0.04,-0 -0.07,-0.01 -0.11,-0.01 -0.04,-0 -0.07,-0 -0.09,-0 -0.04,-0 -0.06,0 -0.08,0 -0.01,0 -0.02,0.01 -0.02,0.02 0,0.01 0.01,0.02 0.02,0.02l0 -0c0.02,-0 0.03,-0 0.07,-0 0.02,0 0.05,0 0.09,0 0.03,0 0.06,0.01 0.1,0.01 0.04,0 0.09,0.01 0.14,0.02 0.05,0.01 0.1,0.03 0.15,0.05 0.05,0.02 0.1,0.06 0.15,0.1 0.04,0.04 0.08,0.08 0.12,0.13l0 0c0.03,0.05 0.06,0.11 0.08,0.16 0.02,0.06 0.03,0.12 0.04,0.18 0.01,0.06 0,0.12 -0,0.18 -0.01,0.06 -0.02,0.11 -0.03,0.16 -0.02,0.08 -0.04,0.15 -0.05,0.2l-0.02 0.06c-0.01,0.04 -0.01,0.06 -0.02,0.07l-0.01 0.02c-0,0 -0,0.01 -0.01,0.01 -0.01,0.01 -0.02,0.02 -0.05,0.04l-0.24 0.19z"/>
     <path class="fil11" d="M3.21 7.7c-0.01,-0 -0.02,0.01 -0.02,0.02 -0,0.01 0.01,0.02 0.02,0.02 0.13,0.01 0.26,0.02 0.34,0.03 0.04,0.01 0.07,0.01 0.09,0.02l0 0c0.02,0.01 0.03,0.01 0.04,0.02 0.01,0.01 0.01,0.01 0.02,0.02 0.01,0.01 0.01,0.03 0.01,0.05 0,0.03 0,0.07 0,0.11 -0,0.04 -0,0.08 -0.01,0.11 -0,0.08 -0.01,0.16 -0.01,0.23l-0 0.04c0,0.01 0,0.02 0,0.03 0,0.02 0.02,0.03 0.03,0.02 0.01,-0 0.02,-0.01 0.03,-0.02 0.01,-0.01 0.02,-0.02 0.03,-0.04l0.03 -0.05c0.01,-0.01 0,-0.02 -0.01,-0.03 -0.01,-0.01 -0.02,-0 -0.03,0.01l-0.04 0.06c0,-0.08 0.01,-0.17 0.01,-0.25 0,-0.03 0,-0.07 0.01,-0.11 0,-0.04 0,-0.08 -0,-0.11 -0,-0.03 -0.01,-0.06 -0.01,-0.07 -0.01,-0.02 -0.02,-0.03 -0.03,-0.04 -0.01,-0.01 -0.03,-0.02 -0.05,-0.02l-0 -0c-0.02,-0.01 -0.05,-0.01 -0.09,-0.02 -0.08,-0.01 -0.21,-0.02 -0.34,-0.03z"/>
     <path class="fil11" d="M3.13 7.52c-0,0.01 0.01,0.02 0.02,0.03 0.01,0 0.02,-0.01 0.03,-0.02l0 -0c0.01,-0.04 0.02,-0.08 0.03,-0.1 0,-0.01 0.01,-0.02 0.01,-0.02 0.01,-0 0.02,-0.01 0.05,-0.01 0.03,-0 0.07,-0.01 0.12,-0 0.03,0 0.07,0 0.09,0.01 0.02,0 0.03,0.01 0.04,0.02 0,0.01 0.01,0.02 0.01,0.03 0,0.01 0,0.03 0,0.05l-0 0.05c-0,0.01 0.01,0.02 0.02,0.02 0.01,0 0.02,-0.01 0.02,-0.02l0 -0.05c0,-0.02 0,-0.03 -0,-0.05 -0,-0.02 -0,-0.04 -0.01,-0.05 -0.01,-0.02 -0.03,-0.03 -0.06,-0.04 -0.03,-0.01 -0.06,-0.01 -0.1,-0.01 -0.04,-0 -0.09,0 -0.12,0 -0.03,0 -0.05,0.01 -0.07,0.02 -0.02,0.01 -0.02,0.02 -0.03,0.04 -0.01,0.03 -0.02,0.07 -0.03,0.11l-0 0z"/>
     <path class="fil11" d="M3.57 7.37c-0.01,0 -0.02,0.02 -0.01,0.03 0,0.01 0.02,0.02 0.03,0.01 0.04,-0.01 0.07,-0.03 0.1,-0.06 0.01,-0.02 0.02,-0.03 0.03,-0.06l0 -0c0,-0.02 0.01,-0.04 0.01,-0.06 0,-0.02 0,-0.04 0,-0.05 -0,-0.02 -0,-0.03 -0,-0.04l-0 -0c-0,-0.01 -0.01,-0.03 -0.01,-0.04 -0,-0.01 -0.01,-0.02 -0.02,-0.03 -0.01,-0.01 -0.01,-0.02 -0.03,-0.03l-0 -0c-0.01,-0.01 -0.03,-0.02 -0.05,-0.03 -0.02,-0.01 -0.05,-0.02 -0.08,-0.03 -0.03,-0.01 -0.06,-0.02 -0.09,-0.02 -0.01,-0 -0.02,0 -0.03,0.02 -0,0.01 0,0.02 0.02,0.03 0.03,0.01 0.06,0.02 0.09,0.02 0.03,0.01 0.05,0.02 0.07,0.02 0.02,0.01 0.03,0.01 0.04,0.02l0 0c0.01,0.01 0.01,0.01 0.02,0.02 0.01,0.01 0.01,0.01 0.01,0.02 0,0.01 0.01,0.02 0.01,0.03l0 0c0,0.01 0,0.02 0,0.04 0,0.02 -0,0.03 -0,0.05 -0,0.02 -0,0.03 -0.01,0.05l-0 0c-0,0.01 -0.01,0.03 -0.02,0.04 -0.02,0.02 -0.05,0.03 -0.08,0.04l-0 0z"/>
     <path class="fil11" d="M4.3 7.74c0,-0.01 -0.01,-0.02 -0.02,-0.02 -0.01,0 -0.02,0.01 -0.02,0.02l-0 0.72c0,0.01 0.01,0.02 0.02,0.02 0.01,0 0.02,-0.01 0.02,-0.02l0 -0.72z"/>
     <path class="fil11" d="M5.14 8.46c0,0.01 0,0.01 0.01,0.02l0.03 0c0,-0 0.01,-0.01 0.01,-0.02 0,-0.28 0,-0.55 0,-0.68 0,-0.07 -0,-0.11 -0,-0.13 -0,-0.03 -0.01,-0.04 -0.01,-0.05 -0.01,-0.01 -0.02,-0.02 -0.04,-0.02l-0 -0c-0.02,-0 -0.05,-0.01 -0.1,-0.01 -0.05,-0 -0.12,-0 -0.19,-0 -0.07,-0 -0.15,-0 -0.2,0 -0.05,0 -0.08,0 -0.1,0.01l-0 0c-0.02,0 -0.03,0.01 -0.04,0.02 -0.01,0.01 -0.02,0.02 -0.02,0.05 -0,0.02 -0,0.06 -0,0.13 0,0.07 0,0.17 0,0.27l0.01 0.39 0 0.04 0.05 0 -0 -0.03c0,-0.13 -0.01,-0.27 -0.01,-0.41 -0,-0.1 -0,-0.2 -0,-0.27 -0,-0.07 0,-0.11 0,-0.13 0,-0.01 0,-0.02 0,-0.02 0,-0 0.01,-0 0.02,-0.01l0 -0c0.02,-0 0.05,-0 0.1,-0.01 0.05,-0 0.13,-0 0.2,-0 0.07,0 0.14,0 0.18,0.01 0.05,0 0.08,0.01 0.09,0.01l0 0c0.01,0 0.02,0.01 0.02,0.01 0,0 0,0.01 0,0.02 0,0.02 0,0.06 0,0.13 0,0.16 -0,0.42 -0,0.68z"/>
     <path class="fil11" d="M5.86 8.46c-0,0.01 0,0.01 0.01,0.02l0.03 0 0 0c0,-0 0.01,-0.01 0.01,-0.02 0,-0.28 0,-0.55 0,-0.68 0,-0.07 -0,-0.11 -0,-0.13 -0,-0.03 -0.01,-0.04 -0.01,-0.05 -0.01,-0.01 -0.02,-0.02 -0.04,-0.02l-0 -0c-0.02,-0 -0.05,-0.01 -0.1,-0.01 -0.05,-0 -0.12,-0 -0.19,-0 -0.07,-0 -0.15,-0 -0.2,0 -0.05,0 -0.08,0 -0.1,0.01l-0 0c-0.02,0 -0.03,0.01 -0.04,0.02 -0.01,0.01 -0.02,0.02 -0.02,0.05 -0,0.02 -0,0.06 -0,0.13 0,0.07 0,0.17 0,0.27l0.01 0.39 0 0.04 0.05 0 -0 -0.03c0,-0.13 -0.01,-0.27 -0.01,-0.41 -0,-0.1 -0,-0.2 -0,-0.27 -0,-0.07 0,-0.11 0,-0.13 0,-0.01 0,-0.02 0,-0.02 0,-0 0.01,-0 0.02,-0.01l0 -0c0.02,-0 0.05,-0 0.1,-0.01 0.05,-0 0.13,-0 0.2,-0 0.07,0 0.13,0 0.18,0.01 0.05,0 0.08,0.01 0.09,0.01l0 0c0.01,0 0.02,0.01 0.02,0.01 0,0 0,0.01 0,0.02 0,0.02 0,0.06 0,0.13 0,0.16 -0,0.42 -0,0.68z"/>
     <path class="fil11" d="M4.47 7.94c0.01,0 0.02,-0.01 0.02,-0.02 0,-0.01 -0.01,-0.02 -0.02,-0.02l-0.19 -0c-0.01,-0 -0.02,0.01 -0.02,0.02 -0,0.01 0.01,0.02 0.02,0.02l0.19 0z"/>
     <path class="fil11" d="M0.79 6l0 -0c0.06,-0.05 0.13,-0.11 0.17,-0.14 0.02,-0.02 0.04,-0.03 0.08,-0.03 0.04,-0.01 0.1,-0.01 0.21,-0.01 0.18,-0 0.48,-0 0.71,-0l0.23 0c0.15,0 0.16,0 0.18,0.01 0.02,0.01 0.04,0.03 0.06,0.05l0 0 -0.02 0.02 -0 -0c-0.02,-0.02 -0.04,-0.03 -0.05,-0.04 -0.01,-0.01 -0.02,-0.01 -0.17,-0.01l-0.23 -0c-0.23,-0 -0.53,-0 -0.71,0 -0.11,0 -0.17,0 -0.21,0.01 -0.04,0.01 -0.05,0.01 -0.07,0.03 -0.04,0.03 -0.11,0.09 -0.17,0.14l-0 0 -0.01 -0.02z"/>
     <path class="fil11" d="M0.79 5.72l0 -0c0.06,-0.05 0.13,-0.11 0.17,-0.14 0.02,-0.02 0.04,-0.03 0.08,-0.03 0.04,-0.01 0.1,-0.01 0.21,-0.01 0.18,-0 0.48,-0 0.71,-0l0.23 0c0.15,-0 0.16,-0 0.18,0.01 0.02,0.01 0.04,0.03 0.06,0.05l0 0 -0.02 0.02 -0 -0c-0.02,-0.02 -0.04,-0.03 -0.05,-0.04 -0.01,-0.01 -0.02,-0.01 -0.17,-0.01l-0.23 0c-0.23,-0 -0.53,-0 -0.71,0 -0.11,0 -0.17,0 -0.21,0.01 -0.04,0.01 -0.05,0.01 -0.07,0.03 -0.04,0.03 -0.11,0.09 -0.17,0.14l-0 0 -0.01 -0.02z"/>
     <path class="fil11" d="M0.79 7.02l0 -0c0.06,-0.05 0.13,-0.11 0.17,-0.14 0.02,-0.02 0.04,-0.03 0.08,-0.03 0.04,-0.01 0.1,-0.01 0.21,-0.01 0.18,-0 0.48,-0 0.71,-0l0.23 0c0.15,-0 0.16,-0 0.18,0.01 0.02,0.01 0.04,0.03 0.06,0.05l0 0 -0.02 0.02 -0 -0c-0.02,-0.02 -0.04,-0.03 -0.05,-0.04 -0.01,-0.01 -0.02,-0.01 -0.17,-0.01l-0.23 -0c-0.23,-0 -0.53,-0 -0.71,0 -0.11,0 -0.17,0 -0.21,0.01 -0.04,0.01 -0.05,0.01 -0.07,0.03 -0.04,0.03 -0.11,0.09 -0.17,0.14l-0 0 -0.01 -0.02z"/>
     <path class="fil11" d="M5.93 7.04l-0 -0c-0.06,-0.05 -0.11,-0.11 -0.15,-0.14 -0.02,-0.01 -0.03,-0.02 -0.06,-0.03 -0.03,-0.01 -0.09,-0.01 -0.18,-0.01 -0.16,-0 -0.42,-0 -0.62,-0l-0.2 0c-0.12,-0 -0.13,-0 -0.14,0.01 -0.01,0.01 -0.03,0.02 -0.04,0.04l-0 0 -0.02 -0.01 0 -0c0.02,-0.02 0.03,-0.04 0.05,-0.05 0.01,-0.01 0.03,-0.01 0.16,-0.01l0.2 0c0.2,-0 0.47,-0 0.62,0 0.1,0 0.15,0 0.19,0.01 0.04,0.01 0.05,0.02 0.07,0.03 0.04,0.03 0.09,0.09 0.15,0.14l0 0 -0.02 0.02z"/>
     <path class="fil11" d="M5.93 6.1l-0 -0c-0.06,-0.05 -0.11,-0.11 -0.15,-0.14 -0.02,-0.01 -0.03,-0.02 -0.06,-0.03 -0.03,-0.01 -0.09,-0.01 -0.18,-0.01 -0.16,-0 -0.42,-0 -0.62,-0l-0.2 0c-0.12,0 -0.13,0 -0.14,0.01 -0.01,0.01 -0.03,0.02 -0.04,0.04l-0 0 -0.02 -0.01 0 -0c0.02,-0.02 0.03,-0.04 0.05,-0.05 0.01,-0.01 0.03,-0.01 0.16,-0.01l0.2 -0c0.2,-0 0.47,-0 0.62,0 0.1,0 0.15,0 0.19,0.01 0.04,0.01 0.05,0.02 0.07,0.03 0.04,0.03 0.09,0.09 0.15,0.14l0 0 -0.02 0.02z"/>
     <path class="fil11" d="M4.7 5.24l-0.07 0.03c-0.02,0.01 -0.04,0.02 -0.06,0.03 -0.02,0.01 -0.03,0.02 -0.04,0.03 -0.01,0.01 -0.02,0.02 -0.03,0.03 -0.01,0.01 -0.01,0.02 -0.01,0.04 -0,0.02 -0.01,0.07 -0.01,0.14 -0,0.1 0,0.25 0,0.38l0 0.18c0,0.09 -0,0.13 -0,0.15l0 0.01c0,0 0,0.01 0,0.01 0,0 0,0 0.01,0.01 0.01,0 0.02,0 0.04,0.01l0.03 0c0.01,0 0.03,0 0.04,0.01 0.02,0.01 0.03,0.02 0.03,0.03l-0 0c-0,0.02 -0.02,0.02 -0.04,0.03 -0.01,0 -0.02,0.01 -0.03,0.01 -0.01,0.01 -0.03,0.02 -0.04,0.03 -0.01,0.01 -0.02,0.02 -0.02,0.03 -0.01,0.01 -0.01,0.02 -0.01,0.04 -0,0.03 -0,0.08 -0,0.15l0.01 0.76c0,0.03 -0,0.04 -0,0.05l0 0c-0,0.02 -0,0.03 -0,0.03 0,0 0.01,-0 0.02,-0 0.01,-0 0.03,-0.01 0.04,-0.02l0.02 0.04c-0.02,0.01 -0.03,0.01 -0.05,0.02 -0.02,0.01 -0.04,0.01 -0.05,0 -0.03,-0.01 -0.03,-0.05 -0.02,-0.08l0 -0.05 -0.01 -0.76c-0,-0.08 -0,-0.13 0,-0.16 0,-0.03 0.01,-0.05 0.02,-0.06 0.01,-0.01 0.02,-0.03 0.03,-0.04 0.01,-0.01 0.03,-0.02 0.05,-0.03l0.01 -0.01 -0.02 -0c-0.02,-0 -0.04,-0 -0.06,-0.01 -0.01,-0.01 -0.02,-0.01 -0.02,-0.02 -0.01,-0.01 -0.01,-0.02 -0.01,-0.03 -0,-0.01 -0,-0.01 -0,-0.02 0,-0.02 0,-0.05 0,-0.15l-0 -0.18c-0,-0.13 -0,-0.28 -0,-0.38 0,-0.07 0,-0.12 0.01,-0.14 0,-0.03 0.01,-0.04 0.02,-0.06 0.01,-0.01 0.02,-0.02 0.03,-0.03 0.01,-0.01 0.03,-0.02 0.05,-0.03 0.02,-0.01 0.04,-0.02 0.06,-0.03 0.02,-0.01 0.04,-0.02 0.07,-0.03l0.02 0.04z"/>
    </g>
    <circle class="fil1" cx="5.17" cy="5.62" r="0.06"/>
    <circle class="fil1" cx="5.17" cy="6.63" r="0.06"/>
    <circle class="fil1" cx="5.17" cy="7.04" r="0.06"/>
   </g>
   <ellipse class="fil17" cx="3.34" cy="0.03" rx="0.09" ry="0.03"/>
  </g>
 </g>
</svg>
