<?xml version="1.0" encoding="UTF-8"?>
<!DOCTYPE svg PUBLIC "-//W3C//DTD SVG 1.1//EN" "http://www.w3.org/Graphics/SVG/1.1/DTD/svg11.dtd">
<!-- Creator: CorelDRAW -->
<svg xmlns="http://www.w3.org/2000/svg" xml:space="preserve" width="2.4309mm" height="8.0002mm" version="1.1" style="shape-rendering:geometricPrecision; text-rendering:geometricPrecision; image-rendering:optimizeQuality; fill-rule:evenodd; clip-rule:evenodd"
viewBox="0 0 5.61 18.46"
 xmlns:xlink="http://www.w3.org/1999/xlink"
 xmlns:xodm="http://www.corel.com/coreldraw/odm/2003">
 <defs>
  <style type="text/css">
   <![CDATA[
    .fil6 {fill:#131414}
    .fil1 {fill:#151616}
    .fil8 {fill:#343B3E}
    .fil11 {fill:#770606}
    .fil10 {fill:#7D7D7E}
    .fil7 {fill:#A3A4A4}
    .fil9 {fill:#A90705}
    .fil0 {fill:#CC0000}
    .fil5 {fill:#D1D2D2}
    .fil3 {fill:#F7F7F7}
    .fil4 {fill:black;fill-opacity:0.301961}
    .fil2 {fill:url(#id0)}
   ]]>
  </style>
  <linearGradient id="id0" gradientUnits="userSpaceOnUse" x1="0.94" y1="2.02" x2="4.67" y2="2.02">
   <stop offset="0" style="stop-opacity:1; stop-color:#343B3E"/>
   <stop offset="0.505882" style="stop-opacity:1; stop-color:#909495"/>
   <stop offset="0.709804" style="stop-opacity:1; stop-color:#EDEDED"/>
   <stop offset="1" style="stop-opacity:1; stop-color:#454545"/>
  </linearGradient>
 </defs>
 <g id="Camada_x0020_1">
  <metadata id="CorelCorpID_0Corel-Layer"/>
  <g id="_1767149832384">
   <path class="fil0" d="M5.08 5.33c0,1.14 0.03,11.28 -0.01,11.51 -0.05,0.37 0.06,1.23 -0.25,1.42 -0.11,0.07 -0.75,0.15 -0.95,0.16 -0.87,0.04 -1.52,0.08 -2.4,-0.03 -0.54,-0.06 -0.84,-0.04 -0.88,-0.53 -0.03,-0.44 -0.05,-0.88 -0.05,-1.36 0,-0.24 -0.02,-0.41 -0.02,-0.67l0 -9.42c0,-0.74 0.03,-1.4 0.02,-2.12 -0,-0.2 0.02,-0.31 0.02,-0.51 -0,-0.18 -0,-0.36 -0,-0.53 0,-0.12 0.02,-0.14 0.02,-0.25 0.01,-0.35 -0.01,-0.35 0.02,-0.76 -0.04,0 -0.05,-0 -0.08,0.01 -0.02,0.01 -0.02,0.01 -0.03,0.01 0,0 0,0 -0.02,0.02 -0.25,0.2 -0.13,0.29 -0.24,0.45 -0.02,0.03 -0.12,0.11 -0.17,0.11 -0.05,0 -0.08,-0.07 -0.09,-0.16l0 -0.19c0.01,-0.15 0.05,-0.32 0.09,-0.37 0.07,-0.1 0.21,-0.21 0.37,-0.21 0.04,0 0.02,0.05 0.09,0.05 0.1,0 0.06,-0.1 0.07,-0.2l0.07 -0.74c0.03,-0.26 0.06,-0.63 0.31,-0.75 0.76,-0.37 2.98,-0.35 3.61,0.01 0.11,0.06 0.18,0.14 0.22,0.28 0.08,0.23 0.15,1.12 0.15,1.38 0.05,0.01 0.05,0.02 0.12,0.02 0.01,0 0.12,-0.15 0.38,0.1 0.09,0.08 0.12,0.2 0.13,0.33l0 0.35c0,0.12 -0.2,0.16 -0.29,-0.17 -0.05,-0.19 -0.17,-0.28 -0.18,-0.28 -0.08,-0.07 0.01,-0.05 -0.13,-0.06 0,1.04 0.07,2.04 0.07,3.09z"/>
   <g>
    <path class="fil1" d="M4.63 17.72c-0.01,-0.04 -0.01,-0.02 0.03,-0.01l0.04 -0.03 0.03 -0.01 0.02 -0.03c0.02,-0.03 0.01,-0.02 0.02,-0.05 0.06,0.03 0.04,0.02 0.08,0.06 0,0 0.03,0.03 0.03,0.04 0.03,0.04 0.01,0 0.03,0.04 0.05,0.11 0.03,0.16 -0,0.27 0,0.03 0.01,0.02 -0.02,0.02l-0.03 0.02 -0.03 0.01 -0.04 0.02 -0.01 0 0 0.03 -0.06 0.02c-0.13,-0.01 -0.07,0.01 -0.09,0.02 -0.06,-0.08 -0.04,-0.27 -0.06,-0.38l0.05 -0.03zm0.98 -15.32l0 0.35c0,0.12 -0.2,0.16 -0.29,-0.17 -0.05,-0.19 -0.17,-0.28 -0.18,-0.28 -0.08,-0.07 0.01,-0.05 -0.13,-0.06 0,1.04 0.07,2.04 0.07,3.09 0,1.14 0.03,11.28 -0.01,11.51 -0.05,0.37 0.06,1.23 -0.25,1.42 -0.11,0.07 -0.75,0.15 -0.95,0.16 -0.87,0.04 -1.52,0.08 -2.4,-0.03 -0.54,-0.06 -0.84,-0.04 -0.88,-0.53 -0.03,-0.44 -0.05,-0.88 -0.05,-1.36 0,-0.24 -0.02,-0.41 -0.02,-0.67l0 -9.42c0,-0.74 0.03,-1.4 0.02,-2.12 -0,-0.2 0.02,-0.31 0.02,-0.51 -0,-0.18 -0,-0.36 -0,-0.53 0,-0.12 0.02,-0.14 0.02,-0.25 0.01,-0.35 -0.01,-0.35 0.02,-0.76 -0.04,0 -0.05,-0 -0.08,0.01 -0.06,0.02 0,-0.01 -0.04,0.03 -0.25,0.2 -0.13,0.29 -0.24,0.45 -0.02,0.03 -0.12,0.11 -0.17,0.11 -0.05,0 -0.08,-0.07 -0.09,-0.16l0 -0.19c0.01,-0.15 0.05,-0.32 0.09,-0.37 0.07,-0.1 0.21,-0.21 0.37,-0.21 0.04,0 0.02,0.05 0.09,0.05 0.1,0 0.06,-0.1 0.07,-0.2l0.07 -0.74c0.03,-0.26 0.06,-0.63 0.31,-0.75 0.76,-0.37 2.98,-0.35 3.61,0.01 0.11,0.06 0.18,0.14 0.22,0.28 0.08,0.23 0.15,1.12 0.15,1.38 0.05,0.01 0.05,0.02 0.12,0.02 0.01,0 0.12,-0.15 0.38,0.1 0.09,0.08 0.12,0.2 0.13,0.33zm-0.74 14.07c-0.05,-0.12 -0.06,-0.02 -0.06,-0.19l0 -0.76c-0,-0.35 0,-0.7 -0,-1.05 0.24,0.11 0.15,0.52 0.15,0.95 0,0.18 -0,0.37 0,0.55l-0.09 0.49zm-4.07 -1.98c0.04,0.25 0,0.75 0.01,1.03 0,0.3 0.07,0.77 -0.07,0.98 -0.08,-0.23 -0.07,-1.24 -0.06,-1.58 0,-0.19 -0.02,-0.36 0.13,-0.43zm4.01 -2.32c0.06,0.03 0.09,0.05 0.14,0.09 0,0.34 -0,0.7 -0,1.04 -0,0.25 0.05,0.86 -0.04,1.03 -0.02,-0 -0.04,0.02 -0.08,-0.04 -0.04,-0.07 -0.02,-0.87 -0.02,-0.97 -0,-0.39 0.01,-0.77 -0,-1.16zm-4.13 0.08c0.07,-0.04 0.04,-0.04 0.12,-0.06l0 2.12c-0.05,0.02 -0.06,0.02 -0.09,0.04 -0.08,-0.28 -0.03,-0.69 -0.04,-1.01 -0.01,-0.32 -0.03,-0.78 0,-1.08zm4.14 -1.85c0.05,0.04 0.08,0.05 0.13,0.08l0.01 1.66c-0.1,-0.04 -0.06,-0.04 -0.14,-0.06l0 -1.69zm0.02 1.67l-0.01 -0.01c-0,0 0.01,0.01 0.01,0.01zm-4.15 0c-0.02,-0.3 -0,-0.62 -0,-0.92 -0,-0.41 -0.07,-0.7 0.13,-0.76 0.02,0.42 -0.01,0.92 0,1.38 0,0.16 0.04,0.28 -0.13,0.29zm4.27 -1.73c-0.07,-0.03 -0.12,-0.04 -0.13,-0.13l-0 -1.68c0.11,0.1 0.14,0.15 0.13,0.35l-0 1.47zm-4.27 -0.36c0,-0.26 -0,-0.52 -0,-0.78 -0,-0.18 -0.05,-0.55 0.13,-0.65 -0,0.33 -0,0.65 -0.01,0.97 -0,0.35 0.07,0.76 -0.12,0.82l-0 -0.36zm4.19 -2.46c-0.1,0.66 -0.11,0.29 -0.12,1.05 -0,0.39 0,0.79 -0,1.18 -0,0.78 -0,1.57 0,2.36l-0 4.11c-0,0.12 -0.02,0.17 0.03,0.27 0.05,0.1 0.07,0.14 0.14,0.17 0.02,-0.06 0.03,-0.14 0.04,-0.21 0.01,-0.09 0.01,-0.16 0.06,-0.22l-0.05 1.52c-0.13,-0.05 -0.03,-0.04 -0.17,-0.18l-0.02 0.02c-0.07,0.07 -0.08,0.1 -0.21,0.14 -0.06,-0.05 -0.09,-0.12 -0.1,-0.2l-0 0.1c-0.07,-0.02 -0.07,0.02 -0.06,-0.02l-0.02 0.02 0.09 -0.01c0.06,0.2 0.1,0.21 0.1,0.47l-0 0.08 0.05 -0.02 0.09 -0.02 0.06 -0.02 0.05 -0.02 0.12 -0.11c-0.04,0.21 -0.12,0.3 -0.36,0.32l-0.01 -0.01c-0.03,0.04 0,0.02 -0.08,0.03 -0.96,0.16 -2.45,0.17 -3.38,0 -0.09,-0.01 -0.05,0.01 -0.1,-0.03 -0.2,0.01 -0.3,-0.1 -0.34,-0.27 0.13,0.07 0.15,0.13 0.33,0.15 0.03,-0.03 0.04,0.04 0.01,-0.06l-0 -0.16 0.02 -0.14c-0.03,0.03 -0.02,0.01 -0.04,0.06 -0.03,0.07 -0.01,0.19 -0,0.26 -0.51,-0.09 -0.22,-0.47 -0.22,-0.49 0.01,-0 0.03,-0.01 0.03,-0.01 0,-0 0.01,-0 0.02,-0 0,-0 0.01,-0 0.02,-0 0.06,0.08 0.06,0.1 0.17,0.13 -0.01,0.04 -0.01,0.03 0.03,0.03 0.01,-0.04 0.02,-0.03 -0.03,-0.03 -0.02,-0.01 -0.05,-0.04 -0.08,-0.06 -0.07,-0.04 -0.04,0 -0.09,-0.07l-0.02 -0.05 -0.04 0.07c-0,0 -0.01,0 -0.01,0.01l-0.05 0.05c-0.03,0.04 -0.01,0.03 -0.08,0.04 -0.01,-0.45 -0.1,-1.16 -0.05,-1.58 0.06,0.07 0.05,0.26 0.07,0.39 0.02,0.11 0.03,0.1 0.05,0.12l0.07 -0.08c0.01,-0.01 0.04,-0.07 0.05,-0.09 0.06,-0.12 0.03,-0.66 0.03,-0.81 0,-0.38 0,-0.77 -0,-1.15l-0 -4.57c0,-0.43 -0.05,-1.99 0.04,-2.27l0.05 0.07c-0.03,-0.11 -0.02,-3.19 -0.02,-3.58 0,-0.29 -0.1,-0.84 -0.06,-1.11l-0.03 -0.08c-0,-0.25 -0.11,-0.53 -0.08,-0.78 -0.16,-0.23 -0.05,-1.53 0.12,-1.76 0.14,-0.18 0.44,-0.25 0.74,-0.3 0.86,-0.16 1.98,-0.15 2.79,0.1 0.35,0.11 0.37,0.23 0.43,0.6 0.05,0.3 0.07,0.64 0.08,0.95 0,0.05 -0.01,0.06 -0.01,0.06 -0.04,0.09 0.01,-0.08 -0.04,0.07l-0.09 0.74c-0.04,0.32 -0.09,0.68 -0.09,1 -0.04,1.22 -0.03,2.51 -0.03,3.74 0,0.26 0.05,0.29 0.07,0.5l0.22 -1.61c0.02,-0.06 0.01,-0.03 0.03,-0.06 0.01,0.24 -0.01,0.4 -0.03,0.62 -0.01,0.14 -0.09,0.46 -0.07,0.57l0.05 1.1c-0.04,-0.03 -0.01,0 -0.06,-0.06l-0.08 -0.18c0,-0 0.01,0 0.01,0 0.04,0.02 0.05,0.12 0.02,-0.07 -0.05,-0.31 0.12,-0.68 0.03,-0.71zm-4.1 0.17c-0.04,0.06 -0.01,0.12 -0,0.21 0.03,0.21 0.06,0.46 -0.09,0.62l0.01 -1.19c0.02,-0.28 -0.14,-0.57 -0.05,-1.23 -0.05,-0.03 -0.03,-0.02 -0.04,-0.02l0.01 -0.17c0.08,0.25 0.08,0.76 0.13,1.09 0.05,0.29 0.16,0.85 0.14,1.1 -0.07,-0.1 -0.09,-0.29 -0.1,-0.41zm0.08 -0.3c-0.05,-0.24 -0.07,-0.5 -0.11,-0.75 -0.04,-0.22 -0.09,-0.64 0.11,-0.67l0 1.03 -0 0.02 0 0.36zm3.93 -1.43c0.26,0.11 0.11,0.49 0.08,0.9l-0.09 0.3 0.01 -1.2zm0.24 0.13c-0.05,-0.1 -0.02,-0.18 0.01,-0.3 0,0.14 0.03,0.21 -0.01,0.3zm-4.33 -0.11c0.01,-0.2 -0.02,-1.16 0,-1.26 0.01,-0.04 0.09,-0.27 0.16,-0.29l0 1.44c-0.03,0.02 -0.05,0.04 -0.07,0.06l-0.09 0.06zm4.24 -0.01c-0.1,-0.08 -0.16,-0.13 -0.15,-0.3l0.01 -1.27c0.08,0.08 0.12,0.19 0.15,0.3 0.03,0.11 0.01,1.16 -0,1.27zm0.01 -1.56c-0.06,-0.02 -0.01,0.04 -0.06,-0.07 -0.03,-0.08 -0.11,-0.23 -0.11,-0.31 -0.05,-0.52 0.15,-1.42 0.1,-1.48 0.07,0.11 0.09,1.64 0.08,1.87zm-4.25 0.02c-0,-0.45 -0.02,-1.51 0.07,-1.88 0.03,0.25 0.18,1.28 0.09,1.52 -0.03,0.09 -0.11,0.29 -0.16,0.36zm4.34 0.19c-0.03,-0.04 -0.03,-0.02 -0.04,-0.09l-0 -0.53c0,-0.47 -0.08,-1.33 -0.07,-1.64 0,-0.01 0,-0.05 0.01,-0.06 0.02,-0.07 -0.01,-0 0.04,-0.05l0.07 2.37zm-4.38 -2c0.01,-0.19 -0.02,-0.32 0.05,-0.38 0.03,0.07 -0.01,0.7 -0.02,0.84l-0.02 0.67c-0,0.11 0,0.13 -0.03,0.2l0.03 -1.33zm-0.57 0.17c-0.01,-0.12 0.02,-0.02 -0.01,-0.27 -0.04,-0.28 0.11,-0.52 0.38,-0.54 0.01,0.05 0.01,0.1 0.01,0.15l-0.03 0.14c-0,-0 -0.01,-0.03 -0.07,-0.05 -0.04,0.05 -0.04,0.03 -0.09,0.07 -0.04,0.03 -0.04,0.04 -0.08,0.08 -0.05,0.06 -0.09,0.09 -0.1,0.2l0.02 -0.02c0.04,-0.05 0.11,-0.23 0.27,-0.27 -0.03,0.08 -0.06,0.07 -0.09,0.14 -0.07,0.16 0.02,0.21 -0.22,0.37zm5.49 -0.23c-0.07,-0.05 -0.05,-0.06 -0.09,-0.12 -0.04,-0.08 -0.01,-0.05 -0.08,-0.08 0.04,0.11 0.2,0.26 0.14,0.42 -0.1,-0.01 -0.15,-0.15 -0.18,-0.23 -0.1,-0.34 -0.13,-0.13 -0.17,-0.3 0.08,0.03 0.09,0.05 0.16,0.09 0.04,0.02 0.01,0.01 0.05,0.02 -0.02,-0.04 -0,-0.02 -0.05,-0.07 -0.05,-0.05 -0.12,-0.08 -0.18,-0.1l-0.01 -0.2c0.18,-0.06 0.4,0.17 0.4,0.56zm-0.47 -0.47c-0.15,0.08 -0.13,-0.06 -0.13,-0.07 0.08,-0.01 0.11,-0.01 0.13,0.07z"/>
    <path class="fil2" d="M0.94 1.72c-0.02,0.14 0.05,0.69 0.08,0.86l0.81 -0.17c0.65,-0.09 1.24,-0.06 1.89,-0.01 0.32,0.03 0.58,0.13 0.86,0.17 0,-0.18 0.06,-0.39 0.07,-0.59 0.03,-0.33 0.07,-0.29 -0.26,-0.35 -0.83,-0.17 -1.51,-0.22 -2.36,-0.12 -0.28,0.03 -0.9,0.09 -1.1,0.21z"/>
    <path class="fil3" d="M3.22 10.17c-0.04,-0.1 -0.03,-0.44 -0.01,-0.56l0.08 0c0.03,0.13 0.02,0.38 0.01,0.52l-0.09 0.03zm-0.32 -0.03l0 -0.51 0.09 -0c0,0 0.01,0 0.01,0 0.01,0.13 0.03,0.44 -0.02,0.54l-0.08 -0.03zm-0.05 0.03c-0.04,-0.08 -0.04,-0.5 0.01,-0.55 0.06,0.09 0.04,0.5 -0.01,0.55zm-0.35 -0.01c-0.02,-0.09 -0.01,-0.2 -0.02,-0.3 -0,-0.3 -0,-0.24 0.08,-0.25l0.02 0.03c0.03,0.07 0.02,0.07 0.02,0.17 -0,0.09 0.01,0.17 -0.01,0.25l0.01 -0.45c0.1,0.02 0.01,0.02 0.1,-0 0.03,0.3 0.02,0.26 0.01,0.56 -0.03,-0 -0.08,-0 -0.1,-0 -0,0 -0.08,0.01 -0.11,0zm0.22 -1.28c0.39,-0.13 0.57,0.5 0.18,0.61 -0.4,0.11 -0.59,-0.47 -0.18,-0.61zm-0.33 0.74l0.07 -0c0.03,0.14 0.03,0.41 0,0.55 -0,0 -0.05,0.01 -0.08,0l0 -0.55c-0.05,0.08 -0.01,0.49 -0.01,0.58 -0.14,-0.05 -0.06,0.09 -0.1,-0.12 -0.01,0.27 0.08,0.2 0.29,0.19l-0.27 0.02 -0 1.38 1.04 0.01c-0.01,-0.18 -0.03,-1.26 0.01,-1.34l-0 1.34c0.23,0 0.18,0.11 0.18,-0.63 -0,-0.26 -0.02,-0.61 -0.01,-0.81 0.02,-0.26 0.01,-0.56 0.01,-0.83 0,-0.14 -0,-0.28 0,-0.42 0,-0.2 0.02,-0.28 -0.17,-0.28l-0.01 1.57c-0.03,-0.01 -0,-0.1 0,-0.15 0,-0.07 -0,-0.14 -0,-0.21l-0.02 -0.37c0.01,-0.18 0.01,-0.68 -0.01,-0.83l-1 -0.01 -0.01 0.75c0,0.19 0.01,0.11 0.1,0.19z"/>
    <path class="fil4" d="M4.6 18.07c-0,-0.27 -0.04,-0.27 -0.1,-0.47l-0.09 0.01 -0.31 0.04c0.01,-0.16 -0,-0.03 0.1,-0.11 -0.13,-0.02 -0.03,0.01 -0.15,0.04l-0.51 0.03c-0.43,0.01 -1.76,0.06 -2.04,-0.07 0.02,0.05 0.02,0.03 0.02,0.11l-0.31 -0.04c-0.15,0.03 -0.09,0.22 -0.17,0.31l0 0.16c0.08,0.07 0.08,0.07 0.18,0.1 0.07,0.02 0.18,0.03 0.26,0.04 0.16,0.02 0.39,0.06 0.54,0.06l1.08 0c0.1,-0.03 0.03,0 0.09,-0.07l-0.94 0c-0.1,0.01 -0.04,0.03 -0.09,-0.03 0.04,-0.03 0.02,-0.03 0.13,-0.02 0.05,0 0.11,0.01 0.16,0.01 0.3,0.01 0.61,-0.02 0.9,-0 -0.15,0.03 -0.04,0.01 -0.07,0.05l-0.05 0.06c-0.01,0 -0.01,0.01 -0.02,0.02 0.28,-0.01 1.23,-0.04 1.39,-0.23zm-3.47 0.23c0.93,0.17 2.43,0.16 3.38,-0l0.04 -0.12 -0.18 0.03c-0.61,0.08 -0.85,0.14 -1.57,0.13 -0.3,-0 -0.62,-0.02 -0.91,-0.04l-0.79 -0.12 0.03 0.12zm1.33 -0.61c-0,-0.01 -0.01,-0.01 -0.02,-0.01 0.05,-0.04 -0.08,-0.03 0.08,-0.05l0.49 0c0.01,0 0.08,-0 0.09,0 0.08,0.02 0.02,-0.01 0.06,0.04l-0.68 0.02c-0.01,-0 -0.02,-0 -0.02,-0.01z"/>
    <path class="fil1" d="M0.94 1.72c0.19,-0.12 0.81,-0.18 1.1,-0.21 0.84,-0.1 1.53,-0.05 2.36,0.12 0.33,0.07 0.29,0.03 0.26,0.35 -0.02,0.2 -0.07,0.41 -0.07,0.59 -0.28,-0.04 -0.54,-0.14 -0.86,-0.17 -0.65,-0.05 -1.23,-0.08 -1.89,0.01l-0.81 0.17c-0.03,-0.17 -0.1,-0.73 -0.08,-0.86zm2.82 -0.29c0.12,-0.08 0.77,0.08 0.93,0.2l-0.11 0.01c-0.03,-0.01 -0.07,-0.02 -0.11,-0.03l-0.5 -0.1c-0.07,-0.02 -0.16,-0.03 -0.2,-0.08zm-2.84 0.23c0.08,-0.16 0.79,-0.27 0.91,-0.24l-0.02 0.05c-0.04,0.03 -0.37,0.08 -0.42,0.09 -0.15,0.03 -0.35,0.09 -0.47,0.1zm0.01 -0.11l-0.07 0.04 0 -0.13c-0.01,0.16 -0.03,0.21 -0.02,0.38l0.09 0.75c0.06,0.07 0.02,0.05 0.04,0.13 0.03,0.16 -0.02,0.11 0.09,0.09 0.91,-0.27 2.61,-0.35 3.49,0l0.08 0.01 0.13 -0.96c0.01,-0.11 0.03,-0.2 -0.03,-0.28 -0.37,-0.26 -1.34,-0.3 -1.89,-0.31 -0.65,-0.01 -1.36,0.04 -1.9,0.27z"/>
    <path class="fil5" d="M2.13 11.65c-0.06,-0.15 -0.02,-0.51 -0.02,-0.7l0.01 -0.62c0.01,-0.05 0,-0.03 0.03,-0.06l0.09 0c0,0.01 0.01,0.01 0.01,0.02 0.04,0.11 0.03,1.28 0.02,1.31 -0.02,0.06 0,0.02 -0.03,0.06l-0.11 -0zm0.25 -2.04l0.01 0.01c0,0.01 0.01,0.01 0.02,0.01 0,0 0.01,0 0.02,0.01 0.05,0.01 0.04,0.03 0.04,-0.02l-0.07 0c-0.09,-0.08 -0.1,-0 -0.1,-0.19l0.01 -0.75 1 0.01c0.03,0.15 0.02,0.65 0.01,0.83l0.02 0.37c0,0.07 0.01,0.14 0,0.21 -0,0.06 -0.03,0.15 -0,0.15l0.01 -1.57c0.2,-0.01 0.18,0.08 0.17,0.28 -0,0.14 -0,0.28 -0,0.42 -0,0.26 0.02,0.57 -0.01,0.83 -0.02,0.2 0,0.55 0.01,0.81 0,0.75 0.05,0.63 -0.18,0.63l0 -1.34c-0.03,0.09 -0.01,1.16 -0.01,1.34l-1.04 -0.01 0 -1.38 0.27 -0.02c-0.21,0.01 -0.29,0.08 -0.29,-0.19 0.04,0.21 -0.04,0.08 0.1,0.12 -0,-0.08 -0.04,-0.5 0.01,-0.58zm-0.27 -0.21c-0,-0.47 -0.07,-0.72 0.16,-0.71l0.01 1.47c-0.02,0.09 0,0.03 -0.03,0.08l-0.09 -0 -0.03 -0.84zm1.57 -0.62l-0.03 -0.03 -0.03 0.07c-0.06,-0.18 -0.11,-0.15 -0.3,-0.15l-1.11 0c-0.12,0.01 -0.12,0.01 -0.18,-0.03l-0.01 0.02c0.06,0.06 -0,0.12 -0.01,0.14 -0.04,0.09 -0.02,0.48 -0.02,0.59 0,0.48 -0.03,1.85 0,2.24 0,0.03 0,0.06 0.01,0.09l0.01 0.05c0,-0 0,0.01 0,0.02 0.12,0.06 1.48,0.04 1.61,0 0.03,-0.32 0.01,-1.76 0.01,-2.26 -0,-0.2 -0.04,-0.69 0.05,-0.75z"/>
    <path class="fil6" d="M1.03 7.79c0.09,0.2 0.04,5.48 0.04,6.43 -0,0.72 0.02,1.45 -0.02,2.17 -0.01,0 -0.04,0.01 -0.05,0.01l-0.08 0.04 0.12 0.01 0 0.54c0.03,0.32 0.13,0.03 0.1,0.4 0.04,0.07 0.02,0.08 0.03,0.13 0.02,0.09 -0.06,0 0.03,0.07l0 -0.07c-0.04,-0.06 -0.01,-0.25 0.01,-0.33 0.36,-0.1 2.76,-0.08 3.18,-0l0.02 0.34c-0.08,-0.03 -0.08,-0.03 -0.16,0.02 0.01,-0 0.06,-0.01 0.07,-0.01 0.09,0.02 0.02,-0.04 0.07,0.05 -0.01,0.04 -0.01,0 0.06,0.02l0 -0.1 -0 -0.29c0.01,-0 0.01,-0.02 0.01,-0.01 0,0 0.01,-0.01 0.01,-0.01 0.1,-0.12 0.06,-0.13 0.07,-0.3 0,-0.16 0.02,-0.29 0,-0.45l0.08 -0.03 -0.08 -0.02c-0.04,-2.28 -0,-4.57 -0.01,-6.84l0.02 -5.98c0,-0.13 0.06,-0.72 0.05,-0.75l-0.08 -0.01c0.01,0.04 -0.03,0.69 -0.04,0.83 -0.03,0.82 0.01,1.84 -0,2.7 -0.01,0.93 0.07,10.33 -0.01,10.8 -0.25,0 -0.59,-0.04 -0.85,-0.05 -0.58,-0.03 -1.13,-0.02 -1.71,0 -0.26,0.01 -0.59,0.06 -0.83,0.05 -0.05,-0.52 -0.03,-1.27 -0.03,-1.81l0 -5.4c-0.01,-1.21 0.02,-2.42 0.02,-3.62 -0,-0.77 0.03,-1.97 -0.01,-2.7 -0.01,-0.15 -0.01,-0.29 -0.02,-0.44 -0.01,-0.11 -0.06,-0.26 -0.01,-0.35 -0.11,0.01 -0.07,0.06 -0.09,-0.09 -0.01,-0.08 0.02,-0.06 -0.04,-0.13l0.04 0.3 -0.1 0.09c0.13,-0.15 0.03,0.02 0.11,-0.04 0.11,0.63 0.06,2.74 0.06,3.62 -0,0.39 0.02,0.85 -0,1.23zm-0.16 -4.73c0.01,-0.14 0.01,-0.06 -0.03,-0.08l0.03 0.08z"/>
    <path class="fil4" d="M0.77 2.21c0.01,-0.11 -0.06,-0.12 0.02,-0.51l0.01 -0.04c0,-0.01 0,-0.01 0,-0.02 0,-0.02 0,-0.06 0,-0.07 -0,0.04 -0.01,0.11 -0,0.15l0.04 0.14c-0.01,-0.17 0.01,-0.22 0.02,-0.38l-0 0.13 0.07 -0.04c-0.06,-0.05 -0.02,0 -0.05,-0.08l0 -0.21c0.01,-0.1 0.02,-0.19 0.02,-0.29l0.07 -0.53c0.04,-0.05 0.46,-0.17 0.5,-0.18 0.8,-0.21 2.35,-0.21 3.07,0.14 0.15,0.08 0.12,0.35 0.12,0.56l0.04 0.47c-0,0.09 -0.01,0.06 0.01,0.16 0.07,0.08 0.04,0.17 0.03,0.28 0.01,-0.01 0.01,-0.03 0.01,-0.02l0.02 -0.05c0,-0.01 0,-0.01 0.01,-0.02 0.05,-0.14 -0.01,-0.05 0.13,0.02 -0.02,-0.31 -0.03,-0.65 -0.08,-0.95 -0.06,-0.38 -0.08,-0.5 -0.43,-0.6 -0.81,-0.25 -1.93,-0.26 -2.79,-0.1 -0.3,0.05 -0.6,0.12 -0.74,0.3 -0.17,0.23 -0.28,1.52 -0.12,1.76z"/>
    <path class="fil7" d="M2.02 8.67c-0.14,0.22 -0.08,0.65 -0.08,0.94l-0 2.03c0,0.22 0.07,0.22 0.28,0.22l0.99 -0c0.14,0 0.36,0.03 0.44,-0.07 0.06,-0.09 0.02,-2.68 0.04,-3.01 -0.09,0.06 -0.05,0.55 -0.05,0.75 0,0.5 0.02,1.95 -0.01,2.26 -0.13,0.04 -1.5,0.06 -1.61,-0 -0,-0 -0,-0.02 -0,-0.02l-0.01 -0.05c-0,-0.03 -0.01,-0.06 -0.01,-0.09 -0.03,-0.4 0,-1.76 -0,-2.24 -0,-0.11 -0.02,-0.5 0.02,-0.59 0.01,-0.02 0.07,-0.07 0.01,-0.14zm1.64 0.08c-0.03,-0.08 -0.02,-0.09 -0.13,-0.11 -0.12,-0.03 -0.5,-0.01 -0.64,-0.01 -0.3,-0 -0.56,-0.01 -0.85,0.02 0.06,0.04 0.06,0.03 0.18,0.03l1.11 -0c0.2,0 0.24,-0.04 0.3,0.15l0.03 -0.07z"/>
    <path class="fil8" d="M4.81 12.17c0.01,0.38 0,0.77 0,1.16 0,0.1 -0.03,0.9 0.02,0.97 0.04,0.06 0.06,0.04 0.08,0.04 0.09,-0.18 0.04,-0.78 0.04,-1.03 0,-0.34 0.01,-0.7 0,-1.04 -0.05,-0.05 -0.09,-0.06 -0.14,-0.09z"/>
    <path class="fil1" d="M2.88 9.26c-0.03,0.02 -0.03,0.03 -0.09,0.02 -0.06,-0 -0.06,-0.02 -0.07,-0.03 -0.07,-0.2 0.23,-0.24 0.16,0.01zm-0.16 -0.38c-0.41,0.13 -0.21,0.72 0.18,0.61 0.39,-0.11 0.21,-0.74 -0.18,-0.61z"/>
    <path class="fil8" d="M0.68 12.24c-0.03,0.3 -0.01,0.76 -0,1.08 0.01,0.33 -0.05,0.73 0.04,1.01 0.04,-0.02 0.05,-0.02 0.09,-0.04l-0 -2.12c-0.09,0.02 -0.05,0.02 -0.12,0.06z"/>
    <path class="fil8" d="M4.96 15.98c-0,-0.18 0,-0.37 -0,-0.55 -0.01,-0.44 0.09,-0.85 -0.15,-0.95 0.01,0.35 -0,0.7 0,1.05l0 0.76c0,0.17 0.01,0.07 0.06,0.19l0.09 -0.49z"/>
    <path class="fil8" d="M0.8 14.49c-0.15,0.07 -0.13,0.23 -0.13,0.43 -0,0.34 -0.02,1.35 0.06,1.58 0.14,-0.21 0.07,-0.69 0.07,-0.98 -0,-0.28 0.03,-0.78 -0.01,-1.03z"/>
    <path class="fil8" d="M0.68 4.43c0.05,-0.06 0.13,-0.27 0.16,-0.36 0.08,-0.23 -0.07,-1.27 -0.09,-1.52 -0.08,0.36 -0.07,1.43 -0.07,1.88z"/>
    <path class="fil3" d="M2.15 10.24l0.09 0c0.04,-0.05 0.02,0.01 0.03,-0.08l-0.01 -1.47c-0.23,-0.01 -0.16,0.25 -0.16,0.71l0.03 0.84z"/>
    <path class="fil8" d="M4.94 10.33l0 -1.47c0.01,-0.2 -0.02,-0.25 -0.13,-0.35l0 1.68c0.01,0.09 0.06,0.1 0.13,0.13z"/>
    <path class="fil8" d="M4.92 5.96c0.01,-0.11 0.03,-1.16 0,-1.27 -0.03,-0.12 -0.07,-0.23 -0.15,-0.3l-0.01 1.27c-0,0.18 0.05,0.23 0.15,0.3z"/>
    <path class="fil8" d="M4.83 12.06l0.01 0.01c-0,-0 -0.01,-0 -0.01,-0.01zm-0.01 0.02c0.08,0.02 0.04,0.02 0.14,0.06l-0.01 -1.66c-0.05,-0.04 -0.07,-0.04 -0.13,-0.08l-0 1.69z"/>
    <path class="fil8" d="M0.68 5.98l0.09 -0.06c0.03,-0.02 0.04,-0.04 0.07,-0.06l-0 -1.44c-0.06,0.02 -0.15,0.25 -0.16,0.29 -0.02,0.1 0,1.07 -0,1.26z"/>
    <path class="fil3" d="M2.13 11.65l0.11 0c0.03,-0.04 0.01,0 0.03,-0.06 0.01,-0.03 0.03,-1.2 -0.02,-1.31 -0,-0.01 -0.01,-0.01 -0.01,-0.02l-0.09 -0c-0.02,0.03 -0.01,0.01 -0.03,0.06l-0.01 0.62c-0,0.19 -0.04,0.56 0.02,0.7z"/>
    <path class="fil8" d="M0.68 12.07c0.16,-0.01 0.13,-0.13 0.13,-0.29 -0.01,-0.46 0.02,-0.96 -0,-1.38 -0.2,0.07 -0.13,0.35 -0.13,0.76 0,0.3 -0.01,0.62 0,0.92z"/>
    <path class="fil8" d="M4.93 4.4c0.01,-0.23 -0.01,-1.76 -0.08,-1.87 0.05,0.07 -0.15,0.97 -0.1,1.48 0.01,0.08 0.08,0.24 0.11,0.31 0.05,0.11 0.01,0.05 0.06,0.07z"/>
    <path class="fil8" d="M0.68 9.97l0 0.36c0.19,-0.06 0.12,-0.48 0.12,-0.82 0,-0.32 0,-0.65 0.01,-0.97 -0.19,0.1 -0.13,0.47 -0.13,0.65 0,0.26 0,0.52 0,0.78z"/>
    <path class="fil6" d="M1.02 18.15c0.02,0.04 0.04,0.1 0.01,0.13 0.04,0.04 0.01,0.02 0.1,0.03l-0.03 -0.12 0.79 0.12c0.3,0.02 0.61,0.03 0.91,0.04 0.72,0.01 0.95,-0.05 1.57,-0.13l0.18 -0.03 -0.04 0.12c0.08,-0.01 0.05,0.01 0.08,-0.03l0 -0.13 0 -0.08c-0.15,0.19 -1.11,0.22 -1.39,0.23 0.01,-0.01 0.02,-0.01 0.02,-0.02l0.05 -0.06c0.03,-0.04 -0.08,-0.02 0.07,-0.05 -0.29,-0.02 -0.6,0.02 -0.9,0 -0.05,-0 -0.11,-0.01 -0.16,-0.01 -0.11,-0.01 -0.09,-0 -0.13,0.02 0.05,0.06 -0.01,0.04 0.09,0.03l0.94 -0c-0.06,0.07 0.01,0.04 -0.09,0.07l-1.08 -0c-0.15,-0.01 -0.38,-0.04 -0.54,-0.06 -0.08,-0.01 -0.19,-0.02 -0.26,-0.04 -0.1,-0.02 -0.11,-0.03 -0.18,-0.1 0.03,0.1 0.02,0.03 -0.01,0.06z"/>
    <path class="fil5" d="M3.23 4.8c-0.16,-0.01 -0.32,-0.01 -0.48,-0.01 -0.5,-0 -0.44,-0.07 -0.43,0.56 0,0.14 -0.01,0.35 0.01,0.48 0,-0.01 0.01,-0.01 0.01,-0.02 0,-0.01 0.01,-0.01 0.01,-0.02 0.04,-0.12 -0.04,-0.86 0.03,-0.94 0.04,-0.05 0.76,-0.03 0.78,-0.02 0.07,0.02 0.07,0.01 0.08,0.08l-0.01 0.88 -0.79 0.01c-0.07,0.02 -0.03,-0.01 -0.09,0.04 1,-0.07 0.94,0.24 0.93,-0.55 -0,-0.24 0.04,-0.33 -0.06,-0.51z"/>
    <path class="fil8" d="M0.08 2.78c0.24,-0.16 0.15,-0.22 0.22,-0.37 0.03,-0.07 0.06,-0.07 0.09,-0.14 -0.16,0.05 -0.23,0.22 -0.27,0.27l-0.02 0.02c0.02,-0.11 0.05,-0.14 0.1,-0.2 0.04,-0.04 0.04,-0.05 0.08,-0.08 0.05,-0.04 0.05,-0.02 0.09,-0.07 0.06,0.02 0.07,0.05 0.07,0.05l0.03 -0.14c0,-0.05 0,-0.1 -0.01,-0.15 -0.27,0.01 -0.42,0.25 -0.38,0.54 0.03,0.25 0,0.15 0.01,0.27z"/>
    <path class="fil8" d="M5.19 2.24c0.04,0.17 0.07,-0.04 0.17,0.3 0.02,0.08 0.08,0.22 0.18,0.23 0.06,-0.16 -0.1,-0.3 -0.14,-0.42 0.07,0.03 0.04,-0 0.08,0.08 0.03,0.06 0.01,0.07 0.09,0.12 0,-0.39 -0.22,-0.62 -0.4,-0.56l0.01 0.2c0.06,0.03 0.13,0.05 0.18,0.1 0.04,0.05 0.03,0.03 0.05,0.07 -0.03,-0.02 -0.01,-0 -0.05,-0.02 -0.07,-0.04 -0.08,-0.07 -0.16,-0.09z"/>
    <path class="fil6" d="M2.31 5.92c0.12,0.03 0.4,0.01 0.57,0.01 0.56,-0 0.48,0.05 0.48,-0.67 0,-0.62 0.06,-0.55 -0.62,-0.55 -0.18,-0 -0.4,-0.04 -0.48,0.09 -0.05,0.08 -0.07,0.93 0.02,1.1 0.03,-0.12 0.01,0.01 -0.01,-0.12l-0.01 -0.8c-0,-0.21 0.04,-0.17 0.05,-0.22 0,-0.01 0.01,-0.01 0.01,-0.02 0.25,0.02 0.79,-0.04 0.97,0.03 0.06,0.14 0.05,0.93 0.01,1.1 -0.14,0.04 -0.6,0.03 -0.8,0.03 -0.03,-0 -0.12,-0.01 -0.13,-0.01 -0.08,0 -0.03,-0.03 -0.07,0.03z"/>
    <path class="fil6" d="M4.48 17.51c0.08,0.04 0.01,0.01 0.11,0.02l0.07 -0c0.08,-0.2 0,-0.83 0.01,-1.08l-0.03 0c-0,0.27 0.07,0.86 -0.01,1.05l-0.07 0c-0.08,-0.01 -0.05,0.01 -0.08,-0l0 0.02z"/>
    <path class="fil6" d="M1.13 17.55l0 -0.04c-0.05,-0.02 -0.1,-0.05 -0.15,-0.08l-0.02 -0.97c-0.01,0 -0.01,0.01 -0.02,0.02l0.02 0.98c0.05,0.03 0.11,0.06 0.17,0.08z"/>
    <path class="fil7" d="M2.5 10.16c0.03,0.01 0.11,-0 0.11,-0 0.02,-0 0.07,0 0.1,0 0.01,-0.31 0.02,-0.26 -0.01,-0.56 -0.1,0.02 0,0.02 -0.1,0l-0.01 0.45c0.02,-0.07 0.01,-0.16 0.01,-0.25 0,-0.1 0.01,-0.11 -0.02,-0.17l-0.02 -0.03c-0.08,0.01 -0.08,-0.05 -0.08,0.25 0,0.1 -0,0.21 0.02,0.3z"/>
    <path class="fil8" d="M0.84 7.38l-0 -0.36 0 -0.02 -0 -1.03c-0.2,0.03 -0.15,0.44 -0.11,0.67 0.05,0.25 0.07,0.5 0.11,0.75z"/>
    <path class="fil8" d="M4.76 7.15l0.09 -0.3c0.04,-0.41 0.18,-0.8 -0.08,-0.9l-0.01 1.2z"/>
    <path class="fil9" d="M0.9 17.9c0.05,0.04 0.04,0.02 0.04,0.09 -0.1,-0.01 -0.14,-0.06 -0.16,-0.15 0.04,0.02 0.09,0.04 0.12,0.06zm-0.11 -0.28c-0.01,0.02 -0.29,0.4 0.22,0.49 -0.01,-0.07 -0.02,-0.19 0,-0.26 0.02,-0.05 0.01,-0.03 0.04,-0.06l0 -0.02c-0.04,0 -0.03,0.01 -0.03,-0.03 -0.11,-0.03 -0.11,-0.05 -0.17,-0.13 -0.01,0 -0.01,0 -0.02,0 -0,0 -0.01,0 -0.02,0 -0,0 -0.02,0.01 -0.03,0.01z"/>
    <path class="fil8" d="M0.77 7.69c-0.02,-0.11 -0.02,-0.28 -0.08,-0.36l-0.01 1.19c0.15,-0.16 0.12,-0.42 0.09,-0.62 -0.01,-0.09 -0.04,-0.15 0,-0.21z"/>
    <path class="fil7" d="M5.02 4.61l-0.07 -2.37c-0.05,0.05 -0.02,-0.03 -0.04,0.05 -0,0.01 -0.01,0.05 -0.01,0.06 -0.01,0.31 0.08,1.17 0.07,1.64l0 0.53c0.01,0.07 0.01,0.05 0.04,0.09z"/>
    <path class="fil8" d="M0.93 1.66c0.13,-0.01 0.32,-0.07 0.47,-0.1 0.05,-0.01 0.38,-0.06 0.42,-0.09l0.02 -0.05c-0.12,-0.03 -0.83,0.08 -0.91,0.24z"/>
    <path class="fil8" d="M3.76 1.43c0.05,0.04 0.13,0.06 0.2,0.08l0.5 0.1c0.04,0.01 0.08,0.02 0.11,0.03l0.11 -0.01c-0.16,-0.12 -0.8,-0.28 -0.93,-0.2z"/>
    <path class="fil9" d="M4.7 17.67l-0.04 0.03 -0.03 0.01c0.03,0.08 0.03,0.04 0.03,0.1 0,0.01 -0,0.04 0,0.05 0.02,0.06 0,0.03 0.03,0.06 0.05,-0.04 0.1,-0.07 0.15,-0.1 0.01,0.09 0.01,0.07 -0.05,0.11 -0.03,0.02 -0.07,0.04 -0.11,0.04l-0.01 0.09 0.11 -0.02 0.01 -0c0,-0.04 -0.01,-0.02 0.04,-0.02l0.03 -0.01 0.03 -0.02 0.02 -0.02c-0.03,-0.09 0.02,-0.03 -0.04,-0.09 0.02,-0.09 0.03,-0.09 0.04,-0.18 -0.1,-0.02 -0.07,-0.04 -0.18,-0.05l-0.03 0.01z"/>
    <path class="fil8" d="M4.9 7.43c-0.03,0.04 -0.02,0.01 -0.03,0.09 0.09,0.02 -0.08,0.4 -0.03,0.71 0.03,0.19 0.03,0.09 -0.02,0.07 -0,-0 -0.01,-0.01 -0.01,-0l0.08 0.18c0.04,0.06 0.01,0.02 0.06,0.06l-0.05 -1.1z"/>
    <path class="fil10" d="M3.31 10.14c0.01,-0.14 0.02,-0.4 -0.01,-0.52l-0.08 -0c-0.02,0.12 -0.03,0.46 0.01,0.56l0.09 -0.03z"/>
    <path class="fil7" d="M0.62 3.94c0.03,-0.07 0.03,-0.09 0.03,-0.2l0.02 -0.67c0.01,-0.14 0.05,-0.77 0.02,-0.84 -0.06,0.05 -0.04,0.19 -0.05,0.38l-0.03 1.33z"/>
    <path class="fil10" d="M2.99 10.17c0.05,-0.1 0.03,-0.41 0.02,-0.54 -0,-0 -0.01,-0 -0.01,-0l-0.09 0 -0 0.51 0.08 0.03z"/>
    <path class="fil10" d="M2.46 9.61c0,0.06 0.01,0.03 -0.04,0.02 -0,-0 -0.01,-0 -0.02,-0.01 -0,-0 -0.01,-0.01 -0.02,-0.01l-0.01 -0.01 -0 0.55c0.03,0.01 0.08,0 0.08,0 0.03,-0.14 0.03,-0.41 -0,-0.55z"/>
    <path class="fil11" d="M4.73 17.66l-0.03 0.01 -0.04 0.03c-0.04,-0.01 -0.04,-0.02 -0.03,0.01l-0.05 0.03c0.02,0.11 0,0.3 0.06,0.38 0.02,-0.02 -0.04,-0.03 0.09,-0.02l0.06 -0.02 -0 -0.03 -0.11 0.02 0.01 -0.09 0.01 -0.05c-0.03,-0.03 -0.02,-0 -0.03,-0.06 -0,-0.01 0,-0.04 -0,-0.05 -0,-0.06 -0,-0.02 -0.03,-0.1l0.03 -0.01 0.04 -0.03 0.03 -0.01c0.12,0.01 0.08,0.03 0.18,0.05 -0.01,0.09 -0.02,0.09 -0.04,0.18 0.06,0.06 0.01,0 0.04,0.09l-0.02 0.02 -0.03 0.02 -0.03 0.01c-0.05,-0.01 -0.04,-0.02 -0.04,0.02l0.04 -0.02 0.03 -0.01 0.03 -0.02c0.03,-0 0.02,0.01 0.02,-0.02 0.03,-0.11 0.05,-0.16 0,-0.27 -0.03,-0.03 0,0 -0.03,-0.04 -0,-0 -0.03,-0.03 -0.03,-0.04 -0.04,-0.04 -0.02,-0.03 -0.08,-0.06 -0.02,0.03 -0.01,0.02 -0.02,0.05l-0.02 0.03z"/>
    <path class="fil5" d="M1.03 18.27c0.04,-0.03 0.01,-0.09 -0.01,-0.13 -0.19,-0.02 -0.21,-0.08 -0.33,-0.15 0.04,0.18 0.14,0.28 0.34,0.27z"/>
    <path class="fil11" d="M2.43 17.68c0.01,0 0.01,0 0.02,0.01 0,0.01 0.01,0.01 0.02,0.01l0.68 -0.02c-0.04,-0.06 0.03,-0.02 -0.06,-0.04 -0.01,-0 -0.08,-0 -0.09,-0l-0.49 -0c-0.16,0.02 -0.04,0.01 -0.08,0.05z"/>
    <path class="fil5" d="M4.83 18.06l-0.05 0.02 -0.06 0.02 -0.09 0.02 -0.05 0.02 -0 0.13 0.01 0.01 0.21 -0.08c0.06,-0.03 0.03,0.01 0.06,-0.08 0.02,-0.05 0,-0.02 0.02,-0.1 -0.06,0.06 -0,0.01 -0.06,0.04z"/>
    <path class="fil11" d="M1.21 17.59l-0.01 0.02 0.31 0.04c-0,-0.08 0,-0.06 -0.02,-0.11l-0.28 -0.02 -0 0.07z"/>
    <path class="fil10" d="M2.85 10.17c0.04,-0.06 0.07,-0.46 0.01,-0.55 -0.05,0.05 -0.05,0.47 -0.01,0.55z"/>
    <path class="fil8" d="M2.73 9.25c0.01,0.01 0.01,0.02 0.07,0.03 0.05,0 0.06,-0.01 0.09,-0.02 0.07,-0.25 -0.23,-0.21 -0.16,-0.01z"/>
    <path class="fil10" d="M1.13 17.55l-0.06 0.17c-0.06,-0.02 -0.1,-0.04 -0.15,-0.07 -0.08,-0.06 -0.04,-0.05 -0.1,-0.11l-0.1 0.14 0.05 -0.05c0,-0.01 0.01,-0.01 0.01,-0.01l0.04 -0.07 0.02 0.05c0.06,0.08 0.02,0.03 0.09,0.07 0.03,0.02 0.07,0.05 0.08,0.06 0.04,-0.01 0.03,-0.02 0.03,0.03l-0 0.02 -0.02 0.14c0.08,-0.08 0.02,-0.28 0.17,-0.31l0.01 -0.02c-0.09,-0.07 -0.01,0.02 -0.03,-0.07 -0.01,-0.05 0.01,-0.06 -0.03,-0.13l-0.02 0.15z"/>
    <path class="fil11" d="M4.4 17.61l0.02 -0.02c-0.06,-0.09 0.02,-0.03 -0.07,-0.05 -0.01,-0 -0.06,0.01 -0.07,0.01l-0.08 -0.01c-0.1,0.08 -0.09,-0.05 -0.1,0.11l0.31 -0.04z"/>
    <path class="fil7" d="M4.59 18.28c0.24,-0.02 0.32,-0.11 0.36,-0.32l-0.12 0.11c0.06,-0.03 -0,0.03 0.06,-0.04 -0.02,0.07 -0.01,0.04 -0.02,0.1 -0.03,0.08 -0,0.05 -0.06,0.08l-0.21 0.08z"/>
    <path class="fil5" d="M0.94 17.99c-0,-0.07 0.01,-0.05 -0.04,-0.09 -0.03,-0.02 -0.09,-0.05 -0.12,-0.06 0.03,0.1 0.07,0.14 0.16,0.15z"/>
    <path class="fil5" d="M4.7 17.93l-0.01 0.05c0.04,-0.01 0.08,-0.02 0.11,-0.04 0.06,-0.04 0.05,-0.02 0.05,-0.11 -0.04,0.02 -0.09,0.06 -0.15,0.1z"/>
    <path class="fil8" d="M4.97 2.01c0,0.01 -0.02,0.15 0.13,0.07 -0.02,-0.08 -0.05,-0.07 -0.13,-0.07z"/>
    <path class="fil7" d="M5.01 6.08c0.05,-0.09 0.02,-0.16 0.01,-0.3 -0.03,0.12 -0.07,0.2 -0.01,0.3z"/>
   </g>
  </g>
 </g>
</svg>
