<?xml version="1.0" encoding="UTF-8"?>
<!DOCTYPE svg PUBLIC "-//W3C//DTD SVG 1.1//EN" "http://www.w3.org/Graphics/SVG/1.1/DTD/svg11.dtd">
<!-- Creator: CorelDRAW -->
<svg xmlns="http://www.w3.org/2000/svg" xml:space="preserve" width="1.0765mm" height="2.2104mm" version="1.1" style="shape-rendering:geometricPrecision; text-rendering:geometricPrecision; image-rendering:optimizeQuality; fill-rule:evenodd; clip-rule:evenodd"
viewBox="0 0 0.65 1.33"
 xmlns:xlink="http://www.w3.org/1999/xlink"
 xmlns:xodm="http://www.corel.com/coreldraw/odm/2003">
 <defs>
  <style type="text/css">
   <![CDATA[
    .str0 {stroke:#373435;stroke-width:0.01;stroke-miterlimit:22.9256}
    .fil10 {fill:none}
    .fil13 {fill:#4B4B4D}
    .fil11 {fill:#4B4B4D}
    .fil8 {fill:#373435}
    .fil1 {fill:black}
    .fil6 {fill:#585755}
    .fil3 {fill:#B3B3B3}
    .fil0 {fill:#CC0000}
    .fil7 {fill:#FF6600}
    .fil4 {fill:white}
    .fil2 {fill:#373435;fill-rule:nonzero}
    .fil5 {fill:#373435;fill-rule:nonzero}
    .fil9 {fill:#585755;fill-opacity:0.200000}
    .fil12 {fill:black;fill-opacity:0.301961}
   ]]>
  </style>
     <clipPath id="id0">
      <path d="M0.45 0.79c0.01,-0 0.01,-0 0.02,-0 0.01,0 0.02,0 0.02,0.01 0.01,0 0.01,0.01 0.01,0.01 0,0 0,0.01 0.01,0.03 0,0.02 0,0.05 0,0.1 0,0.04 0,0.1 -0,0.14 -0,0.03 -0,0.04 -0.01,0.05 -0,0.01 -0.01,0.01 -0.01,0.01 -0,0 -0.01,0.01 -0.01,0.01 -0,0 -0.01,0 -0.01,0 -0.01,0 -0.01,0 -0.02,0 -0.01,-0 -0.01,-0 -0.01,-0.01 -0,-0 -0.01,-0.01 -0.01,-0.01 -0,-0 -0,-0.01 -0.01,-0.01 -0,-0 -0,-0 -0,-0.01 -0,-0 -0,-0.01 -0,-0.01 -0,-0 -0,-0.01 0,-0.06 0,-0.05 0.01,-0.14 0.01,-0.19 0,-0.05 0,-0.05 0,-0.05 0,-0 0,-0 0,-0.01 0,-0 0,-0.01 0,-0.01 0,-0 0,-0 0.01,-0z"/>
     </clipPath>
       <mask id="id1">
  <linearGradient id="id2" gradientUnits="userSpaceOnUse" x1="0.43" y1="0.97" x2="0.53" y2="0.97">
   <stop offset="0" style="stop-opacity:1; stop-color:white"/>
   <stop offset="1" style="stop-opacity:0; stop-color:white"/>
  </linearGradient>
        <rect style="fill:url(#id2)" x="0.4" y="0.74" width="0.15" height="0.42"/>
       </mask>
     <clipPath id="id3">
      <path d="M0.39 0.65c-0.01,-0.02 -0.03,-0.02 -0.05,-0.02 -0.01,-0 -0.06,0 -0.06,0 -0.01,0 -0.01,0 -0.02,0.01 -0.01,0.01 -0.02,0.03 -0.02,0.05 -0.01,0.02 -0.01,0.01 -0.01,0.04 -0,0.03 -0.01,0.05 -0.01,0.08 -0,0.03 -0.01,0.06 -0.01,0.08 0,0.05 0.01,0.1 0.02,0.14 0.02,0.07 0.02,0.06 0.1,0.06 0.02,0 0.06,0 0.07,-0.01 0.03,-0.02 0.03,-0.12 0.04,-0.16 0,-0.01 -0,-0.01 0,-0.02 0,-0.02 -0,-0.08 -0.01,-0.1 -0,-0.03 -0.01,-0.05 -0.01,-0.08 -0,-0.01 -0,-0.01 -0,-0.02 -0.01,-0.01 -0.01,-0.04 -0.02,-0.05z"/>
     </clipPath>
     <clipPath id="id4">
      <path d="M0.17 0.89l0.31 0c0.03,0 0.06,0.03 0.06,0.06l0 0.28c0,0.03 -0.03,0.06 -0.06,0.06l-0.31 0c-0.03,0 -0.06,-0.03 -0.06,-0.06l0 -0.28c0,-0.03 0.03,-0.06 0.06,-0.06z"/>
     </clipPath>
 </defs>
 <g id="Camada_x0020_1">
  <metadata id="CorelCorpID_0Corel-Layer"/>
  <path class="fil0" d="M0.26 1.12l-0 -0.02c-0,-0 -0,-0 -0,-0.01 -0.02,-0 -0.03,-0.04 -0.03,-0.06 -0.01,-0.06 -0.02,-0.11 -0.02,-0.17 0,-0.02 0.01,-0.05 0.01,-0.06 -0,0 -0,0 -0,0 -0,0 -0,0 -0,0l-0 0c-0,0 -0,0 -0,0.01 -0,0 -0,0.01 -0,0.01 -0,0.01 -0,0.01 -0,0.02 -0.01,0.06 -0,0.14 0.01,0.2 0.01,0.03 0.02,0.06 0.03,0.09 0,0 0,0.01 0.01,0.01 0,-0.01 0,-0.01 0.01,-0.02 0,-0 0,-0.01 0,-0.01zm-0.04 -0.65l0 -0.06c0,-0.02 0,-0.03 0,-0.05 -0,-0 -0,-0 -0,-0.01 -0,-0 -0,-0 -0,-0l-0.01 0c-0,0 -0,0 -0,0l-0.03 0.05c-0.01,0.01 -0.02,0.06 -0.02,0.07 0,0.02 0,0.02 0.01,0.03 0.01,0.01 0.03,0.06 0.04,0.06 0.01,-0.01 0,-0.03 0,-0.05l0 -0.05zm0.23 0.08c-0,0.02 -0,0.02 -0.01,0.04 -0.01,0.03 -0.01,0.02 -0.01,0.05 0,-0.01 0.02,-0.05 0.02,-0.06 0,-0.02 0.01,-0.05 0.01,-0.07l-0.02 0.03c-0,0 -0,0 -0,0.01zm-0.02 0.02c0,0.01 0,0.01 0,0.02 0,-0 0,-0 0,-0 0,-0 0,-0 0,-0 0,-0.01 0.01,-0.02 0.01,-0.03 -0,0 -0,0 -0.01,0.01 -0,0 -0,0 -0.01,0zm-0.23 -0.01c0,0.01 0,0.03 0.01,0.04 0,-0.01 0,-0.02 0,-0.02 -0,-0 -0,-0 -0.01,-0.01 -0,-0 -0,-0 -0.01,-0.01zm-0.03 -0.04c0,0.02 0.02,0.1 0.03,0.12 0,0 0,0 0,0l0 -0.02c0,-0 -0.01,-0.04 -0.01,-0.05 -0,-0.01 -0,-0.01 -0,-0.02 -0,-0.01 -0.01,-0.01 -0.01,-0.02l-0 -0.01c-0,-0 -0,-0 -0,-0zm0.24 0.14c0,0.04 -0,0.03 0.01,0.06l0 0.01c0,0 0,0 0,0 0,0 0,0 0,0 0,-0 0,0 0,0 0,-0.01 0,-0.01 0,-0.02 0,-0.01 0,-0.04 0,-0.06l-0.01 -0.08c-0,-0.01 -0,-0.01 -0,-0.01 -0,0 -0,0 -0,0.01 -0,0.02 -0,0.06 -0,0.08zm-0.19 0.02c-0,-0.03 0,-0.06 0,-0.09 -0,-0.01 -0,-0.01 -0.01,-0.02 -0,0.01 -0.01,0.05 -0.01,0.06l-0 0.03c-0,0.01 -0,0.01 -0,0.02 -0,0.01 -0,0.01 -0,0.02 0,0.03 0,0.02 0.01,0.04l0 -0c0,-0 0,-0 0,-0 0,-0.01 0.01,-0.05 0.01,-0.05zm0.04 -0.1c-0.01,-0.04 -0.02,-0.13 -0.02,-0.17 -0,-0.04 0.01,-0.05 0.01,-0.06l-0 0c-0.01,0 -0.01,0.01 -0.02,0.02 -0,0 -0,0 -0,0l-0.01 0.08c0,0.01 -0,0.03 -0,0.04l0 0.04c0,0.02 -0,0.02 -0,0.03 0,0 0,0 0,0.01 0,0.01 0,0.03 0,0.04 -0,0.01 -0,0.03 -0,0.04 0,-0 0,-0.01 0,-0.01 0,-0 0,-0.01 0,-0.01 0,-0.01 0.01,-0.03 0.03,-0.03 -0,-0 -0,-0.03 -0,-0.03zm0.15 -0.08c-0,-0.02 -0,-0.03 -0,-0.04l-0 -0.04c-0,-0.01 -0,-0.01 -0,-0.02 -0,-0.01 0,-0.02 -0.01,-0.03 -0,-0 -0.01,-0.01 -0.01,-0.01l-0 0c0,0 0.01,0.01 0.01,0.03 0.01,0.04 -0.01,0.16 -0.01,0.2 -0,0.01 -0,0.03 -0,0.03 0.01,0 0.02,0.01 0.02,0.02 0,0.01 0,0.01 0.01,0.02 0,0 0,0.01 0.01,0.02 0,-0.01 0,-0.03 -0,-0.05 -0,-0.01 -0,-0.03 0,-0.04 0,-0 0,-0.01 0,-0.01 0,-0 -0,-0.01 -0,-0.03 0,-0.01 0,-0.02 0,-0.02 0,-0.01 0,-0.01 0,-0.02zm0.01 -0.07c0,0.03 0,0.06 0,0.1 0,0.01 -0.01,0.04 0,0.05 0.01,-0 0.04,-0.05 0.04,-0.06 0,-0.01 0.01,-0.02 0.01,-0.03 0,-0.02 -0.01,-0.07 -0.02,-0.08 -0.01,-0.01 -0.01,-0.02 -0.02,-0.03 -0,-0 -0.01,-0.01 -0.01,-0.01 -0,-0 -0,-0.01 -0,-0.01l-0.01 0c-0,0.01 -0,0.01 -0,0.03l0 0.05zm0.01 0.58c-0.01,0.02 -0.01,0.08 -0.04,0.08l-0 0.02c-0,0.02 0,0.01 0,0.02 0.01,0 0.01,0 0.01,0.02l0 -0.01c0.01,-0.02 0.01,-0.02 0.02,-0.04 0.01,-0.02 0.01,-0.03 0.02,-0.05 0.02,-0.06 0.02,-0.16 0,-0.23l-0 -0.01c0,0.01 0,0.01 0,0.02 0.01,0.06 0,0.14 -0.01,0.19z"/>
  <g id="_1767164700864">
   <g>
    <g>
     <path class="fil1" d="M0.21 0.74c-0.01,-0 -0.02,-0 -0.02,-0 -0.01,0 -0.01,0 -0.01,0 -0,0 -0,0 -0,0 -0,0 -0,-0 -0,-0 -0,-0 -0,-0 -0,-0 -0,-0 -0,-0 -0,-0 -0,0 -0,0 -0,0 -0,0 -0,-0 -0,0 -0,0 -0,0 -0,0 0,0 0,0.01 0,0.01 0,0 0,0.01 0,0.01 0,0 0,0 0,0.01 0,0 0.01,0 0.01,0 0,0 0,-0 0,-0 0,-0 0,-0 0,-0 0,-0 0,-0 0.01,-0 0,0 0,0 0,0 0,0 0,0 0,0 0,0 0.01,0 0.01,0 0,0 0.01,0 0.01,0 0,0 0,0 0.01,0 0,0 0,0 0,-0 0,0 0,0 0,-0 0,-0 0,-0 0,-0 0,-0 0,-0.01 0,-0.01 0,-0 0,-0.01 -0,-0.01 -0,-0 -0,-0 -0,-0 -0,-0 -0,-0 -0,-0 -0,0 -0.01,0 -0.01,0z"/>
     <path id="_1" class="fil2" d="M0.19 0.74l0 0 0 -0 0 0 0 0 0 0 0 0 0 0 0 0 0 0 -0 0.01 -0 -0 -0 -0 -0 -0 -0 -0 -0 -0 -0 -0 -0 -0 -0 0 0 0 -0 -0.01zm0 0l-0 0 0 0 -0 0zm-0.01 0l0 -0 0 -0 0 -0 0 -0 0 -0 0 -0 0 -0 0 -0 0 -0 0 0.01 -0 0 -0 0 -0 0 -0 0 -0 0 -0 0 -0 0 -0 0 0 -0 -0 -0.01zm0 0l-0 0 0 -0 -0 0zm-0 0l0 0 0 0 0 -0 0 0 -0 0 0 -0 0 -0 0 -0 0 -0 0 0.01 -0 0 -0 0 -0 0 -0 0 -0 0 -0 0 -0 0 -0 0 0 0 -0 -0.01zm0 0l0 0 0 0 -0 0zm-0 -0l0 0 0 0 0 0 0 0 0 0 0 0 0 0 0 0 0 0 0 0.01 -0 0 -0 0 -0 -0 -0 -0 -0 -0 -0 -0 -0 -0 -0 -0 0 0 0 -0.01zm0 0l0 0 -0 -0 0 0zm-0 -0l0 0 0 0 0 0 0 0 0 0 -0 0.01 -0 -0 -0 -0 -0 -0 -0 -0 0 0 0 -0.01zm-0.01 -0l0 0 0 0 0 0 0 0 0 0 0 0 0 0 -0 0.01 0 0 0 0 -0 0 -0 -0 -0 0 -0 0 0 0 -0 -0.01zm0 0l0 0 0 0 -0 0zm-0 0l0 0 0 0 0 0 0 0 0 -0 0 0.01 -0 0 -0 0 -0 0 -0 -0 0 0 0 -0.01zm0 0l0 0 0 0 -0 0zm-0.01 0l-0 0 0 -0 0 -0 0 -0 0 -0 0 0 0 0 0 0.01 -0 0 -0 0 0 -0 0 -0 0 -0 0 -0 -0 0 -0.01 -0zm0.01 0l0 0 -0 0 0 -0zm-0.01 0l0 0 -0 -0 0 -0 0 -0 0 -0 0 -0 0 -0 0.01 0 0 -0 0 -0 0 0 -0 0 0 0 0 0 0 0 -0.01 0zm0.01 -0l0 0 0 0 0 -0zm-0.01 0.01l0 0 -0 -0 -0 -0 0 -0 0 -0 0.01 0 0 0 0 0 0 0 0 0 0 0 -0.01 0zm0.01 -0l0 -0 0 0 0 -0zm-0.01 0.01l0 0 -0 -0 -0 -0 -0 -0 -0 -0 0.01 -0 0 0 0 0 0 0 0 0 0 0 -0.01 0zm0 0.01l-0 -0 -0 -0 -0 -0 -0 -0 -0 -0 -0 -0 -0 -0 -0 -0 -0 -0 -0 -0 -0 -0 -0 -0 -0 -0 0.01 -0 0 0 0 0 0 0 0 0 0 0 -0 -0 -0 -0 0 0 0 0 0 0 0 0 -0 -0 -0 -0 -0 0.01zm0 0l-0 -0 0 0 -0 -0zm0.01 0l0 0 -0 0 -0 -0 -0 -0 -0 -0 -0 -0 -0 -0 0 -0.01 0 0 0 0 0 0 0 0 0 0 0 0 0 0 0 0.01zm-0 -0.01l0 0 0 0 -0 0zm0.01 0.01l0 0 -0 0 -0 0 -0 0 -0 0 -0 0 -0 0 0 -0.01 0 0 0 -0 0 0 0 -0 0 0 0 -0 0 0 0 0.01zm-0 -0.01l0 0 -0 0 0 -0zm0.01 0l0 0 -0 0 -0 0 -0 0 -0 0 -0 0 -0 0 -0 -0.01 0 -0 0 -0 0 -0 0 -0 0 -0 0 -0 0 0 0 0.01zm0 0l0 0 0 0 0 0zm0 -0l0 0 -0 -0 -0 0 -0 0 -0 0 -0 0 -0 0 -0 0 -0 0 -0 -0.01 0 -0 0 -0 0 -0 0 -0 0 -0 0 0 0 0 0 0 0 0 -0 0.01zm0 0l0 0 -0 -0 -0 -0 -0 -0 -0 -0 -0 -0 -0 -0 0 -0.01 0 0 0 0 0 0 0 0 0 0 0 0 0 0 -0 0.01zm0 -0.01l0 0 0 0 -0 -0zm0 0.01l0 0 -0 -0 -0 -0 -0 -0 -0 -0 -0 -0 -0 -0 -0 -0 -0 -0 0 -0.01 0 0 0 0 0 0 0 0 0 0 0 0 0 0 0 0 0 0 -0 0.01zm0.01 0l0 0 -0 -0 -0 -0 -0 -0 -0 -0 -0 -0 -0 -0 -0 -0 -0 -0 0 -0.01 0 0 0 0 0 0 0 0 0 0 0 0 0 0 0 0 0 0 -0 0.01zm0.01 0l0 0 -0 -0 -0 -0 -0 -0 -0 -0 -0 -0 -0 -0 -0 -0 -0 -0 0 -0.01 0 0 0 0 0 0 0 0 0 0 0 0 0 0 0 0 0 0 -0 0.01zm0 -0.01l0 0 0 0 -0 -0zm0.01 0.01l0 0 -0 -0 -0 -0 -0 -0 -0 -0 0 -0.01 0 0 0 0 0 0 0 0 0 0 -0 0.01zm0 -0.01l0 0 0 0 -0 0zm0 0.01l0 0 -0 0 -0 0 -0 0 -0 0 0 -0.01 0 0 0 0 0 0 0 -0 0 0 0 0.01zm-0 -0.01l0 0 0 0 -0 0zm0 0.01l0 0 -0 0 -0 0 -0 0 -0 0 0 -0.01 0 0 -0 0 -0 0 -0 0 0 0 0.01 0.01zm0 -0.01l0 -0 -0 0 -0 0 -0 0 -0 0 -0 0 -0 0 -0.01 -0.01 0 -0 0 -0 0 -0 0 -0 0 -0 0 -0 0 -0 0.01 0zm-0.01 -0l0 -0 -0 0 0 -0zm0.01 -0.01l0 0 -0 0 -0 0 -0 0 -0 0 -0 0 -0 0 -0 0 -0 0 -0.01 -0 0 -0 0 -0 0 -0 0 -0 0 -0 0 -0 0 -0 0 -0 0 0 0.01 0zm-0 -0.01l0 0 0 0 0 0 0 0 0 0 0 0 -0 0 -0.01 -0 0 -0 0 -0 -0 -0 -0 -0 -0 -0 -0 -0 0 0 0.01 -0zm0 0l0 0 0 0 0 0zm-0 -0.01l0 0 0 0 0 0 0 0 0 0 0 0 0 0 0 0 0 0 -0.01 0 -0 -0 -0 -0 -0 -0 -0 -0 -0 -0 -0 -0 -0 -0 0 0 0 0 0.01 -0zm0 0l0 0 -0 -0 -0 -0zm-0.01 -0l0 0 0 0 0 0 0 0 0 0 0 0 0 0 0 0 0 0 -0.01 0 0 0 -0 -0 0 0 0 0 -0 0 -0 -0 -0 -0 -0 0 0 0 0 -0.01zm-0.01 0l0 0 0 0 0 -0 0 0 0 -0 0 -0 0 -0 0 -0 0 0 0 0.01 -0 0 -0 0 -0 0 -0 0 -0 0 -0 0 -0 0 -0 0 0 0 0 -0.01z"/>
    </g>
    <path class="fil3" d="M0.45 0.79c0.01,-0 0.01,-0 0.02,-0 0.01,0 0.02,0 0.02,0.01 0.01,0 0.01,0.01 0.01,0.01 0,0 0,0.01 0.01,0.03 0,0.02 0,0.05 0,0.1 0,0.04 0,0.1 -0,0.14 -0,0.03 -0,0.04 -0.01,0.05 -0,0.01 -0.01,0.01 -0.01,0.01 -0,0 -0.01,0.01 -0.01,0.01 -0,0 -0.01,0 -0.01,0 -0.01,0 -0.01,0 -0.02,0 -0.01,-0 -0.01,-0 -0.01,-0.01 -0,-0 -0.01,-0.01 -0.01,-0.01 -0,-0 -0,-0.01 -0.01,-0.01 -0,-0 -0,-0 -0,-0.01 -0,-0 -0,-0.01 -0,-0.01 -0,-0 -0,-0.01 0,-0.06 0,-0.05 0.01,-0.14 0.01,-0.19 0,-0.05 0,-0.05 0,-0.05 0,-0 0,-0 0,-0.01 0,-0 0,-0.01 0,-0.01 0,-0 0,-0 0.01,-0z"/>
    <g style="clip-path:url(#id0)">
     <g>
      <path id="_1_16" class="fil4" style="mask:url(#id1)" d="M0.47 0.84c-0,0.05 -0,0.14 -0,0.19 -0,0.05 -0,0.05 -0,0.06 0,0 0,0.01 0,0.01 0,0 0.01,0 0.01,0 0,0 0.01,0 0.01,0 0,-0 0.01,-0.01 0.01,-0.03 0,-0.03 0,-0.07 0,-0.12 -0,-0.04 -0,-0.08 -0.01,-0.1 -0,-0.02 -0.01,-0.03 -0.01,-0.04 -0,-0.01 -0,-0.01 -0.01,-0.01 -0,-0 -0.01,-0 -0.01,0.04z"/>
      <path class="fil5" d="M0.42 1.1c0,-0 0.01,-0.01 0.01,-0.01 0.01,-0.01 0.01,-0.01 0.02,-0.01 0,-0 0.01,-0.01 0.01,-0.01 0,-0 0.01,-0 0.01,-0 0,-0 0.01,-0 0.01,-0 0,0 0.01,0 0.01,0 0,0 0.01,0 0.02,0 0,0 0.01,0 0.01,0 0,0 0.01,0 0.01,0.01 0,0 0,0 0.01,0.01 0,0 0,0 0,0.01 0,0 0,0 0,0.01 0,0 0,0.01 0,0.01 -0,0 -0,0.01 -0,0.01 -0,0 -0,0.01 -0.01,0.02 -0,0 -0.01,0.01 -0.01,0.01 -0,0 -0.01,0.01 -0.01,0.01 -0,0 -0.01,0 -0.01,0.01 -0.01,0 -0.01,0 -0.02,0 -0.01,0 -0.01,0 -0.02,-0 -0.01,-0 -0.01,-0 -0.02,-0 -0,-0 -0.01,-0 -0.01,-0.01 -0,-0 -0.01,-0.01 -0.01,-0.01 -0,-0 -0.01,-0.01 -0.01,-0.01 -0,-0.01 -0,-0.01 -0,-0.02l0 -0c0,-0 0,-0.01 0.01,-0.02zm0.02 -0.01c-0,0.01 -0.01,0.01 -0.01,0.01 -0.01,0.01 -0.01,0.01 -0.01,0.01l-0 0c-0,0 -0,0.01 0,0.01 0,0 0,0 0.01,0.01 0,0 0.01,0 0.01,0.01 0,0 0.01,0 0.01,0.01 0,0 0.01,0 0.01,0 0,0 0.01,0 0.01,0 0.01,-0 0.01,-0 0.02,-0 0,-0 0.01,-0 0.01,-0 0,-0 0.01,-0 0.01,-0.01 0,-0 0.01,-0.01 0.01,-0.01 0,-0.01 0,-0.01 0.01,-0.01 0,-0 0,-0.01 0,-0.01 0,-0 -0,-0.01 -0,-0.01 -0,-0 -0,-0 -0,-0.01 -0,-0 -0,-0 -0,-0.01 -0,-0 -0,-0 -0,-0.01 -0,-0 -0,-0 -0.01,-0.01 -0,-0 -0.01,-0 -0.01,-0 -0,-0 -0.01,-0 -0.01,-0 -0,-0 -0.01,-0 -0.01,-0 -0,-0 -0,-0 -0.01,0 -0,0 -0,0 -0.01,0 -0,0 -0.01,0 -0.01,0.01 -0,0 -0.01,0.01 -0.01,0.01z"/>
     </g>
    </g>
    <g>
     <path class="fil2" d="M0.47 0.79l-0 0.01 0 0 -0 -0 -0 -0 -0 -0 -0 -0 -0 0 -0 0 -0 0 -0 0 -0 0 -0 0 -0 -0.01 0 -0 0 -0 0 -0 0 -0 0 -0 0 0 0 0 0 0 0 0 0 0 0 0zm0.02 0.01l-0 0.01 0 0 -0 -0 -0 -0 -0 -0 -0 -0 -0 -0 -0 -0 -0 -0 -0 -0 -0 -0 -0 -0 -0 -0 -0 -0 -0 -0 -0 -0 -0 -0 -0 -0 0 -0.01 0 0 0 0 0 0 0 0 0 0 0 0 0 0 0 0 0 0 0 0 0 0 0 0 0 0 0 0 0 0 0 0 0 0zm-0 0.01l0 0 0 0 0 0zm0.02 0.01l-0.01 0 0 0 -0 -0 -0 -0 -0 -0 -0 -0 -0 -0 -0 -0 -0 -0 -0 -0 -0 -0 -0 -0 -0 -0 -0 -0 -0 -0 -0 -0 -0 -0 -0 -0 0 -0.01 0 0 0 0 0 0 0 0 0 0 0 0 0 0 0 0 0 0 0 0 0 0 0 0 0 0 0 0 0 0 0 0 0 0zm0.01 0.03l-0.01 0 0 0 -0 -0 -0 -0 -0 -0 -0 -0 -0 -0 -0 -0 -0 -0 -0 -0 -0 -0 -0 -0 -0 -0 -0 -0 -0 -0 -0 -0 -0 -0 -0 -0 0.01 -0 0 0 0 0 0 0 0 0 0 0 0 0 0 0 0 0 0 0 0 0 0 0 0 0 0 0 0 0 0 0 0 0 0 0zm-0.01 0l0 0 0 0 0 0zm0.01 0.1l-0.01 0 0 0 -0 -0.01 -0 -0.01 -0 -0.01 -0 -0.01 -0 -0.01 -0 -0.01 -0 -0.01 -0 -0.01 -0 -0.01 -0 -0.01 -0 -0.01 -0 -0 -0 -0 -0 -0 -0 -0 -0 -0 0.01 -0 0 0 0 0 0 0 0 0 0 0 0 0.01 0 0.01 0 0.01 0 0.01 0 0.01 0 0.01 0 0.01 0 0.01 0 0.01 0 0.01 0 0.01 0 0zm0 0l0 0 0 0 0 0zm-0 0.14l-0.01 -0 0 0 0 -0.01 0 -0.01 0 -0.01 0 -0.01 0 -0.01 0 -0.01 0 -0.01 0 -0.01 0 -0.01 0 -0.01 0 -0.01 0 -0.01 0 -0.01 0 -0.01 -0 -0.01 -0 -0.01 0.01 -0 0 0.01 0 0.01 0 0.01 0 0.01 0 0.01 0 0.01 -0 0.01 -0 0.01 -0 0.01 -0 0.01 -0 0.01 -0 0.01 -0 0.01 -0 0.01 -0 0.01 -0 0.01 0 0zm-0.01 -0l0 0 0 0 0 0zm0 0.05l-0.01 -0 0 0 0 -0 0 -0 0 -0 0 -0 0 -0 0 -0 0 -0 0 -0 0 -0 0 -0 0 -0 0 -0 0 -0 0 -0 0 -0.01 0 -0.01 0.01 0 -0 0.01 -0 0.01 -0 0.01 -0 0 -0 0 -0 0 -0 0 -0 0 -0 0 -0 0 -0 0 -0 0 -0 0 -0 0 -0 0 -0 0 0 0zm0 -0l0 0 -0 0.01 0 -0.01zm-0.01 0.02l-0 -0.01 -0 0 0 -0 0 -0 0 -0 0 -0 0 -0 0 -0 0 -0 0 -0 0 -0 0 -0 0 -0 0 -0 0 -0 0 -0 0.01 0 -0 0 -0 0 -0 0 -0 0 -0 0 -0 0 -0 0 -0 0 -0 0 -0 0 -0 0 -0 0 -0 0 -0 0 -0 0zm0 0l-0 0 0 -0 -0 0zm-0.02 0.01l-0 -0.01 0 0 0 -0 0 -0 0 -0 0 -0 0 -0 0 -0 0 -0 0 -0 0 0.01 -0 0 -0 0 -0 0 -0 0 -0 0 -0 0 -0 0 -0 0 0 0zm-0 -0.01l0 0 0 0 0 0zm-0.01 0.01l-0 -0.01 -0 0 0 -0 0 -0 0 -0 0 -0 0 -0 0 -0 0 -0 0 -0 0 0.01 -0 0 -0 0 -0 0 -0 0 -0 0 -0 0 -0 0 -0 0 -0 0zm0 0l-0 0 0 -0 -0 0zm-0.02 0l0 -0.01 0 0 0 0 0 0 0 0 0 -0 0 -0 0 -0 0 -0 0 -0 0 0.01 -0 0 -0 0 -0 0 -0 0 -0 0 -0 -0 -0 -0 -0 -0 0 0zm-0.01 -0.01l0 -0.01 0 0 0 0 0 0 0 0 0 0 0 0 0 0 0 0 0 0 0 0 0 0 -0 0.01 -0 -0 -0 -0 -0 -0 -0 -0 -0 -0 -0 -0 -0 -0 -0 -0 -0 -0 -0 -0 0 0zm0 -0.01l0 0 0 0 0 0zm-0.01 -0l0.01 -0 0 0 0 0 0 0 0 0 0 0 0 0 0 0 0 0 0 0 -0 0.01 -0 -0 -0 -0 -0 -0 -0 -0 -0 -0 -0 -0 -0 -0 -0 -0 0 0zm0 0l0 0 0 0 0 0zm-0.01 -0.01l0.01 -0 0 0 0 0 0 0 0 0 0 0 0 0 0 0 0 0 0 0 -0.01 0 -0 -0 -0 -0 -0 -0 -0 -0 -0 -0 -0 -0 -0 -0 -0 -0 0 0zm-0 -0.01l0.01 -0 -0 -0 0 0 0 0 0 0 0 0 -0.01 0 -0 -0 -0 -0 -0 -0 -0 -0 -0 -0zm0 0l-0 -0 -0 -0 0 0zm-0 -0.01l0.01 -0 0 -0 0 0 0 0 0 0 0 0 0 0 0 0 0 0 0 0 -0.01 0 -0 -0 -0 -0 -0 -0 -0 -0 -0 -0 -0 -0 -0 -0 -0 -0 0 -0zm0 0l0 -0 0 0 -0 -0zm0 -0.06l0.01 0 0 0 -0 0.01 -0 0.01 -0 0.01 -0 0.01 -0 0.01 -0 0 -0 0 -0 0 -0 0 0 0 0 0 0 0 0 0 0 0 0 0 0 0 -0.01 0 -0 -0 -0 -0 -0 -0 -0 -0 -0 -0 0 -0 0 -0 0 -0 0 -0 0 -0 0 -0 0 -0.01 0 -0.01 0 -0.01 0 -0.01 0 -0.01 0 0zm0 0l0 0 0 0 0 0zm0.01 -0.19l0.01 0 0 0 -0 0.01 -0 0.01 -0 0.01 -0 0.01 -0 0.01 -0 0.01 -0 0.01 -0 0.01 -0 0.01 -0 0.01 -0 0.01 -0 0.01 -0 0.01 -0 0.01 -0 0.01 -0 0.01 -0.01 -0 0 -0.01 0 -0.01 0 -0.01 0 -0.01 0 -0.01 0 -0.01 0 -0.01 0 -0.01 0 -0.01 0 -0.01 0 -0.01 0 -0.01 0 -0.01 0 -0.01 0 -0.01 0 -0.01 0 0zm0.01 0l0 0 0 0 0 0zm-0.01 -0.06l0.01 0 0 0 -0 0 0 0 -0 0 0 0 -0 0 -0 0 -0 0 -0 0 -0 0 -0 0 -0 0 -0 0.01 -0 0.01 -0 0.01 -0 0.01 -0 0.01 -0.01 -0 0 -0.01 0 -0.01 0 -0.01 0 -0.01 0 -0.01 0 -0 0 -0 0 -0 0 -0 0 -0 0 -0 0 -0 0 -0 0 -0 0 -0 0 -0 0 0zm0 -0.01l0.01 0 0 0 -0 0 -0 0 -0 0 -0 0 -0.01 -0 0 -0 0 -0 0 -0 0 -0 0 0zm0.01 0l0 0 0 0 0 0zm-0 -0.01l0 0.01 0 0 0 0 -0 0 -0 0 0 -0 -0 0 -0 0 -0 0 -0 0 -0 0 -0 0 -0.01 -0 0 -0 0 -0 0 -0 0 -0 0 -0 0 -0 0 -0 0 -0 0 -0 0 -0 0 0zm-0 0l0 0 -0 0 0 -0zm0.01 -0l0 0.01 0 0 -0 0 -0 0 -0 0 -0 0 -0 0 -0 0 0 0 -0 0 -0 0 0 -0 -0 -0.01 0 -0 0 -0 0 -0 0 -0 0 -0 0 -0 0 -0 0 -0 0 -0 0 -0 0 0zm-0 0l-0 0 0 0 -0 0z"/>
    </g>
    <path class="fil1" d="M0.45 1.14c-0,-0 -0,-0 -0,-0 -0,-0 0,-0 0,-0.01 0,-0 0.01,-0.01 0.02,-0.01 0.01,-0 0.01,-0.01 0.02,-0.01 0.01,-0 0.01,0 0.01,0 0,0 0,0.01 0,0.01 0,0 0,0 -0,0.01 -0,0 -0,0 -0,0.01 -0,0 -0,0 -0.01,0 -0,0 -0.01,0 -0.01,0 -0,0 -0.01,0 -0.01,0 -0,0 -0,0 -0.01,-0 -0,-0 -0,-0 -0.01,-0z"/>
    <g>
     <path class="fil3" d="M0.44 0.71c0,0 0.01,0.01 0.02,0.02 0.01,0.01 0.01,0.02 0.01,0.03 0,0.01 0.01,0.02 0.01,0.02 0,0.01 0,0.01 0,0.01 -0,0 -0,0.01 -0.01,0.01 -0,0 -0.01,0 -0.01,0 -0,-0 -0,-0 -0,-0.01 -0,-0 -0,-0.01 -0,-0.02 -0,-0.01 -0,-0.02 -0,-0.03 -0,-0.01 -0.01,-0.02 -0.01,-0.03 -0,-0.01 -0.01,-0.01 -0.01,-0.02 -0,-0 -0,-0.01 -0,-0.01 0,-0 0,-0 0.01,-0z"/>
     <path id="_1_17" class="fil2" d="M0.46 0.73l-0.01 0 0 0 -0 -0 -0 -0 -0 -0 -0 -0 -0 -0 -0 -0 -0 -0 -0 -0 -0 -0 -0 -0 -0 -0 -0 -0 -0 -0 -0 -0 -0 -0 -0 -0 0 -0.01 0 0 0 0 0 0 0 0 0 0 0 0 0 0 0 0 0 0 0 0 0 0 0 0 0 0 0 0 0 0 0 0 0 0zm0 0l0 0 0 0 0 0zm0.01 0.03l-0.01 0 0 0 -0 -0 -0 -0 -0 -0 -0 -0 -0 -0 -0 -0 -0 -0 -0 -0 -0 -0 -0 -0 0.01 -0 0 0 0 0 0 0 0 0 0 0 0 0 0 0 0 0 0 0 0 0 0 0zm0 0l0 0 0 0 0 0zm0.01 0.02l-0.01 0 0 0 -0 -0 -0 -0 -0 -0 -0 -0 -0 -0 -0 -0 -0 -0 -0 -0 0.01 -0 0 0 0 0 0 0 0 0 0 0 0 0 0 0 0 0 0 0zm-0.01 0l0 0 0 0 0 0zm0.01 0.01l-0.01 -0 0 0 0 -0 0 -0 0 -0 0 -0 0 -0 -0 -0 -0 -0 -0 -0 -0 -0 -0 -0 0.01 -0 0 0 0 0 0 0 0 0 0 0 0 0 -0 0 -0 0 -0 0 -0 0 0 0zm-0.01 -0l0 0 0 0 0 0zm0 0.01l-0 -0.01 -0 0 0 -0 0 -0 0 -0 0 -0 0 -0 0 -0 0 -0 0 -0 0 -0 0 -0 0 -0 0 -0 0.01 0 -0 0 -0 0 -0 0 -0 0 -0 0 -0 0 -0 0 -0 0 -0 0 -0 0 -0 0 -0 0 -0 0zm0 -0l-0 0 -0 0 0 -0zm-0.01 0l0 -0.01 -0 -0 0 0 0 0 0 0 0 -0 0 -0 0 -0 0 -0 0 -0 0 -0 0 -0 0 0.01 -0 0 -0 0 -0 0 -0 0 -0 0 -0 0 -0 0 -0 0 -0 0 -0 -0 -0 -0zm0 0l-0 -0 0 0 -0 -0zm-0.01 -0.01l0.01 -0 0 0 0 0 0 0 0 0 0 0 -0 -0 0 0 0 0 -0 -0 0 0 -0 -0 -0 -0 0 0 -0 0.01 -0 -0 -0 -0 -0 -0 -0 -0 -0 -0 -0 -0 -0 -0 -0 -0 -0 -0 -0 -0 -0 -0 -0 -0 0 0zm0.01 -0l0 0 -0 -0 0 0zm-0.01 -0.02l0.01 -0 0 0 0 0 0 0 0 0 0 0 0 0 0 0 0 0 0 0 -0.01 0 -0 -0 -0 -0 -0 -0 -0 -0 -0 -0 -0 -0 -0 -0 -0 -0 0 0zm-0 -0.02l0.01 -0 0 0 0 0 0 0 0 0 0 0 0 0 0 0 0 0 0 0 0 0 0 0 -0.01 0 -0 -0 -0 -0 -0 -0 -0 -0 -0 -0 -0 -0 -0 -0 -0 -0 -0 -0 -0 -0 0 0zm-0.01 -0.03l0.01 -0 0 0 0 0 0 0 0 0 0 0 0 0 0 0 0 0 0 0 0 0 0 0 -0.01 0 -0 -0 -0 -0 -0 -0 -0 -0 -0 -0 -0 -0 -0 -0 -0 -0 -0 -0 -0 -0 0 0zm0 0l0 0 0 0 0 0zm-0.01 -0.02l0.01 -0 0 0 0 0 0 0 0 0 0 0 0 0 0 0 0 0 0 0 -0.01 0 -0 -0 -0 -0 -0 -0 -0 -0 -0 -0 -0 -0 -0 -0 -0 -0 0 0zm0.01 -0l0 0 0 0 0 0zm-0.01 -0.01l0.01 0 0 0 -0 0 -0 0 -0 0 0 0 0 0 0 0 0 0 0 0 0 0 0 0 0 0 0 0 -0.01 0 -0 -0 -0 -0 -0 -0 -0 -0 -0 -0 -0 -0 0 -0 0 -0 0 -0 0 -0 0 -0 0 -0 0 0zm0.01 -0l-0 0.01 0 0 -0 -0 -0 -0 -0 -0 -0 -0 -0 -0 -0 0 -0 0 0 0 -0 0 0 -0 0 -0 -0 0 -0 0 0 -0 -0 0 -0 0 -0.01 -0 0 -0 0 -0 0 -0 0 -0 0 -0 0 -0 0 -0 0 -0 0 -0 0 0 0 0 0 0 0 0 0 0 0 0 0 0 0 0zm0 0l0 0 0 0 0 0z"/>
    </g>
    <g>
     <path class="fil3" d="M0.42 0.73c0,0.01 0.01,0.02 0.01,0.04 0,0.01 0.01,0.02 0.01,0.03 0,0.01 0,0.02 0,0.02 0,0 0,0 0.01,0 0,-0 0,-0.01 -0,-0.02 -0,-0.01 -0,-0.02 -0,-0.03 -0,-0.01 -0,-0.02 -0.01,-0.02 -0,-0.01 -0.01,-0.01 -0.01,-0.01 -0,-0 -0,-0.01 -0.01,-0.01 -0,-0 -0,-0 -0.01,-0 -0,0 -0.01,0 -0,0.01z"/>
     <path id="_1_18" class="fil2" d="M0.44 0.76l-0.01 0 0 0 -0 -0 -0 -0 -0 -0 -0 -0 -0 -0 -0 -0 -0 -0 -0 -0 -0 -0 -0 -0 0.01 -0 0 0 0 0 0 0 0 0 0 0 0 0 0 0 0 0 0 0.01 0 0 0 0zm0.01 0.03l-0.01 0 0 0 -0 -0 -0 -0 -0 -0 -0 -0 -0 -0 -0 -0 -0 -0 -0 -0 0.01 -0 0 0 0 0 0 0 0 0 0 0 0 0 0 0 0 0 0 0zm0 0l0 0 0 0 0 0zm0 0.02l-0.01 0 -0 -0 -0 -0 -0 -0 -0 -0 -0 -0 -0 -0 -0 -0 -0 -0 -0 -0 -0 -0 -0 -0 0.01 -0 0 0 0 0 0 0 0 0 0 0 0 0 0 0 0 0 0 0 0 0 -0 -0zm-0.01 0l-0 -0 -0 -0 0 0zm0.01 -0l0.01 0 0 0 -0 0 -0 0 -0 0 -0 0 -0 0 -0 0 -0 0 -0 0 -0 -0 -0 -0 -0 -0 -0 -0 -0 -0 -0 -0 -0 -0 -0 -0 0.01 -0 0 0 0 0 -0 -0 0 0 0 0 0 0 -0 -0 -0 -0 0 0 -0 0 -0 0 0 -0 -0 0 0 0 0 -0 0 -0 0 0zm0 0l0 0 0 0 0 0zm-0 -0.02l0.01 -0 0 0 0 0 0 0 0 0 0 0 0 0 -0 0 -0 0 -0 0 -0 0 -0 0 -0.01 -0 0 -0 0 -0 0 -0 0 -0 0 -0 -0 -0 -0 -0 -0 -0 -0 -0 -0 -0 0 0zm0.01 -0l0 0 -0 -0 0 0zm-0.01 -0.03l0.01 -0 0 0 0 0 0 0 0 0 0 0 0 0 0 0 0 0 0 0 -0.01 0 -0 -0 -0 -0 -0 -0 -0 -0 -0 -0 -0 -0 -0 -0 -0 -0 0 0zm0.01 -0l0 0 0 0 0 0zm-0.01 -0.02l0.01 -0 0 0 0 0 0 0 0 0 0 0 0 0 0 0 0 0 0 0 -0.01 0 -0 -0 -0 -0 -0 -0 -0 -0 -0 -0 -0 -0 -0 -0 -0 -0 0 0zm0.01 -0l0 0 0 0 0 0zm-0.02 -0.01l0.01 -0 0 0 0 0 0 0 0 0 0 0 0 0 0 0 0 0 0 0 -0.01 0 -0 -0 -0 -0 -0 -0 -0 -0 -0 -0 -0 -0 -0 -0 -0 -0 0 0zm0.01 -0l0 0 0 0 -0 -0zm-0.01 -0l0.01 -0 0 0 0 0 0 0 0 0 0 0 -0.01 0 -0 -0 -0 -0 -0 -0 -0 -0 0 0zm0.01 -0l0 0 0 0 -0 -0zm-0.01 0l-0 -0.01 0 0 0 0 0 0 0 0 0 0 0 0 0 0 0 0 0 0 0 0 0 0 0 0 0 0 -0.01 0 -0 -0 -0 -0 -0 -0 -0 -0 -0 -0 0 0 -0 -0 -0 -0 -0 0 0 0 0 0 0 0 0 0zm-0 -0.01l-0 0 0 0 -0 0zm0 0.01l-0.01 0 0 0 -0 -0 -0 -0 -0 -0 0 -0 0 -0 0 -0 0 -0 0 -0 0 -0 0 -0 0 -0 0 -0 0 -0 0 -0 0 -0 0 -0 0 0.01 -0 0 -0 -0 0 -0 -0 0 -0 0 0 -0 -0 0 -0 0 -0 0 -0 0 -0 0 -0 0 -0 0 0 0 0 0 0 0 0 0zm-0.01 0l0 0 0 0 0 0z"/>
    </g>
    <g>
     <path class="fil1" d="M0.45 0.74c0.01,-0 0.02,-0 0.02,-0 0.01,0 0.01,0 0.01,0 0,0 0,0 0,0 0,0 0,-0 0,-0 0,-0 0,-0 0,-0 0,-0 0,-0 0,-0 0,0 0,0 0,0 0,0 0,-0 0,0 0,0 0,0 0,0 -0,0 -0,0.01 -0,0.01 -0,0 -0,0.01 -0,0.01 -0,0 -0,0 -0,0.01 -0,0 -0.01,0 -0.01,0 -0,0 -0,-0 -0,-0 -0,-0 -0,-0 -0,-0 -0,-0 -0,-0 -0.01,-0 -0,0 -0,0 -0,0 -0,0 -0,0 -0,0 -0,0 -0.01,0 -0.01,0 -0,0 -0.01,0 -0.01,0 -0,0 -0,0 -0.01,0 -0,0 -0,0 -0,-0 -0,0 -0,0 -0,-0 -0,-0 -0,-0 -0,-0 -0,-0 -0,-0.01 -0,-0.01 -0,-0 -0,-0.01 0,-0.01 0,-0 0,-0 0,-0 0,-0 0,-0 0,-0 0,0 0.01,0 0.01,0z"/>
     <path id="_1_19" class="fil2" d="M0.47 0.74l-0 0.01 0 0 -0 -0 -0 0 -0 0 -0 0 -0 0 -0 0 -0 0 -0 0 -0 -0.01 0 -0 0 -0 0 -0 0 -0 0 -0 0 -0 0 -0 0 0 0 0zm-0 0l0 0 -0 0 -0 0zm0.01 0l-0 0.01 0 0 -0 -0 -0 -0 -0 -0 -0 -0 -0 -0 -0 -0 -0 -0 -0 -0 0 -0.01 0 0 0 0 0 0 0 0 0 0 0 0 0 0 0 0 0 0zm-0 -0l0 0 0 0 -0 -0zm0 0l-0 0.01 0 0 -0 0 -0 -0 -0 -0 -0 -0 -0 -0 -0 -0 -0 -0 -0 -0 0 -0.01 0 0 0 0 0 0 0 0 0 0 0 0 0 0 0 0 0 0zm-0 0l0 0 0 0 -0 0zm0 -0l0 0.01 0 0 -0 0 -0 0 -0 0 -0 0 -0 0 -0 0 -0 0 -0 0 0 -0.01 0 0 0 0 0 0 0 -0 0 -0 0 -0 0 -0 0 -0 0 0zm0 -0l0 0.01 -0 0 -0 0 -0 0 -0 0 -0 0 -0 -0.01 0 -0 0 -0 0 -0 0 -0 -0 0zm0 0.01l0 0 -0 0 0 -0zm0 -0.01l-0 0.01 0 0 -0 0 -0 0 -0 0 -0 0 0 -0 0 0 -0 -0.01 0 -0 0 -0 0 -0 0 -0 0 0 0 0 0 0zm-0 0l0 0 0 0 -0 0zm0 0l0 0.01 0 0 -0 0 -0 0 -0 0 -0 -0 0 -0.01 0 0 0 0 0 0 0 -0 0 0zm-0 0l0 0 0 0 -0 0zm0.01 0l-0.01 0 -0 -0 0 0 0 0 0 0 0 0 -0 0 -0 0 0 -0.01 0 0 0 0 0 0 0 0 0 0 0 0 -0 -0zm-0.01 0l-0 -0 0 0 0 0zm0.01 0l-0.01 -0 0 0 0 -0 0 -0 -0 -0 0 -0 0 0 0 0 0.01 -0 0 0 0 0 0 0 0 0 0 0 0 0 0 0zm0 -0l0 0 0 0 0 -0zm-0 0.01l-0.01 -0 0 0 0 -0 0 -0 0 -0 0 -0 0.01 0 -0 0 0 0 -0 0 -0 0 0 0zm0 -0l0 0 0 -0 0 -0zm-0 0.01l-0.01 -0 0 -0 0 -0 0 -0 0 -0 0 -0 0.01 0 -0 0 -0 0 -0 0 -0 0 0 -0zm-0.01 -0l0 -0 0 0 0 0zm0 0.01l-0 -0.01 -0 0 -0 0 0 -0 0 0 -0 0 0 -0 0 -0 -0 0 -0 0 0 -0 0 -0 0 -0 0 -0 0.01 0 -0 0 -0 0 -0 0 -0 0 -0 0 -0 0 -0 0 -0 0 -0 0 -0 0 -0 0 -0 0 -0 0zm0 -0l-0 0 -0 0 0 -0zm-0.01 0l0 -0.01 0 0 0 0 0 -0 0 -0 0 -0 0 -0 0 -0 0 0.01 -0 0 -0 0 -0 0 -0 0 -0 0 -0 0 0 0zm0 -0.01l0 0 0 0 -0 0zm-0.01 0.01l0 -0.01 -0 0 0 0 0 0 0 0 0 0 0 0 0 0 0 0.01 -0 0 -0 -0 -0 -0 -0 -0 -0 -0 -0 -0 -0 0zm0 0l-0 0 -0 -0 0 0zm-0 -0l0 -0.01 0 0 0 0 0 0 0 0 0 0 0 0 0 0 -0 0.01 -0 -0 -0 -0 -0 -0 -0 -0 -0 -0 -0 -0 0 0zm0 -0.01l0 0 0 0 0 0zm-0.01 0.01l-0 -0.01 0 0 0 -0 0 0 0 0 0 0 0 0 0 0 0 0 0 0 -0 0.01 -0 -0 -0 -0 -0 -0 -0 -0 -0 0 -0 0 -0 0 -0 0 0 0zm-0 -0.01l0 0 0 0 0 0zm-0 0.01l-0 -0.01 0 -0 0 -0 0 -0 0 -0 0 -0 0 -0 0 -0 0 0.01 -0 0 -0 0 -0 0 -0 0 -0 0 -0 0 0 -0zm-0 -0.01l0 -0 -0 0 0 -0zm-0 0.01l-0 -0.01 0 0 0 -0 0 -0 0 -0 0 -0 0 -0 0 -0 0 0.01 -0 0 -0 0 -0 0 -0 0 -0 0 -0 0 0 0zm0 0l0 0 0 0 0 0zm-0.01 0l-0 -0.01 0 0 0 -0 0 -0 0 -0 0 -0 0 -0 0 -0 0 -0 0 -0 0 0.01 -0 0 -0 0 -0 0 -0 0 -0 0 -0 0 -0 0 -0 0 0 0zm-0.01 0l-0 -0.01 0 0 0 -0 0 -0 0 -0 0 -0 0 -0 0 -0 0 -0 0 -0 0 0.01 -0 0 -0 0 -0 0 -0 0 -0 0 -0 0 -0 0 -0 0 0 0zm-0 -0.01l-0 0 0 0 -0 0zm-0.01 0.01l-0 -0.01 0 0 0 -0 0 -0 0 -0 0 -0 0 0.01 -0 0 -0 0 -0 0 -0 0 0 0zm-0 -0.01l0 0 0 0 -0 0zm-0 0.01l0 -0.01 0 0 0 0 0 0 0 0 0 0 0 0.01 -0 0 -0 0 -0 0 -0 -0 0 0zm0 -0.01l0 0 0 0 -0 0zm-0 0.01l0.01 -0.01 0 0 -0 0 -0 -0 -0 -0 0 0 0 0.01 -0 0 -0 -0 -0 -0 -0 -0 0 0zm-0 -0.01l0.01 -0 -0 -0 0 0 0 0 0 0 0 0 0 0 0 0 -0.01 0.01 -0 -0 -0 -0 -0 -0 -0 -0 -0 -0 -0 -0 -0 -0zm0 0l-0 -0 -0 -0 0 0zm-0 -0.01l0.01 -0 0 0 0 0 0 0 0 0 0 0 0 0 0 0 0 0 0 0 -0.01 0 -0 -0 -0 -0 -0 -0 -0 -0 -0 -0 -0 -0 -0 -0 -0 -0 0 0zm0 -0.01l0.01 0 0 -0 -0 0 -0 0 -0 0 0 0 0 0 0 0 -0.01 0 -0 -0 -0 -0 0 -0 0 -0 0 -0 0 -0 0 -0zm-0 0l0 -0 -0 0 0 -0zm0 -0.01l0.01 0 -0 0 -0 0 -0 0 -0 0 -0 0 -0 0 -0 0 -0 0 -0 0 -0.01 -0 0 -0 0 -0 0 -0 0 -0 0 -0 0 -0 0 -0 0 -0 -0 0zm0.01 0l0 -0 -0 0 0 -0zm0 -0.01l0 0.01 0 0 -0 0 -0 0 -0 0 -0 0 0 -0 0 -0 0 0 -0 0 -0.01 -0 0 -0 0 -0 0 -0 0 -0 0 -0 0 -0 0 -0 0 0 0 0zm0.01 0l0 0.01 0 0 -0 0 -0 -0 -0 0 -0 -0 -0 -0 -0 -0 -0 -0 -0 0 0 -0.01 0 0 0 0 0 0 0 0 0 0 0 0 0 0 0 0 0 0z"/>
    </g>
    <g>
     <path class="fil6" d="M0.5 1c-0,-0.02 -0,-0.07 -0,-0.1 0,-0.02 0,-0.03 0,-0.03 0,-0 0,-0 0.01,-0 0,-0 0,-0 0,-0.01 0,-0.01 0,-0.02 0,-0.03 0,-0.01 0,-0.01 0,-0.01 0,-0 0,-0 0,0 0,0 0,0 0.01,0 0,0 0,0 0,0.03 0,0.02 0,0.07 0,0.1 -0,0.02 -0,0.03 -0,0.03 -0,0 -0,0 -0,0 -0,0 -0.01,0.01 -0.01,0.01 -0,0 -0,0 -0,0.01 0,0.01 0,0.02 -0,0.02 -0,0.01 -0,0.01 -0,0.01 -0,0 -0,-0 -0,-0 -0,-0 -0,-0 -0,-0 -0,-0 -0,-0 -0,-0 -0,-0 0,-0 -0,-0.03z"/>
     <path id="_1_20" class="fil2" d="M0.49 0.9l0.01 0 0 0 0 0 0 0.01 0 0.01 0 0.01 0 0.01 0 0.01 0 0.01 0 0.01 0 0.01 0 0.01 0 0.01 0 0.01 0 0.01 0 0.01 0 0.01 0 0 -0.01 0 -0 -0 -0 -0.01 -0 -0.01 -0 -0.01 -0 -0.01 -0 -0.01 -0 -0.01 -0 -0.01 -0 -0.01 -0 -0.01 -0 -0.01 -0 -0.01 0 -0.01 0 -0.01 0 -0.01 0 -0 0 0zm0.01 -0.03l0 0.01 0 0 0 -0 0 -0 0 -0 0 -0 0 0 -0 0 -0 0 -0 0 -0 0 -0 0 -0 0 -0 0 -0 0 -0 0 -0 0 -0 0 -0.01 0 0 -0 0 -0 0 -0 0 -0 0 -0 0 -0 0 -0 0 -0 0 -0 0 -0 0 -0 0 -0 0 -0 0 -0 0 -0 0 -0 0 0zm0 -0l0 0.01 0 0 -0 0 -0 0 -0 0 -0 0 -0 0 -0 0 -0 -0.01 0 -0 0 -0 0 -0 0 -0 0 -0 0 -0 0 0zm0 -0.01l0.01 0 0 0 -0 0 -0 0 -0 0 -0 0 -0 0 -0 0 -0 0 -0 0 -0 0 -0 0 -0 0 -0 0 -0 0 -0 0 -0 -0.01 0 0 -0 0 0 -0 -0 0 -0 0 0 -0 0 -0 0 0 0 -0 0 -0 0 -0 0 -0 0 -0 0 -0 0 0zm0 -0.03l0.01 0 0 -0 -0 0 -0 0 -0 0 -0 0 -0 0 -0 0 -0 0 -0 0 -0.01 -0 0 -0 0 -0 0 -0 0 -0 0 -0 0 -0 0 -0 0 -0 0 -0zm0 0l0 -0 0 -0 -0 0zm0.01 -0.01l0 0.01 0 0 -0 0 0 0 0 -0 0 -0 0 0 -0 0 -0 0 -0 0 -0 0 -0 0 -0 0 -0 0 -0 0 -0 0 -0.01 -0 0 -0 0 -0 0 -0 0 -0 0 -0 0 -0 0 -0 0 -0 0 -0 0 -0 0 -0 0 -0 0 -0 0 -0 0 0zm0 0l0 0 0 0 0 0zm0.01 0l-0 0.01 0 0 -0 -0 -0 -0 -0 0 -0 0 -0 -0.01 0 -0 0 0 0 0 0 0 0 0zm-0 0.01l0 0 0 0 0 0zm0.01 -0.01l-0 0.01 -0 0 -0 -0 -0 -0 -0 -0 -0 -0 0 -0.01 0 0 0 0 0 0 0 0 -0 0zm-0 0.01l-0 0 -0 -0 0 0zm0.01 0.02l-0.01 0 0 0 -0 -0.01 -0 -0.01 -0 -0 -0 -0 -0 -0 -0 -0 -0 -0 -0 -0 -0 -0 0 -0 0 0 0 0 0 0 -0 0 0 -0.01 0 0 0 0 0 0 0 0 0 0 0 0 0 0 0 0 0 0 0 0 0 0 0 0 0 0.01 0 0.01 0 0zm0 0.1l-0.01 0 0 0 0 -0 0 -0.01 0 -0.01 -0 -0.01 0 -0.01 -0 -0.01 -0 -0.01 -0 -0.01 -0 -0.01 -0 -0.01 -0 -0.01 -0 -0.01 -0 -0.01 -0 -0.01 -0 -0.01 -0 -0 0.01 -0 0 0 0 0.01 0 0.01 0 0.01 0 0.01 0 0.01 0 0.01 0 0.01 0 0.01 0 0.01 0 0.01 0 0.01 0 0.01 0 0.01 0 0.01 0 0 0 0zm-0 0.03l-0 -0.01 0 0 -0 0 -0 0 -0 0 -0 0 0 -0 0 -0 0 -0 0 -0 0 -0 0 -0 0 -0.01 0 -0.01 0.01 0 -0 0.01 -0 0.01 -0 0 -0 0 -0 0 -0 0 -0 0 -0 0 -0 0 -0 0 -0 0 -0 0 0 0zm-0 0l-0 -0.01 0 -0 0 -0 0 -0 0 -0 0 -0 0 -0 0 -0 0 0.01 -0 0 -0 0 -0 0 -0 0 -0 0 -0 0 0 -0zm-0 -0.01l0 -0 0 -0 -0 0zm-0.01 0.02l-0.01 -0.01 0 0 0 -0 0 -0 0 -0 0 -0 0 -0 0 -0 0 -0 0 -0 0 0.01 -0 0 -0 0 -0 0 -0 0 -0 0 -0 0 -0 0 -0 0 0 0zm-0 0.01l-0.01 0 0 0 -0 -0 0 -0 0 -0 0 -0 0 -0 0 -0 0 -0 0 -0 0 -0 0 -0 0.01 0.01 -0 0 -0 0 -0 0 0 -0 0 -0 -0 0 -0 0 -0 0 0 0 0 0 0 0zm-0 0.02l-0.01 -0 0 0 0 -0 0 -0 0 -0 0 -0 0 -0 -0 -0 0 -0 -0 -0 0.01 -0 0 0 0 0 0 0 0 0 -0 0 -0 0 -0 0 -0 0 0 0zm-0.01 0.01l-0 -0.01 0 0 0 0 0 -0 -0 0 -0 0 -0 0 0 -0 -0 0 0 0 0 -0 0 -0 0 -0 0 -0 0 -0 0 -0 0.01 0 -0 0 -0 0 -0 0 -0 0 -0 0 -0 0 -0 0 -0 0 -0 0 -0 0 -0 0 -0 0 -0 0 -0 0 0 0zm-0.01 -0l0 -0.01 0 0 0 0 0 0 0 0 0 0 0 0.01 -0 0 -0 -0 -0 -0 -0 -0 0 0zm-0 -0l0.01 -0 0 0 -0 -0 -0 -0 0 0 -0 -0 0 0 0 0 -0 0.01 -0 -0 -0 -0 -0 -0 -0 -0 -0 -0 -0 -0 0 0zm-0 -0.01l0.01 -0 0 -0 0 0 0 0 0 0 0 0 -0.01 0 -0 -0 -0 -0 -0 -0 -0 -0 0 -0zm0 0l0 -0 0 0 -0 -0zm-0 -0.03l0.01 -0 0 0 0 0.01 0 0.01 0 0 0 0 0 0 0 0 0 0 0 0 -0.01 0 -0 -0 0 -0 0 -0 0 -0 -0 -0 0 -0 -0 -0.01 -0 -0.01 0 0z"/>
    </g>
    <g>
     <path class="fil3" d="M0.51 0.95c-0,-0.01 -0,-0.03 -0,-0.04 0,-0.01 0,-0.01 0,-0.01 0,-0 0,-0 0.01,-0 0,-0 0.01,-0 0.01,-0 0,0 0,0 0,0 0,0 0,0 0,0 0,0 0,0 0,0.01 0,0.01 0,0.03 0,0.03 -0,0.01 -0,0.01 -0,0.01 -0,0 -0,0 -0.01,0 -0,0 -0.01,0 -0.01,0 -0,0 -0,0 -0,0 -0,-0 -0,-0 -0,-0 -0,-0 -0,-0.01 -0,-0.02z"/>
     <path id="_1_21" class="fil2" d="M0.51 0.92l0.01 0 0 0 -0 0 -0 0 0 0 0 0 0 0 0 0 0 0 0 0 -0.01 0 -0 -0 -0 -0 -0 -0 -0 -0.01 -0 -0.01 0 -0 0 -0 0 -0 0 0zm0 -0.01l0 0.01 -0 0 -0 0 0 -0 0 -0 -0 0 0 -0 -0 0 -0 0 -0 0 -0 0 -0 0 -0 0 -0 0 -0 0 -0 0 -0.01 -0 0 -0 0 -0 0 -0 0 -0 0 -0 0 -0 0 -0 0 -0 0 -0 0 -0 0 -0 0 -0 0 -0 0 -0 -0 0zm0 0.01l-0 0 0 -0 -0 0zm0 -0.01l0 0.01 -0 0 -0 0 -0 0 -0 0 -0 0 -0 0 -0 0 -0 -0.01 0 -0 0 -0 0 -0 0 -0 0 -0 0 -0 -0 0zm0 0.01l-0 0 0 -0 -0 0zm0.01 -0.01l-0 0.01 0 0 -0 0 -0 0 -0 0 -0 0 -0 0 -0 0 -0 -0.01 0 -0 0 -0 0 -0 0 -0 0 -0 0 0 0 0zm0.01 0l-0 0.01 -0 -0 -0 -0 -0 -0 -0 0 -0 -0 0 0 -0 -0 0 -0.01 0 0 0 0 0 0 0 0 0 0 0 0 -0 -0zm-0 0.01l-0 -0 0 0 -0 -0zm0.01 -0l-0.01 0.01 0 0 -0 -0 -0 -0 -0 -0 -0 -0 -0 -0 -0 -0 0 -0.01 0 0 0 0 0 0 0 0 0 0 0 0 0 0zm-0 -0l-0 -0 0 0 -0 -0zm0 0.01l-0.01 0 0 0 -0 -0 -0 -0 -0 -0 -0 -0 -0 -0 -0 -0 -0 -0 -0 -0 -0 -0 0 0 -0 -0 0 0 0.01 -0.01 0 0 0 0 0 0 0 0 0 0 0 0 0 0 0 0 0 0 0 0 0 0 0 0 0 0zm0 0.03l-0.01 -0 0 0 0 -0 0 -0 0 -0 0 -0 0 -0 -0 -0 -0 -0 -0 -0 0.01 -0 0 0 0 0 0 0 0 0 0 0 -0 0 -0 0 -0 0 0 0zm0 0l0 0 0 0 0 0zm-0 0.01l-0 -0.01 -0 0 0 -0 -0 0 -0 0 0 -0 0 0 0 0 0 -0 0 -0 0 -0 0 -0 0 -0 0 -0 0.01 0 -0 0 -0 0 -0 0 -0 0 -0 0 -0 0 -0 0 -0 0 -0 0 -0 0 -0 0 -0 0 -0 0zm0 -0l-0 0 0 -0 -0 0zm-0.01 0l-0 -0.01 0 -0 0 -0 0 -0 0 -0 0 -0 0 -0 0 -0 0 0.01 -0 0 -0 0 -0 0 -0 0 -0 0 -0 0 0 -0zm-0 -0.01l0 -0 0.01 -0 -0.01 0zm-0.01 0.01l-0 -0.01 0 0 0 -0 0 -0 0 -0 0 -0 0 -0 0 -0 0 -0 0 -0 0 0.01 -0 0 -0 0 -0 0 -0 0 -0 0 -0 0 -0 0 -0 0 0 0zm-0.01 0l0 -0.01 0 0 -0 -0 -0 0 0 -0 0 0 0 -0 0 -0 0 0.01 -0 0 -0 0 -0 0 -0 0 -0 0 -0 -0 0 0zm0 -0.01l0 0 -0 0 -0 -0zm-0.01 0l0.01 -0 0 0 0 0 0 0 0 -0 -0 -0 -0 -0 -0 -0 -0 -0 -0 -0 -0 0.01 -0 -0 -0 -0 -0 -0 -0 -0 -0 -0 -0 -0 -0 -0 -0 -0 0 0zm-0 -0.02l0.01 -0 0 0 0 0 0 0 0 0 0 0 0 0 0 0 0 0 0 0 -0.01 0 -0 -0 -0 -0 -0 -0 -0 -0 -0 -0 -0 -0 -0 -0 -0 -0 0 0zm0.01 -0l0 -0 0 0 0 -0z"/>
    </g>
    <path class="fil2" d="M0.51 0.92l0.01 0c0,0 0,0 0,0.01l0 0.03 -0.01 0c-0,-0.01 -0,-0.02 -0,-0.03 -0,-0 0,-0 0,-0l-0.01 -0 0 -0.01z"/>
    <path class="fil7" d="M0.21 1.17c-0,-0.01 -0.01,-0.01 -0.02,-0.01 -0.01,0 -0.02,0 -0.03,0 0.01,0.01 0.04,0.02 0.05,0.01z"/>
    <path class="fil7" d="M0.48 1.16c-0.01,0 -0.05,-0.01 -0.05,0.01 0.01,0.01 0.04,0 0.05,-0.01z"/>
    <path class="fil1" d="M0.27 1.11c0,0.02 0,0.03 -0.01,0.03l0 0c0,0 0.02,0.01 0.03,0.02 0.03,0.01 0.06,0.01 0.08,0 0,-0 0.01,-0 0.01,-0.01 0.01,-0.01 0.01,-0 0.01,-0.01 -0.01,-0 -0.01,-0.01 -0.01,-0.03 0,-0.01 0,-0.01 0,-0.02 -0.02,0 -0.01,0 -0.04,0 -0,-0 -0.04,-0 -0.04,0 -0.02,0 -0.02,-0 -0.04,-0 0,0.01 0,0.01 0,0.02z"/>
    <path class="fil1" d="M0.36 1.17c-0.05,0.02 -0.09,-0.01 -0.1,-0.01 0.01,0.02 0.01,0.02 0.02,0.03 0.03,0.02 0.03,0.02 0.05,0.02 0.02,0 0.02,0.01 0.05,-0.02 0.01,-0.01 0.01,-0.02 0.02,-0.03l-0.03 0.01z"/>
    <path class="fil1" d="M0.41 1.15c-0,0 -0,0.01 -0.01,0.01l0.02 0c0,-0 0,-0.01 0,-0.01l-0.02 0z"/>
    <path class="fil1" d="M0.46 1.14c-0.01,-0 -0.02,-0 -0.02,0.01 0.02,-0.01 0.03,0 0.05,0 -0,-0.01 -0.02,-0.01 -0.03,-0.01z"/>
    <path class="fil1" d="M0.25 1.16c-0,-0 -0,-0.01 -0.01,-0.01l-0.02 0c0,0 0,0.01 0,0.01l0.02 0z"/>
    <path class="fil1" d="M0.21 1.15c0,-0 0,-0.01 -0,-0.01 -0,-0 -0,-0 -0.01,-0 -0.01,-0 -0.01,-0 -0.02,0 -0.01,0 -0.02,0.01 -0.03,0.01 0.02,0 0.01,-0 0.03,-0 0.01,-0 0.02,-0 0.02,0z"/>
    <path class="fil1" d="M0.23 0.36c0,-0.01 0,-0.02 -0,-0.03 -0.01,0 -0.01,0.01 -0.01,0.01 -0,0 -0.01,0.01 -0.01,0.01 0,-0 0.01,-0.01 0.01,-0.01 0,0 0,0 0.01,0.01l0 0 0 -0z"/>
    <path class="fil1" d="M0.42 0.33c-0,0.01 -0,0.01 -0,0.02l0 -0c0.01,-0.01 0.01,-0.01 0.02,-0 -0,-0.01 -0.01,-0.02 -0.02,-0.02z"/>
    <g>
     <path class="fil8" d="M0.29 1.27l0.04 0c0.01,0 0.02,-0 0.03,-0 -0.01,0.02 -0.01,0.03 -0.04,0.03 -0.01,0 -0.01,-0 -0.01,-0 -0,-0 -0.01,-0 -0.01,-0.01 -0.01,-0.01 -0.01,-0.01 -0.01,-0.02zm0.36 -1.02l0 0c-0,0 -0,0.01 -0,0.01 -0.02,0.02 -0.02,0.02 -0.05,0.02 -0.01,-0 -0.02,-0 -0.03,-0 -0.01,-0 -0.02,-0 -0.03,-0.01 -0.01,-0.01 -0,-0.01 -0.02,-0.01 0,0 0.01,0.01 0.02,0.01 0.01,0.01 0.04,0.02 0.06,0.02 0.01,0 0.01,-0 0.02,-0 0.01,0 0.01,0.01 0.01,0.01 -0,0.02 -0.03,0.01 -0.04,0.01 -0.02,-0 -0.04,-0.01 -0.06,-0.02l0 0.01c0.01,0 0.02,0.01 0.02,0.01 0.01,0.01 0.04,0.02 0.05,0.02 0,0 0,-0 0.01,0 0,0 0,-0 0,0l0 0c0,0 0.01,0 0.01,0.01 0,0 -0.01,0.02 -0.01,0.02 -0,0.01 -0.01,0 -0.01,0 -0,-0 -0,0 -0.01,0 -0.01,0 -0.01,-0.01 -0.02,-0.01 -0.01,-0.01 -0.06,-0.02 -0.06,-0.02 -0.01,0 -0.01,0.01 -0.02,0.01 -0,0 -0.01,-0.01 -0.02,-0.01 -0.01,-0 -0.01,-0.01 -0.01,-0.02 -0.01,-0.01 -0.01,-0.01 -0.01,-0.01 -0,-0 -0.01,-0.01 -0.01,-0.01 -0.01,-0 -0.02,0.01 -0.03,0.01 0,0 -0,0.01 -0,0.01 -0.01,0.01 -0.01,0.02 -0.01,0.03 0,0 0.01,0.01 0.01,0.01 0,-0.01 -0.01,-0.04 0.01,-0.04 0.02,0 0.04,0.05 0.05,0.07 0.01,0.01 0.01,0.03 0.01,0.04 0.01,0.03 0.01,0.05 -0,0.08 0.01,0 0,0.01 0,0.02 -0,0.02 -0,0.03 -0.01,0.05 -0,0.01 -0.01,0.05 -0.02,0.06 0,0 0.01,0 0.01,0 0,0.01 0,0.02 -0,0.03 -0,0.01 -0.01,0.01 -0.02,0.01 0,0 0,0 0,0.01 0,0.02 0,0.04 -0,0.06 -0,0.01 -0.01,0.02 -0.01,0.02 0,0 0.01,0.03 0.01,0.03 0.03,0.07 0.02,0.17 0,0.24 -0.01,0.03 -0.02,0.07 -0.03,0.1 0.01,0 0.01,0 0.01,0 0.01,0 0.01,-0.02 0.05,-0 0.06,0.03 -0.05,0.06 -0.05,0.03l-0.03 -0c0,0.01 -0,0.02 -0,0.02 0,-0 0.01,-0 0.01,-0 0,0 0.01,0 0.01,0.01l-0 0.03c-0.01,0.04 -0,0.04 -0.04,0.04 -0,0.01 -0.01,0.02 -0.01,0.03 -0.01,0.01 -0.01,0.01 -0.03,0.01l-0 0 -0.01 0c-0.01,-0 -0.02,-0 -0.03,-0.01 -0,-0 -0.01,-0.01 -0.01,-0.01 -0,-0 -0,-0.01 -0.01,-0.01 -0.03,0 -0.03,-0 -0.04,-0.02 -0,-0.01 -0.01,-0.04 -0.01,-0.05 0,-0.01 0.01,-0.01 0.02,-0.01 -0,-0.01 -0,-0.02 -0,-0.02 -0.01,0 -0.01,0 -0.01,0 -0,0 -0.01,0 -0.01,0 -0,0.03 -0.11,-0 -0.05,-0.03 0.04,-0.02 0.04,0 0.05,0l0.01 -0c-0,-0.01 -0.01,-0.02 -0.01,-0.02 -0,-0.01 -0.01,-0.02 -0.01,-0.03 -0.03,-0.07 -0.04,-0.18 -0.02,-0.26 0,-0.01 0.01,-0.02 0.01,-0.03 0,-0.01 0.01,-0.03 0.01,-0.03 0,-0 -0.01,-0.02 -0.01,-0.02 -0,-0.02 -0,-0.03 -0,-0.05l0 -0.02c-0.01,0 -0.02,0 -0.02,-0.01 -0,-0 -0,-0.01 -0,-0.02 0,-0.01 0,-0.01 0.01,-0.01 -0,-0 -0,-0.01 -0.01,-0.02l-0.01 -0.04c-0,-0.02 -0.01,-0.03 -0.01,-0.05 -0,-0.01 -0,-0.01 0,-0.01 -0.01,-0.03 -0.01,-0.05 -0,-0.08 0,-0.02 0.01,-0.03 0.01,-0.04 0.01,-0.02 0.03,-0.07 0.05,-0.07 0.02,0 0.01,0.03 0.01,0.04 0,-0 0,-0 0.01,-0.01 0.01,-0.01 0.01,-0.01 0.01,-0.03 0,-0.01 -0.01,-0.01 -0.01,-0.02 -0.01,-0 -0.02,-0.01 -0.03,-0.01 -0,0 -0.01,0 -0.01,0.01 -0,0.01 -0,0.01 -0.01,0.01 0,0.01 -0,0.01 -0.01,0.02 -0,0 -0.01,0.01 -0.02,0.01 -0.01,0 -0.01,-0.01 -0.02,-0.01 -0,0 -0.04,0.01 -0.04,0.02 -0.01,0 -0.01,0.01 -0.02,0.01 -0,0 -0.01,0.01 -0.02,0.01 -0.01,0 -0,-0 -0.01,0 -0.01,0 -0.02,-0.02 -0.02,-0.02 0,-0 0.01,-0.01 0.01,-0.01 0.01,-0 -0,0 0,-0 0,-0 0,-0 0.01,-0 0.01,-0 0.02,-0 0.03,-0.01l0.02 -0.01c0.01,-0 0.02,-0.01 0.02,-0.01l0 -0.01c-0.02,0.01 -0.04,0.02 -0.06,0.02 -0,0 -0.01,0 -0.01,0 -0.03,0.01 -0.03,-0.02 -0.01,-0.02 0.01,0 0.01,0 0.02,0 0.01,0 0.04,-0.01 0.05,-0.01 0.01,-0 0.03,-0.01 0.03,-0.02 -0.01,0 -0.01,-0 -0.02,0 -0,0 -0,0 -0,0 -0,0 -0,0 -0,0 -0.01,0.01 -0.02,0.01 -0.03,0.01 -0.01,0 -0.02,0 -0.03,0 -0.03,0 -0.03,0 -0.05,-0.01 -0.01,-0.01 -0.01,-0.01 -0.01,-0.02l0 -0c0,-0 0,-0.01 0,-0.01 0,-0.01 0.02,-0.01 0.03,-0.02 0.01,-0 0.04,-0.01 0.05,-0.01 0.01,0 0.04,0.01 0.04,0.03 0,0.01 0.01,0.01 0.02,0.01 0.01,0 0.01,0 0.01,0 0.01,0.01 0.02,-0 0.03,-0 0.01,0 0,0 0.01,0 0,-0 0.01,-0 0.01,-0 0,-0 0.02,-0.01 0.02,-0.01 -0.01,-0.02 0,-0.03 0.01,-0.05l-0 0c0,-0.01 -0,-0.03 0.01,-0.03 0,0 0.01,-0 0.01,0.01 0.01,-0.01 0.01,-0.01 0.01,-0.02 -0,-0.01 0,-0.02 0,-0.03 0,-0.01 0,-0.02 0,-0.03 0,-0.02 0.02,-0.02 0.02,-0.03 0,-0.01 -0,-0.03 0,-0.04 0.01,-0.03 0.04,-0.03 0.06,-0.02 0.02,0.01 0.01,0.03 0.01,0.05 0,0.01 -0,0.02 0.01,0.02 0.02,0.01 0.01,0.01 0.02,0.05 0,0.01 0,0.04 0,0.04 0,0 0.01,0.01 0.01,0.01 0,-0 -0,-0.01 0,-0.01 0.02,0 0.02,0.01 0.02,0.03l-0 0c0,0.01 0.02,0.03 0.01,0.05 0.01,0 0.02,0.01 0.03,0.01 0,0 0,0 0,-0 0.01,-0 0.02,0.01 0.04,0l0.01 -0c0.01,-0 0.02,-0 0.02,-0.01 0,-0.01 0.01,-0.01 0.02,-0.02 0.02,-0.01 0.03,-0.01 0.05,-0 0.01,0 0.04,0.01 0.05,0.01 0.01,0 0.01,0.01 0.01,0.02zm-0.32 1.01l-0.03 0c-0.01,0 -0.01,-0 -0.02,-0 -0.01,-0 -0.01,0 -0.02,0 -0,-0 -0.01,-0 -0.02,-0 -0,-0 -0.01,-0.05 -0.01,-0.06 0.01,0 0.01,0 0.02,0 0.01,0 0.01,-0 0.02,0 0,0 0.01,0.01 0.01,0.01 0.02,0.01 0.02,0 0.03,0 0.01,0 0.01,0 0.03,-0 0.01,-0 0.01,-0.01 0.01,-0.01 0,-0 0.03,-0 0.04,-0 -0,0.01 -0.01,0.06 -0.01,0.06 -0,0 -0.03,0 -0.03,0 -0.01,0 -0.01,0 -0.02,0 -0.01,0 -0.01,0 -0.02,0zm0.06 -0.07l-0.01 0 0.01 -0.01c-0,0 -0,0 -0,0.01zm-0.13 -0.01l0.01 0.01 -0.01 0c-0,-0 -0,-0 -0,-0.01zm0.18 -0.01c0,-0.02 0.04,-0.01 0.05,-0.01 -0.01,0.01 -0.04,0.02 -0.05,0.01zm-0.27 -0.01c0.01,0 0.02,-0 0.03,-0 0.01,0 0.02,0 0.02,0.01 -0.01,0.01 -0.04,0 -0.05,-0.01zm0.09 -0.01c0.01,0 0.05,0.03 0.1,0.01l0.03 -0.01c-0.01,0.02 -0.01,0.02 -0.02,0.03 -0.03,0.02 -0.03,0.02 -0.05,0.02 -0.02,0 -0.02,0.01 -0.05,-0.02 -0.01,-0.01 -0.01,-0.02 -0.02,-0.03zm0.18 -0c0,-0.02 0.01,-0.02 0.02,-0.01 0.01,0 0.02,0.01 0.03,0.01 -0.02,0 -0.03,-0.01 -0.05,0zm-0.01 0.01l-0.02 0c0,-0 0,-0.01 0.01,-0.01l0.02 0c-0,0 -0,0.01 -0,0.01zm-0.21 -0.01l0.02 0c0,0 0,0.01 0.01,0.01l-0.02 0c-0,-0 -0,-0.01 -0,-0.01zm-0.06 0.01c0,-0.01 0.02,-0.01 0.03,-0.01 0.01,-0 0.01,-0 0.02,-0 0,0 0,0 0.01,0 0,0 0,0.01 0,0.01 -0.01,-0 -0.01,-0 -0.02,-0 -0.01,0 -0.01,0 -0.03,0zm0.24 -0.01l0 0c0,0 -0,-0 -0,-0zm-0.15 0l0 0c-0,0 -0,-0 -0,-0zm0.02 -0.05c0.02,0 0.01,0 0.04,0 0,-0 0.04,-0 0.04,0 0.02,0 0.02,-0 0.04,-0 0,0.01 -0,0.01 -0,0.02 0,0.02 -0,0.03 0.01,0.03 0,0.01 -0,0.01 -0.01,0.01 -0.01,0 -0.01,0 -0.01,0.01 -0.03,0.01 -0.06,0.01 -0.08,0 -0,-0 -0.03,-0.01 -0.03,-0.02l0 -0c0.01,-0 0.01,-0.01 0.01,-0.03 0,-0.01 -0,-0.01 -0,-0.02zm-0.05 -0.21c0,-0.03 0,-0.06 0.01,-0.08 0,-0.03 0.01,-0.05 0.01,-0.08 0,-0.03 0,-0.01 0.01,-0.04 0,-0.02 0.01,-0.04 0.02,-0.05 0,-0 0.01,-0.01 0.02,-0.01 0.01,-0 0.05,-0 0.06,-0 0.02,0 0.04,-0 0.05,0.02 0.01,0.01 0.01,0.04 0.02,0.05 0,0.01 0,0.01 0,0.02 0,0.03 0.01,0.05 0.01,0.08 0,0.02 0.01,0.08 0.01,0.1 -0,0.01 -0,0.01 -0,0.02 -0,0.03 -0.01,0.14 -0.04,0.16 -0.01,0.01 -0.05,0.01 -0.07,0.01 -0.07,0 -0.08,0.01 -0.1,-0.06 -0.01,-0.04 -0.02,-0.09 -0.02,-0.14zm0.22 -0.08l0 0.01c0.02,0.07 0.01,0.17 -0,0.23 -0,0.02 -0.01,0.04 -0.02,0.05 -0.01,0.02 -0.01,0.03 -0.02,0.04l-0 0.01c0,-0.01 -0,-0.01 -0.01,-0.02 0,-0.01 -0,-0 -0,-0.02l0 -0.02c0.03,-0.01 0.03,-0.06 0.04,-0.08 0.01,-0.05 0.02,-0.13 0.01,-0.19 -0,-0.01 -0,-0.01 -0,-0.02zm-0.23 0.06c0,0.06 0,0.11 0.02,0.17 0,0.02 0.01,0.05 0.03,0.06 0,0.01 0,0.01 0,0.01l0 0.02c-0,0 -0,0 -0,0.01 -0.01,0 -0.01,0 -0.01,0.02 -0,-0 -0,-0.01 -0.01,-0.01 -0.01,-0.03 -0.02,-0.06 -0.03,-0.09 -0.01,-0.06 -0.02,-0.13 -0.01,-0.19 0,-0.01 0,-0.02 0,-0.02 0,-0 0,-0.01 0,-0.01 0,-0 0,-0 0,-0.01l0 -0c0,-0 0,-0 0,-0 0,-0 0,-0 0,-0 0,0.01 -0.01,0.04 -0.01,0.06zm0.25 -0.2l-0.01 0c0,-0.01 0,-0.01 0.01,-0.02l0 0c0,0.01 -0,0.01 -0,0.02zm-0.26 -0.02l0 0c0,0.01 0,0.01 0.01,0.02l-0.01 0c0,-0 -0,-0.01 -0,-0.02zm0.23 -0.07c0,0 0,0.01 0,0.01l0.01 0.08c0,0.01 0,0.04 -0,0.06 -0,0.01 -0,0.01 -0,0.02 -0,-0 -0,-0 -0,-0 -0,0 -0,-0 -0,-0 -0,-0 -0,-0 -0,-0l-0 -0.01c-0.01,-0.04 -0.01,-0.02 -0.01,-0.06 0,-0.02 -0,-0.06 0,-0.08 0,-0 0,-0.01 0,-0.01zm-0.21 0.17c-0,-0.02 -0.01,-0.01 -0.01,-0.04 0,-0.01 -0,-0.01 0,-0.02 0,-0.01 0,-0.01 0,-0.02l0 -0.03c0,-0.01 0,-0.05 0.01,-0.06 0,0 0.01,0.01 0.01,0.02 0,0.03 -0,0.06 -0,0.09 0,0.01 -0.01,0.04 -0.01,0.05 0,0 -0,0 -0,0l-0 0zm0.22 -0.14c0,-0.01 -0,-0.02 -0,-0.02 0,-0 0,-0 0.01,-0 0,-0 0,-0 0.01,-0.01 0,0.01 -0,0.02 -0.01,0.03 -0,0 -0,0 -0,0 -0,0 -0,0 -0,0zm-0.23 -0.04c0,0 0,0 0.01,0.01 0,0 0,0 0.01,0.01 -0,0.01 -0,0.01 -0,0.02 -0,-0 -0.01,-0.03 -0.01,-0.04zm0.24 0.08c-0,-0.03 -0,-0.02 0.01,-0.05 0.01,-0.02 0.01,-0.02 0.01,-0.04 0,-0.01 -0,-0 0,-0.01l0.02 -0.03c0,0.02 -0.01,0.05 -0.01,0.06 -0,0.01 -0.02,0.05 -0.02,0.06zm-0.26 -0.12c0,0 0,0 0,0l0 0.01c0,0.01 0.01,0.02 0.01,0.02 0,0.01 0,0.01 0,0.02 0,0.01 0.01,0.05 0.01,0.05l-0 0.02c-0,-0 -0,-0 -0,-0 -0.01,-0.02 -0.03,-0.1 -0.03,-0.12zm0.09 -0.09c0,-0.03 -0,-0.05 0.02,-0.08 0,-0 0,-0 0,-0 0.01,-0.01 0.07,-0.01 0.09,-0 0.01,0 0.02,0.04 0.02,0.06l0 0.02c0,0.02 -0.01,0.07 -0.01,0.09l-0.01 0.09c-0.01,-0 -0.07,-0 -0.08,0 -0.01,-0.03 -0.02,-0.15 -0.02,-0.18zm0.16 -0.05c0,-0.02 0,-0.02 0.01,-0.03 0.01,0 0.01,0 0.01,0.01 0,0 0.01,0.01 0.01,0.01 0.01,0.01 0.01,0.02 0.02,0.03 0.01,0.01 0.02,0.06 0.02,0.08 0,0.01 -0,0.02 -0.01,0.03 -0.01,0.01 -0.03,0.06 -0.04,0.06 -0.01,-0.01 -0,-0.03 -0,-0.05 -0,-0.03 0,-0.06 -0,-0.1l-0 -0.05zm-0.2 0.09l0 0.05c-0,0.01 0.01,0.04 -0,0.05 -0.01,-0 -0.04,-0.05 -0.04,-0.06 -0.01,-0.01 -0.01,-0.02 -0.01,-0.03 0,-0.02 0.01,-0.06 0.02,-0.07l0.03 -0.05c0,-0 0,-0 0.01,-0 0,0 0,0 0,0.01 0,0 0,0 0,0.01 0,0.02 0,0.03 -0,0.05l-0 0.06zm0.16 -0.12c0,0 0.01,0.01 0.01,0.01 0.02,0.01 0.01,0.02 0.01,0.03 0,0.01 0,0.01 0,0.02l0 0.04c-0,0.01 0,0.03 0,0.04 0,0.01 -0,0.01 -0,0.02 0,0.01 0,0.02 -0,0.02 -0,0.02 0,0.03 0,0.03 -0,0 -0,0 -0,0.01 -0,0.01 -0,0.03 -0,0.04 0,0.01 0,0.03 0,0.04 -0,-0 -0,-0.01 -0.01,-0.02 -0,-0.01 -0,-0.01 -0.01,-0.02 -0,-0.01 -0.01,-0.02 -0.02,-0.02 0,-0 0,-0.03 0,-0.03 0.01,-0.04 0.02,-0.16 0.01,-0.2 -0,-0.02 -0.01,-0.02 -0.01,-0.03zm-0.12 0c-0,0.01 -0.01,0.02 -0.01,0.06 0,0.04 0.01,0.13 0.02,0.17 0,0.01 0,0.03 0,0.03 -0.02,0 -0.03,0.02 -0.03,0.03 -0,0 -0,0.01 -0,0.01 -0,0 -0,0.01 -0,0.01 0,-0.01 -0,-0.03 0,-0.04 0,-0.01 0,-0.03 -0,-0.04 -0,-0 -0,-0 -0,-0.01 -0,-0.01 0,-0.01 0,-0.03l-0 -0.04c0,-0.02 0,-0.03 0,-0.04l0.01 -0.08c0,-0 0,-0 0,-0 0.01,-0.01 0.01,-0.01 0.02,-0.02zm-0.06 0zm0.24 -0l-0.24 0zm0.24 -0l0 0c0,0 -0,-0 -0,-0zm-0.24 0zm0.18 -0l-0.18 0zm0.18 -0zm-0.12 0l0.12 0zm-0.12 0zm0.17 -0l-0.17 0zm0.17 -0zm-0.23 0l0.23 0zm-0.23 0zm0.23 -0l-0.23 0zm0.23 -0c0,0 0,0 0,0 -0,-0 -0,-0 -0,-0zm-0.23 0c0,-0 -0,-0 0,-0 -0,0 0,0 -0,0zm0.4 0.01c-0,-0 -0,-0 -0.01,-0l0.01 -0.02c0,0 0,0 0.01,0 -0,0 -0,0.01 -0.01,0.02zm-0.57 -0.02c0,-0 0.01,-0 0.01,-0 0,0 0,0.01 0,0.01 0,0 0,0.01 0,0.01 -0,0 -0,0 -0.01,0l-0.01 -0.02zm0.4 0.01c-0.01,-0.01 -0.01,-0.01 -0.02,0.01 -0,0 -0,0 -0,0 0,-0.01 -0,-0.02 0,-0.03 0.01,0 0.02,0.02 0.02,0.02zm-0.23 0c0,-0 0.01,-0.01 0.01,-0.01 0,-0 0.01,-0.01 0.01,-0.01 0.01,0.01 0,0.02 0,0.03 -0,-0 -0,-0 -0,-0l-0 -0.01c-0,-0 -0,-0 -0.01,-0.01 -0.01,-0 -0.01,0 -0.01,0.01zm0.18 -0c-0,-0 -0.01,-0.01 -0.01,-0.01l0 -0.01c0.01,0 0.01,0 0.01,0 0,0.01 -0,0.01 -0,0.02zm-0.13 -0.02c0.01,0 0.01,0 0.01,-0 0,0.01 0,0.01 -0.01,0.02 -0,0 -0,0 -0.01,0 0,-0.01 -0,-0.01 -0,-0.02zm0.11 0.01c-0,-0 -0.01,-0 -0.02,-0 0,-0.01 0.01,-0.01 0.02,-0.01 0,0.01 -0,0.01 -0,0.01zm-0.08 -0.01c0.01,-0 0.02,0 0.02,0.01 -0.01,0 -0.01,0 -0.02,0 -0,-0 -0,-0.01 -0,-0.01zm0.24 -0.01c0,-0.01 0,-0.01 0,-0.01 0.01,0 0.04,0.02 0.05,0.02 0,0 0.01,0.01 0.02,0.01 -0,0 -0.01,0.01 -0.01,0.02 -0.01,-0.01 -0,-0.01 -0.03,-0.02 -0.01,-0 -0.03,-0.01 -0.04,-0.01l0 -0zm-0.46 0.04c0,-0.01 -0,-0.01 -0.01,-0.02 0.02,0 0.06,-0.03 0.07,-0.03 0,0.01 0,0.01 0,0.02 -0.01,0 -0.05,0.01 -0.06,0.03 -0,0 -0,0 -0.01,0.01zm0.26 -0.04c0,-0.01 0.01,-0 0.02,-0 0.01,0 0.01,0.01 0,0.01 -0.01,0 -0.02,0 -0.02,-0.01zm0.08 -0c-0,0.01 -0.01,0.01 -0.02,0.01l0 -0.01c0,0 0.01,0 0.01,0zm-0.08 0.02l0.01 0c0.01,0 0.01,-0.01 0.01,-0.02l0.02 0c0,0 0,0 0,0 -0.01,0 -0.01,0 -0.01,0.01 -0,0 -0,0 -0.01,0.01 -0.01,0.01 -0.01,0 -0.03,0 -0.01,0 -0.01,-0.01 -0.02,-0.02 0,-0 0,-0 0,-0l0.02 0c-0,0.01 0,0.02 0.01,0.02zm-0.06 -0.02c0.01,0 0.01,-0 0.02,-0l0 0.01c-0.01,0 -0.01,0 -0.02,-0.01zm0.14 0zm-0.14 0l0.14 0zm-0.14 0zm0.26 0.01l-0.26 -0.01zm0.26 0.01c-0.02,0 -0.01,0.02 -0.03,0.01 -0.01,-0.01 -0.01,-0.01 -0,-0.03 0.01,-0.02 0.02,-0.02 0.03,-0.01 0.01,0 0.01,0.01 0.01,0.02l-0.01 0.02zm-0.2 -0.02l-0.02 0 0 -0.01c0.01,0 0.02,-0 0.03,-0 0.01,0 0.02,0 0.03,0l0 0.01 -0.02 0c-0.01,0 -0.01,-0 -0.02,-0 -0.01,0 -0.01,0 -0.02,0zm-0.13 0.02c0,0.01 -0.02,0.01 -0.02,0.01 -0,0 -0.01,-0.01 -0.02,-0.01l-0.01 -0.02c0,-0 0,-0.01 0,-0.01 0,-0.01 0.01,-0.01 0.02,-0.01 0.01,-0 0.03,0.03 0.03,0.04zm0.18 -0.03c0,-0.01 0,-0.01 0.01,-0.01 0,0.01 0,0.02 -0,0.03 -0,0 -0,0.01 -0.01,0.01 -0,-0.01 -0,-0.01 -0,-0.03zm-0.08 0.03c-0.01,-0 -0.01,-0.01 -0.01,-0.01l0 -0.02c0.01,0 0.01,0.01 0.01,0.02 -0,0.01 -0,0.01 -0,0.01zm0.33 -0.02c-0.01,0 -0.01,-0 -0.01,-0 0,-0 0.01,-0.01 0.01,-0.01 0,0 0,-0 0,0 -0,0 -0,0.01 -0.01,0.01zm-0.57 -0.01c0,-0 0.01,-0 0.01,0 0,0 0,0 0.01,0 -0,0 -0.01,0 -0.02,-0 -0,-0 -0,-0 -0,-0zm0.52 -0l0 0c-0,0 -0,-0 -0,-0zm-0.47 0l0 0c0,0 -0,-0 -0,-0zm0.46 -0c0,-0 0,0 0,0 0,0 -0,0 -0,-0zm-0.46 0c0,-0 0,0 0,0 0,0 -0,0 -0,-0zm0.45 -0c0,-0 0,0 0,0 0,0 -0,0 -0,-0zm-0.45 0c0,-0 0,0 0,0 -0,0 -0,0 -0,-0zm0.45 -0c0,-0 0,0 0,0 -0,0 -0,0 -0,-0zm-0.44 0c0,-0 0,0 0,0 0,0 -0,0 -0,-0zm0.44 -0l0 0 -0 -0zm-0.43 0l-0 0 0 -0zm0.43 0l-0 -0 0 0zm-0.43 -0l-0 0 0 -0zm0.43 0l-0 -0 0 0zm-0.43 -0l-0 0 0 -0zm0.43 0l-0 -0 0 0zm-0.07 0.02c-0.01,-0 0.01,-0.03 0.01,-0.03l0 0c-0,0.01 -0.01,0.02 -0.01,0.02zm-0.29 -0.02l0 -0c0,0 0.02,0.02 0.01,0.03 -0,-0.01 -0.01,-0.02 -0.01,-0.02zm-0.06 0l-0 0 0 -0zm0.42 0l-0 -0 0 0zm-0.42 -0l-0 0 0 -0zm0.42 0zm-0.08 0.01l0.08 -0.01zm-0.08 0.01c-0.01,-0 -0.01,-0.01 -0.04,0 -0.01,0.01 -0.01,0.01 -0.03,0.01 -0,0 -0,-0.01 -0,-0.01 0.03,-0 0.04,-0.02 0.06,-0.02 0.01,0 0.01,0 0.02,0.01l-0.01 0.01zm-0.07 -0.02l0 0 0 0.01c-0,-0 -0,-0 -0,-0.01zm-0.09 0l0.06 0c-0,0 -0,0 -0,0.01 -0.01,0 -0.01,0 -0.02,0 -0.01,0 -0.01,-0 -0.02,-0 -0.01,0 -0.01,0 -0.02,0 -0.01,-0 -0.01,-0 -0.02,-0 -0,-0 -0,-0 -0,-0.01zm-0.03 0l0 -0.01 0 0c0,0.01 0,0 -0,0.01zm-0.08 -0c0.02,-0.01 0.03,-0.01 0.05,0 0.01,0 0.02,0.01 0.03,0.01 0,0.01 0,0.01 -0.01,0.01 -0.01,0 -0.03,-0.02 -0.05,-0.02 -0.01,0 -0.01,0 -0.02,0.01l-0.01 -0.01zm-0.07 0zm0.41 -0l-0.41 0zm0.41 -0zm-0.41 0l0.41 0zm-0.41 0zm0.41 0l-0.41 0zm0.41 0zm-0.41 0l0.41 0zm-0.41 0zm0.41 -0l-0.41 0zm0.41 -0zm-0.4 0l0.4 0zm-0.4 0zm0.4 0l-0.4 0zm0.4 0zm-0.4 0l0.4 0zm-0.4 0zm0.4 -0l-0.4 0zm0.4 -0zm-0.4 0l0.4 0zm-0.4 0zm0.4 0l-0.4 0zm0.4 0zm-0.4 0l0.4 0zm-0.4 0zm0.39 -0l-0.39 0zm0.39 -0zm-0.39 0l0.39 0zm-0.39 0zm0.39 0l-0.39 0zm0.39 0zm-0.13 -0l0.13 0zm-0.13 -0c0,-0 0,-0 0.01,-0l0 0.01 -0 0c-0,-0 -0,-0.01 -0,-0.01zm-0.13 0.01l-0 0 0 -0.01c0,0 0,0 0.01,0 -0,0 -0,0.01 -0,0.01zm-0.13 -0.01zm0.39 -0l-0.39 0zm0.39 -0zm-0.11 -0l0.11 0zm-0.11 -0c0,0 0.01,0 0.01,0.01 -0,0 -0,0 -0.01,0l-0 -0.01zm-0.16 0.01c-0,-0 -0,-0 -0.01,-0 0,-0 0,-0.01 0.01,-0.01l-0 0.01zm-0.11 -0.01zm0.39 0l-0.39 0zm0.39 0l-0 -0 0 0zm-0.38 -0l-0 0 0 -0zm0.38 0l-0 -0 0 0zm-0.38 -0l-0 0 0 -0zm0.38 0l-0 -0 0 0zm-0.38 -0l-0 0 0 -0zm0.37 0c-0.01,-0 -0.01,-0 -0.01,-0 0,-0 0,-0 0.01,-0 0,0 0,0 0.01,0zm-0.37 0c0,-0 0,-0 0.01,-0 0,-0 0.01,-0 0.01,0 -0.01,0 -0.01,0 -0.01,0zm0.29 0c-0.01,0.01 -0.01,-0.01 -0.02,-0.01 0,-0 0,-0 0.01,0 0,0 0.01,0 0.01,0.01zm-0.2 0c0,-0 0.01,-0.01 0.02,-0.01 0,-0 0,-0 0.01,0 -0.01,0 -0.01,0.02 -0.02,0.01zm0.26 0c0,-0 0,-0 0,-0.01 -0,-0 -0,-0 -0.01,-0 -0,0 -0.01,0.01 -0.01,0.02 -0.01,0 -0.02,0 -0.02,-0.01 0,-0.02 0.01,-0.01 0.02,-0.01 0.01,0 0.02,-0.01 0.01,0 -0,0 -0.01,0.01 -0.01,0.01zm-0.32 -0.01c0.01,0 0.02,-0.01 0.02,0.01 0,0 -0,0 -0,0 -0,0.01 -0.01,0 -0.02,0 -0,-0.01 -0,-0.01 -0.01,-0.02 -0,0 -0,0 -0.01,0 0,0 0,0 0,0.01 -0,-0 -0.01,-0.01 -0.01,-0.01 -0,-0.01 0.01,-0 0.01,-0zm0.26 -0l0.02 0.01c0,0 0,0 0,0.01 -0.01,-0 -0.01,-0 -0.02,-0 -0,-0.01 -0.01,-0.01 -0.01,-0.01zm-0.2 0c-0,0 -0.01,0 -0.01,0.01 -0.01,0 -0.01,-0 -0.02,0 0,-0.01 0,-0 0.01,-0.01 0,-0 0.01,-0 0.01,-0zm0.22 -0l0 0 -0 -0zm-0.02 0zm-0.2 0l0.2 0zm-0.2 0zm-0.02 -0l0.02 0zm-0.02 -0l-0 0 0 -0zm0.31 -0c0,-0 0,0 0,0 0,0 -0,0 -0,-0zm-0.37 0c0,-0 0,0 0,0 0,0 -0,0 -0,-0zm0.4 -0c0,-0.01 0.02,-0.02 0.02,-0.02 0.01,-0 0.06,0.01 0.07,0.01 0,0 0.01,0.01 0.01,0.01 -0,0.01 -0.01,0.02 -0.02,0.02 -0.01,0 -0.06,-0 -0.07,-0.01 -0,-0 -0,-0 -0.01,-0.01 -0,-0 -0,-0.01 -0,-0.01zm-0.03 0c0,-0 0.01,0 0,0 0,0 -0,0 -0,0 -0,-0 -0,0 -0,-0zm-0.38 0c0,-0 0.01,0 0,0 -0,0 -0,0 -0,-0zm-0.1 0.02c-0.01,0 -0.01,-0 -0.01,-0.01 -0,-0 -0.01,-0.01 -0.01,-0.01 0.01,-0.01 0.01,-0.01 0.02,-0.02 0.01,-0 0.05,-0.01 0.06,-0.01 0,0 0.02,0.01 0.02,0.02 0,0 -0.01,0.01 -0.01,0.02 -0.01,0.01 -0.06,0.01 -0.07,0.01zm0.49 -0.02c-0,0 0,0 -0,0 -0,-0 -0,-0 -0,-0l0 0zm-0.39 0l0 0c-0,0 0,0 -0,0 -0,-0 -0,-0 -0,-0zm0.39 0l0.01 -0c0,-0 0,-0 0,0l-0.01 0zm-0.39 0l-0.01 0c0,-0 -0,-0 0.01,-0l0 0c0,0 0,0 0,0zm0.17 -0.02l0.02 0c0.02,0 0,0 0.02,0 0.01,-0 0.03,-0 0.04,0.01 0.01,0.01 0,0.02 -0,0.02 -0.01,0.01 -0.03,0.01 -0.05,0.01 -0.02,0 -0.04,0 -0.05,-0.01 -0.01,-0.02 -0,-0.03 0.02,-0.03zm0.15 0.02c-0.01,-0 -0.02,-0.01 -0.03,-0.01 0,-0 0,-0 0.01,-0 0,0 0.01,0 0.01,0 0,0 0.01,0 0.02,0.01zm-0.25 0c0.01,-0 0.02,-0.01 0.03,-0.01 0,-0 0.01,-0 0.01,0 -0.01,0 -0.03,0.01 -0.03,0.01zm0.44 -0.01zm-0.63 0l0.63 0zm-0.63 0zm0.53 -0.01l-0.53 0.01zm0.53 -0.01zm-0.42 0l0.42 0zm-0.42 0zm0.15 0.01l-0.15 -0.01zm0.15 0.01c0,0.01 -0,0.01 0,0.02 0,0 0,0.01 0.01,0.01 -0.01,-0 -0.03,-0.02 -0.03,-0.03 0,-0.02 0.04,-0.03 0.05,-0.04 0.02,-0 0.03,-0 0.05,0 0.02,0 0.03,0.01 0.04,0.02 0.01,0.01 0.02,0.02 0,0.03 -0.01,0 -0.01,0.01 -0.01,0.01 0,-0 0,-0.01 0.01,-0.01 0.01,-0.01 0.01,-0.02 -0.01,-0.03 -0,-0 -0.01,-0.01 -0.02,-0.01l-0.07 0c-0.01,0 -0.03,0.01 -0.03,0.02zm0.27 -0.01c0,-0.01 0.02,-0.02 0.03,-0.02l0.05 0.01c0.01,0 0.02,0 0.02,0.01 -0.01,-0.01 -0.01,-0.01 -0.02,-0.01 -0.07,-0.02 -0.06,-0 -0.08,0.01zm-0.53 0.01c0,-0.01 0,-0.01 0.01,-0.01 0,-0 0.01,-0 0.01,-0l0.05 -0.01c0.01,-0 0.01,-0 0.01,0 0.01,0 0.02,0.01 0.02,0.02 -0.01,-0 -0,-0.02 -0.05,-0.01 -0.01,0 -0.02,0 -0.03,0.01 -0.02,0 -0.01,0.01 -0.02,0.01zm0.24 -0.03c0,-0.01 0,-0.03 0.01,-0.04 0,-0 0,-0 0,-0 0,0.04 0.04,0.01 0.05,0.01 0.03,0 0.03,0.01 0.05,0.01 0.01,0 0.02,-0.01 0.02,-0.02 0,0 -0,-0 0,0 0,0 0,0 0,0l0.01 0.02c0,0.01 0,0.02 0,0.02 -0,-0 -0.01,-0 -0.01,-0.01 -0.03,-0.01 -0.08,-0.01 -0.11,-0 -0.01,0 -0.01,0.01 -0.01,0.01zm0.14 -0.03c0.01,0 0.02,0.03 0.02,0.04 0,0 -0,0.01 -0,0.01l-0 -0c-0,-0 -0,-0 -0,-0 -0.01,-0.02 -0,0 -0.01,-0.02 -0,-0.01 -0,-0.02 -0.01,-0.03zm-0.16 0.05c-0,-0.01 -0,-0.02 0,-0.03 0,-0.01 0.01,-0.02 0.01,-0.02 -0,0.01 -0.01,0.03 -0.01,0.04 0,0 0,0 -0,0.01l-0.01 0.01zm0.05 -0.05c-0.01,0 -0.01,-0 -0.01,-0.01 0,-0.01 0.01,-0.02 0.02,-0.02 0,-0 0.02,-0.01 0.03,-0.01 0.01,0 0.05,0.01 0.05,0.03 0,0.02 -0,0.02 -0.03,0.01 -0.03,-0.01 -0.04,0 -0.06,0zm0.11 -0.01c0.01,0 0.01,-0 0.01,0 0,0 0,0.01 0,0.01 -0,-0 -0.01,-0.01 -0.01,-0.01zm-0.16 0.01c0,-0 0,-0.01 0,-0.01 0,-0 0,-0 0.01,-0 -0,0 -0.01,0.01 -0.01,0.01zm0.03 -0.03c0,-0.01 0,-0.01 0,-0.02 0,-0.01 0,-0.05 0.01,-0.05 0,-0 0.01,-0.01 0.01,-0.01 0,-0 0.01,-0.02 0.02,-0.02 0.01,-0.01 0.02,-0.01 0.03,-0 0.01,0 0.01,0.02 0.02,0.02 0.02,0.02 0.01,0 0.02,0.04l0 0.04 -0.01 -0.01c-0.01,-0.01 -0.03,-0.01 -0.04,-0.01 -0.01,0 -0.04,0.01 -0.05,0.02 -0,0 -0,0 -0.01,0zm0.08 -0.1c-0.02,-0.02 -0.04,-0.02 -0.06,0 0,-0.02 -0,-0.04 0.01,-0.05 0.02,-0.01 0.04,-0 0.04,0.01 0,0.01 0,0.02 0,0.04z"/>
     <path class="fil8" d="M0.3 0.41c0,-0.01 0,-0.01 0.01,-0.02 0.01,-0.01 0.03,-0.01 0.04,-0 0.01,0.01 0.01,0.04 -0.02,0.04 -0.01,0 -0.02,0 -0.03,-0 -0,-0 -0.01,-0.01 -0.01,-0.01zm0.06 -0.02c0.02,0.01 0.01,0.05 -0,0.05 -0.01,0 -0.04,0 -0.05,0 -0.02,-0.01 -0.02,-0.04 -0,-0.05 -0,0.01 -0.01,0.02 -0,0.03 0.01,0.01 0.02,0.01 0.03,0.01 0.01,0 0.02,0 0.03,-0.01 0.01,-0.02 -0,-0.03 -0,-0.03zm0 0l-0 -0 0 0zm-0.06 -0l-0 0 0 -0zm0.06 0zm-0.06 0l0.06 0zm-0.06 0zm0.05 -0l-0.05 0zm0.05 -0zm-0.05 0l0.05 0zm-0.05 0zm0.05 0l-0.05 0zm0.05 0zm-0.05 0l0.05 0zm-0.05 0zm0.05 -0l-0.05 0zm0.05 -0l0 0c0,0 -0,-0 -0,-0zm-0.04 0l0 0c-0,0 -0,-0 -0,-0zm0.04 -0l0 0c0,0 -0,-0 -0,-0zm-0.04 0l0 0c0,0 -0,-0 -0,-0zm0.03 -0l0 0c-0,0 -0,-0 -0,-0zm-0.03 0l0 0c0,0 -0,-0 -0,-0zm0.02 -0c0,-0 0.01,0 0,0 -0,0 -0,0 -0,-0zm-0.02 0c0,-0 0.01,0 0,0 -0,0 -0,0 -0,-0zm0.01 -0.01c-0.03,0 -0.05,0.02 -0.05,0.04 0,0.01 0.01,0.03 0.01,0.03 0.01,0.01 0.02,0.01 0.04,0.01 0.02,0 0.02,0 0.04,-0.01 0.02,-0.02 0.02,-0.07 -0.04,-0.07z"/>
     <path class="fil8" d="M0.3 0.47l0.06 0c0,0.01 -0,0.03 -0,0.03 -0,0.01 -0,0.01 -0.01,0.01 -0.02,0.01 -0.01,0.01 -0.03,0 -0.01,-0 -0.01,-0 -0.01,-0.01 -0,-0.01 -0,-0.03 -0,-0.04zm-0.01 0c0,0.01 -0,0.04 0.01,0.04 0,0.01 0.03,0.01 0.03,0.01 0,0 0.02,-0.01 0.03,-0.01 0,-0.01 0.01,-0.05 0,-0.05l-0.03 0c-0.02,0 -0.04,-0.01 -0.04,0.01z"/>
     <path class="fil8" d="M0.32 0.4c0.01,0 0.01,-0 0.01,0.01 -0.02,0 -0,0 -0.02,0 0,-0 0,-0.01 0.01,-0.01zm-0.01 0.01c0,0.01 0.01,0.01 0.02,0.01 0.02,0 0.01,-0.03 -0.01,-0.03 -0,0 -0.01,0 -0.01,0 -0,0 -0,0.01 -0,0.01z"/>
    </g>
    <g>
     <path class="fil1" d="M0.31 0.01c-0.02,0.01 -0.01,0.03 -0.01,0.05 0.02,-0.02 0.04,-0.02 0.06,0 0,-0.02 0,-0.03 -0,-0.04 -0.01,-0.01 -0.03,-0.02 -0.04,-0.01z"/>
     <path id="_1_22" class="fil2" d="M0.29 0.06l0.01 0.01 -0.01 -0 -0 -0 -0 -0 -0 -0 -0 -0 -0 -0 0 -0 0 -0 0 -0 0 -0 0 -0 0 -0 0 -0 0 -0 0 -0 0 -0 0 -0 0 -0 0 -0 0 -0 0 -0 0 -0 0 -0 0 -0 0 -0 0 -0 0 -0 0 0.01 -0 0 -0 0 -0 0 -0 0 -0 0 -0 0 -0 0 -0 0 -0 0 -0 0 -0 0 -0 0 -0 0 -0 0 -0 0 -0 0 -0 0 -0 0 -0 0 0 0 0 0 0 0 0 0 0 0 0 0 0 0 -0.01 -0zm0.01 0.01l-0.01 0.01 0 -0.01 0.01 0zm0.05 -0l0.01 0 -0.01 0 -0 -0 -0 -0 -0 -0 -0 -0 -0 -0 -0 -0 -0 -0 -0 -0 -0 -0 -0 -0 -0 -0 -0 -0 -0 -0 -0 -0 -0 -0 -0 -0 -0 0 -0 0 -0 0 -0 0 -0 0 -0 0 -0 0 -0 0 -0 0 -0 0 -0 0 -0 0 -0 0 -0 0 -0 0 -0 0 -0.01 -0.01 0 -0 0 -0 0 -0 0 -0 0 -0 0 -0 0 -0 0 -0 0 -0 0 -0 0 -0 0 -0 0 -0 0 -0 0 -0 0 -0 0 0 0 0 0 0 0 0 0 0 0 0 0 0 0 0 0 0 0 0 0 0 0 0 0 0 0 0 0 0 0 0 -0.01 0zm0.01 0l0 0.01 -0.01 -0.01 0.01 -0zm-0.01 -0.04l0.01 -0 0 0 0 0 0 0 0 0 0 0 0 0 0 0 0 0 0 0 0 0 0 0 0 0 0 0 -0 0 -0 0 -0 0.01 -0 0.01 -0.01 0 0 -0.01 0 -0.01 0 -0 0 -0 0 -0 -0 -0 -0 -0 -0 -0 -0 -0 -0 -0 -0 -0 -0 -0 -0 -0 -0 -0 -0 -0 -0 -0 0 0zm-0.04 -0.01l-0 -0.01 0 -0 0 -0 0 -0 0 -0 0 -0 0 -0 0 -0 0 -0 0 -0 0 -0 0 -0 0 0 0 0 0 0 0 0 0 0 0 0 0 0 0 0 0 0 0 0 0 0 0 0 0 0 0 0 0 0 0 0 0 0 0 0 0 0 0 0 0 0 0 0 -0.01 0 -0 -0 -0 -0 -0 -0 -0 -0 -0 -0 -0 -0 -0 -0 -0 -0 -0 -0 -0 -0 -0 -0 -0 -0 -0 -0 -0 -0 -0 -0 -0 -0 -0 -0 -0 -0 -0 -0 -0 -0 -0 -0 -0 0 -0 0 -0 0 -0 0 -0 0 -0 0 -0 0 -0 0 -0 0 -0 0 -0 0 0 -0zm-0 -0.01l0 -0 0.02 -0.01 -0.02 0.01z"/>
    </g>
    <g>
     <path class="fil1" d="M0.34 0.06c-0.01,-0.01 -0.02,-0.01 -0.03,0 -0.01,0 -0.01,0.02 -0.02,0.02 -0,0 -0.01,0.01 -0.01,0.01 -0,0 -0.01,0.04 -0.01,0.05 0,0.01 -0,0.01 -0,0.02 0,-0 0,-0 0.01,-0 0.01,-0.01 0.04,-0.02 0.05,-0.02 0.01,0 0.03,0.01 0.04,0.01l0.01 0.01 -0 -0.04c-0.01,-0.04 0,-0.03 -0.02,-0.04 -0,-0.01 -0.01,-0.02 -0.02,-0.02z"/>
     <path id="_1_23" class="fil2" d="M0.31 0.06l-0 -0.01 0 0 0 -0 0 -0 0 -0 0 -0 0 -0 0 -0 0 -0 0 -0 0 -0 0 -0 0 -0 0 -0 0 -0 0 -0 0 -0 0 0 0 0 0 0 0 0 0 0 0 0 0 0 0 0 0 0 0 0 0 0 0 0 0 0 0 0 0 0 0 0 0 0 -0 0.01 -0 -0 -0 -0 -0 -0 -0 -0 -0 -0 -0 -0 -0 -0 -0 -0 -0 -0 -0 -0 -0 -0 -0 -0 -0 -0 -0 -0 -0 -0 -0 0 -0 0 -0 0 -0 0 -0 0 -0 0 -0 0 -0 0 -0 0 -0 0 -0 0 -0 0 -0 0 -0 0 -0 0 -0 0 -0 0 0 0zm0 0l0 0 0 0 0 0zm-0.02 0.02l-0.01 -0.01 0 0 0 -0 0 -0 0 -0 0 -0 0 -0 0 -0 0 -0 0 -0 0 -0 0 -0 0 -0 0 -0 0 -0 0 -0 0 0.01 -0 0 -0 0 -0 0 -0 0 -0 0 -0 0 -0 0 -0 0 -0 0 -0 0 -0 0 -0 0 -0 0 -0 0 0 0zm0 0l0 0 0 0 0 0zm-0.01 0.01l-0.01 -0 -0 0 0 -0 0 -0 0 -0 0 -0 0 -0 0 -0 0 -0 0 -0 0.01 0.01 -0 0 -0 0 -0 0 -0 0 -0 0 -0 0 -0 0 -0 0 -0 0zm0 0l-0 0 0.03 -0.04 -0.03 0.04zm-0.01 0.05l-0.01 0 0 -0 0 -0 0 -0 0 -0 0 -0 0 -0 0 -0 0 -0 0 -0 0 -0 0 -0 0 -0 0 -0 0 -0 0 -0 0 -0 0 -0 0 -0 0 -0 0 -0 0 -0 0.01 0 0 -0 -0 0 -0 0 -0 0 -0 0 -0 0 -0 0 -0 0 -0 0 -0 0 -0 0 -0 0 -0 0 -0 0 -0 0 -0 0 -0 0 -0 0 -0 0 -0 0 0 -0zm-0.01 0l0 0 0 -0 0 0zm0 0.02l0 0.01 -0.01 -0 0 -0 0 -0 0 -0 0 -0 0 -0 0 -0 0 -0 0 -0 0.01 -0 0 0 -0 0 -0 0 -0 0 -0 0 -0 0 -0 0 -0 0 -0.01 -0zm0 0.01l-0.01 0 0 -0.01 0.01 0zm0 -0.01l0 0.01 0 0 -0 0 -0 0 -0 0 -0 0 -0 0 -0 0 -0 -0.01 0 -0 0 -0 0 -0 0 -0 0 -0 0 -0 0 0zm0 0l0 0 0 0 0 0zm0.05 -0.02l0 0.01 0 0 -0 0 -0 0 -0 0 -0 0 -0 0 -0 0 -0 0 -0 0 -0 0 -0 0 -0 0 -0 0 -0 0 -0 0 -0 0 -0 0 -0 0 -0 0 -0 0 -0 0 -0 0 -0 0 -0 0 -0 0 -0 -0.01 0 -0 0 -0 0 -0 0 -0 0 -0 0 -0 0 -0 0 -0 0 -0 0 -0 0 -0 0 -0 0 -0 0 -0 0 -0 0 -0 0 -0 0 -0 0 -0 0 -0 0 -0 0 -0 0 -0 0 0 0 0zm0.04 0.01l-0 0.01 0 0 -0 -0 -0 -0 -0 -0 -0 -0 -0 -0 -0 -0 -0 -0 -0 -0 -0 -0 -0 -0 -0 -0 -0 -0 -0 -0 -0 -0 -0 -0 -0 -0 -0 -0 -0 0 0 -0.01 0 0 0 0 0 0 0 0 0 0 0 0 0 0 0 0 0 0 0 0 0 0 0 0 0 0 0 0 0 0 0 0 0 0 0 0 0 0zm-0 -0l0 0 0 0 -0 -0zm0.01 0.01l-0.01 -0.01 0 -0.01 0.01 0.01 0 0 -0.01 0zm0.01 -0l0 0.01 -0.01 -0.01 0.01 -0zm-0 -0.04l0 0.04 -0.01 0 -0 -0.04 0.01 -0 0 0zm0 -0l0 0 -0 -0 0 0zm-0.02 -0.04l0.01 -0.01 -0 0 0 0 0 0 0 0 0 0 0 0 0 0 0 0 0 0 0 0 0 0 0 0 0 0 0 0 0 0 0 0 0 0 0 0 0 0 0 0 0 0 0 0.01 0 0.01 -0.01 0 -0 -0.01 -0 -0.01 -0 -0 -0 -0 -0 -0 -0 -0 -0 -0 -0 -0 -0 -0 -0 -0 -0 -0 -0 -0 -0 -0 -0 -0 -0 -0 -0 -0 -0 -0 -0 -0 -0 -0 -0 -0 -0 -0 -0 -0 -0 0zm0 0l-0 0 -0 -0 0 0zm-0.02 -0.02l0 -0.01 0 0 0 0 0 0 0 0 0 0 0 0 0 0 0 0 0 0 0 0 0 0 0 0 0 0 0 0 0 0 -0.01 0.01 -0 -0 -0 -0 -0 -0 -0 -0 -0 -0 -0 -0 -0 -0 -0 -0 -0 -0 -0 -0 -0 -0 -0 -0 -0 -0 -0 -0 0 0zm0 0l0 0 0 0 0 0z"/>
    </g>
    <g>
     <path class="fil4" d="M0.32 0.15c-0.01,0 -0.03,0.01 -0.03,0.01 -0.01,0 -0.02,0.01 -0.02,0.02 0,0.01 0,0.01 0.01,0.01 0.01,0 0.03,-0.01 0.06,-0 0.02,0.01 0.03,0.01 0.03,-0.01 0,-0.01 -0.04,-0.03 -0.05,-0.03z"/>
     <path id="_1_24" class="fil2" d="M0.3 0.16l-0 -0.01 0 0 0 -0 0 -0 0 -0 0 -0 0 -0 0 -0 0 -0 0 -0 0 -0 0 -0 0 -0 0 -0 0 -0 0 -0 0 0.01 -0 0 -0 0 -0 0 -0 0 -0 0 -0 0 -0 0 -0 0 -0 0 -0 0 -0 0 -0 0 -0 0 -0 0 0 0zm-0 -0.01l0 0 0 0 0 0zm-0.01 0.02l-0.01 0 0 0 0 -0 0 -0 0 -0 0 -0 0 -0 0 -0 0 -0 0 -0 0 -0 0 -0 0 -0 0 -0 0 -0 0 -0 0 -0 0 -0 0 -0 0 -0 0 -0 0 -0 0 0.01 -0 0 -0 0 -0 0 -0 0 -0 0 -0 0 -0 0 -0 0 -0 0 -0 0 -0 0 -0 0 -0 0 -0 0 -0 0 -0 0 -0 0 0 0 -0 0 -0 0 0 0zm0.01 0.01l0 0.01 0 0 -0 0 -0 -0 -0 -0 -0 -0 -0 -0 -0 -0 -0 -0 -0 -0 -0 -0 -0 -0 -0 -0 -0 -0 -0 -0 -0 -0 -0 -0 -0 -0 -0 -0 -0 -0 -0 -0 -0 -0 -0 -0 -0 -0 -0 -0 0 -0 0.01 0 0 0 0 0 0 0 0 0 0 0 0 0 0 0 0 0 0 0 0 0 0 0 0 0 0 0 0 0 -0 -0 0 0 0 0 -0 0 0 0 0 0 0 0 0 0 0 0 0 0 0 0zm0.06 -0l-0 0.01 0 0 -0 -0 -0 -0 -0 -0 -0 -0 -0 -0 -0 -0 -0 -0 -0 -0 -0 0 -0 0 -0 0 -0 0 -0 0 -0 0 -0 0 -0 0 -0 0 -0 0 -0 0 -0 0 -0 0 -0 0 -0 0 -0 0 -0 0 -0 0 -0 0 -0 0 0 -0.01 0 -0 0 -0 0 -0 0 -0 0 -0 0 -0 0 -0 0 -0 0 -0 0 -0 0 -0 0 -0 0 -0 0 -0 0 -0 0 -0 0 -0 0 -0 0 -0 0 0 0 0 0 0 0 0 0 0 0 0 0 0 0 0 0 0 0 0zm0 0l0 0 0 0 0 0zm0.02 -0.01l0.01 0 0 0 0 0 -0 0 -0 0 -0 0 -0 0 -0 0 -0 0 -0 0 -0 0 -0 0 -0 0 -0 0 -0 0 -0 0 -0 0 -0 0 -0 0 -0 0 -0 0 -0 0 -0 -0 -0 -0 -0 -0 -0 -0 -0 -0 -0 -0 -0 -0 -0 -0 0 -0.01 0 0 0 0 0 0 0 0 0 0 0 0 0 0 0 0 0 0 0 -0 0 -0 0 -0 0 -0 0 -0 0 -0 0 -0 0 -0 0 -0 0 -0 0 -0 0 -0 0 -0 0 -0 0 -0 0 -0 0 -0 0 -0 0 -0 0 0zm-0.05 -0.02l0 -0.01 0 0 0 0 0 0 0 0 0 0 0 0 0 0 0 0 0 0 0 0 0 0 0 0 0 0 0 0 0 0 0 0 0 0 0 0 0 0 0 0 0 0 0 0 0 0 0 0 0 0 0 0 0 0 0 0 0 0 0 0 0 0 0 0 0 0 -0.01 0 -0 -0 -0 -0 -0 -0 -0 -0 -0 -0 -0 -0 -0 -0 -0 -0 -0 -0 -0 -0 -0 -0 -0 -0 -0 -0 -0 -0 -0 -0 -0 -0 -0 -0 -0 -0 -0 -0 -0 -0 -0 -0 -0 -0 -0 -0 -0 -0 -0 -0 -0 -0 -0 -0 -0 -0 -0 -0 -0 -0 -0 -0 -0 -0 0 0z"/>
    </g>
    <g>
     <path class="fil1" d="M0.32 0.19c-0.02,0 -0.05,0.02 -0.05,-0.01 -0,0 -0,0 -0,0 -0.01,0.01 -0.01,0.03 -0.01,0.04 0,-0 0.01,-0 0.01,-0.01 0.03,-0.01 0.08,-0.01 0.11,0 0.01,0 0.01,0.01 0.01,0.01 0,-0.01 -0,-0.02 -0,-0.02l-0.01 -0.02c-0,-0 -0,-0 -0,-0 -0,-0 -0,-0 -0,-0 0,0.01 -0,0.02 -0.02,0.02 -0.02,0 -0.02,-0.01 -0.05,-0.01z"/>
     <path id="_1_25" class="fil2" d="M0.27 0.18l-0.01 -0 0.01 0 0 0 0 0 0 0 0 0 0 0 0 0 0 0 0 0 0 0 0 0 0 0 0 0 0 0 0 0 0 0 0 -0 0 -0 0 -0 0 -0 0 -0 0 -0 0 -0 0 -0 0 -0 0 -0 0 -0 0 -0 0 -0 0 0.01 -0 0 -0 0 -0 0 -0 0 -0 0 -0 0 -0 0 -0 0 -0 0 -0 0 -0 0 -0 0 -0 0 -0 0 -0 -0 -0 -0 -0 -0 -0 -0 -0 -0 -0 -0 -0 -0 -0 -0 -0 -0 -0 -0 -0 -0 -0 -0 -0 -0 -0 -0 0.01 0zm-0.01 -0l0.01 -0.01 0 0.01 -0.01 -0zm0 0.01l-0.01 -0 0 -0 0 -0 0 -0 0 -0 0 -0 0.01 0 -0 0 -0 0 -0 0 -0 0 0 -0zm-0.01 -0l0 -0 0.01 -0.01 -0.01 0.01zm-0.01 0.04l0 0.01 -0 -0 0 -0 0 -0 0 -0 0 -0 0 -0 0 -0 0 -0 0 -0 0 -0 0 -0 0 -0 0 -0 0 -0 0 -0 0 -0 0 -0 0 -0 0 -0 0.01 0 -0 0 -0 0 -0 0 -0 0 -0 0 -0 0 -0 0 -0 0 -0 0 -0 0 -0 0 -0 0 -0 0 -0 0 -0 0 -0 0 -0 0 -0 0 -0 -0zm0 0.01l-0 0 0 -0 0 0zm0.01 -0.01l0 0.01 -0 0 -0 0 -0 0 -0 0 -0 0 -0 0 -0 0 -0 0 -0 0 -0 0 -0 0 -0 0 -0 0 -0 -0.01 0 -0 0 -0 0 -0 0 -0 0 -0 0 -0 0 -0 0 -0 0 -0 0 -0 0 -0 0 -0 -0 0zm0 0.01l-0 0 0 -0 -0 0zm0.11 -0.01l-0 0.01 0 0 -0 -0 -0 -0 -0 -0 -0 -0 -0 -0 -0 -0 -0 -0 -0 -0 -0 -0 -0 -0 -0 -0 -0 -0 -0 -0 -0 -0 -0 -0 -0 0 -0 0 -0 0 -0 0 -0 0 -0 0 -0 0 -0 0 -0 0 -0 0 -0 0 -0 0 -0 0 -0 0 -0 0 -0 0 -0 0 -0 -0.01 0 -0 0 -0 0 -0 0 -0 0 -0 0 -0 0 -0 0 -0 0 -0 0 -0 0 -0 0 -0 0 -0 0 -0 0 -0 0 0 0 0 0 0 0 0 0 0 0 0 0 0 0 0 0 0 0 0 0 0 0 0 0 0 0 0 0 0 0 0 0 0 0 0zm0 0l0 0 0 0 0 0zm0.01 0.01l0.01 0 -0 0 -0 -0 -0 -0 -0 -0 -0 -0 -0 -0 -0 -0 -0 -0 -0 -0 -0 -0 -0 -0 0 -0.01 0 0 0 0 0 0 0 0 0 0 0 0 0 0 0 0 0 0 0 0 -0 0zm0.01 0l0 0 -0 -0 0 -0zm-0.01 -0.02l0.01 -0 0 0 0 0 0 0 0 0 0 0 0 0 0 0 0 0 0 0 0 0 0 0 -0.01 0 0 -0 -0 -0 -0 -0 -0 -0 -0 -0 -0 -0 -0 -0 -0 -0 -0 -0 -0 -0 0 0zm0.01 -0l0 0 -0 -0 0 0zm-0.01 -0.02l0.01 0.02 -0.01 0 -0.01 -0.02 0.01 -0 0 0zm-0 -0l0 0 0 0 -0 -0zm-0.01 0l0.01 -0 0 0 0 0 0 0 0 0 0 0 -0.01 0 -0 -0 -0 -0 -0 -0 -0 -0 0 0zm0.01 -0l0 0 0 0 -0 -0zm-0 0l-0.01 0 0.01 -0 0 0 -0 -0 0 0 0 0 -0.01 0 -0 -0 0 0 -0 -0 -0 -0 0.01 -0zm-0.01 0l0 -0.01 0.01 0.01 -0.01 0zm-0.01 0.02l0 -0.01 0 0 0 0 0 -0 0 -0 0 -0 0 -0 0 -0 0 -0 0 -0 0 -0 0 -0 0 -0 0 -0 0 -0 0 -0 0 -0 0 -0 0 -0 0 -0 0 -0 0 -0 0 -0 0 -0 0 -0 0 -0 0 -0 0 -0 0 -0 0 -0 0 -0 0 -0 0.01 0 -0 0 -0 0 -0 0 -0 0 -0 0 -0 0 -0 0 -0 0 -0 0 -0 0 -0 0 -0 0 -0 0 -0 0 -0 0 -0 0 -0 0 -0 0 -0 0 -0 0 -0 0 -0 0 -0 0 -0 0 -0 0 -0 0 -0 0 -0 0 -0 0 -0 0 0 0zm-0.05 -0.01l0 -0.01 0 0 0 0 0 0 0 0 0 0 0 0 0 0 0 0 0 0 0 0 0 0 0 0 0 0 0 0 0 0 0 0 0 0 0 0 0 0 0 0 0 0 0 0 0 0 0 0 0 0 0 0 0 0 0 0.01 -0 0 -0 -0 -0 -0 -0 -0 -0 -0 -0 -0 -0 -0 -0 -0 -0 -0 -0 -0 -0 -0 -0 -0 -0 -0 -0 -0 -0 -0 -0 -0 -0 -0 -0 -0 -0 -0 -0 -0 -0 -0 -0 -0 -0 -0 -0 -0 -0 -0 -0 0 0 0z"/>
    </g>
    <g>
     <path class="fil1" d="M0.25 0.22c-0,-0.01 0,-0.03 0.01,-0.04 -0,0 -0.01,0.01 -0.01,0.02 -0.01,0.02 -0.01,0.02 -0,0.03l0.01 -0.01c0,-0 0,-0 0,-0.01z"/>
     <path id="_1_26" class="fil2" d="M0.25 0.19l-0 -0.01 0.01 0 -0 0 -0 0 -0 0 -0 0 -0 0 -0 0 -0 0 -0 0 -0 0 -0 0 -0 0 0 0 -0.01 0 -0 -0 0 -0 0 -0 0 -0 0 -0 0 -0 0 -0 0 -0 0 -0.01 0 -0 0 -0 0 -0 0.01 0zm-0 -0.01l0.01 -0.01 -0 0.01 -0.01 -0zm-0.01 0.02l-0.01 -0 0 0 0 -0 0 -0 0 -0 0 -0 0 -0 0 -0 0 -0 0 -0 0 -0 0 -0 0 -0 0 -0 0 0.01 -0 0 -0 0 -0 0 -0 0 -0 0 -0 0 -0 0 -0 0 -0 0 -0 0 -0 0 -0 0 0 0zm0 -0l0 0 -0 0.01 0 -0.01zm-0.01 0.03l0.01 0 -0.01 -0 -0 -0 -0 -0 -0 -0 -0 -0 -0 -0 -0 -0 0 -0 0 -0 0 -0 0 -0 0 -0 0 -0 0 -0 0 -0 0 -0 0 -0 0.01 0 -0 0 -0 0 -0 0 -0 0 -0 0 -0 0 -0 0 -0 0 -0 0 0 0 0 0 0 0 0 0 0 0 0 0 0 0 -0.01 -0zm0.01 0l-0 0.01 -0 -0.01 0.01 0zm0.01 -0.01l-0.01 0.01 -0.01 -0 0.01 -0.01 0 -0 0.01 0zm-0.01 -0l0 -0 -0 0 0 -0zm0 -0l0.01 -0 0 0 0 0 0 0 0 0 0 0 0 0 0 0 0 0 -0 0 -0 0 -0 0 -0 0 -0 0 -0.01 -0 0 -0 0 -0 -0 0 -0 0 -0 0 0 0 0 0 -0 -0 -0 -0 -0 -0 -0 -0 -0 -0 0 0zm0.01 -0l0 0 0 0 0 0z"/>
    </g>
    <path class="fil1" d="M0.3 0.21c-0.01,0 -0.04,0.01 -0.05,0.03l0.02 0c0,-0.01 0.02,-0.01 0.02,-0.01l0.07 0c0.01,0 0.01,0 0.02,0.01 0,0 0,0 0.01,0.01l0.02 0c-0,-0 -0.01,-0.01 -0.01,-0.01 -0.01,-0.01 -0.02,-0.01 -0.04,-0.02 -0.02,-0 -0.03,-0 -0.05,0zm0.09 0.03c0,0 0,0 0,0 0,0 0,0.01 -0,0.02 -0,0 -0,0 -0,0 -0,0 -0,0 -0.01,0.01 0.01,-0 0.01,-0.01 0.01,-0.01 0,-0 0,-0 0,-0 0.01,-0.01 0.01,-0.01 0.01,-0.02 0,-0 -0,-0 -0,-0l-0.02 0zm-0.14 0l0.02 0c0,-0 0,-0 0,-0l-0.02 0c-0,0 -0,0 -0,0zm0.03 0.03c-0,-0 -0,-0.01 -0.01,-0.01 -0,-0 -0,-0 -0,-0 -0,-0 -0,-0.01 -0,-0.01l-0.02 -0c0,0 0,0 0,0 0,0 0,0.01 0.01,0.01 0.01,0.01 0.01,0.01 0.02,0.01z"/>
    <path class="fil3" d="M0.38 0.3c0,0.01 -0,0.01 0,0.01 0.01,0 0.01,-0 0.03,-0.01 0.03,-0.01 0.03,-0.01 0.04,-0l0.01 -0.01c-0,-0 -0,-0 -0,-0l-0.04 0c-0.01,0 -0.02,0.01 -0.03,0.01zm-0.19 -0.01l0.03 -0c-0,-0 -0,-0 -0,-0l-0.02 0c-0,0 -0,0 -0,0zm0.01 0.01c0.02,0 0.03,0.02 0.05,0.02 0.01,0 0.01,-0 0.01,-0.01 -0.01,-0 -0.02,-0 -0.03,-0.01 -0,-0 -0,-0 -0.01,-0l-0.04 0 0.01 0.01c0.01,-0 0.01,-0.01 0.02,-0.01zm0.06 -0.01l-0 0.02c0,0 0,0.01 0,0.01l0.01 0c0,-0 0,-0.01 0,-0.01 0,-0.01 0,-0.02 -0.01,-0.02l-0 0zm0.02 0.01l0 0.01 0.02 0c0.01,0 0.01,-0 0.02,-0 0.01,0 0.01,0 0.02,0l0.02 0 0 -0.01c-0.01,0 -0.02,-0 -0.03,-0 -0.01,0 -0.02,0 -0.03,0zm0.07 -0.01c0,0.01 0,0.02 0,0.02l0.01 0c0,-0 0,-0 0,-0 0,-0.01 0,-0.02 0,-0.03 -0.01,0 -0.01,0 -0.01,0.01z"/>
    <path class="fil1" d="M0.6 0.35l-0.01 0.02c0,0 0,0 0.01,0 0,-0 0,-0.01 0.01,-0.02 -0,-0 -0.01,-0 -0.01,-0zm-0.43 -0.05c0,0.01 0.01,0.02 0.01,0.02 0.01,-0 -0,-0.02 -0.01,-0.03l-0 0 -0 0zm-0.04 0.02l0.01 0.02c0.01,0 0.02,0.01 0.02,0.01 0.01,0 0.02,-0.01 0.02,-0.01 0,-0.01 -0.01,-0.03 -0.02,-0.04l-0.02 0c-0.01,0 -0.01,0.01 -0.01,0.01 -0,0 -0,0.01 -0,0.01zm-0.08 0.04c0,0 0.01,0.01 0.01,0.02 0,-0 0,-0 0.01,-0.01 0.01,-0.01 0.05,-0.03 0.06,-0.03 0,-0.01 -0,-0.01 -0,-0.02 -0.01,0 -0.06,0.03 -0.07,0.03zm-0 0.01c-0,-0 -0,-0.01 -0,-0.01 -0,0 -0,0 -0.01,0l0.01 0.02c0,-0 0,-0 0.01,-0 -0,-0 -0,-0.01 -0,-0.01zm0.46 -0.06c-0,-0 -0,-0 -0,-0 -0,-0 -0.01,-0 -0.01,-0l-0.01 0c-0,0 -0.01,0 -0.01,0.01 -0,0 -0,0 -0,0 -0.01,0.01 -0.01,0.02 -0.01,0.02 0,0.01 0,0.01 0.01,0.01 0.03,0.01 0.01,-0.01 0.03,-0.01l0.01 -0.02c-0,-0.01 -0,-0.01 -0.01,-0.01zm-0.05 0.02c0,-0 0,-0.01 0.01,-0.01 0,-0 0,-0.01 0.01,-0.01l-0 -0c0,0 -0.01,0.01 -0.01,0.01 -0,0.01 -0,0.01 0,0.01zm0.06 0c-0,0 -0,0.01 -0,0.01l0 0c0.01,0 0.03,0.01 0.04,0.01 0.03,0.01 0.02,0.01 0.03,0.02 0,-0.01 0,-0.01 0.01,-0.02 -0.01,0 -0.01,-0 -0.02,-0.01 -0.01,-0 -0.05,-0.02 -0.05,-0.02z"/>
    <g>
     <path class="fil1" d="M0.41 0.23c0,-0.01 -0.01,-0.04 -0.02,-0.04 0,0.01 0,0.02 0.01,0.03 0,0.02 -0,0 0.01,0.02 0,0 0,0 0,0l0 0c0,-0 0,-0.01 0,-0.01z"/>
     <path id="_1_27" class="fil2" d="M0.4 0.19l-0.01 0 0.01 -0 0 0 0 0 0 0 0 0 0 0 0 0 0 0 0 0 0 0 0 0 0 0 0 0 0 0 0 0 0 0 0 0 0 0 0 0 0 0 0 0 0 0 0 0 0 0 0 0 -0.01 0 -0 -0 -0 -0 -0 -0 -0 -0 -0 -0 -0 -0 -0 -0 -0 -0 -0 -0 -0 -0 -0 -0 -0 -0 -0 -0 -0 -0 -0 -0 -0 -0 -0 -0 -0 -0 -0 -0 -0 -0 -0 -0 -0 -0 -0 -0 -0 -0 0.01 -0zm-0.01 0l-0.01 -0.01 0.01 0.01 -0.01 0zm0.01 0.03l-0.01 0 0 0 -0 -0 -0 -0 -0 -0 -0 -0 -0 -0 -0 -0 -0 -0 -0 -0 -0 -0 -0 -0 -0 -0 -0 -0 0.01 -0 0 0 0 0 0 0 0 0 0 0 0 0 0 0 0 0 0 0 0 0 0 0 0 0 0 0zm-0.01 0l0 0 0 0 0 0zm0.01 0.02l-0.01 0 0 0 -0 -0 -0 -0 -0 -0 -0 -0 -0 -0 -0 -0 -0 -0 -0 -0 0 -0 -0 0 0 0 0 -0 0 -0 -0 -0 -0 -0 -0 -0 0.01 -0 0 0 0 0 0 0 -0 0 -0 0 -0 0 -0 0 -0 0 -0 -0 -0 -0 0 0 0 0 0 0 0 0 0 0 0 0 0 0zm-0 -0l0 0 -0 -0 0 0zm0 0l-0.01 0 0 -0 -0 -0 -0 -0 -0 -0 -0 -0 0.01 -0 0 0 0 0 0 0 0 0 0 -0zm-0.01 0l0 -0 0 0 -0 -0zm0 0l-0 -0 0.01 -0 0 0 0 0 -0.01 0zm0.01 -0l-0 0.01 -0 -0.01 0.01 -0zm-0.01 -0.01l0.01 0 0 0 -0 0 -0 0 -0 0 -0 0 -0 0 -0 0 -0 0 -0 0 -0.01 -0 0 -0 0 -0 0 -0 0 -0 0 -0 0 -0 0 -0 0 -0 0 0z"/>
    </g>
    <g>
     <path class="fil1" d="M0.24 0.19c0,-0 0.01,-0.01 0.01,-0.01 -0.01,0 -0.01,-0 -0.01,0 -0,0 -0,0.01 -0,0.01z"/>
     <path id="_1_28" class="fil2" d="M0.25 0.18l0 -0.01 0 0.01 -0 0 -0 0 -0 0 -0 0 -0 0 -0 0 -0 0 -0 0 -0 0 -0 0 -0 -0.01 0 -0 0 -0 0 -0 0 -0 0 -0 0 -0 0 -0 0 -0 0 -0 0 -0 0 0.01zm0 -0.01l0.01 0 -0 0.01 -0 -0.01zm-0 0.01l-0.01 -0 0 -0 0 -0 0 -0 0 -0 0 -0 0 -0 0 -0 0 -0 0 -0 0 0 0 0 0 0.01 -0 -0 -0 0 0 -0 0 -0 0 -0 0 -0 0 0 -0 0 -0 0 -0 0 0 -0zm-0.01 -0l0 -0 0 -0 -0 0zm0 0.01l0 0.01 -0.01 -0 0 -0 0 -0 0 -0 0 -0 0 -0 0 -0 0 -0 0 -0 0.01 0 -0 0 -0 0 -0 0 -0 0 -0 0 -0 0 -0 0 -0 0 -0.01 -0zm0 0.01l-0.01 0 0 -0.01 0.01 0z"/>
    </g>
    <g>
     <path class="fil1" d="M0.4 0.18c0,0 0.01,0.01 0.01,0.01 0,-0 -0,-0.01 -0,-0.01 -0,-0 -0,-0 -0.01,-0z"/>
     <path id="_1_29" class="fil2" d="M0.4 0.19l0.01 0 -0.01 0 -0 -0 -0 -0 -0 -0 -0 -0 -0 -0 -0 -0 -0 -0 -0 -0 -0 -0 -0 -0 0.01 -0 0 0 0 0 0 0 0 0 0 0 0 0 0 0 0 0 0 0 0 0 -0.01 0zm0.01 0l0 0.01 -0.01 -0 0.01 -0zm-0.01 -0.01l0.01 -0 -0 -0 0 0 0 0 0 0 0 0 0 0 0 0 0 0 0 0 -0.01 0 -0 -0 -0 -0 -0 -0 -0 -0 -0 -0 -0 -0 -0 -0 0 0 -0 -0zm0 0l-0 -0 0 0 0 0zm-0 -0.01l-0.01 0 0 -0.01 0 -0 0 -0 0 0 0 0 0 0 0 0 0 0 0 0 0 0 0 0 -0.01 0 -0 -0 -0 -0 0 0 0 0 0 0 0 0 0 0 0 0 -0 0 -0 0 0 -0.01zm-0.01 0l-0 -0.01 0.01 0 -0 0.01z"/>
    </g>
    <path class="fil1" d="M0.24 0.27c-0,-0 -0,-0 -0.01,-0 -0,0 -0.01,0.01 -0.02,0.01 0.01,0.01 0.01,-0.01 0.02,-0.01z"/>
    <path class="fil1" d="M0.4 0.27c0.01,0 0.01,0.01 0.01,0.01l0.01 0c0,-0 0,-0 0,-0 -0,-0 -0.01,-0.01 -0.01,-0.01 -0.01,-0.01 -0.01,-0 -0.01,-0z"/>
    <path class="fil1" d="M0.19 0.27c0,-0.02 -0.01,-0.01 -0.02,-0.01 -0.01,0 -0.02,-0.01 -0.01,0 0,0 0.01,0.01 0.01,0.01 -0,-0 -0,-0 -0,-0.01 0,-0 0,-0 0.01,-0 0,0 0,0.01 0.01,0.01l0.02 0c0,-0 0,-0 0,-0 0,-0 0,-0 0,-0z"/>
    <path class="fil1" d="M0.05 0.3c-0,-0 -0.01,-0 -0.01,-0 0,0 -0,0 0,0 0,0 0.01,0 0.02,0 -0,-0 -0,-0 -0.01,-0z"/>
    <path class="fil1" d="M0.14 0.27c-0,0 -0,0 -0.01,0 0.01,-0 0.01,-0 0.01,-0 -0,-0 -0,-0 -0.01,-0z"/>
    <path class="fil1" d="M0.06 0.23c0.05,-0.01 0.04,0.01 0.05,0.01 -0,-0.01 -0.01,-0.01 -0.02,-0.02 -0.01,-0 -0.01,-0 -0.01,-0l-0.05 0.01c-0,0 -0.01,0 -0.01,0 -0.01,0 -0.01,0 -0.01,0.01 0.01,-0.01 0.01,-0.01 0.02,-0.01 0.01,-0 0.02,-0 0.03,-0.01z"/>
    <path class="fil4" d="M0.11 0.25l-0.08 0c-0.01,0 -0.01,0.01 -0.01,0.01 0,0 0.01,0.01 0.01,0.01 0.01,0.01 0.01,0.01 0.01,0.01 0.01,0 0.06,-0 0.07,-0.01 0,-0 0.01,-0.01 0.01,-0.02 0,-0 -0,-0 -0,-0.01z"/>
    <path class="fil4" d="M0.02 0.25l0.08 -0c-0.01,-0 -0.01,-0.01 -0.01,-0.01 -0.01,-0 -0.05,0 -0.06,0.01 -0,0 -0,0 -0.01,0z"/>
    <path class="fil3" d="M0.27 0.32l-0.02 -0c0,0.01 0.01,0.01 0.02,0.01l-0 -0.01z"/>
    <path class="fil3" d="M0.29 0.32c0.02,0 0.02,0.02 0.02,0.02 0.02,0 0.02,0 0.03,-0 0,-0 0,-0 0.01,-0.01 0,-0 0.01,-0.01 0.01,-0.01 -0,-0 -0,-0 -0,-0l-0.02 -0c0,0.01 -0,0.02 -0.01,0.02l-0.01 0c-0.01,0 -0.01,-0.01 -0.01,-0.02l-0.02 -0c-0,0 -0,0 -0,0z"/>
    <path class="fil3" d="M0.31 0.32c0,0.01 0,0.01 0.02,0.01 0,0 0,-0 0,-0.01l-0.02 -0c-0,0 -0,0 -0,0z"/>
    <path class="fil3" d="M0.27 0.35c0.01,-0 0.01,-0 0.01,-0.02 -0.01,0 -0.01,0 -0.01,0 0,0.01 0,0.01 0,0.02 0,-0 0.01,-0 0.01,-0z"/>
    <path class="fil3" d="M0.37 0.33l-0 0.01c0,0 0.01,0.01 0.01,0.01 0,-0.01 0,-0.01 0,-0.02 -0.01,0 -0.01,0 -0.01,-0z"/>
    <path class="fil3" d="M0.38 0.32l0.01 0c0,-0 0,-0 0,-0l-0.02 0 -0 0z"/>
    <path class="fil3" d="M0.3 0.28l0.04 0c0.01,-0 0.02,-0 0.03,-0.01 0,-0 0,-0 0,-0l-0.11 0c0,0 0,0 0,0 0.01,0.01 0.02,0.01 0.03,0.01z"/>
    <path class="fil3" d="M0.27 0.26l0.11 0c0,-0 0,-0.01 0,-0.02l-0.11 0c-0,0 -0,0.01 0,0.02z"/>
    <path class="fil3" d="M0.27 0.24l0.1 0c-0.01,-0.01 -0.03,-0.01 -0.04,-0.01 -0.02,0 -0,0 -0.02,0l-0.02 -0c-0.01,0 -0.02,0 -0.02,0.01z"/>
    <path class="fil1" d="M0.46 0.27c0,-0.02 0.01,-0.01 0.02,-0.01 0.01,0 0.02,-0.01 0.01,0 -0,0 -0.01,0.01 -0.01,0.01 0,-0 0,-0 0,-0.01 -0,-0 -0,-0 -0.01,-0 -0,0 -0,0.01 -0.01,0.01l-0.02 0c-0,-0 -0,-0 -0,-0 -0,-0 -0,-0 -0,-0z"/>
    <path class="fil1" d="M0.6 0.3c0,-0 0.01,-0 0.01,-0 -0,0 0,0 -0,0 -0,0 -0.01,0 -0.02,0 0,-0 0,-0 0.01,-0z"/>
    <path class="fil1" d="M0.5 0.27c0,0 0,0 0.01,0 -0.01,-0 -0.01,-0 -0.01,-0 0,-0 0,-0 0.01,-0z"/>
    <path class="fil1" d="M0.59 0.23c-0.05,-0.01 -0.04,0.01 -0.05,0.01 0,-0.01 0.01,-0.01 0.02,-0.02 0.01,-0 0.01,-0 0.01,-0l0.05 0.01c0,0 0.01,0 0.01,0 0.01,0 0.01,0 0.01,0.01 -0.01,-0.01 -0.01,-0.01 -0.02,-0.01 -0.01,-0 -0.02,-0 -0.03,-0.01z"/>
    <path class="fil4" d="M0.54 0.25l0.08 0c0.01,0 0.01,0.01 0.01,0.01 -0,0 -0.01,0.01 -0.01,0.01 -0.01,0.01 -0.01,0.01 -0.01,0.01 -0.01,0 -0.06,-0 -0.07,-0.01 -0,-0 -0.01,-0.01 -0.01,-0.02 0,-0 0,-0 0,-0.01z"/>
    <path class="fil4" d="M0.62 0.25l-0.08 -0c0.01,-0 0.01,-0.01 0.01,-0.01 0.01,-0 0.05,0 0.06,0.01 0,0 0,0 0.01,0z"/>
    <path class="fil1" d="M0.33 1.27l-0.04 -0c0,0.01 0.01,0.01 0.01,0.02 0,0 0.01,0.01 0.01,0.01 0,0 0.01,0 0.01,0 0.03,0 0.03,-0.01 0.04,-0.03 -0.01,0 -0.02,0 -0.03,0z"/>
    <path class="fil4" d="M0.3 1.26l0.03 0c0.01,0 0.01,0 0.02,0 0.01,0 0.01,-0 0.02,-0 0.01,-0 0.03,0 0.03,-0 0,-0 0.01,-0.05 0.01,-0.06 -0.01,0 -0.04,0 -0.04,0 -0,0 -0.01,0.01 -0.01,0.01 -0.02,0.01 -0.02,0 -0.03,0 -0.01,0 -0.01,0 -0.03,-0 -0.01,-0 -0.01,-0.01 -0.01,-0.01 -0.01,-0 -0.01,-0 -0.02,-0 -0.01,-0 -0.01,-0 -0.02,-0 0,0.01 0.01,0.05 0.01,0.06 0,0 0.01,0 0.02,0 0.01,0 0.01,-0 0.02,0 0.01,0 0.01,0 0.02,0z"/>
    <path class="fil1" d="M0.27 0.41c-0,-0.03 0.02,-0.04 0.05,-0.04 0.06,0 0.06,0.06 0.04,0.07 -0.01,0.01 -0.02,0.01 -0.04,0.01 -0.02,0 -0.03,0 -0.04,-0.01 -0.01,-0.01 -0.01,-0.02 -0.01,-0.03zm0 -0.05l0.09 -0c-0,-0 -0,-0 -0,-0 -0.01,-0.01 -0.08,-0.01 -0.09,0 -0,0 -0,0 -0,0 0,0 -0,0 -0,0zm0.01 0.11c0,-0.01 0.02,-0.01 0.04,-0.01l0.03 -0c0.01,0 0,0.05 -0,0.05 -0,0 -0.03,0.01 -0.03,0.01 -0,0 -0.02,-0.01 -0.03,-0.01 -0.01,-0.01 -0.01,-0.03 -0.01,-0.04zm-0.01 0.15c0.01,-0 0.07,-0 0.08,0l0.01 -0.09c0,-0.02 0.01,-0.07 0.01,-0.09l0 -0.02c0,-0.01 -0.01,-0.04 -0.01,-0.05l-0.1 0c-0.02,0.03 -0.01,0.04 -0.01,0.07 0,0.03 0.01,0.16 0.02,0.18z"/>
    <path class="fil3" d="M0.36 0.42c-0.01,0.01 -0.02,0.01 -0.03,0.01 -0.01,0 -0.02,0 -0.03,-0.01 -0.01,-0.02 0,-0.03 0,-0.03 -0.02,0.01 -0.01,0.05 0,0.05 0.01,0 0.04,0 0.05,-0 0.02,-0.01 0.02,-0.04 0,-0.05 0,0 0.01,0.02 0,0.03zm-0.02 -0.01c0,-0.01 -0,-0.01 -0.01,-0.01 -0,0 -0.01,0 -0.01,0.01 0.02,0 0,0 0.02,0zm-0 0.02c0.03,0 0.03,-0.03 0.02,-0.04 -0.01,-0.01 -0.03,-0.01 -0.04,0 -0,0 -0.01,0.01 -0.01,0.02 0,0 0,0.01 0.01,0.01 0.01,0.01 0.02,0 0.03,0zm-0.01 -0.04c0.02,0 0.02,0.03 0.01,0.03 -0.01,0 -0.02,0 -0.02,-0.01 0,-0.01 0,-0.01 0,-0.01 0,-0 0.01,-0 0.01,-0z"/>
    <path class="fil1" d="M0.35 0.47l-0.06 0c0,0.01 0,0.03 0,0.04 0,0.01 0.01,0.01 0.01,0.01 0.02,0.01 0.01,0.01 0.03,-0 0.01,-0 0.01,-0 0.01,-0.01 0,-0.01 0,-0.03 0,-0.03z"/>
    <path class="fil1" d="M0.39 0.65c-0.01,-0.02 -0.03,-0.02 -0.05,-0.02 -0.01,-0 -0.06,0 -0.06,0 -0.01,0 -0.01,0 -0.02,0.01 -0.01,0.01 -0.02,0.03 -0.02,0.05 -0.01,0.02 -0.01,0.01 -0.01,0.04 -0,0.03 -0.01,0.05 -0.01,0.08 -0,0.03 -0.01,0.06 -0.01,0.08 0,0.05 0.01,0.1 0.02,0.14 0.02,0.07 0.02,0.06 0.1,0.06 0.02,0 0.06,0 0.07,-0.01 0.03,-0.02 0.03,-0.12 0.04,-0.16 0,-0.01 -0,-0.01 0,-0.02 0,-0.02 -0,-0.08 -0.01,-0.1 -0,-0.03 -0.01,-0.05 -0.01,-0.08 -0,-0.01 -0,-0.01 -0,-0.02 -0.01,-0.01 -0.01,-0.04 -0.02,-0.05z"/>
    <g style="clip-path:url(#id3)">
     <g>
      <path id="_1_30" class="fil9" d="M0.29 0.64c-0.01,0 -0.01,0 -0.01,0 -0.01,0 -0.01,0.01 -0.01,0.02 -0,0.01 -0,0.03 -0.01,0.04 -0.01,0.03 -0.02,0.07 -0.02,0.1 -0.01,0.03 -0.01,0.05 -0,0.05 0,0.01 0.01,0.01 0.02,0 0.01,-0 0.03,-0.01 0.05,-0.01 0.01,-0 0.01,-0 0.02,-0 0.01,0 0.01,0 0.02,0 0.02,0 0.04,0.01 0.05,0.01 0.01,0 0.02,0 0.02,-0 0,-0.01 0,-0.02 -0,-0.05 -0,-0.03 -0.01,-0.07 -0.02,-0.1 -0,-0.02 -0.01,-0.03 -0.01,-0.04 -0,-0.02 -0.01,-0.02 -0.01,-0.02 -0,-0 -0.01,-0 -0.01,-0 -0,-0 -0.01,-0 -0.01,-0 -0.01,-0 -0.01,-0 -0.02,-0 -0.01,-0 -0.02,0 -0.02,0 -0,0 -0.01,0 -0.01,0zm0.12 0.28c-0,-0.02 -0,-0.03 -0.01,-0.03 -0,-0 -0.01,-0.01 -0.01,-0.01 -0.01,-0 -0.02,-0 -0.04,-0 -0.01,0 -0.02,0 -0.03,0 -0.01,-0 -0.02,-0 -0.03,-0 -0.02,-0 -0.03,-0 -0.04,0 -0.01,0 -0.01,0 -0.01,0.01 -0.01,0 -0.01,0.01 -0.01,0.03 -0,0.02 -0,0.05 0,0.07 0,0.02 0.01,0.04 0.01,0.05 0.01,0.01 0.01,0.02 0.01,0.02 0.01,0 0.01,0.01 0.03,0.01 0.01,0 0.02,-0 0.03,-0 0.01,0 0.02,0 0.03,0 0.02,-0 0.03,-0 0.03,-0.01 0.01,-0 0.01,-0.01 0.01,-0.02 0,-0.01 0.01,-0.03 0.01,-0.05 0,-0.02 0,-0.05 0,-0.07z"/>
     </g>
    </g>
    <path class="fil10" d="M0.39 0.65c-0.01,-0.02 -0.03,-0.02 -0.05,-0.02 -0.01,-0 -0.06,0 -0.06,0 -0.01,0 -0.01,0 -0.02,0.01 -0.01,0.01 -0.02,0.03 -0.02,0.05 -0.01,0.02 -0.01,0.01 -0.01,0.04 -0,0.03 -0.01,0.05 -0.01,0.08 -0,0.03 -0.01,0.06 -0.01,0.08 0,0.05 0.01,0.1 0.02,0.14 0.02,0.07 0.02,0.06 0.1,0.06 0.02,0 0.06,0 0.07,-0.01 0.03,-0.02 0.03,-0.12 0.04,-0.16 0,-0.01 -0,-0.01 0,-0.02 0,-0.02 -0,-0.08 -0.01,-0.1 -0,-0.03 -0.01,-0.05 -0.01,-0.08 -0,-0.01 -0,-0.01 -0,-0.02 -0.01,-0.01 -0.01,-0.04 -0.02,-0.05z"/>
    <path class="fil1" d="M0.2 0.67c-0,-0.01 -0,-0.01 -0.01,-0.02l-0 0c0,0.01 0,0.01 0,0.02l0.01 0z"/>
    <path class="fil1" d="M0.45 0.65c-0,0.01 -0,0.01 -0.01,0.02l0.01 0c0,-0 0,-0.01 0,-0.02l-0 0z"/>
   </g>
   <g>
    <rect class="fil11 str0" x="0.24" y="1.19" width="0.16" height="0.14" rx="0.01" ry="0.01"/>
    <path class="fil11" d="M0.17 0.89l0.31 0c0.03,0 0.06,0.03 0.06,0.06l0 0.28c0,0.03 -0.03,0.06 -0.06,0.06l-0.31 0c-0.03,0 -0.06,-0.03 -0.06,-0.06l0 -0.28c0,-0.03 0.03,-0.06 0.06,-0.06z"/>
    <g style="clip-path:url(#id4)">
     <g>
      <path id="_1_31" class="fil12" d="M0.14 1.2l0 -0.25c0,-0.02 0.01,-0.03 0.03,-0.03l0.31 0c0.02,0 0.03,0.01 0.03,0.03l0 0.25c0,0.02 -0.01,0.03 -0.03,0.03l-0.31 0c-0.02,0 -0.03,-0.01 -0.03,-0.03zm0.34 -0.31l-0.31 0c-0.03,0 -0.06,0.03 -0.06,0.06l0 0.28c0,0.03 0.03,0.06 0.06,0.06l0.31 0c0.03,0 0.06,-0.03 0.06,-0.06l0 -0.28c0,-0.03 -0.03,-0.06 -0.06,-0.06z"/>
     </g>
    </g>
    <path class="fil10 str0" d="M0.17 0.89l0.31 0c0.03,0 0.06,0.03 0.06,0.06l0 0.28c0,0.03 -0.03,0.06 -0.06,0.06l-0.31 0c-0.03,0 -0.06,-0.03 -0.06,-0.06l0 -0.28c0,-0.03 0.03,-0.06 0.06,-0.06z"/>
    <g>
     <rect class="fil10 str0" x="0.22" y="0.89" width="0.01" height="0.4"/>
     <rect class="fil10 str0" x="0.4" y="0.89" width="0.01" height="0.4"/>
    </g>
    <path class="fil13 str0" d="M0.5 0.96l0.04 0c0,0 0.01,0 0.01,0.01l0 0.06c0,0 -0,0.01 -0.01,0.01l-0.04 -0.02c-0,-0 -0.01,-0 -0.01,-0.01l0 -0.04c0,-0 0,-0.01 0.01,-0.01z"/>
   </g>
  </g>
 </g>
</svg>
