<?xml version="1.0" encoding="UTF-8"?>
<!DOCTYPE svg PUBLIC "-//W3C//DTD SVG 1.1//EN" "http://www.w3.org/Graphics/SVG/1.1/DTD/svg11.dtd">
<!-- Creator: CorelDRAW -->
<svg xmlns="http://www.w3.org/2000/svg" xml:space="preserve" width="1.0398mm" height="2.1001mm" version="1.1" style="shape-rendering:geometricPrecision; text-rendering:geometricPrecision; image-rendering:optimizeQuality; fill-rule:evenodd; clip-rule:evenodd"
viewBox="0 0 0.59 1.2"
 xmlns:xlink="http://www.w3.org/1999/xlink"
 xmlns:xodm="http://www.corel.com/coreldraw/odm/2003">
 <defs>
  <style type="text/css">
   <![CDATA[
    .fil10 {fill:none}
    .fil8 {fill:#373435}
    .fil1 {fill:black}
    .fil6 {fill:#585755}
    .fil3 {fill:#B3B3B3}
    .fil0 {fill:#CC0000}
    .fil7 {fill:#FF6600}
    .fil4 {fill:white}
    .fil2 {fill:#373435;fill-rule:nonzero}
    .fil5 {fill:#373435;fill-rule:nonzero}
    .fil9 {fill:#585755;fill-opacity:0.200000}
   ]]>
  </style>
    <clipPath id="id0">
     <path d="M0.41 0.73c0.01,-0 0.01,-0 0.02,-0 0.01,0 0.02,0 0.02,0.01 0.01,0 0.01,0.01 0.01,0.01 0,0 0,0.01 0.01,0.03 0,0.02 0,0.05 0,0.09 0,0.04 0,0.09 -0,0.13 -0,0.03 -0,0.04 -0.01,0.05 -0,0.01 -0.01,0.01 -0.01,0.01 -0,0 -0.01,0.01 -0.01,0.01 -0,0 -0.01,0 -0.01,0 -0,0 -0.01,0 -0.01,0 -0,-0 -0.01,-0 -0.01,-0 -0,-0 -0,-0 -0.01,-0.01 -0,-0 -0,-0.01 -0.01,-0.01 -0,-0 -0,-0 -0,-0.01 -0,-0 -0,-0.01 -0,-0.01 -0,-0 -0,-0.01 0,-0.05 0,-0.04 0.01,-0.13 0.01,-0.18 0,-0.04 0,-0.05 0,-0.05 0,-0 0,-0 0,-0.01 0,-0 0,-0 0,-0.01 0,-0 0,-0 0.01,-0z"/>
    </clipPath>
      <mask id="id1">
  <linearGradient id="id2" gradientUnits="userSpaceOnUse" x1="0.39" y1="0.89" x2="0.48" y2="0.89">
   <stop offset="0" style="stop-opacity:1; stop-color:white"/>
   <stop offset="1" style="stop-opacity:0; stop-color:white"/>
  </linearGradient>
       <rect style="fill:url(#id2)" x="0.37" y="0.68" width="0.15" height="0.39"/>
      </mask>
    <clipPath id="id3">
     <path d="M0.36 0.59c-0.01,-0.02 -0.03,-0.02 -0.04,-0.02 -0.01,-0 -0.05,0 -0.06,0 -0.01,0 -0.01,0 -0.02,0.01 -0.01,0.01 -0.01,0.03 -0.02,0.04 -0.01,0.02 -0,0.01 -0.01,0.03 -0,0.02 -0.01,0.05 -0.01,0.07 -0,0.02 -0.01,0.05 -0.01,0.08 0,0.04 0.01,0.09 0.02,0.13 0.02,0.07 0.02,0.06 0.09,0.06 0.02,0 0.05,0 0.06,-0.01 0.02,-0.02 0.03,-0.11 0.04,-0.15 0,-0.01 -0,-0.01 0,-0.02 0,-0.02 -0,-0.08 -0.01,-0.1 -0,-0.03 -0.01,-0.05 -0.01,-0.07 -0,-0.01 -0,-0.01 -0,-0.02 -0.01,-0.01 -0.01,-0.03 -0.02,-0.05z"/>
    </clipPath>
 </defs>
 <g id="Camada_x0020_1">
  <metadata id="CorelCorpID_0Corel-Layer"/>
  <path class="fil0" d="M0.24 1.03l-0 -0.02c-0,-0 -0,-0 -0,-0.01 -0.02,-0 -0.03,-0.03 -0.03,-0.05 -0.01,-0.05 -0.02,-0.1 -0.02,-0.15 0,-0.02 0,-0.04 0,-0.06 -0,0 -0,0 -0,0 -0,0 -0,0 -0,0l-0 0c-0,0 -0,0 -0,0.01 -0,0 -0,0.01 -0,0.01 -0,0.01 -0,0.01 -0,0.02 -0.01,0.06 -0,0.13 0.01,0.18 0.01,0.03 0.02,0.05 0.03,0.08 0,0 0,0.01 0,0.01 0,-0.01 0,-0.01 0.01,-0.01 0,-0 0,-0 0,-0.01zm-0.03 -0.59l0 -0.05c0,-0.02 0,-0.03 0,-0.05 -0,-0 -0,-0 -0,-0.01 -0,-0 -0,-0 -0,-0l-0.01 0c-0,0 -0,0 -0,0l-0.03 0.04c-0.01,0.01 -0.01,0.05 -0.01,0.07 0,0.01 0,0.02 0.01,0.03 0.01,0.01 0.03,0.05 0.04,0.06 0.01,-0.01 0,-0.03 0,-0.04l0 -0.05zm0.21 0.08c-0,0.02 -0,0.02 -0.01,0.04 -0.01,0.03 -0.01,0.02 -0.01,0.04 0,-0.01 0.02,-0.05 0.02,-0.05 0,-0.01 0.01,-0.04 0.01,-0.06l-0.02 0.02c-0,0 -0,0 -0,0.01zm-0.02 0.02c0,0.01 0,0.01 0,0.02 0,-0 0,-0 0,-0 0,-0 0,-0 0,-0 0,-0.01 0,-0.02 0,-0.02 -0,0 -0,0 -0.01,0.01 -0,0 -0,0 -0.01,0zm-0.21 -0.01c0,0 0,0.03 0.01,0.03 0,-0.01 0,-0.02 0,-0.02 -0,-0 -0,-0 -0.01,-0 -0,-0 -0,-0 -0,-0.01zm-0.03 -0.04c0,0.02 0.02,0.09 0.03,0.11 0,0 0,0 0,0l0 -0.02c0,-0 -0.01,-0.04 -0.01,-0.05 -0,-0.01 -0,-0.01 -0,-0.01 -0,-0 -0.01,-0.01 -0.01,-0.02l-0 -0.01c-0,-0 -0,-0 -0,-0zm0.22 0.13c0,0.04 -0,0.02 0.01,0.06l0 0.01c0,0 0,0 0,0 0,0 0,0 0,0 0,-0 0,0 0,0 0,-0.01 0,-0.01 0,-0.01 0,-0.01 0,-0.04 0,-0.05l-0.01 -0.07c-0,-0 -0,-0.01 -0,-0.01 -0,0 -0,0 -0,0.01 -0,0.02 -0,0.05 -0,0.07zm-0.18 0.02c-0,-0.03 0,-0.06 0,-0.08 -0,-0.01 -0,-0.01 -0,-0.02 -0,0.01 -0.01,0.04 -0.01,0.06l-0 0.03c-0,0 -0,0.01 -0,0.01 -0,0 -0,0.01 -0,0.02 0,0.02 0,0.02 0.01,0.04l0 -0c0,-0 0,-0 0,-0 0,-0.01 0.01,-0.04 0.01,-0.05zm0.04 -0.09c-0.01,-0.04 -0.01,-0.12 -0.01,-0.15 -0,-0.04 0.01,-0.04 0.01,-0.05l-0 0c-0.01,0 -0.01,0.01 -0.02,0.02 -0,0 -0,0 -0,0l-0.01 0.07c0,0.01 -0,0.03 -0,0.04l0 0.04c0,0.02 -0,0.02 -0,0.03 0,0 0,0 0,0.01 0,0.01 0,0.03 0,0.04 -0,0.01 -0,0.03 -0,0.04 0,-0 0,-0.01 0,-0.01 0,-0 0,-0.01 0,-0.01 0,-0.01 0.01,-0.03 0.03,-0.03 -0,-0 -0,-0.02 -0,-0.03zm0.14 -0.08c-0,-0.01 -0,-0.03 -0,-0.04l-0 -0.04c-0,-0.01 -0,-0.01 -0,-0.02 -0,-0.01 0,-0.01 -0.01,-0.03 -0,-0 -0.01,-0.01 -0.01,-0.01l-0 0c0,0 0.01,0.01 0.01,0.02 0.01,0.03 -0.01,0.14 -0.01,0.18 -0,0.01 -0,0.03 -0,0.03 0.01,0 0.02,0.01 0.02,0.02 0,0 0,0.01 0.01,0.01 0,0 0,0.01 0,0.01 0,-0.01 0,-0.03 -0,-0.04 -0,-0.01 -0,-0.03 0,-0.04 0,-0 0,-0.01 0,-0.01 0,-0 -0,-0.01 -0,-0.03 0,-0.01 0,-0.01 0,-0.02 -0,-0.01 0,-0.01 0,-0.02zm0 -0.07c0,0.03 0,0.06 0,0.09 0,0.01 -0,0.04 0,0.04 0.01,-0 0.03,-0.05 0.04,-0.06 0,-0.01 0.01,-0.01 0.01,-0.02 0,-0.02 -0.01,-0.06 -0.01,-0.07 -0.01,-0.01 -0.01,-0.02 -0.02,-0.02 -0,-0 -0.01,-0.01 -0.01,-0.01 -0,-0 -0,-0 -0,-0.01l-0.01 0c-0,0.01 -0,0.01 -0,0.02l0 0.04zm0.01 0.53c-0,0.02 -0.01,0.07 -0.04,0.07l-0 0.02c-0,0.01 0,0.01 0,0.02 0.01,0 0.01,0 0.01,0.01l0 -0.01c0.01,-0.01 0.01,-0.02 0.02,-0.04 0.01,-0.01 0.01,-0.03 0.01,-0.05 0.01,-0.06 0.02,-0.15 0,-0.21l-0 -0.01c0,0 0,0.01 0,0.01 0.01,0.05 0,0.12 -0.01,0.17z"/>
  <g id="_1764362404304">
   <g>
    <path class="fil1" d="M0.19 0.68c-0.01,-0 -0.01,-0 -0.02,-0 -0,0 -0.01,0 -0.01,0 -0,0 -0,0 -0,0 -0,0 -0,-0 -0,-0 -0,-0 -0,-0 -0,-0 -0,-0 -0,-0 -0,-0 -0,0 -0,0 -0,0 -0,-0 -0,-0 -0,0 -0,0 -0,0 -0,0 0,0 0,0 0,0.01 0,0 0,0.01 0,0.01 0,0 0,0 0,0 0,0 0.01,0 0.01,0 0,0 0,-0 0,-0 0,-0 0,-0 0,-0 0,-0 0,-0 0.01,-0 0,0 0,0 0,0 0,0 0,0 0,0 0,0 0.01,0 0.01,0 0,0 0.01,0 0.01,0 0,0 0,0 0.01,0 0,0 0,-0 0,-0 0,-0 0,-0 0,-0 0,-0 0,-0 0,-0 0,-0 0,-0.01 0,-0.01 0,-0 0,-0.01 -0,-0.01 -0,-0 -0,-0 -0,-0 -0,-0 -0,-0 -0,-0 -0,0 -0,0 -0.01,0z"/>
    <path id="_1" class="fil2" d="M0.17 0.68l0 0 0 -0 0 0 0 0 0 0 0 0 0 0 0 0 0 0 -0 0.01 -0 -0 -0 -0 -0 -0 -0 -0 -0 -0 -0 -0 -0 -0 -0 0 0 0 -0 -0.01zm0 0l-0 0 0 0 -0 0zm-0.01 0l0 -0 0 -0 0 -0 0 -0 0 -0 0 -0 0 -0 0 -0 0 -0 0 0.01 -0 0 -0 0 -0 0 -0 0 -0 0 -0 0 -0 0 -0 0 0 -0 -0 -0.01zm0 0l0 -0 0 0 -0 0zm-0 0l-0 0 0 -0 0 -0 0 0 0 -0 0 -0 0 -0 0 0.01 -0 0 -0 0 -0 0 -0 0 -0 0 -0 0 -0 0 0 -0.01zm0 0.01l0 0 -0 0 0 0zm-0 -0.01l0 0 0 0 0 0 0 0 0 0 0 0 0 0 0 0.01 -0 -0 -0 -0 -0 -0 -0 -0 -0 -0 -0 -0 0 0 0 -0.01zm-0 -0l0 0 0 0 0 0 0 0 0 0 -0 0.01 -0 -0 -0 -0 -0 -0 -0 -0 0 0 0 -0.01zm0 0l0 0 0 0 -0 -0zm-0 -0l-0 0 0 -0 0 0 0 0 0 0 0 0 0 0 -0 0.01 0 0 -0 0 -0 -0 -0 0 -0 -0 -0 0 -0 0 0 -0.01zm0 0.01l0 0 -0 0 0 0zm-0 -0.01l-0 0 0 0 0 0 0 0 0 0 0 0.01 -0 0 -0 0 -0 0 -0 0 -0 0 0 -0.01zm-0 0.01l-0 0 0 0 0 0zm-0.01 -0l0 0 0 -0 0 -0 0 -0 0 -0 0 -0 0 0 -0 0.01 -0 -0 -0 0 0 -0 0 -0 0 -0 0 -0 0 0 -0.01 -0zm-0 0.01l0 0 -0 -0 0 -0 0 -0 0 -0 0 -0 0 -0 0.01 0 0 -0 0 -0 0 0 -0 0 0 0 0 0 0 0 -0.01 0zm0.01 -0l0 0 0 0 0 -0zm-0.01 0.01l0 0 -0 -0 -0 -0 0 -0 0 -0 0.01 0 0 0 0 0 0 0 0 0 0 0 -0.01 0zm0.01 -0l0 -0 0 0 0 -0zm-0.01 0.01l0 0 -0 -0 -0 -0 -0 -0 -0 -0 0.01 -0 0 0 0 0 0 0 0 0 0 0 -0.01 0zm0.01 -0l0 -0 0 0 0 -0zm-0 0.01l0 0 -0 -0 -0 -0 -0 -0 -0 -0 -0 -0 -0 -0 -0 -0 -0 -0 -0 -0 -0 -0 0.01 -0 0 0 0 0 0 0 0 -0 0 0 0 0 -0 -0 -0 -0 -0 -0 0 0 0 0 -0 0.01zm0 0l0 0 0 0 0 0zm0.01 0l0 0 -0 0 -0 -0 -0 -0 -0 -0 -0 -0 -0 -0 0 -0.01 0 0 0 0 0 0 0 0 0 0 0 0 0 0 0 0.01zm-0 -0.01l0 0 0 0 -0 0zm0.01 0.01l0 0 -0 0 -0 0 -0 0 -0 0 -0 0 -0 0 0 -0.01 0 0 0 -0 0 -0 0 -0 0 0 0 -0 0 0 0 0.01zm-0 -0.01l0 0 -0 0 0 -0zm0.01 0l-0 0 -0 0 -0 0 -0 0 -0 0 -0 0 -0 0 -0 -0.01 0 -0 0 -0 0 -0 0 -0 0 -0 0 -0 -0 0 0 0.01zm0 0l-0 0 -0 0 0 -0zm0 -0l0 0 -0 -0 -0 0 -0 0 -0 0 -0 0 -0 0 -0 0 -0 0 -0 -0.01 0 -0 0 -0 0 -0 0 -0 0 -0 0 0 0 0 0 0 0 0 -0 0.01zm0 0l0 0 -0 -0 -0 -0 -0 -0 -0 -0 -0 -0 -0 -0 0 -0.01 0 0 0 0 0 0 0 0 0 0 0 0 0 0 -0 0.01zm0 -0.01l0 0 -0 -0 0 0zm0 0.01l-0 0 -0 -0 -0 -0 -0 -0 -0 -0 -0 -0 -0 -0 -0 -0 -0 -0 0 -0.01 0 0 0 0 0 0 0 0 0 0 0 0 0 0 0 0 -0 0 -0 0.01zm0 0l-0 0 -0 -0 0 0zm0.01 0l0 0 -0 -0 -0 -0 -0 -0 -0 -0 -0 -0 -0 -0 -0 -0 -0 -0 0 -0.01 0 0 0 0 0 0 0 0 0 0 0 0 0 0 0 0 0 0 -0 0.01zm0.01 0l0 0 -0 -0 -0 -0 -0 -0 -0 -0 -0 -0 -0 -0 -0 -0 -0 -0 0 -0.01 0 0 0 0 0 0 0 0 0 0 0 0 0 0 0 0 0 0 -0 0.01zm0.01 0l-0 0 -0 -0 -0 -0 -0 -0 -0 -0 0 -0.01 0 0 0 0 0 0 0 0 -0 0 0 0.01zm0 0l-0 0 0 0 0 0zm0 -0l-0 0 -0 0 -0 0 -0 0 -0 0 0 -0.01 0 0 0 -0 0 0 0 0 -0 0 0 0.01zm0 0l0 0 -0 0 0 0zm0 -0l0 0 -0 0 -0 0 -0 0 -0 0 -0 -0.01 -0 0 -0 0 -0 0 0 0 0 0 0 0zm0 -0l0 0 -0 0 -0 0 -0 0 -0 0 -0 0 -0 0 -0 -0 0 -0 0 -0 0 -0 0 -0 0 -0 0 -0 0 0 0.01 0zm0 -0.01l0 0 -0 0 -0 0 -0 0 -0 0 -0 0 -0 0 -0.01 -0 0 -0 0 -0 0 -0 0 -0 0 -0 0 -0 0 0 0.01 0zm0 0l0 0 0 -0 0 -0zm-0 -0.01l0 0 0 0 0 0 0 0 -0 0 -0.01 -0 0 -0 0 -0 -0 -0 -0 -0 0 0 0.01 -0zm0 0l0 0 0 0 -0 -0zm-0 -0.01l0 0 0 0 0 0 0 0 0 0 0 0 0 0 -0.01 0 -0 -0 -0 -0 0 -0 -0 -0 -0 -0 -0 -0 0 0 0.01 -0zm-0.01 0l0 0 0 0 0 0zm-0 -0.01l0 0 0 0 0 0 0 0 0 0 0 0 0 0 0 0 0 0 -0.01 0 0 0 0 0 -0 0 0 0 -0 0 -0 -0 -0 0 -0 0 0 0 0 -0.01zm-0.01 0l0 0 0 0 0 -0 0 0 0 -0 0 -0 0 -0 0 -0 0 0 0 0.01 -0 0 -0 0 -0 0 -0 0 -0 0 -0 0 -0 0 -0 0 0 0 0 -0.01z"/>
   </g>
   <path class="fil3" d="M0.41 0.73c0.01,-0 0.01,-0 0.02,-0 0.01,0 0.02,0 0.02,0.01 0.01,0 0.01,0.01 0.01,0.01 0,0 0,0.01 0.01,0.03 0,0.02 0,0.05 0,0.09 0,0.04 0,0.09 -0,0.13 -0,0.03 -0,0.04 -0.01,0.05 -0,0.01 -0.01,0.01 -0.01,0.01 -0,0 -0.01,0.01 -0.01,0.01 -0,0 -0.01,0 -0.01,0 -0,0 -0.01,0 -0.01,0 -0,-0 -0.01,-0 -0.01,-0 -0,-0 -0,-0 -0.01,-0.01 -0,-0 -0,-0.01 -0.01,-0.01 -0,-0 -0,-0 -0,-0.01 -0,-0 -0,-0.01 -0,-0.01 -0,-0 -0,-0.01 0,-0.05 0,-0.04 0.01,-0.13 0.01,-0.18 0,-0.04 0,-0.05 0,-0.05 0,-0 0,-0 0,-0.01 0,-0 0,-0 0,-0.01 0,-0 0,-0 0.01,-0z"/>
   <g style="clip-path:url(#id0)">
    <g>
     <path id="_1_1" class="fil4" style="mask:url(#id1)" d="M0.43 0.77c-0,0.04 -0,0.13 -0,0.17 -0,0.04 -0,0.05 -0,0.05 0,0 0,0.01 0,0.01 0,0 0.01,0 0.01,0 0,0 0.01,0 0.01,0 0,-0 0.01,-0.01 0.01,-0.03 0,-0.02 0,-0.07 0,-0.11 -0,-0.04 -0,-0.07 -0.01,-0.1 -0,-0.02 -0.01,-0.03 -0.01,-0.04 -0,-0.01 -0,-0.01 -0.01,-0.01 -0,-0 -0,-0 -0.01,0.04z"/>
     <path class="fil5" d="M0.38 1.01c0,-0 0.01,-0.01 0.01,-0.01 0,-0 0.01,-0.01 0.01,-0.01 0,-0 0.01,-0.01 0.01,-0.01 0,-0 0.01,-0 0.01,-0 0,-0 0.01,-0 0.01,-0 0,0 0.01,0 0.01,0 0,0 0.01,0 0.01,0 0,0 0.01,0 0.01,0 0,0 0.01,0 0.01,0.01 0,0 0,0 0.01,0.01 0,0 0,0 0,0.01 0,0 0,0 0,0.01 0,0 0,0.01 0,0.01 -0,0 -0,0.01 -0,0.01 -0,0 -0,0.01 -0.01,0.01 -0,0 -0,0.01 -0.01,0.01 -0,0 -0.01,0.01 -0.01,0.01 -0,0 -0.01,0 -0.01,0 -0,0 -0.01,0 -0.02,0 -0,0 -0.01,0 -0.01,-0 -0.01,-0 -0.01,-0 -0.01,-0 -0,-0 -0.01,-0 -0.01,-0.01 -0,-0 -0.01,-0 -0.01,-0.01 -0,-0 -0.01,-0.01 -0.01,-0.01 -0,-0.01 -0,-0.01 -0,-0.02l0 -0c0,-0 0,-0.01 0.01,-0.02zm0.02 -0.01c-0,0 -0.01,0.01 -0.01,0.01 -0,0.01 -0.01,0.01 -0.01,0.01l-0 0c-0,0 -0,0.01 0,0.01 0,0 0,0 0.01,0.01 0,0 0.01,0 0.01,0.01 0,0 0.01,0 0.01,0.01 0,0 0.01,0 0.01,0 0,0 0.01,0 0.01,0 0.01,-0 0.01,-0 0.02,-0 0,-0 0.01,-0 0.01,-0 0,-0 0.01,-0 0.01,-0.01 0,-0 0,-0.01 0.01,-0.01 0,-0 0,-0.01 0.01,-0.01 0,-0 0,-0.01 0,-0.01 0,-0 -0,-0 -0,-0.01 -0,-0 -0,-0 -0,-0.01 -0,-0 -0,-0 -0,-0.01 -0,-0 -0,-0 -0,-0.01 -0,-0 -0,-0 -0.01,-0 -0,-0 -0.01,-0 -0.01,-0 -0,-0 -0.01,-0 -0.01,-0 -0,-0 -0.01,-0 -0.01,-0 -0,-0 -0,-0 -0.01,0 -0,0 -0,0 -0.01,0 -0,0 -0.01,0 -0.01,0.01 -0,0 -0.01,0.01 -0.01,0.01z"/>
    </g>
   </g>
   <g>
    <path class="fil2" d="M0.43 0.72l-0 0.01 0 0 -0 -0 -0 -0 -0 -0 -0 -0 -0 0 -0 0 -0 0 -0 0 -0 0 -0 0 -0 -0.01 0 -0 0 -0 0 -0 0 -0 0 -0 0 0 0 0 0 0 0 0 0 0 0 0zm-0 0.01l0 0 0 0 0 0zm0.02 -0l-0 0.01 0 0 -0 -0 -0 -0 -0 -0 -0 -0 -0 -0 -0 -0 -0 -0 -0 -0 -0 -0 -0 -0 -0 -0 -0 -0 -0 -0 -0 -0 -0 -0 -0 -0 0 -0.01 0 0 0 0 0 0 0 0 0 0 0 0 0 0 0 0 0 0 0 0 0 0 0 0 0 0 0 0 0 0 0 0 0 0zm0 0l0 0 0 0 0 0zm0.01 0.01l-0.01 0 -0 0 -0 -0 -0 -0 -0 -0 -0 -0 -0 -0 -0 -0 -0 -0 -0 -0 -0 -0 -0 -0 -0 -0 -0 -0 -0 -0 -0 -0 -0 -0 -0 -0 0 -0.01 0 0 0 0 0 0 0 0 0 0 0 0 0 0 0 0 0 0 0 0 0 0 0 0 0 0 0 0 0 0 0 0 -0 0zm-0.01 0l-0 0 -0 -0.01 0 0.01zm0.01 0.03l-0.01 0 0 -0 -0 -0 -0 -0 -0 -0 -0 -0 -0 -0 -0 -0 -0 -0 -0 -0 -0 -0 -0 -0 -0 -0 -0 -0 -0 -0 -0 -0 -0 -0 -0 -0 0.01 -0 0 0 0 0 0 0 0 0 0 0 0 0 0 0 0 0 0 0 0 0 0 0 0 0 0 0 0 0 0 0 0 0 0 -0zm-0.01 0l0 -0 0 0 -0 -0zm0.01 0.09l-0.01 0 0 0 -0 -0.01 -0 -0.01 -0 -0.01 -0 -0.01 -0 -0.01 -0 -0.01 -0 -0.01 -0 -0.01 -0 -0.01 -0 -0.01 -0 -0 -0 -0 -0 -0 -0 -0 -0 -0 -0 -0 0.01 -0 0 0 0 0 0 0 0 0 0 0 0 0 0 0.01 0 0.01 0 0.01 0 0.01 0 0.01 0 0.01 0 0.01 0 0.01 0 0.01 0 0.01 0 0zm-0.01 0l0 0 0 0 0 0zm0.01 0.13l-0.01 -0 0 0 0 -0.01 0 -0.01 0 -0.01 0 -0.01 0 -0.01 0 -0.01 0 -0.01 0 -0.01 0 -0.01 0 -0.01 0 -0.01 0 -0.01 0 -0.01 0 -0.01 -0 -0.01 -0 -0.01 0.01 -0 0 0.01 0 0.01 0 0.01 0 0.01 0 0.01 0 0.01 -0 0.01 -0 0.01 -0 0.01 -0 0.01 -0 0.01 -0 0.01 -0 0.01 -0 0.01 -0 0.01 -0 0.01 0 0zm0 0l0 0 0 0 0 0zm-0.01 0.05l-0.01 -0 0 0 0 -0 0 -0 0 -0 0 -0 0 -0 0 -0 0 -0 0 -0 0 -0 0 -0 0 -0 0 -0 0 -0 0 -0 0 -0.01 0 -0.01 0.01 0 -0 0.01 -0 0.01 -0 0 -0 0 -0 0 -0 0 -0 0 -0 0 -0 0 -0 0 -0 0 -0 0 -0 0 -0 0 -0 0 -0 0 0 0zm-0.01 0.01l-0 -0.01 -0 0 0 -0 0 -0 0 -0 0 -0 0 -0 0 -0 0 -0 0 -0 0 -0 0 -0 0 -0 0 -0 0 -0 0 -0 0.01 0 -0 0 -0 0 -0 0 -0 0 -0 0 -0 0 -0 0 -0 0 -0 0 -0 0 -0 0 -0 0 -0 0 -0 0 -0 0zm0 0l-0 0 0 -0 -0 0zm-0.01 0.01l-0 -0.01 0 0 0 -0 0 -0 0 -0 0 -0 0 -0 0 -0 0 -0 0 -0 0 0.01 -0 0 -0 0 -0 0 -0 0 -0 0 -0 0 -0 0 -0 0 0 0zm0 -0l0 0 -0.01 0 0.01 -0zm-0.01 0l-0 -0.01 0 0 0 -0 0 -0 0 -0 0 -0 0 -0 0 -0 0 -0 0 -0 0 0.01 -0 0 -0 0 -0 0 -0 0 -0 0 -0 0 -0 0 -0 0 0 0zm-0.02 0l0 -0.01 -0 0 0 0 0 0 0 0 0 -0 0 -0 0 -0 0 -0 0 -0 0 0.01 -0 0 -0 0 -0 0 -0 0 -0 0 -0 0 -0 -0 -0 -0 -0 0zm0 0l-0 0 -0 -0 0 0zm-0.01 -0.01l0 -0.01 0 0 0 0 0 0 0 0 0 0 0 0 0 0 0 0 0 0 -0 0.01 -0 -0 -0 -0 -0 -0 -0 -0 -0 -0 -0 -0 -0 -0 -0 -0 0 0zm-0.01 -0.01l0.01 -0 0 0 0 0 0 0 0 0 0 0 0 0 0 0 0 0 0 0 -0 0.01 -0 -0 -0 -0 -0 -0 -0 -0 -0 -0 -0 -0 -0 -0 -0 -0 0 0zm-0.01 -0.01l0.01 -0 0 0 0 0 0 0 0 0 0 0 -0.01 0 -0 -0 -0 -0 -0 -0 -0 -0 0 0zm0.01 -0l0 0 0 0 -0 -0zm-0.01 -0l0.01 -0 0 -0 0 0 0 0 0 0 0 0 -0.01 0 -0 -0 -0 -0 -0 -0 -0 -0 0 -0zm0 0l0 -0 0 0 -0 -0zm-0 -0.01l0.01 -0 0 -0 0 0 0 0 0 0 0 0 0 0 0 0 -0.01 0 -0 -0 -0 -0 -0 -0 -0 -0 -0 -0 -0 -0 0 -0zm0 0l0 -0 0 0 -0 -0zm0 -0.05l0.01 0 0 0 -0 0.01 -0 0.01 -0 0.01 -0 0.01 -0 0 -0 0 -0 0 -0 0 -0 0 0 0 0 0 0 0 0 0 0 0 0 0 0 0 -0.01 0 -0 -0 -0 -0 -0 -0 -0 -0 0 -0 0 -0 0 -0 0 -0 0 -0 0 -0 0 -0 0 -0 0 -0.01 0 -0.01 0 -0.01 0 -0.01 0 0zm0.01 -0.18l0.01 0 0 0 -0 0.01 -0 0.01 -0 0.01 -0 0.01 -0 0.01 -0 0.01 -0 0.01 -0 0.01 -0 0.01 -0 0.01 -0 0.01 -0 0.01 -0 0.01 -0 0.01 -0 0.01 -0 0.01 -0.01 -0 0 -0.01 0 -0.01 0 -0.01 0 -0.01 0 -0.01 0 -0.01 0 -0.01 0 -0.01 0 -0.01 0 -0.01 0 -0.01 0 -0.01 0 -0.01 0 -0.01 0 -0.01 0 -0.01 0 0zm0 -0.05l0.01 0 0 0 -0 0 0 0 -0 0 0 0 -0 0 -0 0 -0 0 -0 0 -0 0 -0 0 -0 0 -0 0 -0 0.01 -0 0.01 -0 0.01 -0 0.01 -0.01 -0 0 -0.01 0 -0.01 0 -0.01 0 -0.01 0 -0 0 -0 0 -0 0 -0 0 -0 0 -0 0 -0 0 -0 0 -0 0 -0 0 -0 0 -0 0 0zm0 0l0 0 0 0 0 0zm0 -0.01l0.01 0 0 -0 -0 0 -0 0 -0 0 -0 0 -0.01 -0 0 -0 0 -0 0 -0 0 -0 0 -0zm0 0l0 -0 0 -0 -0 0zm0 -0.01l0 0.01 0 0 -0 0 0 -0 0 0 -0 0 -0 0 -0 0 -0 0 -0 0 -0 0 -0 0 -0.01 -0 0 -0 0 -0 0 -0 0 -0 0 -0 0 -0 0 -0 0 -0 0 -0 0 -0 0 0zm0.01 -0l0 0.01 0 0 -0 0 -0 0 -0 0 -0 0 -0 0 -0 0 -0 0 -0 0 0 -0 0 0 -0 -0.01 0 -0 0 -0 0 -0 0 -0 0 -0 0 -0 0 -0 0 -0 0 -0 0 -0 0 0z"/>
   </g>
   <path class="fil1" d="M0.41 1.04c-0,-0 -0,-0 -0,-0 -0,-0 0,-0 0,-0.01 0,-0 0.01,-0.01 0.01,-0.01 0.01,-0 0.01,-0 0.01,-0.01 0,-0 0.01,0 0.01,0 0,0 0,0.01 0,0.01 0,0 0,0 -0,0 -0,0 -0,0 -0,0.01 -0,0 -0,0 -0.01,0 -0,0 -0.01,0 -0.01,0 -0,0 -0.01,0 -0.01,0 -0,0 -0,0 -0.01,-0 -0,-0 -0,-0 -0.01,-0z"/>
   <g>
    <path class="fil3" d="M0.4 0.65c0,0 0.01,0.01 0.02,0.02 0,0.01 0.01,0.02 0.01,0.03 0,0.01 0,0.01 0.01,0.02 0,0.01 0,0.01 0,0.01 -0,0 -0,0.01 -0.01,0.01 -0,0 -0.01,0 -0.01,0 -0,-0 -0,-0 -0,-0.01 -0,-0 -0,-0.01 -0,-0.02 -0,-0.01 -0,-0.01 -0,-0.02 -0,-0.01 -0.01,-0.02 -0.01,-0.03 -0,-0.01 -0.01,-0.01 -0.01,-0.01 -0,-0 -0,-0.01 -0,-0.01 0,-0 0,-0 0.01,-0z"/>
    <path id="_1_2" class="fil2" d="M0.42 0.67l-0.01 0 0 0 -0 -0 -0 -0 -0 -0 -0 -0 -0 -0 -0 -0 -0 -0 -0 -0 -0 -0 -0 -0 -0 -0 -0 -0 -0 -0 -0 -0 -0 -0 -0 -0 0 -0.01 0 0 0 0 0 0 0 0 0 0 0 0 0 0 0 0 0 0 0 0 0 0 0 0 0 0 0 0 0 0 0 0 0 0zm-0 0l0 0 0.01 0.02 -0.01 -0.02zm0.01 0.03l-0.01 0 0 -0 -0 -0 -0 -0 -0 -0 -0 -0 -0 -0 -0 -0 -0 -0 -0 -0 0.01 -0 0 0 0 0 0 0 0 0 0 0 0 0 0 0 0 0 0 -0zm-0.01 0l0 -0 0 0 -0 -0zm0.01 0.02l-0.01 0 0 0 -0 -0 -0 -0 -0 -0 -0 -0 -0 -0 -0 -0 -0 -0 -0 -0 0.01 -0 0 0 0 0 0 0 0 0 0 0 0 0 0 0 0 0 0 0zm0 0.01l-0.01 -0 0 0 0 -0 0 -0 0 -0 -0 -0 -0 -0 -0 -0 -0 -0 -0 -0 0.01 -0 0 0 0 0 0 0 0 0 0 0 -0 0 -0 0 -0 0 0 0zm0 0l0 0 0 0 0 0zm-0.01 0.01l-0 -0.01 0 0 0 -0 0 -0 0 -0 0 -0 0 -0 0 -0 0 -0 0 -0 0 -0 0 -0 0 -0 0 -0 0.01 0 -0 0 -0 0 -0 0 -0 0 -0 0 -0 0 -0 0 -0 0 -0 0 -0 0 -0 0 -0 0 0 0zm-0 -0.01l0 0 0 0 0 0zm-0.01 0.01l0 -0.01 0 0 0 0 -0 0 0 -0 0 0 0 -0 0 -0 0 -0 0 -0 0 -0 0 -0 0 0.01 -0 0 -0 0 -0 0 -0 0 -0 0 -0 0 -0 0 -0 0 -0 0 -0 -0 0 0zm0 -0.01l0 0 0 0 0 0zm-0.01 -0l0.01 -0 0 0 0 0 0 0 0 0 0 0 0 0 0 0 0 0 -0 -0 0 0 -0 -0 -0 0 -0 0 -0 0.01 -0 -0 -0 -0 -0 -0 -0 -0 -0 -0 -0 -0 -0 -0 -0 -0 -0 -0 -0 -0 -0 -0 -0 -0 0 0zm0 0l0 0 0 0 0 0zm-0 -0.02l0.01 -0 0 0 0 0 0 0 0 0 0 0 0 0 0 0 0 0 0 0 -0.01 0 -0 -0 -0 -0 -0 -0 -0 -0 -0 -0 -0 -0 -0 -0 -0 -0 0 0zm0.01 -0l0 -0 0 0 0 -0zm-0.01 -0.02l0.01 -0 0 0 0 0 0 0 0 0 0 0 0 0 0 0 0 0 0 0 0 0 0 0 -0.01 0 -0 -0 -0 -0 -0 -0 -0 -0 -0 -0 -0 -0 -0 -0 -0 -0 -0 -0 -0 -0 0 0zm-0.01 -0.03l0.01 -0 0 0 0 0 0 0 0 0 0 0 0 0 0 0 0 0 0 0 0 0 0 0 -0.01 0 -0 -0 -0 -0 -0 -0 -0 -0 -0 -0 -0 -0 -0 -0 -0 -0 -0 -0 -0 -0 0 0zm-0.01 -0.01l0.01 -0 -0 0 0 0 0 0 0 0 0 0 0 0 0 0 0 0 0 0 -0.01 0 -0 -0 -0 -0 -0 -0 -0 -0 -0 -0 -0 -0 -0 -0 -0 -0 -0 0zm0 0l-0 0 -0 -0.01 0 0.01zm-0 -0.01l0.01 0 0 0 -0 0 -0 0 -0 0 0 0 0 0 0 0 0 0 0 0 0 0 0 0 0 0 0 0 -0.01 0 -0 -0 -0 -0 -0 -0 -0 -0 -0 -0 -0 -0 0 -0 0 -0 0 -0 0 -0 0 -0 0 -0 0 0zm0.01 0l0 0 -0 0 0 -0zm0.01 -0l-0 0.01 0 0 -0 -0 -0 -0 -0 -0 -0 -0 -0 -0 -0 0 -0 0 0 0 -0 0 0 0 0 0 -0 0 0 0 -0 0 -0 0 -0 0 -0.01 -0 0 -0 0 -0 0 -0 0 -0 0 -0 0 -0 0 -0 0 -0 0 -0 0 0 0 0 0 0 0 0 0 0 0 0 0 0 0 0zm-0 -0l0 0 -0 -0 0 0z"/>
   </g>
   <g>
    <path class="fil3" d="M0.39 0.67c0,0.01 0.01,0.02 0.01,0.03 0,0.01 0.01,0.02 0.01,0.03 0,0.01 0,0.01 0,0.02 0,0 0,0 0.01,0 0,-0 0,-0.01 -0,-0.02 -0,-0.01 -0,-0.02 -0,-0.03 -0,-0.01 -0,-0.02 -0.01,-0.02 -0,-0.01 -0.01,-0.01 -0.01,-0.01 -0,-0 -0,-0.01 -0.01,-0.01 -0,-0 -0,-0 -0,-0 -0,0 -0.01,0 -0,0.01z"/>
    <path id="_1_3" class="fil2" d="M0.4 0.7l-0.01 0 0 0 -0 -0 -0 -0 -0 -0 -0 -0 -0 -0 -0 -0 -0 -0 -0 -0 -0 -0 -0 -0 0.01 -0 0 0 0 0 0 0 0 0 0 0 0 0 0 0 0 0 0 0 0 0 0 0zm0 0l0 0 0 0 0 0zm0.01 0.03l-0.01 0 0 0 -0 -0 -0 -0 -0 -0 -0 -0 -0 -0 -0 -0 -0 -0 -0 -0 0.01 -0 0 0 0 0 0 0 0 0 0 0 0 0 0 0 0 0 0 0zm-0.01 0l0 0 0 0 0 0zm0.01 0.01l-0.01 0 0 0 -0 -0 -0 -0 -0 -0 -0 -0 -0 -0 -0 -0 -0 -0 -0 -0 -0 -0 -0 -0 0.01 -0 0 0 0 0 0 0 0 0 0 0 0 0 0 0 0 0 0 0 0 0 0 0zm-0 -0l0 0 0 0 -0 -0zm-0 0l0.01 0 0 0 -0 0 -0 0 -0 0 -0 0 -0 0 -0 0 -0 0 -0 0 -0 -0 -0 -0 -0 -0 -0 -0 -0 -0 -0 -0 -0 -0 -0 -0 0.01 -0 0 0 0 0 0 0 0 0 -0 0 -0 -0 -0 0 -0 -0 -0 0 -0 0 -0 0 -0 0 0 0 -0 0 0 -0 0 -0 0 0zm0.01 0l0 0 -0 0 0 -0zm-0.01 -0.02l0.01 -0 0 0 0 0 0 0 0 0 0 0 0 0 -0 0 -0 0 -0 0 -0 0 -0 0 -0.01 -0 0 -0 0 -0 0 -0 0 -0 0 -0 -0 -0 -0 -0 -0 -0 -0 -0 -0 -0 0 0zm-0 -0.03l0.01 -0 0 -0 0 0 0 0 0 0 0 0 0 0 0 0 0 0 0 0 -0.01 0 -0 -0 -0 -0 -0 -0 -0 -0 -0 -0 -0 -0 -0 -0 -0 -0 0 -0zm0 0l0 -0 0 0 -0 -0zm-0.01 -0.02l0.01 -0 0 0 0 0 0 0 0 0 0 0 0 0 0 0 0 0 0 0 -0.01 0 -0 -0 -0 -0 -0 -0 -0 -0 -0 -0 -0 -0 -0 -0 -0 -0 0 0zm0 0l0 0 0 0 0 0zm-0.01 -0.01l0.01 -0 0 0 0 0 0 0 0 0 0 0 0 0 0 0 0 0 0 0 -0.01 0 -0 -0 -0 -0 -0 -0 -0 -0 -0 -0 -0 -0 -0 -0 -0 -0 0 0zm0 0l0 0 0 0 0 0zm-0.01 -0.01l0.01 -0 0 0 0 0 0 0 0 0 0 0 -0.01 0 -0 -0 -0 -0 -0 -0 -0 -0 0 0zm0.01 -0l0 0 -0 -0 0 0zm-0.01 0l-0 -0.01 -0 0 0 0 0 0 0 0 0 0 0 0 0 0 0 0 0 0 0 0 0 0 0 0 0 0 -0.01 0 -0 -0 -0 -0 -0 -0 -0 -0 0 0 -0 -0 -0 -0 -0 -0 0 0 -0 -0 -0 0 0 0 -0 0zm0 0l0 0 -0 0 0 0zm-0 0.01l-0.01 0 0 -0 -0 -0 -0 -0 -0 -0 0 -0 0 -0 0 -0 0 -0 0 -0 0 -0 0 -0 0 -0 0 -0 0 -0 0 -0 0 -0 0 -0 0 0.01 -0 0 -0 0 0 -0 0 -0 -0 0 0 -0 0 0 -0 0 0 0 -0 0 -0 0 -0 0 -0 0 0 0 0 0 0 0 0 -0zm-0.01 0l0 -0 0 0 -0 -0z"/>
   </g>
   <g>
    <path class="fil1" d="M0.41 0.68c0.01,-0 0.01,-0 0.02,-0 0,0 0.01,0 0.01,0 0,0 0,0 0,0 0,0 0,-0 0,-0 0,-0 0,-0 0,-0 0,-0 0,-0 0,-0 0,0 0,0 0,0 0,-0 0,-0 0,0 0,0 0,0 0,0 0,0 0,0 -0,0.01 -0,0 -0,0.01 -0,0.01 -0,0 -0,0 -0,0 -0,0 -0.01,0 -0.01,0 -0,0 -0,-0 -0,-0 -0,-0 -0,-0 -0,-0 -0,-0 -0,-0 -0.01,-0 -0,0 -0,0 -0,0 -0,0 -0,0 -0,0 -0,0 -0.01,0 -0.01,0 -0,0 -0.01,0 -0.01,0 -0,0 -0,0 -0.01,0 -0,0 -0,-0 -0,-0 -0,-0 -0,-0 -0,-0 -0,-0 -0,-0 -0,-0 -0,-0 -0,-0.01 -0,-0.01 -0,-0 -0,-0.01 0,-0.01 0,-0 0,-0 0,-0 0,-0 0,-0 0,-0 0,0 0,0 0.01,0z"/>
    <path id="_1_4" class="fil2" d="M0.43 0.68l-0 0.01 0 0 -0 -0 -0 0 -0 0 -0 0 -0 0 -0 0 -0 0 -0 0 -0 -0.01 0 -0 0 -0 0 -0 0 -0 0 -0 0 -0 0 -0 0 0 0 0zm-0 0l0 0 -0 0 -0 0zm0.01 0l-0 0.01 0 0 -0 -0 -0 -0 -0 -0 -0 -0 -0 -0 -0 -0 -0 -0 -0 -0 0 -0.01 0 0 0 0 0 0 0 0 0 0 0 0 0 0 0 0 0 0zm-0 -0l0 0 -0 -0 0 0zm0 0l0 0.01 -0 0 -0 -0 -0 -0 -0 -0 -0 -0 -0 -0 -0 -0 0 -0.01 0 0 0 0 0 0 0 0 0 0 0 0 -0 0zm0 0.01l-0 0 0 0 0 0zm0 -0.01l0 0.01 0 0 -0 0 -0 0 -0 0 -0 0 -0 0 -0 0 0 -0.01 0 -0 0 -0 0 0 0 -0 0 -0 0 -0 0 0zm-0 0l0 0 -0 0 0 -0zm0 -0l0 0.01 0 0 -0 0 -0 0 -0 0 -0 0 -0 -0.01 0 -0 0 -0 0 -0 0 -0 0 0zm-0 0l0 0 -0 0 0 -0zm0 -0l0 0.01 -0 0 -0 -0 -0 0 -0 -0 -0 0 -0 -0 0 0 -0 -0.01 0 -0 0 -0 0 -0 0 -0 0 -0 0 0 -0 0zm0 0.01l-0 0 0 0 0 0zm0 -0.01l0 0.01 -0 0 -0 0 -0 0 -0 0 -0 0 0 -0.01 0 0 0 0 0 0 0 0 -0 0zm0 0.01l0 0 -0 0 0 0zm0.01 -0l-0.01 0 0 0 0 0 0 0 0 0 0 0 -0 -0 -0 0 -0 -0.01 0 -0 0 0 0 0 0 0 0 0 0 0 0 0zm0 0.01l-0.01 0 0 -0 0 -0 0 -0 -0 -0 0 -0 0 0 0 0 0.01 -0 0 0 0 0 0 0 0 0 0 0 -0 0 0 -0zm-0.01 0l0 -0 0 0 0 0zm0.01 0.01l-0.01 -0 0 -0 0 -0 0 -0 0 -0 0 -0 0.01 0 0 0 0 0 -0 0 -0 0 0 -0zm-0.01 -0l0 -0 0 0 0 0zm0.01 0.01l-0.01 -0 0 0 0 -0 0 -0 0 -0 0 -0 0.01 0 -0 0 -0 0 -0 0 -0 0 0 0zm0 -0l0 0 0 -0 0 -0zm-0 0.01l-0 -0.01 0 0 0 0 -0 0 -0 0 -0 0 0 0 0 -0 0 -0 0 -0 0 -0 0 -0 0.01 0 -0 0 -0 0 -0 0 -0 0 -0 0 -0 0 -0 0 -0 0 -0 0 -0 0 0 0zm-0.01 0l0 -0.01 0 0 0 0 0 -0 0 -0 0 -0 0 -0 0 -0 0 0.01 -0 0 -0 0 -0 0 -0 0 -0 0 -0 0 0 0zm0 -0.01l0 0 0 0 -0 0zm-0.01 0.01l0 -0.01 0 0 0 0 -0 -0 0 0 0 0 0 0 0 0 0 0.01 -0 0 -0 -0 -0 -0 -0 -0 -0 -0 -0 -0 0 0zm0 -0.01l0 0 0 0 -0 -0zm-0.01 0l0 -0.01 -0 -0 0 0 0 0 0 0 0 0 0 0 0 0 -0 0.01 -0 -0 -0 -0 -0 -0 -0 -0 -0 -0 -0 -0 -0 -0zm0 0l-0 -0 0 0 -0 -0zm-0 -0l-0 -0.01 0 0 0 -0 0 0 0 0 0 0 0 0 0 0 0 0 0 0 -0 0.01 -0 -0 -0 -0 -0 -0 -0 -0 -0 -0 -0 0 -0 0 -0 0 0 0zm-0 -0.01l0 0 0 0 0 0zm-0 0.01l-0 -0.01 0 -0 0 -0 0 -0 0 -0 0 -0 0 -0 0 -0 0 0.01 -0 0 -0 0 -0 0 -0 0 -0 0 -0 0 0 -0zm-0 -0.01l0 -0 0 -0 -0 0zm-0 0.01l-0 -0.01 -0 0 0 -0 0 -0 0 -0 0 -0 0 -0 0 0 0 0 0 -0 0 0.01 -0 0 -0 0 -0 0 -0 0 -0 0 -0 0 -0 0 -0 0 -0 0zm0 0l-0 0 0 -0 -0 0zm-0.01 0l-0 -0.01 0 0 0 -0 0 -0 0 -0 0 -0 0 -0 0 -0 0 -0 0 -0 0 0.01 -0 0 -0 0 -0 0 -0 0 -0 0 -0 0 -0 0 -0 0 0 0zm-0.01 0l-0 -0.01 0 0 0 -0 0 -0 0 -0 0 -0 0 -0 0 -0 0 -0 0 -0 0 0.01 -0 0 -0 0 -0 0 -0 0 -0 0 -0 0 -0 0 -0 0 0 0zm-0.01 0l0 -0.01 -0 0 0 -0 0 -0 0 -0 0 -0 0 0.01 -0 0 -0 0 -0 0 -0 0 -0 0zm0 0l0 0 -0 0 0 0zm-0 -0l0 -0.01 -0 0 0 0 0 0 0 0 0 0 0 0.01 -0 0 -0 -0 -0 0 -0 0 -0 0zm0 0l-0 0 0 0 0 0zm-0 -0l0 -0 0 0 0 0 -0 -0 -0 -0 0 0 -0 0.01 -0 -0 -0 -0 -0 -0 -0 -0 0 0zm-0 -0l0.01 -0 0 0 0 0 0 0 0 0 0 0 0 0 0 0 -0 0 -0 -0 -0 -0 -0 -0 -0 -0 -0 -0 -0 -0 0 0zm-0 -0.01l0.01 -0 0 -0 0 0 0 0 0 0 0 0 0 0 0 0 -0.01 0 -0 -0 -0 -0 -0 -0 -0 -0 -0 -0 -0 -0 0 -0zm0 0l0 0 0 -0 0 0zm0 -0.01l0.01 0 0 -0 -0 0 -0 0 0 0 0 0 -0.01 0 -0 -0 0 -0 0 -0 0 -0 0 -0zm-0 0l0 -0 -0 0 0 -0zm0 -0.01l0.01 0 0 -0 0 0 -0 0 -0 0 -0 0 -0 0 -0 0 -0 0 -0 0 -0.01 -0 0 -0 0 -0 0 -0 0 -0 0 -0 0 -0 0 -0 0 -0 0 -0zm-0 0l0 -0 -0 0 0 -0zm0.01 -0l0 0.01 0 0 -0 0 -0 0 -0 0 -0 0 0 -0 -0 0 0 0 0 0 -0.01 -0 0 -0 0 -0 0 -0 0 -0 0 -0 0 -0 0 -0 0 0 0 0zm0.01 0l0 0.01 0 0 -0 0 -0 -0 -0 0 -0 -0 -0 -0 -0 -0 -0 -0 -0 0 0 -0.01 0 0 0 0 0 0 0 0 0 0 0 0 0 0 0 0 0 0z"/>
   </g>
   <g>
    <path class="fil6" d="M0.45 0.92c-0,-0.02 -0,-0.07 -0,-0.09 0,-0.02 0,-0.02 0,-0.02 0,-0 0,-0 0,-0 0,-0 0,-0 0,-0.01 0,-0.01 0,-0.02 0,-0.03 0,-0.01 0,-0.01 0,-0.01 0,-0 0,-0 0,0 0,0 0,0 0,0 0,0 0,0 0,0.02 0,0.02 0,0.07 0,0.09 -0,0.02 -0,0.02 -0,0.02 -0,0 -0,0 -0,0 -0,0 -0.01,0.01 -0.01,0.01 -0,0 -0,0 -0,0.01 0,0 0,0.01 -0,0.02 -0,0 -0,0.01 -0,0.01 -0,0 -0,-0 -0,-0 -0,-0 -0,-0 -0,-0 -0,-0 -0,-0 -0,-0 -0,-0 0,-0 -0,-0.03z"/>
    <path id="_1_5" class="fil2" d="M0.45 0.83l0.01 0 0 0 0 0 0 0 0 0.01 0 0.01 0 0.01 0 0.01 0 0.01 0 0.01 0 0.01 0 0.01 0 0.01 0 0.01 0 0.01 0 0.01 0 0 0 0 -0.01 0 -0 -0 -0 -0 -0 -0.01 -0 -0.01 -0 -0.01 -0 -0.01 -0 -0.01 -0 -0.01 -0 -0.01 -0 -0.01 -0 -0.01 0 -0.01 -0 -0.01 0 -0.01 0 -0 0 -0 0 0zm0 0l0 0 0 0 0 0zm0.01 -0.03l0 0.01 0 0 0 -0 0 -0 0 -0 0 -0 0 -0 0 0 -0 0 -0 0 -0 0 -0 0 -0 0 -0 0 -0 0 -0 0 -0 0 -0 0 -0.01 0 0 -0 0 -0 0 -0 0 -0 0 -0 0 -0 0 -0 0 -0 0 -0 0 -0 0 -0 0 -0 0 -0 0 -0 0 -0 0 -0 0 0zm0 0.01l0 0 0 0 0 0zm0 -0.01l0 0.01 -0 0 -0 0 -0 0 -0 0 -0 0 -0 0 -0 0 -0 -0.01 0 -0 0 -0 0 -0 0 -0 0 0 0 -0 -0 0zm0 0.01l-0 0 0 -0 -0 0zm-0 -0.01l0.01 0 0 -0 -0 0 -0 0 -0 0 -0 0 -0 0 -0 0 -0 0 -0 0 -0 0 -0 0 -0 0 -0 0 -0 0 -0 0 -0 -0.01 0 0 -0 0 -0 0 0 0 -0 0 0 0 -0 0 0 -0 0 -0 0 -0 0 -0 0 -0 0 -0 0 -0 0 -0zm0 0l0 -0 0 -0 -0 0zm0 -0.03l0.01 0 0 0 -0 0 -0 0 -0 0 -0 0 -0 0 -0 0 -0 0 -0 0 -0.01 -0 0 -0 0 -0 0 -0 0 -0 0 -0 0 -0 0 -0 0 -0 0 0zm0.01 0l0 0 0 0 0 0zm0 -0.01l0 0.01 0 0 -0 0 0 -0 0 -0 -0 0 0 -0 -0 0 -0 0 0 -0 -0 0 -0 0 -0 0 -0 0 -0 0 -0 0 -0.01 -0 0 -0 0 -0 0 -0 0 -0 0 -0 0 -0 0 -0 0 -0 0 -0 0 -0 0 -0 0 -0 0 -0 0 -0 0 0zm-0 0l-0 0 0 0 -0 0zm0.01 0l-0 0.01 0 0 -0 -0 -0 0 -0 0 -0 0 -0 -0.01 0 -0 0 0 0 0 0 0 0 0zm-0 0l0 0 0 0 -0 -0zm0.01 0l-0 0.01 0 0 -0 -0 -0 -0 -0 -0 -0 -0 0 -0.01 0 0 0 0 0 0 0 0 0 0zm-0 0l0 0 0 0 -0 -0zm0.01 0.03l-0.01 0 0 0 -0 -0.01 -0 -0.01 -0 -0 -0 -0 -0 -0 -0 -0 -0 -0 -0 -0 -0 -0 0 0 0 0 0 0 0 0 -0 0 0 -0.01 0 0 0 0 0 0 0 0 0 0 0 0 0 0 0 0 0 0 0 0 0 0 0 0 0 0.01 0 0.01 0 0zm0 0l0 0 0 0 0 0zm0 0.09l-0.01 0 0 0 0 -0 0 -0 0 -0.01 -0 -0.01 0 -0.01 -0 -0.01 0 -0.01 -0 -0.01 -0 -0.01 -0 -0.01 -0 -0.01 -0 -0.01 -0 -0.01 -0 -0.01 -0 -0 -0 -0 0.01 -0 0 0 0 0 0 0.01 0 0.01 0 0.01 0 0.01 0 0.01 0 0.01 0 0.01 0 0.01 0 0.01 0 0.01 0 0.01 0 0.01 0 0 0 0 0 0zm-0 0.03l-0 -0.01 -0 0 -0 0 -0 0 -0 0 -0 0 0 -0 0 -0 0 -0 0 -0 0 -0 0 -0 0 -0.01 0 -0.01 0.01 0 -0 0.01 -0 0.01 -0 0 -0 0 -0 0 -0 0 -0 0 -0 0 -0 0 -0 0 -0 0 -0 0 -0 0zm0 -0l0 0 -0 0 0 -0zm-0 0l-0 -0.01 0 -0 0 -0 0 -0 0 -0 0 -0 0 -0 0 -0 0 0.01 -0 0 -0 0 -0 0 -0 0 -0 0 -0 0 0 -0zm-0 -0.01l0 -0 0 -0 -0 0zm-0.01 0.02l-0.01 -0 0 0 0 -0 0 -0 0 -0 0 -0 0 -0 0 -0 0 -0 0 -0 0 0.01 -0 0 -0 0 -0 0 -0 0 -0 0 -0 0 -0 0 -0 0 0 0zm-0 0.01l-0.01 0 0 0 -0 -0 0 -0 0 -0 0 -0 0 -0 0 -0 0 -0 0 -0 0 -0 0 -0 0.01 0 -0 0 -0 0 0 -0 0 -0 0 0 -0 0 -0 0 -0 0 0 0 0 0 0 0zm-0 0.02l-0.01 -0 0 0 0 -0 0 -0 0 -0 0 -0 0 -0 -0 -0 0 -0 -0 -0 0.01 -0 0 0 0 0 0 0 0 0 -0 0 -0 0 -0 0 -0 0 0 0zm-0.01 -0l0 0 0 0 0 0zm0 0.01l-0 -0.01 0 0 0 0 0 0 -0 0 -0 0 -0 0 0 0 -0 0 0 -0 0 -0 0 -0 0 -0 0 -0 0 -0 0 -0 0.01 0 -0 0 -0 0 -0 0 -0 0 -0 0 -0 0 -0 0 -0 0 -0 0 -0 0 -0 0 -0 0 -0 0 -0 0 0 0zm-0 -0.01l0 0 -0 0 0 -0zm-0 0.01l0 -0.01 0 0 0 0 0 0 0 0 0 0 0 0.01 -0 0 -0 -0 -0 -0 -0 -0 0 0zm-0 -0l0.01 -0 -0 -0 0 -0 -0 -0 -0 -0 -0 -0 0 0 0 0 -0 0.01 -0 -0 -0 -0 -0 -0 -0 -0 -0 -0 -0 -0 -0 -0zm0 0l-0 -0 -0 -0 0 0zm-0 -0l0.01 -0 0 0 0 0 0 0 0 0 0 -0 -0.01 0 -0 -0 -0 -0 -0 -0 -0 -0 0 0zm0 0l0 0 0 0 0 0zm-0 -0.03l0.01 -0 0 0 0 0.01 0 0.01 0 0 0 0 0 0 0 0 0 0 0 0 -0.01 0 -0 -0 0 -0 0 -0 0 -0 -0 -0 0 -0 -0 -0.01 -0 -0.01 0 0z"/>
   </g>
   <g>
    <path class="fil3" d="M0.47 0.88c-0,-0.01 -0,-0.02 -0,-0.03 0,-0.01 0,-0.01 0,-0.01 0,-0 0,-0 0,-0 0,-0 0.01,-0 0.01,-0 0,0 0,0 0,0 0,0 0,0 0,0 0,0 0,0 0,0.01 0,0.01 0,0.02 0,0.03 -0,0.01 -0,0.01 -0,0.01 -0,0 -0,0 -0.01,0 -0,0 -0.01,0 -0.01,0 -0,0 -0,0 -0,0 -0,-0 -0,-0 -0,-0 -0,-0 -0,-0 -0,-0.01z"/>
    <path id="_1_6" class="fil2" d="M0.46 0.84l0.01 0 0 0 -0 0 -0 0 0 0 0 0 0 0 0 0 0 0 0 0 -0.01 0 -0 -0 -0 -0 -0 -0 -0 -0 -0 -0 0 -0 0 -0 0 -0 0 0zm0 -0.01l0 0.01 -0 0 -0 0 0 -0 0 -0 -0 0 -0 0 0 -0 -0 0 -0 0 -0 0 -0 0 -0 0 -0 0 -0.01 -0 0 -0 0 -0 0 -0 0 -0 0 -0 0 -0 0 -0 0 -0 0 -0 0 -0 0 -0 0 -0 -0 0zm0 0.01l-0 0 -0 0 0 -0zm0 -0.01l0 0.01 0 0 -0 0 -0 0 -0 0 -0 0 -0 0 0 0 -0 -0.01 0 -0 0 -0 0 -0 0 -0 0 -0 0 -0 0 0zm0 0.01l0 0 0 0 0 0zm0.01 -0.01l-0 0.01 0 0 -0 0 -0 0 -0 0 -0 0 -0 0 -0 0 -0 -0.01 0 -0 0 -0 0 -0 0 -0 0 -0 0 0 0 0zm0.01 0l-0 0.01 0 0 -0 -0 -0 -0 0 0 0 0 -0 -0 -0 0 0 -0.01 0 0 0 0 0 0 0 0 0 0 0 0 0 0zm0 0l-0 0.01 -0 -0 -0 -0 0 0 -0 -0 -0 -0 -0 -0 -0 -0 0 -0.01 0 0 0 0 0 0 0 0 0 0 0 0 -0 -0zm-0 0.01l-0 -0 -0 -0 0 0zm0.01 0.01l-0.01 0 0 -0 -0 -0 -0 -0 -0 -0 -0 -0 -0 -0 -0 -0 -0 -0 0 0 -0 -0 0 0 0 -0.01 0 0 0 0 0 0 0 0 0 0 0 0 0 0 0 0 0 0 0 0 0 -0zm-0.01 0l0 -0 0 0 -0 -0zm0.01 0.03l-0.01 -0 0 0 0 -0 0 -0 0 -0 0 -0 0 -0 -0 -0 -0 -0 -0 -0 0.01 -0 0 0 0 0 0 0 0 0 -0 0 0 0 -0 0 -0 0 0 0zm0 0l0 0 0 0 0 0zm-0 0.01l-0 -0.01 0 0 0 0 -0 0 -0 0 -0 0 -0 0 0 -0 0 -0 0 -0 0 -0 0 -0 0 -0 0 -0 0.01 0 -0 0 -0 0 -0 0 -0 0 -0 0 -0 0 -0 0 -0 0 -0 0 -0 0 -0 0 -0 0 0 0zm-0.01 0l-0 -0.01 0 0 0 -0 0 -0 0 -0 0 -0 0 -0 0 -0 0 0.01 -0 0 -0 0 -0 0 -0 0 -0 0 -0 0 0 0zm0 0l0 0 0 0 0 0zm-0.01 0l-0 -0.01 -0 0 0 -0 0 -0 0 -0 0 -0 0 -0 0 -0 0 -0 0 -0 0 0.01 -0 0 -0 0 -0 0 -0 0 -0 0 -0 0 -0 0 -0 0 -0 0zm0 0l-0 0 0 -0 -0 0zm-0.01 0l0 -0.01 -0 -0 -0 0 0 -0 0 0 0 0 0 -0 0 -0 0 0.01 -0 0 -0 0 -0 0 -0 0 -0 0 -0 -0 -0 -0zm0 0l-0 -0 0 0 0 0zm-0 -0.01l0.01 -0 -0 -0 0 0 0 0 0 0 -0 -0 -0 -0 -0 -0 -0 -0 -0 -0 -0 0.01 -0 -0 -0 -0 -0 -0 -0 -0 -0 -0 -0 -0 -0 -0 -0 -0 -0 -0zm0 0l-0 -0 -0 -0 0 0zm-0 -0.01l0.01 -0 0 -0 0 0 0 0 0 0 0 0 0 0 0 0 0 0 0 0 -0.01 0 -0 -0 -0 -0 -0 -0 -0 -0 -0 -0 -0 -0 -0 -0 -0 -0 0 -0zm0 0l0 0 0 -0 0 0z"/>
   </g>
   <path class="fil2" d="M0.47 0.84l0.01 0c0,0 0,0 0,0.01l0 0.03 -0.01 0c-0,-0.01 -0,-0.02 -0,-0.03 -0,-0 0,-0 0,-0l-0.01 -0 0 -0.01z"/>
   <path class="fil7" d="M0.2 1.07c-0,-0.01 -0.01,-0.01 -0.02,-0.01 -0.01,0 -0.02,0 -0.03,0 0.01,0.01 0.04,0.01 0.05,0z"/>
   <path class="fil7" d="M0.44 1.07c-0.01,0 -0.04,-0.01 -0.05,0 0.01,0.01 0.04,0 0.05,-0z"/>
   <path class="fil1" d="M0.24 1.02c0,0.02 0,0.03 -0.01,0.03l0 0c0,0 0.02,0.01 0.02,0.01 0.02,0.01 0.05,0.01 0.07,0 0,-0 0.01,-0 0.01,-0.01 0.01,-0 0.01,-0 0.01,-0.01 -0.01,-0 -0.01,-0.01 -0.01,-0.03 0,-0.01 0,-0.01 0,-0.01 -0.02,0 -0.01,0 -0.03,0 -0,-0 -0.04,-0 -0.04,0 -0.02,0 -0.02,-0 -0.03,-0 0,0.01 0,0.01 0,0.01z"/>
   <path class="fil1" d="M0.33 1.07c-0.05,0.02 -0.08,-0.01 -0.09,-0.01 0.01,0.01 0.01,0.02 0.02,0.03 0.03,0.02 0.03,0.02 0.04,0.02 0.02,0 0.02,0.01 0.04,-0.02 0.01,-0.01 0.01,-0.02 0.02,-0.03l-0.03 0.01z"/>
   <path class="fil1" d="M0.37 1.05c-0,0 -0,0.01 -0,0.01l0.02 0c0,-0 0,-0.01 0,-0.01l-0.02 0z"/>
   <path class="fil1" d="M0.42 1.05c-0.01,-0 -0.02,-0 -0.02,0.01 0.01,-0.01 0.03,0 0.05,0 -0,-0.01 -0.02,-0.01 -0.02,-0.01z"/>
   <path class="fil1" d="M0.22 1.06c-0,-0 -0,-0.01 -0,-0.01l-0.02 0c0,0 0,0.01 0,0.01l0.02 0z"/>
   <path class="fil1" d="M0.19 1.06c0,-0 0,-0.01 -0,-0.01 -0,-0 -0,-0 -0.01,-0 -0,-0 -0.01,-0 -0.01,0 -0.01,0 -0.02,0.01 -0.02,0.01 0.02,0 0.01,-0 0.02,-0 0.01,-0 0.02,-0 0.02,0z"/>
   <path class="fil1" d="M0.21 0.33c0,-0.01 0,-0.02 -0,-0.02 -0.01,0 -0.01,0 -0.01,0.01 -0,0 -0.01,0.01 -0.01,0.01 0,-0 0.01,-0.01 0.01,-0.01 0,0 0,0 0.01,0l0 0 0 0z"/>
   <path class="fil1" d="M0.38 0.31c-0,0.01 -0,0.01 -0,0.02l0 -0c0.01,-0.01 0.01,-0.01 0.02,-0 -0,-0 -0.01,-0.02 -0.02,-0.02z"/>
   <g>
    <path class="fil8" d="M0.26 1.16l0.04 0c0.01,0 0.02,-0 0.03,-0 -0.01,0.01 -0.01,0.03 -0.04,0.03 -0,0 -0.01,-0 -0.01,-0 -0,-0 -0.01,-0 -0.01,-0.01 -0.01,-0.01 -0.01,-0.01 -0.01,-0.02zm0.33 -0.93l0 0c-0,0 -0,0.01 -0,0.01 -0.02,0.02 -0.02,0.02 -0.05,0.02 -0.01,-0 -0.02,-0 -0.02,-0 -0.01,-0 -0.02,-0 -0.03,-0.01 -0.01,-0.01 -0,-0.01 -0.02,-0.01 0,0 0.01,0.01 0.01,0.01 0.01,0.01 0.04,0.02 0.06,0.02 0.01,0 0.01,-0 0.02,-0 0.01,0 0.01,0.01 0.01,0.01 -0,0.02 -0.02,0.01 -0.03,0.01 -0.02,-0 -0.04,-0.01 -0.06,-0.02l0 0.01c0.01,0 0.02,0.01 0.02,0.01 0.01,0.01 0.03,0.02 0.04,0.02 0,0 0,-0 0.01,0 0,0 0,-0 0,0l0 0c0,0 0.01,0 0.01,0.01 0,0 -0,0.02 -0.01,0.02 -0,0.01 -0.01,0 -0.01,0 -0,-0 -0,0 -0,0 -0.01,0 -0.01,-0.01 -0.02,-0.01 -0.01,-0.01 -0.05,-0.02 -0.06,-0.02 -0.01,0 -0.01,0.01 -0.02,0.01 -0,0 -0.01,-0.01 -0.02,-0.01 -0.01,-0 -0.01,-0.01 -0.01,-0.02 -0.01,-0.01 -0,-0.01 -0.01,-0.01 -0,-0 -0.01,-0.01 -0.01,-0.01 -0.01,-0 -0.02,0.01 -0.03,0.01 0,0 -0,0.01 -0,0.01 -0.01,0.01 -0,0.01 -0,0.03 0,0 0.01,0.01 0.01,0.01 0,-0.01 -0.01,-0.04 0.01,-0.04 0.02,0 0.04,0.04 0.05,0.06 0.01,0.01 0.01,0.03 0.01,0.04 0.01,0.03 0.01,0.05 -0,0.07 0,0 0,0.01 0,0.01 -0,0.02 -0,0.03 -0.01,0.05 -0,0.01 -0.01,0.04 -0.02,0.05 0,0 0.01,0 0.01,0 0,0.01 0,0.02 -0,0.02 -0,0.01 -0.01,0.01 -0.02,0.01 0,0 0,0 0,0.01 0,0.02 0,0.03 -0,0.05 -0,0.01 -0.01,0.02 -0.01,0.02 0,0 0.01,0.02 0.01,0.03 0.02,0.06 0.02,0.16 0,0.22 -0.01,0.03 -0.02,0.07 -0.03,0.09 0.01,0 0.01,0 0.01,0 0.01,0 0.01,-0.02 0.05,-0 0.06,0.03 -0.05,0.05 -0.05,0.03l-0.03 -0c0,0.01 -0,0.02 -0,0.02 0,-0 0.01,-0 0.01,-0 0,0 0.01,0 0.01,0.01l-0 0.03c-0,0.03 -0,0.04 -0.04,0.04 -0,0.01 -0.01,0.02 -0.01,0.02 -0.01,0.01 -0.01,0.01 -0.02,0.01l-0 0 -0.01 0c-0.01,-0 -0.02,-0 -0.03,-0.01 -0,-0 -0.01,-0.01 -0.01,-0.01 -0,-0 -0,-0.01 -0,-0.01 -0.02,0 -0.03,-0 -0.03,-0.02 -0,-0.01 -0.01,-0.03 -0.01,-0.05 0,-0.01 0.01,-0.01 0.02,-0.01 -0,-0.01 -0,-0.01 -0,-0.02 -0.01,0 -0.01,0 -0.01,0 -0,0 -0.01,-0 -0.01,-0 -0,0.03 -0.1,-0 -0.05,-0.03 0.04,-0.02 0.04,0 0.05,0l0.01 -0c-0,-0.01 -0.01,-0.01 -0.01,-0.02 -0,-0.01 -0.01,-0.02 -0.01,-0.02 -0.03,-0.07 -0.03,-0.17 -0.02,-0.24 0,-0.01 0.01,-0.02 0.01,-0.03 0,-0.01 0.01,-0.02 0.01,-0.03 0,-0 -0.01,-0.02 -0.01,-0.02 -0,-0.02 -0,-0.03 -0,-0.04l0 -0.02c-0.01,0 -0.01,0 -0.02,-0.01 -0,-0 -0,-0.01 -0,-0.01 0,-0.01 0,-0.01 0.01,-0.01 -0,-0 -0,-0.01 -0,-0.01l-0.01 -0.04c-0,-0.01 -0.01,-0.03 -0.01,-0.05 -0,-0.01 -0,-0.01 0,-0.01 -0.01,-0.02 -0.01,-0.05 -0,-0.07 0,-0.01 0.01,-0.03 0.01,-0.04 0.01,-0.01 0.03,-0.06 0.04,-0.06 0.02,0 0.01,0.03 0.01,0.04 0,-0 0,-0 0.01,-0 0.01,-0.01 0,-0 0,-0.02 0,-0.01 -0.01,-0.01 -0.01,-0.02 -0.01,-0 -0.02,-0.01 -0.03,-0.01 -0,0 -0.01,0 -0.01,0.01 -0,0.01 -0,0 -0.01,0.01 0,0.01 -0,0.01 -0.01,0.02 -0,0 -0.01,0.01 -0.02,0.01 -0.01,0 -0.01,-0.01 -0.02,-0.01 -0,0 -0.04,0.01 -0.04,0.01 -0.01,0 -0.01,0 -0.02,0.01 -0,0 -0.01,0.01 -0.01,0.01 -0.01,0 -0,-0 -0.01,0 -0.01,0 -0.01,-0.02 -0.01,-0.02 0,-0 0.01,-0.01 0.01,-0.01 0.01,-0 -0,0 0,-0 0,-0 0,-0 0.01,-0 0.01,-0 0.01,-0 0.02,-0.01l0.02 -0.01c0,-0 0.02,-0.01 0.02,-0.01l0 -0.01c-0.02,0.01 -0.03,0.01 -0.06,0.02 -0,0 -0.01,0 -0.01,0 -0.03,0.01 -0.03,-0.02 -0.01,-0.02 0.01,0 0.01,0 0.01,0 0.01,0 0.03,-0.01 0.04,-0.01 0.01,-0 0.03,-0.01 0.03,-0.02 -0.01,0 -0.01,-0 -0.02,0 -0,0 -0,0 -0,0 -0,0 -0,0 -0,0 -0.01,0.01 -0.01,0.01 -0.02,0.01 -0.01,0 -0.02,0 -0.02,0 -0.03,0 -0.03,0 -0.04,-0.01 -0.01,-0.01 -0.01,-0.01 -0.01,-0.02l0 -0c0,-0 0,-0.01 0,-0.01 0,-0.01 0.02,-0.01 0.03,-0.01 0.01,-0 0.03,-0.01 0.04,-0.01 0.01,0 0.03,0.01 0.04,0.02 0,0.01 0.01,0.01 0.02,0.01 0.01,0 0.01,0 0.01,0 0.01,0 0.02,-0 0.03,-0 0.01,0 0,0 0.01,0 0,-0 0,-0 0.01,-0 0,-0 0.02,-0.01 0.02,-0.01 -0.01,-0.02 0,-0.03 0.01,-0.04l-0 0c0,-0.01 -0,-0.03 0.01,-0.03 0,0 0.01,-0 0.01,0 0.01,-0 0.01,-0.01 0.01,-0.02 -0,-0.01 0,-0.02 0,-0.03 0,-0.01 0,-0.02 0,-0.03 0,-0.01 0.02,-0.01 0.02,-0.03 0,-0.01 -0,-0.03 0,-0.04 0.01,-0.02 0.04,-0.03 0.05,-0.02 0.01,0.01 0.01,0.03 0.01,0.04 0,0.01 -0,0.02 0,0.02 0.01,0.01 0.01,0.01 0.01,0.04 0,0.01 0,0.03 0,0.04 0,0 0,0.01 0.01,0.01 0,-0 -0,-0 0,-0 0.02,0 0.02,0.01 0.02,0.03l-0 0c0,0.01 0.02,0.03 0.01,0.04 0.01,0 0.02,0.01 0.03,0.01 0,0 0,0 0,-0 0.01,-0 0.02,0.01 0.03,0l0.01 -0c0.01,-0 0.02,-0 0.02,-0.01 0,-0.01 0.01,-0.01 0.01,-0.02 0.02,-0.01 0.02,-0.01 0.05,-0 0.01,0 0.03,0.01 0.04,0.01 0,0 0.01,0.01 0.01,0.02zm-0.29 0.93l-0.03 0c-0.01,0 -0.01,-0 -0.01,-0 -0.01,-0 -0.01,0 -0.02,0 -0,-0 -0.01,-0 -0.02,-0 -0,-0 -0.01,-0.05 -0.01,-0.05 0.01,0 0.01,0 0.02,0 0.01,0 0.01,-0 0.02,0 0,0 0.01,0.01 0.01,0.01 0.02,0.01 0.02,0 0.03,0 0.01,0 0.01,0 0.03,-0 0.01,-0 0.01,-0 0.01,-0.01 0,-0 0.03,-0 0.04,-0 -0,0.01 -0.01,0.05 -0.01,0.05 -0,0 -0.02,0 -0.03,0 -0.01,0 -0.01,0 -0.01,0 -0.01,0 -0.01,0 -0.02,0zm0.05 -0.07l-0 0 0.01 -0.01c-0,0 -0,0 -0,0.01zm-0.12 -0.01l0.01 0.01 -0.01 0c-0,-0 -0,-0 -0,-0.01zm0.16 -0.01c0,-0.02 0.04,-0 0.05,-0 -0.01,0.01 -0.04,0.01 -0.05,0zm-0.25 -0c0.01,0 0.02,-0 0.03,-0 0.01,0 0.02,0 0.02,0.01 -0.01,0.01 -0.04,0 -0.05,-0zm0.09 -0.01c0.01,0 0.05,0.03 0.09,0.01l0.03 -0.01c-0.01,0.01 -0,0.02 -0.02,0.03 -0.03,0.02 -0.03,0.02 -0.04,0.02 -0.02,0 -0.02,0.01 -0.04,-0.02 -0.01,-0.01 -0.01,-0.02 -0.02,-0.03zm0.16 -0c0,-0.01 0.01,-0.01 0.02,-0.01 0.01,0 0.02,0.01 0.02,0.01 -0.02,0 -0.03,-0.01 -0.05,0zm-0.01 0.01l-0.02 0c0,-0 0,-0.01 0,-0.01l0.02 0c-0,0 -0,0.01 -0,0.01zm-0.19 -0.01l0.02 0c0,0 0,0.01 0,0.01l-0.02 0c-0,-0 -0,-0.01 -0,-0.01zm-0.05 0.01c0,-0.01 0.02,-0.01 0.02,-0.01 0,-0 0.01,-0 0.01,-0 0,0 0,0 0.01,0 0,0 0,0 0,0.01 -0.01,-0 -0.01,-0 -0.02,-0 -0.01,0 -0.01,0 -0.02,0zm0.22 -0.01l0 0c0,0 -0,-0 -0,-0zm-0.14 0l0 0c-0,0 -0,-0 -0,-0zm0.02 -0.05c0.02,0 0.01,0 0.03,0 0,-0 0.04,-0 0.04,0 0.02,0 0.02,-0 0.03,-0 0,0.01 -0,0.01 -0,0.01 0,0.02 -0,0.03 0.01,0.03 0,0.01 -0,0.01 -0.01,0.01 -0,0 -0.01,0 -0.01,0.01 -0.02,0.01 -0.05,0.01 -0.07,0 -0,-0 -0.02,-0.01 -0.02,-0.01l0 -0c0.01,-0 0.01,-0.01 0.01,-0.03 0,-0.01 -0,-0.01 -0,-0.01zm-0.05 -0.19c0,-0.03 0,-0.05 0.01,-0.08 0,-0.03 0.01,-0.05 0.01,-0.07 0,-0.03 0,-0.01 0.01,-0.03 0,-0.02 0.01,-0.03 0.02,-0.04 0,-0 0.01,-0.01 0.02,-0.01 0.01,-0 0.05,-0 0.06,-0 0.02,0 0.03,-0 0.04,0.02 0.01,0.01 0.01,0.04 0.02,0.05 0,0.01 0,0.01 0,0.02 0,0.02 0.01,0.05 0.01,0.07 0,0.02 0.01,0.08 0.01,0.1 -0,0.01 -0,0.01 -0,0.02 -0,0.03 -0.01,0.12 -0.04,0.15 -0.01,0.01 -0.04,0.01 -0.06,0.01 -0.07,0 -0.07,0.01 -0.09,-0.06 -0.01,-0.04 -0.02,-0.09 -0.02,-0.13zm0.21 -0.07l0 0.01c0.02,0.06 0.01,0.15 -0,0.21 -0,0.02 -0.01,0.03 -0.01,0.05 -0.01,0.02 -0.01,0.03 -0.02,0.04l-0 0.01c0,-0.01 -0,-0.01 -0.01,-0.01 0,-0.01 -0,-0 -0,-0.02l0 -0.02c0.02,-0.01 0.03,-0.05 0.04,-0.07 0.01,-0.05 0.01,-0.12 0.01,-0.17 -0,-0 -0,-0.01 -0,-0.01zm-0.21 0.06c0,0.06 0,0.1 0.02,0.15 0,0.02 0.01,0.05 0.03,0.05 0,0 0,0.01 0,0.01l0 0.02c-0,0 -0,0 -0,0.01 -0.01,0 -0.01,0 -0.01,0.01 -0,-0 -0,-0.01 -0,-0.01 -0.01,-0.03 -0.02,-0.05 -0.03,-0.08 -0.01,-0.05 -0.02,-0.12 -0.01,-0.18 0,-0.01 0,-0.01 0,-0.02 0,-0 0,-0.01 0,-0.01 0,-0 0,-0 0,-0.01l0 -0c0,-0 0,-0 0,-0 0,-0 0,-0 0,-0 0,0.01 -0,0.04 -0,0.06zm0.23 -0.18l-0.01 0c0,-0.01 0,-0.01 0,-0.02l0 0c0,0.01 -0,0.01 -0,0.02zm-0.24 -0.02l0 0c0,0.01 0,0.01 0,0.02l-0.01 0c0,-0 -0,-0.01 -0,-0.02zm0.21 -0.06c0,0 0,0.01 0,0.01l0.01 0.07c0,0.01 0,0.04 -0,0.05 -0,0.01 -0,0.01 -0,0.01 -0,-0 -0,-0 -0,-0 0,0 -0,-0 -0,-0 -0,-0 -0,-0 -0,-0l-0 -0.01c-0.01,-0.03 -0.01,-0.02 -0.01,-0.06 0,-0.02 -0,-0.05 0,-0.07 0,-0 0,-0 0,-0.01zm-0.19 0.15c-0,-0.02 -0.01,-0.01 -0.01,-0.04 0,-0.01 -0,-0.01 0,-0.02 0,-0 0,-0.01 0,-0.01l0 -0.03c0,-0.01 0,-0.05 0.01,-0.06 0,0 0,0.01 0,0.02 0,0.03 -0,0.05 -0,0.08 0,0.01 -0.01,0.04 -0.01,0.05 -0,0 -0,0 -0,0l-0 0zm0.2 -0.13c0,-0.01 -0,-0.02 -0,-0.02 0,-0 0,-0 0.01,-0 0,-0 0,-0 0.01,-0.01 0,0.01 -0,0.02 -0,0.02 -0,0 -0,0 -0,0 -0,0 -0,0 -0,0zm-0.21 -0.03c0,0 0,0 0,0.01 0,0 0,0 0.01,0 -0,0.01 -0,0.01 -0,0.02 -0,-0 -0.01,-0.03 -0.01,-0.03zm0.22 0.07c-0,-0.03 -0,-0.02 0.01,-0.04 0.01,-0.02 0,-0.02 0.01,-0.04 0,-0.01 -0,-0 0,-0.01l0.02 -0.02c0,0.02 -0.01,0.04 -0.01,0.06 -0,0.01 -0.01,0.05 -0.02,0.05zm-0.24 -0.11c0,0 0,0 0,0l0 0.01c0,0.01 0.01,0.01 0.01,0.02 0,0 0,0.01 0,0.01 0,0.01 0.01,0.05 0.01,0.05l-0 0.02c-0,-0 -0,-0 -0,-0 -0.01,-0.02 -0.03,-0.09 -0.03,-0.11zm0.08 -0.09c0,-0.03 -0,-0.04 0.01,-0.07 0,-0 0,-0 0,-0 0.01,-0.01 0.07,-0.01 0.08,-0 0.01,0 0.02,0.04 0.02,0.05l0 0.02c0,0.02 -0,0.07 -0.01,0.09l-0.01 0.08c-0.01,-0 -0.07,-0 -0.08,0 -0.01,-0.02 -0.02,-0.14 -0.02,-0.17zm0.14 -0.04c0,-0.02 0,-0.02 0,-0.03 0,0 0.01,0 0.01,0.01 0,0 0.01,0.01 0.01,0.01 0.01,0.01 0.01,0.02 0.02,0.02 0.01,0.01 0.01,0.05 0.01,0.07 0,0.01 -0,0.02 -0.01,0.02 -0.01,0.01 -0.03,0.05 -0.04,0.06 -0.01,-0.01 -0,-0.03 -0,-0.04 -0,-0.03 0,-0.06 -0,-0.09l-0 -0.04zm-0.18 0.08l0 0.05c-0,0.01 0,0.04 -0,0.04 -0.01,-0 -0.03,-0.05 -0.04,-0.06 -0.01,-0.01 -0.01,-0.02 -0.01,-0.03 0,-0.01 0.01,-0.06 0.01,-0.07l0.03 -0.04c0,-0 0,-0 0.01,-0 0,0 0,0 0,0.01 0,0 0,0 0,0.01 0,0.01 0,0.03 -0,0.05l-0 0.05zm0.14 -0.11c0,0 0.01,0.01 0.01,0.01 0.02,0.01 0.01,0.02 0.01,0.03 0,0.01 0,0.01 0,0.02l0 0.04c-0,0.01 0,0.03 0,0.04 0,0.01 -0,0.01 -0,0.02 0,0.01 0,0.01 -0,0.02 -0,0.02 0,0.02 0,0.03 -0,0 -0,0 -0,0.01 -0,0.01 -0,0.03 -0,0.04 0,0.01 0,0.03 0,0.04 -0,-0 -0,-0.01 -0,-0.01 -0,-0.01 -0,-0.01 -0.01,-0.01 -0,-0.01 -0.01,-0.02 -0.02,-0.02 0,-0 0,-0.02 0,-0.03 0.01,-0.04 0.02,-0.15 0.01,-0.18 -0,-0.01 -0.01,-0.02 -0.01,-0.02zm-0.11 0c-0,0.01 -0.01,0.02 -0.01,0.06 0,0.04 0.01,0.11 0.01,0.15 0,0.01 0,0.03 0,0.03 -0.02,0 -0.02,0.02 -0.03,0.03 -0,0 -0,0.01 -0,0.01 -0,0 -0,0.01 -0,0.01 0,-0.01 -0,-0.03 0,-0.04 0,-0.01 0,-0.03 -0,-0.04 -0,-0 -0,-0 -0,-0.01 -0,-0.01 0,-0.01 0,-0.03l-0 -0.04c0,-0.01 0,-0.03 0,-0.04l0.01 -0.07c0,-0 0,-0 0,-0 0.01,-0.01 0.01,-0.01 0.02,-0.02zm-0.06 0zm0.22 -0l-0.22 0zm0.22 -0l0 0c0,0 -0,-0 -0,-0zm-0.22 0zm0.16 -0l-0.16 0zm0.16 -0zm-0.11 0l0.11 0zm-0.11 0zm0.16 -0l-0.16 0zm0.16 -0zm-0.21 0l0.21 0zm-0.21 0zm0.21 -0l-0.21 0zm0.21 -0c0,0 0,0 0,0 -0,-0 -0,-0 -0,-0zm-0.21 0c0,-0 -0,-0 0,-0 -0,0 0,0 -0,0zm0.36 0c-0,-0 -0,-0 -0.01,-0l0 -0.02c0,0 0,0 0.01,0 -0,0 -0,0.01 -0,0.01zm-0.52 -0.01c0,-0 0,-0 0.01,-0 0,0 0,0.01 0,0.01 0,0 0,0.01 0,0.01 -0,0 -0,0 -0.01,0l-0 -0.01zm0.37 0.01c-0.01,-0.01 -0.01,-0.01 -0.02,0.01 -0,0 -0,0 -0,0 0,-0.01 -0,-0.02 0,-0.03 0.01,0 0.02,0.02 0.02,0.02zm-0.21 0c0,-0 0.01,-0.01 0.01,-0.01 0,-0 0.01,-0.01 0.01,-0.01 0,0.01 0,0.02 0,0.03 -0,-0 -0,-0 -0,-0l-0 -0.01c-0,-0 -0,-0 -0.01,-0 -0.01,-0 -0.01,0 -0.01,0.01zm0.16 -0c-0,-0 -0.01,-0.01 -0.01,-0.01l0 -0.01c0.01,0 0,0 0.01,0 0,0.01 -0,0.01 -0,0.02zm-0.12 -0.02c0.01,0 0.01,0 0.01,-0 0,0.01 0,0.01 -0,0.02 -0,0 -0,0 -0.01,0 0,-0.01 -0,-0.01 -0,-0.02zm0.1 0.01c-0,-0 -0.01,-0 -0.02,-0 0,-0.01 0.01,-0.01 0.02,-0.01 0,0.01 -0,0.01 -0,0.01zm-0.08 -0.01c0.01,-0 0.01,0 0.02,0.01 -0.01,0 -0.01,0 -0.02,0 -0,-0 -0,-0.01 -0,-0.01zm0.22 -0c0,-0 0,-0.01 0,-0.01 0.01,0 0.04,0.02 0.05,0.02 0,0 0.01,0.01 0.02,0.01 -0,0 -0,0.01 -0,0.02 -0.01,-0.01 -0,-0.01 -0.03,-0.02 -0.01,-0 -0.03,-0.01 -0.04,-0.01l0 -0zm-0.42 0.03c0,-0.01 -0,-0.01 -0,-0.02 0.01,0 0.06,-0.03 0.07,-0.03 0,0.01 0,0 0,0.01 -0.01,0 -0.05,0.01 -0.06,0.02 -0,0 -0,0 -0.01,0.01zm0.23 -0.04c0,-0.01 0.01,-0 0.01,-0 0.01,0 0,0.01 0,0.01 -0.01,0 -0.01,0 -0.01,-0.01zm0.07 -0c-0,0.01 -0.01,0 -0.01,0l0 -0.01c0,0 0.01,0 0.01,0zm-0.07 0.02l0.01 0c0.01,0 0.01,-0.01 0.01,-0.02l0.01 0c0,0 0,0 0,0 -0.01,0 -0.01,0 -0.01,0.01 -0,0 -0,0 -0,0.01 -0,0.01 -0.01,0 -0.02,0 -0.01,0 -0.01,-0.01 -0.02,-0.02 0,-0 0,-0 0,-0l0.01 0c-0,0.01 0,0.02 0.01,0.02zm-0.06 -0.02c0.01,0 0.01,-0 0.01,-0l0 0.01c-0.01,0 -0.01,0 -0.01,-0zm0.13 0zm-0.13 0l0.13 0zm-0.13 0zm0.24 0l-0.24 -0zm0.24 0c-0.02,0 -0.01,0.02 -0.03,0.01 -0.01,-0 -0.01,-0.01 -0,-0.03 0.01,-0.02 0.01,-0.02 0.03,-0.01 0.01,0 0.01,0.01 0.01,0.01l-0.01 0.02zm-0.19 -0.01l-0.01 0 0 -0.01c0.01,0 0.02,-0 0.03,-0 0.01,0 0.02,0 0.03,0l0 0.01 -0.01 0c-0.01,0 -0.01,-0 -0.01,-0 -0.01,0 -0.01,0 -0.01,0zm-0.12 0.01c0,0.01 -0.01,0.01 -0.02,0.01 -0,0 -0.01,-0.01 -0.02,-0.01l-0.01 -0.02c-0,-0 0,-0.01 0,-0.01 0,-0.01 0.01,-0.01 0.02,-0.01 0.01,-0 0.02,0.03 0.02,0.04zm0.17 -0.03c0,-0.01 0,-0.01 0.01,-0.01 0,0.01 0,0.02 -0,0.03 -0,0 -0,0 -0,0.01 -0,-0.01 -0,-0.01 -0,-0.03zm-0.07 0.03c-0.01,-0 -0.01,-0.01 -0.01,-0.01l0 -0.02c0.01,0 0.01,0.01 0.01,0.02 -0,0 -0,0.01 -0,0.01zm0.3 -0.01c-0.01,0 -0.01,-0 -0.01,-0 0,-0 0.01,-0 0.01,-0 0,0 0,-0 0,0 -0,0 -0,0 -0,0zm-0.52 -0c0,-0 0.01,-0 0.01,0 0,0 0,0 0,0 -0,0 -0.01,0 -0.01,-0 -0,-0 -0,-0 -0,-0zm0.48 -0l0 0c0,0 -0,-0 -0,-0zm-0.43 0l0 0c0,0 -0,-0 -0,-0zm0.42 -0c0,-0 0,0 0,0 -0,0 -0,0 -0,-0zm-0.42 0c0,-0 0,0 0,0 0,0 -0,0 -0,-0zm0.42 -0c0,-0 0,0 0,0 0,0 -0,0 -0,-0zm-0.41 0c0,-0 0,0 0,0 0,0 -0,0 -0,-0zm0.41 -0c0,-0 0,0 0,0 0,0 -0,0 -0,-0zm-0.41 0c0,-0 0,0 0,0 -0,0 -0,0 -0,-0zm0.4 -0l0 0 -0 -0zm-0.4 0l-0 0 0 -0zm0.4 0l-0 -0 0 0zm-0.4 -0l-0 0 0 -0zm0.39 0l-0 -0 0 0zm-0.39 -0l-0 0 0 -0zm0.39 0l-0 -0 0 0zm-0.07 0.02c-0.01,-0 0.01,-0.02 0.01,-0.02l0 0c-0,0.01 -0.01,0.01 -0.01,0.02zm-0.26 -0.02l0 -0c0,0 0.02,0.02 0.01,0.02 -0,-0.01 -0.01,-0.02 -0.01,-0.02zm-0.06 0l-0 0 0 -0zm0.39 0l-0 -0 0 0zm-0.38 -0l-0 0 0 -0zm0.38 0zm-0.07 0.01l0.07 -0.01zm-0.07 0.01c-0.01,-0 -0.01,-0.01 -0.04,0 -0.01,0.01 -0.01,0.01 -0.02,0.01 -0,0 -0,-0.01 -0,-0.01 0.02,-0 0.03,-0.02 0.05,-0.02 0.01,0 0.01,0 0.02,0.01l-0.01 0.01zm-0.07 -0.02l0 0 0 0.01c-0,-0 -0,-0 -0,-0.01zm-0.08 0l0.06 0c-0,0 -0,0 -0,0 -0,0 -0.01,0 -0.01,0 -0.01,0 -0.01,-0 -0.01,-0 -0,0 -0.01,0 -0.01,0 -0,-0 -0.01,-0 -0.01,-0 -0,-0 -0,-0 -0,-0zm-0.02 0l0 -0.01 0 0c0,0.01 0,0 -0,0.01zm-0.07 -0c0.02,-0.01 0.02,-0.01 0.04,0 0.01,0 0.02,0.01 0.03,0.01 0,0.01 0,0.01 -0.01,0.01 -0.01,0 -0.02,-0.01 -0.04,-0.01 -0.01,0 -0.01,0 -0.01,0l-0.01 -0.01zm-0.07 0zm0.38 -0l-0.38 0zm0.38 -0zm-0.38 0l0.38 0zm-0.38 0zm0.38 0l-0.38 0zm0.38 0zm-0.38 0l0.38 0zm-0.38 0zm0.37 -0l-0.37 0zm0.37 -0zm-0.37 0l0.37 0zm-0.37 0zm0.37 0l-0.37 0zm0.37 0zm-0.37 0l0.37 0zm-0.37 0zm0.37 -0l-0.37 0zm0.37 -0zm-0.36 0l0.36 0zm-0.36 0zm0.36 0l-0.36 0zm0.36 0zm-0.36 0l0.36 0zm-0.36 0zm0.36 -0l-0.36 0zm0.36 -0zm-0.36 0l0.36 0zm-0.36 0zm0.36 0l-0.36 0zm0.36 0zm-0.12 -0l0.12 0zm-0.12 -0c0,-0 0,-0 0,-0l0 0.01 -0 0c-0,-0 -0,-0.01 -0,-0.01zm-0.12 0.01l-0 0 0 -0.01c0,0 0,0 0,0 -0,0 -0,0.01 -0,0.01zm-0.12 -0.01zm0.36 -0l-0.36 0zm0.36 -0zm-0.1 -0l0.1 0zm-0.1 -0c0,0 0.01,0 0.01,0.01 -0,0 -0,0 -0.01,0l-0 -0.01zm-0.14 0.01c-0,-0 -0,-0 -0.01,-0 0,-0 0,-0.01 0.01,-0.01l-0 0.01zm-0.1 -0zm0.35 0l-0.35 0zm0.35 0l-0 -0 0 0zm-0.35 -0l-0 0 0 -0zm0.35 0l-0 -0 0 0zm-0.35 -0l-0 0 0 -0zm0.35 0l-0 -0 0 0zm-0.35 -0l-0 0 0 -0zm0.34 0c-0.01,-0 -0,-0 -0.01,-0 0,-0 0,-0 0.01,-0 0,0 0,0 0.01,0zm-0.34 0c0,-0 0,-0 0.01,-0 0,-0 0,-0 0.01,0 -0.01,0 -0.01,0 -0.01,0zm0.26 0c-0.01,0.01 -0.01,-0.01 -0.02,-0.01 0,-0 0,-0 0.01,0 0,0 0.01,0 0.01,0.01zm-0.18 0c0,-0 0.01,-0.01 0.01,-0.01 0,-0 0,-0 0,0 -0.01,0 -0.01,0.01 -0.02,0.01zm0.24 0c0,-0 0,-0 0,-0.01 -0,-0 -0,-0 -0.01,-0 -0,0 -0,0.01 -0,0.01 -0,0 -0.01,0 -0.01,-0.01 0,-0.02 0.01,-0.01 0.02,-0.01 0,0 0.02,-0 0.01,0 -0,0 -0.01,0.01 -0.01,0.01zm-0.29 -0.01c0.01,0 0.02,-0.01 0.02,0.01 0,0 -0,0 -0,0 -0,0.01 -0.01,0 -0.01,0 -0,-0.01 -0,-0.01 -0,-0.01 -0,0 -0,0 -0.01,0 0,0 0,0 0,0.01 -0,-0 -0.01,-0.01 -0.01,-0.01 -0,-0.01 0.01,-0 0.01,-0zm0.23 -0l0.02 0.01c0,0 0,0 0,0 -0.01,-0 -0.01,-0 -0.01,-0 -0,-0.01 -0.01,-0.01 -0.01,-0.01zm-0.18 0c-0,0 -0.01,0 -0.01,0.01 -0.01,0 -0.01,-0 -0.01,0 0,-0.01 0,-0 0.01,-0.01 0,-0 0.01,-0 0.01,-0zm0.2 -0l0 0 -0 -0zm-0.02 0zm-0.18 0l0.18 0zm-0.18 0zm-0.02 -0l0.02 0zm-0.02 -0l-0 0 0 -0zm0.28 -0c0,-0 0,0 0,0 0,0 -0,0 -0,-0zm-0.34 0c0,-0 0,0 0,0 -0,0 -0,0 -0,-0zm0.36 -0c0,-0.01 0.02,-0.02 0.02,-0.02 0.01,-0 0.06,0.01 0.07,0.01 0,0 0,0.01 0.01,0.01 -0,0 -0.01,0.02 -0.02,0.02 -0.01,0 -0.06,-0 -0.06,-0.01 -0,-0 -0,-0 -0.01,-0.01 -0,-0 -0,-0.01 -0,-0.01zm-0.02 0c0,-0 0.01,0 0,0 0,0 -0,0 -0,0 -0,-0 -0,0 -0,-0zm-0.34 0c0,-0 0.01,0 0,0 -0,0 -0,0 -0,-0zm-0.09 0.02c-0.01,0 -0.01,-0 -0.01,-0.01 -0,-0 -0.01,-0.01 -0.01,-0.01 0,-0.01 0.01,-0.01 0.02,-0.02 0.01,-0 0.05,-0.01 0.06,-0.01 0,0 0.02,0.01 0.02,0.02 0,0 -0,0.01 -0.01,0.01 -0.01,0.01 -0.05,0.01 -0.06,0.01zm0.44 -0.02c-0,0 0,0 -0,0 -0,-0 -0,-0 -0,-0l0 0zm-0.36 0l0 0c-0,0 0,0 -0,0 -0,-0 -0,-0 -0,-0zm0.36 0l0.01 -0c0,-0 0,-0 0,0l-0.01 0zm-0.36 0l-0.01 0c0,-0 -0,-0 0.01,-0l0 0c0,0 0,0 0,0zm0.15 -0.02l0.02 0c0.01,0 0,0 0.02,0 0.01,-0 0.03,-0 0.04,0.01 0.01,0.01 0,0.02 -0,0.02 -0.01,0.01 -0.03,0.01 -0.05,0.01 -0.02,0 -0.04,0 -0.05,-0.01 -0.01,-0.02 -0,-0.03 0.02,-0.03zm0.14 0.02c-0.01,-0 -0.02,-0.01 -0.03,-0.01 0,-0 0,-0 0.01,-0 0,0 0.01,0 0.01,0 0,0 0.01,0 0.01,0.01zm-0.23 0c0,-0 0.02,-0.01 0.02,-0.01 0,-0 0.01,-0 0.01,0 -0.01,0 -0.02,0.01 -0.03,0.01zm0.4 -0.01zm-0.58 0l0.58 0zm-0.58 0zm0.48 -0l-0.48 0zm0.48 -0zm-0.39 0l0.39 0zm-0.39 0zm0.14 0.01l-0.14 -0.01zm0.14 0.01c0,0.01 -0,0.01 0,0.02 0,0 0,0.01 0.01,0.01 -0,-0 -0.02,-0.02 -0.02,-0.02 0,-0.02 0.03,-0.03 0.05,-0.03 0.02,-0 0.03,-0 0.05,0 0.02,0 0.03,0.01 0.04,0.02 0.01,0.01 0.01,0.02 0,0.03 -0.01,0 -0.01,0.01 -0.01,0.01 0,-0 0,-0.01 0,-0.01 0,-0.01 0,-0.02 -0.01,-0.03 -0,-0 -0.01,-0.01 -0.02,-0.01l-0.07 0c-0.01,0 -0.02,0.01 -0.02,0.02zm0.25 -0.01c0,-0.01 0.02,-0.02 0.03,-0.02l0.04 0.01c0.01,0 0.02,0 0.02,0.01 -0.01,-0.01 -0.01,-0.01 -0.02,-0.01 -0.06,-0.02 -0.06,-0 -0.07,0.01zm-0.48 0c0,-0.01 0,-0.01 0.01,-0.01 0,-0 0.01,-0 0.01,-0l0.04 -0.01c0.01,-0 0.01,-0 0.01,0 0.01,0 0.02,0.01 0.02,0.02 -0.01,-0 -0,-0.02 -0.05,-0.01 -0.01,0 -0.02,0 -0.03,0.01 -0.01,0 -0.01,0.01 -0.02,0.01zm0.22 -0.02c0,-0.01 0,-0.03 0.01,-0.04 0,-0 0,-0 0,-0 0,0.03 0.03,0.01 0.05,0.01 0.03,0 0.03,0.01 0.04,0.01 0.01,0 0.01,-0.01 0.01,-0.02 0,0 0,-0 0,0 0,0 0,0 0,0l0.01 0.01c0,0.01 0,0.01 0,0.02 -0,-0 -0.01,-0 -0.01,-0.01 -0.03,-0.01 -0.07,-0.01 -0.1,-0 -0.01,0 -0.01,0.01 -0.01,0.01zm0.13 -0.03c0.01,0 0.02,0.03 0.02,0.04 0,0 -0,0.01 -0,0.01l-0 -0c-0,-0 -0,-0 -0,-0 -0.01,-0.01 -0,0 -0.01,-0.02 -0,-0.01 -0,-0.02 -0.01,-0.03zm-0.15 0.05c-0,-0.01 -0,-0.01 0,-0.03 0,-0 0.01,-0.02 0.01,-0.02 -0,0.01 -0.01,0.02 -0.01,0.03 0,0 0,0 -0,0.01l-0.01 0.01zm0.04 -0.05c-0.01,0 -0.01,-0 -0.01,-0.01 0,-0.01 0.01,-0.01 0.02,-0.02 0,-0 0.02,-0.01 0.03,-0.01 0.01,0 0.05,0.01 0.05,0.02 0,0.02 -0,0.01 -0.03,0.01 -0.03,-0.01 -0.04,0 -0.05,0zm0.1 -0.01c0.01,0 0.01,-0 0.01,0 0,0 0,0.01 0,0.01 -0,-0 -0.01,-0.01 -0.01,-0.01zm-0.14 0.01c0,-0 0,-0.01 0,-0.01 0,-0 0,-0 0.01,-0 -0,0 -0.01,0.01 -0.01,0.01zm0.03 -0.02c0,-0.01 0,-0.01 0,-0.02 -0,-0.01 0,-0.04 0.01,-0.05 0,-0 0.01,-0.01 0.01,-0.01 0,-0 0.01,-0.02 0.02,-0.02 0.01,-0.01 0.02,-0.01 0.03,-0 0.01,0 0.01,0.01 0.02,0.02 0.02,0.02 0.01,0 0.01,0.04l0 0.03 -0.01 -0.01c-0.01,-0.01 -0.03,-0.01 -0.04,-0.01 -0.01,0 -0.03,0.01 -0.04,0.02 -0,0 -0,0 -0,0zm0.07 -0.09c-0.01,-0.02 -0.04,-0.02 -0.05,0 0,-0.02 -0,-0.04 0.01,-0.04 0.02,-0.01 0.03,-0 0.04,0.01 0,0.01 0,0.02 0,0.04z"/>
    <path class="fil8" d="M0.27 0.37c0,-0 0,-0.01 0.01,-0.01 0.01,-0.01 0.03,-0.01 0.04,-0 0.01,0.01 0.01,0.03 -0.01,0.03 -0.01,0 -0.02,0 -0.02,-0 -0,-0 -0.01,-0.01 -0.01,-0.01zm0.05 -0.02c0.02,0.01 0.01,0.04 -0,0.05 -0.01,0 -0.04,0 -0.05,0 -0.02,-0.01 -0.02,-0.04 -0,-0.05 -0,0 -0.01,0.01 -0,0.03 0.01,0.01 0.02,0.01 0.03,0.01 0.01,0 0.02,0 0.03,-0.01 0.01,-0.02 -0,-0.03 -0,-0.03zm0 0l-0 -0 0 0zm-0.05 -0l-0 0 0 -0zm0.05 0zm-0.05 0l0.05 0zm-0.05 0zm0.05 -0l-0.05 0zm0.05 -0zm-0.05 0l0.05 0zm-0.05 0zm0.05 0l-0.05 0zm0.05 0zm-0.05 0l0.05 0zm-0.05 0zm0.04 -0l-0.04 0zm0.04 -0l0 0c-0,0 -0,-0 -0,-0zm-0.04 0l0 0c0,0 -0,-0 -0,-0zm0.04 -0l0 0c-0,-0 -0,-0 -0,-0zm-0.03 0l0 0c0,-0 -0,-0 -0,-0zm0.03 -0l0 0c0,0 -0,-0 -0,-0zm-0.03 0l0 0c0,0 -0,-0 -0,-0zm0.02 -0c0,-0 0.01,0 0,0 -0,-0 -0,0 -0,-0zm-0.02 0c0,-0 0.01,0 0,0 -0,-0 -0,0 -0,-0zm0.01 -0.01c-0.02,0 -0.05,0.01 -0.05,0.04 0,0.01 0.01,0.02 0.01,0.03 0.01,0.01 0.02,0.01 0.03,0.01 0.01,0 0.02,0 0.03,-0.01 0.02,-0.02 0.02,-0.07 -0.03,-0.07z"/>
    <path class="fil8" d="M0.27 0.43l0.05 0c0,0.01 -0,0.03 -0,0.03 -0,0.01 -0,0.01 -0.01,0.01 -0.02,0.01 -0.01,0.01 -0.03,0 -0.01,-0 -0.01,-0 -0.01,-0.01 -0,-0.01 -0,-0.03 -0,-0.03zm-0.01 0c0,0.01 -0,0.03 0.01,0.04 0,0 0.03,0.01 0.03,0.01 0,0 0.02,-0.01 0.03,-0.01 0,-0 0.01,-0.05 0,-0.05l-0.03 0c-0.02,0 -0.03,-0.01 -0.03,0.01z"/>
    <path class="fil8" d="M0.29 0.37c0.01,0 0.01,-0 0.01,0.01 -0.02,0 -0,0 -0.02,0 0,-0 0,-0.01 0,-0.01zm-0.01 0.01c0,0.01 0.01,0.01 0.02,0.01 0.02,0 0.01,-0.02 -0,-0.02 -0,0 -0.01,0 -0.01,0 -0,0 -0,0.01 -0,0.01z"/>
   </g>
   <g>
    <path class="fil1" d="M0.28 0.01c-0.02,0.01 -0.01,0.03 -0.01,0.04 0.01,-0.02 0.04,-0.02 0.05,0 0,-0.01 0,-0.02 -0,-0.04 -0.01,-0.01 -0.02,-0.02 -0.04,-0.01z"/>
    <path id="_1_7" class="fil2" d="M0.27 0.05l0.01 0 -0.01 -0 -0 -0 -0 -0 -0 -0 -0 -0 -0 -0 0 -0 0 -0 0 -0 0 -0 0 -0 0 -0 0 -0 0 -0 0 -0 0 -0 0 -0 0 -0 0 -0 0 -0 0 -0 0 -0 0 -0 0 -0 0 -0 0 -0 0 -0 0 0.01 -0 0 -0 0 -0 0 -0 0 -0 0 -0 0 -0 0 -0 0 -0 0 -0 0 -0 0 -0 0 -0 0 -0 0 -0 0 -0 0 -0 0 -0 0 -0 0 0 0 0 0 0 0 0 0 0 0 0 0 0 0 -0.01 -0zm0.01 0l-0.01 0.01 0 -0.01 0.01 0zm0.05 -0l0.01 0 -0.01 0 -0 -0 -0 -0 -0 -0 -0 -0 -0 -0 -0 -0 -0 -0 -0 -0 -0 -0 -0 -0 -0 -0 -0 -0 -0 -0 -0 -0 -0 -0 -0 -0 -0 0 -0 0 -0 0 -0 0 -0 0 -0 0 -0 0 -0 0 -0 0 -0 0 -0 0 -0 0 -0 0 -0 0 -0 0 -0 0 -0.01 -0 0 -0 0 -0 0 -0 0 -0 0 -0 0 -0 0 -0 0 -0 0 -0 0 -0 0 -0 0 -0 0 -0 0 -0 0 -0 0 -0 0 0 0 0 0 0 0 0 0 0 0 0 0 0 0 0 0 0 0 0 0 0 0 0 0 0 0 0 0 0 0 0 -0.01 0zm0.01 0l0 0.01 -0.01 -0.01 0.01 -0zm-0.01 -0.03l0.01 -0 0 0 0 0 0 0 0 0 0 0 0 0 0 0 0 0 0 0 0 0 0 0 -0 0 -0 0 -0 0 -0 0 -0.01 0 0 -0.01 0 -0 0 -0 0 -0 -0 -0 -0 -0 -0 -0 -0 -0 -0 -0 -0 -0 -0 -0 -0 -0 -0 -0 -0 -0 0 0zm-0.03 -0.01l-0 -0.01 0 0 0 -0 0 -0 0 -0 0 -0 0 -0 0 -0 0 -0 0 -0 0 -0 0 -0 0 0 0 0 0 0 0 0 0 0 0 0 0 0 0 0 0 0 0 0 0 0 0 0 0 0 0 0 0 0 0 0 0 0 0 0 0 0 0 0 0 0 0 0 -0.01 0 -0 -0 -0 -0 -0 -0 -0 -0 -0 -0 -0 -0 -0 -0 -0 -0 -0 -0 -0 -0 -0 -0 -0 -0 -0 -0 -0 -0 -0 -0 -0 -0 -0 -0 -0 -0 -0 -0 -0 -0 -0 -0 -0 0 -0 0 -0 0 -0 0 -0 0 -0 0 -0 0 -0 0 -0 0 -0 0 -0 0 0 0zm-0 -0.01l0 0 0 0 0 0z"/>
   </g>
   <g>
    <path class="fil1" d="M0.31 0.06c-0.01,-0.01 -0.02,-0.01 -0.03,0 -0.01,0 -0.01,0.01 -0.02,0.02 -0,0 -0.01,0.01 -0.01,0.01 -0,0 -0.01,0.04 -0.01,0.05 0,0.01 -0,0.01 -0,0.02 0,-0 0,-0 0,-0 0.01,-0.01 0.03,-0.02 0.04,-0.02 0.01,0 0.03,0.01 0.04,0.01l0.01 0.01 -0 -0.03c-0,-0.04 0,-0.02 -0.01,-0.04 -0,-0 -0.01,-0.02 -0.02,-0.02z"/>
    <path id="_1_8" class="fil2" d="M0.28 0.06l-0 -0.01 0 -0 0 -0 0 -0 0 -0 0 -0 0 -0 0 -0 0 -0 0 -0 0 -0 0 -0 0 -0 0 -0 0 -0 0 -0 0 -0 0 -0 0 0 0 0 0 0 0 0 0 0 0 0 0 0 0 0 0 0 0 0 0 0 0 0 0 0 0 0 0 0 0 0 -0 0.01 -0 -0 -0 -0 -0 -0 -0 -0 -0 -0 -0 -0 -0 -0 -0 -0 -0 -0 -0 -0 -0 -0 -0 -0 -0 -0 -0 -0 -0 0 -0 -0 -0 0 -0 0 -0 0 -0 0 -0 0 -0 0 -0 0 -0 0 -0 0 -0 0 -0 0 -0 0 -0 0 -0 0 -0 0 -0 0 0 -0zm-0 -0.01l0 -0 0 -0 -0 0zm-0.01 0.02l-0.01 -0 0 0 0 -0 0 -0 0 -0 0 -0 0 -0 0 -0 0 -0 0 -0 0 -0 0 -0 0 -0 0 -0 0 -0 0 -0 0 0.01 -0 0 -0 0 -0 0 -0 0 -0 0 -0 0 -0 0 -0 0 -0 0 -0 0 -0 0 -0 0 -0 0 -0 0 0 0zm0 -0l0 0 -0 0 0 -0zm-0.01 0.01l-0.01 -0 -0 0 0 -0 0 -0 0 -0 0 -0 0 -0 0 -0 0 -0 0 -0 0.01 0 -0 0 -0 0 -0 0 -0 0 -0 0 -0 0 -0 0 -0 0 -0 0zm0 0l-0 0 0.01 -0.01 -0.01 0.01zm-0.01 0.05l-0.01 0 0 0 0 -0 0 -0 0 -0 0 -0 0 -0 0 -0 0 -0 0 -0 0 -0 0 -0 0 -0 0 -0 0 -0 0 -0 0 -0 0 -0 0 -0 0 -0 0 -0 0 -0 0.01 0 0 -0 -0 0 -0 0 -0 0 -0 0 -0 0 -0 0 -0 0 -0 0 -0 0 -0 0 -0 0 -0 0 -0 0 -0 0 -0 0 -0 0 -0 0 -0 0 0 0 0 0zm0 0l0 0 0 0 0 0zm-0.01 0.01l0 0.01 -0.01 -0 0 -0 0 -0 0 -0 0 -0 0 -0 0 -0 0 -0 0 -0 0.01 0 -0 0 -0 0 -0 0 -0 0 -0 0 -0 0 -0 0 -0 0 -0.01 -0zm0 0.01l-0.01 0 0 -0.01 0.01 0zm0 -0.01l0 0.01 0 0 -0 0 -0 0 -0 0 -0 0 -0 0 -0 0 -0 -0.01 0 -0 0 -0 0 -0 0 -0 0 -0 0 -0 0 0zm0 0l0 0 0 0 0 0zm0.05 -0.02l0 0.01 0 0 -0 0 -0 0 -0 0 -0 0 -0 0 -0 0 -0 0 -0 0 -0 0 -0 0 -0 0 -0 0 -0 0 -0 0 -0 0 -0 0 -0 0 -0 0 -0 0 -0 0 -0 0 -0 0 -0 0 -0 0 -0 -0.01 0 -0 0 -0 0 -0 0 -0 0 -0 0 -0 0 -0 0 -0 0 -0 0 -0 0 -0 0 -0 0 -0 0 -0 0 -0 0 -0 0 -0 0 -0 0 -0 0 -0 0 -0 0 -0 0 -0 0 0 0 0zm0.04 0.01l-0 0.01 0 0 -0 -0 -0 -0 -0 -0 -0 -0 -0 -0 -0 -0 -0 -0 -0 -0 -0 -0 -0 -0 -0 -0 -0 -0 -0 -0 -0 -0 -0 -0 -0 -0 -0 -0 -0 0 0 -0.01 0 0 0 0 0 0 0 0 0 0 0 0 0 0 0 0 0 0 0 0 0 0 0 0 0 0 0 0 0 0 0 0 0 0 0 0 0 0zm-0 -0l0 0 -0 -0 0 0zm0.01 0.01l-0.01 -0.01 0 -0.01 0.01 0.01 0 0 -0.01 0zm0.01 -0l0 0.01 -0.01 -0 0.01 -0zm-0 -0.03l0 0.03 -0.01 0 -0 -0.03 0.01 -0 0 0zm0 -0l0 0 -0 -0 0 0zm-0.02 -0.04l0.01 -0 0 0 0 0 0 0 0 0 0 0 0 0 0 0 0 0 0 0 0 0 0 0 0 0 0 0 0 0 0 0 0 0 0 0 0 0 0 0 0 0 0 0 0 0.01 0 0.01 -0.01 0 -0 -0.01 -0 -0.01 -0 -0 -0 -0 -0 -0 -0 -0 -0 -0 -0 -0 -0 -0 -0 -0 -0 -0 -0 -0 -0 -0 -0 -0 -0 -0 -0 -0 -0 -0 -0 -0 -0 -0 -0 -0 -0 -0 -0 -0 0 0zm-0.02 -0.02l0 -0.01 0 0 0 0 0 0 0 0 0 0 0 0 0 0 0 0 0 0 0 0 0 0 0 0 0 0 0 0 0 0 -0.01 0 -0 -0 -0 -0 -0 -0 -0 -0 -0 -0 -0 -0 -0 -0 -0 -0 -0 -0 -0 -0 -0 -0 -0 -0 -0 -0 -0 -0 0 0zm0 0l0 0 0 0 0 0z"/>
   </g>
   <g>
    <path class="fil4" d="M0.3 0.14c-0.01,0 -0.02,0.01 -0.03,0.01 -0.01,0 -0.02,0.01 -0.02,0.02 0,0.01 0,0.01 0.01,0.01 0.01,0 0.03,-0.01 0.05,-0 0.02,0.01 0.03,0.01 0.03,-0.01 0,-0.01 -0.04,-0.02 -0.05,-0.02z"/>
    <path id="_1_9" class="fil2" d="M0.27 0.15l-0 -0.01 0 0 0 -0 0 -0 0 -0 0 -0 0 -0 0 -0 0 -0 0 -0 0 -0 0 -0 0 -0 0 -0 0 -0 0 -0 0 0.01 -0 0 -0 0 -0 0 -0 0 -0 0 -0 0 -0 0 -0 0 -0 0 -0 0 -0 0 -0 0 -0 0 -0 0 0 0zm-0 -0.01l0 0 0 0 0 0zm-0.01 0.02l-0.01 0 0 0 0 -0 0 -0 0 -0 0 -0 0 -0 0 -0 0 -0 0 -0 0 -0 0 -0 0 -0 0 -0 0 -0 0 -0 0 -0 0 -0 0 -0 0 -0 0 -0 0 -0 0 0.01 -0 0 -0 0 -0 0 -0 0 -0 0 -0 0 -0 0 -0 0 -0 0 -0 0 -0 0 -0 0 -0 0 -0 0 -0 0 -0 0 -0 0 -0 0 0 0 -0 0 0 0zm0.01 0.01l0 0.01 0 0 -0 0 -0 -0 -0 -0 -0 -0 -0 -0 -0 -0 -0 -0 -0 -0 -0 -0 -0 -0 -0 -0 -0 -0 -0 -0 -0 -0 -0 -0 -0 -0 -0 -0 -0 -0 -0 -0 -0 -0 -0 -0 -0 -0 -0 -0 0 -0 0.01 0 0 0 0 0 0 0 0 0 0 0 0 0 0 0 0 0 0 0 0 0 0 0 -0 -0 0 0 -0 -0 0 0 0 0 0 0 0 0 0 0 0 0 0 0 0 0 0 0 0 0 0 0zm0.06 -0l-0 0.01 0 0 -0 -0 -0 -0 -0 -0 -0 -0 -0 -0 -0 -0 -0 -0 -0 -0 -0 0 -0 0 -0 0 -0 0 -0 0 -0 0 -0 0 -0 0 -0 0 -0 0 -0 0 -0 0 -0 0 -0 0 -0 0 -0 0 -0 0 -0 0 -0 0 -0 0 0 -0.01 0 -0 0 -0 0 -0 0 -0 0 -0 0 -0 0 -0 0 -0 0 -0 0 -0 0 -0 0 -0 0 -0 0 -0 0 -0 0 -0 0 -0 0 -0 0 -0 0 0 0 0 0 0 0 0 0 0 0 0 0 0 0 0 0 0 0 0zm0.02 -0.01l0.01 0 0 0 0 0 -0 0 -0 0 -0 0 -0 0 -0 0 -0 0 -0 0 -0 0 -0 0 -0 0 -0 0 -0 0 -0 0 -0 0 -0 0 -0 0 -0 0 -0 0 -0 -0 -0 -0 -0 -0 -0 -0 -0 -0 -0 -0 -0 -0 -0 -0 -0 -0 0 -0.01 0 0 0 0 0 0 0 0 0 0 0 0 0 0 0 0 0 0 0 -0 0 -0 0 -0 0 -0 0 -0 0 -0 0 -0 0 -0 0 -0 0 -0 0 -0 0 -0 0 -0 0 -0 0 -0 0 -0 0 -0 0 -0 0 -0 0 0zm-0.04 -0.02l0 -0.01 0 0 0 0 0 0 0 0 0 0 0 0 0 0 0 0 0 0 0 0 0 0 0 0 0 0 0 0 0 0 0 0 0 0 0 0 0 0 0 0 0 0 0 0 0 0 0 0 0 0 0 0 0 0 0 0 0 0 0 0 0 0 0 0 0 0 -0.01 0 -0 -0 -0 -0 -0 -0 -0 -0 -0 -0 -0 -0 -0 -0 -0 -0 -0 -0 -0 -0 -0 -0 -0 -0 -0 -0 -0 -0 -0 -0 -0 -0 -0 -0 -0 -0 -0 -0 -0 -0 -0 -0 -0 -0 -0 -0 -0 -0 -0 -0 -0 -0 -0 -0 -0 -0 -0 -0 -0 -0 -0 -0 -0 -0 0 0z"/>
   </g>
   <g>
    <path class="fil1" d="M0.29 0.18c-0.02,0 -0.05,0.02 -0.05,-0.01 -0,0 -0,0 -0,0 -0.01,0.01 -0.01,0.03 -0.01,0.04 0,-0 0.01,-0 0.01,-0.01 0.03,-0.01 0.07,-0.01 0.1,0 0.01,0 0.01,0.01 0.01,0.01 0,-0.01 -0,-0.02 -0,-0.02l-0.01 -0.01c-0,-0 -0,-0 -0,-0 -0,-0 -0,-0 -0,-0 0,0.01 -0,0.02 -0.01,0.02 -0.02,0 -0.01,-0.01 -0.04,-0.01z"/>
    <path id="_1_10" class="fil2" d="M0.25 0.16l-0.01 -0 0.01 0 0 0 0 0 0 0 0 0 0 0 0 0 0 0 0 0 0 0 0 0 0 0 0 0 0 0 0 0 0 0 0 -0 0 -0 0 -0 0 -0 0 -0 0 -0 0 -0 0 -0 0 -0 0 -0 0 -0 0 -0 0 -0 0 0.01 -0 0 -0 0 -0 0 -0 0 -0 0 -0 0 -0 0 -0 0 -0 0 -0 0 -0 0 -0 0 -0 0 -0 0 -0 -0 -0 -0 -0 -0 -0 -0 -0 -0 -0 -0 -0 -0 -0 -0 -0 -0 -0 -0 -0 -0 -0 -0 -0 -0 -0 -0 0.01 0zm-0.01 -0l0.01 -0.01 0 0.01 -0.01 -0zm0 0.01l-0.01 -0 0 0 0 -0 0 -0 0 -0 0 -0 0.01 0 -0 0 -0 0 -0 0 -0 0 0 0zm-0.01 -0l0 0 0 0 0 0zm-0.01 0.04l0 0.01 -0 -0 0 -0 0 -0 0 -0 0 -0 0 -0 0 -0 0 -0 0 -0 0 -0 0 -0 0 -0 0 -0 0 -0 0 -0 0 -0 0 -0 0 -0 0 -0 0.01 0 -0 0 -0 0 -0 0 -0 0 -0 0 -0 0 -0 0 -0 0 -0 0 -0 0 -0 0 -0 0 -0 0 -0 0 -0 0 -0 0 -0 0 -0 0 -0 -0zm0 0.01l-0 0 0 -0 0 0zm0.01 -0.01l0 0.01 -0 0 -0 0 -0 0 -0 0 -0 0 -0 0 -0 0 -0 0 -0 0 -0 0 -0 0 -0 0 -0 0 -0 -0.01 0 -0 0 -0 0 -0 0 -0 0 -0 0 -0 0 -0 0 -0 0 -0 0 -0 0 -0 0 -0 -0 0zm0 0.01l-0 0 -0 0 0 -0zm0.1 -0.01l-0 0.01 0 0 -0 -0 -0 -0 -0 -0 -0 -0 -0 -0 -0 -0 -0 -0 -0 -0 -0 -0 -0 -0 -0 -0 -0 -0 -0 -0 -0 -0 -0 -0 -0 -0 -0 0 -0 0 -0 0 -0 0 -0 0 -0 0 -0 0 -0 0 -0 0 -0 0 -0 0 -0 0 -0 0 -0 0 -0 0 -0 0 -0 -0.01 0 -0 0 -0 0 -0 0 -0 0 -0 0 -0 0 -0 0 -0 0 -0 0 -0 0 -0 0 -0 0 -0 0 -0 0 -0 0 -0 0 0 0 0 0 0 0 0 0 0 0 0 0 0 0 0 0 0 0 0 0 0 0 0 0 0 0 0 0 0 0 0 0 0zm0 0l0 0 0 0 0 0zm0.01 0.01l0.01 0 -0 0 -0 -0 -0 -0 -0 -0 -0 -0 -0 -0 -0 -0 -0 -0 -0 -0 -0 -0 -0 -0 0 -0.01 0 0 0 0 0 0 0 0 0 0 0 0 0 0 0 0 0 0 0 0 -0 0zm0.01 0l0 0 -0 -0 0 -0zm-0.01 -0.02l0.01 -0 0 0 0 0 0 0 0 0 0 0 0 0 0 0 0 0 0 0 0 0 0 0 -0.01 0 0 -0 -0 -0 -0 -0 -0 -0 -0 -0 -0 -0 -0 -0 -0 -0 -0 -0 -0 -0 0 0zm0.01 -0l0 0 -0 -0 0 0zm-0.01 -0.01l0.01 0.01 -0.01 0 -0.01 -0.01 0.01 -0 0 0zm-0 -0l0 0 0 0 -0 -0zm-0.01 0l0.01 -0 0 0 0 0 0 0 0 0 0 0 -0.01 0 -0 -0 -0 -0 -0 -0 -0 -0 0 0zm0.01 -0l0 0 -0.01 -0.01 0.01 0.01zm-0 0l-0.01 0 0.01 -0 0 0 0 0 0 0 0 0 -0.01 0 -0 -0 0 0 -0 -0 -0 -0 0.01 -0zm-0.01 0l0 -0.01 0.01 0.01 -0.01 0zm-0.01 0.02l0 -0.01 0 0 0 0 0 -0 0 -0 0 -0 0 -0 0 -0 0 -0 0 -0 0 -0 0 -0 0 -0 0 -0 0 -0 0 -0 0 -0 0 -0 0 -0 0 -0 0 -0 0 -0 0 -0 0 -0 0 -0 0 -0 0 -0 0 -0 0 -0 0 -0 0 -0 0 -0 0.01 0 -0 0 -0 0 -0 0 -0 0 -0 0 -0 0 -0 0 -0 0 -0 0 -0 0 -0 0 -0 0 -0 0 -0 0 -0 0 -0 0 -0 0 -0 0 -0 0 -0 0 -0 0 -0 0 -0 0 -0 0 -0 0 -0 0 -0 0 -0 0 -0 0 -0 0 0 0zm-0.04 -0.01l0 -0.01 0 0 0 0 0 0 0 0 0 0 0 0 0 0 0 0 0 0 0 0 0 0 0 0 0 0 0 0 0 0 0 0 0 0 0 0 0 0 0 0 0 0 0 0 0 0 0 0 0 0 0 0.01 -0 0 -0 -0 -0 -0 -0 -0 -0 -0 -0 -0 -0 -0 -0 -0 -0 -0 -0 -0 -0 -0 -0 -0 -0 -0 -0 -0 -0 -0 -0 -0 -0 -0 -0 -0 -0 -0 -0 -0 -0 -0 -0 -0 -0 -0 -0 0 0 0z"/>
   </g>
   <g>
    <path class="fil1" d="M0.23 0.21c-0,-0.01 0,-0.03 0.01,-0.03 -0,0 -0.01,0.01 -0.01,0.02 -0.01,0.02 -0.01,0.02 -0,0.03l0.01 -0.01c0,-0 0,-0 0,-0.01z"/>
    <path id="_1_11" class="fil2" d="M0.23 0.17l-0 -0.01 0.01 0 -0 0 -0 0 -0 0 -0 0 -0 0 -0 0 -0 0 -0 0 -0 0 -0 0 -0 0 0 0 -0.01 0 -0 -0 0 -0 0 -0 0 -0 0 -0 0 -0 0 -0 0 -0 0 -0 0 -0 0 -0 0 -0 0.01 0zm-0 -0.01l0.01 -0.01 -0 0.01 -0.01 -0zm-0.01 0.02l-0.01 -0 0 0 0 -0 0 -0 0 -0 0 -0 0 -0 0 -0 0 -0 0 -0 0 -0 0 -0 0 -0 0 -0 0 0.01 -0 0 -0 0 -0 0 -0 0 -0 0 -0 0 -0 0 -0 0 -0 0 -0 0 -0 0 -0 0 0 0zm-0.01 -0l0 0 0 0 0 0zm-0 0.03l0.01 0 -0.01 -0 -0 -0 -0 -0 -0 -0 -0 -0 -0 -0 -0 -0 0 -0 0 -0 0 -0 0 -0 0 -0 0 -0 0 -0 0 -0 0 -0 0 -0 0.01 0 -0 0 -0 0 -0 0 -0 0 -0 0 -0 0 -0 0 -0 0 -0 0 0 0 0 0 0 0 0 0 0 0 0 0 0 0 -0.01 -0zm0.01 0l-0 0.01 -0 -0.01 0.01 0zm0.01 -0.01l-0.01 0.01 -0.01 -0 0.01 -0.01 0 -0 0.01 0zm-0.01 -0l0 -0 -0 0 0 -0zm0 -0l0.01 -0 0 -0 0 0 0 0 0 0 0 0 0 0 0 0 0 0 -0 0 -0 0 -0 0 -0 0 -0 0 -0.01 -0 0 -0 0 -0 -0 0 0 -0 -0 0 0 0 0 -0 -0 -0 -0 -0 -0 -0 -0 -0 -0 -0 0 -0zm0 0l0 0 0 -0 0 0z"/>
   </g>
   <path class="fil1" d="M0.27 0.2c-0.01,0 -0.04,0.01 -0.05,0.03l0.02 0c0,-0.01 0.01,-0.01 0.02,-0.01l0.07 0c0.01,0 0.01,0 0.02,0.01 0,0 0,0 0.01,0.01l0.02 0c-0,-0 -0,-0.01 -0.01,-0.01 -0.01,-0.01 -0.02,-0.01 -0.04,-0.02 -0.02,-0 -0.03,-0 -0.05,0zm0.08 0.03c0,0 0,0 0,0 0,0 0,0.01 -0,0.01 -0,0 -0,0 -0,0 -0,0 -0,0 -0,0.01 0.01,-0 0.01,-0.01 0.01,-0.01 0,-0 0,-0 0,-0 0.01,-0 0.01,-0.01 0.01,-0.01 -0,-0 -0,-0 -0,-0l-0.02 0zm-0.13 0l0.02 0c0,-0 0,-0 0,-0l-0.02 0c-0,0 -0,0 -0,0zm0.02 0.03c-0,-0 -0,-0 -0.01,-0.01 -0,-0 -0,-0 -0,-0 -0,-0 -0,-0.01 -0,-0.01l-0.02 -0c0,0 0,0 0,0 0,0 0,0.01 0.01,0.01 0.01,0.01 0.01,0.01 0.01,0.01z"/>
   <path class="fil3" d="M0.35 0.27c0,0 -0,0.01 0,0.01 0.01,0 0.01,-0 0.02,-0.01 0.03,-0.01 0.02,-0.01 0.04,-0l0.01 -0.01c-0,-0 -0,-0 -0,-0l-0.04 0c-0.01,0 -0.02,0.01 -0.03,0.01zm-0.17 -0.01l0.02 -0c-0,-0 -0,-0 -0,-0l-0.01 0c-0,0 -0,0 -0,0zm0.01 0.01c0.02,0 0.03,0.01 0.04,0.01 0.01,0 0.01,0 0.01,-0.01 -0.01,-0 -0.02,-0 -0.03,-0.01 -0,-0 -0,-0 -0,-0l-0.04 0 0.01 0.01c0.01,-0 0.01,-0 0.01,-0zm0.06 -0.01l-0 0.02c0,0 0,0.01 0,0.01l0.01 0c0,-0 0,-0.01 0,-0.01 0,-0.01 0,-0.02 -0,-0.02l-0 0zm0.02 0.01l0 0.01 0.01 0c0.01,0 0.01,-0 0.01,-0 0.01,0 0.01,0 0.01,0l0.01 0 0 -0.01c-0.01,0 -0.02,-0 -0.03,-0 -0.01,0 -0.02,0 -0.03,0zm0.06 -0c0,0.01 0,0.01 0,0.02l0.01 0c0,-0 0,-0 0,-0 0,-0.01 0,-0.02 0,-0.03 -0.01,0 -0.01,0 -0.01,0.01z"/>
   <path class="fil1" d="M0.55 0.32l-0 0.02c0,0 0,0 0.01,0 0,-0 0,-0.01 0,-0.01 -0,-0 -0,-0 -0.01,-0zm-0.39 -0.05c0,0.01 0.01,0.01 0.01,0.02 0.01,-0 -0,-0.02 -0.01,-0.02l-0 0 -0 0zm-0.04 0.02l0.01 0.02c0.01,0 0.02,0.01 0.02,0.01 0.01,0 0.02,-0.01 0.02,-0.01 0,-0.01 -0.01,-0.03 -0.02,-0.03l-0.01 0c-0.01,0 -0.01,0.01 -0.01,0.01 -0,0 -0,0.01 -0,0.01zm-0.07 0.03c0,0 0,0.01 0,0.02 0,-0 0,-0 0.01,-0.01 0.01,-0.01 0.05,-0.02 0.06,-0.02 0,-0.01 -0,-0.01 -0,-0.01 -0.01,0 -0.05,0.03 -0.07,0.03zm-0 0.01c-0,-0 -0,-0.01 -0,-0.01 -0,0 -0,0 -0.01,0l0 0.01c0,-0 0,-0 0.01,-0 -0,-0 -0,-0.01 -0,-0.01zm0.42 -0.06c-0,-0 -0,-0 -0,-0 -0,-0 -0.01,-0 -0.01,-0l-0.01 0c-0,0 -0.01,0 -0.01,0.01 -0,0 -0,0 -0,0 -0.01,0.01 -0.01,0.02 -0.01,0.02 0,0 0,0.01 0.01,0.01 0.02,0.01 0.01,-0.01 0.03,-0.01l0.01 -0.02c-0,-0.01 -0,-0.01 -0.01,-0.01zm-0.04 0.02c0,-0 0,-0.01 0.01,-0.01 0,-0 0,-0.01 0,-0.01l-0 -0c0,0 -0,0.01 -0.01,0.01 -0,0.01 -0,0.01 0,0.01zm0.06 0c-0,0 -0,0.01 -0,0.01l0 0c0.01,0 0.03,0.01 0.04,0.01 0.02,0.01 0.02,0.01 0.03,0.02 0,-0.01 0,-0.01 0,-0.02 -0.01,0 -0.01,-0 -0.02,-0.01 -0.01,-0 -0.04,-0.02 -0.05,-0.02z"/>
   <g>
    <path class="fil1" d="M0.38 0.21c0,-0.01 -0.01,-0.04 -0.02,-0.04 0,0.01 0,0.02 0.01,0.03 0,0.02 -0,0 0.01,0.02 0,0 0,0 0,0l0 0c0,-0 0,-0 0,-0.01z"/>
    <path id="_1_12" class="fil2" d="M0.37 0.17l-0.01 0 0.01 -0 0 0 0 0 0 0 0 0 0 0 0 0 0 0 0 0 0 0 0 0 0 0 0 0 0 0 0 0 0 0 0 0 0 0 0 0 0 0 0 0 0 0 0 0 0 0 0 0 -0.01 0 -0 -0 -0 -0 -0 -0 -0 -0 -0 -0 -0 -0 -0 -0 -0 -0 -0 -0 -0 -0 -0 -0 -0 -0 -0 -0 -0 -0 -0 -0 -0 -0 -0 -0 -0 -0 -0 -0 -0 -0 -0 -0 -0 -0 -0 -0 -0 -0 0.01 -0zm-0.01 0l-0.01 -0.01 0.01 0.01 -0.01 0zm0.01 0.03l-0.01 0 0 0 -0 -0 -0 -0 -0 -0 -0 -0 -0 -0 -0 -0 -0 -0 -0 -0 -0 -0 -0 -0 -0 -0 -0 -0 0.01 -0 0 0 0 0 0 0 0 0 0 0 0 0 0 0 0 0 0 0 0 0 0 0 0 0 0 0zm0 0l0 0 0 0 0 0zm0 0.02l-0.01 0 -0 -0 -0 -0 -0 -0 -0 -0 -0 -0 -0 -0 -0 -0 -0 -0 -0 -0 0 -0 -0 0 -0 0 0 -0 0 -0 -0 -0 -0 -0 -0 -0 0.01 -0 0 0 0 0 0 0 -0 0 -0 0 -0 0 -0 0 0 -0 -0 -0 0 -0 0 0 0 0 0 0 0 0 0 0 0 0 -0 -0zm-0.01 0l-0 -0 -0 -0 0 0zm0.01 -0l-0.01 0 0 0 -0 -0 -0 -0 -0 -0 -0 -0 0.01 -0 0 0 0 0 0 0 0 0 0 0zm-0 -0l0 0 0 0 -0 -0zm-0 0.01l-0 -0 0.01 -0 0 0 0 0 -0.01 0zm0.01 -0l-0 0.01 -0 -0.01 0.01 -0zm-0 -0.01l0.01 0 0 0 -0 0 -0 0 -0 0 -0 0 -0 0 -0 0 -0 0 -0 0 -0.01 -0 0 -0 0 -0 0 -0 0 -0 0 -0 0 -0 0 -0 0 -0 0 0z"/>
   </g>
   <g>
    <path class="fil1" d="M0.22 0.17c0,-0 0.01,-0.01 0.01,-0.01 -0.01,0 -0.01,-0 -0.01,0 -0,0 -0,0.01 -0,0.01z"/>
    <path id="_1_13" class="fil2" d="M0.23 0.16l0 -0.01 0 0.01 -0 0 -0 0 -0 0 -0 0 -0 0 -0 0 -0 0 -0 0 -0 0 -0 0 -0 -0.01 0 -0 0 -0 0 -0 0 -0 0 -0 0 -0 0 -0 0 -0 0 -0 0 -0 0 0.01zm0 -0.01l0.01 0 -0 0.01 -0 -0.01zm-0 0.01l-0.01 -0 0 0 0 -0 0 -0 0 -0 0 -0 0 -0 0 -0 0 -0 0 -0 0 0 0 0 0 0.01 -0 -0 -0 0 0 -0 0 -0 0 -0 0 -0 -0 0 0 0 -0 0 -0 0 0 0zm-0.01 -0l0 0 0 0 0 0zm0 0.01l0 0.01 -0.01 -0 0 -0 0 -0 0 -0 0 -0 0 -0 0 -0 0 -0 0 -0 0.01 0 -0 0 -0 0 -0 0 -0 0 -0 0 -0 0 -0 0 0 0 -0.01 -0zm0 0.01l-0.01 0 0 -0.01 0.01 0z"/>
   </g>
   <g>
    <path class="fil1" d="M0.36 0.16c0,0 0.01,0.01 0.01,0.01 0,-0 -0,-0.01 -0,-0.01 -0,-0 -0,-0 -0.01,-0z"/>
    <path id="_1_14" class="fil2" d="M0.37 0.17l0.01 0 -0.01 0 -0 -0 -0 -0 -0 -0 -0 -0 -0 -0 -0 -0 -0 -0 -0 -0 -0 -0 -0 -0 0.01 -0 0 0 0 0 0 0 0 0 0 0 0 0 0 0 0 0 0 0 0 0 -0.01 0zm0.01 0l0 0.01 -0.01 -0 0.01 -0zm-0.01 -0.01l0.01 -0 0 0 0 0 0 0 0 0 0 0 0 0 0 0 0 0 0 0 -0.01 0 -0 -0 -0 -0 -0 -0 -0 -0 -0 -0 -0 -0 -0 -0 0 0 0 0zm0.01 -0l0 0 0 0 -0 -0zm-0.01 -0l-0.01 0 0 -0.01 0 -0 0 -0 0 0 0 0 0 0 0 0 0 0 0 0 0 0 0 0 -0.01 0 -0 -0 -0 -0 0 0 -0 -0 0 0 0 0 0 0 0 0 -0 0 -0 0 0 -0.01zm-0.01 0l-0 -0.01 0.01 0 -0 0.01z"/>
   </g>
   <path class="fil1" d="M0.22 0.24c-0,-0 -0,-0 -0,-0 -0,0 -0.01,0.01 -0.01,0.01 0.01,0.01 0.01,-0.01 0.02,-0.01z"/>
   <path class="fil1" d="M0.37 0.24c0.01,0 0.01,0.01 0.01,0.01l0.01 0c0,-0 0,-0 0,-0 -0,-0 -0.01,-0.01 -0.01,-0.01 -0.01,-0.01 -0.01,-0 -0.01,-0z"/>
   <path class="fil1" d="M0.18 0.25c0,-0.02 -0.01,-0.01 -0.02,-0.01 -0,0 -0.02,-0 -0.01,0 0,0 0.01,0.01 0.01,0.01 -0,-0 -0,-0 -0,-0.01 0,-0 0,-0 0.01,-0 0,0 0,0.01 0,0.01l0.01 0c0,-0 0,-0 0,-0 0,-0 0,-0 0,-0z"/>
   <path class="fil1" d="M0.04 0.28c-0,-0 -0.01,-0 -0.01,-0 0,0 -0,0 0,0 0,0 0.01,0 0.01,0 -0,-0 -0,-0 -0,-0z"/>
   <path class="fil1" d="M0.13 0.25c-0,0 -0,0 -0.01,0 0.01,-0 0,-0 0.01,-0 -0,-0 -0,-0 -0.01,-0z"/>
   <path class="fil1" d="M0.06 0.21c0.04,-0.01 0.03,0.01 0.05,0.01 -0,-0.01 -0.01,-0.01 -0.02,-0.02 -0.01,-0 -0.01,-0 -0.01,-0l-0.04 0.01c-0,0 -0.01,0 -0.01,0 -0,0 -0.01,0 -0.01,0.01 0.01,-0.01 0.01,-0.01 0.02,-0.01 0.01,-0 0.02,-0 0.03,-0.01z"/>
   <path class="fil4" d="M0.1 0.23l-0.08 0c-0.01,0 -0.01,0.01 -0.01,0.01 0,0 0,0.01 0.01,0.01 0.01,0.01 0.01,0.01 0.01,0.01 0.01,0 0.05,-0 0.06,-0.01 0,-0 0.01,-0.01 0.01,-0.01 0,-0 -0,-0 -0,-0.01z"/>
   <path class="fil4" d="M0.02 0.23l0.07 -0c-0,-0 -0.01,-0.01 -0.01,-0.01 -0.01,-0 -0.05,0 -0.06,0.01 -0,0 -0,0 -0.01,0z"/>
   <path class="fil3" d="M0.25 0.29l-0.01 -0c0,0.01 0.01,0 0.01,0l-0 -0z"/>
   <path class="fil3" d="M0.27 0.3c0.02,0 0.02,0.02 0.02,0.02 0.02,0 0.02,0 0.02,-0 0,-0 0,-0 0,-0.01 0,-0 0.01,-0.01 0.01,-0.01 -0,-0 -0,-0 -0,-0l-0.01 -0c0,0.01 -0,0.01 -0.01,0.01l-0.01 0c-0.01,0 -0.01,-0.01 -0.01,-0.01l-0.01 -0c-0,0 -0,0 -0,0z"/>
   <path class="fil3" d="M0.29 0.3c0,0.01 0,0.01 0.01,0.01 0,0 0,-0 0,-0.01l-0.02 -0c-0,0 -0,0 -0,0z"/>
   <path class="fil3" d="M0.25 0.32c0.01,-0 0.01,-0 0,-0.02 -0.01,0 -0,0 -0.01,0 0,0.01 0,0.01 0,0.02 0,-0 0,-0 0.01,-0z"/>
   <path class="fil3" d="M0.34 0.31l-0 0.01c0,0 0.01,0.01 0.01,0.01 0,-0.01 0,-0.01 0,-0.02 -0.01,0 -0.01,0 -0.01,-0z"/>
   <path class="fil3" d="M0.35 0.3l0.01 0c0,-0 0,-0 0,-0l-0.01 0 -0 0z"/>
   <path class="fil3" d="M0.28 0.26l0.04 0c0.01,-0 0.02,-0 0.03,-0.01 0,-0 0,-0 0,-0l-0.1 0c0,0 0,0 0,0 0.01,0.01 0.02,0.01 0.03,0.01z"/>
   <path class="fil3" d="M0.25 0.24l0.1 0c0,-0 0,-0.01 0,-0.01l-0.1 0c-0,0 -0,0.01 0,0.01z"/>
   <path class="fil3" d="M0.25 0.22l0.09 0c-0.01,-0.01 -0.03,-0.01 -0.04,-0 -0.01,0 -0,0 -0.02,0l-0.02 -0c-0.01,0 -0.02,0 -0.02,0z"/>
   <path class="fil1" d="M0.42 0.25c0,-0.02 0.01,-0.01 0.02,-0.01 0,0 0.02,-0 0.01,0 -0,0 -0.01,0.01 -0.01,0.01 0,-0 0,-0 0,-0.01 -0,-0 -0,-0 -0.01,-0 -0,0 -0,0.01 -0,0.01l-0.01 0c-0,-0 -0,-0 -0,-0 -0,-0 -0,-0 -0,-0z"/>
   <path class="fil1" d="M0.55 0.28c0,-0 0.01,-0 0.01,-0 -0,0 0,0 -0,0 -0,0 -0.01,0 -0.01,0 0,-0 0,-0 0,-0z"/>
   <path class="fil1" d="M0.46 0.25c0,0 0,0 0.01,0 -0.01,-0 -0,-0 -0.01,-0 0,-0 0,-0 0.01,-0z"/>
   <path class="fil1" d="M0.54 0.21c-0.04,-0.01 -0.03,0.01 -0.05,0.01 0,-0.01 0.01,-0.01 0.02,-0.02 0.01,-0 0.01,-0 0.01,-0l0.04 0.01c0,0 0.01,0 0.01,0 0,0 0.01,0 0.01,0.01 -0.01,-0.01 -0.01,-0.01 -0.02,-0.01 -0.01,-0 -0.02,-0 -0.03,-0.01z"/>
   <path class="fil4" d="M0.5 0.23l0.08 0c0.01,0 0.01,0.01 0.01,0.01 -0,0 -0,0.01 -0.01,0.01 -0.01,0.01 -0.01,0.01 -0.01,0.01 -0.01,0 -0.05,-0 -0.06,-0.01 -0,-0 -0.01,-0.01 -0.01,-0.01 0,-0 0,-0 0,-0.01z"/>
   <path class="fil4" d="M0.57 0.23l-0.07 -0c0,-0 0.01,-0.01 0.01,-0.01 0.01,-0 0.05,0 0.06,0.01 0,0 0,0 0.01,0z"/>
   <path class="fil1" d="M0.3 1.17l-0.04 -0c0,0.01 0,0.01 0.01,0.02 0,0 0.01,0.01 0.01,0.01 0,0 0.01,0 0.01,0 0.03,0 0.03,-0.01 0.04,-0.03 -0.01,0 -0.02,0 -0.03,0z"/>
   <path class="fil4" d="M0.28 1.16l0.03 0c0.01,0 0.01,0 0.02,0 0.01,0 0.01,-0 0.01,-0 0.01,-0 0.03,0 0.03,-0 0,-0 0.01,-0.05 0.01,-0.05 -0.01,0 -0.03,0 -0.04,0 -0,0 -0.01,0.01 -0.01,0.01 -0.02,0.01 -0.02,0 -0.03,0 -0.01,0 -0.01,0 -0.03,-0 -0.01,-0 -0.01,-0 -0.01,-0.01 -0.01,-0 -0.01,-0 -0.02,-0 -0.01,-0 -0.01,-0 -0.02,-0 0,0.01 0.01,0.05 0.01,0.05 0,0 0.01,0 0.02,0 0.01,0 0.01,-0 0.02,-0 0.01,0 0.01,0 0.01,0z"/>
   <path class="fil1" d="M0.25 0.38c-0,-0.02 0.02,-0.04 0.05,-0.04 0.05,0 0.05,0.05 0.03,0.07 -0.01,0.01 -0.02,0.01 -0.03,0.01 -0.01,0 -0.02,0 -0.03,-0.01 -0.01,-0.01 -0.01,-0.02 -0.01,-0.03zm0 -0.05l0.08 -0c-0,-0 -0,-0 -0,-0 -0.01,-0.01 -0.07,-0.01 -0.08,0 -0,0 -0,0 -0,0 0,0 0,0 -0,0zm0.01 0.1c0,-0.01 0.02,-0.01 0.03,-0.01l0.03 -0c0.01,0 0,0.04 -0,0.05 -0,0 -0.02,0.01 -0.03,0.01 -0,0 -0.02,-0.01 -0.03,-0.01 -0.01,-0.01 -0.01,-0.03 -0.01,-0.04zm-0.01 0.14c0.01,-0 0.07,-0 0.08,0l0.01 -0.08c0,-0.02 0.01,-0.07 0.01,-0.09l0 -0.02c0,-0.01 -0.01,-0.03 -0.01,-0.05l-0.09 0c-0.01,0.02 -0.01,0.04 -0.01,0.07 0,0.03 0.01,0.14 0.02,0.17z"/>
   <path class="fil3" d="M0.33 0.39c-0.01,0.01 -0.02,0.01 -0.03,0.01 -0.01,0 -0.02,0 -0.03,-0.01 -0.01,-0.02 0,-0.03 0,-0.03 -0.02,0.01 -0.01,0.04 0,0.05 0.01,0 0.04,0 0.05,-0 0.01,-0.01 0.02,-0.04 0,-0.05 0,0 0.01,0.02 0,0.03zm-0.02 -0.01c0,-0.01 -0,-0.01 -0.01,-0.01 -0,0 -0,0 -0,0.01 0.02,0 0,0 0.02,0zm-0 0.02c0.02,0 0.02,-0.03 0.01,-0.03 -0.01,-0.01 -0.03,-0.01 -0.04,0 -0,0 -0.01,0.01 -0.01,0.01 0,0 0,0.01 0.01,0.01 0.01,0.01 0.02,0 0.02,0zm-0 -0.03c0.02,0 0.02,0.02 0,0.02 -0.01,0 -0.02,0 -0.02,-0.01 0,-0 0,-0.01 0,-0.01 0,-0 0.01,-0 0.01,-0z"/>
   <path class="fil1" d="M0.32 0.43l-0.05 0c0,0.01 0,0.03 0,0.03 0,0 0,0.01 0.01,0.01 0.01,0 0.01,0.01 0.03,-0 0.01,-0 0.01,-0 0.01,-0.01 0,-0.01 0,-0.02 0,-0.03z"/>
   <path class="fil1" d="M0.36 0.59c-0.01,-0.02 -0.03,-0.02 -0.04,-0.02 -0.01,-0 -0.05,0 -0.06,0 -0.01,0 -0.01,0 -0.02,0.01 -0.01,0.01 -0.01,0.03 -0.02,0.04 -0.01,0.02 -0,0.01 -0.01,0.03 -0,0.02 -0.01,0.05 -0.01,0.07 -0,0.02 -0.01,0.05 -0.01,0.08 0,0.04 0.01,0.09 0.02,0.13 0.02,0.07 0.02,0.06 0.09,0.06 0.02,0 0.05,0 0.06,-0.01 0.02,-0.02 0.03,-0.11 0.04,-0.15 0,-0.01 -0,-0.01 0,-0.02 0,-0.02 -0,-0.08 -0.01,-0.1 -0,-0.03 -0.01,-0.05 -0.01,-0.07 -0,-0.01 -0,-0.01 -0,-0.02 -0.01,-0.01 -0.01,-0.03 -0.02,-0.05z"/>
   <g style="clip-path:url(#id3)">
    <g>
     <path id="_1_15" class="fil9" d="M0.27 0.59c-0.01,0 -0.01,0 -0.01,0 -0.01,0 -0.01,0.01 -0.01,0.02 -0,0.01 -0,0.02 -0.01,0.04 -0.01,0.03 -0.01,0.07 -0.02,0.09 -0.01,0.03 -0,0.04 -0,0.05 0,0.01 0.01,0.01 0.02,0 0.01,-0 0.03,-0.01 0.04,-0.01 0.01,-0 0.01,-0 0.02,-0 0.01,0 0.01,0 0.02,0 0.02,0 0.03,0.01 0.04,0.01 0.01,0 0.02,0 0.02,-0 0,-0.01 0,-0.02 -0,-0.05 -0,-0.02 -0.01,-0.06 -0.02,-0.09 -0,-0.02 -0,-0.03 -0.01,-0.04 -0,-0.02 -0.01,-0.02 -0.01,-0.02 -0,-0 -0.01,-0 -0.01,-0 -0,-0 -0.01,-0 -0.01,-0 -0.01,-0 -0.01,-0 -0.02,-0 -0.01,-0 -0.01,0 -0.02,0 -0,0 -0.01,0 -0.01,0zm0.11 0.25c-0,-0.02 -0,-0.02 -0.01,-0.03 -0,-0 -0.01,-0.01 -0.01,-0.01 -0.01,-0 -0.01,-0 -0.03,-0 -0.01,0 -0.02,0 -0.03,0 -0.01,-0 -0.02,-0 -0.03,-0 -0.02,-0 -0.03,-0 -0.03,0 -0.01,0 -0.01,0 -0.01,0.01 -0.01,0 -0.01,0.01 -0.01,0.03 -0,0.02 -0,0.04 0,0.06 0,0.02 0.01,0.04 0.01,0.05 0,0.01 0.01,0.02 0.01,0.02 0.01,0 0.01,0.01 0.03,0.01 0.01,0 0.02,-0 0.03,-0 0.01,0 0.02,0 0.03,0 0.02,-0 0.02,-0 0.03,-0.01 0.01,-0 0.01,-0.01 0.01,-0.02 0,-0.01 0.01,-0.03 0.01,-0.05 0,-0.02 0,-0.05 0,-0.06z"/>
    </g>
   </g>
   <path class="fil10" d="M0.36 0.59c-0.01,-0.02 -0.03,-0.02 -0.04,-0.02 -0.01,-0 -0.05,0 -0.06,0 -0.01,0 -0.01,0 -0.02,0.01 -0.01,0.01 -0.01,0.03 -0.02,0.04 -0.01,0.02 -0,0.01 -0.01,0.03 -0,0.02 -0.01,0.05 -0.01,0.07 -0,0.02 -0.01,0.05 -0.01,0.08 0,0.04 0.01,0.09 0.02,0.13 0.02,0.07 0.02,0.06 0.09,0.06 0.02,0 0.05,0 0.06,-0.01 0.02,-0.02 0.03,-0.11 0.04,-0.15 0,-0.01 -0,-0.01 0,-0.02 0,-0.02 -0,-0.08 -0.01,-0.1 -0,-0.03 -0.01,-0.05 -0.01,-0.07 -0,-0.01 -0,-0.01 -0,-0.02 -0.01,-0.01 -0.01,-0.03 -0.02,-0.05z"/>
   <path class="fil1" d="M0.19 0.61c-0,-0.01 -0,-0.01 -0,-0.02l-0 0c0,0.01 0,0.01 0,0.02l0.01 0z"/>
   <path class="fil1" d="M0.41 0.6c-0,0.01 -0,0.01 -0,0.02l0.01 0c0,-0 0,-0.01 0,-0.02l-0 0z"/>
  </g>
 </g>
</svg>
