<?xml version="1.0" encoding="UTF-8"?>
<!DOCTYPE svg PUBLIC "-//W3C//DTD SVG 1.1//EN" "http://www.w3.org/Graphics/SVG/1.1/DTD/svg11.dtd">
<!-- Creator: CorelDRAW -->
<svg xmlns="http://www.w3.org/2000/svg" xml:space="preserve" width="4.5325mm" height="14mm" version="1.1" style="shape-rendering:geometricPrecision; text-rendering:geometricPrecision; image-rendering:optimizeQuality; fill-rule:evenodd; clip-rule:evenodd"
viewBox="0 0 21.51 66.43"
 xmlns:xlink="http://www.w3.org/1999/xlink"
 xmlns:xodm="http://www.corel.com/coreldraw/odm/2003">
 <defs>
  <style type="text/css">
   <![CDATA[
    .fil4 {fill:black}
    .fil1 {fill:#0A0B0B}
    .fil3 {fill:#131414}
    .fil7 {fill:#2C2D2D}
    .fil9 {fill:#5C5E61}
    .fil12 {fill:#770405}
    .fil10 {fill:#959696}
    .fil11 {fill:#C80406}
    .fil0 {fill:#CC0000}
    .fil5 {fill:#D9DAD9}
    .fil6 {fill:#FDFDFD}
    .fil8 {fill:black;fill-opacity:0.301961}
    .fil2 {fill:url(#id0)}
   ]]>
  </style>
  <linearGradient id="id0" gradientUnits="userSpaceOnUse" x1="2.97" y1="7.9" x2="18.32" y2="7.9">
   <stop offset="0" style="stop-opacity:1; stop-color:#5C5E61"/>
   <stop offset="0.501961" style="stop-opacity:1; stop-color:#9B9D9E"/>
   <stop offset="0.768627" style="stop-opacity:1; stop-color:white"/>
   <stop offset="1" style="stop-opacity:1; stop-color:dimgray"/>
  </linearGradient>
 </defs>
 <g id="Camada_x0020_1">
  <metadata id="CorelCorpID_0Corel-Layer"/>
  <path class="fil0" d="M19.68 9.96l0 49.82c-0.01,0.41 -0.08,0.41 -0.09,0.82 -0.04,1.26 -0.05,2.61 -0.22,3.68 -0.23,1.4 -0.73,1.58 -2.17,1.73 -1.09,0.11 -2.19,0.4 -3.42,0.4l-5.61 0c-0.88,-0.03 -1.7,-0.09 -2.42,-0.19 -2.96,-0.43 -3.43,0 -3.69,-3.04l-0.16 -2.08c-0.02,-1.58 -0.13,-2.72 -0.08,-4.41l0 -4.98c0,-1.19 0.14,-0.73 0,-2.41l0 -7.22c0.13,-1.54 -0,-1.17 -0,-2.66l0 -10.55c0,-1.71 0.08,-3.16 0.08,-4.82l-0.08 -2.16c-0.05,-0.52 0.06,-0.75 0.08,-1.16 0.02,-0.36 -0,-0.79 -0,-1.16 0,-3.21 0,-6.42 0,-9.63 -0.71,0.06 -0.69,0.75 -0.74,1.42 -0.03,0.36 0.15,1.74 -0.42,1.74 -0.87,0 -0.59,-0.13 -0.68,-0.98 -0.03,-0.25 -0.06,-0.56 -0.07,-0.89l0 -0.58c0.03,-0.54 0.14,-1.05 0.43,-1.35 0.63,-0.62 1.13,-0.35 1.48,-0.35 0,-1.55 0.13,-2.92 0.25,-4.32 0.05,-0.62 0.15,-1.36 0.29,-1.95 0.4,-1.76 2.34,-2.11 4.32,-2.41 1.14,-0.18 3.08,-0.28 4.2,-0.28 1.23,0 2.85,0.1 4.11,0.3 1.16,0.18 2.68,0.56 3.36,1.21 0.01,0.01 0.03,0.03 0.04,0.04l0.16 0.17c0.92,1.04 0.97,5.98 0.97,7.25 0.4,0 0.54,-0.11 0.84,-0.02 0.68,0.21 0.97,0.83 1.07,1.55l0 1.49c-0.02,0.2 -0.04,0.39 -0.06,0.56 -0.08,0.62 -0.16,0.66 -0.93,0.48 -0.43,-0.9 0.2,-2.8 -0.83,-3.07z"/>
  <g id="_1770231818000">
   <path class="fil1" d="M19 24.99l0.42 -4.01c0.01,0.92 0.01,1.8 -0.06,2.69 -0.05,0.68 -0.29,1.95 -0.24,2.5 0.08,0.35 -0.1,1.28 -0.14,1.69l0.07 -0.15c0.01,-0.03 0.02,-0.05 0.03,-0.08 0.12,-0.4 0.17,-1.11 0.17,-1.54 0,-0.1 -0,-0.2 0.03,-0.29 0.1,-0.32 0.02,-0.13 0.18,-0.3 -0.04,1.38 0.07,2.94 0.05,4.38l0.01 13.12c0.04,2.93 -0.02,5.88 -0.01,8.8 0.01,1.16 0.16,8.18 -0.12,8.64 -0.19,0.67 0.06,3.42 -0.43,4.6 -0.41,1 -1.86,0.59 -2.79,0.79 -0.45,0.1 -0.42,0.22 -0.97,0.28 -2.14,0.22 -5.05,0.29 -7.24,0.14 -0.56,-0.04 -1.77,-0.01 -2.13,-0.35 -0.03,0.27 -0.63,0.15 -0.89,0.09 -0.55,-0.12 -0.19,-0.03 -0.38,-0.24l0.61 0.01c-0.53,-0.04 -0.64,0.06 -1,0.04 -0.31,-0.02 -0.7,-0.07 -0.96,-0.19 -1.31,-0.61 -0.9,-3.75 -1,-4.83 -0.03,-0.32 -0.15,-0.45 -0.15,-1.01l0.04 -9.39c-0.18,-1.05 -0.07,-10.63 -0.06,-12.54 0.01,-2.42 -0.07,-11.91 0.08,-12.23 0,0.02 -0.01,0.1 0.03,0.18 0.12,0.25 0.02,0.08 0.2,0.25l-0.06 -0.59 -0.15 -2.06c-0.31,-0.36 -0.16,-2.9 -0.15,-3.32 0.21,0.19 0.24,0.25 0.23,0.58 0.06,-0.92 -0.07,-1.89 0,-2.82 0.02,-0.31 0.13,-0.43 0.09,-0.62l-0.03 -0.05c-0.04,-0.22 0.35,-0.78 0.73,-0.94 -0.11,0.49 -0.19,0.21 -0.46,0.61l-0.17 0.33c0.2,-0.19 0.31,-0.46 0.58,-0.57 0.1,0.78 0.03,1.92 0.04,2.74 0,1.12 0.22,1.55 -0.63,2.13 -0.12,-0.15 -0.17,-0.28 -0.11,-0.56l0.08 2.47c-0.05,0.35 0.02,0.66 0.06,1.02 0.19,0.25 0.3,1.23 0.31,1.5 0.04,-0.74 -0.25,-1.91 -0.31,-2.71 -0.08,-1.12 -0.38,-1.67 0.6,-2.18l0.01 6.02c-0.01,-0.02 -0.03,-0.05 -0.03,-0.08 -0.01,-0.02 -0.02,-0.05 -0.03,-0.08l-0.2 -0.9c0.03,0.36 0.09,0.38 0,0.74l-0.08 0.12c0.17,0.2 0.32,1.42 0.35,1.69 0.02,-0.02 0.06,-0.04 0.08,-0.06l0.17 -0.13c-0.14,-1.57 -0.04,-3.72 -0.05,-5.35 -0.02,-4.93 0.17,-7.83 -0.52,-12.76 -0.08,-0.55 -0.32,-1.92 -0.28,-2.35 -0.32,0.28 -0.08,0.6 -0.29,0.99 -0.27,-0.59 0.22,-4.82 0.45,-5.94 0.05,-0.26 0.06,-0.49 0.26,-0.69l-0.03 -0c0.02,-0.18 -0.04,-0.15 0.11,-0.15 0,-0.2 -0.06,-0.11 0.1,-0.12 -0.04,-0.16 -0.08,-0.14 0.07,-0.1 -0.05,-0.17 -0.09,-0.15 0.08,-0.09 -0.06,-0.18 -0.09,-0.15 0.09,-0.09 -0.06,-0.16 -0.07,-0.12 0.09,-0.07 0.01,-0.14 -0.08,-0.1 0.08,-0.12 0.01,-0.15 -0.02,-0.1 0.15,-0.05 -0.01,-0.14 -0.03,-0.08 0.13,-0.11 0.23,-0.22 1.12,-0.52 1.46,-0.49 0.05,-0.03 0.07,-0.06 0.18,-0.1 0.21,-0.08 -0.08,0.01 0.14,-0.05 0.14,-0.04 0.23,-0.04 0.37,-0.06 1.79,-0.48 4.28,-0.42 6.2,-0.43 0.4,-0 1.07,-0.03 1.36,0.14 0.77,-0.13 2.37,0.26 3.09,0.46 0.88,0.24 2,0.61 2.1,1.36 0.15,0.05 0.11,-0.08 0.09,0.17 0.6,0.69 0.59,5.44 0.67,6.55 -0.14,-0.2 -0.13,-0.69 -0.17,-1.04l-0.16 0.17c0.09,0.77 -0.43,3.26 -0.52,4.26 -0.15,1.55 -0.17,2.97 -0.21,4.55 -0.08,3.02 -0.11,6.31 -0.05,9.34l0.04 3.49c0.03,-0.86 0.65,-2.63 0.5,-3.61 -0.07,-0.34 -0.02,-0.41 0.02,-0.76 -0.16,0.55 -0.05,1.05 -0.32,1.57 -0.1,-0.7 -0.03,-9.9 0.08,-10.2 0.36,0.08 0.4,0.28 0.59,0.66 0.23,0.47 0.09,2.91 0.08,3.53 -0.02,1.34 -0.5,3.25 -0.43,4.44 0.05,-0.66 -0.05,-0.06 0.16,-0.33zm2.5 -14.49l0 1.49c-0.02,0.2 -0.04,0.39 -0.06,0.56 -0.08,0.62 -0.16,0.66 -0.93,0.48 -0.43,-0.9 0.2,-2.8 -0.83,-3.07l0 49.82c-0.01,0.41 -0.08,0.41 -0.09,0.82 -0.04,1.26 -0.05,2.61 -0.22,3.68 -0.23,1.4 -0.73,1.58 -2.17,1.73 -1.09,0.11 -2.19,0.4 -3.42,0.4l-5.61 0c-0.88,-0.03 -1.7,-0.09 -2.42,-0.19 -2.96,-0.43 -3.43,0 -3.69,-3.04l-0.16 -2.08c-0.02,-1.58 -0.13,-2.72 -0.08,-4.41l0 -4.98c0,-1.19 0.14,-0.73 0,-2.41l0 -7.22c0.13,-1.54 -0,-1.17 -0,-2.66l0 -10.55c0,-1.71 0.08,-3.16 0.08,-4.82l-0.08 -2.16c-0.05,-0.52 0.06,-0.75 0.08,-1.16 0.02,-0.36 -0,-0.79 -0,-1.16 0,-3.21 0,-6.42 0,-9.63 -0.71,0.06 -0.69,0.75 -0.74,1.42 -0.03,0.36 0.15,1.74 -0.42,1.74 -0.87,0 -0.59,-0.13 -0.68,-0.98 -0.03,-0.25 -0.06,-0.56 -0.07,-0.89l0 -0.58c0.03,-0.54 0.14,-1.05 0.43,-1.35 0.63,-0.62 1.13,-0.35 1.48,-0.35 0,-1.55 0.13,-2.92 0.25,-4.32 0.05,-0.62 0.15,-1.36 0.29,-1.95 0.4,-1.76 2.34,-2.11 4.32,-2.41 1.14,-0.18 3.08,-0.28 4.2,-0.28 1.23,0 2.85,0.1 4.11,0.3 1.16,0.18 2.68,0.56 3.36,1.21 0.01,0.01 0.03,0.03 0.04,0.04l0.16 0.17c0.92,1.04 0.97,5.98 0.97,7.25 0.4,0 0.54,-0.11 0.84,-0.02 0.68,0.21 0.97,0.83 1.07,1.55zm-19.51 2.53c0,-0.47 -0.15,-2.85 0.17,-3.23 0.16,0.25 0.16,0.41 0.17,0.68 -0.11,-0.3 -0.05,-0.44 0.08,-0.65 0.23,0.19 0.2,0.52 0.25,0.89 0.21,1.6 0.37,3.16 0.34,4.81 -0.01,0.5 0,0.41 -0.26,0.73 -0.19,0.23 -0.25,0.41 -0.52,0.55l0.03 -4.67c0,1.08 -0.04,0.72 -0.25,0.89zm17.28 3.74c-0.34,-0.17 -0.33,-0.28 -0.55,-0.55 -0.25,-0.32 -0.14,0.11 -0.21,-0.44l0.27 -4.45c0.25,-1.65 0.06,-1.38 0.72,-1.54 0,0.44 -0,0.89 0,1.33 0,0.16 0.02,0.44 0.02,0.58 -0.02,0.54 -0.17,0.5 -0.27,0.58l0 -1.9c0.09,0.25 0.09,5.83 0.01,6.39zm1.96 -3.83l-0.53 -0.03c-0.16,-0.41 -0.12,-1.55 -0.21,-2.1 -0.09,-0.55 -0.21,-0.63 -0.35,-0.82 -0.16,-0.22 -0.2,-0.38 -0.08,-0.88 0.68,-0.17 1.24,0.52 1.24,1.26 -0,0.82 0.03,1.79 -0.06,2.58zm-20.95 -0.03c-0.08,-0.81 -0.08,-1.71 -0.07,-2.54 0.01,-0.64 0.2,-1 0.81,-1.23l0.43 -0.02c0.09,0.24 0.08,0.45 0.03,0.75 -0.24,0.07 0.06,-0.29 -0.22,0.01l-0.27 1.07c-0.05,0.54 -0.02,1.54 -0.1,1.97l-0.6 -0.01zm18.98 -3.85c0.13,0.01 0.24,0.01 0.36,0.05 0.34,0.12 0.44,0.43 -0.38,0.48l0.02 -0.53zm-17.05 0.54c-0.4,-0.02 -0.61,-0.02 -0.49,-0.42 0.48,-0.17 0.41,-0.04 0.52,0.03l-0.03 0.39z"/>
   <path class="fil2" d="M2.97 7.14c0.01,1.1 0.51,1.82 0.64,2.81 0.32,-0.37 3.57,-0.66 3.95,-0.64l1.49 0.23c0.36,0.07 0.09,0.07 0.49,0.06 0.16,-0.01 0.9,-0.04 1.07,-0.07 0.09,-0.02 0.67,-0.3 0.74,-0.35 -0.15,-0 -0.33,0.01 -0.48,0 -0.34,-0.01 -0.34,0 -0.51,-0.14 0.65,-0.25 2.91,-0.06 3.67,-0 1.22,0.08 2.45,0.08 3.75,0.09l0.02 0.65c0.26,-0.12 0.14,-0.05 0.2,-0.36 0.54,-2.53 0.87,-2.54 -3.38,-3.29 -0.86,-0.15 -1.59,-0.13 -2.42,-0.21 -1.68,-0.16 -3.53,0.01 -5.07,0.22 -1.03,0.14 -3.62,0.68 -4.17,1.01z"/>
   <path class="fil3" d="M2.97 7.14c0.55,-0.33 3.14,-0.87 4.17,-1.01 1.54,-0.2 3.39,-0.38 5.07,-0.22 0.83,0.08 1.56,0.06 2.42,0.21 4.25,0.74 3.93,0.75 3.38,3.29 -0.07,0.31 0.06,0.23 -0.2,0.36l-0.02 -0.65c-1.31,-0 -2.54,-0.01 -3.75,-0.09 -0.76,-0.05 -3.03,-0.24 -3.67,0 0.17,0.14 0.17,0.12 0.51,0.14 0.15,0.01 0.33,-0 0.48,-0 -0.07,0.05 -0.65,0.33 -0.74,0.35 -0.17,0.03 -0.91,0.07 -1.07,0.07 -0.4,0.02 -0.13,0.01 -0.49,-0.06l-1.49 -0.23c-0.38,-0.02 -3.63,0.27 -3.95,0.64 -0.13,-0.99 -0.63,-1.71 -0.64,-2.81zm14.86 -0.47c0,-0.21 0.04,-0.14 -0.21,-0.12 -0.07,0.04 0.17,0.06 -0.26,0.04l0.25 0.01c-0.11,-0.15 0.19,-0.12 -0.3,-0.15 -0.01,0.01 -0.03,0.01 -0.04,0.02l-0.05 0.02c-0,0 -0.38,0.01 0.02,-0.01 0,-0.19 0.04,-0.13 -0.16,-0.12 -0.13,0.11 0.11,-0.01 -0.11,0.05 -0.04,0.01 -0.29,0.03 0.03,-0.04 0,-0.17 0.04,-0.12 -0.15,-0.1 -0.14,0.12 0.02,0.06 -0.23,0.07 -0,0 -0.27,-0.04 -0.27,-0.04 -0.21,-0.04 -0.36,-0.09 -0.5,-0.17l0.43 -0.01c0.13,0.13 0.03,0.07 0.28,0.09 -0.08,-0.09 0.17,-0.17 -0.28,-0.09 -0.06,-0.05 -0.03,-0.05 -0.18,-0.1 -0.13,-0.04 -0.14,-0.02 -0.25,-0.02 -0.11,0.13 0.09,0.16 -0.38,0.09 -0.07,-0.01 -0.4,-0.04 -0.17,-0.11 -0.08,-0.09 -0.03,-0.07 -0.15,-0.15 -0.12,-0.09 0.01,-0.03 -0.17,-0.09 -0.18,-0.06 -0.2,-0.04 -0.34,-0.03 -0.07,-0.12 0.15,-0.09 -0.22,-0.1 0.09,0.16 -0.11,0.16 0.22,0.1l-0.12 0.02c-0.02,0 -0.04,0 -0.06,0 -0.02,0 -0.2,-0.01 -0.2,-0.01l-0.6 -0.22c-0.16,-0.12 -0.36,-0.13 -0.55,-0.16 0.36,0.04 0.28,0.07 0.62,-0.02l-2.6 -0.22c-2.37,-0.02 -5.14,0.17 -7.3,0.93l-0.16 0.2c0.55,0.04 1.13,-0.23 1.63,-0.34 0.45,-0.1 1.53,-0.19 1.97,-0.11 -0.32,-0.15 -3.32,0.73 -3.85,0.88 -0.16,-0.14 0.13,0.13 0.09,-0.12 -0.02,-0.12 0.03,-0.05 -0.18,-0.12l0.4 -0.07c-0.16,-0.16 0.08,-0.12 -0.23,-0.12l-0.01 -0.01 -0.3 0.1 -0.24 0.19 0 -0.55c-0.27,0.25 -0.21,1.08 -0.2,1.44 0.11,1.41 0.51,3.02 0.68,4.21l0.04 -0.08c0.04,-0.28 0.01,-0.32 -0,-0.45 1.38,-0.76 5.43,-1.04 7.26,-1.05 3.82,-0.03 4.17,0.33 7.34,1 -0.09,2.36 -0.29,3.06 -0.27,5.9 0.07,10.07 0,20.38 0,30.47 -0,4 0.12,8.21 -0.1,12.15l-0.55 0.02 -0.03 0.01 0.32 0.03c0.02,0.19 0.04,0.4 0.04,0.58 0.02,0.58 -0.07,0.54 -0.15,0.62 -0.06,-0.17 0.11,-0.1 -0.3,-0.11 -0.2,-0 -0.2,0.03 -0.29,0.08l0.59 0.03 -0.05 0.13c-0,-0 -0.16,0.02 -0.18,0.03 -0.02,0.01 -0.06,0.02 -0.08,0.02l-0.15 0.07 0.65 -0.04c0.11,0.13 0.01,-0.06 0.16,0.25 0.26,0.52 0.2,1.85 0.19,2.38 0.09,-0.3 -0.01,-0.34 0.23,-0.64 -0.21,-0.14 -0.18,0.2 -0.17,-0.25 0.01,-1.71 -0.42,-1.58 -0.36,-2.66 0.05,-0.79 0.01,-0.1 0.2,-0.59 0.06,-0.16 0.08,-0.45 0.09,-0.65 0.03,-0.48 0.04,-0.98 0.03,-1.46l0 -0.08 0 -27.32 0 -0.16c-0,-0.87 0.04,-2.13 0.02,-2.74 -0.03,-0.92 -0.02,-1.85 -0.02,-2.78 -0.01,-4.81 -0.25,-11.91 0.81,-16.12 -0.27,-0.32 -0.04,-0.58 -0.02,-0.93 0.02,-0.26 -0.05,-0.23 -0.06,-0.38 -0,-0.01 0,-0.03 0,-0.04l0.04 -0.19c-0.14,-0.06 -0.2,-0.08 -0.35,-0.15 -0.13,0.11 0,0.07 -0.33,0.09 0.26,0.21 0.02,0.04 0.32,0.18 0.11,0.05 0.11,0.03 0.22,0.12l-0.7 -0.25z"/>
   <path class="fil4" d="M19.14 26.18c-0.69,1.07 -0.43,21.96 -0.43,25.97 -0,1.87 -0.04,4.59 0.12,6.42 0.03,0.31 0.06,0.67 0.11,0.95l0.29 0.95c0.19,-0.77 0.26,-27.33 0.16,-27.69l0.03 27.69c0.28,-0.46 0.12,-7.47 0.12,-8.64 -0.01,-2.92 0.05,-5.88 0.01,-8.8l-0.01 -13.12c0.02,-1.44 -0.08,-3 -0.05,-4.38 -0.16,0.17 -0.08,-0.02 -0.18,0.3 -0.03,0.09 -0.02,0.19 -0.03,0.29 -0,0.43 -0.05,1.14 -0.17,1.54 -0.01,0.03 -0.02,0.05 -0.03,0.08l-0.07 0.15c0.05,-0.42 0.22,-1.35 0.14,-1.69z"/>
   <path class="fil4" d="M2.08 50.4c0.16,0.08 0.11,0.73 0.02,0.85 0.11,1.99 -0.01,4.79 0.04,7.04 0.02,1.04 0,1.97 0.22,2.29 -0.06,-0.19 -0.11,-0.15 0.08,-0.15l0.16 -0.97c0.04,-0.28 0.08,-0.81 0.19,-0.96l0.04 -8.01c0,-2.71 0,-5.43 0,-8.14 -0.01,-5.2 0.25,-10.78 -0.33,-15.89l-0.07 -0.35c-0.07,0.05 -0.31,-0.08 -0.15,0.79 0.16,0.92 -0.1,1.2 0.04,1.45 0.28,0.49 0.18,2.61 0.18,3.29 -0.1,0.05 -0.21,0.11 -0.33,0.17l-0 3.65c-0.01,0.25 -0.04,0.27 -0.03,0.49 0,0.14 0.03,0.34 0.03,0.51 0.03,1.54 -0,3.11 -0,4.65 0,1.54 0.11,8.36 -0.08,9.3z"/>
   <path class="fil5" d="M12.43 27.76c0.17,0.68 0.06,3.59 0.06,4.55 -0,0.77 -0,1.55 0,2.32 0,0.39 0,0.78 0,1.16 0,0.69 -0.16,0.59 -0.19,1.01 -0.4,-0.38 -0.37,-0.23 -1.42,-0.24 -1.68,-0.01 -1.77,0.18 -1.8,-0.52 -0.05,-1.62 0.17,-7.35 -0.03,-7.98l0.03 8.09c-0.15,-0.19 -0.14,-0.21 -0.13,-0.7l-0 -2.24c-0,-0.46 -0.06,-4.85 0.04,-5.2 0.09,-0.29 0.13,-0.3 0.46,-0.32 0.64,-0.05 2.5,-0.09 2.97,0.06zm0.33 -0.53l-4.02 -0.01 -0.1 0.09c-0.33,0.33 -0.27,0.39 -0.26,1.09l-0 7.72c-0.01,1.54 0.42,1.15 3.5,1.16 1.62,0.01 1.25,-0.09 1.25,-3.49l0.11 -6.16 -0.08 -0.18c0.05,-0.17 0.1,-0.15 -0.07,-0.12 0.03,-0.14 0.06,-0.11 -0.07,-0.08 0.02,-0.14 0.05,-0.12 -0.09,-0.09 -0.03,0.18 -0.07,0.16 0.09,0.09 -0.03,0.14 -0.06,0.12 0.07,0.08 -0.05,0.15 -0.09,0.12 0.07,0.12l-0.06 0.2c-0.1,-0.27 -0.12,-0.21 -0.34,-0.43zm0.48 9.64c-0.18,-0.01 -0.12,-0.04 -0.1,0.16 0.21,0 0.17,0.05 0.1,-0.16zm-0.29 0.32c-0.12,0 -0.09,-0.02 -0.05,0.1l0.05 -0.1zm-0.08 0.11c-0.19,-0.02 -0.16,-0.07 -0.15,0.09 0.19,0.04 0.15,0.09 0.15,-0.09zm-4.29 0.03c0.05,-0.17 0.09,-0.14 -0.08,-0.13 0,0.16 -0.05,0.15 0.08,0.13z"/>
   <path class="fil6" d="M11.7 36.16l-1.89 0 -0.11 0 -0.06 0c-0.11,-0.15 -0.15,-0.13 -0.15,-0.54 0,-1.46 -0.03,-7.32 0.07,-7.71l2.31 0.05c0.24,0.41 0.15,7.1 0.08,8.1l-0.25 0.1zm0.72 -8.4c-0.47,-0.15 -2.33,-0.11 -2.97,-0.06 -0.33,0.03 -0.37,0.03 -0.46,0.32 -0.11,0.35 -0.05,4.74 -0.04,5.2l0 2.24c-0.01,0.49 -0.02,0.51 0.13,0.7l-0.03 -8.09c0.2,0.63 -0.03,6.36 0.03,7.98 0.02,0.7 0.11,0.5 1.8,0.52 1.05,0.01 1.03,-0.14 1.42,0.24 0.03,-0.42 0.19,-0.32 0.19,-1.01 0,-0.39 -0,-0.78 -0,-1.16 -0,-0.77 -0,-1.55 0,-2.32 0,-0.95 0.11,-3.87 -0.06,-4.55z"/>
   <path class="fil6" d="M12.15 46.62c-0.52,-0.17 -1.63,-0.05 -2.27,-0.06 -0.63,-0.01 -0.63,-0.03 -0.64,0.59l0 2.34c0.03,0.57 0.16,0.49 0.72,0.48l1.75 -0c0.39,-0.01 0.51,-0.02 0.54,-0.49 0.03,-0.38 0.04,-2.61 -0.11,-2.87z"/>
   <path class="fil3" d="M3.42 11.63c0.27,4.33 0.17,8.67 0.17,13.04l0 26.07c-0,2.19 -0.01,4.37 -0.01,6.56 -0,2.56 0.34,2.34 0.36,2.9 0.03,0.71 -0.3,1.04 -0.34,2.17 -0.02,0.76 0,0.58 -0.16,0.66l0.14 0.17c0,0.17 0,0.33 0.01,0.5 0,0.06 0.01,0.2 0.02,0.25l0.07 0.23c0.01,0.02 0.02,0.05 0.03,0.07 -0.04,-0.62 -0.07,-1.26 -0.04,-1.89 0.02,-0.29 0.03,-0.58 0.09,-0.86 0.11,-0.48 0.11,-0.46 0.5,-0.5l0.69 0.1c-0.03,-0.01 -0.06,-0.06 -0.07,-0.04l-0.24 -0.08c-0.27,-0.05 -0.18,-0.03 -0.37,0.02l-0.05 -0.24 0.74 0.04c-0.12,-0.09 -0.26,-0.14 -0.49,-0.13 -0.35,0.01 -0.26,-0.01 -0.39,0.26l0.01 -1.3c1.04,-0.05 2.03,-0.22 3.04,-0.26 3.24,-0.13 6.8,-0.04 9.97,0.22l0.03 -0.01c-0.56,-0.53 -8.47,-0.31 -10.08,-0.29 -0.91,0.01 -2.41,0.31 -3.18,0.25 -0.19,-1.93 -0.14,-4.02 -0.13,-5.98l0 -30.22c-0,-0.68 0.17,-11.15 -0.29,-11.79l-0.04 0.08z"/>
   <path class="fil7" d="M2.15 23.42l-0.01 -0.94c0.14,0.22 0.08,0.44 0.13,0.68 0,0.02 0.01,0.05 0.02,0.07 0.01,0.02 0.02,0.04 0.02,0.06l0.05 0.11 -0.08 -2.47c-0.06,0.27 -0.01,0.41 0.11,0.56 0.85,-0.59 0.64,-1.02 0.63,-2.13 -0,-0.82 0.06,-1.96 -0.04,-2.74 -0.27,0.11 -0.38,0.38 -0.58,0.57l0.17 -0.33c0.27,-0.39 0.34,-0.11 0.46,-0.61 -0.37,0.16 -0.77,0.73 -0.73,0.94l0.03 0.05c0.04,0.19 -0.06,0.31 -0.09,0.62 -0.07,0.93 0.06,1.9 -0,2.82 0.01,-0.32 -0.03,-0.39 -0.23,-0.58 -0.01,0.42 -0.17,2.96 0.15,3.32zm0.27 1c0.01,0.24 0.03,0.39 0.06,0.61 0.02,0.2 0.04,0.4 0.07,0.59 0.03,0.19 0.06,0.37 0.08,0.56l0.15 0.56c0.09,-0.36 0.03,-0.38 -0,-0.74l0.2 0.9c0.01,0.03 0.02,0.05 0.03,0.08 0.01,0.02 0.02,0.05 0.03,0.08l-0.01 -6.02c-0.98,0.51 -0.68,1.06 -0.6,2.18 0.06,0.8 0.35,1.97 0.31,2.71 -0.01,-0.27 -0.12,-1.25 -0.31,-1.5z"/>
   <path class="fil7" d="M18.82 26.08c0.06,-0.09 0.02,0.02 0.08,-0.19 0.03,-0.1 0.04,-0.19 0.05,-0.29 0.02,-0.19 0.03,-0.41 0.05,-0.6 -0.21,0.26 -0.12,-0.33 -0.16,0.33 -0.07,-1.19 0.4,-3.09 0.43,-4.44 0.01,-0.62 0.15,-3.06 -0.08,-3.53 -0.19,-0.38 -0.23,-0.58 -0.59,-0.66 -0.1,0.3 -0.18,9.49 -0.08,10.2 0.26,-0.53 0.16,-1.02 0.32,-1.57 -0.04,0.35 -0.09,0.42 -0.02,0.76z"/>
   <path class="fil8" d="M18.65 5.98c0.01,0.02 0.03,0.03 0.03,0.06l0.05 0.13c0.09,0.33 0.06,1.05 0.04,1.39l0.11 -0.16c0.05,-0.17 0.04,-0.09 0.04,-0.29 0.06,0.4 0.11,0.52 0.14,0.94l0.16 -0.17c0.04,0.34 0.03,0.83 0.17,1.04 -0.08,-1.12 -0.07,-5.86 -0.67,-6.55 0.02,-0.25 0.06,-0.12 -0.09,-0.17l0.09 0.17c-0.37,-0.42 -0.05,-0.26 -0.94,-0.9 -0.44,-0.31 -0.38,-0.16 -0.6,0.04 1.85,0.21 1.08,2.82 1.46,4.48zm-5.21 -5.61c-0.28,-0.17 -0.95,-0.14 -1.36,-0.14 -0.14,0.12 0.13,0.01 -0.16,0.07l-1.89 0.01c-0.28,0.08 -0.15,0.01 -0.32,0.17 0.69,-0 1.44,-0.04 2.12,0l4.82 0.75c0.69,0.31 0.47,0.15 0.69,-0.04l-0.95 -0.26c-0.85,-0.26 -0.78,-0.18 -1.52,-0.3l-1.63 -0.2c-0.17,-0.03 -0.2,-0.05 -0.39,-0.07 -0.27,-0.02 -0.49,0.04 -0.75,-0.02 0.42,0.06 0.92,0.13 1.32,0.03z"/>
   <path class="fil7" d="M1.99 13.04c0.21,-0.18 0.25,0.19 0.25,-0.89l-0.03 4.67c0.27,-0.14 0.33,-0.31 0.52,-0.55 0.26,-0.32 0.25,-0.22 0.26,-0.73 0.03,-1.65 -0.13,-3.2 -0.34,-4.81 -0.05,-0.37 -0.02,-0.7 -0.25,-0.89 -0.13,0.2 -0.2,0.35 -0.08,0.65 -0.01,-0.26 -0.01,-0.42 -0.17,-0.68 -0.31,0.38 -0.17,2.77 -0.17,3.23z"/>
   <path class="fil7" d="M19.28 16.78c0.08,-0.56 0.07,-6.14 -0.01,-6.39l0 1.9c0.09,-0.08 0.25,-0.04 0.27,-0.58 0.01,-0.14 -0.02,-0.42 -0.02,-0.58 -0,-0.44 0,-0.89 0,-1.33 -0.67,0.16 -0.47,-0.11 -0.72,1.54l-0.27 4.45c0.07,0.55 -0.05,0.12 0.21,0.44 0.22,0.27 0.21,0.38 0.55,0.55z"/>
   <path class="fil9" d="M2.11 50.4l-0.03 0 0.02 0.85c0.08,-0.12 0.13,-0.77 -0.02,-0.85 0.19,-0.94 0.08,-7.76 0.08,-9.3 0,-1.54 0.03,-3.11 0,-4.65 -0,-0.17 -0.03,-0.37 -0.03,-0.51 -0.01,-0.21 0.02,-0.23 0.03,-0.49l0 -3.65c0.12,-0.05 0.23,-0.11 0.33,-0.17 0,-0.68 0.1,-2.81 -0.18,-3.29 -0.14,-0.25 0.12,-0.53 -0.04,-1.45 -0.15,-0.87 0.08,-0.73 0.15,-0.79l0.07 0.35 -0.07 -0.35c0.02,-0.15 0.04,-0.06 0,-0.29 -0.01,-0.05 -0.02,-0.1 -0.04,-0.14 -0.1,-0.31 0,-0.06 -0.09,-0.2l0.06 0.59c-0.18,-0.17 -0.08,0 -0.2,-0.25 -0.04,-0.09 -0.03,-0.17 -0.03,-0.18 -0.15,0.33 -0.08,9.81 -0.08,12.23 -0.01,1.91 -0.12,11.48 0.06,12.54z"/>
   <path class="fil3" d="M16.99 63.08c-0.11,-0.12 -0.03,-0.25 -0.72,-0.15 -1.58,0.22 -3.87,0.33 -5.4,0.33 -2.2,0 -4.16,-0.32 -6.26,-0.39 0.06,0.12 -0.07,0.26 0.57,0.35 0.24,0.04 0.51,0.08 0.75,0.11 0.47,0.06 1.02,0.1 1.48,0.13 2.06,0.13 8.19,0.35 9.56,-0.38z"/>
   <path class="fil8" d="M2.86 2.25c-0.19,0.19 -0.2,0.43 -0.26,0.69 -0.23,1.12 -0.71,5.36 -0.45,5.94 0.2,-0.39 -0.03,-0.7 0.29,-0.99 -0.03,-0.42 -0.01,-0.43 0.14,-0.72 0.01,0.03 0.04,0.08 0.04,0.09l0.11 0.16c-0.01,-0.35 -0.07,-1.19 0.2,-1.44 0.12,-0.49 -0.01,-1.05 0.04,-1.51l0.17 -2.14 0.36 -0.47c0.13,-0.13 0.24,-0.17 0.47,-0.26 0.59,-0.23 0.45,-0.23 0.5,-0.36 -0.16,-0.02 -0.12,-0.08 -0.53,0.11 -0.27,0.12 -0.28,0.14 -0.47,0.29l-0.62 0.6zm0.75 -0.79c0.18,0.06 0.13,0.09 0.13,-0.11 -0.16,0.03 -0.14,-0.03 -0.13,0.11 -0.16,-0.05 -0.14,-0.1 -0.15,0.05 -0.17,0.02 -0.08,-0.02 -0.08,0.12 -0.17,-0.04 -0.15,-0.09 -0.09,0.07 -0.18,-0.06 -0.15,-0.09 -0.09,0.09 -0.16,-0.06 -0.12,-0.08 -0.08,0.09 -0.15,-0.05 -0.11,-0.06 -0.07,0.1 -0.16,0.01 -0.1,-0.08 -0.1,0.12 -0.15,-0 -0.09,-0.03 -0.11,0.15 0.21,0 0.17,0.05 0.11,-0.15l0.1 -0.12c0.15,0.03 0.12,0.05 0.07,-0.1 0.17,0.04 0.13,0.07 0.08,-0.09 0.17,0.06 0.14,0.08 0.09,-0.09 0.16,0.06 0.13,0.09 0.09,-0.07l0.08 -0.12c0.18,0.05 0.16,0.11 0.15,-0.05zm2.28 -0.8c-0.14,0.02 -0.23,0.02 -0.37,0.06 -0.22,0.06 0.07,-0.04 -0.14,0.05 -0.11,0.04 -0.13,0.06 -0.18,0.1l-0.79 0.29c0.32,0.23 -0.05,0.25 0.94,-0.07 0.47,-0.15 0.75,-0.12 1.03,-0.37l-0.88 0.1c0.4,-0 0.14,0.05 0.39,-0.15z"/>
   <path class="fil6" d="M9.71 35.93c0.18,0.04 0.23,0.07 0.43,0.06 0.58,-0.03 0.17,0.02 0.36,-0.12 -0.14,-0.05 -0.25,-0.07 -0.36,-0.17 -0.27,-0.25 -0.08,-0.04 -0.13,-0.26 -0.12,-0.1 -0.07,0 -0.16,-0.2 -0.04,-0.08 -0.05,-0.18 -0.04,-0.27 0.02,-0.28 0.07,-0.29 0.2,-0.4 0.04,-0.21 0.02,-0.22 0.28,-0.37 0.13,-0.07 0.34,-0.14 0.5,-0.14 0.4,0.01 0.57,0.26 0.76,0.39 0.22,0 0.17,-0.05 0.1,0.18 0.01,-0.02 0.02,-0.05 0.02,-0.06l0.05 -0.28c0.03,-0.29 0.04,-0.71 -0.07,-0.92 0.06,0.21 0.11,0.17 -0.1,0.17 -0.31,0.21 -0.48,0.56 -1.14,0.33 -0.86,-0.29 -0.78,-1.63 0.16,-1.8 0.58,-0.1 0.7,0.24 0.97,0.39 0.22,0 0.17,-0.05 0.1,0.18l0.07 -0.34c0.01,-0.06 0.01,-0.27 0.01,-0.34 -0.01,-0.65 -0.1,-0.55 -0.14,-0.61 -0.17,0.29 -0.46,0.68 -1,0.57 -0.63,-0.13 -0.98,-0.75 -0.65,-1.39l0.27 -0.31c0.7,-0.4 1.08,0.06 1.35,0.25 0.2,0 0.16,-0.04 0.1,0.16 0.11,-0.27 0.12,-0.99 -0,-1.25 0.07,0.23 0.12,0.18 -0.11,0.18 -0.2,0.1 -0.36,0.38 -0.77,0.4 -0.32,0.02 -0.64,-0.18 -0.78,-0.36 -0.44,-0.59 -0.11,-1.26 0.46,-1.46 -0.22,-0.11 -0.34,-0.08 -0.65,-0.05 -0.14,0.14 -0.02,-0.07 -0.1,0.17l-0.02 7.68z"/>
   <path class="fil7" d="M20.06 9.12c-0.12,0.5 -0.08,0.66 0.08,0.88 0.14,0.19 0.26,0.26 0.35,0.82 0.09,0.56 0.05,1.7 0.21,2.1l0.53 0.03c0.09,-0.79 0.06,-1.76 0.06,-2.58 0,-0.74 -0.56,-1.43 -1.24,-1.26z"/>
   <path class="fil7" d="M0.28 12.92l0.6 0.01c0.08,-0.43 0.06,-1.43 0.1,-1.97l0.27 -1.07c0.27,-0.29 -0.02,0.07 0.22,-0.01 0.05,-0.31 0.07,-0.51 -0.03,-0.75l-0.43 0.02c-0.61,0.22 -0.8,0.59 -0.81,1.23 -0.01,0.84 -0.01,1.73 0.07,2.54z"/>
   <path class="fil10" d="M9.65 36.17l0.06 -0.24 0.02 -7.68c0.07,-0.23 -0.04,-0.03 0.1,-0.17 0.1,-0.23 0.26,-0.14 0.89,-0.14 0.43,0 0.61,-0.06 0.95,0.08 0.02,0.01 0.04,0.02 0.06,0.04 0.26,0.32 0.12,1.28 0.11,1.83 -0.01,0.69 0.02,1.38 0,2.08 -0.02,0.84 0.18,3.55 -0.08,4.02l-0.04 0.17 0.25 -0.1c0.07,-0.99 0.16,-7.68 -0.08,-8.1l-2.31 -0.05c-0.1,0.4 -0.06,6.25 -0.07,7.71 -0,0.41 0.03,0.39 0.15,0.54zm0.17 -0c-0.1,-0.17 -0.01,-0.17 -0.11,0l0.11 0z"/>
   <path class="fil5" d="M8.95 50.08c0.07,0.14 -0.04,0.09 0.21,0.16 0.2,-0.13 0.24,-0.05 0.73,-0.05 0.63,0.01 2.09,0.04 2.55,-0.07l0.06 -3.22c-0.02,-0.3 -0.07,-0.48 -0.38,-0.55 -0.05,-0.01 -0.41,0 -0.48,0 -0.3,0 -0.61,-0 -0.92,-0 -0.86,0 -1.16,-0.1 -1.67,0.14 -0.07,0.58 -0.04,1.22 -0.04,1.83l-0 1.34c0.06,0.52 0.05,0.28 0.19,0.37 -0.38,0.28 0.31,0.05 -0.11,0.07 -0.01,0 -0.1,-0.01 -0.13,-0.02zm0.16 -3.79c-0.16,-0.04 -0.15,-0.08 -0.11,0.07 -0.15,-0.03 -0.11,-0.05 -0.07,0.11 0.18,0.05 0.14,0.07 0.07,-0.11 0.18,0.07 0.17,0.12 0.11,-0.07zm0.03 0.03c0.2,0.02 0.18,0.08 0.14,-0.11 -0.19,-0.06 -0.14,-0.09 -0.14,0.11zm3.11 -0.11c-0.04,0.18 -0.07,0.14 0.13,0.11 0,-0.19 0.05,-0.16 -0.13,-0.11zm0.35 0.26c0.04,-0.16 0.08,-0.14 -0.08,-0.1 0.04,-0.15 0.05,-0.11 -0.11,-0.07 -0.04,0.18 -0.06,0.14 0.11,0.07 -0.07,0.17 -0.11,0.15 0.08,0.1zm-0.44 0.16c0.15,0.26 0.14,2.49 0.11,2.87 -0.04,0.46 -0.15,0.47 -0.54,0.49l-1.75 0c-0.56,0.01 -0.69,0.08 -0.72,-0.48l-0 -2.34c0.01,-0.62 0.01,-0.6 0.64,-0.59 0.64,0.01 1.75,-0.12 2.27,0.06z"/>
   <path class="fil7" d="M10.58 32.84c0.47,-0.12 0.53,0.31 0.13,0.42 -0.22,-0.13 -0.25,-0.2 -0.13,-0.42zm0.98 0.71l0.1 -0.17 -0 -0.74 -0.1 -0.18c-0.28,-0.15 -0.39,-0.49 -0.97,-0.39 -0.94,0.17 -1.02,1.5 -0.16,1.8 0.66,0.23 0.83,-0.12 1.14,-0.33z"/>
   <path class="fil7" d="M10.53 30.97c0.08,-0.13 0.08,-0.12 0.18,-0.2 0.24,0.08 0.19,0.05 0.29,0.28l-0.24 0.24 -0.23 -0.32zm1.06 0.38c0.1,-0.26 0.07,-0.47 0.06,-0.72l-0.1 -0.16c-0.27,-0.2 -0.65,-0.65 -1.35,-0.25l-0.27 0.31c-0.33,0.65 0.02,1.27 0.65,1.39 0.55,0.11 0.83,-0.28 1,-0.57z"/>
   <path class="fil7" d="M10.95 28.83c0.06,0.32 0.11,0.08 -0.07,0.39 -0.51,0.02 -0.45,-0.54 0.07,-0.39zm-0.48 -0.69c-0.57,0.2 -0.9,0.87 -0.46,1.46 0.13,0.18 0.45,0.37 0.78,0.36 0.4,-0.02 0.57,-0.29 0.77,-0.4l0.11 -0.18 0 -0.74 -0.1 -0.16c-0.16,-0.11 -0.33,-0.23 -0.49,-0.34l-0.6 -0z"/>
   <path class="fil7" d="M10.01 34.57c-0.13,0.11 -0.18,0.11 -0.2,0.4 -0.01,0.09 0.01,0.19 0.04,0.27 0.09,0.2 0.03,0.09 0.16,0.2 -0.03,-0.29 -0.03,-0.58 -0,-0.87zm1.51 0.84l0.14 -0.02c-0.04,-0.32 0.1,-0.33 -0.07,-0.56l-0.02 0.37c-0.03,-0.26 -0.07,-0.83 -0.51,-0.93 -1.62,-0.36 -1.32,2.06 0.09,1.46 0.23,-0.1 0.33,-0.19 0.4,-0.46l-0.02 0.16zm-0.36 0.39c-0.12,-0.03 -0.08,-0.05 -0.12,0.08 0.15,0.01 0.12,0.05 0.12,-0.08zm-0.18 -0.83c-0.06,0.19 -0.05,0.17 -0.2,0.3 -0.13,-0.07 -0.17,-0.13 -0.25,-0.22 0.06,-0.19 0.08,-0.21 0.27,-0.28 0.14,0.13 0.06,0.06 0.19,0.19z"/>
   <path class="fil5" d="M10.47 28.14l0.6 0c0.04,-0.04 -0.05,-0.03 0.14,-0.07 0.03,-0.01 0.12,-0.01 0.15,-0.01 0.11,-0.01 0.24,0 0.35,0 0.02,0.17 0.04,0.15 0.03,0.34 -0.02,0.27 -0.03,0.19 -0.09,0.24 0.06,-0.21 0.11,-0.16 -0.1,-0.16l0.1 0.16 -0 0.74 -0.11 0.18c0.22,0 0.17,0.05 0.11,-0.18 0.12,0.26 0.11,0.99 0,1.25 0.06,-0.2 0.11,-0.16 -0.1,-0.16l0.1 0.16c0.01,0.26 0.03,0.46 -0.06,0.72 0.04,0.06 0.14,-0.03 0.14,0.61 0,0.06 -0,0.28 -0.01,0.34l-0.07 0.34c0.06,-0.22 0.11,-0.18 -0.1,-0.18l0.1 0.18 0 0.74 -0.1 0.17c0.21,0 0.16,0.04 0.1,-0.17 0.1,0.21 0.09,0.63 0.07,0.92l-0.05 0.28c-0,0.01 -0.01,0.04 -0.02,0.06 0.07,-0.23 0.12,-0.18 -0.1,-0.18l0.1 0.18 -0.07 0.18c0.17,0.23 0.03,0.24 0.07,0.56l-0.14 0.02 0.03 0.13c0.22,0 0.18,0.05 0.11,-0.16 0.12,0.11 0.08,0.37 0.09,0.61 -0.12,-0.01 -0.28,0 -0.38,-0.01 -0.4,-0.03 -0.17,0.05 -0.33,-0.11l-0.54 -0.01c-0.19,0.14 0.22,0.09 -0.36,0.12 -0.19,0.01 -0.25,-0.02 -0.43,-0.06l-0.06 0.24 0.06 -0c0.1,-0.17 0.01,-0.17 0.11,0l1.89 -0 0.04 -0.17c0.27,-0.48 0.07,-3.19 0.08,-4.02 0.01,-0.69 -0.01,-1.38 -0,-2.08 0.01,-0.55 0.15,-1.51 -0.11,-1.83 -0.02,-0.02 -0.04,-0.03 -0.06,-0.04 -0.33,-0.14 -0.52,-0.08 -0.95,-0.08 -0.63,-0 -0.79,-0.09 -0.89,0.14 0.31,-0.03 0.43,-0.06 0.65,0.05z"/>
   <path class="fil3" d="M11.01 62.33c1.43,0.07 2.87,0.05 4.31,-0.02 -0.15,0.13 0.02,0.05 -0.21,0.12 -0.51,0.15 -2.7,-0.02 -3.57,0.06 -0.02,0 -0.24,0.03 -0.24,0.03 -0.59,0.12 0.38,-0.13 -0.14,0.04 -0.02,0.01 -0.05,0.02 -0.06,0.03 -0.02,0.01 -0.04,0.02 -0.06,0.03 0.1,0.07 -0.01,0.04 0.19,0.09 0.64,0.14 4.1,-0.19 4.69,-0.25 -0.53,-0.33 -1.48,-0.03 -2.04,-0.29l0.94 -0.07c-0.55,-0.03 -1.1,-0.27 -1.86,-0.13 -1.21,0.22 -0.08,0.12 -1.41,0.17 -0.45,0.02 -0.42,0.08 -0.53,0.21z"/>
   <path class="fil9" d="M9.11 16.76c0,-0.13 -0.03,-0.11 0.09,-0.07 0.29,-0.22 1.06,-0.13 1.6,-0.12 0.94,0 1.06,-0.04 1.4,0.05 0.02,0.01 0.05,0.05 0.07,0.03 0.01,-0.02 0.05,0.02 0.07,0.03 0.16,0.09 0.09,-0.03 0.14,0.25 0.02,0.12 0.01,0.37 0.01,0.5l-0.02 2.41c0,0.03 0.02,0.22 0.02,0.25l0.06 0.16c0.01,0.02 0.03,0.05 0.04,0.08 -0.02,-0.84 0.2,-3.07 -0.1,-3.67 -0.25,-0.32 -3.19,-0.17 -3.33,-0.09 -0.5,0.29 -0.29,3.51 -0.19,3.68 0.25,0.45 1.82,0.29 2.64,0.29l0.71 -0.06c0.02,-0.01 0.05,-0.01 0.07,-0.02 0.02,-0.01 0.05,-0.02 0.07,-0.02 0.01,-0 0.04,-0.01 0.06,-0.02 -0.02,-0.01 -0.05,-0.05 -0.06,-0.03l-0.24 -0.04c-0.83,0.04 -2.47,0.12 -3.15,-0.03 -0.08,-0.45 -0.12,-3.19 0.03,-3.56z"/>
   <path class="fil1" d="M14.63 5.73c-0.33,0.06 -0.13,0.06 -0.22,-0.1l-0.05 -0.02c1.07,-0.09 2.77,0.6 3.5,0.63 -0.02,-0.01 -0.04,-0.05 -0.05,-0.03 -0.01,0.01 -0.04,-0.03 -0.05,-0.04l-0.1 -0.11c-0.68,-0.24 -3.13,-0.9 -3.93,-0.72 -0.34,0.09 -0.26,0.06 -0.62,0.02 0.19,0.02 0.39,0.04 0.55,0.16l0.6 0.22c0,0 0.18,0.01 0.2,0.01 0.02,-0 0.05,-0 0.06,-0l0.12 -0.02zm3.45 0.49l-0.04 0.02 -0.2 0.03c0.42,0.07 0.11,0.06 0.24,-0.05zm0.21 0.09l-0.08 -0c-0.09,0.11 -0.29,-0.05 0.06,0.17 0.08,-0.15 0.07,0.03 0.02,-0.17zm0.41 1.9l0.08 -0.65c0.01,-0.34 0.05,-1.06 -0.04,-1.39l-0.05 -0.13c-0,-0.03 -0.02,-0.04 -0.03,-0.06l0.03 0.56c-0.17,0.13 0.05,0.05 -0.17,0.03 -0.08,-0.01 0.05,-0.04 -0.19,-0.04 0.14,0.07 0.2,0.09 0.35,0.15l-0.04 0.19c-0,0.01 -0,0.03 -0,0.04 0.01,0.15 0.08,0.12 0.06,0.38 -0.02,0.35 -0.25,0.61 0.02,0.93zm-0.72 -1.59l-0.15 0.05 0.7 0.25c-0.12,-0.09 -0.12,-0.07 -0.22,-0.12 -0.3,-0.15 -0.06,0.03 -0.32,-0.18zm-0.37 -0.01l-0.25 -0.01c0.44,0.02 0.2,0 0.26,-0.04l-0.01 0.06zm-0.37 -0.11c-0.4,0.02 -0.02,0.01 -0.02,0.01l0.05 -0.02c0,-0 0.03,-0.01 0.04,-0.02l-0.07 0.03zm-0.24 -0.1c-0.33,0.07 -0.07,0.05 -0.03,0.04 0.22,-0.06 -0.02,0.06 0.11,-0.05l-0.08 0.01zm-0.44 -0.15c-0.25,-0.02 -0.15,0.04 -0.28,-0.09l-0.43 0.01c0.14,0.08 0.29,0.12 0.5,0.17 0,0 0.26,0.04 0.27,0.04 0.25,-0.02 0.09,0.04 0.23,-0.07l-0.29 -0.05zm-1.27 -0.24c-0.23,0.08 0.11,0.1 0.17,0.11 0.47,0.08 0.28,0.04 0.38,-0.09l-0.56 -0.03z"/>
   <path class="fil9" d="M9.15 50.24c0.58,0.04 3.12,0.23 3.36,-0.2 0.01,-0.02 0.06,-0.14 0.06,-0.17l0.01 -3.41c-0.18,0.04 -0.15,0.07 -0.08,-0.1 -0.17,0.07 -0.15,0.11 -0.11,-0.07l-0.03 0.03c-0.2,0.03 -0.17,0.08 -0.13,-0.11l-2.97 0c0.03,0.19 0.06,0.13 -0.14,0.11l-0.03 -0.03c0.05,0.18 0.07,0.13 -0.11,0.07 0.07,0.18 0.11,0.16 -0.07,0.11l0.03 3.62c0.03,0.01 0.11,0.02 0.13,0.02 0.42,-0.03 -0.27,0.2 0.11,-0.07 -0.14,-0.09 -0.13,0.15 -0.19,-0.37l0 -1.34c0,-0.6 -0.03,-1.24 0.04,-1.83 0.51,-0.24 0.81,-0.14 1.67,-0.14 0.3,0 0.61,0 0.92,0 0.07,-0 0.44,-0.01 0.48,-0 0.31,0.06 0.36,0.25 0.38,0.55l-0.06 3.22c-0.45,0.11 -1.91,0.08 -2.55,0.07 -0.48,-0.01 -0.53,-0.08 -0.73,0.05z"/>
   <path class="fil9" d="M8.74 27.22l4.02 0.01c0.22,0.22 0.23,0.16 0.34,0.43l0.06 -0.2c-0.15,0.01 -0.12,0.04 -0.07,-0.12 -0.13,0.05 -0.1,0.06 -0.07,-0.08 -0.16,0.07 -0.12,0.09 -0.09,-0.09l-0.18 0.05c-0.18,-0.17 -0.63,-0.1 -0.88,-0.1l-3.13 0.09c-0.63,0.26 -0.44,0.95 -0.43,2.26l0 6.64c-0.01,0.73 -0.04,0.55 0.19,1.09 0.17,-0.01 0.13,-0.04 0.08,0.13 1.35,0.07 2.81,-0.03 4.14,0.06 -0.01,-0.16 -0.04,-0.11 0.15,-0.09l0.03 -0.01c-0.04,-0.12 -0.07,-0.09 0.05,-0.1 0.12,-0.14 0.02,-0.06 0.19,-0.16 -0.01,-0.2 -0.07,-0.17 0.1,-0.16 -0.1,-0.47 -0.1,-8.75 0,-9.24l-0.11 6.16c-0,3.4 0.37,3.49 -1.25,3.49 -3.08,-0.01 -3.51,0.38 -3.5,-1.16l0 -7.72c-0.01,-0.69 -0.07,-0.76 0.26,-1.09l0.1 -0.09z"/>
   <path class="fil5" d="M12.32 16.69c-0.02,-0.01 -0.05,-0.06 -0.07,-0.03 -0.01,0.02 -0.05,-0.03 -0.07,-0.03 -0.33,-0.09 -0.46,-0.05 -1.4,-0.05 -0.54,-0 -1.31,-0.09 -1.6,0.12 -0.12,-0.05 -0.09,-0.07 -0.09,0.07 0.12,0.02 0.1,0.05 0.09,-0.07 0.33,0.04 0.08,-0.04 0.12,0.24 0,0.01 -0,0.04 0.01,0.06 0.09,-0.11 -0,-0.18 0.64,-0.17l1.5 0c0.97,-0.01 0.82,-0.12 0.82,1.69 0,0.49 0.08,1.15 -0.06,1.58l-0.19 0.08c-0.09,0.02 -2.57,0.11 -2.72,-0.08 -0.33,-0.7 0.2,-2.44 -0.15,-3.17 0,0.56 0.01,1.12 0.01,1.68 0,0.28 0,0.55 -0.01,0.83 -0,0.11 -0.02,0.31 -0,0.41 0.05,0.38 0.2,0.32 0.22,0.36 0.01,0.02 0.04,0.02 0.06,0.02l2.88 -0.04c0.1,-0.35 0.05,-2.04 0.06,-2.67 0.01,-0.43 0.07,-0.58 -0.26,-0.77l0.22 -0.06z"/>
   <path class="fil11" d="M3.39 64.69l0.24 -0.01 -0.2 -0.32c-0.43,-0.15 -0.8,-0.53 -0.65,-1.11 0.16,0.09 0.23,0.22 0.48,0.37 0.42,0.13 0.08,0.06 0.22,-0.1 0.15,-0.38 -0.24,-0.43 -0.41,-0.67 -0.06,-0.17 0.03,0.04 -0.09,-0.15 -0.12,-0.19 -0.06,-0.06 -0.11,-0.2 -0.19,0.08 -0.12,0.08 -0.08,-0.12 -0.14,0.03 -0.12,0.06 -0.08,-0.08 -0.1,0.12 -0.17,-0.09 -0.22,0.71 -0.05,0.64 0.11,1.57 0.9,1.67z"/>
   <path class="fil3" d="M7.86 64.64c-0.39,0.18 -0.57,0.04 -1.02,0.04 0.52,0.32 3.57,0.34 3.84,0.29 -0.3,-0.16 -2.36,-0.2 -2.93,-0.24 0.4,-0.19 2.26,0 2.87,-0.01 -0.11,-0.08 0.01,-0.05 -0.18,-0.09 -0.07,-0.02 -0.24,-0.02 -0.32,-0.02 -0.19,-0.01 -0.39,-0 -0.59,-0.01l-3.46 -0.22c0.28,0.22 1.34,0.22 1.78,0.26z"/>
   <path class="fil9" d="M14.41 5.62c0.37,0.01 0.15,-0.02 0.22,0.1 0.15,-0.01 0.16,-0.03 0.34,0.03 0.18,0.06 0.05,0.01 0.17,0.09 0.12,0.09 0.07,0.06 0.15,0.15l0.56 0.03c0.11,0 0.12,-0.02 0.25,0.02 0.15,0.05 0.12,0.05 0.18,0.1 0.44,-0.08 0.2,0 0.28,0.09l0.29 0.05c0.19,-0.02 0.15,-0.07 0.15,0.1l0.08 -0.01c0.2,-0.02 0.16,-0.07 0.16,0.12l0.07 -0.03c0.49,0.02 0.2,-0.01 0.3,0.15l0.01 -0.06c0.25,-0.02 0.21,-0.09 0.21,0.12l0.15 -0.05c0.33,-0.02 0.2,0.01 0.33,-0.09 0.24,0 0.12,0.04 0.19,0.04 0.23,0.02 0.01,0.1 0.17,-0.03 -0.32,-0.08 -0.08,-0 -0.39,-0.23 0.05,0.2 0.05,0.02 -0.02,0.17 -0.35,-0.22 -0.15,-0.06 -0.06,-0.17l-0.13 -0.09c-0.13,0.11 0.19,0.12 -0.24,0.05l0.2 -0.03c-0.06,-0.05 -0.05,-0.06 -0.16,-0.12 -0.19,-0.1 -0.03,-0.01 -0.22,-0.07l0.1 0.11c0.01,0.01 0.04,0.06 0.05,0.04 0.01,-0.01 0.03,0.03 0.05,0.03 -0.73,-0.03 -2.43,-0.73 -3.5,-0.63l0.05 0.02z"/>
   <path class="fil12" d="M9.45 61.2c0.08,0.26 -0.06,0.13 0.18,0.22l2.17 0.02c0.32,-0.07 0.19,0.02 0.31,-0.24 -0.12,-0.09 0.12,-0.16 -0.66,-0.15l-1.67 -0.01c-0.5,0.06 -0.2,0.01 -0.34,0.15z"/>
   <path class="fil12" d="M18.71 62.46l0.08 0.15 -0.16 -0.06 0.08 0.16 -0.16 -0.08 0.05 0.15 -0.14 -0.07 0.04 0.13 -0.14 -0.01c-0.02,0.02 -0.07,0.09 -0.08,0.11 -0,0.01 -0.02,0.06 -0.03,0.05 -0,-0.01 -0.02,0.03 -0.03,0.05l-0.12 -0.01c-0.24,0.3 -0.14,0.34 -0.23,0.64 -0.05,0.67 -0.02,1.1 -0.31,1.64 0.1,-0.1 0.16,0.09 0.24,-0.51l0.39 -0.11 -0.29 0 0.29 -0.33c-0.14,-0.07 -0.25,-0.01 -0.03,-0.44 0.05,-0.07 0.07,0.12 0.08,-0.29l-0.08 0.29c-0.08,-0.2 -0.07,-0.66 0.04,-0.87 0.07,-0.02 0.04,0.02 0.17,-0.06 0.11,-0.07 0.06,-0.05 0.11,-0.13 0.15,0.04 0.14,0.08 0.1,-0.06 0.19,0.05 0.18,0.11 0.11,-0.07 0.19,0.07 0.14,0.09 0.08,-0.1 0.25,-0.1 0.18,0.1 0.08,-0.02 -0.03,0.36 0.06,0.52 0.03,0.85 -0.03,0.29 -0.1,0.42 -0.1,0.76 -0.14,-0.02 -0.11,-0.05 -0.08,0.09 -0.15,-0.03 -0.13,-0.06 -0.09,0.09 -0.14,-0.03 -0.11,-0.06 -0.09,0.08 -0.15,-0.04 -0.1,-0.06 -0.1,0.12 0.14,-0.04 0.12,0.01 0.1,-0.12 0.15,0.03 0.13,0.07 0.09,-0.08 0.15,0.03 0.12,0.06 0.09,-0.09 0.13,0.03 0.09,0.05 0.08,-0.09 0.24,-0.03 0.25,-0.62 0.26,-0.84 0,-0.17 -0.01,-0.42 -0.02,-0.59 -0.04,-0.38 0,-0.31 -0.22,-0.46 0.07,0.38 0.07,0.18 -0.1,0.15z"/>
   <path class="fil3" d="M10.92 63.89c0.62,0.26 3.71,-0.1 4.78,-0.18 0.34,-0.03 0.39,0.02 0.57,-0.18 -0.79,-0.04 -1.85,0.23 -2.71,0.22 -0.62,-0.01 -2.08,0.03 -2.63,0.14z"/>
   <path class="fil3" d="M11.04 62.94c0.35,0.21 4.83,-0.07 5.2,-0.29l-3.87 0.17c-0.22,0 -0.45,0.01 -0.67,0.01 -0.27,0.01 -0.48,-0.03 -0.67,0.1z"/>
   <path class="fil11" d="M18.79 62.61c0.06,0.19 0.11,0.17 -0.08,0.1 0.07,0.18 0.08,0.13 -0.11,0.07 0.04,0.14 0.05,0.1 -0.1,0.06 -0.05,0.07 0,0.06 -0.11,0.13 -0.13,0.08 -0.1,0.04 -0.17,0.06 -0.12,0.21 -0.12,0.68 -0.04,0.87l0.08 -0.29c0.3,-0.17 0.24,-0.22 0.52,-0.38 -0.03,0.58 -0.12,0.91 -0.57,1.12l-0.29 0.33 0.29 -0c0.31,-0.03 0.11,0.07 0.23,-0.11 0,-0.17 -0.05,-0.16 0.1,-0.12 -0.02,-0.14 -0.05,-0.12 0.09,-0.08 -0.03,-0.15 -0.06,-0.11 0.09,-0.09 -0.02,-0.14 -0.05,-0.11 0.08,-0.09 0,-0.34 0.08,-0.47 0.1,-0.76 0.03,-0.33 -0.06,-0.49 -0.03,-0.85 0.1,0.13 0.17,-0.07 -0.08,0.02z"/>
   <path class="fil3" d="M5.53 63.82c0.5,0.32 4.25,0.42 5.13,0.4 -0.13,-0.11 0.18,-0.13 -0.61,-0.12 -1.01,0.01 -4.27,-0.34 -4.52,-0.28z"/>
   <path class="fil9" d="M3.82 6.04l-0.33 0.2c0.31,0 0.07,-0.04 0.23,0.12l-0.4 0.07c0.21,0.07 0.16,0 0.18,0.12 0.04,0.25 -0.25,-0.01 -0.09,0.12 0.53,-0.15 3.53,-1.03 3.85,-0.88 -0.44,-0.09 -1.52,0 -1.97,0.11 -0.5,0.12 -1.08,0.38 -1.63,0.34l0.16 -0.2zm-0.35 0.18l-0.3 0.1 0.3 -0.1z"/>
   <path class="fil3" d="M10.54 62.94c-0.18,-0.1 -0.26,-0.08 -0.57,-0.09l-4.53 -0.28c0.62,0.21 4.62,0.56 5.1,0.37z"/>
   <path class="fil3" d="M10.91 64.5c0.73,0.01 4.39,-0.16 4.83,-0.34l-4.19 0.17c-0.53,0 -0.43,-0.02 -0.64,0.18z"/>
   <path class="fil3" d="M10.55 62.61c-0.07,-0.04 0.04,-0.08 -0.5,-0.1l-1.66 -0.04c-0.87,-0 -1.54,-0.11 -2.36,-0.14 0.07,0.05 0.05,0.07 0.2,0.1l0.83 0.07c0.54,0.04 2.76,0.23 3.24,0.18l0.19 -0.05c0.01,-0 0.03,-0.02 0.05,-0.03z"/>
   <path class="fil3" d="M12.12 65.5c1.19,-0.09 0.69,0.26 0.86,-0.16 -1.22,0.17 -3.26,0.1 -4.56,0.03l0.12 0.25c0.01,-0 0.02,-0.01 0.02,-0.01 0,-0 0.02,-0.01 0.03,-0.01l2.37 -0.04c0.41,-0 0.76,-0.03 1.16,-0.06z"/>
   <path class="fil3" d="M10.66 63.88c-0.72,-0.09 -1.8,-0.1 -2.65,-0.14 -0.56,-0.03 -2.39,-0.27 -2.74,-0.21 0.31,0.2 4.92,0.49 5.38,0.35z"/>
   <path class="fil3" d="M6.41 62.11c0.77,0.29 2.28,0.19 2.97,0.17 0.38,-0.01 0.77,0.04 1.18,0.03 -0.12,-0.1 -0.03,-0.13 -0.51,-0.13l-1.67 -0.04c-0.3,0.02 -0.78,0.08 -1.06,0.05 -0.29,-0.03 -0.55,-0.22 -0.91,-0.07z"/>
   <path class="fil3" d="M10.97 64.19c0.84,-0.01 4.53,-0.06 5.04,-0.34 -0.22,-0.07 -1.95,0.15 -2.39,0.18 -0.47,0.03 -0.85,0.06 -1.33,0.07 -0.22,0.01 -0.44,0.01 -0.67,0.01 -0.1,0 -0.24,-0.01 -0.34,-0 -0.28,0.02 -0.16,-0.01 -0.32,0.07z"/>
   <path class="fil1" d="M11.59 34.82l0.07 -0.18 -0.1 -0.18c-0.2,-0.13 -0.36,-0.38 -0.76,-0.39 -0.16,-0.01 -0.37,0.07 -0.5,0.14 -0.26,0.14 -0.24,0.16 -0.28,0.37 -0.03,0.28 -0.03,0.58 0,0.87 0.05,0.22 -0.14,0.01 0.13,0.26 0.1,0.1 0.22,0.13 0.36,0.17l0.54 0.01c0.04,-0.13 0,-0.1 0.12,-0.08 0.28,-0.11 0.19,-0.16 0.39,-0.25l-0.03 -0.13 0.02 -0.16c-0.07,0.27 -0.16,0.36 -0.4,0.46 -1.41,0.6 -1.7,-1.82 -0.09,-1.46 0.44,0.1 0.48,0.67 0.51,0.93l0.02 -0.37z"/>
   <path class="fil10" d="M3.43 64.37c0,-0 0.26,0.11 0.04,-0.3 -0.01,-0.03 -0.2,-0.19 -0.22,-0.21l0.01 -0.23c-0.25,-0.15 -0.32,-0.28 -0.48,-0.37 -0.15,0.58 0.22,0.96 0.65,1.11z"/>
   <path class="fil10" d="M3.29 28.35l-0.17 0.13c-0.02,0.01 -0.05,0.03 -0.08,0.06 -0.03,-0.27 -0.18,-1.49 -0.35,-1.69l0.44 2.73c0.07,0.16 0.06,0.1 0.14,0.19l0.02 -1.42z"/>
   <path class="fil12" d="M3.26 63.63l-0.01 0.23c0.02,0.02 0.21,0.18 0.22,0.21 0.21,0.41 -0.04,0.3 -0.04,0.3l0.2 0.32 -0.24 0.01 0.37 0.14c0.13,0.52 0.15,0.38 0.26,0.48 -0.01,-0.02 -0.03,-0.08 -0.03,-0.06l-0.18 -0.47c-0.04,-0.17 -0.06,-0.36 -0.07,-0.53 -0.01,-0.02 -0.02,-0.05 -0.03,-0.07l-0.07 -0.23c-0.01,-0.06 -0.02,-0.19 -0.02,-0.25 -0.01,-0.17 -0.01,-0.33 -0.01,-0.5l-0.14 -0.17c-0.18,-0.08 -0.21,-0.08 -0.38,-0.17 0.16,0.23 0.56,0.28 0.41,0.67 -0.14,0.16 0.2,0.23 -0.22,0.1z"/>
   <path class="fil10" d="M18.25 63.62c-0.01,0.41 -0.03,0.22 -0.08,0.29 -0.22,0.43 -0.11,0.37 0.03,0.44 0.45,-0.21 0.54,-0.54 0.57,-1.12 -0.28,0.17 -0.22,0.22 -0.52,0.38z"/>
   <path class="fil3" d="M10.92 64.96c0.37,0.06 1.52,0.01 1.95,-0.01 0.38,-0.02 1.73,-0.21 1.85,-0.2 -0.65,-0.06 -3.26,0.13 -3.8,0.21z"/>
   <path class="fil3" d="M5.84 65.91l-0.66 -0.14 -0.61 -0.01c0.19,0.21 -0.16,0.12 0.38,0.24 0.26,0.06 0.86,0.18 0.89,-0.09z"/>
   <path class="fil7" d="M19.24 9.6c0.83,-0.05 0.73,-0.36 0.38,-0.48 -0.12,-0.04 -0.23,-0.04 -0.36,-0.05l-0.02 0.53z"/>
   <path class="fil12" d="M16.87 61.08l0.15 -0.07c0.02,-0.01 0.06,-0.02 0.08,-0.02 0.02,-0.01 0.17,-0.03 0.18,-0.03l0.05 -0.13 -0.59 -0.03 -0.39 -0.02 -0.01 0.35 0.54 -0.05z"/>
   <path class="fil12" d="M4.28 61c0.2,-0.05 0.11,-0.07 0.37,-0.02l0.24 0.08c0.02,-0.02 0.05,0.02 0.07,0.04l0.28 0.02 -0 -0.34 -0.28 0.02 -0.74 -0.04 0.05 0.24z"/>
   <path class="fil7" d="M1.72 9.19c-0.13,0.4 0.09,0.4 0.49,0.42l0.03 -0.39c-0.11,-0.07 -0.04,-0.2 -0.52,-0.03z"/>
   <path class="fil6" d="M11.55 35.54c-0.2,0.09 -0.11,0.14 -0.39,0.25 0,0.13 0.03,0.08 -0.12,0.08 0.16,0.17 -0.07,0.08 0.33,0.11 0.1,0.01 0.26,0 0.38,0.01 -0,-0.24 0.03,-0.5 -0.09,-0.61 0.06,0.21 0.1,0.16 -0.11,0.16z"/>
   <path class="fil6" d="M11.56 28.48c0.21,0 0.16,-0.04 0.1,0.16 0.05,-0.05 0.06,0.03 0.09,-0.24 0.01,-0.19 -0,-0.17 -0.03,-0.34 -0.11,-0 -0.24,-0.01 -0.35,-0 -0.03,0 -0.13,0.01 -0.15,0.01 -0.19,0.04 -0.1,0.03 -0.14,0.07 0.16,0.11 0.32,0.23 0.49,0.34z"/>
   <path class="fil3" d="M8.88 62.01c-0.36,-0.14 -1.1,-0.19 -1.55,-0.12 0.36,0.21 1.11,0.16 1.55,0.12z"/>
   <path class="fil9" d="M10.58 32.84c-0.12,0.22 -0.09,0.29 0.13,0.42 0.4,-0.12 0.34,-0.54 -0.13,-0.42z"/>
   <path class="fil9" d="M10.88 29.22c0.19,-0.31 0.13,-0.07 0.07,-0.39 -0.52,-0.15 -0.58,0.42 -0.07,0.39z"/>
   <path class="fil9" d="M10.53 35.04c0.08,0.09 0.12,0.15 0.25,0.22 0.16,-0.13 0.14,-0.12 0.2,-0.3 -0.13,-0.14 -0.05,-0.07 -0.19,-0.19 -0.19,0.07 -0.21,0.08 -0.27,0.28z"/>
   <path class="fil9" d="M10.53 30.97l0.23 0.32 0.24 -0.24c-0.09,-0.23 -0.05,-0.2 -0.29,-0.28 -0.1,0.08 -0.1,0.07 -0.18,0.2z"/>
  </g>
 </g>
</svg>
