<?xml version="1.0" encoding="UTF-8"?>
<!DOCTYPE svg PUBLIC "-//W3C//DTD SVG 1.1//EN" "http://www.w3.org/Graphics/SVG/1.1/DTD/svg11.dtd">
<!-- Creator: CorelDRAW -->
<svg xmlns="http://www.w3.org/2000/svg" xml:space="preserve" width="3.81mm" height="12mm" version="1.1" style="shape-rendering:geometricPrecision; text-rendering:geometricPrecision; image-rendering:optimizeQuality; fill-rule:evenodd; clip-rule:evenodd"
viewBox="0 0 12.41 39.07"
 xmlns:xlink="http://www.w3.org/1999/xlink"
 xmlns:xodm="http://www.corel.com/coreldraw/odm/2003">
 <defs>
  <style type="text/css">
   <![CDATA[
    .fil2 {fill:#111212}
    .fil3 {fill:#131414}
    .fil4 {fill:#2D2E2E}
    .fil5 {fill:#3F4042}
    .fil8 {fill:#515252}
    .fil6 {fill:#616465}
    .fil12 {fill:#6F0605}
    .fil10 {fill:#787777}
    .fil11 {fill:#8D8D8D}
    .fil13 {fill:#900A09}
    .fil14 {fill:#ABABAC}
    .fil9 {fill:#BEBEBE}
    .fil16 {fill:#C79590}
    .fil0 {fill:#CC0000}
    .fil15 {fill:#D3D4D4}
    .fil7 {fill:#E7E8E7}
    .fil1 {fill:#FAFAFA}
   ]]>
  </style>
 </defs>
 <g id="Camada_x0020_1">
  <metadata id="CorelCorpID_0Corel-Layer"/>
  <path class="fil0" d="M11.18 4.69c0,0.01 -0.04,28.49 0.01,28.81 0.06,0.36 0.07,0.8 0.04,1.18 -0.06,0.88 -0.05,1.48 -0.15,2.39 -0.11,0.93 -0.08,1.47 -0.83,1.67 -0.19,0.05 -0.35,0.05 -0.55,0.08 -0.58,0.1 -1.21,0.13 -1.66,0.2l-1.19 0.06 -1.3 0c-0.19,-0.01 -0.29,-0.05 -0.53,-0.05 -0.72,0 -1.61,-0.1 -2.31,-0.22 -0.47,-0.08 -0.99,-0.02 -1.23,-0.62 -0.11,-0.28 -0.31,-2.4 -0.31,-2.81l0 -1.86c0,-0.44 0.06,-0.8 0.05,-1.22l-0.05 -1.22c0,-0.23 0.07,-0.37 0.04,-0.57 -0.06,-0.34 -0.03,-0.24 0.01,-0.55 0.03,-0.27 -0.04,-0.38 -0.05,-0.58l0 -4.69c0,-0.22 0.05,-0.3 0.05,-0.54l-0.05 -5.42c0.07,-0.53 0,-0.14 -0,-0.54 -0,-0.13 0.01,-0.21 0.02,-0.32l0.03 -13.16c-0.26,0.01 -0.18,0.01 -0.28,0.26l-0.23 0.11c-0.18,0.5 -0.06,0.4 -0.55,0.64 -0.09,-0.09 -0.14,-0.21 -0.16,-0.34l0 -0.5c0.02,-0.11 0.04,-0.22 0.07,-0.31 0.12,-0.42 0.47,-0.45 0.76,-0.61 0.16,0.12 0.14,0.15 0.36,0.07l0.08 -1.09c0.08,-1.09 -0.2,-1.96 0.98,-2.39 0.57,-0.21 1.23,-0.33 1.85,-0.4 0.3,-0.03 0.72,-0.1 1.03,-0.09 0.4,0 0.67,-0.05 1.04,-0.05l0.04 0c1.01,0 3.03,0.16 3.94,0.54 0.33,0.14 0.45,0.16 0.7,0.43 0.39,0.42 0.29,2.45 0.34,3.03 0.24,0.09 0.2,0.09 0.43,-0.05 0.43,0.24 0.7,0.31 0.78,0.78l0 0.8c-0,0.03 -0.01,0.06 -0.01,0.08l-0.15 0.09c-0.53,-0.27 -0.4,-0.34 -0.5,-0.64 -0.2,-0.1 -0.21,-0.03 -0.29,-0.2 -0.09,-0.19 0.03,-0.17 -0.26,-0.18z"/>
  <g id="_1770231822224">
   <path class="fil1" d="M5.08 19.83c0.27,-0.08 0.32,-0.03 0.31,0.21 -0.15,0.11 -0.12,0.08 -0.32,0.07l0.06 0.05c0.23,-0.07 0.13,-0.07 0.22,0.06 -0.08,0.13 -0.04,0.12 -0.27,0.11l0.28 0.01 -0.05 0.39 -0.22 0.04c-0.07,-0.2 -0.08,-0.75 0,-0.94zm-0.15 6.93l0.01 -0.36c0.21,0.03 2.66,0.07 2.95,0 0.11,-0.22 0.08,-2.5 0.04,-2.85 -0.35,-0.08 -1.3,-0.02 -1.73,-0.02l-1.89 -0.03c0.01,-0.01 0.03,-0.06 0.04,-0.04l0.58 -0.09c0.07,-0.21 -0.04,-0.08 0.12,-0.23l-0.02 -0.15c0.08,-0.05 -0.03,-0.09 0.19,-0.06 -0.21,0.08 -0.14,-0.03 -0.22,-0.08 0.11,-0.09 -0.05,-0.07 0.16,-0.1 -0.22,-0.02 -0.08,-0.05 -0.13,-0.11 0.14,-0.04 0.01,-0.04 0.19,-0.03 -0.3,0.15 0.06,-0.14 -0.09,0.03 -0.13,-0.11 -0.03,0.11 -0.11,-0.14l0.04 -0.32 0.2 -0.06 -0.21 0c-0.14,-0.1 -0.08,-0.37 -0.05,-0.53 0.09,0.02 0.07,-0.11 0.16,0.08 0,-0.01 0.01,-0.03 0.01,-0.04 0.07,-0.07 -0.02,-0.01 0.05,-0.03 -0.29,0.04 -0.11,-0.01 -0.22,-0.08l0.11 -0.04c-0.06,-0.09 -0.12,0.09 -0.07,-0.48l0.22 -0.05c0.08,0.05 0.14,0.02 0.12,0.19 -0.03,-0.53 0.01,-0.39 0.03,-0.71 0.02,-0.25 -0.01,-0.54 0.02,-0.8l1.52 0.01c0.03,0.31 0.02,3.59 -0.02,3.68 -0.02,-0.28 0.01,-0.12 0.06,-0.2 0.17,-0.42 -0.11,-2.95 0.1,-3.37l0.3 0.05 -0.01 0.86c-0.09,-0.02 -0.13,0.1 -0.14,-0.07l-0.13 0.06c0.27,-0.03 0.17,-0.02 0.29,0.08 -0.15,0.1 -0.01,0.05 -0.28,0.06 0.02,-0 0.09,-0 0.11,0 0.12,0.03 0.04,0.01 0.16,0.09 -0.09,0.06 -0.06,0.04 -0.16,0.08 -0,0 -0.12,0.01 -0.13,0.02 0.05,-0 0.13,-0.01 0.17,0 0.21,0.05 0.04,0 0.14,0.08l-0 0.18c-0.06,0.05 -0.01,0.09 -0.3,0.08l0.27 -0 0 0.47c-0.22,0.03 -0.12,0.01 -0.23,0.08l0.11 0.08c-0.01,0.01 -0.08,0.03 -0.09,0.04 0.24,0.03 0.08,-0.01 0.2,0.07 -0.1,0.06 -0.1,0.04 -0.24,0.04l0.26 0.08 -0.02 0.17c0,0.01 0,0.02 0,0.03 0,0.07 0.01,0.13 0,0.22 -0.17,0.02 -0.1,0.03 -0.25,-0.01l0.24 0.05 0.06 0.21c-0.17,0.11 -0.05,0.07 -0.3,0.1l0.28 0.06c-0.05,0.24 0.01,0.24 -0.25,0.21 0.09,0 0.06,0.01 0.08,0.01l0.17 -0.03 0.01 0.18 0.01 -0.05c0.28,0.09 0.44,0.04 0.71,0.05 -0.06,-0.52 -0.08,-3.43 0,-3.87 -0.04,-0.15 -0.05,-0.12 -0.17,-0.23 -0.86,-0.1 -2.08,-0 -2.98,-0.01 -0.7,-0.01 -0.74,0.1 -0.75,0.78l0 4.44c-0,2.13 -0.2,2.25 0.69,2.24z"/>
   <path class="fil2" d="M1.73 31.28c0.02,0.61 0.01,1.23 0.01,1.84l0 1.42c-0,0.25 0.03,0.27 -0.16,0.36 -0.14,-0.67 -0.19,-2.57 -0.08,-3.35 0.03,-0.24 -0,-0.27 0.23,-0.27zm4.44 -31.28l0.04 0c1.01,0 3.03,0.16 3.94,0.54 0.33,0.14 0.45,0.16 0.7,0.43 0.39,0.42 0.29,2.45 0.34,3.03 0.24,0.09 0.2,0.09 0.43,-0.05 0.43,0.24 0.7,0.31 0.78,0.78l0 0.8c-0,0.03 -0.01,0.06 -0.01,0.08l-0.15 0.09c-0.53,-0.27 -0.4,-0.34 -0.5,-0.64 -0.2,-0.1 -0.21,-0.03 -0.29,-0.2 -0.09,-0.19 0.03,-0.17 -0.26,-0.18 0,0.01 -0.04,28.49 0.01,28.81 0.06,0.36 0.07,0.8 0.04,1.18 -0.06,0.88 -0.05,1.48 -0.15,2.39 -0.11,0.93 -0.08,1.47 -0.83,1.67 -0.19,0.05 -0.35,0.05 -0.55,0.08 -0.58,0.1 -1.21,0.13 -1.66,0.2l-1.19 0.06 -1.3 0c-0.19,-0.01 -0.29,-0.05 -0.53,-0.05 -0.72,0 -1.61,-0.1 -2.31,-0.22 -0.47,-0.08 -0.99,-0.02 -1.23,-0.62 -0.11,-0.28 -0.31,-2.4 -0.31,-2.81l0 -1.86c0,-0.44 0.06,-0.8 0.05,-1.22l-0.05 -1.22c0,-0.23 0.07,-0.37 0.04,-0.57 -0.06,-0.34 -0.03,-0.24 0.01,-0.55 0.03,-0.27 -0.04,-0.38 -0.05,-0.58l0 -4.69c0,-0.22 0.05,-0.3 0.05,-0.54l-0.05 -5.42c0.07,-0.53 0,-0.14 -0,-0.54 -0,-0.13 0.01,-0.21 0.02,-0.32l0.03 -13.16c-0.26,0.01 -0.18,0.01 -0.28,0.26l-0.23 0.11c-0.18,0.5 -0.06,0.4 -0.55,0.64 -0.09,-0.09 -0.14,-0.21 -0.16,-0.34l0 -0.5c0.02,-0.11 0.04,-0.22 0.07,-0.31 0.12,-0.42 0.47,-0.45 0.76,-0.61 0.16,0.12 0.14,0.15 0.36,0.07l0.08 -1.09c0.08,-1.09 -0.2,-1.96 0.98,-2.39 0.57,-0.21 1.23,-0.33 1.85,-0.4 0.3,-0.03 0.72,-0.1 1.03,-0.09 0.4,0 0.67,-0.05 1.04,-0.05zm-4.53 22.74c-0.25,-0.17 -0.17,-0.43 -0.19,-0.76l-0.01 -1.76c0.03,-0.77 0.01,-0.66 0.27,-0.67 0.15,0.38 0.05,1.2 0.06,1.65 0,0.33 0.07,1.32 -0.13,1.54zm-0.02 -6.77c0.2,0.03 0.14,0.1 0.14,0.34l0.02 1.32c-0,0.4 0.08,1.48 -0.07,1.77l-0.23 -0.03c-0.08,-0.38 -0.04,-1.33 -0.04,-1.78 0,-0.4 -0.07,-1.34 0.17,-1.61zm9.03 -1.15c-0.05,-0.31 -0.02,-3.79 0.04,-4.04l0.21 0.03c0.15,0.44 0.08,1.71 0.06,2.23 -0.02,0.47 0.01,1.78 -0.24,2.1l-0.06 -0.15c-0.02,-0.14 0.09,-0.09 -0.02,-0.17zm-10.04 -9.84c-0.12,0.31 -0.08,0.5 -0.47,0.58 -0.03,-0.39 0.1,0.05 -0.01,-0.44 -0.16,-0.72 0.45,-1.09 0.73,-1.01l-0.01 0.67c-0.14,0.07 -0.19,0.06 -0.25,0.2zm10.94 -0.76c0.17,-0.02 0.08,0.07 0.04,-0.15 0.77,0.12 0.82,0.88 0.69,1.52l-0.31 -0.18c-0.2,-0.37 0,-0.34 -0.47,-0.5l-0.01 -0.31 0.15 0.02c-0.19,-0.1 -0.14,-0.16 -0.1,-0.39zm-0.88 1.61l0.02 0.13 -0.04 0.32c0.12,-0.39 0.05,-0.93 0.23,-1.28 0.11,0.74 0,1.44 0.05,2.18 0.04,0.6 0.16,1.74 0.02,2.27 -0.14,-0.06 -0.08,0.05 -0.16,-0.14 0.23,0.13 0.25,0.55 0.13,0.85l0.05 0.03 0.09 -0.49 -0 1.37c-0.03,-0.17 -0.1,-0.48 -0.32,-0.46l-0.17 0.13c-0.04,0.69 0.01,1.58 0,2.3 -0,0.32 -0.07,2.1 0.06,2.23l0.11 -0.01c0.18,-0.26 0.32,-1.36 0.26,-1.68 -0.06,-0.21 -0.04,-0.17 0.02,-0.37 0.14,0.15 0.09,0.22 0.11,0.62l-0.01 2.05c-0.05,0.89 0.02,1.84 0.02,2.74 -0,0.46 -0.04,0.9 -0.03,1.37l0 2.74c0.02,0.49 -0.02,0.93 0.02,1.42 0.07,0.91 -0.06,1.86 -0.04,2.74 0.03,0.94 0.04,1.84 0.03,2.78 -0.01,0.5 -0.1,3.77 0,4.1 0.1,0.36 0.09,1.07 -0.05,1.41l-0.06 0.98c0.06,0.32 -0.15,1.72 -0.27,2.05 0.11,0.14 -0.24,0.35 -0.36,0.4 -0.26,0.1 -0.39,-0.02 -0.63,-0 -0.23,0.22 -0.39,0.17 -0.72,0.22 -0.29,0.04 -0.6,0.08 -0.89,0.1 -0.62,0.04 -1.25,0.07 -1.86,0.07 -0.75,0 -2,-0.05 -2.77,-0.14 -0.34,-0.04 -0.56,-0.05 -0.79,-0.19 -0.31,0.1 -0.34,0.01 -0.54,-0.13l-0 -0.2 -0.04 -0.04 -0.12 0.09c0.16,0.1 0.11,0.04 0.12,0.24 -0.28,-0.03 -0.48,-0.16 -0.54,-0.45l-0.05 -0.2 0.06 -0.06 -0.02 -0.08c-0.03,-0.17 -0.07,-0.19 0.01,-0.29l-0.3 -1.86c-0.03,-0.52 -0.09,-1.58 0.03,-2.05 0.06,0.36 0.06,1.18 0.22,1.46 0.15,-0.01 0.13,0.01 0.2,-0.16 -0.05,-0.17 0.03,-0.14 0.08,-0.17l0.02 -11.28 -0.12 -0.12c-0.1,0.96 0.1,2.23 -0.02,3.24l-0.22 -0.03c-0.06,-0.21 -0.04,-1.92 -0.03,-2.35 0.01,-0.51 0.11,-0.61 -0.03,-0.68 -0.14,0.82 -0.06,2.37 -0.06,3.27 -0,1.1 0.02,2.23 0.01,3.33 0.11,-0.11 0.06,0.04 0.08,-0.2l-0 -0.59c-0,-0.5 -0.04,-2.15 0.05,-2.43l0.21 -0c0.04,0.59 0,1.3 0,1.9 0,0.32 0.01,0.65 0,0.98 -0.01,0.67 0.06,0.68 -0.18,0.73l-0.09 -0.12 0.02 0.24c0.17,0.07 0.07,0.04 0.28,0.02l0.01 0.48 -0.25 0.04c-0.15,0.29 -0.15,0.76 -0.19,1.09 -0.11,-1.44 -0.03,-3.15 -0.03,-4.63 0,-1.56 -0.01,-3.13 -0,-4.69 0.01,-1.07 -0.05,-8.57 0.04,-9.37 0.24,0.85 -0.14,1.36 0.44,1.8l-0.02 0.6 -0.23 -0.04c-0.28,0.66 -0.09,2.69 -0.14,3.54 -0.03,0.63 -0.18,3.03 0.17,3.45l0.18 -0.08 0.12 -0.15c-0.01,-1.22 0.01,-2.43 -0,-3.65l-0.02 -3.61c0.01,-0.42 0.08,-6.89 0,-7.22l-0.01 -1.12c0.1,-0.45 -0.13,-1.71 -0.17,-2.26 -0.13,0.14 -0.04,0.38 -0.02,0.59 0.02,0.24 0.04,0.39 0.05,0.63 0.08,1.65 0.02,2.51 0.05,4.05l-0.16 0.08c-0.11,-0.04 -0.01,0.07 -0.11,-0.09l0.07 0.18 0.2 -0.06 -0.01 0.4c-0.06,0.17 0.01,1.92 0.01,2.27 -0,0.4 0.08,2.03 -0.09,2.25 -0.29,-0.28 -0.15,-3.59 -0.18,-4.21l-0.13 0.19c-0.07,-0.39 -0.09,-1.01 0.01,-1.39l0.11 -2.41c-0,0.37 0.09,0.89 -0.1,1.21 -0.01,-0.01 -0.03,-0.03 -0.03,-0.04l-0.04 -0.08c-0.05,-0.15 -0.01,0.02 0.01,-0.1l0.04 -3.6 0.14 0.01c0.05,0.46 -0.12,1.05 -0.01,1.47 0.07,0.31 -0.01,0.67 -0,0.99 0.11,-0.34 -0.01,-0.99 0.03,-1.37 0.04,-0.34 0.03,-1.07 0.08,-1.3 0.02,-0.21 -0.02,-0.75 -0.13,-0.9l-0.09 0.43c-0.09,-0.19 0.02,-1.72 0.05,-2.05 0.07,-0.77 0.13,-1.05 0.89,-1.31 1.92,-0.67 5.9,-0.73 7.81,-0.01 0.76,0.29 0.83,0.5 0.89,1.31 0.04,0.51 0.15,1.6 0.07,2.05 -0.15,-0.21 0.06,-0.21 -0.13,-0.42l-0.27 2.26z"/>
   <path class="fil3" d="M6.94 37.14c-0.31,0.16 -1.2,0.1 -1.59,0.04l-2.28 -0.16c-0.22,-0.07 0.01,-0.1 -0.3,-0.11 -0.16,-0.01 -0.14,0.04 -0.29,0.01 -0.07,-0.15 0.01,-0.57 0.03,-0.75 0.91,-0.2 6.69,-0.27 7.4,0.03l-0.01 0.75 -0.44 -0.05 -0.1 0.13c-0.26,0.01 -2.41,0.27 -2.43,0.12zm3.41 -29.32l0.13 0.04 0.01 26.89 -0.27 0.12c-0.06,-0.35 -0.02,-6.32 -0.02,-6.83l0.04 -19.54c0,-0.75 0.05,-0.42 0.11,-0.68zm-0.05 -2.32c0,0.56 -0.13,1.21 -0.14,1.83 -0.06,7.06 0,14.13 0,21.2 0,1.61 0.05,3.74 0.01,5.33 -0.01,0.2 -0.05,0.2 -0.06,0.39 -0.05,0.5 0.03,1.36 -0.08,1.81 -0.47,0.06 -1.38,-0.06 -1.91,-0.07l-5.73 0.04c-0.08,-0.63 -0.01,-1.28 -0.07,-1.9 -0.05,-0.58 -0.02,-1.29 -0.02,-1.88l0 -11.53c-0,-4.33 0.08,-9.13 -0,-13.43 -0.01,-0.57 -0.15,-1.27 -0.13,-1.79l-0.07 -0.01c0.09,0.75 0.21,1.68 0.15,2.43 -0.06,-0.08 -0.22,-0.16 -0.31,-0.24 -0.02,-0.15 0.04,-0.55 -0.08,-0.62l0.01 1.12c0.09,-0.07 0.05,-0.25 0.07,-0.4 0.44,0.22 0.27,1.04 0.27,1.47l0 5.13c-0,0.57 0.06,1.07 0.06,1.66l0 12.01c0,2.23 0.08,4.62 -0.03,6.83 -0.13,-0.13 -0.2,-0.11 -0.34,-0.03l-0.04 -0.11c-0.04,0.03 -0.13,0 -0.08,0.17l0.34 -0.07c0.19,0.26 0.13,0.39 0.14,0.73 0.01,0.49 -0.04,0.32 0.18,0.68 0.1,0.35 -0.24,1.15 -0.09,1.42 0.41,0.78 7.34,0.73 7.75,0.02 0.13,-0.23 -0.2,-1.11 -0.08,-1.45 0.23,-0.31 0.15,-0.27 0.18,-0.68 0.01,-0.21 -0.02,-0.49 0.09,-0.68 0.2,-0.05 0.16,-0.04 0.35,0.04 -0.05,-0.18 -0.01,-21.84 -0.01,-23.83 0,-0.63 0.07,-2.99 -0.04,-3.41l-0.16 0.06c-0.09,0.02 -0.08,-0.01 -0.05,0.08l-0.14 0.01c-0.04,-0.42 -0.01,-1.99 0.2,-2.28 0.22,0.11 0.16,0.16 0.19,0.41l0.09 0 -0.02 -0.13c-0.17,-0.09 -0.03,-0.12 -0.29,-0.31l-0 -0.2 -0.09 0.17z"/>
   <path class="fil4" d="M10.69 5.96l-0.09 0 -0.08 1.61c-0.03,0.13 0.02,0.06 -0.13,0.16l0.16 -0.06c0.11,0.42 0.04,2.79 0.04,3.41 0,1.99 -0.04,23.65 0.01,23.83l0.14 0.21c0.19,-0.18 0.33,-1.21 0.32,-1.47l0.02 1.5c0.14,-0.34 0.15,-1.05 0.05,-1.41 -0.1,-0.34 -0.01,-3.61 -0,-4.1 0.01,-0.95 -0,-1.84 -0.03,-2.78 -0.02,-0.88 0.1,-1.83 0.04,-2.74 -0.03,-0.48 0,-0.93 -0.02,-1.42l-0 -2.74c-0,-0.47 0.03,-0.9 0.03,-1.37 0,-0.9 -0.06,-1.85 -0.02,-2.74l0.01 -2.05c-0.01,-0.4 0.03,-0.47 -0.11,-0.62 -0.06,0.21 -0.07,0.16 -0.02,0.37 0.16,0.25 0.07,4.02 0.07,4.64 0,1.57 -0.01,3.12 -0,4.69 0.01,0.94 0.05,8.49 -0.01,9.31l-0.16 -1.1 -0.29 -0.05 0.02 -0.45c0.22,0.02 0.11,0.05 0.28,-0.03 0.18,-0.67 0.13,-2.84 0.09,-3.62 -0.03,-0.71 0.14,-3.16 -0.11,-3.64l-0.29 -0.07 0.04 -0.43 0.27 0.02c0.35,-0.93 0.04,-2.46 0.09,-3.47 0.03,-0.62 0.12,-3.04 -0.14,-3.47 -0.17,-0.01 -0.09,0.03 -0.26,-0.01l0.03 -0.61c-0.13,-0.13 -0.06,-1.91 -0.06,-2.23 0,-0.72 -0.05,-1.61 -0,-2.3l0.17 -0.13c-0.09,-0.16 -0.09,-0.31 -0.08,-0.49 0.2,0.03 0.08,-0.05 0.24,0.13l0.07 -0.06 -0.05 -0.03c0.12,-0.29 0.1,-0.71 -0.13,-0.85 0.08,0.19 0.02,0.08 0.16,0.14 0.13,-0.54 0.01,-1.67 -0.02,-2.27 -0.05,-0.74 0.06,-1.44 -0.05,-2.18 -0.18,0.35 -0.11,0.89 -0.23,1.28l0.04 -0.32z"/>
   <path class="fil5" d="M10.35 3.97c-0.21,0.04 -0.77,0.09 -0.96,0.08 -1.56,-0.09 -1.64,-0.02 -3.14,-0.02 -0.88,0 -3.5,0.1 -4.13,-0.13 -0.06,-0.18 -0.17,-0.58 -0.04,-0.71l0.04 -0.08c0.66,-0.13 1.27,-0.33 1.95,-0.45 1.76,-0.33 4.2,-0.25 5.93,0.34 0.21,0.07 0.36,0.06 0.38,0.26 0.08,0.11 -0.04,0.51 -0.03,0.71zm0 0l0.15 0c0.1,-0.22 0.18,-0.86 0.08,-1.08 -0.44,-0.35 -1.74,-0.5 -2.33,-0.59 -1.65,-0.26 -3.78,-0.09 -5.43,0.24 -1.32,0.26 -1.01,0.49 -0.97,1.13 0.02,0.3 0.01,0.39 0.22,0.53 0.04,0.28 0.07,0.61 0.21,0.84 0.23,0.02 2.05,-0.27 2.19,-0.36 -0.41,-0.15 -1.65,0.16 -1.85,0.02 0.29,-0.14 1.61,-0.25 1.96,-0.22 0.74,0.05 1.38,0.26 2.15,0.15l-0.38 -0.1c1.17,-0.2 3.54,0.61 3.73,0.53 0.18,-0.14 0.3,-0.89 0.26,-1.09z"/>
   <path class="fil6" d="M2.08 3.19l0.03 0.35c1.02,0.09 4.41,0.03 5.9,0.01 0.67,-0.01 1.38,-0 2.05,0 0.14,-0.15 0.14,-0.05 0.21,-0.26 0.11,0.03 0.04,-0.06 0.1,0.08l0.01 -0.11c-0.02,-0.2 -0.17,-0.19 -0.38,-0.26 -1.72,-0.59 -4.17,-0.67 -5.93,-0.34 -0.68,0.13 -1.3,0.32 -1.95,0.45l-0.04 0.08z"/>
   <path class="fil7" d="M6.77 21.73c0.08,0.16 0.18,0.81 0,0.94 0.09,0.54 -0.35,0.88 -0.88,0.66l-0.33 0.01 -0.02 -3.6 0.38 0.03c0.56,-0.13 0.9,0.08 0.85,0.69 0.08,0.13 0.08,0.91 0,0.92l-0.01 0.34zm0.64 1.66c-0.19,0.01 -0.24,0.06 -0.34,-0.09 -0.12,-0.06 -0.03,0.03 -0.07,-0.16 -0.05,0.08 -0.09,-0.08 -0.06,0.2 0.04,-0.09 0.05,-3.37 0.02,-3.68l-1.52 -0.01c-0.03,0.26 0,0.55 -0.02,0.8 -0.03,0.32 -0.06,0.18 -0.03,0.71 0.02,-0.17 -0.05,-0.14 -0.12,-0.19l-0.22 0.05c-0.05,0.56 0,0.38 0.07,0.48l-0.11 0.04c0.11,0.08 -0.06,0.12 0.22,0.08 -0.07,0.02 0.03,-0.04 -0.05,0.03 -0,0 -0.01,0.02 -0.01,0.04 -0.09,-0.19 -0.08,-0.06 -0.16,-0.08 -0.03,0.17 -0.09,0.44 0.05,0.53 0.02,-0.16 -0.11,0.01 0.05,-0.17 0.26,0.07 0.19,0.13 0.23,-0.02l-0.06 0.57 -0.26 -0c0.08,0.25 -0.01,0.03 0.11,0.14 0.14,-0.17 -0.21,0.12 0.09,-0.03 -0.17,-0.02 -0.05,-0.01 -0.19,0.03 0.05,0.06 -0.09,0.09 0.13,0.11 -0.22,0.03 -0.05,0 -0.16,0.1 0.07,0.05 0.01,0.16 0.22,0.08 -0.22,-0.03 -0.11,0 -0.19,0.06l0.24 -0.04c0,0.05 0.15,-0.03 -0.04,0.13 -0.01,0 -0.03,0.01 -0.03,0.01l-0.07 0.02c0.19,0.05 0.08,-0.09 0.27,0.12 -0.03,0.19 -0.18,0.19 -0.37,0.1l0.01 -0.18c-0.16,0.15 -0.06,0.02 -0.12,0.23l-0.58 0.09c-0.01,-0.01 -0.03,0.03 -0.04,0.04l1.89 0.03c0.43,-0 1.38,-0.06 1.73,0.02 0.04,0.35 0.07,2.63 -0.04,2.85 -0.29,0.06 -2.74,0.03 -2.95,-0l-0.01 0.36c0.87,0.04 1.81,0 2.69,0.01 0.61,0 0.57,-0.21 0.57,-0.73 0,-0.44 0.01,-0.88 0,-1.32 -0,-0.5 0.07,-5.08 -0.06,-5.18 -0.08,0.43 -0.06,3.35 -0,3.87 -0.27,-0.01 -0.44,0.04 -0.71,-0.05l-0.01 0.05z"/>
   <path class="fil2" d="M10.35 3.97c0.04,0.2 -0.08,0.96 -0.26,1.09 -0.19,0.07 -2.56,-0.73 -3.73,-0.53l0.38 0.1c-0.77,0.11 -1.41,-0.09 -2.15,-0.15 -0.35,-0.03 -1.66,0.08 -1.96,0.22 0.2,0.14 1.44,-0.17 1.85,-0.02 -0.14,0.09 -1.96,0.38 -2.19,0.36 -0.14,-0.23 -0.17,-0.57 -0.21,-0.84 -0.21,-0.14 -0.21,-0.23 -0.22,-0.53 -0.04,-0.63 -0.35,-0.87 0.97,-1.13 1.65,-0.32 3.78,-0.49 5.43,-0.24 0.59,0.09 1.89,0.24 2.33,0.59 0.09,0.22 0.02,0.86 -0.08,1.08l-0.15 -0zm-8.55 -1.21c-0.13,0.34 -0.11,0.29 -0.06,0.66 0.03,0.24 0.07,0.49 0.12,0.73 0.07,0.44 0.17,0.88 0.23,1.33l0.07 0.01c0.63,-0.45 3.2,-0.63 4.05,-0.63 0.71,-0 3.67,0.18 4.09,0.64l0.09 -0.17c0.1,-0.34 0.15,-0.86 0.21,-1.22 0.06,-0.42 0.24,-0.91 0.07,-1.3 -0.33,-0.11 -0.57,-0.25 -0.96,-0.34 -2.15,-0.53 -4.79,-0.48 -6.94,0.01 -0.3,0.07 -0.73,0.26 -0.96,0.3z"/>
   <path class="fil8" d="M10.35 3.97c-0.01,-0.2 0.1,-0.6 0.03,-0.71l-0.01 0.11c-0.06,-0.14 0.02,-0.04 -0.1,-0.08 -0.06,0.21 -0.07,0.12 -0.21,0.26 -0.68,-0 -1.38,-0.01 -2.05,-0 -1.49,0.02 -4.88,0.08 -5.9,-0.01l-0.03 -0.35c-0.13,0.13 -0.01,0.52 0.04,0.71 0.64,0.23 3.25,0.13 4.13,0.13 1.5,-0 1.58,-0.07 3.14,0.02 0.19,0.01 0.75,-0.04 0.96,-0.08z"/>
   <path class="fil1" d="M5.38 14.21l1.61 0c0.07,-0.23 0.08,-1.63 0.01,-1.84l-1.57 -0.03c-0.16,0.23 -0.11,0.29 -0.11,0.88 0,0.25 -0.01,0.77 0.05,0.98z"/>
   <path class="fil5" d="M1.48 6.14c-0.18,0.35 0.06,1.95 -0.18,2.12 -0.02,0.12 -0.06,-0.05 -0.01,0.1l0.04 0.08c0.01,0.01 0.02,0.02 0.03,0.04 0.19,-0.32 0.1,-0.84 0.1,-1.21l-0.11 2.41c-0.09,0.38 -0.08,1 -0.01,1.39l0.13 -0.19c0.03,0.62 -0.11,3.93 0.18,4.21 0.18,-0.22 0.09,-1.85 0.09,-2.25 0,-0.35 -0.07,-2.11 -0.01,-2.27l-0.29 0.1 -0.03 -0.34 0.14 -0.1 -0.07 -0.18c0.1,0.16 0,0.05 0.11,0.09l0.16 -0.08c-0.03,-1.54 0.04,-2.41 -0.05,-4.05 -0.01,-0.24 -0.03,-0.4 -0.05,-0.63 -0.02,-0.21 -0.11,-0.45 0.02,-0.59l-0.08 -0.31c-0.05,0.22 -0.04,0.96 -0.08,1.3 -0.04,0.38 0.08,1.03 -0.03,1.37 -0.01,-0.32 0.07,-0.68 0,-0.99z"/>
   <path class="fil9" d="M2.2 38.3l0 0.2c0.2,0.14 0.24,0.24 0.54,0.13 0.23,0.14 0.45,0.15 0.79,0.19 0.77,0.09 2.02,0.15 2.77,0.14 0.62,-0 1.25,-0.03 1.86,-0.07 0.29,-0.02 0.6,-0.06 0.89,-0.1 0.33,-0.04 0.48,0 0.72,-0.22 0.24,-0.02 0.37,0.11 0.63,0 0.13,-0.05 0.48,-0.26 0.36,-0.4 -0.2,0.11 -0.3,0.17 -0.53,0.18l0.02 -0.32c-0.05,0.07 -0.12,0.01 -0.08,0.24 -0.36,0.24 -0.49,0.15 -1.13,0.26l-0.74 0.05c-1.38,0.18 -4.95,0.1 -6.11,-0.29z"/>
   <path class="fil10" d="M4.93 26.76c-0.89,0.01 -0.7,-0.11 -0.69,-2.24l-0 -4.44c0,-0.69 0.04,-0.79 0.75,-0.78 0.9,0.01 2.12,-0.09 2.98,0.01 0.12,0.11 0.13,0.08 0.17,0.23 0.12,0.1 0.05,4.68 0.06,5.18 0,0.44 -0,0.88 -0,1.32 -0,0.53 0.04,0.74 -0.57,0.73 -0.88,-0.01 -1.81,0.04 -2.69,-0.01zm-0.79 -0.3c0.07,0.53 0.72,0.4 1.13,0.4 0.49,0 0.98,-0 1.47,0 1.94,0 1.52,0.59 1.54,-4.34 0.02,-3.39 0.32,-3.32 -1.15,-3.32 -3.24,-0.01 -2.99,-0.31 -2.99,1.42l0 4.4c-0,0.37 -0.04,1.13 0,1.45z"/>
   <path class="fil4" d="M10.65 14.83c0.11,0.08 0,0.03 0.02,0.17l0.06 0.15c0.25,-0.32 0.22,-1.63 0.24,-2.1 0.02,-0.52 0.09,-1.79 -0.06,-2.23l-0.21 -0.03c-0.06,0.25 -0.09,3.73 -0.04,4.04z"/>
   <path class="fil1" d="M5.89 23.34c-0.14,-0.18 -0.26,-0.15 -0.28,-0.43 -0.02,-0.25 0.05,-0.4 0.23,-0.55 0.36,-0.28 0.8,-0.1 0.92,0.32 0.18,-0.14 0.08,-0.78 0,-0.94 -0.25,0.69 -1.14,0.45 -1.16,-0.15 -0.01,-0.29 0.21,-0.56 0.49,-0.6 0.42,-0.06 0.48,0.13 0.67,0.4 0.08,-0.01 0.07,-0.79 -0,-0.92 -0.3,0.96 -1.82,0.14 -0.85,-0.69l-0.38 -0.03 0.02 3.6 0.33 -0.01z"/>
   <path class="fil7" d="M5.38 14.21c-0.06,-0.21 -0.05,-0.73 -0.05,-0.98 -0,-0.59 -0.05,-0.65 0.11,-0.88l1.57 0.03c0.07,0.2 0.06,1.61 -0.01,1.84l-1.61 -0zm1.76 0.13c0.03,-0.31 0.06,-1.9 -0.03,-2.11 -0.21,-0.05 -1.76,-0.14 -1.88,0.08 -0.04,0.32 -0.08,1.79 0.04,2.01 0.22,0.12 1.59,0.09 1.87,0.02z"/>
   <path class="fil9" d="M7.01 23.15c0.03,0.18 -0.06,0.1 0.07,0.16 0.1,0.14 0.15,0.1 0.34,0.09l-0.01 -0.18 -0.17 0.03c-0.02,0 0.01,-0.01 -0.08,-0.01 0.27,0.03 0.2,0.03 0.25,-0.21l-0.28 -0.06c0.25,-0.03 0.12,0.02 0.3,-0.1l-0.06 -0.21 -0.24 -0.05c0.15,0.04 0.08,0.03 0.25,0.01 0.01,-0.09 -0,-0.16 -0,-0.22 -0,-0.01 -0,-0.02 -0,-0.03l0.02 -0.17 -0.26 -0.08c-0.02,-0.06 -0.09,-0.22 0.03,-0.23 0.11,-0.07 0.01,-0.05 0.23,-0.08l0 -0.47 -0.27 0c0.29,0.01 0.23,-0.03 0.3,-0.08l0 -0.18c-0.11,-0.07 0.07,-0.03 -0.14,-0.08 -0.04,-0.01 -0.13,-0 -0.17,-0 0.01,-0 0.12,-0.01 0.13,-0.02 0.1,-0.04 0.06,-0.02 0.16,-0.08 -0.11,-0.08 -0.03,-0.05 -0.16,-0.09 -0.01,-0 -0.09,-0 -0.11,-0 0.27,-0.01 0.13,0.04 0.28,-0.06 -0.12,-0.1 -0.02,-0.11 -0.29,-0.08l0.13 -0.06c0.01,0.17 0.05,0.06 0.14,0.07l0.01 -0.86 -0.3 -0.05c-0.2,0.42 0.08,2.95 -0.1,3.37z"/>
   <path class="fil4" d="M1.63 15.97c-0.24,0.27 -0.17,1.22 -0.17,1.61 -0,0.45 -0.05,1.4 0.04,1.78l0.23 0.03c0.15,-0.28 0.06,-1.36 0.07,-1.77l-0.02 -1.32c0,-0.24 0.06,-0.31 -0.14,-0.34z"/>
   <path class="fil4" d="M6.31 22.75c0.04,0.16 0.01,0.17 -0.15,0.19 -0.16,-0.14 -0.07,-0.28 0.15,-0.19zm-0.42 0.59c0.52,0.22 0.97,-0.12 0.88,-0.66 -0.13,-0.42 -0.57,-0.6 -0.92,-0.32 -0.19,0.15 -0.26,0.3 -0.23,0.55 0.03,0.28 0.14,0.25 0.28,0.43z"/>
   <path class="fil4" d="M6.05 21.56c0.11,-0.12 0.07,-0.13 0.25,-0.11 0.09,0.18 0.07,0.18 -0.09,0.27l-0.16 -0.16zm0.72 0.17l0.01 -0.34c-0.19,-0.27 -0.25,-0.46 -0.67,-0.4 -0.28,0.04 -0.5,0.31 -0.49,0.6 0.01,0.59 0.9,0.84 1.16,0.15z"/>
   <path class="fil4" d="M6.2 20.16c0.16,0.07 0.12,0.03 0.16,0.2 -0.15,0.13 -0.04,0.08 -0.25,0.11 -0.05,-0.19 -0.07,-0.22 0.09,-0.31zm-0.28 -0.38c-0.97,0.83 0.55,1.65 0.85,0.69 0.05,-0.6 -0.29,-0.82 -0.85,-0.69z"/>
   <path class="fil4" d="M1.64 22.74c0.2,-0.22 0.13,-1.21 0.13,-1.54 -0.01,-0.45 0.09,-1.27 -0.06,-1.65 -0.26,0.01 -0.24,-0.09 -0.27,0.67l0.01 1.76c0.02,0.33 -0.06,0.58 0.19,0.76z"/>
   <path class="fil5" d="M1.4 30.1l0.07 0.25 0.09 0.12c0.24,-0.05 0.17,-0.06 0.18,-0.73 0.01,-0.32 -0,-0.65 -0,-0.98 -0,-0.6 0.03,-1.31 -0,-1.9l-0.21 0c-0.08,0.28 -0.05,1.93 -0.05,2.43l0 0.59c-0.02,0.24 0.02,0.1 -0.08,0.2z"/>
   <path class="fil5" d="M1.73 31.28c-0.23,-0.01 -0.2,0.03 -0.23,0.27 -0.1,0.77 -0.06,2.68 0.08,3.35 0.19,-0.09 0.16,-0.11 0.16,-0.36l-0 -1.42c-0.01,-0.61 0.01,-1.23 -0.01,-1.84z"/>
   <path class="fil5" d="M1.74 22.8l0.03 0.47 -0.26 0.03 -0.06 0.19c0.14,0.07 0.04,0.17 0.03,0.68 -0,0.43 -0.02,2.15 0.03,2.35l0.22 0.03c0.12,-1.01 -0.08,-2.28 0.02,-3.24l0.12 0.12 0.01 -0.8 -0.12 0.15z"/>
   <path class="fil4" d="M11.55 4.74c0.1,-0.05 -0.11,-0.09 0.14,-0.03 0.14,0.04 0.2,0.16 0.21,0.27 -0.12,-0.06 -0.28,-0.14 -0.35,-0.24zm0 -0.51c-0.04,0.23 -0.09,0.29 0.1,0.39l-0.15 -0.02 0.01 0.31c0.47,0.17 0.26,0.13 0.47,0.5l0.31 0.18c0.13,-0.64 0.08,-1.39 -0.69,-1.52 0.04,0.22 0.13,0.13 -0.04,0.15z"/>
   <path class="fil11" d="M7.14 14.34c-0.28,0.07 -1.65,0.1 -1.87,-0.02 -0.13,-0.22 -0.08,-1.69 -0.04,-2.01 0.12,-0.22 1.67,-0.13 1.88,-0.08 0.09,0.21 0.06,1.8 0.03,2.11zm0.09 -0.03c0.08,-0.32 0.08,-1.84 -0.04,-2.11 -0.25,-0.17 -1.21,-0.09 -1.57,-0.09 -0.7,-0 -0.49,0.63 -0.49,1.22 0,0.66 -0.22,1.12 0.54,1.12 0.39,-0 1.29,0.12 1.56,-0.14z"/>
   <path class="fil4" d="M0.61 4.98l-0.12 0.04c0.02,-0.23 0.13,-0.24 0.34,-0.34l0.03 0.11 0.01 -0.67c-0.28,-0.07 -0.89,0.29 -0.73,1.01 0.1,0.48 -0.02,0.04 0.01,0.44 0.39,-0.08 0.35,-0.27 0.47,-0.58z"/>
   <path class="fil12" d="M10.45 38.15c0.03,-0.19 0.16,-0.26 0.32,-0.38 -0.02,0.25 -0.07,0.34 -0.32,0.38zm-0.2 -0.1l-0.02 0.32c0.23,-0.01 0.33,-0.07 0.53,-0.18 0.12,-0.33 0.33,-1.73 0.27,-2.05 -0.09,0.09 -0.15,0.84 -0.18,1.04 -0.07,0.44 -0.15,0.48 -0.59,0.6l-0.02 0.27z"/>
   <path class="fil6" d="M7.53 38.45c-0.66,-0.13 -0.75,-0.02 -1.03,0l-1.42 -0.03c-0.36,-0.03 -0.22,-0.01 -0.3,0.06 0.21,0.12 0.3,-0.02 0.56,0.13 0.23,-0.19 1.3,-0.05 1.74,-0.07 0.29,-0.02 0.34,0.14 0.44,-0.1z"/>
   <path class="fil13" d="M1.6 37.8c0.13,0.08 0.3,0.19 0.34,0.34 -0.17,-0.04 -0.23,-0.1 -0.32,-0.26l-0.06 0.06 0.05 0.2c0.15,0.12 0.23,0.18 0.42,0.21l0.12 -0.09 -0.06 -0.5c-0.27,-0.06 -0.29,-0.07 -0.49,-0.25 -0.07,0.11 -0.04,0.12 -0.01,0.29z"/>
   <path class="fil13" d="M5.36 37.18c0.38,0.06 1.28,0.12 1.59,-0.04l-0.03 -0.1 -1.56 0.01c-0.03,0.12 -0.03,0.09 0,0.14z"/>
   <path class="fil14" d="M5.08 19.83c-0.08,0.19 -0.07,0.74 -0,0.94l0.22 -0.04 0.05 -0.39 -0.28 -0.01c0.23,0.01 0.19,0.02 0.27,-0.11 -0.09,-0.13 0.01,-0.13 -0.22,-0.06l-0.06 -0.05c0.2,0.01 0.17,0.05 0.32,-0.07 0.01,-0.25 -0.04,-0.29 -0.31,-0.21z"/>
   <path class="fil14" d="M10.98 10.19l-0.07 0.06c-0.15,-0.18 -0.03,-0.1 -0.24,-0.13 -0.01,0.18 -0.01,0.33 0.08,0.49 0.21,-0.02 0.28,0.29 0.32,0.46l0 -1.37 -0.09 0.49z"/>
   <path class="fil14" d="M5.06 22.14l0.21 -0 -0.2 0.06 -0.04 0.32 0.26 0 0.06 -0.57c-0.05,0.14 0.03,0.08 -0.23,0.02 -0.15,0.18 -0.03,0.01 -0.05,0.17z"/>
   <polygon class="fil15" points="1.55,10.23 1.42,10.34 1.45,10.68 1.74,10.57 1.76,10.17 "/>
   <path class="fil14" d="M5.05 23.14l-0.01 0.18c0.19,0.1 0.34,0.09 0.37,-0.1 -0.19,-0.22 -0.08,-0.07 -0.27,-0.12l0.07 -0.02c0.01,-0 0.03,-0.01 0.03,-0.01 0.19,-0.16 0.05,-0.08 0.04,-0.13l-0.24 0.04 0.02 0.15z"/>
   <path class="fil7" d="M2.04 38.35c-0.19,-0.03 -0.27,-0.09 -0.42,-0.21 0.07,0.29 0.26,0.42 0.54,0.45 -0.01,-0.21 0.04,-0.14 -0.12,-0.24z"/>
   <path class="fil6" d="M6.1 20.47c0.21,-0.02 0.09,0.03 0.25,-0.11 -0.04,-0.17 0,-0.13 -0.16,-0.2 -0.16,0.09 -0.14,0.12 -0.09,0.31z"/>
   <path class="fil10" d="M6.29 21.45c-0.17,-0.01 -0.14,-0.01 -0.25,0.11l0.16 0.16c0.15,-0.1 0.18,-0.09 0.09,-0.27z"/>
   <path class="fil16" d="M10.45 38.15c0.25,-0.04 0.3,-0.13 0.32,-0.38 -0.16,0.12 -0.29,0.19 -0.32,0.38z"/>
   <path class="fil15" d="M0.61 4.98c0.06,-0.13 0.12,-0.13 0.25,-0.2l-0.03 -0.11c-0.21,0.1 -0.32,0.11 -0.34,0.34l0.12 -0.04z"/>
   <path class="fil10" d="M6.16 22.94c0.16,-0.02 0.19,-0.03 0.15,-0.19 -0.22,-0.09 -0.3,0.05 -0.15,0.19z"/>
   <path class="fil15" d="M11.55 4.74c0.08,0.1 0.23,0.18 0.35,0.24 -0.02,-0.1 -0.07,-0.23 -0.21,-0.27 -0.25,-0.06 -0.04,-0.02 -0.14,0.03z"/>
   <path class="fil11" d="M7.14 22.11c0.14,-0 0.14,0.01 0.24,-0.04 -0.12,-0.09 0.04,-0.04 -0.2,-0.07 0.02,-0.01 0.08,-0.03 0.09,-0.04l-0.11 -0.08c-0.11,0.01 -0.05,0.17 -0.03,0.23z"/>
   <path class="fil9" d="M1.63 37.88c0.09,0.16 0.14,0.21 0.32,0.26 -0.04,-0.14 -0.21,-0.26 -0.34,-0.34l0.02 0.08z"/>
   <path class="fil3" d="M2.75 1.17c0.36,-0.9 0.2,-0.82 0.91,-0.96 0.03,-0.01 0.06,0.01 0.06,0.04 0.01,0.03 -0.01,0.06 -0.04,0.06 -0.68,0.12 -0.48,0.01 -0.88,0.88 -0.23,0.51 -0.09,0.22 -0.35,0.74 0.16,-0.44 0.12,-0.34 0.29,-0.76zm5.94 -0.96c0.72,0.14 0.55,0.06 0.92,0.96 0.17,0.42 0.13,0.33 0.29,0.76 -0.26,-0.52 -0.12,-0.23 -0.35,-0.74 -0.39,-0.87 -0.19,-0.76 -0.88,-0.88 -0.03,-0.01 -0.05,-0.03 -0.04,-0.06 0.01,-0.03 0.03,-0.05 0.06,-0.04z"/>
  </g>
 </g>
</svg>
