<?xml version="1.0" encoding="UTF-8"?>
<!DOCTYPE svg PUBLIC "-//W3C//DTD SVG 1.1//EN" "http://www.w3.org/Graphics/SVG/1.1/DTD/svg11.dtd">
<!-- Creator: CorelDRAW -->
<svg xmlns="http://www.w3.org/2000/svg" xml:space="preserve" width="0.7036mm" height="1.7501mm" version="1.1" style="shape-rendering:geometricPrecision; text-rendering:geometricPrecision; image-rendering:optimizeQuality; fill-rule:evenodd; clip-rule:evenodd"
viewBox="0 0 0.41 1.01"
 xmlns:xlink="http://www.w3.org/1999/xlink"
 xmlns:xodm="http://www.corel.com/coreldraw/odm/2003">
 <defs>
  <style type="text/css">
   <![CDATA[
    .fil7 {fill:none;fill-rule:nonzero}
    .fil6 {fill:#283643}
    .fil1 {fill:#92918F}
    .fil0 {fill:#D9B18D}
    .fil8 {fill:white}
    .fil2 {fill:black;fill-rule:nonzero}
    .fil4 {fill:#283643;fill-rule:nonzero}
    .fil3 {fill:#585755;fill-rule:nonzero}
    .fil5 {fill:#627383;fill-rule:nonzero}
   ]]>
  </style>
    <clipPath id="id0" style="clip-rule:nonzero">
     <path d="M0.3 0.88c-0,-0 -0,-0 0,-0.01 0,-0 0,-0 -0,-0 -0,0 -0,-0 -0.01,-0.01 -0,-0 -0,-0.01 -0,-0.01 0,-0 -0,-0 -0.01,-0 -0.01,-0 -0.01,-0 -0.01,-0.01 0,-0 -0,-0 -0,-0 -0,-0 -0,-0.01 -0.01,-0.01 -0,-0.01 -0.01,-0.03 -0.03,-0.05 -0.01,-0.01 -0.02,-0.03 -0.02,-0.04 -0.01,-0.01 -0.02,-0.02 -0.02,-0.03 -0.02,-0.02 -0.02,-0.02 -0.02,-0.04 -0,-0.01 0,-0.04 0.01,-0.08 0,-0.01 0,-0.02 0,-0.03 0,-0 0,-0.01 0,-0.01 0,-0 0,-0 0,-0 0,0 0.01,-0 0.01,-0 0,-0 0.01,-0 0.01,0 0,0 0,0 0,0 0,0 0.01,-0.01 0.01,-0.02 0,-0.01 0,-0.01 0.01,-0.01 0.01,-0.01 0.01,-0.01 0.02,-0.01 0.01,-0 0.01,-0 0.02,-0 0.01,-0 0.01,-0 0.02,0 0,0 0.01,0 0.01,0 0,0 0,0 0,0.01 -0,0 -0,0 -0,0 0,0 -0,0 -0,0 -0,0 -0,0.01 -0,0.01 -0,0.02 -0.03,0.08 -0.04,0.09 -0,0 -0,0 -0,0.01 0,0 0,0.01 0,0.01 -0,0 -0,-0 -0,-0 -0,-0 -0.02,-0 -0.02,0 0,0 -0,0 -0,0 -0,0 -0,0 -0,0 0,0 0,0 0.01,0 0.01,-0 0.01,-0 0.01,0 0,0 0,0 0,0 -0,-0 -0,-0 -0,0 -0,0 -0.01,0 -0.01,0 -0.01,0 -0.01,0 -0.01,0.01 -0,0 -0,0.01 -0,0.01 0,0 0,0 0.01,-0 0.02,-0.01 0.03,-0.01 0.03,0 0,0 0,0.01 0.01,0.01 0.02,0.02 0.03,0.03 0.04,0.07 0.01,0.02 0.01,0.03 0.02,0.04 0,0.01 0,0.01 0,0.01 -0,0 -0,0 -0,0.01 0,0 0,0.01 -0,0.01 -0,0 -0,0 0,0 0.01,0 0.01,0 0,0 -0,0 -0,0 0,0 0,-0 0,0 0.01,0l0 0 -0 0c-0,0 -0.01,0.01 -0.02,0.02 -0.01,0.01 -0.01,0.01 -0.02,0.01 -0,-0 -0,-0 -0,-0 -0,-0 -0,-0.01 -0,-0 0,0 -0,0 -0,0 -0,-0 -0,0 -0,0.01 0,0 0,0.01 -0.01,0.01 -0,0 -0.01,0 -0.01,0z"/>
    </clipPath>
    <clipPath id="id1" style="clip-rule:nonzero">
     <path d="M0.12 0.82c-0,-0 -0.01,-0 -0.01,-0 -0,0 -0,0 -0,-0 0,-0 -0,-0 -0,-0.01 -0,-0 -0,-0 0,-0 0,-0 0,-0 0,-0 -0,-0 -0,-0 0,-0.01 0,-0 0.01,-0 0.01,-0 0,0 0,0 0,0 0,-0 0.01,-0 0.01,-0.01 -0,-0 -0,-0 -0,-0 0,-0 -0,-0 -0,-0 -0,0 -0,-0 -0,-0 -0,-0 -0,-0 -0,0 0,0 0,0 -0,0 -0.01,-0 -0.01,-0 -0.02,-0 -0,0 -0,0 -0.01,-0 -0,-0.01 -0.01,-0.01 -0.01,-0.04 -0,-0.01 -0.01,-0.03 -0.01,-0.03 -0,-0 -0.01,-0.01 -0.01,-0.02 -0,-0.01 -0.01,-0.02 -0.01,-0.02 -0,-0 -0,-0.01 -0.01,-0.02 -0,-0.01 -0.01,-0.02 -0.01,-0.03 -0.01,-0.02 -0.01,-0.05 -0.01,-0.06 0,-0.01 0.04,-0.06 0.05,-0.07 0.01,-0.02 0.04,-0.05 0.05,-0.06 0.01,-0.01 0.01,-0.01 0.01,-0.01 0,-0 0,-0 0.01,-0 0,0 0,-0 0.01,-0.01 0,-0.01 0,-0.01 0.01,-0.01 0,-0 0,-0 0,-0 -0,-0 -0,-0 0,-0.01 0,-0 0,-0.01 0.01,-0.01 0,-0 0,-0 0,0 0,0 0,0 0,0 0,-0 0,-0 0,-0 -0,-0 0.01,-0.01 0.01,-0.01 0,0 0,0 0.01,0 0,0 0,0 0,0 0,0 0,0 0.01,0 0,0 0,0 0,-0 -0,-0 -0,-0 -0,-0.01 0,-0 0,-0 0.01,-0 0.01,0 0.01,-0 0.01,-0 -0,-0 -0,-0 -0.01,-0 -0.01,0 -0.01,-0 -0.01,-0 0,-0 0.01,-0 0.01,-0l0.01 -0 -0 0.01c-0,0.01 -0,0.01 0,0.01 0,0 0,-0 0.01,-0 0,-0 0,-0 0.01,-0l0.01 0 -0.01 -0c-0,-0 -0.01,-0 -0.01,-0 0,-0.01 0.04,0.01 0.04,0.01 0,0 -0,0 -0.01,-0 -0,-0 -0,-0 -0,0 0,0 0,0 0.01,0.01 0.01,0.01 0.02,0.01 0.02,0.02 0,0.01 0,0.01 -0,0.01 -0,-0 -0,0 0,0.01 0,0 0.01,0.01 0.01,0 0,-0 0,-0.01 0,-0.01 -0,-0.01 0,-0.01 0,-0.01 0,-0 0,-0 0,-0 0,0 0,0.01 0,0.02 0,0.01 0,0.01 -0,0.01 -0,0 -0,0 -0,0.01 -0,0 0,0.01 0,0 0,-0 0,-0 0,-0 0.01,0 -0,0.03 -0.02,0.05 -0.01,0.01 -0.01,0.01 -0,-0.01 0,-0.01 0.01,-0.01 0.01,-0.02 0,-0.01 0,-0.02 0,-0.02 -0,0 -0.01,0.01 -0,0.01 0,0 -0,0 -0,0 -0,0 -0,0 -0,0 -0,0 -0,0.01 -0.01,0.01 -0.01,0.01 -0.01,0.01 -0.01,0.02 0,0 0,0 0,0 0,0 0,0 -0,0.01 -0,0 -0,0 -0.01,-0 -0,-0 -0,-0 -0,-0l-0.01 -0 0 -0c0,-0 0,-0 0,-0 -0,-0 0,-0.01 0.01,-0.01 0.01,-0.01 0.02,-0.03 0.02,-0.03 -0,-0 -0.01,0 -0.01,0.01 -0.01,0.02 -0.03,0.03 -0.06,0.04 -0.01,0 -0.02,0 -0.02,0.01 0,0.01 -0.01,0.01 -0.02,0.02 -0.03,0.02 -0.06,0.04 -0.07,0.04 -0,0 -0.01,0 -0.01,0.01 -0,0.01 -0,0.01 -0.01,0 -0.01,-0.01 -0.02,-0.01 -0.04,-0.01 -0.01,-0 -0.02,-0 -0.02,-0 -0,-0 -0.01,0 -0.01,0.01 0,0 0,0 0,0 0,-0 0,-0 0.01,0 0,0 0.01,0 0.02,0.01 0.02,0 0.02,0 0.01,0 -0.01,-0 -0.01,-0 -0.02,-0 -0.01,-0 -0.01,0 0,0l0 0 -0.01 0c-0,0 -0.01,0 -0.01,-0 -0,-0 -0,-0 -0,-0.01 0,-0 -0,-0 -0,0 -0,0 0,0 0,0.01 0,0 0,0 0,0 0,0 0,0 0,-0l0 -0 0 0c0,0 0,0 0,0 0,-0 0.02,-0 0.03,-0 0.01,-0 0.01,0 0.02,0.01 0.01,0 0.01,0.01 0.01,0.01 -0,0 0,0.01 0,0.01 0.01,0.02 0.02,0.04 0.02,0.06 0.01,0.04 0.01,0.05 0.01,0.06 0.01,0.01 0.01,0.02 0,0.02 -0,0 -0.01,0.01 -0.01,0.01 0,0 0.01,0.01 0.01,0.01 0,-0 0,0 0.01,0 0,0 0,0 0,0.01 -0,0 0,0.01 0,0.01 0,0 0,0 -0,0.01 -0,0 -0,0 -0,0 -0,0 -0.01,0 -0.01,0.01 -0.02,0.01 -0.03,0.01 -0.03,0.01 0,-0 -0,-0 -0,-0 -0,0 -0.01,0.01 -0.01,0.01 -0,-0 -0,-0 -0.01,-0z"/>
    </clipPath>
 </defs>
 <g id="Camada_x0020_1">
  <metadata id="CorelCorpID_0Corel-Layer"/>
  <g id="_1764840835728">
   <path class="fil0" d="M0.06 0.31c0.01,0.01 0.03,0.03 0.03,0.03 0,0 0,0 0,0 0,0 0.02,-0.01 0.02,-0.01 0,-0.01 0.03,-0.06 0.03,-0.07 0,-0 -0,-0 -0.01,-0 -0,-0 -0.02,-0.01 -0.02,-0.01 -0.01,-0 -0.02,-0.01 -0.02,-0.01 -0,0 -0.02,0.04 -0.02,0.04 -0,0 -0,-0 0,-0.01l0 -0.01c-0.02,-0.02 -0.02,-0.02 -0.03,-0.05l0 -0.01c0.01,-0.02 -0.01,-0.06 -0.01,-0.04 0,0 0,0.01 0,0.01 0,0.01 -0.01,-0 -0.01,-0.02 -0.01,-0.01 -0.01,-0.02 -0.01,-0.02 -0,0 -0,0.01 0,0.02 0,0.01 0,0.01 0,0.01 -0,0 -0.01,-0.02 -0.01,-0.02 0,-0 -0,-0 -0.01,0 -0,0 -0,0.01 0,0.01 0.01,0.03 -0,-0 -0,-0.01 -0,-0 -0,-0 -0,0 -0,0.01 -0.01,0 -0,0.02 0,0.01 0,0.02 0,0.02 -0,-0 -0,-0 -0,-0.01 -0,-0.01 -0,-0.01 -0,-0.01 -0,0 -0,0.01 0,0.03 0.01,0.02 0.01,0.03 0.02,0.03 0.01,0.01 0.03,0.06 0.04,0.08z"/>
   <path class="fil0" d="M0.15 0.29c-0,0 -0.02,0.03 -0.02,0.04 0,0 0,0 0.01,0.01 0,0 0.01,0.01 0.01,0.01 0,-0 0.01,-0 0.01,-0 0,0 0,0 0,-0 0.01,-0.01 0.01,-0.01 0.01,-0.01 -0,-0 -0,-0.01 -0.01,-0.02 0,0 0,-0 -0,-0l-0.01 -0.01z"/>
   <path class="fil1" d="M0.28 0.18c-0,-0.01 -0,-0.01 -0.01,-0.02 0,0 -0,-0 -0,-0 -0,-0 -0,-0 -0,-0 -0.01,-0.01 -0.02,-0.03 -0.03,-0.04 -0,-0 -0,-0 -0,-0 -0,-0 -0.01,-0 -0.01,-0.01 -0.01,-0 -0.01,-0 -0.02,-0.01 -0.02,-0 -0.03,-0 -0.04,0 -0.01,0 -0.01,0 -0.01,0 -0,0 -0.01,0 -0.02,0.01 -0,0 -0,0 -0,0 -0,0 -0.01,0 -0.01,0.01 0,0 -0,0 -0,0 -0,0 -0.01,0.01 -0.01,0.01 -0.01,0.01 -0.01,0.02 -0.01,0.03 -0,0.01 -0,0.01 -0,0.02 0,0 0,0 -0,0 -0,0 -0,0.01 -0,0.01 -0,0.01 -0,0.01 -0.01,0.02 -0,0.01 -0,0.01 -0,0.01 0,0 0.01,0 0.02,0.01 0.01,0 0.02,0.01 0.02,0.01 0,0 0.02,0.01 0.02,0.01 0,0 0,0 0.01,-0.01 0,-0.01 0.01,-0.02 0.01,-0.02 0,-0 0,-0 0,-0 0,0 0,0.01 -0,0.01 -0,0 -0,0 -0,0 -0,0.01 -0.01,0.01 -0.01,0.02 -0,0.01 -0,0.01 -0.01,0.01 -0,0 -0,0 -0,0 0,0 -0,0 -0,0 -0,0 -0,0 -0,0.01l-0 0c-0,0 -0,0.01 -0,0.01l0.01 0.02c0.01,0.02 0.02,0.04 0.02,0.05 0,0 0,0.01 0,0.01 0,0 0,0 0,0.01 -0,0.01 0,0.01 0.01,0.01 0,-0.01 0,-0 -0,0.01 -0,0 -0,0.01 -0,0.01 -0,0 -0,0.01 -0,0.01 0,0 0,0 0,0 0,-0.01 0.01,-0.01 0.01,-0.01 0,-0 0.01,-0 0.01,-0.01 0,-0 0.01,-0 0.01,-0 0,-0 0.01,-0 0.02,-0 -0.01,0 -0.02,0 -0.01,-0 0,-0 0.01,-0.01 0.03,-0.01 0.02,0 0.02,0 0.04,0.01 0.02,0.01 0.03,0.01 0.03,0.01 0,0 -0.01,0 -0.01,0 -0,-0 -0.01,-0 -0.02,-0.01 -0.01,-0 -0.01,-0 -0.02,-0.01 0,0 0.01,0 0.01,0 0.02,0.01 0.05,0.02 0.06,0.03 0,0 0.01,0.01 0.01,0.01 0,0 -0.01,-0.03 -0.01,-0.04 -0,-0 -0,-0.01 -0,-0.01 -0,-0 -0,-0 -0,-0.01 0,0 0,0 0,0 -0,-0 -0,-0 -0,-0 -0,-0 -0,-0 -0,-0.01 -0,-0 -0,-0 -0,-0 -0,-0 -0,-0.01 -0,-0.01 -0,-0 -0,-0 -0,-0.01 0,-0 0,-0 0,-0 -0,-0 -0,-0 -0,-0.01 -0,-0 -0,-0.01 -0,-0.01 -0,-0 -0,-0 -0,-0 -0,-0 -0,-0 -0,-0.01 -0,-0 -0,-0 -0,-0.01 0,-0 -0,-0 -0,-0 -0,-0 -0,-0.01 -0,-0.01 -0,-0 -0,-0.02 -0.01,-0.03 -0,-0.01 -0.01,-0.03 -0.01,-0.05 -0,-0.01 -0.01,-0.02 -0.01,-0.03zm-0.07 0.1c0,-0 0.02,0 0.02,0 0,0 -0,0 -0.01,0 -0.01,-0 -0.01,-0 -0.01,-0.01zm0.05 -0.11c0,0 0,0 0,0 0,-0 -0,-0 -0,-0.01 -0,-0 -0,-0 -0,0z"/>
   <path class="fil2" d="M0.08 0.1c-0,0 -0,0 -0,0l0 0c0,-0 0,-0 0,0 0,0 0,0 -0,0 0,0 0,0 0,0 0,0 -0,0 -0,0 -0,0 -0,0 -0,0 0,-0 0,-0 0,-0 -0,0 -0,0 -0,0l0 0 0 0c-0,0 0,0 0,0.01 0,0.01 0,0.02 0.01,0.02 0,0 0,-0 0,-0 0,-0 0,-0 0.01,0 0,0 0.01,0 0.01,0 0,-0 0,-0 0,-0 0,0 0,0 0,0 -0,0 -0,0 0,0.01 0,0 0.01,0.01 0.01,0.01 0,0 0,0 0.01,-0.01 0.01,-0.01 0.02,-0.02 0.03,-0.03 0.01,-0 0.01,-0.01 0.02,-0.01 0.01,-0 0.02,-0.01 0.02,-0.01 0,0 -0,0 -0.01,0.01 -0.04,0.02 -0.05,0.02 -0.05,0.03 -0.01,0.01 -0.01,0.02 -0.02,0.05 -0,0.01 -0,0.02 -0.01,0.03 -0,0.01 -0,0.01 -0,0.01 0,0 0.01,0 0.02,0.01 0.01,0 0.02,0.01 0.02,0.01 0,0 0.02,0.01 0.02,0.01 0,0 0,0 0.01,-0.01 0,-0.02 0.01,-0.03 0.01,-0.03 0,0 -0,0.01 -0,0.01 -0,0.01 -0.01,0.01 -0.01,0.02 -0,0.01 -0,0.01 -0.01,0.01 -0,0 -0,0 -0,0 0,0 -0,0.01 -0,0.01l-0 0.01 0.01 0.02c0.01,0.02 0.02,0.04 0.02,0.05 0,0 0,0.01 0,0.01 0,0 0,0 0,0.01 -0,0.01 0,0.01 0.01,0.01 0,-0.01 0,-0 -0,0.01 -0,0 -0,0.01 -0,0.01l0 0.01 0 -0.01c0.01,-0.01 0.01,-0.01 0.02,-0.01 0,-0 0.01,-0 0.01,-0 0,-0 0.02,-0.01 0.03,-0.01 0,-0 0.01,-0 0.02,0 0.02,0 0.06,0.02 0.08,0.03 0,0 0.01,0.01 0.01,0.01 0,0 -0.01,-0.03 -0.01,-0.04 -0,-0 -0,-0.01 -0,-0.01 0,-0 -0,-0.01 -0,-0.01 -0,-0 -0,-0.01 -0,-0.01 -0,-0 -0,-0.01 -0,-0.01 -0,-0 -0,-0.01 -0,-0.01 -0,-0 -0,-0.01 -0,-0.01 -0,-0 -0,-0.02 -0.01,-0.03 -0,-0.01 -0.01,-0.03 -0.01,-0.05 -0.01,-0.04 -0.02,-0.05 -0.03,-0.07 -0.01,-0.01 -0.02,-0.02 -0.04,-0.03 -0.01,-0.01 -0.02,-0.01 -0.02,-0.01 -0,0 -0.01,-0 -0.01,-0 0,-0 -0,-0 -0.01,-0.01 -0.01,-0.01 -0.01,-0.01 -0.01,-0.01 -0,0 -0.01,0 -0.01,0 -0,0 -0.02,-0 -0.02,-0.01 -0,-0 -0.01,-0.01 -0.01,-0.01 -0,0 -0,-0 -0.01,-0 -0.01,-0.01 -0.01,-0.01 -0.01,-0 -0,0 -0,0 -0,0.01 0,0 0,0 -0,0 -0,0 -0,0 -0,0.01 0,0.01 0,0.01 -0,0.01 -0,0 -0,-0 -0.01,-0 -0,-0 -0.01,-0.01 -0.01,-0.01 -0.01,-0 -0.01,-0 -0.01,-0.01 0,-0 -0.01,-0.01 -0.01,-0.01 -0,0 -0.01,0.01 -0.01,0.01 0,0 0.01,0.02 0.01,0.02 0,0 0,-0 0,-0 0,-0 0,-0 0,-0 0,0 0,0 0,0l-0 0 -0 0 0 0 0 0 -0 0c-0,0 -0,0 -0,0.01 -0,0 0,0 0,0l-0 -0c0,-0 0,-0 0,-0l0 -0c0,-0 0,-0 0,-0zm-0 -0c0,-0 0,-0 0,-0 -0,0 -0,0 -0,0zm0.22 0.91c-0.01,0 -0.02,0 -0.02,-0.01 -0,-0.01 -0,-0.01 0.01,-0.03 0,-0.01 0.01,-0.02 0.01,-0.02 0,-0.01 0.01,-0.03 0.01,-0.04 0,-0 -0,-0 -0,0 -0,0.01 -0,0.01 -0,-0 -0,-0.01 0,-0.01 0,-0.02 0,-0 0,-0 -0,-0.01 -0,-0 -0,-0.01 -0,-0.01 0,-0 -0,-0 -0,-0.01 -0,-0 -0,-0.01 -0,-0.01 0,-0.01 0,-0.01 -0,-0.01 -0.01,-0 -0.01,-0.01 -0.02,-0.02 -0.01,-0.02 -0.01,-0.03 -0.02,-0.04 -0.01,-0.01 -0.02,-0.03 -0.03,-0.05 -0,-0.01 -0.01,-0.02 -0.02,-0.02 -0.03,-0.03 -0.03,-0.04 -0.03,-0.08 0,-0.01 0,-0.03 0,-0.03 0,-0.01 0,-0.02 0,-0.03 0,-0.01 0,-0.02 0,-0.02 -0,-0 -0,0 -0.01,0 -0,0 -0.01,0.01 -0.02,0.01 -0.01,0.01 -0.01,0.01 -0.01,0.01 0,0 -0,0.01 -0.01,0.01 -0.01,0.01 -0.01,0.01 -0,0.01 0,0 0,0 0,0.01 0,0 0,0.01 0.01,0.02 0.01,0.02 0.02,0.04 0.02,0.07 0,0.03 0.01,0.04 0.01,0.05 0.01,0.01 0.01,0.01 0,0.02 -0,0.01 -0,0.01 0,0.01 0,0 0,0 0,0.01 0,0 0,0.01 0,0.01 0,0 0,0.01 0,0.01 0,0 0,0.01 0.01,0.01 0,0 0.01,0.01 0.01,0.01 0,0 0.01,0.01 0.01,0.01 0.01,0.01 0.01,0.01 0,0.02 -0,0.01 -0.03,0.02 -0.05,0.03 -0.01,0 -0.01,0.01 -0.02,0.01 -0.02,0.02 -0.04,0.03 -0.06,0.03 -0.02,0 -0.03,0 -0.03,-0.01 -0,-0.01 -0,-0.02 0.01,-0.02 0.02,-0.02 0.03,-0.02 0.03,-0.04 0.01,-0.02 0.01,-0.03 0.01,-0.03 -0,0 -0.01,0.01 -0.01,0.01 0,0 -0,0 -0,0 -0,-0 0,-0.01 0.01,-0.02 0.01,-0.01 0.01,-0.01 0,-0.02 -0,-0 -0,-0.01 -0,-0.02 -0,-0.01 -0,-0.01 -0,-0.01 -0,-0 -0.01,-0.01 -0.01,-0.02 -0,-0.02 -0.01,-0.05 -0.02,-0.08 -0.01,-0.02 -0.01,-0.03 -0.01,-0.04 -0,-0 -0.01,-0.01 -0.01,-0.02 -0.01,-0.02 -0.01,-0.03 -0.01,-0.04 0,-0.02 0,-0.02 0.02,-0.05 0.02,-0.03 0.03,-0.05 0.05,-0.07 0.01,-0.02 0.02,-0.03 0.06,-0.06 0.01,-0.01 0.01,-0.01 0.01,-0.01 -0,-0 0,-0.01 0,-0.01 0,-0.01 0,-0.01 0,-0.01 -0,-0 -0,-0.01 -0,-0.01 0,-0 -0,-0.01 -0,-0.01 -0,-0 -0,-0.01 -0,-0.01 0,-0 -0,-0.02 -0.01,-0.02 -0,0 -0,0 -0.01,0.01 -0.01,0.01 -0.02,0.01 -0.02,0 -0,-0 -0.01,-0.01 -0.01,-0.01 -0,0 -0.01,0.01 -0.01,0.01 -0,0 -0.01,0.01 -0.01,0.01 -0.01,0 -0.01,0 -0.01,0 -0.01,-0 -0.03,-0.03 -0.03,-0.04 -0,-0 -0.01,-0.02 -0.01,-0.03 -0.01,-0.03 -0.02,-0.04 -0.02,-0.05 -0.01,-0.01 -0.01,-0.01 -0.02,-0.04 -0.01,-0.02 -0.01,-0.02 -0,-0.03 0,-0 0,-0 0,-0.01 0,-0 0,-0.01 0,-0.01 0,-0 0,-0 0,-0 0,-0 0,-0 0,-0.01 0,-0 0.01,-0 0.01,-0 0,0 0,0 0,0 0,-0 0,-0 0.01,0 0,0 0,0 0.01,0.02 0.01,0.01 0.01,0.01 0.01,0.01 0,-0 0,-0 0.01,-0 0,0 0,0 0.01,0.01 0,0.01 0.01,0.03 0,0.04l-0 0.01 0.01 0.01c0,0.01 0.01,0.01 0.01,0.02l0.01 0.01 0 -0.01c0,-0 0,-0.01 0,-0.02 0,-0 0,-0.02 0.01,-0.02 0,-0.01 0.01,-0.02 0.01,-0.02 0,-0 0,-0.01 0,-0.02 0,-0.01 0,-0.01 0,-0.01 -0,-0 -0,-0 -0,-0 -0,-0 -0,-0.01 -0.01,-0.01 -0,-0 -0.01,-0.01 -0.01,-0.01 -0,-0 -0,-0 -0,-0 -0.01,0 -0.01,-0 -0.01,-0.01 -0,-0.01 -0,-0.01 -0,-0.02 -0,-0 -0,-0.01 -0.01,-0.01 -0,-0 -0,-0.01 -0,-0.01 -0.01,0 -0.02,-0.02 -0.01,-0.03 0,-0 0,-0.01 0,-0.01 -0,-0 0,-0 0,-0.01 0,-0 0,-0 0,-0.01 0,-0 0.02,-0.03 0.03,-0.03 0.02,-0.01 0.04,-0.02 0.05,-0.01 0.03,0.01 0.04,0.02 0.05,0.06 0,0.01 0,0.02 0,0.02 0,0 0,0.01 0,0.01 0,0.01 0.01,0.02 0.02,0.02 0,0 0.01,0 0.01,0.01 0,0 0.01,0.01 0.02,0.01 0.01,0 0.01,0.01 0.02,0.02 0.01,0.01 0.01,0.02 0.02,0.03 0.01,0.02 0.02,0.04 0.02,0.09 0.01,0.04 0.01,0.05 0.02,0.06 0,0 0,0.01 0,0.01 0,0 0,0.01 0,0.01 0,0 0,0.01 0,0.01 0,0 0,0.01 0,0.01 0,0 0.01,0.04 0.01,0.05 0,0 0,0.02 0,0.03 0,0.02 -0,0.03 -0,0.04 -0.01,0.02 -0.01,0.03 -0.02,0.05 -0.01,0.01 -0.01,0.01 -0.01,0.02 0,0 -0,0 -0,0.01 -0,0 -0,0.01 -0.01,0.01 -0.01,0.03 -0.02,0.06 -0.04,0.08 -0.01,0.01 -0.01,0.01 -0.01,0.02 0,0.01 0,0.01 -0,0.01 -0,0 -0,0.01 0,0.01 0,0 0.01,0.01 0.01,0.01 0,0 0,0.01 0.01,0.01 0.02,0.02 0.03,0.04 0.04,0.07 0.01,0.02 0.01,0.03 0.02,0.04 0.01,0.01 0.01,0.01 0.01,0.02 0,0.01 0,0.01 0.01,0.02 0,0 0.01,0.01 0.01,0.01 0,0 0,0 0,0 0,0 0.01,0 0.01,0.01 0,0 0.01,0.01 0.02,0.01 0.01,0.01 0.01,0.01 0.01,0.02 -0,0.01 -0.01,0.03 -0.03,0.04 -0.01,0.01 -0.01,0.01 -0.02,0.03 -0.01,0.01 -0.01,0.02 -0.02,0.03 -0.01,0.01 -0.03,0.03 -0.04,0.03zm-0.18 -0.18c0,0 0.01,0 0.01,0 0,0 0.01,-0 0.01,-0.01 0,-0 0,-0 0,0 0,0 0.01,0 0.03,-0.01 0,-0 0.01,-0.01 0.01,-0.01 0,0 0,-0 0,-0 0,-0 0,-0 0,-0.01 -0,-0 -0,-0.01 -0,-0.01 0,-0 -0,-0.01 -0,-0.01 -0,-0 -0,-0 -0.01,-0 -0,0 -0.01,-0 -0.01,-0.01 0,-0 0.01,-0.01 0.01,-0.01 0,0 0,-0.01 -0,-0.02 -0.01,-0.01 -0.01,-0.02 -0.01,-0.06 -0,-0.02 -0.01,-0.04 -0.02,-0.06 -0,-0.01 -0.01,-0.01 -0,-0.01 0,-0 -0,-0 -0.01,-0.01 -0.01,-0 -0.01,-0.01 -0.02,-0.01 -0.01,0 -0.02,0 -0.03,0 -0,0 -0,-0 -0,-0l-0 -0 -0 0c-0,0 -0,0 -0,0 -0,-0 -0,-0 -0,-0 -0,-0 -0,-0 -0,-0.01 0,-0 0,-0 0,-0 0,0 0,0 0,0.01 0,0 0.01,0 0.01,0l0.01 -0 -0 -0c-0.01,-0 -0.01,-0.01 -0,-0 0,0 0.01,0 0.02,0 0.01,0 0.01,-0 -0.01,-0 -0.01,-0 -0.01,-0 -0.02,-0.01 -0,-0 -0.01,-0 -0.01,-0 -0,0 -0,0 -0,-0 -0,-0 0,-0.01 0.01,-0.01 0,0 0.01,0 0.02,0 0.02,0 0.02,0 0.04,0.01 0.01,0 0.01,0 0.01,-0 0,-0.01 0,-0.01 0.01,-0.01 0.01,0 0.03,-0.02 0.07,-0.04 0.02,-0.01 0.02,-0.02 0.02,-0.02 0,-0 0,-0 0.02,-0.01 0.04,-0.01 0.05,-0.02 0.06,-0.04 0.01,-0.01 0.01,-0.01 0.01,-0.01 0,0 -0.01,0.02 -0.02,0.03 -0.01,0.01 -0.01,0.01 -0.01,0.01 0,0 0,0 -0,0l-0 0 0.01 0c0,0 0,0 0,0 0.01,0 0.01,0 0.01,0 0,-0 0,-0 0,-0.01 0,-0 0,-0 0,-0 0,-0.01 0,-0.01 0.01,-0.02 0,-0 0.01,-0.01 0.01,-0.01 0,-0 0,-0 0,-0 0,0 0,-0 0,-0 -0,-0 0,-0.01 0,-0.01 0,0 -0,0.01 -0,0.02 -0,0 -0,0.01 -0.01,0.02 -0.01,0.01 -0.01,0.02 0,0.01 0.01,-0.02 0.02,-0.05 0.02,-0.05 -0,-0 -0,-0 -0,0 -0,0 -0,0 -0,-0 0,-0.01 0,-0.01 0,-0.01 0,-0 0,-0 0,-0.01 -0,-0.01 -0,-0.02 -0,-0.02 -0,0 -0,0 -0,0 -0,0 -0,0.01 -0,0.01 0,0 -0,0.01 -0,0.01 -0,0 -0.01,0 -0.01,-0 -0,-0 -0,-0.01 -0,-0.01 0,0 0,-0.01 0,-0.01 -0,-0.01 -0.01,-0.01 -0.02,-0.02 -0.01,-0 -0.01,-0.01 -0.01,-0.01 0,-0 0,-0 0,-0 0.01,0 0.01,0 0.01,0 -0,-0.01 -0.04,-0.02 -0.04,-0.01 0,0 0,0 0.01,0l0.01 0 -0.01 -0c-0.01,-0 -0.01,-0 -0.01,0 -0,0 -0,0 -0.01,0 -0,0 -0,-0 -0,-0.01l0 -0.01 -0.01 0c-0,0 -0.01,0 -0.01,0 -0,0 0,0 0.01,0 0,-0 0.01,0 0.01,0 0,0 -0,0 -0.01,0 -0.01,0 -0.01,0 -0.01,0 -0,0 -0,0 0,0.01 0,0 0,0 -0,0 -0,-0 -0,-0 -0.01,-0 -0,-0 -0,-0 -0,-0 -0,0 -0,-0 -0.01,-0 -0,-0 -0.01,0 -0.01,0.01 0,0 0,0 -0,0 -0,0 -0,0 -0,-0 -0,-0 -0,-0 -0,0 -0,0 -0,0.01 -0.01,0.01 -0,0.01 -0.01,0.01 -0,0.01 0,0 -0,0 -0,0 -0,0 -0.01,0 -0.01,0.01 -0,0 -0,0.01 -0.01,0.01 -0,0 -0,0 -0.01,0 -0,0 -0.01,0.01 -0.01,0.01 -0.01,0.01 -0.04,0.04 -0.05,0.06 -0.01,0.02 -0.04,0.06 -0.05,0.07 -0.01,0.01 -0,0.04 0.01,0.06 0,0.01 0.01,0.02 0.01,0.03 0,0.01 0.01,0.02 0.01,0.02 0,0 0,0.01 0.01,0.02 0,0.01 0.01,0.02 0.01,0.02 0,0 0,0.02 0.01,0.03 0.01,0.03 0.01,0.03 0.01,0.04 0,0 0,0 0.01,0 0,-0 0.01,-0 0.02,0 0,0 0,0 0,-0 -0,-0 -0,-0 0,-0 0,0 0,0 0,0 0,0 0,0 0,0 -0,0 0,0 0,0 0,0 -0,0.01 -0.01,0.01 -0,0 -0,-0 -0,-0 -0,-0 -0.01,-0 -0.01,0 -0,0 -0,0.01 -0,0.01 0,0 0,0 -0,0 -0,0 -0,0 -0,0 0,0 0,0 0,0.01 -0,0 0,0 0,0 0,-0 0.01,-0 0.01,0zm0.17 0.06c0,0 0,0 0.01,-0 0.01,-0 0.01,-0 0.01,-0.01 -0,-0.01 -0,-0.01 0,-0.01 0,0 0,0 0,-0 0,-0 0,-0 0,0 0,0 0,0 0,0 0,0 0.01,-0.01 0.02,-0.01 0.01,-0.01 0.02,-0.01 0.02,-0.02l0 -0 -0 -0c-0,-0 -0,-0 -0.01,-0 -0,0 -0,0 -0,-0 0,-0 0,-0 -0,-0 -0,-0 -0,-0 -0,-0 0,-0 0,-0 0,-0.01 -0,-0 -0,-0.01 0,-0.01 0,-0 0,-0 -0,-0.01 -0.01,-0.02 -0.02,-0.03 -0.02,-0.04 -0.02,-0.04 -0.03,-0.05 -0.04,-0.07 -0.01,-0.01 -0.01,-0.01 -0.01,-0.01 0,-0.01 -0.02,-0.01 -0.03,-0 -0.01,0 -0.01,0 -0.01,0 -0,-0 -0,-0 0,-0.01 0,-0 0.01,-0 0.01,-0.01 0,0 0.01,-0 0.01,-0 0,-0 0,-0 0,-0 0,0 0,-0 -0,-0 -0,-0 -0,-0 -0.01,-0 -0.01,0 -0.01,0 -0.01,-0 -0,-0 -0,-0 0,-0 0,0 0,-0 0,-0 -0,-0 0.02,-0 0.02,-0 0,0 0,0 0,0 0,0 0,-0 -0,-0.01 -0,-0.01 -0,-0.01 0,-0.01 0.01,-0.01 0.04,-0.07 0.04,-0.09 0,-0 0,-0.01 0,-0.01 0,-0 0,-0 0,-0 -0,-0 0,-0 0,-0 0,-0 0,-0.01 -0,-0.01 -0,-0 -0.01,-0 -0.01,-0 -0.01,-0 -0.01,-0 -0.02,-0 -0,0 -0.01,0 -0.02,0 -0.01,0 -0.01,0 -0.02,0.01 -0.01,0 -0.01,0.01 -0.01,0.01 -0,0.01 -0.01,0.02 -0.01,0.02 -0,0 -0,-0 -0,-0 -0,-0 -0,-0 -0.01,-0 -0,0 -0.01,0 -0.01,0 -0,-0 -0,-0 -0,0 -0,0 -0,0 -0,0.01 -0,0 -0,0.01 -0,0.03 -0.01,0.04 -0.01,0.07 -0.01,0.08 0,0.01 0.01,0.02 0.02,0.04 0.01,0.01 0.02,0.02 0.02,0.03 0.01,0.01 0.02,0.03 0.02,0.04 0.01,0.02 0.02,0.03 0.03,0.05 0,0.01 0,0.01 0.01,0.01 0,0 0,0 0,0 0,0 0.01,0.01 0.01,0.01 0,0 0.01,0 0.01,0 -0,0 0,0 0,0.01 0,0 0,0.01 0.01,0.01 0,0 0,0 0,0 -0,0 -0,0.01 0,0.01zm-0.2 -0.54c0,0 0,0 0,0 0,0 0.02,-0.01 0.02,-0.01 0,-0.01 0.03,-0.06 0.03,-0.07 0,-0 -0,-0 -0.01,-0 -0,-0 -0.02,-0.01 -0.02,-0.01 -0.01,-0 -0.02,-0.01 -0.02,-0.01 -0,0 -0.01,0.01 -0.01,0.02 -0,0.01 -0.01,0.02 -0.01,0.02 -0,0 -0,-0 0,-0.01l0 -0.01 -0.01 -0.01c-0.01,-0.01 -0.01,-0.01 -0.02,-0.02l-0.01 -0.01 0 -0.01c0,-0.01 0,-0.02 0,-0.04 -0,-0.01 -0.01,-0.02 -0.01,-0.01 0,0 0,0.01 0,0.01 0,0.01 -0.01,-0 -0.01,-0.02 -0.01,-0.01 -0.01,-0.02 -0.01,-0.02 -0,0 -0,0.01 0,0.02 0,0.01 0,0.01 0,0.01 -0,0 -0.01,-0.02 -0.01,-0.02 0,-0 -0,-0 -0.01,0 -0,0 -0,0.01 0,0.01 0,0.02 0,0.02 -0,0.01 -0,-0.01 -0,-0.01 -0,-0.01 -0,-0 -0,-0 -0,0 -0,0 -0,0 -0,0 -0,0 -0,0 0,0.01 0,0.01 0,0.02 0,0.02 -0,-0 -0,-0 -0,-0.01 -0,-0.01 -0,-0.01 -0,-0.01 -0,0 -0,0.01 0,0.03 0.01,0.02 0.01,0.03 0.02,0.03 0.01,0 0.01,0.02 0.03,0.05 0,0.01 0.01,0.02 0.01,0.03 0.01,0.01 0.03,0.03 0.03,0.03zm0.19 0.66c0,0 0,0 0,0 0,0 0.01,-0 0.01,-0.01 0.02,-0.01 0.04,-0.04 0.05,-0.05 0.02,-0.03 0.05,-0.07 0.05,-0.08 0,-0 0,-0 0,-0.01 -0,-0 -0,-0 -0.01,-0 -0,0 -0.01,0.01 -0.02,0.02 -0,0 -0.01,0.01 -0.01,0.02 -0.01,0.01 -0.02,0.03 -0.02,0.04 -0.01,0.02 -0.03,0.04 -0.05,0.06 -0.01,0.01 -0.01,0.01 -0.01,0.01zm-0.22 -0.07c0,0 0,0 0,0 0,0 0.02,-0.01 0.04,-0.01 0.02,-0.01 0.02,-0.01 0.07,-0.04 0.04,-0.03 0.04,-0.03 0.03,-0.03 -0,-0 -0,-0 -0.01,-0 -0,0 -0.03,0.02 -0.06,0.04 -0.01,0.01 -0.02,0.02 -0.03,0.02 -0,0 -0.01,0 -0.01,0 0,0 -0,0 -0,0 -0,0 -0.01,0 -0.01,0.01 -0,0 -0.01,0.01 -0.02,0.01 -0.01,0 -0.01,0 -0.01,0 -0,0 0,0 0,0zm0.07 -0.6c0.01,0.01 0.01,0.01 0.02,0 0.01,-0.01 0.01,-0.01 0.01,-0.01 -0,-0.01 -0.01,-0.03 -0.01,-0.03 -0,0 -0.02,0.03 -0.02,0.04 0,0 0,0 0.01,0.01zm0.18 0.55c-0,0 -0,0 0,0 0.01,-0 0.02,-0.01 0.02,-0.01 0,-0 0,-0.01 0,-0.01 -0,-0 -0,0 -0.01,0 -0.01,0 -0.01,0.01 -0.02,0.02zm0.04 -0c0,0 0.01,-0 0.01,-0.01 -0,-0 -0,-0 -0.01,-0 -0.01,0 -0.01,0.01 -0.01,0.01zm-0.08 -0.39c-0.01,0.01 -0.01,0.01 -0.01,0 0,-0 0.01,-0.01 0.01,-0.01 0,-0 0,-0 0.01,-0 0,-0 0,-0 0,-0 -0,0 -0,0.01 -0.01,0.01zm-0.08 0.19c0,0 0,0 0,0 -0,0 -0,-0 -0,-0 -0,-0 -0,-0 -0,-0 -0,0 -0.01,-0.01 -0.01,-0.01 0,-0 0.01,-0 0.01,0 0,0 0,0 -0,0 -0,0 -0,0 -0,0zm-0.06 0.15c0,0 0,0 0,0 0,-0 0,-0 0.01,-0 0,0 0.01,-0.01 0.01,-0.01 -0,-0 -0.02,0.01 -0.02,0.01zm-0.05 -0.24c0,0 0.01,0 0.01,0 0,0 0,-0 -0,-0 -0,-0 -0.01,-0 -0.01,-0 -0.01,-0 -0.01,-0 -0,0 0,0 0.01,0 0.01,0zm0.22 -0.16c0,0 -0,0.01 -0,0 -0,-0 -0,-0 -0,-0 0,-0 0,-0 -0.01,-0.01 -0,-0 -0.01,-0 -0.01,-0 0,-0 0,0 0.01,0 0.01,0 0.01,0 0.01,0.01zm-0.22 0.46c0,0 0,0 0.01,-0 0,-0 0.01,-0.01 0,-0.01 -0,0 -0.01,0 -0.01,0.01zm0.12 -0.31c-0,0 -0,0 -0,-0.01 0,-0.01 0,-0.01 0,-0 0,0 0,0.01 -0,0.01zm0 0.12c0,0 0,0 -0,0 -0,-0 -0.01,-0.01 -0.01,-0.01 0,-0 0,0 0,0 0,0 0,0 0,0 -0,-0 -0,-0 0,-0 0,0 0,0 0,0 -0,0 -0,0 0,0.01zm0.08 0.15c0,0 -0,0 -0,0 -0.01,0 -0,-0.01 0,-0.01 0,-0 0,0 0,0zm0.04 -0.03c-0,0.01 -0.01,0.01 -0.01,0 0,-0 0.01,-0.01 0.01,-0.01 0,0 0,0 -0,0.01zm-0.01 -0.38c-0,0 -0,0 -0,0 -0,-0 0,-0.01 0,-0.01 0,-0 0,0 0,0.01zm-0.13 -0.02c0,0 0,0 -0,0 -0,0 -0,0 -0,-0 -0,-0 -0,-0 0,-0 0,0 0,0 0,0zm-0.01 0.41c-0,0 0,0 0.01,0 0,-0 0,-0 -0,-0 -0,0 -0,0 -0,0 0,0 -0,0 -0,0zm-0.01 -0.38c-0,0 -0,0 -0,0 -0,-0 -0,-0 -0,-0 -0,-0 -0,-0 0,-0.01 0,-0 0,-0 0,0 -0,0 -0,0 0,0 0,-0 0,-0 -0,0zm-0.04 0.4c0,0 0,0 0,0 0,-0 0.01,-0.01 0,-0.01 -0,0 -0.01,0 -0.01,0.01zm0.12 -0.48c-0,0 0,0 0,0 0,-0 0,-0.01 0,-0.01 -0,0 -0,0 -0,0 -0,0 -0,0 -0,0.01zm0.08 0.03c0,0 0,0.01 0,0.01 0,0 0,-0 0,-0 -0,-0 -0,-0 -0,-0.01 0,-0 -0,-0 -0,-0 -0,0 -0,0 -0,0.01zm-0.02 -0.01c0,0 0,0 0,0 0,-0 -0,-0.01 -0,-0 -0,0 -0,0 0,0z"/>
   <path class="fil2" d="M0.1 0.14c0,-0 0,-0 -0,-0 0,0 0,0 0,0z"/>
   <path class="fil3" d="M0.12 0.16c0,-0 0,-0 0,-0.01 -0,0 -0,0 -0,0.01z"/>
   <path class="fil2" d="M0.14 0.07c0,0 0,0.01 0.01,0.01 -0,-0 -0,-0.01 -0.01,-0.01z"/>
   <path class="fil3" d="M0.15 0.29c0,0 0,0 0,0 0,0 0,0.01 0.01,0.01 -0,-0.01 -0.01,-0.01 -0.01,-0.01z"/>
   <path class="fil2" d="M0.11 0.08c0,0 0,0 -0,0.01 0,-0 0,-0 0,-0.01z"/>
   <path class="fil3" d="M0.15 0.33c0,-0 0.01,-0 0.01,-0 -0,0 -0.01,0 -0.01,0z"/>
   <path class="fil2" d="M0.11 0.15c0,0 0,0 0.01,0.01 -0,-0 -0,-0 -0,-0.01 -0,-0 -0,-0 -0,-0 0,0 0,0 0,0z"/>
   <path class="fil3" d="M0.06 0.3c-0,-0.01 -0.01,-0.01 -0.01,-0.02 0,0.01 0.01,0.02 0.01,0.02z"/>
   <path class="fil3" d="M0.13 0.15c0,-0 0,-0 0,-0 0,-0 0,-0.01 0.01,-0.01 -0,0 -0.01,0.01 -0.01,0.01z"/>
   <path class="fil3" d="M0.09 0.34c-0,-0 -0.01,-0.01 -0.01,-0.01 -0,-0 -0.01,-0.01 -0.01,-0.01 0.01,0.01 0.02,0.02 0.02,0.03z"/>
   <path class="fil3" d="M0.25 0.13c0.01,0 0.01,0.01 0.02,0.01 0.01,0.01 0.01,0.02 0.02,0.03 -0,-0 -0,-0 -0,-0 -0.01,-0.01 -0.02,-0.03 -0.03,-0.04z"/>
   <path class="fil3" d="M0.31 0.39c-0,-0 -0,-0 -0,-0 0,-0 0,0 0,0 -0,0 -0,0 -0,-0z"/>
   <path class="fil3" d="M0.17 0.26c-0,0 0,0 0,0 0,0 0,-0 0,-0 -0,-0 -0,-0 -0,0z"/>
   <path class="fil3" d="M0.26 0.16c0,0 0,0 0,0.01 -0,0 -0,0 -0,-0 -0,-0.01 -0,-0.01 0,-0z"/>
   <path class="fil3" d="M0.33 0.4c-0,-0 -0,-0.01 0,-0.01 0,0 0,0 0,0 0,0 0,0 0,0.01 0,0 0,0 -0,0 -0,0 -0,-0 -0,-0.01z"/>
   <path class="fil3" d="M0.25 0.37c0,-0 0,-0 0,-0.01 0,-0 0,-0 0,-0 0,0 0,0.01 -0,0.01 -0,0 -0,-0 -0,-0z"/>
   <path class="fil2" d="M0.09 0.14c-0,-0 -0,-0 -0,-0 0,0 -0,0 -0,0 -0,0 -0,-0 -0,-0.01 0,0 0,0.01 0,0.01 0,0 0,0 0,-0 0,-0 0,-0 0,-0.01 0,-0 0,-0 0,-0 0,0 0,0 -0,0 -0,0 -0,0 -0,0zm0.05 -0.04c0,0 0,0 0,0.01 0,0 0,0.01 0,0.01 0,0 0,0 -0,0.01 -0,0 -0,0 -0,0.01 -0,0 -0,0 -0,0.01 -0,0 -0,0 -0,0 0,-0 0,-0 0,-0.01 0,-0 0.01,-0.01 0.01,-0.01 0,-0 0.01,-0 0.01,-0 0,0 -0,0 -0,0 -0,0 -0,-0 -0,-0 -0,-0 -0,-0 -0,-0 -0,-0 -0,-0 -0,-0.01 -0,-0 -0,-0 -0,-0.01 -0,-0 -0,-0 -0,-0.01 -0,-0 -0,-0 -0,-0 -0,-0 -0,-0 -0,0z"/>
   <path class="fil3" d="M0.13 0.85c0,-0 0,-0.01 0.01,-0.01 0,0 0,0 -0,0.01 -0,0 -0,0 -0,-0z"/>
   <path class="fil3" d="M0.18 0.45c0,-0 0,-0 0,-0 -0,0 -0,0 -0,-0 0,-0 0,-0 -0,0 -0,0 -0,0 -0,0.01 0,0 0,0 0,0 0,0 0,-0 0,-0z"/>
   <path class="fil3" d="M0.18 0.83c0,-0 0,-0 0,-0 0,-0 0,-0 0,-0 0,0 0,0 0,0 -0,0 -0.01,0 -0.01,-0z"/>
   <path class="fil3" d="M0.2 0.42c-0,-0 -0,-0 -0,-0 -0,0 -0,0 -0,0 0,0 0,0 0,0 0,-0 0,-0 0,-0z"/>
   <path class="fil3" d="M0.33 0.44c0,-0 0,-0.01 -0,-0.01 -0,0 -0,0 -0,0.01 0,0 0,0 0,-0z"/>
   <path class="fil3" d="M0.33 0.82c0,-0 0,-0.01 0,-0.01 -0,0 -0.01,0.01 -0.01,0.01 0,0 0,0 0.01,-0z"/>
   <path class="fil3" d="M0.3 0.85c0,-0 -0,-0 -0,-0 -0.01,0 -0.01,0.01 -0,0.01 0,0 0,-0 0,-0z"/>
   <path class="fil3" d="M0.21 0.7c-0,-0 -0,-0 -0,-0.01 0,-0 -0,-0 -0,-0 -0,-0 -0,-0 -0,0 0,0 0,0 -0,0 -0,-0 -0,-0 -0,-0 0,0 0,0.01 0.01,0.01 0,0 0,0 0,-0z"/>
   <path class="fil3" d="M0.21 0.58c0,-0 0,-0.01 0,-0.01 -0,-0 -0,-0 -0,0 -0,0.01 -0,0.01 0,0.01z"/>
   <path class="fil3" d="M0.23 0.28c0,0 -0,0 -0.01,0 -0.01,-0 -0.01,-0 -0.01,-0.01 0,-0 0.02,0 0.02,0z"/>
   <path class="fil3" d="M0.09 0.9c0,-0 0.01,-0.01 0.01,-0.01 0,0 0,0 -0,0.01 -0,0 -0.01,0 -0.01,0z"/>
   <path class="fil2" d="M0.12 0.06c0,0 0,0 0.01,0 0,0 0.01,0 0.01,0 0,0 0,0 0,0 -0,0 -0,0 0,0 0,0.01 0,0.02 -0,0.02 -0,-0 -0,-0 -0,-0.01 0,-0.01 -0,-0.02 -0.01,-0.02 -0,-0 -0,-0 -0,-0z"/>
   <path class="fil3" d="M0.31 0.43c0,-0 -0,-0 -0.01,-0.01 -0,-0 -0.01,-0 -0.01,-0 -0,0 0,0 0.01,0 0.01,0 0.01,0.01 0.01,0.01 -0,0 -0,0 0,0 0,0 0,0 0,-0z"/>
   <path class="fil4" d="M0.09 0.59c-0,-0 -0.01,-0 -0.01,-0 -0,-0 -0,-0 0,-0 0,0 0.01,0 0.01,0 0.01,0 0.01,0 0,0 -0,0 -0.01,-0 -0.01,-0z"/>
   <path class="fil3" d="M0.14 0.83c0,-0 0.02,-0.01 0.02,-0.01 0,0 -0.01,0.01 -0.01,0.01 -0,0 -0,0 -0.01,0 -0,0 -0,0 -0,-0z"/>
   <path class="fil3" d="M0.21 0.68c-0,-0 -0,-0 0,-0 0,-0 0,-0 0,-0 -0,-0 -0.01,-0 -0.01,-0 -0,0 0,0.01 0.01,0.01 0,-0 0,0 0,0 0,0 0,0 0,0 0,0 0,-0 -0,-0z"/>
   <path class="fil3" d="M0.28 0.49c0,-0 0.01,-0.01 0.01,-0.01 0,-0 0,-0 -0,0 -0,0 -0.01,0 -0.01,0 -0,0 -0.01,0.01 -0.01,0.01 -0,0.01 0.01,0 0.01,-0z"/>
   <path class="fil3" d="M0.36 0.87c-0,-0 0,-0.01 0.01,-0.01 0,-0 0,0 0.01,0 0,0.01 -0.01,0.01 -0.01,0.01z"/>
   <path class="fil2" d="M0.11 0.08c-0,-0 0,-0 0,-0.01 0,-0 0,-0 0,-0 -0,-0 -0,-0 0,-0.01 0,-0 0,-0 0.01,-0 -0,0 -0,0 -0,0 -0,0 -0,0 -0,0.01 0,0 0,0 0,-0 0,-0 0,-0 0,-0 0,-0 0.01,0 0.01,0.01 0,0 -0,0 -0,-0 -0,-0 -0.01,-0 -0.01,0 0,0 0,0.01 0.01,0.01 0,-0 0,0 0,0.01 0,0.01 -0,0.01 -0.01,0 -0,-0.01 -0,-0.01 -0.01,-0.01 -0,0 -0,0 -0,0z"/>
   <path class="fil3" d="M0.32 0.88c0.01,-0 0.01,-0.01 0.02,-0.02 0,-0 0.01,-0 0.01,-0 0,0 -0,0 -0,0.01 -0,0.01 -0.01,0.01 -0.02,0.01 -0,0 -0,0 -0,-0z"/>
   <path class="fil3" d="M0.19 0.1c0,0 -0,0 -0,0 -0,0 0,0 0.01,0 0.01,0 0.01,0 0.02,0.01 0,0 0.01,0 0.01,0.01 -0.01,-0 -0.01,-0 -0.02,-0.01 -0.02,-0 -0.03,-0 -0.04,0 -0.01,0 -0.01,0 -0.01,0 -0,0 -0.01,0 -0.02,0.01 0.01,-0 0.02,-0.01 0.03,-0.02 0.01,-0 0.01,-0.01 0.01,-0.01 -0,0 -0.01,0 -0.01,0 0.01,-0 0.01,-0.01 0.01,-0.01 0,0 0,-0 0,-0z"/>
   <path class="fil3" d="M0.3 0.36c0.01,0 0.01,0 0.01,0 0,0 0,-0 -0,-0.01 -0,-0 -0.01,-0 -0.01,-0 -0,-0 0,-0 0,-0l0 -0 -0 -0c-0,-0.01 -0.02,-0.01 -0.02,-0.01 -0,0 -0,0 0,0 0,0 0,0 0,0 -0,0 -0,-0 -0,-0 -0,-0 -0.03,-0.01 -0.03,-0.01l-0 0 0.01 0.01c0,0 0,0.01 0,0.01 -0,0 -0.01,0 -0.02,0 -0.02,0 -0.02,0 -0.02,0.01 0,0 0,0 0.01,0 0.03,-0 0.06,0 0.07,0.01z"/>
   <path class="fil3" d="M0.34 0.4c-0.01,-0.01 -0.05,-0.03 -0.07,-0.03 0.01,0 0.01,0 0.02,0.01 0.01,0 0.02,0.01 0.02,0.01 0,0 0.01,0 0.01,-0 0,-0 -0.01,-0.01 -0.03,-0.01 -0.02,-0.01 -0.02,-0.01 -0.04,-0.01 -0.02,0 -0.03,0 -0.03,0.01 -0,0 0,0 0.01,0 -0.01,0 -0.02,0 -0.02,0 -0,0 -0.01,0 -0.01,0 -0.01,0 -0.01,0.01 -0.02,0.01l-0 0.01 0 -0.01c0,-0 0,-0.01 0,-0.01 0,-0.01 0.01,-0.01 0,-0.01 -0,0.01 -0.01,0 -0.01,-0.01 0,-0.01 -0,-0.01 -0,-0.01 -0,-0 -0,-0 -0,-0.01 0,-0.01 -0.01,-0.03 -0.02,-0.05l-0.01 -0.02 0 -0.01c0,-0 0,-0.01 0,-0.01 0,-0 0,-0 0,-0 0,0 0,-0 0.01,-0.01 0,-0 0,-0.01 0.01,-0.02 0,-0.01 0,-0.01 0,-0.01 -0,-0 -0.01,0.01 -0.01,0.03 -0,0.01 -0,0.01 -0.01,0.01 -0.01,-0 -0.02,-0.01 -0.02,-0.01 -0,-0 -0.01,-0 -0.02,-0.01 -0.01,-0 -0.01,-0.01 -0.02,-0.01 -0,0 -0,-0 0,-0.01 0,-0.01 0.01,-0.02 0.01,-0.03 0,-0.01 0,-0.02 0.01,-0.03 -0,0.01 -0,0.02 -0,0.02 0,0 0,0 -0,0.01 -0,0 -0,0.01 -0,0.01 0,0 -0,0 -0,0.01 -0,0 -0,0 -0,0.01 0,0.01 0,0.01 0.01,0.01 0.01,0 0.01,0.01 0.01,0.01 -0,0 -0.01,-0 -0.02,-0.01 -0,-0 -0,-0 -0.01,-0 -0,0 0.03,0.02 0.03,0.02l0.01 0 -0.01 -0.01 0 0c0.01,0 0.01,0 0.02,-0 0,-0 0,-0.01 0,-0.01 0,-0 0,-0.01 0,-0.01 0,-0 0,-0.01 0,-0.01 0,-0.01 0,-0.01 0,-0.01 0,-0 0,-0 0,-0.01 0,-0.01 0,-0.01 0,-0.01 0,0.01 0.01,0 0.01,-0.01 0,-0 0,-0.01 0,-0.01 0,0 0,0.01 0.01,0.02 0,0 0,0.01 0,0.01 0,0 0,-0 0,-0.01 0,-0 0,-0.01 0,-0.01 0,0 0,0.01 -0,0.02 -0,0 -0,0 -0,0 -0,0.01 -0,0.01 -0,0.01 0,0 0,0 0,-0 0,-0 0,-0 0,-0 0,-0 0,-0 0.01,-0 0,-0 0,-0 0,0 0,0 -0,0 -0.01,0.01 -0.01,0 -0.01,0.01 -0.01,0.01 0,0 0,0 -0,0 -0,0.01 -0,0.01 0,0.02 0,0 0.01,0.01 0.01,0.01 0,0 -0,0 -0.01,0 -0.01,-0.01 -0.01,-0 -0.01,0 0,0 0,0.01 0.01,0.01 0,0.01 0.01,0.01 0.01,0.02 0.01,0 0.01,0.01 0,0.01 -0,0 -0.01,0 -0.01,0 0,0 0,0 0.01,-0 0.01,-0 0.03,-0.01 0.03,-0.01 0,0 -0.01,0.01 -0.01,0.01 -0.01,0 -0.02,0.02 -0.02,0.02 0,0 0,0.01 0.02,0 0.01,-0 0.02,-0 0.02,-0 0.01,0 0.03,0 0.04,0.01 0,0 0.01,0 0.01,0 0,0 0,-0 0,-0 -0,-0 -0.01,-0.01 -0.02,-0.01 -0.01,-0 -0.01,-0 -0,-0.01 0,-0 0.01,-0 0.01,-0 0,-0 -0.02,0 -0.03,0 -0.01,0 -0.02,0 -0.02,0 0,-0 0.01,-0.01 0.02,-0.01 0,-0 0.01,-0 0.02,-0 0.01,-0 0.01,0 0.01,0 0,0 0,0 0,0 0,0 0,0 0,0 0,0 0.01,0 0.01,0 0,0 0.01,0 0.01,0 0,-0 -0,-0 -0.01,-0.01 -0.01,-0 -0.02,-0.01 -0.02,-0.01l-0 -0 0.01 -0c0.01,-0 0.02,-0 0.02,-0.01 0,-0 0,-0.01 0,-0.01 0,-0 0,-0.01 0,-0.02 0,-0.01 -0,-0.03 -0.01,-0.05 -0.01,-0.01 -0.01,-0.02 -0,-0.02 0,-0 0,-0 0,-0 0,0.01 0.01,0.02 0.01,0.03 0,0.02 0.01,0.04 0.01,0.05 0,0.01 0,0.02 0.01,0.03 0,0 0,0.01 0,0.01 0,0 0,0.01 0,0.01 0,0 0,0.01 0,0.01 0,0 0,0.01 0,0.01 0,0 0,0.01 0,0.01 0,0 0,0.01 0,0.01 0.01,0.01 0.01,0.04 0.01,0.04 -0,0 -0,-0 -0.01,-0.01z"/>
   <path class="fil5" d="M0.3 0.88c-0,-0 -0,-0 0,-0.01 0,-0 0,-0 -0,-0 -0,0 -0,-0 -0.01,-0.01 -0,-0 -0,-0.01 -0,-0.01 0,-0 -0,-0 -0.01,-0 -0.01,-0 -0.01,-0 -0.01,-0.01 0,-0 -0,-0 -0,-0 -0,-0 -0,-0.01 -0.01,-0.01 -0,-0.01 -0.01,-0.03 -0.03,-0.05 -0.01,-0.01 -0.02,-0.03 -0.02,-0.04 -0.01,-0.01 -0.02,-0.02 -0.02,-0.03 -0.02,-0.02 -0.02,-0.02 -0.02,-0.04 -0,-0.01 0,-0.04 0.01,-0.08 0,-0.01 0,-0.02 0,-0.03 0,-0 0,-0.01 0,-0.01 0,-0 0,-0 0,-0 0,0 0.01,-0 0.01,-0 0,-0 0.01,-0 0.01,0 0,0 0,0 0,0 0,0 0.01,-0.01 0.01,-0.02 0,-0.01 0,-0.01 0.01,-0.01 0.01,-0.01 0.01,-0.01 0.02,-0.01 0.01,-0 0.01,-0 0.02,-0 0.01,-0 0.01,-0 0.02,0 0,0 0.01,0 0.01,0 0,0 0,0 0,0.01 -0,0 -0,0 -0,0 0,0 -0,0 -0,0 -0,0 -0,0.01 -0,0.01 -0,0.02 -0.03,0.08 -0.04,0.09 -0,0 -0,0 -0,0.01 0,0 0,0.01 0,0.01 -0,0 -0,-0 -0,-0 -0,-0 -0.02,-0 -0.02,0 0,0 -0,0 -0,0 -0,0 -0,0 -0,0 0,0 0,0 0.01,0 0.01,-0 0.01,-0 0.01,0 0,0 0,0 0,0 -0,-0 -0,-0 -0,0 -0,0 -0.01,0 -0.01,0 -0.01,0 -0.01,0 -0.01,0.01 -0,0 -0,0.01 -0,0.01 0,0 0,0 0.01,-0 0.02,-0.01 0.03,-0.01 0.03,0 0,0 0,0.01 0.01,0.01 0.02,0.02 0.03,0.03 0.04,0.07 0.01,0.02 0.01,0.03 0.02,0.04 0,0.01 0,0.01 0,0.01 -0,0 -0,0 -0,0.01 0,0 0,0.01 -0,0.01 -0,0 -0,0 0,0 0.01,0 0.01,0 0,0 -0,0 -0,0 0,0 0,-0 0,0 0.01,0l0 0 -0 0c-0,0 -0.01,0.01 -0.02,0.02 -0.01,0.01 -0.01,0.01 -0.02,0.01 -0,-0 -0,-0 -0,-0 -0,-0 -0,-0.01 -0,-0 0,0 -0,0 -0,0 -0,-0 -0,0 -0,0.01 0,0 0,0.01 -0.01,0.01 -0,0 -0.01,0 -0.01,0z"/>
   <g style="clip-path:url(#id0)">
    <g>
     <path id="_1" class="fil6" d="M0.21 0.38c-0,0.01 -0,0.01 -0,0.02 -0,0.01 -0,0.01 -0,0.02 0,0 0,0.01 0,0.01 0,0 0,0 0,0 0,0 -0,0 -0,-0 -0,-0 -0.01,-0.01 -0.01,-0.01 -0,-0 -0,-0.01 -0,-0.01 -0,-0 -0,-0 -0,0 -0,0 -0,0.01 -0,0.01 -0,0 -0,0 -0.01,0.01 -0,0 -0.01,-0 -0.01,0 -0,0 -0,0 -0,0.01 -0,0 -0.01,0 -0.01,0.01 -0,0 -0.01,0.01 -0.01,0.02 -0.01,0.01 -0.03,0.02 -0.04,0.04 -0.01,0.02 -0.02,0.03 -0.03,0.05 -0.01,0.01 -0.01,0.02 -0.02,0.03 -0,0.01 -0.01,0.01 -0.01,0.02 -0,0 -0,0.01 -0,0.01 -0,0 0,0.01 0,0.01 0,0 0.01,0.01 0.01,0.01 0,0 0.01,0.01 0.01,0.01 0,0 -0,0.01 0,0.02 0,0.01 0.01,0.03 0.01,0.04 0.01,0.01 0.01,0.02 0.01,0.02 0,0.01 0,0.01 0,0.02 0,0.01 0,0.02 0,0.03 0,0.01 0.01,0.02 0.02,0.02 0.01,0 0.01,0 0.01,0 0,0 -0,0.01 -0,0.01 0,0 0.01,0 0.01,0 0,0 -0,0 -0,0.01 -0,0 -0,0.01 0,0.02 0,0.01 0.01,0.01 0.02,0.01 0.01,0 0.02,0 0.02,0 0.01,-0 0.01,-0.01 0.01,-0.02 0,-0.01 -0,-0.01 -0.01,-0.02 -0,-0 -0.01,-0.01 -0.01,-0.01 -0,-0 -0,-0.01 -0,-0.01 0,-0 0.01,-0 0.01,-0.01 0,-0 -0,-0.01 -0.01,-0.02 -0,-0.01 -0,-0.01 -0.01,-0.02 -0.01,-0.01 -0.02,-0.01 -0.02,-0.02 -0,-0 -0,-0 0,-0.01 0,-0 0.01,-0.01 0.01,-0.01 0,-0.01 0,-0.02 -0,-0.02 -0,-0.01 -0,-0.02 -0.01,-0.02 -0,-0.01 -0.01,-0.01 -0.01,-0.02 -0.01,-0.01 -0.02,-0.01 -0.02,-0.01 -0.01,-0 -0.01,-0.01 -0,-0.01 0,0 0.01,0 0.02,0 0,-0 0,-0.01 -0,-0.02 -0.01,-0.01 -0.01,-0.02 -0.01,-0.02 0,-0 0.01,0 0.02,0 0.01,0 0.01,0 0.02,-0 0,-0 0.01,-0.01 0.01,-0.02 0,-0.01 0.01,-0.02 0.01,-0.02 0.01,-0.01 0.02,-0.01 0.03,-0.01 0.01,-0 0.02,-0.01 0.02,-0.01 0.01,-0 0.01,-0.01 0.02,-0.02 0,-0.01 0.01,-0.01 0.01,-0.01 0,-0 0.01,0 0.02,0.01 0.01,0 0.02,0 0.02,0 0.01,-0 0.01,-0 0.02,-0.01 0.01,-0 0.02,-0.01 0.03,-0.02 0.01,-0.01 0.01,-0.01 0.01,-0.01 -0,0 -0,0.01 -0.01,0.02 -0,0.01 -0.01,0.02 -0.01,0.02 -0.01,0.01 -0.01,0.01 -0.02,0.02 -0.01,0 -0.01,0.01 -0.02,0.02 -0,0.01 -0.01,0.01 -0.01,0.02 -0,0.01 -0.01,0.02 -0.01,0.02 -0,0.01 -0.01,0.02 -0.01,0.03 -0,0.01 -0.01,0.02 -0.01,0.02 -0,0.01 -0,0.01 0,0.02 0,0.01 0.01,0.01 0.01,0.01 -0,0 -0.01,0 -0.01,0.01 -0,0 -0,0.01 0,0.01 0,0 0.01,-0 0.01,0 -0,0 -0.01,0.01 -0.01,0.01 0,0.01 0.01,0.02 0.01,0.03 0,0.01 0.01,0.01 0.01,0.02 0.01,0.01 0.01,0.02 0.02,0.02 0.01,0 0.01,-0 0.02,-0 0.01,-0 0.01,-0 0.02,0 0,0 0,0.01 -0,0.01 -0,0.01 -0,0.01 -0,0.02 0,0.01 0,0.01 0.01,0.02 0,0 0.01,0.01 0.01,0.01 0,0 -0,0.01 -0,0.02 0,0.01 0,0.01 0.01,0.01 0,0 0.01,-0 0.01,-0 0,-0 0.01,-0 0.01,-0 -0,0 -0,0.01 -0,0.01 0,0 0.01,0 0.01,0.01 0,0 0.01,0.01 0,0.01 -0,0.01 -0.01,0.01 -0.01,0.02 -0,0 -0.01,0.01 -0.01,0.01 -0.01,0 -0.01,0 -0.03,0 -0.01,0 -0.03,-0 -0.06,-0.01 -0.03,-0.01 -0.06,-0.02 -0.09,-0.03 -0.03,-0.01 -0.06,-0.01 -0.07,-0.02 -0.02,-0.01 -0.03,-0.02 -0.04,-0.06 -0.01,-0.04 -0.03,-0.11 -0,-0.19 0.03,-0.08 0.11,-0.17 0.15,-0.21 0.05,-0.05 0.06,-0.05 0.08,-0.05 0.01,0 0.02,0.01 0.03,0.01 0,0.01 0,0.01 -0,0.02 -0,0.01 -0,0.01 -0.01,0.02 -0,0.01 -0.01,0.01 -0.01,0.02 0,0 0,0.01 0.01,0.01 0.01,0 0.01,0 0.02,0.01 0.01,0 0.01,0 0.02,0.01 0,0 0,0 0,0 -0,0 -0.01,-0 -0.01,-0 -0.01,-0 -0.01,-0 -0.02,-0.01 -0.01,-0 -0.01,-0 -0.01,-0 -0,-0 -0.01,0 -0.01,0 -0,0 -0,0.01 -0,0.01 -0,0 -0,0.01 -0,0.01 -0,0 -0,0 -0,-0 -0,-0 0,-0.01 0,-0.02 0,-0.01 0,-0.01 0,-0.02 0,-0 0,-0.01 0,-0.01 0,-0 0,-0 -0,-0 -0,0 -0.01,0 -0.01,0 -0,0 -0,-0 -0,-0 0,-0 0.01,-0.01 0.01,-0.01 0,-0 -0,-0.01 -0,-0.01 -0,-0 -0.01,0 -0.01,0 -0,0 -0.01,0 -0.01,0.01 -0,0 -0.01,0.01 -0.01,0.01z"/>
    </g>
   </g>
   <path class="fil7" d="M0.3 0.88c-0,-0 -0,-0 0,-0.01 0,-0 0,-0 -0,-0 -0,0 -0,-0 -0.01,-0.01 -0,-0 -0,-0.01 -0,-0.01 0,-0 -0,-0 -0.01,-0 -0.01,-0 -0.01,-0 -0.01,-0.01 0,-0 -0,-0 -0,-0 -0,-0 -0,-0.01 -0.01,-0.01 -0,-0.01 -0.01,-0.03 -0.03,-0.05 -0.01,-0.01 -0.02,-0.03 -0.02,-0.04 -0.01,-0.01 -0.02,-0.02 -0.02,-0.03 -0.02,-0.02 -0.02,-0.02 -0.02,-0.04 -0,-0.01 0,-0.04 0.01,-0.08 0,-0.01 0,-0.02 0,-0.03 0,-0 0,-0.01 0,-0.01 0,-0 0,-0 0,-0 0,0 0.01,-0 0.01,-0 0,-0 0.01,-0 0.01,0 0,0 0,0 0,0 0,0 0.01,-0.01 0.01,-0.02 0,-0.01 0,-0.01 0.01,-0.01 0.01,-0.01 0.01,-0.01 0.02,-0.01 0.01,-0 0.01,-0 0.02,-0 0.01,-0 0.01,-0 0.02,0 0,0 0.01,0 0.01,0 0,0 0,0 0,0.01 -0,0 -0,0 -0,0 0,0 -0,0 -0,0 -0,0 -0,0.01 -0,0.01 -0,0.02 -0.03,0.08 -0.04,0.09 -0,0 -0,0 -0,0.01 0,0 0,0.01 0,0.01 -0,0 -0,-0 -0,-0 -0,-0 -0.02,-0 -0.02,0 0,0 -0,0 -0,0 -0,0 -0,0 -0,0 0,0 0,0 0.01,0 0.01,-0 0.01,-0 0.01,0 0,0 0,0 0,0 -0,-0 -0,-0 -0,0 -0,0 -0.01,0 -0.01,0 -0.01,0 -0.01,0 -0.01,0.01 -0,0 -0,0.01 -0,0.01 0,0 0,0 0.01,-0 0.02,-0.01 0.03,-0.01 0.03,0 0,0 0,0.01 0.01,0.01 0.02,0.02 0.03,0.03 0.04,0.07 0.01,0.02 0.01,0.03 0.02,0.04 0,0.01 0,0.01 0,0.01 -0,0 -0,0 -0,0.01 0,0 0,0.01 -0,0.01 -0,0 -0,0 0,0 0.01,0 0.01,0 0,0 -0,0 -0,0 0,0 0,-0 0,0 0.01,0l0 0 -0 0c-0,0 -0.01,0.01 -0.02,0.02 -0.01,0.01 -0.01,0.01 -0.02,0.01 -0,-0 -0,-0 -0,-0 -0,-0 -0,-0.01 -0,-0 0,0 -0,0 -0,0 -0,-0 -0,0 -0,0.01 0,0 0,0.01 -0.01,0.01 -0,0 -0.01,0 -0.01,0z"/>
   <path class="fil5" d="M0.12 0.82c-0,-0 -0.01,-0 -0.01,-0 -0,0 -0,0 -0,-0 0,-0 -0,-0 -0,-0.01 -0,-0 -0,-0 0,-0 0,-0 0,-0 0,-0 -0,-0 -0,-0 0,-0.01 0,-0 0.01,-0 0.01,-0 0,0 0,0 0,0 0,-0 0.01,-0 0.01,-0.01 -0,-0 -0,-0 -0,-0 0,-0 -0,-0 -0,-0 -0,0 -0,-0 -0,-0 -0,-0 -0,-0 -0,0 0,0 0,0 -0,0 -0.01,-0 -0.01,-0 -0.02,-0 -0,0 -0,0 -0.01,-0 -0,-0.01 -0.01,-0.01 -0.01,-0.04 -0,-0.01 -0.01,-0.03 -0.01,-0.03 -0,-0 -0.01,-0.01 -0.01,-0.02 -0,-0.01 -0.01,-0.02 -0.01,-0.02 -0,-0 -0,-0.01 -0.01,-0.02 -0,-0.01 -0.01,-0.02 -0.01,-0.03 -0.01,-0.02 -0.01,-0.05 -0.01,-0.06 0,-0.01 0.04,-0.06 0.05,-0.07 0.01,-0.02 0.04,-0.05 0.05,-0.06 0.01,-0.01 0.01,-0.01 0.01,-0.01 0,-0 0,-0 0.01,-0 0,0 0,-0 0.01,-0.01 0,-0.01 0,-0.01 0.01,-0.01 0,-0 0,-0 0,-0 -0,-0 -0,-0 0,-0.01 0,-0 0,-0.01 0.01,-0.01 0,-0 0,-0 0,0 0,0 0,0 0,0 0,-0 0,-0 0,-0 -0,-0 0.01,-0.01 0.01,-0.01 0,0 0,0 0.01,0 0,0 0,0 0,0 0,0 0,0 0.01,0 0,0 0,0 0,-0 -0,-0 -0,-0 -0,-0.01 0,-0 0,-0 0.01,-0 0.01,0 0.01,-0 0.01,-0 -0,-0 -0,-0 -0.01,-0 -0.01,0 -0.01,-0 -0.01,-0 0,-0 0.01,-0 0.01,-0l0.01 -0 -0 0.01c-0,0.01 -0,0.01 0,0.01 0,0 0,-0 0.01,-0 0,-0 0,-0 0.01,-0l0.01 0 -0.01 -0c-0,-0 -0.01,-0 -0.01,-0 0,-0.01 0.04,0.01 0.04,0.01 0,0 -0,0 -0.01,-0 -0,-0 -0,-0 -0,0 0,0 0,0 0.01,0.01 0.01,0.01 0.02,0.01 0.02,0.02 0,0.01 0,0.01 -0,0.01 -0,-0 -0,0 0,0.01 0,0 0.01,0.01 0.01,0 0,-0 0,-0.01 0,-0.01 -0,-0.01 0,-0.01 0,-0.01 0,-0 0,-0 0,-0 0,0 0,0.01 0,0.02 0,0.01 0,0.01 -0,0.01 -0,0 -0,0 -0,0.01 -0,0 0,0.01 0,0 0,-0 0,-0 0,-0 0.01,0 -0,0.03 -0.02,0.05 -0.01,0.01 -0.01,0.01 -0,-0.01 0,-0.01 0.01,-0.01 0.01,-0.02 0,-0.01 0,-0.02 0,-0.02 -0,0 -0.01,0.01 -0,0.01 0,0 -0,0 -0,0 -0,0 -0,0 -0,0 -0,0 -0,0.01 -0.01,0.01 -0.01,0.01 -0.01,0.01 -0.01,0.02 0,0 0,0 0,0 0,0 0,0 -0,0.01 -0,0 -0,0 -0.01,-0 -0,-0 -0,-0 -0,-0l-0.01 -0 0 -0c0,-0 0,-0 0,-0 -0,-0 0,-0.01 0.01,-0.01 0.01,-0.01 0.02,-0.03 0.02,-0.03 -0,-0 -0.01,0 -0.01,0.01 -0.01,0.02 -0.03,0.03 -0.06,0.04 -0.01,0 -0.02,0 -0.02,0.01 0,0.01 -0.01,0.01 -0.02,0.02 -0.03,0.02 -0.06,0.04 -0.07,0.04 -0,0 -0.01,0 -0.01,0.01 -0,0.01 -0,0.01 -0.01,0 -0.01,-0.01 -0.02,-0.01 -0.04,-0.01 -0.01,-0 -0.02,-0 -0.02,-0 -0,-0 -0.01,0 -0.01,0.01 0,0 0,0 0,0 0,-0 0,-0 0.01,0 0,0 0.01,0 0.02,0.01 0.02,0 0.02,0 0.01,0 -0.01,-0 -0.01,-0 -0.02,-0 -0.01,-0 -0.01,0 0,0l0 0 -0.01 0c-0,0 -0.01,0 -0.01,-0 -0,-0 -0,-0 -0,-0.01 0,-0 -0,-0 -0,0 -0,0 0,0 0,0.01 0,0 0,0 0,0 0,0 0,0 0,-0l0 -0 0 0c0,0 0,0 0,0 0,-0 0.02,-0 0.03,-0 0.01,-0 0.01,0 0.02,0.01 0.01,0 0.01,0.01 0.01,0.01 -0,0 0,0.01 0,0.01 0.01,0.02 0.02,0.04 0.02,0.06 0.01,0.04 0.01,0.05 0.01,0.06 0.01,0.01 0.01,0.02 0,0.02 -0,0 -0.01,0.01 -0.01,0.01 0,0 0.01,0.01 0.01,0.01 0,-0 0,0 0.01,0 0,0 0,0 0,0.01 -0,0 0,0.01 0,0.01 0,0 0,0 -0,0.01 -0,0 -0,0 -0,0 -0,0 -0.01,0 -0.01,0.01 -0.02,0.01 -0.03,0.01 -0.03,0.01 0,-0 -0,-0 -0,-0 -0,0 -0.01,0.01 -0.01,0.01 -0,-0 -0,-0 -0.01,-0z"/>
   <g style="clip-path:url(#id1)">
    <g>
     <path id="_1_0" class="fil6" d="M0.21 0.38c-0,0.01 -0,0.01 -0,0.02 -0,0.01 -0,0.01 -0,0.02 0,0 0,0.01 0,0.01 0,0 0,0 0,0 0,0 -0,0 -0,-0 -0,-0 -0.01,-0.01 -0.01,-0.01 -0,-0 -0,-0.01 -0,-0.01 -0,-0 -0,-0 -0,0 -0,0 -0,0.01 -0,0.01 -0,0 -0,0 -0.01,0.01 -0,0 -0.01,-0 -0.01,0 -0,0 -0,0 -0,0.01 -0,0 -0.01,0 -0.01,0.01 -0,0 -0.01,0.01 -0.01,0.02 -0.01,0.01 -0.03,0.02 -0.04,0.04 -0.01,0.02 -0.02,0.03 -0.03,0.05 -0.01,0.01 -0.01,0.02 -0.02,0.03 -0,0.01 -0.01,0.01 -0.01,0.02 -0,0 -0,0.01 -0,0.01 -0,0 0,0.01 0,0.01 0,0 0.01,0.01 0.01,0.01 0,0 0.01,0.01 0.01,0.01 0,0 -0,0.01 0,0.02 0,0.01 0.01,0.03 0.01,0.04 0.01,0.01 0.01,0.02 0.01,0.02 0,0.01 0,0.01 0,0.02 0,0.01 0,0.02 0,0.03 0,0.01 0.01,0.02 0.02,0.02 0.01,0 0.01,0 0.01,0 0,0 -0,0.01 -0,0.01 0,0 0.01,0 0.01,0 0,0 -0,0 -0,0.01 -0,0 -0,0.01 0,0.02 0,0.01 0.01,0.01 0.02,0.01 0.01,0 0.02,0 0.02,0 0.01,-0 0.01,-0.01 0.01,-0.02 0,-0.01 -0,-0.01 -0.01,-0.02 -0,-0 -0.01,-0.01 -0.01,-0.01 -0,-0 -0,-0.01 -0,-0.01 0,-0 0.01,-0 0.01,-0.01 0,-0 -0,-0.01 -0.01,-0.02 -0,-0.01 -0,-0.01 -0.01,-0.02 -0.01,-0.01 -0.02,-0.01 -0.02,-0.02 -0,-0 -0,-0 0,-0.01 0,-0 0.01,-0.01 0.01,-0.01 0,-0.01 0,-0.02 -0,-0.02 -0,-0.01 -0,-0.02 -0.01,-0.02 -0,-0.01 -0.01,-0.01 -0.01,-0.02 -0.01,-0.01 -0.02,-0.01 -0.02,-0.01 -0.01,-0 -0.01,-0.01 -0,-0.01 0,0 0.01,0 0.02,0 0,-0 0,-0.01 -0,-0.02 -0.01,-0.01 -0.01,-0.02 -0.01,-0.02 0,-0 0.01,0 0.02,0 0.01,0 0.01,0 0.02,-0 0,-0 0.01,-0.01 0.01,-0.02 0,-0.01 0.01,-0.02 0.01,-0.02 0.01,-0.01 0.02,-0.01 0.03,-0.01 0.01,-0 0.02,-0.01 0.02,-0.01 0.01,-0 0.01,-0.01 0.02,-0.02 0,-0.01 0.01,-0.01 0.01,-0.01 0,-0 0.01,0 0.02,0.01 0.01,0 0.02,0 0.02,0 0.01,-0 0.01,-0 0.02,-0.01 0.01,-0 0.02,-0.01 0.03,-0.02 0.01,-0.01 0.01,-0.01 0.01,-0.01 -0,0 -0,0.01 -0.01,0.02 -0,0.01 -0.01,0.02 -0.01,0.02 -0.01,0.01 -0.01,0.01 -0.02,0.02 -0.01,0 -0.01,0.01 -0.02,0.02 -0,0.01 -0.01,0.01 -0.01,0.02 -0,0.01 -0.01,0.02 -0.01,0.02 -0,0.01 -0.01,0.02 -0.01,0.03 -0,0.01 -0.01,0.02 -0.01,0.02 -0,0.01 -0,0.01 0,0.02 0,0.01 0.01,0.01 0.01,0.01 -0,0 -0.01,0 -0.01,0.01 -0,0 -0,0.01 0,0.01 0,0 0.01,-0 0.01,0 -0,0 -0.01,0.01 -0.01,0.01 0,0.01 0.01,0.02 0.01,0.03 0,0.01 0.01,0.01 0.01,0.02 0.01,0.01 0.01,0.02 0.02,0.02 0.01,0 0.01,-0 0.02,-0 0.01,-0 0.01,-0 0.02,0 0,0 0,0.01 -0,0.01 -0,0.01 -0,0.01 -0,0.02 0,0.01 0,0.01 0.01,0.02 0,0 0.01,0.01 0.01,0.01 0,0 -0,0.01 -0,0.02 0,0.01 0,0.01 0.01,0.01 0,0 0.01,-0 0.01,-0 0,-0 0.01,-0 0.01,-0 -0,0 -0,0.01 -0,0.01 0,0 0.01,0 0.01,0.01 0,0 0.01,0.01 0,0.01 -0,0.01 -0.01,0.01 -0.01,0.02 -0,0 -0.01,0.01 -0.01,0.01 -0.01,0 -0.01,0 -0.03,0 -0.01,0 -0.03,-0 -0.06,-0.01 -0.03,-0.01 -0.06,-0.02 -0.09,-0.03 -0.03,-0.01 -0.06,-0.01 -0.07,-0.02 -0.02,-0.01 -0.03,-0.02 -0.04,-0.06 -0.01,-0.04 -0.03,-0.11 -0,-0.19 0.03,-0.08 0.11,-0.17 0.15,-0.21 0.05,-0.05 0.06,-0.05 0.08,-0.05 0.01,0 0.02,0.01 0.03,0.01 0,0.01 0,0.01 -0,0.02 -0,0.01 -0,0.01 -0.01,0.02 -0,0.01 -0.01,0.01 -0.01,0.02 0,0 0,0.01 0.01,0.01 0.01,0 0.01,0 0.02,0.01 0.01,0 0.01,0 0.02,0.01 0,0 0,0 0,0 -0,0 -0.01,-0 -0.01,-0 -0.01,-0 -0.01,-0 -0.02,-0.01 -0.01,-0 -0.01,-0 -0.01,-0 -0,-0 -0.01,0 -0.01,0 -0,0 -0,0.01 -0,0.01 -0,0 -0,0.01 -0,0.01 -0,0 -0,0 -0,-0 -0,-0 0,-0.01 0,-0.02 0,-0.01 0,-0.01 0,-0.02 0,-0 0,-0.01 0,-0.01 0,-0 0,-0 -0,-0 -0,0 -0.01,0 -0.01,0 -0,0 -0,-0 -0,-0 0,-0 0.01,-0.01 0.01,-0.01 0,-0 -0,-0.01 -0,-0.01 -0,-0 -0.01,0 -0.01,0 -0,0 -0.01,0 -0.01,0.01 -0,0 -0.01,0.01 -0.01,0.01z"/>
    </g>
   </g>
   <path class="fil7" d="M0.12 0.82c-0,-0 -0.01,-0 -0.01,-0 -0,0 -0,0 -0,-0 0,-0 -0,-0 -0,-0.01 -0,-0 -0,-0 0,-0 0,-0 0,-0 0,-0 -0,-0 -0,-0 0,-0.01 0,-0 0.01,-0 0.01,-0 0,0 0,0 0,0 0,-0 0.01,-0 0.01,-0.01 -0,-0 -0,-0 -0,-0 0,-0 -0,-0 -0,-0 -0,0 -0,-0 -0,-0 -0,-0 -0,-0 -0,0 0,0 0,0 -0,0 -0.01,-0 -0.01,-0 -0.02,-0 -0,0 -0,0 -0.01,-0 -0,-0.01 -0.01,-0.01 -0.01,-0.04 -0,-0.01 -0.01,-0.03 -0.01,-0.03 -0,-0 -0.01,-0.01 -0.01,-0.02 -0,-0.01 -0.01,-0.02 -0.01,-0.02 -0,-0 -0,-0.01 -0.01,-0.02 -0,-0.01 -0.01,-0.02 -0.01,-0.03 -0.01,-0.02 -0.01,-0.05 -0.01,-0.06 0,-0.01 0.04,-0.06 0.05,-0.07 0.01,-0.02 0.04,-0.05 0.05,-0.06 0.01,-0.01 0.01,-0.01 0.01,-0.01 0,-0 0,-0 0.01,-0 0,0 0,-0 0.01,-0.01 0,-0.01 0,-0.01 0.01,-0.01 0,-0 0,-0 0,-0 -0,-0 -0,-0 0,-0.01 0,-0 0,-0.01 0.01,-0.01 0,-0 0,-0 0,0 0,0 0,0 0,0 0,-0 0,-0 0,-0 -0,-0 0.01,-0.01 0.01,-0.01 0,0 0,0 0.01,0 0,0 0,0 0,0 0,0 0,0 0.01,0 0,0 0,0 0,-0 -0,-0 -0,-0 -0,-0.01 0,-0 0,-0 0.01,-0 0.01,0 0.01,-0 0.01,-0 -0,-0 -0,-0 -0.01,-0 -0.01,0 -0.01,-0 -0.01,-0 0,-0 0.01,-0 0.01,-0l0.01 -0 -0 0.01c-0,0.01 -0,0.01 0,0.01 0,0 0,-0 0.01,-0 0,-0 0,-0 0.01,-0l0.01 0 -0.01 -0c-0,-0 -0.01,-0 -0.01,-0 0,-0.01 0.04,0.01 0.04,0.01 0,0 -0,0 -0.01,-0 -0,-0 -0,-0 -0,0 0,0 0,0 0.01,0.01 0.01,0.01 0.02,0.01 0.02,0.02 0,0.01 0,0.01 -0,0.01 -0,-0 -0,0 0,0.01 0,0 0.01,0.01 0.01,0 0,-0 0,-0.01 0,-0.01 -0,-0.01 0,-0.01 0,-0.01 0,-0 0,-0 0,-0 0,0 0,0.01 0,0.02 0,0.01 0,0.01 -0,0.01 -0,0 -0,0 -0,0.01 -0,0 0,0.01 0,0 0,-0 0,-0 0,-0 0.01,0 -0,0.03 -0.02,0.05 -0.01,0.01 -0.01,0.01 -0,-0.01 0,-0.01 0.01,-0.01 0.01,-0.02 0,-0.01 0,-0.02 0,-0.02 -0,0 -0.01,0.01 -0,0.01 0,0 -0,0 -0,0 -0,0 -0,0 -0,0 -0,0 -0,0.01 -0.01,0.01 -0.01,0.01 -0.01,0.01 -0.01,0.02 0,0 0,0 0,0 0,0 0,0 -0,0.01 -0,0 -0,0 -0.01,-0 -0,-0 -0,-0 -0,-0l-0.01 -0 0 -0c0,-0 0,-0 0,-0 -0,-0 0,-0.01 0.01,-0.01 0.01,-0.01 0.02,-0.03 0.02,-0.03 -0,-0 -0.01,0 -0.01,0.01 -0.01,0.02 -0.03,0.03 -0.06,0.04 -0.01,0 -0.02,0 -0.02,0.01 0,0.01 -0.01,0.01 -0.02,0.02 -0.03,0.02 -0.06,0.04 -0.07,0.04 -0,0 -0.01,0 -0.01,0.01 -0,0.01 -0,0.01 -0.01,0 -0.01,-0.01 -0.02,-0.01 -0.04,-0.01 -0.01,-0 -0.02,-0 -0.02,-0 -0,-0 -0.01,0 -0.01,0.01 0,0 0,0 0,0 0,-0 0,-0 0.01,0 0,0 0.01,0 0.02,0.01 0.02,0 0.02,0 0.01,0 -0.01,-0 -0.01,-0 -0.02,-0 -0.01,-0 -0.01,0 0,0l0 0 -0.01 0c-0,0 -0.01,0 -0.01,-0 -0,-0 -0,-0 -0,-0.01 0,-0 -0,-0 -0,0 -0,0 0,0 0,0.01 0,0 0,0 0,0 0,0 0,0 0,-0l0 -0 0 0c0,0 0,0 0,0 0,-0 0.02,-0 0.03,-0 0.01,-0 0.01,0 0.02,0.01 0.01,0 0.01,0.01 0.01,0.01 -0,0 0,0.01 0,0.01 0.01,0.02 0.02,0.04 0.02,0.06 0.01,0.04 0.01,0.05 0.01,0.06 0.01,0.01 0.01,0.02 0,0.02 -0,0 -0.01,0.01 -0.01,0.01 0,0 0.01,0.01 0.01,0.01 0,-0 0,0 0.01,0 0,0 0,0 0,0.01 -0,0 0,0.01 0,0.01 0,0 0,0 -0,0.01 -0,0 -0,0 -0,0 -0,0 -0.01,0 -0.01,0.01 -0.02,0.01 -0.03,0.01 -0.03,0.01 0,-0 -0,-0 -0,-0 -0,0 -0.01,0.01 -0.01,0.01 -0,-0 -0,-0 -0.01,-0z"/>
   <path class="fil0" d="M0.15 0.12c0,-0 0,-0 0,-0 0,0 -0,0 -0,0zm-0.07 -0.01c-0,0 -0,0.01 -0,0.01 0,0 0,0 0,0 0,0 0,0 0,0 0,0 0,0.01 0,0.01 0,0 0,0 0,-0 0,-0 0,-0 0,-0.01 0,-0 0,-0 0,-0 0,0 0,0 -0,0 -0,0 -0,0 -0,0 -0,-0 -0,-0 -0,-0 0,-0 0,0 0.01,0 0.01,0.01 0,0 0.01,0 0,0 0,0 0,0 -0,0 -0,0 -0,0 -0,0 0,0.01 0,0.01 -0,-0 -0,-0 -0,-0 -0,-0 -0,-0 -0,-0 0,0 0,0 0,0 0,0 0,0 0,0 0,0 0,0 0,0 0,0 0,0 0,-0 0,-0 0,-0 0,-0.01 0,-0.01 0.01,-0.02 0.02,-0.02 0,-0 0,-0 0,-0.01 0,-0 0,-0 0,-0.01 0,-0 0,-0 0,-0.01 -0,-0 -0,-0 -0,-0.01 -0,-0 -0,-0.01 -0,-0.01 -0,-0 -0,-0 0,-0 0,0 0,0 0,0 0,0 0,0 0,0.01 0,0 0,0.01 0,0.01 0,0 0,0 0,0.01 0,0 0,0 0,0 0,0 0,0 0,0 0,0 0,0 0,-0 -0,0 -0,0 -0,0 -0,0 -0.01,0 -0.01,0.01 0,-0 0.01,-0 0.01,-0 0.01,-0 0.01,-0.01 0.02,-0.01 0,-0 0.01,-0 0.01,-0.01 0.01,-0 0.01,-0 0.01,-0 0,0 0,-0 0,-0 0,-0 -0,-0 -0.01,-0.01 -0.01,-0.01 -0.01,-0.01 -0.01,-0.01 -0,0 -0.01,0 -0.01,0 -0,0 -0.02,-0 -0.02,-0.01 -0,-0 -0,-0.01 -0.01,-0.01 -0,-0 -0,-0 -0.01,-0 0,0 0,0 0,0 -0,0 -0,0 0,0 0,0.01 0,0.02 -0,0.02 -0,-0 -0,-0 -0,-0.01 0,-0.01 -0,-0.02 -0.01,-0.02 -0,-0 -0,-0 -0,-0 -0,-0 -0,-0 -0,-0 -0,-0 -0,-0 -0,-0 -0,-0 -0.01,-0 -0.01,0 0,-0 0,-0 0.01,-0 -0,0 -0,0 -0,0 -0,0 -0,0 -0,0.01 0,0 0,0 0,-0 0,-0 0,-0 0,-0 0,-0 0.01,0 0.01,0.01 0,0 -0,0 -0,-0 -0,-0 -0.01,-0 -0.01,0 0,0 0,0.01 0.01,0.01 0,-0 0,0 0,0.01 0,0.01 -0,0.01 -0.01,0 -0,-0.01 -0,-0.01 -0.01,-0.01 -0,0 -0,0 -0,0 0,0 0,0 0,0 0,0 0,0 0,0 0,0 0,0 0,0 0,0 0,0 -0,0 -0,0 -0,0 -0,0 0,0 0,0 -0,0 -0,0 -0,-0 -0.01,-0 -0,-0 -0.01,-0.01 -0.01,-0.01 -0.01,-0 -0.01,-0 -0.01,-0.01 0,-0 -0.01,-0.01 -0.01,-0.01 -0,0 -0.01,0.01 -0.01,0.01 0,0 0.01,0.02 0.01,0.02 0,0 0,-0 0.01,-0 0,0 0,0 0,0 -0,0 -0,0 -0,0 -0,0 -0,0.01 0,0.01 0,-0 0,-0 0,-0 0,-0 0,-0 0,0 0,0 0,0 -0,0 0,0 0,0 -0,0 -0,0 -0,0 -0,0z"/>
   <path class="fil1" d="M0.29 0.36c-0.02,-0.01 -0.02,-0.01 -0.04,-0.01 -0.02,0 -0.03,0 -0.03,0.01 -0,0 0,0 0.01,0 0,-0 0.01,-0 0.01,-0 0,-0 0.01,-0 0.02,0 0,0 0,0 0.01,0 0.01,0 0.01,0 0.02,0.01 0.01,0 0.02,0.01 0.02,0.01 0,0 0.01,0 0.01,-0 0,-0 -0.01,-0.01 -0.03,-0.01z"/>
   <path class="fil8" d="M0.2 0.84c-0,0 -0.03,0.02 -0.06,0.04 -0.01,0.01 -0.02,0.02 -0.03,0.02 -0.01,0 -0,0.01 -0.01,0.01 -0,0 -0.01,0 -0.01,0.01 -0,0 -0.01,0.01 -0.02,0.01 -0.01,0 -0.01,0 -0.01,0 -0,0 0,0 0,0 0,0 0,0 0,0 0,0 0.02,-0.01 0.04,-0.01 0.02,-0.01 0.02,-0.01 0.07,-0.04 0.04,-0.03 0.04,-0.03 0.03,-0.03 -0,-0 -0,-0 -0.01,-0z"/>
   <path class="fil8" d="M0.36 0.9c-0.01,0.01 -0.02,0.03 -0.02,0.04 -0.01,0.02 -0.03,0.04 -0.05,0.06 -0.01,0.01 -0.01,0.01 -0.01,0.01 0,0 0,0 0,0 0,0 0.01,-0 0.01,-0.01 0.02,-0.01 0.04,-0.04 0.05,-0.05 0.02,-0.03 0.05,-0.07 0.05,-0.08 0,-0 0,-0 0,-0.01 -0,-0 -0,-0 -0.01,-0 -0,0 -0.01,0.01 -0.02,0.02 -0,0 -0.01,0.01 -0.01,0.02z"/>
  </g>
 </g>
</svg>
