<?xml version="1.0" encoding="UTF-8"?>
<!DOCTYPE svg PUBLIC "-//W3C//DTD SVG 1.1//EN" "http://www.w3.org/Graphics/SVG/1.1/DTD/svg11.dtd">
<!-- Creator: CorelDRAW -->
<svg xmlns="http://www.w3.org/2000/svg" xml:space="preserve" width="0.4333mm" height="1.65mm" version="1.1" style="shape-rendering:geometricPrecision; text-rendering:geometricPrecision; image-rendering:optimizeQuality; fill-rule:evenodd; clip-rule:evenodd"
viewBox="0 0 0.14 0.52"
 xmlns:xlink="http://www.w3.org/1999/xlink"
 xmlns:xodm="http://www.corel.com/coreldraw/odm/2003">
 <defs>
  <style type="text/css">
   <![CDATA[
    .fil2 {fill:#090909}
    .fil4 {fill:#292726}
    .fil1 {fill:#39597C}
    .fil0 {fill:#494A4E}
    .fil7 {fill:#553B27}
    .fil12 {fill:#707070}
    .fil9 {fill:#865B3B}
    .fil10 {fill:#8F8F8F}
    .fil8 {fill:#B0784E}
    .fil11 {fill:#B1B1B1}
    .fil5 {fill:#D79967}
    .fil6 {fill:#D9D9D9}
    .fil3 {fill:#EFBA89}
   ]]>
  </style>
 </defs>
 <g id="Camada_x0020_1">
  <metadata id="CorelCorpID_0Corel-Layer"/>
  <g id="_1769268992416">
   <path class="fil0" d="M0.1 0.18c-0,-0 -0,-0 -0,-0 -0,-0 0,-0 0,-0l0 0 0 -0c-0,-0.01 -0,-0 0,-0.01 0,-0 0,-0.01 0,-0.01 0,-0 -0,-0.01 0,-0.01 0,-0.01 0,-0.01 0,-0.02 -0,-0 -0,-0 -0,-0 0,-0 0,-0 0,-0l0 -0c0,-0 0,-0 0,-0 0,-0.01 0,-0.02 0.01,-0.02l-0 -0c-0.01,-0 -0.02,-0 -0.02,-0.01 -0,0 0,0 -0,0l-0 0c-0,0.01 -0.01,0.01 -0.02,0.01 -0.01,-0 -0.01,-0 -0.01,-0 -0,-0 -0.01,-0 -0.01,-0.01l-0 -0 -0 -0c-0,0 -0,-0 -0,0 -0,-0 -0,-0 -0,-0 -0.01,0.01 -0.02,0 -0.03,0.01 -0,0.01 -0.01,0.03 -0.01,0.03 0.01,0 0.01,0 0.02,0 0,-0 0,-0.01 0,-0.01 0,-0 -0,-0 -0,-0.01 0,0.01 0,0 0,0.01 -0,0.01 -0,0.01 0,0.02l0 0.03c-0,0 -0,0.01 -0,0.01l0 -0c-0,0.01 -0.01,0.01 -0,0.01 -0,0 -0,0 -0,0.01 -0,0 -0,0.01 -0,0.01 0,-0 0.02,-0.01 0.02,-0.01l0 -0c0.01,0 0.02,-0 0.04,-0 0.01,0 0.03,0 0.03,0.01 -0,-0.01 -0.01,-0.01 -0.01,-0.02l0 0c0,-0 -0,-0.01 -0,-0.01z"/>
   <path class="fil1" d="M0.05 0.25l-0 -0 -0 -0c-0,-0 -0.01,-0 -0.01,-0 0.01,-0 0.01,0 0.02,0 0,0 0,0 0,0 0,0 0,0 0,-0 -0,-0 -0,-0 -0.01,-0 -0,-0 -0,-0 -0.01,-0 -0,-0 -0.01,-0 -0.01,-0 0.01,-0 0.02,0 0.03,0l0 -0.01 -0.01 -0 0.01 -0 0 -0 -0 -0.01c-0,-0 -0,-0 -0.01,-0 0,-0 0.01,0 0.01,-0 -0,-0 -0,-0 -0,-0 -0,-0 -0.01,-0 -0.01,0 -0,0 -0,0 -0,0 -0,-0 0,-0 0,-0.01l-0 0c-0,0 -0.01,0 -0.01,0 -0,0 -0,0.01 -0.01,0.01 0.01,-0 0.01,-0 0.02,-0.01l-0 -0c0,-0 0.01,-0 0.01,-0l-0 0.01c-0,-0 0,-0 -0,-0l-0 0 0 0c-0,0 -0,0.01 -0.01,0.01l0 -0c-0,-0 -0,0 -0,0 -0,-0 -0.01,0 -0.01,0l0 0c-0,0 0,0 -0,0 0,0 0,0 -0,0 -0,0 -0,0 -0,0 0,0.01 -0,0.01 -0,0.02 0,0 0,0.01 0,0.01 0,0 0,0.01 0,0.01 -0,0.01 0,0.02 0,0.03 0,0 0,0.01 0,0.02 0,0 0,0 0,0.01 0,0 0,0 0,0 -0,0 -0,0 -0,0.01 -0,0 -0,0 -0,0 0,0 0,0 0,0.01l-0 0c0,-0 0,-0 0.01,-0.01 0,0 -0,0.01 -0,0.02 -0.01,0.01 -0,0.03 0,0.05 0,0 0.01,0.02 0.01,0.02 0,0 0.01,-0 0.01,-0 -0,0 -0.01,0.01 -0.01,0.01 -0,-0 -0,-0 -0,-0 -0,0.01 -0,0.01 0,0.01l0 0 0 0c-0,0 -0,0 -0,0.01 0,0 0,-0 0,-0 0,-0 0.01,0 0.01,0 -0,-0 -0,-0 -0,-0 0,-0 0,-0 0.01,-0 -0,-0 -0.01,0 -0.02,0 0,-0 0.01,-0.01 0.01,-0.01 -0,-0 -0,-0 -0.01,0 -0,-0 -0,-0 -0,-0 0.01,-0 0.01,0 0.02,-0 -0,-0 -0,-0 -0.01,-0.01 0,-0.01 0.01,-0.01 0.01,-0.02 -0,0 -0,0 -0,0 -0,0 -0,0 -0,0 -0,-0.01 0,-0.01 0,-0.03 -0,-0.01 -0,-0.02 -0.01,-0.02 0,-0 0,-0 0,-0 0,-0 0,-0 0.01,-0l0 -0c-0,-0 -0,-0 -0,-0.01l0 -0 0 -0c-0,0 -0,0 -0,0l-0 -0c-0,-0 -0,-0 -0,-0.01l0 -0c-0,-0 -0,-0 -0,-0.01 0,-0 0.01,0 0.01,-0.01 0,-0 0,-0.02 0,-0.02l-0 0c0,-0.01 0,-0 0,-0.01 -0,-0.01 -0,-0.01 0,-0.01 0,-0 0,-0.01 0,-0.01 -0,-0.01 0,-0.01 0,-0.01 -0,0 -0,0 -0,0 0,-0 0,-0 0,-0.01 -0,-0 -0,-0 -0,0 0,-0 0,-0 0,-0 -0,-0 -0.01,-0 -0.01,-0 0.01,-0 0.01,-0 0.01,-0 -0,-0 -0.01,-0 -0.02,-0 0,0 0,-0 0,-0 0.01,-0 0,0 0.01,-0z"/>
   <path class="fil1" d="M0.12 0.28l0 -0c0,-0.01 0,-0.02 -0,-0.03 -0,-0 -0.01,-0 -0.01,-0 0,0 0,-0 0.01,-0 0,-0 0.01,0 0.01,0 -0,-0 -0,-0.01 -0.01,-0.01l0.01 0c0,-0.01 -0,-0.01 -0.01,-0.02 -0.01,-0 -0.01,-0.01 -0.01,-0.01l0 -0 -0 -0c-0,0 -0,0 -0.01,0l-0 -0 -0.01 0 -0 0.01 0 0.01c0,0 0.01,-0 0.02,0 -0.01,0 -0.01,0 -0.02,0 -0,0 0,0.01 0,0.01 -0,0 -0,0.01 -0,0.01 0,0 0.01,-0 0.02,-0 0,0 0.01,0 0.01,0 -0,0 -0.02,0.01 -0.03,0.01 0,0 0.01,-0 0.01,-0 -0,0 -0,0 -0.01,0 -0,0 -0,0 -0.01,0 0,0 0.01,0 0.01,0 -0.01,0 -0.01,0 -0.01,0l0 0 -0 0c-0,0.02 -0,0.02 0,0.03l-0 -0c0,0 0,0.01 0,0.01l-0 -0c-0,0 -0,0.03 0,0.03 0,0 0,0 0.01,0 -0,0 -0,0 -0,0.01 0,0 0,0 0.01,0.01 0,0 -0,0.01 -0,0.01 0,0 0.01,0.01 0.01,0.01 -0,-0 -0.01,0 -0.01,0l0 0 -0 0.01c-0,-0 -0,-0 -0,-0 -0,0.01 -0,0.02 0,0.03 0,0.02 0.01,0.02 0.01,0.02 -0,0 -0.01,0 -0.01,0.01 0,0 0.01,0 0.01,0.01 -0,0 -0.01,0 -0.01,0 0,0 0,-0 0.01,-0 0,-0 0.01,0 0.01,0 -0,-0 0,-0 -0.01,-0.01 0,-0 0,0 0,-0 -0,-0 -0.01,-0 -0.01,-0 0,-0 0.01,-0 0.01,-0 0.01,-0 0,0 0.01,0 0,-0 -0,-0 -0,-0.01l0.01 -0c0,-0 0,-0.01 0,-0.01 -0,0 -0,0.01 -0.01,0 -0,-0 -0.01,-0.01 -0.01,-0.01l0 0.01c0,0 0.01,0 0.01,0 0,-0.01 0.01,-0.03 0.01,-0.04 0,-0.01 0,-0.03 -0,-0.04 0,-0 0,-0 0,-0l-0 -0c-0,-0 0,-0.01 0,-0.01 0,0 0,0 0,0 0,-0 -0,-0 -0,-0.01l0 -0c-0,-0 -0,-0.01 -0,-0.01l0 0c0,-0 0,-0.01 0,-0.01l-0 0c0,-0 0,-0.01 0,-0.01 0,-0.01 0.01,-0.04 0.01,-0.04l-0 -0z"/>
   <path class="fil2" d="M0.11 0.51l-0 -0 -0 -0c-0,0 -0,0 0,0zm-0.03 -0.51l0 0c0.02,0 0.02,0.02 0.02,0.03 0,0.01 -0,0 0.01,0.02 -0,-0 -0,-0 -0,-0 0,0.01 0.01,0.01 0.01,0.02 -0,-0 -0.01,-0.01 -0.01,-0.01l-0 0 -0 -0c-0,-0 -0,-0 -0,-0.01 -0,-0 -0,-0.01 -0,-0.01 0,0 0,0.01 0,0.01 -0,-0 -0,-0 -0,-0.01 -0,0 -0,0 -0,0l0 0.01c-0,-0 -0,-0 -0,-0l-0 0c0,0.01 0,0 0,0.01 0,0 0,0 0,0 -0,0 -0,-0 -0,0 -0,-0 -0,-0 -0,-0.01l-0 0 0.01 0.02 0 -0c0,-0 0,-0 0,-0l0 0c0,-0.01 -0,-0.01 -0,-0.01 -0,-0 -0,-0 0,-0 0,0 0,0.01 0,0.01 0,0 0,-0 0,-0.01 0,0.01 -0,0.01 0,0.01 0.01,-0 -0,-0.02 -0.01,-0.02 -0,-0 -0,-0 -0,-0.01 0,0 0.01,0.01 0.01,0.01 0.01,0.01 0.01,0.01 0.01,0.02 0,-0.01 0,-0.01 -0,-0.02 -0,-0.01 -0.01,-0.01 -0.01,-0.01 0,0 0.01,0.01 0.01,0.01 0,0 0.01,0.01 0.01,0.01 0,-0.01 -0.01,-0.02 -0.01,-0.02l0 -0c0,0 0.01,0.01 0.01,0.01 0,0 0,0.01 -0,0.02 0,-0 0,-0.01 -0,-0.01 -0,-0 -0,-0.01 -0.01,-0.01 0.01,0.01 0.01,0.01 0,0.02 0,0 0.01,0 0.01,0.01 0.01,0.01 0.01,0.02 0.01,0.03 0,0 0,0 0,0.01 0,0 -0,0 -0,0.01 -0,0 -0,0.03 0,0.04 0,0.02 0,0.03 0,0.06 0,0 0,0.02 0,0.02 -0,0 -0,0.01 -0,0.01 0,0 0,0 0,0l0 0.01c-0,0 -0,0 -0,0.01 -0,0.01 -0,0.01 -0.01,0.01 -0,0 -0,0.01 -0.01,0 -0,0.01 -0,0.01 -0,0.02 -0,0.01 -0,0.02 -0,0.02 0,0 0,0.01 -0,0.01 -0,0.01 0,0.01 0,0.01 -0,0.01 -0,0.02 -0,0.02 0,0 -0,0.01 -0,0.01 0,0.01 -0,0.02 -0,0.03 -0,0 0,0.01 0,0.01 -0,0 -0,0.01 -0,0.01 -0,0 0,0 0,0.01 0,0 -0,0 -0,0 -0,0 0,0.01 -0,0.01 0,0 0.01,0.01 0,0.01 0,0.01 0,0.01 0,0.02 0,0 0,0.01 -0,0.01 -0,0 -0,0 -0.01,0.01 -0,0 -0.01,0 -0.01,-0 -0,-0 -0.01,-0 -0.01,-0.01 -0.01,-0.01 -0,-0.01 -0,-0.02 -0,-0 -0.01,-0.01 -0,-0.02 -0.01,-0.01 0,-0.01 -0,-0.02 -0,-0 -0,-0.01 -0,-0.01 0,-0 0,-0.01 0,-0.01 0,-0.01 -0,-0.02 -0,-0.03 -0,-0 -0,-0 -0,-0.01 -0,-0.01 0,-0.02 0,-0.02 -0,-0.01 -0,-0.01 -0,-0.01 -0,-0 0,-0.01 0,-0.01 -0,-0.01 -0,-0.01 -0,-0.02 -0,-0 -0,-0.01 -0,-0.01 -0,-0 -0,-0 -0,-0.01 -0,-0 0,-0 -0,-0.01l-0 -0.03c0,0 -0,0 -0,0.01 -0,0 0,0 -0,0.01 -0,0 -0,0.01 -0,0.01l-0 0.03c0,0.02 -0,0.01 -0,0.02 -0,0 0,0 0,0.01 -0,0.01 -0,0 -0,0.01 0,0 -0,0.01 -0,0.01 0,0 0,0.01 0,0.01 -0,0 0,0.01 -0,0.01 -0,0 -0,0.02 -0,0.02 0,0.01 0,0.01 -0,0.02 0,0 0,0 0,0.01 0,0 -0,0 -0,0.01l-0 0c0.01,0.02 0,0.02 -0,0.02 -0,0 0.01,0.03 -0.02,0.03 -0.02,-0 -0.01,-0.02 -0.01,-0.03 0,-0.01 0,-0.01 -0,-0.01 -0,-0.01 0,-0.01 0,-0.01 -0,-0 -0,-0.01 -0,-0.01 -0,-0 0,-0.01 0,-0.01 -0,-0 -0,-0 -0,-0.01 -0,-0.01 0,-0.01 -0,-0.02 -0,-0 -0,-0.01 -0,-0.01 -0,-0.01 -0,-0.02 -0,-0.02l0 -0.02c0,-0 0,-0 0,-0.01 -0,-0.01 -0,-0.01 0,-0.01 -0,-0 -0,-0.01 -0,-0.01 0,-0.01 -0,-0.02 -0,-0.03 -0,-0 -0,-0.01 -0,-0.01 -0,0 -0,-0 -0.01,-0 -0,-0 -0,-0 -0.01,-0.01 -0,-0 -0.01,-0.01 -0.01,-0.02l0 -0c0,-0 0,-0.01 0,-0.01 0,-0 0,-0.01 -0,-0.01 -0,-0 -0,-0 -0,-0l0 -0c0,-0 0,-0 0,-0 0,-0.01 0,-0.03 0,-0.04 0,-0.02 0,-0.02 0,-0.04 0,-0.01 0,-0.02 0,-0.02 -0,-0 -0,-0 -0,-0.01 0,-0 0,-0 0,-0.01 0,-0.01 0,-0.03 0.01,-0.03 -0,-0.01 -0,-0 0,-0.02 -0,0 -0.01,0.01 -0.01,0.01 -0,-0 0,-0.01 0.01,-0.02 0,-0 0,-0 0,-0 0,-0 0,-0 0,-0 -0,0 -0,0 -0.01,0.01 -0,0 -0,0.01 0,0.01 -0,-0.01 0,-0.01 0,-0.01 0,0 0,-0 0,0 0,0 0,0 0,0l0 0c0,0 0,0 0,0 0,0 0,0 0,0l-0 0c-0,-0 -0,-0 -0,-0 -0,0 -0,0 -0,0 0,0 -0,0 0,0.01 0,-0 -0,-0 0,-0.01l0 0.01 0 -0c-0,-0 -0,-0 0,-0.01 0,0 0,-0 0,0l0 0 0 -0c-0,-0 0,-0.01 0.01,-0.01 -0,0 -0,0.01 -0,0.01 0,-0 0,0 0,-0l-0 -0c0.01,-0.01 0,-0.01 0,-0.01 0,-0 0,-0 0,-0 0,-0 -0,-0 0,-0 -0,0 -0,0.01 -0.01,0.01 0,-0 0.01,-0.01 0.01,-0.01 -0,0 -0,0 -0,0l-0 -0c-0,0 -0,0.01 -0.01,0.01 0,-0 0,-0.01 0.01,-0.01 -0,0 -0,0 -0,0 0,-0.01 0.01,-0.01 0,-0.02 -0,0 -0,0 -0,0 0,-0 0,-0.01 0.01,-0.01 0,0 0,-0 0,0l0 -0c0,0 0,-0 0,0l0 -0c0,0 0,0 0,0l-0 0.01 0 0c-0,-0 -0,-0.01 -0,-0.01 -0,0 -0,0.01 0,0.01l0 0 0 0 0 0 0 0 0 0c0,0 0,0.01 0,0.01l0 0 0 0.01 -0 0 -0.01 0c-0,0 -0,-0 -0,0 -0,-0 -0,-0 -0,-0 -0.01,0.01 -0.02,0 -0.03,0.01 -0,0.01 -0.01,0.03 -0.01,0.03 0.01,0 0.01,0 0.02,0 0,-0 0,-0.01 0,-0.01 0,-0 -0,-0 -0,-0.01 0,0.01 0,0 0,0.01 -0,0.01 -0,0.01 0,0.02l0 0.03c-0,0 -0,0.01 -0,0.01l0 -0c-0,0.01 -0.01,0.01 -0,0.01 -0,0 -0,0 -0,0.01 -0,0 -0,0.01 -0,0.01 0,-0 0.02,-0.01 0.02,-0.01l0 0c-0,0 -0.01,0 -0.01,0 -0,0 -0.01,0 -0.01,0 -0,0 -0,0.01 -0.01,0.01l-0 0.01c0,0.01 -0,0.01 -0,0.02 0,0 0,0.01 0,0.01 0,0 0,0.01 0,0.01l-0 0c0,-0 0,-0 0,-0.01l-0 -0c0,-0 -0,-0 -0,-0.01 -0,-0 0,-0.01 -0,-0.01 -0,-0 -0,-0.01 -0,-0.01 -0,-0.01 0.01,-0.04 0.01,-0.05 0,-0.01 0,-0.02 0,-0.03 0,-0.01 0,-0.02 -0,-0.03l-0.01 -0 -0 0c-0,-0 -0.01,-0 -0.01,-0 -0,0.01 0,0.03 -0,0.04 -0,0.01 -0,0.04 -0,0.05 -0,0 -0,0.01 -0,0.01 -0,0 0,0.01 0,0.01 -0,0 -0,0.01 -0,0.01 0,0 0,0.01 0,0.01 0,0.01 0.01,0.01 0.01,0.01 -0,0 -0,0 0,0l0 0 0 -0 0 -0c0,0 0,0 0,-0l-0 -0c0,-0 -0,-0.01 -0,-0.01 -0,-0 -0,-0.01 -0,-0.01l-0 -0 0 -0 0 -0 0 0 0 0.01 0 0 0 0 -0 0c0,0 0,0.01 0,0.01 0,0 0,0.01 0,0.01l0.01 0.04c0,0.01 -0,0.01 0,0.02 -0,0.01 -0,0 -0,0.01 0,0 -0,0.01 -0,0.01 -0,0.02 0,0.03 0,0.05 0,0.01 -0,0.02 0,0.02 -0,0 -0,0 -0,0.01 0,0 0,0.01 0,0.01l0 -0c-0,0 -0,0 0,0 -0,0 0,0 0,0 -0,0 0,0 -0,0 0,-0 0,-0 0.01,-0l0 -0c0,0 0,0 0.01,0 0,0 0,0 -0,0 -0,0 -0,0 -0,0l0 0c-0,-0 -0,-0 -0,-0 0,0 0,0 0,0l-0 -0 -0 0c-0,0 -0,0 -0,0l-0 0c0,-0 -0,-0 0,-0 -0,-0 -0,-0 -0,-0 -0,0 -0,0 -0,0 0,0 0,0 -0,0 0.01,0 0,-0 0.01,-0 0,0 0,0 0,0 -0,0 0,-0 -0.01,-0 -0,0 -0,0 0,0 -0,0 -0,-0 -0,0 0,0 0,0 0,0 0,0 0,-0 -0,0 -0,0 -0,0 -0,0 -0,-0 -0,-0 -0,-0 0,-0 0,-0 0,0 -0,-0 -0,-0 -0,-0l0 -0c-0,-0 -0,-0 -0,-0l0 -0c-0,0 -0,-0 -0,-0l-0 0c0,0 -0,0.01 -0,0.02 -0,0 -0,0 -0,0 -0,0 0,0 -0,0.01 0,0.01 -0,0.01 0.01,0.01 0,0 0.01,0 0.02,0 0,-0 0,-0 0.01,-0 0,-0 0,-0.01 0,-0.01l-0 -0c-0,0.01 -0,0.01 -0.01,0.01 0,0 0,0 -0.01,0 0,-0 0.01,0 0.01,-0 0,-0 0,-0.01 0,-0.01l0 0c0,-0.01 -0,-0 0,-0.02l0 0c0,-0 0,-0 0,-0 -0,0 -0,0 -0,0.01 0,-0 0,-0.01 0,-0.01l-0 0c-0,-0 0,-0 -0,-0.01 -0,-0 0,0 -0,-0 0,-0 0,-0 0,-0l-0 -0c0,-0 0,-0 -0,-0l-0 -0c0,-0 0,-0 -0,-0 -0,-0 -0.01,-0 -0.01,0 -0,-0 -0,-0 -0,0l-0 0 -0 0c0,-0 0,-0 0,-0 0.01,-0 0.01,-0 0.02,0l0 0c0,-0 0,-0.01 0,-0.01l-0 -0c0,-0 0,-0 0,-0.01 -0,-0.01 -0,-0.01 -0,-0.02 0,-0.01 0,-0.02 0,-0.02 0,-0.01 0,-0.02 -0,-0.02 -0,-0 -0,-0.01 0,-0.01 0,-0.01 0,-0 0,-0.01l-0 -0c0,-0 0,-0 0,-0.01 0,-0 -0,-0.01 0,-0.01 0,-0 0,-0.01 0,-0.01 0,-0 0,-0.03 0,-0.03 0,-0.01 0,-0.03 0,-0.03 0,-0 0,0 0.01,-0l-0 0c-0,0.01 -0,0.02 0,0.02l0 0.04c0,0 -0,0.02 0,0.02 0,0 0,0.01 0,0.01 0,0 -0,0 -0,0.01 0,0.01 0,0.02 0,0.02 -0,0.01 0,0.04 0,0.05 -0,0.01 -0,0.01 0,0.02 -0,0.01 -0,0.01 -0,0.01 0.01,-0 0.01,-0 0.02,-0 -0,0 -0,-0 -0.01,0 -0,0 -0.01,0 -0.01,0l0 -0 0 0c0,0 0.01,0 0.01,0l0 -0 0 -0c0,0 -0,0 0,0 0,-0 0,-0 -0,-0 -0,-0 -0,-0 -0.01,-0 0,-0 0.01,0 0.01,0 0,0 0,0 0,0 0,-0 0,-0 0,-0 0,-0 0,-0 0,-0 0,-0 -0,-0.01 -0,-0.01 0.01,-0.01 0,-0.01 0,-0.02 0,-0.02 0,-0.03 0,-0.05 -0,-0 -0,-0.01 -0,-0.01 0,-0.01 0,-0 -0,-0.01l-0 -0 -0 0 0 0 0 -0.01c0,-0.01 -0,-0.01 -0,-0.02 0,-0.02 0.01,-0.03 0.01,-0.05l-0 -0 0 -0c0,-0.01 0,-0.01 0,-0.02 0,-0.01 0,-0 0,-0.01 -0,-0 -0,-0.01 -0,-0.01 -0,-0.01 -0,-0.01 -0,-0.01 -0,-0 -0,-0.01 -0.01,-0.01 -0,-0 -0,-0 -0.01,-0 -0,-0 -0,-0 -0,0 -0,-0 -0,-0 -0,-0l0 0.01c-0,-0 -0,-0 -0,-0.01l-0.01 -0c-0,0 -0,-0 -0,0l-0 0 0 -0c-0,-0 -0,-0 -0,0l0 0 0 0c0,0.01 -0,0.02 0,0.02l-0 0 0 0.01c-0,-0 -0,-0.01 -0,-0.02l-0 -0.01 0 -0.01c-0,-0 -0,-0 -0,-0l0 -0.01 -0.01 0c-0,-0 -0,-0 -0,0l-0 -0c0.01,0 0.02,-0 0.04,-0 0.01,0 0.03,0 0.03,0.01 -0,-0.01 -0.01,-0.01 -0.01,-0.02l0 0c0,-0 -0,-0.01 -0,-0.01l0 -0c0,-0 0,-0 0,-0 0,-0 -0,0 0,-0 0,-0 0,-0 -0,-0 -0,-0.01 -0,-0 0,-0.01 0,-0 0,-0.01 0,-0.01 0,-0 -0,-0.01 0,-0.01 0,-0.01 0,-0.01 0,-0.02l0 -0 0 -0c-0,0 0,0 0,0 0,0 -0,0 -0,0 -0,0 0,0.01 0,0.01 0,0 0,0 0,-0l0 -0 -0 0 -0 -0c-0,0 -0,-0 -0,0l-0 0 -0 0 -0 -0 -0 0 -0 0 -0 0c-0,0.01 -0,0.01 -0,0.01 0,0 0,0.01 0,0.01 0,0.01 0,0.02 0,0.03 0,0.01 0.01,0.04 0.01,0.05 -0.01,0.01 -0,0.01 -0.01,0.02 -0,0 -0,-0 -0,0l0 0c-0,0 -0,0 -0,0.01l0 0c0,-0 0,0 0,-0 0,-0 0,-0 0,-0.01l0 -0.01c0,0 0,0 0,0 0,0 -0,0.01 -0,0.01 -0,0 -0,0.01 -0,0.01 -0,-0 -0,-0 -0,0l-0 0 0 0c-0,0 -0,-0 -0,0 0,0 0,0 0,-0 0,-0 0.01,-0.01 0.01,-0.01 0,-0 0.01,-0.01 0.01,-0.01 0,-0 -0,-0.01 -0,-0.02 -0,-0.01 0,-0 -0,-0.02 -0,-0.01 -0,-0.01 -0,-0.02 -0,-0.01 -0,-0.02 -0,-0.04 -0,-0.01 -0,-0.01 -0,-0.02 -0,-0 -0,-0.02 0,-0.02 0,-0 0,-0.01 -0,-0.01 0,-0 0,0 0,-0 -0,-0 -0,-0.02 -0,-0.02 -0,-0.01 -0,-0.01 -0.01,-0.02 0,-0 0,-0 -0,-0l-0 -0c-0.01,-0 -0.02,-0 -0.02,-0.01 -0,0 0,0 -0,0 0,-0 0,-0 -0,-0 -0,-0 -0,-0 -0.01,-0l0 -0 -0 -0.01c0,-0 0,-0 0,-0 0,-0 0,-0 0,-0.01l0 -0 0 0 0 -0c0,0 0,0 0,-0 0,-0 0,-0.01 0,-0.01 0,-0 0,-0 0,-0l-0 -0 -0 0c-0,0 -0,-0 -0,0l0 0 -0 0c-0,-0 0,-0.01 -0,-0.01 0,-0 0,-0 -0,-0l0 -0c0,-0 0,-0 0,-0 0,0 0,-0 0,0 0,0 0,0 0,0l0 -0 0 0c0,-0 -0,-0.02 -0.01,-0.02 -0,-0.01 -0.01,-0.01 -0.02,-0.01 0,0 0,0 0,0.01 0.01,0 0,-0 0.01,0l0.01 0.01c0,0 0,0 0,0l-0 -0c0,-0 0,-0 -0,-0 -0,-0 -0,-0.01 -0.01,-0.01 -0,-0 -0,0 -0.01,0 -0,-0 -0.01,0 -0.01,0 -0,0 -0,-0 -0,0l-0 0c-0,-0 -0,-0 -0,0 -0,-0 -0,-0 -0,0 -0,-0 -0,-0 -0,0 -0,-0 -0,-0 -0,0 -0,-0 -0,-0 -0,0l-0 0 -0 0.01c-0,-0 -0,-0 -0,-0 0,-0 0,-0.01 0.01,-0.01 0.01,-0.01 0.01,-0 0.01,-0 0,-0 0,-0 -0,-0 0,-0 0,-0 0,-0l-0 -0c-0.01,-0 -0.01,0 -0.02,0.01 -0.01,0.01 -0.01,0.01 -0.01,0.02 -0,-0 0,-0 0,-0 0,0 -0.01,0.02 -0.01,0.02 -0,0.01 -0.01,0.01 -0.01,0.01 -0,0 -0,0 -0,0l0.01 -0.01c0,-0 0,-0 0,-0l-0 -0c0,-0 0,-0 0.01,-0 0,0 0,0 0,0 0,0 0,-0 0,0 0,-0 0,-0 0,-0 0,0 -0,0 -0,0.01 -0,-0 -0,-0 -0,-0 -0,0 -0,-0 -0,-0 -0,-0 -0,0 0,-0l-0 0c-0.01,0.02 -0.02,0.01 -0.02,0.03l0 0 0 0c-0,-0 -0,-0.01 -0,-0.02 0,-0.01 0.01,-0.01 0.01,-0.01l-0 0 -0 0 -0 -0c-0,0 -0,0 -0.01,0 -0,0 -0,0 -0,0.01 -0,-0.02 0.02,-0.01 0.02,-0.03 -0,0 -0,0.01 -0.01,0 0,-0 0,-0 0.01,-0 0,-0 0,-0 0,-0.01 0,-0.01 0.01,-0.02 0.02,-0.03 0.01,-0.01 0.02,-0.01 0.02,-0.01 0,-0 0,-0 0,-0zm0.03 0.51c-0,0 -0,0.01 -0,0.01 -0,0 -0.01,0 -0.02,0 -0,-0 -0,-0 -0.01,-0.01 -0,-0 -0,0 -0,-0 -0,-0 -0,-0 -0,-0.01 0,-0 0,-0 0,-0 0,0 0,-0 0,0l0 -0c0,-0 0,-0 0,0 -0,-0 -0,-0 -0,-0.01 0,-0 0.01,-0 0.01,-0 0,-0 0.01,-0 0.01,0l0 0 -0 -0c0,-0 0,-0 -0,-0l0 -0c-0,0 -0,0 -0,-0 0,-0 -0,-0 0,-0 -0,-0 -0,0 -0,-0.01 0,0 0,0 0,0 -0,-0 -0,0 -0,-0l0 0 0 0.02 -0 -0c0,0 0,0 0,0 -0,0 -0,0.01 -0.01,0.01 -0,0 -0.01,-0 -0.01,-0 0,0.01 0.01,0.01 0.02,0l0 -0.01c0,0 0,0 0,0 0,0 -0,-0 0,0 0,0 0,-0 0,0 0,0 -0,0 -0,0zm-0 -0l-0 0 -0 -0c-0,0 -0,0 0,0zm-0 0c-0,-0 -0,-0 0,-0 -0,-0 -0,-0 0,-0l-0 0c-0,-0 0,-0 -0,0 -0,0 -0,0 -0,0l0 -0zm-0 0l0 0 -0 -0zm-0.01 -0.03c0,-0 0,-0 0.01,0 -0,0 -0,0 -0,0 -0,-0 -0,-0 -0,-0zm-0.03 -0.02l-0 0c0,0 0,0 0,-0l-0 0zm0.03 -0c0,0 -0,-0 0.01,-0 0,-0 0.01,0 0.01,0l-0 -0c-0,-0 -0.01,-0 -0.01,0zm-0.07 -0.38c0,0 0,-0 0,-0 0,0 0,-0 0,-0 0,0 -0,-0 -0,0zm0.01 -0.04c-0,-0 -0,0 -0,0 0,0 -0,0 -0,0 0,-0 0,0 0,-0zm0.08 0.02c-0,-0 0,0 -0,-0 -0,-0 -0,-0 -0,-0l0 0zm0 0c-0,0 -0,0 0,0 0,-0 0,-0 -0,-0zm-0.03 0.41c0,0 0,0 -0,0l-0 -0c-0,-0 -0,-0 -0,-0.01l0 0zm0.01 -0c0,-0 0,-0 0.01,0 -0,0 -0,0 -0,0 -0,-0 -0,-0 -0,-0zm-0.06 -0c0,-0 0,-0 0,0 -0,0 -0,0 -0,0zm0.05 -0c0,0 0,0 0.01,0 -0,0 -0,0 -0,0l0 0c0,-0 0,-0 0,-0 -0,0 -0,0 -0,0l0 0c0,0 0,0 0,0l0 0c-0,0 -0,0 -0,0 -0,0 -0,0 -0,0l0 -0c-0,0 0,0 -0,0 0,0 0,-0 0,0 -0,0 -0,0 -0,-0 -0,0 -0,0 -0,0l-0 -0.02c0,-0 0,0 0,-0 -0,-0 -0,-0 0,-0zm0 -0c0,0 0,-0 0,0l-0 0c-0,-0 -0,0 -0,-0 0,-0 0,-0 0,-0zm-0 -0c-0,-0 -0,0 -0,-0 0,-0 0,-0 0,-0 0,0 0,-0 -0,0zm0.04 -0.19c-0,-0 -0,0 -0,-0 0,-0 0,-0 0,-0l-0 0zm-0.11 -0c0,0 0,0 0,0.01 -0,-0 -0,-0 -0,-0.01zm0.11 -0c0,-0 0,0 0,0 0,0 0,0 0,0 -0,-0 -0,0 -0,-0zm-0.05 -0.01c-0,-0 -0,-0 0,-0 0,0 0,0 -0,0zm0.05 -0.05c0,0.01 0.01,0.02 0.01,0.03l-0 -0.02c-0,-0 -0,-0 -0,-0.01zm-0.1 0.03c0,-0.01 0.01,-0.03 0.01,-0.03 0,0 0,0 0,0 -0,0 -0,0.01 -0,0.01 -0,0 -0,0.02 -0,0.02zm0.01 -0.04c0,-0 0,-0 0,0 0,0 -0,0 -0,0zm0 -0c0,-0 0,-0 0,0 -0,0 -0,0 -0,0zm0.01 -0.05c0,0 0,0.02 0,0.02 -0,0 -0,0 -0,0 -0,0 0,0 0,0l-0 0.01c-0,0 -0,0 -0,0 -0,0 -0,0 -0,0.01 -0,0 -0,0 -0,0.01 -0,-0 0,-0 0,-0.01 0,-0.01 0,-0.02 0,-0.02 0,-0 -0,-0.01 0,-0.01 0,-0 0,-0.01 0,-0.01zm0.08 0.05c0,-0 0,0 0,0 0,0 0,0 0,0 0,-0 -0,0 -0,-0zm-0.01 -0.05l0 0c0,0 0,0 0,0 0,0 0,0 0,0 0,0.01 0,0.01 0,0.02 -0,0.01 0,0.02 0,0.02 -0,-0 -0,-0.01 -0,-0.01 -0,-0 -0,-0.01 -0,-0.01 0,-0.01 -0,-0.01 -0,-0.01 0,-0 0,-0.01 0,-0.01zm-0.08 -0.07l0 0 -0 0.01c-0,-0 -0,-0 -0,-0.01zm0.09 0c-0,-0 0,-0 0,-0.01l0 0c0,0 0,0 -0,0.01zm-0 -0.01c0,-0 0,-0 0,0 0,0 -0,0 -0,0zm0 -0.01c0,-0 0,0 0,0 0,0 0,0 0,0 0,-0 -0,0 -0,-0zm-0 -0c0,-0 0,-0 0,0 -0,0 -0,0 -0,0zm-0 -0c0,-0 0,0 0,0 0,0 0,0 0,0 -0,-0 -0,0 -0,-0zm-0.09 -0.01l-0.01 0.01c0,-0 0,-0.01 0.01,-0.01zm0.07 -0.02c0,-0 0,0 0,0 0,0 0,0 0,0 0,0 -0,0 -0,-0zm-0.07 -0c0,-0 0,0 0,0 0,0 0,0 0,0 -0,-0 -0,0 -0,-0zm0 -0c0,-0 0,0 0,0 0,0 0,0 0,0 0,0 -0,0 -0,-0z"/>
   <path class="fil0" d="M0.02 0.28l-0 0c0,-0 0,-0 0,-0.01l-0 0 -0 0 -0 0 -0 0c0,0 0,0.01 0,0.01 0,0 0,0.01 0,0.01l0.01 0.04c0,0.01 -0,0.01 0,0.02 -0,0.01 -0,0 -0,0.01 0,0 -0,0.01 -0,0.01 -0,0.02 0,0.03 0,0.05 0,0.01 -0,0.02 0,0.02 -0,0 -0,0 -0,0.01 0,0 0,0.01 0,0.01 0,-0 0,-0 0,-0 0,-0 0,-0 0,-0 0.01,-0 0.01,-0 0.02,0 0.01,-0 -0,-0 -0,-0.01 -0,-0 -0,-0 -0.01,-0 0,-0 0.01,0 0.01,0l0 -0 -0 -0c-0,-0 -0,-0 -0,-0l0 -0 0 0c-0,-0.01 -0,-0.01 -0,-0.02 0,-0.01 0,-0.02 0,-0.02 0,-0.01 0,-0.02 -0,-0.02 -0,-0 -0,-0.01 0,-0.01 0,-0.01 0,-0 0,-0.01 -0,-0 -0,-0 -0,-0.01 0,-0 0,-0 0,-0.01l0 0c0,-0 -0,-0.01 0,-0.01 0,-0 0,-0.01 0,-0.01 -0,-0 0,-0.02 0,-0.03l0 -0.03 -0 -0c0,-0 0,-0 0,0l0 -0.01c0,-0 -0,-0 0,0l0 0c0,0 0.01,-0 0.01,-0l-0 0c-0,0 -0.01,0 -0.01,0.01l0 0c-0,0 -0,0 -0,0l-0 0.02 0 0.04c0,0 -0,0.02 0,0.02 0,0 0,0.01 0,0.01 0,0 -0,0 -0,0.01 0,0.01 0,0.02 0,0.02 -0,0.01 0,0.04 0,0.05 -0,0.01 -0,0.01 0,0.02 -0,0.01 -0,0.01 -0,0.01 0.01,-0 0.01,-0 0.02,-0 -0,0 -0,-0 -0.01,0l0.01 -0c0,-0 0.01,0 0.01,0 0,0 0,0 0,0 0,-0 0,-0 0,-0 0,-0 0,-0 0,-0 0,-0 -0,-0.01 -0,-0.01 0.01,-0.01 0,-0.01 0,-0.02 0,-0.02 0,-0.03 0,-0.05 -0,-0 -0,-0.01 -0,-0.01 0,-0.01 0,-0 -0,-0.01 -0,0 -0,0 -0,-0l-0 0 -0 -0c0,0 0,0 0,0l0 -0 0 0c0,-0.01 -0,-0.01 -0,-0.02 0,-0.02 0.01,-0.03 0.01,-0.05l-0 -0 0 0c0,0 -0,0.03 -0.01,0.04 -0,0 -0,0.01 -0,0.01l0 -0c0,0 -0,0.01 -0,0.01l-0 -0c0,0 0,0.01 0,0.01l-0 0c0,0 0,0 0,0.01 -0,-0 -0,0 -0,-0 -0,0 -0,0.01 -0,0.01l0 0c-0,0 0,0 -0,0 0.01,0.01 0,0.03 0,0.04 -0,0.01 -0,0.03 -0.01,0.04 -0,0 -0.01,-0 -0.01,-0l-0 -0.01c0,0 0.01,0.01 0.01,0.01 0.01,0 0.01,-0 0.01,-0 0,0 0,0.01 -0,0.01l-0.01 0c-0,0 0,0 0,0.01 -0,-0 -0,-0 -0.01,-0 -0,0 -0.01,0 -0.01,0 0,0 0.01,0 0.01,0 -0,0 -0,0 -0,0 0.01,0 0,0 0.01,0.01 -0,-0 -0,-0 -0.01,-0 -0,0 -0,0 -0.01,0 0,-0 0,-0 0.01,-0 -0,-0 -0.01,-0 -0.01,-0.01 -0,-0 0.01,-0 0.01,-0.01 -0,-0 -0.01,-0 -0.01,-0.02 -0,-0.01 -0,-0.02 -0,-0.03 0,0 0,-0 0,0l0 -0.01 -0 -0c0,-0 0,-0.01 0.01,-0 -0,-0 -0.01,-0.01 -0.01,-0.01 0,-0 0,-0.01 0,-0.01 -0,-0 -0,-0 -0.01,-0.01 0,-0 0,-0 0,-0.01 -0,-0 -0,-0 -0.01,-0 -0,-0.01 -0,-0.03 -0,-0.03l0 0c0,-0 -0,-0.01 -0,-0.01l0 0c-0,-0.01 -0.01,-0.02 -0,-0.03l0 -0 -0 -0c0,-0 0,-0 0.01,-0 -0,-0 -0.01,-0 -0.01,-0 0,-0 0,-0 0.01,-0 0,0 0,-0 0.01,-0 -0,-0 -0.01,0 -0.01,0 0,-0 0.02,-0.01 0.03,-0.01 -0,0 -0,-0 -0.01,-0 -0.01,0 -0.02,0 -0.02,0 0,-0 0,-0.01 0,-0.01 0,-0 -0,-0.01 -0,-0.01 0.01,-0 0.01,-0 0.02,-0 -0.01,-0 -0.02,0 -0.02,-0l-0 -0.01 -0 -0.01 -0 0c-0,-0 -0,-0 -0,-0 -0,0 -0,0 -0.01,-0 0,-0 0,-0 0.01,-0 0,-0 0,-0 0.01,0l-0 0 0.01 -0 0 0c0,-0 0,-0 0.01,-0l0 0 -0 0c0,0.01 0.01,0.01 0.01,0.01 0.01,0 0.01,0.01 0.01,0.02l-0.01 -0c0,0 0.01,0 0.01,0.01 -0,0 -0,-0 -0.01,-0 -0,0 -0,0 -0.01,0 0,-0 0.01,0 0.01,0 0,0.01 0,0.02 0,0.03 0,-0.01 0,-0.01 0,-0.02 0,-0.01 0,-0 0,-0.01 -0,-0 -0,-0.01 -0,-0.01l-0 -0.01 -0 -0c0,-0 0,0 0,-0 -0,-0 -0.01,-0 -0.01,-0 -0,-0 -0.01,-0 -0.01,-0.01l-0 -0c0,0 0,0.01 0.02,0.01 0,-0.01 -0.01,-0.01 -0.01,-0.01 0,-0 0.01,0 0.01,0 0,-0 0,-0 -0,-0 -0,-0 -0,-0 -0.01,-0 -0,-0 -0,-0 -0,0 -0,-0 -0,-0 -0,-0l0 0.01c-0,-0 -0,-0 -0,-0.01l-0.01 -0 -0 0 0 0c-0,0 -0,-0 -0,0l-0 0c-0,-0 -0,-0 -0,-0l-0 -0 -0 -0c-0,-0 -0,-0 -0,-0l0 0 0 0c0,0.01 -0,0.02 0,0.02l0 -0.02c0,-0 0,-0 0.01,-0 0,0 0,0.01 -0,0.01 0,0 0,0.01 0,0.01 -0,0 -0,0 -0,0 -0,-0 0,-0 -0,-0.01l-0 0 0 0.01c-0,-0 -0,-0.01 -0,-0.02l-0 0 -0.01 0 0.01 0 -0 0.01c-0,0 -0.02,-0 -0.03,-0 0,0 0.01,0 0.01,0 0,0 0,0 0.01,0 0,0 0,0 0.01,0 -0,0 -0,0 -0,0 -0,-0 -0,-0 -0,-0 -0.01,-0 -0.01,-0 -0.02,-0 0,-0 0.01,0 0.01,0l0 0 -0 -0 -0 -0c0,0 0.01,0 0.01,0 0.01,0 0.01,0 0.01,0.01 -0,0 -0,0 -0,-0l-0.01 -0c-0,0 0,0 -0.01,0 -0,0 -0,0 -0,0 0,0 0.01,0 0.02,0 -0,0 -0,0 -0.01,0 0,0 0.01,-0 0.01,0 -0,0 -0,0 -0,0 0,-0 0,-0 0,-0 -0,0 -0,0 -0,0.01 0,-0 0,-0 0,-0 0,0 -0,0.01 -0,0.01 0,0 0,0.01 -0,0.01 -0,0 -0,0 -0,0.01 0,0.01 -0,0.01 -0,0.01l0 -0c0,0 -0,0.02 -0,0.02 -0,0.01 -0,0.01 -0.01,0.01 0,0 0,0 0,0.01l-0 0c-0,0 -0,0 0,0.01l0 0c0,-0 -0,-0 0,-0l-0 0 -0 0c-0,0 -0,0 0,0.01l-0 0c-0,-0 -0,-0 -0.01,0 -0,0 -0,0 -0,0 0.01,-0 0.01,0.01 0.01,0.02 0,0.02 -0,0.02 -0,0.03 0,-0 0,-0 0,-0 0,-0 0,-0 0,-0 0,0.01 -0.01,0.02 -0.01,0.02 0,0 0.01,0 0.01,0.01 -0.01,0 -0.01,-0 -0.02,0 0,0 0,0 0,0 0,-0 0,-0 0.01,-0 -0,0 -0.01,0 -0.01,0.01 0.01,-0 0.02,-0.01 0.02,-0 -0,0 -0,0 -0.01,0 0,0 0,-0 0,0 -0.01,0 -0.01,-0 -0.01,-0 -0,0 -0,0 -0,0 0,-0 0,-0 0,-0.01l-0 -0 -0 -0c-0,-0 -0,0 -0,-0.01 0,0 0,0 0,0 0,-0 0.01,-0.01 0.01,-0.01 -0,0 -0,0 -0.01,0 -0,-0 -0.01,-0.01 -0.01,-0.02 -0,-0.02 -0.01,-0.03 -0,-0.05 0,-0.01 0.01,-0.01 0,-0.02 -0,0 -0,0 -0.01,0.01l0 -0c0,-0.01 0,-0.01 -0,-0.01 0,-0 0,-0 0,-0 0,-0 0,-0 0,-0.01 -0,-0 -0,-0 -0,-0 -0,-0 -0,-0 -0,-0.01 -0,-0 -0,-0.01 -0,-0.02 -0,-0.01 -0.01,-0.02 -0,-0.03zm0.1 -0.01l0 -0c-0,0 -0,-0 -0,0zm0 0.01l-0 -0 -0 0 0 0c0,-0 0,0 0,-0zm-0 0.01l0 -0c-0,-0 -0,-0 -0,0l0 0zm-0.08 0.18c-0,-0 -0,-0 -0,0l0 -0z"/>
   <path class="fil3" d="M0.01 0.29c0,0 0,0 0,0l-0 -0c0,0 0,-0 0,0l0 0c0,0 0,-0 0,0l0 0 0 -0c0,-0 -0,-0.01 -0,-0.01 -0,-0 -0,-0.01 -0,-0.01 -0,-0 -0,-0 -0,-0.01 0,-0 0,-0 0,-0.01l0 0.01 -0 0 0 0.01c0,-0 0,-0 0,-0l-0 -0c0,-0 -0,-0 -0,-0.01 -0,-0 0,-0.01 -0,-0.01 -0,-0 -0,-0.01 -0,-0.01 -0,-0 -0,-0 -0,-0.01 0,-0 0,0 0,-0 -0,-0 0,-0.01 0,-0.01l0.01 -0.03c0,-0.01 0,-0.02 0,-0.02 0,-0.01 0,-0.03 0,-0.04 -0,-0 -0,-0.01 -0.01,-0.01l-0 0 -0.01 -0c-0.01,0 0,0.03 -0,0.04l-0 0c-0,0.01 -0,0.04 -0,0.05 -0,0 -0,0.01 -0,0.01 -0,0 0,0.01 0,0.01 -0,0 -0,0.01 -0,0.01 0,0 0,0.01 0,0.01l0 0 -0 -0c-0,-0 -0,-0.01 -0,-0.01 0,0 0,0.01 0.01,0.02zm0.01 -0.01l0 -0c-0,-0 -0,-0 -0,-0 -0,0 -0,0 -0,0 0,0 -0,0 0,-0zm-0 0.01l-0 -0 0 0z"/>
   <path class="fil3" d="M0.12 0.24c-0.01,0.01 -0,0.01 -0.01,0.02l-0 0 0 0 -0 0 0 0 0 -0 0 -0.01 0 -0c0,0 -0,0 0,0.01 0,0 -0,0.01 -0,0.01 -0,0 -0,0.01 -0,0.01l-0 0 -0 0 0 -0 0 -0 0 -0c0,-0 0,-0 0,-0.01 0,-0 -0,-0 0,-0l-0 -0c-0,-0 -0,-0 0,-0l0 -0c-0,-0 -0,-0 0,-0l0 -0 0 -0.01c0,0 0,0 0,0 -0,-0.01 -0,-0.01 -0,-0.02 -0,-0 0,-0.01 0,-0.01l-0 -0.06c-0,-0.01 -0,-0.01 -0,-0.02 -0,-0.01 0,-0.03 -0,-0.03 -0,-0 -0.01,0 -0.01,0 -0,0.01 -0,0.03 0,0.03 0,0 0,0.01 0,0.02 0,0.02 0.01,0.03 0.01,0.04 0,0 0,0.01 0,0.01 0,0 0,0.01 -0,0.01z"/>
   <path class="fil3" d="M0.06 0.05c0,-0 0,-0 0.01,-0l0 -0c-0,0 -0,0 -0,-0 -0,-0 -0,-0 -0,-0.01l-0 0c0,-0 0,-0 0,-0l0 -0 0 0c0,0 0,-0 0,0l0 -0 0 0c0,0 -0,-0 0,-0 0,0 0,0 -0,0l-0 0c-0,0 -0,0 -0,0 -0,0 -0,0 -0,0 0,-0 0,0 0.01,0 0,0 0,0 0,0l-0 0 -0 0 -0.01 -0c-0,-0 -0,-0 -0,-0l-0 -0 0 -0zm0.02 -0.02l0 0 -0 0c-0,0 0,0 -0,0 -0,0 -0,0 -0.01,-0l0 -0c-0,0 0,0 -0,0 -0,-0 -0,-0.01 0,-0.01l0 -0 0 -0c0,-0 0,-0 0.01,0l0 0 0 0 0 0 -0 -0 0 -0 -0 -0 -0 0 0 0c-0,0 -0,0 -0,0 0,0 0,0 0,0zm-0.02 -0.01l-0 0c0,-0 0,-0 0,-0 -0,-0 -0,-0 0,-0l0 -0c0,-0 0.01,-0 0.01,-0 0,-0 0,-0 0,0 0,0 0,-0 0,0 0,0 0,0 0,0.01 -0,0 0,0 -0,-0 0,0 0,0 -0,0 -0,-0 -0,0 -0.01,0l-0 -0c0,-0 0,-0 0,-0l0 0 0 -0c-0,-0 -0,-0 -0,-0l-0 0zm0.01 -0.02c-0,0 0,0 -0,0l-0 0c-0,0 0,0 -0,0 0,0 0,0 -0,0 0,0 0,0 -0,0 0,0 0,0 -0,0 0,0 0,0 -0,0 -0,0 0,0 -0,0l-0 0.01 -0 0.01 -0 0.01 0 0c0,0 0,0 0,0 -0,0 0,0 -0,0l0 0 0 0c0,0.01 0,0.01 0.01,0.01 0.01,0 0.01,0 0.02,-0 0.01,-0 0.01,-0 0.01,-0.01 0,-0.02 0,-0.01 0,-0.02l0 -0c-0,-0 -0,-0 -0,-0.01l-0 -0c-0,-0 -0,-0.01 -0.01,-0.01 -0,-0 -0,0 -0.01,0 -0,-0 -0.01,0 -0.01,0z"/>
   <path class="fil4" d="M0.06 0.48c0,0 0,0 0,-0 -0,-0 0,-0 -0,-0.01 -0,-0 0,0 -0,-0 0,-0 0,-0 0,-0l-0 -0c0,-0 0,-0 -0,-0l-0 -0c0,-0 0,-0 -0,-0l0 0 -0 0 0 -0c-0,0 -0,0 0,0 -0,0 0,0 -0,0 -0,0 0,0 -0,0l0 -0 -0 -0c-0,-0 -0,-0 -0.01,-0 -0,-0 -0,-0 -0.01,0l-0 -0 -0 0c0,-0 0,-0 0,-0 -0,-0 -0,-0 -0,0 -0,0 -0,0 -0,0l0 -0c-0,0 -0,0 0,0 -0,0 0,0 0,0 -0,0 0,0 -0,0 0,-0 0,-0 0.01,-0l0 -0c0,0 0,0 0.01,0 0,0 0,0 -0,0 -0,0 -0,0 -0,0l0 0c-0,-0 -0,-0 -0,-0 0,0 0,0 0,0l-0 -0 -0 0c-0,0 -0,0 -0,0l-0 0c0,-0 -0,-0 0,-0 -0,-0 -0,-0 -0,-0 -0,0 -0,0 -0,0 0,0 0,0 -0,0 0.01,0 0,-0 0.01,-0 0,0 0,0 0,0 -0,0 0,-0 -0.01,-0 -0,0 -0,0 0,0 -0,0 -0,-0 -0,0 0,0 0,0 0,0 0,0 0,-0 -0,0 -0,0 -0,0 -0,0 -0,-0 -0,-0 -0,-0 0,-0 0,-0 0,0 -0,-0 -0,-0 -0,-0l0 -0c-0,-0 -0,-0 -0,-0l0 -0c-0,0 -0,-0 -0,-0l-0 0c0,0 -0,0.01 -0,0.02 -0,0 -0,0 -0,0 -0,0 0,0 -0,0.01 0,0 0,0 0.01,0.01 0,-0 0,0 0,-0 0,-0 0,-0 0.01,0 0.01,-0 0.01,-0.01 0.01,-0.01l-0 -0c-0,0.01 -0,0.01 -0.01,0.01 0,0 0,0 -0.01,0 0,-0 0.01,0 0.01,-0 0,-0 0,-0.01 0,-0.01l0 0c0,-0.01 -0,-0 0,-0.02l0 0c0,-0 0,-0 0,-0zm-0.01 0.01l-0 0 -0 -0 0 -0 0 0zm-0 -0c-0,0 -0,0 -0.01,0l-0 -0c-0,0 -0,0 -0,-0 0,-0 0,-0 0.01,-0 -0,0 -0,-0 -0,0 0,-0 0,-0 0,-0zm-0.01 -0.02c0,0 0,0 -0,0l0 -0z"/>
   <path class="fil4" d="M0.05 0.03l0 -0.01c-0,-0 -0,-0 -0,-0 0,-0 0,-0.01 0.01,-0.01 0.01,-0.01 0.01,-0 0.01,-0 0,-0 0,-0 -0,-0 0,-0 0,-0 0,-0l-0 -0c-0.01,-0 -0.01,0 -0.02,0.01 -0.01,0.01 -0.01,0.01 -0.01,0.02 -0,-0 0,-0 0,-0 0,0 -0.01,0.02 -0.01,0.02 -0,0.01 -0.01,0.01 -0.01,0.01 -0,0 -0,0 -0,0l0.01 -0.01c0,-0 0,-0 0,-0l-0 -0c0,-0 0,-0 0.01,-0 0,0 0,0 0,0 0,0 0,-0 0,0 0,-0 0,-0 0,-0 0,0 -0,0 -0,0.01 -0,-0 -0,-0 -0,-0 -0,0 -0,-0 -0,-0 -0,-0 -0,0 0,-0l-0 0c-0.01,0.02 -0.02,0.01 -0.02,0.03l0 0 0 0c-0,-0 0,-0.01 0.01,-0.02 0,-0 0,-0 0,-0 0,-0 0,-0 0,-0 -0,0 -0,0 -0.01,0.01 -0,0 -0,0.01 0,0.01 -0,-0.01 0,-0.01 0,-0.01 0,0 0,-0 0,0 0,0 0,0 0,0l0 0c0,0 0,0 0,0 0,0 0,0 0,0l-0 0c-0,-0 -0,-0 -0,-0 -0,0 -0,0 -0,0 0,0 -0,0 0,0.01 0,-0 -0,-0 0,-0.01l0 0.01 0 -0c-0,-0 -0,-0 0,-0.01 0,0 0,-0 0,0l0 0 0 -0c-0,-0 0,-0.01 0.01,-0.01 -0,0 -0,0.01 -0,0.01 0,-0 0,0 0,-0l-0 -0c0.01,-0.01 0,-0.01 0,-0.01 0,-0 0,-0 0,-0 0,-0 -0,-0 0,-0 -0,0 -0,0.01 -0.01,0.01 0,-0 0.01,-0.01 0.01,-0.01 -0,0 -0,0 -0,0l-0 -0c-0,0 -0,0.01 -0.01,0.01 0,-0 0,-0.01 0.01,-0.01 -0,0 -0,0 -0,0 0,-0.01 0.01,-0.01 0,-0.02 -0,0 -0,0 -0,0 0,-0 0,-0.01 0.01,-0.01 0,0 0,-0 0,0l0 -0c0,0 0,-0 0,0l0 -0c0,0 0,0 0,0zm-0.03 0.03l-0 0 0 -0zm0.04 -0.04c-0,-0 -0,-0 -0,0 -0,-0 -0,-0 -0,0 -0,-0 -0,-0 -0,0 -0,-0 -0,-0 -0,0 -0,-0 -0,-0 -0,0l-0 0c0,-0 0,0 0,-0 0,-0 0,0 0,-0 0,0 0,0 0,-0 0,0 0,0 0,-0 0,0 0,0 0,-0 0,0 0,0 0,-0l0 -0c0,-0 0,0 0,-0 -0,0 -0,-0 -0,0l-0 0z"/>
   <path class="fil3" d="M0.05 0.08l-0.01 0 0 0c0,0 0.01,0 0.02,0 -0,0 -0.01,-0 -0.01,-0 0,0 0,0 0.01,0.01 0,0 0.01,0 0.01,0 0.01,0 0.02,-0 0.02,-0.01 -0,0 -0.01,0 -0.01,0 0,-0 0,-0 0.01,-0 0,-0.01 -0,-0.01 -0,-0.01l0 -0c-0,-0 -0,-0 -0,-0 -0,0 -0,0 -0,0.01 -0,0 -0,0 -0,0 0,-0 0,-0 0,-0.01 -0,-0 -0.01,0 -0.01,-0 -0,0 0,0 0,0.01 -0.01,-0.01 -0,-0.01 -0.01,-0.01 -0,0 -0,0.01 -0,0.01 -0,-0 -0,-0 -0,-0z"/>
   <path class="fil5" d="M0.12 0.13l-0 -0 -0 0 -0 0c0,0 0,0 -0,0l-0 -0c-0,0 0,0 -0,0 -0,0 -0,0 -0,0 -0,0 0,0 -0,0 -0,0.01 -0,0.01 -0,0.01 0,0 0,0.01 0,0.01 0,0.01 0,0.02 0,0.03 0,0.01 0.01,0.04 0.01,0.05 0,-0 0,-0 0,-0.01 -0,-0 -0,-0.01 -0,-0.01 -0,-0.02 -0.01,-0.03 -0.01,-0.04 -0,-0 0,-0.01 -0,-0.02 -0,-0.01 -0,-0.03 -0,-0.03 0,-0 0.01,-0.01 0.01,-0 0,0.01 0,0.02 0,0.03 0,0.01 0,0.01 0,0.02l0 0.06c-0,0 -0,0.01 -0,0.01 0,0.01 0,0.01 0,0.02 -0,0 0,0 -0,-0l-0 0.01 0 -0c-0,0 -0,0.01 -0,0.01 -0,0 -0,0 -0,0.01l-0 0c0,-0 0,-0 0.01,-0.01 0,-0 0.01,-0.01 0.01,-0.01 0,-0 -0,-0.01 -0,-0.02 -0,-0.01 0,-0 -0,-0.02 -0,-0.01 -0,-0.01 -0,-0.02 -0,-0.01 -0,-0.02 -0,-0.04 -0,-0.01 -0,-0.01 -0,-0.02 -0,-0 -0,-0.02 0,-0.02 -0,-0 -0,-0.01 -0,-0.01l-0.01 0zm0 0.16c0,-0 0,0 0,-0l-0 0zm0.01 -0.01c-0,0 -0,-0 -0,0 0,-0 0,0 0,-0zm0 -0c-0,0 -0,-0 -0,0 0,-0 0,0 0,-0zm0 -0c0,0 0,0 0,-0 -0,0 -0,-0 -0,0z"/>
   <path class="fil4" d="M0.1 0.51c0,0 0,0 0,-0 -0,-0 -0,0 -0,-0l0 0c0,0 0,0 0,-0 -0,-0 -0,0 -0,-0l0 0 0 0 -0 0c0,-0 0,0 0,-0 -0,-0 -0,-0 -0,-0 -0,-0 0,0 -0,-0 -0,-0 0,0 -0,-0l-0 0.01c-0.01,0 -0.01,0 -0.02,-0 0,0 0.01,0 0.01,0 0.01,0 0.01,-0 0.01,-0.01 -0,-0 -0,-0 -0,-0l0 0 -0 -0.02 -0 -0c0,0.01 0,0 0,0 -0,0 -0,0 -0,-0 -0,0.01 0,0 0,0.01 -0,0 -0,-0 -0,0 0,0 -0,0 0,0l-0 0c0,0 0,0 0,0l0 0 -0 -0c-0,-0 -0.01,-0 -0.01,-0 -0,0 -0.01,0 -0.01,0 -0,0 -0,0 0,0.01 -0,-0 0,-0 -0,-0l-0 0c0,-0 0,-0 -0,-0 -0,0 -0,-0 -0,0 -0,0 -0,0 0,0.01 -0,0 -0,0 0,0 -0,-0 0,-0 -0,-0 0,-0 -0,-0 -0,-0 0,-0 -0,-0 0,-0 0,0 0,0.01 0.01,0.01l0 -0 0.01 0 0 0 0 -0 0 0c0,-0 0,-0 0,-0 0,0 0,0 0,-0 0,0 0,0 0,-0 -0,0 -0,-0 -0,0 -0,-0 -0,-0 -0,0l-0 0c0,-0 0,-0 0,-0 0,-0 0,-0 0,-0z"/>
   <path class="fil0" d="M0.13 0.11c-0,-0.01 -0,-0.01 -0.01,-0.02l-0 -0c-0,0 -0,-0 -0,0.01 -0,0 -0,0 -0,0.01 -0,0 -0,0.01 -0,0.01 0,-0 0,-0 0,-0.01 -0,0 -0,0.01 -0,0.01 0,-0 0,-0 0,-0 -0,0 -0,0 -0,0.01 0,-0 0,-0 0,-0.01 -0,0.01 -0.01,0.01 -0.01,0.02 0,-0 0.01,-0 0.01,-0.01 -0,-0 -0,-0.01 -0,-0.01zm-0.01 0.02l0 -0c0,-0 0.01,-0 0.01,-0 -0,-0 -0.01,-0 -0.01,0 0,0 -0,0 0,0zm0 -0c-0,0 -0,-0 -0,0l0 -0z"/>
   <path class="fil4" d="M0.1 0.07c0,0 0,0 0,0 -0,-0 -0,-0 -0,-0zm-0.01 -0c0,0 0,-0 0,0 0,0 0,0 0,0l-0 -0zm0.01 -0.02l0 0 -0 0 -0 -0c-0,-0 -0,-0 -0,-0.01 -0,-0 -0,-0.01 -0,-0.01 0,0 0,0.01 0,0.01 -0,-0 -0,-0 -0,-0.01 -0,0 -0,0 -0,0l0 0.01c-0,-0 -0,-0 -0,-0l-0 0c0,0.01 0,0 0,0.01 0,0 0,0 0,0 -0,0 -0,-0 -0,0 -0,-0 -0,-0 -0,-0.01l-0 0 0.01 0.02 0 -0c0,-0 0,-0 0,-0l0 0c0,-0.01 -0,-0.01 -0,-0.01 -0,-0 -0,-0 0,-0 0,0 0,0.01 0,0.01 0,0 0,-0 0,-0.01 0,0.01 -0,0.01 0,0.01 0.01,-0 -0,-0.02 -0.01,-0.02 -0,-0 -0,-0 -0,-0.01 0,0 0.01,0.01 0.01,0.01 0.01,0.01 0.01,0.01 0.01,0.02 0,-0.01 0,-0.01 -0,-0.02 -0,-0.01 -0.01,-0.01 -0.01,-0.01 0,0 0.01,0.01 0.01,0.01 0,0 0.01,0.01 0.01,0.01 0,-0.01 -0.01,-0.02 -0.01,-0.02l0 -0z"/>
   <path class="fil5" d="M0.05 0.07l0 0.01 -0 0c0,0 -0,0 0,0 0,-0 0,-0.01 0,-0.01 0,-0 0,-0 0.01,0.01 -0,-0 -0,-0 -0,-0.01 0,0 0.01,0 0.01,0 0,0 -0,0 -0,0.01 0,-0 0,-0 0,-0 0,-0 0,-0.01 0,-0.01 0,0 0,0 0,0l-0 -0.01c-0,0 -0.01,0.01 -0.02,0 0,-0 0.01,0 0.02,-0.01 0,-0 0,-0 0,-0.01 0,-0 0,-0.01 0,-0.01 0,-0 -0,-0.01 -0,-0.01 0,-0 0,-0 -0,-0 -0,0.01 0,0 -0,0.02 -0,0.01 -0,0.01 -0.01,0.01 -0.01,0 -0.01,0 -0.02,0 -0.01,-0 -0.01,-0.01 -0.01,-0.01l-0 -0 0 0c0,0 0,0.01 0,0.01 0,0 0,0 0.01,0 0,0 0,0 0.01,0 -0,0 -0,-0 -0.01,-0 -0,-0 -0,-0 -0,-0l-0 0z"/>
   <path class="fil4" d="M0.07 0.28l0 -0.02c0,-0 -0,-0 0,-0l-0 -0c0,-0 0.01,-0.01 0.01,-0.01l0 -0c-0.01,-0 -0.01,0 -0.01,0l-0 -0c-0,-0 -0,-0 -0,-0l-0 0.01c-0,-0 -0,-0 -0,-0l0 0 -0 0.03c-0,0.01 -0,0.03 -0,0.03 0,-0 0,-0.03 0,-0.03 0,-0.01 0,-0.03 0,-0.03 0,-0 0,0 0.01,-0l-0 0c-0,0.01 -0,0.02 0,0.02zm-0.02 -0.04l0 0 0 0 0.01 0c0,0 0,0 0,0 -0,-0 -0,-0 -0.01,-0.01 -0,-0 -0.01,-0 -0.01,-0l0 0z"/>
   <path class="fil5" d="M0.01 0.24c-0,-0.01 0.01,-0.04 0.01,-0.05 0,-0.01 0,-0.02 0,-0.03 0,-0.01 0,-0.02 -0,-0.03l-0.01 -0c0,0 0.01,0 0.01,0.01 0,0.01 -0,0.03 -0,0.04 -0,0.01 -0,0.02 -0,0.02l-0.01 0.03c-0,0 -0,0.01 -0,0.01 0,0 0,0 -0,0 -0,0.01 -0,0.01 0,0.01z"/>
   <path class="fil4" d="M0.08 0.02c0,-0 0,-0 -0,-0l0 0c0,0 0,0 0,0.01 0,-0 0,-0 0,-0 0,0 0,-0 0,0 0,0 0,0 0,0l0 -0 0 0c0,-0 -0,-0.02 -0.01,-0.02 -0,-0.01 -0.01,-0.01 -0.02,-0.01 0,0 0,0 0,0.01 0.01,0 0,-0 0.01,0l0.01 0.01c0,0 0,0 0,0l-0 -0z"/>
   <path class="fil4" d="M0.12 0.09l0 0c0,-0 0,-0 -0,-0l-0 -0 0 0c-0,0 -0,0.02 -0.01,0.02 -0,-0 -0,-0 -0,0l-0 0c0,0 -0,0 -0,0 0,0 -0,0 0,0l0 -0 0 -0c-0,0 0,0 0,0 0,0 -0,0 -0,0 -0,0 0,0.01 0,0.01 0,0 0,0 0,-0 -0,-0 -0,0 -0,-0 0,-0 0.01,-0.01 0.01,-0 -0,0 -0.01,0 -0.01,0l-0 0 0.01 -0c-0,0 -0,0.01 0,0.01 0,-0 0,-0.01 -0,-0.01 0,-0 0,0 0,-0 -0,-0 -0,-0.02 -0,-0.02 0,0 0,0.01 0,0.01 -0,0 -0.01,0 -0.01,0.01 -0,-0.01 0,-0.01 0.01,-0.02 -0,0 -0,0.01 -0,0.01 0,-0 0,-0 0,-0.01 -0,0 -0,0 -0,0 -0,-0 0,-0.01 0,-0.01 -0,0 -0,0.01 -0,0.01 -0,-0 0,-0.01 0,-0.01 0,-0 0,-0 0,-0.01 0,-0.01 0,-0.01 0,-0.01zm-0 0.04l-0 0c0,-0 0,0 0,-0zm-0 0l-0 0c0,-0 0,0 0,-0z"/>
   <path class="fil1" d="M0.07 0.23l-0 0 0 -0c0,0 0,0 0,0.01 0,-0 -0,-0 0,-0 0,-0 0,-0.01 -0,-0.01 0,-0 0,-0.01 0,-0.01 -0,-0 -0,-0 -0.01,0l-0 0.02z"/>
   <path class="fil4" d="M0.08 0.48c-0,-0 -0,-0 -0.01,-0 -0,0 -0,0 0,0 0,0 -0,-0 -0,0l0 0.02c0,-0 0,-0 0,-0 -0,0 0,0 0,0 -0,-0 -0,0 -0,-0 0,-0 0,0 0,-0l-0 0c0,-0 0,-0 0,-0 0,-0 0,-0 0,-0l-0 -0c-0,-0 -0,-0 -0,-0l-0 -0c0,-0 0,0 0,-0 -0,-0 0,-0 -0,0l-0 -0c0,-0 0,0 0,-0z"/>
   <path class="fil6" d="M0.08 0.51c0,0 0,-0 0,0 0,0 0,0 0.01,0.01 0,-0 0.01,-0 0.02,-0 0,-0 0,-0 0,-0.01l0 -0 -0 -0 0 0c-0,0 0,0 -0,0l0 0c-0,0 0,0 -0,0l0 -0c-0,0 0,0 -0,0 0,0 0,0 -0,0 -0,0 -0,0 -0,0l-0 -0 -0 0 -0 -0 -0.01 0 -0 0c-0,-0 -0.01,-0.01 -0.01,-0.01 -0,0 -0,-0 -0,0 0,0 0,0 0,0z"/>
   <path class="fil1" d="M0.05 0.2c0,0 0,0 -0,0l-0 0 0.02 -0 0 -0.01 -0.01 0z"/>
   <path class="fil5" d="M0.01 0.17l0 -0c0,-0.01 -0,-0.04 0,-0.04l0.01 0c-0,-0 -0.01,-0 -0.01,-0 -0,0.01 0,0.03 -0,0.04z"/>
   <path class="fil5" d="M0.06 0.06c0,0 0,-0 0,0l0.01 0 0 -0 0 -0 -0 0c0,-0 0,-0 0,-0 -0,-0 -0,-0 -0.01,-0 0,-0 0,-0 0,-0 0,0 0,0 0,-0l-0 -0c-0,0 -0,0 -0,-0l-0 -0c-0,0 0,0 -0,0l0 0c0,0 0,0 0,0l-0 0c-0,0 -0,0 -0.01,0 0,-0 0,-0 0.01,-0 0,-0 0,0 0.01,0 -0,0 -0,-0 -0.01,0z"/>
   <path class="fil4" d="M0.08 0.47l-0 0 0 0c0,0 0.01,0 0.01,0l0 -0 -0 -0 0 0c-0,-0 -0,-0 -0.01,-0 -0.01,0 -0.01,0 -0.01,0z"/>
   <path class="fil4" d="M0.12 0.23c-0,-0.01 -0,-0.01 -0,-0.01 -0,-0 -0,-0.01 -0.01,-0.01 0,0 0,0 0,0 -0,-0 -0.01,-0 -0.01,-0 0.01,0 0.01,0 0.01,0.01 -0.01,-0 -0.01,-0.01 -0.02,-0.01l0 0c0,0 0,0 0.01,0.01 0,0 0.01,0 0.01,0 -0,0 0,0 -0,0l0 0 0 0.01z"/>
   <path class="fil5" d="M0.09 0.09l0 -0c0,-0 0,-0 -0,-0 -0,-0 -0,-0 -0.01,-0l0 -0 -0 0c-0,0 0,0.01 0,0.01 -0,0 -0,-0 -0.01,0 0.01,0 0.01,-0 0.01,-0z"/>
   <path class="fil4" d="M0.02 0.22l-0 0.01c0,-0 0,-0 0,-0 0,-0 0,0 0,-0 0,0 0,0 0,-0l-0 -0c0,-0 0.01,-0 0.01,-0 0,-0 0,-0 0,-0l-0 0c0.01,-0 0.01,-0 0.01,-0.01l-0 -0 0 -0c0,0 -0,0 0,0l0 -0.01c-0,-0 -0,-0 -0.01,0l0 0c-0,0.01 -0.01,0.01 -0.02,0.01z"/>
   <path class="fil6" d="M0.04 0.51l-0 0c0,0 0.01,-0 0.01,0 0,-0 0,-0 0.01,-0 0,-0 0,-0.01 0,-0.01 -0,0 -0,0.01 -0.01,0.01 -0,-0 -0,-0 -0.01,-0z"/>
   <path class="fil4" d="M0.04 0.21c-0,-0 -0,-0.01 0,-0.01 0,0 0,0 0,0 -0,0 0,0 -0,0zm-0.01 -0.01l0 -0c0,0 -0,0 -0,0.01 0,-0 0,0 0,-0l0 -0 0.02 0c-0,-0 -0,-0 -0,-0l-0.02 0 0 -0c0,0 0,0 0,-0 -0,-0 -0,-0 -0,0l-0 -0 -0 0 0 0c-0,0 -0.01,0 -0.01,0zm0.03 0l0 0 -0 -0z"/>
   <path class="fil5" d="M0.08 0.04c-0,0 -0.01,0 -0.01,-0l0 0c-0,-0 -0,-0 -0,-0 0,-0 0,-0 0,-0l-0 -0 -0 -0c-0,0 0,0 -0,0 -0,0 -0,-0 -0,-0 -0,0 -0,0 -0,0.01 0,-0 0,0 0,-0l-0 0c0.01,0 0,0 0.01,0 0,-0 0,0 0,-0z"/>
   <path class="fil7" d="M0.08 0.07l-0 0 0 0 -0 -0.01c0,-0 0,-0 0,-0 -0.01,0.01 -0.02,0.01 -0.02,0.01 0.01,0 0.01,-0 0.02,-0l0 0.01zm-0.03 -0.01l0 0 0 -0c0,0 0,0 0,0 0,0 0,0 0.01,0 -0,-0 -0,-0 -0.01,-0 -0,-0 -0,-0 -0.01,-0z"/>
   <path class="fil5" d="M0.06 0.03c0,-0 0,-0 -0,-0 0,0 -0,0 0,0l-0 0 -0.01 -0c0,0 0,0 0,0l-0 0c0,-0 0,-0 0,-0 0,0 0,-0 0,0 0,-0 0,-0 0,-0 0,0 0,0 0,0 0,-0 0,-0 -0,-0.01 -0,-0 -0,-0 -0,-0z"/>
   <path class="fil5" d="M0.09 0.04l0 0 -0 0.01c0,0 -0,-0 0,0l-0 0 -0 0 0 -0c-0,-0 -0,-0 0,-0 0,-0 0,-0.01 0,-0.01l-0 -0 -0 0 -0 -0 0 0 -0 -0 -0 0c0,0 0,0 -0,0z"/>
   <path class="fil8" d="M0.05 0.05l0 0 -0 -0 -0 -0 0 0 0 -0c-0,-0 0,-0 -0,-0 -0,-0 -0,-0.01 -0,-0.01 -0,0 -0,0.01 0,0.01 0,0 0,0 0,0l0 0 0 -0c-0,-0 -0,0 -0,-0 0,-0 -0,-0 0,-0 0,0 0,0 0,0.01l0 0z"/>
   <path class="fil9" d="M0.09 0.05l0 -0 0 0 0 -0c0,0 0,0 0,-0 -0,0 -0,-0 -0,0l-0 0 0 -0 0 -0c-0,-0 -0,0 -0,-0l0 -0.01 -0 0c-0,-0 0,-0.01 -0,-0.01 -0,0 0,0.01 0,0.01 -0,0 -0,0.01 -0,0.01zm0.01 -0.01c0,-0 0,-0 0,-0l-0 -0 0 0 0 -0 0 0zm-0 -0c0,0 0,0 0,-0 -0,0 -0,-0 -0,0z"/>
   <path class="fil5" d="M0.01 0.28l0 0 -0 -0c0,0.01 0.01,0.01 0.01,0.01 0,-0 0,-0 0,0l0 0 0 -0c-0,-0 -0,-0 -0,-0l0 -0c0,-0 0,-0 -0,-0 -0,0 0,0 -0,0l0 -0 0 0c-0,-0 -0,-0 -0,-0l0 0c-0,-0 -0,-0.01 -0.01,-0.01z"/>
   <path class="fil10" d="M0.04 0.51c0,0 0,0 0,0l-0 0c0,0 0.01,0 0.02,0 -0,-0 -0.01,0 -0.01,-0l0 -0c-0,0 -0,0 -0,0z"/>
   <path class="fil8" d="M0.08 0.47l0 -0c0,-0 0.01,-0 0.01,-0l0 0 0 -0 0 0 0 -0c-0,-0 -0,-0 -0.01,-0l-0.01 0c-0,0 -0.01,0 -0.01,0l0 -0z"/>
   <path class="fil4" d="M0.08 0.21l0 -0.01 0 -0c-0,-0 -0,-0 -0.01,-0 -0,0 -0,-0 -0.01,0 0,0 0,0 0.01,0 0,0 -0,0 0,0l0 -0 0 0.01z"/>
   <path class="fil10" d="M0.1 0.52c-0,0 -0.02,-0 -0.02,0 0,0 0.01,0 0.02,-0z"/>
   <path class="fil8" d="M0.12 0.29l-0 0 0 -0 -0 0 -0 0 0 0c-0,0 -0,-0 -0,0 0,0 0,0 0,-0 0,-0 0.01,-0.01 0.01,-0.01 -0,0 -0,0 -0.01,0.01l0 -0 -0 0 -0 -0 -0 0 0 0c0,0 0,0 -0,0 -0,0 -0,0 -0,0 0,-0 0,-0 0,-0z"/>
   <path class="fil5" d="M0.04 0.05l0 0c0,-0 0,-0 -0,-0zm0 0c0,0 0,0 0,0 0,-0 0,-0 0,-0l-0 0 -0 -0 -0 -0c0,-0 0,-0 -0,-0.01 -0,0 -0,0 -0,0 0,0 -0,0 0,0l-0 0 0 0zm0 -0c0,-0 0,0 0,-0 0,-0 -0,-0 -0,-0l-0 -0 0 0c0,-0 0,-0 0,0l0 0z"/>
   <path class="fil2" d="M0.05 0.03c0,0 0,0 -0,0 0,0 0,0 -0,0l-0 0 0 -0 0 -0 0.01 0 0 -0c-0,0 -0,0 -0,-0 -0,0 -0.01,-0 -0.01,0z"/>
   <path class="fil7" d="M0.01 0.28c0,0 0,0.01 0.01,0.01l-0 -0c-0,-0 -0,-0.01 -0.01,-0.02 0,0 0,0.01 0,0.01zm0.01 0.01l0 0 -0 -0 -0 0c0,0 0,0 0,-0zm0 0.01l0 -0c0,0 0,0 0,-0 -0,-0 -0,-0 -0,0l-0 -0 -0 -0 -0 -0 0 -0 -0 0c0,0 0,0 0,0zm-0 -0c0,-0 0,-0 -0,-0 -0,0 -0,0 0,0z"/>
   <path class="fil5" d="M0.05 0.09c0,0 0.01,0 0.01,0 -0,-0 -0.01,-0 -0.02,-0l0 0z"/>
   <path class="fil8" d="M0.07 0.05c-0,-0 -0,0 -0,-0l0 -0 -0 0c0,0 0,0 0,0l0 0 0 -0c0,-0 0,-0 0,-0 -0,0 -0,0 -0,0l-0 -0 -0 0c-0,-0 -0,-0 -0,-0l-0 -0 -0 0c-0,0 -0,-0 -0,0l0 -0c-0,0 -0,0 0,0.01l-0 -0c0,0 0,0 0,-0zm0 -0c0,-0 -0,-0 0,0l-0 -0z"/>
   <path class="fil6" d="M0.03 0.52l0 -0c-0,-0 0,-0 -0,-0 -0.01,-0 -0,-0 -0.01,-0.01 0,0.01 -0,0.01 0.01,0.01z"/>
   <path class="fil9" d="M0.06 0.05l-0 0 0 0c0.01,-0 0.01,0 0.01,-0 -0,-0 -0,-0 -0.01,-0 -0,0 -0,0 -0.01,0zm0.01 0c-0,-0 0,-0 -0,-0 -0,0 -0,-0 -0,0l0 -0z"/>
   <path class="fil4" d="M0.06 0.46c0,-0 0,-0 0,-0.01l-0 -0 -0 0c0,0 0,0 0,0z"/>
   <path class="fil11" d="M0.06 0.48c-0,0 0,0 -0,0 -0,0 -0,0 -0,0.01 0,-0 0,-0.01 0,-0.01l-0 0z"/>
   <path class="fil4" d="M0.1 0.49c-0,-0 -0,-0 -0.01,-0 0,0 0,0 0,0 0,0 0,-0 0,-0z"/>
   <path class="fil4" d="M0.06 0.36l-0 -0c0,-0 0,-0 0,-0.01l-0 -0c-0,0 -0,0 -0,0.01 -0,0 -0,0 0,0.01z"/>
   <path class="fil4" d="M0.06 0.47l0 0c0,-0 0,-0.01 0,-0.01l-0 0c-0,-0 -0.01,-0 -0.01,-0 0,0 0,-0 0.01,0 0,0 0.01,0 0,0.01z"/>
   <path class="fil7" d="M0.13 0.27l-0 0c0,0 0,0 -0,0l-0 0c0,0 0,0 -0,0l0 0c-0,0 0,0 -0,0 -0,0 -0,0 -0,0.01l0 0 0 -0c0,-0 0,-0 0,-0.01 0,-0 0,-0.01 0,-0.01l-0 0zm-0.01 0.02c0,0 -0,0 -0,0 0,-0 0,-0 0,-0l0 -0 -0 -0 -0 0z"/>
   <path class="fil2" d="M0.08 0.03l0 0 0 -0 0 0 -0 -0c-0,0 -0,0 -0,-0 -0,-0 -0,-0 -0.01,-0l-0 0 0 0zm0.01 0l0 -0 -0 0 0 0z"/>
   <path class="fil8" d="M0.04 0.46l-0 0 -0 0 0 0c0,-0 0,-0 0.01,-0 0,0 0.01,0 0.01,0l0 -0 0 -0 -0 -0c-0,-0 -0.01,-0 -0.01,0z"/>
   <path class="fil0" d="M0.05 0.21c0,-0 0.01,-0 0.01,-0 0,0 0,-0 0,0 -0,0 -0,0 -0.01,0 0,0 0.01,0 0.01,0l0 -0.01 -0.02 -0 -0 0z"/>
   <path class="fil2" d="M0.04 0.49c0,0 -0,0 0,0l0 0c0,-0 0,-0 0.01,-0 -0,-0 -0,-0 -0,0 -0,-0 0,0 0,-0 -0,-0 -0,-0 -0.01,0z"/>
   <path class="fil4" d="M0.11 0.35l0 0 0 -0.01 -0 -0 -0 0c-0,-0 -0,0 -0,-0l0 0zm0 0l-0 -0c0,0 -0,0 0,0z"/>
   <path class="fil8" d="M0.12 0.28l0 0c-0,-0 -0,-0 0,-0 0,-0 0,-0 0,-0l0 0c0,-0 0,-0 0,-0.01l-0 0 -0 -0 0 -0c-0,0 -0,0 -0,0.01z"/>
   <path class="fil4" d="M0.07 0.2c0,-0 0,-0 0,0l0 0 0 0c0,0 -0,0 0,0l0 -0c0,-0 0,-0 0,-0l-0 -0 0 -0c-0,0 -0,-0 -0,0l0 0 0 0 -0 0c0,-0 0,-0 -0,-0l0 -0 0 -0c-0,-0 -0,-0 -0,0z"/>
   <path class="fil1" d="M0.04 0.21c0,-0 0,0 0,-0 0,-0 0,-0 -0,-0 -0,0 -0,0.01 -0,0.01z"/>
   <path class="fil4" d="M0.05 0.04c0,0 0.01,-0 0.01,-0 -0,-0 0,-0 -0,-0 -0,-0 -0,0 -0,0l-0 0c-0,0 -0,-0 -0,0z"/>
   <path class="fil5" d="M0.01 0.26l-0 -0.01c0,0 -0,0 -0,0.01 -0,0 -0,0 0,0.01l-0 -0 0 -0 -0 -0.01 0 0z"/>
   <path class="fil4" d="M0.1 0.18l0 -0c0,-0 0,-0 0,-0 0,-0 -0,0 0,-0 0,-0 0,-0 -0,-0l0 0 -0 -0c-0,0 -0,-0 -0,0 0,0 0,0 0,0z"/>
   <path class="fil4" d="M0.09 0.48c-0,-0 -0,-0 -0.01,-0 0,0 -0,0 0,0 0,0 0,-0 0,-0z"/>
   <path class="fil9" d="M0.05 0.05l0 0 0 -0c0,0 0,0 -0,0 -0,-0 -0,-0 -0,-0l0 0 0 0 -0 -0 -0 -0 -0 -0 -0 0 -0 -0 0 0z"/>
   <polygon class="fil2" points="0.05,0.49 0.05,0.49 0.05,0.49 0.05,0.49 "/>
   <path class="fil2" d="M0.08 0.04l0 -0 -0 -0 -0 -0c0,0 0,0 0.01,0z"/>
   <path class="fil8" d="M0.02 0.27l0 0 0 0 0 -0c-0,0 -0,0 -0,0 -0,-0 -0,-0 0,-0 0,0 0,0 0,0l0 -0 -0 -0 0 0c-0,0 -0,0 -0,0z"/>
   <path class="fil9" d="M0.07 0.2l-0 0c0,0 0,-0 0,0l0 -0 -0 -0 -0 -0 -0 0z"/>
   <path class="fil6" d="M0.08 0.49l0 0 0 -0 -0 -0c-0,0 -0,0 0,0.01z"/>
   <path class="fil3" d="M0.12 0.28l0 0 0 -0c-0,0 -0,-0 -0,0 -0,0 -0,0 -0,0z"/>
   <path class="fil7" d="M0.07 0.03c0,0 0,0 0,0 0,-0 0,-0 0,-0l-0 -0 0 -0 -0 0 -0 0z"/>
   <polygon class="fil7" points="0.01,0.27 0.01,0.27 0.01,0.27 0.01,0.26 0.01,0.26 "/>
   <path class="fil9" d="M0.12 0.26c0,0 0,0 0,0 -0,-0 0,-0 -0,-0.01l-0 0z"/>
   <path class="fil3" d="M0.05 0.47l0 -0c0,-0 0,-0 0,-0 -0,0 -0,0 -0,-0l-0 0 -0 0 0 0z"/>
   <path class="fil5" d="M0.02 0.29l0 0 0 0c-0,-0 -0,-0 0,-0l-0 -0 0 0 -0 -0c-0,-0 0,-0 -0,-0l0 0z"/>
   <path class="fil9" d="M0.11 0.14c0,-0 0,-0 0,-0 0,-0 0,-0 0,-0l-0 0 -0 0z"/>
   <path class="fil12" d="M0.08 0.49l0 0c0,-0 0,-0 0,-0l-0 0 -0 -0z"/>
   <path class="fil8" d="M0.05 0.03c0,0 0,0 0,-0 0,0 0,0 0,-0l-0 0c-0,-0 -0,-0 -0,0 -0,0 -0,0 -0,0l0 -0 -0 0 0 -0z"/>
   <path class="fil7" d="M0.1 0.47l-0 0 -0 -0c0,0 -0,0 0,0 0,-0 0,-0 -0,-0z"/>
   <path class="fil8" d="M0.05 0.04c-0,-0 -0,-0 0,-0 -0,-0 -0,-0 -0,0l0 0z"/>
   <path class="fil4" d="M0.08 0.47c-0,0 -0,0 -0,0 -0,0 -0,0 0,0l0 -0c0,-0 0,0 -0,-0z"/>
   <path class="fil4" d="M0.07 0.05l0 0 0 -0 -0 0c-0,0 -0,0 0,0z"/>
   <path class="fil9" d="M0.08 0.03l0 0 0 -0 -0 0 0 0 -0 -0 -0 -0 -0 -0c0,0 -0,0 0,0l0 0 -0 -0z"/>
   <path class="fil5" d="M0.08 0.47c-0,0 -0,-0 0,0 0,-0 0,-0 0,-0 -0,0 -0,0 -0,0z"/>
   <path class="fil0" d="M0.07 0.26c0,-0 0,-0 0,-0 -0,0 -0,0 -0,0z"/>
   <path class="fil3" d="M0.04 0.47c0,-0 0,0 0,-0l-0 0z"/>
   <path class="fil4" d="M0.07 0.05l0 0c-0,-0 -0,-0 -0,-0z"/>
  </g>
 </g>
</svg>
