<?xml version="1.0" encoding="UTF-8"?>
<!DOCTYPE svg PUBLIC "-//W3C//DTD SVG 1.1//EN" "http://www.w3.org/Graphics/SVG/1.1/DTD/svg11.dtd">
<!-- Creator: CorelDRAW -->
<svg xmlns="http://www.w3.org/2000/svg" xml:space="preserve" width="0.6604mm" height="1.6mm" version="1.1" style="shape-rendering:geometricPrecision; text-rendering:geometricPrecision; image-rendering:optimizeQuality; fill-rule:evenodd; clip-rule:evenodd"
viewBox="0 0 0.32 0.79"
 xmlns:xlink="http://www.w3.org/1999/xlink"
 xmlns:xodm="http://www.corel.com/coreldraw/odm/2003">
 <defs>
  <style type="text/css">
   <![CDATA[
    .fil3 {fill:#1D324C}
    .fil0 {fill:#241A14}
    .fil1 {fill:#3A557A}
    .fil2 {fill:#494A4E}
    .fil10 {fill:#563B25}
    .fil8 {fill:#827D78}
    .fil11 {fill:#986A44}
    .fil9 {fill:#A29C96}
    .fil7 {fill:#B98456}
    .fil6 {fill:#D2CCC5}
    .fil5 {fill:#E29D64}
    .fil4 {fill:#F6BB85}
   ]]>
  </style>
 </defs>
 <g id="Camada_x0020_1">
  <metadata id="CorelCorpID_0Corel-Layer"/>
  <g id="_1769171443024">
   <path class="fil0" d="M0.28 0.74c0,-0 0.01,-0.01 0.01,-0.02 0,-0 0.01,-0.02 0.02,-0.03 0,-0 0,-0 0,-0 0,-0 0,-0 0,-0 0,-0 0,-0 0,-0l0.01 0c-0,0.01 -0.01,0.02 -0.02,0.03 -0,0 -0,0 -0,0.01 -0.01,0.01 -0.01,0.01 -0.01,0.02 -0.01,0.02 -0.04,0.04 -0.05,0.04 -0,-0 -0,-0 -0,-0 0,-0 0.01,-0 0.01,-0.01 0.03,-0.02 0.02,-0.02 0.03,-0.03zm0.04 -0.05l0 0c-0,0 -0,0.01 -0.01,0.01 -0,0 -0,0 -0,0.01 -0,0 -0,0 -0,0 -0,0 -0,0 -0,0 -0,0.01 -0.01,0 -0.01,0.01l-0.01 0.01c-0,0 -0,0 -0,0.01 -0.01,0.01 -0.02,0.03 -0.04,0.03 -0.01,0 -0.02,-0.01 -0.01,-0.02 0,-0 0.01,-0.01 0.01,-0.01 0,-0.01 0,-0.03 0,-0.04l-0 0c0,0 0,0 -0,0.01 -0.01,-0 -0.01,-0.02 0,-0.02 -0,-0 -0,-0.01 -0,-0.01 -0,-0 -0,-0 -0,-0.01 -0,-0.01 -0,-0 -0,-0.02 -0.01,-0.01 -0.01,-0.01 -0.01,-0.02 -0.01,-0.02 -0.03,-0.04 -0.04,-0.06 -0,-0 -0,-0.01 -0.01,-0.01 -0,-0 -0.01,-0.01 -0.01,-0.01 -0,-0 -0.01,-0.01 -0.01,-0.01 -0.02,-0.02 -0.02,-0.03 -0.02,-0.05l0.01 -0.07 -0.03 0.02c-0,0 -0,-0 -0,0 -0,0 -0,0 -0,0 -0,0 0,0 -0,0 -0,0 -0,0 -0,0 0,0 0,0 0,0.01 0,0 -0,0 0,0.01 0,0 0,0 0,0.01 0,0 0,0.01 0,0.01 0.02,0.04 0.01,0.06 0.03,0.09 0,0.01 0,0.01 0,0.02 0.01,0 0,0 0.01,0.01 0,0.01 0,0 0,0.01 0.01,0 0.01,0.01 0.01,0.01 0,0.01 0.01,0.01 0.01,0.02 -0,0.01 -0.01,0.01 -0.01,0.02 -0.01,0.01 -0.02,0.01 -0.03,0.02 -0,0 -0,0 -0,0 -0.01,0.01 -0.01,0.01 -0.02,0.02 -0.01,0.01 -0.02,0.01 -0.04,0.01 -0,-0 -0,-0 -0,-0.01 -0,-0.01 0.02,-0.02 0.02,-0.03 0,-0.01 0.01,-0.02 0.01,-0.02 -0,-0 0,-0 -0,-0 0,0.01 0,0.01 -0,0.01 -0,-0 -0,-0.01 0,-0.01 0,-0 0,-0 0,-0l0 -0c-0,-0.01 -0,-0.01 -0,-0.01 -0,-0 -0,-0 -0,-0 -0,-0 0,-0 0,-0.01 -0,-0 -0.01,-0 -0.01,-0.01 -0,-0.01 -0,-0.01 -0,-0.01 -0,-0.01 -0.01,-0.02 -0.01,-0.03 -0.01,-0.02 -0.02,-0.03 -0.02,-0.05 -0.01,-0.03 -0.03,-0.05 -0.02,-0.08l0.01 -0.02c0,-0 0,-0.01 0.01,-0.01 0,-0 0,-0.01 0.01,-0.01 0.01,-0.02 0.03,-0.04 0.04,-0.06 0,-0 0,-0 0,-0 0,-0 0,-0.01 0.01,-0.01 0.01,-0.01 0.01,-0.01 0.01,-0.01 0.01,-0.01 0,-0 0.01,-0.01 0,-0 0,0 0,-0 -0,-0.01 -0,-0.01 -0,-0.01 -0,-0 -0,-0 -0,-0.01 -0,-0 0,-0.01 -0,-0.01 -0,-0 -0,-0 -0,-0.01 -0,-0 -0,-0.01 -0,-0.01 -0,-0 -0,-0.01 -0.01,-0.01 -0,0 -0.01,0.01 -0.01,0.01 -0.01,0 -0.01,-0 -0.02,-0.01 -0,0 -0,0 -0,0.01 -0.01,0.01 -0.02,0.01 -0.03,0 -0.01,-0.01 -0.02,-0.02 -0.03,-0.04l-0 -0.01c-0,-0.01 -0.01,-0.02 -0.01,-0.02 -0.01,-0.01 -0,-0.01 -0.01,-0.02 -0.01,-0.01 -0.02,-0.03 -0.02,-0.05 0,-0 0,-0 0,-0l-0 -0c-0,-0 0,0 0,-0 -0,-0 -0,-0 -0,-0.01 0,-0 0,-0 0,-0l0 -0.01c0.01,0 0,0 0.01,0 0,0 0,-0 0,-0 0.01,0 0.01,0.02 0.02,0.03 0,-0 0,-0 0,-0.01 0.01,0 0.01,0 0.01,0.01 0,0.01 0.01,0.02 0.01,0.03 -0,0 -0,0.01 -0,0.01 0,0.01 0.01,0.02 0.02,0.03 0,0 0,0.01 0.01,0.01 0,-0 0,-0.01 0,-0.01 0.01,-0.02 0,-0.02 0,-0.03 0,-0.01 0,-0.03 0.01,-0.04 -0,0 -0,0 -0.01,0 -0,-0 -0,-0 -0,-0 -0,-0 -0,-0 -0.01,-0.01 -0,-0 -0.01,-0 -0.01,-0.01 -0.01,0 -0.01,0 -0.01,-0.02 -0,-0.01 -0.01,-0.01 -0.01,-0.02 -0,-0.01 -0.01,-0 -0.01,-0.02 -0,-0 0,-0 0,-0.01 0,-0 0,-0.01 0,-0.01 0,-0 0.01,-0.01 0.01,-0.01 0,-0 0,-0.01 0.01,-0.01 0.01,-0.01 0.02,-0.01 0.03,-0.02 0.01,-0 0.03,-0 0.04,0 0,0 0,-0 0,-0 0,-0 0,-0 0,-0 0,-0 0,0 0,-0 0,-0 -0,-0 0,-0.01 0.01,-0.01 0.04,-0.01 0.05,0.01 0,0.01 0.01,0.02 0.02,0.02 0,0 0.01,0 0.01,-0 -0,0.01 -0.01,0 -0.02,0l0 0c0,0 0,0 0,0 0.01,0 0.01,0 0.02,0 0,0 0.01,0 0.01,0.01 0,0.01 0,0.01 -0,0.01 0,-0.01 -0,-0.01 -0.01,-0.01 -0,-0 -0.01,-0 -0.01,-0 -0,0 -0.01,-0 -0.01,-0l-0 0c0.01,0.01 0.02,0 0.02,0.01 -0,-0 -0,-0 -0.01,-0l0.01 0.01c0.01,0.01 0.01,0.02 0,0.03 -0,0 -0,0 -0,0 0,-0.01 0,-0.02 -0.01,-0.02 0,0 0,0 0,0.01 0.01,0.01 -0.01,0.03 0.01,0.02 -0,0 -0.01,0 -0.01,0.01 -0,0 0,-0 -0,0 -0,0 -0,0 -0,0l-0 0c-0,0 -0,0 -0,0 0,-0.01 0,-0.01 0,-0.01 -0,-0.01 -0,-0.01 -0.01,-0.01 0,0 0.01,0.01 -0,0.02 0,-0 0,-0.01 -0,-0.01 -0,-0 -0.01,-0.01 -0.01,-0.01l0 0c0,0 0,0 0.01,0.01 -0,-0 -0.01,-0 -0.01,-0.01 -0.01,-0 -0,-0 -0.01,-0.01 0,0 0,0 0,0.01 -0,-0 -0.01,-0 -0.01,-0.01 -0,-0 -0,-0 -0.01,-0.01 -0,-0 -0.01,-0.01 -0.01,-0.01l-0 -0c-0,0.01 -0,0.01 -0,0.01l0.01 0c-0,0 -0,0 -0,0 0.01,0.02 0.02,0.01 0.02,0.02 0,0 0.01,0 0.01,0.01 0.04,0.02 0.05,0.08 0.06,0.12 0,0.01 0,0.01 0.01,0.01 0.01,0.01 0,0.01 0,0.01 0,0 0,0 0,0.01 0,0 0,0.01 0.01,0.01 0.01,0.02 0.01,0.03 0.01,0.04 0,0.01 0.01,0.02 0.01,0.03 -0,0.01 -0.01,0.04 -0.02,0.05 -0.01,0.01 -0,0.01 -0.01,0.01 -0,0 -0,0 -0,0.01l-0.02 0.06c-0,0.01 -0.01,0.02 -0.01,0.03 -0,0 0,0 0,0.01 -0,0 -0,0 -0,0.01 0.01,0.01 0,0.01 0.01,0.01l0.01 0.01c0.02,0.02 0.02,0.06 0.03,0.07 0,0.01 0.01,0.01 0.01,0.02 0,0.01 -0,0.01 0,0.01 0,0 0.01,0 0.01,0.01 0,0 -0,0.01 0,0.01l0 0.01c0,0 0,0 0,0 0.01,0 0.01,0.01 0.02,0.01 0.01,0 0.01,0.01 0.01,0.01zm-0.05 0c-0,0 -0.01,0 -0.01,0 -0,-0 -0,-0 -0,-0l0.01 -0 -0 -0c-0,0 -0.01,0.01 -0.02,0.01 -0,-0 -0,-0 -0,-0.01 -0,-0 -0,-0 -0,-0.01 0,-0 0,-0.01 -0,-0.01 -0,-0 -0,-0 -0.01,-0 -0,-0 -0,-0.01 -0.01,-0.02l-0.03 -0.04c-0,-0 -0,-0 -0,-0.01 -0,-0 -0.01,-0.01 -0.01,-0.01 -0.01,-0.01 -0.01,-0.02 -0.02,-0.03 -0,-0 -0,-0 -0,-0 -0,-0.01 -0.01,-0.01 -0.01,-0.02 -0,-0 -0,-0 -0,-0.01 -0,-0.01 0,-0.05 0,-0.06 0,-0.01 0,-0.03 0,-0.04 0.01,-0 0.01,-0 0.01,-0.01 0,-0 0,-0 0.01,-0 0,-0 0,-0 0,-0 0,-0 0,-0 0,-0l0.01 -0.01c0,-0 0,-0 0,-0 0,-0 0,-0 0.01,-0.01l0.01 -0.01c0,-0 0,-0 0.01,-0 0,-0 0,-0 0.01,-0 0.01,-0 0.01,-0 0.02,0 0,0 0,0 0,0 0,0 -0,0 0,0 -0.01,-0 -0.01,-0 -0.02,-0 0,-0 0.01,-0 0.01,-0.01l0.01 -0.01c0,-0.01 0.01,-0.01 0.01,-0.02 -0,0.01 -0.01,0.01 -0.01,0.01l-0.01 0.01c-0.01,0.01 -0.01,0.01 -0.02,0.01 -0.01,0 -0.01,0.01 -0.02,0.01 -0,0 0,-0 -0,0 -0,0 -0.01,0 -0.01,0.01l-0.01 0.01c-0,0 -0,0 -0,0 -0,0 -0,0 -0,0l-0.01 0.01c-0.01,0.01 -0.01,0.01 -0.02,0.01l-0.02 0.01c-0,0 -0,0 -0,0 -0,0 -0,0 -0,0l-0.01 0.01c-0.01,0.01 -0,0.01 -0.01,0.01 -0,-0 -0.01,-0 -0.01,-0 -0,-0 -0,0 -0,0l-0 0c0,0 0.01,0 0.01,0 -0,0 -0,0 -0.01,0l-0.01 -0c0,0 0.01,0 0.01,0 0.02,0 0.01,0.01 0.01,0.01 0,0.01 0.01,0.01 0.01,0.02 0.01,0.03 0.01,0.05 0.02,0.07 0,0.01 0.01,0.01 0.01,0.02 0,0.01 -0,0.01 -0,0.01 0,0 0,0 0.01,0.01 0,0 -0,0.01 0,0.01 0,0 0,0 0,0.01 -0,0 -0.01,0 -0.01,0.01l-0 0 0.01 -0c-0,0.01 -0.01,0.01 -0.02,0.01l-0 -0c0.01,-0 0.01,-0 0.01,-0 -0,-0 -0,0 -0.01,0l0 -0c0,0.01 0,0 -0,0 -0.01,0 -0.01,0 -0.02,0 -0,-0 -0,-0.01 -0,-0.01 -0,-0.01 -0,-0.01 -0,-0.01 -0.01,-0 -0.01,-0 -0.01,-0.02 0,-0.01 -0.03,-0.06 -0.03,-0.08 -0.01,-0.02 -0.01,-0.02 -0.02,-0.04 -0.01,-0.01 -0.01,-0.03 -0.01,-0.04 0.01,-0.01 0.01,-0.02 0.02,-0.03 0,-0 0,-0.01 0.01,-0.01 0,-0.01 0.01,-0.01 0.01,-0.02 0.01,-0.02 0.03,-0.05 0.05,-0.07 0.01,-0.01 -0,-0 0.01,-0.01l0 -0c-0,-0 -0,-0 0,-0 0.01,-0.01 0,-0 0,-0.01l0 -0c0,-0 -0,0 0,-0 0,-0.01 0.01,-0.01 0.01,-0.01 -0.01,0.01 -0.01,0 -0.01,0.01l0 -0.01c-0,-0.01 0,-0 -0,-0 -0,-0.01 0,-0 -0,-0.02 -0,0 -0,0 -0,0 -0,-0 -0,-0.01 -0.01,-0.01 -0,-0 -0,-0.01 -0.01,-0.01 -0,-0.01 -0.01,-0.02 -0.01,-0.02l0.01 -0.03c0,-0.01 0,0 0.01,-0.01 0,-0 0,0 0,-0 0,-0 -0,-0.01 0,-0.01 0,-0 0.01,-0.01 0.01,-0.01 -0,0 -0,0 -0,0 -0,0 -0,0 -0,0 -0,0 -0,0 -0,0l0 -0.01c-0,0 -0,-0 -0,0.01l-0.01 0.02c-0,-0 -0,-0 -0,-0 0,-0 0,-0 0,0 0,0 0,-0 0,0 -0,0 -0,0 -0,0 -0,0.01 -0.02,0.05 -0.02,0.06 -0,0.01 -0.01,0.01 -0.02,0.02 -0.01,0 -0.01,-0 -0.01,-0 -0.03,-0.03 -0.03,-0.05 -0.05,-0.09 -0,-0 -0.01,-0.01 -0.01,-0.01 -0,-0.01 -0.01,-0.03 -0.01,-0.04l0 -0 0 0 -0 -0 0 -0c-0,-0.01 0,-0.01 0,-0 0,0 0,-0 0,0 0,0 0,0 0,0 0,0.01 0,0.01 0.01,0.01 -0,-0 -0,-0 -0,-0.01l-0 -0.01c-0,-0 -0,-0.01 -0,-0.02 0,0 0,0 0,0l0 0.01c0,0 0,0.01 0.01,0.01 0,0 0,-0 0,0l-0 -0c-0,-0 -0,-0 -0,-0 -0,-0 -0,-0.01 -0,-0.01 -0,-0.01 -0,-0.01 -0,-0.01 0,0 0,0 0.01,0.01l0.01 0.02c0,0 0,0 0,0 0,-0.01 -0,-0 -0,-0 -0,-0 -0,-0 -0,-0 -0,-0 -0,-0 0,-0.01 0,0 0,-0 0,0.01 0,0 0,0 0,0.01 0,0.01 0,0.01 0,0.02 -0,0.01 -0,0.01 0,0.02 0.01,0.01 0.01,0.02 0.02,0.03l-0 0.01c-0,0 -0,0 -0,0l-0 0.01c0,-0 0,-0 0,-0 0,0 0,-0 0,-0 0,-0 0,-0 0,-0l0 -0.01c0,-0.01 0.01,-0.03 0.01,-0.04 0.01,-0 0.03,0.01 0.04,0.01 0,-0 0,0 -0.01,-0.01 -0,-0 -0.03,-0.01 -0.03,-0.01 -0,-0 0,-0.01 0,-0.01 0,-0 0,-0.01 0,-0.01 0,-0.01 0,-0.02 0,-0.02 -0,0 -0,-0 -0,0 -0,0 -0.01,0 -0.01,0 -0,-0 -0,-0 -0,-0l0 0c-0,-0 -0.01,-0 -0.01,-0l-0 -0c-0,0 -0,0 -0.01,-0l0 -0c-0,-0 -0,-0 -0.01,-0 -0,0 -0,0 -0,0 -0,-0 0,0 -0,-0 -0,0 -0,0 -0,-0 -0,-0 -0,-0.01 -0,-0.01l0 -0 -0 -0 -0 0c-0,-0 -0,-0 -0,-0.01l0 -0c-0,-0 -0,0 -0,-0 -0,-0 -0,-0.01 -0,-0.01 -0,-0 -0,-0 -0,-0l0 -0.01c0.01,0 0,0.01 0.02,0.01 0.01,0 0.01,-0 0.01,0 0.01,0 0,0.01 0.01,0.01 -0,-0 -0,-0 0,-0.01l0 -0c-0,-0 -0,-0 0,-0l0 -0 0 -0 0 -0c0,-0 0,-0 0.01,0 0,-0 0,-0 0,0 0,-0 0,-0 0,0 0,-0 0,-0 0,0 0,0 0,0.01 0,0.01 0,0 -0,0.01 -0,0.01 -0,0 -0,0 -0,0 -0,0 -0,0 0,0 0,-0.01 0,-0.01 0,-0.02l-0 -0.01 0.01 0c0,0 0.01,0.01 0.01,0.01 0.01,0 0.01,-0 0.01,-0l0.01 0.01c0,0 0,0 0.01,0.01l0 0 -0 0c0,0 0.01,0 0.01,0 0.01,0.01 0.01,0 0.03,0.02 0.01,0.01 0.01,0.01 0.02,0.02l0.01 0.01c0.01,0.03 0.01,0.06 0.02,0.08 0,0.01 0.01,0.01 0.01,0.01 0,0.01 -0,0.01 0,0.01 0.01,0.01 0,0.01 0.01,0.01 0,0 0.01,0.01 0.01,0.01l0.01 0.01 0 0 0 0c-0,-0 0,-0 -0,-0 -0,-0 -0,-0 -0.01,-0 0,0.01 0,0 0.01,0.01l0 0c0,0.01 0.01,0.01 0.01,0.02 0,0 0,0 0,0.01 0,0 0,0.01 0,0.01l-0 0c0,0.01 -0.01,0.03 -0.01,0.04l-0 0c-0,0 -0,0 -0,0 -0,0 -0,0 -0,0 -0,0 -0,0 -0,0 -0,0 -0,0 -0,0l-0 0c-0,0.01 0,0.01 -0,0.01 -0,0 -0.02,0.05 -0.02,0.06 -0,0 -0,0.01 -0.01,0.01 -0.01,0.02 -0.01,0.01 -0.01,0.02 0,0 0,0 -0,0 -0,0 -0,-0 -0,0 0,-0 0,-0 0,0l0 -0 -0 0c-0,0 -0,0 -0,0 0.01,-0 0.01,0 0.01,0.01 0.01,0.01 0.03,0.05 0.04,0.06 0.01,0.02 0.02,0.03 0.02,0.03 0,0.01 -0,0.01 0,0.02 0.01,0.01 0.01,0 0.01,0.01 0,0.01 -0,0 0,0.01 0,0 0,0 0,0 -0,0 -0.01,0.01 -0.01,0.01 -0,0 -0.01,0.01 -0.01,0.01 -0,0 -0,-0 -0,0 0,-0 0.01,-0 0.01,-0.01 0,-0 0,-0 0,-0l0 -0c-0,0 0,0 -0,0l-0 0c-0,0.01 -0,0.01 -0.01,0.01zm-0.01 -0.34l0 -0.01c0,0 0,0 -0,-0l0 -0c-0,0 -0,-0 -0,0l0 0.01zm-0.02 -0.05c-0,-0 -0.01,-0.01 -0.02,-0.01 -0.02,-0.01 -0.05,-0 -0.07,0.01 -0,0 -0,0 0,0l0.01 -0.01c0.01,-0 0,0 0.01,0.01l-0 -0.01 0.02 -0c0,0 0,0 0,0.01l-0 0 0 -0c0,-0 -0,-0 0,-0.01 0,0 0,-0 0,0 0,-0 0,-0 0,-0l0 -0c0,-0 0.01,-0 0.01,0 0,0 0.01,0 0.01,0 0,0 0.01,0 0.01,0 0.01,0 0,0 0,0.01 0,0.01 0,0 0,0l-0 -0.01c0,0 0,0 0,0 0,0 0,0 0,0 0,0 -0,0 0,0 0,-0 -0,-0 -0,-0zm-0.09 0c-0,0 -0,0 -0,0l0 0c0,-0 -0,-0 -0,-0l-0 0zm-0.11 -0.21c0,0 -0,0 0,0 0,-0 0,-0 0,-0.01 -0,0 -0,0 -0.01,0zm0.06 0.02l-0 -0c-0,0 0,0 -0,0 -0,0 -0,0 -0.01,0.01 -0,0 -0.01,0.01 -0.01,0.01l0 0c0,-0.01 0.01,-0.02 0.02,-0.02l-0 -0zm0.02 -0.01c-0.01,0 -0.01,0.01 -0.01,0.01 -0,0 -0,0 -0.01,0l0.01 -0c0,-0 0.01,-0 0.01,-0 0.01,-0 -0,0 0,-0 0,-0 0.01,-0 0,-0zm0 -0l-0 -0c0,0 0,0 0,0 0,-0 0,-0 0,-0zm0.02 0.54l-0 0c-0,0 0,-0 -0,0 -0,0 -0,0 -0,0l0 -0zm0.04 0.02c0,0 0,0 -0,0 0,0 0,0 -0,0 0,0 0,0 -0,0 0,0 0,0 -0,0 0,0 0,0 -0,0 0,0 0,0 -0,0 -0.01,0 -0.01,0.01 -0.02,0.02 -0.01,0 -0,-0 -0.01,0.01 -0,0 -0,0.01 -0.01,0.01 -0.01,0.01 -0.03,0.02 -0.05,0.03l-0 -0c0,-0 0.01,-0 0.02,-0.01 0.03,-0.01 0.03,-0.03 0.04,-0.03l0 -0 0 -0 0 -0 0 -0 0 -0c-0,-0 -0,-0 0,-0 -0,-0 -0,-0 0,-0 -0,-0 -0,-0 0,-0 -0,-0 -0,-0 0,-0 -0,-0 -0,-0 0,-0 -0,-0 -0,-0 0,-0 0,-0 0.01,-0 0.01,-0.01l0.02 -0.02 0 0c0,-0 0,-0 0,0 0,-0 0,-0 0,0l0 0c0,0 0,0 -0,0 0,0 0,0 -0,0zm-0.09 -0.4c0,-0 0.01,-0.02 0.01,-0.03 0,0 0,0 0.01,0.01 0,0 0,0.01 0.01,0.01 -0.01,0.01 -0.01,0.02 -0.03,0zm0.1 -0.15c0,0 0,-0 0,0 -0.01,0 0,0 -0,-0zm-0 -0.05l0 0c-0,-0 -0,-0 -0,-0zm-0.01 -0.02l0 0c0,0 -0,-0 -0,-0zm-0.06 -0.01c0.01,0 0.01,0.01 0.01,0.01l-0 -0.01c-0,-0 -0,-0 -0,-0.01zm-0.01 -0c-0,-0 -0,-0 -0,-0 0,-0 0,-0 0,-0 0,0 0,0 0,0l-0 0z"/>
   <path class="fil1" d="M0.19 0.29l0 -0c-0,0 -0.01,0 -0.01,0 -0,0 -0,0 -0,0 -0,0 -0,0 -0,0 0,0 -0,0 0,0l0.01 -0c0.01,0 0,0 0.01,0l0.02 0.01c0,0 0,0 0,0l-0.01 -0c0,0 -0,-0 0,0l0 0c-0.01,-0 -0.02,-0.01 -0.04,-0.01 -0.01,-0 -0.01,0 -0.01,0 -0,0 -0,0 -0,0 -0,0 -0,0 0,0 -0,-0 -0,0 -0,-0l-0 0.01c0,0 -0,0 0,-0 -0,0 -0,0.01 -0.01,0.01 -0,-0 -0,-0 -0,-0 0,-0 0,0 0,-0 0,-0 0,-0 0,-0 0,0 -0,0 -0,0.01l0 -0c0,-0 0,-0 0,-0 -0,-0 -0,0 -0,0 0,-0.02 0.01,-0.02 -0,-0.02l-0 0c-0,0 -0,0 -0,0l0.01 0 -0.01 0c0,0.01 -0,0.01 -0.01,0.01l0.01 0.01c0,0 0,-0 0,0 -0,0 -0,0 -0,0 -0,-0 -0,-0 -0.01,-0.01 -0,-0 -0.01,-0 -0.01,-0l-0 0c0,0 0,0 -0,0 -0.01,0.01 -0,0 -0.01,0.01 -0.02,0.02 -0.04,0.04 -0.05,0.07 -0,0 -0.01,0.01 -0.01,0.02 -0,0 -0,0.01 -0.01,0.01 -0,0.01 -0.01,0.02 -0.02,0.03 -0.01,0.02 -0,0.03 0.01,0.04 0.01,0.02 0.01,0.02 0.02,0.04 0.01,0.01 0.03,0.07 0.03,0.08 0.01,0.01 0,0.01 0.02,0.01l-0 -0.01c-0,0 -0,0 -0.01,0 0,-0 0,-0.01 0.01,-0.01 -0,-0.01 -0.01,-0.04 -0.02,-0.05l-0.01 -0.02c-0,-0 -0.01,-0.01 -0.01,-0.02 -0,-0.01 0,-0 0,-0 0.01,-0.01 -0,0.01 0,-0l-0.01 -0.01c-0,-0 -0,-0.01 -0.01,-0.01 0.01,0.02 0.01,0.03 0.02,0.05l-0.01 -0.03c-0,0 -0,0 -0,0l0.02 0.04c-0,-0.01 -0,-0.01 -0,-0.01 0,0.01 0.01,0.01 0.01,0.02 0,0 0.01,0.02 0.01,0.02l-0.01 -0.01c-0,-0 -0,-0 -0,-0l-0.01 -0.01c0,0 0,0 0,0l0 0.01c0,0 0,0 0,0 0,0 0,0 0,0l0 0.01c0,0.01 0,0.01 0.01,0.02 0,0 0,0 0,0l-0 -0.01c0,0.01 0,0.01 0.01,0.02 0,-0 0.01,-0.01 0.01,-0l-0.01 0.01c0,0.01 0,0.01 0,0.01l0.01 -0c-0,0 -0,0.01 -0.01,0.01 -0,0 -0,0 -0,0.01 0,-0 0.01,-0.01 0.01,-0.01 0,-0 0.01,-0.01 0.01,-0.01 -0.01,0 -0.03,0 -0.02,-0.01 0.01,-0.01 0.01,-0.01 0.02,-0.01l-0.02 -0.01c0,0 0.01,0 0.01,0 -0,-0.01 -0,-0 -0,-0.01 -0.01,-0.04 -0.01,-0.06 -0.04,-0.1l-0.01 0c0,-0 0.01,-0 0.01,-0.01 -0.01,0 -0.01,0 -0.02,0 -0,0 -0,0 -0.01,0l-0.01 0c0,0 0,0.01 0,0.01 -0,-0 -0,-0 -0,-0 -0,-0 -0,-0 -0,-0l-0 -0c-0,-0 0,-0 -0,-0 0,0.01 0,0 0,0.01 0,0.01 0.01,0.02 0.01,0.02l-0.01 -0.03c-0,-0.01 0,-0 -0,-0 -0.01,-0 -0.01,-0 -0.01,-0.01 0,-0 0,0 0.01,0 0,-0 0,-0 0.01,-0 0,-0 0,0 0,-0 0.01,-0 0.01,-0 0.02,-0.01 -0.01,-0 -0.02,-0 -0.02,0 -0.01,0 -0,0 -0,0 -0,0 -0,0 -0,0 -0,0 -0,0 -0,0l-0 0c-0,0 -0,0 -0,0 -0,-0.01 -0,-0 -0,-0.01 0,-0 0,-0 0,-0l0 0c0,0 0,0 0,0l0 -0c-0.01,-0 -0.01,0 -0.01,0 -0,-0 -0,0 -0,0 0,-0.01 0.03,-0 0.03,-0l-0.03 -0.01c-0,0 0,0 -0,0.01l-0 -0.01c-0,0 -0,0.01 0,0.01 -0,-0 -0,-0 -0,-0 -0,-0 -0,-0 -0,-0 -0,-0 -0,-0.01 -0,-0.01 0,-0 0,-0 0,-0l0.01 -0.02c0,-0 0.01,-0.01 0.01,-0.02 -0,0 -0.01,0.01 -0.01,0.01 0,-0 0,-0 0.01,-0.01 0,-0 0,-0 0,-0.01l-0 -0c-0,-0 -0,-0 -0,-0l-0 -0c0,-0 0.01,-0.01 0.01,-0.01 0.01,-0.01 0.03,-0.04 0.03,-0.04 -0,0 -0.01,0.01 -0.01,0.01 0,-0 0.01,-0.01 0.01,-0.01 0,-0 0,-0 0,-0l-0.01 0.01c-0.01,0.01 -0.02,0.03 -0.03,0.04 -0,0 -0,0 -0,0l0 -0c0,-0 0.03,-0.03 0.03,-0.04 -0.01,0 -0.02,0.02 -0.02,0.02 -0,0 -0,0 -0,0 -0,0 -0,0 -0,0l-0.01 0.01c-0,0 -0,0 -0,0 -0,0 -0,0 -0,0 -0,0 -0,0 0,0.01l0 -0.01c-0,0 -0,0 -0,0.01l-0.01 0.02c0,-0 0,-0 0,-0.01l-0 0c-0,0 -0,0 -0,0 0,0 0,0 0,0 -0,0 -0.01,0.01 -0.01,0.02 0,-0 0,-0 0,-0.01l0 -0.01c-0,0 -0.01,0.01 -0.01,0.01 0,0 -0,-0 0,0l0.01 0c0.01,0 0.02,0 0.04,0.01 -0,-0.01 -0.01,-0.01 -0.01,-0.01l-0 -0c0.01,0 0.02,0 0.03,-0 0.01,-0 0.06,-0.04 0.06,-0.05l-0.01 -0c0.01,-0 0.02,0 0.03,-0 -0,-0 0,-0 -0,-0l-0.01 -0c0.01,0 0.02,0 0.03,-0 0.02,-0.01 0.03,-0.01 0.04,-0.03 0,-0.01 0,-0.01 0,-0.01 0,-0 0,0 0,-0.01 -0,-0 -0,-0 -0,-0.01 -0,-0 -0.02,-0.01 -0.02,-0.01 0.01,0 0.01,0 0.02,0.01 -0,-0 -0.01,-0 -0.01,-0.01 0.01,0 0.01,0 0.01,0.01 -0,-0.01 0,-0.01 -0,-0.01 -0,-0.01 -0.01,-0.01 -0.02,-0.01 -0.03,-0.01 -0.02,0 -0.03,0 -0.01,-0 -0,0 -0,-0zm0 0.08c0,-0 -0,-0 -0,-0 0,-0 -0,-0 -0,-0l0 -0c0,0 -0,0 0.01,0 0.01,-0 0.02,-0 0.02,-0.01 0,-0 0.01,-0.01 0.01,-0.02 0,-0 0,-0 0,-0 0,-0 0,-0 0,-0 0,-0 0,-0.01 0,-0.01 -0,-0 -0.01,-0 -0.01,-0l-0.01 -0c0.01,0 0.01,0.01 0.02,0.01 -0,-0 -0,-0 -0,-0 -0,-0 -0,-0 -0,-0l-0 -0c-0,-0 -0,-0 -0,-0 -0,-0 -0,-0 -0,-0l-0.01 -0c-0,-0 -0,-0 -0,-0 -0,-0 -0,-0 -0,-0l-0.01 -0c-0.01,-0 -0.02,-0 -0.02,-0.01 0,0 0,0 0,0l-0.01 -0c-0,-0 -0,-0 -0,-0l-0 -0c0,0 0,-0 -0,-0 0,0 0,-0 0,0 -0,0 0,0 -0,0 -0,-0 -0,-0 -0,-0 -0,-0 -0,-0 -0,-0 0,0 -0,0.01 -0,0.01l-0 0.01c-0,0 -0,0 0,0 -0,0 -0,0 -0,0.01 -0,0 -0,0 -0,0 -0,0 -0,0 -0,0 -0,0 -0,0 -0,0 -0,0 -0,0 -0,0.01 0,-0 0,-0 0,-0 0,-0 0,-0 0,-0 -0,0 -0,0 -0,0.01 -0,0 -0,0 -0,0.01 -0,0 0,0.01 0,0.01 0,0 0,0.01 0,0.01l-0 -0c-0,-0 -0,-0 -0,-0 -0,0 0,0 -0,0l-0 0c-0,0.01 0,-0 -0,0 -0,-0 0,-0 -0,-0 0,-0 0,-0 0,-0 -0.01,0 -0,0 -0,0l0 -0c0,0 0,0 0,-0 -0,-0 -0,-0 -0,-0 0,-0 0,-0.01 0,-0.01 0,-0 0,-0 0,-0 0,-0 0,-0 0,-0l0 -0c0,-0.01 0,-0.02 0.01,-0.03 0.01,0 0.03,0.01 0.04,0.01l0.01 0.01c-0,0.01 -0.01,0.03 -0.01,0.04 -0.01,0.01 -0.02,0.01 -0.04,0.01 -0,-0.01 -0.01,-0.01 -0.01,-0.02 0,0 0,0 0,0l0 0c0,0 0,0 0,0l0 -0c0,0 0,0 0,0 -0,0 0,-0 -0,0 -0,0 -0,0 -0,0l-0 0 0 0z"/>
   <path class="fil2" d="M0.25 0.29c-0,-0 -0,-0.01 -0.01,-0.01 -0,-0.01 0,-0 -0.01,-0.01 -0.01,-0.01 -0,-0.01 -0,-0.01 -0,-0.01 -0,-0 -0.01,-0.01 -0.01,-0.03 -0.01,-0.05 -0.02,-0.08l-0.01 -0.01c-0.01,-0.01 -0.01,-0.01 -0.02,-0.02 -0.02,-0.02 -0.02,-0.01 -0.03,-0.02 -0,-0 -0.01,0 -0.01,-0 -0,0 -0,0 -0.01,0 0,0 0,0 -0,0 -0,0 -0,0 -0,-0l-0 0c0,0 0,-0 -0,0 -0,0 0.01,-0 -0,0 -0,0 -0.01,0 -0.01,0l-0.01 0c0.01,-0 0.01,-0 0.01,-0l-0.01 0 0 0c-0.01,0 -0.02,0.01 -0.02,0.02l-0 -0 -0 0c0,-0 -0,-0 0,-0 -0,0.01 -0,0.02 -0,0.02 -0,0 -0,0.01 -0,0.01 -0,0 -0,0.01 -0,0.01 0,-0.01 0.03,0 0.03,0.01 0.01,0.01 0.01,0 0.01,0.01l0 0 0 0 -0 0c0,-0 0,-0 0,-0 0,-0 0,-0 -0,-0 0,-0 0,-0 -0,-0 0,0 0,-0 0,0l0.01 -0.02c0,-0.01 0,-0.01 0,-0.01l-0 0.01c0,-0 0,-0 0,-0 0,-0 0,-0 0,-0 0,-0 0,-0 0,-0 -0,0.01 -0,0.01 -0.01,0.01 -0,0 -0,0.01 -0,0.01 -0,0 -0,-0 -0,0 -0,0.01 -0,0 -0.01,0.01l-0.01 0.03c0.01,0 0.01,0.02 0.01,0.02 0,0 0,0.01 0.01,0.01 0,0 0,0.01 0.01,0.01 0,0 0,-0 0,-0 0,0.01 -0,0.01 0,0.02 0,0 0,-0 0,0l-0 0.01c0,-0.01 0,-0.01 0.01,-0.01l0 -0 0 -0 0 -0c0.02,-0.01 0.05,-0.01 0.07,-0.01 0.01,0 0.02,0.01 0.02,0.01l0.01 0.01c-0,-0.01 -0,-0.01 -0.01,-0.01 -0,-0 -0,-0 -0.01,-0 0,-0 0.01,0 0.01,0.01l-0 -0zm0.01 0.01l-0 -0 0 0z"/>
   <path class="fil3" d="M0.21 0.51c-0,0 -0,0 0,0 0,-0 0,-0 -0,-0 0,-0.01 -0,0 0,-0 0,-0 0,-0 0,-0 -0,-0.01 -0.01,0 0.01,-0.02 0,-0.01 0.01,-0.01 0.01,-0.01 0,-0.01 0.02,-0.06 0.02,-0.06 0,-0.01 0,-0.01 0,-0.01l0 -0c0,-0 0,-0 0,-0 0,-0 0,-0 0,-0 0,-0 0,-0 0,-0 0,-0 0,-0 0,-0l0 -0c-0,0 -0,-0 -0,0 -0,0 -0,-0 -0,0 -0,-0.01 0,-0 -0,-0l0 -0c0,-0 0,-0 0,-0 0,-0 0.01,-0.01 0,-0.01 -0,0 -0,0 -0.01,0.01 -0.01,0.01 -0,0.01 -0,0.02 -0,-0 -0.01,-0 -0.01,-0.01l0.01 -0.01 -0.01 -0c0,-0 0.01,-0.01 0.01,-0.01 0.01,-0.01 0.01,-0.03 0.01,-0.04l-0 -0.02c0,0 0,0 0,-0l-0 -0c-0,0 -0,0 0,0l-0 -0c-0,-0.01 -0,-0.01 -0.01,-0.01 0,0 0,-0 0.01,0 0,0 0,0 0,0l-0 -0 -0 -0 -0.01 -0.01 0 0c-0,-0 -0.01,-0.01 -0.01,-0.01 0,0 0,0 0.01,0 0.01,0 0.01,0.01 0.01,0.01l-0.01 -0.01c0,0 0.01,0 0,0 -0,0 0,0 -0,-0 -0,-0 -0,-0 -0,-0 -0,-0 0,-0 -0,-0l0 0.01c-0,-0 -0,0 -0,-0 -0,-0 0,-0 -0,-0.01 -0,-0 -0.01,-0 -0.01,-0 -0,-0 -0.01,-0 -0.01,-0 -0,-0 -0.01,-0 -0.01,-0l-0 0c-0,-0 -0,0 -0,0l-0 0.01c-0,-0 -0,-0 -0,-0l-0 0c0,0 -0,0 0,0 0.01,0 -0.01,-0.01 0.03,-0 0.01,0 0.02,0 0.02,0.01 0,0 0,0 0,0.01 -0.01,-0 -0.01,-0 -0.01,-0.01 0,0 0.01,0 0.01,0.01 -0.01,-0 -0.01,-0 -0.02,-0.01 0.01,0 0.02,0.01 0.02,0.01 0,0 0,0 0,0.01 0,0.01 -0,0 -0,0.01 -0,0 0,0.01 -0,0.01 -0.01,0.02 -0.02,0.03 -0.04,0.03 -0.01,0 -0.02,0 -0.03,0l0.01 0c0,0 0,0 0,0 -0.01,0 -0.01,0 -0.03,0l0.01 0c-0,0.01 -0.05,0.04 -0.06,0.05 -0.01,0.01 -0.02,0 -0.03,0l0 0c0.01,0 0.01,0.01 0.01,0.01 -0.01,-0 -0.02,-0 -0.04,-0.01l-0.01 -0c-0,-0 -0,0 -0,-0 0,-0 0.01,-0.01 0.01,-0.01l-0 0.01c-0,0 -0,0 -0,0.01 0,-0 0.01,-0.01 0.01,-0.02 -0,0 0,0 -0,-0 0,-0 0,-0 0,-0l0 -0c0,0 0,0 -0,0.01l0.01 -0.02c0,-0 0,-0 0,-0.01l-0 0.01c-0,-0 -0,-0 -0,-0.01 0,-0 0,-0 0,-0 0,-0 0,-0 0,-0l0.01 -0.01c0,-0 0,-0 0,-0 0,-0 0,-0 0,-0 0,-0 0.01,-0.02 0.02,-0.02 -0,0 -0.02,0.03 -0.03,0.04l0 0c0,0 0,-0 0,-0 0.01,-0.01 0.02,-0.03 0.03,-0.04l0.01 -0.01c-0,-0 -0,-0 -0,0 -0,0 -0.01,0.01 -0.01,0.01 0,-0 0,-0.01 0.01,-0.01 -0.01,0 -0.03,0.03 -0.03,0.04 -0,0.01 -0.01,0.01 -0.01,0.01l0 0c0,0 0,0 0,0l0 0c-0,0 -0,0 -0,0.01 -0,0 -0,0 -0.01,0.01 -0,-0 0,-0.01 0.01,-0.01 -0,0 -0.01,0.01 -0.01,0.02l-0.01 0.02c-0,0 -0,0 -0,0 -0,0 0,0.01 0,0.01 0,0 -0,0 0,0 0,0 0,0 0,0 -0,-0 -0,-0.01 -0,-0.01l0 0.01c0,-0 0,-0 0,-0.01l0.03 0.01c-0.01,0 -0.03,-0 -0.03,0 0,0 0,-0 0,-0 0,0 -0,-0 0.01,-0l-0 0c-0,0 -0,0 -0,0l-0 -0c-0,0 -0,-0 -0,0 -0,0 0,0 0,0.01 0,-0 0,-0 0,-0l0 -0c0,0 0,-0 0,-0 0,-0 0,-0 0,-0 0,-0 -0,0 0,-0 0.01,-0 0.02,-0 0.02,-0 -0.01,0 -0.01,0 -0.02,0.01 -0,0 -0,0 -0,0 -0.01,0 -0.01,0 -0.01,0 -0,0 -0,-0 -0.01,-0 0,0 0,0 0.01,0.01 0,0 0,-0 0,0l0.01 0.03c-0,-0 -0.01,-0.02 -0.01,-0.02 -0,-0 -0,-0 -0,-0.01 0,0 0,0 0,0l0 0c0,0 0,0 0,0 0,0 0,0 0,0 -0,-0 -0,-0.01 -0,-0.01l0.01 -0c0,-0 0,-0 0.01,-0 0.01,-0 0.01,-0 0.02,-0 -0,0 -0.01,0.01 -0.01,0.01l0.01 -0c0.03,0.03 0.03,0.06 0.04,0.1 0,0 0,0 0,0.01 -0.01,-0 -0.01,-0 -0.01,-0l0.02 0.01c-0,0 -0.01,0 -0.02,0.01 -0.01,0.01 0.01,0.01 0.02,0.01 -0,0 -0.01,0.01 -0.01,0.01 -0,0 -0.01,0.01 -0.01,0.01 0,-0.01 -0,-0.01 0,-0.01 0,-0 0,-0 0.01,-0.01l-0.01 0c-0,-0 -0,-0 -0,-0.01l0.01 -0.01c-0,-0 -0.01,0 -0.01,0 -0,-0 -0,-0.01 -0.01,-0.02l0 0.01c-0,-0 -0,0 -0,-0 -0,-0 -0,-0.01 -0.01,-0.02l-0 -0.01c-0,-0 -0,-0 -0,-0 -0,-0 -0,-0 -0,-0l-0 -0.01c-0,-0 -0,-0 -0,-0l0.01 0.01c0,0 0,0 0,0l0.01 0.01c-0,-0 -0.01,-0.02 -0.01,-0.02 -0,-0.01 -0.01,-0.01 -0.01,-0.02 0,0 0,0.01 0,0.01l-0.02 -0.04c0,-0 -0,-0 0,-0l0.01 0.03c-0.01,-0.02 -0.01,-0.03 -0.02,-0.05 0,0 0,0.01 0.01,0.01l0.01 0.01c-0,0.01 0,-0.01 -0,0 -0,0 -0,-0 -0,0 0,0 0.01,0.01 0.01,0.02l0.01 0.02c0.01,0.01 0.02,0.04 0.02,0.05 -0,0 -0.01,0.01 -0.01,0.01 0.01,-0 0,-0 0.01,-0l0 0.01c-0.02,0 -0.01,-0 -0.02,-0.01 0,0.01 0,0.01 0.01,0.02 0,0.01 -0,0.01 0,0.01 0,0 0,0.01 0,0.01 0.01,-0 0.01,-0 0.02,-0 0,-0 0,0 0,-0l0 0c0.01,-0 0.01,-0 0.01,-0l0 -0c0,-0 -0,0 0,-0 0,-0 -0,0 0,-0l0 -0 0 -0 0 -0c0.01,-0.01 0.01,-0 0.01,-0.01 -0,-0 -0,-0.01 -0,-0.01 -0,-0 -0,-0.01 -0,-0.01 -0,-0 -0.01,-0 -0.01,-0.01 -0,-0 0,-0.01 0,-0.01 -0,-0.01 -0.01,-0.01 -0.01,-0.02 -0.01,-0.02 -0.01,-0.04 -0.02,-0.07 -0,-0.01 -0.01,-0.01 -0.01,-0.02 -0,-0.01 0,-0.01 -0.01,-0.01 -0,-0 -0.01,-0 -0.01,-0l0.01 0c0.01,0 0.01,0 0.01,-0 -0,-0 -0,-0 -0.01,-0l0 -0c0,0 0,-0 0,0 0,0 0.01,0 0.01,0 0.01,-0 -0,-0 0.01,-0.01l0.01 -0.01c0,-0 0,-0 0,-0 0,-0 0,-0 0,-0l0.02 -0.01c0.01,-0 0.01,-0.01 0.02,-0.01l0.01 -0.01c0,-0 0,-0 0,-0 0,-0 0,-0 0,-0l0.01 -0.01c0,-0 0.01,-0 0.01,-0.01 0,-0.01 -0,0 0,-0 0,-0 0.01,-0 0.02,-0.01 0.01,-0 0.01,-0.01 0.02,-0.01l0.01 -0.01c0,-0 0.01,-0.01 0.01,-0.01 -0,0.01 -0.01,0.01 -0.01,0.02l-0.01 0.01c-0,0 -0.01,0 -0.01,0.01 0.01,0 0.01,0 0.02,0 -0,0 -0,0 -0,-0 -0,0 -0,-0 -0,-0 -0.01,-0 -0.01,-0 -0.02,0 -0,0 -0,0 -0.01,0 -0,0 -0,0 -0.01,0l-0.01 0.01c-0,0 -0,0 -0.01,0.01 -0,0 -0,0 -0,0l-0.01 0.01c-0,0 -0,0 -0,0 -0,0 -0,0 -0,0 -0,0 -0,0 -0.01,0 -0,0 -0,0 -0.01,0.01 -0,0.01 -0,0.03 -0,0.04 -0,0.02 -0.01,0.05 -0,0.06 0,0 0,0 0,0.01 0,0.01 0.01,0.01 0.01,0.02 0,0 0,0 0,0 0.01,0.01 0.01,0.02 0.02,0.03 0,0 0.01,0.01 0.01,0.01 0,0 0,0 0,0.01l0.03 0.04c0.01,0.01 0.01,0.02 0.01,0.02 0,0 0.01,0 0.01,0 0,0 0,0.01 0,0.01 0,0 0,0 0,0.01 0,0 0,0 0,0.01 0,-0 0.01,-0.01 0.02,-0.01l0 0 0 -0c-0,-0 -0,0 0,-0 0,-0 0.01,-0 0.01,-0.01 0,-0 0.01,-0.01 0.01,-0.01 -0,-0 0,-0 -0,-0 -0.01,-0.01 -0,0 -0,-0.01 -0,-0.01 -0,-0 -0.01,-0.01 -0.01,-0.01 -0,-0.01 -0,-0.02 -0,-0 -0.01,-0.01 -0.02,-0.03 -0.01,-0.02 -0.02,-0.06 -0.04,-0.06 0,-0.01 0,-0.01 -0.01,-0.01 0,-0 0,-0 0,-0l0 -0c-0.01,0 -0.01,-0 -0.02,0 -0.01,0 -0.01,0 -0.01,0.01 -0,-0 -0,-0.01 -0,-0.01l-0 0c-0,0 -0,-0 -0,-0l0 0.01c-0.01,-0 -0,-0 -0.01,-0 0,0.01 0.01,0.01 0.01,0.01 0,0 0,0 0,0.01 -0,-0 -0.01,-0 -0.01,-0 0,0 0.01,0.01 0.01,0.01 -0,0 -0,0 -0,0 -0,0 -0,0 -0,0l0.01 0 0.01 0.01c-0,-0 -0,-0.01 -0.01,-0.01 0,0 0,0 0,0 -0,-0.01 -0,-0 -0.01,-0.01l0 0c-0,-0 0,-0 0,-0.01 0,-0 0,-0 0.01,-0 0.01,-0 0.01,-0 0.02,-0 0,0.01 0,0 0.01,0.01 0,0 0,0.01 0.01,0.01 0.01,0.02 0.03,0.05 0.03,0.07 0,0 0.01,0 0.01,0.01 -0.01,0 -0.02,0 -0.02,-0 0.01,0 0,0 0.02,0.01l0.01 0c-0,0 -0.01,0.01 -0.01,0.01 0,0 0.01,-0 0.01,-0 0,0 0.01,0 0.01,0 -0,0 -0.01,-0 -0.02,0 0,0 0.01,0 0.02,0 -0,0 -0.01,0.01 -0.01,0.01 -0,0.01 -0,0 -0,0 -0,-0 -0,-0.01 0,-0.01 0,-0 0,-0 0,-0.01 -0.01,-0 -0.01,0 -0.01,-0.01 -0,-0 -0,-0 -0,-0.01 -0,-0 -0,-0 -0,-0.01 0,0 0,-0 0,0l-0 0c-0,0 -0,0 -0,0 -0,-0 0,0 -0,-0l-0 -0.01c-0,-0 -0,-0 -0,-0 -0,-0 -0,-0 -0,-0l-0.01 -0.02c-0,-0 -0,-0 -0,-0l-0 -0.01c0,0 0,0 0,0 0,0 0,0 0,0 0,0 0,0 0,0 0,0 0,0 0,0l0 0c0,0 0,0 0,0l0.01 0.02c0,0 0,0 0,0 -0.01,-0.02 -0.02,-0.03 -0.02,-0.04l0 0.01c-0,-0 -0,0 -0,-0l-0.01 -0.01c-0,-0 -0,-0 -0,-0.01 -0,-0 -0,-0 -0,-0 -0,-0 -0,-0 -0,-0.01l-0 -0.01c0,0.01 0,0 -0,0.01 -0,-0 -0.01,-0.02 -0.01,-0.02 0,0 0,0 0,0.01l0 0.01c0.01,0.01 0.01,0.03 0.02,0.04l0.02 0.04c0,0 -0,0 0,0 0,-0 0,-0 0,0 0,0 0,0 0,0.01 -0,-0 -0,-0 -0,-0 0,0.01 0,0 0.01,0.01 -0.01,0 -0.02,0 -0.02,-0 0,-0 0,-0 0.01,-0.01 0,-0 0,-0.01 0,-0.01 -0,0 -0,0 -0,0l-0 0c-0,-0 -0,-0 -0,-0 -0.01,-0.01 -0.01,-0.02 -0.01,-0.02l-0.01 -0.02c-0,-0 -0,-0 -0,-0.01 -0,-0 -0,0 -0.02,-0.02l-0.01 -0.02c-0,-0 -0,-0 -0,-0.01l0.01 0c-0,-0 -0.01,-0 -0.01,-0.01 -0.01,-0 -0,-0.01 -0.01,-0.01 -0.01,-0.01 -0.01,-0.03 -0.01,-0.05 0,-0.01 0,-0.02 0.01,-0.03 0,-0 0,-0 0.01,-0.01 0,-0 0.01,-0.01 0.01,-0.01 0,0 0,0 0,0.01 -0,0 -0,0 -0,0.01 -0,0.01 -0.01,0.03 -0.01,0.04l0 -0.01c0,-0 0,-0 0,-0 -0,0.01 -0,0.01 -0,0.02 0,-0 0,-0 0,-0l0 -0.01c0,-0 0,-0 0,-0.01 0,-0 0,-0 -0,-0.01l-0 0.01c0,-0.01 0,-0.01 0,-0.02 0,-0 0,-0 0,-0.01l0 -0.01c0,-0 0,-0 0,-0 -0,0 -0,0.02 -0,0.03l0 -0.03c-0,0 -0,-0 -0,0l-0 0c-0,-0.01 0,-0.01 0,-0.01 0,-0 0,-0 0,-0l-0 0.01c0,-0.01 -0,-0.02 0.01,-0.02 0,0 0,0.01 0,0.01 0,-0.03 0.02,-0.03 0.03,-0.04 0.01,0 0,0 0.01,0 0,0 0.01,0 0.01,0 -0,-0 -0,-0 -0.01,-0 -0,-0 -0,-0 -0,-0.01 0.01,-0 0.02,0 0.02,0.01 -0,0 -0.01,0 -0.01,-0 0.01,0.01 0.01,0.01 0,0.02 -0.01,0.02 -0.01,0.03 -0.02,0.05 -0,0.01 -0.01,0.02 -0.01,0.02 -0.01,0 -0.01,-0 -0.01,-0l-0 0c-0,0 0.01,0.01 0.01,0.01 0,0 0,0 0,0 -0.01,-0 -0.03,0 -0.03,0.01 0.01,0 0.02,0 0.03,0zm-0.01 -0.23c-0,-0 -0,-0 -0,-0.01l-0.02 0 0 0.01c-0,-0 0,-0.01 -0.01,-0.01l-0.01 0.01c-0,-0 -0,0 -0,-0l-0 0c0,0 0,0 0,0l-0 -0c0,-0 0,-0 0,-0l-0 0c0,0 -0,0 -0.01,0.01 -0,0 -0,0 -0,0l-0 0c-0,0.01 0,-0 -0,0.01 -0,0 -0,-0 -0,0l-0 0c0,0 0,0 0,-0l0 -0c0,0 0.01,0 0.01,0 0,0 0.01,0 0.01,0.01 0,-0 0,-0 0,-0 -0,-0 -0,0 -0,-0l-0.01 -0.01c0.01,-0 0.01,-0 0.01,-0.01l0.01 -0 -0.01 -0c0,-0 0,-0 0,-0l0 -0c0.01,-0 0.01,-0 0,0.02 0,0 -0,-0 0,-0 -0,0 -0,0 -0,0l-0 0c-0,-0 0,-0 0,-0.01 -0,0 -0,0 -0,0 -0,0 0,-0 -0,0 0,0 0,0 0,0 0,-0 0.01,-0.01 0.01,-0.01 -0,0 0,0 -0,0l0 -0.01c0,0 -0,0 0,0 -0,-0 -0,-0 -0,-0 0,-0 0,-0 0,-0 0.01,-0 0.01,-0 0.01,-0 0.02,0 0.03,0.01 0.04,0.01l-0 -0c-0,-0 0,0 -0,-0l0.01 0c-0,-0 -0,-0 -0,-0l-0.02 -0.01c-0.01,-0 -0.01,-0 -0.01,-0l-0.01 0c-0,-0 -0,-0 -0,-0 0,-0 -0,-0 0,-0 0,-0 0,-0 0,-0 0,-0 0,-0 0.01,-0zm0.07 0.06l0 -0c0,-0.01 -0,-0.01 -0,-0.01 -0,-0 0,-0.01 -0,-0.01l0 0.01 -0 0c0,0 0,0 0,0l-0 0.01 -0.01 0.02c-0,0 -0,0 0,0 0,-0 0.01,-0.02 0.01,-0.02 0,-0 -0,-0.01 0,-0.01l-0 0.01zm-0.08 0.18c0.01,-0 0.01,-0.01 0.02,-0.01l-0 0c-0,0 -0,0 -0,0 -0.01,0 -0.02,0.01 -0.02,0.01 -0,-0 -0,-0 -0,-0.01 0,-0 0.02,-0.01 0.02,-0.01 -0.01,0 -0.01,0 -0.01,0.01zm-0.01 -0.24c0,0 0,0 -0,0.01 -0,-0 -0,-0 -0,-0 0,-0 -0,-0 0,-0z"/>
   <path class="fil1" d="M0.21 0.51l-0 0c-0,0 -0,0 -0,-0 -0.01,-0 -0.02,-0 -0.03,-0 0,-0.01 0.02,-0.01 0.03,-0.01 -0,-0 0,-0 -0,-0 -0,-0 -0.01,-0.01 -0.01,-0.01l0 -0c0,0 0.01,0 0.01,0 0,-0 0.01,-0.02 0.01,-0.02 0.01,-0.02 0.01,-0.03 0.02,-0.05 0,-0.01 0.01,-0.01 -0,-0.02 0,0 0.01,0 0.01,0 -0,-0.01 -0.01,-0.01 -0.02,-0.01 0,0 0,0.01 0,0.01 0,0 0,0 0.01,0 -0,-0 -0.01,-0 -0.01,-0 -0,-0 -0,-0 -0.01,-0 -0.01,0.02 -0.03,0.02 -0.03,0.04 -0,-0 -0,-0.01 -0,-0.01 -0.01,0 -0,0.01 -0.01,0.02l0 -0.01c-0,0 -0,0 -0,0 -0,0 -0,0.01 -0,0.01l0 -0c0,-0 0,-0 0,-0l-0 0.03c-0,-0 0,-0.02 0,-0.03 -0,0 -0,0 -0,0l-0 0.01c-0,0 -0,0 -0,0.01 -0,0.01 -0,0.01 -0,0.02l0 -0.01c0,0 0,0 0,0.01 -0,0 -0,0 -0,0.01l-0 0.01c-0,0 -0,0 -0,0 -0,-0 0,-0.01 0,-0.02 -0,0 -0,0 -0,0l-0 0.01c-0,-0.01 0,-0.03 0.01,-0.04 0,-0 0,-0 0,-0.01 0,-0 0,-0 -0,-0.01 -0,0 -0,0.01 -0.01,0.01 -0,0 -0,0 -0.01,0.01 -0,0.01 -0.01,0.02 -0.01,0.03 -0,0.02 -0,0.04 0.01,0.05 0,0.01 0,0.01 0.01,0.01 0,0 0.01,0 0.01,0.01l-0.01 -0c0,0 0,0 0,0.01l0.01 0.02c0.01,0.02 0.01,0.02 0.02,0.02 0,0 0,0 0,0.01l0.01 0.02c0,0.01 0.01,0.02 0.01,0.02 0,0 0,0 0,0l0 -0c0,-0 0,-0 0,-0 0,0 0,0.01 -0,0.01 -0,0.01 -0.01,0 -0.01,0.01 0,0 0.01,0 0.02,0 -0,-0.01 -0,-0 -0.01,-0.01 0,0 0,0 0,0 -0,-0 -0,-0 -0,-0.01 -0,-0 -0,-0 -0,-0 -0,0 0,0 -0,-0l-0.02 -0.04c-0.01,-0.01 -0.01,-0.03 -0.02,-0.04l-0 -0.01c-0,-0 -0,-0 -0,-0.01 0,0 0.01,0.02 0.01,0.02 0,-0 0,-0 0,-0.01l0 0.01c0,0 0,0 0,0.01 0,0 0,0 0,0 0,0 0,0 0,0.01l0.01 0.01c0,0 0,0 0,0l-0 -0.01c0.01,0.01 0.02,0.03 0.02,0.04 -0,-0 -0,-0 -0,-0l-0.01 -0.02c-0,-0 -0,-0 -0,-0l-0 -0c-0,-0 -0,-0 -0,-0 -0,-0 -0,-0 -0,-0 -0,-0 -0,-0 -0,-0 -0,-0 -0,-0 -0,-0l0 0.01c0,0 0,0 0,0l0.01 0.02c0,0 0,0 0,0 0,0 0,0 0,0l0 0.01c0,0 0,-0 0,0 0,-0 0,-0 0,-0l0 -0c-0,-0 0,0 -0,-0 0,0 0,0 0,0.01 0,0 0,0 0,0.01 0,0.01 0,0.01 0.01,0.01 -0,0 -0,0 -0,0.01 -0,0 -0,0 -0,0.01 0,-0 0,0 0,-0 0,-0.01 0.01,-0.01 0.01,-0.01 -0.01,0 -0.01,0 -0.02,-0 0.01,-0 0.02,0 0.02,-0 -0,-0 -0.01,-0 -0.01,-0 -0,-0 -0.01,0 -0.01,0 0,-0 0.01,-0.01 0.01,-0.01l-0.01 -0c-0.02,-0 -0.01,-0 -0.02,-0.01 0.01,0 0.02,0 0.02,0 -0,-0 -0.01,-0 -0.01,-0.01 0,-0.02 -0.01,-0.05 -0.03,-0.07 -0,-0 -0,-0.01 -0.01,-0.01 -0.01,-0.01 -0,-0 -0.01,-0.01 -0.01,-0 -0.01,-0 -0.02,0 -0,0 -0,0 -0.01,0 -0,0 -0.01,0 -0,0.01l-0 -0c0,0 0,0 0.01,0.01 -0,-0 -0,-0 -0,-0 0,0 0,0.01 0.01,0.01l-0.01 -0.01 -0.01 -0c0,-0 0,-0 0,-0 0,-0 0,-0 0,-0 -0.01,-0 -0.01,-0 -0.01,-0.01 0,0 0.01,0 0.01,0 -0,-0 -0,-0.01 -0,-0.01 -0,-0 -0.01,-0 -0.01,-0.01 0,0 0,0 0.01,0l-0 -0.01c0,-0 0,0 0,0l0 -0c0,0 0,0.01 0,0.01 0.01,-0 0.01,-0 0.01,-0.01 0.01,-0 0.01,-0 0.02,-0z"/>
   <path class="fil4" d="M0.04 0.14c-0,-0 -0,-0 -0,-0 -0,-0 -0,-0 -0,-0l-0 -0c-0,-0 -0,-0 -0,-0 -0,-0 -0,-0 -0,-0 -0,-0.01 -0,0 -0,-0.01 -0,0 -0,0 -0,0l0 0 0 0.01c-0,-0 -0,-0 -0.01,-0.01 -0,-0 -0,-0 -0,-0l-0.01 -0.02c-0,-0 -0,-0 -0.01,-0.01 -0,0.01 0,0.01 0,0.01 0,0 0,0.01 0,0.01 0,0 0,-0 0,0 0,0 0,0 -0,0l-0 -0c-0,-0 -0,-0.01 -0.01,-0.01l-0 -0.01c-0,-0 -0,-0 -0,-0 -0,0.01 0,0.01 0,0.02l0 0.01c0,0 0,0 0,0.01 -0,-0 -0,-0.01 -0.01,-0.01 -0,-0 -0,-0 -0,-0 -0,-0 -0,0 -0,-0l-0 0 -0 0c0,0 0.01,0.02 0.01,0.02 -0,-0.01 -0.01,-0.02 -0.01,-0.02 -0,0.01 0.01,0.03 0.01,0.04 0,0 0.01,0.01 0.01,0.01 0,0 0.01,0.02 0.01,0.02 0.01,0.03 0.01,0.04 0.03,0.06 0.01,0.02 0.03,-0.01 0.03,-0.02 0,-0.01 0.02,-0.03 0.02,-0.05 -0,-0 -0.02,-0.02 -0.03,-0.01 -0,0 -0.01,0.03 -0.01,0.03l-0 0 -0 0.01c-0,0 -0,0 -0,0 -0,0 -0,0 -0,0 -0,-0 -0,0 -0,0l0 -0.01c0,-0 0,-0 0,-0l0 -0.01c-0.01,-0.01 -0.02,-0.02 -0.02,-0.03 -0.01,-0.01 -0,-0.01 -0,-0.02 0,-0.01 0,-0.02 -0,-0.02z"/>
   <path class="fil4" d="M0.08 0.06l-0 0c0,0 0,0 -0,0 -0,0 -0,0 0,0l-0 0c-0,0 -0,0 -0,0.01 -0.01,0 -0,-0 -0.01,-0.01 -0,-0 -0.01,-0 -0.01,-0 -0,0 -0.01,0 -0.01,0 -0,-0 -0,-0 -0.01,-0l-0 0c-0,0 0,0.01 0,0.01l0 0 0 -0c0,-0 0,-0 0.01,-0 -0,0 -0,0 -0,0.01l0 0 0 0c-0,0 -0,0 -0,0 0,0 0,0 0,0 0,0 -0,-0 0,0l0 -0 -0 0c0,0 0,0 0,0 0,0.01 -0,0 0.01,0.02 -0,0 -0,0 -0,0.01l-0 0c0,0 0,0 0,0 0,0 0,0 0,0 0,-0 0,0 0,0 0.01,-0.01 0.01,-0 0.01,-0l-0 0c-0,0 -0,0 -0,0l0.01 0.01 -0 -0c0,0 0,0 0,0l0 0c0.01,-0 0,-0 0.01,-0l0 -0c0,-0 0,-0 0.01,-0.01 0.01,-0.01 0.01,-0.03 0,-0.03 -0,-0 -0,0 -0.01,-0 0,-0 0,-0 0,-0 0,-0 0,0 0,-0 0,-0 0,-0 0,-0.01 0,-0 -0,-0.01 -0,-0.01 -0,0 -0,0 -0,-0l-0 -0 -0 -0 -0 -0c0,0 0.01,0.01 0.01,0.01 -0,-0 -0,-0.01 -0.01,-0.01 0,0 0,0 0,0 0,0 0,0 0,0.01 -0,0 -0,0 -0,0 -0,-0 -0,0 -0,-0 -0,-0 -0,-0 0,-0 -0.01,-0 -0.01,-0.01 -0,-0.01l-0 0c0,0 0,0 -0,0z"/>
   <path class="fil5" d="M0.07 0.21l0 -0c0,-0 0.01,-0.03 0.01,-0.03 0.01,-0 0.03,0.01 0.03,0.01 -0,0.01 -0.01,0.03 -0.02,0.05 -0,0.01 -0.02,0.04 -0.03,0.02 -0.02,-0.02 -0.02,-0.03 -0.03,-0.06 -0,-0 -0.01,-0.02 -0.01,-0.02 0.02,0.04 0.02,0.06 0.05,0.09 0,0 0.01,0.01 0.01,0 0.01,-0 0.01,-0.01 0.02,-0.02 0.01,-0.01 0.02,-0.05 0.02,-0.06l0 -0 -0 -0 -0 -0c-0.01,-0.01 -0.02,-0.01 -0.04,-0.01 -0,0.01 -0.01,0.03 -0.01,0.04z"/>
   <path class="fil4" d="M0.1 0.07l-0.01 -0 0 0.01 0 0.01c0,0.01 -0,0.01 0,0.02 0,0 0,0.01 0,0.01 0,0 0,0.01 0.01,0.01l0 0 0.01 -0c0.01,-0 0.01,-0.01 0.01,-0.01l0 -0 0 0c0,-0 0,-0 0.01,-0l0 -0 -0 -0 -0 -0c-0.01,-0 -0,-0 -0.01,-0.01 -0,-0 -0.01,-0 -0.01,-0l-0 0 -0 -0c-0,0 -0,0 -0,0l0 -0c-0,0.01 0,-0 -0.01,0 0,-0 0,-0 -0,-0 -0,-0 -0,-0 -0,-0 -0,-0 -0,-0 -0,-0l-0 -0c-0,-0 -0,-0 -0,-0 -0,-0 -0,-0 -0,-0z"/>
   <path class="fil1" d="M0.25 0.39c-0,-0.01 -0,-0.01 0,-0.02 0.01,-0.01 0,-0.01 0.01,-0.01 0,0 -0,0.01 -0,0.01 -0,0 -0,0 -0,0l-0 0c0,0 0,-0 0,0 -0,-0 -0,0 0,-0 -0,-0 -0,-0 0,-0 0,-0.01 0.01,-0.02 0.01,-0.04l0 -0.01c-0,0 -0,0.01 -0,0.01 -0,0 -0,0.02 -0.01,0.02 -0,-0 -0,-0 -0,-0l0.01 -0.02 -0 -0.01c0,-0 -0,-0 0,-0l-0 -0.01c-0,-0.01 -0,-0.01 -0.01,-0.02 -0,0 -0,0 -0,-0l0 0c-0,0 0,0 -0,0l0 0.02c0,0.01 -0,0.03 -0.01,0.04 -0,0 -0.01,0.01 -0.01,0.01l0.01 0 -0.01 0.01c0,0 0.01,0 0.01,0.01z"/>
   <path class="fil6" d="M0.16 0.68c0,0 0,0 -0,0 0,0 0,0 -0,0 0,0 0,0 -0,0 0,0 0,0 -0,0 0,0 0,0 -0,0l-0 0 -0 0 -0 0 -0 0 -0 0c-0,0 0,0 -0,0 -0.01,0 -0.01,0.02 -0.04,0.03 -0,0 -0.01,0 -0.02,0.01l0 0c0.02,-0 0.04,-0.02 0.05,-0.03 0,-0 0.01,-0.01 0.01,-0.01 0.01,-0.01 0.01,-0 0.01,-0.01 0.01,-0 0.01,-0.01 0.02,-0.02l0 -0c-0,-0 -0,-0 0,-0 -0,-0 -0,-0 0,-0 -0,-0 -0,-0 0,-0 -0,-0 -0,-0 0,-0 -0,-0 -0,-0 0,-0 -0,-0 -0,-0 0,-0l0 -0 -0 -0c-0,0 -0,0 -0,-0l-0 -0c-0,0 -0,0 -0,0l-0 0c-0,0 -0,0 -0,0l-0.01 0.01c-0,0 -0.01,0 -0.01,0.01 -0,0 -0,0 -0.01,0z"/>
   <path class="fil6" d="M0.29 0.72l-0 0.01c-0,0 -0,0 -0,0.01l-0 0.01c-0,0 -0,0 -0,0l0 -0.01c0,0 0,-0 -0,0 -0.01,0.01 -0,0.01 -0.03,0.03 -0.01,0 -0.01,0.01 -0.01,0.01 0,0 0,0 0,0 0.01,0 0.04,-0.02 0.05,-0.04 0.01,-0.01 0,-0.01 0.01,-0.02 0,-0 0,-0 0,-0.01 0,-0.01 0.01,-0.02 0.02,-0.03l-0.01 -0c-0,0.01 -0.01,0.02 -0.02,0.03z"/>
   <path class="fil3" d="M0.19 0.37l0 -0c0,-0 0,-0 0,-0 0,-0 -0,0 0,-0 -0,-0 -0,-0 -0,-0l-0 0c-0,-0 -0,-0 -0,-0l-0 -0c-0,-0 -0,-0 -0,-0 0,0.01 0.01,0.01 0.01,0.02 0.01,-0 0.03,0 0.04,-0.01 0.01,-0.01 0.01,-0.02 0.01,-0.04l-0.01 -0.01c-0.01,-0.01 -0.03,-0.01 -0.04,-0.01 -0,0.01 -0,0.02 -0.01,0.03l-0 0c-0,0 -0,0 -0,0 -0,0 -0,0 -0,0 -0,0 -0,0.01 -0,0.01 -0,0 0,0 0,0 0,0 0,0 -0,0l-0 0c0,0 -0,0 0,-0 -0,0 -0,0 -0,0 0,0 0,0 0,0 0,-0.01 -0,0 0,-0l0 -0c0,-0 0,-0 0,-0 0,0 0,0 0,0l0 0c-0,-0 -0,-0 -0,-0.01 -0,-0 -0,-0 -0,-0.01 0,-0 0,-0 0,-0.01 0,-0 0,-0 0,-0.01 -0,0 -0,-0 -0,0 -0,0 -0,0 -0,0 -0,-0 -0,-0 0,-0.01 0,-0 0,-0 0,-0 0,-0 0,-0 0,-0 0,-0 0,-0 0,-0 0,-0 0,-0 0,-0.01 -0,-0 -0,0 -0,-0l0 -0.01c0,-0 0,-0 0,-0.01 0,0 0,0 0,0 0,0 0,0 0,0 0,0 -0,0 0,-0 0,-0 0,-0 -0,-0 0,-0 0,0 0,0l0 0c0,0 0,0 0,0l0.01 0c-0,-0 -0,-0 -0,-0 0.01,0 0.02,0 0.02,0.01l0.01 0c0,0 0,0 0,0 0,0 0,0 0,0l0.01 0c0,0 0,0 0,0 0,0 0,0 0,0l0 0c0,0 0,0 0,0 0,0 0,0 0,0 -0,-0 -0.01,-0.01 -0.02,-0.01l0.01 0c0,0 0.01,0 0.01,0 -0,0 -0,0.01 -0,0.01 -0,0 -0,0 -0,0 -0,0 -0,0 -0,0 -0,0.01 -0.01,0.02 -0.01,0.02 -0,0 -0.02,0.01 -0.02,0.01 -0.01,0 -0,-0 -0.01,-0l0 0c0,0 0,0 0,0 0,0 0,0 0,0l-0 -0z"/>
   <path class="fil5" d="M0.1 0.26c0.02,0.01 0.01,0.01 0.03,-0 -0,-0 -0,-0.01 -0.01,-0.01 -0,-0.01 -0,-0.01 -0.01,-0.01 -0,0 -0.01,0.02 -0.01,0.03z"/>
   <path class="fil5" d="M0.09 0.09c-0,0 -0,-0 -0,0 0,0 0,0 0.01,0 0.01,0 0,0.02 -0,0.03 -0,0.01 -0,0.01 -0.01,0.01l-0 0c-0,0 -0,0 -0.01,0l-0 -0c-0,-0 -0,-0 -0,-0 0,0 0,0 0,0 0,0 0.01,0 0.01,-0l0 -0c0,-0 0,-0.01 0.01,-0.01 0,-0 0.01,-0 0.01,-0.01 0,-0 0,-0 0,-0 -0,-0 -0,-0 -0.01,-0.01 -0,-0 -0,-0.01 -0,-0.01 -0,-0.01 0,-0.01 -0,-0.02l-0 -0.01c0,0.01 0,0.01 -0,0.02 -0,-0 -0,0 -0,-0z"/>
   <path class="fil1" d="M0.18 0.53c0,-0.01 0.01,-0.01 0.01,-0.01 -0,-0 -0.02,0.01 -0.02,0.01 0,0.01 0,0 0,0.01 0.01,-0 0.02,-0 0.02,-0.01 0,-0 0,-0 0,-0l0 -0c-0.01,0 -0.01,0.01 -0.02,0.01z"/>
   <path class="fil5" d="M0.05 0.09c0,0 0,0 0,0.01l0 0c0,0 0,0 0.01,0.01 0,0 0,0 0,0l-0 0c-0,0 -0,0 -0,0 -0,0 -0,0 -0,-0 -0,0 -0,0 -0,0l-0 -0c0,-0 0,-0.01 -0,-0.01 0,0 -0,0.01 0,0.01 -0,0 -0,0 0,0 0,0 -0,0 0,0 0,0 0,-0 0,-0 0,-0 0,-0 0.01,0 -0,-0 0,-0 0,-0.01 -0.01,-0.02 -0,-0.01 -0.01,-0.02 -0,-0 -0,-0 -0,-0l-0 0.01 -0 0 -0 -0 0 -0c-0,-0 -0,-0 -0,-0 0,-0 0,-0 0,-0l-0 -0c-0,0 0,0 -0,0 -0,0 -0,0 -0,0 -0,-0 -0,0 -0,0zm0.01 0.01l-0 -0 0 0z"/>
   <path class="fil5" d="M0.15 0.64l-0 0 -0 0 -0 0c-0.01,0 -0.01,0 -0.01,0l0 0c0.01,-0 0.02,-0 0.02,-0.01l-0.01 0z"/>
   <path class="fil7" d="M0.09 0.06l0 0 0 0c-0,0 -0,0 0,0 -0,-0 0,-0 -0,-0 0,-0 0,-0 -0,-0 0,-0 0,-0 -0,-0 -0,-0 -0,-0 -0.01,-0l-0 0 -0 0 -0 0c0,0 0,0 0,-0l0 -0c0,0 0,0 0,-0l0 0c-0.01,0 -0,0.01 0,0.01 -0,0 -0,0 -0,0 0,0 0,0 0,0 0,-0 0,0 0,-0 0,-0.01 -0,-0.01 -0,-0.01 -0,-0 -0,-0 -0,-0 0,-0 0.01,0 0.01,0.01 0,-0.01 -0,-0.01 -0.01,-0.01l0 0z"/>
   <path class="fil8" d="M0.29 0.72c0,0 0,-0 0,-0 0.01,-0.01 0.02,-0.02 0.02,-0.03 -0,0 -0,-0 -0,0 -0,0 -0,0 -0,0 -0,0 -0,0 -0,0 -0,0.01 -0.02,0.02 -0.02,0.03z"/>
   <path class="fil5" d="M0.28 0.68l0 -0c0,-0 0,-0 0,-0l-0 0c-0,0 -0,0 -0,0 -0,0 -0,0 -0.01,0.01l-0 0 -0.01 0c0,0 0,0 0,0 0,-0 0.01,-0 0.01,-0 -0,0 -0,0 -0,0 0,0 0.01,-0.01 0.01,-0.01l0 0z"/>
   <path class="fil8" d="M0.16 0.68c-0,-0 -0,-0 -0,0 -0,-0 -0,-0 -0,0 -0,-0 -0,-0 -0,0 -0,-0 -0,-0 -0,0 -0,-0 -0,-0 -0,0 -0,-0 -0,-0 -0,0l-0 0 -0 0 -0 0 -0 0 -0 0c0,0 0,0 0,-0l0 -0 0 -0 0 -0 0 -0 0 -0c0,0 0,0 0,-0 0,0 0,0 0,-0 0,0 0,0 0,-0 0,0 0,0 0,-0 0,0 0,0 0,-0 0,-0 0,-0 0.01,-0 0,-0 0.01,-0 0.01,-0.01l0.01 -0.01c0,-0 0,-0 0,-0l0 -0c0,-0 0,-0 0,-0l0 0c-0,0 -0,0 0,0l0 0 -0 0c-0,-0 -0,-0 -0,0 -0,-0 -0,-0 -0,0 -0,-0 -0,-0 -0,0 -0,-0 -0,-0 -0,0 -0,-0 -0,-0 -0,0 -0,-0 -0,-0 -0,0l-0 0c0,0 0,0 0,-0 0,0 0,0 0,-0 0,0 0,0 0,-0 0,0 0,0 0,-0 0,0 0,0 0,-0 0,0 0,0 0,-0 0,0 0,0 0,-0 0,-0 0,0 0,-0l-0 -0c0,-0 0,-0 -0,-0 0,-0 0,-0 -0,-0l-0 -0 -0.02 0.02c-0.01,0 -0.01,0.01 -0.01,0.01z"/>
   <path class="fil7" d="M0.14 0.1c-0,-0 -0,-0 -0.01,-0.01l-0.01 -0.01c-0.01,-0 -0.01,0 -0.01,0 -0.01,-0 -0.01,-0.01 -0.01,-0.01 0,0 0,0 0,0 0,0 0,0 0,0l0 0c0,0 -0,-0 0,0 0,0 0,0 0,0 0,0 0,0 0,0 0.01,-0 0,0 0.01,-0l-0 0c0,-0 0,-0 0,-0l0 0 0 -0c0,0 0.01,0 0.01,0 0,0 -0,0 0.01,0.01l0 0z"/>
   <path class="fil4" d="M0.05 0.1l0 0c0,0 0,0.01 0,0.01l0 0c0,-0 0,-0 0,-0l0 -0c0,-0 0,-0 -0,-0 -0.01,-0.01 -0,-0.01 -0.01,-0.01l-0 -0 0 -0 0 0z"/>
   <path class="fil9" d="M0.29 0.72c-0,0 -0.01,0.01 -0.01,0.02 0,-0 0,0 0,-0l-0 0.01c0,-0 0,0 0,-0l0 -0.01c0,-0 0,-0 0,-0.01l0 -0.01c-0,0 -0,0 -0,0z"/>
   <path class="fil5" d="M0.04 0.08l0 -0c0,0 0,0 0.01,0 0,0 0.01,0 0.01,-0 -0.01,-0 -0.01,-0.01 -0.02,-0.01l-0 0.01c0,0 0,0 0,0z"/>
   <path class="fil10" d="M0 0.13l-0 0c0,0 0.01,0.01 0.01,0.02 0,-0 -0.01,-0.02 -0.01,-0.02l0 0 -0 0z"/>
   <path class="fil4" d="M0.27 0.69c0.01,-0 0.01,-0 0.01,-0.01l-0 -0c-0,0 -0.01,0.01 -0.01,0.01 0,0 0,0 0,-0z"/>
   <path class="fil10" d="M0.03 0.14c0,0 0,0 0,0 0,0 0,0 0.01,0.01l-0 -0.01 -0 0c0,0 -0,0 0,0 0,0 0,-0 0,0 -0,-0 -0,-0 -0,-0z"/>
   <path class="fil10" d="M0.05 0.09l-0 0 0 0 0 -0 0 -0.01 0 -0 -0 0c-0,-0 -0,0 -0,-0z"/>
   <path class="fil7" d="M0.04 0.14c-0,-0 -0,-0 -0,-0.01 -0,-0.01 -0,-0 -0,-0.01 -0,0 -0,0 -0,0.01l0 0 -0 -0c0,-0 0,0 0,-0 -0,0.01 -0,0 0,0.01 0,0 0,0 0,0 0,0 0,0 0,0l0 0c0,0 0,0 0,0 0,0 0,0 0,0z"/>
   <path class="fil11" d="M0.06 0.12c0,0 0,0 0.01,0 0,-0 0,0 0,-0 0,-0 0,-0 0,-0 -0,-0 0,-0 -0.01,0 -0,-0 -0,-0 -0,-0 -0,0 -0,-0 -0,-0 -0,-0 -0,-0 -0,-0z"/>
   <path class="fil5" d="M0.07 0.12l0 0c0,0 0.01,0 0.01,0l-0.01 -0.01c0,-0 -0,-0 0,-0l0 -0c-0,0 -0,0 -0,0 -0,0 0,-0 -0,0z"/>
   <path class="fil3" d="M0.11 0.02c0,0 0,0 0,0l0 -0c-0,-0 -0,-0 -0,-0 -0,0 -0,-0 -0,0z"/>
   <path class="fil7" d="M0.01 0.13l0 -0c0,0 -0,0 0,0 -0,-0 0,-0 -0,-0 -0,-0.01 -0.01,-0 -0,0z"/>
   <path class="fil1" d="M0.19 0.29c0,-0 0,-0 0,0l0 -0.01c-0,-0 0,-0 -0,-0 -0,0 -0,0 -0,0.01z"/>
   <path class="fil11" d="M0.05 0.09c0,-0 0,-0 0,-0 0,0 0,-0 0,-0 0,-0 0,-0 0,-0l-0 -0c-0,-0 -0,0 -0,-0l-0 0 -0 -0c0,0.01 0,0 0,0l-0 0z"/>
   <path class="fil1" d="M0.17 0.29c0,-0 0,-0 0,-0.01 -0,0 -0,-0 -0,0 -0,0 0,0 0,0z"/>
   <path class="fil11" d="M0.02 0.14l0 0c0,-0 0,-0 0,-0 -0,-0 -0,-0 -0,-0 0,0 0,0 0,0l0 0c-0,-0 0,0 -0,-0z"/>
   <path class="fil10" d="M0.06 0.12c0,0 -0,0 0,0 0,-0 0,-0 0,-0l0 -0 -0 0z"/>
  </g>
 </g>
</svg>
