<?xml version="1.0" encoding="UTF-8"?>
<!DOCTYPE svg PUBLIC "-//W3C//DTD SVG 1.1//EN" "http://www.w3.org/Graphics/SVG/1.1/DTD/svg11.dtd">
<!-- Creator: CorelDRAW -->
<svg xmlns="http://www.w3.org/2000/svg" xml:space="preserve" width="0.5176mm" height="1.7501mm" version="1.1" style="shape-rendering:geometricPrecision; text-rendering:geometricPrecision; image-rendering:optimizeQuality; fill-rule:evenodd; clip-rule:evenodd"
viewBox="0 0 0.22 0.73"
 xmlns:xlink="http://www.w3.org/1999/xlink"
 xmlns:xodm="http://www.corel.com/coreldraw/odm/2003">
 <defs>
  <style type="text/css">
   <![CDATA[
    .fil6 {fill:none;fill-rule:nonzero}
    .fil5 {fill:#627383}
    .fil7 {fill:#92918F}
    .fil0 {fill:#D9B18D}
    .fil8 {fill:white}
    .fil3 {fill:#E6B784;fill-rule:nonzero}
    .fil1 {fill:black;fill-rule:nonzero}
    .fil4 {fill:#283643;fill-rule:nonzero}
    .fil2 {fill:#585755;fill-rule:nonzero}
   ]]>
  </style>
    <clipPath id="id0" style="clip-rule:nonzero">
     <path d="M0.05 0.65c-0,-0 -0,-0.01 -0,-0.01 -0,-0 -0,-0.01 0,-0.02 0,-0 0,-0 0,-0.01 -0,-0 -0,-0 -0,-0l-0 0 -0 -0.01c-0,-0.01 -0,-0.02 -0,-0.03 -0,-0.01 -0,-0.02 -0,-0.02 -0,-0 -0,-0.02 -0,-0.03 0,-0.02 0,-0.03 0,-0.03 0,-0 0,-0 0.01,-0.01l0 -0 -0 -0c-0,-0 -0,0 -0.01,0 -0,0 -0,-0 -0,-0.01 0,-0.01 -0,-0.02 -0,-0.04 -0,-0.01 -0,-0.05 -0,-0.06 0,-0 0,-0.01 -0,-0.01 -0,-0 0,-0.03 0,-0.05 0,-0 0,-0.01 0.01,-0.01 0,-0 0.01,-0.01 0.01,-0.01 0,-0 0.01,-0.01 0.02,-0.01 0.01,-0 0.04,-0 0.03,-0 -0,0 -0,0 0,0 0,0 0,0 0,0.01 0,0 0,0.01 0,0.01 0,0 0,-0 0,-0 0,-0.01 0,-0.01 0,-0.01 0,0 0,0 0,0.01 0,0.01 0,0.01 0,0.01 0,-0 0,-0 0,-0.01 -0,-0.01 0,-0.01 0.01,-0.01 0,-0 0,-0 0,-0 -0,-0 0,-0 0.01,-0 0.01,0 0.02,0 0.02,0 0,0 0.01,0 0.01,0 0,0 0,0 0,0 0,0 0,0 0,0.01 0,0 0,0 0,0.01l0 0 -0 -0c-0.01,-0 -0.01,-0 -0.01,0 0,0 0,0 0,0 -0,0 -0,0 0,0 0,0 0,0 0,0.02 0,0.01 0,0.01 0,0.01 -0,0 -0,0 0,0.01 0,0 0,0 0,0 0,0 0,0 0,0 0,-0 0,-0 0,-0.01l0 -0c-0,-0.01 0,-0.01 0,-0.02 0,-0 0,-0 0,-0 0,0 0,0 0,0.01 0,0 0,0.01 0,0.02 0,0.01 0,0.02 -0,0.02 -0,0 -0,0 -0,0 0,0 0,0.07 -0,0.08 -0,0 -0,0.02 -0,0.02 0,0 0,0.01 0,0.01 0,0.01 0,0.01 -0,0.01 -0,0 -0,0 -0,0 -0,0 -0,0 -0,0 -0,-0 -0.01,-0 -0,-0 0,0 0,0 -0,0 -0,0 0,0 0.01,0 0,0 0.01,0.01 0.01,0.01 0,0 0,0.01 0,0.03 -0,0.03 -0,0.03 -0,0.05 -0,0.02 -0,0.02 -0,0.03 0,0.01 0,0.01 -0,0.02 -0.01,0 -0.01,0 -0,0.01 0,0.01 0,0.01 0,0.02l-0 0.01 -0 -0.01c-0,-0.01 -0.01,-0.01 -0,-0 0,0 0,0.01 -0,0 -0,-0 -0,-0 -0.01,-0 -0,-0 -0.02,-0 -0.02,-0 -0,0 -0,0 -0.01,-0 -0,-0 -0,-0 -0,-0.01 0,-0 0,-0 0,-0 0,-0 0,-0 0,-0 0,-0 0,-0 -0,-0 -0,0 -0,0 -0,-0 0,-0 0,-0 0,-0 -0,-0 0,-0 0,-0 0,-0 0,-0 0,-0 -0,0 -0,0 -0.01,0 -0.01,0.01 -0.01,0 -0.01,-0.01 0,-0 0,-0.01 0,-0.01 0,-0 0,-0 -0,-0.01 -0,-0 -0,-0.01 -0,-0.02 -0,-0.01 -0,-0.02 0,-0.03 0,-0.01 0,-0.02 0,-0.02 0,-0 0,-0 -0,-0 -0,0 -0,-0.01 0,-0.01 0.01,-0 0.01,-0.01 0.01,-0.01l0 -0 -0.01 -0c-0,-0 -0.01,-0 -0.01,-0 -0,-0 -0,-0 -0,-0 -0,0 -0,0 -0,-0 -0,-0 -0,-0.04 0,-0.04 0,-0 -0,-0.01 -0,-0.02 -0,-0 -0,-0.04 -0,-0.04 0,-0 0,-0 0,-0 0,-0 0,-0 0,-0 -0,-0 -0,-0 -0,-0 -0,-0 0,-0 0.01,-0 0.01,-0 0.01,-0 0.01,-0 0,-0 0,-0 0,-0 -0,-0 -0.01,-0 -0.01,-0 -0.01,-0 -0.01,-0 -0.01,-0 -0,-0 -0,-0 -0,-0.01 -0,-0 -0,-0.01 -0,-0.01 -0,0 -0,0 -0,0.01 0,0.01 -0,0.01 -0,0.01 -0,0 -0,0 -0.01,0 -0.01,0 -0.01,0 -0,0 0,0 0,0 0.01,0 0,0 0,0 0,0 -0,0 -0,0 0,0 0.01,0 0.01,0 0.01,0.02 -0,0.01 -0,0.01 -0,0.02 -0,0 -0,0.01 -0,0.01 -0,0 -0,0.01 -0,0.01 -0,0 -0,0.01 -0,0.01 -0,0 -0,0.01 -0,0.01 -0,0 -0,0 -0,0 0,0 0,0.01 0,0.01 -0,0.01 -0,0.01 -0,0.02 -0,0 -0,0 -0,0 -0,0 -0,0 -0,0 -0,-0 -0,-0 -0,-0 0,0 0,0 0.01,0 0,0 0.01,0.01 0.01,0.01 0,0 -0,0.01 -0,0 -0,-0 -0,0 -0,0 -0,0 -0,0 -0,0 0,0.01 0.01,0.02 0.01,0.03 0,0.01 0,0.02 -0,0.03 -0,0.02 -0,0.03 0,0.03 0,0 0,0.01 0,0.01 0,0 -0.01,0.01 -0.01,0.01 -0,-0 -0,-0 -0,0 0,0 0,0 0,0 -0,0 -0,0 0,0 0,0 0,0 0,0.01l0 0 -0 -0c-0.01,-0.01 -0.03,0 -0.03,0.01 -0,0 -0,-0 -0,-0z"/>
    </clipPath>
 </defs>
 <g id="Camada_x0020_1">
  <metadata id="CorelCorpID_0Corel-Layer"/>
  <g id="_1764598736240">
   <g>
    <path class="fil0" d="M0.18 0.35l-0 0.02c-0,0.01 0,0.02 0,0.02 0,0 0,-0 0,-0 0,0 0,0 0,0l0 0c0,-0 0,-0 0,-0 0,-0 0,-0 0,-0l-0 0 0 -0c0,-0 0,-0 0,-0 0,-0.01 0,-0.01 0,-0.01 0,-0 0,-0 0,-0 0,-0 0,-0 0,0.01l0 -0c0,0 0,0 0,0 0,0 0,0 0,0 0,0 0,0 0,0 0,0 0,0 -0,0 -0,0 -0,0 -0,0.01l0 0 0 0 0 0 -0 0 0 0 0 0 0 0 -0 0c-0,0.01 -0,0.01 -0.01,0.02 -0,0 -0,0.01 -0,0.01 0,0 0,0 0,0l0 -0 -0 0c0,-0 0,-0 0.01,-0.01 0,-0 0.01,-0.01 0.01,-0.01 0,0 0,0 -0,0.01 -0,0 -0,0 -0,0 0,0 0.01,-0.01 0.01,-0.02l0 -0.01 -0 -0.02c-0,-0.01 0,-0.02 0,-0.03l0 0 0 -0c0,-0.01 0,-0.03 0,-0.04 0,-0.02 0,-0.04 -0,-0.05 -0,-0 -0,-0.01 -0,-0.02l-0 -0.02 -0 0c-0.01,0 -0.02,0 -0.02,0.01l-0 0 0 0.01c0,0 0,0.01 0,0.02 0,0.01 0,0.01 0,0.02 -0,0.01 0,0.03 0,0.04 0,0.01 0.01,0.03 0.01,0.04 0,0.01 0,0.01 -0,0.01l-0 0zm0.01 0.03c0,0 0,0 0,0 0,0 0,0 0,0 -0,0 -0,0 -0,0.01l0 -0.01zm-0.17 0.01c0,0 0,0 0,0 0,0 0,0 0,0 0,0 0,0 0,0 0,0 0,0 0,0l0 0c0,0 0,0.01 -0,0.01 -0,0 -0,-0 -0,-0.01 -0,-0 -0,-0.01 -0,-0.01l0 0c-0,-0 -0,-0.01 -0,-0.01 0,-0 -0,-0 -0,-0 -0,0 -0,0 -0,0l0 -0 0 0c-0,0 0,0.01 0,0.01 0,0 0,0.01 0,0.01 0,0 0.01,0.01 0.01,0.01 0,0 -0,0 -0,0 -0,-0 -0,-0 -0,-0l-0 -0 0 0c-0,-0 -0,-0 -0.01,-0.01 -0,-0 -0.01,-0.01 -0.01,-0.01 0,0 0,0 -0,0 -0,-0 -0,-0 -0.01,-0.01l-0 -0.01 -0 -0.03c-0,-0.01 -0,-0.02 -0,-0.02 -0,-0.01 -0,-0.02 -0,-0.03 -0,-0.01 -0,-0.02 -0,-0.03 0,-0.01 0,-0.02 0,-0.03 0,-0 0,-0 0,-0 0,-0.01 0,-0.01 0,-0.02l0 -0.02 0.01 0c0,0 0.01,0 0.02,0l0.01 0 -0 0.01c-0,0 -0,0.01 -0,0.02 -0,0.01 -0,0.01 -0,0.03 0,0.01 -0,0.02 -0,0.03 -0,0.02 -0.01,0.04 -0.01,0.05 -0,0.01 -0,0.01 0,0.01l0 0 -0 0.02c-0,0.01 -0,0.02 -0,0.02 0,0 -0,0 -0,0l-0 -0 0 0c-0,0 -0,-0 -0,-0 -0,-0 -0,-0 -0,-0l0 -0c-0,-0 -0,-0 -0,-0 -0,-0 -0,-0 -0,-0 -0,0 -0,0 -0,0 0,0 0,0 -0,0 -0,0 -0,0 0,0 0,-0 0,-0 0,0 -0,0 0,0.01 0,0.01 0,0 0,-0 -0,-0 -0,-0 -0,-0 -0,-0l0 0c0,0 0,0 0,0 -0,-0 0,-0 0,-0zm0.16 0c-0,0 0,0 0,-0 0,-0 0,-0 -0,-0 -0,0 -0,0 -0,0zm0 -0l-0 0c-0,0 -0,0 -0,0 0,0 0,0 0,0l0 0c0,0 0,0 0,0 -0,0 0,0 0,-0l0 0c0,-0 0,-0 0,-0 0,-0 0,-0 0,-0l-0 0c0,-0 0,-0 0,-0 0,-0 0,-0.01 0,-0.01l0 -0c0,-0 0,-0 0,-0 0,-0 -0,-0 -0,-0 -0,0 -0,0 -0,0l0 0c-0,0 -0,0 -0,0 -0,0 -0,0.01 -0,0.01 0,0 -0,0.01 -0,0.01 -0,0 -0,0 -0,0zm-0.15 -0.04c0,-0 -0,-0 -0,-0 -0,-0 -0,0 -0,0 0,0 0,0 0,0 0,0 0,-0 0,-0zm-0.02 0.05c-0,-0 -0,-0 -0,-0 0,-0 0.01,0 0,0 -0,0 -0,-0 -0,-0z"/>
   </g>
   <path class="fil1" d="M0.15 0.73c-0.01,0.01 -0.02,0 -0.03,-0 -0.01,-0.01 -0.01,-0.01 -0,-0.03 0,-0.01 0,-0.01 0,-0.02 -0,-0.01 -0,-0.01 -0,-0.02 0,-0.01 0,-0.01 0,-0.01 -0,-0 -0,-0.02 -0,-0.02 0,-0 0,-0 -0,-0.01 -0,-0 -0,-0.01 0,-0.02 0,-0.01 0,-0.01 0,-0.02 -0,-0.03 -0,-0.04 -0,-0.06 0,-0.01 0,-0.01 0,-0.02 -0,-0 -0,-0.01 -0,-0.01 0,-0 0,-0 -0,-0.01 -0,-0 -0,-0.01 -0,-0.02 -0,-0.02 -0,-0.03 -0,-0.05 -0,-0.01 -0,-0.01 -0,-0.01 -0,-0.01 -0,-0.01 -0,-0 -0,0 -0,0.01 -0,0.02 -0,0.01 -0,0.02 -0,0.04 -0,0.02 -0,0.02 -0,0.03 -0,0 -0,0.03 0,0.05 0,0.01 0,0.02 0,0.03 -0,0.02 -0,0.03 0,0.04 0,0.01 0,0.01 0,0.02 -0,0 -0,0.01 -0,0.01 -0,0.01 -0,0.01 -0,0.02 -0,0 0,0.01 0,0.01 0,0 0,0.01 -0,0.01 -0,0.01 -0,0.01 0,0.02 0,0.01 -0,0.02 -0.01,0.03 -0,0 -0.02,0 -0.02,0 -0.01,-0 -0.02,-0.01 -0.02,-0.03 0,-0 0,-0.01 0,-0.02l0 -0.02 -0 -0c-0,-0 -0,-0 -0,-0.01 0,-0 -0,-0.01 -0,-0.01 -0,-0 -0,-0.01 -0,-0.01 0,-0 0,-0 -0,-0.01 -0,-0 -0,-0.01 -0,-0.02 -0,-0.01 -0,-0.02 -0,-0.02 -0,-0.01 -0,-0.02 -0,-0.05 -0,-0.02 0,-0.03 0,-0.03 0,-0 0,-0 -0,-0.01 -0,-0 -0,-0.01 -0,-0.02 0,-0.01 -0,-0.01 -0,-0.02 -0,-0.01 -0,-0.02 -0,-0.02 -0,-0.01 -0,-0.01 -0,-0.01 -0,0 -0.02,-0.01 -0.02,-0.02 -0.01,-0.02 -0.01,-0.01 -0.01,-0.05 -0,-0.02 -0,-0.04 -0,-0.05 -0,-0.02 -0,-0.05 0,-0.06 0,-0 0,-0.01 0,-0.02 0,-0.01 0,-0.02 -0,-0.02 -0,-0 -0,-0.01 0,-0.02 0,-0.01 0,-0.01 0,-0.02 0,-0.02 0.01,-0.03 0.01,-0.04 0,-0.01 0.01,-0.01 0.02,-0.01 0.01,-0 0.02,-0.01 0.02,-0.01 0.01,-0 0.01,-0.01 0.01,-0.01 0,-0 0,-0 0,-0.01 -0,-0 -0,-0.01 -0,-0.01 0,-0 -0,-0 -0,-0 -0,-0 -0,-0 -0.01,-0.01 -0,-0.01 -0,-0.01 -0,-0.01 0,-0 0,-0 0,-0.01 -0,-0.02 0,-0.03 0.02,-0.04 0.01,-0 0.01,-0 0.02,-0 0.01,-0 0.01,0 0.02,0 0.01,0 0.02,0.01 0.02,0.03 0,0 0,0.01 0,0.01 -0,0.01 -0,0.01 0,0.01 0,0 0,0 0,0 -0,0 -0.01,0.02 -0.01,0.02 -0,0 -0.01,0.01 -0.01,0.02 -0,0 0,0.01 0.01,0.01 0,0 0.01,0 0.01,0.01 0,0 0.01,0 0.01,0.01 0.02,0 0.02,0.01 0.03,0.02 0,0.01 0.01,0.03 0.01,0.03 0,0 0,0.01 0,0.02 0,0.01 0,0.01 0,0.02 -0,0 -0,0.03 0,0.04 0,0.01 0,0.04 0,0.06 -0,0.01 -0,0.02 -0,0.03 -0,0.05 -0,0.06 -0.01,0.06 -0.01,0.01 -0.01,0.01 -0.02,0.03 -0,0 -0,0 -0,0 -0,-0 -0,0 -0,0.02 -0,0.01 -0,0.01 -0,0.02 -0,0.01 -0,0.05 -0,0.07 0,0.01 -0,0.03 -0,0.05 -0,0.01 -0,0.02 -0,0.03 0,0.01 -0,0.02 -0,0.02 -0,0 -0,0.01 -0,0.01 0,0.01 -0,0.02 -0,0.02 -0,0 -0,0 -0,0.02 0,0.01 0,0.02 0,0.02 0,0.01 -0,0.01 -0.01,0.02 -0,0 -0,0 -0.01,0.01zm-0.09 -0.08c0,0 0,0 0,0 0,-0.01 0.02,-0.02 0.03,-0.01l0 0 0 -0c0,-0 -0,-0 -0,-0.01 -0,-0 -0,-0 -0,-0 0,0 0,-0 -0,-0 -0,-0 -0,-0 0,-0 0,0 0.01,-0 0.01,-0.01 -0,-0 -0,-0.01 -0,-0.01 -0,-0 -0,-0.01 -0,-0.03 0,-0.01 0,-0.02 0,-0.03 -0,-0.01 -0,-0.03 -0.01,-0.03 -0,-0 -0,-0 0,-0 0,-0 0,-0 0,-0 0,0 0,-0 0,-0 -0,-0 -0,-0 -0.01,-0.01 -0,-0 -0.01,-0 -0.01,-0 0,-0 0,-0 0,0 0,0 0,-0 0,-0 0,-0 0,-0 0,-0 0,-0 0,-0 0,-0.02 0,-0.01 -0,-0.01 -0,-0.01 -0,-0 -0,-0 0,-0 0,-0 0,-0 0,-0.01 0,-0 0,-0.01 0,-0.01 0,-0 0,-0.01 0,-0.01 0,-0 0,-0.01 0,-0.01 0,-0 0,-0.01 0,-0.02 0,-0.01 0,-0.02 -0.01,-0.02 -0,0 -0,-0 -0,-0 0,-0 0,-0 -0,-0 -0,0 -0,-0 -0.01,-0 -0,-0 -0,-0 0,-0 0,0 0.01,-0 0.01,-0 0,-0 0,-0 0,-0.01 0,-0.01 0,-0.01 0,-0.01 0,-0 0,0 0,0.01 0,0 0,0.01 0,0.01 0,0 0.01,0 0.01,0 0.01,0 0.01,0 0.01,0 0,0 0,0 -0,0 -0,0 -0,0 -0.01,0 -0.01,0 -0.01,0 -0.01,0 0,0 0,0 0,0 0,0 0,0 -0,0 -0,0 -0,0 -0,0 -0,0.01 0,0.04 0,0.04 0,0 0,0.01 0,0.02 -0,0 -0,0.04 -0,0.04 0,0 0,0 0,0 0,-0 0,-0 0,0 0,0 0,0 0.01,0l0.01 0 -0 0c-0,0 -0.01,0 -0.01,0.01 -0,0 -0,0.01 -0,0.01 0,-0 0,0 0,0 -0,0 -0,0.01 -0,0.02 -0,0.01 -0,0.02 -0,0.03 0,0.01 0,0.02 0,0.02 0,0 0,0.01 0,0.01 -0,0 -0,0.01 -0,0.01 -0,0.01 -0,0.02 0.01,0.01 0,-0 0,-0 0.01,-0 0,0 0,0 -0,0 -0,0 -0,0 -0,0 0,0 0,0 -0,0 -0,0 -0,0 0,0 0,-0 0,-0 0,0 -0,0 -0,0 -0,0 -0,0 -0,0 -0,0 -0,0 -0,0 0,0.01 0,0 0,0 0.01,0 0,-0 0.01,-0 0.02,0 0,0 0.01,0 0.01,0 0,0 0,0 0,-0 -0,-0.01 -0,-0.01 0,0l0 0.01 0 -0.01c0,-0.01 0,-0.01 -0,-0.02 -0,-0 -0,-0.01 0,-0.01 0.01,-0 0.01,-0 0,-0.02 -0,-0.01 -0,-0.01 0,-0.03 0,-0.02 0,-0.02 0,-0.05 0,-0.02 -0,-0.03 -0,-0.03 -0,-0 -0,-0 -0.01,-0.01 -0,-0 -0.01,-0 -0.01,-0 0,-0 0,-0 0,-0 -0,-0 0,-0 0,0 0,0 0,0 0,-0 0,-0 0,-0 0,-0 0,-0 0,-0 0,-0.01 -0,-0 -0,-0.01 -0,-0.01 0,-0.01 0,-0.02 0,-0.02 0,-0.01 0.01,-0.07 0,-0.08 -0,-0 -0,-0 0,-0 0,-0 0,-0 0,-0.02 -0,-0.01 -0,-0.02 -0,-0.02 -0,-0 -0,-0 -0,-0.01 -0,-0 -0,-0 -0,0 -0,0 -0,0.01 -0,0.02l0 0c0,0.01 0,0.01 -0,0.01 -0,0 -0,-0 -0,-0 -0,-0 -0,-0 -0,-0 -0,-0 -0,-0 -0,-0.01 0,-0 0,-0 -0,-0.01 -0,-0.02 -0,-0.02 -0,-0.02 -0,-0 -0,-0 -0,-0 0,-0 -0,-0 -0,-0 -0,-0 -0,-0 0.01,-0l0 0 -0 -0c-0,-0 -0,-0 -0,-0.01 -0,-0 -0,-0 -0,-0.01 -0,-0 -0,-0 -0,-0 -0,-0 -0.01,-0 -0.01,-0 -0.01,-0 -0.01,-0 -0.02,-0 -0.01,-0 -0.01,-0 -0.01,0 0,0 0,0 -0,0 -0.01,0 -0.01,0 -0.01,0.01 0,0 0,0.01 -0,0.01 -0,0 -0,-0 -0,-0.01 0,-0 -0,-0.01 -0,-0.01 -0,-0 -0,0 -0,0.01 0,0 -0,0 -0,0 -0,0 -0,-0 -0,-0.01 0,-0 -0,-0.01 -0,-0.01 -0,-0 -0,-0 -0,-0 0,-0 -0.03,-0 -0.03,0 -0.01,0 -0.01,0.01 -0.02,0.01 -0,0 -0,0 -0.01,0.01 -0,0 -0.01,0.01 -0.01,0.01 -0,0.02 -0.01,0.05 -0,0.05 0,0 0,0 0,0.01 -0,0.01 -0,0.05 0,0.06 0,0.01 0,0.03 0,0.04 -0,0.01 -0,0.01 0,0.01 0,-0 0,-0 0.01,-0l0 0 -0 0c-0,0 -0,0 -0.01,0.01 -0,0 -0,0.01 -0,0.03 -0,0.01 0,0.03 0,0.03 0,0 0,0.01 0,0.02 0,0.01 0,0.02 0,0.03l0 0.01 0 -0c0,-0 0,0 0,0 0,0 0,0 -0,0.01 -0,0 -0,0.02 -0,0.02 0,0 0,0 0,0.01zm-0.02 -0.35l-0 0 0 -0c0.01,-0 0.02,-0.01 0.03,-0.01 0.01,-0 0.04,-0 0.06,-0 0.01,0 0.02,0 0.02,0 0.01,0 0.02,0.01 0.03,0.01l0 0 -0 -0.01c-0,-0 -0,-0.01 -0,-0.01 -0,-0 -0,-0.01 -0,-0.01 0,-0 -0,-0 -0,-0 -0,-0 -0,-0 -0,-0 0,-0 0,-0.01 0,-0.02 -0,-0 -0,-0.01 -0,-0.01 0,-0 -0,-0 -0,-0 -0,0 -0,-0 -0,-0 0,-0 0,-0.01 0,-0.02 0,-0.03 0.01,-0.06 0.01,-0.06 0,0 0,0 0,0 -0,0.01 -0,0.01 -0,0.01 -0,0 -0,0.01 -0,0.01l-0 0.01 0 -0c0.01,-0 0.02,-0.01 0.03,-0.01 0,-0 0.01,-0 0.01,-0 0,-0 -0,-0.01 -0,-0.01 -0,-0.01 -0,-0.01 -0,-0.02 0,-0.01 -0,-0.02 -0.01,-0.03 -0.01,-0.01 -0.01,-0.01 -0.02,-0.02 -0.01,-0 -0.01,-0 -0.01,-0 -0,0 -0,-0 -0,-0 -0,-0 -0.01,-0 -0.01,-0 -0,-0 -0.01,-0 -0.01,-0.01 -0,-0 -0,-0 -0,-0 -0,0 -0,-0.01 -0,-0.01 0,-0.01 0,-0.01 -0,-0.01 -0,0 -0,0 -0,0.01 -0,0 -0,0 -0,-0 -0,-0 -0,-0 -0,-0 -0,-0 -0.01,-0 -0.01,0 -0,0 -0,0 -0.01,-0 -0,-0 -0,-0 -0.01,-0 -0.01,0 -0.01,0 -0.01,-0.01 -0,-0 -0,-0 -0,-0 -0,-0 -0,-0 -0,-0.01 -0,-0.01 -0,-0.01 -0.01,-0.01 -0,0 -0,0 0,0.01 0,0.01 0,0.01 0,0.01 0,-0 0,0 0,0.01 0,0.01 0,0.01 0,0.01 -0,0 0,0 0,0 0,0 0,0 -0,0 -0,0 -0.01,0 -0.02,0.01 -0.01,0 -0.02,0.01 -0.02,0.01 -0.02,0 -0.02,0.01 -0.02,0.02 -0,0.01 -0.01,0.02 -0.01,0.03 -0,0 -0,0.01 -0,0.01 -0,0 -0,0 -0,0 -0,0.01 -0,0.01 -0,0.01 0,0 0,0 0.01,0 0.01,0 0.02,0 0.02,0.01 0,0 0,0 0,-0 0,-0 -0,-0.02 -0.01,-0.03 -0,-0 -0,-0.01 0,-0.01 0,0 0,0 0,0.01 0,0 0,0.01 0,0.01 0,0 0,0.01 0,0.01 0,0 0,0.01 0,0.02 0,0.02 0,0.03 0,0.04 -0,0 -0,0.01 -0,0.01 0,0.01 -0,0.02 -0,0.02 -0,0 -0,0.01 -0,0.01zm-0.02 0.1c0.01,0.01 0.01,0.01 0.01,0.01 0,-0 -0,-0.01 -0.01,-0.01 -0,-0.01 -0.01,-0.02 -0.01,-0.02 0,-0 0,-0 0,0 0,0.01 0.01,0.02 0.01,0.02 0,0 0,-0.01 -0,-0.01 -0,-0 -0,0 -0,0 0,0 0,0 0,0 -0,0 -0,-0.01 -0,-0.01 0,-0 0,-0 -0,-0 -0,0 -0,-0 -0,-0 0,-0 0,-0 0,-0 -0,-0 -0,-0 0,-0 0,-0 0,0 0,0 0,0.01 0,0.01 0,0.01 0,-0 0,-0.01 0,-0.02l0 -0.02 -0 -0c-0,-0 -0,-0 -0,-0.01 0,-0.01 0,-0.03 0.01,-0.05 0,-0.01 0,-0.01 0,-0.03 0,-0.01 0,-0.02 0,-0.03 0,-0 0,-0.01 0,-0.02l0 -0.01 -0.01 -0c-0.01,-0 -0.01,-0 -0.02,-0l-0.01 -0 0 0.02c0,0.01 -0,0.02 -0,0.02 -0,0.01 -0,0.04 -0,0.06 0,0.01 0,0.03 0,0.05l0 0.03 0 0.01c0,0.01 0,0.01 0.01,0.01 0,0 0,-0 0,-0 -0,-0 0,0 0.01,0.01zm0.16 0.01c0,0 0,0 0.01,-0.01 0,-0 0.01,-0.01 0.01,-0.01 0,0 0,0 -0,0.01 -0,0 -0,0 -0,0 0,0 0.01,-0.01 0.01,-0.02l0 -0.01 -0 -0.02c-0,-0.02 0,-0.05 0,-0.07 0,-0.02 0,-0.04 -0,-0.05 -0,-0 -0,-0.01 -0,-0.02l-0 -0.02 -0 0c-0.01,0 -0.02,0 -0.02,0.01l-0 0 0 0.01c0,0 0,0.01 0,0.02 0,0.01 0,0.01 0,0.02 -0,0.01 0,0.03 0,0.04 0,0.01 0.01,0.03 0.01,0.04 0,0.01 0,0.01 -0,0.01l-0 0 -0 0.02c-0,0.01 0,0.02 0,0.02 0,0 0,-0 0,-0.01 0,-0.01 0,-0.01 0,-0.01 0,-0 0,-0 0,-0 0,-0 0,-0 0,0.01 0,0 0,0 0,0 -0,0 -0,0 -0,0.01 -0,0.01 -0,0.01 -0.01,0.02 -0,0 -0,0.01 -0,0.01zm-0.15 -0.07c0,0 0,0 0,0 0,-0 0,-0.03 0,-0.03 -0,-0 0,-0.01 0,-0.01 0,-0.01 0,-0.02 0,-0.03 -0,-0 0,-0.01 0,-0.01 0,-0.01 0,-0.01 0,-0.02l-0 -0.01 -0 0.01c-0,0.01 -0,0.01 -0,0.03 -0,0.01 -0,0.02 -0,0.03 -0,0.02 -0.01,0.03 -0.01,0.05 -0,0.01 -0,0.01 0,0.02zm0.15 -0.01c0,0.01 0,0.01 0,0.01 0,0 0,-0 0,-0 0,-0 0,-0 0,-0.01 -0,-0.01 -0,-0.03 -0.01,-0.05 -0,-0 -0,-0.02 -0,-0.03 -0,-0.02 -0,-0.03 -0,-0.04 -0,-0 -0,0 -0,0 0,0 -0,0.01 -0,0.02 -0,0.01 -0,0.01 0,0.02 0,0 0,0.01 0,0.01 -0,0.01 0,0.02 0,0.03 0,0 0,0.01 0,0.01 -0,0 0,0.01 0,0.02zm-0.02 0.37c0,0 0,-0 -0,-0.01 -0,-0.01 -0,-0.01 -0,-0.02 -0,-0.02 -0.01,-0.02 -0.02,-0.02 -0.01,0 -0.01,0 -0.01,0 -0,0 -0,0 -0,0.01l0 0 0 -0c0,-0 0.02,-0 0.02,-0 0.01,0 0.01,0.01 0.01,0.02 0,0.01 0,0.02 0.01,0.02zm-0.1 -0c0,0 0,0 0,-0.01 0,-0 0,-0.01 0,-0.02 0,-0.01 0,-0.02 0.02,-0.02 0.01,-0 0.01,-0 0.01,0l0 0 0 -0c0,-0 -0,-0.01 -0.01,-0.01 -0,-0 -0.01,-0 -0.02,0 -0.01,0 -0.01,0.01 -0.01,0.02 -0,0 -0,0.01 -0,0.02 -0,0.01 -0,0.01 -0,0.01zm0.11 -0.34c-0,0 -0.01,0 -0.01,0 -0,0 -0.02,-0.01 -0.02,-0.01 0,-0 0,0 0.01,0l0.01 0 0 -0c0,-0 0.01,-0.01 0,-0 -0,0 -0,0 -0,0 0,-0 0.01,-0.01 0.01,-0 0,0 0,0 0,-0 0,-0 0,-0 0,-0 0,0 -0.01,0.01 -0.01,0.01zm-0.03 -0.3c0,0 0,0 0,-0.01 0,-0.01 0,-0.01 0,-0.01 -0,0 -0.01,0.01 -0.01,0.02zm0.05 0.33c-0,0 0,0 0,-0 0,-0 0,-0.02 0,-0.02 -0,0 -0,0 -0,0.01 0,0 -0,0.01 -0,0.01 -0,0 -0,0.01 -0,0.01zm-0.06 -0.08c0,0 0,0 0,0 -0,0 -0,-0 -0,-0 -0,-0.01 -0,-0.01 0.01,-0.01 0.01,0 0.01,0 -0,0 -0.01,0 -0.01,0 -0.01,0 0,0 0,0 -0,0 -0,0 -0,0 -0,0zm-0.08 -0c-0,0 -0,0 -0,0 -0,0 -0,0 -0,-0 -0,-0 0,-0.01 0.01,-0.01 0,-0 0,0 -0,0 -0,0 -0.01,0 -0.01,0zm0.07 0.38c0,0 0,0 0,-0 0,-0 0,-0.01 0,-0.01l-0 -0 -0 0c-0,0 -0,0.01 -0,0.01 -0,0 -0,0 -0,0zm-0.04 -0.05c-0,0 0,0 0,0 0,-0 0,-0 0,-0 0,-0 -0,-0 -0,-0 -0,0 -0,0 -0,0zm0.02 -0.33c-0,0 -0,0 -0,0 -0,-0 -0,-0 -0,-0 0,0 0,-0 0,-0 0,-0 -0,-0 -0,-0 -0,-0 -0,-0 0,-0 0,0 0,0 0,0zm0 0.3c0,0 -0,0 -0,0 -0,0 -0,0 -0,0 -0,-0 -0,-0 0,-0 0,-0 0,-0 0,0zm0 0.07c0,0 0,0 0,0 0,0 0,-0 0,-0 0,-0 -0,-0 -0,-0 -0,-0 -0,0 -0,0zm-0.05 -0.34c0,0 -0,0 -0,0 -0,0 -0,-0 -0,-0 0,-0 0,-0 0,-0 0,0 0,0 0,0zm-0.02 0.05c0,0 0,0 0,0 0,-0 -0,-0 -0,-0 -0,0 0,0 0,0zm0.17 -0.01c-0,0 0,0 0,-0 0,-0 0,-0 -0,-0 -0,0 -0,0 -0,0z"/>
   <path class="fil2" d="M0.16 0.11c-0,-0 -0,-0 -0,-0 -0,-0 -0,-0 -0,-0 0,0 0,0 0,0 0,0 0,0 0,0z"/>
   <path class="fil1" d="M0.19 0.31c0,0.01 0,0.02 0,0.02 -0,-0.01 -0,-0.01 -0,-0.02z"/>
   <path class="fil2" d="M0.1 0.46c-0,0 -0,0 -0,0 -0,0.01 -0,0.02 -0,0.02 0,-0 0,-0.01 0,-0.02 0,-0 0,-0 0,-0z"/>
   <path class="fil2" d="M0.09 0.08c0,0 0,0 0.01,-0 -0,0 -0,0 -0.01,0z"/>
   <path class="fil2" d="M0.07 0.05c-0,-0 0,-0 0,-0 0,0 0,0 0,0 -0,0 -0,0 -0,0z"/>
   <path class="fil2" d="M0.01 0.24c-0,0.01 -0,0.02 -0,0.03 0,-0.01 0,-0.02 0,-0.03z"/>
   <path class="fil2" d="M0.18 0.28c0,0 0,0.01 0,0.01 -0,-0 -0,-0.01 -0,-0.01 -0,-0 -0,-0 -0,-0.01 0,0 0,0 0,0.01z"/>
   <path class="fil2" d="M0.15 0.66c-0,-0 -0,-0 -0,-0 -0,-0 -0,-0 -0,-0 0,0 0,0 0,0z"/>
   <path class="fil2" d="M0.08 0.29c0.01,-0 0.02,-0 0.03,-0 -0.01,0 -0.02,0 -0.03,0z"/>
   <path class="fil2" d="M0.12 0.69c0,-0 0,-0 0,-0 -0,-0 -0,-0 -0,-0l0 -0 0 0c0,0 0,0 0,0z"/>
   <path class="fil2" d="M0.15 0.66c-0,-0 -0,-0 -0.01,-0.01 -0,-0 -0,-0 -0,-0 0,0 0.01,0 0.01,0.01z"/>
   <path class="fil2" d="M0.09 0.09c-0,-0 -0,-0 -0,-0.01 0,0 0,0 0,0 0,0 0,0.01 0,0.01z"/>
   <path class="fil2" d="M0.12 0.29c0.01,0 0.02,0 0.03,0 -0,-0 -0.01,-0 -0.02,-0 -0,-0 -0,-0 -0.01,-0z"/>
   <path class="fil2" d="M0.08 0.25c-0,0 -0,0 0,0 0,0 0,-0 0,-0 0,-0 -0,-0 -0,0z"/>
   <path class="fil2" d="M0.06 0.26c-0,0 0,0 0,0 0,-0 0,-0 0,-0 -0,-0 -0,-0 -0,0z"/>
   <path class="fil2" d="M0.16 0.7c-0,-0 -0,-0 -0,-0.01 0,0 0,0 0,0 0,0 0,0 0,-0 0,0.01 0,0.01 -0,0.01z"/>
   <path class="fil2" d="M0.12 0.7c0,-0 0,-0 0,-0 0,-0 0,-0.01 0,-0.01 -0,0 -0,0 -0,0.01l-0 0 0 -0c0,-0 0,-0 0,-0 -0,0 -0,0 -0,0 -0,0 -0,0.01 -0,0z"/>
   <path class="fil2" d="M0.18 0.23c-0,-0.01 -0,-0.01 -0,-0 0,0 -0,0.01 -0,0.01 -0,0 -0,0.01 -0,0.01 -0,-0 -0,-0.01 0,-0.01 0,-0.01 0,-0.01 0,-0.02 -0,-0 0,-0 0,-0 0,0 0,0.01 0,0.01z"/>
   <path class="fil2" d="M0.09 0.69c0,-0 0,-0 0,-0 0,0 0,0 0,0 0,0 -0,0 -0,0 -0,0 -0,-0 -0,-0z"/>
   <path class="fil2" d="M0.09 0.62c-0,-0 -0,-0 -0,-0 -0,0 -0,0 -0,0 0,0 0,0 0,-0 0,-0 0,-0 0,-0z"/>
   <path class="fil1" d="M0.09 0.31c0,-0 -0,-0 -0,-0 -0,0 -0,0 -0,0 0,0 0,0 0,0 -0,0 -0,0 -0,0 -0,-0 -0,0 0,0 0,0 0,0 0,-0z"/>
   <path class="fil2" d="M0.07 0.65c0,-0 0,-0 0,-0 0,-0 0,-0 0,0 -0,0 -0,0 -0,0 -0,0 -0,0 -0,-0z"/>
   <path class="fil2" d="M0.11 0.42c-0,-0.02 -0,-0.01 -0.01,0.01 -0,0.01 -0,0.01 -0,0.02 0,-0.01 0,-0.01 0,-0.02 0,-0.01 0,-0.02 0,-0.02 0,-0.01 0,-0.01 0,0 0,0 0,0.01 0,0.01z"/>
   <path class="fil3" d="M0.14 0.07c0,-0.01 0,-0.02 0.01,-0.02 0,0 0,0 -0,0.01 -0,0 -0,0 -0,0 0,-0 0,-0 0,-0 0,-0.01 0,-0.01 -0,-0.01 -0,0 -0,0.01 -0,0.01z"/>
   <path class="fil2" d="M0.1 0.28c-0,0 -0.01,0 -0.01,0 -0.01,0 -0.01,0 -0.01,-0 0,-0 0.01,-0 0.01,-0 0.01,-0 0.01,-0 0.01,0z"/>
   <path class="fil1" d="M0.04 0.32c0,-0 0,-0 0.01,-0 0,-0 0.01,-0 0,-0 -0.01,0 -0.01,0 -0.01,0.01 0,0 0,0 0,0 0,-0 0,-0 0,-0z"/>
   <path class="fil1" d="M0.13 0.32c-0,-0 -0,-0 0,-0 0,-0 0,-0 0,-0 -0,-0 0,-0 0.01,-0 0.01,-0 0.01,-0 0,-0 -0.01,0 -0.01,0 -0.01,0.01 0,0 0,0 0,0 0,0 0,-0 -0,-0z"/>
   <path class="fil2" d="M0.15 0.67l0 0 0 -0c0,-0 0,-0 -0,-0 0,0 0,0 0,0.01 0,0 0,0.01 0,0.01 -0,-0 -0,-0 -0,-0 -0,-0 -0,-0 -0,0 -0,0 -0,0 -0,0 -0,-0 -0,-0.01 -0,-0.01 -0,-0.01 -0,-0.01 -0,-0.01 0,0 0,0 0,0z"/>
   <path class="fil2" d="M0.1 0.27c0,0 -0.01,0 -0.02,-0 -0,-0 -0,-0 -0,-0 0,-0 0,0 0.01,0 0.01,0 0.01,0 0.01,0z"/>
   <path class="fil3" d="M0.08 0.07c0,0 0,0 0,0 0,0 0,-0 0,-0 -0,-0 -0,-0 -0,-0 0,-0 0,-0 0,-0 0,0 0,0.01 0,0.01 0,0 0,0 0,0 0,0 0,0 0,0 -0,-0 -0,-0 -0,-0 -0,-0 -0,-0 -0,0 -0,0 0,0 0,0 -0,-0.01 -0,-0.01 -0,-0.01 -0,0 -0,-0 -0,-0.01 -0,-0 -0,-0 -0,-0.01 0,0 0,0 0,-0 0,-0 0,-0 -0,-0 0,0 0,0 0,0.01 -0,-0 -0,-0 -0,-0 -0,0 -0,0 -0,0.01z"/>
   <path class="fil2" d="M0.15 0.18c0,0 -0,0 -0.01,-0 -0.01,-0.01 -0.02,-0.01 -0.01,-0.01 0.01,0 0.02,0.01 0.02,0.01z"/>
   <path class="fil2" d="M0.04 0.3c0,-0 0,-0.01 0,-0.01 0,-0.01 0,-0.01 0,-0.02 -0,-0 0,-0.01 0,-0.01 0,-0.01 0,-0.02 -0,-0.04 -0,-0.01 -0,-0.01 -0,-0.02 -0,-0 -0,-0.01 -0,-0.01 -0,-0 -0,-0.01 -0,-0.01 -0,-0 -0,-0 -0,-0.01 -0,-0 -0,0 -0,0.01 0,0 0.01,0.02 0.01,0.03 0,0 -0,0 -0,0 -0.01,-0 -0.02,-0.01 -0.02,-0.01 -0,-0 -0.01,-0 -0.01,-0 -0,-0 -0,-0 0,-0.01 0,-0 0,-0 0,-0 0,-0 0,-0.01 0,-0.01 0,-0 0,-0.01 0,-0.01 -0,0.01 -0,0.01 -0,0.02 0,0.01 0,0.01 0,0.01 0,0 0,0 -0,0l-0 0 0 0c0,0 0.01,0 0.01,0 0,0 0.01,0 0.01,0l0 0 -0 -0c-0,-0 -0,-0 -0,-0 0,0 0,-0 0,-0.01 0,-0.01 0,-0.01 -0,-0.01 -0,-0 -0,-0 -0,-0.01 0,-0 -0,-0 -0,-0.01 -0,-0 -0,-0 0,-0 0,0 0,-0 0,-0.01 -0,-0.01 -0,-0.01 0,-0 0,0 0,0 0,-0 0,-0.01 -0,-0.02 -0,-0.02 -0,-0 -0,-0 -0,0 -0,0 -0.01,0.01 -0.01,0.01 0,-0 0,-0 0,-0.01 0,-0.01 0.01,-0.01 0.02,-0.02 0.01,-0 0.02,-0.01 0.02,-0.01 0.01,-0 0.01,-0.01 0.02,-0.01 0,-0 0.01,-0 0,-0 -0,-0 -0,-0 -0,-0l0.02 0c0.01,0 0.02,0 0.02,0 0,0 0.01,-0 0.01,-0 0,-0 0,-0 0,-0.01 0,-0.01 0,-0.01 0,-0.01 0,0 0,0 -0,0.01 -0,0.01 -0,0.01 0,0.01 0,0 0,0 0,0 0,0 0.01,0 0.01,0.01 0,0 0,0 0.01,0 -0,-0 -0.01,-0 -0.01,-0 -0,-0 -0.02,-0 -0.02,-0 0,0 -0,0 -0.01,0 -0,0 -0,-0 -0,-0 0,-0 0,-0 -0.01,-0 -0,0 -0.01,-0 -0.02,-0 -0.01,-0 -0.01,-0 -0.01,0 0,0 0,0 -0,0 -0.01,-0 -0.02,-0 -0.02,0 -0,0 -0.01,0.01 -0.02,0.01 -0.01,0 -0.01,0 -0.01,0.01 -0,0 0,0.01 0,0.02 0,0.01 0,0.01 0,0.01 0,-0 0,0 0,0.01 0,0.01 0,0.01 0.01,0.01 0,0 0,0 0,0.01 -0,0 -0,0.01 -0,0.01 -0,0.01 0,0.02 0.01,0.02 0,0 0,0 0,0 0,0 0.01,0.01 0.01,0.01 0,0 0.01,0 0,0 -0,0 -0.01,-0 -0.01,-0 -0,-0 -0.01,-0 -0.01,-0 -0,0 -0,0 0,0 0,0 0,0 0.01,0 0.01,-0 0.01,0 -0,0.01 -0,0 -0.01,0.01 -0.01,0.01l-0 0 0 -0c0,-0 0,-0 0.01,-0 0,-0 0.01,-0 0.01,-0.01l0.01 -0 0.02 -0c0.03,-0 0.04,0 0.04,0.01 0,0 0,0 -0.02,0 -0.02,-0 -0.04,0 -0.04,0 -0,0 -0,0 0.01,0 0.01,0 0.02,-0 0.03,-0 0.01,-0 0.02,-0 0.02,0 0.01,0 0.01,0 0.01,-0 -0,-0 -0.01,-0.01 -0.02,-0.01 -0.01,-0 -0.01,-0 -0.01,-0.01 0,-0 0.01,-0 0.02,-0 0,0 0,0 0,0 0,0 0,0 0,-0 0,-0 0,-0 0,-0.01 -0,-0.01 -0,-0.01 0,-0.01 0,-0 0.01,-0.01 0.01,-0.02 -0,-0 -0,-0.01 -0,-0.01 -0,-0 -0,-0.01 -0,-0.01 0,-0 0,-0 0,-0 0.01,-0 0.01,-0.01 0.01,-0.02l0 -0 0 0 0 -0c0,-0 0,-0.01 0,-0.02 0,-0.01 0,-0.02 0,-0.02 -0,-0 -0.01,-0 -0.01,-0 0,0 0,0 0,0 0.01,0 0.02,0.01 0.02,0.02 0,0 0,0 0,0 -0,-0.01 -0.01,-0.01 -0.01,-0.01 -0,0 -0,0 -0,0 0,0 -0,0.01 -0,0.01 -0,0.01 -0,0.01 -0,0.02 0,0 0,0 0,-0 0,-0.01 0,-0 0,0 -0,0 -0,0.01 0,0.01 0,-0 0,0 -0,0.01 -0,0 -0,0.01 -0,0.01 0,0 0,0 0,0 -0,0 -0,0.01 -0,0.01 -0,0 -0,0.01 0,0.01 0,0 0,0 0,0 -0,0 -0,0 -0,0 0,0 0,0 0.01,0 0,-0 0.01,-0 0.01,-0 0,-0 0,-0 0,-0 0,0 0,-0 0,-0 0,-0 -0,-0 -0.01,-0 -0.01,0 -0.01,0 -0,-0 0,-0 0,-0 0.01,-0 0,-0 0,-0 0,-0.01 0,-0.01 0,-0.01 -0,-0.01 -0,-0 -0,-0 -0,-0 0,-0 0,-0.01 0,-0.02 0,0.01 0,0.01 0,0.01 0,0 0,0.01 0,0.02 0,0.01 0,0.01 0,0.01 0,0 -0,0 -0.01,0 -0.01,0 -0.02,0 -0.03,0.01l-0 0 0 -0.01c0,-0.01 0,-0.01 0,-0.01 0,-0 0,-0 0,-0.01 0,-0 -0,-0 -0,-0 -0,-0 -0.01,0.02 -0.01,0.06 -0,0.01 -0,0.02 -0,0.02 -0,0 -0,0 0,0 0,-0 0,0 0,0 0,0 0,0.01 0,0.01 0,0.01 0,0.01 -0,0.02 -0,0 -0,0 0,0 0,0 0,0 0,0 -0,0 0,0.01 0,0.01 0,0 0,0.01 0,0.01l0 0.01 -0 -0c-0,-0 -0.01,-0.01 -0.02,-0.01 0.01,0 0.01,0 0.01,-0 -0,-0 -0.01,-0 -0.02,-0.01 -0,-0 -0.01,-0 -0.02,-0l-0.01 -0 0.01 0c0.01,0 0.01,0 0.02,0 0.01,0 0.02,0 0.02,0 0,-0 -0.01,-0.01 -0.01,-0.01 -0,0 -0,0 -0.01,-0 -0.01,-0 -0.01,-0 -0.01,0 -0,0 -0.03,0 -0.03,-0 -0,-0 0,-0 0.01,-0 0.01,-0 0.02,-0 0.02,-0 0,-0 -0,-0 -0.01,-0 -0.01,0 -0.03,0 -0.05,0 -0.01,-0 -0.01,-0 -0.01,0 0,0 0,0 0,0 -0,0 -0,0 -0.01,0 -0,0 -0.01,0 -0.01,0 -0,0 -0.01,0.01 -0.01,0.02 0,0 0,-0 0,-0 0,-0 0.01,-0 0.01,-0 0,-0 0,-0 0,0 -0,0 -0,0 -0.01,0 -0,0 -0.01,0 -0.01,0 -0,0 -0,0 0.01,-0 0,-0 0,-0 0,-0 -0.01,0 -0.01,0.01 -0.02,0.01l-0 0 0 -0z"/>
   <path class="fil4" d="M0.05 0.65c-0,-0 -0,-0.01 -0,-0.01 -0,-0 -0,-0.01 0,-0.02 0,-0 0,-0 0,-0.01 -0,-0 -0,-0 -0,-0l-0 0 -0 -0.01c-0,-0.01 -0,-0.02 -0,-0.03 -0,-0.01 -0,-0.02 -0,-0.02 -0,-0 -0,-0.02 -0,-0.03 0,-0.02 0,-0.03 0,-0.03 0,-0 0,-0 0.01,-0.01l0 -0 -0 -0c-0,-0 -0,0 -0.01,0 -0,0 -0,-0 -0,-0.01 0,-0.01 -0,-0.02 -0,-0.04 -0,-0.01 -0,-0.05 -0,-0.06 0,-0 0,-0.01 -0,-0.01 -0,-0 0,-0.03 0,-0.05 0,-0 0,-0.01 0.01,-0.01 0,-0 0.01,-0.01 0.01,-0.01 0,-0 0.01,-0.01 0.02,-0.01 0.01,-0 0.04,-0 0.03,-0 -0,0 -0,0 0,0 0,0 0,0 0,0.01 0,0 0,0.01 0,0.01 0,0 0,-0 0,-0 0,-0.01 0,-0.01 0,-0.01 0,0 0,0 0,0.01 0,0.01 0,0.01 0,0.01 0,-0 0,-0 0,-0.01 -0,-0.01 0,-0.01 0.01,-0.01 0,-0 0,-0 0,-0 -0,-0 0,-0 0.01,-0 0.01,0 0.02,0 0.02,0 0,0 0.01,0 0.01,0 0,0 0,0 0,0 0,0 0,0 0,0.01 0,0 0,0 0,0.01l0 0 -0 -0c-0.01,-0 -0.01,-0 -0.01,0 0,0 0,0 0,0 -0,0 -0,0 0,0 0,0 0,0 0,0.02 0,0.01 0,0.01 0,0.01 -0,0 -0,0 0,0.01 0,0 0,0 0,0 0,0 0,0 0,0 0,-0 0,-0 0,-0.01l0 -0c-0,-0.01 0,-0.01 0,-0.02 0,-0 0,-0 0,-0 0,0 0,0 0,0.01 0,0 0,0.01 0,0.02 0,0.01 0,0.02 -0,0.02 -0,0 -0,0 -0,0 0,0 0,0.07 -0,0.08 -0,0 -0,0.02 -0,0.02 0,0 0,0.01 0,0.01 0,0.01 0,0.01 -0,0.01 -0,0 -0,0 -0,0 -0,0 -0,0 -0,0 -0,-0 -0.01,-0 -0,-0 0,0 0,0 -0,0 -0,0 0,0 0.01,0 0,0 0.01,0.01 0.01,0.01 0,0 0,0.01 0,0.03 -0,0.03 -0,0.03 -0,0.05 -0,0.02 -0,0.02 -0,0.03 0,0.01 0,0.01 -0,0.02 -0.01,0 -0.01,0 -0,0.01 0,0.01 0,0.01 0,0.02l-0 0.01 -0 -0.01c-0,-0.01 -0.01,-0.01 -0,-0 0,0 0,0.01 -0,0 -0,-0 -0,-0 -0.01,-0 -0,-0 -0.02,-0 -0.02,-0 -0,0 -0,0 -0.01,-0 -0,-0 -0,-0 -0,-0.01 0,-0 0,-0 0,-0 0,-0 0,-0 0,-0 0,-0 0,-0 -0,-0 -0,0 -0,0 -0,-0 0,-0 0,-0 0,-0 -0,-0 0,-0 0,-0 0,-0 0,-0 0,-0 -0,0 -0,0 -0.01,0 -0.01,0.01 -0.01,0 -0.01,-0.01 0,-0 0,-0.01 0,-0.01 0,-0 0,-0 -0,-0.01 -0,-0 -0,-0.01 -0,-0.02 -0,-0.01 -0,-0.02 0,-0.03 0,-0.01 0,-0.02 0,-0.02 0,-0 0,-0 -0,-0 -0,0 -0,-0.01 0,-0.01 0.01,-0 0.01,-0.01 0.01,-0.01l0 -0 -0.01 -0c-0,-0 -0.01,-0 -0.01,-0 -0,-0 -0,-0 -0,-0 -0,0 -0,0 -0,-0 -0,-0 -0,-0.04 0,-0.04 0,-0 -0,-0.01 -0,-0.02 -0,-0 -0,-0.04 -0,-0.04 0,-0 0,-0 0,-0 0,-0 0,-0 0,-0 -0,-0 -0,-0 -0,-0 -0,-0 0,-0 0.01,-0 0.01,-0 0.01,-0 0.01,-0 0,-0 0,-0 0,-0 -0,-0 -0.01,-0 -0.01,-0 -0.01,-0 -0.01,-0 -0.01,-0 -0,-0 -0,-0 -0,-0.01 -0,-0 -0,-0.01 -0,-0.01 -0,0 -0,0 -0,0.01 0,0.01 -0,0.01 -0,0.01 -0,0 -0,0 -0.01,0 -0.01,0 -0.01,0 -0,0 0,0 0,0 0.01,0 0,0 0,0 0,0 -0,0 -0,0 0,0 0.01,0 0.01,0 0.01,0.02 -0,0.01 -0,0.01 -0,0.02 -0,0 -0,0.01 -0,0.01 -0,0 -0,0.01 -0,0.01 -0,0 -0,0.01 -0,0.01 -0,0 -0,0.01 -0,0.01 -0,0 -0,0 -0,0 0,0 0,0.01 0,0.01 -0,0.01 -0,0.01 -0,0.02 -0,0 -0,0 -0,0 -0,0 -0,0 -0,0 -0,-0 -0,-0 -0,-0 0,0 0,0 0.01,0 0,0 0.01,0.01 0.01,0.01 0,0 -0,0.01 -0,0 -0,-0 -0,0 -0,0 -0,0 -0,0 -0,0 0,0.01 0.01,0.02 0.01,0.03 0,0.01 0,0.02 -0,0.03 -0,0.02 -0,0.03 0,0.03 0,0 0,0.01 0,0.01 0,0 -0.01,0.01 -0.01,0.01 -0,-0 -0,-0 -0,0 0,0 0,0 0,0 -0,0 -0,0 0,0 0,0 0,0 0,0.01l0 0 -0 -0c-0.01,-0.01 -0.03,0 -0.03,0.01 -0,0 -0,-0 -0,-0z"/>
   <g style="clip-path:url(#id0)">
    <g>
     <path id="_1" class="fil5" d="M0.07 0.29c-0,0 -0,0.01 -0.01,0.01 -0,0 -0.01,0.01 -0.01,0.02 -0,0.01 -0.01,0.01 -0.01,0.02 -0,0.01 -0,0.01 -0,0.02 -0,0.01 0,0.01 0,0.02 0,0 0.01,0.01 0.01,0.01 0.01,0 0.01,0 0.02,0 0,0 0.01,0 0.01,0 -0,0 -0.01,0 -0.01,0 -0.01,0 -0.01,0 -0.01,0.01 -0,0 -0.01,0.01 -0.01,0.01 -0,0 0,0.01 0,0.01 -0,0 -0,0.01 -0,0.01 -0,0 -0,0.01 -0,0.01 0,0.01 0,0.01 0,0.02 0,0.01 0,0.01 -0,0.02 -0,0.01 0,0.01 0,0.01 0,0 0.01,0 0.01,0 0.01,-0 0.01,0 0.01,0 0,0 -0.01,0 -0.01,0 -0,0 0,0 0.01,0.01 0,0 0.01,0.01 0.01,0.01 -0,0 -0.01,-0 -0.01,-0 -0.01,-0 -0.01,-0 -0.01,0 -0,0 -0,0.01 -0.01,0.01 -0,0 -0,0.01 -0,0.01 -0,0 0,0.01 0,0.02 0,0.01 0,0.01 0,0.02 0,0.01 0,0.01 0,0.01 0,0 0.01,0.01 0.01,0.01 0,0 0.01,0 0.01,0 0,0 -0,0 -0.01,0 -0,0 -0.01,0 -0.01,0 -0,0 -0,0.01 -0,0.01 -0,0 0,0.01 0,0.01 0,0 0,0 0.01,0.01 0,0 0.01,0 0.01,0 0,0 -0,0 -0.01,0 -0,0 -0.01,0 -0.01,0.01 -0,0 -0,0.01 -0,0.01 0,0 0,0.01 0,0.01 0,0 0,0.01 0.01,0.01 0.01,-0 0.01,-0.01 0.02,-0.01 0,-0 0,-0 -0,-0.01 -0,-0 -0.01,-0.01 -0.01,-0.01 0,-0 0,-0 0.01,-0 0,-0 0,-0 0,-0.01 0,-0 0,-0.01 0,-0.01 0,-0 -0,-0.01 -0,-0.01 -0,-0 0,-0.01 0,-0.02 0,-0.01 0,-0.01 0,-0.02 0,-0 0,-0 -0,-0.01 -0,-0 -0,-0.01 -0,-0.02 -0,-0.01 -0,-0.01 -0,-0.02 -0,-0.01 0,-0.01 0,-0.02 0,-0.01 0,-0.01 0,-0.01 0,-0 0,-0.01 0,-0.02 -0,-0.01 -0,-0.01 -0,-0.02 -0,-0.01 0,-0.01 0,-0.02 0,-0.01 0,-0.01 0,-0.02 0,-0 0,-0.01 0.01,-0.01 0,-0 0,-0 0,-0 0,-0 0,-0 -0,-0 -0,-0 -0,-0 -0.01,-0 -0,-0 -0,-0 -0,-0 0,-0 0.01,-0 0.01,-0 0,-0 0,-0 0,-0 -0,-0 -0,-0 -0,-0.01 -0,-0 0,-0 0,-0 0,-0 0.01,-0 0.01,-0 0.01,-0 0.01,-0 0.02,-0 0,-0 0,-0 0,0 0,0 0,0 0,0 -0,0 -0,0 -0.01,0 -0,0 -0.01,0.01 -0.01,0.01 -0,0 -0.01,0.01 -0.01,0.01 -0,0 -0,0.01 -0,0.01 0,0 0,0.01 0.01,0.01 0,0 0,0.01 0,0.01 0,0 -0,0 -0,0.01 -0,0 0,0.01 0,0.01 0,0.01 0,0.01 0,0.02 0,0.01 0,0.01 0,0.01 0,0 0.01,0.01 0.02,0.01 0.01,0 0.01,0 0.01,0 0,0 -0,0 -0,0 -0,0 -0.01,0 -0.01,0 -0,0 -0,0 0,0 0,-0 0.01,-0 0.01,-0 0,0 -0,0 -0.01,0 -0,0 -0.01,0 -0.01,0 -0,0 -0.01,0.01 -0.01,0.01 -0,0 -0.01,0.01 -0.01,0.01 -0,0.01 -0,0.01 -0,0.02 0,0.01 0,0.01 0,0.02 0,0 0,0.01 0.01,0.01 0,0 0,0.01 0.01,0.01 0,0 0,0.01 0,0.01 -0,0 -0,0 -0,0 -0,0 -0.01,0 -0.01,0 -0,0 -0,0.01 0,0.01 0,0 0.01,-0 0.01,-0 0,-0 0.01,-0 0.01,0 -0,0 -0,0.01 -0.01,0.01 -0,0 -0.01,0.01 -0.01,0.01 -0,0 -0,0 -0,0.01 0,0 0.01,0 0.01,0.01 0,0 0,0.01 0,0.01 0,0 0,0.01 0.01,0.01 0,-0 0.01,-0 0.01,-0.01 0,-0 0,-0.01 -0,-0.01 -0,-0 -0,-0.01 -0,-0.01 0,-0 0,-0 0.01,-0.01 0,-0 0.01,-0 0.01,-0.01 0,-0 0,-0.01 0,-0.01 -0,-0 -0,-0 -0,-0.01 -0,-0 -0,-0.01 -0,-0.01 -0,-0 0,-0.01 0,-0.01 0,-0 0.01,-0.01 0.01,-0.02 0,-0.01 0,-0.01 0,-0.02 0,-0.01 -0,-0.02 -0,-0.03 -0,-0.01 -0,-0.01 -0,-0.02 0,-0.01 0,-0.01 0,-0.02 0,-0.01 -0,-0.02 0,-0.03 0,-0.01 0,-0.02 0,-0.03 0,-0.01 0,-0.01 -0,-0.02 -0,-0.01 -0,-0.01 -0,-0.02 -0,-0 -0,-0.01 -0,-0.01 -0,-0 0,-0 0,-0 0,-0 0,-0 0,-0.01 0,-0.01 0,-0.02 0,-0.02 -0,-0.01 -0,-0.01 -0,-0.01 -0,-0 -0.01,-0 -0.01,-0 -0,-0 -0.01,-0 -0.01,-0 -0.01,-0 -0.01,0 -0.02,-0 -0,-0 -0.01,-0 -0,-0 0,-0 0.01,-0 0.01,-0 0.01,-0 0.01,0 0.01,0 0,0 0.01,0 0.01,0 0,0 0,-0 0,-0.01 -0,-0 -0,-0.01 -0.01,-0.02 -0,-0 -0,-0.01 -0.01,-0.01 -0,-0 -0,-0 -0,-0.01 -0,-0 -0,-0 -0,-0 -0,-0 -0.01,-0 -0.02,-0 -0.01,-0 -0.02,0 -0.03,0 -0.01,0 -0.01,-0 -0.02,0 -0,0 -0.01,0.01 -0.01,0.01 -0,0 -0,0 -0,0z"/>
    </g>
   </g>
   <path class="fil6" d="M0.05 0.65c-0,-0 -0,-0.01 -0,-0.01 -0,-0 -0,-0.01 0,-0.02 0,-0 0,-0 0,-0.01 -0,-0 -0,-0 -0,-0l-0 0 -0 -0.01c-0,-0.01 -0,-0.02 -0,-0.03 -0,-0.01 -0,-0.02 -0,-0.02 -0,-0 -0,-0.02 -0,-0.03 0,-0.02 0,-0.03 0,-0.03 0,-0 0,-0 0.01,-0.01l0 -0 -0 -0c-0,-0 -0,0 -0.01,0 -0,0 -0,-0 -0,-0.01 0,-0.01 -0,-0.02 -0,-0.04 -0,-0.01 -0,-0.05 -0,-0.06 0,-0 0,-0.01 -0,-0.01 -0,-0 0,-0.03 0,-0.05 0,-0 0,-0.01 0.01,-0.01 0,-0 0.01,-0.01 0.01,-0.01 0,-0 0.01,-0.01 0.02,-0.01 0.01,-0 0.04,-0 0.03,-0 -0,0 -0,0 0,0 0,0 0,0 0,0.01 0,0 0,0.01 0,0.01 0,0 0,-0 0,-0 0,-0.01 0,-0.01 0,-0.01 0,0 0,0 0,0.01 0,0.01 0,0.01 0,0.01 0,-0 0,-0 0,-0.01 -0,-0.01 0,-0.01 0.01,-0.01 0,-0 0,-0 0,-0 -0,-0 0,-0 0.01,-0 0.01,0 0.02,0 0.02,0 0,0 0.01,0 0.01,0 0,0 0,0 0,0 0,0 0,0 0,0.01 0,0 0,0 0,0.01l0 0 -0 -0c-0.01,-0 -0.01,-0 -0.01,0 0,0 0,0 0,0 -0,0 -0,0 0,0 0,0 0,0 0,0.02 0,0.01 0,0.01 0,0.01 -0,0 -0,0 0,0.01 0,0 0,0 0,0 0,0 0,0 0,0 0,-0 0,-0 0,-0.01l0 -0c-0,-0.01 0,-0.01 0,-0.02 0,-0 0,-0 0,-0 0,0 0,0 0,0.01 0,0 0,0.01 0,0.02 0,0.01 0,0.02 -0,0.02 -0,0 -0,0 -0,0 0,0 0,0.07 -0,0.08 -0,0 -0,0.02 -0,0.02 0,0 0,0.01 0,0.01 0,0.01 0,0.01 -0,0.01 -0,0 -0,0 -0,0 -0,0 -0,0 -0,0 -0,-0 -0.01,-0 -0,-0 0,0 0,0 -0,0 -0,0 0,0 0.01,0 0,0 0.01,0.01 0.01,0.01 0,0 0,0.01 0,0.03 -0,0.03 -0,0.03 -0,0.05 -0,0.02 -0,0.02 -0,0.03 0,0.01 0,0.01 -0,0.02 -0.01,0 -0.01,0 -0,0.01 0,0.01 0,0.01 0,0.02l-0 0.01 -0 -0.01c-0,-0.01 -0.01,-0.01 -0,-0 0,0 0,0.01 -0,0 -0,-0 -0,-0 -0.01,-0 -0,-0 -0.02,-0 -0.02,-0 -0,0 -0,0 -0.01,-0 -0,-0 -0,-0 -0,-0.01 0,-0 0,-0 0,-0 0,-0 0,-0 0,-0 0,-0 0,-0 -0,-0 -0,0 -0,0 -0,-0 0,-0 0,-0 0,-0 -0,-0 0,-0 0,-0 0,-0 0,-0 0,-0 -0,0 -0,0 -0.01,0 -0.01,0.01 -0.01,0 -0.01,-0.01 0,-0 0,-0.01 0,-0.01 0,-0 0,-0 -0,-0.01 -0,-0 -0,-0.01 -0,-0.02 -0,-0.01 -0,-0.02 0,-0.03 0,-0.01 0,-0.02 0,-0.02 0,-0 0,-0 -0,-0 -0,0 -0,-0.01 0,-0.01 0.01,-0 0.01,-0.01 0.01,-0.01l0 -0 -0.01 -0c-0,-0 -0.01,-0 -0.01,-0 -0,-0 -0,-0 -0,-0 -0,0 -0,0 -0,-0 -0,-0 -0,-0.04 0,-0.04 0,-0 -0,-0.01 -0,-0.02 -0,-0 -0,-0.04 -0,-0.04 0,-0 0,-0 0,-0 0,-0 0,-0 0,-0 -0,-0 -0,-0 -0,-0 -0,-0 0,-0 0.01,-0 0.01,-0 0.01,-0 0.01,-0 0,-0 0,-0 0,-0 -0,-0 -0.01,-0 -0.01,-0 -0.01,-0 -0.01,-0 -0.01,-0 -0,-0 -0,-0 -0,-0.01 -0,-0 -0,-0.01 -0,-0.01 -0,0 -0,0 -0,0.01 0,0.01 -0,0.01 -0,0.01 -0,0 -0,0 -0.01,0 -0.01,0 -0.01,0 -0,0 0,0 0,0 0.01,0 0,0 0,0 0,0 -0,0 -0,0 0,0 0.01,0 0.01,0 0.01,0.02 -0,0.01 -0,0.01 -0,0.02 -0,0 -0,0.01 -0,0.01 -0,0 -0,0.01 -0,0.01 -0,0 -0,0.01 -0,0.01 -0,0 -0,0.01 -0,0.01 -0,0 -0,0 -0,0 0,0 0,0.01 0,0.01 -0,0.01 -0,0.01 -0,0.02 -0,0 -0,0 -0,0 -0,0 -0,0 -0,0 -0,-0 -0,-0 -0,-0 0,0 0,0 0.01,0 0,0 0.01,0.01 0.01,0.01 0,0 -0,0.01 -0,0 -0,-0 -0,0 -0,0 -0,0 -0,0 -0,0 0,0.01 0.01,0.02 0.01,0.03 0,0.01 0,0.02 -0,0.03 -0,0.02 -0,0.03 0,0.03 0,0 0,0.01 0,0.01 0,0 -0.01,0.01 -0.01,0.01 -0,-0 -0,-0 -0,0 0,0 0,0 0,0 -0,0 -0,0 0,0 0,0 0,0 0,0.01l0 0 -0 -0c-0.01,-0.01 -0.03,0 -0.03,0.01 -0,0 -0,-0 -0,-0z"/>
   <path class="fil7" d="M0.04 0.16c0,0.01 0,0.01 0.01,0.01 0,0 0,0 0,0.01 -0,0 -0,0.01 -0,0.01 -0,0.01 0,0.02 0.01,0.02 0,0 0,0 0,0 0,0 0.01,0.01 0.01,0.01 0,0 0.01,0 0,0 -0,0 -0.01,-0 -0.01,-0 -0,-0 -0.01,-0 -0.01,-0 -0,0 -0,0 0,0 0,0 0,0 0.01,0 0.01,-0 0.01,0 -0,0.01 -0,0 -0.01,0.01 -0.01,0.01l-0 0 0 -0c0,-0 0,-0 0.01,-0 0,-0 0.01,-0 0.01,-0.01l0.01 -0 0.02 -0c0.03,-0 0.04,0 0.04,0.01 0,0 0,0 -0.02,0 -0.02,-0 -0.04,0 -0.04,0 -0,0 -0,0 0.01,0 0.01,0 0.02,-0 0.03,-0 0.01,-0 0.02,-0 0.02,0 0.01,0 0.01,0 0.01,-0 -0,-0 -0.01,-0.01 -0.02,-0.01 -0.01,-0 -0.01,-0 -0.01,-0.01 0,-0 0.01,-0 0.02,-0 0,0 0,0 0,0 0,0 0,0 0,-0 0,-0 0,-0 0,-0.01 -0,-0.01 -0,-0.01 0,-0.01 0,-0 0.01,-0.01 0.01,-0.02 -0,-0 -0,-0.01 -0,-0.01 -0,-0 -0,-0.01 -0,-0.01 0,-0 0,-0 0,-0 0.01,-0 0.01,-0.01 0.01,-0.02l0 -0 0 0 0 -0c0,-0 0,-0.01 0,-0.02 0,-0.01 0,-0.02 0,-0.02 -0,-0 -0.01,-0 -0.01,-0 -0,0 -0,0 -0,0 -0,-0 -0.01,-0 -0.01,-0 -0,0 -0,-0 -0,-0 -0,-0 -0,-0 -0,-0 -0,-0 -0,-0 -0,-0 -0,-0 -0,-0 -0,-0 0,0 -0,-0 -0,-0 -0,-0 -0.01,-0 -0.01,-0 -0,-0 -0.02,-0 -0.02,-0 0,0 -0,0 -0.01,0 -0,0 -0,-0 -0,-0 0,-0 0,-0 -0.01,-0 -0,0 -0.01,-0 -0.02,-0 -0.01,-0 -0.01,-0 -0.01,0 0,0 0,0 -0,0 -0.01,-0 -0.02,-0 -0.02,0 -0,0 -0.01,0.01 -0.02,0.01 -0.01,0 -0.01,0 -0.01,0.01 -0,0 0,0.01 0,0.02 0,0.01 0,0.01 0,0.01 0,-0 0,0 0,0.01zm0.1 0.02c-0.01,-0.01 -0.02,-0.01 -0.01,-0.01 0.01,0 0.02,0.01 0.02,0.01 0,0 -0,0 -0.01,-0z"/>
   <path class="fil7" d="M0.03 0.15c-0,-0.01 -0,-0.01 0,-0 0,0 0,0 0,-0 0,-0.01 -0,-0.02 -0,-0.02 -0,-0 -0,-0 -0,0 -0,0 -0.01,0.01 -0.01,0.01 0,0 -0,0 -0,0 -0,0 -0,0.01 -0,0.01 -0,0.01 -0,0.01 -0,0.02 0,0.01 0,0.01 0,0.01 0,0 0,0 -0,0l-0 0 0 0c0,0 0.01,0 0.01,0 0,0 0.01,0 0.01,0l0 0 -0 -0c-0,-0 -0,-0 -0,-0 0,0 0,-0 0,-0.01 0,-0.01 0,-0.01 -0,-0.01 -0,-0 -0,-0 -0,-0.01 0,-0 -0,-0 -0,-0.01 -0,-0 -0,-0 0,-0 0,0 0,-0 0,-0.01z"/>
   <path class="fil7" d="M0.18 0.14c-0,0.01 -0,0.01 -0,0.02 0,0 0,0 0,-0 0,-0.01 0,-0 0,0 -0,0 -0,0.01 0,0.01 0,-0 0,0 -0,0.01 -0,0 -0,0.01 -0,0.01 0,0 0,0 0,0 -0,0 -0,0.01 -0,0.01 -0,0 -0,0.01 0,0.01 0,0 0,0 0,0 -0,0 -0,0 -0,0 0,0 0,0 0.01,0 0,-0 0.01,-0 0.01,-0 0,-0 0,-0 0,-0 0,0 0,-0 0,-0 0,-0 -0,-0 -0.01,-0 -0.01,0 -0.01,0 -0,-0 0,-0 0,-0 0.01,-0 0,-0 0,-0 0,-0.01 0,-0.01 0,-0.01 -0,-0.01 -0,-0 -0,-0 -0,-0 0,-0 0,-0.01 0,-0.02 -0,-0.01 -0,-0.01 -0.01,-0.01 -0,-0.01 -0.01,-0.01 -0.01,-0.01 -0,0 -0,0 -0,0 0,0 -0,0.01 -0,0.01z"/>
   <path class="fil7" d="M0.14 0.27c-0,0 -0.03,0 -0.03,-0 -0,-0 0,-0 0.01,-0 0.01,-0 0.02,-0 0.02,-0 0,-0 -0,-0 -0.01,-0 -0.01,0 -0.03,0 -0.05,0 -0.01,-0 -0.01,-0 -0.01,0 0,0 0,0 0,0 -0,0 -0,0 -0.01,0 -0,0 -0.01,0 -0.01,0 -0,0 -0.01,0.01 -0.01,0.02 0,0 0,-0 0,-0 0,-0 0.01,-0 0.01,-0 0,-0 0,-0 0,0 -0,0 -0,0 -0.01,0 -0,0 -0.01,0 -0.01,0 -0,0 -0,0 0.01,-0 0,-0 0,-0 0,-0 0,-0 0.01,-0 0.01,-0 0,-0 0.01,-0 0.01,-0 0.01,-0 0.02,-0 0.02,-0 0,0 0,-0 0,-0 0.01,-0 0.01,-0 0.01,0 0.01,0 0.02,0 0.03,0 0,0 0,0 0,0 0,0 0,0 0,0 0,0 0,0 0,0 0,0 0,0 0,0 0.01,0 0.01,0 0.01,-0 -0,-0 -0.01,-0 -0.02,-0.01 -0,-0 -0.01,-0 -0.02,-0l-0.01 -0 0.01 0c0.01,0 0.01,0 0.02,0 0.01,0 0.02,0 0.02,0 0,-0 -0.01,-0.01 -0.01,-0.01 -0,0 -0,0 -0.01,-0 -0.01,-0 -0.01,-0 -0.01,0zm-0.03 -0c0,0 -0.01,0 -0.02,-0 -0,-0 -0,-0 -0,-0 0,-0 0,0 0.01,0 0.01,0 0.01,0 0.01,0zm-0.01 0.01c-0,0 -0.01,0 -0.01,0 -0.01,0 -0.01,0 -0.01,-0 0,-0 0.01,-0 0.01,-0 0.01,-0 0.01,-0 0.01,0z"/>
   <path class="fil0" d="M0.08 0.07c-0,-0 -0,-0 -0,-0 0,-0 0,-0 0,-0 0,-0 0,-0 0,-0 -0,-0 -0,-0 -0,-0 -0,-0 -0,-0 -0,-0 -0,-0 -0,-0 -0,-0 -0,0 -0,0 -0,0.01 0,0 0,0 0,0 0,0 0,-0 0,-0z"/>
   <path class="fil0" d="M0.07 0.06c0,0 0,0 0,-0 0,-0 0,-0 -0,-0 -0,0 -0,0 -0,0 -0,-0 -0,-0 -0,-0 -0,0 -0,0 -0,0 0,0 0,0 0,0 0,0 0,0 0,0z"/>
   <path class="fil0" d="M0.14 0.06c-0,0 -0,0.01 -0,0.01 0,0 0,0 0,0 0,0 0,0 0,-0 0,-0 0,-0 0,-0 0,-0.01 0,-0.01 -0,-0.01z"/>
   <path class="fil0" d="M0.1 0.08c-0,0 -0,0 -0,0 0,0 0,-0 0,-0zm0.03 0c-0,0 -0,0 -0,-0 -0,-0 -0,-0 -0,-0 -0,-0 -0.01,-0 -0.01,0 -0,0 -0,0 -0.01,-0 -0,-0 -0,-0 -0.01,-0 -0,0 -0,0 -0,0 -0,0 -0,0 -0.01,0 -0,-0 -0,-0 -0.01,-0 -0,-0 -0,-0 -0,-0 -0,-0 -0,-0 -0,0 -0,0 0,0 0,0 0,0 0,0 0,0 0,0 0,0 0,0 0,0 0,0 0,0 0,0 0,0.01 0,0.01 0,0 0,0 0,0 0,0 0,0 0,0 -0,0 0,0 0,0l0.02 0c0.01,0 0.02,0 0.02,0 0,0 0.01,-0 0.01,-0 0,-0 0,-0 0,-0.01 0,-0.01 0,-0.01 0,-0.01 -0,0 -0,0 -0,-0 -0,-0 -0,0 -0,0 -0,0 -0,0 -0,0.01z"/>
   <path class="fil8" d="M0.09 0.65c-0,-0 -0.01,-0 -0.02,0 -0.01,0 -0.01,0.01 -0.01,0.02 -0,0 -0,0.01 -0,0.02 -0,0.01 -0,0.01 -0,0.01 0,0 0,0 0,-0.01 0,-0 0,-0.01 0,-0.02 0,-0.01 0,-0.02 0.02,-0.02 0.01,-0 0.01,-0 0.01,0l0 0 0 -0c0,-0 -0,-0.01 -0.01,-0.01zm0.06 0.03c0,0 0,0.01 0,0.01 0,0 0,0 0,0 0,0 0,0 0,-0 0,0 0,0 0,-0 -0,-0 -0,-0 -0,-0 -0,-0 -0,-0 -0,-0 -0,-0 -0,-0 -0,-0 -0,-0 -0,-0 -0,0 -0,0 -0,0 -0,0zm-0.03 0c-0,0 -0,0 -0,0 0,-0 0,-0 0,-0zm0 0c-0,0 -0,0 -0,0 -0,0 -0,0 -0,0l-0 0 0 -0c0,-0 0,-0 0,-0 0,0 0,0 0,0 0,-0 0,-0 0,-0.01 0,-0 0,-0 0,-0 -0,-0 -0,-0 -0,-0l-0 0c0,0 0,0 0,0 -0,0 -0,0 -0,0zm0 -0.03c-0,0 -0,0 -0,0.01l0 0 0 -0c0,-0 0.02,-0 0.02,-0 0,0 0,0 0,0 0,0 0,0 0,0 0,0 0,0 0,0 0,0 0,0 0,0l0 0 0 -0c0,-0 0,-0 -0,-0 -0,-0 -0,-0.01 -0,-0.01 0,0 -0,-0 -0,-0 -0,-0 -0,-0 -0.01,-0.01 -0,-0 -0,-0 -0,-0 -0,0 -0,0 -0,-0 -0,-0 -0.01,-0 -0.01,-0 -0.01,0 -0.01,0 -0.01,0z"/>
  </g>
 </g>
</svg>
