<?xml version="1.0" encoding="UTF-8"?>
<!DOCTYPE svg PUBLIC "-//W3C//DTD SVG 1.1//EN" "http://www.w3.org/Graphics/SVG/1.1/DTD/svg11.dtd">
<!-- Creator: CorelDRAW -->
<svg xmlns="http://www.w3.org/2000/svg" xml:space="preserve" width="0.505mm" height="1.75mm" version="1.1" style="shape-rendering:geometricPrecision; text-rendering:geometricPrecision; image-rendering:optimizeQuality; fill-rule:evenodd; clip-rule:evenodd"
viewBox="0 0 0.2 0.7"
 xmlns:xlink="http://www.w3.org/1999/xlink"
 xmlns:xodm="http://www.corel.com/coreldraw/odm/2003">
 <defs>
  <style type="text/css">
   <![CDATA[
    .fil9 {fill:none;fill-rule:nonzero}
    .fil2 {fill:black}
    .fil8 {fill:#283643}
    .fil3 {fill:#92918F}
    .fil1 {fill:#D9B18D}
    .fil10 {fill:white}
    .fil0 {fill:black;fill-rule:nonzero}
    .fil4 {fill:#585755;fill-rule:nonzero}
    .fil7 {fill:#627383;fill-rule:nonzero}
    .fil6 {fill:#D9B18D;fill-rule:nonzero}
    .fil5 {fill:white;fill-rule:nonzero}
   ]]>
  </style>
    <clipPath id="id0" style="clip-rule:nonzero">
     <path d="M0.05 0.62c-0,-0 -0,-0 -0,-0 -0,-0 -0,-0.01 0,-0.01 0,-0 0.01,-0 0.01,-0 0,-0 -0,-0 -0.01,0 -0,0 -0,0 -0,0 0,-0 0,-0 0,-0 0,-0 0.01,-0.01 0.01,-0.01 -0,-0 -0,-0 -0,0 0,0 -0,0 -0,0 -0,-0 -0,-0.01 -0,-0.02 0,-0.01 -0,-0.02 -0,-0.02 -0,-0.02 -0,-0.05 -0,-0.07 0,-0.01 0,-0.01 -0,-0.01 -0,0 -0,0 -0,-0 0,-0 0,-0 0,-0 0,-0 0,-0.01 0,-0.01 -0,-0 -0,-0 -0,-0.01 -0,-0 -0,-0 0,-0.01 0,-0.01 0,-0.02 -0,-0.02 -0,-0 -0,-0.02 -0.01,-0.04 -0,-0.01 -0,-0.01 0,-0.01 0,-0 0,-0 0,-0.01 -0,-0.01 -0,-0.04 -0,-0.05l0 -0.01 0.01 -0c0.01,-0 0.01,-0 0,-0 -0,0 -0,0 0,-0 0,-0 0,-0 0,-0 -0.01,0 -0.01,0 -0.01,-0 0,-0.01 0.01,-0.01 0.01,-0.01 0,0 0,0 0,0 -0,0 -0,0 0,0 0,0 0,0 -0,0.01l-0 0 0 -0c0,-0 0,-0 0,-0.01 0,-0 0,-0 0.01,-0 0,0 0.01,0 0.01,-0 0,-0 0,-0 0.01,-0l0.01 0 0 0c0,0 0,0.01 0,0.02 0,0.02 0,0.02 0,0.02 0,0 0,-0 0,-0 0,-0 -0,-0 -0,-0 -0,0 -0,-0.01 -0,-0.03 0,-0.01 0,-0.02 0,-0.02 0,-0 0.01,-0 0.01,0 -0,0 0,0 0,0 0,0 0,0 0,0 0,0 0,0 0,0 0,0 0,0 0,0 0,-0 0,-0 0,-0 0,-0 0,-0 0,-0 0,-0 0.01,0 0.01,0 0,0 0,0 0.01,0 0,-0 0.01,-0 0.01,0 0,0 0,0 0,0 0,0 0,0 0,0 -0,0 -0,-0 -0,-0 -0,-0 -0,-0 0,0 0,0 0,0 0,0 -0,-0 0,-0 0,0 0,0 0,0 0,0 0,-0 -0,-0 -0,-0 -0,-0 -0.01,-0.01 -0.01,-0.01 0,-0 0,-0 0,-0 0,0 0,0 -0,-0 -0,-0 -0,-0 -0,-0 -0,-0 -0,-0 -0,-0 0,-0 0.01,0 0.02,0.01 0,0 -0,0 -0,0 -0,-0 -0,0 0,0 0,0 0,0 0,0 0,0 0,0 0,0 0,0 0,0 -0,0l-0 -0 0 0c0,0 0,0 0.01,0 0,0 0,0 0,0.01 0,0.01 0,0.02 0,0.03 -0,0.02 -0,0.02 0,0.02 0,0 0,0.01 0,0.01 -0,0 -0,0.01 -0,0.01 -0,0.01 -0,0.01 -0,0.02 -0,0 -0,0.01 -0,0.01 0,0 -0,0 -0,0.01 -0,0 -0,0 -0,0.01 0,0 0,0.01 0,0.01 0,0 0,0 -0,0 -0,-0 -0.01,0 -0.01,0.01 0,0 0,0 0,0.01 0,0 0,0.01 0,0.01 -0,0 -0,0.01 -0,0.01 0,0 0,0.01 0,0.02 0,0.02 -0,0.03 -0,0.04 -0,0 -0,0.01 -0,0.01 0,0 0,0.01 0,0.01l0 0.01 -0 0c-0.01,0 -0.01,0 -0,0.01 0.01,0.01 0,0.02 -0,0.01 -0,-0 -0,-0 -0,0 0,0 0,0.01 -0,0 -0,-0 -0.01,-0 -0.01,-0 -0.01,0 -0.01,0 -0.01,0l-0.01 0 0 -0c0,-0 -0,-0 -0,-0 -0,-0 -0,-0 -0,-0 0,-0 0,-0.01 0,-0 -0,0 -0,0 -0,-0 0,-0 0,-0 0,-0 0,0 0,-0 -0,-0 -0,-0 -0,-0 -0.01,-0 -0,0 -0,-0.01 -0,-0.01 0,-0 0,-0.01 0,-0.01 0,-0 0,-0.01 0,-0.01 0,0 0,-0 0,-0 0,-0 0,-0.01 0,-0.01 0,-0 -0,-0.01 -0,-0.01 -0,-0 -0,-0 -0,-0.01 0,-0.01 0,-0.02 0,-0.02 0,-0.01 0,-0.01 0,-0.02 0,-0 0,-0.01 0,-0.02 -0,-0 -0,-0 -0,-0.01 0,-0 0,-0.01 -0,-0.01l-0 -0 0 -0.02c0,-0.02 0,-0.03 -0,-0.03 -0,-0 -0,-0.01 -0,-0.01 0,-0.01 -0,-0.01 -0,-0.01 -0,-0 -0,-0.01 -0,-0.02 -0,-0.02 0,-0.02 0,-0.02 0,-0 0,-0 0,-0 -0,-0 -0,-0 0.01,-0.01l0 -0 -0.01 0c-0.01,0 -0.01,0 -0.01,-0 -0,-0 -0,-0 -0,-0 -0,0 -0,0 -0,0 -0,-0 -0,-0 -0.01,-0 -0,-0 -0,0 0,0 0,0 0.01,0.01 0,0.01 -0,0 -0,0 0,0 0,0 0,0 0,0.02 0,0.01 0,0.02 0,0.02 -0,0 -0,0.02 -0,0.04 -0,0.01 -0,0.02 -0,0.02 -0,0 -0,0 0,0.01 0,0 0,0.01 -0,0.01 -0,0 -0,0 -0,0.01 0,0 0,0.01 0,0.01 -0,0 -0,0 -0,0 -0,0 -0,0 0,0.02 0,0 0,0.01 0,0.02 0,0 0,0.01 -0,0.01 -0,0 -0,0 -0,0.01 0,0 -0,0.02 -0,0.02 -0,0 -0,0 -0,0.01 -0,0.01 -0,0.01 -0,0.01 0,0 0,0.01 0,0 0,-0 0,-0 0,0.01 0,0 0,0.01 0,0.01 0,0 -0,0 -0.01,0.01l-0.01 0.01 0 0c0,0 0,0 0,0 0,0 -0,0 -0,0 -0,-0 -0,-0 -0,-0 -0,0 0,0 0,0 0,0 0,0 -0,0 -0,0 -0,0 -0,0l-0 0 -0 -0c-0,-0 -0.01,-0 -0.01,-0 -0.01,0 -0.01,0 -0.01,0 -0,0 -0,0 -0,0z"/>
    </clipPath>
 </defs>
 <g id="Camada_x0020_1">
  <metadata id="CorelCorpID_0Corel-Layer"/>
  <g id="_1764598776512">
   <path class="fil0" d="M0.07 0.7c-0.01,0 -0.02,0 -0.03,-0.01 -0,-0 -0,-0.01 -0,-0.01 -0,-0.01 -0,-0.01 0,-0.02 0,-0 0,-0.01 0,-0.02 0,-0.01 0,-0.01 0,-0.01 -0,-0 -0,-0.01 0,-0.01 0,-0 0,-0 0,-0 -0,0 -0.01,-0.02 -0,-0.02 0,-0 0,-0 -0,-0.01 -0,-0 -0,-0.01 -0,-0.02 -0,-0.01 -0,-0.02 -0,-0.03 -0,-0.01 -0,-0.02 -0,-0.04 0,-0.01 0,-0.03 0,-0.03 0,-0 0,-0 -0,-0.01 -0,-0 -0,-0.01 -0,-0.01 0,-0 0,-0.01 0,-0.01 0,-0 -0,-0.01 -0,-0.02 -0,-0 -0,-0.01 -0,-0.02 -0,-0.01 -0,-0.01 -0,-0.01 -0,0 -0,-0 -0,-0 -0,-0 -0,-0 -0.01,-0.01 -0,-0 -0.01,-0.01 -0.01,-0.02l-0 -0.01 -0 -0.03c-0,-0.02 -0,-0.04 -0,-0.04 -0,-0.02 -0,-0.05 0,-0.06 0,-0.01 0,-0.04 0,-0.04 -0,-0 -0,-0 0,-0.02 0,-0.01 0,-0.01 0,-0.02 0,-0.02 0.01,-0.04 0.02,-0.04 0,-0 0.01,-0 0.01,-0 0.01,-0 0.01,-0 0.02,-0.01 0,-0 0.01,-0 0.01,-0 0,-0 0.01,-0 0.01,-0.01 -0,-0.01 -0,-0.02 -0,-0.02 -0,-0 -0.01,-0.02 -0.01,-0.02 0,-0 0,-0.01 0,-0.01 0,-0.01 0,-0.01 0,-0.02 0,-0.01 0.01,-0.01 0.02,-0.02 0.01,-0 0.01,-0 0.01,-0 0.01,0 0.01,0 0.01,0 0.01,0.01 0.02,0.02 0.02,0.04 -0,0.01 -0,0.01 0,0.01 0,0 0,0 0,0.01 -0,0.01 -0,0.01 -0.01,0.02 -0,0 -0,0.01 -0,0.02 -0,0.01 -0,0.01 0,0.01 0,0 0,0 0,0 0,-0 0.01,0 0.01,0 0,0 0.01,0.01 0.02,0.01 0.01,0 0.01,0 0.02,0.01 0.01,0.01 0.01,0.02 0.02,0.04 0,0 0,0.01 0,0.02 0,0.01 0,0.01 0,0.01 -0,0 -0,0.03 -0,0.04 0,0.01 0,0.03 0,0.05 -0,0.02 -0,0.04 -0,0.07 -0,0.02 -0,0.02 -0,0.03 -0,0.01 -0.02,0.03 -0.02,0.03 -0,0 -0,0 -0,0 0,0 -0,0.03 -0,0.03 -0,0.01 -0,0.01 -0,0.02 0,0.01 0,0.01 -0,0.01 -0,0 -0,0 -0,0.01 0,0 0,0.01 0,0.03 0,0.02 -0,0.03 -0,0.04 -0,0.01 -0,0.02 -0,0.03 -0,0.01 -0,0.02 -0,0.02 -0,0 -0,0 -0,0.01 0,0 0,0.01 0,0.01 -0,0 -0,0 -0,0 0,0 -0,0 -0,0.01 -0,0 -0,0 0,0.01 0,0 0,0.01 0,0.01 -0,0 -0,0 -0,0.01 0,0.01 0,0.01 0,0.02 0,0 0,0.01 0,0.01 0,0.02 -0.01,0.02 -0.02,0.02 -0.01,0 -0.01,-0 -0.02,-0.01 -0.01,-0.01 -0.01,-0.01 -0.01,-0.02l0 -0.01 -0 -0.01c-0,-0.01 -0,-0.01 -0,-0.02 0,-0.01 0,-0.01 -0,-0.02 -0,-0 -0,-0.01 0,-0.01 0,-0 0,-0 -0,-0.01 -0,-0 -0,-0.01 0,-0.02 0,-0.01 0,-0.01 0,-0.02 -0,-0.02 -0,-0.04 -0,-0.05 0,-0.01 0,-0.01 0,-0.02 -0,-0 -0,-0.01 0,-0.01 0,-0 0,-0 -0,-0.01 -0,-0 -0,-0.01 -0,-0.03 -0,-0.02 -0,-0.05 -0,-0.05 -0,0 -0.01,0.03 -0.01,0.05 -0,0.01 -0,0.02 -0,0.02 -0,0 -0,0.01 -0,0.01 0,0 0,0.01 -0,0.02 -0,0 0,0.01 0,0.02 0,0.01 0,0.02 0,0.02 -0,0 -0,0 -0,0.01 -0,0.03 -0,0.03 -0,0.04 0,0 0,0 0,0 0,0.01 0,0.01 0,0.02 -0,0 -0,0 -0,0.01 0,0 0,0.01 0,0.01 -0,0 -0,0.01 -0,0.01 0,0.01 0,0.01 -0,0.02 -0,0.01 -0,0.01 -0,0.01 0,0.01 0,0.01 -0,0.02 -0,0 -0.01,0.01 -0.01,0.01zm-0.02 -0.08c0,0 0,0 0,-0 0,-0 0.01,-0 0.01,-0 0,0 0.01,0 0.01,0l0 0 0 -0c0,-0 0,-0 0,-0 0,0 0,-0 0,-0 -0,-0 -0,-0 -0,-0 0,-0 0,-0 0,0 0,0 0,0 0,-0 -0,-0 -0,-0 -0,-0l-0 -0 0.01 -0.01c0,-0 0.01,-0.01 0.01,-0.01 0,-0 -0,-0 -0,-0.01 -0,-0.01 -0,-0.01 -0,-0.01 -0,0 -0,0 -0,-0 -0,-0 -0,-0 0,-0.01 0,-0 0,-0.01 0,-0.01 0,-0 0,-0.02 0,-0.02 -0,-0 -0,-0.01 0,-0.01 0,-0 0,-0 0,-0.01 -0,-0.01 -0,-0.02 -0,-0.02 -0.01,-0.01 -0.01,-0.01 -0,-0.02 0,-0 0,-0 0,-0 0,-0 0,-0 -0,-0.01 -0,-0.01 -0,-0.01 0,-0.01 0,-0 0,-0 0,-0.01 -0,-0 -0,-0 -0,-0.01 0,-0 0,-0.01 0,-0.02 0,-0.02 0,-0.04 0,-0.04 0,-0 0,-0.01 -0,-0.02 -0,-0.02 -0,-0.02 -0,-0.02 -0,-0 -0,-0 -0,-0 0,0 0,-0 -0,-0.01 -0,-0 -0.01,-0.01 -0,-0 0,0 0,0 0.01,0 0,0 0,0 0,-0 0,-0 0,-0 0,0 0,0 0,0 0.01,0l0.01 -0 -0 0c-0.01,0 -0.01,0 -0.01,0.01 0,0 0,0 -0,0 -0,0 -0,0 -0,0.02 0,0.01 0,0.02 0,0.02 0,0 0,0.01 0,0.01 0,0.01 0,0.01 0,0.01 0,0 0,0.01 0,0.03l-0 0.02 0 0c0,0 0,0.01 0,0.01 -0,0 -0,0 0,0.01 0,0.01 0,0.01 -0,0.02 -0,0 -0,0.01 -0,0.02 -0,0.01 -0,0.02 -0,0.02 -0,0.01 -0,0.01 0,0.01 0,0 0.01,0.01 0,0.01 -0,0 -0,0.01 -0,0.01 -0,0 -0,0 -0,0 -0,-0 -0,0 -0,0.01 -0,0 -0,0.01 -0,0.01 -0,0 -0,0.01 0,0.01 0,-0 0,-0 0.01,0 0,0 0.01,0 0,0 -0,0 -0,0 -0,0 -0,0 -0,0 0,0 0,-0 0,0 -0,0 -0,0 -0,0 0,0 0,0 0,0 0,0l-0 0 0.01 -0c0,-0 0.01,-0 0.01,-0 0,0 0.01,0 0.01,0 0,0 0,-0 0,-0 -0,-0 -0,-0 0,-0 0.01,0 0.01,-0 0,-0.01 -0.01,-0.01 -0,-0.01 0,-0.01l0 0 -0 -0.01c-0,-0.01 -0,-0.01 -0,-0.01 0,-0 0,-0 0,-0.01 0,-0.01 0,-0.03 0,-0.04 -0,-0.01 -0,-0.02 -0,-0.02 -0,-0 0,-0 0,-0.01 0,-0.01 0,-0.01 -0,-0.01 -0,-0 -0,-0.01 -0,-0.01 0,-0 0,-0.01 0.01,-0.01 0,0 0,-0 0,-0 -0,-0 -0,-0.01 -0,-0.01 -0,-0.01 -0,-0.01 0,-0.01 0,-0 0,-0 0,-0.01 -0,-0 0,-0.01 0,-0.01 0,-0 0,-0.01 0,-0.02 0,-0.01 0,-0.01 0,-0.01 0,-0 0,-0.01 -0,-0.01 -0,-0 -0,-0.01 -0,-0.02 0,-0.02 0,-0.03 -0,-0.03 -0,-0.01 -0,-0.01 -0,-0.01 -0,-0 -0,-0 -0.01,-0l-0 -0 0 0c0,0 0,0 0,-0 -0,-0 -0,-0 -0,-0 -0,-0 -0,-0 -0,-0 -0,-0 -0,-0 -0,-0 0,0 0,0 0,-0 -0,-0 -0.02,-0.01 -0.02,-0.01 -0,0 0,0 0,0 0,0 0,0 0,0 0,0 0,0 0,0 -0,-0 -0,-0 -0,0 -0,0 0,0.01 0.01,0.01 0,0 0,0 0,0 -0,0 -0,-0 -0,-0 -0,-0 -0,-0 -0,-0 0,0 -0,0 -0,-0 -0,-0 -0,-0.01 -0,-0 0,0 0,0 0,0 0,-0 -0,-0 -0,-0 -0,-0 -0,-0 -0,-0 -0,-0 -0,-0 -0.01,-0 -0,0 -0.01,0 -0.01,-0 -0,-0 -0.01,-0 -0.01,-0 -0,0 -0,0 -0,0 0,0 -0,0 -0,0 -0,0 -0,0 -0,-0 -0,-0 -0,-0 -0,-0 0,-0 -0,-0 -0,-0 -0,0 -0,-0 -0,-0 0,-0 -0,-0 -0.01,-0 -0,0 -0,0.01 -0,0.02 -0,0.02 0,0.03 0,0.03 0,-0 0,-0 0,0 0,0 -0,0 -0,0 -0,0 -0,-0 -0,-0.02 0,-0.01 -0,-0.02 -0,-0.02l-0 -0 -0.01 0c-0.01,0 -0.01,0 -0.01,0 -0,0 -0,0 -0.01,0 -0.01,-0 -0.01,-0 -0.01,0 -0,0 -0,0 -0,0.01l-0 0 0 -0c0,-0 0,-0.01 0,-0.01 -0,0 -0,-0 -0,-0 0,-0 0,-0 -0,-0 -0.01,0 -0.01,0.01 -0.01,0.01 -0,0 0,0 0.01,0 0,-0 0,-0 -0,0 -0,0 -0,0 -0,0 0,-0 0,-0 -0,0l-0.01 0 -0 0.01c-0,0.01 -0,0.04 0,0.05 0,0.01 0,0.01 -0,0.01 -0,0 -0,0 -0,0.01 0,0.02 0,0.04 0.01,0.04 0,0.01 0,0.02 0,0.02 -0,0 -0,0.01 -0,0.01 0,0 0,0.01 0,0.01 0,0 -0,0 -0,0.01 -0,0 -0,0 -0,0 -0,0 -0,0 0,0 0,-0 0,0 0,0.01 -0,0.01 -0,0.05 0,0.07 0,0 0,0.01 0,0.02 -0,0.02 0,0.02 0,0.02 0,0 0,-0 0,-0 0,-0 0,-0 0,-0 0,0 -0,0 -0.01,0.01 -0,0 -0,0 -0,0 0,0 0,0 0,-0 0,-0 0.01,-0 0.01,-0 0,0 -0,0 -0.01,0 -0.01,0 -0.01,0 -0,0.01 0,0 0,0 0,0zm-0.03 -0.23c0.01,0.01 0.01,0.01 0.01,0 0,-0 -0,-0.01 -0,-0.01 -0,-0.01 -0.01,-0.02 -0.01,-0.03 0,-0 0,-0.01 0,-0.01 0,0 0,0 0,0.01 0,0.01 0,0.01 0.01,0.01 0,-0 0,-0 0,-0.01 -0,-0 -0,-0.01 -0,-0.02 -0,-0.01 -0,-0.01 -0,-0.02 -0,-0 -0,-0.01 -0,-0.01 0,-0.01 0,-0.02 0,-0.04 0,-0.01 0,-0.01 0,-0.02 0,-0 0,-0.01 0,-0.02 -0,-0.01 0,-0.02 0,-0.03 0,-0.01 0,-0.01 0,-0.02l0 -0.01 -0.01 -0c-0.01,-0 -0.01,-0 -0.01,-0 0,-0 0.01,0 0.02,0 0,0 0,0 0,0 0,-0 -0,-0.02 -0,-0.03 -0,-0 -0,-0 0,-0 0,0 0,0.01 0,0.03 0,0.01 0,0.02 0,0.02 0,0.01 0,0.01 0,0.02 -0,0 0,0.01 0,0.01 0,0 0,0 -0,0.01 -0,0.01 -0,0.01 -0,0.01 0,0 0,0.01 -0,0.01 -0,0 -0,0 -0,0 0,0 0,0 -0,0.01 -0,0 -0,0.01 -0,0.01l-0 0.01 0 -0c0.01,-0.01 0.01,-0.01 0.02,-0.01 0.02,-0 0.04,-0.01 0.05,-0 0.03,0 0.05,0.01 0.05,0.02 0,0 0,0 0,0 0,-0 -0,-0.01 -0,-0.02 -0,-0 -0,-0.01 -0,-0.01 0,-0 -0,-0 -0,-0.01 -0,-0 -0,-0 -0,-0 0,0 0,-0.01 -0,-0.01 -0,-0.01 -0,-0.01 -0,-0.04 0,-0.01 0,-0.02 0,-0.02 0,-0.01 0,-0.02 0,-0.03 0,-0 0,-0 0,0 0,0 0,0 -0,0.01 -0,0 -0,0.01 -0,0.01 -0,0.01 -0,0.02 0,0.02 0,-0 0,-0 0.01,-0 0.01,-0 0.02,-0 0.02,-0 0,0 0,-0 0,-0 0,-0 -0,-0.01 -0,-0.01 -0,-0.01 -0,-0.01 -0,-0.02 -0,-0.01 -0,-0.02 -0.01,-0.03 -0.01,-0.01 -0.01,-0.01 -0.03,-0.02 -0.01,-0 -0.01,-0 -0.02,-0.01 -0,-0 -0,-0 -0,-0 -0,-0 -0,0 -0,0 -0,0 -0,0 -0,0 -0,0 -0.01,0 -0.01,0 0,-0 0,-0 0,-0 0,0 0,-0 0.01,-0l0 -0 -0 -0c-0,-0 -0,-0 -0,-0.01 -0,-0.01 0,-0.01 0,-0.01 0,-0 0,-0.01 0,-0.01 0,-0 0,-0 0,-0 0,0 0,0 0.01,-0 0,-0.01 0,-0.01 0,-0.01 -0,-0 -0,0 -0,0.01 0,0 -0,0 -0,0 -0,-0 -0,-0 -0,-0.01 0,-0 -0,-0.01 -0,-0.01 -0,-0 -0,-0.01 -0,-0.01 -0,-0.01 -0,-0.01 -0.01,-0.01 -0,-0 -0.03,-0 -0.03,0 -0.01,0 -0.01,0.01 -0.01,0.01 0,0 -0,0 -0,0.01 -0,0 -0,0.01 -0,0.01 -0,0.01 -0,0.01 -0,0.01 -0,-0.01 -0.01,-0 -0,0 0,0.01 0,0.01 0.01,0.01 0,-0 0,0 0,0 0,0 0,0 0,0.01 0,0 0,0.01 0,0.01l0 0.01 -0 0c-0,0 -0,0 -0,0 0,0 0,0 0.01,0 0,0 0,0 0,0 -0,0 -0.01,-0 -0.01,-0.01 -0,-0 -0,-0 -0,-0 -0,0 -0.01,0 -0.01,0.01 -0,0 -0.01,0 -0.01,0 -0.01,0 -0.01,0 -0.02,0.01 -0.01,0.01 -0.01,0.02 -0.02,0.04 -0,0 -0,0.01 -0,0.01 -0,0 -0,0.01 -0,0.01l-0 0 0.01 0c0,0 0.01,0 0.01,0 0,0 0,0 -0,0 -0,-0 -0.01,-0 -0.01,0 -0,0 -0,0.01 -0,0.02 0,0.01 -0,0.02 -0,0.02 -0,0.01 -0,0.04 -0,0.06 0,0.01 0,0.03 0,0.05l0 0.03 0 0.01c0,0 0,0.01 0,0.01 0,0 0,0 0,0 0,0 0,0 0,0 -0,0 0,0 0,0 0,0 0,0 0,-0 -0,-0 0,0 0.01,0.01zm0.15 0.01c0,0 0,0 0,-0 0,-0 0,-0.01 0.01,-0.01 0,-0 0.01,-0.01 0.01,-0.01l0 -0.01 0 -0.02c0,-0.03 0,-0.05 0,-0.06 0,-0.02 0,-0.04 -0,-0.05 -0,-0.01 -0,-0.01 -0,-0.03l-0 -0.01 -0 0c-0,0 -0.01,0 -0.02,0.01l-0.01 0 0 0.01c0,0 0,0.01 0,0.02 0,0.01 0,0.01 0,0.02 -0,0.01 -0,0.01 0,0.04 0,0.02 0.01,0.04 0.01,0.05 -0,0 -0,0 -0,0.01 -0,0 -0,0.01 -0,0.02 -0,0.01 -0,0.02 -0,0.02 -0,0 -0,0 0,0.01 0,0 0,-0 0.01,-0.01 0,-0 0,-0.01 0,-0.01l0 -0 0 0.01c0,0.01 -0,0.01 -0.01,0.03 -0,0.01 -0.01,0.01 -0,0.01 0,0 0,-0 0.01,-0.01 0,-0 0,-0.01 0.01,-0.01 0,-0 0,-0 -0,0 -0,0 -0,0 -0,0 0,0 -0,0 -0,0.01 -0,0 -0,0.01 -0,0.01zm-0.04 0.28c0,0 0.02,0 0.02,-0 0,-0 0,-0.01 -0,-0.01 -0,-0 -0.01,-0.01 -0.02,-0.01 -0.01,0 -0.01,0 -0.01,0.01 0,0.01 0,0.01 0.01,0.01zm-0.08 0c0,0 0,0 0.01,0 0.01,0 0.01,-0 0.01,-0.01 0,-0 -0,-0 -0,-0.01 -0,-0 -0,-0 -0.01,-0 -0.01,0 -0.01,0 -0.01,0.01 -0,0 -0,0.01 0,0.01zm0.12 -0.36c0,0 0,0.01 0,0.01 0,0 0,-0 0,-0 0,-0 0,-0.01 0,-0.01 -0,-0.01 -0.01,-0.03 -0.01,-0.04 -0,-0 -0,-0.01 -0,-0.03 -0,-0.02 -0,-0.03 -0,-0.03 -0,-0 -0,0.01 -0,0.01 -0,0.01 -0,0.01 0,0.02 0,0 0,0.01 0,0.02 0,0.01 0,0.01 0,0.01 0,0 0,0.01 0,0.01 0,0.01 0,0.01 0,0.01 -0,0 -0,0.01 0,0.02zm-0.12 0.37c0,0 0.01,0 0.02,0 0.01,-0 0.01,-0.01 0.01,-0.02 0,-0 -0,-0 -0,0 -0,0.01 -0.01,0.01 -0.02,0.01 -0,-0 -0.01,-0 -0.01,0 -0,0 -0,0 -0,-0 -0,-0 -0,-0 -0,-0 -0,0 0,0.01 0.01,0.01zm0.08 0c0.01,0 0.02,-0 0.02,-0.01 0,-0 0,-0 -0,-0 -0,0 -0,0 -0,0 -0,-0 -0,-0 -0.01,-0 -0,0 -0.01,0 -0.01,0 -0,0 -0.01,0 -0.01,-0.01 -0,-0 -0.01,-0.01 -0.01,-0.01 0,-0 -0,-0 -0,-0 -0,0 -0,0.01 0,0.01 0,0 0.01,0.01 0.01,0.01 0,0 0,0 0.01,0zm-0.11 -0.37c0,0 0,0 0,-0.01 0,-0.01 0,-0.01 0,-0.02 0,-0.01 0,-0.02 0,-0.02 0,-0 0,-0 -0,-0 -0,-0 -0,-0 -0,0 -0.01,0.02 -0.01,0.05 -0.01,0.06zm0.01 -0.09c0,0.01 0,0.01 0,0.01 0,-0 0,-0 0,-0.01 0,-0.01 0,-0.01 0,-0.02 -0,-0.01 -0,-0.01 -0,-0.01 -0,0 -0,0 -0,0.01 -0,0.01 -0,0.01 -0,0.02zm0.07 0.04c0.01,0 0.01,0 0.01,-0 -0,-0 -0,-0 -0,-0 -0,0 -0,0 -0,0 0,-0 -0,-0 -0,-0 -0,0 -0,0 -0,0 0,0 0,0 0,0zm0.01 0.37c0,0.01 0,0.01 0,0 -0,-0.01 -0,-0.01 -0,-0.01 -0,0 -0,0 0,0.01zm-0.02 -0c-0,0 -0,0 -0,0 0,-0 0.01,-0.01 0,-0.01 -0,0 -0,0 -0,0 -0,0 -0,0 -0,0.01zm-0.06 -0.27c0,0 0,0 0,0 0,0 0,-0.01 -0,-0.01 -0,-0 -0,-0 -0,0zm0.01 -0.12c0,0 0,0.01 0,0 0,-0 0,-0.01 -0,-0.01 -0,0 -0,0 -0,0.01zm0.14 0.12c0,0 0,0 0,-0 0,-0 0,-0 0,-0 -0,-0 -0,0 -0,0zm-0.15 -0.01c0,0 0,0 0,-0 -0,-0 -0,-0.01 -0,-0 0,0 0,0 0,0zm0.04 -0.09c-0,0 0,0 0,0 0,0 0,-0 0,-0 0,-0 -0,-0 -0,0zm0.06 -0c0,0 0,0 0,0 0,-0 -0,-0 -0,-0 -0,0 -0,0 0,0zm-0.07 0.34c0,0 0,0 0,0 0,-0 -0,-0 -0,-0 -0,0 -0,0 0,0zm0.09 0.02c0,0 0,0 0,-0 0,-0 -0,-0 -0,-0 -0,0 -0,0 -0,0zm-0.06 -0.36c0,0 0,0 0,0 0,-0 0,-0 -0,-0 -0,-0 -0,-0 -0,0z"/>
   <path class="fil1" d="M0.09 0.03c0,-0 0,-0 0,-0 0,0 0,0 -0,0 -0,0 -0,0 -0,0 -0,0 -0,0 -0,0 -0,0 -0,0 -0,0 -0,-0 -0,-0 -0,-0 -0,-0 -0,-0 -0,-0 -0,-0 -0,-0 -0,0 -0,0 -0,0 -0,0 -0,0 -0,0 -0,0 -0,0 -0,0 -0,0 0,-0 0,-0 0,-0 0,-0 0,-0 0,-0 0,-0 0,-0 0,-0 0,-0 0,-0 0,-0 0,-0 0,-0 0,-0 0,-0 0,-0 0,-0 0,-0 0,-0 0,-0 0,-0 0,0 0,0 0,0 0,0 0,0 0,0 0,-0 0,-0zm-0.01 0.01c0,0 0,0 0,0 0,0 0,0 0,0 0,-0 0,-0 0,-0 0,-0 0,-0 0,-0 0,0 0,0 0,0 0,0 0,0 0,0 0,0 -0,-0 -0,-0 -0,-0 -0,-0 -0,-0 -0,0 -0,0 -0.01,0 -0,-0 -0,-0 -0,-0 -0,-0 -0,-0 0,-0zm0.02 -0c-0,0 -0,0 -0,0 0,0 0,0 0,0 0,0 0,0 0,0 0,0 0,0 -0,0 -0,0 -0,0 -0,0 -0,0 -0,0 -0,0 0,0 0,0 0,0 0,0 -0,0 -0,0 -0,0 -0,0 -0,0 -0,0 -0,0 -0,0 -0,0 -0,0 -0,0 -0,0 0,0 0,0 0,0 0,0 0,0 0,0 -0,-0 -0,-0 -0,-0 -0,-0 -0,-0 -0,-0 -0,-0 -0,-0 0,-0 0,-0 0,-0 0,-0 0,-0 0,-0 0,-0 0,-0 0,-0 0,-0 0,-0 0,-0 0,-0 0,-0 0,-0 0,-0 0,-0 0,-0 0,-0 -0,-0 -0,-0 -0,-0 -0,-0 -0,-0 -0,-0 -0,-0 -0,-0 -0,-0 -0,-0 -0,-0 0,0 0,0 0,0 0,0 0,0 0,0 0,0 -0,0 -0,0zm0.03 0.02c0,-0 0,-0 0,-0 0,0 0,0 0,0zm-0.01 -0.03c0,-0 0,-0 0,-0 0,-0 0,-0 0,-0 0,0 0,0 0,0 0,0 0,0 0,0 0,0 0,0 0,0 0,0 0,0 0,0 0,0 0,0 0,0 0,0 0,0 0,0 0,0 0,0 0,0 0,0 -0,-0 -0,-0 -0,-0 -0,-0 -0,-0 -0,-0 -0,-0 -0,-0 -0,-0 -0,-0 -0,-0 -0,0 -0,0 -0,0 -0,0 -0,0 -0,0 -0,0 -0,-0 -0,-0 -0,-0 -0,-0 -0,-0 -0,-0 -0,-0 -0,-0 -0,-0 -0,-0 -0,-0 0,-0 0,0 0,0 0,0 0,0 0,0zm0 0.01c0,0 0,0 0,0 0,0 0,0 0,0 0,-0 0,-0 0,-0 0,-0 0,-0 0,0 -0,0 -0,0 -0,0 -0,0 -0,-0 -0.01,-0 -0,-0 -0,0 -0,0 -0,0 -0,0 -0,0 0,-0 0,-0 0,-0 0,-0 0,-0 0,-0 0,-0 0,0 0,0zm0.01 0.02c0,-0 0,-0 0,-0 0,-0 0,-0 0,-0 -0,0 -0,0 -0,0 -0,0 -0,0 -0,0zm-0.01 0.01c0,-0 0,-0 0,-0.01 0,-0 0,-0 0,-0 -0,0 -0,0 -0,0.01 -0,0 -0,0 -0,0 0,-0 0,-0 0,-0.01 0,-0 0,-0 0,-0 0,0 0,0 0,0 0,0 0,0 0,0 0,0 0,-0 0,-0 0,-0 0,-0 0,-0.01 0,-0 0,-0 0,-0.01 0,0 0,0 0,-0 0,-0 -0,-0 -0,-0 -0,0 -0,0.01 -0,0.01 -0,-0 -0,-0.02 -0,-0.02 0,0 0,-0 0,-0 -0,-0 -0,-0 -0,-0 -0,-0 -0,-0 -0,-0 -0,-0 -0,-0 -0,-0 0,0 0,-0 0,-0 -0,-0 -0,-0 -0,-0 0,-0 -0,-0 -0,-0 -0,-0 -0,-0 -0,-0 -0,-0 -0,-0 -0,-0.01 -0,-0 -0.01,-0 -0.02,-0 -0,0 -0.01,0 -0.01,0 -0.01,0 -0.01,0.01 -0.01,0.01 0,0 -0,0 -0,0.01 -0,0 -0,0 -0,0 0,0 0,0 0,0 -0,0 -0,0.01 -0,0.01 0,0 0,0 -0,0 -0,0 -0,0 -0,0 0,0 0,0 0,0 -0,0.01 0,0.01 0,0.02 0,0 0,0 0,0 0,0 0,0 0,0 -0,-0 -0,-0 -0,-0 0,0 0,0 0,0.01 0,0 0,0 0.01,0.01 0,0 0.01,0 0.01,0 0,0 0.01,0 0.01,0 0,-0 0,-0 0.01,-0 0,-0 0.01,-0 0.01,-0 0,-0 0,-0 0,-0zm-0.02 -0.02c0,-0 0,-0 0,0 0,0 0,0 0,0 0,0 0,0 0,0 0,0 0,0 0,0 0,-0 0,-0 0,-0 0,-0 0,-0 0,-0 0,-0 0,-0 0,-0 0,-0 0,0 0,0 0,0 0,0 0,0 0,0 -0,0 -0,0 -0,0 -0,0 -0,0 0,0 0,0 0,0 0,0 0,0 0,-0 0,-0 0,-0 0,-0 0,-0 0,-0 0,-0 0,-0 -0,-0 -0,-0 -0,-0 -0,-0 -0,-0 -0,-0 -0,-0 -0,-0 0,0 0,0 0,0 0,0 0,0 0,0 0,0 0,0 -0,0 -0,0 -0,0 -0,0 -0,0 -0,0 -0,0 -0,0 -0,0 -0,-0 -0,-0 -0,-0 -0,-0 -0,-0 -0,-0 -0,0 -0,0 -0,0 -0,0 -0,0 -0,0 -0,0 -0,0 -0,0 -0,0 -0,-0 -0,-0 -0,-0 -0,-0 -0,-0 -0,-0 -0,-0 -0,-0 -0,-0 -0,-0 -0,-0 -0,-0 -0,-0 0,-0 0,-0zm-0 0.01c0,-0 0,-0 0,-0 0,-0 0,-0 0,-0 0,0 0,0 0,0 0,0 0,0 0,-0 0,-0 0,-0 0,-0 0,-0 0,-0 0,0 0,0 0,0 0,0 0,0 0,0 -0,0 -0,-0 -0,-0 -0,-0 -0,-0 -0,-0 -0,-0 -0,0 -0,0 -0,0 -0,0 -0,0 -0,0 -0,-0 -0,-0 -0,-0 -0,-0 -0,-0 -0,-0 -0,0 -0,0 -0,0 -0,0 -0,0 -0,0 -0,0 -0,0 -0,0l-0 0c0,-0 0,-0 0,-0 0,0 0,0 0,0 0,0 0,0 0,0 0,0 0,0 0,0 0,0 0,-0 0,-0 0,-0 0,-0 0,-0 0,-0 0,-0 0,-0 0,-0 0,0 0,0 0,0 0,0 0,0 0,0 0,0 0,0 0,0 0,0 -0,0 -0,0 -0,0 -0,-0 -0,-0 -0,-0 -0,-0 -0,-0 -0,-0 -0,-0 -0,-0 -0,0 -0,0 -0,0 -0,0 -0,0 -0,0 -0,0 -0,0 -0,-0 -0,-0 -0,0 -0,0 -0,0 -0,0 -0,0 -0,0 -0,0 -0,0 -0,-0 -0,-0 0,-0 0,-0 0,-0 0,-0 0,-0 0,-0 0,-0 0,-0 0,-0 0,-0 0,-0 0,-0 -0,0 -0,0 -0,0 0,-0 0,-0 0,-0zm0 0.01c0,0 0,0 0,0 0,0 0,-0 0,-0 0,-0 0,-0 0,-0 0,-0 0,-0 0,0 -0,0 -0,0 -0,0 -0,0 -0,0 -0,0 -0,0 -0,0 -0,0 -0,0 0,0 0,0 0,0 0,0 0,0 0,0 0,0 -0,0 -0,-0 -0,-0 -0,-0 -0,-0 -0,-0 -0,0 -0,0 -0,0 -0,0 -0,0 -0,-0 0,-0 0,-0 0,-0 0,-0 0,-0 0,-0 0,-0 0,-0 0,-0 -0,-0 -0,-0 -0,0 -0,-0 -0,-0 -0,-0 -0,-0 -0,-0 -0,-0 -0,-0 0,-0 0,0 0,0zm0.03 -0.01c0,-0 0,-0 0,-0 0,0 -0,0 -0,0z"/>
   <path class="fil1" d="M0.11 0.08c-0,0 -0.01,0 -0.01,0 -0,0 -0.01,0 -0.01,0 -0,-0 -0,-0 -0,-0 -0,-0 -0,-0 -0,-0 -0,-0 -0,-0 -0,-0 -0,-0 -0,0 -0,0 -0,0 -0,0 -0,0 0,0 0,0 0,0.01l0 0 0 0c0,0 0,0 0,0l0 0 -0 0c-0,0 -0,0 -0,0 0,0 0.01,0 0.01,0.01 0,0 0.01,0 0.01,0 0,0 0,0 0.01,0 0.01,0 0.02,-0 0.02,-0.01l0 -0 -0 -0c-0,-0 -0,-0 -0,-0l-0 -0c-0,-0 -0,-0 -0,-0.01 -0,-0 0,-0.01 0,-0.01 0,-0 0,-0 0,-0 -0,0 -0,0 -0,0 -0,0 -0,-0 -0,-0 -0,-0 -0,0 -0,0 -0,0 -0,0 -0.01,0z"/>
   <path class="fil2" d="M0.08 0.04c0,0 0,0 0,0 0,0 0,-0 0.01,-0 0,-0 0,0 0,0 0,0 0,0 0,0 -0,-0 -0,-0 -0,-0 -0,-0 -0,-0 -0,-0 -0,-0 -0,0 -0,0 -0,0 -0,0 -0,0 -0,0 -0,0 -0,0 -0,-0 -0,-0 -0,-0 -0,-0 -0,-0 -0,0zm-0 0.02c0,0 0,0 0,0.01 0,0 0,0 0.01,0.01 0,0 0.01,0 0.01,0 0,0 0.01,0 0.01,0 0,-0 0,-0 0.01,-0 0,-0 0.01,-0 0.01,-0 0,-0 0,-0 0,-0 0,-0 0,-0 0,-0.01 0,-0 0,-0 0,-0.01 0,-0 0,-0 0,-0 0,0 0,0 -0,0 -0,0 -0,0 -0,0.01 -0,0 -0,0 -0,0 -0,0 -0,0 -0,0 -0,0 -0,-0 -0,-0 -0,-0 -0,0 -0,0 -0,0 -0,0 -0.01,0 -0,0 -0.01,0 -0.01,0 -0,0 -0.01,0 -0.01,0 -0,-0 -0,-0 -0,-0 -0,-0 -0,-0 -0,-0 -0,-0 -0,-0 -0,-0 -0,-0 -0,0 -0,0 -0,0 -0,0 -0,0 -0,-0 -0,-0 -0,-0 -0,-0 -0,-0 -0,-0.01 -0,-0 -0,-0 -0,-0zm0.04 -0.02c-0,0 -0,0 -0,0 -0,0 -0,-0 -0.01,-0 -0,-0 -0,0 -0,0 -0,0 -0,0 -0,0 0,-0 0,-0 0,-0 0,-0 0,-0 0,-0 0,-0 0,0 0,0 0,0 0,0 0,0 0,0 0,0 0,0 0,-0 0,-0 0,-0 0,-0 0,-0 0,0zm-0.01 -0.01c-0,0 -0,0 -0,0 -0,0 -0,0 -0,0 -0,0 -0,-0 -0,-0 -0,-0 -0,-0 -0,-0 -0,-0 -0,-0 -0,-0 -0,-0 -0,-0 -0,-0 0,-0 0,0 0,0 0,0 0,0 0,0 0,-0 0,-0 0,-0 0,-0 0,-0 0,-0 0,0 0,0 0,0 0,0 0,0 0,0 0,0 0,0 0,0 0,0 0,0 0,0 0,0 0,0 0,0 0,0 0,0 0,0 0,0 0,0 0,0 0,0 -0,-0 -0,-0 -0,-0 -0,-0 -0,-0 -0,-0 -0,-0 -0,-0 -0,-0 -0,-0 -0,-0zm-0.02 0.03c0,-0 0,-0 0,-0 0,-0 0,-0 0,-0 0,0 0,0 0,0 0,0 0,0 0,-0 0,-0 0,-0 0,-0 0,-0 0,-0 0,0 0,0 0,0 0,0 0,0 0,0 -0,0 -0,-0 -0,-0 -0,-0 -0,-0 -0,-0 -0,-0 -0,0 -0,0 -0,0 -0,0 -0,0 -0,0 -0,-0 -0,-0 -0,-0 -0,-0 -0,-0 -0,-0 -0,0 -0,0 -0,0 -0,0 -0,0 -0,0 -0,0 -0,0 -0,0l-0 0c0,-0 0,-0 0,-0 0,0 0,0 0,0 0,0 0,0 0,0 0,0 0,0 0,0 0,0 0,-0 0,-0 0,-0 0,-0 0,-0 0,-0 0,-0 0,-0 0,-0 0,0 0,0 0,0 0,0 0,0 0,0 0,0 0,0 0,0 0,0 -0,0 -0,0 -0,0 -0,-0 -0,-0 -0,-0 -0,-0 -0,-0 -0,-0 -0,-0 -0,-0 -0,0 -0,0 -0,0 -0,0 -0,0 -0,0 -0,0 -0,0 -0,-0 -0,-0 -0,0 -0,0 -0,0 -0,0 -0,0 -0,0 -0,0 -0,0 -0,-0 -0,-0 0,-0 0,-0 0,-0 0,-0 0,-0 0,-0 0,-0 0,-0 0,-0 0,-0 0,-0 0,-0 -0,0 -0,0 -0,0 0,-0 0,-0 0,-0zm0 0.01c0,0 0,0 0,0 0,0 0,0 0,0 0,0 0,0 0,0 -0,0 -0,0 -0,0 -0,0 -0,0 -0,0 -0,0 -0,0 -0,0 0,-0 0,-0 0,-0 0,-0 0,-0 0,-0 0,0 0,0 0,0 0,0 0,0 0,-0 -0,-0 -0,-0 -0,-0 -0,-0 -0,-0 -0,-0 0,-0 0,-0 0,-0 0,-0 0,-0 0,-0 0,-0 0,-0 0,-0 0,-0 -0,-0 -0,-0 -0,0 -0,0 -0,0 -0,0 -0,0 -0,0 -0,0 -0,0 -0,-0 -0,-0 -0,-0 -0,-0 -0,0 0,0 0,0zm0 -0.01c-0,-0 -0,-0 -0,-0 -0,-0 -0,-0 -0,-0 -0,-0 0,-0 0,-0 0,-0 0,-0 0,0 0,0 0,0 0,0 0,0 0,0 0,0 0,0 0,0 0,0 0,-0 0,-0 0,-0 0,-0 0,-0 0,-0 0,-0 0,-0 0,-0 0,-0 0,0 0,0 0,0 0,0 0,0 0,0 -0,0 -0,0 -0,0 -0,0 -0,0 0,0 0,0 0,0 0,0 0,0 0,-0 0,-0 0,-0 0,-0 0,-0 0,-0 0,-0 0,-0 -0,-0 -0,-0 -0,-0 -0,-0 -0,-0 -0,-0 -0,-0 -0,-0 0,0 0,0 0,0 0,0 0,0 0,0 0,0 0,0 -0,0 -0,0 -0,0 -0,0 -0,0 -0,0 -0,0 -0,0 -0,0 -0,-0 -0,-0 -0,-0 -0,-0 -0,-0 -0,-0 -0,0 -0,0 -0,0 -0,0 -0,0 -0,0 -0,0 -0,0 -0,0 -0,0 -0,-0 -0,-0 -0,-0 -0,-0 -0,-0 -0,-0zm-0 -0.02c0,0 0,0 0,0 0,0 0,0 0,0 0,0 0,0 0,0 0,0 0,0 -0,0 -0,0 -0,0 -0,0 -0,0 -0,0 -0,0 -0,0 -0,0 -0,0 -0,0 -0,0 -0,0 -0,0 -0,0 -0,0 0,0 0,0 0,0 0,0 0,0 0,0 0,0 0,0 0,0 0,-0 -0,-0 -0,-0 -0,-0 -0,-0 -0,-0 0,-0 0,-0 0,-0 0,-0 0,-0 0,-0 0,-0 0,-0 0,-0 0,-0 0,-0 0,-0 -0,-0 -0,-0 -0,-0 -0,-0 0,-0 0,-0 0,-0 0,-0 0,-0 0,-0 0,-0 0,-0 -0,-0 -0,-0 -0,-0 -0,-0 -0,-0 -0,-0 -0,-0 0,-0 0,-0 0,-0 0,-0 0,-0 -0,-0 -0,-0 -0,-0 -0,-0 -0,-0 -0,-0 -0,-0 0,0 0,0zm-0.02 0c0,-0 0,-0 0,-0 0,-0 0,-0 0,-0 0,-0 0,-0 0,-0 0,0 0,0 0,0 0,0 0,0 0,0 0,0 0,-0 0,-0 0,-0 0,-0 0,-0 0,-0 0,-0 0,-0 0,-0 0,-0 0,-0 -0,-0 -0,0 -0,0 -0,0 -0,0 -0,0 -0,-0 -0,-0 -0,-0 -0,-0 -0,-0 -0,-0 -0,0 -0,0 -0,0 -0,0 -0,0 -0,0 -0,0 -0,0 -0,0 -0,0 -0,0 -0,0 -0,0 -0,0 -0,0 -0,0 -0,0 -0,0 -0,0 -0,0 -0,0 0,0 0,-0 0,-0z"/>
   <path class="fil2" d="M0.07 0.07c0,-0 -0,-0 -0,-0 -0,0 -0,0 -0,0 0,0 0,0 0,0 0,-0 0,-0 0,-0z"/>
   <path class="fil2" d="M0.07 0.06c0,0 0,-0 -0,-0.01 -0,-0 -0,0 -0,0 0,0 0,0 0,0 0,0 0,0 0,0z"/>
   <path class="fil2" d="M0.07 0.05c0,0 0,0 0,-0 -0,-0 -0,-0 -0,-0 -0,0 -0,0 -0,0 -0,0 -0,0 -0,0z"/>
   <path class="fil3" d="M0.03 0.15c-0,-0.01 -0,-0.01 0,-0.01 0,0 0,-0 0,-0.01 -0,-0 -0,-0.01 -0,-0.01 -0,-0 -0,-0 -0,-0 -0,0 -0,0 -0,0 -0,0 -0,0.01 -0.01,0.01 -0,0.01 -0,0.01 -0,0.02 -0,0 -0,0.01 -0,0.01 -0,0 -0,0 -0,0.01 -0,0 -0,0 -0,0 -0,-0 -0,0 -0,0 0,0 0,0 0,0 0.01,0 0.01,0 0,0 -0.01,0 -0.01,0 0,0 0.01,0 0.01,0 0.01,-0 -0,-0 -0,-0 0,-0 0,0 0,-0 0,-0 0,-0 0,-0.01 -0,-0.01 -0,-0 -0,-0.01 -0,-0.01 -0,-0 -0,-0.01 -0,-0.01l-0 -0 0 0c0,0 0,0 0,-0z"/>
   <path class="fil3" d="M0.04 0.15c0,-0 0,0 0,0.01 0,0 0,0.01 0,0.01 0,0 0,0.01 0.01,0.01 0.01,0 0.01,0.01 0.01,0.01 -0,0 -0,0 -0,0 -0,0 -0,0 -0,0 -0,0 -0,0.01 -0,0.01 0,0 0,0 0,0.01 0,0 0,0.01 0,0.01 0,0 0,0 0,0 -0,0 -0,0 -0,0.01 -0,0 0,0.01 0,0 0,-0 0,-0 0,0 0,0 -0,0 -0,0 -0,0 -0.01,0.02 -0.01,0.02l0 0 0.02 0c0.01,0 0.02,0 0.02,0 0,0 -0,0 -0.01,0.01 -0,0 0,0 0.01,0 0.01,-0 0.02,-0 0.02,0 -0,0 -0,0 -0.01,0 -0,0 -0.01,0 -0.01,0l-0 0 0.01 0c0.01,0 0.02,-0 0.03,-0 0,-0 0,-0 0.01,-0 0,0 0.01,0 0.01,-0 0,-0 -0,-0 -0.01,-0 -0.02,-0 -0.02,-0 -0,-0 0.01,0 0.02,0 0.02,0 0,0 0,0 0,-0 -0,-0 -0,-0 -0,-0 0,-0 0,-0 0.01,-0 0.01,0 0.01,0 0.01,-0 0,-0 -0.01,-0.02 -0.01,-0.02 -0,-0 -0,-0.01 -0,-0.01 0,0 0,0 0.01,0.01 0,0.01 0.01,0 0.01,-0 -0,-0 -0,-0 -0,-0.01 -0,-0 -0,-0 0,-0 0,-0 0,-0 0,-0.01 0,-0.01 -0,-0.01 -0.01,-0.02 -0,-0.01 -0,-0.01 -0,-0.01 0,-0 0.01,-0.01 0.01,-0.01 0,-0 0,-0.01 0,-0.01l0 -0.01 0 0 0 0 0 -0c0,-0 0,-0.01 0,-0.01 0,-0 0,-0.01 0,-0.01l0 -0c0,-0 0,-0.01 0,-0.01 -0,-0 -0,-0 -0,-0 0,0 -0,0 -0,0 -0,-0 -0.01,-0 -0.01,-0 -0,-0 -0,-0 -0,-0 -0,-0 -0,-0 -0,-0 -0.01,-0 -0.01,-0 -0.01,-0 -0,0 -0,0 -0,0 -0,0 -0.01,-0 -0.01,-0 -0,-0 -0,-0 -0.01,0 -0.01,0 -0.02,0.01 -0.03,0.01 -0.01,0 -0.03,-0 -0.03,-0.01 -0,-0 -0.01,-0 -0.01,-0 0,0 -0,0 -0,0 -0,-0 -0.01,0 -0.01,0 0,0 0,0 -0,0 -0,0 -0,0 -0.01,0 -0.01,0 -0.01,0 -0.01,0 -0,0 -0,0 -0,0 -0,0 -0,0 0,0.01l0 0c0,0 0,0.01 0,0.01 0,0.01 0,0.01 0,0zm0.06 0.1c0.01,-0 0.02,0 0.02,0 -0,0 -0.02,0 -0.03,0 -0.01,-0 -0,-0 0.01,-0zm0.04 -0.01c-0,-0 0,-0 0.01,0 0,0 0,0 0,0 -0,-0 -0,-0 -0,-0 -0,-0 -0,-0 -0,-0z"/>
   <path class="fil3" d="M0.17 0.12c-0,0 -0,0.02 -0,0.02 0,-0 0,-0 0,0.01 -0,0 -0,0.01 0,0.01 0,0 0,-0 0,-0 0,-0 0,-0 0,-0l0 -0 -0 0c-0,0.01 -0,0.01 0,0.01 0,0 0,0 -0,0 -0,0 -0,0 -0,0 -0,0 -0,0 -0,0 -0,0 -0,0 -0,0 0,0 0,0 0,0.01l-0 0.01 0 -0c0.01,-0 0.01,0 0,0 -0,0 -0,0 -0,0 0,-0 0,-0 0.01,-0 0.01,-0 0.01,-0 0.01,-0 -0,0 -0,-0 -0,-0 0,-0 0,-0 0,-0 0,0 0,-0 0,-0 -0,-0 -0,-0.01 -0,-0.01 -0,-0 -0,-0 -0,-0 -0,0 -0,0 -0,-0 0,-0 0,-0.02 0,-0.02 -0,-0 -0,-0 -0,-0 -0,-0 -0,-0 -0,-0.01 -0,-0 -0,-0.01 -0,-0.01 0,0 0,0 0,-0 -0,-0 -0,-0 -0,-0l-0 -0 -0 0z"/>
   <path class="fil3" d="M0.06 0.27c-0,-0 -0,-0 -0.01,-0 -0,0 -0.01,0 -0.01,0 -0,0 -0,0 -0,0 0,0 0.01,-0 0.02,-0 0,-0 0,-0 0,-0z"/>
   <path class="fil3" d="M0.07 0.27c-0.01,0 -0.01,0 -0.01,0 -0,0 0,0 0.01,0 0.01,-0 0.01,-0 0.01,-0 -0,-0 -0,-0 -0.01,-0z"/>
   <path class="fil3" d="M0.09 0.27c-0,0 -0,0 0,0 0,0 0.01,0 0.01,0 0,0 0,0 0,0 0,0 0,0 0,0 0,0 0,0 0.01,0 0,0 0,0 0,0 0.01,0 0.01,0 0.01,0 0,-0 0,0 0.01,0 0.01,0 0.01,0 0.01,0 -0,-0 -0,-0 -0,-0 -0.01,-0 -0.01,-0 -0.01,-0 -0,-0 -0.03,-0.01 -0.03,-0z"/>
   <path class="fil3" d="M0.14 0.26c0,0 0.01,0 0.01,0 0,-0 -0,-0 -0.01,-0 -0,0 -0,0 0,0z"/>
   <path class="fil3" d="M0.15 0.19c0,0 0,0 0,0 0,-0 -0,-0 -0,-0 -0,0 -0,0 -0,0z"/>
   <path class="fil4" d="M0.16 0.24c-0,-0 -0,-0 -0,-0 0,0 0,0 0,0 0,0 0,0 0,0 0,-0 0,-0 0,-0z"/>
   <path class="fil4" d="M0.03 0.39c-0,-0 -0,-0 -0,-0 0,0 0,0 0,0z"/>
   <path class="fil5" d="M0.11 0.67c0,-0 0,-0 0,-0 0,0 0,0 0,0 -0,0 -0,0 -0,0z"/>
   <path class="fil4" d="M0.12 0.08c0,-0 0,-0 0,-0 -0,0 -0,0 -0,0z"/>
   <path class="fil4" d="M0.08 0.09c0,0 0,0 0,0l-0 -0z"/>
   <path class="fil5" d="M0.05 0.69c-0,-0 -0,-0 -0,-0 0,0 0,0 0,-0 0,-0 0,-0 0,0z"/>
   <path class="fil4" d="M0.13 0.07c-0,0 -0,0 -0,-0 0,0 0,0 0,0z"/>
   <polygon class="fil4" points="0.04,0.2 0.04,0.2 0.04,0.2 "/>
   <path class="fil4" d="M0.13 0.1c-0,-0 -0,-0 -0,-0 0,0 0,0 0,0z"/>
   <path class="fil4" d="M0.12 0.03c-0,-0 -0,-0 -0,-0 0,0 0,0 0,0z"/>
   <path class="fil4" d="M0.01 0.19c-0,0 -0,0.01 -0,0.02 0,-0.01 0,-0.02 0,-0.02 0,0 0,-0 0,-0z"/>
   <path class="fil4" d="M0.12 0.03c-0,-0 -0,-0 -0,-0 0,0 0,0 0,0z"/>
   <path class="fil4" d="M0.14 0.1c-0,-0 -0.01,-0 -0.01,-0 0,0 0,0 0.01,0z"/>
   <path class="fil4" d="M0.17 0.4c0,-0 0,-0 0,-0 -0,0 -0,0 -0,0z"/>
   <path class="fil4" d="M0.08 0.04c-0,0 -0,0.01 -0,0.01 0,-0 0,-0.01 0,-0.01z"/>
   <path class="fil5" d="M0.06 0.69c0,0 0,0 0,0 -0,-0 -0,-0 -0,-0z"/>
   <path class="fil4" d="M0.17 0.4c0,-0 0,-0 0,-0 -0,0 -0,0 -0,0l0 -0z"/>
   <path class="fil5" d="M0.08 0.69c0,-0 0,-0 0,-0 0,-0 0,-0 0,-0 -0,0 -0,0 -0,0z"/>
   <path class="fil5" d="M0.05 0.69c-0,0 0,0 0,0 -0,-0 -0,-0 -0,-0z"/>
   <path class="fil5" d="M0.12 0.69c-0,-0 -0,-0 -0,-0 -0,-0 -0,-0 -0,-0 0,0 0,0 0,0 0,0 0,0 0,0.01z"/>
   <path class="fil4" d="M0.17 0.31c0,0.01 0,0.01 -0,0.01 0,-0 0,-0.01 0,-0.01z"/>
   <path class="fil4" d="M0.16 0.22l-0 0.01c-0,0 -0,0 -0,0 0,-0 0,-0 0,-0 0,-0 0,-0.01 0,-0.01z"/>
   <path class="fil4" d="M0.19 0.16c-0,-0.01 -0,-0.01 -0,-0.02 0,0 0,0 0,0.01 0,0 0,0.01 0,0.01z"/>
   <path class="fil4" d="M0.13 0.06c0,0 0,0 -0,0 -0,0 -0,-0 -0,-0 0,-0 0,-0 0,-0z"/>
   <path class="fil4" d="M0.18 0.39c0,-0 0,-0 0,-0 0,-0 0,-0.01 0.01,-0.01l0 -0 -0 0c-0,0.01 -0.01,0.01 -0.01,0.01 -0,0 -0,0 -0,0z"/>
   <path class="fil4" d="M0.17 0.27c0,0.01 0,0.01 0,0.02 -0,-0 -0,-0.01 -0,-0.01 -0,-0 -0,-0.01 -0,-0.01z"/>
   <path class="fil4" d="M0.12 0.02c-0,-0 -0.01,-0 -0.02,-0 -0,0 -0,0 -0,0 0.01,-0 0.02,-0 0.02,0 0,0 0,0 0,0z"/>
   <path class="fil4" d="M0.17 0.26c-0,-0.01 -0,-0.01 -0,-0.02 0,0.01 0,0.01 0,0.02z"/>
   <path class="fil4" d="M0.09 0.28c-0,-0 0,-0 0,-0 0,0 0,0 0,0 -0,0 -0,-0 -0,-0z"/>
   <path class="fil4" d="M0.15 0.64c-0,-0 -0,-0 0,-0 0,0 0,0 0,0 0,0 -0,0 -0,0z"/>
   <path class="fil4" d="M0.06 0.62c-0,-0 -0,-0 -0,-0 0,-0 0,0 0,0 -0,0 -0,0 -0,-0z"/>
   <path class="fil4" d="M0.16 0.22c0,-0 0,-0 0,-0 0,0 0,0 0,0.01 -0,-0 -0,-0 -0,-0l-0 -0z"/>
   <path class="fil4" d="M0.13 0.28c-0,-0 -0,-0 -0,-0 0,-0 0,0 0,0 0,0 -0,0 -0,-0z"/>
   <path class="fil4" d="M0.07 0.28c0,-0 0,-0 0,-0 0,0 -0,0 -0,0 -0,0 -0,-0 -0,-0z"/>
   <path class="fil4" d="M0.15 0.19c0,0 0,0 0,0 0,-0 -0,-0 -0,-0 -0,0 -0,0 -0,0z"/>
   <path class="fil4" d="M0.18 0.13c-0,-0 -0,-0.01 -0.01,-0.01 -0,-0 -0.01,-0.01 -0.02,-0.01 -0,-0 -0.01,-0 -0.01,-0 0.01,0 0.02,0.01 0.02,0.01 0,0 0,0 0.01,0.01z"/>
   <path class="fil4" d="M0.02 0.37c-0,-0 -0,-0 -0,-0 0,-0 0,-0 0,0 0,0 -0,0 -0,0z"/>
   <path class="fil4" d="M0.14 0.26c0,0 0.01,0 0.01,0 0,-0 -0,-0 -0.01,-0 -0,0 -0,0 0,0z"/>
   <path class="fil4" d="M0.14 0.24c0,0 0,0 0,0 -0,-0 -0,-0 -0,-0 -0,-0 -0,-0 -0,-0 -0,-0 0,-0 0.01,0z"/>
   <path class="fil4" d="M0.18 0.39c0,-0 0,-0 0,-0 0,-0 0,-0 0,-0 0,-0 0,-0 0,-0 -0,0 -0,0 -0.01,0.01 -0,0 -0,0.01 -0.01,0.01 0,-0 0.01,-0.02 0.01,-0.02 0,-0 0,-0 0,-0 0,0 0,-0 0,-0 -0,-0 -0,-0 0,-0 0,0 0,0 0,0 -0,0 -0,0.01 -0.01,0.01z"/>
   <path class="fil5" d="M0.13 0.69c-0,-0 -0,-0 -0.01,-0 -0,-0 -0,-0 -0,-0 0,-0 0,-0 0,-0 0,-0 0,-0 0,0 0,0 0,0 0.01,0 0,0 0.01,-0 0.01,-0 0,-0 0,-0 0,-0 0,0 0,0 0,0 -0,0 -0.01,0 -0.02,0z"/>
   <path class="fil4" d="M0.02 0.39c-0,-0 -0.01,-0.01 -0.01,-0.01 0,0 0,0 -0,0 -0,-0 -0,-0 -0,-0 0,-0 0,-0 -0,-0 -0,0 -0,-0 -0,-0 0,-0 -0,-0 -0,-0.01 0,0.01 0,0.01 0,0 -0,-0 -0,-0 0,-0 0,0 0,0 0,0 0,0 0,0.01 0.01,0.01 0,0 0,0 0,0 -0,-0 -0,-0 -0,-0z"/>
   <path class="fil4" d="M0.1 0.28c-0,-0 -0,-0 -0,-0 0,-0 0,-0 0,-0 0,0 0,0 0,0 0,0 0,0 0,-0 0,-0 0,-0 0,0 0,0 0,0 -0.01,0z"/>
   <path class="fil6" d="M0.13 0.06c0,-0 -0,-0 -0,-0 -0,0 -0,0 -0,0 0,0 -0,0 -0,0 -0,-0 -0,-0 -0,-0.01 -0,-0 -0,-0.01 -0,-0.01 0,0 0,0.01 0,0.01 0,0 0,0.01 0,0.01 0,0 0,-0 0,-0 0,-0 0,-0.01 0,-0.01 0,0 0,0 0,0.01z"/>
   <path class="fil5" d="M0.05 0.69c-0,-0 -0,-0 -0,-0 0,0 0,0 0,-0 0,-0 -0,-0 -0,-0 0,0 0,0 0,-0 0,-0 0,-0 0,-0 -0,0 -0,0 -0,0 -0,0 -0,0 -0,0 0,0 0.01,0 0.01,0 0.01,-0 0.01,-0 0.01,-0 -0,0 -0,0 -0,0 -0.01,0 -0.02,0 -0.02,0z"/>
   <path class="fil6" d="M0.07 0.05c0,0 0,0 0,0 0,0 0,-0 0,-0 0,-0 0,-0 0,-0 0,0 0,0 0,0 0,0 0,0 0,-0 -0,0 -0,0.01 0,0.01 0,0 0,0 0,0.01 0,0 0,0 0,0 -0,-0 -0,-0 -0,-0 -0,0 -0,0 -0,0 0,-0 0,-0 0,-0 0,-0 -0,-0 -0,-0 -0,0 -0,0 -0,0 -0,-0 -0,-0 -0,-0.01 0,0 0,0 0,0 0,0 0,-0 -0,-0.01 -0,-0 -0,-0 -0,0 0,0 0,0 0,0 -0,-0 -0,-0 -0,-0 -0,-0 -0,-0.01 -0,-0.01 -0,0 -0,0 -0,0z"/>
   <path class="fil4" d="M0.05 0.27c-0,0 0,0 0.01,0 0.01,-0 0.01,-0 0.01,-0 -0,-0 -0,-0 -0.01,-0 -0.01,0 -0.01,0 -0.01,0z"/>
   <path class="fil4" d="M0.12 0.24c-0,0 -0.02,0 -0.03,0 -0.01,-0 -0,-0 0.01,-0 0.01,-0 0.02,0 0.02,0z"/>
   <path class="fil4" d="M0.05 0.27c0,0 0.01,-0 0.02,-0 0,-0 0,-0 0,-0 -0,-0 -0,-0 -0.01,-0 -0,0 -0.01,0 -0.01,0 -0,0 -0,0 -0,0z"/>
   <path class="fil4" d="M0.05 0.68c-0,-0 -0,-0 -0,-0.01 0,-0.01 0,-0.01 0.01,-0.01 0.01,0 0.01,0 0.01,0 0,0 0,0 0,0.01 -0,0.01 -0.01,0.01 -0.01,0.01 -0,0 -0.01,-0 -0.01,-0z"/>
   <path class="fil4" d="M0.13 0.68c-0,-0 -0.01,-0 -0.01,-0.01 -0,-0.01 0,-0.01 0.01,-0.01 0.01,0 0.01,0 0.02,0.01 0,0.01 0,0.01 0,0.01 -0,0 -0.01,0 -0.02,0z"/>
   <path class="fil4" d="M0.09 0.11c0,0 0,0 0.01,0 0.01,0 0.02,-0 0.02,-0.01l0 -0 -0 -0c-0,-0 -0,-0 -0,-0 0,0 0,0 0,0l0 0 -0 0c-0,0 -0.01,0 -0.01,0 -0,0 -0,0 -0,0 -0,0 0.01,-0 0.01,-0 0,-0 0,-0 0,-0 0,-0 0,-0 0,-0 0,0 0,0 0,0 0.01,0 0.02,0.01 0.02,0.01 -0,-0 -0,-0 -0,-0 -0.01,-0 -0.01,-0 -0.01,-0 -0,0 -0,0 -0,0 -0,0 -0.01,-0 -0.01,-0 -0,-0 -0,-0 -0.01,0 -0.01,0 -0.02,0.01 -0.03,0.01 -0.01,0 -0.03,-0 -0.03,-0.01 -0,-0 -0.01,-0 -0.01,-0 0,0 -0,0 -0,0 -0,-0 -0.01,0 -0.01,0 0,-0 0.01,-0 0.01,-0 0,-0 0.01,-0.01 0.01,-0.01 0,0 0,0 0,0 0,0 0.01,0.01 0.01,0.01 0,-0 -0,-0 -0,-0 -0,-0 -0.01,-0 -0.01,-0 -0,-0 -0,-0 0,-0l0 0c0,0 0.01,0 0.01,0 0,0 0.01,0 0.01,0z"/>
   <path class="fil4" d="M0.13 0.27c0.01,0 0.01,0 0.01,0 -0,-0 -0,-0 -0,-0 -0.01,-0 -0.01,-0 -0.01,-0 -0,-0 -0.03,-0.01 -0.03,-0 -0,0 -0,0 0,0 0,0 0.01,0 0.01,0 -0.01,-0 -0.03,0 -0.05,0 -0.01,0 -0.02,0 -0.02,0.01l-0 0 0 -0.01c0,-0 0,-0.01 0,-0.01 0,-0 0,-0 0,-0.01 -0,-0 -0,-0 0,-0 0,-0 0,-0 0,-0.01 -0,-0 0,-0.01 0,-0.01 0,-0.01 0,-0.01 0,-0.01 -0,-0 -0,-0 -0,-0.01 0,-0 -0,-0.01 -0,-0.02 -0,-0.01 -0,-0.01 -0,-0.02 -0,-0.01 -0,-0.02 -0,-0.03 -0,-0 -0,0 -0,0 0,0.01 0,0.03 0,0.03 -0,0 -0,0 -0,-0 -0,-0 -0.02,-0 -0.02,-0 -0,0 0,0 0.01,0l0 0c-0.01,-0 -0.01,-0 -0.02,-0 -0,-0 -0,-0 -0,-0 0,0 0,0 0,0 0,0 0.01,0 0,-0 -0,-0 -0,-0 -0.01,-0l-0.01 -0 0 -0c0,-0 0,-0.01 0,-0.01 0,-0 0,-0.01 0,-0.01 0,-0.01 0,-0.01 0.01,-0.02 -0,0.01 -0,0.01 -0,0.02 -0,0 -0,0.01 -0,0.01 -0,0 -0,0 -0,0.01 -0,0 -0,0 -0,0 -0,-0 -0,0 -0,0 0,0 0,0 0,0 0.01,0 0.01,0 0,0 -0.01,0 -0.01,0 0,0 0.01,0 0.01,0 0.01,-0 -0,-0 -0,-0 0,-0 0,0 0,-0 0,-0 0,-0 0,-0.01 -0,-0.01 -0,-0 -0,-0.01 -0,-0.01 -0,-0 -0,-0.01 -0,-0.01l-0 -0 0 0c0,0 0,0 0,-0 -0,-0.01 -0,-0.01 0,-0.01 0,0 0,-0 0,-0.01 -0,-0 -0,-0.01 -0,-0.01 -0,-0 -0,-0 -0,-0 -0,0 -0,0 -0,0 0,-0 0,-0.01 0.01,-0.01 0,-0 0,-0 0,-0 -0,0 -0,0 -0,0 -0,0 -0,0 0,0.01l0 0c0,0 0,0.01 0,0.01 0,0.01 0,0.01 0,0 0,-0 0,0 0,0.01 0,0 0,0.01 0,0.01 0,0 0,0.01 0.01,0.01 0.01,0 0.01,0.01 0.01,0.01 -0,0 -0,0 -0,0 -0,0 -0,0 -0,0 -0,0 -0,0.01 -0,0.01 0,0 0,0 0,0.01 0,0 0,0.01 0,0.01 0,0 0,0 0,0 -0,0 -0,0 -0,0.01 -0,0 0,0.01 0,0 0,-0 0,-0 0,0 0,0 -0,0 -0,0 -0,0 -0.01,0.02 -0.01,0.02l0 0 0.02 0c0.01,0 0.02,0 0.02,0 0,0 -0,0 -0.01,0.01 -0,0 0,0 0.01,0 0.01,-0 0.02,-0 0.02,0 -0,0 -0,0 -0.01,0 -0,0 -0.01,0 -0.01,0l-0 0 0.01 0c0.01,0 0.02,-0 0.03,-0 0,-0 0,-0 0.01,-0 0,0 0.01,0 0.01,-0 0,-0 -0,-0 -0.01,-0 -0.02,-0 -0.02,-0 -0,-0 0.01,0 0.02,0 0.02,0 0,0 0,0 0,-0 -0,-0 -0,-0 -0,-0 0,-0 0,-0 0.01,-0 0.01,0 0.01,0 0.01,-0 0,-0 -0.01,-0.02 -0.01,-0.02 -0,-0 -0,-0.01 -0,-0.01 0,0 0,0 0.01,0.01 0,0.01 0.01,0 0.01,-0 -0,-0 -0,-0 -0,-0.01 -0,-0 -0,-0 0,-0 0,-0 0,-0 0,-0.01 0,-0.01 -0,-0.01 -0.01,-0.02 -0,-0.01 -0,-0.01 -0,-0.01 0,-0 0.01,-0.01 0.01,-0.01 0,-0 0,-0.01 0,-0.01l0 -0.01 0 0 0 0 0 -0c0,-0 0,-0.01 0,-0.01 0,-0 0,-0.01 0,-0.01l0 -0c0,-0 0,-0.01 0,-0.01 -0,-0 -0,-0 -0,-0 0.01,0 0.01,0 0.01,0.01 -0,-0 -0,-0 -0,-0l-0 -0 -0 0c-0,0 -0,0.02 -0,0.02 0,-0 0,-0 0,0.01 -0,0 -0,0.01 0,0.01 0,0 0,-0 0,-0 0,-0 0,-0 0,-0l0 -0 -0 0c-0,0.01 -0,0.01 0,0.01 0,0 0,0 -0,0 -0,0 -0,0 -0,0 -0,0 -0,0 -0,0 -0,0 -0,0 -0,0 0,0 0,0 0,0.01l-0 0.01 0 -0c0.01,-0 0.01,0 0,0 -0,0 -0,0 -0,0 0,-0 0,-0 0.01,-0 0.01,-0 0.01,-0 0.01,-0 -0,0 -0,-0 -0,-0 0,-0 0,-0 0,-0 0,0 0,-0 0,-0 -0,-0 -0,-0.01 -0,-0.01 -0,-0 -0,-0 -0,-0 -0,0 -0,0 -0,-0 0,-0 0,-0.02 0,-0.02 -0,-0 -0,-0 -0,-0 -0,-0 -0,-0 -0,-0.01 0,0 0,0 0,0 0,0.01 0.01,0.02 0.01,0.03 0,0 0,0.01 0,0.02 0,0.01 0,0.01 0,0.01 0,0 -0,0 -0,0 -0,0 -0.01,0 -0.02,0 -0,0 -0.01,0 -0.01,0 -0,0 -0,-0 -0,-0.02 0,-0.01 0,-0.01 0,-0.01 0,-0 0,-0 0,-0.01 -0,-0 -0,-0 -0,-0 -0,0.01 -0,0.02 -0,0.03 -0,0.01 -0,0.02 -0,0.02 -0,0.02 -0,0.03 0,0.04 0,0.01 0,0.02 0,0.01 -0,-0 -0,-0 0,0 0,0 0,0 0,0.01 0,0 0,0 0,0.01 0,0.01 0,0.02 0,0.02 -0,0 -0,-0 -0,-0 -0,-0.01 -0.02,-0.01 -0.05,-0.02 0.01,0 0.01,0 0.01,0 0,-0 0,0 0.01,0z"/>
   <path class="fil7" d="M0.05 0.62c-0,-0 -0,-0 -0,-0 -0,-0 -0,-0.01 0,-0.01 0,-0 0.01,-0 0.01,-0 0,-0 -0,-0 -0.01,0 -0,0 -0,0 -0,0 0,-0 0,-0 0,-0 0,-0 0.01,-0.01 0.01,-0.01 -0,-0 -0,-0 -0,0 0,0 -0,0 -0,0 -0,-0 -0,-0.01 -0,-0.02 0,-0.01 -0,-0.02 -0,-0.02 -0,-0.02 -0,-0.05 -0,-0.07 0,-0.01 0,-0.01 -0,-0.01 -0,0 -0,0 -0,-0 0,-0 0,-0 0,-0 0,-0 0,-0.01 0,-0.01 -0,-0 -0,-0 -0,-0.01 -0,-0 -0,-0 0,-0.01 0,-0.01 0,-0.02 -0,-0.02 -0,-0 -0,-0.02 -0.01,-0.04 -0,-0.01 -0,-0.01 0,-0.01 0,-0 0,-0 0,-0.01 -0,-0.01 -0,-0.04 -0,-0.05l0 -0.01 0.01 -0c0.01,-0 0.01,-0 0,-0 -0,0 -0,0 0,-0 0,-0 0,-0 0,-0 -0.01,0 -0.01,0 -0.01,-0 0,-0.01 0.01,-0.01 0.01,-0.01 0,0 0,0 0,0 -0,0 -0,0 0,0 0,0 0,0 -0,0.01l-0 0 0 -0c0,-0 0,-0 0,-0.01 0,-0 0,-0 0.01,-0 0,0 0.01,0 0.01,-0 0,-0 0,-0 0.01,-0l0.01 0 0 0c0,0 0,0.01 0,0.02 0,0.02 0,0.02 0,0.02 0,0 0,-0 0,-0 0,-0 -0,-0 -0,-0 -0,0 -0,-0.01 -0,-0.03 0,-0.01 0,-0.02 0,-0.02 0,-0 0.01,-0 0.01,0 -0,0 0,0 0,0 0,0 0,0 0,0 0,0 0,0 0,0 0,0 0,0 0,0 0,-0 0,-0 0,-0 0,-0 0,-0 0,-0 0,-0 0.01,0 0.01,0 0,0 0,0 0.01,0 0,-0 0.01,-0 0.01,0 0,0 0,0 0,0 0,0 0,0 0,0 -0,0 -0,-0 -0,-0 -0,-0 -0,-0 0,0 0,0 0,0 0,0 -0,-0 0,-0 0,0 0,0 0,0 0,0 0,-0 -0,-0 -0,-0 -0,-0 -0.01,-0.01 -0.01,-0.01 0,-0 0,-0 0,-0 0,0 0,0 -0,-0 -0,-0 -0,-0 -0,-0 -0,-0 -0,-0 -0,-0 0,-0 0.01,0 0.02,0.01 0,0 -0,0 -0,0 -0,-0 -0,0 0,0 0,0 0,0 0,0 0,0 0,0 0,0 0,0 0,0 -0,0l-0 -0 0 0c0,0 0,0 0.01,0 0,0 0,0 0,0.01 0,0.01 0,0.02 0,0.03 -0,0.02 -0,0.02 0,0.02 0,0 0,0.01 0,0.01 -0,0 -0,0.01 -0,0.01 -0,0.01 -0,0.01 -0,0.02 -0,0 -0,0.01 -0,0.01 0,0 -0,0 -0,0.01 -0,0 -0,0 -0,0.01 0,0 0,0.01 0,0.01 0,0 0,0 -0,0 -0,-0 -0.01,0 -0.01,0.01 0,0 0,0 0,0.01 0,0 0,0.01 0,0.01 -0,0 -0,0.01 -0,0.01 0,0 0,0.01 0,0.02 0,0.02 -0,0.03 -0,0.04 -0,0 -0,0.01 -0,0.01 0,0 0,0.01 0,0.01l0 0.01 -0 0c-0.01,0 -0.01,0 -0,0.01 0.01,0.01 0,0.02 -0,0.01 -0,-0 -0,-0 -0,0 0,0 0,0.01 -0,0 -0,-0 -0.01,-0 -0.01,-0 -0.01,0 -0.01,0 -0.01,0l-0.01 0 0 -0c0,-0 -0,-0 -0,-0 -0,-0 -0,-0 -0,-0 0,-0 0,-0.01 0,-0 -0,0 -0,0 -0,-0 0,-0 0,-0 0,-0 0,0 0,-0 -0,-0 -0,-0 -0,-0 -0.01,-0 -0,0 -0,-0.01 -0,-0.01 0,-0 0,-0.01 0,-0.01 0,-0 0,-0.01 0,-0.01 0,0 0,-0 0,-0 0,-0 0,-0.01 0,-0.01 0,-0 -0,-0.01 -0,-0.01 -0,-0 -0,-0 -0,-0.01 0,-0.01 0,-0.02 0,-0.02 0,-0.01 0,-0.01 0,-0.02 0,-0 0,-0.01 0,-0.02 -0,-0 -0,-0 -0,-0.01 0,-0 0,-0.01 -0,-0.01l-0 -0 0 -0.02c0,-0.02 0,-0.03 -0,-0.03 -0,-0 -0,-0.01 -0,-0.01 0,-0.01 -0,-0.01 -0,-0.01 -0,-0 -0,-0.01 -0,-0.02 -0,-0.02 0,-0.02 0,-0.02 0,-0 0,-0 0,-0 -0,-0 -0,-0 0.01,-0.01l0 -0 -0.01 0c-0.01,0 -0.01,0 -0.01,-0 -0,-0 -0,-0 -0,-0 -0,0 -0,0 -0,0 -0,-0 -0,-0 -0.01,-0 -0,-0 -0,0 0,0 0,0 0.01,0.01 0,0.01 -0,0 -0,0 0,0 0,0 0,0 0,0.02 0,0.01 0,0.02 0,0.02 -0,0 -0,0.02 -0,0.04 -0,0.01 -0,0.02 -0,0.02 -0,0 -0,0 0,0.01 0,0 0,0.01 -0,0.01 -0,0 -0,0 -0,0.01 0,0 0,0.01 0,0.01 -0,0 -0,0 -0,0 -0,0 -0,0 0,0.02 0,0 0,0.01 0,0.02 0,0 0,0.01 -0,0.01 -0,0 -0,0 -0,0.01 0,0 -0,0.02 -0,0.02 -0,0 -0,0 -0,0.01 -0,0.01 -0,0.01 -0,0.01 0,0 0,0.01 0,0 0,-0 0,-0 0,0.01 0,0 0,0.01 0,0.01 0,0 -0,0 -0.01,0.01l-0.01 0.01 0 0c0,0 0,0 0,0 0,0 -0,0 -0,0 -0,-0 -0,-0 -0,-0 -0,0 0,0 0,0 0,0 0,0 -0,0 -0,0 -0,0 -0,0l-0 0 -0 -0c-0,-0 -0.01,-0 -0.01,-0 -0.01,0 -0.01,0 -0.01,0 -0,0 -0,0 -0,0z"/>
   <g style="clip-path:url(#id0)">
    <g>
     <path id="_1" class="fil8" d="M0.06 0.28c-0,0 -0,0.01 -0.01,0.01 -0,0 -0.01,0.01 -0.01,0.01 -0,0 -0,0.01 -0,0.01 -0,0 -0,0.01 -0,0.01 -0,0 -0,0.01 -0,0.01 -0,0 -0,0.01 -0,0.01 0,0.01 0,0.01 0,0.02 0,0.01 0,0.01 -0,0.02 -0,0 -0,0.01 -0,0.02 0,0.01 0,0.01 0,0.02 0,0.01 0,0.01 0,0.02 0,0.01 0,0.01 0,0.02 0,0.01 0,0.01 0.01,0.01 0,0 0,0.01 -0,0.01 -0,0 -0.01,0 -0.01,0.01 0,0 0,0 0,0.01 0,0 -0,0.01 -0,0.01 -0,0 -0,0.01 -0,0.01 -0,0 -0,0.01 -0,0.02 -0,0.01 -0,0.01 0,0.01 0,0 0,0.01 0,0.01 0,0 0,0.01 -0,0.01 -0,0 -0,0.01 -0,0.01 0,0 0,0.01 0.01,0.01 0,0 0,0 0,0.01 0,0 -0,0 -0,0.01 0,0 0,0.01 0.01,0.01 0,0 0,0.01 0.01,0.01 0,0 0.01,-0 0.01,-0.01 0,-0 0,-0.01 0.01,-0.01 0,-0 0,-0 0,-0.01 -0,-0 -0,-0.01 -0,-0.01 -0,-0 -0,-0.01 -0,-0.02 -0,-0.01 -0,-0.01 -0,-0.02 -0,-0.01 -0,-0.01 0,-0.01 0,-0 0,-0.01 0,-0.01 0,-0 0,-0.01 0,-0.02 0,-0 -0,-0.01 -0,-0.01 -0,-0.01 -0.01,-0.01 -0.01,-0.02 0,-0 0,-0.01 0.01,-0.01 0,-0 0,-0.01 0,-0.01 -0,-0.01 -0,-0.01 -0,-0.02 -0,-0.01 -0,-0.01 0,-0.02 0,-0.01 0,-0.02 0,-0.02 0,-0.01 0,-0.01 0,-0.02 0,-0 0,-0.01 0,-0.01 -0,-0 -0.01,-0 -0.01,-0 -0,-0 -0.01,0 -0.01,0 -0,0 -0,0 -0,-0 0,-0 0.01,-0 0.01,-0.01 0,-0 0.01,-0 0,-0.01 -0,-0 -0.01,-0.01 -0.01,-0.01 -0,-0 -0,-0 0,-0 0,0 0.01,0 0.02,0 0.01,-0 0.02,-0 0.02,-0 0.01,-0 0.01,-0 0.01,-0 0,0 -0,0 -0.01,0 -0,0 -0.01,0 -0.01,0 0,0 0.01,-0 0.01,-0 0,0 -0,0.01 -0,0.01 -0,0 0,-0 0.01,-0 0,0 -0,0 -0,0 -0,0 -0,0 -0.01,0.01 -0,0 -0,0.01 -0,0.01 -0,0 0,0.01 -0,0.02 -0,0.01 -0,0.01 -0,0.02 0,0.01 0,0.01 0,0.02 0,0.01 0,0.02 0,0.02 0,0.01 0,0.01 0,0.02 0,0 0.01,0.01 0.01,0.01 0,0 0,0 -0,0 -0,0 -0,0.01 -0,0.01 0,0 0,0.01 0.01,0.01 0,0 -0,0.01 -0,0.01 -0,0 -0.01,0.01 -0.01,0.01 -0,0 -0,0.01 -0,0.01 0,0.01 0,0.01 0,0.02 0,0.01 0,0.01 -0,0.01 -0,0 -0,0.01 -0,0.01 0,0 0,0.01 0,0.01 0,0 0,0.01 0,0.01 -0,0 -0,0.01 -0,0.01 0,0 0,0.01 0.01,0.01 0,0 0.01,0 0.01,-0 0,-0 0.01,-0.01 0.01,-0.01 0,-0 -0,-0.01 0,-0.01 0,-0.01 0.01,-0.01 0.01,-0.02 0,-0.01 0,-0.02 0,-0.03 -0,-0.01 -0,-0.01 -0,-0.02 -0,-0 0,-0.01 0,-0.01 0,-0.01 0,-0.01 0.01,-0.02 0,-0.01 0,-0.01 -0,-0.02 -0,-0.01 -0,-0.01 -0,-0.01 -0,-0 0,-0.01 -0,-0.01 -0,-0 -0.01,-0.01 -0.01,-0.02 -0,-0.01 0,-0.01 0.01,-0.01 0,-0 0,-0.01 0,-0.01 0,-0 0,-0.01 0,-0.01 0,-0 0,-0.01 0,-0.02 0,-0.01 -0,-0.01 -0,-0.02 -0,-0.01 -0,-0.02 -0,-0.03 -0,-0.01 -0,-0.01 0,-0.02 0,-0.01 0,-0.01 0,-0.01 -0,-0 -0,-0 -0,-0 -0,-0 -0.01,-0 -0.01,-0.01 -0,-0 -0.01,-0.01 -0.01,-0.01 -0,-0 -0,-0 -0,-0 -0,-0 -0.01,-0 -0.01,-0 -0,-0 -0.01,-0 -0.01,0 -0,0 -0,0 -0,0.01 -0,0 0,0.01 0,0.02 -0,0.01 -0,0.01 -0.01,0.01 -0,0 -0.01,0 -0.01,0 -0,-0 0,-0.01 0,-0.01 0,-0 0,-0.01 0,-0.01 0,-0 0,-0.01 0,-0.01 -0,-0 -0,-0 -0,-0.01 -0,-0 -0,-0 -0,-0.01 -0,-0 -0,-0 0,-0.01 0.01,-0 0.02,-0.01 0.03,-0.01 0.01,-0 0.02,-0 0.03,0.01 0.01,0.01 0.02,0.02 0.03,0.05 0.01,0.03 0.02,0.09 0.03,0.13 0.01,0.04 0.01,0.07 0.02,0.1 0,0.03 -0,0.06 -0.02,0.07 -0.02,0.01 -0.07,0.01 -0.1,0.02 -0.03,0 -0.05,0 -0.07,-0 -0.02,-0 -0.03,-0.01 -0.04,-0.04 -0.01,-0.03 -0.02,-0.08 -0.03,-0.12 -0,-0.05 -0,-0.09 0,-0.12 0,-0.04 0.01,-0.06 0.02,-0.08 0.01,-0.02 0.02,-0.03 0.03,-0.03 0.01,-0 0.02,0 0.02,0 0,0 0,0.01 0,0.01 -0,0.01 -0.01,0.01 -0.01,0.02z"/>
    </g>
   </g>
   <path class="fil9" d="M0.05 0.62c-0,-0 -0,-0 -0,-0 -0,-0 -0,-0.01 0,-0.01 0,-0 0.01,-0 0.01,-0 0,-0 -0,-0 -0.01,0 -0,0 -0,0 -0,0 0,-0 0,-0 0,-0 0,-0 0.01,-0.01 0.01,-0.01 -0,-0 -0,-0 -0,0 0,0 -0,0 -0,0 -0,-0 -0,-0.01 -0,-0.02 0,-0.01 -0,-0.02 -0,-0.02 -0,-0.02 -0,-0.05 -0,-0.07 0,-0.01 0,-0.01 -0,-0.01 -0,0 -0,0 -0,-0 0,-0 0,-0 0,-0 0,-0 0,-0.01 0,-0.01 -0,-0 -0,-0 -0,-0.01 -0,-0 -0,-0 0,-0.01 0,-0.01 0,-0.02 -0,-0.02 -0,-0 -0,-0.02 -0.01,-0.04 -0,-0.01 -0,-0.01 0,-0.01 0,-0 0,-0 0,-0.01 -0,-0.01 -0,-0.04 -0,-0.05l0 -0.01 0.01 -0c0.01,-0 0.01,-0 0,-0 -0,0 -0,0 0,-0 0,-0 0,-0 0,-0 -0.01,0 -0.01,0 -0.01,-0 0,-0.01 0.01,-0.01 0.01,-0.01 0,0 0,0 0,0 -0,0 -0,0 0,0 0,0 0,0 -0,0.01l-0 0 0 -0c0,-0 0,-0 0,-0.01 0,-0 0,-0 0.01,-0 0,0 0.01,0 0.01,-0 0,-0 0,-0 0.01,-0l0.01 0 0 0c0,0 0,0.01 0,0.02 0,0.02 0,0.02 0,0.02 0,0 0,-0 0,-0 0,-0 -0,-0 -0,-0 -0,0 -0,-0.01 -0,-0.03 0,-0.01 0,-0.02 0,-0.02 0,-0 0.01,-0 0.01,0 -0,0 0,0 0,0 0,0 0,0 0,0 0,0 0,0 0,0 0,0 0,0 0,0 0,-0 0,-0 0,-0 0,-0 0,-0 0,-0 0,-0 0.01,0 0.01,0 0,0 0,0 0.01,0 0,-0 0.01,-0 0.01,0 0,0 0,0 0,0 0,0 0,0 0,0 -0,0 -0,-0 -0,-0 -0,-0 -0,-0 0,0 0,0 0,0 0,0 -0,-0 0,-0 0,0 0,0 0,0 0,0 0,-0 -0,-0 -0,-0 -0,-0 -0.01,-0.01 -0.01,-0.01 0,-0 0,-0 0,-0 0,0 0,0 -0,-0 -0,-0 -0,-0 -0,-0 -0,-0 -0,-0 -0,-0 0,-0 0.01,0 0.02,0.01 0,0 -0,0 -0,0 -0,-0 -0,0 0,0 0,0 0,0 0,0 0,0 0,0 0,0 0,0 0,0 -0,0l-0 -0 0 0c0,0 0,0 0.01,0 0,0 0,0 0,0.01 0,0.01 0,0.02 0,0.03 -0,0.02 -0,0.02 0,0.02 0,0 0,0.01 0,0.01 -0,0 -0,0.01 -0,0.01 -0,0.01 -0,0.01 -0,0.02 -0,0 -0,0.01 -0,0.01 0,0 -0,0 -0,0.01 -0,0 -0,0 -0,0.01 0,0 0,0.01 0,0.01 0,0 0,0 -0,0 -0,-0 -0.01,0 -0.01,0.01 0,0 0,0 0,0.01 0,0 0,0.01 0,0.01 -0,0 -0,0.01 -0,0.01 0,0 0,0.01 0,0.02 0,0.02 -0,0.03 -0,0.04 -0,0 -0,0.01 -0,0.01 0,0 0,0.01 0,0.01l0 0.01 -0 0c-0.01,0 -0.01,0 -0,0.01 0.01,0.01 0,0.02 -0,0.01 -0,-0 -0,-0 -0,0 0,0 0,0.01 -0,0 -0,-0 -0.01,-0 -0.01,-0 -0.01,0 -0.01,0 -0.01,0l-0.01 0 0 -0c0,-0 -0,-0 -0,-0 -0,-0 -0,-0 -0,-0 0,-0 0,-0.01 0,-0 -0,0 -0,0 -0,-0 0,-0 0,-0 0,-0 0,0 0,-0 -0,-0 -0,-0 -0,-0 -0.01,-0 -0,0 -0,-0.01 -0,-0.01 0,-0 0,-0.01 0,-0.01 0,-0 0,-0.01 0,-0.01 0,0 0,-0 0,-0 0,-0 0,-0.01 0,-0.01 0,-0 -0,-0.01 -0,-0.01 -0,-0 -0,-0 -0,-0.01 0,-0.01 0,-0.02 0,-0.02 0,-0.01 0,-0.01 0,-0.02 0,-0 0,-0.01 0,-0.02 -0,-0 -0,-0 -0,-0.01 0,-0 0,-0.01 -0,-0.01l-0 -0 0 -0.02c0,-0.02 0,-0.03 -0,-0.03 -0,-0 -0,-0.01 -0,-0.01 0,-0.01 -0,-0.01 -0,-0.01 -0,-0 -0,-0.01 -0,-0.02 -0,-0.02 0,-0.02 0,-0.02 0,-0 0,-0 0,-0 -0,-0 -0,-0 0.01,-0.01l0 -0 -0.01 0c-0.01,0 -0.01,0 -0.01,-0 -0,-0 -0,-0 -0,-0 -0,0 -0,0 -0,0 -0,-0 -0,-0 -0.01,-0 -0,-0 -0,0 0,0 0,0 0.01,0.01 0,0.01 -0,0 -0,0 0,0 0,0 0,0 0,0.02 0,0.01 0,0.02 0,0.02 -0,0 -0,0.02 -0,0.04 -0,0.01 -0,0.02 -0,0.02 -0,0 -0,0 0,0.01 0,0 0,0.01 -0,0.01 -0,0 -0,0 -0,0.01 0,0 0,0.01 0,0.01 -0,0 -0,0 -0,0 -0,0 -0,0 0,0.02 0,0 0,0.01 0,0.02 0,0 0,0.01 -0,0.01 -0,0 -0,0 -0,0.01 0,0 -0,0.02 -0,0.02 -0,0 -0,0 -0,0.01 -0,0.01 -0,0.01 -0,0.01 0,0 0,0.01 0,0 0,-0 0,-0 0,0.01 0,0 0,0.01 0,0.01 0,0 -0,0 -0.01,0.01l-0.01 0.01 0 0c0,0 0,0 0,0 0,0 -0,0 -0,0 -0,-0 -0,-0 -0,-0 -0,0 0,0 0,0 0,0 0,0 -0,0 -0,0 -0,0 -0,0l-0 0 -0 -0c-0,-0 -0.01,-0 -0.01,-0 -0.01,0 -0.01,0 -0.01,0 -0,0 -0,0 -0,0z"/>
   <path class="fil1" d="M0.03 0.27c0,-0 0,-0.01 0,-0.02 -0,-0.01 0,-0.02 0,-0.03 0,-0.01 0,-0.01 0,-0.02l0 -0.01 -0 -0 -0.01 -0 -0 -0c-0.01,-0 -0.01,-0 -0.02,-0 -0,-0 -0,-0 -0,-0 0,0 -0,0 -0,0 -0,-0 -0,0 -0,0 0,0 -0,0 -0,0 -0,0 -0,0.01 -0,0.02 0,0.01 -0,0.02 -0,0.02 -0,0.01 -0,0.04 -0,0.06 0,0.01 0,0.03 0,0.05l0 0.03 0 0.01c0,0 0,0 0,0 0,0.01 0,0.01 0,0 -0,-0 -0,-0 0,-0 0,0 0,0 0,0 0,0 0,0.01 0.01,0.01 0,0 0,0 0,0 0,0 0,0 0,0 0,0 0,0 0,-0 0,-0 0,-0 0,-0 0,0 0,-0 0,-0 -0,-0 -0,-0 -0,-0 -0,-0 -0,-0 -0,-0.01 -0,-0.01 -0.01,-0.02 -0.01,-0.03 0,-0 0,-0.01 0,-0.01 0,0 0,0 0,0.01 0,0.01 0,0.01 0.01,0.01 0,-0 0,-0 0,-0.01 -0,-0 -0,-0.01 -0,-0.02 -0,-0.01 -0,-0.01 -0,-0.02 -0,-0 -0,-0.01 -0,-0.01 0,-0.01 0,-0.02 0,-0.04 0,-0.01 0,-0.01 0,-0.02z"/>
   <path class="fil1" d="M0.17 0.24c-0,0.01 -0,0.01 0,0.04 0,0.02 0.01,0.04 0.01,0.05 -0,0 -0,0 -0,0.01 -0,0 -0,0.01 -0,0.02 -0,0.01 -0,0.02 -0,0.02 -0,0 -0,0 0,0.01 0,0 0,-0 0.01,-0.01 0,-0 0,-0.01 0,-0.01l0 -0 0 0.01c0,0.01 -0,0.01 -0.01,0.03 -0,0.01 -0.01,0.01 -0,0.01 0,-0 0.01,-0.02 0.01,-0.02 0,-0 0,-0 0,-0 0,0 0,-0 0,-0 -0,-0 -0,-0 0,-0 0,0 0,0 0,0 -0,0 -0,0.01 -0.01,0.01 -0,0 -0,0 -0,0 -0,0 -0,0 -0,0 -0,0 -0,0 -0,0 -0,0 -0,0 -0,0 0,0 0,0 0,0 0,-0 0,-0 0,-0 0,0 0,0 0,0 0,-0 0,-0 0,-0 0,-0 0,-0 0,-0.01 0,-0 0,-0 0,-0 0,-0 0,-0.01 0.01,-0.01l0 -0 0 -0.01 0 -0.02c0,-0.03 0,-0.05 0,-0.06 0,-0.02 0,-0.04 -0,-0.05 -0,-0.01 -0,-0.01 -0,-0.03l-0 -0.01 -0 0c-0,0 -0.01,0 -0.02,0.01l-0.01 0 0 0.01c0,0 0,0.01 0,0.02 0,0.01 0,0.01 0,0.02z"/>
   <path class="fil10" d="M0.07 0.69c-0,-0 -0,-0 -0,-0 -0,-0 -0.01,0 -0.01,0 -0,0 -0,0 -0,0 -0,0 -0,0 -0,0 0,0 0.01,0 0.01,0 0.01,-0 0.01,-0 0.01,-0 0,-0 0,-0 0,-0 0,0 0,0 0,0 0,-0 0,-0 0,-0 0,-0 0,-0 0,-0 0,-0 0,-0.01 0,-0.01 0,-0 -0,-0 -0,0 -0,0.01 -0.01,0.01 -0.02,0.01z"/>
   <path class="fil10" d="M0.05 0.69c0,-0 -0,-0 -0,-0 0,0 0,0 -0,0 -0,-0 -0,-0 -0,-0 -0,-0 -0,-0 -0,-0l-0 -0c-0,0 -0,0 -0,0 0,0 0,0 0,0 -0,0 0,0 0,0 0,0 0,0 0,0 0,0 0,0 0,-0z"/>
   <path class="fil10" d="M0.09 0.64c-0,0 -0,0 -0,0 0,-0 0.01,-0.01 0,-0.01 -0,0 -0,0 -0,0 -0,0 -0,0 -0,0.01z"/>
   <path class="fil10" d="M0.11 0.64c-0,0 -0,0 0,0.01 0,0.01 0,0.01 0,0 -0,-0.01 -0,-0.01 -0,-0.01z"/>
   <path class="fil10" d="M0.12 0.67c0,0 -0,0 -0,0 0,0 0,0 0,0zm0.01 0.01c-0,-0 -0.01,-0.01 -0.01,-0.01 0,-0 -0,-0 -0,-0 0,0 -0,0 -0,0 -0,0 -0,0 -0,0 -0,0 -0,0 0,0.01 0,0 0,0 0,0 0,0 0,0 0,0.01 0,0 0,0 0,0 0,0 0.01,0.01 0.01,0.01 0,-0 0,-0 0,-0 0,-0 0,-0 0,0 0,0 0,0 0.01,0 0,0 0.01,-0 0.01,-0 0,-0 0,-0 0,-0 0,0 0,0 0,0 0,-0 0,-0 0,-0 0,-0 0,-0 -0,-0 -0,0 -0,0 -0,0 -0,-0 -0,-0 -0.01,-0 -0,0 -0.01,0 -0.01,0 -0,0 -0.01,0 -0.01,-0.01z"/>
  </g>
 </g>
</svg>
