<?xml version="1.0" encoding="UTF-8"?>
<!DOCTYPE svg PUBLIC "-//W3C//DTD SVG 1.1//EN" "http://www.w3.org/Graphics/SVG/1.1/DTD/svg11.dtd">
<!-- Creator: CorelDRAW -->
<svg xmlns="http://www.w3.org/2000/svg" xml:space="preserve" width="0.4585mm" height="1.6mm" version="1.1" style="shape-rendering:geometricPrecision; text-rendering:geometricPrecision; image-rendering:optimizeQuality; fill-rule:evenodd; clip-rule:evenodd"
viewBox="0 0 0.15 0.54"
 xmlns:xlink="http://www.w3.org/1999/xlink"
 xmlns:xodm="http://www.corel.com/coreldraw/odm/2003">
 <defs>
  <style type="text/css">
   <![CDATA[
    .fil2 {fill:#0B0B0B}
    .fil4 {fill:#2C2B26}
    .fil1 {fill:#41597C}
    .fil0 {fill:#454648}
    .fil8 {fill:#65452D}
    .fil9 {fill:#A97954}
    .fil7 {fill:#B2B2B2}
    .fil5 {fill:#D9A26F}
    .fil6 {fill:#DFE0E0}
    .fil3 {fill:#F9BF8C}
   ]]>
  </style>
 </defs>
 <g id="Camada_x0020_1">
  <metadata id="CorelCorpID_0Corel-Layer"/>
  <g id="_1769520114752">
   <path class="fil0" d="M0.03 0.27l0.02 0c0.01,0 0.01,0 0.02,0 -0,0 -0,0 -0,0 -0,0 -0.02,0.01 -0.02,0 0.01,-0 0.02,-0 0.03,-0 -0,0 -0,0 -0,0.01l0 -0c0,0.01 -0,0.01 -0,0.02 -0,0.01 -0,0.01 -0,0.02 0,-0 0,-0 0,-0 0,0 0,-0 0,0 0,0 -0,0.01 -0,0.02 -0,0.01 -0.01,0.01 -0.01,0.01 0.01,0.01 0.01,0 0.01,0.01 -0,0 -0,0 -0.01,0 -0,-0 -0.01,-0 -0.01,-0 -0,-0 -0.02,0.01 -0.02,-0 0,-0 0,-0 0.01,-0.01 -0,-0 -0,-0 -0,-0.01 0,0 -0,0 -0,0 -0,-0 -0,-0.01 -0,-0.02 -0,-0.01 -0,-0.01 -0,-0.02 -0,-0.01 -0,-0.02 -0,-0.04 0.01,0 0.01,0 0.03,0 -0,0 -0.01,-0 -0.01,-0 -0.01,-0 -0.01,0 -0.01,-0.01zm0.01 -0.04c-0,0 -0,0 -0,-0 0,-0 0,-0 0.01,-0 -0,-0 -0,-0 -0,-0 0.01,-0 0.01,-0 0.02,-0 -0,-0 -0.01,-0 -0.02,0l0 -0c0,-0 0,-0 0,-0 0,0 0.01,0 0.01,0 0,0 0.01,0 0.01,0 -0,-0 -0.01,-0 -0.01,-0 -0.01,-0 -0.01,0 -0.02,0 -0,0 -0,-0 -0,-0 -0,-0.01 0.02,-0.01 0.02,-0.01l0.02 -0 0 -0c-0.01,-0 -0.03,0 -0.04,0.01 -0,0 -0,0 -0,0 0,-0 0,-0 0,-0 0,-0 0,-0 0,-0 0,-0 0,-0 0,-0 0,-0 0,-0 0,-0l0.01 -0c0.02,-0.01 0.05,-0.01 0.07,-0 -0,0 0,0 -0,0l0 0c0,-0 -0,-0 0,-0 0,0 0.01,0.01 0.02,0.01 -0,-0.01 -0,-0.01 -0,-0.01 -0,-0 0,-0 -0,-0.01 -0,-0 -0,-0 -0,-0.01 0,-0 0,-0 0,0 0,-0.01 -0,-0 -0,-0.01 0,-0.01 0.01,-0.03 0.01,-0.05 0,-0 0,-0 0,-0 0,-0 0,-0 0,-0.01 0,-0.01 0,-0.02 0,-0.02 -0,-0 -0.01,-0 -0.02,-0.01 -0.01,-0 -0.01,-0 -0.02,-0 -0,0 0,0 -0,0.02l-0 -0c-0,-0 0,-0 -0,-0.01 -0,0 -0,-0 -0,0l0 0c0,0.01 -0,0.02 -0.01,0.01 0,-0 0,-0 0,-0.01 0,0 -0,0.01 -0,0.01 -0,0.01 -0,0 0,0.01 -0,0 -0,0 -0,-0 -0,-0 -0,-0 -0,-0 -0,0 -0,0 -0,0.01l0 0c-0,0 -0,-0 -0.01,-0 0,0 0,0 0,0 -0,0 -0.01,-0 -0.01,-0.01l-0 0 -0 -0c0,-0 0,-0 0,-0 0,-0 0,-0.01 0,-0.01 -0,-0 -0,0 -0.01,0 0,-0 0,-0.01 0,-0.01l-0 0.01c-0,-0 -0,-0.01 -0,-0.01 -0,-0 -0,-0 -0,-0.01 -0,0 0,0.01 0,0.01l-0 -0c-0,-0 -0,-0 -0,-0 -0,-0 -0,-0.01 -0,-0.02 -0.01,-0 -0.01,-0 -0.02,0 -0.02,0.01 -0.02,0 -0.03,0.04 0.01,-0 0.01,0 0.01,0l-0 0 0 0c0,-0 -0,-0 0,-0 0,0 0,0 0,0l-0 -0 0 0 0 0c0,-0 0,-0 -0,-0 0,-0 0,-0 0,0 -0,-0.01 -0,-0.01 -0.01,-0.02 0,0 0,0 0,0 0,0 0,0 0,0 0,0 0,0 0,0l0 0 -0 -0.01c0,0 0,0.02 0.01,0.03 0,0.01 0,0.02 0,0.03 0,0.02 0,0.01 0,0.02 0,0 0,0 -0,0.01 -0,0 -0,0 -0,0.01l-0 0.01c-0,0.01 -0,0 -0,0.01 0,-0 -0,-0 0,-0 0,-0 0,-0 0,-0 -0,0 -0,0 -0,0.01 -0,0 -0,0 -0,0 -0,0.01 -0,0.01 -0.01,0.02 -0.01,0.04 0,0.07 0.01,0.1 0,0.01 -0,0.01 -0,0.01 -0,0 0,0.01 0,0.01 0,-0 0,-0 0,-0 -0,0 -0,0 -0,0.01 -0,0 -0,0 -0,0.01 0,0 -0,0.01 -0,0.02 -0,0.03 0,0.04 0,0.07 -0,0.01 0,0.01 0,0.01 -0,0 -0,0 -0,0.01 0,0 0,0.01 0,0.01 0,-0 0,-0 0,-0l0 -0c0,-0 0,-0 0,-0 -0,-0 -0,0 -0,-0 -0,-0 -0,-0 0,-0l0 -0c-0,0 -0,0 -0.01,0 0,-0 0.01,-0.01 0.01,-0.01 -0.01,-0 -0.01,0 -0.01,-0.01 0,-0 0.01,-0 0.01,-0.01 -0,0 -0,0 -0,0 0,-0.01 0,-0.01 0,-0.02l-0 0.01 -0 -0.02c-0,-0.02 -0,-0.02 -0,-0.04 0,-0.01 0,-0.01 0.01,-0.02 -0.01,0 0.01,-0.01 0.02,-0 -0,0 -0,0 -0,0 -0,0 -0,0 -0,0 -0,0 -0.01,-0 -0.01,0 -0,0 -0.01,0 -0.01,0 0.01,-0 0.01,-0 0.02,-0 -0,0 0,0 -0,0 -0,0 -0,0 -0,0 0,0 0.01,-0 0.01,0 0,0 0,0 0,0 -0,0 0,0 0,0.01 0,0.02 0,0.03 -0,0.05 -0,-0 -0,-0 -0,-0 0,0.02 0.01,0.02 0.01,0.03 -0,0 -0.01,-0.01 -0.01,-0 0,0 -0,0 0,0 0,0 0,0 0,0 -0,-0 -0,-0 -0.01,-0 0,0 0.01,0 0.01,0.01 -0,-0 -0.01,-0 -0.01,-0 0,-0 0.01,-0 0.01,0l-0 0c-0,0 -0,-0 -0,-0 0,0 0,-0 0.01,0 -0,0 0,0 -0,0 0.01,0 0,0 0.01,0.01 0,-0.01 0,-0.01 -0,-0.02 0,-0 -0,-0 0,-0 0,0 -0,0 0,0 0,-0.01 0,-0.01 0,-0.02 -0,-0.01 0,-0.03 0,-0.05 -0,-0.01 -0,-0.02 -0,-0.02 0,-0 0,-0 0,-0 0,-0 -0,-0 -0,-0.01 0,-0 0,-0.01 0,-0.01 0,-0.01 -0,-0.01 -0,-0.01 0,-0 0,-0.01 0,-0.01 0,-0.02 0.01,-0.04 0.01,-0.06 -0,0 -0.01,0 -0.01,0 -0,0 -0.01,-0 -0.01,-0 0.01,-0 0.01,-0 0.02,-0 0,-0 -0,-0 0,-0 0,-0 0,-0 0.01,-0 0,0 0,0 0,0l0 0 0 -0.05c-0,-0 -0,-0 -0,-0.01l-0 -0 0 0.01c-0,0 -0,-0 -0.01,-0 0,0 0,0 0.01,0 -0,0 -0.01,-0 -0.02,-0 0,0 0.01,0 0.01,0 0,0 0.01,0 0.01,0 -0,0.01 0,0.01 0,0.02 -0,0.01 -0,0.01 0,0.02 -0.01,-0 -0.01,-0 -0.01,-0 0,0 0,0.01 0.01,0.01l-0 0c0.01,0 -0.01,0.01 -0.01,0.01l0 0c0,0 0,0 0,0 0,0 0,-0 0,0 -0.01,0 -0.01,-0 -0.02,-0 -0.01,-0 -0.01,-0 -0.01,-0.01 0,0 0,0 0,0 0,0 0,0 0,0 0,0 0,0 0,0 -0,-0 -0,-0.03 0,-0.03 0,-0 0,-0 0.01,-0zm-0 0.03l0 -0c0,0 0,-0 0,-0 0,0 0,0 0,0 0,0 0,0 0,0l-0.01 -0.01 0 -0.02 -0 0c0,0.01 -0,0.01 -0,0.02 -0,0.01 -0,0.01 0,0.01zm-0 0l-0 -0 0 0zm-0 -0c0,-0 0,-0 -0,-0l0 0zm0.02 -0.08c0,-0 0,-0 0,-0 0.01,-0 0.03,-0 0.04,0 0,0 0,0 0.01,0 -0.02,-0 -0.03,-0 -0.05,-0z"/>
   <path class="fil1" d="M0.13 0.22c-0,-0 -0,-0 -0,-0 -0,-0 0,0 -0,-0l-0.01 -0c0,-0 0,-0 0,-0l0 -0c-0,-0 -0,-0 -0,-0.01l-0 -0c-0,-0 -0,-0 -0,-0 0,0 0,0 0,0 -0,-0 -0.01,-0 -0.01,-0 -0.01,-0 -0.02,-0 -0.03,-0 -0,0 -0,0 -0,0 -0,-0 -0,-0 -0,-0.01l-0 0 -0 0.01 0 0 0 0c0,0 -0,0 0,0.01l-0 0.05c0,0 0.01,0 0.01,0l-0.01 0c0.01,0 0.01,0 0.02,0 -0,0 -0.01,0 -0.01,0 -0,-0 -0.01,-0 -0.01,-0 0,0.03 0,0.03 0.01,0.06 0,0.02 0,0.03 0,0.03 0,0.01 0,0.01 0,0.01 0,0 -0,0 -0,0.01 0,0.01 0,0 0,0 0,0.01 -0,0.02 -0,0.02 -0,0.02 0,0.03 0,0.05 -0,0 -0,0.01 0,0.02 0,0 0,-0 0,0 -0,0 -0,0 -0,0l-0 0c-0,0 -0,0 -0,0 -0,0 -0,0.01 -0,0.01 0,-0.01 0.01,-0.01 0.01,-0.01 0,0 0.01,0 0.01,0 0,0 0,0 0,0.01 0,-0.01 0,-0.01 0,-0.02 -0,-0 -0,-0 0,-0 0,-0 0,-0.01 0,-0.01 -0,-0.01 0,-0.02 0,-0.03 0,-0.01 0,-0.02 0,-0.04 -0,-0.01 0,-0.01 -0,-0.02 -0,-0.01 -0,-0.01 -0,-0.01 0,-0.01 -0,-0 0,-0.02 0.01,-0.03 0.01,-0.06 0.01,-0.09 -0,-0.01 -0,-0.02 -0.01,-0.03zm-0 0.02c0,-0 -0,-0 -0,-0.01l-0 -0.01c-0,0 -0,-0 -0.01,-0 -0.01,-0 -0.01,-0 -0.02,-0l-0 0c-0,-0 0,-0 -0,-0 -0,0 0,0.01 0,0.02l0 -0c0,0 0,0.01 0,0.01l0 -0c-0,0 -0,-0 -0,0l0 0c0,-0 0,-0 0,0 0,0 0,0 0,0 0,0 0,0 0,0l0 0c0,0 0,0 0.01,0 0,0 0,-0 0,0 0,0 0,0 0,0 0,-0 0,-0 0,-0 0,-0 -0,0 0,-0 0,-0 0,-0 0,-0 -0,0 -0,0 -0.01,0 0,-0 0.01,-0 0.01,-0.01 0,-0 0,-0.01 0,-0.02zm-0.02 0.02l0 0c0,0 0,0 0,0 0,0 -0,-0 0,0 0,0 0,0 0,0 0,-0 0,-0 -0,-0l-0 -0c-0,-0 -0,-0 -0,0zm0.01 0l0 -0 0 0c-0,-0 -0,-0 -0,-0l0 0zm0 -0c-0,-0 0,-0 -0,-0 -0,0 -0,-0 0,0l0 0zm0 -0c-0,-0 -0,-0 -0,-0 -0,0 -0,-0 0,0l0 -0zm-0.01 -0l-0 0 -0 -0 -0 -0 -0 -0 -0 -0 -0 -0 -0 -0 -0 -0 -0 -0 -0 -0 -0 -0 -0 -0 -0 -0c-0,-0.01 -0,-0.02 -0,-0.02 0,-0 0.02,-0 0.02,-0 0,0 0,0 0,0 0,0 0.01,0 0.01,0 0,0 0,0.02 0,0.03l-0 0 -0 0 -0 0 -0 0 -0 0 -0 0c-0,0 -0,0 -0,0l-0.01 0 -0 0c-0,0 -0,0 -0,0l-0 0 -0 -0c-0,-0 -0,-0 -0,-0 0,0 -0,-0 -0,-0 -0,-0 -0,-0 -0,-0zm-0 -0l0 0c0,-0 0,-0 0,-0 -0,-0 0,-0 -0,0zm-0 -0c0,-0 0,-0 0,0l0 0c0,-0 0,-0 -0,-0 0,0 0,0 0,0l0 0zm-0 -0.01l0 0c0,-0 0,0 0,-0 0,-0 0,-0 0,-0 -0,0 -0,-0 -0,0z"/>
   <path class="fil2" d="M0.09 0.52l0 -0 -0 -0c-0,-0 0,-0 0,-0l-0 -0c0,-0 0,-0 0,-0 0,0 0,-0 0,-0l0 -0c0,0 0,0 0,-0 0,0 0,0 0,0 -0,-0 -0,-0.01 -0,-0.01 0,-0 0.01,-0 0.01,-0 -0,-0 -0,-0 -0,-0 -0,-0 -0,0 -0.01,-0 -0,0 -0,0 -0,0 0,-0 0,-0.01 0.01,-0.01 -0,-0 0,-0 -0,-0 -0,0 -0,0 -0,0 0,-0 0,-0.01 0.01,-0.01 -0,-0 -0,0 -0,-0 0.01,-0.01 0.01,-0 0.01,-0 0,0 0,0 0,0 -0,-0 -0,-0 -0,-0 -0,-0 -0,-0 -0.01,-0 0,0 0,-0 0.01,0l0 0c0,0.01 0,0.01 0,0.01 0,-0 0,-0 0,-0 0,0 0,-0 0,-0 0,-0 0,-0 0,-0 0,-0 0,0 0,-0 0,-0 -0,-0 -0,-0 0,0 0,0 0,0.01 -0,0 0,-0 -0,0 -0,0 0,0.01 -0,0.01 0,0 0,-0 0,0l0 0 -0 0.01 -0 -0c-0,-0 -0,0 -0,-0 -0,-0 -0,0 -0,-0 -0,-0 -0,-0 -0,-0l-0 -0c0,0.01 0,0.01 -0,0.01 -0,0 -0.01,0 -0.02,0 -0,-0 -0.01,-0 -0.01,-0.01 0,-0.01 0,-0.01 0.01,-0.01l-0 0c0,0 0,0 -0,0l-0 0c-0,0 -0,0 -0,0l0 -0zm0.07 -0.24l0 0c-0,0 -0,0.01 -0,0.01 -0,0.01 -0,0.01 -0.01,0.01 -0,0 -0,0 -0,0 -0,0 -0,0 -0.01,0 0,0 -0,0.01 -0,0.01 -0,0 -0,0.01 -0,0.01 -0,0 -0,0.01 -0,0.01 -0,0.02 0,0.02 -0,0.02 -0,0.01 -0,0 0,0.01 0,0 -0,0.01 0,0.01 0,0.01 0,0.02 0,0.02 0,0.02 -0,0.03 -0,0.04 0,0.01 0,0.01 -0,0.01 -0,0 -0,0 -0,0.01 -0,0.01 0,0.01 -0,0.01 -0,0 -0,0 -0,0 0,0 0,0.01 0,0.01 0,0.01 0,0 -0,0.01 0,0 -0,0.01 0,0.01 0,0 0,0 0,0.01 0,0.01 -0,0.02 -0.01,0.02l-0.01 0c-0.01,0 -0.01,-0.01 -0.01,-0.01 0,-0.01 0,-0.01 0,-0.02 0,-0 -0,-0.01 -0,-0.02 0,-0.01 0,-0 0,-0.01 -0,-0.01 0,-0.01 0,-0.01 0,-0 -0,-0.01 -0,-0.01 0,-0 0,-0.01 0,-0.01l0 -0.01c0,-0.01 -0,-0.02 -0,-0.03 0,-0.01 0,-0.02 0,-0.03 0,-0 -0,-0 -0,-0.01 0,-0 0,-0 -0,-0.01 -0,-0.01 -0,-0.01 -0,-0.02 -0,-0.02 -0.01,-0.05 -0.01,-0.07 -0,0 -0,0.01 -0,0.01 -0,0 -0,0.01 -0,0.01l-0 0.03c-0,0.02 -0,0.03 -0,0.03 -0,0.01 -0,0 -0,0.01 0,0.01 -0,0.01 -0,0.01 0,0.01 0,0.02 0,0.03 0,0.01 -0,0.02 -0,0.03 0,0 0,0.01 0,0.01 0,0.01 -0,0.01 -0,0.01 0,0 0,0 0,0.01 -0,0.01 -0,0 -0,0.01 0,0.01 -0,0.01 -0,0.02 0,0.01 0.01,0.02 0,0.03 -0,0 -0,0 -0.01,0l-0.01 0c-0,-0 -0.01,-0 -0.01,-0.01 -0.01,-0.01 -0,-0.02 -0,-0.03 0,-0.01 -0,-0.01 0,-0.02 -0.01,-0 -0,-0.01 -0,-0.01 0,-0 0,-0 -0,-0.01 -0,-0 -0,-0 -0,-0.01 -0,-0 0,-0.01 0,-0.01 0,-0.01 -0,-0.01 -0,-0.02 -0,-0.01 -0,-0.03 -0,-0.05 0,-0 -0,-0.01 -0,-0.01 0,-0 0,-0 0,-0.01 -0,-0.01 -0,-0.01 -0,-0.01 0,-0.01 -0.01,-0.03 -0.01,-0.04 -0,0 -0,0 -0.01,-0 -0,-0 -0,-0 -0,-0 -0.01,-0.01 -0.01,-0.02 -0.01,-0.03l0 -0c0,-0.01 0,-0.01 0,-0.02 0,-0.01 -0,-0 0,-0.01l0 -0.03c-0,-0.01 0,-0.03 0,-0.04 0,-0.01 0,-0.02 0,-0.02l0 -0.02c0,-0 -0,-0 -0,-0.01l0 -0.02c0,-0.01 0,-0.01 0.01,-0.02 0.01,-0.01 0.02,-0.01 0.03,-0.01 0,-0 0.01,-0 0.01,-0.01 0,-0.01 -0,-0.01 -0,-0.02 -0.01,-0 -0.01,-0.01 -0.01,-0.01 -0,-0 -0,-0 -0,-0 0,-0 0,-0 0,-0 0,-0 0,-0 0,-0.01 0,-0.02 0.01,-0.03 0.02,-0.03l0.01 -0c0,0 0.01,0 0.01,0 0.01,0 0.01,0.01 0.01,0.02 0,0.01 0,0.01 0,0.01 -0,0.01 0,0 0,0.01 0,0 -0,0.02 -0.01,0.02 -0,0 -0,0.01 -0,0.01 -0,0 -0.01,0.01 0,0.01l0.02 0.01c0.01,0 0.02,0 0.02,0.01 0.01,0.01 0.01,0.02 0.01,0.03 0,0.01 -0,0.01 -0,0.01 0,0.02 -0,0.03 0,0.05 0.01,0.02 0,0.04 0,0.06 0,0.01 -0,0.01 -0,0.01 0,0.01 0,0.01 0,0.01zm-0.06 0.24l0 0 0 0 0 -0.01c-0,-0 -0,-0 -0,0zm0.02 -0l-0 -0 -0 -0.01c0,-0 0,-0 -0,-0 -0,-0 -0,-0 -0,-0 -0,-0 -0,-0 -0,-0 0.01,0.01 0,0.02 0.01,0.03 -0,-0 -0,-0 -0,-0.01 -0,-0 -0,-0 -0,-0l0 -0zm-0 0.01l0 -0c-0,0 -0,-0 -0,0 -0,0 -0,0 0,0zm-0.01 -0.03l0 -0c0,-0 -0,-0 -0.01,-0 0,-0 0,-0 0,-0 0,0 0,0 0,0zm0 0c0,-0 0,-0 0,-0 -0,0 0,-0 -0,0l0 0zm0 0c-0,0 -0,0 0,0l0 0c-0,-0 -0,-0 -0,-0 -0,-0 -0,-0 -0,-0 -0,0 -0,0 -0,0l0 -0zm0 0c0,0 0,-0 0,0 0,0 0,0 0,-0 -0,-0 0,-0 -0,0l0 -0zm-0.01 0l-0 0 0 -0zm-0.04 0.02c-0,-0 -0,-0 -0,0 -0,0.01 0.01,0.01 0,0.02 -0.01,0.01 -0.03,0.01 -0.02,-0.01 0,-0.01 0,-0.01 0,-0.01 0,-0.01 -0,-0.01 0,-0.02 0,-0 0.01,-0 0.02,-0 0.01,0.01 -0,0.01 0,0.02l0 0.01c-0,-0 -0.01,-0.01 -0,-0.01zm-0.03 0.02c-0,-0.01 0,-0.01 0,-0.01 0,-0.01 0,-0 0,-0 0,0.01 -0,0.01 -0,0.02zm0.01 -0.04l0 0c-0,-0 0,-0 -0,-0l0 0zm0.01 0l0 0 0 0 0 0c-0,-0 -0.01,-0 -0.02,-0 -0.01,0 -0.01,0.01 -0.01,0.01 -0,-0 -0,-0.01 0,-0.01 0,-0 0,-0.01 0.01,-0.01 -0,-0 0,-0 -0,0 -0,0 -0,0 -0,0l-0 -0c-0,-0.01 0.01,-0.01 0.02,-0.01 0,0 0,0 0,0.01zm-0 -0l0 0 0 0c0,-0 0,-0 -0,-0 -0,-0 -0,-0 -0,0zm-0 -0l0 -0c0,0 0,-0 -0,-0 -0,0 -0,-0 -0,0zm-0.04 -0.2l0 0c0,0.01 0,0 0,0.01 -0,-0 -0,-0.01 -0,-0.01zm0.12 0.01l0 -0c0,-0 0,0 0,-0 0,-0 0,-0 0,-0l0 -0c-0,0 -0,0.01 -0,0.01zm0 -0.01c0,-0 0,-0 0,0 0,0 -0,0 -0,0zm-0.02 -0.15c0,-0 -0,-0 0,-0l-0 -0c0,-0.01 0.01,-0.01 0.01,-0.02 -0,0 -0,0.01 -0,0.01 0,-0 0,-0.01 0,-0.01 0,-0 0,-0.01 0,-0.01 0.01,0 0.01,0.03 0.01,0.04 -0.01,-0 -0.01,0 -0.02,0 -0,0 -0.01,0 -0,0l0 0c0,-0 -0,-0 0,-0l0 -0 0 -0c0,-0 0.01,-0 0.01,-0 0,0.02 -0,0.03 0,0.05 0,0 0,0.01 0,0.01 0,0 0,0 0,0l0 0.01c0,0 0,0 0,0.01 0,0 0,0.01 0,0.01 0,0.02 0,0.02 0,0.04 0,0 -0,0.01 -0,0.01 0,0.03 -0,0.01 -0,0.03 -0,0.01 -0,0.01 -0.01,0.01 -0,0 -0,0 -0,0 0,0 0,0 -0,0 -0,-0 -0,-0 -0,-0l0 -0c0,-0 0,-0 0,-0l0 -0.01c-0,0 -0,0 -0,0 -0,-0 0,-0.01 0,-0.01 0,-0.01 0,-0.01 0,-0.01 0,-0 -0,-0 0,-0l-0 -0c-0,-0 -0,-0.01 -0,-0.01l0 0.01c-0,0 0,0 -0,0 0,0 -0,0.01 -0,0.01 -0,-0 0,-0.02 0,-0.02 -0,-0.02 0,-0.01 0,-0.02 -0,-0.03 -0.01,-0.03 -0.02,-0.08 -0,-0.01 -0,-0.02 -0,-0.03 0,-0 0,-0.01 0,-0.01zm0.02 0.16c0,-0 0,-0 0,-0 0,-0 0,-0 -0,-0 0,0 0,0 -0,0 -0,0 -0,0 -0,0l0 -0zm0 -0.01c-0,0 0,0 -0,0 0,0 -0,0 0,-0 0,-0 0,-0 0,-0zm0 -0l0 -0 0 0c0,-0 0,-0 -0,-0zm0 -0.01l-0 0c0,0 -0,0 0,-0 0,-0 0,-0 0,-0 0,-0 0,-0 -0,-0zm0 -0c0,0 0,0 -0,0l0 -0c0,0 -0,0 0,0 0,-0 0,-0 -0,-0zm0 -0l0 -0c0,0 -0,0 -0,0zm-0.02 -0.07c0,0 0.01,0.03 0.01,0.04 0,0 -0,0 -0,0.01l-0 -0.02c-0,-0.01 -0,-0.02 -0,-0.02zm-0.11 0.04c-0,-0 -0,0 -0,-0 0,-0.02 0.01,-0.05 0.01,-0.07 -0,-0.01 0,-0.02 0,-0.02l0 0.01c0,0.02 -0,0.01 -0,0.02 0,0 0,0 0,0 -0,0 -0,0 -0,0 -0,0 0,0 -0,0.01l-0 0.01c-0,0 0,0 -0,0.01 -0,0 -0,0 -0,0 -0,0.01 -0.01,0.02 -0.01,0.03zm0.1 -0.08c0,-0.01 0,-0.01 0,-0.02l0.01 0.04c0,0 0,0.01 0,0.01l-0 -0.01c-0,-0 -0,-0 -0,-0 -0,-0.01 -0,-0 -0,-0.01 -0,-0 -0,-0 -0,-0 -0,-0 0,-0 0,-0 -0,-0 -0,-0 -0,-0zm-0.09 -0.04c0,-0 0,-0 0,0l0 0c0,0.02 -0,0.02 -0,0.04 -0,0.04 -0.01,0.05 -0.01,0.07 -0,0.01 0,-0 0,0.02 -0,0.01 0,0.02 0,0.02 -0,-0 -0,-0 -0,-0.01l-0 0c-0,0 0,0 -0,0 -0,-0 -0,-0 -0,-0 -0,-0 0,-0 -0,-0 0,0.01 0.01,0.02 0.01,0.02l-0 0c0,0 0,-0 0,0l0 0c-0,0 -0,0 -0,0 -0,0 -0,0 -0,0l-0 -0 -0 -0 -0.01 -0.01 -0 -0.01c-0,-0.01 -0,-0 -0,-0.01 0,-0.01 0,-0.01 0,-0.02 0,-0.01 -0,-0 0,-0.02 0,-0.01 0,-0.01 0,-0.02 0,-0.01 0,-0.02 0,-0.03 0,-0.01 0,-0.02 0.01,-0.03l0 -0.04c0,0 0.01,0 0.01,0l0 -0c-0.01,-0 -0.01,-0 -0.01,-0 0.01,-0.04 0.01,-0.04 0.03,-0.04 0.01,-0 0.01,-0.01 0.02,-0 0,0 -0,0.01 0,0.02 0,0 0,0 0,0l0 0c-0,-0 -0,-0.01 -0,-0.01 0,0 0,0 0,0.01 0,0 0,0.01 0,0.01l0 -0.01c0,0 0,0.01 -0,0.01 0.01,0 0,-0 0.01,-0 0,0 0,0.01 -0,0.01 -0,0 -0,0 -0,0l0 0 0 -0c-0,0 0,0.01 0.01,0.01 -0,-0 -0,-0 -0,-0 0,0 0,0 0.01,0l-0 -0c-0,-0 -0,-0 0,-0.01 0,0 0,0 0,0 0,0 0,0 0,0 -0,-0 -0,-0 -0,-0.01 0,-0 0,-0.01 0,-0.01 0,0 -0,0 -0,0.01 0,0 0.01,-0 0.01,-0.01l-0 -0c0,-0 -0,-0 0,-0 0,0 0,0 0,0.01l0 0c0,-0.01 -0,-0.01 0,-0.02 0.01,-0 0.01,-0 0.02,0 0.01,0 0.01,0 0.02,0.01 0,0.01 -0,0.02 -0,0.02 -0,0 -0,0 -0,0.01 -0,0 -0,-0 -0,0 -0,0.02 -0.01,0.03 -0.01,0.05 -0,0.01 0,0 0,0.01 -0,-0 -0,-0 -0,-0 0,0 0,0 0,0.01 0,0 0,0 0,0.01 0,0 0,0.01 0,0.01 -0,-0 -0.01,-0.01 -0.02,-0.01 -0.01,-0 -0,-0 -0,0 0,0 0.01,0 0.01,0 0,0 0,0 0.01,0 0.01,0 0,0 0.01,0 0,0 0,0 0,0l0 0.01c0,0.01 0,0.02 0.01,0.03 0,0.03 -0,0.06 -0.01,0.09 -0,0.02 0,0.01 -0,0.02 -0,0 -0,0 0,0.01 0,0 0,0.01 0,0.02 0,0.01 0,0.02 -0,0.04 -0,0.01 -0,0.02 -0,0.03 0,0.01 -0,0.01 -0,0.01 -0,0 -0,-0 -0,0 0,0 0,0 -0,0.02 -0,-0 -0,-0 -0,-0.01 -0,-0 -0,-0 -0.01,-0 -0.01,-0 -0.01,0 -0.01,0.01 -0,-0 -0,-0.01 0,-0.01 0,-0 0,-0 0,-0l0 -0c0,-0 0,-0 0,-0 -0,-0 -0,0 -0,-0 -0,-0 -0,-0.01 -0,-0.02 0,-0.02 -0,-0.03 -0,-0.05 0,-0.01 0,-0.02 0,-0.02 -0,0 -0,0.01 -0,-0 -0,-0 0,-0 0,-0.01 -0,-0 -0,-0 -0,-0.01 -0,-0 0,-0.01 -0,-0.03 -0,-0.02 -0.01,-0.03 -0.01,-0.06 0,0 0.01,0 0.01,0 0,0 0.01,-0 0.01,-0 -0.01,-0 -0.01,-0 -0.02,-0l0.01 -0c-0,-0 -0.01,0 -0.01,-0l-0 -0c-0,-0 -0,-0 -0,-0 -0,0 -0,0 -0.01,0 -0,0 0,-0 0,0 -0.01,0 -0.01,0 -0.02,0 0,-0 0.01,0 0.01,0 0,-0 0.01,-0 0.01,-0 0,0.02 -0,0.04 -0.01,0.06 -0,0 -0,0.01 -0,0.01 -0,0.01 0,0.01 0,0.01 -0,0.01 -0,0.01 -0,0.01 -0,0 0,0 0,0.01 -0,0 -0,0 -0,0 -0,0.01 0,0.01 0,0.02 0,0.02 -0,0.03 -0,0.05 0,0.01 0,0.01 -0,0.02 -0,0 0,-0 -0,-0 -0,-0 0,-0 -0,0 0,0.01 0,0.01 0,0.02 -0,-0.01 -0,-0.01 -0.01,-0.01 -0.01,-0 -0.01,0 -0.01,0 -0,0 -0,0 -0,0l-0 0c-0,0 -0,0 -0,0 -0,-0 -0,-0.01 -0,-0.01 -0,-0 0,-0 0,-0.01 0,-0 -0,-0.01 -0,-0.01 0,-0.03 -0.01,-0.04 -0,-0.07 0,-0.01 0,-0.01 0,-0.02 -0,-0 -0,-0 0,-0.01 0,-0 0,-0 0,-0.01 -0,0 -0,0 -0,0 -0,-0 -0,-0.01 -0,-0.01 0,-0 0,-0 0,-0.01 -0.01,-0.03 -0.01,-0.07 -0.01,-0.1 0,-0.01 0,-0.01 0.01,-0.02 0,-0 0,-0 0,-0 0,-0 0,-0 0,-0.01 -0,0 -0,-0 -0,0 -0,0 -0,0 -0,0 -0,-0 -0,0 0,-0.01l0 -0.01c0,-0 -0,-0 0,-0.01 0,-0 0,-0 0,-0.01 -0,-0.01 0,0 -0,-0.02 -0,-0.01 -0,-0.02 -0,-0.03 -0,-0 -0,-0.02 -0.01,-0.03l0 0.01 -0 -0c-0,-0 -0,-0 -0,-0 -0,-0 -0,-0 -0,-0 -0,-0 -0,-0 -0,-0 0,0.01 0,0.01 0.01,0.02 -0,-0 -0,-0 -0,-0zm0.03 0.07c0,-0 0.02,-0 0.02,0 0,0 -0,0 0,0l0 0 0 -0 -0 -0 0 -0.01 0 -0c0,-0 0.01,-0 0.01,0l0.01 0c0,0 0,0 0,-0 -0.02,-0 -0.05,-0 -0.07,0l-0.01 0c-0,0 -0,0 -0,0 -0,0 -0,0 -0,0 -0,0 -0,0 -0,0 -0,0 -0,0 -0,0 0,0 0,0 0,-0 0.01,-0 0.03,-0.01 0.04,-0.01l0 0 -0.02 0zm-0.03 -0.07l0 0c-0,-0 0,-0 -0,-0 -0,-0 -0,-0 -0,0l0 -0zm-0.01 0.17l-0 -0 0 0c0,-0 0,-0 0,-0 -0,-0 -0,-0 -0,-0zm-0 -0c0,0 0,0 0,-0 -0,-0 -0,-0 -0.01,-0.01 -0,-0 -0,-0.01 -0,-0.01 0,0.01 0.01,0.01 0.01,0.02zm-0 -0.02l0 0c0,-0 0,-0 0,-0.01 0,-0 0,-0 0,-0.01 -0,0 -0,0.01 -0,0.01zm0.05 -0.2c0,-0 -0,-0 0,-0l-0 0 -0 -0 -0 -0 0.01 -0 0 0zm0.03 -0.02c0,-0 0,-0 0,-0 0,-0 0,-0 0,-0.01 0,0 -0,0.02 -0,0.01 -0,0.01 -0,0.01 0.01,0.01 -0,0 -0,0 -0.01,0 -0,-0 -0,-0.01 -0,-0.01 -0,-0 -0,-0.01 -0,-0.01zm0.01 -0.01c-0,-0 -0,-0 0,-0.01 0,-0.01 0,-0.01 0,-0.01 0,0 -0,0.02 -0.01,0.02zm-0.04 -0c0,0 0,0 0,0 0,0 0,0.01 0.01,0.01 -0,0 -0,0.01 -0,0.01l-0 -0c-0,-0 -0,-0 0,-0 -0,0 -0,0 -0,0 -0,0 -0,0 -0,0 -0,0 -0,0 -0,0 -0,-0 -0,0 -0,0l-0 -0.01 -0 -0 -0 -0c-0,0 -0,0 -0,0 -0,-0 -0,-0 -0,-0 -0,-0 -0,-0.01 -0,-0.01 0,0 0,0.01 0.01,0.01zm0.02 -0.01c0,-0.01 0.01,-0 0.01,-0 -0,0 0,-0 -0,-0 -0,-0 -0,0 -0.01,0z"/>
   <path class="fil1" d="M0.03 0.36c-0,-0 -0,-0 0.01,-0.01 0.01,-0 0.03,-0 0.03,0.01 -0.01,0 -0.01,-0 -0.02,-0 -0.01,-0 -0.01,0 -0.02,0zm-0.01 -0.09c-0,0.01 -0,0 0.01,0.01 0,0 0.01,0 0.01,0 -0.02,0 -0.02,-0 -0.03,-0 -0,0.01 -0,0.03 0,0.04 0,0.01 0,0.01 0,0.02 0,0 0,0.01 0,0.02 0,-0 0,0 0,-0 0,0 0,0 0,0.01 -0,0 -0.01,0 -0.01,0.01 -0.01,0.01 0.01,0 0.02,0 0,0 0.01,0 0.01,0 0,0 0.01,0 0.01,-0 0,-0.01 -0,-0.01 -0.01,-0.01 0,-0 0.01,-0 0.01,-0.01 0,-0 0,-0.01 0,-0.02 -0,-0 0,-0 -0,-0 -0,-0 -0,0 -0,0 0,-0.01 0,-0.01 0,-0.02 0,-0.01 0,-0.01 0,-0.02l-0 0c0,-0 0,-0 0,-0.01 -0.01,0 -0.01,0 -0.03,0 0,0 0.02,-0 0.02,-0 0,-0 0,-0 0,-0 -0.01,-0 -0.01,-0 -0.02,-0l-0.02 -0z"/>
   <path class="fil1" d="M0.04 0.48c0.01,-0 0.01,-0 0.01,-0 0,-0 0,0 0,-0 -0.01,-0 -0,-0 -0.01,-0 0,0 0,0 0,0l0 -0c-0,-0 -0.01,-0 -0.01,-0 0,-0 0.01,-0 0.01,0 -0,-0 -0,-0 -0.01,-0.01 0,-0 0,0 0.01,0 -0,-0 -0,-0 -0,-0 -0,-0 -0,-0 -0,-0 0,-0 0.01,0 0.01,0 -0,-0.01 -0.01,-0.01 -0.01,-0.03 0,0 0,0 0,0 0,-0.01 0,-0.03 0,-0.05 -0,-0.01 -0,-0 -0,-0.01 0,-0 0,-0 -0,-0 -0,-0 -0,-0 -0.01,-0 0,-0 0,-0 0,-0 0,-0 0,-0 0,-0 -0.01,-0 -0.01,-0 -0.02,0 0,-0 0,-0 0.01,-0 0,-0 0.01,0 0.01,-0 0,-0 0,0 0,-0 0,-0 0,-0 0,-0 -0.01,-0.01 -0.03,0 -0.02,0 -0,0 -0.01,0.01 -0.01,0.02 -0,0.02 -0,0.02 0,0.04l0 0.02 0 -0.01c-0,0.01 -0,0.01 -0,0.02 0,-0 0,-0 0,-0 -0,0 -0.01,0 -0.01,0.01 0,0.01 0.01,0 0.01,0.01 -0,0 -0.01,0 -0.01,0.01 0,-0 0,-0 0.01,-0l-0 0c-0,0 -0,0 -0,0 0,0 0,0 0,0zm0.01 -0.02c-0.01,0 -0.01,0 -0.01,-0 0,-0 0.01,-0 0.02,-0 -0,0 -0,0 -0,0z"/>
   <path class="fil1" d="M0.03 0.26l-0 -0 -0 -0 -0 -0 -0 -0c-0,-0 -0,-0 -0,-0 -0,-0 -0,-0 -0,-0 -0,-0 -0,-0 -0,-0 -0,0.01 0,0.01 0.01,0.01 0.01,0 0.01,0 0.02,0 0,-0 0,0 -0,-0 0,0 -0,-0 -0,-0l-0 -0c0.01,-0 0.02,-0 0.01,-0.01l0 -0c-0,-0 -0,-0.01 -0.01,-0.01 0,0 0,0 0.01,0 -0,-0.01 -0,-0.01 -0,-0.02 0,-0.01 -0,-0.01 -0,-0.02 -0,-0 -0.01,-0 -0.01,-0 -0,-0 -0.01,-0 -0.01,-0 0.01,-0 0.02,0 0.02,0 -0,-0 -0.01,-0 -0.01,-0 0,-0 0,0 0.01,0l-0 -0.01c-0,-0 -0,-0 -0,-0 -0,-0 -0.01,-0 -0.02,-0 -0,0 -0.02,0 -0.02,0.01 0,0 0,0 0,0 0,0 0.01,-0 0.02,-0 0,0 0.01,0 0.01,0 -0,0 -0.01,-0 -0.01,-0 -0,0 -0.01,-0 -0.01,-0 -0,0 -0,0 -0,0l-0 0c0,-0 0.01,-0 0.02,-0 -0.01,-0 -0.02,-0 -0.02,0 0,0 0,0 0,0 -0,0 -0,0 -0.01,0 0,0 -0,0 0,0 0.01,-0 0.03,-0 0.03,-0 0,0 -0,0.01 -0,0.01 -0,0 -0,0 -0,0 -0,0 -0,0 -0,0l0 -0.01c-0,-0 -0,0 -0,0 -0,-0 0,-0 -0.02,-0l-0.01 0c-0,0 -0,0 -0,0 -0,0 -0,0 -0,0l-0 0c0,0 -0,0 0,0l-0 0 -0 0.02 0.01 0.01c-0,-0 -0,-0 -0,-0 -0,-0 -0,-0 -0,-0 -0,0 -0,0 -0,0l-0 0c0.01,0 0.01,0.01 0.02,-0 0,-0 0,-0 0,-0 -0,0 -0,-0 -0,0 -0,0 -0,0 -0,0l-0 0c-0,0 -0,0 -0,0 -0,0 -0.01,-0 -0.01,-0 0.01,0 0,0 0.01,0 0,-0 0.01,-0 0.01,-0.01 -0,0 -0,0 -0,0 0.01,-0 0,-0.01 0.01,-0.02l0 -0c-0,0 -0,0.01 -0,0.01 -0,0.01 -0,0.01 -0.01,0.01 -0.01,0.01 -0.01,0 -0.02,-0z"/>
   <path class="fil3" d="M0.02 0.31l0 0c0,0 0,0 0,0l-0 -0c-0,-0 -0,-0 -0,-0l-0 -0zm0 -0c-0,-0 0,-0 -0,-0l-0 -0c-0,-0 -0,-0 -0,-0l0 0c-0,0 -0,0 -0,-0 -0,-0 -0.01,-0.01 -0.01,-0.02 0,0 0,0.01 0,0.01 0,0 0,0.01 0.01,0.01 0,0 0,0 0,0 0,0 -0,0 0,0l0 0c-0,-0.01 -0.01,-0.01 -0.01,-0.02 -0,0 -0,0 -0,-0l0 -0c0,-0.01 0.01,-0.02 -0,-0.02 0,-0 0,-0 0,-0 0,-0.01 0.01,-0.05 0.01,-0.06 0,-0.01 0,-0.01 0,-0.02 0,-0.01 0,-0.03 -0,-0.03 -0,-0 -0.01,-0.01 -0.01,-0.01 -0,0 -0,0 -0,0.02 0,0 0,0.02 -0,0.02 -0,0.01 -0,0.02 -0.01,0.03 -0,0.01 -0,0.02 -0,0.03 -0,0.01 -0,0.01 -0,0.02 -0,0.01 -0,0 -0,0.02 0,0.01 -0,0.01 -0,0.02 -0,0.01 0,0.01 0,0.01 0,0 0,0 0.01,0.01l0.01 0.01c0,0 0,0 0,0 0,0 0,0 0,0l0 -0z"/>
   <path class="fil3" d="M0.14 0.28c0,0 0,-0 0,0 0,0 0,0 -0,0 -0,0.01 -0,0.01 -0,0.01 -0,0 -0.01,0.01 -0,0.01 0,-0 0,-0 0,-0l0 -0 0 -0 -0 0c-0,-0 0,-0 0,-0 -0,-0 -0,-0 0,-0 -0,-0 -0,-0 0,-0 0,-0 0,-0 0,-0 -0,-0 -0,-0 0,-0l-0 0c-0,-0 -0,-0 0,-0l0 -0c-0,-0 -0,-0 0,-0l-0 0c-0,-0 -0,-0 0,-0 -0,-0 -0,-0 0,-0l-0 0c0,-0.01 0,-0.01 0,-0.02 -0,-0 0,-0 0,-0.01 0,-0 -0,-0 -0,-0.01 -0,-0.01 -0,-0.04 -0,-0.05 -0,-0.01 -0.01,-0.01 -0,-0.02 -0,0 0,0.01 0,0.01 0,0 0,0.01 0,0.01l-0 -0c0,-0 -0,-0.01 -0,-0.01 -0,-0 -0,0 -0,-0l-0 -0.01c-0,-0 0,-0.03 -0,-0.03 -0,-0 -0.01,-0 -0.01,0 -0,0 -0,0.01 -0,0.02 0,0.01 0,0.01 0,0.02 0,0.01 0,0.01 -0,0.01 -0,0 0,0 0,0.01 0,0.01 0.01,0.04 0.01,0.06l0 0c-0.01,0.01 -0,0.02 -0,0.02z"/>
   <path class="fil4" d="M0.11 0.5c-0,-0 -0,-0 -0.01,-0l-0 0c-0,-0 -0,-0 -0,-0 -0,-0 -0,0 -0,0 0,0 0,0 0.01,0 0,0 0,0 0,0 -0,0 -0.01,-0 -0.01,0 -0,0 -0,0.01 0,0.01 -0,0 -0,0 -0,0 -0,0 -0,0 -0,0l-0 0c-0,0 -0,0 -0,0 -0,-0 -0,0 -0,0l0 0c-0,0 -0,-0 -0,0 0,-0 0,-0 0,-0 0,-0 0,-0 0,-0 0,0 0,-0 0,0 0,-0 0,-0 0,-0l-0 0.01 -0 -0 -0 0 -0 -0 0 0c-0,-0 -0,-0 -0,0l0 -0c0,0 0,0 0,-0l0 -0c-0,0.01 -0.01,0.01 -0.01,0.01 -0,0.01 0,0.01 0.01,0.01 0.01,0 0.01,0 0.02,-0 0,-0 0,-0.01 0,-0.01l0 0c0,0 0,0 0,0 -0,0 -0,0 0,0 -0,0 -0,0 0,0 -0,-0 0,-0 -0,-0 0,-0 0,-0 -0,-0 -0,-0 -0,-0 -0,-0.01 -0,-0 -0,0 -0,-0 0,-0 0,-0 0,-0l-0 -0.01 -0 0c-0,0 0,0 0,0 0,0 0,0 0,0.01 -0.01,-0.01 0,-0.02 -0.01,-0.03 0,0 0,0 0,0zm-0.02 0.02c0,0 0,0 0,-0l-0 0z"/>
   <path class="fil4" d="M0.06 0.51l-0 0c-0,-0.01 0.01,-0.01 -0,-0.02 -0,-0 -0.01,-0 -0.02,0 -0,0 -0,0.01 -0,0.02 -0,0.01 -0,0.01 -0,0.01 -0,0.02 0.02,0.01 0.02,0.01 0.01,-0.01 -0,-0.02 -0,-0.02 0,-0 -0,-0 0,-0z"/>
   <path class="fil5" d="M0.14 0.28l0 0c-0,-0 -0,-0 -0,0 0,0 0,0 0,-0 0,-0 -0,-0 -0,-0 -0,-0.01 -0.01,-0.02 0,-0.02l-0 -0c-0,-0.02 -0.01,-0.05 -0.01,-0.06 -0,-0 -0,-0.01 -0,-0.01 0,-0 0,-0 0,-0.01 -0,-0.01 -0,-0.01 -0,-0.02 -0,-0.01 0,-0.01 0,-0.02 0,-0.01 0.01,-0.01 0.01,-0 0,0.01 -0,0.03 0,0.03l0 0.01c0,0 0,0 0,0 -0,-0.02 -0,-0.03 -0,-0.05 -0.01,-0 -0.01,0 -0.01,0l-0 0 -0 0 -0 0 -0 -0 -0 0 -0 0c-0,0 -0,0 -0,0.01 -0,0.01 0,0.02 0,0.03 0,0.04 0.01,0.05 0.02,0.08 0,0.01 -0,0 -0,0.02 0,0 -0,0.02 -0,0.02 0,-0 0,-0.01 0,-0.01 0,0 0,0 0,0l-0 -0.01c0,0 0,0.01 0,0.01zm0.01 0c0,0 0,0 0,-0 -0,0 -0,-0 -0,0 -0,-0 -0,-0 -0,0 0,0 0,0 0,-0 0,0 0,0 0,0 -0,0 -0,0 -0,-0 -0,0 -0,-0 -0,0 0,0 0,-0 0,0 0,0 -0,0 -0,0 -0,0 -0,0 -0,0 -0,0 -0,-0 -0,0 0,0 0,-0 0,0l0 -0c-0,0 -0,-0 -0,0 0,0 0,-0 -0,0 -0,0 -0,0 -0,0 -0,0 -0,-0 -0,0 -0,-0 -0,-0 -0,0 0,0 0,0 0,-0 0,0 0,0 0,0 -0,0 0,-0 -0,0l-0 0 -0 0 -0 0.01c-0,-0 -0,0 -0,0l-0 0c0,-0 0,-0 0,-0 0,-0 0.01,-0.01 0.01,-0.01 0,-0 0,-0 0,-0.01 0,-0.01 0,0 0,-0.03 -0,-0 0,-0.01 0,-0.01 -0,-0.02 -0,-0.02 -0,-0.04 -0,-0 -0,-0.01 -0,-0.01 -0,-0 -0,-0 -0,-0.01l-0 -0.01c-0,-0 -0,-0 -0,-0l0 0c-0,-0 -0,-0.01 -0,-0.01 -0,-0 -0,-0.01 -0,-0.01 -0,0.01 0,0.02 0,0.02 0,0.01 0,0.04 0,0.05 0,0 0,0 0,0.01 -0,0 -0,0 -0,0.01 0,0.01 0,0.01 -0,0.02z"/>
   <path class="fil5" d="M0.01 0.28c-0,0 -0,0 0,0 0,-0 0,-0 0,0 0,0 0,0 0,0 0,-0 0,0 0,-0 0,-0.01 -0,-0 0,-0 0,0 0,0 0,0 0,0 0,0.01 0,0.01 0,-0.01 -0,-0.02 -0,-0.02 0,-0.02 -0,-0.01 -0,-0.02 0,-0.02 0.01,-0.03 0.01,-0.07 0,-0.02 0,-0.01 0,-0.04l-0 -0 -0 -0 -0 -0 -0 0 -0 -0c-0,-0 -0.01,-0 -0.01,-0l-0 0.04c0,-0 0,-0.01 0,-0.02 0,-0.01 -0,-0.02 0,-0.02 0,-0 0.01,0 0.01,0.01 0,0.01 0,0.02 0,0.03 -0,0.01 -0,0.01 -0,0.02 -0,0.02 -0.01,0.05 -0.01,0.06 -0,0 -0,0 -0,0 0.01,0 0,0.02 0,0.02 0,-0 0,-0.01 0,-0.01 -0,0 -0,0 -0,0.01 -0,0 -0,0.01 -0,0.01z"/>
   <path class="fil0" d="M0.13 0.13c-0,-0 -0,-0 -0,0l0 -0 0 -0c-0,-0 0,-0 0,-0 0,-0 0.01,-0 0.02,-0 -0,-0.01 -0,-0.03 -0.01,-0.04 -0,0 -0,0.01 -0,0.01 -0,0 -0,0.01 -0,0.01 0,-0 0,-0.01 0,-0.01 -0,0.01 -0.01,0.01 -0.01,0.02l0 0zm0 -0c-0,0 -0,-0 -0,0l0 -0 0 -0 0 -0 -0 0 -0 0z"/>
   <path class="fil4" d="M0.11 0.49c0,0 0,0 0,0 0,-0 -0,-0 0,-0 0,0 -0,0 -0,0 0,-0 0,-0 -0,-0 0,0 -0,0 0,0 0,0.01 0,0.01 0,0.01 -0,-0 -0,-0 -0,-0 -0,-0 -0,-0 -0,-0l0 0.01c0,0 0,-0 0,0 0,0 0,0 0,0 0,0 0,0 0,0 -0,0 -0,0 0,0 -0,0 -0,0 0,0l-0 -0c0,-0 0,-0 -0,-0 0,-0 -0,-0.01 0,-0.01 0,-0 -0,0 0,-0 0,-0 -0,-0.01 -0,-0.01 0,0 0,0 0,0 -0,0 0,0 -0,0 -0,0 -0,0 -0,0 -0,0 -0,0 -0,0 -0,-0 -0,0 -0,0 -0,-0 -0,-0.01 -0,-0.01l-0 -0c-0.01,-0.01 -0.01,-0 -0.01,-0 0,-0 0.01,-0 0.01,0 0,0 0,0 0,0 -0,-0 -0,-0 -0,-0 -0,-0 -0.01,-0.01 -0.01,0 0,0 0,-0 0,0 -0,0 -0.01,0 -0.01,0.01 0,-0 0,-0 0,-0 0,-0 0,0 0,0l0 -0c-0,-0 -0,-0 -0,-0 -0,-0 -0,0 -0,0 0,-0 0.01,-0 0.01,0 0,0 -0,0 0,0 0,-0 -0,-0 0,-0 0,-0 -0,0 -0,0l0 0c0,-0 0,-0 0,-0 0,-0 0,0 0,0 0,0 0,0 0,0l-0 -0z"/>
   <path class="fil4" d="M0.05 0.18c0.02,-0 0.03,-0 0.05,0 -0,-0 -0,-0 -0.01,-0 -0.01,-0 -0.03,-0 -0.04,0 -0,0 -0,0 -0,0z"/>
   <path class="fil4" d="M0.09 0.25l0 0 0 0c0,0 0,0 0,0 0,0 0,0 0,0l0 0c0,-0 0,-0 0,0l0 0 0 0c0,-0 0,-0 0,0l0 0c0,-0 0,-0 0,0l0 0 0 0 0 -0c0,0 -0,0 0,0 0,0 0,0 0,0 0,0 0,0 0,0l0 0 0 -0 0 -0 0 -0 -0 -0 -0 0c0,0 0,0 -0,0l-0 -0 -0 0 -0 -0c-0,0 -0,0 -0,0l-0 -0 -0 -0c-0,-0 -0,-0 -0,-0 -0.01,-0 -0,0 -0,-0 -0,-0 -0,-0 -0,-0l-0 0 -0 -0 -0 -0 -0 -0 -0 -0 -0 -0 -0 -0c-0,-0 -0,0 -0,-0 -0,-0 -0,0 -0,-0l-0 -0c-0,-0 -0,-0 -0,-0l-0 -0 -0 -0c-0,-0 -0,0 -0,-0 -0,-0.01 -0,-0.02 -0,-0.02 0,0 0,0 0,0l0 -0c0.01,-0 0.01,-0 0.02,0 0,0 0,0 0.01,0l0 0.01c0,0 0,0 0,0.01 0,-0 0,0 0,0 0,0 0,0.01 -0,0.02 -0,0 -0,0 -0,0l-0 0 0 -0c-0,-0 -0,-0 0,-0l0 -0c-0,-0 -0,-0 0,-0l0 -0c-0,-0 -0,-0 0,-0 -0,-0.01 0,-0.03 -0,-0.03 -0,-0 -0.01,-0 -0.01,-0 -0,-0 -0,-0 -0,-0 -0,-0 -0.02,-0 -0.02,0 -0,0 0,0.02 0,0.02z"/>
   <path class="fil0" d="M0.03 0.36c0,0 0.01,-0 0.02,-0 0.01,0 0.01,0 0.02,0 0,-0.01 -0.01,-0.01 -0.03,-0.01 -0.01,0 -0.01,0 -0.01,0.01z"/>
   <path class="fil4" d="M0.03 0.26c-0.01,-0 -0,-0 -0,-0.01 0,-0.01 0,-0.01 0,-0.02l0 -0 0 -0c-0,0 -0,0 -0,-0l0 -0c0,-0 0,-0 0,-0 0,-0 0,-0 0,-0l0.01 -0c0.02,-0 0.02,-0 0.02,0 0,-0 -0,-0 0,-0l-0 0.01c0,-0 0,-0 0,-0 0,-0 0,-0 0,-0 0,-0 0,-0.01 0,-0.01 -0,-0 -0.02,0 -0.03,0 -0,0 -0,0 -0.01,0 -0,0 -0,0.03 -0,0.03l0 0c0,-0 0,-0 0,0l0 0 0 0c0.01,0 0.01,0.01 0.02,0 0.01,-0 0.01,-0 0.01,-0.01 0,-0.01 0,-0.01 0,-0.01l-0 0c-0,0.01 0,0.02 -0.01,0.02 0,-0 0,-0 0,-0 -0,0 -0.01,0 -0.01,0.01 -0.01,0 -0,0 -0.01,-0 0,0 0,0 0.01,0 0,-0 0,-0 0,-0l0 -0c0,-0 0,-0 0,-0 0,-0 -0,-0 0,-0 -0,0 0,0 -0,0 -0.01,0.01 -0.01,0.01 -0.02,0z"/>
   <path class="fil4" d="M0.08 0.21c0,-0 0,-0 0,-0 0.01,-0 0.02,-0 0.03,0 0,0 0.01,0 0.01,0 0,-0 0,0 -0,-0 0,0 0,0 0,0l0 0c0,0 0,0 0,0.01l-0 0c-0,0 -0,0 -0,0l0.01 0c0,0 -0,-0 0,0 0,0 0,0 0,0l-0 -0.01c-0,-0 -0,-0 -0,-0 -0,-0 -0,-0 -0.01,-0 -0,-0 -0,-0 -0.01,-0l-0 0c-0.01,-0 -0.02,-0 -0.03,-0 0,-0 0.01,0 0.01,-0 -0,0 -0.01,-0 -0.01,0 -0.01,0 -0.01,0 -0.01,-0 0,-0 -0,-0 0,-0 0,-0 0,-0 0,-0 0,0 0,0 0,0 -0,-0 -0.01,-0 -0.01,-0 0,0 -0,0.01 0,0.01z"/>
   <path class="fil4" d="M0.05 0.49l0 0 0 -0 -0 -0c0,-0 0,0 0,0l0 -0c0,-0 -0,-0 0,-0 0,-0 0,0 0,0l0 0 0 -0c0,-0 -0,-0 0,-0 0,0 0,-0 0,0l0 0 0 0 0 0 -0 -0 -0 -0c0,-0 -0,-0.01 -0,-0.01 -0.01,-0.01 -0.02,0 -0.02,0.01l0 0c0,-0 0,0 0,-0 0,-0 0,-0 0,-0z"/>
   <path class="fil6" d="M0.09 0.49c0,-0 0,-0 0,-0 0,0 0,0 0,0l0 -0c0,0 0,0 0.01,0 0,0 0,-0 0,0 0,0 0,0 0,0 0,0 0,0 0,0 0,0 0,0 0,0 0,-0.01 -0,-0.01 -0,-0.01 -0,-0 -0,0 -0,-0l-0 0c-0,-0 -0,-0 -0,-0 -0,0 -0,0 -0,-0l-0 0 -0 -0 -0 -0c-0,-0 -0,0 -0,-0l-0 0 -0 0c-0,0 -0.01,0 -0.01,0.01 0,-0 0,-0 0,-0z"/>
   <path class="fil0" d="M0.11 0.26l-0 0c0,0 0,0 0,-0zm0 -0l-0 0c0,-0 0,-0 0,-0zm-0 -0c0,0 0,0 0,-0 -0,-0 -0,0 -0,-0 0,-0 0,0 0,0l0 0 0.01 -0c0,-0 0,-0 0,-0l0 -0c0,-0 0,-0 0,-0 0,-0 0,-0.01 0,-0.02 -0,-0 0,-0 -0,-0 -0,0 0,0.01 -0,0.02 -0,0 -0.01,0 -0.01,0.01 0,-0 0,-0 0.01,-0 -0,0 -0,0 -0,0 -0,0 0,-0 -0,0 -0,0 -0,0 -0,0 -0,-0 -0,-0 -0,-0 -0,-0 0,-0 -0,-0 -0,0 -0,0 -0.01,-0l-0 -0c-0,-0 -0,-0 -0,-0 -0,-0 -0,-0 -0,-0 -0,-0 -0,-0 -0,-0 0,0 -0,-0 0,0 0,0 0,0 0,0l0 0c0,-0 0,-0 -0,-0l-0 -0c-0,-0 -0,-0 -0,-0 0,0 0,0 0,0l0 0c0,-0 -0,-0 0,-0 0,0 -0,0 -0,0l0 0 0 0 0 -0 -0 -0c0,-0 -0,-0 0,-0l0 0c0,0 0,0 0,0l0 0c0,-0 0,-0 0,0l0 -0c-0,-0 -0,0 -0,-0 0,-0 -0,-0 0,0zm-0 0l-0 -0 0 0zm-0.01 -0.01l-0 -0 0 0zm-0 -0c0,-0 0,-0 -0,-0l0 0zm-0 -0c0,-0 0,-0 -0,-0l0 0zm-0 -0l0 0 -0 -0c-0,-0 0,-0 -0,-0l0 0zm-0 -0l0 0c-0,-0 0,-0 -0,-0 -0,-0 -0,-0 -0,-0zm0 -0.01c-0,0 -0,0 0,0 0,-0 -0,-0 0,-0 -0,0 -0,0 -0,0 -0,0 -0,0 -0,0l0 0c0,0 0,0 0,0 0,-0 -0,-0 0,-0l-0 0c0,-0 -0,-0.01 -0,-0.01l-0 0zm-0 0l-0 -0 0 0zm0.03 0.01c-0,-0 -0,-0 -0,0l0 -0zm-0 0c-0,-0 -0,-0 -0,0l0 -0zm-0 0c-0,-0 -0,-0 -0,0l0 -0z"/>
   <path class="fil1" d="M0.11 0.21c-0,-0 -0.01,-0 -0.01,-0l-0 -0 -0.01 -0c-0,0 -0,-0 -0,-0 -0,0 -0,0 -0,0 -0,0 -0,-0 -0,0 0,0 0,0 0.01,0 0,-0 0.01,0 0.01,0 -0,0 -0.01,0 -0.01,0 0.01,0 0.02,-0 0.03,0l0 -0z"/>
   <path class="fil5" d="M0.09 0.06c0,0 0,0 0,0.01 0,0 0,0.01 0,0.01 0,-0 0,-0 0.01,-0 -0.01,-0 -0.01,-0.01 -0.01,-0.01 0,0.01 0,-0.01 0,-0.01 -0,0 -0,0 -0,0.01 -0,0 -0,0 -0,0z"/>
   <path class="fil0" d="M0.05 0.46c0,-0 0,-0 0,-0 -0.01,-0 -0.01,-0 -0.02,0 0,0 0.01,0 0.01,0z"/>
   <path class="fil6" d="M0.04 0.49c-0,0 -0,0 0,0 0,-0.01 0.01,-0.01 0.02,-0.01 -0,-0 0,-0 -0,-0l-0 -0 -0.01 0 -0 -0c-0,0 -0.01,0 -0.01,0.01z"/>
   <path class="fil5" d="M0.05 0.05c0,0 0,0 0,0 0,0 -0,0 0,0l0 -0c-0,-0 -0,-0.01 -0.01,-0.01 -0,0 0,0.01 0,0.01z"/>
   <path class="fil5" d="M0.1 0.06c0,-0 0.01,-0.01 0.01,-0.02 -0,0 -0,0 -0,0.01 -0,0 -0,0 -0,0.01z"/>
   <path class="fil7" d="M0.06 0.49l0 0c0,0 0,0 0,0 -0.01,-0 -0.01,-0 -0.02,0.01 -0,-0 -0,0 -0,-0 -0,0 -0,0.01 -0,0.01 0,-0 0,-0.01 0.01,-0.01 0.01,-0 0.01,-0 0.02,0l-0 -0 -0 -0 -0 -0 -0 -0 -0 -0 -0 -0 -0 0 -0 -0 -0 0 -0 0 -0 -0 0 0 0.01 0z"/>
   <path class="fil5" d="M0.06 0.06l0 0 0 0c0,-0 -0,-0 0,-0 0,-0 -0,-0 0,0l0 0c-0,0 -0,0 -0,0l0 0c0,-0 0,-0 0,-0.01 -0,-0 -0,-0 -0.01,-0.01l-0 0z"/>
   <path class="fil8" d="M0.02 0.31l0 0c0,0 0,0 0,0l0 0c-0,-0 -0,0 -0,-0l0 0c0,-0 0,-0 0,-0 0,-0 0,-0 0,-0l-0 -0 -0 0c-0,-0 -0,-0 -0,-0 -0,-0 -0,-0 -0,-0l-0.01 -0.01c-0.01,-0.01 -0,-0.01 -0.01,-0.01l0 0.01 0.01 0.01z"/>
   <path class="fil6" d="M0.04 0.53c0,-0 0.01,-0.01 0,-0.02 -0,0 -0,-0 -0,0 -0,0.01 -0,0.01 -0,0.01z"/>
   <path class="fil6" d="M0.11 0.51l0 0.01 -0 0c0,0 0,0 0,0.01 0,0 0,-0 0,0 0,0 0,-0 0,0l0 0 0 -0.01c-0,-0 -0,-0 -0,-0 -0,-0 -0,0 -0,-0 -0,-0 -0,-0 -0,-0 -0,-0 -0,-0 -0,-0 -0,-0 0,-0 -0,-0l0 0z"/>
   <path class="fil8" d="M0.14 0.3l-0 0c0,0 0,0 0,0 0,-0 0,-0 0,-0 0,0 0,-0 0,-0 0.01,-0.01 0,-0 0.01,-0.01 -0,0 -0,0 -0,0.01 -0,0 -0.01,0.01 -0.01,0.01 -0,0 -0,0 -0,0l0 -0z"/>
   <path class="fil7" d="M0.09 0.51c0,0 0,0 -0,0l0 0 0 0 0 0 0 -0 -0 -0c-0,-0 -0,-0 -0,-0 -0,0 0,0 -0,0z"/>
   <path class="fil7" d="M0.06 0.51l0 0c-0,0 0,0.01 0,0.01l-0 -0.01z"/>
   <path class="fil0" d="M0.07 0.05c0,-0 0,-0 0.01,-0 0,0 0,0 0,0 0,-0 -0.01,-0.01 -0.01,0z"/>
   <path class="fil8" d="M0.06 0.06l0 -0c-0,-0 0,-0 -0,-0l-0 0c-0,-0 -0,0 -0,-0 -0,-0 0,-0 -0,-0 0,0 0,0 0,0 0,0 0,-0 0,-0l0 0z"/>
   <path class="fil9" d="M0.01 0.3c0,0 0,0 0,0l0 0 0 -0 -0 -0c-0,-0 0,0 -0,-0 -0,-0 -0,-0 -0,-0 0,0 0,0 -0,0 -0,0 -0,0 0,0 0,-0 0,-0 0,0 0,0 0,0 -0,0l-0 -0z"/>
   <path class="fil4" d="M0.01 0.28l0 -0c-0,-0 0,-0 -0,-0 -0,0 -0,-0 -0,0z"/>
   <polygon class="fil3" points="0.06,0.08 0.06,0.08 0.06,0.08 0.05,0.08 "/>
   <path class="fil9" d="M0.06 0.06l-0 -0c-0,-0 -0,-0 -0,0 -0,0 -0,0 -0,0l-0 -0 0 0.01c0,-0 0,-0 0,-0 0,0 0,-0 0,-0 0,-0 0,-0 0,-0 0,-0 0,-0 0,-0z"/>
   <path class="fil9" d="M0.06 0.08l-0 0 0 0 0 -0c-0,0 -0,-0 -0,0z"/>
  </g>
 </g>
</svg>
