<?xml version="1.0" encoding="UTF-8"?>
<!DOCTYPE svg PUBLIC "-//W3C//DTD SVG 1.1//EN" "http://www.w3.org/Graphics/SVG/1.1/DTD/svg11.dtd">
<!-- Creator: CorelDRAW -->
<svg xmlns="http://www.w3.org/2000/svg" xml:space="preserve" width="3.1237mm" height="7mm" version="1.1" style="shape-rendering:geometricPrecision; text-rendering:geometricPrecision; image-rendering:optimizeQuality; fill-rule:evenodd; clip-rule:evenodd"
viewBox="0 0 25.63 57.43"
 xmlns:xlink="http://www.w3.org/1999/xlink"
 xmlns:xodm="http://www.corel.com/coreldraw/odm/2003">
 <defs>
  <style type="text/css">
   <![CDATA[
    .fil11 {fill:#0B0C0D}
    .fil3 {fill:#0D0E0E}
    .fil1 {fill:#0F1012}
    .fil13 {fill:#131414}
    .fil17 {fill:#131618}
    .fil15 {fill:#150503}
    .fil23 {fill:#16191B}
    .fil9 {fill:#171A1C}
    .fil8 {fill:#181B1E}
    .fil14 {fill:#1B1E21}
    .fil60 {fill:#1E2121}
    .fil32 {fill:#1E2123}
    .fil4 {fill:#1E2326}
    .fil10 {fill:#202326}
    .fil5 {fill:#202427}
    .fil2 {fill:#212528}
    .fil38 {fill:#222629}
    .fil44 {fill:#242729}
    .fil65 {fill:#26292A}
    .fil66 {fill:#282727}
    .fil40 {fill:#2C3133}
    .fil26 {fill:#2E3235}
    .fil30 {fill:#323639}
    .fil6 {fill:#35393C}
    .fil21 {fill:#363D41}
    .fil49 {fill:#3A3D41}
    .fil62 {fill:#3B3C3C}
    .fil54 {fill:#3D4244}
    .fil57 {fill:#4D5254}
    .fil52 {fill:#535454}
    .fil34 {fill:#5A5E62}
    .fil46 {fill:#5C2E12}
    .fil35 {fill:#5D6569}
    .fil43 {fill:#787E81}
    .fil47 {fill:#7B8487}
    .fil61 {fill:#838484}
    .fil42 {fill:#85898A}
    .fil63 {fill:#8B8B8C}
    .fil64 {fill:#95989A}
    .fil31 {fill:#999EA1}
    .fil29 {fill:#9CA3A5}
    .fil36 {fill:#9EACB0}
    .fil55 {fill:#A2A3A4}
    .fil28 {fill:#A5080A}
    .fil53 {fill:#A5280A}
    .fil33 {fill:#A5A7A8}
    .fil51 {fill:#ABACAC}
    .fil50 {fill:#ABAEB0}
    .fil19 {fill:#B7070A}
    .fil25 {fill:#BA6402}
    .fil58 {fill:#BBBBBB}
    .fil41 {fill:#BBC3C5}
    .fil59 {fill:#C3C4C4}
    .fil39 {fill:#C8070B}
    .fil0 {fill:#CC0000}
    .fil22 {fill:#CDCECE}
    .fil12 {fill:#CDD0D1}
    .fil24 {fill:#D3D4D4}
    .fil56 {fill:#D42F09}
    .fil18 {fill:#D8080A}
    .fil16 {fill:#DBDCDC}
    .fil27 {fill:#E20909}
    .fil37 {fill:#EB2E08}
    .fil48 {fill:#F15107}
    .fil45 {fill:#F4F4F4}
    .fil20 {fill:#F8A705}
    .fil7 {fill:black;fill-opacity:0.301961}
   ]]>
  </style>
 </defs>
 <g id="Camada_x0020_1">
  <metadata id="CorelCorpID_0Corel-Layer"/>
  <path class="fil0" d="M22.71 19.2c-0.06,0.38 0.04,2.28 0.08,2.58 0.06,0.42 0.03,0.9 0.03,1.33 0,1.27 0.11,3.89 -0.1,4.99 -0.11,0.56 -0.04,24.77 -0.04,25.3 -0.17,0.11 -0.23,0.19 -0.5,0.21 0,0.71 0.1,1 -0.65,1 -1.42,0 -2.79,0.04 -4.17,-0.06 -0.44,-0.03 -0.55,0.04 -0.57,-0.44l-2.66 0c-0.01,0.33 -0.06,0.29 -0.14,0.43 -0.3,0.58 0.14,1.29 0.14,1.29 0.69,0 1.39,0 2.08,0 0.34,0 0.67,0 1.01,0 0.81,0.01 0.45,-0.22 0.79,-0.22 0.36,0 0.79,-0.08 0.79,0.29 0,0.94 0.14,1.51 -0.21,1.51l-0.57 0c-0.22,-0.02 -0.29,-0.12 -0.29,-0.5l-4.09 0c-0.04,0.53 -0.49,0.43 -1.08,0.43 -0.58,0 -0.5,-0.32 -0.5,-0.43l-4.09 0c-0.01,0.26 -0.03,0.5 -0.29,0.5l-0.56 0c-0.2,-0.02 -0.3,-0.12 -0.3,-0.43 0,-0.46 -0.12,-1.36 0.36,-1.36 1.09,0 0.43,0.07 0.88,0.19l3.5 0.02c0.07,-0.25 0.07,-0.26 0.36,-0.29l0 -0.93c-0.33,-0.08 -0.42,-0.12 -0.43,-0.5l-2.66 0c-0.03,0.36 -0.05,0.38 -0.35,0.44 -0.48,0.1 -4.43,0.17 -4.96,-0.08 -0.08,-0.33 -0.07,-0.44 -0.07,-0.86 -0.27,-0.02 -0.34,-0.1 -0.5,-0.21 0,-6.01 0,-12.01 0,-18.02l0 -6.82c-0.01,-0.65 -0.15,-0.89 -0.15,-2.08 0,-0.75 -0.01,-1.51 0.02,-2.26 0.02,-0.52 -0.02,-1.44 -0.02,-2.12 -0,-0.76 0.14,-1.39 0.15,-2.08 0.01,-0.75 -0.08,-1.34 -0.08,-2.16 0,-0.26 0.07,-0.3 0.05,-0.55 -0.11,-1.28 0.03,-0.82 0.02,-1.74l-0 -7.4c-1.08,-0.25 -0.16,0.53 -1.1,0.84 -0.27,0.09 -1.07,0.31 -1.34,0.31 -0.26,0 -0.45,-0.43 -0.5,-0.92l0 -0.54c0.04,-0.39 0.18,-0.74 0.44,-0.89 0.24,-0.14 1.33,-0.65 1.66,-0.25 0.39,0.46 -0.15,0.39 0.39,0.42 0.16,0.01 0.25,0 0.45,-0.04 0,-0.77 0.06,-1.3 0.07,-2.08 0.02,-1.91 0.43,-3.51 2.37,-4.02 0.55,-0.14 1.22,-0.26 1.81,-0.35 1.07,-0.15 1.15,-0.26 1.74,-0.34 0.66,-0.1 1.4,-0.07 2,-0.15 0.34,-0.05 0.71,-0.02 1.06,-0.02 0.78,0 0.46,-0.15 0.86,-0.15 0.17,0 0.19,0.1 0.44,0.14 0.69,0.1 2.7,-0.11 4.36,0.38 1.34,0.39 4.2,-0.02 4.74,2.65 0.24,1.17 0.29,2.54 0.29,3.94 0.32,0.03 0.38,0.04 0.72,0.07 0.02,-0.28 0.14,-0.65 0.43,-0.65 0.38,0 1.8,0.27 1.8,1.22 0,1.85 -0.19,1.74 -1.71,1.28 -0.43,-0.13 -0.59,-0.26 -0.59,-0.85 -0.64,-0.15 -0.17,-0.04 -0.65,0l-0 5.6c0,0.4 0.1,0.49 0.07,0.85 -0.1,1.46 0.04,1.52 -0.04,2.62 -0.01,0.2 0.12,1.11 -0,1.94z"/>
  <g id="_1769517826032">
   <path class="fil1" d="M7.81 56.13c0.57,-0.11 1.49,-0.05 2.09,-0.06 0.49,-0 1.78,-0.08 2.13,0.14l-0.04 0.29 -4.15 0.06 -0.03 -0.43zm10.78 1.3l-0.57 0c-0.22,-0.02 -0.29,-0.12 -0.29,-0.5l-4.09 0c-0.04,0.53 -0.49,0.43 -1.08,0.43 -0.58,0 -0.5,-0.32 -0.5,-0.43l-4.09 0c-0.01,0.26 -0.03,0.5 -0.29,0.5l-0.56 0c-0.2,-0.02 -0.3,-0.12 -0.3,-0.43 0,-0.46 -0.12,-1.36 0.36,-1.36 1.09,0 0.43,0.07 0.88,0.19l3.5 0.02c0.07,-0.25 0.07,-0.26 0.36,-0.29l0 -0.93c-0.33,-0.08 -0.42,-0.12 -0.43,-0.5l-2.66 0c-0.03,0.36 -0.05,0.38 -0.35,0.44 -0.48,0.1 -4.43,0.17 -4.96,-0.08 -0.08,-0.33 -0.07,-0.44 -0.07,-0.86 -0.27,-0.02 -0.34,-0.1 -0.5,-0.21 0,-6.01 0,-12.01 0,-18.02l0 -6.82c-0.01,-0.65 -0.15,-0.89 -0.15,-2.08 0,-0.75 -0.01,-1.51 0.02,-2.26 0.02,-0.52 -0.02,-1.44 -0.02,-2.12 -0,-0.76 0.14,-1.39 0.15,-2.08 0.01,-0.75 -0.08,-1.34 -0.08,-2.16 0,-0.26 0.07,-0.3 0.05,-0.55 -0.11,-1.28 0.03,-0.82 0.02,-1.74l-0 -7.4c-1.08,-0.25 -0.16,0.53 -1.1,0.84 -0.27,0.09 -1.07,0.31 -1.34,0.31 -0.26,0 -0.45,-0.43 -0.5,-0.92l0 -0.54c0.04,-0.39 0.18,-0.74 0.44,-0.89 0.24,-0.14 1.33,-0.65 1.66,-0.25 0.39,0.46 -0.15,0.39 0.39,0.42 0.16,0.01 0.25,0 0.45,-0.04 0,-0.77 0.06,-1.3 0.07,-2.08 0.02,-1.91 0.43,-3.51 2.37,-4.02 0.55,-0.14 1.22,-0.26 1.81,-0.35 1.07,-0.15 1.15,-0.26 1.74,-0.34 0.66,-0.1 1.4,-0.07 2,-0.15 0.34,-0.05 0.71,-0.02 1.06,-0.02 0.78,0 0.46,-0.15 0.86,-0.15 0.17,0 0.19,0.1 0.44,0.14 0.69,0.1 2.7,-0.11 4.36,0.38 1.34,0.39 4.2,-0.02 4.74,2.65 0.24,1.17 0.29,2.54 0.29,3.94 0.32,0.03 0.38,0.04 0.72,0.07 0.02,-0.28 0.14,-0.65 0.43,-0.65 0.38,0 1.79,0.27 1.79,1.22 0,1.85 -0.19,1.74 -1.71,1.28 -0.43,-0.13 -0.59,-0.26 -0.59,-0.85 -0.64,-0.15 -0.17,-0.04 -0.65,0l-0 5.6c0,0.4 0.1,0.49 0.07,0.85 -0.1,1.46 0.04,1.52 -0.04,2.62 -0.01,0.2 0.12,1.11 -0,1.94 -0.06,0.38 0.04,2.28 0.08,2.58 0.06,0.42 0.03,0.9 0.03,1.33 0,1.27 0.11,3.89 -0.1,4.99 -0.11,0.56 -0.04,24.77 -0.04,25.3 -0.17,0.11 -0.23,0.19 -0.5,0.21 0,0.71 0.1,1 -0.65,1 -1.42,0 -2.79,0.04 -4.17,-0.06 -0.44,-0.03 -0.55,0.04 -0.57,-0.44l-2.66 0c-0.01,0.33 -0.06,0.29 -0.14,0.43 -0.3,0.58 0.14,1.29 0.14,1.29 0.69,0 1.39,0 2.08,0 0.34,0 0.67,0 1.01,0 0.81,0.01 0.45,-0.22 0.79,-0.22 0.36,0 0.79,-0.08 0.79,0.29 0,0.94 0.14,1.51 -0.21,1.51zm-0.77 -0.83l-1.6 0.01 -2.51 -0.01 -0.03 -0.53 1.68 -0 1.58 0c0.72,0 0.97,-0.2 0.88,0.53zm-10.37 0.04c0.25,0.4 0.22,-0.13 0.23,0.36 -0.21,0.14 -0.29,0.12 -0.56,0.08 -0.06,-0.22 -0.13,-1.06 0.02,-1.19 0.07,-0.06 0.41,-0.06 0.48,-0.03 0.15,0.08 0.13,0.39 0.11,0.57l-0.28 0.22zm11.12 0.42l-0.54 0.02c-0.13,-0.57 0.03,-0.11 0.03,-0.45 0.01,-0.53 -0.48,-0.86 0.53,-0.79 0.05,0.39 0.08,0.81 -0.02,1.22zm-11.54 -3.01l0.37 -0.1c0.44,-0.01 0.3,-0.02 0.4,0.17 -0.12,0.19 -0.02,0.15 -0.4,0.16 -0.41,0 -0.31,0.04 -0.37,-0.23zm11.69 0.19l-0.75 -0.01 -0.48 0.01 -0.01 -0.31 4.26 -0.04 -0.01 0.34 -0.4 0.06 -0.14 -0.31 0.02 0.21 -0.62 0.01 0.02 -0.23c-0.18,0.1 0.01,-0.04 -0.1,0.1 -0.01,0.01 -0.05,0.07 -0.06,0.09l-0.06 0.1c-0.55,0.01 -1.13,0.08 -1.67,-0.03zm-13.78 -0.24l-0.02 0.2 -0.53 0.01 -0.04 -0.2c-0.1,0.11 -0.04,0.26 -0.4,0.26l0.09 -0.33c0.11,-0.02 0.06,-0.02 0.2,-0.02l1.22 -0c0.26,-0 0.53,0 0.79,-0.01 0.77,-0.02 0.67,-0.08 0.7,0.15 -0.08,0.37 0.08,0.14 -0.19,0.23 -0.01,0 -0.33,0.01 -0.37,0.01l-0.14 -0.29c-0.19,0.1 0.04,-0.09 -0.18,0.23 -0.01,0.01 -0.02,0.04 -0.04,0.05l-0.93 -0.01 -0.17 -0.26zm8.38 1.64c-1.02,-0.25 -0.7,-0.01 -0.82,0.13 0.23,0.05 0.22,0.08 0.5,0.05 0.3,-0.04 0.15,-0.06 0.48,-0.15 0.04,0.47 0.02,1.07 -0.2,1.39l-0.93 0c-0.07,-0.11 -0.24,-0.73 -0.22,-1.01l0.07 -0.37c0.01,-0.02 0.01,-0.05 0.02,-0.08 -0.22,-0.43 -0.09,-3.16 -0.09,-3.86 0.24,0.19 0.09,0.29 0.46,0.5l-0.01 1.11c-0.17,-0.16 -0.1,-0.19 -0.09,-0.47 0,-0.1 0.01,-0.18 -0.01,-0.29 -0.06,-0.4 0.05,0.18 -0.03,-0.12l-0.04 -0.11c-0.12,0.29 -0.07,1.97 0.03,2.27 0.32,-0.1 0.18,0.42 0.27,-0.9 0.56,0.39 0.12,0.3 0.37,1.05 0.25,-0.21 0.17,-0.31 0.17,-0.76 -0,-0.43 0.06,-0.35 -0,-0.82 -0.06,-0.47 -0.08,-0.91 0.09,-1.35 0.1,-0.25 -0.02,-0.02 0.07,-0.13 0.21,0.26 0.08,2.48 0.06,2.95 -0.01,0.38 0.13,0.82 -0.18,0.95zm4.56 -3.77c-0.36,0.04 -0.59,0.12 -0.64,-0.26 -0.04,-0.28 -0,-0.67 0.06,-0.87l0.55 -0.03 0.25 0.34c0.3,-0.01 1.98,-0.11 2.2,0.09l0.05 -0.13c0.12,-0.33 0.01,-0.27 0.28,-0.31 0.26,-0.04 0.42,0.05 0.46,0.27 0.02,0.09 0.01,0.67 -0.01,0.75 -0.09,0.26 -0.29,0.19 -0.6,0.15 -0.14,-0.18 -0.03,-0.31 -0.22,-0.35 -0,0 -2.17,-0.02 -2.19,0.06 -0,0.03 -0.03,0.04 -0.03,0.05l-0.06 0.09c-0.03,0.05 -0.03,0.07 -0.09,0.15zm-12.56 -0.35c-0.06,0.12 -0.03,0.21 -0.14,0.37 -0.56,0.04 -0.61,0 -0.6,-0.57 0,-0.61 -0.02,-0.63 0.58,-0.61 0.2,0.23 0,-0.03 0.09,0.19 0.01,0.02 0.03,0.08 0.04,0.1l0.04 0.1c0.31,-0.11 0.78,-0.05 1.15,-0.05 0.48,0 0.95,-0.09 1.09,0.11 0.13,-0.31 -0.11,-0.33 0.23,-0.44 0.76,-0.25 0.67,0.77 0.58,1 -0.1,0.25 -0.42,0.19 -0.73,0.15l-0.06 -0.44c-0.13,0.2 -1.89,0.1 -2.25,0.09zm4.52 -2.68c0.26,0.32 0.01,0.09 0.38,0.24 -0.05,0.38 -0.01,0.16 -0.2,0.37 0.25,-0.23 -0.03,-0.12 0.36,-0.23l0.19 0.31c0.01,0.01 0.03,0.03 0.04,0.04 0.01,0.01 0.03,0.02 0.05,0.04 -0.05,0.33 0,0.07 -0.14,0.31 0.27,0.14 0.09,0.11 0.3,0.29 -0.09,-0.38 0.04,0.17 -0.12,-0.17 -0.07,-0.15 0,0.1 -0.04,-0.09l0 -0.11c0,-0.01 0,-0.04 0.01,-0.06 0.23,-0.06 0.4,0.26 0.46,0.45l0.15 2.74c-0.62,0.08 -0.67,0.01 -1.13,0.01l-0.68 0.02c-1.05,0.04 -0.54,-0.49 -0.63,-1.18 -0.04,-0.29 -0.07,-2.67 0.07,-2.82 0.01,-0.01 0.02,-0.02 0.03,-0.02l0.21 -0.06c0.7,-0.16 0.01,0.15 0.7,-0.08zm2.47 -0.28l-0.01 -1.06 1.08 -0c0.06,0.34 0.07,0.91 -0.09,1.17 -0.23,0.03 -0.1,0.05 -0.29,-0.14 -0.14,0.13 -0.05,0.17 -0.22,0.24l-0.08 -0.21c-0.15,0.1 -0.04,0.16 -0.4,0.01zm1.51 -0.48l-0.01 -0.86c0.47,0.01 5.05,-0.11 5.42,0.09l0.09 0.06c0.4,-0.45 0.83,-0.22 0.72,0.49 -0.05,0.34 -0.18,0.29 -0.5,0.29 -0.12,-0.13 -0.12,-0.14 -0.21,-0.29 -0.37,0.32 -0.62,0.22 -1.22,0.22 -1.28,0 -3.11,0.05 -4.28,-0.01zm-7.64 0.17c-0.13,-0.02 -0.46,-0.14 -0.53,-0.2 -0.04,-0.27 -0.06,-0.6 0.04,-0.83 0.68,-0.09 0.48,-0.06 0.62,0.21 0.23,-0.34 0.76,-0.22 1.24,-0.22l4.29 0.01 0.02 0.85c-0.96,-0 -1.92,0.01 -2.87,0.01 -0.48,0 -0.96,-0 -1.44,-0 -0.52,0 -1.03,0.11 -1.23,-0.22 -0.17,0.24 -0.04,0.16 -0.13,0.38zm5.18 -1.55l0.05 0.4c-0.56,-0.07 -0.05,-0.18 -0.48,-0.04l-0.16 -0.06c0.05,-0.5 0.23,-0.32 0.27,-0.53 0.08,-0.39 -0.14,-2.74 0.06,-3.33l0.41 -0.01 -0.09 3.26c-0.05,0.26 -0.11,-0.12 -0.06,0.32zm3.31 -0.22c-0.53,-0.09 -0.46,0 -0.45,-0.62l-0.01 -1.87c-0.01,-0.43 -0.13,-0.5 -0.12,-0.77 0.17,-0.09 0.33,-0.11 0.52,-0.07 0.14,0.36 0.06,2.95 0.05,3.33zm6.52 -2.99c-0.12,-0.26 0.02,0.01 -0.12,-0.18 -0.09,-0.12 -0.06,-0.04 -0.11,-0.19 0.28,0.05 0.15,0 0.36,0.21 -0,0.37 0.01,0.43 -0.36,0.45 0.11,-0.13 0.13,-0.1 0.23,-0.29zm-0.41 0.34c-0.48,-0.15 -0.47,-0.6 0.08,-0.76 -0.16,0.38 -0.03,0.04 -0.26,0.34 0.04,0.21 0.02,0.08 0.09,0.21 0.06,0.11 0.06,0.04 0.1,0.2zm-6.55 -0.85c-0.32,0.02 -0.05,0 -0.16,-0.07 0.09,-0.3 0.23,-0.26 0.34,0 -0.08,0.05 -0.01,0.06 -0.17,0.07zm-2.87 0.03c-0.03,0.01 -0.21,-0 -0.24,-0 0.05,-0.28 0.29,-0.42 0.43,-0.1 -0.11,0.08 -0.01,0.05 -0.19,0.1zm0.72 4.42c0,-1.51 0,-3.01 0,-4.52 0,-1.53 -0.07,-2.88 -0.07,-4.38 -0,-1.48 0,-2.97 0,-4.45 0,-0.96 -0.19,-3.68 0.01,-4.43 0.33,0.18 0.29,0.12 0.93,0.12 0.52,-0 0.75,-0.09 0.81,0.07l-0.16 17.58c-0.02,-0.01 -0.05,-0.03 -0.07,-0.05l-0.55 -0.2c-0.21,0.34 0.06,0.09 -0.17,0.2l-0.04 -0.11c-0.2,-0.41 0.16,0.06 -0.08,-0.13 -0.14,-0.11 -0.12,-0.04 -0.34,0.13 -0.22,0.16 0.14,-0 -0.26,0.17zm2.75 -13.99c0,-0.41 0.09,-0.31 0.1,-0.52 0.02,-0.45 -0.22,0.18 -0.09,-0.95 0.02,-0.18 -0.01,-0.21 -0.02,-0.47 -0.02,-1.93 -0.07,-1.78 0.54,-1.81l0 3.82 -0.53 -0.06zm-4.53 -3.31c0.08,0.02 0.19,0.08 0.21,0.09 0.16,0.05 0.06,0.04 0.12,0.03 0.01,-0 0.15,-0.1 0.22,-0.14 0.05,0.58 0.06,1.26 -0,1.79 -0.04,0.34 0.03,1.23 0.02,1.68 -0.37,-0.06 -0.06,-0.04 -0.19,-0.1 -0.34,-0.16 0.07,0.16 -0.26,0.03l-0.08 -0.36c0.01,-0.01 0.04,-0.02 0.05,-0.02 0.01,-0 0.04,-0.02 0.05,-0.02l0.22 -0.03c-0.1,-0.22 0.03,-0.01 -0.16,-0.12 -0.14,-0.08 -0,0.24 -0.12,-0.06 -0.01,-0.03 -0.05,-0.02 -0.07,-0.03l0.04 -1.36c0.02,-0.39 -0.05,-0.9 -0.05,-1.36zm5 -1.22c0.08,0.33 -0.02,0.21 0,0.69l-0.43 -0.12c-0,-0.35 -0.09,-0.27 -0.01,-0.58l0.44 0zm5.89 0.14c-0.09,-0.32 -0.07,-0.08 -0.22,-0.38 0.56,0.12 0.48,0.6 0.01,0.63l0.22 -0.25zm-0.34 0.29c-0.52,-0.07 -0.55,-0.56 0.02,-0.67l-0.08 0.1c-0.01,0.02 -0.06,0.07 -0.07,0.09 -0.18,0.22 -0.01,0.27 0.13,0.48zm1.04 -5.84c0.25,0.23 0.18,0.21 0.63,0.19 0.04,3.28 -0.03,6.59 -0.03,9.88 -0,3.28 0.01,6.56 -0,9.83 -0,1.01 0.05,9.63 -0.03,9.81 -0.12,0.28 -0.54,0.24 -0.57,-0.33l-0 -8.55c0.19,-0.38 -0.09,0.06 0.34,-0.14l-0.03 -1.22c-0.26,-0.13 -0.28,0.01 -0.31,-0.14l0.01 -12.99 0.33 -0.14 -0.01 -1.15c-0.12,-0.08 -0.03,-0.03 -0.16,-0.08l-0.17 -0.06 0.01 -4.9zm-18.21 0.03c0.05,-0.05 0.08,0.01 0.09,-0.12 0.1,1.1 0.02,2.63 0.01,3.77l-0 24.55c0,0.43 0.16,1.49 -0.22,1.61 -0.55,0.18 -0.39,-0.62 -0.39,-1.47l-0 -20.75c0.01,-1.57 -0.14,-6.4 -0.04,-7.43 0.3,-0.03 0.55,0.08 0.54,-0.16zm10.55 4.33c-0.15,-0.09 -0.16,-0.48 0,-0.59 0.09,0.21 0.09,0.37 0,0.59zm-2.19 -0.57l0.03 -0.53c0.01,-0.01 0.03,-0.01 0.04,-0.01 0.01,-0 0.03,-0.01 0.04,-0.01 0.02,-0 0.07,-0 0.09,-0l0.54 -0.07c0.09,-0.19 -0.08,-0.1 0.14,-0.19 -0.06,-0.2 0.04,0.03 0.05,0.03l0.06 0.01c0,0 0.03,-0 0.03,-0l0.09 -0.03c0.01,-0 0.03,0.01 0.04,0.01 0.32,-0.02 0.22,0.06 0.32,0.01 0,-0 0.02,-0.01 0.02,-0.02 0.2,-0.15 0.06,-0.03 0.02,-0.07 0.12,0.22 0.14,0.19 0.16,0.36l-0.01 0.6 -0.02 0.26c-0.02,-0.02 -0.04,-0.03 -0.06,-0.04 -0.01,-0.01 -0.04,-0.03 -0.06,-0.03 -0.24,-0.11 -0.3,0.04 -0.34,0.04l-0.04 -0.02c-0,0 -0.01,-0.01 -0.02,-0.01l-0.19 0.08c-0.22,0.07 0.12,-0 -0.19,-0.03 -0.39,-0.03 0.03,-0.02 -0.17,0l-0.44 0.03 -0.14 -0.36zm2.86 -1.15c0.07,-0.03 0.97,-0.01 1.02,-0.01 0.58,0.08 0.09,0.02 0.89,-0.02 -0.09,0.9 0.04,1.71 0.02,2.58l-0.05 2.45c0.08,0.76 0.03,9.66 0.03,10.25 0,0.95 0.01,1.77 0.01,2.73 -0,0.89 0.06,1.87 -0.06,2.73l-0.07 0.03c-0.01,0 -0.03,0.01 -0.04,0.01 -0.01,0 -0.06,0.02 -0.08,0.03 -0.12,0.03 -0.02,0.05 -0.23,0.03 -0.3,-0.03 -0.3,-0.13 -0.38,-0.31 -0.05,0.06 -0.02,0.22 -0.35,0.19 0.06,-0.37 0.1,-0.07 0.17,-0.38 -0.37,0.08 0.36,-0.2 -0.14,0.09 -0.12,0.07 -0.02,0.06 -0.18,0.09 0,-0.14 0.04,-0.22 0.04,-0.24 0.02,-0.3 -0.12,-0.36 -0.13,-0.55 -0.01,-0.28 0.13,0.17 0.02,-0.49l-0.05 -0.96c-0.02,-0.28 0,-0.21 -0.08,-0.42l-0.32 -1.31c-0,-0.02 -0.01,-0.04 -0.01,-0.05l-0.12 -2.47c0.03,-0.42 -0.08,0.34 0.02,-0.08l0.09 -0.9c-0,-0.11 -0.01,-0.15 -0.02,-0.21l0.04 -0.44c0.09,-0.34 -0.04,-0.39 -0.04,-1.26l0.05 -0.9c-0,-0.01 -0.01,-0.02 -0.01,-0.03 -0.12,-0.68 0.14,-1.79 0.67,-2.07 -0.21,-0.4 0.06,-0.48 0.06,-1.3l-0.06 -4.24c-0.12,-0.2 -0.1,0.04 -0.28,-0.31 -0.02,0.13 0.14,0.18 -0.23,0.12 -0.2,-0.04 -0.19,-0.06 -0.25,-0.23 -0.06,-0.16 -0.05,-1.77 0.05,-2.13zm6.17 19.45c0.06,0.69 0.04,1.92 0,2.62l0.01 2.3c-0.2,0.02 -0.5,-0.01 -0.81,0.03 -0.13,0.32 0.17,0.33 -1.1,0.31 -0.21,-0 -0.51,-0.01 -0.73,-0.02 -0.35,-0.02 -0.26,-0.03 -0.42,-0.27 -0.47,-0.05 -0.86,-0.1 -0.93,0.39 -0.05,0.38 0.03,0.78 0.17,1.07 0.34,0.1 0.45,0.03 0.82,0.05 0.19,-0.25 0.14,-0.31 0.58,-0.3l1.35 0c0.59,0.05 -0.2,0.27 1.02,0.32 0.02,0 0.05,0 0.07,0l-0.2 0.66c-0.03,0.05 0.04,0.09 -0.02,0.23l-0.17 -0.03c-0.24,-0.08 -0.28,-0.14 -0.37,-0.36l0.13 -0.22c-0.15,0.2 0.12,0.07 -0.18,0.22 0.27,0.18 0.12,0.02 0.23,0.34l-4.51 0.03 -0.05 0 -1.88 -0.01c0.02,-1.11 0.11,-0.79 0.19,-1.37 0.02,-0.14 0.04,-0.44 0.04,-0.59 0.02,-1.61 0.55,-0.75 0.27,-1.4 -0.04,-0.09 -0.14,-0.02 0,-0.09l0.11 -0.02c0.59,-0.21 0.62,-1.32 1.14,-1.13l0.27 0.12c0.09,-0.24 -0.06,0 0.06,-0.18 0.32,0.02 0.4,0.14 0.81,0.03 0.02,-0 0.03,-0.01 0.05,-0.02 0.3,-0.08 0.26,-0.02 0.51,-0.02 0.64,0.02 1.23,-0.17 1.52,0.18 0.21,-0.17 0.14,0.03 0.2,-0.27 0.15,0.17 0.3,0.14 0.63,0.14 0.62,-0.12 0.31,-1.21 0.3,-1.22 -0.29,-0.17 -0.34,-0.24 -0.76,-0.13 -0.26,0.07 -0.01,0.07 -0.23,0.03l-0.44 -0.05c-0.57,-0.02 -1.27,-0.06 -1.79,-0.05 -0.02,-0.5 -0.01,-0.66 -0.04,-1.15l0.01 -4.02c-0.06,-0.55 0.08,-0.92 0.08,-0.93 0,-0.03 -0.05,-0.13 -0.05,-0.39l-0.02 -1.33c-0,-0.36 -0.01,-0.72 -0,-1.08l0 -3.15c-0.03,-0.35 -0.02,-0.72 -0.01,-1.08l0.03 -2.37c0.1,-0.58 0.06,0.14 -0.01,-0.49l-0.01 -1.64c0.03,-0.7 0.11,-0.52 0.05,-0.77 -0.09,-0.42 -0.09,-1.12 -0.04,-1.55 0.04,-0.32 0.09,-0.26 0.08,-0.39 -0,-0.03 -0.08,-0.22 -0.1,-0.43 0.39,0.06 0.18,0.01 0.37,0.23 0.15,-0.35 0.44,-0.23 0.88,-0.24l2.85 0c0.07,0.49 -0.12,1.98 0.08,2.32 -0.77,-0.05 -0.84,0.27 -0.77,0.95 0.32,0.14 0.3,0.07 0.68,0.18 0.08,0.52 0.05,4.53 0.05,5.35 -0,0.24 -0.02,0.63 -0.01,0.77 0.01,0.18 0.02,0.55 0.01,0.81l0.01 1.65c0.02,1.02 -0.1,4.28 0.02,4.77 -0.66,-0.23 -1.12,0.69 -0.53,1.03 0.19,0.11 0.28,0.06 0.5,0.04l0.01 1.59zm-3.97 -20.07c-0,-0.01 -0.01,-0.03 -0.01,-0.04 -0.1,-0.33 -0.04,-0.87 -0.03,-1.25 0.01,-0.41 0.06,-0.34 0.58,-0.35l0.48 -0c0.87,0.02 1.98,-0.08 2.91,0 0.04,0.25 -0.01,0.64 0.01,0.93 0.01,0.1 0.08,0.73 -0.06,0.82 -0.18,0.11 -3.16,-0.06 -3.83,0.02l-0.05 -0.13zm-2.02 -0.35c-0.21,0.12 -0.18,0.13 -0.27,-0.07 0.02,-0.01 -0.07,-0.11 0.18,-0.04 0.15,0.04 0.03,-0.01 0.09,0.12zm-2.82 -0.5c0.18,-0.03 0.01,0.11 0.22,-0.07 -0,-0.17 -0.21,0.06 0.34,-0.07 0.25,-0.06 -0.12,-0.1 0.19,-0.03l0.26 0.13c0.01,0 0.03,0.01 0.05,0.01l0.22 -0.01c0.01,-0 0.05,0 0.06,0 0.12,-0.04 0.11,-0.15 0.21,-0.2l0.07 0.96c-0.02,0.01 -0.05,0.01 -0.07,0.02l-0.19 0.02c-0.01,0 -0.04,0 -0.05,0.01 -0.19,0.07 -0.1,0.05 -0.12,0.24 -0.01,-0.35 -0.21,-0.34 -0.22,0.01 -0.12,-0.42 0.01,0.03 -0.23,-0.29l-0.14 0.09c-0.15,0.02 -0.03,-0 -0.15,-0.01 -0.01,-0 -0.1,-0.02 -0.12,-0.03l-0.03 -0.12c-0.22,0.22 -0.21,0.12 -0.33,-0.1l-0.21 0.18 -0.02 -0.59c0.22,-0.18 0.17,0.04 0.22,-0.13 0.01,-0.02 0.03,-0.01 0.04,-0.02zm-1.54 0.43c-0.11,0.19 -0.18,0.22 -0.3,0 0.21,-0.09 0.13,-0.07 0.3,0zm4.22 -0.36c0,-0.59 0.05,-0.68 -0.14,-1.22 0.36,0.07 0.48,0 1,0 -0.26,0.7 -0.2,0.14 -0.72,0.5 0.14,0.11 0.05,0.09 0.29,0.14 0.01,0 0.29,-0.01 0.3,-0.01l0.31 -0.2c0.01,-0.03 0.02,-0.03 0.04,-0.05 0.38,0.32 0.02,0.03 0.5,0.07l0.13 0.05c0.17,0.17 0.03,0.9 0.03,1.15 0.01,0.19 0.04,0.28 0.04,0.48 -0.8,-0.05 -1.09,-0.06 -1.79,0.03 0.02,-0.23 -0.01,-0.16 0.17,-0.22 0.3,-0.1 0.15,0.15 0.41,-0.22 -0.06,-0.61 -0.2,-0.25 -0.57,-0.5zm-10.52 -2.78c-0.01,-0.2 0.18,-0.73 0.4,-0.88 0.26,-0.18 0.84,-0.11 1.21,-0.09l0.05 0.11c0.22,0.4 0.57,0.33 1.15,0.31 0.17,-0.24 0,0.01 0.07,-0.2l0.08 -0.24 1.36 -0c0.33,0.21 -0.01,-0.02 0.17,0.23 0.19,0.26 0.3,0.2 0.76,0.2 1.19,-0.01 6.39,0.05 6.73,-0.06 0.28,-0.09 0.06,-0.01 0.29,-0.28 0.21,-0.26 -0.16,0.04 0.09,-0.08 0.35,-0.09 1.45,0.08 1.93,0.25 0.66,0.24 0.86,-0.19 1.08,-0.19 0.18,0 0.46,-0.03 0.62,0.02 0.19,0.06 0.08,0.09 0.34,0.21 0.3,0.14 0.16,-0.05 0.33,0.24 0.09,0.15 0.13,0.3 0.19,0.47 -2.8,0.05 -1.61,-0.12 -2.27,-0.19 -0.25,-0.03 -0.35,0.1 -0.43,0.13 -0.3,0.13 -13.24,0.05 -14.17,0.04zm-0.38 0.46c0.01,-0 0.04,-0 0.13,-0.09 0.31,-0.32 0.02,-0.23 0.78,-0.24l0.36 0.43 -0.17 0.31 0.15 0.25c0.18,0.08 0.15,-0.01 0.24,0.17 0.21,-0.13 -0.01,-0.06 0.22,-0.14 0.25,-0.09 0.03,-0.03 0.14,-0l-0.01 -0.15c0.04,-0.24 0.28,-0.36 0.43,-0.43 0.44,-0.22 -0.08,0.2 0.12,-0.11 0.21,-0.31 0.14,-0.27 0.46,-0.31l3.6 -0c0.01,0.02 0.01,0.05 0.01,0.07l-0.03 0.21c-0,0 -0.02,0.02 -0.03,0.01 -0,-0.01 -0.02,0.01 -0.03,0.01 0,0 0.08,-0.03 0.09,-0.03 0.26,-0.01 0.01,-0.02 0.2,0.03 -0.11,0.7 -0.08,0.07 -0.21,0.43 0.33,0.07 0.1,-0.03 0.21,0.21 -0.1,0.25 -0.06,0.21 -0.29,0.36 0.23,-0.23 0.13,-0.06 0.29,0.01l-0.06 0.15c0.34,0.06 0.09,0.08 0.45,-0.02l-0.05 0.44 -0.35 -0.01c-0.15,-0.09 -0.19,0.03 -0.07,-0.07l0 0.17 0.07 0.75 -0.64 0.08c0,0.62 0.11,0.53 0.64,0.58 0.05,0.13 0.15,0.34 0.16,0.49 0.3,0.22 0.23,-0.14 0.22,0.14 -0,0.01 -0.06,0.26 -0.07,0.32 -0.09,0.57 -0.01,0.91 -0.02,1.53 -0.01,0.32 0.18,0.41 -0.07,0.5 -0.07,0.24 -0.1,0.18 -0.73,0.28 -0.12,0.52 0.12,0.26 -0.06,1.26 -0.21,1.15 -0.01,0.63 -0.03,1.28 -0.01,0.47 -0.09,0.39 -0.1,1.27 -0,0.19 0.16,0.84 -0.11,1.11 0.19,0.17 0.37,0.53 0.42,0.8 0.05,0.3 -0.07,-0.01 0.03,0.23 0.11,0.27 0.44,0.2 0.44,1.12 -0,0.18 -0.02,0.27 -0.02,0.36l0 5.64c0,0.74 0.07,0.89 -0.35,1.32 0.03,0.1 0.11,0.14 0.1,0.28 -0.01,0.21 0.01,0.02 -0.04,0.13l-0.09 0.12c0.21,0.14 0.22,0.12 0.12,0.55 -0.1,0.4 -0.02,0.47 -0.07,0.72 -0,0.02 -0.02,0.07 -0.03,0.09l-0.02 0.1c-0,0.02 -0,0.04 -0,0.06l0.03 0.75c0,0.13 -0.01,0.27 -0.02,0.39 -0.01,0.1 -0.11,0.56 -0.13,0.68 -0.77,0 -3.43,-0.11 -3.95,0.07 0.11,0 0.08,0.03 0.03,-0.12 -0.41,0.01 -0.5,-0.09 -0.84,0.19 -0.14,0.42 -0.11,0.71 -0.03,1.13 0.36,0.12 0.42,0.16 0.91,0.16 0.15,-0.31 0.53,-0.08 0.68,0.18 0.34,-0.12 0.1,-0.05 0.37,-0.23 0.09,0.17 0.03,0.12 0.04,0.17 0,0.01 0.01,0.03 0.01,0.04l0.33 -0.14c0.07,0.03 0.19,0.11 0.33,0.09 0,-0.18 -0.09,-0.09 -0.05,-0.21 0.18,0.04 0.2,0.06 0.46,0.06 0.04,0.88 0.18,0.27 0.1,1.79 -0.01,0.19 0.04,0.31 0.03,0.54 -0.01,0.61 0.04,1.24 -0.06,1.74 -0.06,0.28 0.08,0.05 0.08,0.52l-1.97 -0.03c-0.71,0.01 -1.44,-0.01 -2.15,0.01 0.02,-0.23 -0.05,-0.12 0,-0.43l0.12 -0.02c0.01,0 0.04,0 0.04,0 0.08,0.03 0.03,-0.01 0.05,0.08 -0.01,-0.02 -0.01,-0.08 -0.01,-0.07 0,0 -0.08,-0.24 0.22,-0.45 0.25,-0.18 0.16,-0.01 0.43,-0.34l1.94 0.06c0.38,0.46 0.6,0.38 1.17,0.06 0.11,-0.68 0.12,-1.47 -0.74,-1.34 -0.32,0.05 -0.27,0.14 -0.43,0.35 -2.63,0.14 -1.67,-0.17 -2.17,-0.32 -0.12,-0.04 -0.57,-0.01 -0.67,0.02 0.07,-0.4 -0.03,-0.98 0.01,-1.69l-0.03 -4.87c0.51,0 0.86,-0.02 0.8,-0.58 -0.05,-0.42 -0.38,-0.52 -0.74,-0.51l-0.03 -9.17c-0,-0.44 0.05,-0.84 0,-1.24 -0.02,-1.29 0.1,-1.46 -0.04,-3 0.41,0.02 0.31,0.12 0.55,-0.03 0.21,-0.13 0.51,-0.55 -0.08,-0.97l-0.62 -0.02 -0.2 0.24c-0.09,0.16 -0.15,0.15 -0.02,0.53 0.04,0.13 0.11,0.09 -0.14,0.09l0 -3.3 5.17 -0c0.28,0 0.59,-0.01 0.86,-0 0.24,0.01 0.2,0.03 0.32,0.06 0.04,0.01 0.05,0.11 0.45,0.02l-0.02 -0.22 -2.55 -0.05c-0.03,0 -0.04,0 -0.07,0 -0.28,0.01 -0.57,0.02 -0.86,0.01 -0.54,-0.01 -1.15,0.02 -1.72,0.02 -0.39,0 -0.49,-0.1 -0.86,-0.05 -0.37,0.05 -0.47,0.06 -0.86,0.06 0,-0.6 0,-1.2 0,-1.79 0,-0.31 -0.04,-0.8 0.02,-1.09 0.08,-0.36 0.19,-0.06 0.09,-0.38l-0.33 0.91c-0.14,0.06 -0.17,0.06 -0.41,0.07 0.09,-0.54 0.35,-1.03 0.53,-1.53 0.49,-1.34 0.28,-1.19 0.83,-1.14l-0.58 1.5zm-1 -0.12c0,-0.87 -0.1,-1.5 0.25,-2.24 0.12,-0.26 0.3,-0.54 0.44,-0.78 0.23,-0.43 0.2,-0.64 0.47,-0.8 -0.01,2.66 0.14,1.82 -0.68,4.11 -0.16,0.45 -0.21,0.8 -0.48,0.99l0 -1.27zm0.16 -2.32c-0.14,-1.68 -0.04,-5.39 -0.02,-7.45l-0 -1.36c0,-0.84 -0.07,-2.1 0.03,-2.9 0.12,0.18 0.28,0.05 0.32,0.24l-0.05 2.92c0.05,2.41 -0.02,5.29 0.06,7.49 0.02,0.6 -0.09,0.65 -0.34,1.05zm21.85 -11.11c-0.26,0.17 -1.14,-0.08 -1.26,-0.42 0.26,-0.04 0.45,0.04 0.7,0.11 0.68,0.19 0.49,0.15 0.56,0.31zm0.13 -0.24l-0.04 0.09c-0.21,-0.21 -1.13,-0.49 -1.46,-0.38l-0.03 -0.64c0.07,-0.64 -0.04,-0.38 0.18,-0.97 0.36,0.01 0.6,0.11 0.92,0.25 0.41,0.18 0.53,0.1 0.57,0.56 -0.4,-0.07 -0.11,-0.06 -0.38,-0.14l0.36 0.16c0.02,0.2 0.02,0.4 0.02,0.6 -0.01,0.29 -0.02,0.34 -0.13,0.47zm-23.1 -0.51c-0.01,0.25 -0.01,0.1 -0.04,0.27 -0.11,0.49 -0.02,0.25 -0.16,0.34l-1.18 0.35c-0.6,0.04 -0.38,-1.55 -0.36,-1.62 0.07,-0.2 0.17,-0.32 0.36,-0.41 0.27,-0.12 0.94,-0.33 1.31,-0.33 -0.08,0.61 0.02,0.38 -0.22,0.52l0.22 0.04 0.06 0.83zm20.18 3.56c0.38,0.57 0.23,0.7 0.23,1.93 0,0.69 0,1.39 0,2.08 0.01,1.41 0.03,2.82 -0.03,4.23 -0.22,-0.24 -0.37,-0.57 -0.35,-1 -0.08,0.1 -0.04,0.03 -0.12,0.19 -0.06,0.13 0.02,0.1 -0.02,0.1 0.26,0.76 0.61,0.94 0.61,1.94 -0,0.8 0.02,1.61 0,2.41l-0.46 0.03c-0.21,-0.28 -1.03,-2.41 -1.03,-2.77l-16.69 0.04c-0.02,-0.21 -0.07,-0.11 0.03,-0.14l-0.04 -0.05c-0.1,-0.08 -0.07,0.11 -0.12,-0.07 -0.01,-0.02 -0.04,-0.01 -0.05,-0.02 0.02,-1.08 0,-2.22 0.01,-3.3 0,-0.55 0,-1.1 0.01,-1.65l0.19 -1.45c0.04,-0.2 0.05,-0.11 0.16,-0.31l0.03 -0.02c-0.16,0.08 -0.1,0.06 -0.22,0.14 -0.04,0.02 -0.11,0.09 -0.12,0.07 -0.01,-0.02 -0.04,0.03 -0.06,0.04 -0.11,-0.62 -0.21,-1.13 -0.35,-1.74 -0.22,-0.95 -0.44,-0.72 0.01,-1.5l-0.08 -0.01c-0.23,0.04 -0.07,0.16 -0.17,-0.09 -0.11,-0.59 0.09,-3.52 0.12,-4.31 0.02,-0.92 -0,-3.19 0.58,-3.73 0.47,-0.43 2.35,-1 3.1,-1.22 1.16,-0.33 2.46,-0.47 3.79,-0.52 2.84,-0.11 5.09,-0.08 7.76,0.72 2.84,0.86 2.81,0.87 2.88,3.59 0.01,0.41 0.04,1.72 0.11,2.02 0.01,-0.79 -0.02,-1.73 -0.09,-2.51 -0.11,-1.28 -0.24,-1.36 0.13,-2.22 0.39,0.65 0.5,3.26 0.46,4.15l-0.35 0.04 0.02 3.41c0.1,-0.26 0.06,-0.75 0.06,-1.08 -0.01,-0.72 0.01,-0.65 0.31,-0.78l-0 3.47 -0.22 -0.1zm-19.06 -4.96c-0.05,-1.29 0.07,-3.09 0.5,-4.21 0.31,0.83 0.21,0.83 0.1,2.03 -0.07,0.73 -0.07,1.47 -0.14,2.18l-0.41 0.01c-0.01,-0.02 -0.03,-0.01 -0.05,-0.01zm3.05 -5.05l-0.85 0.3 -0.3 0.16c-0.69,0.24 -0.34,0.23 -0.84,0.39 0.21,-1.02 0.61,-1.08 1.63,-1.32l0.46 -0.08c0.25,-0.14 1.02,-0.2 1.32,-0.22 -0.37,0.38 -0.64,0.66 -1.42,0.77zm13.1 -0.58c1.02,0.18 2.02,0.37 2.1,1.44 -0.16,-0.07 -0.11,-0.07 -0.24,-0.15 -0.36,-0.22 -1.5,-0.62 -1.91,-0.74 -0.29,-0.09 -0.56,-0.19 -0.76,-0.33 -0.2,-0.14 -0.37,-0.37 -0.48,-0.46l1.29 0.24zm-2.09 -0.23c-0.08,-0.09 -0.23,-0.24 -0.32,-0.33 0.58,0.02 1.07,0.33 1.31,0.83l-1.02 -0.22c-0.14,-0.29 -0,0 0.03,-0.27zm-9.75 0.48c0.25,-0.48 0.72,-0.76 1.27,-0.82 -0.19,0.33 -0.31,0.17 -0.3,0.63l-0.98 0.19z"/>
   <path class="fil2" d="M16.91 41.78l0.03 0.14c0.01,0.02 0.01,0.05 0.02,0.07 0.13,0.28 -0.1,0.05 0.19,0.29 0.09,-0.65 0.2,0.01 0.23,-0.41l-0.02 -0.1c-0.01,-0.02 -0.05,-0.11 -0.06,-0.13 0.03,0.01 0.07,-0.01 0.1,0.03l0.48 -0.17c-0.2,0.46 -0.82,0.59 -0.86,1.08 0.14,0.04 0.29,-0.01 0.42,-0.07 -0.31,0.04 -0.23,0.06 -0.34,0.24l-0.05 0.1c-0,0.01 -0.04,0.14 -0.03,0.24 0.01,0 0.11,0.19 0.39,-0.12 0.02,-0.02 0.05,-0.08 0.07,-0.09l0.17 -0.2 -0.17 -0.3 0.26 -0.29c0.01,-0.01 0.03,-0.03 0.04,-0.04l0.38 -0.4c0.19,-0.2 -0.3,0.11 0.06,-0.05 0.01,-0 0.1,-0.01 0.12,-0.02 -0.12,0.28 0.22,-0.21 -0.09,0.07 -0.12,0.11 -0.04,-0.03 -0.13,0.12 -0.09,0.15 -0.05,0.23 -0.02,0.32 0.32,-0.07 0.19,-0.13 0.36,-0.31l0.19 0.22c0.1,0.13 0.22,-0.18 0.24,-0.2l0.11 0.12c0.28,0.25 0.28,0 0.32,0.24l-0.2 0.06c-0.13,-0.03 -0.18,-0.17 -0.3,-0.2 0,0.02 0.01,0.02 0.02,0.05l0.48 0.77 0.38 -0.25c0.02,-0.02 0.03,-0.04 0.05,-0.06 -0.09,0.31 -0.2,0.25 -0.28,0.49 0.1,-0 0.21,-0.05 0.28,0.01l-0.15 0.17c-0.02,0.01 -0.05,0.03 -0.07,0.05l-0 0.21 -0.19 -0.01c-0.02,0.01 -0.04,0.01 -0.06,0.02 -0.33,0.23 -0.1,-0.02 -0.18,0.35 0.4,0.1 0.34,-0.02 0.57,-0.29l0.17 -0.2c0.06,-0.08 0.15,-0.28 0.26,-0.3l-0.24 0.49c-0.05,0.03 -0.14,0.06 -0.27,0.09 0.2,0.28 0.04,0.04 0.21,0.17 0.01,0.01 0.03,0.02 0.03,0.02 0.31,0.25 -0.02,-0.14 0.14,0.16l0.12 0.29 -0.31 -0.19c-0.09,-0.04 -0.03,-0.04 -0.2,0.05 0.1,-0.29 0.1,-0.14 0,-0.43l-0.14 0.09c-0.02,0.02 -0.04,0.03 -0.06,0.05 -0.02,0.02 -0.03,0.04 -0.05,0.06 -0.02,0.03 -0.02,0.04 -0.04,0.07l-0.07 0.15c-0.08,-0.11 -0.23,-0.32 -0.14,0.05 0.06,0.24 0.14,0.13 0.36,0.09 -0.03,-0.01 -0.18,-0.26 -0.1,0.11l0.19 0.31c0.02,0.02 0.04,0.05 0.05,0.07 -0.03,0.01 -0.13,0.05 -0.15,0.08 -0.09,0.1 -0.05,0.05 -0.13,0.21 0.38,-0.01 0.11,-0.18 0.29,0.27 0.18,-0.16 0.18,-0.18 0.36,-0.3 0.16,0.14 0.08,-0.1 0.02,0.25l-0.03 -0.02c-0,0 -0.02,0.01 -0.02,0.01 -0,0 -0.02,0.02 -0.03,0.02 -0,0 -0.02,0.02 -0.03,0.03 -0,0.01 -0.02,0.03 -0.02,0.03 -0.08,0.44 -0.03,0.02 0.06,0.17l0.18 0.26c-0.48,-0.12 -0.12,-0.15 -0.57,-0.29 0.25,0.57 0.07,0.07 0.32,0.35l0.11 0.19 0.14 -0.18c0.01,-0.01 0.03,-0.02 0.04,-0.03l0.24 -0.33c0.12,0.13 0.09,0.25 0.29,0.26 0.15,0.01 0.14,-0.07 0.29,-0.09 0.02,-0 0.08,0 0.1,0.01l-0.01 -1.59c-0.22,0.02 -0.31,0.07 -0.5,-0.04 -0.59,-0.34 -0.13,-1.26 0.53,-1.03 -0.12,-0.49 0,-3.75 -0.02,-4.77l-0.01 -1.65c0,-0.26 -0.01,-0.63 -0.01,-0.81 -0,-0.14 0.01,-0.53 0.01,-0.77 0,-0.82 0.03,-4.83 -0.05,-5.35 -0.37,-0.11 -0.35,-0.04 -0.68,-0.18 -0.07,-0.68 0,-1 0.77,-0.95 -0.2,-0.34 -0.01,-1.84 -0.08,-2.32l-2.85 -0c-0.43,0 -0.72,-0.11 -0.88,0.24 -0.19,-0.21 0.02,-0.17 -0.37,-0.23 0.02,0.21 0.1,0.4 0.1,0.43 0.02,0.13 -0.04,0.06 -0.08,0.39 -0.05,0.42 -0.05,1.13 0.04,1.55 0.06,0.25 -0.02,0.07 -0.05,0.77l0.01 1.64c0.07,0.63 0.11,-0.08 0.01,0.49l-0.03 2.37c-0.01,0.36 -0.01,0.73 0.01,1.08l-0 3.15c-0,0.36 0,0.72 0,1.08l0.02 1.33c-0,0.26 0.05,0.36 0.05,0.39 0,0.01 -0.14,0.38 -0.08,0.93z"/>
   <path class="fil2" d="M4.57 32.52c0.05,0.4 -0,0.79 -0,1.24l0.03 9.17c0.36,-0.01 0.69,0.09 0.74,0.51 0.06,0.57 -0.29,0.59 -0.8,0.58l0.03 4.87 0.31 0.36c0.02,-0.01 0.05,-0.05 0.06,-0.04 0.01,0.01 0.04,-0.03 0.06,-0.04l0.14 -0.12c0.01,-0.01 0.03,-0.02 0.04,-0.03 0.01,-0.01 0.03,-0.02 0.04,-0.03 0.18,-0.15 0.22,0.16 0.02,-0.35l-0.05 -0.13c-0.01,-0.02 -0.02,-0.04 -0.02,-0.07 0.64,0.2 -0.28,-0.34 0.31,-0.16 -0.08,-0.42 -0.11,-0.7 0.03,-1.13 0.34,-0.28 0.43,-0.17 0.84,-0.19 0.65,-0.01 0.32,-0.07 0.97,-0.47 -0.12,0.33 -0.1,-0.01 -0.19,0.36 0.36,0.15 0.31,0.09 0.69,0.02 0,-0.11 -0.03,-0.17 -0.05,-0.23 -0.12,-0.46 -0.01,0.24 -0.05,-0.15 0.42,0.11 0.31,0.42 0.58,0.42 0.24,-0.28 -0.03,-0.19 -0.2,-0.48 0.01,-0 0.09,-0.02 0.2,-0.01l0.06 -0.38 0.28 0.33c-0.01,-1.75 0.01,-3.67 0,-5.28 -0,-0.37 -0.03,-0.74 -0.01,-1.09 0.04,-0.74 0.04,-3.83 -0.06,-4.21 0.17,-0.29 0.1,-0.03 0.12,-0.42 -0.42,0.16 -0.08,-0.04 -0.27,0.27l-0.26 0.31c-0.38,0.25 0.22,-0.06 -0.12,0.07 -0.04,-0.57 -0.13,-0.26 -0.18,-0.31l-0.23 -0.19c0,0.15 0.05,0.08 -0.24,0.14 0.02,0.01 0.05,0.02 0.08,0.03 0.02,0.01 0.05,0.02 0.07,0.03l0.21 0.22c-0.23,0.04 0.13,0.08 -0.2,-0.02l-0.23 -0.2c-0.19,0.14 -0.07,-0.23 -0.08,0.14 -0,0.16 0.16,0.25 0.22,0.36 -0.2,0.14 -0.13,0.18 -0.31,0.25 -0.03,0.01 -0.11,0.05 -0.12,0.03 -0.01,-0.02 -0.05,0.01 -0.07,0.01 -0.01,0.39 -0.12,0.04 0.14,0.36l-0.37 0.03c-0.02,0.01 -0.04,0.03 -0.06,0.03 -0.02,0.01 -0.06,0.05 -0.07,0.04 -0.01,-0.02 -0.05,0.03 -0.08,0.04l0.22 -0.43c-0.12,0.04 0.04,0.06 -0.12,-0.03 -0.01,-0.01 -0.05,-0.04 -0.07,-0.05l-0.32 -0.42c0,0 0.13,0 0.15,0 0.05,-0.01 0.22,-0.06 0.14,-0.15l-0.03 -0.09c-0.01,-0.01 -0.02,-0.03 -0.03,-0.04l-0.48 -0.5c-0.01,-0.01 -0.03,-0.02 -0.03,-0.03 -0.15,-0.16 -0.1,0.15 -0.14,-0.12 0.15,-0.17 0.08,-0.11 0.29,-0.14 0,-0.02 0.01,-0.05 0.01,-0.07 -0,-0.02 0,-0.05 -0,-0.07l-0.15 -0.22 0.31 0.13c0.01,-0.01 0.03,0.01 0.05,0.01l0.57 -0.65c-0.24,-0.18 -0.23,-0.02 -0.36,-0.14 0.02,-0.01 0.12,0.1 0.06,-0.21 -0,-0.02 -0.12,-0.2 -0.13,-0.22 0.5,0.15 0.34,-0 0.29,0.07l-0.45 -0.49c-0.1,-0.17 -0.03,0.01 -0.13,-0.3 0.29,0.18 -0.01,0.05 0.29,0.13 0.38,0.11 -0.04,0.03 0.21,0.01l-0.39 -0.38c-0.01,-0.01 -0.02,-0.02 -0.03,-0.03l-0.14 -0.14c-0.07,-0.18 -0.2,-0 0.06,-0.24 0.16,0.01 0.22,0.19 0.36,0.21l0.02 -0.17c0.13,-0.21 0.36,-0.17 0.5,-0.35 -0.06,-0.07 -0.06,-0.11 -0.14,-0.08 -0.53,0.24 0.33,-0.3 -0.09,0.12 -0.09,0.09 -0.12,0.01 -0.37,0.2l-0.26 -0.18c-0.19,-0.05 -0.19,0.2 -0.21,0.18 -0.01,-0.01 -0.02,0.05 -0.03,0.07l-0.13 -0.2c-0.01,-0.01 -0.03,-0.02 -0.04,-0.03 -0.02,-0.01 -0.23,-0.05 -0.26,-0.05l0.03 0.18c0.01,0.02 0.01,0.03 0.02,0.05 0.01,0.02 0.02,0.03 0.02,0.05 0.01,0.02 0.11,0.05 0.21,0.3 -0.58,-0.15 -0.08,-0.03 -0.22,0.03l-0.28 0.18c0.03,-0.27 0.14,-0.21 -0,-0.21 0.01,-0.01 0.04,-0.01 0.05,-0.01 0.01,-0 0.04,-0.01 0.05,-0.01 0.53,-0.03 -0.02,0.07 0.27,0.01l-0.07 -0.29 -0.19 0.1c-0.01,0.01 -0.04,0.13 -0.07,0.08 -0,-0.01 -0.02,0.03 -0.03,0.04l-0.38 -0.15c-0.01,0.01 -0.02,0.03 -0.03,0.03l-0.33 0.19z"/>
   <path class="fil3" d="M20.51 13.18c-1.03,-0.13 -1.83,-0.48 -3.57,-0.62 -4.04,-0.33 -6.12,-0.26 -10.05,0.27 -0.5,0.07 -1.39,0.35 -1.75,0.34 -0.11,-0.46 -0.39,-1.06 -0.38,-1.52 3.84,-1.09 8.29,-1.44 12.44,-0.85 1.04,0.15 3,0.5 3.73,0.85l-0.41 1.53zm0.88 0.95c-0.19,-0.26 -0.16,-0.18 -0.43,-0.36l-0.09 -0.06c0.17,-0.34 0.6,-1.89 0.74,-2.43 0.02,-0.08 0.02,-0.09 0.04,-0.16 0.13,-0.36 -0.11,0.23 0.04,-0.11 0.01,-0.01 0.02,-0.04 0.03,-0.05 0.01,-0.01 0.02,-0.04 0.03,-0.05 0.46,0.63 0.21,0.68 0.01,1.54 -0.1,0.45 -0.18,1.33 -0.38,1.69zm-17.62 -3.27l0.08 0.01 0.16 0c-0.03,0.55 0.5,2.32 0.74,2.84l-0.16 0.15 -0.03 0.02c1.24,-0.09 2.77,-0.39 4.13,-0.48 3.5,-0.24 7.72,-0.2 11.18,0.32 0.76,0.11 1.55,0.01 1.48,0.88 0.2,0.3 0.07,2.04 0.07,2.56 0,0.39 -0.07,0.91 0.08,1.24 0.07,0.15 0.36,0.77 0.46,0.84 0.04,-0 -0.05,0.03 0.02,-0.1 0.07,-0.15 0.03,-0.09 0.12,-0.19l0.02 -7.11c0.05,-0.2 -0.02,-0.09 0.13,-0.14 -0.16,-0.32 -0.13,-0.98 -0.16,-1.45l-0.06 0.78c-0.6,-0.57 -0.77,-0.71 -1.71,-0.99 -3.49,-1 -8.88,-0.97 -12.47,-0.47 -0.78,0.11 -1.51,0.25 -2.28,0.45 -0.9,0.23 -1.14,0.36 -1.8,0.83z"/>
   <path class="fil4" d="M14.89 26.16c-0.1,0.36 -0.11,1.97 -0.05,2.13 0.06,0.17 0.05,0.19 0.25,0.23 0.37,0.07 0.21,0.01 0.23,-0.12 0.17,0.35 0.16,0.11 0.28,0.31l0.06 4.24c-0,0.82 -0.27,0.9 -0.06,1.3 -0.53,0.29 -0.79,1.39 -0.67,2.07 0,0.01 0.01,0.02 0.01,0.03l-0.05 0.9c0,0.87 0.13,0.92 0.04,1.26l-0.04 0.44c0.01,0.06 0.02,0.1 0.02,0.21l-0.09 0.9c-0.1,0.42 0.01,-0.34 -0.02,0.08l0.12 2.47c0,0.02 0,0.04 0.01,0.05l0.32 1.31c0.08,0.21 0.06,0.15 0.08,0.42l0.05 0.96c0.1,0.67 -0.04,0.21 -0.02,0.49 0.01,0.19 0.15,0.25 0.13,0.55 -0,0.02 -0.04,0.11 -0.04,0.24 0.16,-0.03 0.06,-0.02 0.18,-0.09 0.5,-0.28 -0.23,-0.01 0.14,-0.09 -0.07,0.31 -0.11,0.01 -0.17,0.38 0.32,0.03 0.3,-0.13 0.35,-0.19 0.09,0.17 0.08,0.27 0.38,0.31 0.21,0.02 0.11,0 0.23,-0.03 0.02,-0 0.06,-0.02 0.08,-0.03 0.01,-0 0.03,-0.01 0.04,-0.01l0.07 -0.03c0.12,-0.86 0.06,-1.84 0.06,-2.73 0,-0.96 -0,-1.78 -0.01,-2.73 -0,-0.58 0.04,-9.49 -0.03,-10.25l0.05 -2.45c0.02,-0.87 -0.11,-1.68 -0.02,-2.58 -0.8,0.05 -0.31,0.1 -0.89,0.02 -0.05,-0.01 -0.95,-0.02 -1.02,0.01z"/>
   <path class="fil5" d="M10.38 43.68l0.09 -0.12c0.05,-0.11 0.03,0.09 0.04,-0.13 0.01,-0.15 -0.07,-0.19 -0.1,-0.28 0.41,-0.43 0.35,-0.59 0.35,-1.32l-0 -5.64c-0,-0.09 0.02,-0.18 0.02,-0.36 0,-0.92 -0.33,-0.85 -0.44,-1.12 -0.1,-0.24 0.02,0.07 -0.03,-0.23 -0.05,-0.28 -0.23,-0.63 -0.42,-0.8 0.26,-0.26 0.1,-0.92 0.11,-1.11 0.02,-0.88 0.09,-0.8 0.1,-1.27 0.01,-0.65 -0.18,-0.12 0.03,-1.28 0.18,-1 -0.06,-0.74 0.06,-1.26 0.63,-0.1 0.66,-0.04 0.73,-0.28 -0.05,-0.62 0.01,-1.73 -0.21,-2.01 -0.01,-0.01 -0.02,-0.03 -0.03,-0.04 -0.27,-0.31 -1.66,-0.32 -1.73,-0.08 -0.1,0.36 -0.07,0.7 -0.05,1.03l-0.04 7.94c-0.02,0.35 0.05,0.72 0.03,1.08 -0.08,1.25 0.03,1.59 -0.02,2.79 -0.09,1.9 0.06,4.12 0.02,5.83l-0.05 0.56c0,0.03 0,0.04 0,0.07l0.07 1.22c0.41,-0.15 0.08,0.02 0.45,0.07 0.2,0.02 0.51,0 0.72,0 -0.01,-0.25 0.1,-0.65 0.11,-0.87l0.01 -1.27c0.06,-0.47 -0.01,-0.47 0.07,-0.72 0.06,-0.21 0.15,-0.15 0.15,-0.15l-0.02 -0.25z"/>
   <path class="fil5" d="M4.99 28.51c0.59,0.42 0.3,0.84 0.08,0.97 -0.24,0.15 -0.14,0.05 -0.55,0.03 0.14,1.54 0.02,1.71 0.04,3l0.33 -0.19c0.01,-0.01 0.02,-0.03 0.03,-0.03l0.38 0.15c0.01,-0.01 0.02,-0.05 0.03,-0.04 0.02,0.05 0.06,-0.07 0.07,-0.08l0.19 -0.1 0.07 0.29c-0.29,0.06 0.26,-0.04 -0.27,-0.01 -0.01,0 -0.04,0 -0.05,0.01 -0.01,0 -0.03,0 -0.05,0.01 0.14,0 0.03,-0.05 0,0.21l0.28 -0.18c0.15,-0.06 -0.35,-0.18 0.22,-0.03 -0.11,-0.24 -0.2,-0.27 -0.21,-0.3 -0.01,-0.02 -0.02,-0.03 -0.02,-0.05 -0.01,-0.02 -0.01,-0.03 -0.02,-0.05l-0.03 -0.18c0.03,0.01 0.24,0.04 0.26,0.05 0.01,0.01 0.03,0.02 0.04,0.03l0.13 0.2c0.01,-0.02 0.03,-0.09 0.03,-0.07 0.01,0.02 0.02,-0.23 0.21,-0.18l0.26 0.18c0.25,-0.19 0.28,-0.11 0.37,-0.2 0.42,-0.42 -0.44,0.13 0.09,-0.12 0.07,-0.03 0.07,0.01 0.14,0.08 -0.14,0.19 -0.38,0.14 -0.5,0.35l-0.02 0.17c-0.14,-0.02 -0.2,-0.2 -0.36,-0.21 -0.26,0.24 -0.13,0.06 -0.06,0.24l0.14 0.14c0.01,0.01 0.02,0.02 0.03,0.03l0.39 0.38c-0.25,0.02 0.17,0.09 -0.21,-0.01 -0.3,-0.08 -0,0.05 -0.29,-0.13 0.09,0.31 0.02,0.13 0.13,0.3l0.45 0.49c0.06,-0.07 0.22,0.08 -0.29,-0.07 0.01,0.02 0.13,0.19 0.13,0.22 0.06,0.31 -0.04,0.2 -0.06,0.21 0.13,0.12 0.12,-0.04 0.36,0.14l-0.57 0.65c-0.02,-0 -0.04,-0.03 -0.05,-0.01l-0.31 -0.13 0.15 0.22c0,0.02 0,0.05 0,0.07 0,0.02 -0.01,0.05 -0.01,0.07 -0.2,0.04 -0.14,-0.02 -0.29,0.14 0.04,0.27 -0.01,-0.04 0.14,0.12 0.01,0.01 0.03,0.02 0.03,0.03l0.48 0.5c0.01,0.01 0.02,0.03 0.03,0.04l0.03 0.09c0.08,0.09 -0.1,0.14 -0.14,0.15 -0.02,0 -0.14,-0 -0.15,-0l0.32 0.42c0.01,0.01 0.05,0.04 0.07,0.05 0.16,0.09 -0,0.07 0.12,0.03l-0.22 0.43c0.03,-0.01 0.06,-0.06 0.08,-0.04 0.01,0.02 0.05,-0.03 0.07,-0.04 0.02,-0.01 0.04,-0.02 0.06,-0.03l0.37 -0.03c-0.26,-0.32 -0.16,0.04 -0.14,-0.36 0.02,-0 0.06,-0.03 0.07,-0.01 0.01,0.02 0.1,-0.02 0.12,-0.03 0.17,-0.07 0.1,-0.11 0.31,-0.25 -0.06,-0.11 -0.22,-0.21 -0.22,-0.36 0,-0.37 -0.11,0.01 0.08,-0.14l0.23 0.2c0.33,0.1 -0.03,0.06 0.2,0.02l-0.21 -0.22c-0.02,-0.02 -0.05,-0.02 -0.07,-0.03 -0.02,-0.01 -0.05,-0.02 -0.08,-0.03 0.29,-0.06 0.24,0.01 0.24,-0.14l0.23 0.19c0.05,0.05 0.14,-0.26 0.18,0.31 0.34,-0.12 -0.26,0.18 0.12,-0.07l0.26 -0.31c0.19,-0.3 -0.15,-0.11 0.27,-0.27 -0.02,0.38 0.06,0.13 -0.12,0.42 0.15,-0.22 0.05,-4.2 0.05,-4.8l-0 -4.87c-0.4,-0.05 -0.17,-0 -0.45,0.04 -0.24,0.04 -2.57,-0.09 -3.04,0.06l0.05 0.5c-0.15,-0.09 0.05,-0.02 -0.14,-0.17 -0.01,-0.01 -0.03,-0.02 -0.03,-0.02 -0.01,-0.01 -0.05,-0.02 -0.06,-0.03 -0.19,-0.16 0.02,-0.26 -0.3,-0.31 -0.08,0.25 0.04,0.83 0.04,1.1 -0,0.55 -0.21,0.86 -0.01,1.22 0.8,-0.28 -0.3,-0.2 0.33,-0.29 0.13,0.35 -0.09,-0.14 -0,0.27z"/>
   <path class="fil4" d="M16.91 41.78l-0.01 4.02c0.04,0.5 0.03,0.66 0.04,1.15 0.52,-0.01 1.22,0.03 1.79,0.05l0.44 0.05c0.22,0.04 -0.03,0.04 0.23,-0.03 0.42,-0.11 0.47,-0.03 0.76,0.13 0.01,0.01 0.32,1.1 -0.3,1.22l-0.14 0.07c0,-0 0.05,-0.33 0.2,0.28 -0.25,-0.04 -0.35,-0.02 -0.42,-0.22l-0.21 0.22 -0.36 -0.21c0.18,0.07 0.11,0.12 0.14,0.35l-0.82 -0.13 -0.18 0.16c-0.12,-0.04 -0.14,-0.08 -0.15,-0.09 -0.27,-0.15 -0.12,0.04 -0.4,-0.03l-0.21 -0.16c-0.29,0.35 -0.2,-0.11 -0.35,0.35 -0.09,0.28 -0.04,2.03 -0.08,1.89 -0,-0.01 -0.01,0.04 -0.02,0.06 -0.05,-0.08 -0.02,0.05 -0.08,-0.18l-0.03 -0.43c0.01,-0.25 0.04,-0.36 -0.05,-0.56 -0.08,0.38 -0.14,0.12 -0.1,0.37l-0 0.45c0,0.01 0,0.03 0.01,0.03 0.05,0.2 0,-0.14 0.13,0.21 0.04,0.47 -0.23,-0.27 -0.07,0.8 0.09,0.64 -0.04,0.27 -0.03,0.79 0.01,0.36 -0.02,0.23 0.14,0.49l-0.79 0.09 4.51 -0.03c-0.1,-0.32 0.04,-0.16 -0.23,-0.34 0.3,-0.15 0.02,-0.02 0.18,-0.22l-0.13 0.22c0.09,0.21 0.14,0.28 0.37,0.36l0.17 0.03c0.05,-0.15 -0.02,-0.18 0.02,-0.23l0.2 -0.66c-0.02,-0 -0.05,-0 -0.07,-0 -1.23,-0.05 -0.43,-0.27 -1.02,-0.32l-1.35 -0c-0.44,-0.01 -0.39,0.05 -0.58,0.3 -0.37,-0.02 -0.47,0.05 -0.82,-0.05 -0.14,-0.29 -0.23,-0.69 -0.17,-1.07 0.07,-0.48 0.46,-0.43 0.93,-0.39 0.16,0.24 0.07,0.25 0.42,0.27 0.21,0.01 0.51,0.02 0.73,0.02 1.27,0.02 0.97,0.01 1.1,-0.31 0.31,-0.04 0.61,-0.01 0.81,-0.03l-0.01 -2.3c0.03,-0.7 0.06,-1.94 -0,-2.62 -0.02,-0.01 -0.09,-0.01 -0.1,-0.01 -0.15,0.02 -0.15,0.1 -0.29,0.09 -0.2,-0.01 -0.17,-0.12 -0.29,-0.26l-0.24 0.33c-0.01,0.01 -0.03,0.02 -0.04,0.03l-0.14 0.18 -0.11 -0.19c-0.24,-0.28 -0.07,0.22 -0.32,-0.35 0.46,0.14 0.09,0.16 0.57,0.29l-0.18 -0.26c-0.09,-0.15 -0.14,0.27 -0.06,-0.17 0,-0.01 0.01,-0.03 0.02,-0.03 0,-0.01 0.02,-0.02 0.03,-0.03 0,-0 0.02,-0.02 0.03,-0.02 0,-0 0.02,-0.01 0.02,-0.01l0.03 0.02c0.06,-0.35 0.14,-0.11 -0.02,-0.25 -0.18,0.12 -0.18,0.14 -0.36,0.3 -0.18,-0.46 0.1,-0.28 -0.29,-0.27 0.08,-0.16 0.04,-0.11 0.13,-0.21 0.03,-0.03 0.12,-0.06 0.15,-0.08 -0.01,-0.03 -0.04,-0.05 -0.05,-0.07l-0.19 -0.31c-0.08,-0.38 0.06,-0.13 0.1,-0.11 -0.22,0.04 -0.3,0.15 -0.36,-0.09 -0.09,-0.37 0.07,-0.16 0.14,-0.05l0.07 -0.15c0.02,-0.03 0.02,-0.04 0.04,-0.07 0.02,-0.03 0.03,-0.04 0.05,-0.06 0.02,-0.02 0.04,-0.04 0.06,-0.05l0.14 -0.09c0.1,0.29 0.1,0.14 0,0.43 0.17,-0.09 0.11,-0.09 0.2,-0.05l0.31 0.19 -0.12 -0.29c-0.16,-0.3 0.17,0.08 -0.14,-0.16 -0.01,-0 -0.02,-0.02 -0.03,-0.02 -0.17,-0.13 -0,0.11 -0.21,-0.17 0.13,-0.03 0.21,-0.05 0.27,-0.09l0.24 -0.49c-0.11,0.02 -0.2,0.22 -0.26,0.3l-0.17 0.2c-0.23,0.27 -0.17,0.39 -0.57,0.29 0.09,-0.37 -0.15,-0.12 0.18,-0.35 0.02,-0.01 0.04,-0.01 0.06,-0.02l0.19 0.01 0 -0.21c0.02,-0.02 0.05,-0.03 0.07,-0.05l0.15 -0.17c-0.07,-0.06 -0.18,-0.01 -0.28,-0.01 0.08,-0.24 0.19,-0.18 0.28,-0.49 -0.02,0.02 -0.03,0.04 -0.05,0.06l-0.38 0.25 -0.48 -0.77c-0,-0.02 -0.02,-0.03 -0.02,-0.05 0.12,0.03 0.17,0.17 0.3,0.2l0.2 -0.06c-0.04,-0.24 -0.04,0 -0.32,-0.24l-0.11 -0.12c-0.01,0.02 -0.14,0.33 -0.24,0.2l-0.19 -0.22c-0.17,0.18 -0.03,0.24 -0.36,0.31 -0.03,-0.09 -0.06,-0.17 0.02,-0.32 0.09,-0.15 0.01,-0.01 0.13,-0.12 0.31,-0.28 -0.03,0.21 0.09,-0.07 -0.02,0.01 -0.11,0.01 -0.12,0.02 -0.36,0.16 0.12,-0.15 -0.06,0.05l-0.38 0.4c-0.01,0.01 -0.03,0.03 -0.04,0.04l-0.26 0.29 0.17 0.3 -0.17 0.2c-0.01,0.02 -0.05,0.08 -0.07,0.09 -0.29,0.31 -0.38,0.12 -0.39,0.12 -0.01,-0.1 0.03,-0.23 0.03,-0.24l0.05 -0.1c0.11,-0.17 0.03,-0.2 0.34,-0.24 -0.13,0.06 -0.28,0.11 -0.42,0.07 0.04,-0.48 0.66,-0.62 0.86,-1.08l-0.48 0.17c-0.02,-0.03 -0.06,-0.01 -0.1,-0.03 0.01,0.02 0.05,0.11 0.06,0.13l0.02 0.1c-0.03,0.42 -0.14,-0.24 -0.23,0.41 -0.28,-0.23 -0.06,-0.01 -0.19,-0.29 -0.01,-0.03 -0.02,-0.05 -0.02,-0.07l-0.03 -0.14z"/>
   <path class="fil6" d="M12.06 47.45c0.4,-0.17 0.04,-0 0.26,-0.17 0.22,-0.16 0.2,-0.24 0.34,-0.13 0.24,0.19 -0.12,-0.28 0.08,0.13l0.04 0.11c0.23,-0.11 -0.04,0.14 0.17,-0.2l0.55 0.2c0.02,0.02 0.05,0.03 0.07,0.05l0.16 -17.58c-0.06,-0.17 -0.28,-0.08 -0.81,-0.07 -0.64,0 -0.59,0.07 -0.93,-0.12 -0.2,0.74 -0.01,3.47 -0.01,4.43 0,1.48 -0,2.97 0,4.45 0,1.5 0.07,2.85 0.07,4.38 0,1.51 0,3.01 0,4.52z"/>
   <path class="fil7" d="M12.67 1.29l0.37 -0.03c0.36,-0.2 4.2,0.23 4.55,0.45 0.33,0.66 0.4,5.6 0.69,6.93 -0.02,-0.07 -0.01,-1.48 -0.01,-1.68 0.03,-1.61 -0.32,-3.88 -0.27,-5.16 0.44,0.01 1.67,0.48 2.16,0.65 1.12,0.41 1.04,0.6 1.09,1.84 0.05,1.37 0.32,4.51 0.08,5.7 -0.16,0.06 -0.26,-0.02 -0.44,-0.1 -0.14,-0.06 -0.32,-0.12 -0.47,-0.17 -0.29,-0.1 -0.66,-0.19 -0.96,-0.26 -3.96,-0.86 -9.38,-0.84 -13.32,0.07 -0.92,0.21 -1.71,0.59 -1.83,0.61 -0.03,-1.87 0.11,-3.86 0.23,-5.72 0.07,-1.13 -0.01,-1.45 0.48,-1.74 0.47,-0.28 2.41,-0.88 2.85,-0.9 0.03,2.11 -0.54,4.72 -0.29,6.83l0.62 -6.86c0.61,-0.26 1.4,-0.31 2.14,-0.39 0.35,-0.04 2.13,-0.23 2.33,-0.05zm-8.9 9.57c0.66,-0.47 0.9,-0.6 1.8,-0.83 0.76,-0.2 1.49,-0.34 2.28,-0.45 3.58,-0.5 8.97,-0.53 12.47,0.47 0.94,0.27 1.11,0.42 1.71,0.99l0.06 -0.78c0.03,0.47 -0,1.12 0.16,1.45l0.22 0.1 0 -3.47c-0.3,0.13 -0.32,0.06 -0.31,0.78 0,0.34 0.05,0.82 -0.06,1.08l-0.02 -3.41 0.35 -0.04c0.04,-0.89 -0.07,-3.5 -0.46,-4.15 -0.37,0.87 -0.24,0.95 -0.13,2.22 0.07,0.78 0.1,1.72 0.09,2.51 -0.07,-0.3 -0.1,-1.61 -0.11,-2.02 -0.07,-2.73 -0.04,-2.74 -2.88,-3.59 -2.67,-0.81 -4.92,-0.83 -7.76,-0.72 -1.33,0.05 -2.63,0.18 -3.79,0.52 -0.75,0.22 -2.64,0.79 -3.1,1.22 -0.59,0.54 -0.56,2.81 -0.58,3.73 -0.02,0.79 -0.23,3.71 -0.12,4.31 0.1,0.25 -0.07,0.13 0.17,0.09z"/>
   <path class="fil8" d="M20.93 11.66c-0.73,-0.35 -2.69,-0.7 -3.73,-0.85 -4.15,-0.59 -8.6,-0.24 -12.44,0.85 -0.01,0.45 0.27,1.05 0.38,1.52 0.36,0.01 1.25,-0.28 1.75,-0.34 3.93,-0.53 6.02,-0.6 10.05,-0.27 1.74,0.14 2.55,0.49 3.57,0.62l0.41 -1.53z"/>
   <path class="fil9" d="M10.8 25.91l0.02 0.22c-0.4,0.09 -0.41,-0.01 -0.45,-0.02 -0.12,-0.03 -0.08,-0.06 -0.32,-0.06 -0.28,-0.01 -0.58,0.01 -0.86,0l-5.17 0 0 3.3c0.25,0 0.18,0.04 0.14,-0.09 -0.13,-0.38 -0.07,-0.37 0.02,-0.53l0.2 -0.24 0.62 0.02c-0.09,-0.41 0.13,0.07 0,-0.27 -0.63,0.09 0.48,0 -0.33,0.29 -0.2,-0.35 0,-0.67 0.01,-1.22 0,-0.28 -0.13,-0.85 -0.04,-1.1 0.33,0.05 0.11,0.15 0.3,0.31 0.01,0.01 0.05,0.02 0.06,0.03 0.01,0 0.03,0.01 0.03,0.02 0.19,0.15 -0.01,0.08 0.14,0.17l-0.05 -0.5c0.48,-0.14 2.81,-0.02 3.04,-0.06 0.28,-0.05 0.05,-0.1 0.45,-0.04l0 4.87c-0,0.6 0.1,4.58 -0.05,4.8 0.1,0.38 0.1,3.47 0.06,4.21 -0.02,0.34 0.01,0.72 0.01,1.09 0,1.61 -0.01,3.52 -0,5.28l-0.28 -0.33 -0.06 0.38c-0.11,-0.01 -0.19,0 -0.2,0.01 0.16,0.29 0.43,0.2 0.2,0.48 -0.27,-0 -0.16,-0.32 -0.58,-0.42 0.04,0.39 -0.07,-0.31 0.05,0.15 0.02,0.06 0.05,0.12 0.05,0.23 -0.38,0.08 -0.33,0.14 -0.69,-0.02 0.09,-0.37 0.07,-0.03 0.19,-0.36 -0.65,0.4 -0.31,0.46 -0.97,0.47 0.05,0.15 0.08,0.12 -0.03,0.12 0.52,-0.18 3.18,-0.07 3.95,-0.07 0.01,-0.13 0.11,-0.58 0.13,-0.68 0.02,-0.12 0.03,-0.26 0.02,-0.39l-0.03 -0.75c0,-0.02 0,-0.04 0,-0.06l0.02 -0.1c0,-0.02 0.02,-0.07 0.03,-0.09 0.05,-0.25 -0.03,-0.31 0.07,-0.72 0.1,-0.42 0.09,-0.4 -0.12,-0.55l0.02 0.25c0,0 -0.09,-0.06 -0.15,0.15 -0.08,0.25 -0.01,0.25 -0.07,0.72l-0.01 1.27c-0,0.22 -0.12,0.62 -0.11,0.87 -0.21,0 -0.52,0.02 -0.72,-0 -0.37,-0.05 -0.05,-0.22 -0.45,-0.07l-0.07 -1.22c-0,-0.03 -0,-0.04 -0,-0.07l0.05 -0.56c0.04,-1.71 -0.11,-3.93 -0.02,-5.83 0.06,-1.2 -0.06,-1.54 0.02,-2.79 0.02,-0.36 -0.05,-0.73 -0.03,-1.08l0.04 -7.94c-0.02,-0.33 -0.05,-0.67 0.05,-1.03 0.07,-0.24 1.46,-0.24 1.73,0.08 0.01,0.01 0.02,0.03 0.03,0.04 0.22,0.28 0.16,1.39 0.21,2.01 0.25,-0.1 0.06,-0.19 0.07,-0.5 0.01,-0.61 -0.06,-0.95 0.02,-1.53 0.01,-0.05 0.07,-0.3 0.07,-0.32 0.01,-0.29 0.08,0.07 -0.22,-0.14 -0.01,-0.15 -0.11,-0.36 -0.16,-0.49 -0.53,-0.06 -0.64,0.04 -0.64,-0.58l0.64 -0.08 -0.07 -0.75c-0.48,-0.13 -0.26,0.07 -0.54,-0.07 -0.34,-0.17 0.24,0.09 -0.08,-0.05 -0.32,-0.14 -5.03,-0.15 -5.32,-0.1 -0.16,0.39 -0.09,1.51 -0.08,1.98l2 -0.02c0.78,0.03 1.58,-0.01 2.12,-0.02 -0.02,-0.45 0.01,-0.58 -0.01,-1.01 0.07,0.26 0.21,0.23 0.13,0.42l-0.09 0.5 0.71 0.11c0.35,0 0.46,-0.04 0.71,-0.15l0.08 0.14c0.58,-0.08 0.44,-0.06 0.54,0.11z"/>
   <path class="fil10" d="M4.57 48.89c-0.04,0.71 0.06,1.29 -0.01,1.69 0.1,-0.03 0.55,-0.06 0.67,-0.02 0.5,0.15 -0.47,0.46 2.17,0.32 0.15,-0.21 0.11,-0.3 0.43,-0.35 0.86,-0.12 0.85,0.66 0.74,1.34 -0.57,0.32 -0.79,0.4 -1.17,-0.06l-1.94 -0.06c-0.27,0.33 -0.18,0.17 -0.43,0.34 -0.29,0.21 -0.22,0.45 -0.22,0.45 -0,-0.01 0,0.05 0.01,0.07 -0.02,-0.09 0.04,-0.05 -0.05,-0.08 -0.01,-0 -0.04,-0 -0.04,-0l-0.12 0.02c-0.05,0.31 0.02,0.21 -0,0.43 0.71,-0.02 1.44,-0 2.15,-0.01l1.97 0.03c-0,-0.47 -0.14,-0.24 -0.08,-0.52 0.1,-0.49 0.05,-1.13 0.06,-1.74 0,-0.23 -0.04,-0.35 -0.03,-0.54 0.09,-1.52 -0.06,-0.91 -0.1,-1.79 -0.25,-0 -0.28,-0.02 -0.46,-0.06 -0.04,0.13 0.05,0.03 0.05,0.21 -0.14,0.02 -0.26,-0.06 -0.33,-0.09l-0.33 0.14c-0,-0.01 -0.01,-0.03 -0.01,-0.04 -0.01,-0.05 0.05,-0 -0.04,-0.17 -0.28,0.17 -0.03,0.11 -0.37,0.23 -0.15,-0.26 -0.53,-0.49 -0.68,-0.18 -0.49,-0 -0.55,-0.04 -0.91,-0.16 -0.58,-0.17 0.33,0.37 -0.31,0.16 0,0.02 0.02,0.05 0.02,0.07l0.05 0.13c0.2,0.5 0.16,0.2 -0.02,0.35 -0.01,0.01 -0.03,0.02 -0.04,0.03 -0.01,0.01 -0.03,0.02 -0.04,0.03l-0.14 0.12c-0.01,0.01 -0.05,0.05 -0.06,0.04 -0.01,-0.02 -0.04,0.03 -0.06,0.04l-0.31 -0.36z"/>
   <path class="fil11" d="M4.03 22.45l-0.04 0.2c0.1,0.32 -0.01,0.02 -0.09,0.38 -0.06,0.28 -0.02,0.78 -0.02,1.09 0,0.6 0,1.2 0,1.79 0.39,0 0.5,-0.02 0.86,-0.06 0.37,-0.05 0.47,0.05 0.86,0.05 0.57,0 1.19,-0.04 1.72,-0.02 0.29,0.01 0.58,-0.01 0.86,-0.01 0.03,-0 0.04,-0 0.07,-0l2.55 0.05c-0.1,-0.17 0.04,-0.19 -0.54,-0.11l-0.08 -0.14c-0.26,0.11 -0.36,0.15 -0.71,0.15l-0.71 -0.11 0.09 -0.5c0.09,-0.18 -0.06,-0.15 -0.13,-0.42 0.02,0.44 -0.02,0.57 0.01,1.01 -0.54,0.01 -1.34,0.04 -2.12,0.02l-2 0.02c-0.01,-0.47 -0.07,-1.59 0.08,-1.98 0.29,-0.05 5,-0.04 5.32,0.1 0.32,0.14 -0.26,-0.12 0.08,0.05 0.28,0.14 0.05,-0.06 0.54,0.07l0 -0.17c-0.12,0.1 -0.08,-0.01 0.07,0.07l-0.05 -0.42 0.06 -0.15c-0.16,-0.07 -0.06,-0.24 -0.29,-0.01 0.23,-0.15 0.18,-0.11 0.29,-0.36 -0.12,-0.24 0.12,-0.15 -0.21,-0.21 0.13,-0.36 0.11,0.27 0.21,-0.43 -0.19,-0.05 0.06,-0.04 -0.2,-0.03 -0.02,0 -0.09,0.03 -0.09,0.03 0.01,0 0.03,-0.01 0.03,-0.01 0,0.01 0.02,-0.01 0.03,-0.01l0.03 -0.21c-0,-0.01 -0,-0.04 -0.01,-0.07l-3.6 0c-0.31,0.04 -0.25,-0 -0.46,0.31 -0.2,0.31 0.32,-0.12 -0.12,0.11 -0.15,0.07 -0.39,0.19 -0.43,0.43l0.01 0.15c-0.11,-0.03 0.11,-0.09 -0.14,0 -0.23,0.08 -0.01,0.01 -0.22,0.14 -0.09,-0.17 -0.06,-0.08 -0.24,-0.17l-0.15 -0.25 0.17 -0.31 -0.36 -0.43c-0.77,0.01 -0.47,-0.07 -0.78,0.24 -0.09,0.09 -0.12,0.09 -0.13,0.09z"/>
   <path class="fil12" d="M4.41 21.99c0.93,0.01 13.87,0.09 14.17,-0.04 0.08,-0.03 0.18,-0.16 0.43,-0.13 0.66,0.07 -0.53,0.24 2.27,0.19 -0.05,-0.17 -0.1,-0.32 -0.19,-0.47 -0.17,-0.3 -0.03,-0.11 -0.33,-0.24 -0.26,-0.12 -0.15,-0.15 -0.34,-0.21 -0.16,-0.05 -0.44,-0.02 -0.62,-0.02 -0.23,0 -0.42,0.43 -1.08,0.19 -0.48,-0.17 -1.58,-0.34 -1.93,-0.25 -0.25,0.13 0.13,-0.18 -0.09,0.08 -0.23,0.28 -0.01,0.19 -0.29,0.28 -0.34,0.11 -5.54,0.06 -6.73,0.06 -0.47,0 -0.57,0.06 -0.76,-0.2 -0.18,-0.25 0.16,-0.01 -0.17,-0.23l-1.36 0 -0.08 0.24c-0.07,0.21 0.1,-0.04 -0.07,0.2 -0.58,0.02 -0.94,0.09 -1.15,-0.31l-0.05 -0.11c-0.37,-0.02 -0.96,-0.09 -1.21,0.09 -0.22,0.16 -0.42,0.69 -0.4,0.88z"/>
   <path class="fil13" d="M4.4 14.2l-0.19 1.45c-0.01,0.55 -0,1.1 -0.01,1.65 -0,1.09 0.02,2.22 -0.01,3.3 0.02,0.01 0.05,0 0.05,0.02 0.05,0.18 0.02,-0.01 0.12,0.07l0.04 0.05c0.63,-0.19 7.06,-0.07 8.29,-0.07 2.79,-0 5.61,-0.06 8.39,-0.02 -0.16,-0.15 0.1,-0.04 -0.27,-0.15l-1.99 -0.04c0.2,-0.27 0.17,-0.19 0.23,-0.65 -0.51,0.3 -0.67,0.23 -1.4,0.22l-7.9 -0c-0.92,0 -2.32,0.15 -3.06,-0.15 0.21,0.48 0.11,0.55 -0.16,0.61 -0.01,0 -1.9,0.07 -2.13,-0.04 -0.01,-0.67 0.08,-5.74 0.2,-6 0.18,-0.38 0.74,-0.37 1.18,-0.42 4.04,-0.5 9.02,-0.66 13.01,-0.12 0.38,0.05 1.71,0.15 1.97,0.33 0.16,0.11 0.29,0.41 0.3,0.39 0.01,-0.01 0.02,0.04 0.04,0.05 -0.06,-0.45 -0.35,-0.59 -0.78,-0.64 -1.11,-0.15 -2.41,-0.37 -3.49,-0.42 -1.7,-0.09 -3.36,-0.15 -5.1,-0.11 -0.89,0.02 -6.54,0.25 -7.05,0.76 -0.46,0.45 -0.28,1.31 -0.36,2.21 -0.01,-0.77 0.08,-1.59 0.05,-2.28z"/>
   <path class="fil2" d="M10.37 49.22c-0.39,0.11 -0.11,0 -0.36,0.23 0.19,-0.2 0.15,0.02 0.2,-0.37 -0.36,-0.15 -0.12,0.09 -0.38,-0.24 -0.69,0.23 0.01,-0.08 -0.7,0.08l-0.21 0.06c-0.01,0.01 -0.03,0.02 -0.03,0.02 -0.14,0.14 -0.11,2.53 -0.07,2.82 0.1,0.69 -0.41,1.22 0.63,1.18l0.68 -0.02c0.46,0 0.5,0.07 1.13,-0.01l-0.15 -2.74c-0.06,-0.19 -0.23,-0.51 -0.46,-0.45 -0.01,0.02 -0.01,0.05 -0.01,0.06l-0 0.11c0.04,0.19 -0.03,-0.06 0.04,0.09 0.17,0.34 0.03,-0.21 0.12,0.17 -0.2,-0.18 -0.03,-0.15 -0.3,-0.29 0.14,-0.25 0.08,0.01 0.14,-0.31 -0.01,-0.01 -0.04,-0.03 -0.05,-0.04 -0.01,-0.01 -0.03,-0.03 -0.04,-0.04l-0.19 -0.31z"/>
   <path class="fil2" d="M15.95 52.99l0.05 -0 0.79 -0.09c-0.17,-0.26 -0.14,-0.13 -0.14,-0.49 -0.01,-0.51 0.12,-0.15 0.03,-0.79 -0.15,-1.07 0.12,-0.34 0.07,-0.8 -0.12,-0.35 -0.07,-0.01 -0.13,-0.21 -0,-0.01 -0.01,-0.03 -0.01,-0.03l0 -0.45c-0.04,-0.25 0.02,0.01 0.1,-0.37 -0.05,-0.27 -0.16,-0.33 -0.37,-0.49l-0.21 -0.16c-0.01,-0.01 -0.03,-0.02 -0.04,-0.03 -0.07,-0.05 0.01,-0.01 -0.12,-0.08 -0.18,-0.1 0.1,-0.02 -0.09,-0.03 -0.02,0.32 0.05,0.09 0.13,0.41 -0.28,-0.08 -0.06,-0.14 -0.37,-0.21 -0.14,0.26 -0.11,0.09 0.01,0.35 -0.29,-0.23 -0.08,-0.18 -0.56,0.24l-0.26 0.3c-0.01,0.01 -0.02,0.03 -0.02,0.03l-0.13 0.19c-0.12,0.25 -0.28,1.3 -0.24,1.61l0.04 0.48c-0.05,0.19 -0.1,0.35 -0.11,0.59 0.58,0.07 0.08,-0.09 0.34,-0.15l1 0.14c0.14,0.03 0.02,0.06 0.25,0.05z"/>
   <path class="fil14" d="M17.14 25.67c0.66,-0.08 3.65,0.09 3.83,-0.02 0.14,-0.09 0.07,-0.71 0.06,-0.82 -0.02,-0.29 0.03,-0.68 -0.01,-0.93 -0.94,-0.08 -2.04,0.02 -2.91,-0l-0.48 0c-0.52,0.01 -0.56,-0.06 -0.58,0.35 -0.01,0.38 -0.07,0.92 0.03,1.25 0,0.01 0.01,0.03 0.01,0.04l0.05 0.13z"/>
   <path class="fil15" d="M15.66 19.83l-0.93 -0.01 -0 -1.4 0.06 -0.26c0.98,-0.01 3.25,-0.11 4.05,0.04 0.08,0.29 0.13,1.23 -0.03,1.53 -0.37,0.24 -2.54,0.11 -3.14,0.1zm-8.8 -0.13c-0.09,-0.26 -0.13,-1.11 -0.01,-1.36 0.15,-0.3 0.88,-0.17 1.26,-0.17 0.95,0 1.9,-0 2.85,0.01 0.04,0.82 0.02,0.74 -0.04,1.65 -0.62,0 -3.68,0.13 -4.07,-0.13zm7.71 -1.25l-0.01 1.04 0.01 0.36c-0.58,-0.08 -0.15,-0 -0.3,-0.23 -0.39,0.14 0.31,-0.17 -0.14,0.12 -0.02,0.01 -0.01,0.04 -0.15,0.08l-0.86 0c-0.03,-0 -0.1,-0.02 -0.12,-0.02l-1.9 0.05 0.01 -1.69 3.44 0.01 0.01 0.28zm-7.87 1.44c0.74,0.3 2.14,0.15 3.06,0.15l7.9 0c0.73,0 0.89,0.08 1.4,-0.22 -0.01,-1.7 0.43,-1.85 -1.4,-1.85l-9.69 -0c-0.54,0 -1.22,-0.13 -1.33,0.43 -0.09,0.42 0.01,1.17 0.07,1.49z"/>
   <path class="fil16" d="M18.5 47.79c-0.37,0.16 -0.5,0.05 -0.67,0.01l0.03 -0.28c0.08,-0.04 -0.08,-0.02 0.16,-0.05 0.01,-0 0.2,-0 0.21,-0 0.21,0.02 0.15,0.01 0.3,0.12l-0.03 0.2zm1.28 -0.3c0.05,0.25 0.06,0.21 -0.19,0.27 -0.03,-0.04 -0.2,-0.09 -0.04,-0.27 0.13,-0.13 0.2,-0.01 0.22,0zm-4.68 0.27c-0.15,-0.29 -0.02,-0.19 0.14,-0.24 0.05,0.23 0.09,0.19 -0.14,0.24zm-1.3 0.32c1.17,0.07 3,0.01 4.28,0.01 0.6,0 0.85,0.1 1.22,-0.22 0.09,0.14 0.1,0.16 0.21,0.29 0.33,0 0.45,0.05 0.5,-0.29 0.11,-0.71 -0.32,-0.94 -0.72,-0.49l-0.09 -0.06c-0.37,-0.21 -4.96,-0.09 -5.42,-0.09l0.01 0.86z"/>
   <path class="fil16" d="M7.07 47.56c0.48,-0.34 0.86,0.18 0.57,0.26l-0.17 0.04c-0.5,0.03 -0.4,-0.21 -0.39,-0.3zm3.24 0.1c-0.11,0.25 -0.12,0.19 -0.22,0.02 0.08,-0.11 -0.05,-0.23 0.22,-0.02zm-4.2 0.08c-0.69,0.03 0.01,-0.68 0,0zm0.06 0.52c0.1,-0.22 -0.03,-0.14 0.13,-0.38 0.2,0.34 0.71,0.22 1.23,0.22 0.48,-0 0.96,0 1.44,0 0.95,-0.01 1.91,-0.01 2.87,-0.01l-0.02 -0.85 -4.29 -0.01c-0.49,-0 -1.01,-0.12 -1.24,0.22 -0.13,-0.27 0.06,-0.3 -0.62,-0.21 -0.1,0.22 -0.08,0.55 -0.04,0.83 0.07,0.06 0.4,0.18 0.53,0.2z"/>
   <path class="fil17" d="M15.95 52.99c-0.22,0.01 -0.11,-0.02 -0.25,-0.05l-1 -0.14c-0.26,0.06 0.25,0.22 -0.34,0.15 0.01,-0.24 0.06,-0.4 0.11,-0.59l-0.04 -0.48c-0.04,-0.31 0.12,-1.36 0.24,-1.61l0.13 -0.19c0,-0.01 0.02,-0.02 0.02,-0.03l0.26 -0.3c0.48,-0.42 0.27,-0.47 0.56,-0.24 -0.11,-0.27 -0.15,-0.09 -0.01,-0.35 0.3,0.07 0.09,0.13 0.37,0.21 -0.08,-0.32 -0.16,-0.09 -0.13,-0.41 0.19,0.01 -0.09,-0.07 0.09,0.03 0.13,0.07 0.05,0.03 0.12,0.08 0.01,0.01 0.03,0.02 0.04,0.03l0.21 0.16c0.21,0.15 0.32,0.22 0.37,0.49 0.09,0.2 0.05,0.32 0.05,0.56l0.03 0.43c0.06,0.23 0.03,0.11 0.08,0.18 0.01,-0.02 0.02,-0.07 0.02,-0.06 0.04,0.15 -0.01,-1.6 0.08,-1.89 0.15,-0.46 0.06,0 0.35,-0.35l0.21 0.16c0.28,0.06 0.13,-0.12 0.4,0.03 0.02,0.01 0.03,0.05 0.15,0.09l0.18 -0.16 0.82 0.13c-0.04,-0.23 0.04,-0.28 -0.14,-0.35l0.36 0.21 0.21 -0.22c0.06,0.19 0.17,0.18 0.42,0.22 -0.16,-0.62 -0.2,-0.29 -0.2,-0.28l0.14 -0.07c-0.33,0 -0.48,0.03 -0.63,-0.14 -0.06,0.3 0.01,0.1 -0.2,0.27 -0.29,-0.34 -0.89,-0.16 -1.52,-0.18 -0.25,-0.01 -0.21,-0.06 -0.51,0.02 -0.02,0 -0.03,0.01 -0.05,0.02 -0.41,0.1 -0.49,-0.01 -0.81,-0.03 -0.12,0.18 0.03,-0.07 -0.06,0.18l-0.27 -0.12c-0.53,-0.19 -0.56,0.92 -1.14,1.13l-0.11 0.02c-0.14,0.07 -0.04,0 -0,0.09 0.28,0.66 -0.25,-0.21 -0.27,1.4 -0,0.15 -0.02,0.45 -0.04,0.59 -0.08,0.58 -0.17,0.26 -0.19,1.37l1.88 0.01z"/>
   <path class="fil18" d="M16.37 18.75c0.38,-0.19 0.49,-0.24 1.07,-0.23 0.55,0.01 0.73,-0.02 0.86,0.43 -0.2,0.32 -0.52,0.48 -1.07,0.45 -0.6,-0.04 -0.91,-0.04 -0.86,-0.65zm-1.64 -0.32l0 1.4 0.93 0.01c0.03,-0.45 -0,-0.13 0.13,-0.27l2.9 -0.01c0.09,-0.28 0.04,-0.89 -0.03,-1.1 -0.14,-0.17 -3,-0.13 -3.12,-0.11 -0.5,0.1 -0.33,0.05 -0.81,0.08z"/>
   <path class="fil19" d="M10.09 18.74c0,0.13 0.02,0.32 0.01,0.44 -0.04,0.48 -0.12,0.32 -1.19,0.35 -0.65,0.02 -1.27,0.03 -1.92,-0.03 -0.01,-0.38 -0.03,-0.78 0.11,-1.07 0.4,-0.1 1.1,-0.06 1.53,-0.05 0.77,0.02 0.67,0.29 1.22,0.32l0.04 -0.42 0.42 0.23c-0.02,0.01 -0.05,0.01 -0.05,0.04 -0.05,0.18 -0.02,-0.02 -0.12,0.11 -0.01,0.01 -0.02,0.06 -0.04,0.07zm-3.23 0.97c0.39,0.26 3.45,0.13 4.07,0.13 0.06,-0.91 0.08,-0.83 0.04,-1.65 -0.95,-0.01 -1.9,-0 -2.85,-0.01 -0.37,-0 -1.11,-0.13 -1.26,0.17 -0.12,0.25 -0.08,1.1 0.01,1.36z"/>
   <path class="fil20" d="M14.35 19.18c-0.03,0.26 0.01,0.26 -0.21,0.13 0.1,-0.09 -0.18,-0.11 0.21,-0.13zm0.22 0.32l0.01 -1.04c-0.31,0.12 0.06,-0.02 -0.29,0.28 -0.51,-0.25 0.12,-0.27 -0.57,-0.3 -0.26,-0.01 -0.64,0.04 -0.81,0.04 -1.69,0.03 -0.82,-0.29 -1.42,0.26 -0.14,-0.08 -0.06,-0.03 -0.15,-0.12l-0.16 -0.19 -0.02 1.11 3.41 -0.05z"/>
   <path class="fil21" d="M12.22 55.62c0.29,-0.14 0.82,-0.19 1.09,0.03 0.31,-0.13 0.16,-0.56 0.18,-0.95 0.01,-0.47 0.14,-2.69 -0.06,-2.95 -0.09,0.12 0.03,-0.12 -0.07,0.13 -0.17,0.44 -0.15,0.88 -0.09,1.35 0.06,0.47 -0,0.39 0,0.82 0,0.45 0.08,0.56 -0.17,0.76 -0.25,-0.74 0.19,-0.66 -0.37,-1.05 -0.09,1.32 0.05,0.8 -0.27,0.9 -0.1,-0.3 -0.15,-1.98 -0.03,-2.27l0.04 0.11c0.08,0.3 -0.03,-0.28 0.03,0.12 0.02,0.11 0.01,0.18 0.01,0.29 -0,0.27 -0.08,0.3 0.09,0.47l0.01 -1.11c-0.37,-0.21 -0.22,-0.31 -0.46,-0.5 0,0.7 -0.13,3.43 0.09,3.86z"/>
   <path class="fil22" d="M17.87 51.88c0.06,-0.08 0.06,-0.11 0.09,-0.15l0.06 -0.09c0.01,-0.01 0.03,-0.02 0.03,-0.05 0.01,-0.08 2.19,-0.06 2.19,-0.06 0.19,0.04 0.08,0.17 0.22,0.35 0.31,0.04 0.51,0.11 0.6,-0.15 0.03,-0.08 0.03,-0.66 0.01,-0.75 -0.04,-0.22 -0.21,-0.31 -0.46,-0.27 -0.26,0.04 -0.15,-0.02 -0.28,0.31l-0.05 0.13c-0.23,-0.19 -1.9,-0.09 -2.2,-0.09l-0.25 -0.34 -0.55 0.03c-0.07,0.21 -0.1,0.6 -0.06,0.87 0.05,0.38 0.29,0.3 0.64,0.26z"/>
   <path class="fil23" d="M14.93 24.77c0.37,0.25 0.52,-0.1 0.57,0.5 -0.26,0.38 -0.11,0.13 -0.41,0.22 -0.18,0.06 -0.15,-0.01 -0.17,0.22 0.7,-0.09 0.99,-0.08 1.79,-0.03 0,-0.21 -0.04,-0.29 -0.04,-0.48 -0.01,-0.25 0.13,-0.98 -0.03,-1.15l-0.13 -0.05c-0.48,-0.04 -0.12,0.25 -0.5,-0.07 -0.02,0.01 -0.03,0.02 -0.04,0.05l-0.31 0.2c-0,0 -0.29,0.01 -0.3,0.01 -0.23,-0.05 -0.15,-0.02 -0.29,-0.14 0.52,-0.36 0.45,0.2 0.72,-0.5 -0.52,0 -0.64,0.07 -1,0 0.2,0.54 0.14,0.63 0.14,1.22z"/>
   <path class="fil24" d="M7.99 51.06c0.08,-0.07 -0.07,-0.08 0.15,-0.05 0.06,0.11 0.07,0.05 0.07,0.24 -0,0.33 0.05,0.25 -0.16,0.38l-0.05 -0.58zm-3.11 0.12l0 0.29c0.02,0.01 0.04,-0 0.04,0.01l0.16 0.08c0.08,0.3 0.02,0.02 -0.05,0.14 -0.38,0.08 -0.33,-0.49 -0.33,-0.62 0.26,-0.09 0.22,-0.16 0.49,-0.06 -0.23,0.33 0.23,-0.08 -0.08,0.1 -0.01,0.01 -0.04,0.03 -0.05,0.03l-0.19 0.02zm0.43 0.34c0.36,0.01 2.13,0.1 2.25,-0.09l0.06 0.44c0.31,0.04 0.63,0.1 0.73,-0.15 0.09,-0.23 0.18,-1.25 -0.58,-1 -0.34,0.11 -0.1,0.13 -0.23,0.44 -0.14,-0.2 -0.62,-0.11 -1.09,-0.11 -0.37,-0 -0.84,-0.05 -1.15,0.05l-0.04 -0.1c-0.01,-0.02 -0.03,-0.08 -0.04,-0.1 -0.09,-0.21 0.11,0.05 -0.09,-0.19 -0.6,-0.02 -0.58,0 -0.58,0.61 -0,0.57 0.05,0.6 0.6,0.57 0.11,-0.15 0.08,-0.24 0.14,-0.37z"/>
   <path class="fil25" d="M14.57 19.5l-3.41 0.05 0.02 -1.11 0.16 0.19c0.09,0.09 0,0.04 0.15,0.12 0.61,-0.55 -0.27,-0.23 1.42,-0.26 0.17,-0 0.55,-0.05 0.81,-0.04 0.68,0.03 0.06,0.04 0.57,0.3 0.35,-0.31 -0.02,-0.16 0.29,-0.28l-0.01 -0.28 -3.44 -0.01 -0.01 1.69 1.9 -0.05c0.02,0 0.1,0.02 0.12,0.02l0.86 0c0.14,-0.04 0.13,-0.07 0.15,-0.08 0.45,-0.29 -0.25,0.02 0.14,-0.12 0.15,0.22 -0.29,0.15 0.3,0.23l-0.01 -0.36z"/>
   <path class="fil26" d="M17.82 56.6c0.09,-0.73 -0.16,-0.53 -0.88,-0.53l-1.58 -0 -1.68 0 0.03 0.53 2.51 0.01 1.6 -0.01z"/>
   <path class="fil27" d="M7.28 19.15c0,-0.36 -0.06,-0.37 0.22,-0.53 0.37,-0.21 1.27,-0.05 1.43,0.18 0.31,0.44 -0.91,0.87 -1.65,0.35zm2.81 -0.41c0.02,-0.02 0.03,-0.06 0.04,-0.07 0.1,-0.12 0.07,0.07 0.12,-0.11 0.01,-0.03 0.04,-0.02 0.05,-0.04l-0.42 -0.23 -0.04 0.42c-0.55,-0.03 -0.44,-0.3 -1.22,-0.32 -0.43,-0.01 -1.13,-0.05 -1.53,0.05 -0.14,0.29 -0.11,0.69 -0.11,1.07 0.64,0.06 1.27,0.05 1.92,0.03 1.08,-0.04 1.16,0.13 1.19,-0.35 0.01,-0.12 -0,-0.31 -0.01,-0.44z"/>
   <path class="fil28" d="M14.73 18.43c0.49,-0.03 0.32,0.02 0.81,-0.08 0.12,-0.02 2.98,-0.06 3.12,0.11 0.07,0.21 0.13,0.82 0.03,1.1l-2.9 0.01c-0.13,0.13 -0.1,-0.19 -0.13,0.27 0.6,0.01 2.78,0.15 3.14,-0.1 0.16,-0.29 0.11,-1.23 0.03,-1.53 -0.8,-0.15 -3.08,-0.05 -4.05,-0.04l-0.06 0.26z"/>
   <path class="fil29" d="M14.81 33.46l0.53 0.06 -0 -3.82c-0.62,0.03 -0.56,-0.11 -0.54,1.81 0,0.26 0.04,0.29 0.02,0.47 -0.12,1.13 0.11,0.5 0.09,0.95 -0.01,0.21 -0.1,0.11 -0.1,0.52z"/>
   <path class="fil7" d="M3.19 6.75c0.02,0.01 0.04,-0 0.05,0.01l0.41 -0.01c0.06,-0.71 0.07,-1.45 0.14,-2.18 0.12,-1.2 0.21,-1.2 -0.1,-2.03 -0.43,1.12 -0.55,2.92 -0.5,4.21z"/>
   <path class="fil30" d="M12.03 56.21c-0.35,-0.21 -1.64,-0.14 -2.13,-0.14 -0.61,0 -1.52,-0.05 -2.09,0.06l0.03 0.43 4.15 -0.06 0.04 -0.29z"/>
   <path class="fil31" d="M10.28 30.15c-0.01,0.47 0.07,0.98 0.05,1.36l-0.04 1.36c0.02,0.01 0.05,0 0.07,0.03 0.12,0.31 -0.01,-0.02 0.12,0.06 0.19,0.11 0.07,-0.1 0.16,0.12l-0.22 0.03c-0.01,0 -0.04,0.02 -0.05,0.02 -0.01,0 -0.03,0.01 -0.05,0.02l0.08 0.36c0.33,0.13 -0.09,-0.19 0.26,-0.03 0.13,0.06 -0.19,0.04 0.19,0.1 0.01,-0.45 -0.06,-1.35 -0.02,-1.68 0.07,-0.53 0.05,-1.21 0,-1.79 -0.08,0.04 -0.21,0.14 -0.22,0.14 -0.06,0 0.04,0.02 -0.12,-0.03 -0.02,-0.01 -0.14,-0.07 -0.21,-0.09z"/>
   <path class="fil32" d="M12.22 55.62c-0,0.03 -0.01,0.05 -0.02,0.08l-0.07 0.37c-0.02,0.27 0.14,0.89 0.22,1.01l0.93 -0c0.22,-0.32 0.23,-0.92 0.2,-1.39 -0.33,0.09 -0.18,0.11 -0.48,0.15 -0.28,0.04 -0.27,-0 -0.5,-0.05 0.11,-0.14 -0.2,-0.38 0.82,-0.13 -0.26,-0.22 -0.79,-0.17 -1.09,-0.03z"/>
   <path class="fil33" d="M14.08 43.23c-0.01,0.27 0.11,0.34 0.12,0.77l0.01 1.87c-0.01,0.62 -0.08,0.52 0.45,0.62 0,-0.38 0.08,-2.96 -0.05,-3.33 -0.2,-0.04 -0.35,-0.02 -0.52,0.07z"/>
   <path class="fil29" d="M10.92 47.08l0.11 -0.25c0.22,0.01 0.06,0.06 0.09,-0.04 0,-0 0,-0.03 0.01,-0.03 0,-0 0,-0.02 0.01,-0.03l0.22 -0.01c-0.05,-0.44 0.01,-0.06 0.06,-0.32l0.09 -3.26 -0.41 0.01c-0.2,0.59 0.02,2.95 -0.06,3.33 -0.04,0.21 -0.22,0.03 -0.27,0.53l0.16 0.06z"/>
   <path class="fil34" d="M2.07 8.15l-0.06 -0.83 -0.22 -0.04c-1.11,0.45 -1.46,0 -1.28,1.56 -0.11,-0.24 1.29,-0.58 1.46,-0.48 0.05,-0.41 -0.02,-0.04 0.1,-0.2z"/>
   <path class="fil35" d="M23.64 7.72l0.03 0.64c0.33,-0.11 1.25,0.17 1.46,0.38l0.04 -0.09c0.02,-0.95 0.2,-0.93 -0.67,-1.21 -0.28,-0.09 -0.51,-0.19 -0.77,-0.16l-0.09 0.43z"/>
   <path class="fil10" d="M0.65 8.9c0.13,-0.21 0.98,-0.45 1.23,-0.36 -0.09,0.22 -0.61,0.37 -0.89,0.43 -0.3,0.06 -0.18,0.05 -0.34,-0.07zm1.42 -0.75c-0.12,0.17 -0.05,-0.21 -0.1,0.2 -0.17,-0.1 -1.57,0.24 -1.46,0.48 -0.18,-1.56 0.17,-1.11 1.28,-1.56 0.24,-0.14 0.13,0.09 0.22,-0.52 -0.38,-0.01 -1.04,0.21 -1.31,0.33 -0.2,0.09 -0.29,0.21 -0.36,0.41 -0.02,0.07 -0.24,1.65 0.36,1.62l1.18 -0.35c0.14,-0.1 0.05,0.15 0.16,-0.34 0.04,-0.17 0.04,-0.01 0.04,-0.27z"/>
   <path class="fil36" d="M19.29 1.67c0.41,0.12 1.55,0.52 1.91,0.74 0.12,0.08 0.07,0.08 0.24,0.15 -0.07,-1.07 -1.08,-1.26 -2.1,-1.44 -0.34,0.1 -0.01,-0.24 -0.19,0.16l0.15 0.39z"/>
   <path class="fil26" d="M12.3 48.57c0.36,0.15 0.25,0.09 0.4,-0.01l0.08 0.21c0.16,-0.07 0.08,-0.11 0.22,-0.24 0.19,0.19 0.05,0.18 0.29,0.14 0.16,-0.26 0.15,-0.83 0.09,-1.17l-1.08 0 0.01 1.06z"/>
   <path class="fil37" d="M7.28 19.15c0.75,0.52 1.96,0.09 1.65,-0.35 -0.17,-0.23 -1.06,-0.4 -1.43,-0.18 -0.28,0.16 -0.22,0.17 -0.22,0.53z"/>
   <path class="fil19" d="M17.96 54.24l-0.02 -0.27 0.78 0.02 -0.02 0.26c0.54,0.11 1.12,0.04 1.67,0.03l0.06 -0.1c0.01,-0.01 0.05,-0.07 0.06,-0.09 0.11,-0.14 -0.08,-0 0.1,-0.1l0.58 0.01 0.14 0.31 0.4 -0.06 0.01 -0.34 -4.26 0.04 0.01 0.31 0.48 -0.01z"/>
   <path class="fil37" d="M16.77 19.02c0.11,-0.33 0.85,-0.54 1.05,-0.07 -0.19,0.46 -0.72,0.25 -1.05,0.07zm-0.4 -0.28c-0.05,0.61 0.26,0.62 0.86,0.65 0.55,0.03 0.87,-0.13 1.07,-0.45 -0.13,-0.46 -0.31,-0.43 -0.86,-0.43 -0.58,-0.01 -0.69,0.04 -1.07,0.23z"/>
   <path class="fil38" d="M23.64 7.72l0.09 -0.43c0.26,-0.03 0.49,0.07 0.77,0.16 0.87,0.28 0.69,0.26 0.67,1.21 0.11,-0.13 0.12,-0.18 0.13,-0.47 0.01,-0.2 -0,-0.4 -0.02,-0.6l-0.36 -0.16c0.27,0.07 -0.03,0.06 0.38,0.14 -0.04,-0.46 -0.16,-0.38 -0.57,-0.56 -0.32,-0.14 -0.56,-0.24 -0.92,-0.25 -0.22,0.59 -0.1,0.33 -0.18,0.97z"/>
   <path class="fil39" d="M4.34 54.01l0.59 0 0.17 0.26 0.93 0.01c0.01,-0.02 0.03,-0.04 0.04,-0.05 0.22,-0.32 -0.01,-0.13 0.18,-0.23l0.14 0.29c0.04,-0 0.36,-0.01 0.37,-0.01 0.27,-0.09 0.11,0.15 0.19,-0.23 -0.03,-0.22 0.07,-0.16 -0.7,-0.15 -0.26,0.01 -0.53,0 -0.79,0.01l-1.22 0c-0.14,0 -0.08,0 -0.2,0.02l-0.09 0.33c0.36,-0 0.3,-0.15 0.4,-0.26z"/>
   <path class="fil40" d="M12.76 26.68c0.4,0.05 0.22,0.5 0.13,0.79l-0.11 -0.6c0.01,0.02 0.02,0.04 0.02,0.06 0,0.02 0.01,0.04 0.02,0.06l-0.08 0.44c-0.12,-0.13 -0.11,-0.08 -0.37,-0.17 -0.01,-0 -0.08,-0.03 -0.13,-0.06l-0.22 0.1 0.14 0.36 0.44 -0.03c0.2,-0.03 -0.22,-0.04 0.17,-0 0.3,0.03 -0.04,0.1 0.19,0.03l0.19 -0.08c0,0 0.01,0.01 0.02,0.01l0.04 0.02c0.04,-0 0.1,-0.16 0.34,-0.04 0.02,0.01 0.04,0.03 0.06,0.03 0.02,0.01 0.04,0.02 0.06,0.04l0.02 -0.26 -0.32 -0.43 0.02 0.44 -0.21 -0.01c-0.2,-0.81 0.01,-0.55 0.1,-0.61 0.19,-0.15 -0.12,-0.08 0.18,-0.03 0.02,0 0.04,0.01 0.06,0.01l0.18 0.02c-0.02,-0.17 -0.04,-0.14 -0.16,-0.36 0.04,0.04 0.18,-0.08 -0.02,0.07 -0,0 -0.02,0.01 -0.02,0.02 -0.1,0.05 -0.01,-0.03 -0.32,-0.01 -0.01,0 -0.03,-0.01 -0.04,-0.01l-0.09 0.03c-0,0 -0.03,0 -0.03,0l-0.06 -0.01c-0.01,-0 -0.11,-0.23 -0.05,-0.03 -0.22,0.09 -0.05,0 -0.14,0.19z"/>
   <path class="fil21" d="M12.98 25.41c-0.06,-0.35 -0.11,-0.32 0.06,-0.65 0.01,0.05 -0.18,0.03 0.23,0.04 0.03,0 0.19,0 0.2,0l0.09 0.02c0.09,0.31 0.11,0.04 -0.02,0.36 -0.09,0.03 0,0.06 -0.15,-0.11l-0.11 0.35c-0.12,-0.13 -0.11,-0.1 -0.14,-0.26 -0.13,0.45 -0.05,0.15 -0.16,0.24zm-0.73 -0.72l0.1 0.14c0.47,-0.17 0.1,-0.15 0.31,-0.07 0.1,0.36 0.09,0.37 -0.08,0.7 0.02,0.01 0.11,0.02 0.12,0.03 0.11,0.01 -0.01,0.03 0.15,0.01l0.14 -0.09c0.24,0.32 0.11,-0.13 0.23,0.29 0.01,-0.34 0.21,-0.36 0.22,-0.01 0.02,-0.19 -0.08,-0.17 0.12,-0.24 0.01,-0 0.04,-0 0.05,-0.01l0.19 -0.02c0.02,-0 0.05,-0 0.07,-0.02l-0.07 -0.96c-0.09,0.05 -0.09,0.16 -0.21,0.2 -0.01,0 -0.05,-0 -0.06,-0l-0.22 0.01c-0.01,-0 -0.03,-0.01 -0.05,-0.01l-0.26 -0.13c-0.31,-0.07 0.06,-0.03 -0.19,0.03 -0.55,0.13 -0.34,-0.1 -0.34,0.07 -0.21,0.18 -0.04,0.05 -0.22,0.07z"/>
   <path class="fil26" d="M18.57 57.06c0.1,-0.41 0.07,-0.83 0.02,-1.22 -1.01,-0.07 -0.52,0.26 -0.53,0.79 -0,0.33 -0.16,-0.12 -0.03,0.45l0.54 -0.02z"/>
   <path class="fil40" d="M7.73 56.42c0.02,-0.19 0.04,-0.49 -0.11,-0.57 -0.07,-0.03 -0.42,-0.03 -0.48,0.03 -0.16,0.13 -0.08,0.97 -0.02,1.19 0.27,0.04 0.34,0.06 0.56,-0.08 -0,-0.49 0.02,0.04 -0.23,-0.36l0.28 -0.22z"/>
   <path class="fil29" d="M5.4 2c-0.33,-0.07 -0.01,0.16 -0.21,-0.13 0.31,-0.14 0.17,-0.17 0.29,-0.35 0.12,-0.18 0.25,-0.15 0.41,-0.3 -1.02,0.24 -1.42,0.3 -1.63,1.32 0.5,-0.16 0.15,-0.15 0.84,-0.39l0.3 -0.16z"/>
   <path class="fil41" d="M5.89 1.23c-0.16,0.15 -0.3,0.12 -0.41,0.3 -0.12,0.18 0.02,0.21 -0.29,0.35 0.21,0.29 -0.11,0.06 0.21,0.13l0.85 -0.3c0.03,-0.07 0.13,-0.33 0.14,-0.35 0.06,-0.24 0.14,-0.08 -0.04,-0.2l-0.46 0.08z"/>
   <path class="fil42" d="M12.02 27.31l0.22 -0.1c0.05,0.03 0.11,0.05 0.13,0.06 0.26,0.09 0.25,0.03 0.37,0.17l0.08 -0.44c-0,-0.02 -0.01,-0.05 -0.02,-0.06 -0,-0.02 -0.01,-0.04 -0.02,-0.06l0.11 0.6c0.09,-0.29 0.27,-0.74 -0.13,-0.79l-0.54 0.07c-0.02,0 -0.08,0 -0.09,0 -0.01,0 -0.03,0.01 -0.04,0.01 -0.01,0 -0.03,0.01 -0.04,0.01l-0.03 0.53z"/>
   <path class="fil43" d="M6.34 1.15c0.18,0.12 0.1,-0.04 0.04,0.2 -0.01,0.02 -0.11,0.28 -0.14,0.35 0.77,-0.11 1.05,-0.39 1.42,-0.77 -0.29,0.02 -1.07,0.07 -1.32,0.22z"/>
   <path class="fil44" d="M3.59 28.46c-0.17,0.11 -0.18,-0.15 -0.18,0.69 0,0.23 -0.07,0.68 0.19,0.69 0.27,0.01 0.22,-0.83 0.19,-1.05 -0.04,-0.39 0.02,-0.19 -0.2,-0.32z"/>
   <path class="fil45" d="M17.26 0.9c-0.03,0.28 -0.17,-0.01 -0.03,0.27l1.02 0.22c-0.24,-0.5 -0.73,-0.8 -1.31,-0.83 0.09,0.09 0.23,0.25 0.32,0.33z"/>
   <path class="fil45" d="M7.51 1.38l0.98 -0.19c-0.01,-0.46 0.11,-0.3 0.3,-0.63 -0.56,0.06 -1.03,0.34 -1.27,0.82z"/>
   <path class="fil46" d="M3.59 42.92c-0.17,0.07 -0.18,0.03 -0.21,0.29 -0.05,0.51 -0.07,0.98 0.21,1.08 0.23,-0.26 0.22,-1.12 0,-1.36z"/>
   <path class="fil47" d="M12.57 25.46c0.17,-0.32 0.18,-0.34 0.08,-0.7 -0.21,-0.08 0.17,-0.1 -0.31,0.07l-0.1 -0.14c-0.01,0.01 -0.04,-0 -0.04,0.02 -0.05,0.16 -0,-0.05 -0.22,0.13l0.02 0.59 0.21 -0.18c0.12,0.22 0.11,0.32 0.33,0.1l0.03 0.12z"/>
   <path class="fil47" d="M19.29 1.67l-0.15 -0.39c0.18,-0.39 -0.15,-0.05 0.19,-0.16l-1.29 -0.24c0.11,0.09 0.29,0.31 0.48,0.46 0.2,0.14 0.47,0.23 0.76,0.33z"/>
   <path class="fil48" d="M16.77 19.02c0.33,0.18 0.86,0.39 1.05,-0.07 -0.2,-0.47 -0.94,-0.26 -1.05,0.07z"/>
   <path class="fil43" d="M25.05 8.9c-0.07,-0.16 0.12,-0.11 -0.56,-0.31 -0.25,-0.07 -0.43,-0.15 -0.7,-0.11 0.12,0.34 1,0.58 1.26,0.42z"/>
   <path class="fil47" d="M12.98 25.41c0.11,-0.08 0.03,0.22 0.16,-0.24 0.03,0.16 0.03,0.13 0.14,0.26l0.11 -0.35c0.15,0.17 0.06,0.14 0.15,0.11 0.13,-0.32 0.11,-0.05 0.02,-0.36l-0.09 -0.02c-0,0 -0.17,-0 -0.2,-0 -0.41,-0.02 -0.22,0 -0.23,-0.04 -0.18,0.33 -0.13,0.3 -0.06,0.65z"/>
   <path class="fil47" d="M13.67 27.38l0.01 -0.6 -0.18 -0.02c-0.02,-0 -0.04,-0.01 -0.06,-0.01 -0.3,-0.05 0.01,-0.12 -0.18,0.03 -0.09,0.07 -0.3,-0.19 -0.1,0.61l0.21 0.01 -0.02 -0.44 0.32 0.43z"/>
   <path class="fil47" d="M0.65 8.9c0.16,0.12 0.04,0.13 0.34,0.07 0.28,-0.05 0.79,-0.2 0.89,-0.43 -0.25,-0.09 -1.09,0.15 -1.23,0.36z"/>
   <path class="fil5" d="M14.84 28.93c-0.07,0.31 0.01,0.23 0.01,0.58l0.43 0.12c-0.02,-0.48 0.08,-0.36 -0,-0.69l-0.44 -0z"/>
   <path class="fil49" d="M17.86 47.53l-0.03 0.28c0.17,0.03 0.29,0.15 0.67,-0.01l0.03 -0.2c-0.14,-0.11 -0.09,-0.1 -0.3,-0.12 -0.01,-0 -0.2,-0 -0.21,0 -0.24,0.03 -0.08,0.01 -0.16,0.05z"/>
   <path class="fil49" d="M7.07 47.56c-0.01,0.1 -0.11,0.34 0.39,0.3l0.17 -0.04c0.3,-0.08 -0.09,-0.6 -0.57,-0.26z"/>
   <path class="fil50" d="M7.79 54.13c-0.09,-0.19 0.05,-0.18 -0.4,-0.17l-0.37 0.1c0.05,0.27 -0.04,0.23 0.37,0.23 0.38,-0 0.28,0.04 0.4,-0.16z"/>
   <polygon class="fil51" points="17.96,54.24 18.71,54.25 18.73,53.99 17.95,53.97 "/>
   <path class="fil52" d="M5.07 51.16c0.01,-0.01 0.04,-0.03 0.05,-0.03 0.31,-0.18 -0.14,0.23 0.08,-0.1 -0.27,-0.11 -0.23,-0.03 -0.49,0.06 -0,0.14 -0.05,0.7 0.33,0.62 0.07,-0.12 0.13,0.16 0.05,-0.14l-0.16 -0.08c-0,-0.01 -0.02,-0 -0.04,-0.01l-0 -0.29 0.19 -0.02z"/>
   <path class="fil53" d="M22.18 53.14c0.14,-0.06 0.24,-0.06 0.23,-0.31 -0.01,-0.24 -0.09,-0.22 -0.32,-0.24 -0.06,0.31 -0.1,0.35 0.09,0.55z"/>
   <path class="fil54" d="M10.69 23.98l0.35 0.01 0.05 -0.44c-0.36,0.09 -0.11,0.07 -0.45,0.02l0.05 0.42z"/>
   <polygon class="fil55" points="21.18,54 20.6,53.99 20.58,54.22 21.21,54.2 "/>
   <path class="fil24" d="M20.77 43.84c-0.04,-0.16 -0.04,-0.09 -0.1,-0.2 -0.07,-0.14 -0.04,0 -0.09,-0.21 0.23,-0.3 0.1,0.03 0.26,-0.34 -0.55,0.15 -0.56,0.61 -0.08,0.76z"/>
   <path class="fil56" d="M3.37 53.13c0.08,-0.03 0.24,0.04 0.22,-0.3 -0.02,-0.25 -0.06,-0.18 -0.22,-0.21 -0.13,0.22 -0.13,0.29 0,0.51z"/>
   <path class="fil57" d="M10.92 47.08c0.42,-0.14 -0.09,-0.03 0.48,0.04l-0.05 -0.4 -0.22 0.01c-0,0.01 -0.01,0.03 -0.01,0.03 -0,0 -0,0.03 -0.01,0.03 -0.03,0.1 0.13,0.05 -0.09,0.04l-0.11 0.25z"/>
   <path class="fil58" d="M21.18 43.5c-0.1,0.19 -0.12,0.16 -0.23,0.29 0.36,-0.02 0.35,-0.08 0.36,-0.45 -0.21,-0.2 -0.08,-0.15 -0.36,-0.21 0.05,0.15 0.03,0.07 0.11,0.19 0.13,0.19 0,-0.08 0.12,0.18z"/>
   <path class="fil22" d="M20.83 29.37c-0.15,-0.22 -0.31,-0.26 -0.13,-0.48 0.01,-0.01 0.06,-0.07 0.07,-0.09l0.08 -0.1c-0.57,0.11 -0.54,0.6 -0.02,0.67z"/>
   <polygon class="fil29" points="4.93,54.01 4.34,54.01 4.38,54.21 4.91,54.2 "/>
   <path class="fil59" d="M21.17 29.07l-0.22 0.25c0.47,-0.03 0.55,-0.51 -0.01,-0.63 0.15,0.3 0.13,0.06 0.22,0.38z"/>
   <path class="fil60" d="M8.13 51.01c-0.22,-0.03 -0.06,-0.03 -0.15,0.05l0.05 0.58c0.21,-0.13 0.16,-0.06 0.16,-0.38 0,-0.19 -0.01,-0.13 -0.07,-0.24z"/>
   <path class="fil49" d="M12.67 1.29l0.05 0.26c0.31,0.07 0.32,-0.01 0.33,-0.29l-0.37 0.03z"/>
   <path class="fil61" d="M11.1 43.03c0.03,0 0.21,0.01 0.24,0 0.18,-0.05 0.08,-0.02 0.19,-0.1 -0.14,-0.32 -0.39,-0.18 -0.43,0.1z"/>
   <path class="fil62" d="M19.6 47.76c0.25,-0.06 0.24,-0.01 0.19,-0.27 -0.03,-0.01 -0.1,-0.13 -0.22,0 -0.17,0.17 0.01,0.22 0.04,0.27z"/>
   <path class="fil63" d="M14.21 27.88c0.09,-0.21 0.09,-0.38 0,-0.59 -0.16,0.11 -0.15,0.5 0,0.59z"/>
   <path class="fil54" d="M6.11 47.74c0.01,-0.68 -0.69,0.03 0,0z"/>
   <path class="fil64" d="M14.05 42.93c0.11,0.07 -0.16,0.1 0.16,0.07 0.17,-0.01 0.1,-0.03 0.17,-0.07 -0.11,-0.26 -0.25,-0.3 -0.34,0z"/>
   <path class="fil65" d="M15.11 47.77c0.23,-0.05 0.19,-0.02 0.14,-0.24 -0.16,0.05 -0.29,-0.05 -0.14,0.24z"/>
   <path class="fil51" d="M14.8 25.12c0.09,0.21 0.06,0.19 0.27,0.07 -0.06,-0.13 0.06,-0.07 -0.09,-0.12 -0.24,-0.07 -0.16,0.03 -0.18,0.04z"/>
   <path class="fil51" d="M10.41 25.12c0.12,0.22 0.18,0.19 0.3,0 -0.17,-0.07 -0.09,-0.09 -0.3,0z"/>
   <path class="fil66" d="M10.09 47.68c0.1,0.17 0.12,0.23 0.22,-0.02 -0.27,-0.21 -0.15,-0.09 -0.22,0.02z"/>
   <path class="fil46" d="M14.14 19.31c0.23,0.13 0.18,0.12 0.21,-0.13 -0.39,0.02 -0.11,0.04 -0.21,0.13z"/>
  </g>
 </g>
</svg>
