<?xml version="1.0" encoding="UTF-8"?>
<!DOCTYPE svg PUBLIC "-//W3C//DTD SVG 1.1//EN" "http://www.w3.org/Graphics/SVG/1.1/DTD/svg11.dtd">
<!-- Creator: CorelDRAW -->
<svg xmlns="http://www.w3.org/2000/svg" xml:space="preserve" width="1.9608mm" height="4.6mm" version="1.1" style="shape-rendering:geometricPrecision; text-rendering:geometricPrecision; image-rendering:optimizeQuality; fill-rule:evenodd; clip-rule:evenodd"
viewBox="0 0 8.42 19.75"
 xmlns:xlink="http://www.w3.org/1999/xlink"
 xmlns:xodm="http://www.corel.com/coreldraw/odm/2003">
 <defs>
  <style type="text/css">
   <![CDATA[
    .fil64 {fill:#020101}
    .fil49 {fill:#030200}
    .fil56 {fill:#040300}
    .fil0 {fill:#060501}
    .fil60 {fill:#090601}
    .fil9 {fill:#0B0C0C}
    .fil58 {fill:#0C0A00}
    .fil4 {fill:#0D0D0E}
    .fil41 {fill:#111214}
    .fil46 {fill:#121314}
    .fil33 {fill:#151101}
    .fil19 {fill:#151516}
    .fil20 {fill:#161718}
    .fil18 {fill:#19191A}
    .fil61 {fill:#1B1500}
    .fil5 {fill:#1B1C1D}
    .fil10 {fill:#1E1F20}
    .fil24 {fill:#1F2021}
    .fil23 {fill:#202122}
    .fil16 {fill:#232425}
    .fil21 {fill:#241B01}
    .fil8 {fill:#272728}
    .fil11 {fill:#29292A}
    .fil12 {fill:#2D2D2D}
    .fil14 {fill:#2F2F30}
    .fil22 {fill:#313132}
    .fil42 {fill:#4E4E4F}
    .fil63 {fill:#544302}
    .fil48 {fill:#5F5F60}
    .fil65 {fill:#664A01}
    .fil47 {fill:#6C6C6C}
    .fil66 {fill:#796504}
    .fil51 {fill:#7C6302}
    .fil52 {fill:#880202}
    .fil50 {fill:#970302}
    .fil67 {fill:#B36060}
    .fil32 {fill:#B58B03}
    .fil54 {fill:#BEBEC1}
    .fil44 {fill:#C5A204}
    .fil43 {fill:#C80201}
    .fil55 {fill:#CA666B}
    .fil45 {fill:#CBA404}
    .fil53 {fill:#CCCCCE}
    .fil40 {fill:#CD9301}
    .fil57 {fill:#D08D92}
    .fil39 {fill:#D59A01}
    .fil28 {fill:#DA9D01}
    .fil68 {fill:#DCB304}
    .fil15 {fill:#DDA202}
    .fil13 {fill:#E2A502}
    .fil31 {fill:#E5AB02}
    .fil30 {fill:#ECBC04}
    .fil26 {fill:#F4C404}
    .fil59 {fill:#F5CA04}
    .fil2 {fill:#F6C106}
    .fil3 {fill:#F9C50C}
    .fil62 {fill:#F9C906}
    .fil35 {fill:#F9D758}
    .fil27 {fill:#FAC605}
    .fil29 {fill:#FAC90D}
    .fil6 {fill:#FCC90C}
    .fil37 {fill:#FCD64B}
    .fil38 {fill:#FCD654}
    .fil36 {fill:#FCDA5B}
    .fil34 {fill:#FCDB62}
    .fil1 {fill:#FDC909}
    .fil7 {fill:#FDCC1A}
    .fil25 {fill:#FDCD1E}
    .fil17 {fill:#FDD12C}
   ]]>
  </style>
 </defs>
 <g id="Camada_x0020_1">
  <metadata id="CorelCorpID_0Corel-Layer"/>
  <g id="_1769276549008">
   <path class="fil0" d="M7.43 11.73c0,-0.11 -0.01,-0.2 0.03,-0.29 0.07,0.01 0.14,-0.03 0.09,0.3l-0.11 -0.01zm-3.27 -11.73l0.12 0c0.25,0 0.52,0.03 0.75,0.05 0.26,0.02 0.54,0.05 0.74,0.12 0.48,0.16 1.19,0.71 1.44,1.15 0.1,0.18 0.17,0.42 0.22,0.64 0.18,0.77 0.16,1.36 0.16,2.16l-0.05 0.94c0.2,0.02 0.41,0.12 0.56,0.21 0.2,0.12 0.28,0.29 0.31,0.43l0 0.18c-0.01,0.07 -0.04,0.12 -0.07,0.12 -0.17,0 -0.65,-0.14 -0.77,-0.2l-0 1.19c0,0.16 0.03,0.21 0.03,0.37 -0,0.26 -0,0.53 -0,0.79 0,0.58 -0,0.25 0.08,0.52 0.04,0.13 0.02,0.57 0.02,0.74 0,0.22 -0.07,0.23 -0.07,0.35l0 2.52c0,0.11 0.06,0.11 0.08,0.27 0.02,0.2 0.04,0.54 0.01,0.75 -0.07,0.43 -0.04,0.06 -0.01,0.54l0.05 1.53c0,0.37 -0.1,1.69 -0.15,2.14 -0.05,0.44 -0.28,1.41 -0.56,1.69 -0.16,0.17 -0.38,0.22 -0.63,0.29 -0.12,0.04 -0.24,0.09 -0.37,0.1l-1 0.11c-0.07,0.02 0.02,-0.01 -0.05,0.03l-0.03 0.02c-0.02,0.01 -0.08,0.02 -0.17,0.02l-1.3 0c-0.1,0 -0.1,-0.04 -0.16,-0.06 -0.07,-0.02 -0.13,-0.01 -0.2,-0.02 -0.61,-0.06 -0.57,-0.04 -1.13,-0.2 -0.25,-0.07 -0.45,-0.12 -0.61,-0.28 -0.18,-0.18 -0.2,-0.33 -0.29,-0.58 -0.34,-0.94 -0.28,-1.42 -0.37,-2.3 -0.08,-0.79 -0.07,-1.65 -0.01,-2.44 0.04,-0.4 0.08,-0.24 0,-0.52 -0.04,-0.13 -0.02,-0.45 -0.02,-0.62 0,-0.36 0.1,-0.38 0.1,-0.44l0 -2.54c0,-0.09 -0.06,-0.14 -0.07,-0.27 -0.09,-0.79 0.09,-0.92 0.1,-1.06 0.01,-0.27 -0,-0.59 -0,-0.87 0,-0.31 0.02,-0.54 0.02,-0.86 0,-0.29 0,-0.58 0,-0.86 -0.11,0 -0.29,0.07 -0.4,0.1l-0.4 0.1c-0.03,-0.04 -0.07,-0.09 -0.07,-0.15 0,-0.29 0.11,-0.46 0.29,-0.58 0.12,-0.08 0.43,-0.22 0.6,-0.24 -0.05,-0.62 -0.05,-0.89 -0.05,-1.51 0,-0.64 0.1,-1.72 0.39,-2.23 0.16,-0.29 0.35,-0.42 0.51,-0.58 0.15,-0.14 0.19,-0.16 0.36,-0.28l0.56 -0.3c0.26,-0.09 1.13,-0.16 1.5,-0.17zm-3.15 11.73l-0.12 0.01c-0,-0.05 -0.01,-0.17 -0,-0.22 0.01,-0.09 0.02,-0.08 0.12,-0.09l0.01 0.29zm6.47 -0.9c0.07,0.03 0.04,-0.01 0.06,0.06 0,0 0.01,0.09 0.01,0.1 0,0.19 0.01,0.13 -0.09,0.15 -0.03,-0.05 -0.01,0.04 -0.02,-0.07 -0,-0.01 -0,-0.07 -0,-0.08 0,-0.13 0.01,-0.12 0.04,-0.16zm-6.56 -3.4c-0.04,-0.22 0.05,-0.2 0.07,-0.21 0.03,0.04 0.03,0.03 0.03,0.16 -0,0.17 -0.03,0.12 -0.06,0.14 -0.04,-0.06 -0.02,0.05 -0.04,-0.09zm-0.77 -1.62c-0.03,0.02 -0.04,0.03 -0.07,0.05 -0.01,-0.11 0,-0.24 0.07,-0.3 0.01,-0.06 -0.02,-0.01 0.03,-0.08l0.18 -0.14c0.1,-0.06 0.19,-0.11 0.3,-0.12 0.02,-0.02 -0.02,-0.02 0.08,-0.05 0.07,-0.02 0.04,-0.01 0.09,-0 0.02,-0.01 -0.03,-0.03 0.09,-0.02 0.03,0.11 0.02,0.27 0.01,0.38 -0.16,0.08 -0.48,0.1 -0.78,0.29zm7.77 -0.55c0.14,0.02 0.34,0.18 0.37,0.31 0.06,0.09 0.06,0.16 0.06,0.28 -0.28,-0.14 -0.46,-0.26 -0.85,-0.33l0.01 -0.39c0.14,-0 0.33,0.04 0.41,0.12zm-6.89 -0.04l-0.02 -0.03c-0.08,-0.18 0,-0.39 -0,-0.48l-0.04 -0.16c0.24,-0.02 0.16,0.07 0.16,0.25 -0,0.15 0.03,0.25 0.01,0.39l-0.12 0.03zm5.84 -3.67c-0.03,-0.24 -0.34,-0.56 -0.47,-0.7 -0.12,-0.05 -0.12,-0.09 -0.19,-0.17 -0.07,-0.08 -0.09,-0.08 -0.14,-0.18 0.12,0.05 0.48,0.28 0.59,0.37 0.32,0.3 0.45,0.56 0.42,1.11 -0.1,-0.06 -0.07,-0.09 -0.11,-0.21 -0.03,-0.1 -0.08,-0.15 -0.1,-0.23zm-4.85 -0.65c-0.11,0.07 -0.43,0.51 -0.46,0.69l-0.23 0.46c-0.02,-0.13 0.03,-0.48 0.08,-0.62l0.03 -0.05c0,-0.01 0.01,-0.01 0.01,-0.02 0.03,-0.32 0.66,-0.74 0.91,-0.86 -0.03,0.07 -0.11,0.12 -0.24,0.3l-0.1 0.09zm-0.78 1.26c0.1,0.05 0.05,0.04 0.15,-0.02 0.01,0.67 -0.08,1.5 0.04,2.15l-0.24 0.17c-0,0.07 0.02,-0.01 -0.01,0.09l-0.22 -0.06c-0.01,-0.83 -0.05,-1.81 0.13,-2.58 0.14,-0.63 0.62,-1.2 1.2,-1.46 -0.24,0.17 -0.62,0.41 -0.76,0.61 -0.3,0.41 -0.21,0.76 -0.28,1.11zm6.05 2.99c-0.14,0.04 -0.16,0.06 -0.18,0.21 -0.02,0.11 -0,0.24 0.03,0.3 0.09,0.2 0.05,0.33 0.07,0.64 -0.06,-0.13 -0.02,-0.46 -0.02,-0.63 0.18,0 0.05,-0.01 0.09,0.04 0.01,0.03 -0.02,0.01 0.03,0.05 0.05,-0.11 0,-0.09 0.13,-0.13 0.07,0.13 0.12,0.51 0.05,0.66 -0.11,0.26 0.02,-0.13 -0.03,0.07l0.02 0.21c0,0.01 0.01,0.01 0.01,0.02 0,0.01 0.01,0.01 0.01,0.02 0.03,0.06 0,-0.06 0.03,0.08 0.05,0.25 -0.04,0.23 -0.05,0.23 -0,-0.01 -0.01,-0.02 -0.01,-0.02 -0,-0.01 -0.01,-0.01 -0.01,-0.02l-0.01 -0.12c-0,-0.09 0.01,-0.08 -0.02,-0.15 -0.07,0 -0.13,-0.06 -0.09,0.3 0.02,0.01 0.05,0.01 0.06,0.02 0.1,0.05 0.02,0.05 0.05,0.21 0.04,0.22 0.1,-0.08 0.09,0.37 -0.06,0.03 0.06,-0.03 -0.04,0.02 -0.04,0.02 -0.03,0.01 -0.05,0.03l-0 0.22 -0.12 0.05c-0.01,0.23 -0.05,0.31 0.07,0.28 0.05,-0.03 0.02,0.01 0.04,-0.06 0.01,-0.04 0,-0.06 0,-0.1 0.01,-0.16 -0.03,-0.1 0.05,-0.13 0.07,0.05 0.05,0.17 0.04,0.28l-0.1 0.05 0.01 0.25c0.1,0 0.05,-0.01 0.1,0.02 0.01,0.31 0.01,0.08 0.1,0.25 0.04,0.09 0.08,0.78 -0.02,0.95 -0.03,-0.09 0.08,-0.09 -0.08,-0.12l0.03 0.8c0,0.09 0.01,0.17 -0.04,0.23 -0.07,-0.03 -0.04,-0.01 -0.06,-0.08 -0,-0.01 -0,-0.11 0,-0.12 0,-0.09 0.01,-0.15 -0,-0.24 -0.03,0.05 -0.08,0.08 -0.13,0.11l0 0.3c0.02,0.01 0.05,0.01 0.06,0.02 0.04,0.02 0.04,0.02 0.06,0.03l-0.01 0.25c-0.04,0.02 -0.09,0.02 -0.13,0.05 -0,0.39 -0.01,0.24 0.07,0.3 0.06,0.04 0.06,-0.05 0.05,0.25 -0.01,0 -0.01,0.01 -0.02,0.01l-0.11 0.04 0.01 0.28 0.11 0.01 -0.01 0.25 -0.1 0.04c-0,-0.01 -0.01,0 -0.02,0.01l-0 0.2c0.02,0.1 0.12,-0 0.11,0.25l-0.08 0.03c-0.05,0.02 -0.02,0 -0.05,0.02l0.01 0.23c0.13,0.01 0.12,0.08 0.12,-0.28 0,-0.15 0,-0.3 0.01,-0.45l0.09 0.03c0.06,0.07 0.05,0.22 0.03,0.32 0.06,0.05 0.1,0.08 0.11,0.19 0.03,0.26 0.03,0.59 -0.01,0.84 -0,-0.01 -0.01,-0.02 -0.01,-0.02l-0.07 -0.06 -0.01 0.11c0.14,0.19 0.11,1.93 0.09,2.27 -0.03,0.64 -0.1,1.6 -0.23,2.23l-0.04 -0.05c0.04,0.21 -0.08,0.61 -0.17,0.81 -0.06,0.27 -0.18,0.42 -0.42,0.49 -0.11,0.16 -1.07,0.29 -1.35,0.33 -0.73,0.09 -2.5,0.07 -3.21,-0.12 -0.43,-0.11 -0.9,-0.24 -1,-0.73 -0.06,-0.09 -0.17,-0.53 -0.19,-0.67 -0.06,-0.03 -0.07,0.04 -0.04,-0.07 0.02,-0.29 -0.09,-0.78 -0.12,-1.07 -0.04,-0.36 -0.06,-0.74 -0.08,-1.11 -0.03,-0.59 -0.06,-1.68 0.07,-2.22l0.03 -0.2c-0.16,0.02 -0.06,-0 -0.08,0.09 -0.11,-0.18 -0.07,-0.83 0.01,-1.03 0.09,0.03 0.02,-0.02 0.07,0.08 -0.01,-0.11 -0.03,-0.16 -0.03,-0.28 0,-0.16 -0.02,-0.15 0.13,-0.18l0.01 0.26c0.09,-0.02 0.06,-0 0.09,-0.05l-0.01 -0.25 -0.09 0.01 -0.01 -0.26 0.12 -0.03 -0.01 -0.27c-0.05,-0.03 -0.02,-0 -0.07,-0.02 -0.06,-0.02 -0.01,0.01 -0.05,-0.03l-0 -0.22 -0.02 -0.01 -0.09 0c-0.01,-0.01 -0.02,-0.02 -0.03,-0.06 -0,-0.01 -0.01,-0.07 -0.01,-0.08 -0,-0.05 0.01,-0.1 0.01,-0.16l0.12 -0.03 -0.04 -0.27c-0,-0 -0.01,-0.01 -0.02,-0.01l-0.06 -0.03c-0.03,-0.18 -0.03,-0.48 0.03,-0.63l-0 -0.27 0.01 -0.1c-0.06,0.03 -0.06,0.07 -0.1,0.1 -0.05,-0.22 -0.05,-0.59 -0.03,-0.82 0.02,-0.22 0.06,-0.17 0.12,-0.19 0.07,0.38 -0.07,0.02 -0.08,0.34 -0,0.13 -0.01,0.28 0.03,0.41 0.08,0.02 0.01,0.01 0.04,-0.04 -0.05,-0.39 0.06,-0.51 0.02,-0.75 -0.02,-0.14 0,-0.28 0,-0.42 -0.01,-0.32 -0.03,-0.3 0.07,-0.33 0.03,0.04 0.04,0.05 0.04,0.16 0,0.22 -0.09,0.06 -0.1,0.27 -0,0.08 0,0.1 0.04,0.15 0.06,-0.01 0.05,0.05 0.08,-0.1 0.02,-0.13 -0.03,-0.12 0.03,-0.17l0.07 -0.05c0.02,-0.41 -0.07,-0.24 -0.09,-0.31 -0,-0.01 -0.02,-0.01 -0.02,-0.01l-0 -0.2 0.12 -0.07 -0 -0.25c-0.06,-0.04 -0.07,-0.01 -0.12,-0.05l-0 -0.24 -0.1 -0.01c-0.02,-0.09 -0.05,-0.29 0.03,-0.33 0.06,-0.09 0.04,-0.2 0.01,-0.29 -0.04,-0.13 -0.02,-0.27 -0.01,-0.43 0,-0.05 0,-0.09 0.02,-0.14 0,-0.01 0.02,-0.05 0.02,-0.05 0,-0 0.01,-0.01 0.01,-0.02 0,-0.01 0.01,-0.01 0.01,-0.02 0.09,0.03 0.08,0.03 0.11,0.13l0.02 -0.03c0.07,-0.04 0.09,0.04 0.1,0.08 0.03,-0.18 0.02,-0.04 0.07,-0.18 0.02,-0.06 0.02,-0.11 0.02,-0.19 -0,-0.03 -0,-0.1 -0.01,-0.13l-0.04 -0.07c-0.04,-0.06 -0.05,-0.04 -0.08,-0.15l0.06 -0.07c-0.05,-0.06 -0.06,0.02 -0.08,-0.03 -0,-0 -0.01,0 -0.01,0 -0.02,-0.1 -0.01,-0.22 -0,-0.32 0.02,-0.17 0.04,-0.19 0.11,-0.23 0.01,-0.03 -0.02,-0.04 0.06,-0.07 0.08,-0.04 0.06,-0.02 0.11,0 0.05,0.12 0.07,0.46 0.09,0.62 0.03,0.2 0.07,0.39 0.11,0.58l0.18 0.88c0.03,0.16 0.07,0.22 0.01,0.27 0.11,-0.01 0.03,-0.01 0.05,0.03 0,0.25 0.09,0.68 0.11,0.95 0.09,1.08 0.1,5.12 0,6.14 -0.01,0.06 -0.02,0.19 -0.03,0.24 -0,0.01 -0.18,0.33 -0.13,0.62 0.02,0.09 0.03,0.04 -0,0.14l0.1 -0.67c0.48,0.14 1.05,0.19 1.57,0.24 -0.12,0 -0.14,0.01 -0.21,-0.05 -0.44,-0.05 -0.83,-0.13 -1.24,-0.19 0.02,-0.32 0.06,-0.6 0.08,-0.92 0.06,-1.57 0.05,-4.09 -0.06,-5.65 -0.01,-0.19 -0.11,-0.77 -0.09,-0.9l0.22 -0.05 0.16 -0.05c0.6,-0.09 1.09,-0.18 1.73,-0.19 0.3,-0 1.54,0.02 1.72,0.15 0.16,-0.02 0.54,0.08 0.66,0.14 -0,0.24 -0.08,0.62 -0.11,0.87 -0.12,1.39 -0.11,4.24 -0.07,5.7 0.01,0.31 0.06,0.59 0.08,0.9l-0.99 0.16c0.05,0.08 0.44,-0.02 0.54,-0.04 0.19,-0.03 0.37,-0.1 0.55,-0.08 0.06,0.2 0.2,1.14 0.18,1.35l0.01 -0.24c0.02,-0.21 -0.08,-0.78 -0.13,-1.01 -0.06,-0.3 -0.1,0.06 -0.15,-0.98 -0.06,-1.15 -0.04,-4.39 0.05,-5.58 0.02,-0.31 0.11,-0.73 0.11,-1.02 -0.01,-0.04 -0.01,-0.02 -0.01,-0.07 0.01,-0.07 -0,-0.03 0.04,-0.07 0.04,-0.13 0.09,-0.34 0.07,-0.47l0.02 -0.14 -0.07 0.12c-0.03,0.07 0.02,0.01 -0.04,0.07 -0.02,-0.03 -0.01,0 -0.02,-0.05l0.02 -0.14c0.04,-0.16 0.1,-0.41 0.09,-0.57l-0.12 0.52c-0.01,0.13 -0.1,0.46 -0.16,0.55 -0.1,0.01 -0.81,-0.14 -1.02,-0.16 -0.38,-0.04 -0.75,-0.06 -1.14,-0.07 -0.37,-0 -0.76,0.02 -1.13,0.07l-1.01 0.17c-0.06,-0.1 -0.16,-0.46 -0.2,-0.62 -0.01,-0.11 -0.02,-0.07 -0.04,-0.09 0,0.2 0.08,0.35 0.09,0.52 -0.12,-0.03 -0.1,-0.21 -0.14,-0.36 -0.09,-0.43 -0.19,-0.85 -0.24,-1.29 0.11,-0.06 0.14,-0.11 0.24,-0.16 0.54,-0.28 1.07,-0.28 1.65,-0.34 0.24,-0.03 0.53,0.06 0.76,0.01l0 -0.01c0.03,-0.03 0.05,-0.07 0.07,-0.11 0.39,-0.02 1.7,0.15 2.06,0.34 0.25,0.13 0.35,0.13 0.52,0.25l-0.2 1.11c-0.02,0.18 0.02,0.14 0.04,0.15 0.03,-0.24 0.21,-0.98 0.18,-1.17 -0.03,-0.11 -0.02,-0.07 0.01,-0.18 -0.15,-0.05 -0.06,-0.02 -0.12,-0.09 -0.07,-0.1 -0.58,-0.31 -0.7,-0.39 -0.06,-0.04 -0.21,-0.1 -0.29,-0.13 -0.57,-0.15 -0.32,-0.07 -0.72,-0.14 -0.71,-0.13 -0.64,0.1 -0.89,0.11 -0.08,0 -0.15,-0.01 -0.23,-0.02l-0.84 -0.02c-0.18,-0.01 -0.73,0.06 -0.86,0.14 -0.12,0.07 0.04,0.06 -0.15,0.15 -0.12,0.05 -0.18,0.09 -0.28,0.14 -0.27,0.12 -0.12,0.13 -0.27,0.2 -0,-0.06 -0.07,-0.23 0.13,-0.37 0.23,-0.16 0.9,-0.32 1.14,-0.32l-0.11 -0.02c-0.16,-0.03 -0.95,0.15 -1.14,0.43 -0.02,0.03 -0.04,0.06 -0.05,0.08 -0.04,0.05 0.01,0.02 -0.07,0.05 -0.04,-0.45 -0.05,-0.86 -0.05,-1.33 0.01,-0.54 -0.04,-0.78 0.13,-1.23 0.15,-0.41 0.3,-0.57 0.53,-0.83l0.48 -0.53c0.05,-0.06 0.08,-0.13 0.14,-0.18 0.14,-0.08 0.99,-0.15 1.21,-0.15 0.25,-0.01 1.68,0 1.85,0.18 0.06,0.07 0.07,0.11 0.15,0.19 0.16,0.16 0.74,0.74 0.76,0.88 0.06,0.05 0.05,0.04 0.09,0.12 0.2,0.4 0.22,0.65 0.24,1.09 0.02,0.48 0.03,1.03 0.01,1.51l0.01 0.11 0.01 0.06c0.09,-0.55 0.01,-1.46 0.01,-2.05 0,-0 0.01,-0 0.01,-0 0.1,-0.02 0.06,0.01 0.1,-0.02l0 -0.27c-0.01,-0.47 -0.11,-0.74 -0.36,-0.97 -0.07,-0.06 -0.69,-0.53 -0.76,-0.55 0.11,0.03 0.38,0.22 0.49,0.3 1.02,0.74 0.95,1.82 0.95,3.07 0,0.19 0.02,0.65 -0.01,0.81 -0.03,0.17 -0.03,-0.04 -0.04,0.15 -0.01,0.08 0.06,0.36 -0.02,0.51 -0.09,-0.02 -0.07,0 -0.11,-0.07z"/>
   <path class="fil1" d="M1.92 3.67c-0.17,-0.18 0.28,-2.1 0.45,-2.56 0.04,-0.11 0.1,-0.23 0.12,-0.33l-0.01 0.07 -0.01 0.38c-0.12,0.7 -0.28,1.62 -0.44,2.3 -0.01,0.06 -0.03,0.12 -0.05,0.17 -0.01,0.02 -0.02,0.07 -0.03,0.09 -0,0.01 -0.01,0.01 -0.01,0.02 -0,0.01 -0.01,0.01 -0.01,0.02 -0.02,0.03 -0.02,0.03 -0.04,0.05l0.02 -0.21zm1.22 -0.37c0.01,-0.01 0.03,-0.03 0.03,-0.03l0.1 0.02 -0.02 0.09c-0,0.01 -0.01,0.01 -0.02,0.02l-0.08 -0 -0.01 -0.1zm2 0.1l0 -0.12 0.04 -0.01 0.08 0.03c0,0.1 -0.04,0.11 -0.13,0.1zm1.29 0.29c-0.08,-0.45 -0.22,-0.91 -0.3,-1.39 -0.04,-0.23 -0.09,-0.46 -0.12,-0.7 -0.01,-0.08 -0.09,-0.57 -0.07,-0.65 0,-0.01 0.01,-0.02 0.01,-0.02l0.02 -0.04 -0.02 -0.11c0.01,-0.17 0.32,1.04 0.38,1.3 0.09,0.42 0.23,1.13 0.22,1.55 -0.07,-0.12 -0.04,-0.27 -0.12,-0.39l0.05 0.47 -0.04 -0.02zm-3.7 0.11c0.14,-0.09 1.01,-0.13 1.14,-0.14 0.73,-0.02 2.12,0.04 2.76,0.39 0.2,0.11 0.23,0.27 0.34,0.32l0.05 -0.16 -0.01 -0.11 -0.06 0.08c-0.03,-0.49 -0.04,-1 -0.05,-1.49 -0.01,-0.39 -0.02,-0.64 -0.12,-1.01 -0.03,-0.11 -0.09,-0.21 -0.1,-0.31 -0.03,-0.14 -0.6,-0.73 -0.76,-0.88 -0.08,-0.08 -0.09,-0.12 -0.15,-0.19 -0.17,-0.18 -1.59,-0.19 -1.85,-0.18 -0.22,0.01 -1.07,0.07 -1.21,0.15 -0.07,0.04 -0.09,0.12 -0.14,0.18l-0.48 0.53c-0.23,0.26 -0.37,0.42 -0.53,0.83 -0.17,0.45 -0.13,0.69 -0.13,1.23 -0,0.47 0.01,0.87 0.05,1.33 0.08,-0.04 0.03,-0 0.07,-0.05 0.01,-0.01 0.03,-0.05 0.05,-0.08 0.19,-0.28 0.98,-0.45 1.14,-0.43z"/>
   <path class="fil1" d="M2.59 16.92c0,0.01 0.03,0.06 0.04,0.07l0.09 0.22c0.06,0.29 -0.04,-0 0.12,0.27 0.09,0.15 -0.02,0.12 0.1,0.17l-0.08 0.04c-0.07,0.01 0.03,0.01 -0.04,-0.01 -0.02,-0.01 0.03,-0.01 -0.06,-0.02 0,0.01 0.01,0.01 0.01,0.02 0.04,0.08 0.01,0.43 -0.07,0.54l-0.09 0.19c0.06,0.04 0.39,0.11 0.46,0.13 0.76,0.16 1.46,0.15 2.21,0.03 0.79,-0.13 0.83,-0.26 1.39,-0.47 0.08,-0.17 0.07,-1.23 0.07,-1.49 -0.09,0.02 -0.47,0.23 -0.91,0.34 -0.7,0.18 -1.52,0.23 -2.25,0.16 -0.19,-0.02 -0.87,-0.11 -0.99,-0.19z"/>
   <path class="fil2" d="M6.74 13.72c0.14,0.69 0.27,1.23 0.27,2.01l0 0.02c0,0.23 0.01,0.71 -0.07,0.89 -0.03,-0.08 -0.07,-1.27 -0.09,-1.5 -0.02,-0.24 -0.04,-0.48 -0.06,-0.71 -0.01,-0.11 -0.02,-0.24 -0.04,-0.35l-0.01 -0.35zm0.54 -0.41c-0,-0.1 -0.01,-0.23 0.03,-0.3l0.1 -0.01 -0.02 0.35 -0.11 -0.05zm0.27 -3.96c-0.02,-0.06 -0.02,-0.2 -0.02,-0.29 0,-0.05 0,-0.1 -0,-0.15 -0,-0.01 -0,-0.07 -0,-0.07 0.01,-0.07 -0.01,-0.01 0.02,-0.06 0.08,0.06 0.05,0.07 0.05,0.3l-0.01 0.23c-0.02,0.04 -0.01,0.01 -0.03,0.03zm-0.24 -0.59c-0,-0.11 -0.03,-0.26 0.02,-0.34 0.12,0.02 0.07,0.03 0.09,0.18 0.01,0.1 0.01,0.15 0,0.26l-0.11 -0.1zm0.02 -1.54c0.12,0.01 0.09,-0.04 0.1,0.13 0,0.01 -0,0.1 -0,0.1 -0.03,0.08 0.01,0.03 -0.07,0.06 -0.05,-0.03 -0.03,0.01 -0.05,-0.06l0 -0.17c0.01,-0.04 0.01,-0.04 0.02,-0.06zm-0.01 -0.91c-0,-0.14 -0.02,-0.3 0.11,-0.36l0 0.35 -0.11 0.01zm-0.04 -0.59c-0.03,0.02 -0.04,0 -0.05,0.13 -0,0.01 0.01,0.1 0.01,0.12 0,0.08 0.01,0.17 0.01,0.25 0.04,1.16 0,2.35 0.03,3.5 0.06,-0.01 0.12,-0.05 0.13,-0.12 0.02,-0.1 -0.03,-0.1 -0.09,-0.14 -0.02,-0.19 -0.04,-0.23 0.1,-0.3l0.05 0.51c-0.05,0.02 -0.15,0.09 -0.18,0.14 -0.03,0.06 -0.02,0.19 -0.02,0.27 0,0.72 -0,3.93 -0.11,4.18 -0.07,-0.04 -0.09,-0.1 -0.12,-0.18 -0.26,-0.68 -0.37,-0.94 -0.39,-1.67 -0.02,-0.76 -0.03,-1.52 -0.03,-2.28l-0.01 -0.04c0.05,-0.81 -0.05,-1.69 0.06,-2.61 0.02,-0.21 0.09,-0.45 0.02,-0.59 -0.05,-0.09 -0.06,-0.09 -0.14,-0.11 -0,0.29 -0.08,0.7 -0.11,1.02 -0.09,1.19 -0.1,4.42 -0.05,5.58 0.05,1.04 0.09,0.68 0.15,0.98 0.04,0.23 0.14,0.79 0.13,1.01 0.08,0.11 0.11,1.2 0.11,1.42 0.01,0.48 -0.01,1 -0.08,1.46 0.05,0.06 -0.03,0.02 0.04,0.03 0.14,-0.18 0.23,-0.3 0.31,-0.52 0.05,-0.17 -0,-0.07 0.01,-0.24 0.11,-0.07 0.14,-0.08 0.13,-0.27l-0.12 -0.06c-0.01,-0 -0.01,-0.01 -0.02,-0.02l0 -0.17c0.06,-0.08 -0.01,-0.01 0.07,-0.05 0.01,-0 0.03,-0.01 0.04,-0.01l0.04 -0.25 -0.13 0.01 -0 -0.22c0.06,-0.09 -0.02,-0.02 0.07,-0.05 0,0 0.08,-0.01 0.09,-0.01l0.01 -0.23 -0.15 -0.01 0.02 -0.28 0.16 -0.01 0.01 -0.26 -0.15 -0.04 0.01 -0.27 0.16 0 -0.03 -0.25c-0.01,-0 -0.01,-0.01 -0.02,-0.01l-0.09 -0.04 0.01 -0.25c0.08,-0.05 0.02,-0 0.07,-0.02l0.06 -0.02c0,-0.01 0.01,-0 0.02,-0.01 0.01,-0.3 -0,-0.21 -0.12,-0.27l0.01 -0.25c0.04,-0.03 0.1,-0.02 0.14,-0.02l0 -0.23 -0.12 -0.04 0.01 -0.25c0.06,-0.03 0.05,0 0.12,-0.05l0.01 -0.17c0.13,0.03 0.09,0.08 0.09,0.22 -0.01,0 -0.06,0.03 -0.06,0.03 -0.04,0.03 -0.01,-0.02 -0.03,0.05 -0.01,0.03 -0.01,0.11 -0.01,0.15l0.07 0.05c0.04,0.03 0,-0.01 0.04,0.03l-0.01 0.25 -0.08 0.03 -0.05 0.23 0.12 0.06 -0.01 0.25c-0.06,0.03 -0.07,0.01 -0.13,0.05l-0.01 0.2c0.01,0 0.02,0.01 0.02,0.01l0.12 0.06 -0.01 0.26 -0.14 -0 -0.01 0.23 0.15 0.05 -0.01 0.28 -0.15 0 -0.01 0.12 -0 0.12 0.15 0.05c-0.01,0.25 0.01,0.2 -0.05,0.25l-0.01 0 -0.1 0 -0.01 0.22 0.15 0.04c-0,0.1 0.01,0.12 -0.03,0.18l0.02 0.08 -0.09 -0.01c-0.07,0.01 -0.08,0.06 -0.07,0.14 0.01,0.14 0.01,0.05 0.11,0.12 0.01,0.11 0.01,0.23 -0,0.35 -0,0.05 -0.02,0.13 -0.01,0.17 0.01,0.15 -0,0.03 0.06,0.15l0.04 0.05c0.13,-0.63 0.19,-1.58 0.23,-2.23 0.02,-0.34 0.05,-2.08 -0.09,-2.27 -0.03,-0.04 -0.01,0 -0.05,-0.09 -0.08,-0.21 -0.06,-0.7 -0,-0.94 0.04,-0.17 -0.01,-0.21 0.01,-0.36l-0.09 -0.03c-0.01,0.15 -0.01,0.3 -0.01,0.45 -0,0.36 0,0.29 -0.12,0.28l-0.01 -0.23c0.03,-0.02 0,-0 0.05,-0.02l0.08 -0.03c0.01,-0.25 -0.1,-0.14 -0.11,-0.25l0 -0.2c0.01,-0 0.02,-0.01 0.02,-0.01l0.1 -0.04 0.01 -0.25 -0.11 -0.01 -0.01 -0.28 0.11 -0.04c0,-0 0.01,-0.01 0.02,-0.01 0,-0.29 0.01,-0.2 -0.05,-0.25 -0.08,-0.06 -0.07,0.1 -0.07,-0.3 0.04,-0.03 0.09,-0.03 0.13,-0.05l0.01 -0.25c-0.02,-0.02 -0.02,-0.01 -0.06,-0.03 -0.02,-0.01 -0.04,-0.01 -0.06,-0.02l-0 -0.3c0.05,-0.03 0.1,-0.07 0.13,-0.11 0.01,0.09 0.01,0.15 0,0.24 -0,0.01 -0,0.12 0,0.12 0.02,0.08 -0.01,0.05 0.06,0.08 0.05,-0.06 0.04,-0.14 0.04,-0.23l-0.03 -0.8c0.16,0.03 0.05,0.03 0.08,0.12 0.1,-0.17 0.06,-0.86 0.02,-0.95 -0.08,-0.17 -0.09,0.06 -0.1,-0.25 -0.05,-0.03 0,-0.02 -0.1,-0.02l-0.01 -0.25 0.1 -0.05c0,-0.1 0.03,-0.23 -0.04,-0.28 -0.08,0.03 -0.05,-0.03 -0.05,0.13 -0,0.03 0.01,0.06 -0,0.1 -0.02,0.07 0.01,0.03 -0.04,0.06 -0.12,0.02 -0.09,-0.05 -0.07,-0.28l0.12 -0.05 0 -0.22c0.02,-0.02 0.01,-0.01 0.05,-0.03 0.1,-0.05 -0.02,0.01 0.04,-0.02 0.01,-0.44 -0.05,-0.14 -0.09,-0.37 -0.03,-0.16 0.05,-0.16 -0.05,-0.21 -0.01,-0.01 -0.04,-0.01 -0.06,-0.02 -0.05,-0.36 0.01,-0.3 0.09,-0.3 0.03,0.07 0.02,0.06 0.02,0.15l0.01 0.12c0,0.01 0.01,0.02 0.01,0.02 0,0.01 0.01,0.01 0.01,0.02 0.02,-0.01 0.1,0.02 0.05,-0.23 -0.03,-0.14 -0,-0.02 -0.03,-0.08 -0,-0.01 -0.01,-0.01 -0.01,-0.02 -0,-0.01 -0.01,-0.01 -0.01,-0.02l-0.02 -0.21c0.06,-0.21 -0.07,0.18 0.03,-0.07 0.06,-0.15 0.02,-0.53 -0.05,-0.66 -0.13,0.05 -0.08,0.02 -0.13,0.13 -0.05,-0.04 -0.02,-0.02 -0.03,-0.05z"/>
   <path class="fil3" d="M1.53 16.59c-0.18,-0.37 -0.03,-2.58 0.22,-3.02 -0.01,0.47 -0.11,0.99 -0.14,1.46 -0.02,0.23 -0.05,1.47 -0.09,1.56zm0.19 -9.6c0.07,0.51 0.09,0.98 0.1,1.5 0.01,0.48 -0.03,1.12 0.01,1.57l0.15 0.05c0,-0.01 0.01,0.01 0.02,0.01l-0.17 -0c0,0.77 -0.01,1.56 -0.04,2.33 -0.02,0.48 -0.03,0.57 -0.17,0.98 -0.1,0.28 -0.19,0.6 -0.32,0.84 -0.05,-0.02 -0.02,0.04 -0.04,-0.05 -0.09,-0.02 -0.04,-0.02 -0.06,0.01l0.01 0.21c-0.15,0.13 -0.13,-0.01 -0.11,0.27l0.04 0.01c0,0 0.01,0 0.02,0l0.09 -0 0.02 0.26 -0.14 0.06 0.01 0.23 0.15 0.01c0,0.14 0.03,0.18 -0.02,0.26l-0.1 0.01 -0.04 -0.1c-0.01,-0.03 -0,-0.11 -0,-0.15 -0.09,0.01 -0.08,0.03 -0.14,-0.01l-0 -0.22 0.13 -0.04 -0 -0.21c-0.01,-0 -0.02,-0.01 -0.02,-0l-0.12 -0.02 -0 -0.22 0.07 -0.04c0.02,-0.01 0.05,-0.02 0.07,-0.02l-0.01 -0.18c-0.03,-0.02 -0.02,-0.01 -0.06,-0.01l-0.07 -0.01c-0.02,-0.37 0.11,0.02 0.09,-0.43l-0.11 0.03c-0.07,-0.06 -0.05,-0.14 -0.05,-0.26 0.1,-0.09 0.07,0.02 0.08,-0.09 0.01,-0.07 0.03,-0.02 -0.04,-0.06l-0.06 0.05c-0.13,0.54 -0.1,1.63 -0.07,2.22 0.02,0.36 0.04,0.75 0.08,1.11 0.04,0.3 0.14,0.79 0.12,1.07 0.01,-0 0.01,-0.02 0.02,-0.01l0.1 -0.11c0.02,-0.06 -0.01,-0.57 -0.02,-0.65 0.03,-0.03 0.01,-0.01 0.05,-0.03l0.07 -0.04 -0.02 -0.24 -0.14 -0.02 -0.02 -0.23c0.06,-0.05 0.01,-0 0.07,-0.03l0.08 -0.04 -0.01 -0.17c-0.01,-0 -0.02,-0.02 -0.02,-0.01l-0.07 -0.02c-0.05,-0.02 -0.1,0.07 -0.09,-0.26 0.03,-0.01 0.1,-0.02 0.15,-0.06l-0.01 -0.17c-0.01,-0 -0.02,-0.01 -0.02,-0l-0.14 -0.04 -0 -0.22 0.15 0.03c0.04,0.17 -0.02,-0.12 0.01,0.04 0.01,0.03 0.01,0.09 0.01,0.12l0.16 0.02 0.01 0.26c-0.02,0.01 -0.06,0.01 -0.06,0.01l-0.08 0.04 0 0.17c0.01,0 0.02,0 0.02,0.01l0.06 0.02c0.03,0.01 0.02,-0.01 0.07,0.01l0.02 0.25c-0.08,0.03 -0.08,0.01 -0.14,0.05l-0.01 0.22c0.11,0.02 0.13,-0.02 0.17,0.05l0.01 0.22c-0.07,0.08 0.03,-0.01 -0.05,0.04l-0.08 0.04c0.01,0.18 0.23,0.95 0.49,1.11l-0.03 -0.24c-0.14,-0.76 -0.04,-2.07 0.08,-2.89l0.05 -0.34c0.02,-0.07 0.01,-0.03 0.02,-0.06 -0.05,-0.29 0.13,-0.61 0.13,-0.62 0.01,-0.05 0.02,-0.18 0.03,-0.24 0.1,-1.03 0.08,-5.06 -0,-6.14 -0.02,-0.28 -0.11,-0.71 -0.11,-0.95 -0.09,0.03 -0.06,0.01 -0.11,0.1 -0.01,0.02 -0.02,0.04 -0.04,0.07 -0.03,0.05 -0.01,0.02 -0.04,0.05z"/>
   <path class="fil4" d="M6.76 10.54c0.08,-0.05 0.31,-0.23 0.37,-0.26 0.06,0.27 -0,3.25 -0.07,3.37l-0.22 -0.59c-0.11,-0.25 -0.11,-2.3 -0.08,-2.53zm-0.07 -0.44c0.12,-0.02 0.49,-0.19 0.52,-0.25l0 0.25 -0.47 0.31c-0.07,0.06 -0.03,-0.01 -0.03,0.03 -0.02,-0.15 -0.05,-0.2 -0.02,-0.35zm0 -0.37c0.11,-0.06 0.49,-0.44 0.49,-0.51 0,-0 0,-0.01 -0,-0.01 0,0.18 0.02,0.33 0.02,0.54 -0.63,0.33 -0.52,0.38 -0.52,-0.02zm0.04 -0.26c-0.01,-1.2 -0.01,-1.74 0.18,-2.88l0.16 -0.82c0.07,0.49 0.05,1.11 0.05,1.62 0,0.55 0.01,1.1 0.02,1.65l-0.09 0.13c-0.05,0.08 -0.03,0.05 -0.11,0.11 -0.07,0.05 -0.14,0.13 -0.2,0.19zm-4 -5.68l0.11 0.02c-0.24,0 -0.91,0.16 -1.14,0.32 -0.2,0.14 -0.13,0.31 -0.13,0.37 0.15,-0.08 -0,-0.08 0.27,-0.2 0.1,-0.05 0.17,-0.09 0.28,-0.14 0.19,-0.08 0.03,-0.07 0.15,-0.15 0.13,-0.08 0.68,-0.15 0.86,-0.14l0.84 0.02c0.08,0.01 0.15,0.02 0.23,0.02 0.25,-0.01 0.18,-0.23 0.89,-0.11 0.4,0.07 0.15,-0.01 0.72,0.14 0.09,0.02 0.23,0.09 0.29,0.13 0.12,0.08 0.63,0.3 0.7,0.39 0.06,0.08 -0.04,0.04 0.12,0.09 -0.03,0.11 -0.04,0.07 -0.01,0.18 0.04,-0.06 0.04,-0.1 0.04,-0.19l0.01 -0.11c0,-0.01 0,-0.02 0.01,-0.02 0.02,-0.09 0.15,-0.07 0.2,0.04 0.15,0.09 0.11,0.39 0.11,0.54 -0.01,0 -0.01,-0 -0.02,-0l-0.13 0.03c-0.01,0.11 -0.32,1.45 -0.38,1.87l-0.11 -0.11c-0.05,-0.06 -0.07,-0.05 -0.06,-0.17 -0.04,0.04 -0.02,-0 -0.04,0.07 -0.01,0.05 -0,0.04 0.01,0.07 0.08,0.03 0.09,0.02 0.14,0.11 0.07,0.14 0.01,0.38 -0.02,0.59 -0.1,0.92 -0,1.81 -0.06,2.61l0.01 0.04c-0,0.76 0.01,1.52 0.03,2.28 0.02,0.73 0.13,0.99 0.39,1.67 0.03,0.08 0.05,0.14 0.12,0.18 0.11,-0.24 0.11,-3.45 0.11,-4.18 -0,-0.08 -0.02,-0.21 0.02,-0.27 0.03,-0.05 0.13,-0.12 0.18,-0.14l-0.05 -0.51c-0.14,0.07 -0.11,0.11 -0.1,0.3 0.06,0.05 0.1,0.04 0.09,0.14 -0.01,0.07 -0.07,0.11 -0.13,0.12 -0.03,-1.15 0.01,-2.34 -0.03,-3.5 -0,-0.08 -0.01,-0.17 -0.01,-0.25 -0,-0.02 -0.01,-0.11 -0.01,-0.12 0.01,-0.13 0.02,-0.11 0.05,-0.13 -0.04,-0.05 0.09,-0.04 -0.09,-0.04 0,0.16 -0.04,0.5 0.02,0.63 -0.02,-0.31 0.02,-0.44 -0.07,-0.64 -0.03,-0.06 -0.05,-0.19 -0.03,-0.3 0.03,-0.15 0.04,-0.17 0.18,-0.21 -0.01,-0.05 0.01,-0.47 0.01,-0.57 0.03,-0.02 0.08,-0.04 0.12,-0.07l-0.15 0.04c-0.03,-0.08 -0.04,-0.07 -0.05,-0.14 -0.05,-0.02 -0.08,-0.03 -0.12,-0.06 -0.09,-0.07 -0.08,0.02 -0.07,-0.11l-0.01 -0.06 -0.05 0.16c-0.1,-0.05 -0.13,-0.21 -0.34,-0.32 -0.64,-0.34 -2.03,-0.41 -2.76,-0.39 -0.13,0 -1,0.05 -1.14,0.14z"/>
   <path class="fil5" d="M4.23 4.16c0.33,-0.02 0.82,0.04 1.13,0.09 0.17,0.02 0.34,0.05 0.51,0.08 0.16,0.03 0.31,0.1 0.46,0.14l0.39 0.17 -0.01 0.25c-0.03,0.16 -0.02,0.33 -0.09,0.47l-0.45 0.16c-0.21,0.08 -0.28,-0.03 -0.4,0.05 -0.17,0.11 0.14,-0.04 -0.05,0.04 -0,-0 -0.01,-0.01 -0.01,-0.01 -0.13,-0.1 -0.17,-0.03 -0.26,-0.05 -0.05,-0.01 0.03,0.01 -0.04,-0.01 -0.18,-0.06 -0.12,0.02 -0.28,0.02 -0.15,0 0.01,-0.03 -0.11,-0.01 -0.13,0.02 -0.04,0 -0.08,0.04 -0.03,-0.03 -0.1,-0.1 -0.16,-0.11 -0.05,-0 -0,0 -0.04,0.01 -0.1,0.01 0.08,-0 -0.03,0.01 -0.17,0.01 0.01,-0.05 -0.17,0.04 -0.13,0.06 -0.03,0.02 -0.11,0 -0.14,-0.02 -0.02,0.04 -0.25,-0 -0.08,-0.01 -0.03,-0.04 -0.09,0.01l-0.03 -0.07c-0.14,0.05 0.08,0.05 -0.12,0.07 -0.04,0 -0.09,-0.02 -0.18,-0.02l-0.35 0c-0.03,0.04 -0.03,0.04 -0.04,0.09l-0.03 -0.03c-0.08,-0.08 -0.11,-0.04 -0.14,-0.11l-0.03 0c-0.04,0.07 0.05,0.03 -0.11,0.05 -0.01,0 -0.14,0 -0.15,0l-0.13 -0.03c-0.01,-0 -0.01,-0.01 -0.02,-0.01 -0.01,-0 -0.01,-0.01 -0.02,-0.01 -0.11,-0.04 -0.19,-0.08 -0.33,-0.06 -0.05,0.01 -0.02,0 -0.06,0.01l-0.03 0.02c-0,0 -0.01,0.01 -0.01,0.01 -0.17,0.11 -0.07,0.05 -0.23,0.01 -0.16,-0.03 -0.05,0.01 -0.15,-0.03 -0.06,-0.03 -0.01,-0 -0.08,-0.09 -0.06,-0.08 -0.05,-0.05 -0.07,-0.14 -0.02,-0.09 -0.04,-0.24 -0.04,-0.35l-0.02 -0.19c0.24,-0.19 0.85,-0.32 1.18,-0.36 0.2,-0.06 0.75,-0.1 0.99,-0.1 0.1,-0 0.24,0.03 0.33,-0.03 -0.23,0.05 -0.52,-0.03 -0.76,-0.01 -0.58,0.06 -1.12,0.06 -1.65,0.34 -0.11,0.06 -0.14,0.1 -0.24,0.16 0.05,0.44 0.15,0.86 0.24,1.29 0.03,0.15 0.02,0.32 0.14,0.36 -0.02,-0.17 -0.09,-0.32 -0.09,-0.52 0.02,0.03 0.02,-0.02 0.04,0.09 0.09,0.03 0.05,0.04 0.1,0.06 0.27,0.13 0.31,0.09 0.62,0.11 0.28,0.01 0.71,-0 0.93,0.04 0.07,0.01 0.45,-0.03 0.6,-0.03 0.2,0 0.25,0.05 0.44,0.01l0.08 -0.02c0.16,-0.04 0.01,0.01 0.29,0.01 0.23,0 0.7,-0.01 0.89,0.02 0.39,0.05 0.28,-0.02 0.4,-0.03 0.04,-0.01 0.04,0 0.04,0 0.21,0.02 -0.02,-0.01 0.24,-0.1l0.12 -0.52c0.01,0.16 -0.05,0.41 -0.09,0.57l-0.02 0.14c0.01,0.06 -0,0.02 0.02,0.05 0.06,-0.06 0.01,-0.01 0.04,-0.07l0.07 -0.12 -0.02 0.14c0.02,-0.03 0.01,0 0.03,-0.05 0.01,-0.02 0.01,-0.04 0.02,-0.06 0.01,-0.04 0.02,-0.09 0.02,-0.13 -0.02,-0.01 -0.06,0.02 -0.04,-0.15l0.2 -1.11c-0.17,-0.12 -0.28,-0.12 -0.52,-0.25 -0.36,-0.19 -1.66,-0.36 -2.06,-0.34 -0.02,0.04 -0.04,0.08 -0.07,0.11z"/>
   <path class="fil6" d="M4.28 13.36c0.1,0.13 0.1,0.42 0.03,0.57 -0.18,0.04 -0.19,-0.07 -0.19,-0.25 0.01,-0.17 -0.01,-0.3 0.15,-0.32zm-1.9 -6.72l0.03 0.03c0.03,0.03 0.02,0.03 0.04,0.05 0.02,0.04 0.01,0.03 0.04,0.08 0,0.01 0.02,0.03 0.02,0.03l0.12 0.12c0.07,0.11 -0.05,-0 0.07,0.24 0.06,0.12 0.05,0.51 0.04,0.61 -0.04,0.36 0.09,0.23 0.08,0.43 -0.02,0.29 0.04,0.13 0.05,0.35 0.01,0.14 0.03,0.4 0.03,0.49 -0.01,0.16 0.01,0.38 0,0.5 -0.02,0.27 0.01,0.51 0.01,0.56l-0.02 0.03c-0.03,0.05 -0.04,-0.01 -0.03,0.1 0.01,0.12 0.03,-0 0.05,0.18 0.02,0.18 -0.02,0.16 0.03,0.52l-0.04 1.13c0.01,0.09 0.05,0.19 0.05,0.35 -0,0.09 -0.01,0.19 -0.05,0.29 -0.05,0.11 0,-0.05 -0.04,0.08l0.02 0.14c0.02,0.08 0.03,0.13 0.03,0.23 -0,0 -0.01,-0 -0.02,0.01 -0.03,0.12 -0.04,-0.1 -0.05,0.05 -0,0.05 0.02,0.04 0.01,0.14 -0.02,0.1 -0.03,0.02 -0.02,0.12 0.01,0.3 -0.02,0.15 -0.02,0.27 -0,0.18 0.04,0.35 -0.04,0.5 -0.12,-0.01 -0.3,-0.02 -0.39,-0.09l-0.22 -0.03 0.07 -0.48c0.04,-1.43 0.08,-4.56 -0.05,-6.04l-0.08 -0.69c0,-0.08 -0.01,-0.06 0.04,-0.11l0.08 -0.14 -0.22 0.05c-0.02,0.13 0.08,0.71 0.09,0.9 0.1,1.56 0.12,4.08 0.06,5.65 -0.01,0.32 -0.05,0.61 -0.08,0.92 0.42,0.06 0.81,0.14 1.24,0.19 0.77,0.05 1.33,0.02 2.09,-0.03l0.99 -0.16c-0.02,-0.3 -0.07,-0.58 -0.08,-0.9 -0.04,-1.46 -0.06,-4.31 0.07,-5.7 0.02,-0.25 0.1,-0.63 0.11,-0.87 -0.12,-0.06 -0.51,-0.16 -0.66,-0.14 -0.18,-0.13 -1.42,-0.15 -1.72,-0.15 -0.64,0.01 -1.13,0.1 -1.73,0.19zm0.65 3.61c-0.09,-0.11 -0.07,-0.2 -0.07,-0.37 -0,-0.55 -0.04,-0.49 0.6,-0.49 0.42,-0 1.68,-0.03 1.93,0.01 0.09,0.12 0.07,0.16 0.07,0.35 0.01,0.55 0,0.52 -0.37,0.52 -0.39,0 -2.03,0.03 -2.16,-0.03zm3.18 3.39c-0.03,-0.03 -0.01,-0 -0.04,-0.04l-0.05 -0.13c-0.04,-0.21 -0.05,-1.33 -0.05,-1.54 -0,-1.14 -0.01,-4.32 0.31,-5.14 0.01,0.04 -0.13,1.4 -0.14,1.61 -0.03,0.56 -0.04,1.14 -0.04,1.7 -0.01,0.59 0,1.19 -0,1.78 -0,0.55 0.05,1.23 0.01,1.76z"/>
   <path class="fil4" d="M1.94 15.71l0.05 -0.36c0.05,-0.2 0.14,-0.72 0.24,-0.91 0.28,0.07 0.68,0.1 0.97,0.13 1.07,0.13 2.11,-0.03 3.08,-0.16l0.1 0.3 0.03 0.13 0.1 0.48 0.04 0.41c0.01,0.13 0.09,0.64 -0.01,0.71 -0.02,0.09 0,0.05 -0.11,0.11 -0.05,0.03 -0.1,0.05 -0.15,0.07 -0.28,0.12 -0.76,0.23 -1.06,0.27 -0.54,0.08 -1.13,0.08 -1.67,0.03 -0.28,-0.04 -1.1,-0.18 -1.29,-0.33 -0.14,-0.05 -0.29,-0.1 -0.33,-0.22 -0.06,-0.09 0.01,-0.54 0.03,-0.68zm-0.08 -0.98c-0.02,0.03 0,-0.02 -0.02,0.06l-0.05 0.34c-0.11,0.82 -0.21,2.13 -0.08,2.89l0.02 -0.05c0.03,-0.15 -0.02,-0.48 -0.03,-0.66 -0.01,-0.25 -0,-0.48 0,-0.73 0.06,0.02 0.62,0.27 0.64,0.28l0.26 0.06c0.12,0.07 0.8,0.17 0.99,0.19 0.73,0.07 1.55,0.02 2.25,-0.16 0.44,-0.11 0.82,-0.32 0.91,-0.34 0,0.26 0.01,1.32 -0.07,1.49l-0.03 0.17c0.01,0 0.02,0 0.02,0.01 0,0.01 0.02,0.01 0.02,0.01 0.02,0.01 0.04,0.01 0.06,0.02l0.01 -0.02 -0 -0.05c-0.07,-0.01 0.01,0.04 -0.04,-0.03 0.08,-0.45 0.09,-0.98 0.08,-1.46 -0,-0.22 -0.03,-1.31 -0.11,-1.42l-0.01 0.24c0.02,-0.2 -0.12,-1.15 -0.18,-1.35 -0.18,-0.02 -0.37,0.04 -0.55,0.08 -0.1,0.02 -0.49,0.12 -0.54,0.04 -0.76,0.05 -1.32,0.08 -2.09,0.03 0.07,0.06 0.09,0.05 0.21,0.05 -0.52,-0.05 -1.09,-0.1 -1.57,-0.24l-0.1 0.67c0.03,-0.1 0.02,-0.05 0,-0.14z"/>
   <path class="fil7" d="M2.21 6.69l-0.08 0.14c0.01,0.19 0.07,0.45 0.1,0.66 0.18,1.54 0.12,3.8 0.12,5.34 0.1,-0.33 -0,-2.62 0,-3.23 0,-0.2 0.02,-0.32 0.01,-0.52 -0.01,-0.18 -0.02,-0.36 -0.02,-0.53l0.05 0.07c0.03,0.06 -0.01,0.04 0.06,0.11 0.01,0.01 0.07,-0.02 0.08,0.2 0,0.17 0.02,0.36 0.04,0.46 0.16,0.71 -0.05,0.52 0.03,0.77l0.01 0.04c0.04,0.14 0.06,1.47 0.05,1.59 -0.03,0.21 0.01,0.3 0.06,0.45 -0.15,0.17 -0.14,0.75 -0.13,0.96 0.01,0.14 -0.03,0.35 -0.04,0.54 -0.01,0.33 0.01,0.42 -0.18,0.43 0.09,0.06 0.27,0.07 0.39,0.09 0.08,-0.15 0.04,-0.32 0.04,-0.5 0,-0.12 0.03,0.03 0.02,-0.27 -0,-0.09 0.01,-0.02 0.02,-0.12 0.02,-0.1 -0.01,-0.09 -0.01,-0.14 0.01,-0.14 0.02,0.07 0.05,-0.05 0,-0.01 0.01,-0 0.02,-0.01 -0,-0.1 -0,-0.15 -0.03,-0.23l-0.02 -0.14c0.04,-0.13 -0.01,0.02 0.04,-0.08 0.04,-0.1 0.05,-0.2 0.05,-0.29 0.01,-0.17 -0.04,-0.26 -0.05,-0.35l0.04 -1.13c-0.05,-0.36 -0,-0.34 -0.03,-0.52 -0.02,-0.18 -0.04,-0.05 -0.05,-0.18 -0.01,-0.1 0,-0.05 0.03,-0.1l0.02 -0.03c0.01,-0.05 -0.03,-0.29 -0.01,-0.56 0.01,-0.13 -0.01,-0.34 -0,-0.5 0,-0.09 -0.02,-0.36 -0.03,-0.49 -0.01,-0.22 -0.07,-0.06 -0.05,-0.35 0.01,-0.2 -0.12,-0.07 -0.08,-0.43 0.01,-0.1 0.02,-0.49 -0.04,-0.61 -0.12,-0.25 0,-0.13 -0.07,-0.24l-0.12 -0.12c-0,-0.01 -0.02,-0.02 -0.02,-0.03 -0.03,-0.05 -0.02,-0.05 -0.04,-0.08 -0.01,-0.02 -0.01,-0.01 -0.04,-0.05l-0.03 -0.03 -0.16 0.05z"/>
   <path class="fil8" d="M1.75 4.85c0,0.11 0.03,0.26 0.04,0.35 0.02,0.09 0.01,0.06 0.07,0.14 0.07,0.09 0.02,0.07 0.08,0.09 0.09,0.05 -0.01,-0 0.15,0.03 0.16,0.04 0.06,0.1 0.23,-0.01 0,-0 0.01,-0.01 0.01,-0.01l0.03 -0.02c0.03,-0.01 0.01,-0.01 0.06,-0.01 0.13,-0.02 0.22,0.02 0.33,0.06 0.01,0 0.01,0.01 0.02,0.01 0.01,0 0.01,0.01 0.02,0.01l0.13 0.03c0.02,0 0.14,0 0.15,-0 0.16,-0.02 0.07,0.02 0.11,-0.05l0.03 0c0.03,0.07 0.05,0.03 0.14,0.11l0.03 0.03c0.01,-0.06 0.01,-0.05 0.04,-0.09l0.35 -0c0.08,0 0.13,0.02 0.18,0.02 0.2,-0.01 -0.02,-0.02 0.12,-0.07l0.03 0.07c0.06,-0.05 0.02,-0.02 0.09,-0.01 0.23,0.04 0.12,-0.02 0.25,0 0.08,0.01 -0.01,0.06 0.11,-0 0.18,-0.09 0,-0.03 0.17,-0.04 0.11,-0.01 -0.07,0.01 0.03,-0.01 0.04,-0.01 -0.01,-0.01 0.04,-0.01 0.07,0.01 0.13,0.07 0.16,0.11 0.04,-0.03 -0.05,-0.01 0.08,-0.04 0.12,-0.02 -0.03,0.01 0.11,0.01 0.15,-0 0.1,-0.08 0.28,-0.02 0.07,0.02 -0.01,0 0.04,0.01 0.09,0.02 0.13,-0.06 0.26,0.05 0,0 0.01,0.01 0.01,0.01 0.19,-0.07 -0.12,0.08 0.05,-0.04 0.12,-0.08 0.18,0.03 0.4,-0.05l0.45 -0.16c0.06,-0.14 0.06,-0.31 0.09,-0.47 -0.16,0.01 0.04,0.02 -0.12,0.07l-0.05 0.01c-0.12,0.02 -0.08,-0.01 -0.2,0.01 -0.01,0 -0.09,0.02 -0.12,0.02l-0.28 0.02c-0.07,0.02 0.01,-0 -0.05,0.02 -0.19,0.08 -0.1,0.02 -0.24,0.04 -0.06,0.01 -0.05,0.02 -0.09,0.02 -0.09,-0 -0.07,-0.05 -0.16,-0.06 -0.2,-0.01 -0.04,0.1 -0.25,-0.01 -0.14,-0.08 -0.17,-0.05 -0.27,-0.04 -0,0 -0.01,0 -0.01,0 -0.08,0 -0.12,-0.08 -0.26,-0.04 -0.18,0.04 -0.44,0.01 -0.62,0.02 -0,0 -0.24,0.01 -0.25,0.01 -0.06,0.01 -0.14,0.06 -0.16,0.11 -0.14,-0.07 -0.07,-0.12 -0.32,-0.11 -0.32,0.01 -0.45,-0.02 -0.63,-0.02 -0.23,0 -0.16,0.01 -0.23,-0.05 -0.08,0.05 -0.15,0.05 -0.22,0.05 -0.27,-0 -0.21,-0.05 -0.25,-0.11l-0.11 -0.13 -0.07 0.13z"/>
   <path class="fil9" d="M1.36 13.62c-0.02,-0.22 -0.11,-2.89 -0.04,-3.19 0.02,-0.09 0.01,0.04 0.02,-0.1l0.33 0.2c0.05,0.07 0.02,0.36 0.02,0.46 -0.01,0.41 -0.01,1.6 -0.05,1.94 -0.02,0.11 -0.28,0.67 -0.28,0.69zm-0.12 -3.77c0.08,0.1 0.39,0.21 0.54,0.25l-0.02 0.35c-0.5,-0.39 -0.52,-0.17 -0.52,-0.61zm0 -0.66l-0 0.02c0.02,0.04 -0,0.01 0.02,0.03 0.04,0.04 0.01,0 0.04,0.03 0.03,0.03 0.01,0.01 0.04,0.04 0.2,0.27 0.11,0.13 0.29,0.28 0.07,0.06 0.05,0.08 0.13,0.14l0.01 0.3c-0.06,-0.04 -0.38,-0.15 -0.53,-0.27l0 -0.57zm0.12 -3.44c0.09,0.19 0.3,1.47 0.3,1.74 0.01,0.33 0.04,0.64 0.04,0.98 0,0.33 0,0.69 0.02,1.02 -0.1,-0.06 -0.31,-0.28 -0.37,-0.39 -0.04,-0.07 -0.05,-0.11 -0.05,-0.23 0.02,-0.83 -0.02,-2.47 0.06,-3.12zm-0.22 -0c0.09,0.05 0.03,-0.01 0.05,0.11l-0.02 1.88c0,0.28 0.02,1.85 -0.01,1.99 -0.12,-0.04 -0.13,-0.13 -0.08,-0.22 0.04,-0.08 0.06,0.03 0.05,-0.29 -0.08,-0.01 -0.05,-0 -0.11,-0.03l0 0.51 0.14 0.11 0.02 2.05c-0.02,0.22 0.02,0.08 -0.07,0.13l0.01 0.25c0.06,0.02 0.07,-0.05 0.06,0.21 -0.01,0.6 0.05,1.19 0.08,1.78 0.02,0.09 -0,0.03 0.04,0.05 0.13,-0.24 0.22,-0.56 0.32,-0.84 0.14,-0.41 0.15,-0.5 0.17,-0.98 0.03,-0.77 0.04,-1.56 0.04,-2.33l0.17 0c-0.01,-0.01 -0.02,-0.02 -0.02,-0.01l-0.15 -0.05c-0.04,-0.45 0,-1.09 -0.01,-1.57 -0.01,-0.52 -0.04,-0.99 -0.1,-1.5l-0.03 -0.09c0.01,-0.2 -0.12,-0.7 -0.17,-0.92 -0.04,-0.19 -0.18,-0.72 -0.18,-0.87 -0,-0 -0.03,-0.03 -0.04,-0.04 -0,-0 -0.01,-0.01 -0.02,-0.01 -0,-0.01 -0.01,-0.01 -0.02,-0.01l-0.06 0.07c0.03,0.11 0.04,0.09 0.08,0.15l0.04 0.07c0.01,0.03 0.01,0.09 0.01,0.13 0,0.08 0,0.14 -0.02,0.19 -0.05,0.14 -0.04,-0 -0.07,0.18 -0.01,-0.04 -0.02,-0.12 -0.1,-0.08z"/>
   <path class="fil10" d="M1.94 15.71c-0.02,0.14 -0.09,0.59 -0.03,0.68 0.1,-0.08 -0.09,0.04 0.03,-0.01l0.05 -0.05c0,-0 0,-0.01 0.01,-0.02 0.08,-0.17 0.03,-0.02 0.17,-0.2 0.12,-0.15 0.26,-0.04 0.34,-0.04 0.13,0.01 0.35,-0.04 0.39,-0.17 0.12,0.09 0.14,0.03 0.24,0.01 0.23,-0.06 -0.01,0.06 0.37,-0.09l0.2 -0.08c0.08,-0.01 -0.03,-0.01 0.09,0.02 0.05,-0.06 0.01,-0.03 0.07,-0.09l0.08 0.02c0.23,0.06 0.11,0.06 0.25,0.07 0.04,0 0.11,-0 0.15,-0 0,-0.01 0.01,-0.05 0.02,-0.06 0.04,-0.07 -0.02,0 0.04,-0.06 0.01,0.2 0.1,0.09 0.04,0.16 0.01,-0 0.01,-0.01 0.02,-0.01 0,-0 0.01,-0.01 0.02,-0.01l0.12 -0.1c0,-0.01 0.02,-0.02 0.03,-0.03 0,-0.01 0.01,-0.01 0.01,-0.02l0.51 -0.02c0.22,-0.09 -0.03,-0.02 0.09,-0.03 0.11,-0 -0.02,0.03 0.08,-0.01 0.08,-0.03 0.1,-0.06 0.14,-0.12 0.22,0 0.13,0.08 0.3,0.03 0.21,-0.07 0.07,-0.15 0.41,-0.14 0.12,0 0.17,0.03 0.33,0.02l-0.1 -0.48c-0.19,-0.02 -0.49,-0.1 -0.6,-0.05 -0.05,0.02 -0.1,0.04 -0.14,0.13 -0.3,0 -0.19,0.01 -0.4,0.05 -0.26,0.05 -0.05,0.08 -0.27,0.1 -0.13,0.01 -0.36,0.02 -0.48,0.06 -0.08,0.03 -0.07,0.07 -0.13,0.06 -0,-0 -0.02,-0.01 -0.03,-0.01 -0.18,-0.03 -0.1,0.02 -0.19,0.02 -0.2,0.02 0.06,-0.09 -0.15,0.01 -0.03,0.02 -0,0.01 -0.05,0.01l-0.2 0.01c-0.28,0.01 -0.35,0.13 -0.63,0.11l-0.24 0.02c-0,0 -0.01,0 -0.02,0l-0.08 0.03c-0.09,0.04 -0.08,0.02 -0.16,0.01 -0.17,-0.01 0.01,0.06 -0.27,0.07 0.02,0.05 0.04,0.02 0.02,0.06 -0.03,0.06 -0.04,-0.02 -0.14,0.03 -0.11,0.06 -0.08,-0 -0.29,0.1z"/>
   <path class="fil11" d="M2.25 16.61c0.19,0.15 1.02,0.29 1.29,0.33 -0.07,-0.07 -0.07,-0.14 -0.08,-0.25 -0,-0.05 -0,-0.05 0.01,-0.1 0.12,0.02 0.05,0.01 0.13,0.07l0.06 -0.03c0,-0 0.01,-0.01 0.02,-0.01 0.01,-0 0.01,-0.01 0.02,-0.01 0.16,-0.07 0.13,0.02 0.29,0.02 0.15,0 0.11,0 0.19,-0.05l0.11 -0.09c0.06,-0.04 0.08,-0.03 0.14,-0.04l0.29 -0.08c0.04,-0.01 0.03,-0.01 0.07,-0.01 0.15,-0.01 0.04,0.02 0.17,-0.04 0.01,-0 0.01,-0.01 0.02,-0.01 0.12,-0.04 0.06,0.01 0.18,-0.01 0,-0 0.01,-0 0.01,-0l0.07 -0.02c0.02,-0 0.08,-0.02 0.14,-0.01 -0.03,-0.07 -0.15,-0.05 0.05,-0.07 0.04,0.13 0.02,-0.03 0.33,-0.01 0.07,0 0.14,0.02 0.19,0.01l0.14 -0.04c0.05,-0.01 0.04,-0.01 0.07,-0.01 0.01,-0 0.07,-0.01 0.09,-0.01 0.08,-0.01 0.1,-0 0.14,0.07l0.14 0.26c0.1,-0.06 0.02,-0.57 0.01,-0.71 -0.14,-0 -0.09,0.01 -0.21,-0.03l-0.18 -0.07c-0,-0 -0.01,0 -0.01,0 -0.23,-0 -0.22,-0.04 -0.45,0.11 -0.12,0.07 -0.21,-0.01 -0.22,-0.06 -0,-0.01 -0,-0.01 -0.01,-0.02l-0.03 0.14c-0.05,0.01 -0.13,0.03 -0.18,0.05l-0.55 0.08c-0.06,-0 -0.26,-0.01 -0.39,0.02 -0.18,0.03 -0.11,0.08 -0.21,0.06 -0.05,-0.01 -0.04,-0.01 -0.08,-0.03 -0.03,0.06 -0.01,0.06 -0.07,0.1 -0.05,0.03 -0,0 -0.07,0.03 -0.01,0 -0.01,0.01 -0.02,0.01l-0.13 0c-0.05,0 -0.01,0 -0.06,0.02 -0.15,0.07 -0.45,-0.09 -0.52,0.15l-0.03 0c-0.03,-0.05 -0.01,-0.04 -0.18,-0.04 -0.02,0.06 -0.02,0.07 -0.06,0.11 -0.05,-0.01 -0.08,-0.05 -0.12,-0.05 -0.13,-0.01 0,0.04 -0.14,0.04 -0.18,-0 0.02,-0.02 -0.13,-0.05 -0.03,-0.01 -0.07,0.01 -0.14,0.01 0.01,0.18 0.02,-0.03 0.04,0.15l-0.12 -0.03c-0,0.22 -0.08,-0 -0.02,0.16z"/>
   <path class="fil12" d="M1.75 4.85l0.07 -0.13 0.11 0.13c0.04,0.06 -0.02,0.11 0.25,0.11 0.08,0 0.14,0 0.22,-0.05 0.07,0.06 -0,0.05 0.23,0.05 0.18,0 0.31,0.03 0.63,0.02 0.25,-0.01 0.17,0.04 0.32,0.11 0.02,-0.04 0.09,-0.09 0.16,-0.11 0.01,-0 0.25,-0.01 0.25,-0.01 0.18,-0.01 0.44,0.02 0.62,-0.02 0.14,-0.03 0.17,0.05 0.26,0.04 0,0 0.01,-0 0.01,-0 0.1,-0.01 0.14,-0.04 0.27,0.04 0.21,0.12 0.05,0 0.25,0.01 0.09,0.01 0.07,0.05 0.16,0.06 0.04,0 0.03,-0.01 0.09,-0.02 0.14,-0.02 0.05,0.04 0.24,-0.04 0.06,-0.02 -0.01,-0 0.05,-0.02l0.28 -0.02c0.03,-0 0.1,-0.02 0.12,-0.02 0.12,-0.02 0.08,0.01 0.2,-0.01l0.05 -0.01c0.16,-0.05 -0.04,-0.06 0.12,-0.07l0.01 -0.25 -0.39 -0.17c-0.01,0.08 0.01,0.05 -0.05,0.09 -0,0 -0.01,0.01 -0.02,0.01l-0.19 -0.05c0.02,0.06 -0.07,0.05 -0.07,0.05l-0.02 -0c-0,0 -0.01,0 -0.01,0 -0.11,0.02 -0.11,0.08 -0.25,0.04l0 -0.07c-0.11,0 -0.22,-0.01 -0.32,0.02 -0.01,0 -0.01,0 -0.02,0.01l-0.08 0.03c-0.13,0.08 0.1,-0.1 -0.04,0.03l-0.04 0.05c-0.04,-0.13 -0.12,-0.05 -0.15,-0.04 -0.04,0.01 -0.01,0.01 -0.06,0.02 -0.11,0.01 -0.04,-0.01 -0.13,-0 -0.22,0.01 -0.31,0.1 -0.46,0.05 -0.15,-0.05 0,-0.01 -0.11,-0.07l-0.13 -0.05c-0.14,0.12 0.12,0.01 -0.06,0.05l-0.03 0c-0.19,-0 -0.07,0.06 -0.26,-0.02 -0.1,-0.04 0.03,-0.02 -0.04,-0.01l-0.06 0.01c-0.11,-0.01 -0.01,-0.06 -0.19,-0.03 -0.08,0.01 -0.08,-0.01 -0.14,0.02 -0.11,0.05 -0.17,0.03 -0.36,0.03l-0.07 -0.12c-0,0.01 -0.02,0.02 -0.03,0.01 -0.04,-0.01 -0.03,0.01 -0.08,-0.05 -0,-0 -0.01,-0.01 -0.01,-0.01 -0,-0 -0.01,-0.01 -0.01,-0.02l-0.03 -0.1 0.1 -0.04c-0.33,0.04 -0.94,0.17 -1.18,0.36l0.02 0.19z"/>
   <path class="fil13" d="M6.79 19.19l-0.08 -0 0.02 -0.11c-0.23,0.08 -0.3,0.17 -0.62,0.22 0.07,-0.06 0.02,-0.02 0.05,-0.09 0.04,-0.12 0.11,-0.14 0.14,-0.33 -0.15,0.09 -0.2,0.16 -0.41,0.21 -0.76,0.2 -2.6,0.24 -3.34,-0.01 -0.2,-0.07 -0.26,-0.14 -0.41,-0.21l0.01 0.12c0,0.15 0.13,0.29 0.22,0.32 -0.26,-0.09 -0.39,-0.09 -0.64,-0.24 -0.58,-0.35 -0.21,-0.15 -0.47,-0.37l-0.04 -0.03c0.11,0.49 0.57,0.62 1,0.73 0.71,0.19 2.47,0.21 3.21,0.12 0.29,-0.04 1.24,-0.17 1.35,-0.33z"/>
   <path class="fil14" d="M3.54 16.94c0.54,0.05 1.13,0.05 1.67,-0.03 0.3,-0.04 0.78,-0.15 1.06,-0.27 0.05,-0.02 0.1,-0.05 0.15,-0.07 0.12,-0.06 0.09,-0.02 0.11,-0.11l-0.14 -0.26c-0.04,-0.07 -0.06,-0.08 -0.14,-0.07 -0.01,0 -0.08,0.01 -0.09,0.01 -0.02,0 -0.01,-0 -0.07,0.01l-0.14 0.04c-0.05,0.01 -0.12,-0.01 -0.19,-0.01 -0.3,-0.02 -0.29,0.15 -0.33,0.01 -0.19,0.02 -0.08,0.01 -0.05,0.07 -0.06,-0 -0.12,0.01 -0.14,0.01l-0.07 0.02c-0,0 -0.01,0 -0.01,0 -0.12,0.02 -0.06,-0.03 -0.18,0.01 -0.01,0 -0.01,0.01 -0.02,0.01 -0.14,0.06 -0.03,0.03 -0.17,0.04 -0.04,0 -0.03,0 -0.07,0.01l-0.29 0.08c-0.06,0.01 -0.09,0 -0.14,0.04l-0.11 0.09c-0.09,0.05 -0.05,0.05 -0.19,0.05 -0.16,-0 -0.12,-0.09 -0.29,-0.02 -0.01,0 -0.01,0.01 -0.02,0.01 -0,0 -0.01,0.01 -0.02,0.01l-0.06 0.03c-0.08,-0.07 -0.01,-0.05 -0.13,-0.07 -0.02,0.05 -0.02,0.05 -0.01,0.1 0.01,0.11 0.02,0.18 0.08,0.25z"/>
   <path class="fil15" d="M6.64 18.27l0.03 -0.17c-0.56,0.21 -0.6,0.34 -1.39,0.47 -0.76,0.13 -1.45,0.13 -2.21,-0.03 -0.08,-0.02 -0.4,-0.08 -0.46,-0.13 -0.08,-0 -0.14,-0.03 -0.2,-0.05 -0.05,-0.02 -0.1,-0.04 -0.14,-0.07 -0.08,-0.01 -0.44,-0.14 -0.49,-0.19 -0,-0 -0.01,-0.01 -0.01,-0.02 -0,-0.01 -0.01,-0.01 -0.01,-0.02 0.03,0.28 0.04,0.32 0.34,0.47l0.85 0.34c0.25,0.06 0.82,0.1 1.08,0.1l0.01 -0.04c0.03,-0.11 -0.02,-0.03 0.04,-0.11l0.33 -0 -0 0.15c0.28,0.01 1.07,-0.05 1.29,-0.16 0.26,-0.12 0.52,-0.2 0.77,-0.34 0.13,-0.07 0.14,-0.06 0.18,-0.21z"/>
   <path class="fil16" d="M1.91 16.39c0.04,0.12 0.2,0.17 0.33,0.22 -0.06,-0.17 0.02,0.05 0.02,-0.16l0.12 0.03c-0.02,-0.18 -0.04,0.04 -0.04,-0.15 0.07,-0 0.11,-0.02 0.14,-0.01 0.15,0.03 -0.05,0.05 0.13,0.05 0.15,0 0.02,-0.05 0.14,-0.04 0.04,0 0.07,0.04 0.12,0.05 0.03,-0.05 0.04,-0.05 0.06,-0.11 0.17,-0 0.15,-0.02 0.18,0.04l0.03 0c0.08,-0.24 0.37,-0.08 0.52,-0.15 0.05,-0.02 0.01,-0.02 0.06,-0.02l0.13 -0c0.01,-0 0.01,-0 0.02,-0.01 0.07,-0.03 0.02,0 0.07,-0.03 0.06,-0.04 0.04,-0.04 0.07,-0.1 0.04,0.02 0.02,0.02 0.08,0.03 0.09,0.02 0.03,-0.03 0.21,-0.06 0.13,-0.02 0.33,-0.02 0.39,-0.02l0.55 -0.08c0.05,-0.02 0.13,-0.03 0.18,-0.05l0.03 -0.14c0,0 0,0.01 0.01,0.02 0.01,0.05 0.1,0.13 0.22,0.06 0.24,-0.15 0.23,-0.11 0.45,-0.11 0,0 0.01,-0 0.01,-0l0.18 0.07c0.12,0.04 0.08,0.03 0.21,0.03l-0.04 -0.41c-0.15,0.01 -0.2,-0.02 -0.33,-0.02 -0.34,-0 -0.2,0.07 -0.41,0.14 -0.16,0.06 -0.07,-0.02 -0.3,-0.03 -0.04,0.05 -0.07,0.08 -0.14,0.12 -0.09,0.04 0.03,0.01 -0.08,0.01 -0.11,0 0.13,-0.06 -0.09,0.03l-0.51 0.02c-0.01,0.01 -0.01,0.01 -0.01,0.02 -0,0.01 -0.02,0.03 -0.03,0.03l-0.12 0.1c-0,0 -0.01,0.01 -0.02,0.01 -0,0 -0.01,0.01 -0.02,0.01 0.06,-0.07 -0.03,0.04 -0.04,-0.16 -0.06,0.06 -0.01,-0.01 -0.04,0.06 -0.01,0.01 -0.02,0.05 -0.02,0.06 -0.04,0 -0.11,0.01 -0.15,0 -0.14,-0.01 -0.01,-0.01 -0.25,-0.07l-0.08 -0.02c-0.06,0.06 -0.03,0.03 -0.07,0.09 -0.11,-0.03 -0,-0.03 -0.09,-0.02l-0.2 0.08c-0.38,0.15 -0.14,0.04 -0.37,0.09 -0.09,0.02 -0.12,0.08 -0.24,-0.01 -0.04,0.13 -0.26,0.17 -0.39,0.17 -0.08,-0 -0.23,-0.11 -0.34,0.04 -0.15,0.19 -0.09,0.03 -0.17,0.2 -0,0 -0.01,0.01 -0.01,0.02l-0.05 0.05c-0.13,0.05 0.07,-0.07 -0.03,0.01z"/>
   <path class="fil17" d="M2.35 12.83c0,0.26 0.04,0.69 -0.13,0.84l-0.07 0.48 0.22 0.03c0.19,-0.01 0.17,-0.1 0.18,-0.43 0.01,-0.19 0.05,-0.4 0.04,-0.54 -0.01,-0.21 -0.02,-0.79 0.13,-0.96 -0.05,-0.15 -0.09,-0.24 -0.06,-0.45 0.02,-0.12 -0.01,-1.45 -0.05,-1.59l-0.01 -0.04c-0.08,-0.26 0.13,-0.07 -0.03,-0.77 -0.02,-0.09 -0.04,-0.29 -0.04,-0.46 -0,-0.23 -0.07,-0.2 -0.08,-0.2 -0.07,-0.07 -0.03,-0.05 -0.06,-0.11l-0.05 -0.07c-0,0.18 0.01,0.36 0.02,0.53 0.01,0.19 -0,0.32 -0.01,0.52 -0,0.61 0.1,2.9 -0,3.23z"/>
   <path class="fil18" d="M1.99 15.35l-0.05 0.36c0.21,-0.1 0.18,-0.04 0.29,-0.1 0.1,-0.05 0.11,0.03 0.14,-0.03 0.02,-0.04 0,-0.01 -0.02,-0.06 0.28,-0.01 0.1,-0.08 0.27,-0.07 0.09,0 0.07,0.02 0.16,-0.01l0.08 -0.03c0,-0 0.01,-0 0.02,-0l0.24 -0.02c0.28,0.02 0.35,-0.1 0.63,-0.11l0.2 -0.01c0.05,-0 0.02,0 0.05,-0.01 0.21,-0.1 -0.05,0.01 0.15,-0.01 0.08,-0.01 0.01,-0.06 0.19,-0.02 0.01,0 0.02,0.01 0.03,0.01 0.06,0.01 0.05,-0.03 0.13,-0.06 0.12,-0.04 0.35,-0.05 0.48,-0.06 0.22,-0.02 0.01,-0.05 0.27,-0.1 0.21,-0.04 0.1,-0.05 0.4,-0.05 0.03,-0.1 0.09,-0.11 0.14,-0.13 0.12,-0.05 0.42,0.03 0.6,0.05l-0.03 -0.13c-0,0 0.01,-0.07 -0.07,-0.01 -0.02,-0.09 -0.03,-0.07 -0.05,-0.15 -0.12,-0.01 -0.13,-0.03 -0.23,-0.01 -0.14,0.03 0.01,-0.03 -0.14,0.03l-0.16 0.01c-0.04,-0.01 0.02,-0.03 -0.09,-0.04l-0.04 0.05c-0.07,0.07 -0.25,0.1 -0.33,0.06 -0,-0 -0.01,-0 -0.01,-0.01l-0.06 -0.07c-0,0.06 0.05,0.12 -0.2,0.14l-0.03 0c-0,0 -0.01,0 -0.02,0 -0,0 -0.01,0 -0.02,0 -0.14,0.03 -0.17,0.06 -0.33,0.07 -0.15,0.01 -0.09,0.02 -0.18,0.05 -0.08,0.03 -0.22,0.08 -0.3,0.06l-0.43 0.06c-0.01,0 -0.03,0 -0.04,0 -0.06,-0.02 0.01,0.02 -0.03,-0.02l-0.03 -0.05c-0,-0 -0,-0.01 -0.01,-0.02 -0.08,0.16 -0.02,0.05 -0.07,0.08 -0.05,0.03 -0.03,0.04 -0.08,0.05 -0,0 -0.02,-0 -0.02,-0l-0.22 0.03c-0.13,0.01 0,0.03 -0.18,0.01 -0.06,-0.01 -0.13,-0.02 -0.18,-0.02 -0.09,0.01 -0.06,0.02 -0.08,0.02 -0.12,0.04 -0.15,0.06 -0.28,0.02 -0.03,0.09 0.01,0.09 -0.07,0.13 -0.05,0.03 -0.03,0.01 -0.07,0.01 -0.23,0.02 -0.12,0.12 -0.27,0.14 -0.09,0.01 -0.02,0.02 -0.07,-0.01z"/>
   <path class="fil19" d="M1.99 15.35c0.05,0.04 -0.02,0.03 0.07,0.01 0.15,-0.02 0.04,-0.12 0.27,-0.14 0.04,-0 0.02,0.01 0.07,-0.01 0.08,-0.04 0.03,-0.04 0.07,-0.13 0.13,0.03 0.16,0.02 0.28,-0.02 0.01,-0.01 -0.02,-0.01 0.08,-0.02 0.05,-0.01 0.12,0.01 0.18,0.02 0.19,0.02 0.05,0 0.18,-0.01l0.22 -0.03c0.01,-0 0.02,0 0.02,0 0.05,-0.01 0.04,-0.02 0.08,-0.05 0.06,-0.03 -0,0.08 0.07,-0.08 0,0.01 0.01,0.01 0.01,0.02l0.03 0.05c0.04,0.05 -0.02,0.01 0.03,0.02 0,0 0.03,0 0.04,-0l0.43 -0.06c0.08,0.02 0.22,-0.03 0.3,-0.06 0.09,-0.03 0.02,-0.04 0.18,-0.05 0.15,-0.01 0.18,-0.04 0.33,-0.07 0,-0 0.01,-0 0.02,-0 0,-0 0.01,-0 0.02,-0l0.03 -0c0.25,-0.02 0.2,-0.08 0.2,-0.14l0.06 0.07c0,0 0.01,0 0.01,0.01 0.08,0.04 0.26,0 0.33,-0.06l0.04 -0.05c0.11,0.02 0.05,0.03 0.09,0.04l0.16 -0.01c0.15,-0.06 0,0.01 0.14,-0.03 0.1,-0.02 0.11,0 0.23,0.01 0.02,0.08 0.03,0.06 0.05,0.15 0.08,-0.06 0.07,0.01 0.07,0.01l-0.1 -0.3c-0.98,0.12 -2.02,0.29 -3.08,0.16 -0.28,-0.04 -0.69,-0.06 -0.97,-0.13 -0.09,0.19 -0.18,0.71 -0.24,0.91z"/>
   <path class="fil20" d="M6.54 5.95c-0.26,0.09 -0.04,0.12 -0.24,0.1 -0,-0 -0.01,-0.01 -0.04,-0 -0.12,0.02 -0.01,0.08 -0.4,0.03 -0.19,-0.02 -0.66,-0.01 -0.89,-0.02 -0.29,-0.01 -0.14,-0.05 -0.29,-0.01l-0.08 0.02c-0.19,0.03 -0.24,-0.01 -0.44,-0.01 -0.16,-0 -0.54,0.04 -0.6,0.03 -0.23,-0.04 -0.65,-0.02 -0.93,-0.04 -0.32,-0.01 -0.35,0.02 -0.62,-0.11 -0.05,-0.03 -0.02,-0.03 -0.1,-0.06 0.04,0.17 0.13,0.53 0.2,0.62l1.01 -0.17c0.37,-0.05 0.76,-0.07 1.13,-0.07 0.39,0 0.76,0.02 1.14,0.07 0.21,0.02 0.92,0.17 1.02,0.16 0.06,-0.09 0.15,-0.42 0.16,-0.55z"/>
   <path class="fil21" d="M5.16 18.98c-0.03,0.11 -0.04,0.09 -0.17,0.1l-1.53 -0c-0.1,-0.01 -0.1,-0 -0.14,-0.09 0.28,-0.01 0.61,0.04 0.93,0.04 0.32,-0 0.61,-0.05 0.91,-0.05zm1.05 -0.12c-0.35,0.44 -3.13,0.43 -3.79,0.1 -0.05,-0.02 -0.13,-0.08 -0.15,-0.09 0.14,0.01 0.31,0.08 0.45,0.08 0.13,-0 0.11,-0.04 0.21,-0.04 0.14,0.01 0.11,0.02 0.16,0.1l0 -0.07c0.28,0.04 0.12,0.05 0.22,0.13 0.12,0.1 1.45,0.05 1.67,0.04 0.26,-0.02 0.12,0 0.23,-0.12 0.03,-0.04 0.08,-0.06 0.13,-0.06 0.1,0 0.05,-0.03 0.09,0.05 0.04,-0.07 0.05,-0.1 0.17,-0.07 0.31,0.06 0.26,-0.01 0.62,-0.06zm-4.05 -0.25l0.64 0.27c-0.12,0.04 -0.32,-0.02 -0.44,-0.06 -0.26,-0.08 -0.22,-0 -0.35,-0.2 0,-0.07 -0.03,-0 0.02,-0.05l0.13 0.04zm4.24 -0.04l0.11 -0.02 -0.08 0.1c-0.09,0.14 -0.16,0.14 -0.35,0.19 -0.14,0.03 -0.27,0.06 -0.4,0.06 0.12,-0.09 0.53,-0.22 0.72,-0.33zm-4.53 -0.03l0.02 0.03c0.03,0.06 0.07,0.11 0.12,0.16 -0.17,-0.04 -0.45,-0.16 -0.58,-0.27 -0.18,-0.14 -0.2,-0.36 -0.23,-0.65l-0.01 -0.56c0.04,0.11 0.09,0.18 0.13,0.35 0.17,0.69 0.45,0.67 0.55,0.94zm5.4 -2.39l-0.01 0.23c-0.01,0 -0.09,0.01 -0.09,0.01 -0.09,0.03 -0.01,-0.04 -0.07,0.05l0.13 -0 -0.01 0.21 -0.04 0.25c-0.01,0 -0.03,0.01 -0.04,0.01 -0.09,0.04 -0.01,-0.04 -0.07,0.05l0.12 0 -0 0.18 -0.13 -0.01c0.01,0.01 0.01,0.01 0.02,0.02l0.12 0.06c0,0.19 -0.02,0.2 -0.13,0.27 -0.01,0.17 0.05,0.08 -0.01,0.24 -0.07,0.23 -0.16,0.35 -0.31,0.52l0 0.05c0.33,-0.21 0.41,-0.88 0.53,-1.03 0.03,0.18 -0.02,0.34 -0.02,0.51 -0.01,0.27 -0.06,0.57 -0.23,0.69 -0.13,0.1 -0.41,0.21 -0.57,0.26 0.06,-0.04 0.06,-0.08 0.11,-0.15l0.02 -0.04c0.03,-0.07 0.02,-0.07 0.07,-0.13 0.07,-0.07 0.04,-0.01 0.09,-0.1 -0.02,-0.01 -0.04,-0.01 -0.06,-0.02 -0.01,-0 -0.02,0 -0.02,-0.01 -0,-0.01 -0.01,-0.01 -0.02,-0.01 -0.04,0.16 -0.05,0.14 -0.18,0.21 -0.25,0.14 -0.51,0.22 -0.77,0.34 -0.22,0.1 -1.01,0.16 -1.29,0.16l0 -0.15 -0.33 0c-0.06,0.08 -0,0 -0.04,0.11l-0.01 0.04c-0.25,-0 -0.83,-0.05 -1.08,-0.1l-0.85 -0.34c-0.3,-0.15 -0.31,-0.18 -0.34,-0.47l-0.04 -0.1 -0.02 0.05 0.03 0.24c-0.25,-0.15 -0.48,-0.92 -0.49,-1.11l0.08 -0.04c0.08,-0.05 -0.02,0.05 0.05,-0.04l-0.12 0 -0.03 -0.22 0.13 0c-0.04,-0.06 -0.06,-0.03 -0.17,-0.05l-0.01 0.03 0.02 0.24 -0.07 0.04c-0.03,0.02 -0.01,-0 -0.05,0.03 0.01,0.07 0.04,0.59 0.02,0.65l-0.1 0.11c-0,-0 -0.01,0.01 -0.02,0.01 -0.03,0.11 -0.02,0.03 0.04,0.07 0.02,-0.1 0,-0.08 0.06,-0.15l0.05 0.11c0.01,0.04 0.01,0.09 0.02,0.13 0.04,0.23 0.12,0.36 0.33,0.49 0.53,0.31 0.57,0.09 0.66,0.41l-0.01 -0.12c0.15,0.07 0.21,0.14 0.41,0.21 0.74,0.25 2.58,0.22 3.34,0.01 0.21,-0.05 0.26,-0.13 0.41,-0.21 -0.03,0.19 -0.1,0.22 -0.14,0.33 0.03,-0.05 0.07,-0.09 0.11,-0.17 0.05,-0.1 0.03,-0.17 0.1,-0.22 0.35,-0.22 0.83,-0.04 0.94,-0.97 0.03,0.02 0.05,0.02 0.07,0.03 -0.06,-0.12 -0.05,-0 -0.06,-0.15 -0,-0.04 0.01,-0.13 0.01,-0.17 0.01,-0.12 0.01,-0.23 0,-0.35 -0.1,-0.08 -0.1,0.02 -0.11,-0.12 -0.01,-0.09 -0,-0.14 0.07,-0.14l-0.03 -0.05c-0.03,-0.06 -0.01,-0.14 0.01,-0.2l0.1 0.02c-0.02,0.09 -0.02,0.06 0,0.15 0.04,-0.06 0.03,-0.08 0.03,-0.18l-0.15 -0.04 0.01 -0.22 0.1 -0 -0.08 -0.05c-0,-0.04 -0,-0.11 0.01,-0.15 0.02,-0.08 -0.02,-0.05 0.09,-0.06 0.05,0.09 0.01,0.14 0,0.26 0.06,-0.05 0.05,0.01 0.05,-0.25l-0.15 -0.05 0 -0.12c-0.02,0.03 -0.01,-0.03 -0.03,0.07 -0.02,0.07 -0.01,0.02 0,0.08z"/>
   <path class="fil22" d="M2.91 4.31l-0.1 0.04 0.03 0.1c0,0 0,0.01 0.01,0.02 0,0 0.01,0.01 0.01,0.01 0.04,0.06 0.03,0.05 0.08,0.05 0,0 0.03,-0.01 0.03,-0.01l0.07 0.12c0.19,0 0.24,0.02 0.36,-0.03 0.07,-0.03 0.07,-0.01 0.14,-0.02 0.19,-0.03 0.08,0.01 0.19,0.03l0.06 -0.01c0.07,-0 -0.05,-0.03 0.04,0.01 0.18,0.08 0.07,0.02 0.26,0.02l0.03 -0c0.18,-0.04 -0.08,0.07 0.06,-0.05l0.13 0.05c0.11,0.06 -0.04,0.02 0.11,0.07 0.15,0.05 0.24,-0.04 0.46,-0.05 0.1,-0 0.02,0.01 0.13,0 0.06,-0.01 0.03,-0 0.06,-0.02 0.02,-0.01 0.11,-0.09 0.15,0.04l0.04 -0.05c0.14,-0.14 -0.09,0.05 0.04,-0.03l0.08 -0.03c0.01,-0 0.01,-0 0.02,-0.01 0.1,-0.03 0.21,-0.01 0.32,-0.02l0 0.07c0.13,0.04 0.13,-0.02 0.25,-0.04 0,-0 0.01,-0 0.01,-0l0.02 0c0,0 0.09,0.02 0.07,-0.05l0.19 0.05c0.01,-0 0.01,-0 0.02,-0.01 0.06,-0.04 0.03,-0.01 0.05,-0.09 -0.16,-0.03 -0.3,-0.1 -0.46,-0.14 -0.16,-0.03 -0.34,-0.06 -0.51,-0.08 -0.31,-0.05 -0.8,-0.11 -1.13,-0.09l-0 0.01c-0.08,0.07 -0.22,0.03 -0.33,0.03 -0.24,0 -0.79,0.04 -0.99,0.1z"/>
   <path class="fil23" d="M6.76 10.54c-0.04,0.23 -0.04,2.28 0.08,2.53l0.22 0.59c0.06,-0.12 0.13,-3.1 0.07,-3.37 -0.06,0.02 -0.29,0.21 -0.37,0.26z"/>
   <path class="fil24" d="M1.36 5.75c-0.08,0.65 -0.03,2.29 -0.06,3.12 -0,0.12 0.01,0.16 0.05,0.23 0.07,0.11 0.27,0.33 0.37,0.39 -0.02,-0.33 -0.02,-0.69 -0.02,-1.02 -0,-0.34 -0.04,-0.65 -0.04,-0.98 -0.01,-0.27 -0.21,-1.55 -0.3,-1.74z"/>
   <path class="fil23" d="M1.36 13.62c-0,-0.02 0.26,-0.58 0.28,-0.69 0.05,-0.34 0.05,-1.53 0.05,-1.94 0,-0.1 0.03,-0.4 -0.02,-0.46l-0.33 -0.2c-0.01,0.14 -0,0.01 -0.02,0.1 -0.07,0.3 0.03,2.97 0.04,3.19z"/>
   <path class="fil10" d="M6.73 9.46c0.06,-0.06 0.13,-0.14 0.2,-0.19 0.08,-0.06 0.06,-0.03 0.11,-0.11l0.09 -0.13c-0,-0.55 -0.02,-1.1 -0.02,-1.65 -0,-0.51 0.03,-1.14 -0.05,-1.62l-0.16 0.82c-0.18,1.14 -0.19,1.68 -0.18,2.88z"/>
   <path class="fil25" d="M1.72 17.97l0.04 0.1c0,0.01 0.01,0.01 0.01,0.02 0,0.01 0.01,0.01 0.01,0.02 0.05,0.05 0.41,0.18 0.49,0.19 0.06,-0.02 0,-0.04 0.04,-0.13 -0.05,-0.02 -0.05,0.01 -0.08,-0.06 0.05,-0.02 0.09,-0.02 0.15,-0.18l-0.06 -0.47c-0,-0.13 0.03,-0.05 -0.01,-0.21 -0.03,-0.13 0.01,-0.05 0.02,-0.17 0.01,-0.11 -0.01,-0.04 -0.02,-0.06 -0,-0 -0.05,0.08 -0.02,-0.08l0.04 -0.09c-0.02,-0.01 -0.58,-0.26 -0.64,-0.28 -0,0.25 -0.01,0.48 -0,0.73 0.01,0.18 0.06,0.51 0.03,0.66z"/>
   <path class="fil26" d="M1.11 6.32c-0.12,-0.01 -0.11,-0 -0.11,-0.15 0,-0.07 0.01,-0.15 0.02,-0.22 0.12,0.1 0.09,0.18 0.09,0.37zm-0.16 0.28c-0.02,0.09 -0.04,0.24 0.01,0.32 0.05,-0.03 0.04,0.01 0.04,-0.15 -0,-0.12 -0,-0.13 0.03,-0.15l0.06 0c0.05,0.05 0.02,-0.03 0.04,0.08l0 0.22 -0.12 0.03 0 0.24c0.05,0.04 0.05,0.01 0.12,0.05l0 0.25 -0.12 0.07 0 0.2c0.01,0.01 0.02,0 0.02,0.01 0.03,0.07 0.12,-0.1 0.09,0.31l-0.07 0.05c-0.06,0.05 -0.01,0.04 -0.03,0.17 -0.02,0.14 -0.02,0.08 -0.08,0.1 -0.03,-0.05 -0.04,-0.07 -0.04,-0.15 0,-0.21 0.1,-0.05 0.1,-0.27 0,-0.1 -0.01,-0.12 -0.04,-0.16 -0.11,0.03 -0.08,0.01 -0.07,0.33 0,0.14 -0.02,0.28 -0,0.42 0.03,0.24 -0.07,0.36 -0.02,0.75 0.05,-0.1 0.01,-0.22 0.02,-0.35 0.01,-0.1 -0,-0.05 0.03,-0.11 0.07,-0.16 0.01,-0.04 0.03,-0.16 0.01,-0.09 -0.01,-0.05 0.04,-0.09 0.06,-0.01 0.01,0.01 0.05,-0.14l0.08 -0.03 0 0.34c-0.03,0.04 -0.04,0.04 -0.05,0.07 -0.03,0.03 -0.05,0.04 -0.08,0.05 0,0.06 0.01,0.14 0.01,0.2 -0.01,0.13 -0.03,0.43 -0.1,0.52l0 0.27 -0.01 0.51c0,0.16 -0,0.1 0.07,0.12 0.03,-0.06 0.02,-0.04 0.02,-0.17 -0,-0.07 -0.01,-0.15 -0.01,-0.22 0.06,-0.04 0.01,-0.02 0.04,-0 0.04,0.02 0.06,0.04 0.09,0.06 0.05,0.08 0.04,0.2 0.03,0.31l-0.12 0.05 0.04 0.26 0.07 0.01 0 0.28c-0.03,0.06 -0.04,0.04 -0.13,0.06l0 0.22c0.04,0.04 -0.01,0 0.05,0.03 0.04,0.02 0.01,-0.01 0.07,0.02l0.01 0.27 -0.12 0.03 0.01 0.26 0.09 -0.01c0.09,-0.05 0.05,0.09 0.07,-0.13l-0.02 -2.05 -0.14 -0.11 -0 -0.51c0.06,0.03 0.03,0.02 0.11,0.03 0.02,0.31 -0,0.2 -0.05,0.29 -0.05,0.09 -0.04,0.17 0.08,0.22 0.03,-0.14 0.01,-1.71 0.01,-1.99l0.02 -1.88c-0.02,-0.12 0.04,-0.06 -0.05,-0.11l-0.02 0.03c-0.02,-0.1 -0.02,-0.1 -0.11,-0.13 -0,0.01 -0.01,0.01 -0.01,0.02 -0,0.01 -0.01,0.01 -0.01,0.02 -0,0.01 -0.02,0.04 -0.02,0.05 -0.01,0.05 -0.01,0.09 -0.02,0.14 -0.01,0.16 -0.04,0.3 0.01,0.43 0.03,0.1 0.05,0.21 -0.01,0.29z"/>
   <path class="fil3" d="M7.15 1.9c0.07,0.1 0.02,0.17 0.03,0.3 0.01,0.14 0.02,0.2 0.02,0.32 0.01,0.21 0.01,0.43 0.03,0.64 0.02,0.18 0.07,1.16 -0.01,1.26 0.01,0.06 0.03,0.06 0.05,0.14l0.15 -0.04c-0.04,0.03 -0.08,0.05 -0.12,0.07 -0,0.11 -0.02,0.52 -0.01,0.57 0.04,0.07 0.02,0.05 0.11,0.07 0.08,-0.16 0.02,-0.44 0.02,-0.51 0.01,-0.19 0.01,0.02 0.04,-0.15 0.03,-0.16 0.01,-0.62 0.01,-0.81 -0,-1.25 0.07,-2.33 -0.95,-3.07 -0.1,-0.08 -0.38,-0.27 -0.49,-0.3 0.06,0.01 0.69,0.48 0.76,0.55 0.25,0.23 0.35,0.5 0.36,0.97z"/>
   <path class="fil27" d="M3.91 10.09c0.01,-0.1 0.11,-0.44 0.16,-0.51l0.1 0 0.13 0.39c0.02,0.08 0.01,0.09 -0.01,0.12 -0.18,-0.03 -0.03,-0.02 -0.1,-0.07 -0.03,-0.02 -0.04,-0.05 -0.11,-0.02 -0.13,0.05 0.03,0.1 -0.17,0.09zm-0.29 -0.37c-0.1,-0.08 -0.07,0.08 -0.07,-0.11l0.08 -0.02c0.08,-0.01 0.21,-0.01 0.27,0.02 -0,0.22 -0.06,-0 -0.12,0.15l-0.02 0.34 -0.1 -0.01 -0 -0.33c-0.04,-0.07 0.01,0.01 -0.05,-0.04zm0.76 0.37c0.07,-0.33 0.19,-0.06 -0,-0.5 0.17,-0.02 0.1,0.02 0.19,0.11 0.09,-0.12 -0.01,-0.12 0.18,-0.12 -0.03,0.09 -0.11,0.19 -0.1,0.27 0.01,0.06 0.09,0.15 0.11,0.24 -0.16,0 -0.1,-0.03 -0.19,-0.13 -0.1,0.09 -0.01,0.14 -0.19,0.13zm0.42 0.06c0.01,-0.01 0.02,-0.01 0.02,-0.01l0.04 -0.02c0.18,-0.09 -0.04,0.07 0.06,-0.03l-0.1 -0 0 -0.5 0.13 -0.01c-0.09,-0.07 -0.07,0.04 -0.16,-0.08 -0.28,0.04 -0.6,0.01 -0.87,0 -0.15,-0 -0.3,0 -0.45,0.01 -0.12,0 -0.26,-0.02 -0.39,-0.04l-0 -0.01c0.04,0.03 0.04,-0.06 0.01,0.11 -0.02,0.11 -0.05,0.48 0.01,0.53 0.19,0.1 1.37,0.02 1.69,0.05z"/>
   <path class="fil28" d="M6.21 13.64c0.04,-0.53 -0.01,-1.21 -0.01,-1.76 0,-0.59 -0,-1.19 0,-1.78 0,-0.57 0.01,-1.14 0.04,-1.7 0.01,-0.21 0.15,-1.56 0.14,-1.61 -0.33,0.82 -0.32,4 -0.31,5.14 0,0.21 0,1.33 0.05,1.54l0.05 0.13c0.03,0.04 0.01,0.02 0.04,0.04z"/>
   <path class="fil3" d="M1.2 4.47c0.02,-0.08 -0.01,-0.43 -0.01,-0.57 0,-0.2 0.01,-0.4 0.02,-0.59 0.02,-0.26 -0.01,-0.92 0.04,-1.14 0.06,-0.35 -0.02,-0.7 0.28,-1.11 0.15,-0.2 0.53,-0.44 0.76,-0.61 -0.58,0.27 -1.05,0.83 -1.2,1.46 -0.18,0.77 -0.13,1.75 -0.13,2.58l0.22 0.06c0.03,-0.09 0.01,-0.02 0.01,-0.09z"/>
   <path class="fil28" d="M2.22 13.67c0.17,-0.14 0.13,-0.58 0.13,-0.84 0,-1.55 0.06,-3.81 -0.12,-5.34 -0.02,-0.21 -0.09,-0.47 -0.1,-0.66 -0.05,0.05 -0.03,0.03 -0.04,0.11l0.08 0.69c0.13,1.48 0.09,4.61 0.05,6.04z"/>
   <path class="fil6" d="M2.27 18.3c0.03,0.04 0.09,0.05 0.14,0.07 0.05,0.02 0.12,0.04 0.2,0.05l0.09 -0.19c0.08,-0.1 0.11,-0.46 0.07,-0.54 -0,-0 -0.01,-0.01 -0.01,-0.02 0.09,0.01 0.04,0.01 0.06,0.02 0.07,0.02 -0.03,0.01 0.04,0.01l0.08 -0.04c-0.13,-0.05 -0.02,-0.02 -0.1,-0.17 -0.16,-0.28 -0.06,0.02 -0.12,-0.27l-0.09 -0.22c-0.01,-0.01 -0.03,-0.06 -0.04,-0.07l-0.26 -0.06 -0.04 0.09c-0.03,0.17 0.02,0.08 0.02,0.08 0.01,0.02 0.03,-0.05 0.02,0.06 -0.01,0.12 -0.05,0.04 -0.02,0.17 0.04,0.16 0.01,0.09 0.01,0.21l0.06 0.47c-0.06,0.17 -0.1,0.16 -0.15,0.18 0.03,0.07 0.02,0.04 0.08,0.06 -0.04,0.09 0.02,0.1 -0.04,0.13z"/>
   <path class="fil29" d="M6.91 4.74c0.03,0.19 -0.15,0.92 -0.18,1.17 -0.01,0.04 -0.01,0.09 -0.02,0.13 -0.01,0.02 -0.01,0.04 -0.02,0.06 -0.02,0.06 -0,0.02 -0.03,0.05 0.01,0.13 -0.04,0.33 -0.07,0.47 -0.01,0.12 0,0.11 0.06,0.17l0.11 0.11c0.06,-0.41 0.37,-1.75 0.38,-1.87 -0.02,-0.09 -0,-0.21 -0,-0.32 -0,-0.05 -0.01,-0.11 0.01,-0.16 0.02,-0.07 0.03,-0.02 0.04,-0.08 -0.05,-0.12 -0.18,-0.13 -0.2,-0.04 -0,0 -0,0.01 -0.01,0.02l-0.01 0.11c-0.01,0.09 -0.01,0.13 -0.04,0.19z"/>
   <path class="fil29" d="M1.29 4.46c0.02,0.11 0.05,0.52 0.05,0.64 -0,0.15 0.14,0.68 0.18,0.87 0.04,0.22 0.18,0.72 0.17,0.92 0.11,-0.04 0.05,-0.06 0.16,-0.15 0.05,-0.05 0.02,-0.11 -0.01,-0.27l-0.18 -0.88c-0.04,-0.2 -0.07,-0.39 -0.11,-0.58 -0.03,-0.16 -0.05,-0.5 -0.09,-0.62 -0.05,-0.02 -0.03,-0.04 -0.11,-0 -0.07,0.03 -0.05,0.05 -0.06,0.07z"/>
   <path class="fil30" d="M1.04 13.24c-0.02,-0.33 -0.02,-0.24 0.07,-0.26 0.02,0.03 0.06,0.09 0.04,0.19 -0.02,0.08 -0.03,0.06 -0.11,0.07zm-0.02 -0.73l0.12 -0.01 -0.01 0.25 -0.11 0.01 0 -0.25zm-0.18 0.64c-0.05,-0.14 -0.02,-0.39 -0.02,-0.55l0.09 -0c-0.06,0.1 -0.03,0.28 -0.03,0.43 -0,0.01 -0,0.07 -0.01,0.07 -0.02,0.07 -0.01,0.03 -0.03,0.05zm0.03 0.39l0.06 -0.05c0.07,0.04 0.06,-0.01 0.04,0.06 -0.02,0.1 0.01,-0 -0.08,0.09 0,0.12 -0.02,0.2 0.05,0.26 -0.03,-0.49 0.06,-0.01 0.07,-0.48l0.14 -0.03 0.01 0.2 -0.11 0.05 0 0.18c0.1,0.09 0.03,-0.04 0.13,0.05l0.01 0.17 -0.1 0.07 0.01 0.17 0.12 -0.03c0.01,-0.03 -0.03,-0.03 0.06,-0.01 -0.03,-0.59 -0.09,-1.17 -0.08,-1.78 0,-0.26 0,-0.19 -0.06,-0.21 -0.03,0.04 -0,0.03 -0.09,0.05l-0.01 -0.26c-0.15,0.03 -0.13,0.02 -0.13,0.18 -0,0.12 0.02,0.17 0.03,0.28 -0.05,-0.1 0.01,-0.05 -0.07,-0.08 -0.08,0.2 -0.13,0.84 -0.01,1.03 0.02,-0.09 -0.08,-0.08 0.08,-0.09l-0.03 0.2z"/>
   <path class="fil1" d="M6.16 19.2c-0.02,0.07 0.03,0.03 -0.05,0.09 0.31,-0.05 0.38,-0.13 0.62,-0.22 0.37,-0.13 0.31,-0.16 0.45,-0.35l0.03 -0.04c0.09,-0.2 0.21,-0.6 0.17,-0.81 -0.02,-0.01 -0.04,-0.01 -0.07,-0.03 -0.11,0.93 -0.59,0.74 -0.94,0.97 -0.08,0.05 -0.06,0.12 -0.1,0.22 -0.04,0.08 -0.07,0.11 -0.11,0.17z"/>
   <path class="fil0" d="M7.26 16.15c-0.01,-0.06 -0.02,-0.01 -0,-0.08 0.03,-0.1 0.01,-0.04 0.03,-0.07l0.01 -0.12 0.15 -0 0.01 -0.28 -0.15 -0.05 0.01 -0.23 0.14 0 0.01 -0.26 -0.12 -0.06c-0.01,-0 -0.01,-0.01 -0.02,-0.01l0.01 -0.2c0.06,-0.04 0.07,-0.01 0.13,-0.05l0.01 -0.25 -0.12 -0.06 0.05 -0.23 0.08 -0.03 0.01 -0.25c-0.04,-0.03 -0,-0 -0.04,-0.03l-0.07 -0.05c0,-0.04 -0,-0.12 0.01,-0.15 0.03,-0.07 -0,-0.01 0.03,-0.05 0,-0 0.06,-0.02 0.06,-0.03 0,-0.14 0.04,-0.19 -0.09,-0.22l-0.01 0.17c-0.06,0.05 -0.06,0.02 -0.12,0.05l-0.01 0.25 0.12 0.04 -0 0.23c-0.04,-0 -0.1,-0.01 -0.14,0.02l-0.01 0.25c0.12,0.06 0.13,-0.03 0.12,0.27 -0.01,0 -0.02,0 -0.02,0.01l-0.06 0.02c-0.05,0.02 0.01,-0.03 -0.07,0.02l-0.01 0.25 0.09 0.04c0.01,0 0.01,0.01 0.02,0.01l0.03 0.25 -0.16 -0 -0.01 0.27 0.15 0.04 -0.01 0.26 -0.16 0.01 -0.02 0.28 0.15 0.01z"/>
   <path class="fil31" d="M1.25 2.17c-0.05,0.22 -0.03,0.88 -0.04,1.14 -0.01,0.2 -0.02,0.4 -0.02,0.59 -0,0.13 0.03,0.48 0.01,0.57l0.24 -0.17c-0.11,-0.65 -0.03,-1.48 -0.04,-2.15 -0.1,0.06 -0.06,0.07 -0.15,0.02z"/>
   <path class="fil1" d="M1.04 18c0.01,0.14 0.13,0.58 0.19,0.67l0.04 0.03c0.27,0.22 -0.11,0.02 0.47,0.37 0.25,0.15 0.38,0.15 0.64,0.24 -0.1,-0.04 -0.22,-0.17 -0.22,-0.32 -0.09,-0.32 -0.13,-0.09 -0.66,-0.41 -0.22,-0.13 -0.29,-0.26 -0.33,-0.49 -0.01,-0.04 -0.01,-0.09 -0.02,-0.13l-0.05 -0.11c-0.06,0.06 -0.04,0.05 -0.06,0.15z"/>
   <path class="fil32" d="M4.8 9.5l0.61 0.04c0.04,0.6 0.14,0.57 -0.29,0.6 -0.11,0.01 -0.2,0.02 -0.31,0.02 -0.32,-0.03 -1.51,0.05 -1.69,-0.05 -0.06,-0.05 -0.03,-0.42 -0.01,-0.53 0.03,-0.17 0.02,-0.08 -0.01,-0.11 -0.11,0.05 -0.08,0.08 -0.08,0.37 0,0.15 -0.02,0.28 0.06,0.38 0.19,0.05 2.31,0.03 2.41,-0.02l0.01 -0.03c0.01,-0.02 0.05,-0.52 -0.01,-0.7l-2.38 0.02c0.14,0.02 0.28,0.04 0.39,0.04 0.15,-0.01 0.29,-0.01 0.45,-0.01 0.27,0 0.59,0.03 0.87,-0z"/>
   <path class="fil31" d="M7.03 4.25c-0.01,0.13 -0.02,0.04 0.07,0.11 0.04,0.03 0.08,0.04 0.12,0.06 0.08,-0.1 0.03,-1.08 0.01,-1.26 -0.02,-0.21 -0.02,-0.43 -0.03,-0.64 -0,-0.12 -0.01,-0.19 -0.02,-0.32 -0.01,-0.13 0.04,-0.2 -0.03,-0.3l-0 0.27c-0.05,0.03 -0.01,0.01 -0.1,0.02 -0,0 -0.01,0 -0.01,0 0.01,0.59 0.09,1.5 -0.01,2.05z"/>
   <path class="fil33" d="M3.09 9.46l0 0.01 2.38 -0.02c0.06,0.18 0.02,0.68 0.01,0.7l-0.01 0.03c-0.09,0.05 -2.21,0.07 -2.41,0.02 -0.08,-0.1 -0.06,-0.23 -0.06,-0.38 -0,-0.29 -0.03,-0.32 0.08,-0.37zm-0.06 0.79c0.13,0.05 1.77,0.03 2.16,0.03 0.37,-0 0.37,0.03 0.37,-0.52 -0,-0.19 0.01,-0.24 -0.07,-0.35 -0.24,-0.04 -1.51,-0.02 -1.93,-0.01 -0.64,0 -0.6,-0.06 -0.6,0.49 0,0.17 -0.03,0.26 0.07,0.37z"/>
   <path class="fil15" d="M6.21 18.87c-0.36,0.05 -0.31,0.13 -0.62,0.06 -0.12,-0.03 -0.13,-0 -0.17,0.07 -0.04,-0.09 0.02,-0.05 -0.09,-0.05 -0.05,-0 -0.1,0.02 -0.13,0.06 -0.1,0.12 0.04,0.1 -0.23,0.12 -0.22,0.01 -1.55,0.06 -1.67,-0.04 -0.1,-0.09 0.06,-0.09 -0.22,-0.13l0 0.07c-0.05,-0.08 -0.02,-0.09 -0.16,-0.1 -0.1,-0.01 -0.09,0.03 -0.21,0.04 -0.14,0 -0.31,-0.07 -0.45,-0.08 0.02,0.01 0.11,0.07 0.15,0.09 0.66,0.33 3.44,0.34 3.79,-0.1z"/>
   <path class="fil34" d="M1.53 16.59c0.04,-0.08 0.07,-1.33 0.09,-1.56 0.03,-0.48 0.12,-1 0.14,-1.46 -0.26,0.44 -0.4,2.65 -0.22,3.02z"/>
   <path class="fil0" d="M0.94 13.89l0.11 -0.03c0.01,0.46 -0.11,0.07 -0.09,0.43l0.07 0.01c0.04,0.01 0.03,-0.01 0.06,0.01l0.01 0.18c-0.02,0.01 -0.04,0.01 -0.07,0.02l-0.07 0.04 0 0.22 0.12 0.02c0,-0.01 0.01,0 0.02,0l0 0.21 -0.13 0.04 0 0.22c0.06,0.04 0.05,0.03 0.14,0.01 0,0.03 -0,0.12 0,0.15l0.04 0.1 0.1 -0.01c0.05,-0.08 0.02,-0.11 0.02,-0.26l-0.15 -0.01 -0.01 -0.23 0.14 -0.06 -0.02 -0.26 -0.09 0c-0,-0 -0.01,-0 -0.02,-0l-0.04 -0.01c-0.02,-0.28 -0.03,-0.15 0.11,-0.27l-0.01 -0.21 -0.12 0.03 -0.01 -0.17 0.1 -0.07 -0.01 -0.17c-0.1,-0.09 -0.03,0.04 -0.13,-0.05l0 -0.18 0.11 -0.05 -0.01 -0.2 -0.14 0.03c-0.01,0.47 -0.1,-0.01 -0.07,0.48z"/>
   <path class="fil1" d="M4.95 9.58c-0.02,0.16 0.02,0.36 -0.03,0.51 -0.1,0.1 0.12,-0.06 -0.06,0.03l-0.04 0.02c-0.01,0 -0.02,0.01 -0.02,0.01 0.11,0 0.2,-0.01 0.31,-0.02 0.43,-0.03 0.33,-0.01 0.29,-0.6l-0.61 -0.04c0.08,0.12 0.07,0.01 0.16,0.08z"/>
   <path class="fil35" d="M1.92 3.67l-0.02 0.21c0.02,-0.02 0.02,-0.02 0.04,-0.05 0,-0.01 0.01,-0.01 0.01,-0.02 0,-0.01 0.01,-0.01 0.01,-0.02 0.01,-0.02 0.02,-0.07 0.03,-0.09 0.02,-0.05 0.03,-0.11 0.05,-0.17 0.16,-0.68 0.33,-1.6 0.44,-2.3l0.01 -0.38c-0,0.13 -0.12,0.53 -0.16,0.7 -0.05,0.23 -0.1,0.46 -0.15,0.69 -0.04,0.2 -0.27,1.34 -0.25,1.43z"/>
   <path class="fil36" d="M6.94 16.64c0.08,-0.18 0.07,-0.66 0.07,-0.89l-0 -0.02c-0,-0.78 -0.12,-1.32 -0.27,-2.01l0.01 0.35c0.01,0.11 0.02,0.24 0.04,0.35 0.02,0.23 0.04,0.48 0.06,0.71 0.02,0.23 0.05,1.42 0.09,1.5z"/>
   <path class="fil37" d="M6.43 3.68l0.04 0.02 -0.05 -0.47c-0.03,-0.34 -0.15,-0.83 -0.22,-1.19 -0.04,-0.2 -0.08,-0.4 -0.12,-0.6 -0.04,-0.19 -0.1,-0.39 -0.13,-0.56l-0.02 0.04c-0,0.01 -0.01,0.01 -0.01,0.02 -0.01,0.08 0.06,0.57 0.07,0.65 0.04,0.23 0.08,0.46 0.12,0.7 0.08,0.48 0.22,0.94 0.3,1.39z"/>
   <path class="fil38" d="M7.02 4.08c0.02,-0.48 0.01,-1.03 -0.01,-1.51 -0.02,-0.44 -0.04,-0.69 -0.24,-1.09 -0.04,-0.08 -0.02,-0.07 -0.09,-0.12 0.02,0.1 0.07,0.19 0.1,0.31 0.1,0.37 0.11,0.62 0.12,1.01 0.01,0.5 0.02,1 0.05,1.49l0.06 -0.08z"/>
   <path class="fil39" d="M5.96 0.88c0.02,0.18 0.09,0.38 0.13,0.56 0.04,0.2 0.08,0.4 0.12,0.6 0.07,0.36 0.19,0.85 0.22,1.19 0.08,0.13 0.05,0.28 0.12,0.39 0,-0.43 -0.13,-1.14 -0.22,-1.55 -0.06,-0.26 -0.37,-1.47 -0.38,-1.3l0.02 0.11z"/>
   <path class="fil2" d="M8.3 5.58c-0.02,0.08 0.01,0.02 -0.03,0.07 -0.09,-0.23 -0.32,-0.09 -0.58,-0.31 0.02,-0.01 0.05,-0.01 0.08,-0.02 0.05,-0.02 0.02,-0.01 0.06,-0.04l0.11 -0.01c-0.08,-0.08 -0.27,-0.12 -0.41,-0.12l-0.01 0.39c0.39,0.07 0.57,0.19 0.85,0.33 0,-0.13 0.01,-0.2 -0.06,-0.28z"/>
   <path class="fil0" d="M1.19 16.84l0.01 -0.03 0.01 -0.22c0.07,-0.04 0.07,-0.02 0.14,-0.05l-0.02 -0.25c-0.06,-0.02 -0.04,-0 -0.07,-0.01l-0.06 -0.02c-0,-0.01 -0.01,-0.01 -0.02,-0.01l-0 -0.17 0.08 -0.04c0,-0 0.04,-0.01 0.06,-0.01l-0.01 -0.26 -0.16 -0.02c-0,-0.03 -0,-0.09 -0.01,-0.12 -0.03,-0.16 0.03,0.12 -0.01,-0.04l-0.15 -0.03 0 0.22 0.14 0.04c0,-0.01 0.01,0 0.02,0l0.01 0.17c-0.05,0.04 -0.11,0.05 -0.15,0.06 -0.02,0.32 0.03,0.24 0.09,0.26l0.07 0.02c0,-0.01 0.02,0.01 0.02,0.01l0.01 0.17 -0.08 0.04c-0.06,0.03 -0.01,-0.02 -0.07,0.03l0.02 0.23 0.14 0.02z"/>
   <path class="fil40" d="M1.92 3.67c-0.02,-0.08 0.21,-1.22 0.25,-1.43 0.05,-0.23 0.1,-0.46 0.15,-0.69 0.04,-0.17 0.16,-0.57 0.16,-0.7l0.01 -0.07c-0.02,0.1 -0.08,0.22 -0.12,0.33 -0.17,0.47 -0.61,2.38 -0.45,2.56z"/>
   <path class="fil41" d="M1.23 9.75c0.15,0.12 0.47,0.23 0.53,0.27l-0.01 -0.3c-0.09,-0.06 -0.07,-0.08 -0.13,-0.14 -0.18,-0.15 -0.09,-0.01 -0.29,-0.28 -0.02,-0.03 -0,-0.01 -0.04,-0.04 -0.03,-0.03 0,0.01 -0.04,-0.03 -0.02,-0.02 -0,0.01 -0.02,-0.03l0 -0.02 0 0.57z"/>
   <path class="fil41" d="M6.69 9.73c0,0.4 -0.11,0.35 0.52,0.02 0,-0.21 -0.02,-0.36 -0.02,-0.54 0,0 0,0.01 0,0.01 -0,0.07 -0.38,0.45 -0.49,0.51z"/>
   <path class="fil42" d="M6.41 0.86c0.02,-0.04 0.06,0 0.17,0.09 0.17,0.14 0.18,0.15 0.29,0.36 0.04,0.08 0.07,0.19 0.01,0.25 0.02,0.08 0.07,0.13 0.1,0.23 0.04,0.12 0.02,0.15 0.11,0.21 0.03,-0.55 -0.1,-0.81 -0.42,-1.11 -0.1,-0.1 -0.46,-0.32 -0.59,-0.37 0.05,0.1 0.07,0.1 0.14,0.18 0.08,0.08 0.07,0.12 0.19,0.17z"/>
   <path class="fil43" d="M1.19 17.81c0.08,0.09 0.06,0.26 0.14,0.34 0.09,0.13 0.34,0.32 0.53,0.4 -0.1,-0.27 -0.38,-0.25 -0.55,-0.94 -0.04,-0.17 -0.09,-0.24 -0.13,-0.35l0.01 0.56z"/>
   <path class="fil43" d="M6.75 18.29l-0.01 0.02c-0.05,0.09 -0.02,0.02 -0.09,0.1 -0.05,0.06 -0.04,0.06 -0.07,0.13 0.07,-0.05 0.15,-0.08 0.21,-0.12 0.07,-0.05 0.14,-0.1 0.2,-0.15 0.07,-0.19 0.16,-0.08 0.21,-0.34 0.02,-0.12 0.01,-0.09 0.06,-0.16 0,-0.17 0.05,-0.33 0.02,-0.51 -0.12,0.15 -0.2,0.82 -0.53,1.03z"/>
   <path class="fil44" d="M7.58 13.14c-0.03,-0.06 -0.01,-0.33 -0.02,-0.45 -0,-0.01 -0.01,-0.06 -0.01,-0.06 -0,-0.04 -0.01,-0.01 0.01,-0.04 0.07,0.04 0.05,0.01 0.06,0.13 0,0.05 0,0.1 0,0.15 0,0.1 0.02,0.22 -0.04,0.28zm-0.02 0.29l0.01 -0.11 0.07 0.06c0,0 0.01,0.01 0.01,0.02 0.03,-0.25 0.04,-0.58 0.01,-0.84 -0.01,-0.11 -0.05,-0.14 -0.11,-0.19 0.01,-0.1 0.03,-0.26 -0.03,-0.32 -0.02,0.15 0.02,0.19 -0.01,0.36 -0.05,0.24 -0.08,0.73 0,0.94 0.04,0.09 0.02,0.04 0.05,0.09z"/>
   <path class="fil3" d="M0.67 5.22l0.09 0c-0.19,0.09 -0.24,0.17 -0.29,0.21 -0.07,0.05 -0.03,-0.01 -0.24,0.16 -0.03,0.02 -0.06,0.03 -0.09,0.05l0.02 -0.07c-0.07,0.06 -0.09,0.18 -0.07,0.3 0.03,-0.02 0.03,-0.02 0.07,-0.05 -0,-0.13 0.02,-0.1 0.13,-0.15 0.17,-0.07 0.43,-0.18 0.61,-0.18l0.01 -0.3 -0.07 -0.02c-0.05,-0 -0.02,-0.01 -0.09,0 -0.1,0.02 -0.06,0.02 -0.08,0.05z"/>
   <path class="fil45" d="M0.91 9.61c0.08,-0.09 0.1,-0.39 0.1,-0.52 0,-0.06 -0,-0.14 -0.01,-0.2 0.03,-0.01 0.05,-0.02 0.08,-0.05 -0.08,-0.01 -0.06,0.08 -0.08,-0.09 -0,-0.04 0,-0.1 0.01,-0.14 -0.06,0.04 -0.03,0 -0.04,0.09 -0.02,0.11 0.04,-0 -0.03,0.16 -0.03,0.07 -0.02,0.02 -0.03,0.11 -0.01,0.13 0.03,0.25 -0.02,0.35 -0.02,0.05 0.04,0.05 -0.04,0.04 -0.04,-0.12 -0.03,-0.28 -0.03,-0.41 0.01,-0.32 0.15,0.04 0.08,-0.34 -0.06,0.02 -0.09,-0.02 -0.12,0.19 -0.03,0.24 -0.03,0.6 0.03,0.82 0.04,-0.04 0.04,-0.08 0.1,-0.1l-0.01 0.1z"/>
   <path class="fil46" d="M1.23 9.85c0,0.44 0.02,0.22 0.52,0.61l0.02 -0.35c-0.15,-0.04 -0.46,-0.16 -0.54,-0.25z"/>
   <path class="fil41" d="M6.69 10.1c-0.03,0.14 -0,0.2 0.02,0.35 -0,-0.04 -0.05,0.03 0.03,-0.03l0.47 -0.31 0 -0.25c-0.03,0.05 -0.4,0.23 -0.52,0.25z"/>
   <path class="fil47" d="M5.16 18.98c-0.3,0 -0.59,0.05 -0.91,0.05 -0.31,0 -0.65,-0.05 -0.93,-0.04 0.03,0.09 0.04,0.08 0.14,0.09l1.53 0c0.13,-0.01 0.14,0.01 0.17,-0.1z"/>
   <path class="fil48" d="M1.46 1.38l0.06 0.1c0.09,-0.11 -0.03,-0.1 0.2,-0.37l0.23 -0.2c0.12,-0.08 0.06,-0.02 0.08,0.01l0.1 -0.09c0.13,-0.18 0.21,-0.23 0.24,-0.3 -0.25,0.12 -0.88,0.54 -0.91,0.86z"/>
   <path class="fil0" d="M4.09 9.82c0.01,-0.04 0.03,-0.05 0.04,-0.06l0.03 0.12 -0.09 -0c0.01,-0.03 0,-0.03 0.01,-0.06zm-0.18 0.27c0.2,0.01 0.04,-0.04 0.17,-0.09 0.07,-0.02 0.09,0 0.11,0.02 0.07,0.05 -0.07,0.04 0.1,0.07 0.02,-0.03 0.03,-0.04 0.01,-0.12l-0.13 -0.39 -0.1 -0c-0.05,0.07 -0.16,0.41 -0.16,0.51z"/>
   <path class="fil0" d="M4.38 10.09c0.17,0.01 0.09,-0.04 0.19,-0.13 0.08,0.1 0.03,0.14 0.19,0.13 -0.02,-0.09 -0.1,-0.18 -0.11,-0.24 -0.01,-0.08 0.07,-0.17 0.1,-0.27 -0.19,0 -0.09,-0 -0.18,0.12 -0.09,-0.09 -0.01,-0.14 -0.19,-0.11 0.2,0.44 0.07,0.17 0,0.5z"/>
   <path class="fil49" d="M4.28 13.36c-0.16,0.02 -0.15,0.15 -0.15,0.32 -0.01,0.19 0,0.29 0.19,0.25 0.07,-0.16 0.06,-0.44 -0.03,-0.57z"/>
   <path class="fil50" d="M6.99 18.27c0.02,-0.01 0.15,-0.13 0.15,-0.14 -0.04,0.19 -0.21,0.3 -0.36,0.37 -0.32,0.17 -0.2,0.08 -0.22,0.07 -0.04,0.07 -0.05,0.11 -0.11,0.15 0.16,-0.05 0.44,-0.16 0.57,-0.26 0.17,-0.12 0.22,-0.42 0.23,-0.69 -0.05,0.07 -0.04,0.04 -0.06,0.16 -0.05,0.25 -0.14,0.14 -0.21,0.34z"/>
   <path class="fil50" d="M1.88 18.57c-0.1,0.04 -0.41,-0.19 -0.48,-0.26 -0.05,-0.05 -0.09,-0.1 -0.07,-0.16 -0.08,-0.08 -0.06,-0.24 -0.14,-0.34 0.03,0.29 0.05,0.51 0.23,0.65 0.12,0.1 0.41,0.22 0.58,0.27 -0.05,-0.05 -0.08,-0.1 -0.12,-0.16z"/>
   <path class="fil27" d="M1.04 5.23l0.12 -0.03c0.02,-0.14 -0.02,-0.24 -0.01,-0.39 0.01,-0.18 0.08,-0.28 -0.16,-0.25l0.04 0.16c0,0.09 -0.08,0.3 0,0.48l0.02 0.03z"/>
   <path class="fil51" d="M0.91 11.15c-0.01,-0.34 -0.02,-0.26 0.06,-0.3 0.05,0.08 0.03,0.19 0.03,0.3l0.02 0.01c0.09,-0.02 0.09,-0 0.13,-0.06l-0.1 0.02 -0.02 -0.26c0.01,-0.01 0.02,-0.03 0.02,-0.03 0,-0 0.02,-0.02 0.02,-0.03l-0.04 -0.26 0.12 -0.05c0.01,-0.11 0.02,-0.23 -0.03,-0.31 0,0.39 0.03,0.29 -0.08,0.32 -0,-0.01 -0.01,-0.01 -0.01,-0.02 -0.03,-0.09 -0.03,-0.26 -0.01,-0.37 -0.04,-0.01 0.02,-0.04 -0.04,0 -0,0.07 0.01,0.15 0.01,0.22 0,0.13 0.01,0.12 -0.02,0.17 -0.07,-0.02 -0.06,0.04 -0.07,-0.12l0.01 -0.51c-0.06,0.15 -0.06,0.45 -0.03,0.63l0.06 0.03c0,0 0.01,0.01 0.02,0.01l0.04 0.27 -0.12 0.03c-0.01,0.06 -0.01,0.11 -0.01,0.16 0,0.01 0,0.07 0.01,0.08 0.01,0.05 0.02,0.05 0.03,0.06z"/>
   <path class="fil0" d="M3.55 9.6c0.01,0.19 -0.03,0.03 0.07,0.11 0.06,0.04 0.01,-0.03 0.05,0.04l0 0.33 0.1 0.01 0.02 -0.34c0.06,-0.15 0.11,0.07 0.12,-0.15 -0.06,-0.03 -0.19,-0.04 -0.27,-0.02l-0.08 0.02z"/>
   <path class="fil37" d="M8.3 5.58c-0.03,-0.13 -0.23,-0.29 -0.37,-0.31l-0.11 0.01c-0.03,0.03 -0.01,0.01 -0.06,0.04 -0.02,0.01 -0.05,0.02 -0.08,0.02 0.26,0.22 0.49,0.08 0.58,0.31 0.05,-0.04 0.02,0.01 0.03,-0.07z"/>
   <path class="fil13" d="M7.12 5.03l0.13 -0.03c0,0 0.01,0 0.02,0 0,-0.15 0.04,-0.45 -0.11,-0.54 -0.01,0.06 -0.02,0.01 -0.04,0.08 -0.01,0.05 -0.01,0.11 -0.01,0.16 0,0.1 -0.02,0.23 0,0.32z"/>
   <path class="fil28" d="M0.16 5.82c0.3,-0.19 0.62,-0.21 0.78,-0.29 0.01,-0.11 0.02,-0.27 -0.01,-0.38 -0.11,-0.01 -0.06,0.01 -0.09,0.02l0.07 0.02 -0.01 0.3c-0.18,0 -0.44,0.11 -0.61,0.18 -0.11,0.05 -0.13,0.02 -0.13,0.15z"/>
   <path class="fil31" d="M1.27 5.04c0.01,0 0.01,0.01 0.02,0.01 0,0.01 0.01,0.01 0.02,0.01 0.01,0.01 0.04,0.04 0.04,0.04 0,-0.12 -0.03,-0.53 -0.05,-0.64 -0.07,0.04 -0.09,0.06 -0.11,0.23 -0.01,0.11 -0.01,0.22 0,0.32 0,0 0.01,-0 0.01,-0 0.01,0.05 0.03,-0.03 0.08,0.03z"/>
   <path class="fil50" d="M2 18.63c0.14,0.2 0.09,0.12 0.35,0.2 0.12,0.03 0.32,0.1 0.44,0.06l-0.64 -0.27c-0.01,0.08 0.03,0.02 -0.03,0.07l-0.12 -0.05z"/>
   <path class="fil52" d="M6.42 18.65l-0.09 0 0.06 -0.09c-0.19,0.11 -0.6,0.24 -0.72,0.33 0.14,-0 0.26,-0.03 0.4,-0.06 0.19,-0.05 0.26,-0.04 0.35,-0.19z"/>
   <path class="fil53" d="M1.52 1.47c0,0.01 0.01,0.07 0.01,0.08 0.03,0.08 -0.03,-0 0.04,0.05 0.03,-0.19 0.35,-0.62 0.46,-0.69 -0.02,-0.03 0.04,-0.09 -0.08,-0.01l-0.23 0.2c-0.23,0.27 -0.12,0.26 -0.2,0.37z"/>
   <path class="fil42" d="M1.57 1.61c-0.07,-0.05 -0.01,0.02 -0.04,-0.05 -0,-0.01 -0.01,-0.07 -0.01,-0.08l-0.06 -0.1c-0,0.01 -0.01,0.01 -0.01,0.02l-0.03 0.05c-0.06,0.14 -0.1,0.49 -0.08,0.62l0.23 -0.46z"/>
   <path class="fil37" d="M0.16 5.56l-0.02 0.07c0.03,-0.01 0.06,-0.03 0.09,-0.05 0.21,-0.17 0.17,-0.1 0.24,-0.16 0.05,-0.04 0.1,-0.12 0.29,-0.21l-0.09 -0c-0.11,0 -0.2,0.06 -0.3,0.12l-0.18 0.14c-0.05,0.07 -0.02,0.02 -0.03,0.08z"/>
   <path class="fil54" d="M6.87 1.56c0.06,-0.07 0.03,-0.17 -0.01,-0.25 -0.11,-0.21 -0.12,-0.22 -0.29,-0.36 -0.11,-0.09 -0.15,-0.13 -0.17,-0.09 0.12,0.14 0.43,0.46 0.47,0.7z"/>
   <path class="fil0" d="M4.92 10.09c0.05,-0.15 0.01,-0.35 0.03,-0.51l-0.13 0.01 -0 0.5 0.1 0z"/>
   <path class="fil40" d="M6.73 19.08l-0.02 0.11 0.08 0c0.24,-0.08 0.36,-0.22 0.42,-0.49l-0.03 0.04c-0.14,0.19 -0.08,0.22 -0.45,0.35z"/>
   <path class="fil55" d="M6.99 18.27c-0.06,0.05 -0.13,0.1 -0.2,0.15 -0.06,0.04 -0.14,0.08 -0.21,0.12l-0.02 0.04c0.01,0.02 -0.1,0.1 0.22,-0.07 0.15,-0.08 0.33,-0.19 0.36,-0.37 -0,0.01 -0.13,0.12 -0.15,0.14z"/>
   <path class="fil0" d="M7.31 8.77l0.11 0.1c0.01,-0.1 0.01,-0.16 -0,-0.26 -0.02,-0.15 0.04,-0.17 -0.09,-0.18 -0.05,0.09 -0.02,0.24 -0.02,0.34z"/>
   <path class="fil0" d="M1.01 8.6c-0,0.04 -0.01,0.1 -0.01,0.14 0.02,0.17 0,0.09 0.08,0.09 0.01,-0.04 0.01,-0.03 0.05,-0.07l-0 -0.34 -0.08 0.03c-0.04,0.15 0.01,0.13 -0.05,0.14z"/>
   <path class="fil56" d="M7.28 13.31l0.11 0.05 0.02 -0.35 -0.1 0.01c-0.04,0.07 -0.03,0.2 -0.03,0.3z"/>
   <path class="fil49" d="M1.11 10.18c-0.03,-0.02 -0.06,-0.04 -0.09,-0.06 -0.02,0.11 -0.02,0.27 0.01,0.37 0,0.01 0.01,0.01 0.01,0.02 0.11,-0.03 0.08,0.07 0.08,-0.32z"/>
   <path class="fil57" d="M1.88 18.57l-0.02 -0.03c-0.19,-0.08 -0.44,-0.27 -0.53,-0.4 -0.02,0.06 0.02,0.11 0.07,0.16 0.07,0.07 0.38,0.3 0.48,0.26z"/>
   <path class="fil58" d="M0.84 13.14c0.02,-0.03 0.02,0.02 0.03,-0.05 0,-0.01 0.01,-0.06 0.01,-0.07 0.01,-0.15 -0.03,-0.32 0.03,-0.43l-0.09 0c-0.01,0.16 -0.04,0.41 0.02,0.55z"/>
   <path class="fil26" d="M1.01 11.73l-0.01 -0.29c-0.1,0 -0.11,-0 -0.12,0.09 -0,0.05 0,0.16 0,0.22l0.12 -0.01z"/>
   <path class="fil59" d="M7.43 11.73l0.11 0.01c0.05,-0.33 -0.02,-0.29 -0.09,-0.3 -0.04,0.09 -0.02,0.17 -0.03,0.29z"/>
   <path class="fil49" d="M7.36 7.52c0.08,-0.03 0.04,0.02 0.07,-0.06 0,-0.01 0,-0.09 0,-0.1 -0.01,-0.17 0.02,-0.12 -0.1,-0.13 -0.01,0.02 -0.02,0.02 -0.02,0.06l-0 0.17c0.02,0.07 -0,0.03 0.05,0.06z"/>
   <path class="fil60" d="M7.32 6.31l0.11 -0.01 -0 -0.35c-0.13,0.06 -0.11,0.23 -0.11,0.36z"/>
   <path class="fil61" d="M7.56 9.35c0.02,-0.02 0.02,0.01 0.03,-0.03l0.01 -0.23c0,-0.23 0.03,-0.25 -0.05,-0.3 -0.02,0.05 -0.01,-0.02 -0.02,0.06 -0,0 0,0.06 0,0.07 0,0.05 0,0.1 0,0.15 -0,0.09 -0.01,0.23 0.02,0.29z"/>
   <path class="fil0" d="M1.11 6.32c0,-0.19 0.02,-0.27 -0.09,-0.37 -0.01,0.07 -0.02,0.15 -0.02,0.22 -0,0.14 -0.01,0.13 0.11,0.15z"/>
   <path class="fil0" d="M1.13 11.1l-0 -0.28 -0.07 -0.01c-0.01,0.01 -0.02,0.02 -0.02,0.03 -0,0 -0.01,0.02 -0.02,0.03l0.02 0.26 0.1 -0.02z"/>
   <path class="fil62" d="M7.46 11.14c0.1,-0.02 0.09,0.04 0.09,-0.15 0,-0.01 -0.01,-0.1 -0.01,-0.1 -0.03,-0.07 0,-0.03 -0.06,-0.06 -0.03,0.03 -0.04,0.02 -0.04,0.16 0,0.01 0,0.07 0,0.08 0.01,0.11 -0,0.03 0.02,0.07z"/>
   <path class="fil63" d="M1.02 6.94l0.12 -0.03 -0 -0.22c-0.02,-0.11 0.01,-0.03 -0.04,-0.08l0.01 0.23c-0.01,0.05 -0.01,0.04 -0.02,0.06 -0.06,-0.03 -0.09,0.04 -0.05,-0.29 -0.04,0.03 -0.04,0.03 -0.03,0.15 0,0.17 0.01,0.12 -0.04,0.15 -0.05,-0.08 -0.03,-0.23 -0.01,-0.32 -0.08,0.04 -0.05,0.25 -0.03,0.33l0.1 0.01z"/>
   <path class="fil58" d="M7.58 13.14c0.06,-0.06 0.04,-0.18 0.04,-0.28 -0,-0.05 0,-0.1 -0,-0.15 -0.01,-0.12 0.01,-0.09 -0.06,-0.13 -0.01,0.03 -0.01,0 -0.01,0.04 0,0 0.01,0.05 0.01,0.06 0.01,0.12 -0.01,0.39 0.02,0.45z"/>
   <path class="fil0" d="M1.04 13.24c0.08,-0.01 0.09,0.01 0.11,-0.07 0.02,-0.1 -0.02,-0.16 -0.04,-0.19 -0.1,0.02 -0.09,-0.07 -0.07,0.26z"/>
   <polygon class="fil56" points="1.02,12.75 1.13,12.74 1.14,12.49 1.02,12.5 "/>
   <polygon class="fil64" points="1.38,17.09 1.37,16.86 1.24,16.86 1.26,17.09 "/>
   <polygon class="fil64" points="7.22,16.65 7.22,16.44 7.09,16.44 7.09,16.66 "/>
   <path class="fil62" d="M0.96 7.52c0.03,-0.02 0.05,0.03 0.06,-0.14 0,-0.12 -0,-0.11 -0.03,-0.16 -0.01,0.01 -0.1,-0.01 -0.07,0.21 0.03,0.14 -0,0.03 0.04,0.09z"/>
   <path class="fil62" d="M0.91 11.15l0.09 -0c0.01,-0.11 0.02,-0.22 -0.03,-0.3 -0.08,0.04 -0.07,-0.03 -0.06,0.3z"/>
   <path class="fil64" d="M7.3 16.94l0.09 0.01 -0.02 -0.08c-0.02,-0.08 -0.02,-0.05 -0,-0.15l-0.1 -0.02c-0.01,0.06 -0.03,0.13 -0.01,0.2l0.03 0.05z"/>
   <path class="fil64" d="M7.37 16.42l0.01 -0c0.01,-0.12 0.05,-0.17 0,-0.26 -0.1,0 -0.06,-0.03 -0.09,0.06 -0.01,0.04 -0.01,0.11 -0.01,0.15l0.08 0.05z"/>
   <polygon class="fil64" points="7.06,17.14 7.19,17.14 7.19,16.96 7.06,16.96 "/>
   <path class="fil49" d="M1.09 6.61l-0.06 -0c-0.04,0.33 -0.01,0.26 0.05,0.29 0.01,-0.02 0.02,-0.02 0.02,-0.06l-0.01 -0.23z"/>
   <path class="fil65" d="M5.14 3.39c0.09,0.01 0.13,0 0.13,-0.1l-0.08 -0.03 -0.04 0.01 -0 0.12z"/>
   <path class="fil66" d="M1.69 6.9l0.03 0.09c0.02,-0.02 0,0.01 0.04,-0.05 0.01,-0.02 0.02,-0.04 0.04,-0.07 0.05,-0.09 0.02,-0.07 0.11,-0.1 -0.02,-0.04 0.05,-0.04 -0.05,-0.03 -0.11,0.09 -0.05,0.11 -0.16,0.15z"/>
   <path class="fil65" d="M3.14 3.29l0.01 0.1 0.08 0c0.01,-0.01 0.01,-0.01 0.02,-0.02l0.02 -0.09 -0.1 -0.02c-0.01,0.01 -0.03,0.03 -0.03,0.03z"/>
   <path class="fil55" d="M2 18.63l0.12 0.05c0.06,-0.05 0.02,0.01 0.03,-0.07l-0.13 -0.04c-0.05,0.05 -0.02,-0.02 -0.02,0.05z"/>
   <polygon class="fil67" points="6.42,18.65 6.5,18.55 6.39,18.57 6.33,18.66 "/>
   <path class="fil68" d="M4.08 9.88l0.09 0 -0.03 -0.12c-0.02,0.01 -0.03,0.02 -0.04,0.06 -0.01,0.03 -0.01,0.03 -0.01,0.06z"/>
  </g>
 </g>
</svg>
