<?xml version="1.0" encoding="UTF-8"?>
<!DOCTYPE svg PUBLIC "-//W3C//DTD SVG 1.1//EN" "http://www.w3.org/Graphics/SVG/1.1/DTD/svg11.dtd">
<!-- Creator: CorelDRAW -->
<svg xmlns="http://www.w3.org/2000/svg" xml:space="preserve" width="2.1714mm" height="4.5mm" version="1.1" style="shape-rendering:geometricPrecision; text-rendering:geometricPrecision; image-rendering:optimizeQuality; fill-rule:evenodd; clip-rule:evenodd"
viewBox="0 0 17.9 37.09"
 xmlns:xlink="http://www.w3.org/1999/xlink"
 xmlns:xodm="http://www.corel.com/coreldraw/odm/2003">
 <defs>
  <style type="text/css">
   <![CDATA[
    .fil37 {fill:#050502}
    .fil34 {fill:#090602}
    .fil1 {fill:#0A0B0D}
    .fil35 {fill:#0B0E10}
    .fil47 {fill:#0C0C0B}
    .fil9 {fill:#0C0F10}
    .fil6 {fill:#0D1011}
    .fil49 {fill:#0E1112}
    .fil22 {fill:#0E1214}
    .fil8 {fill:#101315}
    .fil58 {fill:#121415}
    .fil15 {fill:#121619}
    .fil64 {fill:#151515}
    .fil48 {fill:#15181A}
    .fil7 {fill:#151D25}
    .fil23 {fill:#161A1D}
    .fil19 {fill:#191B1C}
    .fil24 {fill:#1A1B1E}
    .fil26 {fill:#1A1E21}
    .fil65 {fill:#1B2023}
    .fil68 {fill:#1C2021}
    .fil29 {fill:#1D2A34}
    .fil59 {fill:#222629}
    .fil60 {fill:#24272A}
    .fil51 {fill:#25282B}
    .fil28 {fill:#262A2D}
    .fil10 {fill:#282B2D}
    .fil5 {fill:#283742}
    .fil33 {fill:#292C2E}
    .fil44 {fill:#2A2E31}
    .fil41 {fill:#2B2E33}
    .fil31 {fill:#2C2F32}
    .fil70 {fill:#2D3033}
    .fil46 {fill:#2D3034}
    .fil2 {fill:#2E3236}
    .fil4 {fill:#2F3235}
    .fil20 {fill:#303336}
    .fil21 {fill:#313437}
    .fil39 {fill:#323539}
    .fil72 {fill:#33393D}
    .fil43 {fill:#34373A}
    .fil13 {fill:#35383B}
    .fil71 {fill:#36393C}
    .fil25 {fill:#374F63}
    .fil12 {fill:#393A3D}
    .fil55 {fill:#3A3D41}
    .fil17 {fill:#3C3E42}
    .fil18 {fill:#3D4043}
    .fil52 {fill:#3E4145}
    .fil38 {fill:#414446}
    .fil77 {fill:#424549}
    .fil36 {fill:#44474A}
    .fil30 {fill:#45484B}
    .fil32 {fill:#46494D}
    .fil14 {fill:#465765}
    .fil40 {fill:#494C4E}
    .fil45 {fill:#4A4D51}
    .fil54 {fill:#4C4E52}
    .fil42 {fill:#4D5053}
    .fil50 {fill:#515456}
    .fil53 {fill:#525559}
    .fil11 {fill:#54585C}
    .fil56 {fill:#56595D}
    .fil63 {fill:#595D60}
    .fil66 {fill:#5F1006}
    .fil79 {fill:#6D5005}
    .fil61 {fill:#9F0D03}
    .fil69 {fill:#9FA3A8}
    .fil80 {fill:#A87705}
    .fil73 {fill:#B78505}
    .fil0 {fill:#CC0000}
    .fil57 {fill:#D31504}
    .fil74 {fill:#D3A70E}
    .fil78 {fill:#E5E4E2}
    .fil75 {fill:#E9CA6C}
    .fil62 {fill:#EA5402}
    .fil67 {fill:#F36B04}
    .fil27 {fill:#F6BB17}
    .fil81 {fill:#F8E6A9}
    .fil76 {fill:#FADA89}
    .fil3 {fill:black;fill-opacity:0.301961}
    .fil16 {fill:white;fill-opacity:0.501961}
   ]]>
  </style>
 </defs>
 <g id="Camada_x0020_1">
  <metadata id="CorelCorpID_0Corel-Layer"/>
  <g id="_1769269680480">
   <path class="fil0" d="M7.11 15.16l1.16 -0.13c0.03,-0.55 0.18,-0.76 0.68,-0.87 0.55,0.02 0.82,0.31 0.76,0.89l1.18 0.12 0.05 0.01 0.29 0.1 0.16 -1.75c0.01,0.63 -0.16,1.22 -0.12,1.84 0.27,-0.65 0.55,-4.26 0.38,-4.96l-0.13 1.94c-0.02,-0.42 0.05,-0.96 0.08,-1.35 0.11,-1.2 0.02,-4.26 -0.49,-5.26 -0.13,-0.26 -0.52,-0.65 -0.83,-0.51 -0.19,0.09 -1.21,-0.08 -2.03,0.01 -0.51,0.06 -0.31,0.08 -0.55,-0.09l-0.53 0.28c-0.06,0.07 -0.16,0.13 -0.22,0.23 -0.07,0.1 -0.08,0.19 -0.19,0.29 0.01,0.21 -0.13,0.69 -0.18,0.97 -0.06,0.37 -0.1,0.71 -0.13,1.08 -0.07,0.73 -0.1,1.55 -0.13,2.27 -0.03,0.85 -0.03,3.72 0.26,4.55 0.02,-1.5 -0.28,-2.63 -0.21,-4.72 0.06,0.39 0.01,0.91 0.05,1.3 0.05,0.46 0.04,0.91 0.08,1.36 0.08,0.9 0.14,1.77 0.22,2.65 0.17,-0.1 0.03,-0.09 0.29,-0.22l0.1 -0.01zm1.68 -7.21c-0.01,-0.17 -0.1,-0.29 -0.13,-0.51 -0.07,-0.44 -0.08,-1.26 0.35,-1.45 -0.06,-0.18 -0.04,-0.4 -0.03,-0.62 0.14,0.09 0.08,0.38 0.05,0.64 0.21,0.06 0.26,0.19 0.32,0.46 0.11,0.5 0.09,1.89 -0.56,1.47z"/>
   <path class="fil0" d="M4.76 16.14c0.63,-0.62 2.14,-0.88 3.3,-0.97 0.38,-0.02 0.76,-0.02 1.14,-0.02 0,0 0,0 0,0 1.43,0.08 3.33,0.16 4.16,1.21 0.98,1.24 1.24,6.08 1.1,8.04 -0.04,0.5 -0.14,0.92 0.03,1.11 -0.1,0.01 -0.09,0.01 -0.14,0.04 -0.43,1.73 -0.87,1.47 -2.52,1.93l0 -0.03 -0.1 0.02 0 0.02c-0.1,0.02 -0.2,0.03 -0.3,0.05 -1.5,0.21 -3.41,0.2 -4.86,0.01 -0.63,-0.08 -1.64,-0.28 -2.13,-0.55 -0.6,-0.33 -0.8,-0.93 -0.89,-1.75 -0.25,-2.27 -0.16,-7.78 1.21,-9.12z"/>
   <g>
    <path class="fil1" d="M11.12 35.51l0.28 0.01 0.02 0.32 -0.27 0.04 -0.03 -0.37zm0.36 1.58l-0.19 0c-0.04,-0.02 -0.05,-0.08 -0.06,-0.14 -0.03,-0.13 0.03,-0.04 -0.06,-0.32 -0.05,-0.15 -0.04,-0.13 -0.04,-0.33 -0.2,-0.1 -0.14,0.03 -0.25,-0.17 -0.09,-0.15 0.02,-0.09 -0.14,-0.23l-0.81 -0.72c-0.13,-0.13 -0.23,-0.26 -0.43,-0.31 0.09,0.19 -0.01,0.48 -0.2,0.64 -0.07,0.06 -0.08,0.09 -0.13,0.15 -0.06,0 -0.19,0.01 -0.23,0 -0.23,-0.03 -0.09,-0.04 -0.26,-0.16l-0.16 -0.07c0,-0.35 -0.09,-0.15 -0.09,-0.56l-0.4 0.34c-0.13,0.11 -0.25,0.24 -0.37,0.37 -0.15,0.15 -0.26,0.2 -0.4,0.34 -0.28,0.29 0.03,0.34 -0.4,0.34 0,0.83 -0.06,0.83 -0.37,0.83 -0.11,-0.22 -0.06,-0.2 -0.12,-0.39 -0.11,-0.41 -0.04,-0.19 0.05,-0.56 0.05,-0.2 0.07,-0.94 0.07,-1.18l0 -2.36c-0.08,0.36 -0.04,0.75 -0.32,0.79 -0.39,-0.09 -0.22,-0.21 -0.32,-0.56 -0.16,-0.53 -0.13,-0.77 -0.1,-1.17 0.01,-0.13 -0.02,-0.22 -0.05,-0.36 -0.11,-0.6 -0,-0.5 0.05,-0.7l-0.28 0c-0.16,0.33 -0.08,1 -0.32,1.3 -0.2,0.24 -0.16,0.03 -0.22,0.43l-0.07 1.28c-0.06,0.83 -0.08,1.12 -0.56,1.25 -0.98,0.26 -2.2,0.21 -3.2,0.01 -0.24,-0.05 -0.57,-0.08 -0.67,-0.26 -0.03,-0.06 -0.16,-0.59 -0.18,-0.7 -0.07,-0.38 0.04,-0.19 -0.1,-0.83l-0.07 -0.82c-0.03,-0.63 -0.08,-3.17 -0.09,-5.03l0 -0.87c0,-0.58 0.01,-1 0.03,-1.15 0.07,-0.52 -0.02,-1.22 0.05,-1.72l0.14 -1.66c0.04,-0.38 0.06,-1.23 0.37,-1.44 0.4,-0.28 0.88,-0.06 1.02,-0.38 0.25,-0.57 0.29,-0.54 1.64,-0.54l0.12 0.06 0.07 -0.39c-0.04,0.21 -0.07,0.11 0,0.32l0.27 -0 0.06 -0.47 -0.41 0.01 -0.06 -0.14c-0.05,0.01 -0.14,0.08 -0.34,-0.13 -0.09,-0.09 -0.12,-0.17 -0.15,-0.31 -0.11,-0.45 -0.07,-2.31 0.12,-2.67 -0.28,-0.15 -0.35,-0.24 -0.37,-0.65 -0.02,-0.45 -0.04,-0.57 0.14,-0.84 0.39,0 0.4,0.01 0.7,0.09 0.75,0.21 1,0.28 0.93,1.21l0.87 0.06c0.18,0.05 0.14,0.16 0.66,-0.11 -0.07,-0.3 -0.09,-0.97 -0.09,-1.35 0,-0.38 -0.08,-0.31 -0.1,-0.6 -0.01,-0.14 -0.01,-0.57 0.01,-0.69 0.06,-0.43 0.14,0.13 0.14,-1.26 0,-0.46 0,-0.93 0,-1.39 -0.26,-0.01 -1.02,-0.25 -1.35,-0.28 -0.07,0.1 -0,0.06 -0.14,0.09 0,0.4 -0.06,0.46 -0.46,0.46 0,0.43 -0,0.87 0,1.3 0,0.32 0.02,0.91 -0.24,1.06 -0.44,0.23 -1.87,0.22 -2.2,-0 -0.32,-0.22 -0.2,-1.76 -0.25,-2.35 -0.08,-0.98 -0.04,-2.69 -0.04,-3.8 -0,-0.45 0.05,-0.77 0.05,-1.25 -0,-0.24 0.07,-1.03 0.14,-1.16 0.19,-0.37 1.46,-0.4 2.06,-0.25 0.49,0.12 0.39,0.32 0.47,0.83 0.09,0.64 0.03,1.81 0.03,2.52 0.14,0 0.17,0.02 0.28,0.05 0.04,0.17 0.09,0.35 0.09,0.56 0.33,0.01 0.27,0.06 0.37,0.28l1.21 0c0,-0.74 -0.08,-3.12 0.05,-3.62 0.06,-0.24 0.16,-0.19 0.18,-0.74 0.01,-0.28 0,-0.6 0,-0.88 0,-0.62 0.09,-0.76 -0.11,-1.05l-0.21 -0.43c-0.31,0 -0.23,0.06 -0.46,0.18 -0.36,-0.19 -0.28,-0.31 -0.28,-0.83 0,-0.38 -0.07,-0.68 0.11,-0.86l0.08 -0.06c0.14,0.03 0.18,0.07 0.28,0.14 0,0.31 0.05,0.43 0.05,0.69l0.56 0c0.02,-0.19 0.05,-0.15 0.09,-0.32 0.07,-0.02 0.12,-0.02 0.19,-0.05 0,0 0.02,0.05 0.02,0.06 -0.01,0.19 0.01,0 -0.02,0.11l-0.13 0.06 -0.01 0.65c0,0.12 -0.03,0.1 0.08,0.08 -0.1,0.02 -0.02,-0.02 -0.09,0.04 -0,0.58 -0.01,1.16 -0.02,1.74 -0.01,0.28 -0.01,0.56 -0.01,0.84 -0,0.82 0.34,0.25 0.34,0.55l-0.06 0.25c-0,0.01 0,0.02 -0,0.04 -0.13,0.06 -0.15,-0.01 -0.16,-0.01 -0.16,-0.11 -0.14,-0.12 -0.25,-0.25l-0.05 0.49 0.3 -0.03c0.15,0.04 0.07,-0.01 0.17,0.07 0.17,0.13 0.11,-0.02 0.07,0.15 -0.04,0.19 -0.05,0.1 -0.12,0.09 -0.17,-0.01 -0.05,0 -0.13,-0.09 -0.1,-0.14 -0.25,-0.13 -0.29,0.04 -0.01,0.06 0,0.45 -0,0.56 -0.01,0.36 -0.01,0.71 -0.01,1.07 0,0.7 0,1.43 -0.03,2.13l0 3.67c0.02,0.26 0.03,0.23 0.27,0.18 0.01,-0.68 -0.04,-1.45 -0.02,-2.18 0.02,-0.75 0.08,-1.46 0.07,-2.22l0.04 -0.65c0.09,-0.07 0.03,-0.01 0.05,-0.18 0.04,-0.34 0.03,-0.52 0.11,-0.79l0.07 -0.41c0.09,-0.22 0.06,0.04 0.16,-0.26 0.03,-0.1 0.04,-0.21 0.04,-0.35 -0.22,0.08 -0.05,-0.02 -0.15,0.1 -0.09,0.11 0,-0.02 -0.06,0.08l-0.03 0.1c0,-0.21 -0.01,-0.23 0.05,-0.37 0.06,-0.29 -0.03,-0.03 0.07,0l0.07 0.03c0.19,0 0.1,0.01 0.18,-0.08l-0.06 0.18c0.01,0.21 -0.13,0.69 -0.18,0.97 -0.06,0.37 -0.1,0.71 -0.13,1.08 -0.07,0.73 -0.1,1.55 -0.13,2.27 -0.03,0.85 -0.03,3.72 0.26,4.55 0.02,-1.5 -0.28,-2.63 -0.21,-4.72 0.06,0.39 0.01,0.91 0.05,1.3 0.05,0.46 0.04,0.91 0.08,1.36 0.08,0.9 0.14,1.77 0.22,2.65 0.17,-0.1 0.03,-0.09 0.29,-0.22l0.1 -0.01 1.16 -0.13c0.03,-0.55 0.18,-0.76 0.68,-0.87 0.55,0.02 0.82,0.31 0.76,0.89l1.18 0.12 0.05 0.01 0.29 0.1 0.16 -1.75c0.01,0.63 -0.16,1.22 -0.12,1.84 0.27,-0.65 0.55,-4.26 0.38,-4.96l-0.13 1.94c-0.02,-0.42 0.05,-0.96 0.08,-1.35 0.11,-1.2 0.02,-4.26 -0.49,-5.26 -0.13,-0.26 -0.52,-0.65 -0.83,-0.51 -0.19,0.09 -1.21,-0.08 -2.03,0.01 -0.51,0.06 -0.31,0.08 -0.55,-0.09l-0.53 0.28 -0.12 0.01c0.06,-0.15 -0,-0.08 0.13,-0.2l0.48 -0.21c0.23,-0.06 0.57,-0.15 0.83,-0.15 0,-0.2 0.01,-0.37 0.23,-0.37 -0.06,0.15 -0.17,0.14 -0.09,0.32 0.08,0.01 0.13,-0.05 0.19,-0.09 0,0.37 -0.02,0.04 0.09,0.18 0.1,-0.03 0.2,-0.09 0.32,0 -0.21,0.01 -0.95,0.01 -1.14,0.08 -0.12,0.05 -0.09,0.04 -0.16,0.1 0.1,0.08 -0.01,0.04 0.14,0.07 0.15,0.03 0.59,-0.05 0.74,-0.08 0.56,-0.11 1.16,0.21 1.48,0.1 -0.09,-0.13 -0.15,-0.22 -0.46,-0.22l-0.23 0.04 -0.05 -0.14c0.33,0 0.72,0.1 0.97,0.19 0.36,0.14 0.4,0.29 0.65,0.46 0,-0.26 -0.05,-0.72 -0.04,-0.87 0.06,-0.57 0.04,-1.99 0.04,-2.61l-0.7 0c-0,0 -0.11,-0.03 -0.13,-0.04 -0.01,-0 -0.02,-0.01 -0.03,-0.02 -0.16,-0.09 -0.08,-0.12 -0.3,-0.13l0.09 -0.14c0.05,-0.08 0.08,-0.04 0.01,-0.09 -0.07,-0.05 -0.04,-0.06 -0.04,-0.09 0,-0.01 0.02,-0.03 0.03,-0.05 0.31,-0.1 0.87,0.03 1.07,-0.05 0.1,-0.09 0.03,-0.22 0,-0.51 -0.35,-0.14 -1.76,-0.03 -2.23,-0.03 -0.38,-0 -1.94,-0.14 -2.17,0.07l0.01 0.2c-0.29,0 -0.11,0 -0.16,-0.18 -0,-0 0,-0.26 0,-0.28 0.02,-0.01 0.04,-0.05 0.05,-0.04 0.01,0.01 0.03,-0.02 0.04,-0.02 0.01,-0 0.05,0.01 0.05,0.01l0 0.18 1.95 0c0.04,-0.13 0.04,-0.09 0.1,-0.23 0.03,-0.07 0.05,-0.12 0.09,-0.19l0.28 0c0.05,0.1 0.03,0.14 0.08,0.24 0.04,0.09 0.05,-0.02 0.1,0.17l1.81 0c0.06,-0.27 0.06,-0.19 0.19,-0.37l0.42 0c0.13,0.2 0.14,0.05 0.14,0.37l0.6 0c0,-0.2 0.01,-0.64 0.09,-0.75 0.06,-0.08 0.17,-0.09 0.26,-0.03 0.19,0.14 0.11,0.81 0.11,1.15 -0,0.37 -0.03,0.42 -0.28,0.55 -0.23,-0.12 -0.15,-0.18 -0.46,-0.18 -0.04,0.08 -0.03,0.1 -0.06,0.17l-0.17 0.3c-0.11,0.24 -0.08,2.1 0.03,2.42 0.06,0.16 0.09,0.11 0.11,0.31 0.05,0.52 0,1.3 0,1.85l0.05 1.67 1.11 0c0.03,-0.39 0.16,-0.18 0.35,-0.3 0.12,-0.08 0.07,-0.06 0.08,-0.25 0.01,-0.19 0.01,-0.13 0.04,-0.28 0.11,-0.03 0.14,-0.04 0.28,-0.05 0,-0.5 -0.03,-2.78 0.14,-3.11 0.17,-0.34 1.18,-0.38 1.53,-0.32 0.4,0.07 0.81,0.07 0.93,0.37 0.24,0.65 0.14,5.31 0.14,6.31 0,0.27 -0.02,0.41 -0.04,0.61 -0.04,0.34 0.08,1.42 -0.28,1.62 -0.1,0.06 -0.93,0.19 -1.11,0.18 -0.15,-0.01 -0.99,-0.15 -1.08,-0.22 -0.14,-0.09 -0.17,-0.27 -0.17,-0.47 -0.01,-0.27 -0.05,-0.36 -0.05,-0.6 -0,-0.42 0,-0.84 0,-1.25 -0.19,0 -0.15,0.02 -0.28,-0.05 -0.04,-0.18 -0.05,-0.18 -0.05,-0.42 -0.28,0 -0.29,-0.06 -0.42,-0.07 -0.17,-0.01 -0.78,0.25 -1.11,0.25 0,0.27 -0.06,0.36 -0.05,0.65l0.05 1.25c-0,0.81 0.05,0.42 0.09,0.74 0.04,0.37 -0.03,0.8 -0.08,1.08l-0.06 1.24c0.23,0.12 0.17,0.06 0.27,0.29 0.07,0.17 -0.08,0.07 0.28,0.23 0.25,0.11 0.4,0.32 0.61,0.46 0.07,-0.02 0.27,-0.07 0.32,-0.09 0.14,-0.07 0.11,-0.1 0.19,-0.19 -0.05,-0.19 -0.1,-0.12 -0.14,-0.33 -0.05,-0.31 0.01,-0.81 0.29,-0.96 0.35,-0.19 0.94,-0.34 1.38,-0.34 0.14,0.21 0.23,0.24 0.17,0.63 -0.04,0.27 0.02,0.51 -0.11,0.68 -0.18,0.25 -0.78,0.41 -1.22,0.41 -0.01,0.17 -0.07,0.22 -0.14,0.32 0.32,0.17 0.37,0.26 0.46,0.65 0.07,0.3 0.13,0.61 0.14,0.98 -0.01,0.18 0.05,0.03 -0.05,0.14 -0.18,-0.03 -0.11,0.03 -0.19,-0.12 0.03,0.12 0.02,0.04 -0.05,0.13 -0.07,-0.04 -0.15,0.15 -0.03,-0.09l-0.02 -0.4 -0.39 0.03 0.05 0.38c0.09,0.08 0.04,0.08 0.3,0.08 -0.09,-0.03 0.13,-0.06 -0.14,-0.03 -0.17,0.02 -0.05,0.01 -0.14,0.08 0.13,0.1 0.12,-0.03 0.18,0.45 0.02,0.14 0.03,0.27 0.05,0.4 0.46,0.01 0.1,-0.17 0.3,-0.46 0.15,-0.22 0.3,-0.02 0.16,-0.57l0.19 -0.01c0.82,0 0.35,-0.24 0.83,-0.24 0.26,0 0.22,0.1 0.42,0.11 0.08,0.01 0.3,-0.02 0.41,0.03 0.08,0.16 0.08,0.63 0,0.79 -0.21,0.1 -0.35,-0 -0.56,0.09 -0.09,0.04 -0.08,0.08 -0.22,0.09 -0.12,0.01 -0.06,-0.02 -0.23,-0.04 0,0.73 -0.06,0.39 -0.14,0.7 0.23,0.05 0.52,0.04 0.7,0.14 0.28,0.15 0.21,0.28 0.32,0.51 1.43,0.33 1.09,0.15 1.34,1.61 -0.15,0.09 0.06,0.16 -0.13,0.06 -0.16,-0.45 0.07,-0.38 -0.33,-0.61 -0.22,-0.12 -0.36,-0.16 -0.61,-0.23 -0.12,-0.09 0.18,-0.09 -0.23,-0.09 0,0.51 0.16,0.2 0.1,0.62 -0.01,0.08 -0.01,0.14 -0.01,0.22 0.22,0.12 0.28,0.01 0.92,0.34 0.14,0.07 0.24,0.05 0.15,0.13l-0.04 -0.09c-0.01,-0.06 -0.01,-0.08 -0.01,-0.14 0.12,-0.11 -0.17,-0.09 0.19,-0.09 0,0.38 0.14,1.51 0.14,1.95l-0.04 8.44c-0,0.27 -0.05,0.35 -0.05,0.65 -0,0.32 -0.07,0.31 -0.09,0.56 -0.02,0.25 0.01,0.46 -0.03,0.66 -0.03,0.17 -0.06,0.39 -0.13,0.52 -0.18,0.32 -1.82,0.46 -2.2,0.45l-1.23 -0.12c-0.59,-0.09 -0.74,-0.08 -0.84,-0.46 -0.15,-0.53 -0.2,-1.85 -0.2,-2.44 -0.4,-0.21 -0.42,-0.78 -0.42,-1.34 -0.22,-0.11 -0.21,-0.13 -0.37,-0.14 -0,0.2 -0.04,0.16 -0.05,0.37 -0.02,0.42 0.06,0.87 0.05,1.07l-0.19 1.3c-0.23,0.05 -0.4,0.14 -0.46,-0.14l-0.09 -0.65 0.05 -0.04c0.03,-0.02 0.04,0.08 0.09,-0.06 0.01,-0.03 0.04,-0.02 0.05,-0.04 0,0.4 -0.02,0.31 0.16,0.52l0.07 0.08c-0.39,-0.02 -0.14,-0.04 -0.23,0.09 0.12,0.1 -0.17,0.09 0.23,0.09 0.07,-0.14 0.06,-0.25 0.06,-0.42 0.01,-0.7 0.21,-0.49 -0.11,-1.02l-0.23 0.09c0.01,0.26 0.09,0.19 0,0.47 -0.18,-0.2 -0.04,-0.04 -0.06,-0.42 -0.01,0.01 -0.1,0.13 -0.11,0.14 -0.11,0.06 -0.1,-0.03 -0.11,-0.04 -0.06,-0.1 -0.05,-0.26 -0.05,-0.42 0.13,-0.11 -0.18,-0.09 0.19,-0.09l0 -0.52 -0.14 -0.04c-0,0.39 0.07,1.1 -0.09,1.34 -0.07,-0.09 -0.05,-0.04 -0.09,-0.18 -0.01,-0.02 -0.01,-0.16 -0.01,-0.19 -0,-0.17 0.01,-0.15 -0.03,-0.31 -0.15,-0.63 -0.01,-0.4 0.13,-0.61l-0.07 -0.06c-0.11,-0.12 -0.12,-0.06 -0.12,-0.36l-0.28 0.09c0.12,0.38 0.02,0.92 0.03,1.35 0,0.36 -0.01,1.08 0.1,1.34l0.14 2.08c0.02,0.09 0.01,0.06 0.05,0.1l0.21 -0 -0.05 -1.88c0.01,-0.05 -0.03,-0.51 -0.04,-0.63 -0.01,-0.12 -0.06,-0.22 -0.01,-0.33 0.12,-0.29 0.08,-0.11 0.17,-0 0,0.38 -0.01,2.56 0.1,2.93 0.04,0.15 0.04,0.16 0.04,0.38 -0,0.54 0.14,0.28 0.08,0.63 -0.06,0.36 -0.08,0.49 -0.2,0.52zm-4.89 -1.25l-0 -0.32 0.29 -0.02 -0.03 0.42 -0.22 -0.07c-0.01,-0 -0.02,-0.01 -0.03,-0.01zm2.41 -0.71c0.03,0.05 0.12,-0.07 0.04,0.1 -0.05,0.1 0.02,0.02 -0.08,0.05 -0.06,-0.13 -0.06,-0.09 0.05,-0.15zm0.74 -0.35c0.13,-0.07 0.16,-0.12 0.19,-0.32 0.11,0.18 0.18,0.01 0.54,0.43 0.11,0.12 0.11,0.16 0.23,0.28 0.1,0.1 0.18,0.19 0.29,0.27 -0.07,0.13 -0.14,0.14 -0.14,0.37 -0.06,-0.15 -0.78,-0.72 -0.98,-0.89 -0.1,-0.08 0,-0.06 -0.14,-0.13zm-2.92 0.71l-0.14 0c-0.15,-0.16 -0.03,-1.05 -0.02,-1.27 0.02,-0.37 -0.06,-0.94 0.11,-1.22 0.32,0.13 0.2,0.61 0.17,1.22 -0.01,0.22 -0.01,0.42 -0.03,0.65l-0.07 0.58c-0,0.01 -0.01,0.03 -0.02,0.04zm8.81 -1.36c0.05,-0.07 0.12,-0.17 0.07,-0.29 0.13,0.1 0.02,0.05 0.15,0.13l0.61 0.24c0.38,0.1 0.51,0.1 0.98,0.1 0,0.65 -1.11,0.47 -1.57,0.39 -0.24,-0.04 -0.39,-0.13 -0.56,-0.21 0.12,-0.21 -0.06,-0.05 0.15,-0.19 0.14,-0.1 0.03,-0.03 0.22,-0.09 0.1,0.15 0.05,0.12 0.23,0.23 -0.04,-0.15 -0,-0.21 -0.28,-0.32zm-11.19 0.12l0.16 -0.02c-0.17,0.37 -0.63,0.32 -1.11,0.26 -0.37,-0.05 -0.9,-0.13 -1.06,-0.43 0.15,-0.35 0.38,-0.28 0.41,-0.71 0.3,0.27 1.7,0.54 1.85,0.24l0.01 -0.06c0,0.52 0.08,0.41 -0.16,0.58 -0.25,0.17 -0.13,0.03 -0.09,0.14zm4.46 -0.78l0.19 -0.02 -0.02 0.44c-0.1,0 -0.16,0.09 -0.18,-0.13 -0.01,-0.08 0.01,-0.2 0.01,-0.29zm8.69 -0.1l-0.04 0.24c-0.02,0.15 0.01,0.14 -0.12,0.21 -0.55,0.27 -1.23,-0.45 -1.59,-0.44 0.04,-0.27 -0.17,-0.31 -0.02,-0.44 0.08,-0.07 0.3,0.12 0.6,0.24 0.47,0.19 0.73,0.27 1.17,0.19zm-7.14 -0.49c0.1,-0.15 0.12,-0.06 0.14,-0.28l0.19 0 0.23 2.74 -0.64 -0.66c-0.52,-0.54 -0.2,-0.14 -0.42,-0.55 -0.08,-0.15 -0.03,-0.02 -0.15,-0.18 0.14,-0.22 0.14,-0.03 0.14,-0.46 0,-0.47 -0.61,-0.6 0.51,-0.6zm-3.85 -0.65l0 0.14 -0.09 0c0.03,-0.13 -0.02,-0.07 0.09,-0.14zm2.78 0.23c0.05,-0.24 -0.01,-0.1 0.13,-0.3 0.11,-0.16 0.02,0.01 0.11,-0.22 0.1,-0.26 0.34,-0.21 0.23,-0.31 0.11,0.2 -0.02,0.14 0.32,0.14l0.05 0.97c-0.19,0.07 -0.21,0.05 -0.42,0.05 0.13,-0.14 -0.2,-0.18 0.28,-0.09l-0.1 -0.12c-0.42,-0.46 -0.21,-0.47 -0.55,-0.14 -0.01,0.01 -0.03,0.03 -0.05,0.04zm-3.45 -0.69l0.29 0.02 0.04 0.41 -0.26 -0.02 -0.07 -0.41zm-3.26 0.78c0,0 1.61,1.16 2.01,0.62 -0.09,0.22 0.05,0.67 -1.32,0.2 -0.4,-0.14 -0.66,-0.29 -0.92,-0.52 -0.1,-0.19 0.05,-0.14 -0.15,-0.3 0,0.2 -0.04,0.24 0.06,0.39l0.17 0.19c0.03,0.03 0.22,0.2 0.05,0.23 -0.17,0.03 -0.09,-0.1 -0.23,-0.2 -0.24,0.05 -0.05,-0.01 -0.2,0.07l-0.51 0.27c-0.23,0.1 -0.54,0.16 -0.73,0.26 -0.02,0 -0.19,-0 -0.19,-0 -0.27,0.05 -0.1,-0.01 -0.23,0.11 0.69,0.16 1.41,-0.41 1.92,-0.62 0.08,0.18 0.07,0.09 0.19,0.21 0.09,0.09 0.04,-0.01 0.08,0.12 -0.27,0.3 -1.31,0.56 -1.82,0.56 -0.36,0 -0.4,-0.02 -0.43,-0.36 0.04,-0.34 0.02,-0.3 -0.03,-0.53 0,0.01 -0.21,0.01 0.13,0.05 0.67,0.07 1.66,-0.52 2.15,-0.96 0.12,-0.11 0.19,-0.2 0.08,-0.38 0.1,0.01 -0.01,0 0.12,0.03 0.46,0.11 1.46,0.15 1.92,0.15 -0.16,0.15 0.18,0.34 -0.11,0.79 -0.18,0.28 -0.28,0.28 -0.65,0.18 -0.37,-0.1 -0.7,-0.24 -1,-0.47l-0.21 -0.16c-0,-0 -0.04,-0.03 -0.12,-0.06 -0.09,0.11 -0.04,-0.04 -0.04,0.14zm14.97 0.31c0.36,0.98 -1.83,-0.17 -1.86,-0.17 -0.25,-0.18 -0.05,-0.06 -0.13,0 0.06,0.16 0.02,0.08 0.01,0.09 -0.09,0.16 0.03,0.05 -0.13,0.06 0.08,0.09 0.1,0.3 0.1,0.3 0.46,0.7 1.7,1.09 1.95,0.71 -0.02,0.35 -0.16,0.34 -0.49,0.31 -0.24,-0.02 -0.46,-0.07 -0.68,-0.15 -0.14,-0.05 -0.48,-0.17 -0.59,-0.24 -0.28,-0.17 -0.4,-0.26 -0.46,-0.43 0.12,-0.28 -0.11,-0.22 -0.12,-0.23l0 0.46c0.48,0.21 0.31,0.19 0.37,0.37 -0.16,0.27 -2.01,0.78 -2.18,0.25 -0.01,-0.01 -0.01,-0.04 -0.01,-0.04 -0,0.01 -0.01,-0.03 -0.01,-0.04l-0.08 -0.68c-0.02,0.04 -0.12,-0.07 0.02,0.08 0.29,0.32 2.01,-0.27 2.11,-0.51 0.14,-0.32 0.06,-0.05 -0.02,-0.16 -0.27,0.18 -0.73,0.37 -1.07,0.47 -0.17,0.05 -0.44,0.1 -0.63,0.12 -0.4,0.02 -0.35,-0.07 -0.4,-0.42 -0.03,-0.05 -0.01,0.11 0,-0.03 0,-0.01 0.01,-0.04 0.01,-0.08 -0,-0.05 -0.06,-0.23 -0.06,-0.23 -0.02,-0.13 -0.06,-0.41 -0.06,-0.53 0.58,0 1.42,-0.05 1.99,-0.16 0.02,-0 0.1,-0.02 0.11,-0.03 0.19,-0.06 0.22,-0.13 0.43,0.16 0.14,0.19 0.17,0.26 0.47,0.3 -0.09,-0.15 -0.27,-0.31 -0.31,-0.34 -0.14,-0.09 -0.26,-0.25 -0.03,-0.36 0.2,-0.09 0.2,0.06 0.38,-0.39 0.08,0.18 1.09,0.62 1.4,0.62 0,0.32 0.03,0.35 -0.03,0.64 -0.05,0.25 -0.06,-0.07 -0.02,0.27zm-16.77 -0.2c0.6,-0.1 1.11,-0.58 1.42,-0.8 0.2,0.1 0.08,0.14 0.32,0.22 -0.17,0.23 -0.21,0.25 -0.42,0.41 -0.37,0.28 -1.52,0.85 -1.78,0.55 -0.09,-0.11 -0.06,-0.22 -0.08,-0.36 0.03,-0.24 0.03,-0.14 -0.03,-0.31l0 -0.46c0.43,-0.02 1.32,-0.4 1.48,-0.65 -0.17,0.21 0.4,0.45 0.35,0.63 -0.03,0.1 -0.04,-0.02 -0.3,0.16 -0.68,0.48 -0.59,0.33 -0.83,0.46 -0.22,0.13 -0.08,-0.03 -0.14,0.17zm10.93 -1.04c0.04,-0.16 0.14,-0.2 0.23,-0.05 -0.07,0.14 -0.09,0.14 -0.23,0.05zm-4.73 -0.56c0.14,0.15 0.12,0.32 0.09,0.57l-0.31 -0 0.09 -0.46c0.1,-0.18 -0.01,-0.06 0.14,-0.1zm4.72 0.05l0.25 -0.01 0.02 0.3 -0.26 0.01 -0.02 -0.31zm-3.56 1.99c-0.06,0.16 -0.19,0.53 -0.13,0.68 0.06,0.13 0.02,0.09 0.17,0.11l-1.21 1.44 0.16 -2.48c0.03,-0.15 0.06,-0.22 0.07,-0.35l0.09 0c0.06,0.26 0.02,0.39 0.28,0.46l0.18 -0.14 -0.04 -0.32c0,-0.08 0.04,-0.23 0.04,-0.37 0,-0.24 -0,-0.5 -0,-0.74 -0.09,-0.07 -0.1,-0.09 -0.28,-0.09l0 -0.32c-0.07,0.09 0.06,0.2 0.2,0.25 0.14,0.05 0.15,-0 0.22,0.16 0.1,-0.09 0.03,-0.03 -0.05,0 -0.06,0.15 -0.04,0.12 -0.05,0.32l0.2 0.14c-0.06,0.2 -0.14,0.27 0.03,0.42l0.11 -0.09c0.04,-0.13 0,-0.03 -0.04,-0.18l0.14 -0.14c0.05,-0.09 0,-0.14 0.15,-0.13 0.04,0 0.18,0.12 0.18,0.12 0.21,0.23 0.07,-0.03 0.15,0.28 -0.22,-0.03 -0.3,-0.11 -0.37,-0.09 -0.06,0.19 -0.05,0.31 -0.05,0.56l-0.28 0 0.28 0.14c-0.12,0.11 -0.13,0.09 -0.28,0.09 0.18,0.25 0.13,0.19 0.3,0.13l0.16 -0.04 0.09 -0.28c0,-0.11 0.02,-0.2 -0.04,-0.28l-0.05 -0.04c-0.06,-0.06 -0.05,0.11 -0.1,-0.1 0.17,-0.08 0.05,-0.02 0.23,-0.06 0.21,-0.05 0.13,-0.06 0.37,-0.08l0 0.93c-0.16,-0.05 -0.29,-0.12 -0.41,-0.05 -0.08,0.05 -0.05,0.03 -0.02,0.15 0,0.02 0.01,0.03 0.02,0.05 0.01,0.02 0.01,0.04 0.02,0.06 0.01,0.02 0.02,0.04 0.02,0.06 -0.21,-0.08 -0.1,0.05 -0.23,-0.23l0 0.32 -0.19 0c0.06,-0.06 0.08,0.14 0.04,-0.1 -0.04,-0.18 0.05,-0.11 -0.13,-0.18zm8.1 -1.97l0.09 -0.46c0.2,0.16 0.91,0.55 1.28,0.65l-0 0.39c-0.28,0.09 -0.86,-0.21 -1.1,-0.36 -0.16,-0.09 -0.18,-0.18 -0.27,-0.23zm-8.31 -0.01l-0 -0.3c0.1,0.06 0.07,-0.04 0.13,0.2l0.31 0.01c-0.07,0.2 -0.23,0.18 -0.43,0.08zm3.49 -0.53l0.09 0 0 0.14c-0.18,-0.12 -0.02,0 -0.09,-0.14zm-4.97 -0.04c0.14,0.1 0.09,-0.01 0.1,0.23l-0.1 -0.23zm10.02 -1.53c-0.21,0.19 0.15,0.18 0.23,0.21 0.01,0 0.14,0.08 0.14,0.08l0.63 0.44c0.07,0.04 -0.02,0.05 0.17,0.06 -0.02,0.21 -0.06,1.31 0.03,1.39 -0.02,-0 -0.11,-0.03 -0.15,-0.04 -0.4,-0.12 -0.42,-0.16 -0.77,-0.38 -0.09,-0.06 -0.19,-0.1 -0.27,-0.18 -0.22,-0.21 -0.01,-0.97 -0.01,-1.57zm-7.61 1.6l0.1 0 0.01 0.44c0.03,0.15 0.01,0.09 0.08,0.18 0,-0.01 0,-0.05 0,-0.04l0 -0.47c0.07,-0.28 -0.01,-0.06 0.09,-0.18 0.1,0.12 0.06,-0.02 0.1,0.22 0.01,0.04 -0,0.28 -0,0.33l0.06 -0.11c0.01,-0.01 0.02,-0.02 0.02,-0.03l0.14 -0.14 -0.15 -0.12c0.07,-0.04 -0.04,-0.1 0.19,0.13 0.06,0.05 0.06,0.05 0.1,0.08 -0.16,-0.16 -0.06,0.01 -0.09,0.05l0.19 0.19c-0.01,0.01 -0.04,-0.01 -0.05,0.01 -0.11,0.23 0.04,-0.08 -0.2,0.04 -0.05,0.02 -0.06,0.09 -0.22,0.13l0.18 0.28c-0.11,-0.11 -0.11,-0.14 -0.23,-0.09 0.04,0.23 0.07,0.14 0.07,0.22 -0,0.06 -0.11,0.02 -0.02,0.1 -0,-0.18 0,-0.15 -0.05,-0.28 -0.17,0.14 -0.07,-0.02 -0.13,0.18 -0.02,0.08 0,0.17 0.01,0.25l-0.22 -0.02c-0.01,-0 -0.11,0.05 -0.09,-0.23 0.01,-0.1 0.04,-0.04 0.06,-0.19 0.44,0 0.1,0.03 0.23,-0.14 -0.22,0.01 -0.16,0.08 -0.35,-0 0.02,-0.18 0.06,-0.16 0.16,-0.32 -0.3,-0.01 -0.27,-0.1 -0.19,-0.32 -0.14,0.05 -0.15,0.19 -0.18,0.31l-0.09 -0.22c-0,-0.01 -0,-0.03 -0.01,-0.04 -0,-0.01 -0,-0.03 -0,-0.04 -0,-0.1 -0.03,-0.07 0.08,-0.19l0.01 -0.12c-0.04,-0.08 -0.07,-0.04 0,-0.08l0.51 -0.05c-0.02,0.19 -0.13,0.11 -0.28,0.23l0 0.37c0.01,-0.02 0.05,-0.27 0.13,-0.34zm-3.37 -0.38l0.25 -0 0 0.24 -0.25 0 -0 -0.24zm-4.83 0.83c0.37,-0.06 0.61,-0.31 0.9,-0.48 -0.05,0.21 -0.03,0.33 -0.02,0.55 -0.25,0.22 -0.95,0.58 -1.34,0.59l-0.05 -0.43 0.32 -0.1 -0.07 -0.05c-0.17,-0.06 -0.11,0.01 -0.26,-0l-0.01 -1.34c0.23,-0.01 1.17,-0.66 1.22,-0.79 0,0.37 0.04,1.16 0.14,1.44 -0.09,0.03 -0.29,0.22 -0.4,0.29 -0.17,0.11 -0.36,0.19 -0.53,0.27 0.18,0.23 -0.11,0.07 0.09,0.06zm5.56 -0.87c0.07,0.12 0.06,0.12 0.05,0.29 -0.05,-0.02 -0.1,-0.01 -0.14,-0.1 -0.1,-0.25 0.05,-0.17 0.09,-0.19zm5.99 0.12c0.09,-0.12 -0.01,-0.08 0.21,-0.08l0.03 0.22c-0.47,-0.09 -0.15,-0.03 -0.24,-0.14zm-5.8 0.11c-0,-0.01 -0.1,0.05 -0.03,-0.1 0.06,-0.15 -0.05,-0.01 0.08,-0.06 0.02,0.04 0.13,-0.06 0.01,0.12 -0,0.01 -0.06,0.03 -0.06,0.05zm5.21 -0.2c0.11,-0.08 0.05,-0.07 0.31,-0.07 0.07,0.13 0.04,0.15 0.07,0.26 0.07,-0.08 0.02,-0.01 0.08,-0.1l-0 0.17c-0.15,-0.08 -0.03,-0 -0.14,-0.15 -0.02,-0 -0.19,0 -0.19,0 -0.15,-0.04 -0.02,0.01 -0.12,-0.11zm3.1 -1.9c-0.18,-0.58 0.67,-0.76 0.77,-0.27 0.12,0.58 -0.65,0.68 -0.77,0.27zm-13.51 0.6c-0.11,0.1 -0.9,0.78 -1.05,0.68l-0.03 -0.47 1.15 -0.85c-0.09,0.27 -0.06,0.33 -0.07,0.64zm1.28 -0.96c0.01,-0.12 -0.05,-0.08 0.1,-0.16 0.11,-0.06 0.17,-0.05 0.29,-0.06 0.39,0.15 0.45,0.63 0.11,0.78 -0.29,0.13 -0.57,-0.06 -0.6,-0.31 -0.02,-0.17 0.06,-0.21 0.09,-0.25zm14.23 0.46c1.03,0.84 0.92,0.49 0.91,1.2 -0.17,0.01 -0.9,-0.53 -1.05,-0.72 -0.02,0 -0.08,0.01 -0.08,0 -0.01,-0 -0.03,-0.01 -0.04,-0.01 -0.01,-0 -0.02,-0.01 -0.03,-0.02l-0.02 -0.09c-0,-0.01 -0.01,-0.03 -0.01,-0.05 -0.01,-0.19 0.01,-0.37 0.11,-0.52l0.1 -0.13c-0.19,-0.12 -0.07,-0.53 -0.05,-0.74 0.01,-0.18 -0.04,-0.73 0.02,-0.84l0.04 0.02c0.17,0.18 -0.06,0.12 0.33,0.3 0.27,0.12 0.08,0.08 0.27,0.25l0.46 0.27 0 1.62c-0.03,-0.08 -0.66,-0.5 -0.79,-0.65 -0.37,0 -0.04,-0.02 -0.16,0.1zm-16.38 0.31c-0.02,-0.25 -0.08,-1.09 -0.01,-1.28 0.05,-0.15 0.22,-0.21 0.36,-0.3 0.15,-0.1 0.25,-0.22 0.44,-0.28 0.02,1.34 0.14,1.2 -0.38,1.6 -0.19,0.15 -0.18,0.19 -0.41,0.27zm5.23 -1.29c0.09,-0.05 0.04,-0.04 0.26,0 0.14,0.03 0.22,0.03 0.33,0.09 -0.02,0.01 0.08,0.08 -0.28,0.02 -0.17,-0.03 -0.19,-0.01 -0.31,-0.11zm-0.77 -0.3c0.16,0.09 0.38,0.07 0.54,0.21 -0.13,0.07 -0.41,-0.02 -0.54,-0.21zm9.18 1.32c-0.14,0.06 -0.2,0.17 -0.31,0.27 -0.37,0.37 -0.78,0.48 -1.26,0.67 -0.17,0.07 -0.28,0.09 -0.46,0.14l-1.07 0.21c-0.32,0.02 -0.41,-0.04 -0.59,0.19 0.31,0 1.28,-0.19 1.62,-0.29 0.78,-0.23 0.39,-0.12 0.51,0.02 -0.11,0.07 -0.17,0.14 -0.32,0.21 -0.63,0.31 -1.67,0.28 -2.37,0.32l-2.17 -0.01c-0.32,-0.03 -0.73,-0.08 -1.02,-0.09 -0.15,-0.01 -0.06,0.02 -0.23,-0.03 -0.23,-0.07 0.09,0.03 -0.11,-0.04 -0.43,-0.15 -0.39,0.02 -0.87,-0.37 -0.08,-0.07 -0.15,-0.18 -0.24,-0.22l0.86 0.23c0.06,0.01 0.1,0.02 0.16,0.04l1.9 0.29 2 -0.01c0.2,-0.07 0.04,0.05 0.18,-0.13 -1.78,0 -2.84,0.07 -4.31,-0.31 -0.64,-0.17 -1.71,-0.52 -2.01,-1.16 -0.16,-0.25 -0.12,-0.21 -0.2,-0.47 -0.06,-0.2 0,-0 -0.05,-0.13 -0.2,-0.47 -0.1,-0.34 -0.02,-0.7 0.03,-0.12 0.02,-0.17 0.06,-0.3 0.12,-0.39 0.08,-0.44 0.14,-0.6 -0.03,0.09 -0.04,-0.15 -0,0.06 0.02,0.1 0.26,0.69 0.49,0.81l0.15 -0.15c0.02,-0.01 0.04,-0.02 0.06,-0.03 0.01,0.01 0.04,0.05 0.04,0.06 0,0.01 0.01,0.02 0.02,0.03 0.16,0.27 -0.06,0.25 0.01,0.51 0.04,0.15 -0.03,0.03 0.07,0.13 0.07,-0.5 0.17,-0.29 0.53,-0.15l0.77 0.22c0.11,0.02 0.31,0.05 0.42,0.05 0.24,-0 0.16,-0.05 0.46,-0.03 0.3,0.02 0.63,0.04 0.93,0.07 1.52,0.14 2.14,-0.03 3.38,-0.08 0.34,-0.02 0.12,0.09 0.51,0.02 -0.15,-0.13 0.19,-0.08 -0.19,-0.09 0.05,-0.06 0.07,-0.09 0.12,-0.15 0.13,0.01 0.2,-0.01 0.32,-0.04 0.12,0.01 0.06,0 0.19,-0.02 0.3,-0.05 0.12,-0.03 0.2,0.03 -0.19,0.09 -0.35,0.08 -0.54,0.14 -0.22,0.04 -0.08,0.01 -0.15,0.13 0.41,0.01 0.55,-0.08 0.83,-0.18 0.25,-0.09 0.37,-0.16 0.7,-0.21 0.18,-0.13 0.13,0.1 0.14,-0.25l0.23 0.01c0.47,-0.19 0.48,-0.59 0.52,-0.68 0.02,-0.06 0.07,-0.12 0.09,-0.21 0,0.87 0.37,0.86 0.19,1.51 0,-0.16 0.01,-0.08 -0.11,-0.12 -0.02,0.24 0.06,0.34 0.03,0.48 -0.02,0.12 -0.16,0.29 -0.23,0.4zm2.56 -2.67c0.11,0.12 0.18,0.11 0.35,0.25 0.09,0.08 0.68,0.47 0.73,0.56 0.07,0.13 0.04,0.41 0.02,0.58l-0.72 -0.52c-0.5,-0.38 -0.36,-0.36 -0.38,-0.87zm-13.14 -3.28c0.08,0.81 0.03,1.68 0.11,2.53 0.06,0.63 0.22,0.77 0.16,1.12 -0.06,0.35 -0.14,0.73 -0.27,1.04 -0.11,-0.84 -0.17,-1.47 -0.16,-2.36 0,-0.4 -0.01,-0.86 0.02,-1.25 0.02,-0.22 0.16,-1 0.13,-1.08zm-3.28 4.67l-0.02 -0.59 1.12 -0.82c-0.05,0.59 -0.01,0.58 -0.39,0.88l-0.72 0.53zm14.33 -4.65c-0,0.18 0.1,0.8 0.12,1.09 0.06,0.84 0.09,2.89 -0.13,3.57 -0.15,-0.38 -0.19,-0.62 -0.24,-1.05 -0.06,-0.53 0.07,-0.33 0.15,-1.1 0.09,-0.85 0.06,-1.67 0.1,-2.52zm-14.15 3.72c-0.06,-1.67 -0.04,-1.3 0.89,-1.94 0.07,1.22 0.11,1.22 -0.41,1.62 -0.2,0.16 -0.22,0.19 -0.47,0.31zm16.24 -1.75c0.82,0.3 0.78,0.5 0.87,1.13 0.03,0.21 0.03,0.44 0.03,0.65 -0.12,-0.06 -0.13,-0.06 -0.21,-0.12l-0.18 -0.14c-0.59,-0.49 -0.39,-0.36 -0.52,-1.52zm-0 -0.68l-0.01 -0.44 1.1 0.65 0.01 0.51 -1.01 -0.6c-0.16,-0.15 -0,-0.02 -0.08,-0.12zm-2.5 1.4l-0.07 0.01 0.04 0.07c0.16,0.11 0.17,0.15 0.11,0.39 -0.04,0.16 -0.1,0.32 -0.16,0.45 -0.14,0.31 -0.28,0.51 -0.53,0.68 -0.36,0.23 -1.37,0.53 -1.89,0.52l-0.1 0.06c-0.1,0.25 -0.41,0.19 -0.99,0.24 -0.93,0.07 -2.95,0.09 -3.75,-0.05 -0.28,-0.05 -0.09,-0.13 -0.43,-0.2 -0.18,-0.04 -0.36,-0.06 -0.55,-0.11 -1.3,-0.29 -1.74,-0.55 -2.02,-1.88 -0.44,-2.11 -0.1,-7.56 0.99,-9.02 0.73,-0.97 2.98,-0.99 4.18,-0.99 1.2,0 3.52,-0.02 4.27,0.94 1.17,1.5 1.39,6.8 1.05,9.05 -0.08,-0.1 -0.04,-0.06 -0.15,-0.14zm-13.91 -0.73c0.01,-0.62 0.06,-0.47 0.42,-0.73 0.16,-0.12 0.54,-0.38 0.72,-0.43 -0.27,0.35 0.02,0.46 -0.75,0.92 -0.19,0.12 -0.21,0.17 -0.39,0.25zm0.25 -0.79c0.03,-0.52 -0.13,-1.04 0.83,-1.08 0,0.35 -0,0.6 -0.2,0.71l-0.62 0.37zm17.21 -1.09l-0.02 0.26c0.01,0.18 0.02,0.2 0.05,0.35 0.04,0.21 0,0.43 0,0.7 0.03,-0.08 0.07,0.04 -0.02,-0.06l-0.32 -0.18c-0.12,-0.12 -0.19,-0.09 -0.33,-0.16 -0.15,-0.09 -0.13,-0.14 -0.3,-0.23 -0.05,-0.05 -0.04,-0.05 -0.13,-0.06 0.05,-0.36 -0.08,-0.75 0,-0.92l0.03 -0.05c0.01,-0.01 0.04,-0.04 0.05,-0.05l-0.13 -0.04 0.01 -0.27c0.24,0.01 0.47,0.09 0.69,0.19 0.35,0.16 0.37,0.15 0.41,0.52zm-16.23 -0.78l-0.04 0.26 -0.11 0.03c-0.26,0.23 -0.7,0.02 -0.99,0.48 -0.04,-0.32 -0.01,-0.41 0.21,-0.53 0.17,-0.1 0.42,-0.19 0.63,-0.26l0.29 -0.08c-0.02,-0.02 0.02,-0.19 -0.44,-0.04 -0.5,0.16 -0.53,0.51 -0.63,-0.09 -0.02,-0.12 -0.05,-0.17 0.03,-0.28 0.13,-0.34 0.74,-0.46 0.82,-0.45 0.13,0 0.13,-0.09 0.13,0.08 -0,0.18 -0.01,0.09 -0.15,0.13 0.13,0.12 -0.19,0.1 0.23,0.1l0 0.65zm14.92 -1.52c0.17,-0.1 0.25,-0.08 0.46,-0.03 0.13,0.03 0.35,0.08 0.41,0.1 0.37,0.13 0.24,0.36 0.24,0.75 0.02,-0.06 0.07,0 -0.03,-0.07l-0.39 -0.17c-0.17,-0.06 -0.3,-0.13 -0.55,-0.13 0,-0.39 -0.04,-0.24 0.14,-0.32l-0.28 -0.13zm-3.22 9.37c0.34,-0.03 0.84,-0.38 1.35,-0.6 0.45,-0.19 0.78,-0.13 1.03,-0.34 0.1,-0.08 0.15,-0.18 0.27,-0.23 0.09,-0.66 -0.02,-0.9 -0.62,-1.02 0.01,-2.09 0.09,-3.83 -0.21,-5.96 -0.05,-0.36 -0.07,-0.59 -0.14,-0.93 -0.1,-0.5 -0.22,-0.71 -0.02,-0.85 -0.13,-0.19 -0.18,0.05 -0.11,-0.15 0.34,-0.01 0.68,0.03 1.02,0.06 0.44,0.03 0.47,0.12 0.55,0.51 0.22,1.03 0.22,5.21 0.21,6.35 -0,0.74 -0.05,4.44 -0.48,4.87l-0.03 0.03c-0.2,0.18 -0.27,0.29 -0.71,0.3 -0.51,0.02 -1.6,0.3 -2.02,0.11 -0.27,-0.17 -0.2,-1.26 -0.21,-1.65 -0,-0.24 -0.03,-0.39 0.11,-0.5zm-10.85 -1.18c0.13,0.09 0.05,0.1 0.23,0.23 0.32,0.22 0.49,0.14 0.75,0.27 0.15,0.07 0.18,0.1 0.34,0.17 0.24,0.1 0.41,0.23 0.68,0.34 0.52,0.22 0.88,0.11 0.73,0.8 -0.11,0.53 0.01,1.07 -0.21,1.54l-1.17 -0.03c-0.3,-0 -0.67,-0.07 -0.95,-0.1 -0.28,-0.03 -0.19,-0.03 -0.39,-0.14 -0.17,-0.09 -0.15,-0.01 -0.26,-0.15 -0.22,-0.29 -0.35,-1.18 -0.38,-1.66 -0.21,-3.45 -0.14,-4.56 -0.09,-7.92 0.01,-0.47 0.03,-1.41 0.16,-1.85 0.11,-0.34 0.29,-0.38 0.63,-0.4 0.33,-0.02 0.75,-0.04 1.07,0 -0.22,0.53 -0.27,1.13 -0.34,1.71 -0.33,2.91 -0.25,3.36 -0.2,6.17 -0.24,0.07 -0.38,0.1 -0.53,0.29 -0.19,0.25 -0.1,0.41 -0.09,0.72zm12.8 -9.18c0,-0.33 0.16,-0.26 0.22,-0.28 0.01,-0 0.02,-0.01 0.02,-0.01l0.13 -0.09c0.01,0.32 -0.06,0.41 -0.37,0.39zm-0.11 -0.82c0.23,0 0.2,0 0.37,0.09l0 0.28c-0.27,0.02 -0.55,0.2 -0.28,0.6l-0.6 0c0,-0.18 -0.01,-0.19 -0.05,-0.32 0.18,-0.26 0.13,-0.05 0.21,-0.4 0.04,-0.16 0.17,-0.24 0.35,-0.24zm0.9 -0.42c0.57,-0.2 -0.24,0.17 0.21,-0.08 0.12,-0.07 0.32,-0.11 0.4,0.06 0.1,0.21 0.01,0.11 -0.07,0.49 -0.14,-0 -0.06,-0.01 -0.15,-0.02 -0.06,-0.01 -0.11,-0.02 -0.18,-0.03 -0.07,-0.37 -0.07,-0.15 -0.11,-0.17 -0,-0 -0.14,0.19 -0.1,-0.24zm-1.79 -1.3c0.17,0.16 0.2,0.49 0.22,0.77l-0.4 -0.03 -0.14 -0.48c0.17,-0.05 0.22,-0.08 0.31,-0.26zm-0.22 -0.04c0.14,0 0.13,0.05 0.14,0.19 -0.51,0.12 -0.29,-0.19 -0.14,-0.19zm-10.95 0.66c-0.02,-0.5 -0.06,-1.22 0.19,-1.57 0.17,0.02 0.2,0.06 0.35,0.1 0.12,0.04 0.25,0.05 0.38,0.08 0.11,0.08 0.03,0.02 0.11,0.15 0.08,0.13 0.27,0.34 0.41,0.39l-0.13 0.49c-0.07,0.2 -0.11,0.36 -0.17,0.58 -0.32,1.12 -0.14,1.35 -0.72,1.15 -0.01,-0 -0.02,-0.01 -0.03,-0.01l-0.21 -0.15c-0.35,-0.45 -0.15,-0.54 -0.18,-1.22zm9.24 -2.05c0.19,0.05 0.13,0.01 0.14,0.23 -0.15,-0.08 -0.13,-0.01 -0.14,-0.23zm-0.65 0.05c-0.12,0.01 -0.01,-0.16 -0,-0.06l0 0.06zm0.05 -0.88l0.05 0 0 0.42 -0.09 0c0.01,-0.18 0.05,-0.18 0.05,-0.42zm-5.15 0.37c-0.02,-0.09 0.06,-0.16 0.03,-0.03 0,0 0,0.19 -0.03,0.03zm-2.72 0.86c-0.13,0.09 -0.3,-0.01 -0.46,-0.06 -0.17,-0.06 -0.33,-0.08 -0.42,-0.2 -0.09,-0.13 -0.15,-0.73 -0.14,-0.88 0.01,-0.22 -0,-0.18 0.14,-0.23 0.2,-0.08 0.84,0.18 1.03,0.25 0.08,0.03 0.19,0.05 0.24,0.11 0.06,0.08 0.04,0.06 0.02,0.17 -0,0.01 -0.01,0.02 -0.01,0.03 -0.04,0.16 0.05,0.1 -0,0.5 -0.45,-0.1 0.2,-0.32 -0.86,-0.64l0.14 0.3c0.22,0.62 0.45,0.52 0.32,0.66zm10.22 -0.82c0.08,-0.26 0.38,-0.31 0.67,-0.39 0.23,-0.07 0.7,-0.26 0.78,-0.02 0.03,0.11 0.02,0.79 -0.04,0.95 -0.09,0.22 -0.56,0.18 -0.7,0.01 -0.03,-0.07 0.07,-0.22 0.08,-0.26 0.07,-0.16 0.01,-0.15 0.05,-0.21 0.08,-0.14 0.27,-0.04 0.43,-0.28 -0.32,0.09 -0.45,0.14 -0.74,0.27 -0.39,0.18 -0.11,0.31 -0.45,0.5l-0.01 -0.45 -0.12 0.41c-0.02,-0.22 -0.03,-0.4 0.04,-0.53zm-5.16 0.36c-0.11,-0.01 -0.3,0.05 -0.38,-0.31 -0.09,-0.38 0.15,-0.68 0.44,-0.74 0.71,-0.13 1.03,0.42 0.73,0.87 -0.12,0.18 -0.16,0.14 -0.4,0.11 -0.2,-0.02 -0.3,-0.01 -0.47,-0.06l-0.06 -0.47c-0.02,0.14 0.04,0.03 -0.12,0.09 -0,0.18 -0,0.03 0.03,0.08l0.23 0.42zm3.07 -2.17c0.13,-0.09 0.18,-0.05 0.35,-0.14l-0.03 0.38 -0.32 -0.06 0 -0.19zm-6.01 0.38c-0.05,-0.2 -0.03,-0.37 0.02,-0.57 0.12,0.15 0.12,0.12 0.35,0.14l0.01 0.23c-0.17,0.02 -0.27,0.12 -0.38,0.2zm-3.39 -1.27c0.01,0.01 -0.07,0.29 0.21,0.08 0.07,-0.05 0.07,-0.08 0.07,-0.26 -0.1,0.08 0.03,0.07 0.13,0.11l0.62 0.16c0.41,0.02 0.23,-0.05 0.23,-0.05 -0,0.12 -0.03,0.36 -0.09,0.42 -0.07,0.07 -0.35,0.09 -0.46,0.13 -0.02,0.01 -0.02,0.01 -0.04,0.02 -0.19,0.08 0,0.08 -0.29,0.08 -0.21,0.01 -0.08,-0.04 -0.28,0l0 -0.14c-0.41,0.24 -0.82,0.01 -0.97,-0 0.01,-0.18 0.07,-0.05 -0.09,-0.19 0.19,0.01 0.6,-0.01 0.76,-0.11 0.03,-0.02 0.04,-0.02 0.05,-0.06 0.01,-0.24 0.13,-0.01 -0.07,-0.07l-0.74 0.1 -0.06 -0.2c0.29,0.16 0.77,-0.21 0.92,-0.24 0.15,-0.03 0.11,-0.09 0.27,0.15l-0.14 0.07zm11.83 -0.09c0.31,0.15 0.78,-0.21 1.03,-0.31l0.17 0.23c-0.48,0.17 -1.14,0.57 -1.2,0.08zm2.29 -0.01c-0.33,0.04 -1.27,-0.4 -1.18,-0.67 0.13,-0.4 0.58,0.63 1.25,0.43l-0.07 0.24zm-15.21 -0.6c0.27,0.04 0.83,-0.48 1,-0.57 0.08,0.08 0.22,0.14 0.12,0.3 -0.15,0.25 -0.83,0.53 -1.1,0.57l-0.01 -0.29zm14.3 -0.76c0.21,0.09 0.16,0.16 0.37,0.31 0.21,0.15 0.2,0.12 0.12,0.4 -0.51,0.05 -0.28,-0.05 -0.53,-0.24 -0.17,-0.13 -0.08,-0.05 -0.11,-0.02 0.17,-0.21 0.07,-0.24 0.14,-0.45zm-1.4 0.56c0.13,0.08 0.61,-0.27 0.76,-0.38 0.39,-0.28 0.21,-0.19 0.48,-0.12 -0.02,0.29 -0.16,0.34 -0.54,0.53 -0.13,0.07 -0.48,0.27 -0.64,0.24l-0.04 -0.1c-0,-0.01 -0.01,-0.03 -0.01,-0.04 -0.01,-0.03 -0.02,-0.11 -0.02,-0.12zm-10.57 0.7c-0.04,0.28 -0.43,0.11 -0.75,-0.01 -0.12,-0.04 -0.28,-0.09 -0.38,-0.17 -0.11,-0.08 -0.19,-0.14 0.01,-0.29 0.2,0.05 0.46,0.39 0.8,0.4 0.08,-0.11 0.22,0 -0.16,-0.17 -0.52,-0.23 -0.6,-0.56 -0.76,-0.29 0.06,-0.02 0.17,-0.1 0.23,-0.14l0 -0.32 -0.13 -0.09c-0,-0 -0.02,-0.03 -0.01,-0.05 0.11,0.21 -0.04,-0.04 0.22,0.16 0.01,0.01 0.02,0.02 0.03,0.02l0.08 0.07c0.15,0.11 0.55,0.31 0.74,0.31 0.27,-0 0.14,-0.04 0.14,-0.05 0,0.49 -0.04,0.23 -0.06,0.63zm-1.3 -1.24c-0.06,0.12 -0.77,0.79 -0.83,0.29 -0.04,-0.29 0.15,-0.33 0.32,-0.44 0.11,-0.07 0.33,-0.22 0.4,-0.29 0.01,0.12 0.02,0.19 0.05,0.3 0.02,0.07 0.06,0.12 0.06,0.14zm12.08 -0.17c0.12,-0.11 0.31,-0.22 0.43,-0.3 0.16,-0.11 0.23,-0.23 0.4,-0.29 -0.11,0.36 0.02,0.44 0.12,0.61 -0.35,0.08 -0.47,0.44 -0.93,0.41l-0.03 -0.42zm1.5 -0.17c0.01,0.01 0.02,0.02 0.02,0.02 0.05,0.04 0,0 0.08,0.06 0.39,0.31 0.21,0.16 0.59,0.36l-0.04 0.26c-0.25,-0.06 -0.83,-0.43 -1.04,-0.59 -0.34,-0.27 -0.14,-0.61 0.12,-0.36 0.08,0.08 0.02,0.03 0.07,0.08l0.2 0.17zm-13.52 0.06c-0.02,-0.13 -0.03,-0.1 -0,-0.17 0.13,-0.04 0.04,-0.06 0.17,0.02 0.19,0.12 0.56,0.67 1.09,0.71l-0.02 0.24c-0.35,-0.05 -0.55,-0.18 -0.81,-0.34 -0.23,-0.14 -0.35,-0.17 -0.41,-0.35 0,0 -0.03,-0.11 -0.03,-0.11zm0.1 -0.4c0.18,-0.21 0.18,-0.06 0.15,-0.47 0.17,0.16 0.32,0.17 0.58,0.47 -0.03,0.41 -0.16,0.64 -0.51,0.28l-0.22 -0.28zm13.69 0.4c-0.21,-0.12 -0.44,-0.29 -0.59,-0.43 -0.19,-0.19 -0.19,-0.18 -0.13,-0.32l0.14 -0.39c0.28,0.16 0.47,0.49 0.74,0.6 -0.01,0.36 0.01,0.34 -0.16,0.54zm-14.94 -0.12c0.5,-0.26 0.94,-0.7 1.13,-0.77 0.17,0.18 0.14,-0.06 0.13,0.21 -0,0.17 -0.34,0.37 -0.48,0.47 -0.11,0.08 -0.24,0.15 -0.37,0.23l-0.3 0.15c-0.11,0.01 -0.02,0.02 -0.1,-0.02l-0.01 -0.27zm10.83 -0.69c0.47,0 0.96,-0.18 1.3,-0.19 -0.14,0.45 -0.17,0.32 -0.54,0.41l-0.67 0.2c-0,-0.27 0.03,-0.17 -0.09,-0.42zm2.65 0.47c-0.18,0.2 -0.36,0.22 -0.49,0.3l-0 -0.34c0.04,-0.04 0.07,-0.06 0.11,-0.1l0.94 -0.72c0.11,0.1 0.22,0.06 0.13,0.28 -0.05,0.12 -0.54,0.5 -0.68,0.59zm-2.71 -4.91c-0.02,2.39 0.05,4.81 0.02,7.17 -0,0.36 0.1,0.6 -0.26,0.52l0.04 -1.17c0.01,-2.05 -0.18,-4.28 -0.1,-6.31l0.04 -0.26 0.27 0.05zm0.16 4.34l0 -0.19 0.93 0 0 0.05c-0.32,0 -0.61,0.13 -0.93,0.14zm-7.42 -0.19l1.02 0 0 0.19c-0.4,0 -0.62,-0.14 -1.02,-0.14l0 -0.05zm-2.36 -0.18c0,-0.8 0.37,0.05 1.24,0.55l-0.01 0.3 -0.96 -0.63c-0.13,-0.11 -0.13,-0.13 -0.28,-0.22zm3.37 -0.72l-0.01 0.53 -0.45 0 -0.85 -0.03 -0.01 -0.6c0.23,-0.02 0.48,-0.01 0.72,-0.01 0.16,0 0.58,-0.08 0.6,0.1zm9.83 0.62c-0.11,-0.09 -0.26,-0.16 -0.25,-0.33 0.02,-0.58 0.69,0.49 1.27,0.75l-0.01 0.36c-0.18,-0.06 -0.23,-0.13 -0.35,-0.23l-0.33 -0.27c-0.12,-0.1 -0.21,-0.19 -0.33,-0.28zm-14.15 0.32c0.31,-0.25 0.53,-0.46 0.86,-0.67 -0.15,0.49 0.04,0.47 0.08,0.67 -0.3,0.17 -0.07,0.02 -0.29,0.26l-0.16 0.12c-0.11,0.07 -0.34,0.26 -0.48,0.29l-0.01 -0.68zm2.81 -0.64c-0.2,-0.06 -0.19,0.01 -0.18,-0.65l0.16 0 0.04 0.31c0.01,0.12 -0,0.24 -0.02,0.34zm-1.79 -0.2c0.13,-0.29 0.18,-0.08 0.18,-0.53 0.28,0.11 0.46,0.37 0.8,0.67l-0.04 0.6c-0.05,0.03 0.08,0.08 -0.13,-0 -0.18,-0.07 -0.04,-0.01 -0.13,-0.1 -0.22,-0.22 -0.53,-0.32 -0.68,-0.63zm11.95 1.14c-0.13,-1.01 0.07,-0.77 0.91,-1.45 0.09,0.28 -0.1,0.09 -0.12,0.4 0,0.39 0.01,0.18 0.15,0.42 -0.3,0.13 -0.72,0.6 -0.93,0.63zm-1.1 -1.34l-0.01 0.61c-0.14,0.01 -0.8,0.03 -0.9,-0.01 -0.15,-0.05 -0.1,-0.14 -0.14,-0.31 -0.08,-0.37 -0.13,-0.01 -0.12,-0.3l1.17 0.01zm-12.08 0.57c0.11,-0.1 0.21,-0.16 0.33,-0.26 0.13,-0.12 0.19,-0.16 0.33,-0.28 0.25,-0.21 0.61,-0.6 0.61,-0.21 -0,0.2 -0.76,0.73 -0.95,0.89 -0.12,0.1 -0.17,0.17 -0.3,0.21l-0.01 -0.35zm12.99 -0.49c0.1,-0.09 0.21,-0.15 0.32,-0.23 0.12,-0.09 1.03,-0.89 0.9,-0.31 -0.04,0.17 -1.09,0.86 -1.23,0.94l0.01 -0.39zm-12.82 0.21c-0,-0.15 -0.02,-0.46 -0,-0.6 0.04,-0.23 0.73,-0.74 0.88,-0.83 -0.08,0.36 0.02,0.37 0.07,0.64 -0.08,0.09 -0.36,0.34 -0.48,0.42 -0.16,0.11 -0.32,0.27 -0.47,0.36zm14.71 0.29c-0.59,-0.39 -0.43,-0.49 -0.69,-0.52 -0.03,-0.46 0.1,-0.21 0.15,-0.51 0.07,-0.46 -0.16,-0.12 -0.18,-0.51l0.21 0.22c0.77,0.76 0.75,0.53 0.5,1.32zm-13.39 -1.09c-0.56,-0.41 -0.33,-0.69 -0.11,-0.5l0.88 0.76c0.2,0.17 0.15,0.08 0.14,0.44 -0.26,-0.15 -0.75,-0.58 -0.9,-0.7zm11.63 -0.48c0.17,-0.11 0.29,-0.22 0.44,-0.35 0.12,-0.1 0.28,-0.21 0.41,-0.29 -0.01,0.48 0.09,0.41 0.13,0.72l-0.98 0.72 -0 -0.8zm-11.97 -0.24c0.15,-0.31 0.18,0.03 0.28,-0.54 0.23,0.14 0.35,0.27 0.55,0.45 0.29,0.26 0.17,0.32 0.19,0.81 -0.1,-0.08 -0.17,-0.1 -0.26,-0.18 -0.12,-0.09 -0.08,-0.1 -0.22,-0.2 -0.6,-0.4 0,-0.16 -0.53,-0.35zm13.55 0.12c0.15,0.13 0.21,0.13 0.35,0.3 0.12,0.15 0.16,0.18 0.33,0.27l-0.01 0.4 -0.66 -0.61c-0.07,-0.06 -0.11,-0.08 -0.17,-0.15 -0.07,-0.07 -0.08,-0.11 -0.15,-0.17 -0.09,-0.08 -0.28,-0.15 -0.28,-0.31 -0.01,-0.43 0.54,0.21 0.6,0.27zm-14.69 0.55c-0.04,-0.32 -0.04,-0.32 0.13,-0.46 0.39,-0.32 1.09,-1.03 1.1,-0.63 0,0.15 0.03,0.04 -0.22,0.26 -0.08,0.07 -0.08,0.08 -0.16,0.16l-0.85 0.67zm14.16 -1.18c0.05,-0.09 0.09,-0.12 0.12,-0.19l0.09 -0.2c0,-0.02 0.01,-0.03 0.02,-0.04l0.73 0.66 -0.02 0.58c-0.37,-0.25 -0.27,-0.16 -0.48,-0.4l-0.46 -0.41zm-14.02 0.56c0.01,-0.83 0.24,-0.58 0.8,-1.15l0.17 0.37c-0.24,0.13 -0.54,0.58 -0.98,0.79zm12.79 0.03c-0.01,-0.44 -0.03,-0.38 0.5,-0.8 0.21,-0.16 0.44,-0.52 0.76,-0.37l0 0.26c-0.38,0.21 -0.92,0.77 -1.27,0.91zm-11.75 -1.28c0.14,-0.14 0.3,0.08 0.39,0.16 0.63,0.52 0.83,0.53 0.81,0.99 -0.22,-0.18 -0.48,-0.34 -0.7,-0.54 -0.33,-0.29 -0.68,-0.41 -0.5,-0.61zm11.89 0.61c0.02,-0.48 -0.07,-0.56 0.13,-0.74 0.13,-0.13 0.29,-0.27 0.51,-0.31 0.2,0.51 0.06,0.5 -0.11,0.62 -0.18,0.14 -0.36,0.36 -0.53,0.43zm-2.95 -0.8c0,0.03 0,0.1 -0,0.14 -0.02,0.09 -0.01,0.05 -0.04,0.1 -0.02,-0.26 -0.08,-0.09 0.05,-0.23zm4.27 -0.15l0.66 0.55c0.11,0.12 0.18,0.15 0.3,0.24l-0 0.38 -0.65 -0.54c-0.09,-0.06 -0.59,-0.46 -0.61,-0.54 -0.04,-0.23 0.21,-0.15 0.3,-0.09zm-13.17 0.06c0.26,-0.19 0.09,0.01 0.21,-0.31 0.4,0.27 0.72,0.37 0.71,1.03l-0.58 -0.42c-0.22,-0.15 -0.23,-0.12 -0.34,-0.3zm-0.62 -0c0.44,-0.33 0.37,-0.4 0.67,-0.34 -0.03,0.3 0.04,0.1 -0.12,0.24l-1.17 0.93 0.02 -0.37 0.6 -0.46zm14.23 -0.13c0.27,0.23 0.3,0.23 0.27,0.51l-0.46 -0.37c-0.39,-0.32 -0.45,-0.18 -0.31,-0.46 0.11,0.05 0.39,0.23 0.5,0.32zm-1 -0.24c0.1,-0.15 0.17,-0.14 0.35,-0.1 -0.05,0.13 -0.06,0.1 -0.2,0.18 -0.08,0.04 -0.13,0.09 -0.15,-0.08zm-13.71 0.6c-0.04,-0.29 -0.05,-0.27 0.37,-0.57 0.12,-0.08 0.16,-0.1 0.28,-0.18 0.23,-0.15 0.21,-0.13 0.26,-0.08 0.13,0.13 0.03,0.1 -0.06,0.18 -0.01,0.01 -0.02,0.01 -0.03,0.02 -0.01,0.01 -0.02,0.01 -0.03,0.02 -0.15,0.11 -0.66,0.56 -0.79,0.61zm1.8 -0.85c0.54,0.31 0.47,0.29 0.46,0.65 -0.09,-0.15 -0.41,-0.26 -0.6,-0.37l-0.61 -0.44c0.21,-0.26 0.51,0.03 0.74,0.16zm12.79 0.1c-0.34,-0.23 -0.46,-0.21 -0.54,-0.41 0.14,-0.11 0.52,0.17 0.66,0.25 0.3,0.16 0.47,0.13 0.5,0.54l-0.61 -0.38zm-1.79 0.49c-0.06,-0.45 0.19,-0.54 0.46,-0.72 0.26,-0.17 0.52,-0.49 0.75,-0.36l-0.4 0.33 0.21 0.07c-0.18,0.08 -1,0.58 -1.01,0.67zm-12.92 -0.28c0.02,-0.28 -0.03,-0.27 0.15,-0.4 0.21,-0.15 0.85,-0.58 1.08,-0.44l-1.24 0.84zm12.93 -1.03c0.12,-0.05 0.75,-0.27 0.89,-0.26 0.23,0.03 0.05,0 0.23,0.12 -0.07,0.28 0.02,0.1 -0.31,0.28 -0.1,0.06 -0.16,0.12 -0.27,0.2l-0.43 0.31c-0.07,0.06 -0.01,-0.01 -0.05,0.06l-0.05 -0.71zm-2.71 0.65c-0.01,-0.01 -0.02,-0.03 -0.03,-0.04 -0.23,-0.35 -0.16,-0.09 -0.17,-0.37l0.01 -1.63c-0,-1.12 -0.15,-1.81 0.45,-1.49l0.03 2.92c-0.05,0.05 -0.12,0.1 -0.15,0.14l-0.13 0.47zm5.01 -0.46c-0.64,-0.32 -0.9,-0.14 -0.93,-0.37 0.14,-0.09 0.42,0 0.58,0.04 0.26,0.06 0.31,0.07 0.35,0.33zm-5.2 -3.22c-0.01,-0.45 -0.13,-0.84 0.41,-0.69 0.07,0.15 0.05,0.54 0.03,0.71 -0.01,-0.06 -0.28,-0.05 -0.44,-0.02zm-5.82 -0.39l0.53 -0 -0.03 0.41c-0.16,-0.04 -0.33,-0.02 -0.53,-0.05 -0,-0.18 -0.03,-0.19 0.04,-0.36zm7.01 0.01l-0.09 0.36c-0.41,0.01 -0.43,-0 -0.51,-0.37l0.6 0.01z"/>
    <path class="fil2" d="M14.7 30.13c0.57,0 1.18,-0.08 0.96,0.67 -0.15,0.5 -0.74,0.38 -1.33,0.38 -0.73,-0 -1.08,0.13 -0.98,-0.72 0.06,-0.49 0.89,-0.33 1.35,-0.33zm1.1 -1.62c-0.25,1.2 -0.95,0.96 -1.9,1.25 -0.13,0.04 -0.26,0.08 -0.39,0.12 -0.17,0.06 -0.2,0.12 -0.34,0.17l-0.04 -0.37c-0.13,0.11 -0.11,0.26 -0.11,0.5 0,0.38 -0.07,1.48 0.21,1.65 0.42,0.2 1.5,-0.09 2.02,-0.11 0.44,-0.02 0.51,-0.12 0.71,-0.3l0.03 -0.03c0.43,-0.43 0.48,-4.13 0.48,-4.87 0.01,-1.14 0.01,-5.31 -0.21,-6.35 -0.08,-0.39 -0.11,-0.48 -0.55,-0.51 -0.34,-0.02 -0.68,-0.06 -1.02,-0.06 -0.08,0.21 -0.02,-0.04 0.11,0.15 -0.2,0.14 -0.08,0.35 0.02,0.85 0.07,0.33 0.09,0.57 0.14,0.93 0.3,2.13 0.23,3.87 0.21,5.96 0.59,0.12 0.7,0.36 0.62,1.02z"/>
    <path class="fil3" d="M11.64 20.22c-0.01,-0.07 -0.06,-0.06 0.07,-0.04 0.35,-0.18 0.89,-0.08 1.27,-0.05 0.13,0.26 0.13,0.46 0.17,0.79l0.06 0.93c0.02,0.78 0.06,3.03 -0.29,3.66 -0.29,0.53 -1.19,0.56 -1.28,0.45 -0.1,-0.39 -0.04,-2.29 -0.05,-2.86l0.04 -2.87zm-5.75 5.58c-0.2,0.04 -0.18,0.05 -0.37,-0.01 0.08,0.13 -0.01,0.06 0.09,0.09 -0.69,-0.18 -0.65,-0.52 -0.74,-1.29 -0.09,-0.76 -0.06,-3.08 0,-3.87 0.03,-0.36 0.04,-0.6 0.45,-0.64l1.01 0.1 0.01 -0c0.1,0.11 0.04,-0.09 0.08,0.17l-0.04 1.26c-0.05,0.57 -0.01,0.89 0,1.44 0.01,0.49 0.01,2.65 -0.15,2.92 -0.21,0.05 -0.35,0.01 -0.53,-0.04 0.17,-0.06 0.09,-0.01 0.18,-0.13zm-0.77 -6.06c-0.11,-0.43 -0,-0.88 0.09,-1.29 0.12,-0.53 0.13,-0.76 0.41,-1.05 0.1,-0.11 0.03,0 0.02,-0.05 -0.03,-0.23 -0.05,0.18 -0.02,-0.07 0,-0.01 0.08,-0.19 0.11,-0.23 0.37,-0.54 3.86,-0.53 4.38,-0.48 0.9,0.09 1.84,0.04 2.23,0.58 0.27,0.37 0.59,1.68 0.62,2.19 0.03,0.63 -0.41,0.51 -0.95,0.49l-4.22 -0.04c-0.69,0.01 -2.15,0.16 -2.67,-0.05zm3.37 6.74l-0.05 -0.32c-0.35,-0.02 -1.56,0.04 -1.73,-0.17 -0.17,-0.21 -0.06,-3.31 -0.03,-3.79 0.01,-0.19 0.01,-1.54 0.07,-1.7 0.07,-0.16 -0.03,-0.04 0.07,-0.1 -0.01,-0.14 -0.08,0.06 0.01,-0.17 0.14,-0.33 3.4,-0.16 3.88,-0.14 0.34,0.02 0.26,0.05 0.46,0.07 0.13,0.47 0.09,0.78 0.09,1.34 0.01,0.49 0.11,0.99 0.09,1.48 -0.01,0.25 -0.05,0.37 -0.03,0.69 0.02,0.44 0.13,1.86 0.01,2.13 -0.12,0.32 -0.31,0.26 -0.71,0.31 -0.38,0.04 -0.65,0 -1.02,0.03 -0.05,0.22 -0.05,0.27 -0.16,0.42 -0.14,0.18 -0.21,0.12 -0.33,0.29 0.51,-0.07 0.38,-0.15 0.69,-0.4 0.24,0 1.58,-0.08 1.7,-0.15l0.04 0.78 -0.01 0.12 -0 0.17 0.1 -0.06 0.01 -0.14 -0 -0.1 0.01 -0.76c1.82,-0.14 1.71,-1.03 1.8,-2.6 0.11,-1.82 -0.11,-4.22 -0.56,-5.97 -0.17,-0.65 -0.33,-1.05 -0.94,-1.23 -0.97,-0.29 -2.94,-0.28 -4.01,-0.22 -0.58,0.03 -1.41,0.12 -1.92,0.27 -0.62,0.19 -0.74,0.65 -0.91,1.28 -0.3,1.15 -0.45,2.5 -0.51,3.79 -0.04,0.91 -0.12,3.4 0.26,4.08 0.39,0.69 2.85,0.73 3.64,0.73z"/>
    <path class="fil4" d="M3.64 31.82c-0.05,-0.04 -0.03,-0.03 -0.12,-0.06l-0.62 -0.13c-0.88,-0.2 -0.82,-0.52 -0.96,-1.58 -0.13,-1.03 -0.18,-2.09 -0.23,-3.15 -0.05,-1.06 -0.09,-2.33 -0.04,-3.39l0.12 -2.42c0.01,-0.12 0.01,-0.27 0.06,-0.37 0.07,-0.13 0.04,0.03 0.17,-0.12 0.04,0.55 -0.08,1.51 -0.1,2.11 -0.07,2.1 -0.02,4.57 0.1,6.65 0.13,0.16 0.28,0.94 0.43,1.16 0.04,-0.29 0.12,-0.36 0.4,-0.39 0.04,-0.14 0.15,-0.01 0.23,-0.19 -0.08,-0.17 -0.32,-0.23 -0.32,-0.03l-0.01 -0.46c-0.18,-0.02 -0.21,-0.05 -0.44,-0.06 -0.13,-0.33 0.1,-0.09 0.05,-0.62 -0.02,-0.19 0.02,-0.16 -0.08,-0.28 -0.02,-0.31 -0.1,-0.47 0.09,-0.72 0.15,-0.19 0.29,-0.22 0.53,-0.29 -0.06,-2.81 -0.13,-3.26 0.2,-6.17 0.07,-0.58 0.12,-1.18 0.34,-1.71 -0.32,-0.05 -0.74,-0.02 -1.07,-0 -0.34,0.02 -0.53,0.06 -0.63,0.4 -0.13,0.43 -0.16,1.38 -0.16,1.85 -0.05,3.35 -0.12,4.47 0.09,7.92 0.03,0.48 0.16,1.38 0.38,1.66 0.1,0.13 0.09,0.06 0.26,0.15 0.2,0.11 0.11,0.11 0.39,0.14 0.28,0.03 0.66,0.09 0.95,0.1z"/>
    <path class="fil5" d="M7.75 29.35c0.14,-0.11 -0.1,-0.32 0.32,-0.37l2.01 0.07 0.11 0.17c0.03,0.08 0.02,0.05 0.02,0.14 -0.25,0.21 -1.29,0.01 -1.86,0.05 -0.79,0.05 -0.47,0.16 -0.6,-0.05zm-2.33 -0.87l1.59 0.77c0.76,0.35 1.18,0.32 2.08,0.32 1.61,-0.01 1.58,-0.11 2.84,-0.72 0.15,-0.07 0.27,-0.12 0.4,-0.2 0.15,-0.09 0.25,-0.17 0.39,-0.24l0.05 0.52c-0.68,0.71 -2.78,0.68 -3.91,0.68 -1.37,0 -1.79,-0.01 -3.05,-0.37 -0.41,-0.12 -0.42,-0.2 -0.39,-0.76zm-0.25 0.22c-0.22,-0.05 -0.17,-0.3 -0.17,-0.38 0.39,0.02 0.39,0.27 0.31,0.35 -0.04,0.04 0.05,0.07 -0.14,0.03zm-0.56 -0.03c0.52,0.48 0.31,0.25 0.59,0.4 1.09,0.59 2.54,0.64 3.76,0.64 1.45,-0 3.39,-0.1 4.39,-0.97l-0.11 -1.11c-0.02,-0.07 -0.03,-0.07 -0.05,-0.11 -0.01,0.01 -0.02,0.02 -0.03,0.03 -0.01,0.01 -0.02,0.02 -0.03,0.03l-0.23 0.28c-0.13,0.09 -0.04,-0.02 -0.38,0.23 -0.65,0.48 -2.36,0.5 -3.14,0.48 -1.2,-0.03 -2.57,-0 -3.72,-0.5 -0.24,-0.1 -0.17,-0.11 -0.19,-0.38 -0.13,0.17 -0.02,0.15 -0.18,0.15 -0.15,-0.06 -0.25,-0.26 -0.47,-0.34 -0.06,0.25 -0.26,0.99 -0.21,1.18z"/>
    <path class="fil6" d="M9.51 2.55l0 -0.56c0.33,0 0.29,0.01 0.19,0.23l-0.19 0.33zm-3.2 -1.92l0.29 0c0.02,0.08 0.04,0.25 0.01,0.37 -0.03,0.12 -0.08,0.08 -0.12,0.26l-0.32 0.08c0,0.12 -0.03,0.1 0.08,0.08 0.21,0 0.2,0.05 0.35,0.1 -0.01,0.53 -0.01,1.06 -0.02,1.59l-0.03 1.16c0,0.39 0.02,0.28 -0.09,0.32l-0.06 0.25c-0,0.01 0,0.02 -0,0.04 -0.13,0.06 -0.15,-0.01 -0.16,-0.01l0 0.21c0.15,0.04 0.07,-0.01 0.17,0.07 0.17,0.13 0.11,-0.02 0.07,0.15 -0.04,0.19 -0.05,0.1 -0.12,0.09 -0.17,-0.01 -0.05,0 -0.13,-0.09l-0.01 3.25 0.04 -0.65c0.09,-0.07 0.03,-0.01 0.05,-0.18 0.04,-0.34 0.03,-0.52 0.11,-0.79l0.07 -0.41c0.09,-0.22 0.06,0.04 0.16,-0.26 0.03,-0.1 0.04,-0.21 0.04,-0.35 -0.22,0.08 -0.05,-0.02 -0.15,0.1 -0.09,0.11 0,-0.02 -0.06,0.08l-0.03 0.1c0,-0.21 -0.01,-0.23 0.05,-0.37 0.06,-0.29 -0.03,-0.03 0.07,0l0.07 0.03c0.19,0 0.1,0.01 0.18,-0.08l-0.06 0.18c0.1,-0.1 0.11,-0.19 0.19,-0.29 0.07,-0.1 0.16,-0.16 0.22,-0.23l-0.12 0.01c-0.16,-0.03 0,-0.02 -0.11,0.03 -0.11,0.05 0.09,0.01 -0.12,0.06l0 -3.48c0.52,0 0.95,0.09 1.02,-0.19 0.34,0 0.78,-0.01 1.04,0.03 0.35,0.05 0.25,-0.01 0.26,0.85 0,0.45 -0.06,0.54 -0.2,0.91l-0.21 0.75c-0.03,0.14 -0.02,-0.04 -0.01,0.09 -0.06,0.15 -0.17,0.14 -0.09,0.32 0.08,0.01 0.13,-0.05 0.19,-0.09 0,0.37 -0.02,0.04 0.09,0.18 0.1,-0.03 0.2,-0.09 0.32,0 -0.21,0.01 -0.95,0.01 -1.14,0.08 -0.12,0.05 -0.09,0.04 -0.16,0.1 0.1,0.08 -0.01,0.04 0.14,0.07 0.15,0.03 0.59,-0.05 0.74,-0.08 0.56,-0.11 1.16,0.21 1.48,0.1 -0.09,-0.13 -0.15,-0.22 -0.46,-0.22l-0.23 0.04 -0.05 -0.14 -0.01 -1.24c-0,-0.31 0.04,-0.03 0.22,-0.45 0.13,-0.29 0.23,-0.54 0.42,-0.79 0.09,-0.11 0.18,-0.25 0.29,-0.35 -0,0 -0.11,-0.03 -0.13,-0.04 -0.01,-0 -0.02,-0.01 -0.03,-0.02 -0.16,-0.09 -0.08,-0.12 -0.3,-0.13l0.09 -0.14c-0.1,-0.08 -0.02,-0.05 0.01,-0.09 -0.07,-0.05 -0.04,-0.06 -0.04,-0.09 0,-0.01 0.02,-0.03 0.03,-0.05 0.31,-0.1 0.87,0.03 1.07,-0.05 0.1,-0.09 0.03,-0.22 0,-0.51 -0.35,-0.14 -1.76,-0.03 -2.23,-0.03 -0.38,-0 -1.94,-0.14 -2.17,0.07 0.45,-0.12 3.58,-0.04 4.3,-0.03 0.15,0.05 0.08,0.09 0.08,0.45 -0.69,0.01 -1.43,0.05 -2.17,0.04 -0.7,-0.01 -1.5,-0.05 -2.19,-0.04l-0.01 -0.22c-0.29,0 -0.11,0 -0.16,-0.18 -0,-0 0,-0.26 0,-0.28 0.02,-0.01 0.04,-0.05 0.05,-0.04 0.01,0.01 0.03,-0.02 0.04,-0.02 0.01,-0 0.05,0.01 0.05,0.01 -0.09,-0.17 -0.2,-0.19 -0.46,-0.19 0,0 0.02,0.05 0.02,0.06 -0.01,0.19 0.01,0 -0.02,0.11z"/>
    <path class="fil7" d="M4.72 27.62c-0.04,0.12 -0.05,0.34 -0.11,0.53 -0.05,0.19 -0.16,0.38 -0.01,0.51 -0.05,-0.19 0.15,-0.93 0.21,-1.18 0.22,0.08 0.31,0.28 0.47,0.34 0.16,0 0.05,0.02 0.18,-0.15 0.01,0.28 -0.05,0.28 0.19,0.38 1.14,0.5 2.51,0.47 3.72,0.5 0.78,0.02 2.5,-0 3.14,-0.48 0.34,-0.25 0.25,-0.14 0.38,-0.23l0.23 -0.28c0.01,-0.01 0.02,-0.02 0.03,-0.03 0.01,-0.01 0.02,-0.02 0.03,-0.03 0.02,0.03 0.03,0.03 0.05,0.11l0.11 1.11c0.18,-0.09 0.05,-0.05 0.16,-0.12l-0.19 -1.03c-0,-0.02 -0.02,-0.13 -0.03,-0.15 -0.04,-0.13 0.01,-0.09 -0.06,-0.09 -0.34,0.06 -0.45,0.12 -0.7,0.21 -0.27,0.1 -0.42,0.19 -0.83,0.18 0.07,-0.12 -0.07,-0.1 0.15,-0.13l0.05 -0.07c0.01,-0.01 0.02,-0.02 0.03,-0.03l0.07 -0.05c-0.11,0.03 -0.19,0.05 -0.32,0.04 -0.05,0.06 -0.07,0.1 -0.12,0.15 0.38,0.01 0.03,-0.04 0.19,0.09 -0.39,0.07 -0.17,-0.04 -0.51,-0.02 -1.24,0.05 -1.86,0.22 -3.38,0.08 -0.3,-0.03 -0.63,-0.05 -0.93,-0.07 -0.29,-0.02 -0.22,0.02 -0.46,0.03 -0.11,0 -0.31,-0.03 -0.42,-0.05l-0.77 -0.22c-0.36,-0.14 -0.46,-0.35 -0.53,0.15z"/>
    <path class="fil8" d="M4.38 27.07l0.14 0.04c-0.11,0.44 -0.32,0.96 -0.44,1.33l-0.11 -0.04c0.31,0.64 1.37,0.99 2.01,1.16 1.47,0.38 2.53,0.31 4.31,0.31 -0.15,0.18 0.02,0.06 -0.18,0.13l-2 0.01 -1.9 -0.29c-0.06,-0.01 -0.1,-0.03 -0.16,-0.04l-0.86 -0.23c0.09,0.03 0.16,0.15 0.24,0.22 0.48,0.39 0.44,0.21 0.87,0.37 0.2,0.07 -0.13,-0.03 0.11,0.04 0.17,0.05 0.08,0.02 0.23,0.03 0.29,0.01 0.7,0.06 1.02,0.09l2.17 0.01c0.7,-0.04 1.74,-0.01 2.37,-0.32 0.15,-0.07 0.21,-0.14 0.32,-0.21 -0.12,-0.14 0.27,-0.24 -0.51,-0.02 -0.35,0.1 -1.32,0.29 -1.62,0.29 0.18,-0.23 0.28,-0.16 0.59,-0.19l1.07 -0.21c0.17,-0.05 0.29,-0.08 0.46,-0.14 0.48,-0.19 0.88,-0.3 1.26,-0.67 0.11,-0.1 0.17,-0.21 0.31,-0.27 -0.1,-0.1 -0.14,-0.1 -0.2,-0.28 -0.04,-0.12 -0.06,-0.23 -0.1,-0.36 -0.07,-0.21 -0.15,-0.51 -0.19,-0.74l-0.23 -0.01c-0.01,0.35 0.04,0.13 -0.14,0.25 0.07,0 0.02,-0.04 0.06,0.09 0.01,0.02 0.03,0.14 0.03,0.15l0.19 1.03c-0.1,0.07 0.02,0.03 -0.16,0.12 -1,0.87 -2.93,0.97 -4.39,0.97 -1.22,0 -2.67,-0.05 -3.76,-0.64 -0.28,-0.15 -0.07,0.08 -0.59,-0.4 -0.14,-0.13 -0.04,-0.32 0.01,-0.51 0.06,-0.2 0.07,-0.42 0.11,-0.53 -0.09,-0.1 -0.03,0.01 -0.07,-0.13 -0.07,-0.26 0.16,-0.24 -0.01,-0.51 -0,-0.01 -0.02,-0.02 -0.02,-0.03 -0.01,-0.01 -0.03,-0.05 -0.04,-0.06 -0.02,0.01 -0.04,0.01 -0.06,0.03l-0.15 0.15z"/>
    <path class="fil9" d="M16.01 31.82c0.03,-0.02 0.09,-0.06 0.11,-0.08 0.09,-0.08 0.13,-0.14 0.2,-0.22 0.22,0.08 0.43,0.23 0.64,0.34 0.01,0.21 -0.01,0.42 -0.08,0.58 -0.42,0.06 -0.89,-0.3 -0.99,-0.5l0.13 -0.13zm-2.69 1.19c0.17,0.24 0.8,0.01 1.03,-0.11 0.3,-0.15 0.64,-0.28 0.82,-0.56 0.15,0.09 0.35,0.24 0.38,0.4 -0.06,0.08 -0.03,0.05 -0.14,0.09 0.08,0.12 0.15,-0.16 0.02,0.16 -0.1,0.24 -1.82,0.82 -2.11,0.51 -0.14,-0.15 -0.04,-0.04 -0.02,-0.08l0.08 0.68c0,0.01 0.01,0.04 0.01,0.04 0,-0.01 0,0.03 0.01,0.04 0.84,0.12 1.27,-0.25 1.94,-0.48 0.02,0.2 0.06,0.18 0.23,0.23 -0.06,-0.18 0.11,-0.16 -0.37,-0.37l0 -0.46c0.01,0.01 0.25,-0.05 0.12,0.23l0.28 -0.2c0,-0 -0.01,-0.21 -0.1,-0.3 0.16,-0.01 0.03,0.1 0.13,-0.06 0,-0.01 0.05,0.07 -0.01,-0.09 0.08,-0.06 -0.12,-0.18 0.13,0l-0.02 -0.32c0.07,-0.05 -0.02,-0.04 0.09,-0.01l0.3 0.2c0.42,0.26 0.99,0.55 1.49,0.44l-0 -0.14c-0.05,-0.34 -0.03,-0.02 0.02,-0.27 0.06,-0.29 0.03,-0.33 0.03,-0.64 -0.31,-0 -1.32,-0.44 -1.4,-0.62 -0.17,0.45 -0.18,0.3 -0.38,0.39 -0.24,0.11 -0.11,0.27 0.03,0.36 0.05,0.03 0.23,0.19 0.31,0.34 -0.3,-0.04 -0.34,-0.12 -0.47,-0.3 -0.21,-0.29 -0.24,-0.22 -0.43,-0.16 -0.01,0 -0.1,0.02 -0.11,0.03 -0.57,0.11 -1.41,0.16 -1.99,0.16 -0,0.12 0.03,0.4 0.06,0.53 0,0 0.05,0.18 0.06,0.23 0,0.05 -0.01,0.08 -0.01,0.08 -0.02,0.15 -0.04,-0.02 -0,0.03z"/>
    <path class="fil10" d="M2.85 30.14c0.46,0 0.96,-0.02 1.41,0.01 0.27,0.02 0.35,0.07 0.39,0.34 0.13,0.81 -0.23,0.73 -1.42,0.69 -0.6,-0.02 -0.77,-0.02 -0.79,-0.64 -0.15,-0.22 -0.3,-1 -0.43,-1.16 0,0.42 0.02,0.85 0.08,1.25 0.08,0.54 0.12,0.74 0.44,0.84 0.35,0.11 1.92,0.35 2.23,0.22 0.09,-0.19 0.07,-0.47 0.09,-0.7 0.03,-0.31 0.02,-0.64 0.16,-0.65 0.15,-0.69 -0.21,-0.59 -0.73,-0.8 -0.26,-0.11 -0.44,-0.24 -0.68,-0.34 -0.17,-0.07 -0.19,-0.1 -0.34,-0.17 -0.26,-0.12 -0.43,-0.05 -0.75,-0.27 -0.18,-0.12 -0.1,-0.13 -0.23,-0.23 0.1,0.12 0.06,0.09 0.08,0.28 0.05,0.53 -0.18,0.29 -0.05,0.62 0.23,0.01 0.26,0.04 0.44,0.06l0.01 0.46c-0,-0.19 0.24,-0.14 0.32,0.03 -0.08,0.17 -0.19,0.05 -0.23,0.19z"/>
    <path class="fil6" d="M0.4 33.77c0.02,0.03 0.03,0.05 0.07,0.09 0.13,-0.12 -0.04,-0.06 0.23,-0.11 0,-0 0.17,0 0.19,0 0.18,-0.1 0.5,-0.16 0.73,-0.26l0.51 -0.27c0.15,-0.08 -0.05,-0.03 0.2,-0.07 0.14,0.1 0.06,0.23 0.23,0.2 0.17,-0.03 -0.02,-0.2 -0.05,-0.23l-0.17 -0.19c-0.09,-0.14 -0.06,-0.18 -0.06,-0.39 0.2,0.17 0.05,0.11 0.15,0.3 0.01,-0.16 0.13,-0.21 0.23,-0.3 -0,-0.18 -0.05,-0.03 0.04,-0.14 0.08,0.03 0.11,0.06 0.12,0.06l0.21 0.16c0.3,0.22 0.62,0.37 1,0.47 0.37,0.1 0.48,0.1 0.65,-0.18 0.29,-0.45 -0.05,-0.64 0.11,-0.79 -0.46,0 -1.46,-0.04 -1.92,-0.15 -0.13,-0.03 -0.03,-0.02 -0.12,-0.03 0.11,0.18 0.04,0.28 -0.08,0.38 -0.49,0.45 -1.48,1.03 -2.15,0.96 -0.35,-0.03 -0.13,-0.04 -0.13,-0.05 0.05,0.23 0.07,0.19 0.03,0.53z"/>
    <path class="fil11" d="M3.64 31.82l1.17 0.03c0.22,-0.46 0.1,-1 0.21,-1.54 -0.14,0.01 -0.13,0.34 -0.16,0.65 -0.02,0.23 0,0.51 -0.09,0.7 -0.31,0.14 -1.88,-0.11 -2.23,-0.22 -0.32,-0.1 -0.36,-0.3 -0.44,-0.84 -0.06,-0.4 -0.08,-0.83 -0.08,-1.25 -0.12,-2.08 -0.17,-4.54 -0.1,-6.65 0.02,-0.6 0.14,-1.56 0.1,-2.11 -0.13,0.15 -0.1,-0.02 -0.17,0.12 -0.05,0.1 -0.05,0.25 -0.06,0.37l-0.12 2.42c-0.05,1.06 -0.01,2.33 0.04,3.39 0.05,1.07 0.11,2.12 0.23,3.15 0.13,1.06 0.08,1.38 0.96,1.58l0.62 0.13c0.09,0.03 0.07,0.02 0.12,0.06z"/>
    <path class="fil12" d="M6.22 8.53l0.01 -3.25c-0.1,-0.14 -0.25,-0.13 -0.29,0.04 -0.01,0.06 0,0.45 -0,0.56 -0.01,0.36 -0.01,0.71 -0.01,1.07 0,0.7 0,1.43 -0.03,2.13l0 3.67c0.02,0.26 0.03,0.23 0.27,0.18 0.01,-0.68 -0.04,-1.45 -0.02,-2.18 0.02,-0.75 0.08,-1.46 0.07,-2.22z"/>
    <path class="fil13" d="M11.77 5.21l-0.04 0.26c-0.08,2.03 0.11,4.26 0.1,6.31l-0.04 1.17c0.36,0.08 0.25,-0.16 0.26,-0.52 0.03,-2.36 -0.03,-4.78 -0.02,-7.17l-0.27 -0.05z"/>
    <path class="fil12" d="M6.79 1.16l0.01 0.22c0.69,-0.01 1.48,0.03 2.19,0.04 0.74,0.01 1.48,-0.03 2.17,-0.04 0,-0.36 0.07,-0.39 -0.08,-0.45 -0.72,-0 -3.85,-0.09 -4.3,0.03l0.01 0.2z"/>
    <path class="fil14" d="M5.42 28.48c-0.03,0.56 -0.02,0.65 0.39,0.76 1.26,0.35 1.67,0.37 3.05,0.37 1.13,0 3.23,0.04 3.91,-0.68l-0.05 -0.52c-0.14,0.06 -0.24,0.15 -0.39,0.24 -0.13,0.08 -0.25,0.13 -0.4,0.2 -1.26,0.61 -1.23,0.71 -2.84,0.72 -0.89,0 -1.31,0.03 -2.08,-0.32l-1.59 -0.77z"/>
    <path class="fil6" d="M2.91 17.39c0.03,0.68 -0.17,0.77 0.18,1.22l0.21 0.15c0.01,0 0.02,0.01 0.03,0.01 0.58,0.2 0.4,-0.03 0.72,-1.15 0.06,-0.21 0.1,-0.38 0.17,-0.58l0.13 -0.49c-0.15,-0.05 -0.34,-0.26 -0.41,-0.39 -0.08,-0.13 0,-0.07 -0.11,-0.15 -0.08,0.56 -0.08,1.88 -0.76,1.77 -0.11,-0.14 -0.12,-0.17 -0.16,-0.39z"/>
    <path class="fil15" d="M11.45 32.27c0.2,0.08 0.12,0.05 0,0.14l0 -0.14zm0 0zm-0.47 1.02l0.47 -1.02zm-0.47 1.02l-0.01 -0.35c0.06,0.07 0.03,0.01 0.06,0.12l0.02 0.41c0.01,0 0.02,0 0.03,0 0.19,0.06 0.07,0.07 0.25,0.11 0.01,-0.05 -0.03,-0.51 -0.04,-0.63 -0.01,-0.12 -0.06,-0.22 -0.01,-0.33 0.12,-0.29 0.08,-0.11 0.17,-0 0.04,-0.11 -0.03,-0.05 0.09,-0.12l0.05 -0.04c0.03,-0.02 0.04,0.08 0.09,-0.06 0.01,-0.03 0.04,-0.02 0.05,-0.04 0,0.4 -0.02,0.31 0.16,0.52l0.07 0.08c-0.39,-0.02 -0.14,-0.04 -0.23,0.09 0.12,0.1 -0.17,0.09 0.23,0.09 0.07,-0.14 0.06,-0.25 0.06,-0.42 0.01,-0.7 0.21,-0.49 -0.11,-1.02l-0.23 0.09c0.01,0.26 0.09,0.19 0,0.47 -0.18,-0.2 -0.04,-0.04 -0.06,-0.42 -0.01,0.01 -0.1,0.13 -0.11,0.14 -0.11,0.06 -0.1,-0.03 -0.11,-0.04 -0.06,-0.1 -0.05,-0.26 -0.05,-0.42 0.13,-0.11 -0.18,-0.09 0.19,-0.09l0 -0.52 -0.14 -0.04c-0,0.39 0.07,1.1 -0.09,1.34 -0.07,-0.09 -0.05,-0.04 -0.09,-0.18 -0.01,-0.02 -0.01,-0.16 -0.01,-0.19 -0,-0.17 0.01,-0.15 -0.03,-0.31 -0.15,-0.63 -0.01,-0.4 0.13,-0.61l-0.07 -0.06c-0.11,-0.12 -0.12,-0.06 -0.12,-0.36l-0.28 0.09c0.12,0.38 0.02,0.92 0.03,1.35 0,0.36 -0.01,1.08 0.1,1.34z"/>
    <path class="fil16" d="M7 15.17l0.1 -0.01c0.05,-0.42 -0.15,-1.86 -0.19,-2.41 -0.12,-1.91 -0.3,-4.21 0.08,-6.09 0.18,-0.9 0.39,-0.58 0.2,-0.87 0.26,0.02 0.05,0.11 0.28,-0.03 0.35,-0.22 0.45,-0.26 0.9,-0.36 -0.27,-0.08 -0.99,0.13 -1.22,0.27 -0.22,0.14 -0.3,0.83 -0.35,1.14 -0.43,2.78 -0,5.6 0.2,8.36zm4.62 11.92l0 0.1c0.33,-0.02 1.39,-0.33 1.66,-0.47 0.62,-0.32 0.59,-0.7 0.81,-1.43l-0.04 -0.07 0.07 -0.01c-0.01,-0.39 0.12,-1.67 0.12,-2.42 0,-1.61 -0.27,-5.34 -1.14,-6.43 -0.36,-0.44 -0.94,-0.65 -1.73,-0.77 -1.36,-0.21 -3.29,-0.19 -4.66,0 -0.81,0.11 -1.38,0.3 -1.78,0.76 -1.14,1.34 -1.38,7.35 -0.99,8.8 0.12,0.46 0.07,1.2 0.85,1.56 1.82,0.84 4.8,0.73 6.73,0.48l0.01 -0.12c-1.4,0.24 -3.29,0.25 -4.71,0.06 -0.58,-0.08 -1.5,-0.26 -1.94,-0.52 -0.54,-0.31 -0.73,-0.88 -0.81,-1.65 -0.23,-2.14 -0.14,-7.34 1.11,-8.6 0.8,-0.81 3.19,-0.98 4.05,-0.93 1.3,0.07 3.04,0.15 3.79,1.14 0.89,1.17 1.13,5.73 1,7.58 -0.03,0.47 -0.13,0.86 0.03,1.04 -0.09,0.01 -0.08,0.01 -0.13,0.04 -0.39,1.63 -0.79,1.39 -2.3,1.82z"/>
    <path class="fil17" d="M11.53 5.01l0.13 -0.47c0.02,-0.04 0.1,-0.09 0.15,-0.14l-0.03 -2.92c-0.59,-0.32 -0.45,0.36 -0.45,1.49l-0.01 1.63c0.01,0.27 -0.05,0.02 0.17,0.37 0.01,0.01 0.02,0.03 0.03,0.04z"/>
    <path class="fil16" d="M10.89 15.16l0.05 0.01c0.16,-0.84 0.23,-1.99 0.3,-2.88 0.16,-1.98 0.24,-3.88 -0.11,-5.84 -0.11,-0.62 -0.07,-0.72 -0.65,-0.93 -0.41,-0.15 -0.82,-0.19 -1.29,-0.17 0.56,0.03 1.11,0.11 1.48,0.49 0.1,0.1 0.09,0.07 0.16,0.2 0.07,0.13 0.15,0.4 0.18,0.56 0.36,1.72 0.23,3.98 0.09,5.74 -0.03,0.45 -0.26,2.57 -0.21,2.81z"/>
    <path class="fil2" d="M2.91 17.39c0.04,0.22 0.05,0.25 0.16,0.39 0.69,0.11 0.69,-1.21 0.76,-1.77 -0.14,-0.04 -0.27,-0.05 -0.38,-0.08 -0.15,-0.05 -0.17,-0.09 -0.35,-0.1 -0.25,0.35 -0.21,1.06 -0.19,1.57z"/>
    <path class="fil18" d="M6.46 4.59c0.11,-0.04 0.09,0.07 0.09,-0.32l0.03 -1.16c0,-0.53 0.01,-1.06 0.02,-1.59 -0.15,-0.05 -0.14,-0.1 -0.35,-0.1 -0.1,0.02 -0.02,-0.02 -0.09,0.04 -0,0.58 -0.01,1.16 -0.02,1.74 -0.01,0.28 -0.01,0.56 -0.01,0.84 -0,0.82 0.34,0.25 0.34,0.55z"/>
    <path class="fil19" d="M8.78 7.95c0.65,0.42 0.67,-0.97 0.56,-1.47 -0.06,-0.27 -0.11,-0.4 -0.32,-0.46 0.03,-0.26 0.09,-0.55 -0.05,-0.64 -0.02,0.22 -0.03,0.44 0.03,0.62 -0.43,0.19 -0.42,1 -0.35,1.45 0.03,0.22 0.12,0.35 0.13,0.51z"/>
    <path class="fil20" d="M3.68 15.74c0.13,-0.13 -0.11,-0.04 -0.32,-0.66l-0.14 -0.3c1.05,0.32 0.41,0.54 0.86,0.64 0.05,-0.41 -0.04,-0.34 0,-0.5 0,-0.01 0.01,-0.02 0.01,-0.03 0.03,-0.12 0.04,-0.1 -0.02,-0.17 -0.05,-0.06 -0.16,-0.09 -0.24,-0.11 -0.2,-0.07 -0.83,-0.32 -1.03,-0.25 -0.14,0.05 -0.12,0.01 -0.14,0.23 -0.01,0.15 0.04,0.75 0.14,0.88 0.09,0.13 0.25,0.15 0.42,0.2 0.16,0.05 0.33,0.15 0.46,0.06z"/>
    <path class="fil9" d="M2.42 34.05c0.13,-0.02 0.08,0.03 0.28,-0.13l0.07 -0.06c0.02,0.24 0.22,0.27 0.69,0.39 0.18,0.05 0.57,0.12 0.76,0.09 0.22,-0.03 0.14,0.02 0.2,-0.1 -0.04,-0.11 -0.15,0.03 0.09,-0.14 0.24,-0.17 0.16,-0.06 0.16,-0.58l-0.01 0.06c-0.15,0.3 -1.55,0.02 -1.85,-0.24 -0.03,0.43 -0.25,0.37 -0.41,0.71z"/>
    <path class="fil21" d="M0.39 26.26c0.25,-0.12 0.27,-0.15 0.47,-0.31 0.53,-0.41 0.49,-0.41 0.41,-1.62 -0.92,0.63 -0.94,0.26 -0.89,1.94z"/>
    <path class="fil22" d="M7.84 32.83c0.09,0.05 0.05,0.04 0.15,0.08 0.09,0.03 0.18,0.05 0.27,0.06 -0.03,0.07 -0.03,0.05 -0.05,0.14 0.18,0.07 0.09,0 0.13,0.18 0.05,0.24 0.03,0.04 -0.04,0.1l0.19 0 0 -0.32c0.13,0.28 0.02,0.15 0.23,0.23 -0,-0.02 -0.01,-0.04 -0.02,-0.06 -0.01,-0.02 -0.01,-0.04 -0.02,-0.06 -0.01,-0.02 -0.01,-0.03 -0.02,-0.05 -0.03,-0.13 -0.06,-0.1 0.02,-0.15 0.12,-0.07 0.25,0 0.41,0.05l0 -0.93c-0.25,0.02 -0.16,0.03 -0.37,0.08 -0.18,0.04 -0.06,-0.02 -0.23,0.06 0.05,0.22 0.04,0.05 0.1,0.1l0.05 0.04c0.06,0.08 0.04,0.17 0.04,0.28l-0.09 0.28 -0.16 0.04c-0.17,0.06 -0.13,0.12 -0.3,-0.13 0.15,-0 0.16,0.02 0.28,-0.09l-0.28 -0.14 0.28 0c0,-0.25 -0.02,-0.37 0.05,-0.56 0.07,-0.02 0.15,0.06 0.37,0.09 -0.08,-0.31 0.06,-0.05 -0.15,-0.28 -0,-0 -0.14,-0.12 -0.18,-0.12 -0.15,-0.02 -0.1,0.04 -0.15,0.13l-0.14 0.14c0.04,0.15 0.08,0.06 0.04,0.18l-0.11 0.09c-0.17,-0.15 -0.09,-0.21 -0.03,-0.42l-0.2 -0.14c0,-0.2 -0.01,-0.17 0.05,-0.32 0.08,-0.03 0.14,-0.1 0.05,-0 -0.07,-0.16 -0.08,-0.11 -0.22,-0.16 -0.14,-0.05 -0.26,-0.17 -0.2,-0.25l0 0.32c0.18,0 0.19,0.02 0.28,0.09 0,0.24 0.01,0.5 0,0.74 -0,0.14 -0.04,0.29 -0.04,0.37l0.04 0.32z"/>
    <path class="fil23" d="M13.14 29.68l0.04 0.37c0.14,-0.06 0.17,-0.11 0.34,-0.17 0.12,-0.05 0.26,-0.08 0.39,-0.12 0.94,-0.29 1.65,-0.04 1.9,-1.25 -0.12,0.05 -0.18,0.15 -0.27,0.23 -0.25,0.2 -0.59,0.14 -1.03,0.34 -0.51,0.22 -1.01,0.57 -1.35,0.6z"/>
    <path class="fil13" d="M0.43 28.74c0.23,-0.08 0.22,-0.12 0.41,-0.27 0.52,-0.4 0.4,-0.26 0.38,-1.6 -0.19,0.06 -0.29,0.18 -0.44,0.28 -0.14,0.09 -0.3,0.16 -0.36,0.3 -0.07,0.19 -0,1.03 0.01,1.28z"/>
    <path class="fil24" d="M8.74 15.29l-0.23 -0.42c-0.03,-0.05 -0.03,0.1 -0.03,-0.08 0.17,-0.06 0.11,0.05 0.12,-0.09l0.06 0.47c0.17,0.04 0.27,0.04 0.47,0.06 0.24,0.02 0.28,0.07 0.4,-0.11 0.3,-0.44 -0.02,-1 -0.73,-0.87 -0.29,0.06 -0.53,0.35 -0.44,0.74 0.08,0.36 0.27,0.3 0.38,0.31z"/>
    <path class="fil9" d="M17.19 30.82c-0.46,-0.14 -0.64,-0.9 -0.54,-1.5 0.23,0.1 0.48,0.33 0.68,0.46 0.01,0.29 -0.03,0.84 -0.14,1.04zm-0.64 -1.79c0,0.6 -0.22,1.36 0.01,1.57 0.08,0.08 0.18,0.13 0.27,0.18 0.36,0.22 0.37,0.26 0.77,0.38 0.04,0.01 0.14,0.04 0.15,0.04 -0.09,-0.08 -0.05,-1.18 -0.03,-1.39 -0.2,-0.01 -0.1,-0.02 -0.17,-0.06l-0.63 -0.44c-0,-0 -0.13,-0.07 -0.14,-0.08 -0.08,-0.03 -0.44,-0.02 -0.23,-0.21z"/>
    <path class="fil25" d="M3.49 22.52c0.03,0.08 -0.12,0.86 -0.13,1.08 -0.03,0.4 -0.02,0.85 -0.02,1.25 -0,0.89 0.05,1.52 0.16,2.36 0.13,-0.31 0.21,-0.7 0.27,-1.04 0.06,-0.35 -0.1,-0.49 -0.16,-1.12 -0.09,-0.85 -0.04,-1.72 -0.11,-2.53z"/>
    <path class="fil15" d="M16.45 34.21l-0.61 -0.24c-0.13,-0.08 -0.02,-0.03 -0.15,-0.13 0.05,0.12 -0.02,0.22 -0.07,0.29 0.28,0.11 0.24,0.18 0.28,0.32 -0.19,-0.11 -0.13,-0.08 -0.23,-0.23 -0.19,0.06 -0.08,-0.02 -0.22,0.09 -0.2,0.15 -0.03,-0.02 -0.15,0.19 0.17,0.08 0.32,0.17 0.56,0.21 0.46,0.07 1.57,0.26 1.57,-0.39 -0.48,0 -0.6,0 -0.98,-0.1z"/>
    <path class="fil6" d="M16.83 26.91c0.14,0.07 0.24,0.14 0.32,0.22l0.28 0.27 0.01 1.28c-0.13,-0.08 -0.22,-0.16 -0.33,-0.25 -0.37,-0.32 -0.28,0 -0.37,-0.93 -0.01,-0.11 -0.02,-0.2 -0.01,-0.31 0,-0.01 0.02,-0.12 0.02,-0.12 0.08,-0.23 0.01,-0.07 0.08,-0.15zm-0.17 1.99l-0.02 -0.57 0.16 0.09c0.12,-0.12 -0.21,-0.1 0.16,-0.1 0.13,0.15 0.76,0.57 0.79,0.65l0 -1.62 -0.46 -0.27c-0.19,-0.17 -0,-0.13 -0.27,-0.25 -0.39,-0.17 -0.16,-0.12 -0.33,-0.3l-0.04 -0.02c-0.06,0.11 -0,0.66 -0.02,0.84 -0.02,0.2 -0.14,0.62 0.05,0.74l-0.1 0.13c-0.1,0.15 -0.13,0.33 -0.11,0.52 0,0.02 0,0.03 0.01,0.05l0.02 0.09c0.01,0 0.03,0.01 0.03,0.02 0.01,0 0.03,0.01 0.04,0.01 0.01,0 0.07,-0 0.08,-0z"/>
    <path class="fil26" d="M3.97 28.39l0.11 0.04c0.11,-0.37 0.32,-0.89 0.44,-1.33l-0.14 -0.04c-0.23,-0.12 -0.47,-0.71 -0.49,-0.81 -0.04,-0.21 -0.03,0.03 0,-0.06 -0.05,0.15 -0.01,0.21 -0.14,0.6 -0.04,0.13 -0.03,0.18 -0.06,0.3 -0.08,0.36 -0.18,0.23 0.02,0.7 0.06,0.13 -0.01,-0.07 0.05,0.13 0.08,0.26 0.04,0.22 0.2,0.47z"/>
    <path class="fil8" d="M2.41 12.23l-0.24 0.13c0.19,0.06 0.08,-0.17 0.07,0.07 -0,0.05 -0.01,0.04 -0.05,0.06 -0.15,0.1 -0.57,0.12 -0.76,0.11 0.17,0.14 0.11,0.02 0.09,0.19 0.15,0.01 0.57,0.24 0.97,0l0 0.14c0.19,-0.04 0.07,0.01 0.28,0 0.29,-0.01 0.1,-0.01 0.29,-0.08 0.02,-0.01 0.02,-0.01 0.04,-0.02 0.1,-0.04 0.39,-0.06 0.46,-0.13 0.06,-0.06 0.09,-0.31 0.09,-0.42 -0,0 0.19,0.07 -0.23,0.05l-0.62 -0.16c-0.1,-0.04 -0.23,-0.03 -0.13,-0.11 0,0.18 0,0.21 -0.07,0.26 -0.28,0.2 -0.2,-0.07 -0.21,-0.08z"/>
    <path class="fil25" d="M14.54 22.54c-0.04,0.85 -0.01,1.67 -0.1,2.52 -0.08,0.77 -0.21,0.57 -0.15,1.1 0.05,0.43 0.09,0.67 0.24,1.05 0.22,-0.68 0.19,-2.73 0.13,-3.57 -0.02,-0.29 -0.13,-0.91 -0.12,-1.09z"/>
    <path class="fil27" d="M14.47 30.61c0.07,-0.16 0.37,-0.11 0.65,-0.11 0.34,0 0.34,0.01 0.39,0.32 0.03,-0.24 0.06,-0.29 -0,-0.51 -0.25,-0.06 -1.59,-0.08 -1.84,-0.01 -0.21,0.13 -0.24,0.45 -0.14,0.69 0.18,0.12 0.69,0.08 0.97,0.05 -0.08,-0.05 -0.08,-0.05 -0.11,-0.18 -0.05,-0.25 0.09,-0.26 0.09,-0.26z"/>
    <path class="fil28" d="M17.53 26.29c-0,-0.22 -0,-0.44 -0.03,-0.65 -0.09,-0.63 -0.05,-0.83 -0.87,-1.13 0.12,1.16 -0.08,1.02 0.52,1.52l0.18 0.14c0.08,0.06 0.09,0.07 0.21,0.12z"/>
    <path class="fil24" d="M13.58 27.09c0.05,0.23 0.13,0.53 0.19,0.74 0.04,0.13 0.06,0.24 0.1,0.36 0.06,0.17 0.1,0.17 0.2,0.28 0.07,-0.11 0.2,-0.29 0.23,-0.4 0.03,-0.14 -0.05,-0.24 -0.03,-0.48 0.12,0.04 0.11,-0.04 0.11,0.12 0.17,-0.65 -0.19,-0.64 -0.19,-1.51 -0.03,0.09 -0.07,0.15 -0.09,0.21 -0.03,0.09 -0.05,0.49 -0.52,0.68z"/>
    <path class="fil29" d="M7.75 29.35c0.13,0.21 -0.19,0.1 0.6,0.05 0.56,-0.04 1.6,0.16 1.86,-0.05 -0,-0.08 0.01,-0.06 -0.02,-0.14l-0.11 -0.17 -2.01 -0.07c-0.41,0.05 -0.18,0.26 -0.32,0.37z"/>
    <path class="fil30" d="M0.85 32.67c-0.12,0.06 -0.55,0.16 -0.54,0.01 0.02,0.14 -0.01,0.26 0.08,0.36 0.27,0.31 1.41,-0.27 1.78,-0.55 0.21,-0.16 0.25,-0.18 0.42,-0.41 -0.24,-0.08 -0.12,-0.12 -0.32,-0.22 -0.32,0.22 -0.82,0.7 -1.42,0.8z"/>
    <path class="fil27" d="M2.57 30.63l0.1 -0.09c0.04,-0.03 -0.03,-0.02 0.11,-0.05l0.74 0.04c0.01,-0.01 0.03,0.01 0.04,0.02 0.15,0.18 0.08,0.34 0,0.52l0.95 -0.03c0.05,-0.15 0.08,-0.46 -0.01,-0.62 -0.09,-0.17 -0.32,-0.13 -0.56,-0.13 -0.34,-0 -1.05,-0.05 -1.31,0.04l-0.06 0.31z"/>
    <path class="fil31" d="M0.53 29.86c-0,0.27 0.03,0.8 0.12,1.03 0.21,-0.04 0.63,-0.24 0.69,-0.44 0.07,-0.25 -0.01,-0.79 -0.03,-1.07 -0.14,0.05 -0.65,0.37 -0.78,0.48z"/>
    <path class="fil6" d="M0.53 29.86c0.13,-0.11 0.64,-0.43 0.78,-0.48 0.02,0.28 0.1,0.82 0.03,1.07 -0.06,0.2 -0.47,0.4 -0.69,0.44 -0.09,-0.23 -0.13,-0.76 -0.12,-1.03zm0.04 1.35c0.11,-0.04 0.12,-0.02 0.18,-0.13 -0.21,0 0.08,0.17 -0.09,-0.06 0.17,-0.08 0.36,-0.16 0.53,-0.27 0.11,-0.07 0.31,-0.25 0.4,-0.29 -0.1,-0.27 -0.14,-1.07 -0.14,-1.44 -0.05,0.13 -0.99,0.78 -1.22,0.79l0.01 1.34c0.15,0.01 0.09,-0.05 0.26,0l0.07 0.05z"/>
    <path class="fil32" d="M13.32 33.01c0.05,0.34 0,0.44 0.4,0.42 0.2,-0.01 0.46,-0.07 0.63,-0.12 0.33,-0.1 0.79,-0.29 1.07,-0.47 0.11,-0.04 0.08,-0.01 0.14,-0.09 -0.03,-0.16 -0.23,-0.31 -0.38,-0.4 -0.18,0.28 -0.52,0.41 -0.82,0.56 -0.24,0.12 -0.87,0.35 -1.03,0.11z"/>
    <path class="fil33" d="M16.75 27.06c-0,0 -0.02,0.11 -0.02,0.12 -0.01,0.11 -0,0.2 0.01,0.31 0.09,0.93 0,0.61 0.37,0.93 0.11,0.1 0.19,0.17 0.33,0.25l-0.01 -1.28 -0.28 -0.27c-0.08,-0.08 -0.18,-0.15 -0.32,-0.22 -0.07,0.08 -0,-0.07 -0.08,0.15z"/>
    <path class="fil34" d="M14.47 30.61c0.35,-0.09 0.5,-0.12 0.91,-0.05 0.05,0.04 0.08,0 0.09,0.18 0,0.14 0.01,0.13 -0.08,0.18 -0.05,0.08 0.04,0.02 -0.1,0.09 -0.05,0.02 -0.11,0.03 -0.17,0.03 -0.58,0.06 -0.63,-0.02 -0.65,-0.43zm0 0c0,0 -0.13,0.01 -0.09,0.26 0.02,0.13 0.03,0.12 0.11,0.18 -0.28,0.03 -0.79,0.07 -0.97,-0.05 -0.09,-0.24 -0.07,-0.56 0.14,-0.69 0.26,-0.07 1.59,-0.05 1.84,0.01 0.07,0.22 0.04,0.27 0,0.51 -0.05,-0.31 -0.05,-0.32 -0.39,-0.32 -0.28,-0 -0.58,-0.06 -0.65,0.11zm0.23 -0.47c-0.45,-0 -1.29,-0.16 -1.35,0.33 -0.1,0.85 0.24,0.72 0.98,0.72 0.59,0 1.18,0.12 1.33,-0.38 0.23,-0.75 -0.39,-0.67 -0.96,-0.67z"/>
    <path class="fil9" d="M0.79 31.85c0.28,-0.08 0.6,-0.34 0.88,-0.44 0.33,0.58 -0.38,0.88 -0.81,0.78l-0.07 -0.33zm-0.48 0.82c-0.01,0.16 0.42,0.05 0.54,-0.01 0.06,-0.19 -0.08,-0.04 0.14,-0.17 0.24,-0.13 0.15,0.02 0.83,-0.46 0.25,-0.18 0.27,-0.05 0.3,-0.16 0.05,-0.18 -0.52,-0.42 -0.35,-0.63 -0.17,0.25 -1.05,0.63 -1.48,0.65l0 0.46c0.06,0.17 0.06,0.07 0.03,0.31z"/>
    <path class="fil35" d="M16.75 23.29l-0.05 -0.56c0.18,0.02 0.47,0.11 0.57,0.19 0.09,0.17 0.11,0.52 0.1,0.76l0.32 0.18c0.08,0.1 0.05,-0.03 0.02,0.06 0,-0.27 0.04,-0.49 -0,-0.7 -0.03,-0.16 -0.05,-0.17 -0.05,-0.35l0.02 -0.26c-0.21,-0.08 0,-0.12 -0.98,-0.4 -0.01,0.01 -0.04,0.04 -0.05,0.05l-0.03 0.05c-0.08,0.17 0.05,0.56 0,0.92 0.09,0.01 0.08,0.01 0.13,0.06z"/>
    <path class="fil10" d="M13.9 14.92c-0.07,0.13 -0.06,0.31 -0.04,0.53l0.12 -0.41 0.01 0.45c0.34,-0.19 0.06,-0.32 0.45,-0.5 0.29,-0.13 0.43,-0.19 0.74,-0.27 -0.17,0.24 -0.36,0.15 -0.43,0.28 -0.03,0.06 0.02,0.05 -0.05,0.21 -0.02,0.04 -0.12,0.2 -0.08,0.26 0.14,0.17 0.61,0.2 0.7,-0.01 0.07,-0.16 0.08,-0.84 0.04,-0.95l-0.75 0.2c-0.02,0.11 -0.01,-0.11 0.04,0.04 0.04,0.1 0.11,-0.09 -0.01,0.04 -0.16,0.17 -0.27,0.01 -0.59,0.34 0.06,-0.17 0.07,-0.19 0.22,-0.28 -0.31,-0 -0.2,0.15 -0.37,0.08z"/>
    <path class="fil9" d="M15.8 32.94c-0.15,0.12 0.06,0.17 0.02,0.44 0.36,-0.01 1.04,0.71 1.59,0.44 0.13,-0.06 0.1,-0.06 0.12,-0.21l0.04 -0.24c-0.44,0.08 -0.7,0.01 -1.17,-0.19 -0.3,-0.12 -0.52,-0.31 -0.6,-0.24z"/>
    <path class="fil30" d="M0.46 33.86c-0.03,-0.05 -0.05,-0.06 -0.07,-0.09 0.03,0.34 0.07,0.36 0.43,0.36 0.51,-0 1.55,-0.26 1.82,-0.56 -0.04,-0.12 0.01,-0.02 -0.08,-0.12 -0.12,-0.12 -0.11,-0.03 -0.19,-0.21 -0.51,0.21 -1.23,0.78 -1.92,0.62z"/>
    <path class="fil36" d="M2.42 32.85c0.26,0.23 0.52,0.38 0.92,0.52 1.36,0.47 1.22,0.01 1.32,-0.2 -0.4,0.54 -2.01,-0.62 -2.01,-0.62 -0.1,0.09 -0.22,0.15 -0.23,0.3z"/>
    <path class="fil8" d="M8.93 31.99l0 -0.31c0.18,0.06 0.13,0.12 0.1,0.32l0.12 0.01c-0.01,-0.08 -0.04,-0.17 -0.01,-0.25 0.06,-0.21 -0.04,-0.04 0.13,-0.18 0.05,0.13 0.04,0.1 0.05,0.28 -0.09,-0.08 0.02,-0.04 0.02,-0.1 0,-0.09 -0.03,0.01 -0.07,-0.22 0.12,-0.05 0.12,-0.02 0.23,0.09l-0.18 -0.28c0.16,-0.04 0.17,-0.11 0.22,-0.13 0.24,-0.12 0.08,0.19 0.2,-0.04 0.01,-0.02 0.03,-0 0.05,-0.01l-0.19 -0.19c0.04,-0.04 -0.07,-0.21 0.09,-0.05 -0.04,-0.03 -0.05,-0.03 -0.1,-0.08 -0.23,-0.22 -0.11,-0.16 -0.19,-0.13l0.15 0.12 -0.14 0.14c-0.01,0.01 -0.02,0.02 -0.02,0.03l-0.06 0.11c0,-0.05 0.01,-0.29 0,-0.33 -0.04,-0.24 0,-0.1 -0.1,-0.22 -0.09,0.12 -0.02,-0.1 -0.09,0.18l-0 0.47c-0,-0.01 -0,0.03 -0,0.04 -0.07,-0.09 -0.05,-0.03 -0.08,-0.18l-0.01 -0.44c-0.01,0.2 0.04,0.42 -0.05,0.57 -0.05,-0.06 -0.03,0.07 -0.07,-0.13l0.02 -0.44c-0.08,0.08 -0.12,0.32 -0.13,0.34l0 -0.37c0.15,-0.12 0.26,-0.04 0.28,-0.23l-0.51 0.05c-0.07,0.04 -0.05,-0 -0,0.08l-0.01 0.12c-0.11,0.12 -0.08,0.08 -0.08,0.19 0,0.01 0,0.02 0,0.04 0,0.01 0,0.03 0.01,0.04l0.09 0.22c0.04,-0.13 0.05,-0.26 0.18,-0.31 -0.08,0.23 -0.11,0.32 0.19,0.32 -0.1,0.17 -0.15,0.14 -0.16,0.32 0.19,0.08 0.13,0.02 0.35,0 -0.14,0.17 0.2,0.14 -0.23,0.14 -0.03,0.14 -0.06,0.09 -0.06,0.19 -0.02,0.28 0.08,0.23 0.09,0.23z"/>
    <path class="fil18" d="M14.39 7.43l0 0.8 0.98 -0.72c-0.04,-0.31 -0.14,-0.25 -0.13,-0.72 -0.13,0.08 -0.29,0.19 -0.41,0.29 -0.15,0.12 -0.27,0.23 -0.44,0.35z"/>
    <path class="fil28" d="M17.19 30.82c0.11,-0.21 0.15,-0.75 0.14,-1.04 -0.2,-0.12 -0.45,-0.36 -0.68,-0.46 -0.1,0.6 0.08,1.36 0.54,1.5z"/>
    <path class="fil37" d="M3.46 31.05c-0.27,-0.04 -0.59,0.02 -0.77,-0.11 -0.09,-0.06 -0.05,0.01 -0.1,-0.12 -0.04,-0.1 -0.02,-0.12 -0.01,-0.2l0.06 -0.31c0.26,-0.09 0.97,-0.05 1.31,-0.04 0.24,0 0.47,-0.04 0.56,0.13 0.09,0.16 0.06,0.47 0.01,0.62l-0.95 0.03c0.08,-0.17 0.15,-0.33 -0,-0.52 0.04,0.1 0.07,0.16 0.05,0.3 -0.02,0.21 -0.05,0.17 -0.15,0.21zm-1 -0.52c0.02,0.62 0.18,0.62 0.79,0.64 1.19,0.04 1.55,0.12 1.42,-0.69 -0.04,-0.27 -0.13,-0.32 -0.39,-0.34 -0.45,-0.03 -0.96,-0 -1.41,-0.01 -0.28,0.03 -0.36,0.1 -0.4,0.39z"/>
    <path class="fil30" d="M0.74 31.08c-0.06,0.1 -0.06,0.08 -0.18,0.13l-0.32 0.1 0.05 0.43c0.39,-0 1.09,-0.37 1.34,-0.59 -0.02,-0.22 -0.03,-0.34 0.02,-0.55 -0.29,0.16 -0.53,0.42 -0.9,0.48z"/>
    <path class="fil13" d="M14.44 9.76c0.21,-0.03 0.64,-0.5 0.93,-0.63 -0.14,-0.23 -0.14,-0.02 -0.15,-0.42 0.02,-0.31 0.22,-0.12 0.12,-0.4 -0.84,0.68 -1.04,0.43 -0.91,1.45z"/>
    <path class="fil38" d="M16.31 31.13c0.09,0.05 0.11,0.14 0.27,0.23 0.24,0.14 0.82,0.45 1.1,0.36l0 -0.39c-0.36,-0.1 -1.08,-0.49 -1.28,-0.65l-0.09 0.46z"/>
    <path class="fil38" d="M6.82 35.48c0.01,-0.01 0.01,-0.03 0.02,-0.04l0.07 -0.58c0.02,-0.23 0.02,-0.43 0.03,-0.65 0.03,-0.61 0.15,-1.09 -0.17,-1.22 -0.17,0.28 -0.09,0.85 -0.11,1.22 -0.01,0.22 -0.13,1.1 0.02,1.27l0.14 -0z"/>
    <path class="fil38" d="M1.43 8.71c0.16,-0.09 0.31,-0.25 0.47,-0.36 0.12,-0.08 0.39,-0.33 0.48,-0.42 -0.05,-0.28 -0.15,-0.29 -0.07,-0.64 -0.16,0.09 -0.85,0.6 -0.88,0.83 -0.02,0.14 -0,0.45 0,0.6z"/>
    <path class="fil12" d="M5.33 9.05c0.11,-0.21 0.16,-0.16 0.19,-0.47l0.26 -0.06c-0.02,-0.18 -0.44,-0.1 -0.6,-0.1 -0.23,0 -0.49,-0.01 -0.72,0.01l0.01 0.6 0.85 0.03z"/>
    <path class="fil2" d="M2.5 8.62c0.14,0.31 0.45,0.41 0.68,0.63 0.09,0.09 -0.06,0.03 0.13,0.1 0.22,0.09 0.08,0.03 0.13,0l0.04 -0.6c-0.34,-0.3 -0.53,-0.56 -0.8,-0.67 0,0.44 -0.05,0.24 -0.18,0.53z"/>
    <path class="fil39" d="M13.33 9.04l0.01 -0.61 -1.17 -0.01c-0.01,0.29 0.04,-0.07 0.12,0.3 0.04,0.18 -0.01,0.26 0.14,0.31 0.1,0.04 0.76,0.02 0.9,0.01z"/>
    <path class="fil40" d="M16.63 25.8c0.02,0.51 -0.13,0.49 0.38,0.87l0.72 0.52c0.01,-0.17 0.04,-0.45 -0.02,-0.58 -0.05,-0.09 -0.63,-0.49 -0.73,-0.56 -0.17,-0.14 -0.25,-0.13 -0.35,-0.25z"/>
    <path class="fil32" d="M1.3 28.93c0.01,-0.31 -0.02,-0.37 0.07,-0.64l-1.15 0.85 0.03 0.47c0.15,0.09 0.95,-0.59 1.05,-0.68z"/>
    <path class="fil41" d="M15.88 31.95c0.11,0.2 0.58,0.57 0.99,0.5 0.08,-0.16 0.09,-0.37 0.08,-0.58 -0.21,-0.11 -0.42,-0.27 -0.64,-0.34 -0.07,0.08 -0.11,0.14 -0.2,0.22 -0.02,0.01 -0.08,0.06 -0.11,0.08l-0.13 0.13z"/>
    <path class="fil36" d="M16.66 28.91c0.15,0.2 0.88,0.73 1.05,0.72 0.01,-0.71 0.12,-0.36 -0.91,-1.2l-0.16 -0.09 0.02 0.57z"/>
    <path class="fil42" d="M0.93 26.66c0.37,-0.3 0.34,-0.29 0.39,-0.88l-1.12 0.82 0.02 0.59 0.72 -0.53z"/>
    <path class="fil43" d="M1.47 9.46l0.01 0.68c0.14,-0.04 0.37,-0.22 0.48,-0.29l0.16 -0.12c0.22,-0.24 -0.01,-0.09 0.29,-0.26 -0.04,-0.2 -0.23,-0.19 -0.08,-0.67 -0.33,0.22 -0.55,0.42 -0.86,0.67z"/>
    <path class="fil18" d="M15.46 8.48c0.26,0.03 0.09,0.13 0.69,0.52 0.25,-0.79 0.26,-0.56 -0.5,-1.32l-0.21 -0.22c0.02,0.38 0.25,0.05 0.18,0.51 -0.05,0.3 -0.18,0.05 -0.15,0.51z"/>
    <path class="fil30" d="M10.98 33.29l0.14 2.08c0.02,0.09 0.01,0.06 0.05,0.1l0.21 -0 -0.05 -1.88c-0.18,-0.04 -0.06,-0.05 -0.25,-0.11 -0,-0 -0.02,0 -0.03,-0l-0.02 -0.41c-0.04,-0.11 -0.01,-0.05 -0.06,-0.12l0.01 0.35z"/>
    <path class="fil18" d="M13.4 34.19c0.17,0.53 2.02,0.02 2.18,-0.25 -0.17,-0.05 -0.21,-0.03 -0.23,-0.23 -0.67,0.23 -1.11,0.6 -1.94,0.48z"/>
    <path class="fil43" d="M2.42 7.19c0.53,0.19 -0.07,-0.05 0.53,0.35 0.14,0.09 0.1,0.1 0.22,0.2 0.09,0.07 0.16,0.09 0.26,0.18 -0.01,-0.49 0.11,-0.55 -0.19,-0.81 -0.21,-0.18 -0.32,-0.31 -0.55,-0.45 -0.09,0.58 -0.12,0.24 -0.28,0.54z"/>
    <path class="fil44" d="M1.09 23.34c0.2,-0.11 0.2,-0.36 0.2,-0.71 -0.96,0.04 -0.8,0.56 -0.83,1.08l0.62 -0.37z"/>
    <path class="fil6" d="M17.76 21.84l0 -0.11c-0.15,0.09 0.06,0.16 -0.13,0.06 -0.6,-0.69 -0.92,-0.45 -1,-0.69 -0.07,-0.2 -0.02,-0.09 0.06,-0.14 -0.12,-0.09 0.18,-0.09 -0.23,-0.09 0,0.51 0.16,0.2 0.1,0.62 -0.01,0.08 -0.01,0.14 -0.01,0.22 0.22,0.12 0.28,0.01 0.92,0.34 0.14,0.07 0.24,0.05 0.15,0.13l-0.04 -0.09c-0.01,-0.06 -0.01,-0.08 -0.01,-0.14 0.12,-0.11 -0.17,-0.09 0.19,-0.09z"/>
    <path class="fil18" d="M15.33 33.34c0.06,0.17 0.18,0.26 0.46,0.43 0.11,0.07 0.45,0.19 0.59,0.24 0.21,0.08 0.44,0.13 0.68,0.15 0.33,0.03 0.47,0.03 0.49,-0.31 -0.24,0.38 -1.49,-0 -1.95,-0.71l-0.28 0.2z"/>
    <path class="fil11" d="M14.21 7.26c0.34,-0.14 0.89,-0.71 1.27,-0.91l-0 -0.26c-0.32,-0.15 -0.55,0.2 -0.76,0.37 -0.54,0.42 -0.51,0.36 -0.5,0.8z"/>
    <path class="fil9" d="M0.4 21.33c-0.08,0.11 -0.05,0.16 -0.03,0.28 0.1,0.6 0.13,0.26 0.63,0.09 0.46,-0.15 0.42,0.02 0.44,0.04l0.01 0.09 -0 -0.65c-0.42,-0 -0.1,0.02 -0.23,-0.1 -0.28,0.14 -0.59,0.13 -0.72,0.41 -0.11,-0.08 -0.1,0.13 -0.08,-0.16z"/>
    <path class="fil45" d="M16.63 23.83c0.08,0.1 -0.08,-0.03 0.08,0.12l1.01 0.6 -0.01 -0.51 -1.1 -0.65 0.01 0.44z"/>
    <path class="fil46" d="M16.21 10.5c0.17,-0.2 0.15,-0.18 0.16,-0.54 -0.27,-0.11 -0.47,-0.44 -0.74,-0.6l-0.14 0.39c-0.06,0.14 -0.07,0.14 0.13,0.32 0.15,0.15 0.39,0.31 0.59,0.43z"/>
    <path class="fil47" d="M9.42 26.24c-0.23,0.49 -1.04,0.3 -0.83,-0.35 0.17,-0.52 1.11,-0.26 0.83,0.35zm-0.99 -0.08l0.05 0.32c0.12,0.08 0.38,0.52 0.62,0.4 0.12,-0.16 0.19,-0.11 0.33,-0.29 0.12,-0.15 0.12,-0.2 0.16,-0.42 -0.06,-0.87 -1.08,-0.9 -1.16,-0.01z"/>
    <path class="fil15" d="M16.82 20.29c-0.21,-0.05 -0.3,-0.07 -0.46,0.03l0.28 0.13c-0.17,0.08 -0.14,-0.07 -0.14,0.32 0.25,0 0.38,0.06 0.55,0.13l0.39 0.17c0.1,0.08 0.06,0.01 0.03,0.07 0,-0.39 0.13,-0.62 -0.24,-0.75 -0.07,-0.02 -0.28,-0.07 -0.41,-0.1z"/>
    <path class="fil13" d="M15.45 6.68l0.46 0.41c0.21,0.24 0.11,0.15 0.48,0.4l0.02 -0.58 -0.73 -0.66c-0.01,0.01 -0.01,0.02 -0.02,0.04l-0.09 0.2c-0.03,0.07 -0.07,0.1 -0.12,0.19z"/>
    <path class="fil48" d="M14.23 4.36l0.05 0.71c0.04,-0.06 -0.02,0 0.05,-0.06l0.43 -0.31c0.11,-0.08 0.17,-0.14 0.27,-0.2 0.33,-0.18 0.24,-0 0.31,-0.28 -0.18,-0.11 0,-0.09 -0.23,-0.12 -0.13,-0.01 -0.76,0.21 -0.89,0.26z"/>
    <path class="fil15" d="M10.99 35.42c-0.11,-0.08 -0.19,-0.16 -0.29,-0.27 -0.12,-0.12 -0.13,-0.16 -0.23,-0.28 -0.36,-0.42 -0.43,-0.25 -0.54,-0.43 -0.02,0.2 -0.05,0.26 -0.19,0.32 0.14,0.08 0.04,0.05 0.14,0.13 0.2,0.17 0.91,0.73 0.98,0.89 0,-0.23 0.07,-0.24 0.14,-0.37z"/>
    <path class="fil49" d="M3.33 11.96c0.01,0.01 0.03,0.01 0.03,0.02l0.11 0.05c0.06,0.01 0.12,0.01 0.18,0.01 0.02,-0.4 0.06,-0.14 0.06,-0.63 -0,0.01 0.13,0.04 -0.14,0.05 -0.19,0 -0.59,-0.21 -0.74,-0.31l-0.08 -0.07c-0.01,-0.01 -0.02,-0.02 -0.03,-0.02 -0.26,-0.2 -0.11,0.05 -0.22,-0.16 -0.01,0.01 0,0.04 0.01,0.05l0.13 0.09 0 0.32c-0.06,0.04 -0.17,0.12 -0.23,0.14 0.16,-0.27 0.24,0.07 0.76,0.29 0.38,0.17 0.24,0.06 0.16,0.17z"/>
    <path class="fil50" d="M14.25 8.5l-0.01 0.39c0.14,-0.08 1.19,-0.77 1.23,-0.94 0.13,-0.58 -0.78,0.22 -0.9,0.31 -0.12,0.09 -0.22,0.15 -0.32,0.23z"/>
    <path class="fil51" d="M14.43 10.62l0.03 0.42c0.46,0.03 0.58,-0.32 0.93,-0.41 -0.1,-0.17 -0.23,-0.25 -0.12,-0.61 -0.17,0.06 -0.25,0.18 -0.4,0.29 -0.12,0.08 -0.31,0.19 -0.43,0.3z"/>
    <path class="fil52" d="M15.76 32.69c0.03,0 2.22,1.16 1.86,0.17l0 0.14c-0.51,0.11 -1.08,-0.19 -1.49,-0.44l-0.3 -0.2c-0.11,-0.03 -0.02,-0.05 -0.09,0.01l0.02 0.32z"/>
    <path class="fil45" d="M1.27 10.39l0.01 0.27c0.08,0.04 -0.02,0.03 0.1,0.02l0.3 -0.15c0.13,-0.08 0.26,-0.15 0.37,-0.23 0.14,-0.1 0.48,-0.3 0.48,-0.47 0,-0.27 0.04,-0.03 -0.13,-0.21 -0.18,0.07 -0.63,0.5 -1.13,0.77z"/>
    <path class="fil53" d="M1.26 9l0.01 0.35c0.13,-0.04 0.18,-0.11 0.3,-0.21 0.19,-0.15 0.95,-0.68 0.95,-0.89 0,-0.39 -0.36,0 -0.61,0.21 -0.13,0.11 -0.2,0.16 -0.33,0.28 -0.12,0.1 -0.22,0.16 -0.33,0.26z"/>
    <path class="fil9" d="M9.37 32.46c0.02,-0.01 0.03,-0.02 0.05,-0.04 0.34,-0.32 0.12,-0.32 0.55,0.14l0.1 0.12c-0.48,-0.09 -0.15,-0.04 -0.28,0.09 0.21,0 0.23,0.03 0.42,-0.05l-0.05 -0.97c-0.34,0 -0.21,0.06 -0.32,-0.14 0.12,0.1 -0.13,0.05 -0.23,0.31 -0.09,0.23 0,0.06 -0.11,0.22 -0.14,0.2 -0.09,0.06 -0.13,0.3z"/>
    <path class="fil54" d="M16.63 9.92l0.01 -0.36c-0.58,-0.26 -1.25,-1.33 -1.27,-0.75 -0.01,0.17 0.14,0.24 0.25,0.33 0.12,0.09 0.21,0.18 0.33,0.28l0.33 0.27c0.12,0.1 0.17,0.18 0.35,0.23z"/>
    <path class="fil55" d="M2.42 34.05c0.16,0.31 0.69,0.38 1.06,0.43 0.47,0.06 0.94,0.11 1.11,-0.26l-0.16 0.02c-0.06,0.12 0.02,0.07 -0.2,0.1 -0.19,0.02 -0.58,-0.05 -0.76,-0.09 -0.47,-0.12 -0.66,-0.15 -0.69,-0.39l-0.07 0.06c-0.2,0.16 -0.14,0.11 -0.28,0.13z"/>
    <path class="fil42" d="M3.66 8.61c0.02,-0.36 0.06,-0.27 -0.14,-0.44l-0.88 -0.76c-0.21,-0.19 -0.45,0.09 0.11,0.5 0.16,0.11 0.64,0.55 0.9,0.7z"/>
    <path class="fil48" d="M0.79 31.85l0.07 0.33c0.43,0.1 1.13,-0.2 0.81,-0.78 -0.28,0.1 -0.6,0.36 -0.88,0.44z"/>
    <path class="fil53" d="M16.63 8.29l0.01 -0.4c-0.17,-0.1 -0.2,-0.12 -0.33,-0.27 -0.14,-0.17 -0.2,-0.17 -0.35,-0.3 -0.06,-0.06 -0.61,-0.7 -0.6,-0.27 0,0.16 0.2,0.23 0.28,0.31 0.07,0.06 0.08,0.11 0.15,0.17 0.06,0.07 0.1,0.09 0.17,0.15l0.66 0.61z"/>
    <path class="fil11" d="M0.21 24.5c0.19,-0.08 0.2,-0.13 0.39,-0.25 0.76,-0.46 0.48,-0.57 0.75,-0.92 -0.18,0.05 -0.56,0.32 -0.72,0.43 -0.37,0.26 -0.41,0.12 -0.42,0.73z"/>
    <path class="fil52" d="M1.42 7.23c0.44,-0.21 0.74,-0.66 0.98,-0.79l-0.17 -0.37c-0.57,0.58 -0.79,0.32 -0.8,1.15z"/>
    <path class="fil11" d="M16.63 6.81l0 -0.38c-0.11,-0.1 -0.19,-0.13 -0.3,-0.24l-0.66 -0.55c-0.1,-0.06 -0.35,-0.14 -0.3,0.09 0.01,0.08 0.52,0.48 0.61,0.54l0.65 0.54z"/>
    <path class="fil56" d="M1.28 7.85l0.85 -0.67c0.09,-0.07 0.09,-0.09 0.16,-0.16 0.25,-0.22 0.22,-0.1 0.22,-0.26 -0.01,-0.4 -0.7,0.3 -1.1,0.63 -0.17,0.14 -0.17,0.14 -0.13,0.46z"/>
    <path class="fil32" d="M2.42 9.23c0.14,0.09 0.14,0.11 0.28,0.22l0.96 0.63 0.01 -0.3c-0.88,-0.5 -1.24,-1.35 -1.24,-0.55z"/>
    <path class="fil36" d="M16.58 11.16l0.04 -0.26c-0.38,-0.2 -0.2,-0.05 -0.59,-0.36 -0.07,-0.06 -0.02,-0.02 -0.08,-0.06 -0.01,-0.01 -0.02,-0.01 -0.02,-0.02l-0.2 -0.17c-0.05,-0.05 0.02,0 -0.07,-0.08 -0.26,-0.25 -0.46,0.08 -0.12,0.36 0.21,0.17 0.79,0.54 1.04,0.59z"/>
    <path class="fil55" d="M14.35 6.6c0.18,-0.08 0.35,-0.29 0.53,-0.43 0.16,-0.13 0.3,-0.11 0.11,-0.62 -0.22,0.04 -0.38,0.18 -0.51,0.31 -0.19,0.18 -0.11,0.26 -0.13,0.74z"/>
    <path class="fil53" d="M3.67 7.13c0.01,-0.46 -0.18,-0.47 -0.81,-0.99 -0.09,-0.07 -0.26,-0.3 -0.39,-0.16 -0.18,0.19 0.16,0.32 0.5,0.61 0.22,0.19 0.49,0.35 0.7,0.54z"/>
    <path class="fil57" d="M8.81 25.94c0.09,-0.1 -0,-0.04 0.14,-0.08 0.4,-0.24 0.47,0.6 -0.02,0.49 -0.11,-0.03 -0.2,-0.1 -0.19,-0.24 0.02,-0.31 -0.01,-0.05 0.07,-0.16zm0.62 0.3c0.28,-0.61 -0.66,-0.87 -0.83,-0.35 -0.21,0.65 0.6,0.84 0.83,0.35z"/>
    <path class="fil58" d="M14.34 18l-0.37 0c0.09,0.08 0.04,0.08 0.3,0.08 -0.09,-0.03 0.13,-0.06 -0.14,-0.03 -0.17,0.02 -0.05,0.01 -0.14,0.08 0.13,0.1 0.12,-0.03 0.18,0.45 0.02,0.14 0.03,0.27 0.05,0.4 0.46,0.01 0.1,-0.17 0.3,-0.46 0.15,-0.22 0.3,-0.02 0.16,-0.57l0.19 -0.01 -0.23 0c-0.01,0.18 0.05,0.03 -0.05,0.14 -0.18,-0.03 -0.11,0.03 -0.19,-0.12 0.03,0.12 0.02,0.04 -0.05,0.13 -0.07,-0.04 -0.15,0.15 -0.03,-0.09z"/>
    <path class="fil11" d="M1.3 6.16l-0.02 0.37 1.17 -0.93c0.16,-0.14 0.09,0.06 0.12,-0.24 -0.31,-0.06 -0.23,0.01 -0.67,0.34l-0.6 0.46z"/>
    <path class="fil59" d="M16.75 23.29c0.17,0.09 0.15,0.14 0.3,0.23 0.13,0.08 0.2,0.05 0.33,0.16 0.01,-0.24 -0.01,-0.59 -0.1,-0.76 -0.1,-0.08 -0.39,-0.18 -0.57,-0.19l0.05 0.56z"/>
    <path class="fil60" d="M2.35 10.79c0,-0.02 -0.04,-0.07 -0.06,-0.14 -0.03,-0.11 -0.03,-0.18 -0.05,-0.3 -0.07,0.07 -0.29,0.22 -0.4,0.29 -0.18,0.11 -0.36,0.15 -0.32,0.44 0.06,0.5 0.77,-0.17 0.83,-0.29z"/>
    <path class="fil61" d="M14.47 30.61c0.02,0.41 0.07,0.49 0.65,0.43 0.06,-0.01 0.12,-0.01 0.17,-0.03 0.15,-0.06 0.05,-0 0.1,-0.09 -0.07,-0.06 -0.02,-0.05 -0.14,-0.04l0 -0.19c0.28,-0.04 0.02,0.02 0.12,-0.14 -0.41,-0.07 -0.55,-0.04 -0.91,0.05z"/>
    <path class="fil15" d="M12.1 9.69c0.12,0.24 0.09,0.15 0.09,0.42l0.67 -0.2c0.37,-0.09 0.4,0.04 0.54,-0.41 -0.34,0 -0.83,0.19 -1.3,0.19z"/>
    <path class="fil52" d="M14.22 11.33c0,0.02 0.01,0.09 0.02,0.12 0,0.01 0.01,0.03 0.01,0.04l0.04 0.1c0.16,0.03 0.5,-0.17 0.64,-0.24 0.38,-0.2 0.52,-0.25 0.54,-0.53 -0.28,-0.06 -0.09,-0.16 -0.48,0.12 -0.15,0.11 -0.63,0.47 -0.76,0.38z"/>
    <path class="fil59" d="M2.51 5.7c0.11,0.18 0.12,0.15 0.34,0.3l0.58 0.42c0.01,-0.67 -0.31,-0.76 -0.71,-1.03 -0.12,0.33 0.05,0.13 -0.21,0.31z"/>
    <path class="fil17" d="M2.41 10.33c-0.02,0.07 -0.02,0.04 0,0.17 0,0 0.03,0.11 0.03,0.11 0.06,0.17 0.19,0.2 0.41,0.35 0.26,0.16 0.46,0.3 0.81,0.34l0.02 -0.24c-0.54,-0.04 -0.9,-0.59 -1.09,-0.71 -0.13,-0.08 -0.04,-0.06 -0.17,-0.02z"/>
    <path class="fil38" d="M1.33 11.53l0.01 0.29c0.28,-0.04 0.96,-0.32 1.1,-0.57 0.1,-0.16 -0.04,-0.21 -0.12,-0.3 -0.17,0.09 -0.73,0.61 -1,0.57z"/>
    <path class="fil45" d="M14.23 5.67c0.01,-0.1 0.83,-0.59 1.01,-0.67l-0.21 -0.07 0.4 -0.33c-0.23,-0.14 -0.49,0.19 -0.75,0.36 -0.27,0.18 -0.52,0.27 -0.46,0.72z"/>
    <path class="fil54" d="M14.36 10.02c0.06,0.11 -0.11,0.1 0.14,0.08 0.09,-0.11 0.15,-0.13 0.25,0.07 0.14,-0.09 0.64,-0.47 0.68,-0.59 0.09,-0.22 -0.03,-0.18 -0.13,-0.28l-0.94 0.72z"/>
    <path class="fil60" d="M2.52 10.1l0.22 0.28c0.35,0.36 0.48,0.13 0.51,-0.28 -0.26,-0.3 -0.42,-0.31 -0.58,-0.47 0.03,0.41 0.04,0.26 -0.15,0.47z"/>
    <path class="fil50" d="M2.48 4.91l0.61 0.44c0.19,0.11 0.5,0.22 0.6,0.37 0.01,-0.37 0.08,-0.34 -0.46,-0.65 -0.23,-0.14 -0.53,-0.42 -0.74,-0.16z"/>
    <path class="fil62" d="M15.4 28.32c-0.13,0.2 -0.38,0.05 -0.38,0.05 -0.05,-0.14 -0.03,-0.2 -0.01,-0.39 0.16,-0.04 0.19,-0.06 0.38,-0.05 0.03,0.12 0.09,0.26 0.01,0.39zm-0.59 0.01c0.13,0.41 0.9,0.3 0.77,-0.27 -0.1,-0.48 -0.96,-0.31 -0.77,0.27z"/>
    <path class="fil63" d="M13.9 14.92c0.17,0.08 0.06,-0.08 0.37,-0.08 -0.15,0.09 -0.16,0.11 -0.22,0.28 0.32,-0.33 0.43,-0.17 0.59,-0.34 0.12,-0.13 0.04,0.07 0.01,-0.04 -0.06,-0.15 -0.07,0.07 -0.04,-0.04l0.75 -0.2c-0.08,-0.24 -0.56,-0.05 -0.78,0.02 -0.29,0.08 -0.6,0.13 -0.67,0.39z"/>
    <path class="fil36" d="M16.7 22.21c0.98,0.28 0.77,0.33 0.98,0.4 -0.04,-0.37 -0.06,-0.36 -0.41,-0.52 -0.22,-0.1 -0.45,-0.18 -0.69,-0.19l-0.01 0.27 0.13 0.04z"/>
    <path class="fil64" d="M5.52 25.78c0.19,0.06 0.17,0.06 0.37,0.01 0.07,-0.26 0.21,-0.04 0.14,-0.59 -0.37,-0.22 -0.48,-0.21 -0.51,0.58z"/>
    <path class="fil52" d="M16.54 12.13l0.07 -0.24c-0.67,0.2 -1.12,-0.84 -1.25,-0.43 -0.09,0.27 0.85,0.71 1.18,0.67z"/>
    <path class="fil55" d="M11.34 1.33c0.15,-0.03 0.43,-0.04 0.44,0.02 0.02,-0.17 0.04,-0.56 -0.03,-0.71 -0.53,-0.15 -0.41,0.24 -0.41,0.69z"/>
    <path class="fil62" d="M2.57 27.97c-0.04,0.04 -0.11,0.07 -0.09,0.25 0.03,0.25 0.31,0.44 0.6,0.31 0.34,-0.15 0.28,-0.62 -0.11,-0.78 -0.09,0.18 0.13,0.02 -0.2,0.17 0.25,0.04 0.15,-0.02 0.31,0.13l-0.09 0.31c-0.2,0.06 -0.17,0.04 -0.29,0.01 -0.06,-0.15 -0.03,-0.21 -0.06,-0.28 -0.04,-0.08 -0.07,-0.02 -0.07,-0.12z"/>
    <path class="fil57" d="M2.69 30.94c0.18,0.12 0.5,0.07 0.77,0.11 -0.05,-0.28 -0.08,-0.25 0.03,-0.47l-0.75 -0.01c0.01,0.01 0.03,0.06 0.03,0.07l0.04 0.25 -0.13 0.06z"/>
    <path class="fil45" d="M1.3 22.13l-0.19 -0.06 0.04 -0.25c-0.21,0.07 -0.45,0.16 -0.63,0.26 -0.22,0.13 -0.25,0.22 -0.21,0.53 0.3,-0.46 0.74,-0.25 0.99,-0.48z"/>
    <path class="fil53" d="M1.31 5.39l1.24 -0.84c-0.24,-0.14 -0.87,0.3 -1.08,0.44 -0.19,0.13 -0.14,0.12 -0.15,0.4z"/>
    <path class="fil65" d="M15.87 18.08c-0.04,0.44 0.1,0.24 0.1,0.24 0.04,0.03 0.05,-0.2 0.11,0.17 0.07,0.01 0.12,0.02 0.18,0.03 0.09,0.01 0.01,0.02 0.15,0.02 0.07,-0.38 0.17,-0.28 0.07,-0.49 -0.08,-0.16 -0.28,-0.12 -0.4,-0.06 -0.45,0.25 0.36,-0.12 -0.21,0.08z"/>
    <path class="fil17" d="M6.17 1.34l0.32 -0.08c0.04,-0.17 0.08,-0.14 0.12,-0.26 0.03,-0.12 0.02,-0.3 -0.01,-0.37l-0.29 -0 -0.13 0.06 -0.01 0.65z"/>
    <path class="fil24" d="M15.49 11.22c0.03,-0.02 -0.06,-0.1 0.11,0.02 0.25,0.19 0.02,0.29 0.53,0.24 0.07,-0.27 0.08,-0.25 -0.12,-0.4 -0.21,-0.15 -0.16,-0.22 -0.37,-0.31 -0.07,0.21 0.03,0.24 -0.14,0.45z"/>
    <path class="fil38" d="M3.65 12.03c-0.06,0 -0.11,0.01 -0.18,-0.01l-0.11 -0.05c-0.01,-0.02 -0.02,-0.01 -0.03,-0.02 -0.34,-0.01 -0.59,-0.34 -0.8,-0.4 -0.2,0.15 -0.12,0.21 -0.01,0.29 0.1,0.08 0.26,0.13 0.38,0.17 0.32,0.12 0.71,0.29 0.75,0.01z"/>
    <path class="fil38" d="M14.24 12.15c0.06,0.49 0.72,0.09 1.2,-0.08l-0.17 -0.23c-0.25,0.1 -0.72,0.46 -1.03,0.31z"/>
    <path class="fil51" d="M14.08 16.78c-0.09,0.18 -0.14,0.21 -0.31,0.26l0.14 0.48 0.4 0.03c-0.02,-0.27 -0.05,-0.6 -0.22,-0.77z"/>
    <path class="fil30" d="M17.63 21.79c-0.16,-0.45 0.07,-0.38 -0.33,-0.61 -0.22,-0.12 -0.36,-0.16 -0.61,-0.23 -0.08,0.05 -0.13,-0.06 -0.06,0.14 0.08,0.24 0.41,0.01 1,0.69z"/>
    <path class="fil33" d="M1.42 5.93c0.14,-0.05 0.65,-0.5 0.79,-0.61 0.01,-0.01 0.02,-0.01 0.03,-0.02 0.01,-0.01 0.02,-0.01 0.03,-0.02 0.09,-0.08 0.2,-0.05 0.06,-0.18 -0.05,-0.05 -0.03,-0.07 -0.26,0.08 -0.12,0.08 -0.17,0.1 -0.28,0.18 -0.42,0.3 -0.41,0.28 -0.37,0.57z"/>
    <path class="fil11" d="M15.47 4.77c0.08,0.2 0.21,0.18 0.54,0.41l0.61 0.38c-0.02,-0.41 -0.2,-0.38 -0.5,-0.54 -0.14,-0.08 -0.52,-0.35 -0.66,-0.25z"/>
    <path class="fil52" d="M2.17 12.36l0.24 -0.13 0.14 -0.07c-0.16,-0.24 -0.12,-0.18 -0.27,-0.15 -0.15,0.03 -0.62,0.4 -0.92,0.24l0.06 0.2 0.74 -0.1z"/>
    <path class="fil30" d="M0.4 21.33c-0.02,0.29 -0.03,0.09 0.08,0.16 0.13,-0.27 0.44,-0.27 0.72,-0.41 0.14,-0.04 0.15,0.05 0.15,-0.13 0,-0.17 0,-0.08 -0.13,-0.08 -0.08,-0 -0.69,0.12 -0.82,0.45z"/>
    <path class="fil44" d="M16.4 6.09c0.04,-0.29 0.01,-0.28 -0.27,-0.51 -0.11,-0.09 -0.39,-0.27 -0.5,-0.32 -0.14,0.28 -0.08,0.14 0.31,0.46l0.46 0.37z"/>
    <path class="fil15" d="M3.25 19.47l0.12 0.06 0.07 -0.39c-0.04,0.21 -0.07,0.11 0,0.32l0.27 -0 0.06 -0.47 -0.41 0.01 -0.06 -0.14c0,0.11 0,0.22 0,0.33l-0.05 0.27z"/>
    <path class="fil66" d="M2.57 30.63c-0.01,0.08 -0.02,0.1 0.01,0.2 0.05,0.13 0.01,0.06 0.1,0.12l0.13 -0.06 -0.04 -0.25c-0,-0.01 -0.03,-0.06 -0.03,-0.07l0.75 0.01c-0.12,0.23 -0.08,0.19 -0.03,0.47 0.1,-0.04 0.13,0.01 0.15,-0.21 0.01,-0.14 -0.01,-0.2 -0.05,-0.3 -0.01,-0.01 -0.03,-0.03 -0.04,-0.02l-0.74 -0.04c-0.15,0.03 -0.07,0.02 -0.11,0.05l-0.1 0.09z"/>
    <path class="fil39" d="M5.48 1.29c0.2,0.02 0.38,0.01 0.53,0.05l0.03 -0.41 -0.53 0c-0.06,0.17 -0.04,0.18 -0.04,0.36z"/>
    <path class="fil67" d="M8.81 25.94c-0.08,0.12 -0.04,-0.15 -0.07,0.16 -0.01,0.14 0.09,0.21 0.19,0.24 0.49,0.12 0.41,-0.73 0.02,-0.49 0.06,0.17 0.06,0.1 -0.07,0.22l-0.08 -0.13z"/>
    <path class="fil43" d="M12.44 1.3l0.09 -0.36 -0.6 -0.01c0.08,0.36 0.1,0.38 0.51,0.37z"/>
    <path class="fil67" d="M2.92 28c0.13,0.23 -0.06,0.33 -0.18,0.19 -0.08,-0.1 -0.03,-0.28 0.18,-0.19zm-0.35 -0.02c0,0.1 0.03,0.04 0.07,0.12 0.03,0.06 0,0.13 0.06,0.28 0.13,0.04 0.09,0.06 0.29,-0.01l0.09 -0.31c-0.16,-0.15 -0.07,-0.09 -0.31,-0.13 0.33,-0.15 0.1,0.01 0.2,-0.17 -0.12,0.01 -0.18,-0.01 -0.29,0.06 -0.15,0.08 -0.09,0.04 -0.1,0.16z"/>
    <path class="fil38" d="M15.6 4.17c0.04,0.23 0.3,0.05 0.93,0.37 -0.04,-0.26 -0.09,-0.27 -0.35,-0.33 -0.17,-0.04 -0.45,-0.13 -0.58,-0.04z"/>
    <path class="fil28" d="M5.33 9.05l0.45 -0 0.01 -0.53 -0.26 0.06c-0.03,0.32 -0.08,0.26 -0.19,0.47z"/>
    <path class="fil68" d="M12.42 25.28c-0.04,-0.12 -0.15,-0.17 -0.29,-0.09 -0.18,0.1 -0.15,0.43 0.19,0.44 0.07,-0.08 0.15,-0.18 0.1,-0.35z"/>
    <polygon class="fil69" points="13.98,18 14.34,18 14.32,17.6 13.93,17.63 "/>
    <path class="fil70" d="M7.05 31.06c-0.15,0.05 -0.03,-0.08 -0.14,0.1l-0.09 0.46 0.31 0c0.03,-0.25 0.05,-0.41 -0.09,-0.57z"/>
    <path class="fil68" d="M5.8 13.51c0.1,-0.08 0.2,-0.18 0.38,-0.2l-0.01 -0.23c-0.22,-0.02 -0.23,0.01 -0.35,-0.14 -0.05,0.2 -0.07,0.37 -0.02,0.57z"/>
    <path class="fil67" d="M15.31 28c0.04,0.17 0,0.37 -0.22,0.21 -0.04,-0.19 0.01,-0.21 0.22,-0.21zm-0.3 -0.02c-0.01,0.19 -0.04,0.26 0.01,0.39 0,0 0.25,0.15 0.38,-0.05 0.08,-0.13 0.02,-0.27 -0.01,-0.39 -0.19,-0.01 -0.22,0.01 -0.38,0.05z"/>
    <path class="fil17" d="M14.36 10.02c-0.04,0.04 -0.07,0.07 -0.11,0.1l0 0.34c0.14,-0.07 0.31,-0.1 0.49,-0.3 -0.11,-0.2 -0.16,-0.17 -0.25,-0.07 -0.25,0.02 -0.07,0.03 -0.14,-0.08z"/>
    <path class="fil33" d="M4.29 8.82c0.02,-0.1 0.03,-0.21 0.02,-0.34l-0.04 -0.31 -0.16 -0c-0.01,0.66 -0.02,0.59 0.18,0.65z"/>
    <polygon class="fil10" points="5.98,32.18 6.24,32.2 6.21,31.79 5.91,31.77 "/>
    <path class="fil14" d="M5 28.32c-0,0.08 -0.05,0.33 0.17,0.38 0.18,0.04 0.09,0.01 0.14,-0.03 0.08,-0.08 0.09,-0.33 -0.31,-0.35z"/>
    <path class="fil17" d="M6.58 35.84c0.01,0 0.03,0.01 0.03,0.01l0.22 0.07 0.03 -0.42 -0.29 0.02 0 0.32z"/>
    <polygon class="fil44" points="1.14,21.82 1.11,22.07 1.3,22.13 1.41,22.1 1.44,21.84 1.44,21.74 "/>
    <path class="fil51" d="M11.81 13.12l-0 0.19 0.32 0.06 0.03 -0.38c-0.17,0.09 -0.22,0.05 -0.35,0.14z"/>
    <polygon class="fil55" points="11.15,35.88 11.42,35.84 11.4,35.52 11.12,35.51 "/>
    <path class="fil71" d="M6.24 5.07l-0 -0.21c-0.16,-0.11 -0.14,-0.12 -0.25,-0.25l-0.05 0.49 0.3 -0.03z"/>
    <path class="fil60" d="M15.09 19.32c0.31,0.02 0.38,-0.06 0.37,-0.39l-0.13 0.09c-0.01,0 -0.02,0.01 -0.02,0.01 -0.05,0.02 -0.21,-0.05 -0.22,0.28z"/>
    <path class="fil55" d="M8.89 33.46c0,0.09 -0.02,0.22 -0.01,0.29 0.02,0.22 0.08,0.13 0.18,0.13l0.02 -0.44 -0.19 0.02z"/>
    <polygon class="fil4" points="11.79,31.42 12.05,31.41 12.02,31.11 11.77,31.11 "/>
    <path class="fil72" d="M8 31.13c0.2,0.09 0.37,0.12 0.43,-0.08l-0.31 -0.01c-0.05,-0.24 -0.02,-0.14 -0.13,-0.2l0 0.3z"/>
    <path class="fil73" d="M12.01 30.16c-0.26,-0 -0.2,-0.01 -0.31,0.07 0.09,0.12 -0.03,0.06 0.12,0.11 0,0 0.17,-0 0.19,-0 0.11,0.15 -0,0.07 0.14,0.15l0 -0.17c-0.05,0.1 -0,0.03 -0.08,0.1 -0.03,-0.11 0,-0.13 -0.07,-0.26z"/>
    <path class="fil74" d="M9.04 30.63l-0.1 -0 -0.02 0.44c0.04,0.21 0.02,0.08 0.07,0.13 0.09,-0.14 0.04,-0.37 0.05,-0.57z"/>
    <polygon class="fil75" points="5.57,30.49 5.82,30.49 5.82,30.25 5.57,30.25 "/>
    <path class="fil76" d="M2.92 28c-0.22,-0.09 -0.27,0.1 -0.18,0.19 0.13,0.14 0.31,0.04 0.18,-0.19z"/>
    <path class="fil76" d="M15.09 28.21c0.22,0.16 0.25,-0.04 0.22,-0.21 -0.21,-0 -0.26,0.02 -0.22,0.21z"/>
    <path class="fil77" d="M15.13 5.33c0.03,0.16 0.08,0.12 0.15,0.08 0.15,-0.08 0.15,-0.05 0.2,-0.18 -0.18,-0.04 -0.25,-0.05 -0.35,0.1z"/>
    <path class="fil66" d="M15.39 30.92c0.08,-0.05 0.08,-0.04 0.08,-0.18 -0.01,-0.18 -0.05,-0.15 -0.09,-0.18 -0.1,0.16 0.16,0.1 -0.12,0.14l0 0.19c0.12,-0.01 0.06,-0.02 0.14,0.04z"/>
    <path class="fil78" d="M5.66 27.45c0.12,0.1 0.14,0.08 0.31,0.11 0.36,0.06 0.26,-0 0.28,-0.02 -0.11,-0.06 -0.19,-0.06 -0.33,-0.09 -0.23,-0.05 -0.17,-0.06 -0.26,-0z"/>
    <path class="fil78" d="M11.99 27.44l-0.07 0.05c-0.01,0.01 -0.02,0.02 -0.03,0.03l-0.05 0.07c0.2,-0.06 0.35,-0.04 0.54,-0.14 -0.07,-0.06 0.1,-0.08 -0.2,-0.03 -0.13,0.02 -0.07,0.03 -0.19,0.02z"/>
    <path class="fil78" d="M4.89 27.15c0.13,0.18 0.41,0.28 0.54,0.21 -0.16,-0.14 -0.38,-0.12 -0.54,-0.21z"/>
    <path class="fil79" d="M12.51 30.25c-0.23,0 -0.13,-0.04 -0.21,0.08 0.1,0.11 -0.23,0.05 0.24,0.14l-0.03 -0.22z"/>
    <path class="fil80" d="M6.35 30.5c0.01,-0.17 0.02,-0.17 -0.05,-0.29 -0.05,0.02 -0.19,-0.05 -0.09,0.19 0.04,0.09 0.09,0.08 0.14,0.1z"/>
    <path class="fil69" d="M8.93 31.99l0.22 0.02 -0.12 -0.01c0.03,-0.2 0.08,-0.26 -0.1,-0.32l0 0.31z"/>
    <path class="fil55" d="M12.02 31.58c-0.1,-0.15 -0.2,-0.12 -0.23,0.05 0.14,0.09 0.16,0.1 0.23,-0.05z"/>
    <path class="fil81" d="M8.81 25.94l0.08 0.13c0.13,-0.12 0.12,-0.05 0.07,-0.22 -0.15,0.04 -0.05,-0.01 -0.14,0.08z"/>
    <path class="fil73" d="M6.54 30.26c-0.14,0.06 -0.02,-0.08 -0.08,0.06 -0.07,0.16 0.03,0.09 0.03,0.1 0.01,-0.01 0.06,-0.04 0.06,-0.05 0.11,-0.18 0.01,-0.08 -0.01,-0.12z"/>
    <path class="fil69" d="M9.03 35.23c0.08,-0.17 -0,-0.04 -0.04,-0.1 -0.11,0.06 -0.1,0.02 -0.05,0.15 0.11,-0.03 0.04,0.05 0.08,-0.05z"/>
   </g>
  </g>
 </g>
</svg>
