<?xml version="1.0" encoding="UTF-8"?>
<!DOCTYPE svg PUBLIC "-//W3C//DTD SVG 1.1//EN" "http://www.w3.org/Graphics/SVG/1.1/DTD/svg11.dtd">
<!-- Creator: CorelDRAW -->
<svg xmlns="http://www.w3.org/2000/svg" xml:space="preserve" width="2.2862mm" height="5.5001mm" version="1.1" style="shape-rendering:geometricPrecision; text-rendering:geometricPrecision; image-rendering:optimizeQuality; fill-rule:evenodd; clip-rule:evenodd"
viewBox="0 0 4.2 10.11"
 xmlns:xlink="http://www.w3.org/1999/xlink"
 xmlns:xodm="http://www.corel.com/coreldraw/odm/2003">
 <defs>
  <style type="text/css">
   <![CDATA[
    .fil2 {fill:black}
    .fil3 {fill:#131414}
    .fil4 {fill:#131414}
    .fil5 {fill:#363636}
    .fil6 {fill:#AF0909}
    .fil7 {fill:#B5B5B6}
    .fil0 {fill:#CC0000}
    .fil8 {fill:#D8D8D8}
    .fil9 {fill:#FAFAFB}
    .fil11 {fill:white}
    .fil12 {fill:#373435;fill-rule:nonzero}
    .fil10 {fill:#131414;fill-rule:nonzero}
    .fil1 {fill:url(#id0)}
   ]]>
  </style>
  <linearGradient id="id0" gradientUnits="userSpaceOnUse" x1="0.71" y1="1.85" x2="3.47" y2="1.85">
   <stop offset="0" style="stop-opacity:1; stop-color:#1C1C1C"/>
   <stop offset="0.490196" style="stop-opacity:1; stop-color:dimgray"/>
   <stop offset="0.729412" style="stop-opacity:1; stop-color:#B6B6B6"/>
   <stop offset="1" style="stop-opacity:1; stop-color:#1C1C1C"/>
  </linearGradient>
 </defs>
 <g id="Camada_x0020_1">
  <metadata id="CorelCorpID_0Corel-Layer"/>
  <path class="fil0" d="M2.93 0.09c0.51,0.13 0.75,0.45 0.79,0.98l0.04 0.84 0.09 0.03c0.03,-0.11 0.31,-0.01 0.35,0.18l0 0.1c-0.01,0.04 -0.02,0.07 -0.05,0.11 -0.05,-0 -0.14,-0.05 -0.2,-0.07 -0.13,-0.05 -0.14,-0.07 -0.14,-0.15l-0.05 0c0,0.11 0,0.23 0,0.34 0,0.13 0.01,0.21 0.01,0.33 -0,0.1 -0.01,0.25 0,0.34 0.01,0.05 0.01,0.09 0.01,0.16 0,0.07 0.03,0.07 0.03,0.14 0,0.19 0.02,0.29 -0.02,0.45 -0.02,0.09 0.01,0.59 0.01,0.69 -0,0.27 0,0.55 0,0.82 0,0.28 -0.01,0.52 -0.01,0.81l-0 1.45c0,0.08 0.01,0.11 0.01,0.2l0 0.65c0,0.08 -0.01,0.1 -0.01,0.19 0,0.26 -0.04,0.93 -0.12,1.16 -0.02,0.06 -0.05,0.09 -0.1,0.11 -0.17,0.08 -0.16,0.03 -0.24,0.04 -0.01,0 -0.06,0.01 -0.07,0.02 -0.18,0.03 -0.66,0.08 -0.83,0.08l-0.27 0c-0.06,0.01 -0.02,0.01 -0.07,0.02 -0.1,0.03 -0.82,-0.04 -1,-0.08 -0.05,-0.01 -0.11,-0.02 -0.15,-0.03 -0.12,-0.02 -0.16,0.03 -0.31,-0.07 -0.05,-0.03 -0.08,-0.06 -0.09,-0.13 -0.09,-0.39 -0.12,-0.83 -0.12,-1.24l0 -2.03c0,-0.04 -0,-0.09 0,-0.13 0.02,-0.19 0.02,-0.04 0,-0.23 -0.02,-0.18 -0,-1.39 -0,-1.67 0,-0.13 0,-0.25 0.01,-0.37 0.02,-0.25 -0.02,-0.3 -0.02,-0.34l0 -0.4c0,-0.06 0.01,-0.02 0.02,-0.07 0.01,-0.03 0.01,-0.05 0.01,-0.08l0.02 -0.8c-0,-0.11 -0,-0.22 -0,-0.33l-0.05 0c-0.01,0.12 -0.09,0.12 -0.25,0.18 -0.02,0.01 -0.04,0.02 -0.06,0.02l-0.03 -0c-0,-0.01 -0.04,0.02 -0.06,-0.06 -0.02,-0.07 -0.01,-0.2 0.03,-0.25 0.05,-0.07 0.29,-0.2 0.33,-0.08 0.04,-0.01 0.07,-0.02 0.1,-0.04 0,-0.42 -0.01,-0.85 0.12,-1.22 0.02,-0.06 0.04,-0.1 0.07,-0.16 0.18,-0.38 0.77,-0.51 1.32,-0.52l0.24 0c0.29,0.01 0.55,0.04 0.71,0.09z"/>
  <g id="_1769281242480">
   <path class="fil1" d="M0.82 2.39c0,-0 0.01,-0.01 0.01,-0 0,0 0.01,-0 0.01,-0 0.03,-0.01 0.01,-0.01 0.03,-0.02l-0.02 -0.01c-0.05,-0.04 -0.01,0.01 0.01,-0.02l0.03 0.03c0.04,-0.01 0,0 0.02,-0.02 -0.05,-0.02 -0.06,-0.02 0.01,-0.04 0.06,-0.02 0.07,-0.01 0.1,0.02 0.04,-0.01 0.01,-0 0.02,-0.02l-0.04 -0.02c0.15,-0.01 0.15,-0.05 0.3,-0.05 -0.09,0.03 -0.2,0.03 -0.23,0.07 0.06,-0.01 0.11,-0.03 0.16,-0.04 0.04,-0.01 0.13,-0.01 0.16,-0.04l0.27 -0.04 -0.03 -0.03c-0.1,-0.08 -0.43,-0.04 -0.56,-0.02 -0.05,0.01 -0.14,0.02 -0.18,-0 0.13,-0.02 0.54,-0.07 0.67,-0.06 0.24,0.02 0.43,0.1 0.56,0.09 0.01,-0 0.04,-0 0.05,-0.01 0.04,-0.02 -0,0.01 0.03,-0.02 -0.03,-0.02 0,-0.01 -0.06,-0.02 -0.02,-0 -0.05,-0 -0.07,-0 0.02,0.02 0.14,0.01 0.18,0 0.07,-0.01 0.06,-0.04 0.16,-0.02 0.12,0.02 0.23,0.03 0.34,0.05 0.17,0.02 0.53,0.16 0.65,0.14 0.03,-0.08 0.07,-0.44 0.07,-0.55 0.01,-0.13 -0.04,-0.13 -0.13,-0.17 -0.07,-0.03 -0.14,-0.06 -0.22,-0.08 -0.33,-0.1 -0.87,-0.19 -1.26,-0.16 -0.02,0 -0.07,0.01 -0.07,0.01 -0.37,0.03 -0.46,0.05 -0.82,0.19 -0.31,0.12 -0.27,0.11 -0.25,0.33 0.01,0.07 0.03,0.42 0.08,0.45 0.02,0.02 -0.02,0 0.02,0.01 0.11,0.01 -0.08,0.03 0.03,-0.01l-0.03 0.04c-0.03,0.06 0.01,-0.04 -0.01,0.02 -0.01,0.03 0.02,0 -0.01,0.04z"/>
   <path class="fil2" d="M3.48 9.9c0.01,-0.06 0,-0.04 0.06,-0.06 0.04,-0.01 0.06,-0.03 0.09,-0.04 -0.02,0.07 -0.07,0.09 -0.15,0.1zm-1.5 -9.9l0.24 0c0.29,0.01 0.55,0.04 0.71,0.09 0.51,0.13 0.75,0.45 0.79,0.98l0.04 0.84 0.09 0.03c0.03,-0.11 0.31,-0.01 0.35,0.18l0 0.1c-0.01,0.04 -0.02,0.07 -0.05,0.11 -0.05,-0 -0.14,-0.05 -0.2,-0.07 -0.13,-0.05 -0.14,-0.07 -0.14,-0.15l-0.05 0c0,0.11 0,0.23 0,0.34 0,0.13 0.01,0.21 0.01,0.33 -0,0.1 -0.01,0.25 0,0.34 0.01,0.05 0.01,0.09 0.01,0.16 0,0.07 0.03,0.07 0.03,0.14 0,0.19 0.02,0.29 -0.02,0.45 -0.02,0.09 0.01,0.59 0.01,0.69 -0,0.27 0,0.55 0,0.82 0,0.28 -0.01,0.52 -0.01,0.81l-0 1.45c0,0.08 0.01,0.11 0.01,0.2l0 0.65c0,0.08 -0.01,0.1 -0.01,0.19 0,0.26 -0.04,0.93 -0.12,1.16 -0.02,0.06 -0.05,0.09 -0.1,0.11 -0.17,0.08 -0.16,0.03 -0.24,0.04 -0.01,0 -0.06,0.01 -0.07,0.02 -0.18,0.03 -0.66,0.08 -0.83,0.08l-0.27 0c-0.06,0.01 -0.02,0.01 -0.07,0.02 -0.1,0.03 -0.82,-0.04 -1,-0.08 -0.05,-0.01 -0.11,-0.02 -0.15,-0.03 -0.12,-0.02 -0.16,0.03 -0.31,-0.07 -0.05,-0.03 -0.08,-0.06 -0.09,-0.13 -0.09,-0.39 -0.12,-0.83 -0.12,-1.24l0 -2.03c0,-0.04 -0,-0.09 0,-0.13 0.02,-0.19 0.02,-0.04 0,-0.23 -0.02,-0.18 -0,-1.39 -0,-1.67 0,-0.13 0,-0.25 0.01,-0.37 0.02,-0.25 -0.02,-0.3 -0.02,-0.34l0 -0.4c0,-0.06 0.01,-0.02 0.02,-0.07 0.01,-0.03 0.01,-0.05 0.01,-0.08l0.02 -0.8c-0,-0.11 -0,-0.22 -0,-0.33l-0.05 0c-0.01,0.12 -0.09,0.12 -0.25,0.18 -0.02,0.01 -0.04,0.02 -0.06,0.02l-0.03 -0c-0,-0.01 -0.04,0.02 -0.06,-0.06 -0.02,-0.07 -0.01,-0.2 0.03,-0.25 0.05,-0.07 0.29,-0.2 0.33,-0.08 0.04,-0.01 0.07,-0.02 0.1,-0.04 0,-0.42 -0.01,-0.85 0.12,-1.22 0.02,-0.06 0.04,-0.1 0.07,-0.16 0.18,-0.38 0.77,-0.51 1.32,-0.52zm-1.41 9.79c0.03,0.01 0.05,0.03 0.08,0.04 0.07,0.02 0.07,-0 0.08,0.06 -0.03,0.01 -0.06,-0 -0.1,-0.01 -0.06,-0.02 -0.04,-0.02 -0.06,-0.09zm3.54 -7.63c0.01,0.02 0.01,0.02 0.02,0.03 0.01,-0.03 0.02,-0.02 -0,-0.05 -0,-0 -0.01,-0.01 -0.01,-0.01 -0.04,-0.04 -0.05,-0.03 -0.1,-0.05l-0.14 -0.05 0.01 -0.11c0.07,-0.02 0.15,0.03 0.2,0.06 0.08,0.05 0.07,0.06 0.08,0.18 -0,0.03 -0.01,0.01 -0.01,0.02 -0.01,0.02 0.01,0.03 -0.02,0.08 -0.06,0 -0.1,-0.03 -0.16,-0.05 -0.08,-0.03 -0.12,-0.03 -0.13,-0.12 0.08,-0.04 0.09,-0.03 0.17,0 0.02,0.01 0.06,0.02 0.08,0.05l0.01 0.01zm-3.75 0.01c-0.05,0.02 -0.13,0.05 -0.19,0.07 -0.17,0.07 -0.18,-0.08 0.08,-0.16 0.09,-0.03 0.12,-0.03 0.11,0.09zm-0.28 -0.06c0,-0.15 0.19,-0.26 0.25,-0.14 -0.03,0.06 -0.01,0.01 -0.08,0.05 -0.02,0.01 -0.01,0.02 -0.02,0.03l-0.16 0.07zm3.2 -1.74l-0.01 -0.01c-0.07,-0.02 -0.25,-0.16 -0.33,-0.18l0.05 0.04c0.03,-0.01 0.02,-0.02 0.02,0.01l0.02 0.01c0.03,0 0.02,-0.01 0.03,0.02l-0 -0c0.03,0 0.02,-0 0.03,0.02l-0 -0.01c0.03,0 0.02,-0 0.03,0.02 0.02,0.01 0.02,0 0.04,0.02l0.02 0.02 0.04 0.02 0.02 0.02c0.05,0.02 0.09,0.05 0.12,0.08 0.06,0.03 0.09,0.06 0.12,0.11 0,0 0.01,0.01 0.01,0.02l0.04 0.05c0.03,0.03 0.03,0.05 0.05,0.08 0.06,0.04 0.1,0.16 0.09,0.26 0.03,0.03 0.02,0.04 0.01,0.08 0.02,0.03 0.02,0.07 0.01,0.11 0.02,0.04 0.02,0.11 0.01,0.16 0.02,0.03 0.03,0.54 0.02,0.57 -0.01,0.03 0,0.01 -0.01,0.03 -0.04,-0.03 -0.03,-0.05 -0.02,-0.16 -0.03,0 -0.02,-0 -0.05,0.01 0.02,0.19 -0.09,0.55 -0.07,0.75l-0 0.02c-0.02,0.07 -0.03,0.21 -0.01,0.28 0.03,0.11 0.01,0.9 0.01,1.08 -0.02,-0.06 -0,-0 0.01,-0.03 0.02,-0.03 0.02,-0.02 0.02,-0.06 -0.01,-0.04 -0.01,-0.01 -0.01,-0.01 -0.02,-0.28 -0.02,-0.59 -0.01,-0.88 0,-0.32 0.02,-0.45 0.09,-0.73 0.01,-0.05 -0.01,-0.02 0.02,-0.05 0.08,-0.01 0.05,0.04 0.05,0.13 0,0.38 0.03,0.79 0.01,1.16 -0.01,0.16 -0.01,0.33 0.01,0.47 0.02,0.13 -0,0.33 0,0.48 0.01,0.45 0.02,1.01 0,1.44 -0.01,0.31 0,0.61 0,0.92 0,0.56 0.02,1.39 0,1.92 -0,0.12 -0,0.46 -0.04,0.55 -0.02,0.04 -0.02,0.05 -0.02,0.1 -0.01,0.07 -0.02,0.15 -0.02,0.22 0,0.06 0.02,0.09 -0.01,0.15l-0 0.03c-0,0.04 0,0.02 -0.01,0.04 0.01,0.03 0.02,0.03 -0.01,0.02 0.01,0.02 0.01,0.02 -0.01,0.01 -0.03,0.04 -0.08,0.06 -0.13,0.06l0 -0.11 0.04 -0.04 -0 -0.04 -0.01 0.01c-0.02,0.08 -0.05,0.02 -0.05,0.13 -0.01,0.15 -0.03,0.14 -0.36,0.19 -0.21,0.03 -0.43,0.06 -0.65,0.06 -0.04,0.04 -0.14,0.02 -0.19,0.03 -0.03,0 -0.07,0.01 -0.1,0.01l-1.21 -0.11c-0,-0 -0.01,-0 -0.01,-0l-0.03 -0.02c-0.26,-0.03 -0.13,-0.1 -0.22,-0.23 -0.04,-0.06 -0.01,-0.05 -0.01,-0.13l-0.03 0.1 -0.04 -0.02c0.05,0.04 0.05,0.03 0.09,0.06l0.02 0.12c-0.06,-0.01 -0.1,-0.03 -0.13,-0.07 -0.02,0 -0.02,0.01 -0.01,-0.01l-0.01 -0.02 -0.01 -0.02 -0.02 -0.07c-0,-0.01 -0.01,-0.01 -0.01,-0.03 -0,-0.07 -0,-0.03 0.02,-0.05 -0.01,-0.13 -0.03,-0.3 -0.07,-0.41 -0.06,-0.18 -0.02,-3.03 -0.02,-3.31l0.02 -2.36c-0.01,-0.53 -0,-0.84 0.02,-1.39 0.06,0 0.04,-0 0.04,0.05 0.03,0.34 -0.11,1.39 0.1,1.7l0.02 -0.32c0,-0 0,-0.01 0.01,-0.01 0,-0.3 0.01,-0.63 -0.01,-0.94l-0.08 -0.82c-0,-0 -0.01,-0.02 -0.01,-0.02 -0.01,-0.02 -0.01,-0.02 -0.02,-0.03l-0.01 0.02c-0.03,0.09 0.01,-0.07 -0.01,0.02 -0.01,0.07 0.02,0.08 -0.02,0.12 -0.02,-0.04 -0.02,-1.02 0.13,-1.17 0.01,-0.03 0.01,-0.02 0.03,-0.05 0.02,-0.03 0,-0.01 0.02,-0.03l0.06 -0.06 -0 -0c-0.02,-0.04 -0,-0.02 -0.03,0.01l-0.08 0.11c0.08,-0.32 0.48,-0.56 0.74,-0.58l-0.03 0.06 0 0.01c0.01,-0.01 0.01,-0.02 0.02,-0.03 0.02,-0.02 0.01,-0.01 0.03,-0.02 -0,-0.02 -0,-0.01 0.02,-0.02 0.05,-0.06 0.6,-0.08 0.72,-0.08 0.13,0 0.27,0.01 0.39,0.02 0.12,0.01 0.25,0.01 0.33,0.07l0.05 0.03c-0.02,-0.02 -0.02,-0.02 -0.04,-0.04 0.21,0.02 0.51,0.18 0.65,0.37 0.14,0.19 0.07,0.15 0.1,0.21 -0.03,-0.02 -0.02,-0 -0.05,-0.05 -0.15,-0.2 -0.25,-0.23 -0.27,-0.27zm0.24 9.24l-0.01 0.01 0.01 -0.01z"/>
   <path class="fil3" d="M0.64 1.53l-0.01 0.04c-0.01,0.11 0.05,0.72 0.09,0.8 0,0 0.01,0 0.01,0.01 0,0.01 0.01,0.01 0.01,0.01l0.01 0.02c0.03,-0.03 0,-0.01 0.04,-0.02l0.04 -0.01c0.03,-0.03 0.01,-0.01 0.01,-0.04 0.02,-0.05 -0.03,0.04 0.01,-0.02l0.03 -0.04c-0.11,0.04 0.07,0.01 -0.03,0.01 -0.04,-0 0,0.01 -0.02,-0.01 -0.05,-0.03 -0.07,-0.38 -0.08,-0.45 -0.02,-0.21 -0.07,-0.21 0.25,-0.33 0.36,-0.13 0.45,-0.15 0.82,-0.19 0,-0 0.05,-0.01 0.07,-0.01 0.39,-0.03 0.92,0.06 1.26,0.16 0.08,0.02 0.15,0.05 0.22,0.08 0.09,0.04 0.14,0.04 0.13,0.17 -0,0.11 -0.04,0.48 -0.07,0.55 -0.12,0.02 -0.48,-0.12 -0.65,-0.14 -0.11,-0.02 -0.23,-0.03 -0.34,-0.05 -0.1,-0.01 -0.09,0.01 -0.16,0.02 -0.04,0.01 -0.16,0.02 -0.18,-0 0.02,0 0.05,0 0.07,0 0.06,0.01 0.02,-0 0.06,0.02 -0.03,0.04 0.01,0.01 -0.03,0.02 -0.01,0 -0.04,0.01 -0.05,0.01 -0.13,0.01 -0.32,-0.07 -0.56,-0.09 -0.13,-0.01 -0.54,0.04 -0.67,0.06 0.04,0.03 0.13,0.01 0.18,0 0.13,-0.01 0.47,-0.05 0.56,0.02l0.03 0.03 -0.27 0.04c0.08,0 0.17,-0.02 0.26,-0.03 0.3,-0.03 0.52,-0.03 0.82,-0.01 0.44,0.03 0.57,0.08 0.96,0.19l0.04 0.01 0.03 -0.04c0.02,-0.25 0.1,-0.55 0.1,-0.8l-0.01 -0.03c-0.39,-0.6 -2.11,-0.55 -2.69,-0.23 -0.15,0.08 -0.19,0.17 -0.24,0.23zm0.23 0.83l0.02 0.01 -0.03 -0.03c-0.01,0.02 -0.06,-0.02 -0.01,0.02l0.02 0.01zm0.04 -0.01l0.11 -0.02c-0.03,-0.03 -0.04,-0.04 -0.1,-0.02 -0.07,0.02 -0.05,0.02 -0.01,0.04zm0.13 -0.04l0.02 0c0.03,-0.04 0.14,-0.05 0.23,-0.07 -0.15,0.01 -0.15,0.04 -0.3,0.05l0.04 0.02z"/>
   <path class="fil2" d="M3.57 3.85c-0.02,0.02 -0.03,-0.03 -0.01,0.03 0,-0.18 0.02,-0.97 -0.01,-1.08 -0.02,0.03 -0.02,4.69 -0.03,5.51 -0,0.31 -0.04,0.3 0.05,0.54l0.06 0.13c0,0 0,0.01 0.01,0.01 0.04,-0.09 0.04,-1.06 0.04,-1.15 0,-0.18 0.03,-1.08 -0.01,-1.17l-0.13 0.01 -0 -0.16c0.08,-0.01 0.09,-0.01 0.14,-0.05 0.02,-0.21 0,-1 0.01,-1.29l0 -0.96c0,-0.12 0.01,-0.15 -0.08,-0.17 -0.07,-0.02 -0.06,0.03 -0.06,-0.11 0,-0.06 -0.01,-0.05 0.01,-0.09z"/>
   <path class="fil2" d="M0.63 3.86l0 0.19c-0,0 -0.01,-0 -0.01,0l-0.05 0.01c-0.07,0.02 -0.07,0.05 -0.07,0.17 0,0.11 -0,0.21 -0,0.32 -0,0.2 -0.01,1.86 0.01,1.9 0.02,0.03 0.01,0.03 0.05,0.04l0.06 0.02c0,0 0.01,0 0.01,0 0,0 0.01,0 0.01,0.01l0 0.15c-0.17,-0.03 -0.13,-0.04 -0.13,0.47 0,0.21 0,0.42 0,0.63 0,0.06 0.01,1.1 0.03,1.17 0.01,0.04 0.01,0.02 0.02,0.04l0.1 -0.25c0.02,-0.08 0.01,-0.25 0.01,-0.34 -0.02,-1.62 0,-3.25 -0.01,-4.87 -0,0 -0,0.01 -0.01,0.01l-0.02 0.32z"/>
   <path class="fil4" d="M3.41 2.4c0.02,0.02 0.01,-0 0.02,0.04 0,0.02 -0,0.03 -0,0.04 -0.01,0.03 -0.01,0.05 -0.02,0.08 -0.07,0.4 -0.06,1.02 -0.06,1.43l0 3.41c0,0.56 0.02,1.16 -0.01,1.71 -0.04,0.01 -0.51,-0.02 -0.61,-0.02 -0.49,-0.01 -1.51,-0.02 -1.91,0.03 0.01,0.05 0.04,0.07 0.02,0.15 -0.04,0.06 -0.04,0.02 -0.09,0.1 -0.03,0.05 -0.04,0.08 -0.06,0.13 -0.03,0.01 -0.03,-0.01 -0.06,0 -0.02,0.01 -0.02,-0.02 -0.02,0.05 0,-0 0,-0.01 0.01,-0.01 0.01,0.02 -0,-0.01 0.03,-0.03 0.01,0.01 -0.01,0.01 0.03,0.02 0.03,0.01 0.01,0.01 0.04,0.01l0.02 0.06c0,-0.04 0.01,-0.02 -0,-0.07 -0.03,-0.09 0.04,-0.19 0.13,-0.23l0.01 -0.16c0.13,-0.04 1.01,-0.03 1.2,-0.03 0.37,0 0.88,-0.03 1.23,0.03 0,0.03 0,0.05 0,0.08 0,0.01 0,0.05 0,0.05 0.01,0.04 -0,0.03 0.03,0.05 0.02,-0.05 0,0.01 -0.01,-0.07 -0.01,-0.06 -0.01,-0.06 0.01,-0.1 0.04,-0.09 0.02,-0.52 0.02,-0.63l0 -4.4c0,-0.39 -0.01,-0.92 0.02,-1.3 0.01,-0.14 0.04,-0.26 0.06,-0.39 0.07,0.02 0.06,0.04 0.11,0.08l0 -0.02 -0.03 -0.02c-0,-0 -0.01,-0 -0.01,-0.01l-0.04 -0.03c-0.02,-0.02 -0.01,-0 -0.02,-0.02 0,-0 0.01,-0.03 0.02,-0.04l-0.03 0.04 -0.04 -0.01zm0.1 7.21l-0.01 0.01c0,0.05 -0,0.03 0.02,0.03l0.01 -0.01c-0,-0.09 -0.01,-0.03 -0.03,-0.1 0.08,-0.03 0.03,-0.01 0.07,0.01 -0,-0.06 -0.02,-0.04 -0.02,-0.04l-0.05 -0c-0,0 -0.01,0 -0.01,0l-0.09 -0.17c-0.05,-0.05 -0.04,-0.02 -0.07,-0l0.1 0.12c0.07,0.15 -0.04,0.04 0.02,0.16l0.05 0zm-2.74 -7.21c-0.04,0.01 -0,-0.01 -0.04,0.02l-0.01 -0.02c-0,-0 -0.01,-0 -0.01,-0.01 -0,-0.01 -0,-0.01 -0.01,-0.01l0.07 0.34c0.05,0.33 0.02,2.58 0.03,2.98 0,1.15 -0.01,2.3 0.01,3.44 0.03,-0.06 0.01,-1.22 0.01,-1.38 0,-1.39 0.01,-2.8 0,-4.2 0.03,-0.02 0.01,-0.02 0.06,-0.01 -0.06,-0.03 -0.05,0.02 -0.06,-0.05 -0.02,-0.42 0.02,-0.52 -0.06,-0.96 -0.02,-0.12 -0.02,-0.1 0,-0.13z"/>
   <path class="fil4" d="M0.73 0.58c0.04,-0.02 0.02,-0.01 0.06,-0.04 0.06,-0.06 0.07,-0.08 0.14,-0.12 -0,-0 -0.01,-0.01 -0.01,-0.01 -0,0 -0.01,-0.01 -0.01,-0.01 -0.06,-0.02 -0.07,0.04 -0.13,0.07 0.03,-0.06 0.12,-0.15 0.22,-0.16 -0.03,0.02 -0.06,0.04 -0.09,0.06 0.07,0.06 -0.02,0.05 0.14,-0.03 0.05,-0.03 0.09,-0.05 0.15,-0.08 0.03,-0.03 0.08,-0.04 0.12,-0.06 0.02,-0 0.01,0 0.01,-0.02l0.03 -0.06c-0.26,0.02 -0.66,0.26 -0.74,0.58l0.08 -0.11c0.03,-0.03 0.01,-0.05 0.03,-0.01zm-0.1 0.99l0.01 -0.04c-0.02,-0.16 0.04,-0.84 0.1,-0.95l-0.06 0.06c-0.02,0.02 -0,-0 -0.02,0.03 -0.02,0.03 -0.01,0.02 -0.03,0.05l0.06 -0.07c0.01,-0.01 0.02,-0.01 0.02,-0.02 -0.06,0.25 -0.1,0.58 -0.1,0.9 -0.05,-0.01 -0.03,-0.02 -0.06,-0.01l0.02 0.02c0.04,0 0.03,0 0.06,0.02zm0.69 -1.39c0.13,-0.04 0.14,-0.03 0.26,-0.04 0.01,-0 0.04,-0 0.05,-0.01 0.07,-0.02 0.03,-0.01 0.04,-0.02 -0.08,-0.03 -0.21,0 -0.29,0.03 -0.01,-0.01 -0.01,0 0,-0.02 0.03,0.01 0.02,0.01 0.02,-0.02 -0.03,0 -0.02,-0.01 -0.02,0.02 -0.02,0.01 -0.01,0 -0.03,0.02 -0.01,0.01 -0.01,0.02 -0.02,0.03zm1.63 0.04c-0.01,-0.02 -0.01,-0 0.01,-0.03 0.01,0.02 -0.01,0.01 0.03,0.02l0.02 0.01c0,-0.03 0,-0.02 -0.02,-0.01l-0.05 -0.04c0.08,0.02 0.26,0.16 0.33,0.18l0.01 0.01c0.02,0.03 0.12,0.07 0.27,0.27 0.03,0.04 0.02,0.02 0.05,0.05 -0.03,-0.06 0.03,-0.02 -0.1,-0.21 -0.13,-0.19 -0.44,-0.35 -0.65,-0.37 0.02,0.02 0.02,0.02 0.04,0.04l-0.05 -0.03c-0.03,0.02 0.04,0.02 -0.06,0.01l-0.2 -0.03c-0.05,-0.01 -0.09,-0.01 -0.14,-0.01l-0.03 -0c-0.16,-0.02 -0.61,-0 -0.76,0.01 0.06,0.05 0.03,0.03 0.18,0.02 0.29,-0.02 0.58,-0.01 0.86,0.03 0.27,0.03 0.26,0.15 0.26,0.08zm0.4 0.21l0.02 0.02c0.06,0.06 0.13,0.08 0.14,0.27 0.03,-0.06 -0.01,-0 0.01,-0.06l0.02 -0.03c0,0.01 0,0.02 0.01,0.03l0.01 0.02c0,0 0.01,0.01 0.01,0.01 -0.02,-0.03 -0.02,-0.04 -0.05,-0.08l-0.04 -0.05c-0,-0 -0.01,-0.01 -0.01,-0.02 -0.04,-0.05 -0.06,-0.08 -0.12,-0.11zm0.22 1.1l0.01 0.03c0.04,-0.01 0.04,-0.01 0.05,-0l0.01 0.18c0.02,-0.01 0.01,-0.01 0.05,-0.01 -0,0.11 -0.01,0.13 0.02,0.16 0.02,-0.02 0.01,0.01 0.01,-0.03 0.01,-0.03 -0,-0.54 -0.02,-0.57 0.01,-0.05 0.01,-0.12 -0.01,-0.16 0.01,-0.04 0.01,-0.08 -0.01,-0.11 0,-0.04 0.01,-0.05 -0.01,-0.08l0.01 0.08c-0.01,0.04 0,0.07 0.01,0.11 -0.01,0.05 -0,0.12 0.01,0.16 -0.02,0.07 0.01,0.42 0,0.54 0,-0.05 0,-0.07 -0.02,-0.1 -0,-0 -0.01,-0.01 -0.01,-0.01l-0.01 -0.02c-0.02,-0.04 -0.01,-0.12 -0,-0.17l-0.02 -0.01c-0.06,-0.02 -0.03,0 -0.05,-0.17l-0.02 -0.33c-0,-0 -0,-0.01 -0,-0.01l-0.05 -0.3c-0.01,0.06 0.08,0.58 0.05,0.81zm-0.34 -1.18l-0.02 -0.02c0,0.02 -0.01,0.02 0.02,0.02zm-0.06 -0.04l-0.02 -0.02c0,0.03 -0.01,0.02 0.02,0.02zm-0.06 -0.03c-0.01,-0.02 0,-0.02 -0.03,-0.02 0,0.03 -0.01,0.03 0.03,0.02zm-0.02 -0.01c-0.01,-0.02 0,-0.01 -0.03,-0.02 0,0.03 -0.01,0.02 0.03,0.02zm-0.02 -0.01c-0.01,-0.02 0,-0.01 -0.03,-0.02 0,0.03 -0.01,0.02 0.03,0.02z"/>
   <path class="fil2" d="M3.59 3.79c0.03,-0.03 0.02,-0.03 0.04,-0.07 0.01,-0.03 0.02,-0.06 0.02,-0.09 0.08,-0.35 0.04,-1.14 0.03,-1.51 -0.02,0.03 -0,-0 -0.02,0.05 -0.07,0.28 -0.09,0.41 -0.09,0.73 -0,0.29 -0.01,0.6 0.01,0.88 -0,-0 0,-0.03 0.01,0.01z"/>
   <path class="fil4" d="M0.92 9.94l0.03 0.02c0,0 0.01,0 0.01,0l1.21 0.11c0.03,-0 0.07,-0 0.1,-0.01 0.05,-0 0.15,0.01 0.19,-0.03l-0.36 0.01c-0.01,-0.89 -0.02,-0.93 -0.02,-0l-0.2 -0.01c0.02,-0.02 0.04,-0.03 0.05,-0.07 -0.05,-0.07 -0.26,-0.05 -0.35,-0.04 -0.01,0.01 -0,0.01 -0.01,0.02l-0.63 -0.06 -0.01 0.06 -0.03 -0z"/>
   <path class="fil5" d="M3.84 2.1c0.01,0.1 0.05,0.09 0.13,0.12 0.06,0.02 0.1,0.05 0.16,0.05 0.02,-0.05 0.01,-0.06 0.02,-0.08 0,-0.01 0.01,0.01 0.01,-0.02 -0.01,-0.12 0,-0.13 -0.08,-0.18 -0.05,-0.03 -0.13,-0.08 -0.2,-0.06l-0.01 0.11 0.14 0.05c0.05,0.02 0.07,0.01 0.1,0.05 0,0 0.01,0.01 0.01,0.01 0.02,0.03 0.01,0.02 0,0.05 -0.01,-0.02 -0.01,-0.02 -0.02,-0.03l-0.01 -0.01c-0.03,-0.03 -0.07,-0.04 -0.08,-0.05 -0.09,-0.03 -0.09,-0.04 -0.17,-0z"/>
   <path class="fil5" d="M0.36 2.17c0.02,-0.11 -0.01,-0.12 -0.11,-0.09 -0.26,0.08 -0.25,0.23 -0.08,0.16 0.06,-0.03 0.14,-0.05 0.19,-0.07z"/>
   <path class="fil4" d="M2.46 9.92c-0.06,-0 -0.04,-0.03 -0.09,-0.01 -0.02,0 -0.01,0.01 -0.05,0.02 -0.1,0.02 -0.11,-0.03 -0.14,0.04 0.03,0.03 0.05,0.02 0.1,0.02l0.22 -0.01c0.08,-0.01 0.07,-0.02 0.08,-0.05 -0.02,-0.02 0,-0.01 -0.03,-0.02 -0.04,-0.01 -0.05,0 -0.09,0z"/>
   <path class="fil5" d="M0.08 2.11l0.16 -0.07c0.01,-0.01 -0,-0.02 0.02,-0.03 0.06,-0.03 0.04,0.01 0.08,-0.05 -0.06,-0.11 -0.25,-0 -0.25,0.14z"/>
   <path class="fil6" d="M3.54 9.68l-0.04 0.04 -0 0.11c0.05,-0.01 0.1,-0.02 0.13,-0.06 0.02,0.01 0.02,0.01 0.01,-0.01 0.02,0.01 0.01,0.01 0.01,-0.02 0.02,-0.01 0.01,0 0.01,-0.04l-0.01 0.04c-0.02,-0 -0.01,-0.01 -0.01,0.02 -0.02,-0.01 -0.02,-0.01 -0.01,0.01 -0.05,0.01 -0.06,0.03 -0.11,0.03l0.01 -0.05c0.07,-0.04 0.08,-0.03 0.13,-0.08 0.03,-0.06 0.02,-0.09 0.01,-0.15 -0.04,0.08 -0.03,0.16 -0.13,0.17z"/>
   <path class="fil3" d="M2.09 2.63c0.02,-0.05 0,-0.12 0.02,-0.18 0.08,-0.22 -0.13,-0.18 -0.05,-0.01 0.02,0.04 0.02,0.02 0.02,0.08 0,0.05 -0.01,0.07 0.01,0.1z"/>
   <path class="fil6" d="M0.54 9.66c0.01,0 0.04,0.04 0.07,0.06 0.07,0.04 0.06,0.01 0.08,0.09l-0.11 -0.04 -0.01 -0.01 -0.01 -0.02 -0.01 -0.02 0.01 0.02 0.01 0.02c-0,0.02 -0,0.01 0.01,0.01 0.03,0.04 0.07,0.06 0.13,0.07l-0.02 -0.12c-0.03,-0.02 -0.04,-0.01 -0.09,-0.06 -0.02,-0.02 -0.02,-0.02 -0.04,-0.04 -0.01,-0.01 -0.02,-0.03 -0.03,-0.04 -0.02,0.01 -0.02,-0.02 -0.02,0.05 0,0.02 0.01,0.02 0.01,0.03z"/>
   <path class="fil7" d="M0.56 9.72l0.01 0.02 0.01 0.02 0.01 0.01 0.11 0.04c-0.02,-0.09 -0.01,-0.06 -0.08,-0.09 -0.03,-0.02 -0.07,-0.05 -0.07,-0.06l0.02 0.07z"/>
   <path class="fil7" d="M3.62 9.77c-0.01,-0.02 -0.01,-0.02 0.01,-0.01 -0.01,-0.03 -0.02,-0.02 0.01,-0.02l0.01 -0.04 0 -0.03c-0.06,0.05 -0.06,0.04 -0.13,0.08l-0.01 0.05c0.05,0 0.06,-0.02 0.11,-0.03z"/>
   <path class="fil8" d="M0.57 9.79c0.02,0.06 -0,0.06 0.06,0.09 0.03,0.01 0.07,0.03 0.1,0.01 -0.01,-0.06 -0.01,-0.04 -0.08,-0.06 -0.03,-0.01 -0.05,-0.03 -0.08,-0.04z"/>
   <path class="fil9" d="M3.48 9.9c0.09,-0.01 0.13,-0.02 0.15,-0.1 -0.03,0.01 -0.05,0.03 -0.09,0.04 -0.06,0.02 -0.05,0 -0.06,0.06z"/>
   <path class="fil10" d="M1.28 0.25c-0.11,0.24 -0.24,0.67 -0.37,0.86 0.14,-0.27 0.22,-0.58 0.35,-0.87 0,-0.01 0.01,-0.01 0.02,-0.01 0.01,0 0.01,0.01 0.01,0.02zm0.04 -0.08c0.05,-0.01 0.1,-0.02 0.16,-0.02 0.05,-0.01 0.1,-0.01 0.16,-0.02 0.05,-0.01 0.11,-0.01 0.17,-0.01 0.06,-0 0.12,-0 0.18,-0.01 0.06,-0 0.13,-0 0.2,-0 0.07,-0 0.14,0 0.2,0 0.06,0 0.12,0.01 0.17,0.01 0.06,0 0.11,0.01 0.15,0.02 0.04,0.01 0.08,0.01 0.11,0.02 0.03,0.01 0.06,0.01 0.08,0.02 0.04,0.01 0.06,0.02 0.07,0.02l0.01 0.01 0.01 0 -0 0.01c0.12,0.29 0.21,0.6 0.35,0.87 -0.13,-0.19 -0.26,-0.62 -0.37,-0.86 -0,-0 -0,-0 -0,-0.01l-0 -0c-0.01,-0 -0.03,-0.01 -0.06,-0.02 -0.02,-0.01 -0.04,-0.01 -0.07,-0.02 -0.03,-0.01 -0.07,-0.01 -0.11,-0.02 -0.04,-0.01 -0.09,-0.01 -0.15,-0.02 -0.05,-0 -0.11,-0.01 -0.17,-0.01 -0.06,-0 -0.13,-0 -0.2,-0 -0.07,0 -0.13,0 -0.2,0 -0.06,0 -0.12,0 -0.18,0.01 -0.06,0 -0.11,0.01 -0.16,0.01 -0.05,0.01 -0.11,0.01 -0.16,0.02 -0.05,0.01 -0.1,0.02 -0.15,0.02l-0 -0.03z"/>
   <path class="fil10" d="M0.59 0.7c0.02,-0.02 0.05,-0.04 0.07,-0.06 0.02,-0.02 0.04,-0.04 0.05,-0.05 0.01,-0.01 0.02,-0.02 0.03,-0.02 0.01,-0.01 0.02,-0.02 0.04,-0.03 0.01,-0.01 0.02,-0.01 0.03,-0.02 0.03,-0.03 0.07,-0.07 0.11,-0.1 0.03,-0.02 0.05,-0.04 0.08,-0.06 0.03,-0.02 0.05,-0.03 0.08,-0.05 0.04,-0.02 0.08,-0.04 0.11,-0.05 0.02,-0.01 0.03,-0.02 0.04,-0.02 0.02,-0.01 0.03,-0.01 0.04,-0.02 0.01,-0 0.01,-0.01 0.02,-0.01 0.01,-0.01 0.01,-0.02 0.02,-0.03 0,-0 0.01,-0.01 0.01,-0.02 0.01,-0.02 0.03,-0.03 0.04,-0.05l0 0 0.02 0.02 0 0c-0.02,0.02 -0.03,0.03 -0.04,0.05 -0,0 -0.01,0.01 -0.01,0.02 -0.01,0.01 -0.02,0.02 -0.02,0.03 -0.01,0.01 -0.01,0.01 -0.02,0.02 -0.01,0.01 -0.02,0.01 -0.04,0.02 -0.01,0.01 -0.03,0.01 -0.05,0.02 -0.03,0.02 -0.07,0.03 -0.11,0.05 -0.03,0.01 -0.06,0.03 -0.08,0.05 -0.03,0.02 -0.05,0.03 -0.08,0.06 -0.04,0.03 -0.08,0.07 -0.11,0.1 -0.01,0.01 -0.02,0.02 -0.03,0.02 -0.02,0.02 -0.03,0.03 -0.04,0.04 -0.01,0.01 -0.02,0.01 -0.03,0.02 -0.01,0.01 -0.03,0.03 -0.05,0.05 -0.02,0.02 -0.04,0.04 -0.07,0.06l-0.02 -0.02z"/>
   <path class="fil10" d="M3.64 0.69c-0.02,-0.02 -0.05,-0.04 -0.07,-0.06 -0.02,-0.02 -0.04,-0.04 -0.05,-0.05 -0.01,-0.01 -0.02,-0.02 -0.03,-0.02 -0.01,-0.01 -0.02,-0.02 -0.04,-0.03 -0.01,-0.01 -0.02,-0.01 -0.03,-0.02 -0.03,-0.03 -0.07,-0.07 -0.11,-0.1 -0.03,-0.02 -0.05,-0.04 -0.08,-0.06 -0.03,-0.02 -0.05,-0.03 -0.08,-0.05 -0.04,-0.02 -0.08,-0.04 -0.11,-0.05 -0.02,-0.01 -0.03,-0.02 -0.04,-0.02 -0.02,-0.01 -0.03,-0.01 -0.04,-0.02 -0.01,-0 -0.01,-0.01 -0.02,-0.01 -0.01,-0.01 -0.01,-0.02 -0.02,-0.03 -0,-0 -0.01,-0.01 -0.01,-0.02 -0.01,-0.02 -0.03,-0.03 -0.04,-0.05l0 0 -0.02 0.02 0 0c0.02,0.02 0.03,0.03 0.04,0.05 0,0 0.01,0.01 0.01,0.02 0.01,0.01 0.02,0.02 0.02,0.03 0.01,0.01 0.01,0.01 0.02,0.02 0.01,0.01 0.02,0.01 0.04,0.02 0.01,0.01 0.03,0.01 0.05,0.02 0.03,0.02 0.07,0.03 0.11,0.05 0.03,0.01 0.06,0.03 0.08,0.05 0.03,0.02 0.05,0.03 0.08,0.06 0.04,0.03 0.08,0.07 0.11,0.1 0.01,0.01 0.02,0.02 0.03,0.02 0.02,0.02 0.03,0.03 0.04,0.04 0.01,0.01 0.02,0.01 0.03,0.02 0.01,0.01 0.03,0.03 0.05,0.05 0.02,0.02 0.04,0.04 0.07,0.06l0.02 -0.02z"/>
   <path class="fil4" d="M1.65 0.1c0.14,-0.02 0.6,-0.03 0.76,-0.01l0.03 0c0.05,0 0.09,0 0.14,0.01l0.2 0.03c0.1,0.01 0.03,0.01 0.06,-0.01l-0 -0c-0.08,-0.06 -0.21,-0.05 -0.33,-0.07 -0.12,-0.01 -0.26,-0.02 -0.39,-0.02 -0.12,-0 -0.68,0.02 -0.72,0.08 0,-0 0,-0 0,-0 0,0.03 0.01,0.02 -0.02,0.02 -0,0 -0,0 -0,0.01 -0.01,0.01 -0.01,0 0,0.01 0.08,-0.03 0.21,-0.06 0.29,-0.03 -0.01,0.01 0.01,0 -0,0.01 0.01,-0 0.01,-0 0.02,-0 -0.01,-0.01 -0.02,-0.01 -0.03,-0.02z"/>
   <path class="fil11" d="M1.3 0.14c-0.01,0.02 -0.03,0.05 -0.07,0.09 -0.04,0.03 -0.12,0.07 -0.19,0.11 -0.07,0.04 -0.14,0.07 -0.2,0.12 -0.06,0.05 -0.12,0.1 -0.16,0.14 -0.03,0.03 -0.04,0.05 -0.02,0.02 0.02,-0.03 0.05,-0.09 0.1,-0.15 0.05,-0.06 0.11,-0.11 0.16,-0.16 0.06,-0.04 0.11,-0.07 0.15,-0.1 0.05,-0.02 0.09,-0.04 0.13,-0.05 0.04,-0.01 0.08,-0.02 0.1,-0.03 0.02,-0 0.01,-0 -0,0.01z"/>
   <path class="fil11" d="M2.94 0.14c0.01,0.02 0.03,0.05 0.07,0.09 0.04,0.03 0.12,0.07 0.19,0.11 0.07,0.04 0.14,0.07 0.2,0.12 0.06,0.05 0.12,0.1 0.16,0.14 0.03,0.03 0.04,0.05 0.02,0.02 -0.02,-0.03 -0.05,-0.09 -0.1,-0.15 -0.05,-0.06 -0.11,-0.11 -0.16,-0.16 -0.06,-0.04 -0.11,-0.07 -0.15,-0.1 -0.05,-0.02 -0.09,-0.04 -0.13,-0.05 -0.04,-0.01 -0.08,-0.02 -0.1,-0.03 -0.02,-0 -0.01,-0 0,0.01z"/>
   <path class="fil10" d="M0.81 9.31c0.01,-0.01 0.03,-0.01 0.05,-0.02 0.02,-0.01 0.04,-0.01 0.07,-0.01 0.04,0 0.1,0.01 0.18,0.02 0.03,0 0.06,0.01 0.09,0.01 0.06,0.01 0.13,0.02 0.2,0.02 0.07,0.01 0.15,0.01 0.22,0.02 0.15,0.01 0.3,0 0.45,-0l0 0 0 0.01 0 0.01 -0 0c-0.15,0.01 -0.3,0.01 -0.46,0 -0.08,-0 -0.15,-0.01 -0.22,-0.02 -0.07,-0.01 -0.14,-0.02 -0.2,-0.02 -0.03,-0 -0.06,-0.01 -0.09,-0.01 -0.08,-0.01 -0.14,-0.02 -0.18,-0.02 -0.03,-0 -0.05,0 -0.06,0.01 -0.02,0 -0.03,0.01 -0.04,0.02l-0.01 -0.02z"/>
   <path class="fil10" d="M3.38 9.31c-0.01,-0.01 -0.03,-0.01 -0.05,-0.02 -0.02,-0.01 -0.04,-0.01 -0.07,-0.01 -0.04,0 -0.1,0.01 -0.18,0.02 -0.03,0 -0.06,0.01 -0.09,0.01 -0.06,0.01 -0.13,0.02 -0.2,0.02 -0.07,0.01 -0.15,0.01 -0.22,0.02 -0.15,0.01 -0.3,0 -0.45,-0l-0 0 0 0.01 -0 0.01 0 0c0.15,0.01 0.3,0.01 0.46,0 0.08,-0 0.15,-0.01 0.22,-0.02 0.07,-0.01 0.14,-0.02 0.2,-0.02 0.03,-0 0.06,-0.01 0.09,-0.01 0.08,-0.01 0.14,-0.02 0.18,-0.02 0.03,-0 0.05,0 0.06,0.01 0.02,0 0.03,0.01 0.04,0.02l0.01 -0.02z"/>
   <path class="fil6" d="M1.81 9.41l0 -0c0.09,-0.02 0.54,0.02 0.56,-0.02 0,-0.01 0.01,-0 0.01,-0.01 -0.02,-0.04 -0,-0.04 -0.06,-0.04l-0.25 0c-0.23,-0 -0.28,-0.03 -0.26,0.07z"/>
   <path class="fil12" d="M0.84 3.53c0.42,-0.03 0.83,-0.05 1.25,-0.05 0.42,0 0.84,0.02 1.25,0.05l-0 0.01c-0.42,-0.03 -0.83,-0.05 -1.25,-0.05 -0.42,0 -0.84,0.02 -1.25,0.05l-0 -0.01z"/>
   <path class="fil12" d="M0.84 4.33c0.42,-0.03 0.83,-0.05 1.25,-0.05 0.42,0 0.84,0.02 1.25,0.05l-0 0.01c-0.42,-0.03 -0.83,-0.05 -1.25,-0.05 -0.42,0 -0.84,0.02 -1.25,0.05l-0 -0.01z"/>
   <path class="fil12" d="M0.84 6.68c0.42,-0.03 0.83,-0.05 1.25,-0.05 0.42,0 0.84,0.02 1.25,0.05l-0 0.01c-0.42,-0.03 -0.83,-0.05 -1.25,-0.05 -0.42,0 -0.84,0.02 -1.25,0.05l-0 -0.01z"/>
  </g>
 </g>
</svg>
