<?xml version="1.0" encoding="UTF-8"?>
<!DOCTYPE svg PUBLIC "-//W3C//DTD SVG 1.1//EN" "http://www.w3.org/Graphics/SVG/1.1/DTD/svg11.dtd">
<!-- Creator: CorelDRAW -->
<svg xmlns="http://www.w3.org/2000/svg" xml:space="preserve" width="2.2862mm" height="5.5001mm" version="1.1" style="shape-rendering:geometricPrecision; text-rendering:geometricPrecision; image-rendering:optimizeQuality; fill-rule:evenodd; clip-rule:evenodd"
viewBox="0 0 4 9.62"
 xmlns:xlink="http://www.w3.org/1999/xlink"
 xmlns:xodm="http://www.corel.com/coreldraw/odm/2003">
 <defs>
  <style type="text/css">
   <![CDATA[
    .fil3 {fill:black}
    .fil4 {fill:#131414}
    .fil2 {fill:#131414}
    .fil5 {fill:#363636}
    .fil6 {fill:#AF0909}
    .fil7 {fill:#B5B5B6}
    .fil0 {fill:#CC0000}
    .fil8 {fill:#D8D8D8}
    .fil9 {fill:#FAFAFB}
    .fil11 {fill:white}
    .fil10 {fill:#131414;fill-rule:nonzero}
    .fil1 {fill:url(#id0)}
   ]]>
  </style>
  <linearGradient id="id0" gradientUnits="userSpaceOnUse" x1="0.68" y1="1.76" x2="3.31" y2="1.76">
   <stop offset="0" style="stop-opacity:1; stop-color:#1C1C1C"/>
   <stop offset="0.490196" style="stop-opacity:1; stop-color:dimgray"/>
   <stop offset="0.729412" style="stop-opacity:1; stop-color:#B6B6B6"/>
   <stop offset="1" style="stop-opacity:1; stop-color:#1C1C1C"/>
  </linearGradient>
 </defs>
 <g id="Camada_x0020_1">
  <metadata id="CorelCorpID_0Corel-Layer"/>
  <path class="fil0" d="M2.79 0.08c0.48,0.12 0.71,0.43 0.75,0.93l0.04 0.8 0.08 0.03c0.03,-0.1 0.3,-0.01 0.34,0.17l0 0.09c-0.01,0.03 -0.02,0.07 -0.05,0.11 -0.05,-0 -0.14,-0.04 -0.19,-0.07 -0.12,-0.05 -0.14,-0.06 -0.14,-0.14l-0.05 0c0,0.11 0,0.22 0,0.32 0,0.12 0.01,0.2 0.01,0.31 -0,0.09 -0.01,0.24 0,0.32 0.01,0.05 0.01,0.09 0.01,0.15 0,0.07 0.02,0.07 0.02,0.13 0,0.18 0.01,0.27 -0.02,0.43 -0.02,0.08 0.01,0.56 0.01,0.66 -0,0.26 0,0.52 0,0.78 0,0.27 -0.01,0.5 -0.01,0.77l-0 1.38c0,0.08 0.01,0.11 0.01,0.19l0 0.61c0,0.08 -0.01,0.1 -0.01,0.18 0,0.25 -0.03,0.88 -0.12,1.11 -0.02,0.05 -0.05,0.08 -0.1,0.11 -0.16,0.08 -0.15,0.03 -0.22,0.04 -0.01,0 -0.06,0.01 -0.07,0.01 -0.17,0.03 -0.63,0.08 -0.79,0.08l-0.25 0c-0.06,0.01 -0.02,0.01 -0.07,0.02 -0.1,0.03 -0.78,-0.04 -0.95,-0.07 -0.05,-0.01 -0.1,-0.02 -0.14,-0.03 -0.11,-0.02 -0.15,0.03 -0.3,-0.06 -0.05,-0.03 -0.07,-0.06 -0.09,-0.13 -0.08,-0.37 -0.12,-0.79 -0.12,-1.18l0 -1.94c0,-0.04 -0,-0.08 0,-0.12 0.02,-0.18 0.02,-0.04 0,-0.22 -0.01,-0.17 -0,-1.32 -0,-1.59 0,-0.13 0,-0.24 0.01,-0.35 0.02,-0.24 -0.02,-0.28 -0.02,-0.32l0 -0.38c0,-0.05 0.01,-0.02 0.02,-0.07 0.01,-0.03 0.01,-0.05 0.01,-0.08l0.02 -0.76c-0,-0.1 -0,-0.21 -0,-0.31l-0.05 0c-0.01,0.11 -0.09,0.12 -0.23,0.18 -0.02,0.01 -0.04,0.02 -0.05,0.02l-0.03 -0c-0,-0.01 -0.04,0.02 -0.05,-0.05 -0.02,-0.07 -0.01,-0.19 0.02,-0.24 0.05,-0.07 0.28,-0.19 0.31,-0.08 0.04,-0.01 0.06,-0.02 0.1,-0.04 0,-0.4 -0.01,-0.81 0.12,-1.16 0.02,-0.06 0.04,-0.09 0.07,-0.15 0.18,-0.36 0.73,-0.48 1.26,-0.5l0.23 0c0.27,0.01 0.52,0.04 0.68,0.08z"/>
  <g id="_1769281247232">
   <path class="fil1" d="M0.78 2.27c0,-0 0.01,-0.01 0.01,-0 0,0 0.01,-0 0.01,-0 0.03,-0.01 0.01,-0.01 0.03,-0.02l-0.02 -0.01c-0.05,-0.04 -0,0.01 0.01,-0.02l0.03 0.03c0.04,-0.01 0,0 0.02,-0.02 -0.05,-0.02 -0.06,-0.02 0.01,-0.04 0.05,-0.02 0.07,-0.01 0.1,0.02 0.04,-0.01 0.01,-0 0.02,-0.02l-0.04 -0.02c0.14,-0.01 0.14,-0.04 0.28,-0.05 -0.09,0.03 -0.19,0.03 -0.22,0.07 0.06,-0.01 0.1,-0.03 0.15,-0.03 0.04,-0.01 0.12,-0.01 0.16,-0.04l0.26 -0.04 -0.03 -0.03c-0.09,-0.07 -0.41,-0.04 -0.54,-0.02 -0.04,0 -0.14,0.02 -0.17,-0 0.12,-0.02 0.51,-0.07 0.64,-0.06 0.23,0.02 0.41,0.09 0.53,0.09 0.01,-0 0.04,-0 0.05,-0.01 0.04,-0.02 -0,0.01 0.03,-0.02 -0.03,-0.02 0,-0.01 -0.06,-0.02 -0.02,-0 -0.05,-0 -0.06,-0 0.02,0.02 0.13,0.01 0.17,0 0.07,-0.01 0.06,-0.04 0.16,-0.02 0.11,0.02 0.22,0.03 0.32,0.05 0.16,0.02 0.51,0.15 0.62,0.13 0.03,-0.07 0.07,-0.42 0.07,-0.52 0.01,-0.12 -0.04,-0.12 -0.13,-0.16 -0.06,-0.03 -0.14,-0.05 -0.21,-0.08 -0.32,-0.1 -0.83,-0.18 -1.2,-0.15 -0.02,0 -0.07,0.01 -0.07,0.01 -0.35,0.03 -0.43,0.05 -0.78,0.18 -0.3,0.11 -0.26,0.11 -0.23,0.31 0.01,0.07 0.03,0.4 0.08,0.43 0.02,0.01 -0.01,0 0.02,0.01 0.1,0.01 -0.07,0.03 0.03,-0.01l-0.03 0.04c-0.03,0.05 0.01,-0.04 -0.01,0.02 -0.01,0.03 0.02,0 -0.01,0.04z"/>
   <path class="fil2" d="M1.2 4.37c0,-0.03 0.01,-0.03 -0.01,-0.03l0.01 0.03c0.02,0.02 0.03,0.04 0.07,0.06 -0.03,-0.03 -0.03,-0.05 -0.07,-0.06zm1.53 0.05l-0.03 0c-0.05,-0.02 -0.02,-0.01 -0.03,0.02 0.04,-0.01 0.03,0 0.03,-0.02l0.03 -0c0.03,-0.01 0.01,0 0.01,-0.02 0.02,0.01 0.02,0.01 0.01,-0.01 0.02,0 0.01,0.01 0.02,-0.02 -0.03,0 -0.03,-0.01 -0.02,0.02 -0.02,-0 -0.02,-0.01 -0.01,0.01 -0.03,0.01 -0.01,0.01 -0.02,-0.01 0.07,-0.02 0.05,-0.12 0.05,-0.25 -0,-0.68 0.06,-0.6 -0.32,-0.6l-0.91 -0c-0.39,0 -0.33,-0.06 -0.33,0.59 -0,0.05 -0,0.1 0,0.14 0,0.02 0,0.04 0,0.06 0.01,0.03 0.02,0.05 0.05,0.06 0.03,0.01 -0.01,0 0.03,0.01 0.02,0.01 1.24,0.01 1.38,0l0.06 0c0,0 0.01,0 0.01,0z"/>
   <path class="fil3" d="M3.31 9.42c0.01,-0.06 0,-0.04 0.06,-0.06 0.04,-0.01 0.05,-0.02 0.09,-0.04 -0.02,0.07 -0.06,0.08 -0.14,0.09zm-1.43 -9.42l0.23 0c0.27,0.01 0.52,0.04 0.68,0.08 0.48,0.12 0.71,0.43 0.75,0.93l0.04 0.8 0.08 0.03c0.03,-0.1 0.3,-0.01 0.34,0.17l0 0.09c-0.01,0.03 -0.02,0.07 -0.05,0.11 -0.05,-0 -0.14,-0.04 -0.19,-0.07 -0.12,-0.05 -0.14,-0.06 -0.14,-0.14l-0.05 0c0,0.11 0,0.22 0,0.32 0,0.12 0.01,0.2 0.01,0.31 -0,0.09 -0.01,0.24 0,0.32 0.01,0.05 0.01,0.09 0.01,0.15 0,0.07 0.02,0.07 0.02,0.13 0,0.18 0.01,0.27 -0.02,0.43 -0.02,0.08 0.01,0.56 0.01,0.66 -0,0.26 0,0.52 0,0.78 0,0.27 -0.01,0.5 -0.01,0.77l-0 1.38c0,0.08 0.01,0.11 0.01,0.19l0 0.61c0,0.08 -0.01,0.1 -0.01,0.18 0,0.25 -0.03,0.88 -0.12,1.11 -0.02,0.05 -0.05,0.08 -0.1,0.11 -0.16,0.08 -0.15,0.03 -0.22,0.04 -0.01,0 -0.06,0.01 -0.07,0.01 -0.17,0.03 -0.63,0.08 -0.79,0.08l-0.25 0c-0.06,0.01 -0.02,0.01 -0.07,0.02 -0.1,0.03 -0.78,-0.04 -0.95,-0.07 -0.05,-0.01 -0.1,-0.02 -0.14,-0.03 -0.11,-0.02 -0.15,0.03 -0.3,-0.06 -0.05,-0.03 -0.07,-0.06 -0.09,-0.13 -0.08,-0.37 -0.12,-0.79 -0.12,-1.18l0 -1.94c0,-0.04 -0,-0.08 0,-0.12 0.02,-0.18 0.02,-0.04 0,-0.22 -0.01,-0.17 -0,-1.32 -0,-1.59 0,-0.13 0,-0.24 0.01,-0.35 0.02,-0.24 -0.02,-0.28 -0.02,-0.32l0 -0.38c0,-0.05 0.01,-0.02 0.02,-0.07 0.01,-0.03 0.01,-0.05 0.01,-0.08l0.02 -0.76c-0,-0.1 -0,-0.21 -0,-0.31l-0.05 0c-0.01,0.11 -0.09,0.12 -0.23,0.18 -0.02,0.01 -0.04,0.02 -0.05,0.02l-0.03 -0c-0,-0.01 -0.04,0.02 -0.05,-0.05 -0.02,-0.07 -0.01,-0.19 0.02,-0.24 0.05,-0.07 0.28,-0.19 0.31,-0.08 0.04,-0.01 0.06,-0.02 0.1,-0.04 0,-0.4 -0.01,-0.81 0.12,-1.16 0.02,-0.06 0.04,-0.09 0.07,-0.15 0.18,-0.36 0.73,-0.48 1.26,-0.5zm-1.34 9.32c0.03,0.01 0.04,0.03 0.08,0.04 0.06,0.02 0.07,-0 0.07,0.06 -0.03,0.01 -0.06,-0 -0.09,-0.01 -0.06,-0.02 -0.04,-0.02 -0.06,-0.08zm3.37 -7.26c0.01,0.02 0.01,0.02 0.02,0.03 0.01,-0.02 0.02,-0.02 -0,-0.05 -0,-0 -0.01,-0.01 -0.01,-0.01 -0.04,-0.04 -0.05,-0.03 -0.1,-0.05l-0.13 -0.04 0.01 -0.1c0.07,-0.02 0.14,0.03 0.19,0.06 0.08,0.05 0.06,0.06 0.07,0.17 -0,0.03 -0.01,0.01 -0.01,0.02 -0.01,0.02 0.01,0.03 -0.02,0.07 -0.06,0 -0.1,-0.03 -0.15,-0.05 -0.08,-0.03 -0.12,-0.02 -0.13,-0.11 0.08,-0.04 0.08,-0.03 0.17,0 0.02,0.01 0.05,0.02 0.08,0.04l0.01 0.01zm-3.57 0.01c-0.05,0.02 -0.12,0.04 -0.18,0.07 -0.16,0.07 -0.17,-0.08 0.08,-0.15 0.09,-0.03 0.12,-0.02 0.1,0.08zm-0.26 -0.06c0,-0.14 0.18,-0.24 0.24,-0.14 -0.03,0.06 -0.01,0.01 -0.07,0.04 -0.02,0.01 -0.01,0.02 -0.02,0.03l-0.15 0.06zm3.05 -1.66l-0.01 -0.01c-0.07,-0.02 -0.24,-0.15 -0.31,-0.17l0.04 0.04c0.03,-0.01 0.02,-0.02 0.02,0.01l0.02 0.01c0.03,0 0.02,-0.01 0.03,0.02l-0 -0c0.03,0 0.02,-0 0.03,0.02l-0 -0c0.03,0 0.02,-0 0.03,0.02 0.02,0.01 0.02,0 0.04,0.02l0.02 0.02 0.04 0.02 0.02 0.02c0.04,0.02 0.08,0.05 0.12,0.08 0.06,0.03 0.08,0.06 0.12,0.11 0,0 0.01,0.01 0.01,0.01l0.04 0.05c0.03,0.03 0.03,0.04 0.04,0.08 0.06,0.04 0.1,0.15 0.09,0.25 0.02,0.03 0.02,0.03 0.01,0.07 0.02,0.03 0.02,0.07 0.01,0.11 0.02,0.03 0.02,0.1 0.01,0.15 0.02,0.03 0.03,0.51 0.02,0.54 -0.01,0.03 0,0.01 -0.01,0.03 -0.03,-0.03 -0.02,-0.05 -0.02,-0.15 -0.03,0 -0.02,-0 -0.04,0.01 0.02,0.18 -0.08,0.53 -0.07,0.72l-0 0.01c-0.02,0.07 -0.03,0.2 -0.01,0.27 0.03,0.1 0.01,0.86 0.01,1.03 -0.02,-0.05 -0,-0 0.01,-0.03 0.02,-0.03 0.02,-0.02 0.02,-0.06 -0.01,-0.04 -0.01,-0.01 -0.01,-0.01 -0.02,-0.27 -0.01,-0.56 -0.01,-0.84 0,-0.31 0.02,-0.43 0.09,-0.7 0.01,-0.05 -0.01,-0.02 0.01,-0.04 0.07,-0.01 0.05,0.04 0.05,0.13 0,0.36 0.02,0.75 0.01,1.11 -0.01,0.15 -0.01,0.32 0.01,0.45 0.02,0.13 -0,0.32 0,0.45 0.01,0.42 0.02,0.96 0,1.37 -0.01,0.3 0,0.58 0,0.88 0,0.54 0.02,1.32 0,1.83 -0,0.11 -0,0.44 -0.04,0.53 -0.02,0.04 -0.02,0.05 -0.02,0.1 -0.01,0.07 -0.02,0.14 -0.02,0.21 0,0.06 0.02,0.09 -0.01,0.14l-0 0.03c-0,0.04 0,0.02 -0.01,0.03 0.01,0.03 0.02,0.03 -0.01,0.02 0.01,0.02 0.01,0.02 -0.01,0.01 -0.02,0.04 -0.08,0.05 -0.12,0.06l0 -0.11 0.04 -0.04 -0 -0.04 -0.01 0.01c-0.02,0.08 -0.04,0.02 -0.05,0.12 -0.01,0.14 -0.03,0.14 -0.34,0.18 -0.2,0.03 -0.41,0.05 -0.62,0.06 -0.04,0.03 -0.13,0.02 -0.18,0.03 -0.03,0 -0.07,0.01 -0.1,0.01l-1.15 -0.11c-0,-0 -0.01,-0 -0.01,-0l-0.03 -0.02c-0.25,-0.03 -0.12,-0.1 -0.21,-0.22 -0.04,-0.06 -0.01,-0.05 -0.01,-0.12l-0.03 0.1 -0.04 -0.02c0.05,0.04 0.05,0.03 0.08,0.05l0.02 0.11c-0.05,-0.01 -0.1,-0.02 -0.12,-0.06 -0.02,0 -0.01,0.01 -0.01,-0.01l-0.01 -0.02 -0.01 -0.02 -0.02 -0.06c-0,-0.01 -0.01,-0.01 -0.01,-0.03 -0,-0.07 -0,-0.03 0.01,-0.04 -0.01,-0.13 -0.03,-0.28 -0.07,-0.39 -0.06,-0.18 -0.02,-2.89 -0.02,-3.15l0.02 -2.25c-0.01,-0.5 -0,-0.8 0.01,-1.32 0.06,0 0.04,-0 0.04,0.05 0.03,0.32 -0.1,1.33 0.09,1.61l0.02 -0.3c0,-0 0,-0.01 0.01,-0.01 0,-0.29 0.01,-0.6 -0.01,-0.89l-0.08 -0.78c-0,-0 -0,-0.02 -0.01,-0.02 -0.01,-0.02 -0.01,-0.01 -0.02,-0.03l-0.01 0.02c-0.03,0.09 0.01,-0.07 -0.01,0.02 -0.01,0.07 0.01,0.08 -0.02,0.11 -0.02,-0.04 -0.02,-0.97 0.12,-1.11 0.01,-0.03 0.01,-0.02 0.02,-0.05 0.02,-0.03 0,-0.01 0.02,-0.03l0.06 -0.05 -0 -0c-0.02,-0.04 -0,-0.02 -0.03,0.01l-0.08 0.1c0.07,-0.3 0.46,-0.53 0.7,-0.55l-0.03 0.06 0 0.01c0.01,-0.01 0.01,-0.02 0.02,-0.03 0.02,-0.02 0.01,-0.01 0.03,-0.02 -0,-0.02 -0,-0.01 0.02,-0.02 0.05,-0.06 0.57,-0.07 0.69,-0.07 0.12,0 0.25,0.01 0.37,0.02 0.12,0.01 0.24,0.01 0.32,0.06l0.05 0.03c-0.01,-0.02 -0.02,-0.02 -0.03,-0.04 0.2,0.02 0.49,0.17 0.62,0.35 0.13,0.18 0.07,0.14 0.1,0.2 -0.03,-0.02 -0.02,-0 -0.05,-0.04 -0.14,-0.19 -0.24,-0.22 -0.26,-0.25zm0.22 8.79l-0.01 0.01 0.01 -0.01z"/>
   <path class="fil4" d="M0.61 1.46l-0.01 0.04c-0.01,0.1 0.05,0.68 0.08,0.76 0,0 0.01,0 0.01,0.01 0,0.01 0.01,0.01 0.01,0.01l0.01 0.02c0.03,-0.03 0,-0.01 0.04,-0.02l0.04 -0.01c0.03,-0.03 0.01,-0.01 0.01,-0.04 0.02,-0.05 -0.03,0.04 0.01,-0.02l0.03 -0.04c-0.1,0.03 0.07,0.01 -0.03,0.01 -0.04,-0 0,0.01 -0.02,-0.01 -0.05,-0.03 -0.07,-0.36 -0.08,-0.43 -0.02,-0.2 -0.06,-0.2 0.23,-0.31 0.35,-0.13 0.43,-0.15 0.78,-0.18 0,-0 0.05,-0.01 0.07,-0.01 0.37,-0.03 0.88,0.05 1.2,0.15 0.07,0.02 0.14,0.05 0.21,0.08 0.08,0.04 0.13,0.04 0.13,0.16 -0,0.11 -0.04,0.45 -0.07,0.52 -0.11,0.02 -0.46,-0.11 -0.62,-0.13 -0.11,-0.02 -0.21,-0.03 -0.32,-0.05 -0.1,-0.01 -0.09,0.01 -0.16,0.02 -0.04,0.01 -0.15,0.02 -0.17,-0 0.02,0 0.05,0 0.06,0 0.06,0.01 0.02,-0 0.06,0.02 -0.03,0.04 0.01,0.01 -0.03,0.02 -0.01,0 -0.03,0.01 -0.05,0.01 -0.13,0.01 -0.3,-0.07 -0.53,-0.09 -0.13,-0.01 -0.52,0.04 -0.64,0.06 0.03,0.02 0.13,0.01 0.17,0 0.12,-0.01 0.45,-0.05 0.54,0.02l0.03 0.03 -0.26 0.04c0.07,0 0.16,-0.02 0.24,-0.02 0.28,-0.02 0.49,-0.03 0.78,-0.01 0.42,0.03 0.54,0.08 0.91,0.19l0.04 0.01 0.03 -0.04c0.02,-0.24 0.1,-0.52 0.09,-0.77l-0.01 -0.03c-0.37,-0.57 -2.01,-0.52 -2.56,-0.22 -0.15,0.08 -0.18,0.16 -0.23,0.22zm0.22 0.79l0.02 0.01 -0.03 -0.03c-0.01,0.02 -0.06,-0.02 -0.01,0.02l0.02 0.01zm0.04 -0.01l0.1 -0.02c-0.03,-0.03 -0.04,-0.04 -0.1,-0.02 -0.07,0.02 -0.05,0.02 -0.01,0.04zm0.12 -0.03l0.02 0c0.03,-0.04 0.14,-0.04 0.22,-0.07 -0.14,0.01 -0.14,0.04 -0.28,0.05l0.04 0.02z"/>
   <path class="fil3" d="M1.66 9.38c0.13,-0.03 0.22,0.01 0.38,-0 0.03,-0 0.06,-0 0.09,-0 0.05,0 0.11,-0.01 0.17,0.01 0.15,0.03 0.82,-0.06 0.93,-0.15 0.06,-0.05 0,-0.21 -0.04,-0.25 -0.07,-0.01 -0.36,0.04 -0.46,0.04 -0.15,0.01 -0.3,0.02 -0.46,0.03 -0.02,0.02 -0,0.01 -0.03,0.02l-0.46 0c-0.09,-0.01 -0.02,0 -0.05,-0.02 -0.24,0 -0.88,-0.08 -0.93,-0.07 -0.12,0.28 -0.02,0.28 0.24,0.34 0.14,0.03 0.48,0.08 0.62,0.07z"/>
   <path class="fil3" d="M3.4 3.66c-0.02,0.02 -0.03,-0.03 -0.01,0.03 0,-0.17 0.02,-0.92 -0.01,-1.03 -0.02,0.03 -0.02,4.46 -0.02,5.24 -0,0.3 -0.04,0.29 0.05,0.51l0.06 0.13c0,0 0,0.01 0.01,0.01 0.04,-0.08 0.04,-1.01 0.04,-1.09 0,-0.17 0.03,-1.03 -0.01,-1.11l-0.12 0.01 -0 -0.15c0.08,-0.01 0.09,-0.01 0.14,-0.04 0.02,-0.2 0,-0.95 0.01,-1.22l0 -0.91c0,-0.11 0.01,-0.14 -0.07,-0.16 -0.07,-0.02 -0.06,0.03 -0.06,-0.11 0,-0.06 -0.01,-0.05 0.01,-0.09z"/>
   <path class="fil3" d="M0.6 3.67l0 0.18c-0,0 -0.01,-0 -0.01,0l-0.05 0.01c-0.07,0.02 -0.07,0.05 -0.06,0.16 0,0.1 -0,0.2 -0,0.3 -0,0.19 -0.01,1.77 0.01,1.81 0.02,0.03 0.01,0.03 0.05,0.04l0.05 0.02c0,0 0.01,0 0.01,0 0,0 0.01,0 0.01,0.01l0 0.15c-0.16,-0.03 -0.12,-0.04 -0.12,0.44 0,0.2 0,0.4 0,0.6 0,0.06 0.01,1.05 0.03,1.11 0.01,0.03 0.01,0.02 0.02,0.04l0.1 -0.24c0.02,-0.07 0.01,-0.24 0.01,-0.32 -0.02,-1.55 0,-3.09 -0.01,-4.63 -0,0 -0,0.01 -0.01,0.01l-0.02 0.3z"/>
   <path class="fil2" d="M3.25 2.29c0.02,0.02 0.01,-0 0.02,0.03 0,0.02 -0,0.02 -0,0.04 -0.01,0.03 -0.01,0.05 -0.02,0.08 -0.07,0.38 -0.06,0.97 -0.05,1.36l0 3.25c0,0.53 0.01,1.1 -0.01,1.62 -0.04,0.01 -0.49,-0.01 -0.58,-0.02 -0.46,-0.01 -1.43,-0.02 -1.82,0.03 0.01,0.05 0.04,0.07 0.02,0.14 -0.03,0.05 -0.04,0.02 -0.09,0.1 -0.03,0.05 -0.03,0.07 -0.06,0.12 -0.03,0.01 -0.03,-0.01 -0.05,0 -0.02,0.01 -0.02,-0.02 -0.02,0.05 0,-0 0,-0.01 0.01,-0.01 0.01,0.02 -0,-0.01 0.03,-0.03 0.01,0.01 -0.01,0.01 0.03,0.02 0.03,0.01 0.01,0.01 0.04,0.01l0.02 0.06c0,-0.04 0.01,-0.02 -0,-0.06 -0.03,-0.08 0.04,-0.18 0.12,-0.22l0.01 -0.16c0.13,-0.03 0.96,-0.03 1.15,-0.03 0.35,0 0.83,-0.02 1.17,0.02 0,0.03 0,0.05 0,0.08 0,0.01 0,0.04 0,0.05 0.01,0.04 -0,0.02 0.03,0.05 0.02,-0.05 0,0.01 -0.01,-0.07 -0.01,-0.05 -0.01,-0.06 0.01,-0.09 0.04,-0.09 0.02,-0.49 0.02,-0.6l0 -4.18c0,-0.37 -0.01,-0.87 0.02,-1.24 0.01,-0.13 0.04,-0.24 0.06,-0.37 0.07,0.02 0.06,0.04 0.1,0.08l0 -0.01 -0.03 -0.02c-0,-0 -0.01,-0 -0.01,-0.01l-0.04 -0.03c-0.02,-0.02 -0.01,-0 -0.02,-0.02 0,-0 0.01,-0.03 0.02,-0.04l-0.03 0.04 -0.04 -0.01zm0.1 6.86l-0.01 0.01c0,0.05 -0,0.02 0.01,0.03l0.01 -0.01c-0,-0.08 -0.01,-0.03 -0.03,-0.09 0.07,-0.03 0.03,-0.01 0.07,0.01 -0,-0.06 -0.02,-0.04 -0.02,-0.04l-0.04 -0c-0,0 -0.01,0 -0.01,0l-0.08 -0.16c-0.05,-0.05 -0.04,-0.02 -0.06,-0l0.1 0.11c0.07,0.14 -0.04,0.04 0.02,0.15l0.05 0zm-2.6 -6.86c-0.04,0.01 -0,-0.01 -0.04,0.02l-0.01 -0.02c-0,-0 -0.01,-0 -0.01,-0.01 -0,-0.01 -0,-0.01 -0.01,-0.01l0.06 0.32c0.04,0.31 0.02,2.45 0.02,2.83 0,1.09 -0.01,2.18 0.01,3.28 0.03,-0.05 0.01,-1.16 0.01,-1.32 0,-1.33 0.01,-2.67 0,-3.99 0.03,-0.02 0.01,-0.01 0.05,-0.01 -0.05,-0.03 -0.05,0.02 -0.05,-0.05 -0.01,-0.4 0.01,-0.5 -0.05,-0.91 -0.02,-0.12 -0.02,-0.09 0,-0.12z"/>
   <path class="fil2" d="M1.08 8.3c0.12,0.04 0.08,-0.12 0.08,-0.37 0,-0.47 0.02,-3.15 -0.02,-3.18 -0.11,-0.1 -0.08,0.26 -0.08,0.37 0,0.51 -0.02,3.11 0.01,3.19z"/>
   <path class="fil2" d="M0.7 0.55c0.04,-0.02 0.02,-0.01 0.05,-0.04 0.05,-0.06 0.07,-0.08 0.14,-0.12 -0,-0 -0.01,-0.01 -0.01,-0.01 -0,0 -0.01,-0.01 -0.01,-0.01 -0.06,-0.02 -0.06,0.04 -0.12,0.07 0.03,-0.06 0.12,-0.14 0.21,-0.16 -0.03,0.02 -0.06,0.04 -0.09,0.05 0.07,0.06 -0.02,0.05 0.13,-0.03 0.05,-0.03 0.08,-0.05 0.14,-0.07 0.02,-0.03 0.08,-0.04 0.11,-0.05 0.02,-0 0.01,0 0.01,-0.02l0.03 -0.06c-0.24,0.02 -0.63,0.25 -0.7,0.55l0.08 -0.1c0.03,-0.03 0.01,-0.05 0.03,-0.01zm-0.1 0.94l0.01 -0.04c-0.02,-0.16 0.04,-0.79 0.09,-0.9l-0.06 0.05c-0.02,0.02 -0,-0 -0.02,0.03 -0.01,0.02 -0.01,0.02 -0.02,0.05l0.05 -0.07c0.01,-0.01 0.02,-0.01 0.02,-0.02 -0.06,0.24 -0.1,0.56 -0.09,0.86 -0.05,-0.01 -0.03,-0.02 -0.06,-0.01l0.02 0.02c0.04,0 0.03,0 0.06,0.02zm0.66 -1.32c0.12,-0.03 0.13,-0.03 0.25,-0.04 0.01,-0 0.03,-0 0.04,-0.01 0.07,-0.02 0.02,-0.01 0.04,-0.02 -0.08,-0.03 -0.2,0 -0.28,0.03 -0.01,-0.01 -0.01,0 0,-0.02 0.03,0.01 0.02,0.01 0.02,-0.02 -0.03,0 -0.02,-0.01 -0.02,0.02 -0.02,0.01 -0.01,0 -0.03,0.02 -0.01,0.01 -0.01,0.02 -0.02,0.03zm1.55 0.04c-0.01,-0.02 -0.01,-0 0.01,-0.02 0.01,0.02 -0.01,0.01 0.03,0.02l0.02 0.01c0,-0.03 0,-0.02 -0.02,-0.01l-0.04 -0.04c0.07,0.02 0.25,0.15 0.31,0.17l0.01 0.01c0.02,0.03 0.11,0.06 0.26,0.25 0.03,0.04 0.02,0.02 0.05,0.04 -0.03,-0.06 0.03,-0.01 -0.1,-0.2 -0.13,-0.18 -0.41,-0.34 -0.62,-0.35 0.02,0.02 0.02,0.02 0.03,0.04l-0.05 -0.03c-0.03,0.02 0.04,0.02 -0.06,0.01l-0.19 -0.03c-0.05,-0.01 -0.09,-0.01 -0.14,-0.01l-0.03 -0c-0.15,-0.02 -0.58,-0 -0.72,0.01 0.06,0.05 0.03,0.03 0.17,0.02 0.28,-0.02 0.55,-0.01 0.82,0.03 0.26,0.03 0.25,0.14 0.25,0.08zm0.39 0.2l0.02 0.02c0.06,0.06 0.13,0.08 0.13,0.25 0.03,-0.06 -0.01,-0 0.01,-0.05l0.02 -0.03c0,0.01 0,0.02 0.01,0.03l0.01 0.02c0,0 0.01,0.01 0.01,0.01 -0.01,-0.03 -0.02,-0.04 -0.04,-0.08l-0.04 -0.05c-0,-0 -0.01,-0.01 -0.01,-0.01 -0.03,-0.05 -0.06,-0.07 -0.12,-0.11zm0.21 1.05l0.01 0.03c0.03,-0.01 0.03,-0.01 0.05,-0l0.01 0.17c0.02,-0.01 0.01,-0.01 0.04,-0.01 -0,0.1 -0.01,0.13 0.02,0.15 0.02,-0.02 0.01,0.01 0.01,-0.03 0.01,-0.03 -0,-0.52 -0.02,-0.54 0.01,-0.05 0.01,-0.11 -0.01,-0.15 0.01,-0.04 0.01,-0.08 -0.01,-0.11 0,-0.04 0.01,-0.05 -0.01,-0.07l0.01 0.07c-0.01,0.04 0,0.07 0.01,0.11 -0.01,0.04 -0,0.11 0.01,0.15 -0.02,0.06 0.01,0.4 0,0.51 0,-0.05 0,-0.06 -0.02,-0.1 -0,-0 -0.01,-0.01 -0.01,-0.01l-0.01 -0.02c-0.02,-0.04 -0.01,-0.12 -0,-0.16l-0.02 -0.01c-0.06,-0.02 -0.03,0 -0.04,-0.16l-0.02 -0.31c-0,-0 -0,-0.01 -0,-0.01l-0.05 -0.29c-0.01,0.05 0.08,0.56 0.05,0.78zm-0.32 -1.12l-0.02 -0.02c0,0.02 -0.01,0.02 0.02,0.02zm-0.06 -0.04l-0.02 -0.02c0,0.02 -0.01,0.02 0.02,0.02zm-0.06 -0.03c-0.01,-0.02 0,-0.01 -0.03,-0.02 0,0.03 -0.01,0.02 0.03,0.02zm-0.02 -0.01c-0.01,-0.02 0,-0.01 -0.03,-0.02 0,0.03 -0.01,0.02 0.03,0.02zm-0.02 -0.01c-0.01,-0.02 0,-0.01 -0.03,-0.02 0,0.03 -0.01,0.02 0.03,0.02z"/>
   <path class="fil2" d="M1.99 4.76c-0.02,-0.01 0.01,0 0.01,0.02l0 3.5c-0.04,-0.03 -0.03,-0.05 -0.03,-0.11l0 -3.31c-0,-0.12 -0,-0.09 0.02,-0.1zm-0.04 0.25l0 3.21c-0,0.05 -0,0.05 0.02,0.08 0.08,-0 0.06,-0.1 0.06,-0.25l0 -3.17c0,-0.07 0.01,-0.11 -0.03,-0.15 -0.05,0.02 -0.05,0.04 -0.05,0.11 0,0.06 0,0.11 0,0.17z"/>
   <path class="fil2" d="M1.67 4.74c0.05,0.03 0.03,0.07 0.03,0.2l0 3.13c0,0.04 0,0.07 0,0.11 0,0.12 -0,0.09 -0.03,0.1l-0 -3.53zm-0.02 0.09l0 3.31c0,0.08 -0.02,0.15 0.05,0.15 0.04,-0.04 0.03,-0.11 0.03,-0.19l0 -3.09c-0,-0.09 0.01,-0.23 -0.02,-0.29 -0.07,0.01 -0.06,0.04 -0.06,0.11z"/>
   <path class="fil3" d="M3.42 3.61c0.03,-0.03 0.02,-0.02 0.03,-0.07 0.01,-0.03 0.02,-0.06 0.02,-0.09 0.07,-0.33 0.03,-1.09 0.03,-1.44 -0.02,0.03 -0,-0 -0.01,0.04 -0.06,0.27 -0.08,0.39 -0.09,0.7 -0,0.28 -0.01,0.57 0.01,0.84 -0,-0 0,-0.03 0.01,0.01z"/>
   <path class="fil2" d="M2.74 4.39c-0,-0.02 -0.01,-0.02 0.01,-0.01 -0.01,-0.03 -0.01,-0.02 0.02,-0.02 0.04,-0.03 0.03,-0.74 0,-0.79 -0.06,-0.1 -0.2,-0.07 -0.34,-0.07l-0.85 -0c-0.44,0 -0.41,-0.01 -0.41,0.43 0,0.08 -0.01,0.36 0.01,0.41 0.03,0 0.02,-0 0.01,0.03 0.04,0.02 0.04,0.03 0.07,0.06 0.09,0.02 1.28,0.02 1.41,0 0.01,-0.02 -0.02,-0.03 0.03,-0.02l0.03 -0c-0,-0 -0.01,-0 -0.01,-0l-0.06 -0c-0.14,0.01 -1.36,0.01 -1.38,-0 -0.03,-0.01 0,0 -0.03,-0.01 -0.03,-0.02 -0.04,-0.03 -0.05,-0.06 -0,-0.02 -0,-0.04 -0,-0.06 -0,-0.05 -0,-0.1 -0,-0.14 0,-0.65 -0.06,-0.59 0.33,-0.59l0.91 0c0.38,0 0.32,-0.07 0.32,0.6 0,0.13 0.02,0.23 -0.05,0.25 0.02,0.02 -0,0.02 0.02,0.01z"/>
   <path class="fil2" d="M1.67 8.28c0.03,-0.01 0.03,0.02 0.03,-0.1 -0,-0.04 -0,-0.07 -0,-0.11l-0 -3.13c0,-0.12 0.02,-0.17 -0.03,-0.2l0 3.53z"/>
   <path class="fil2" d="M0.87 9.46l0.03 0.02c0,0 0.01,0 0.01,0l1.15 0.11c0.03,-0 0.07,-0 0.1,-0.01 0.05,-0 0.14,0.01 0.18,-0.03l-0.34 0.01 -0 -0.16c0.06,0.01 0.11,0 0.16,0 0.06,-0 0.1,0.01 0.13,-0.01 -0.05,-0.01 -0.11,-0.01 -0.17,-0.01 -0.03,-0 -0.06,-0 -0.09,0 -0.16,0.02 -0.25,-0.03 -0.38,0 0.04,0.03 0.26,0.02 0.32,0.01l-0 0.16 -0.19 -0.01c0.02,-0.02 0.04,-0.03 0.05,-0.06 -0.05,-0.07 -0.25,-0.05 -0.33,-0.04 -0.01,0.01 -0,0.01 -0.01,0.02l-0.6 -0.06 -0.01 0.06 -0.03 -0z"/>
   <path class="fil2" d="M1.99 4.76c-0.02,0.02 -0.02,-0.02 -0.02,0.1l-0 3.31c0,0.06 -0.01,0.08 0.03,0.11l-0 -3.5c-0,-0.02 -0.02,-0.03 -0.01,-0.02z"/>
   <path class="fil2" d="M2.86 3.57c-0.02,0.09 -0.03,0.58 -0.02,0.71 0,0.05 0.01,0.07 0.01,0.12 -0.01,0.08 -0.02,0.03 0,0.11 0.06,0 0.07,0.01 0.08,-0.07 0.01,-0.1 0.01,-0.84 -0.01,-0.87 -0.04,-0.05 0.01,0.02 -0.04,0 -0.03,-0.01 0.02,-0.02 -0.01,-0.01z"/>
   <path class="fil2" d="M1.1 3.55c-0.06,0.03 -0.03,0.61 -0.03,0.75 -0,0.05 -0.03,0.23 0.04,0.21 0.01,-0 0.03,0.02 0.03,-0.09l-0 -0.79c-0,-0.05 0,-0.07 -0.04,-0.08z"/>
   <path class="fil5" d="M3.65 2c0.01,0.09 0.05,0.09 0.13,0.11 0.06,0.02 0.09,0.05 0.15,0.05 0.02,-0.05 0.01,-0.06 0.02,-0.07 0,-0.01 0.01,0.01 0.01,-0.02 -0.01,-0.12 0,-0.12 -0.07,-0.17 -0.04,-0.03 -0.12,-0.08 -0.19,-0.06l-0.01 0.1 0.13 0.04c0.05,0.02 0.06,0.01 0.1,0.05 0,0 0.01,0.01 0.01,0.01 0.02,0.03 0.01,0.02 0,0.05 -0.01,-0.02 -0.01,-0.02 -0.02,-0.03l-0.01 -0.01c-0.03,-0.03 -0.06,-0.04 -0.08,-0.04 -0.08,-0.03 -0.09,-0.04 -0.17,-0z"/>
   <path class="fil5" d="M0.34 2.07c0.02,-0.11 -0.01,-0.11 -0.1,-0.08 -0.25,0.07 -0.24,0.22 -0.08,0.15 0.06,-0.02 0.13,-0.05 0.18,-0.07z"/>
   <path class="fil6" d="M1.72 8.95l0 -0c0.09,-0.02 0.51,0.02 0.53,-0.02 0,-0 0.01,-0 0.01,-0.01 -0.02,-0.04 -0,-0.04 -0.06,-0.04l-0.24 0c-0.22,-0 -0.27,-0.03 -0.25,0.07z"/>
   <path class="fil5" d="M1.72 8.95c-0.03,-0.1 0.02,-0.07 0.25,-0.07l0.24 -0c0.05,0 0.04,-0 0.06,0.04 -0,0 -0.01,0 -0.01,0.01 -0.02,0.03 -0.44,-0 -0.53,0.02 0.05,0.02 0.2,0.01 0.26,0.02l0 0.1 -0.25 -0.01c0.03,0.02 -0.04,0.01 0.05,0.02l0.46 -0c0.03,-0.01 0.02,-0 0.03,-0.02l-0.27 0.01 0 -0.1 0.25 -0.01c0.03,-0.01 0.01,-0.01 0.03,-0.02 -0.01,-0.07 -0.02,-0.06 -0.1,-0.06 -0.11,0 -0.39,-0.01 -0.46,0.01 -0,0.01 -0.01,0.04 -0.01,0.04 0.01,0.04 -0.02,0 0.02,0.03z"/>
   <path class="fil5" d="M2.34 9.44c-0.05,-0 -0.04,-0.02 -0.09,-0.01 -0.02,0 -0.01,0.01 -0.04,0.02 -0.09,0.02 -0.11,-0.03 -0.13,0.04 0.03,0.03 0.04,0.02 0.09,0.02l0.21 -0.01c0.08,-0.01 0.07,-0.02 0.07,-0.04 -0.02,-0.02 0,-0.01 -0.03,-0.02 -0.03,-0.01 -0.05,0 -0.08,0z"/>
   <path class="fil5" d="M0.07 2.01l0.15 -0.06c0.01,-0.01 -0,-0.02 0.02,-0.03 0.06,-0.03 0.04,0.01 0.07,-0.04 -0.05,-0.11 -0.24,-0 -0.24,0.14z"/>
   <path class="fil6" d="M3.36 9.21l-0.04 0.04 -0 0.11c0.05,-0.01 0.1,-0.02 0.12,-0.06 0.02,0.01 0.02,0.01 0.01,-0.01 0.02,0.01 0.01,0.01 0.01,-0.02 0.02,-0.01 0.01,0 0.01,-0.03l-0.01 0.03c-0.02,-0 -0.01,-0.01 -0.01,0.02 -0.02,-0.01 -0.02,-0.01 -0.01,0.01 -0.05,0.01 -0.05,0.03 -0.1,0.03l0.01 -0.05c0.07,-0.04 0.07,-0.03 0.13,-0.08 0.03,-0.06 0.01,-0.09 0.01,-0.14 -0.03,0.08 -0.03,0.15 -0.13,0.16z"/>
   <path class="fil4" d="M1.99 2.5c0.02,-0.05 0,-0.12 0.02,-0.17 0.07,-0.21 -0.12,-0.17 -0.05,-0.01 0.02,0.04 0.02,0.02 0.02,0.08 0,0.04 -0.01,0.06 0.01,0.09z"/>
   <path class="fil6" d="M0.51 9.19c0.01,0 0.04,0.04 0.07,0.06 0.06,0.03 0.06,0.01 0.08,0.09l-0.11 -0.04 -0.01 -0.01 -0.01 -0.02 -0.01 -0.02 0.01 0.02 0.01 0.02c-0,0.02 -0,0.01 0.01,0.01 0.03,0.04 0.07,0.05 0.12,0.06l-0.02 -0.11c-0.03,-0.02 -0.04,-0.01 -0.08,-0.05 -0.02,-0.02 -0.02,-0.02 -0.04,-0.04 -0.01,-0.01 -0.02,-0.02 -0.03,-0.04 -0.02,0.01 -0.02,-0.02 -0.01,0.04 0,0.02 0.01,0.02 0.01,0.03z"/>
   <path class="fil7" d="M0.53 9.25l0.01 0.02 0.01 0.02 0.01 0.01 0.11 0.04c-0.02,-0.08 -0.01,-0.06 -0.08,-0.09 -0.03,-0.02 -0.06,-0.05 -0.07,-0.06l0.02 0.06z"/>
   <path class="fil7" d="M3.45 9.3c-0.01,-0.02 -0.01,-0.02 0.01,-0.01 -0.01,-0.02 -0.01,-0.02 0.01,-0.02l0.01 -0.03 0 -0.03c-0.05,0.05 -0.06,0.04 -0.13,0.08l-0.01 0.05c0.05,0 0.06,-0.02 0.1,-0.03z"/>
   <path class="fil8" d="M0.54 9.32c0.02,0.06 -0,0.06 0.06,0.08 0.03,0.01 0.06,0.02 0.09,0.01 -0.01,-0.06 -0.01,-0.03 -0.07,-0.06 -0.03,-0.01 -0.05,-0.03 -0.08,-0.04z"/>
   <path class="fil9" d="M3.31 9.42c0.08,-0.01 0.13,-0.02 0.14,-0.09 -0.03,0.01 -0.05,0.02 -0.09,0.04 -0.06,0.02 -0.05,0 -0.06,0.06z"/>
   <path class="fil10" d="M1.22 0.24c-0.1,0.23 -0.23,0.63 -0.35,0.82 0.13,-0.25 0.21,-0.55 0.33,-0.83 0,-0.01 0.01,-0.01 0.02,-0.01 0.01,0 0.01,0.01 0.01,0.02zm0.04 -0.08c0.05,-0.01 0.1,-0.02 0.15,-0.02 0.05,-0.01 0.1,-0.01 0.15,-0.02 0.05,-0.01 0.1,-0.01 0.16,-0.01 0.05,-0 0.11,-0 0.17,-0.01 0.06,-0 0.12,-0 0.19,-0 0.06,0 0.13,0 0.19,0 0.06,0 0.12,0.01 0.17,0.01 0.05,0 0.1,0.01 0.15,0.02 0.04,0.01 0.08,0.01 0.11,0.02 0.03,0.01 0.05,0.01 0.07,0.02 0.04,0.01 0.05,0.02 0.06,0.02l0.01 0.01 0.01 0 -0 0.01c0.12,0.27 0.2,0.57 0.33,0.83 -0.12,-0.18 -0.25,-0.59 -0.35,-0.82 -0,-0 -0,-0 -0,-0.01l-0 -0c-0.01,-0 -0.03,-0.01 -0.06,-0.02 -0.02,-0.01 -0.04,-0.01 -0.07,-0.02 -0.03,-0.01 -0.06,-0.01 -0.1,-0.02 -0.04,-0.01 -0.09,-0.01 -0.14,-0.02 -0.05,-0 -0.11,-0.01 -0.17,-0.01 -0.06,-0 -0.12,-0 -0.19,-0 -0.06,0 -0.13,0 -0.19,0 -0.06,0 -0.12,0 -0.17,0.01 -0.05,0 -0.11,0.01 -0.16,0.01 -0.05,0 -0.1,0.01 -0.15,0.02 -0.05,0.01 -0.1,0.02 -0.15,0.02l-0 -0.03z"/>
   <path class="fil2" d="M2.82 8.3c0.12,0.04 0.08,-0.12 0.08,-0.37 0,-0.47 0.02,-3.15 -0.02,-3.18 -0.11,-0.1 -0.08,0.26 -0.08,0.37 0,0.51 -0.02,3.11 0.01,3.19z"/>
   <path class="fil2" d="M2.33 4.74c0.05,0.03 0.03,0.07 0.03,0.2l0 3.13c0,0.04 0,0.07 0,0.11 0,0.12 -0,0.09 -0.03,0.1l-0 -3.53zm-0.02 0.09l0 3.31c0,0.08 -0.02,0.15 0.05,0.15 0.04,-0.04 0.03,-0.11 0.03,-0.19l0 -3.09c-0,-0.09 0.01,-0.23 -0.02,-0.29 -0.07,0.01 -0.06,0.04 -0.06,0.11z"/>
   <path class="fil2" d="M2.33 8.28c0.03,-0.01 0.03,0.02 0.03,-0.1 -0,-0.04 -0,-0.07 -0,-0.11l-0 -3.13c0,-0.12 0.02,-0.17 -0.03,-0.2l0 3.53z"/>
   <path class="fil10" d="M0.56 0.66c0.02,-0.02 0.04,-0.04 0.06,-0.06 0.02,-0.02 0.04,-0.03 0.05,-0.04 0.01,-0.01 0.02,-0.02 0.03,-0.02 0.01,-0.01 0.02,-0.02 0.04,-0.03 0.01,-0.01 0.02,-0.01 0.02,-0.02 0.03,-0.03 0.07,-0.06 0.11,-0.09 0.03,-0.02 0.05,-0.04 0.08,-0.05 0.03,-0.02 0.05,-0.03 0.08,-0.05 0.04,-0.02 0.07,-0.04 0.11,-0.05 0.02,-0.01 0.03,-0.01 0.04,-0.02 0.02,-0.01 0.03,-0.01 0.03,-0.02 0.01,-0 0.01,-0.01 0.01,-0.01 0.01,-0.01 0.01,-0.02 0.02,-0.02 0,-0 0.01,-0.01 0.01,-0.02 0.01,-0.02 0.03,-0.03 0.04,-0.05l0 0 0.02 0.02 0 0c-0.01,0.02 -0.03,0.03 -0.04,0.05 -0,0 -0.01,0.01 -0.01,0.02 -0.01,0.01 -0.01,0.02 -0.02,0.03 -0.01,0.01 -0.01,0.01 -0.02,0.02 -0.01,0.01 -0.02,0.01 -0.04,0.02 -0.01,0.01 -0.03,0.01 -0.04,0.02 -0.03,0.01 -0.07,0.03 -0.1,0.05 -0.03,0.01 -0.05,0.03 -0.08,0.04 -0.03,0.02 -0.05,0.03 -0.07,0.05 -0.04,0.03 -0.08,0.07 -0.11,0.09 -0.01,0.01 -0.02,0.02 -0.02,0.02 -0.02,0.02 -0.03,0.03 -0.04,0.03 -0.01,0.01 -0.02,0.01 -0.03,0.02 -0.01,0.01 -0.03,0.03 -0.05,0.04 -0.02,0.02 -0.04,0.04 -0.06,0.06l-0.02 -0.02z"/>
   <path class="fil10" d="M3.47 0.66c-0.02,-0.02 -0.04,-0.04 -0.06,-0.06 -0.02,-0.02 -0.04,-0.03 -0.05,-0.04 -0.01,-0.01 -0.02,-0.02 -0.03,-0.02 -0.01,-0.01 -0.02,-0.02 -0.04,-0.03 -0.01,-0.01 -0.02,-0.01 -0.02,-0.02 -0.03,-0.03 -0.07,-0.06 -0.11,-0.09 -0.03,-0.02 -0.05,-0.04 -0.08,-0.05 -0.03,-0.02 -0.05,-0.03 -0.08,-0.05 -0.04,-0.02 -0.07,-0.04 -0.11,-0.05 -0.02,-0.01 -0.03,-0.01 -0.04,-0.02 -0.02,-0.01 -0.03,-0.01 -0.03,-0.02 -0.01,-0 -0.01,-0.01 -0.01,-0.01 -0.01,-0.01 -0.01,-0.02 -0.02,-0.02 -0,-0 -0.01,-0.01 -0.01,-0.02 -0.01,-0.02 -0.03,-0.03 -0.04,-0.05l0 0 -0.02 0.02 0 0c0.01,0.02 0.03,0.03 0.04,0.05 0,0 0.01,0.01 0.01,0.02 0.01,0.01 0.01,0.02 0.02,0.03 0.01,0.01 0.01,0.01 0.02,0.02 0.01,0.01 0.02,0.01 0.04,0.02 0.01,0.01 0.03,0.01 0.04,0.02 0.03,0.01 0.07,0.03 0.1,0.05 0.03,0.01 0.05,0.03 0.08,0.04 0.03,0.02 0.05,0.03 0.07,0.05 0.04,0.03 0.08,0.07 0.11,0.09 0.01,0.01 0.02,0.02 0.02,0.02 0.02,0.02 0.03,0.03 0.04,0.03 0.01,0.01 0.02,0.01 0.03,0.02 0.01,0.01 0.03,0.03 0.05,0.04 0.02,0.02 0.04,0.04 0.06,0.06l0.02 -0.02z"/>
   <path class="fil2" d="M1.57 0.09c0.14,-0.01 0.57,-0.03 0.72,-0.01l0.03 0c0.05,0 0.09,0 0.14,0.01l0.19 0.03c0.09,0.01 0.03,0.01 0.06,-0.01l-0 -0c-0.08,-0.05 -0.2,-0.05 -0.32,-0.06 -0.12,-0.01 -0.25,-0.02 -0.37,-0.02 -0.12,-0 -0.64,0.01 -0.69,0.07 0,0 0,0 0,-0 0,0.03 0.01,0.02 -0.02,0.02 -0,0 -0,0 -0,0.01 -0.01,0.01 -0.01,0 0,0.01 0.07,-0.03 0.2,-0.06 0.28,-0.03 -0.01,0.01 0.01,0 -0,0.01 0.01,-0 0.01,-0 0.02,-0 -0.01,-0.01 -0.02,-0.01 -0.03,-0.02z"/>
   <path class="fil11" d="M1.24 0.13c-0.01,0.02 -0.03,0.05 -0.07,0.08 -0.04,0.03 -0.11,0.07 -0.18,0.1 -0.07,0.03 -0.13,0.07 -0.19,0.11 -0.06,0.04 -0.12,0.1 -0.15,0.13 -0.03,0.03 -0.04,0.05 -0.02,0.02 0.01,-0.02 0.05,-0.08 0.1,-0.14 0.05,-0.06 0.1,-0.11 0.15,-0.15 0.05,-0.04 0.1,-0.07 0.15,-0.09 0.04,-0.02 0.08,-0.04 0.12,-0.05 0.04,-0.01 0.08,-0.02 0.1,-0.03 0.02,-0 0.01,-0 -0,0.01z"/>
   <path class="fil11" d="M2.8 0.13c0.01,0.02 0.03,0.05 0.07,0.08 0.04,0.03 0.11,0.07 0.18,0.1 0.07,0.03 0.13,0.07 0.19,0.11 0.06,0.04 0.12,0.1 0.15,0.13 0.03,0.03 0.04,0.05 0.02,0.02 -0.01,-0.02 -0.05,-0.08 -0.1,-0.14 -0.05,-0.06 -0.1,-0.11 -0.15,-0.15 -0.05,-0.04 -0.1,-0.07 -0.15,-0.09 -0.04,-0.02 -0.08,-0.04 -0.12,-0.05 -0.04,-0.01 -0.08,-0.02 -0.1,-0.03 -0.02,-0 -0.01,-0 0,0.01z"/>
  </g>
 </g>
</svg>
