<?xml version="1.0" encoding="UTF-8"?>
<!DOCTYPE svg PUBLIC "-//W3C//DTD SVG 1.1//EN" "http://www.w3.org/Graphics/SVG/1.1/DTD/svg11.dtd">
<!-- Creator: CorelDRAW -->
<svg xmlns="http://www.w3.org/2000/svg" xml:space="preserve" width="2.0397mm" height="4.7001mm" version="1.1" style="shape-rendering:geometricPrecision; text-rendering:geometricPrecision; image-rendering:optimizeQuality; fill-rule:evenodd; clip-rule:evenodd"
viewBox="0 0 5.5 12.67"
 xmlns:xlink="http://www.w3.org/1999/xlink"
 xmlns:xodm="http://www.corel.com/coreldraw/odm/2003">
 <defs>
  <style type="text/css">
   <![CDATA[
    .fil9 {fill:#012563}
    .fil4 {fill:#054587}
    .fil2 {fill:#060606}
    .fil10 {fill:#0776C3}
    .fil15 {fill:#146F13}
    .fil1 {fill:#24282D}
    .fil16 {fill:#2C8ECB}
    .fil14 {fill:#4C3521}
    .fil19 {fill:#516C94}
    .fil12 {fill:#520505}
    .fil11 {fill:#575758}
    .fil18 {fill:#6F90B5}
    .fil17 {fill:#838484}
    .fil7 {fill:#8F0A09}
    .fil6 {fill:#A4A4A4}
    .fil13 {fill:#A7995C}
    .fil3 {fill:#CAC9C9}
    .fil8 {fill:#D1AD2E}
    .fil5 {fill:#D8E6F1}
    .fil20 {fill:#E2422F}
    .fil0 {fill:#FCFCFC}
   ]]>
  </style>
 </defs>
 <g id="Camada_x0020_1">
  <metadata id="CorelCorpID_0Corel-Layer"/>
  <g id="_1770231793520">
   <path class="fil0" d="M1.1 11.72l-0.02 -0.14 0.13 0 0.01 -0.15 -0.11 0 -0.03 -0.12c-0.03,-0.01 -0.01,0.08 -0.02,0.01 -0,-0 -0,-0.08 -0,-0.08 0,-0.15 0.04,0.05 0.03,-0.12 -0,-0.09 -0.01,-0.11 -0.01,-0.21l0.01 -0.97c0,-0.52 -0.01,-1.05 0.01,-1.57 -0.02,-0.02 -0.01,-0.01 -0.04,-0.02 -0.02,-0.01 0.01,-0 -0.04,-0.01 0.05,-0.03 0.07,-0.01 0.07,-0.05 0,-0 0.04,-3.44 0.01,-3.8 -0.01,-0.08 -0.01,-0.17 -0.02,-0.25 -0.01,-0.09 -0,-0.27 -0.03,-0.2 -0.02,0.13 0.01,0.36 0.01,0.5 0.01,0.49 -0.03,1.03 -0.01,1.47 0.01,0.35 0.02,1.72 -0.06,1.97 -0.08,-0.01 -0.07,-0.02 -0.11,-0.07l-0.01 -0.01c-0.04,0.04 -0.02,0.56 -0.02,0.61 0.08,0.05 0.13,0.05 0.15,0.12 0.02,0.08 0.02,1.49 -0.01,1.6 -0.03,0.12 -0.05,0.09 -0.04,0.24 0.02,0.22 0.03,0.46 0.04,0.69 0.01,0.15 0.06,0.5 -0.16,0.56 -0.1,-0.31 -0.1,-2.64 -0.1,-3.15 -0,-0.16 0.02,-0.33 -0.04,-0.41 -0.03,0 -0.02,0.01 -0.02,-0.02 -0.03,0.01 -0.02,0.01 -0.02,-0.02 -0.03,0.01 -0.02,0.01 -0.02,-0.02 -0.05,0.03 -0.03,0.06 -0.04,0.19 -0.02,0.22 -0.02,0.52 -0.02,0.75 0.02,0.38 -0.01,1.2 0.02,1.47 0.01,0.17 0.04,0.12 0.05,0.46 0.01,0.3 0.03,0.63 0.06,0.93l0.05 0.03 0.06 0.21 0.01 0 0 0c-0.01,0.04 -0.02,0.03 0.02,0.02 -0.02,0.05 -0.01,0 0.02,0.02l-0 0.01 0 0.01 0.01 0 -0.02 -0.01 -0.05 -0.05c-0.03,-0.15 -0.05,-0.14 -0.05,-0.36 0.05,-0.04 0.05,-0.01 0.14,-0.08 0.03,0.23 -0.01,0.25 0.08,0.32l0.05 0.05c0.05,-0.07 0.08,-0.13 0.13,-0.2l-0.02 -0.04c-0.04,-0.2 0.01,0.12 0.04,-0.08 -0.14,0.01 -0.04,-0.01 -0.06,0.02l-0.02 0.04 -0.04 -0.09zm0.01 0.33c0.02,0.09 0.02,0.02 -0.04,0.08l-0.02 0.02 -0.02 0.1c0.05,0.01 0.23,0.04 0.26,0.06 0.04,0 0.03,-0.01 0.03,0.03l0.05 0.01 0.05 0c0.01,-0.04 -0,-0.02 0.04,-0.03l0.08 -0.01c-0.42,-0.02 -0.43,-0.06 -0.3,-0.27 0.05,-0.1 0.08,-0.1 0.23,-0.09 0.15,0.01 0.47,0.05 0.6,0.03l0.28 -0c-0.03,-0.04 -0,-0.01 -0.05,-0.04l0.07 -0.01c0.13,0.01 0.67,0.02 0.78,-0.01 0.16,-0.04 0.4,-0.03 0.56,-0.04 0.15,-0.01 0.39,-0.02 0.52,-0.05l-0 -0.23 -0.08 -0 -0 0.15 -0.15 0 -0.01 -0.16 -0 -0.15 0 -0.17 0 -0.15 0 -0.15 -0.01 -0.02 0 -0.13 0.01 -0.02 0 -0.15 0.16 0 0 0.11 0.07 0.01c0.05,-0.05 0.02,-1.06 0.02,-1.22l0 -2.5c-0,-0.39 0.03,-0.86 0,-1.24 -0.09,0.08 -0.19,0.06 -0.35,0.06l-1.98 0c-0.13,0 -0.26,0 -0.4,0 -0.16,0 -0.22,0.01 -0.26,-0.14 -0,-0.03 0.01,-0.01 -0.01,-0.03 -0.01,0.02 -0.01,0 -0.01,0.03l-0 1.17c-0,0.41 0,0.81 0,1.22 0,0.8 -0.02,1.64 0,2.44l-0.01 0.18 0.1 0.03c-0,-0.08 -0.04,-0.16 0.11,-0.14 0.07,0.01 0.07,0.01 0.08,0.07l-0 0.48c-0,0.16 0.01,0.39 -0,0.55 -0.02,0.01 -0.05,0.01 -0.09,0.01 -0.1,-0 -0.07,-0.03 -0.09,-0.1 -0.02,-0.07 0.02,-0.05 -0.07,-0.06 -0.04,0.06 -0.02,0.09 -0.01,0.24l-0 0.01 1.04 0.08c-0.09,0.04 -0.43,-0 -0.55,-0.01 -0.11,-0.01 -0.42,-0.06 -0.5,-0.03 -0.07,0.07 -0.07,0.11 -0.13,0.19zm2.22 -3.01c0.02,0.04 0.04,0.15 0.04,0.2 0,0.01 -0,0.08 -0,0.09 -0.01,0.07 -0.02,0.03 -0.02,0.11 0.01,0.01 0,0 0.02,0.02 0,0 0,0.01 0.01,0.01l0.02 0.03c-0.09,0.3 -0.28,0.34 -0.46,0.41 -0.09,0.04 -0.11,0.09 -0.2,0.12 -0.12,-0.17 -0.57,-0.15 -0.63,-0.55l0.06 -0.04c-0.01,-0.08 -0.02,0.04 -0.03,-0.15l0.06 -0.31c0.11,-0.12 -0.01,-0.31 -0.06,-0.39 0.02,-0.07 0.04,-0.07 0.09,-0.12 0.03,-0.04 0.05,-0.07 0.08,-0.11 0.11,0.03 0.14,0.06 0.27,0.03 0.1,-0.02 0.12,-0.07 0.2,-0.09 0.17,0.08 0.22,0.14 0.44,0.06 0.06,0.07 0.12,0.14 0.18,0.22 -0.02,0.08 -0.08,0.11 -0.1,0.22 -0.02,0.15 0.03,0.14 0.05,0.25zm-0.57 -1.63c0.02,0.02 0.01,-0.03 0.02,0.04l-0.01 0.35 -0.1 -0c-0.02,-0.08 -0.02,-0.32 0,-0.4 0.06,-0.01 0.06,-0.01 0.08,0.01zm-0.37 0.38c-0.02,-0.08 -0.02,-0.32 0,-0.4 0.12,0 0.08,0 0.08,0.32 0.04,0 0.22,-0.01 0.15,0.07 -0.03,0.03 -0.17,0.01 -0.23,0.01zm-0.17 0c0,-0.1 -0.02,-0.34 0.02,-0.4l0.05 0 0.02 0.23c0,0.21 0,0.17 -0.09,0.17zm0.88 -0c-0,-0.06 0.09,-0.32 0.11,-0.4l0.09 0c0.04,0.05 0.13,0.35 0.13,0.39l-0.08 0 -0.03 -0.08 -0.13 0c-0.02,0.08 -0.01,0.08 -0.1,0.08zm0.39 -0.39c0.05,-0.01 0.11,-0.01 0.16,-0 0.14,0.01 0.16,0.14 0.06,0.22l0.06 0.17 -0.08 -0c-0.04,-0.07 -0.04,-0.13 -0.1,-0.15 -0.03,0.04 -0.01,0.08 -0.02,0.15l-0.08 -0 0.01 -0.39zm-1.5 0.35c-0,0.03 0.01,0.03 -0.02,0.03 -0.02,0.02 0.05,0.02 -0.05,0.02l-0.01 -0.04c-0.03,-0.03 -0.02,-0.01 -0.01,-0.05 -0.02,-0.01 -0.03,-0.01 -0.01,-0.05 -0.02,-0.01 -0.02,-0.01 -0.01,-0.05 -0.03,0.03 -0.02,-0.05 -0.02,0.05l0 0.08c-0,0.09 -0,0.03 -0.01,0.05 -0.01,0 -0.01,0.01 -0.03,0.01 -0.02,0 -0.03,-0 -0.04,-0 -0.02,-0.08 -0.02,-0.32 0,-0.4 0.15,-0.01 0.11,-0 0.11,0.02 0.04,0.01 0.03,0 0.02,0.05 0.03,0.03 0.02,0.01 0.01,0.05 0.03,0.02 0.01,-0 0.02,0.05l0.02 0.06c0.02,-0.08 0.04,-0.17 0.09,-0.24l0.11 0 -0.01 0.39 -0.08 -0 -0 -0.22c-0.02,0.02 -0.01,0 -0.03,0.04l-0.04 0.14zm0.84 -0.36l0.29 0.01 0 0.05c-0.03,0.03 0.01,0 -0.03,0.02 -0.04,0.01 0.02,-0 -0.03,0.01 -0.02,0 -0.01,-0 -0.04,0.01 -0,0.06 -0,0.12 -0,0.17 0,0.09 0.01,0.15 -0.05,0.14 -0.05,-0.03 -0.03,0.05 -0.04,-0.07l0 -0.24 -0.1 -0.01 0.01 -0.07zm0.5 -0.46c-0,-0 -0.01,-0.01 -0.01,-0.01l-0.01 -0.18c0,-0.07 -0,-0.13 0.01,-0.2l0.08 -0 0 0.36c-0.01,0.04 -0,0.02 -0.02,0.04l-0.05 0zm-0.54 -0.4l0.09 0c0.01,0.09 0.02,0.32 -0.01,0.39l-0.08 -0 0.01 -0.4zm-0.3 0l0.09 0 0 0.32 0.15 0 0 0.08 -0.25 -0 0 -0.39zm0.95 0.4c0.02,-0.11 0.08,-0.29 0.12,-0.4l0.07 -0c0.05,0.01 0.14,0.36 0.14,0.4 -0.12,-0 -0.07,0.01 -0.12,-0.08l-0.1 -0c-0.06,0.08 0.02,0.07 -0.12,0.08zm-1.24 -0.39c0.24,-0.1 0.31,0.31 0.13,0.39 -0.23,0.09 -0.33,-0.3 -0.13,-0.39zm-0.43 0.39c-0.03,-0.07 -0.01,-0.3 -0.01,-0.39 0.12,-0.01 0.26,-0.02 0.28,0.08 0.04,0.15 -0.07,0.16 -0.19,0.17l-0.01 0.11 -0.07 0.02zm1.47 -0.12c0,0.17 -0.32,0.22 -0.31,-0.08 0.01,-0.27 0.3,-0.23 0.3,-0.06 -0.16,0.04 -0,-0.05 -0.18,-0.05 -0.05,0.07 -0.05,0.19 0.01,0.25 0.14,0 0,-0.07 0.17,-0.05zm-0.41 -0.38l0.07 -0c-0.02,0.04 -0.04,0.09 -0.11,0.07l0.04 -0.07z"/>
   <path class="fil0" d="M4.29 3.78c-0.33,-0.12 -1.14,-0.16 -1.54,-0.16 -0.47,0 -1.12,0.05 -1.54,0.16l-0.03 0.05c0,0 -0,0.04 -0,0.04 0,0.1 0.03,0.17 0.02,0.32 -0.03,-0.07 -0,-0.27 -0.07,-0.37 -0.01,0.02 -0,0.01 -0.02,0.03 -0.02,0.02 -0.01,0.01 -0.03,0.03 -0.02,0.01 -0.01,0.01 -0.02,-0.02 0.03,-0.09 0.02,-0.04 0.05,-0.08 0.02,-0.04 0,-0.04 -0,-0.09 0.01,-0.09 -0.07,-0.38 -0.09,-0.49 -0.02,-0.12 -0.08,-0.39 -0.08,-0.5 -0.04,0.07 -0.07,0.39 -0.07,0.49 0.03,0.21 0.12,0.5 0.13,0.7 0.01,0.02 0.01,0.02 0.02,0.03 0,0 0,0.04 0.01,0.02 0,-0 0,0.01 0.01,0.01l-0 -0.03c-0,-0.04 -0.02,-0.03 0.02,-0.03 0.01,-0.01 0.01,-0.01 0.02,0.02 0,0.1 -0,0.12 0.01,0.21l0.02 0.39c0.02,0.15 0.01,0.85 0.01,1.04 -0,0.54 0.02,1.13 -0.02,1.67 -0.02,0.25 0.01,0.57 0,0.83 -0,0.28 -0,0.56 -0.01,0.84 -0,0.28 -0.01,0.56 -0,0.84 0,0.27 -0.02,0.54 -0.01,0.81l0.13 0c0.02,-1.06 -0,-2.13 0,-3.19l-0 -2.39c-0,-0.25 -0.02,-0.53 -0.01,-0.78 0.07,0.16 -0.01,0.97 0.04,1.13 -0.01,-0.03 -0.02,-0.03 0.01,-0.03l0.02 -0.17 0.08 0 0.02 0.13 1.33 0c-0.03,-0.09 -0.01,-0.25 0.03,-0.31 0.06,0.02 0.03,-0.02 0.05,0.06 0.02,0.06 0.03,0.19 0.01,0.25l1.31 -0c0.02,-0.09 0.01,-0.15 0.11,-0.12l0.01 0.13 0.01 0.01 0.02 0.01c-0.02,-0.02 -0.01,-0.66 -0.01,-0.73l0.03 -0.54c0.02,-0.13 -0,-0.11 0.04,-0.14 0.03,0.09 0.01,0.07 -0,0.16l-0.03 0.63c0.02,0.82 -0.03,1.7 -0.01,2.52 0.01,0.56 -0,1.12 -0,1.68 0,0.54 -0.03,1.14 -0,1.68l0.11 0c-0,-1.13 0,-2.28 -0.01,-3.4 -0.01,-0.57 -0,-1.14 -0,-1.71 0,-0.29 -0.01,-0.57 -0,-0.86 0,-0.13 0.01,-0.27 0.02,-0.4 0.01,-0.18 0.06,-0.21 -0.04,-0.34 -0,0.13 0.01,0.02 -0.03,0.05l-0.03 -0.09z"/>
   <path class="fil0" d="M2.77 0.8c0,0.31 0.16,0.5 -0.05,0.46 -0.03,-0.11 0.04,-0.31 0.04,-0.46l0 -0.22 0.02 0.22zm1.26 0.14l-0.03 -0.12 -0.03 -0.06c-0,-0 -0,-0.01 -0,-0.01 -0,-0 -0,-0.01 -0,-0.01l0 -0.03c0.03,0.02 0.03,0.05 0.04,0.09 0,0 0.01,0.02 0.01,0.03l0.15 -0.01 -0.05 -0.14 -0.17 0.01c-0,0 -0.01,0 -0.01,0 -0,-0 -0.01,0 -0.01,0 -0.02,-0.04 -0.01,0.01 -0.01,-0.05l-0.03 -0.14 -0.06 -0.05c0.06,0.17 0.21,0.95 0.25,1.21 0.02,0.12 0.03,0.3 0.05,0.4l-0.28 -1.43c-0.04,-0.2 -0.02,-0.31 -0.22,-0.36 -0.39,-0.11 -1.38,-0.12 -1.8,-0 -0.12,0.03 -0.15,0.11 -0.15,0.1 -0,-0 -0.01,0.01 -0.01,0l0.05 -0.08c-0.06,0.01 -0.07,-0 -0.08,0.06 -0.04,-0.05 0.01,-0.03 -0.07,-0.02 -0.04,0.01 -0.05,0 -0.06,0.05 -0.03,0.04 0.04,0.02 -0.04,0.03 -0.02,0.01 -0.02,-0.01 -0.02,0.02l-0.02 0.03c0,-0 0,0 0,0 0.11,-0.01 0.06,0.01 0.08,0.03l0.1 0.01 0.06 -0.12c0.02,0.03 0.05,0.01 -0.03,0.13l-0.03 0.03 -0.03 0.1 -0.08 0.23c-0,-0 -0.01,0.01 -0.01,0.01l-0 0.06c0.01,0.08 0,0.03 -0.01,0.04 0.02,0.09 -0.01,0.04 -0.02,0.05l-0.01 0.12c-0.05,-0.06 -0.06,-0.01 -0.03,-0.11 -0.07,-0 -0.1,-0.01 -0.15,0.03l-0.03 0.11 0.14 0 0.05 -0.05c0.01,0.03 0.04,0.04 -0.03,0.13l-0.02 0.1 -0.03 0.23c-0.02,0.07 -0.02,0.04 -0.03,0.05l-0.03 0.1 -0.14 -0.01c-0.03,0.08 -0.15,0.67 -0.14,0.75 0.28,-0.31 1.21,-0.39 1.75,-0.39 0.59,0 1.41,0.07 1.75,0.39l-0.12 -0.65c-0.01,-0.02 -0.01,0.02 -0.03,-0.06 -0,-0.01 -0,-0.04 -0,-0.05 -0.16,0.02 -0.16,0.01 -0.18,-0.07 -0,-0 -0.01,-0.04 -0.01,-0.05 -0.01,-0.06 -0.04,-0.18 -0.04,-0.25l-0.04 -0.17c0.05,-0.04 0.1,-0.02 0.18,-0.03l-0.03 -0.12c-0.05,-0.03 -0.09,-0.02 -0.17,-0.02l-0.05 -0.07z"/>
   <path class="fil1" d="M1.22 3.64c0.04,0.04 -0.03,0.01 0.06,0.03 0.05,0.01 0.16,-0.01 0.21,-0.02 0.22,-0.04 0.58,-0.08 0.81,-0.09 0.72,-0.03 1,-0.03 1.69,0.07 0.31,0.04 0.3,0.14 0.43,-0.72 0.04,-0.27 -0.01,-0.26 -0.24,-0.33 -0.62,-0.21 -1.47,-0.23 -2.16,-0.15 -0.21,0.02 -0.86,0.15 -0.94,0.26 -0.06,0.08 0.02,0.41 0.04,0.53 0.01,0.05 0.07,0.45 0.11,0.43z"/>
   <path class="fil2" d="M0.3 3.32c-0.01,0.01 0.03,0.02 -0.05,0.02 -0.01,0.02 -0.01,0.02 -0.06,0.01 -0.06,0 -0.05,0.01 -0.09,-0.02l0.06 -0.06c0,-0 0.01,-0 0.01,-0.01 0,-0.01 0.01,-0.01 0.01,-0.01 -0.06,0 -0.07,0.02 -0.11,0.04 -0.01,-0.18 0,-0.19 0.13,-0.25 0.08,-0.04 0.18,-0.09 0.28,-0.1 0.02,-0.02 0.05,-0.04 0.07,0.01 0.07,-0.03 0.04,-0.03 0.06,-0.02 0.01,0.02 0.02,-0.02 -0.01,0.01l-0.04 0.03c0.05,0.03 0.03,0.03 0.13,0 -0.07,-0.01 -0.05,-0 -0.06,-0.23l-0.01 -0.25c-0.04,-0.23 -0,-0.65 0.02,-0.9l0.02 -0.22c-0.01,-0.05 0.04,-0.06 -0.04,-0.06 -0.1,0.28 -0.05,1.27 -0.03,1.6 -0.15,-0.04 -0.27,0.01 -0.38,0.07 -0.15,0.08 -0.19,0.06 -0.22,0.26 -0.04,0.23 0.08,0.21 0.23,0.17 0.13,-0.03 0.26,-0.07 0.36,-0.13 0,0.49 -0,0.98 0,1.47 0,0.19 -0.1,0.26 -0.03,0.66 0.02,0.13 0.01,0.39 0.01,0.54 0,0.08 0.02,0.09 0.02,0.17l0 1.09c-0.01,0.12 -0.03,0 -0.03,0.35 -0,0.26 0.03,0.45 -0,0.71 -0.04,0.28 -0.02,0.3 -0.03,0.53 -0,0.08 -0.02,0.09 -0.02,0.17 -0,0.4 -0,1.41 0.07,1.77 0.03,0.13 0.02,0.55 0.05,0.7 0.03,0.19 0.03,0.83 0.13,0.98 0.13,0.19 0.59,0.17 0.9,0.21 0.06,0.01 0.1,0.01 0.18,0.01 0.07,0 0.1,0.02 0.16,0.03l1.47 -0c0.06,-0.01 0.04,-0.03 0.15,-0.03 0.19,-0 0.87,-0.05 1,-0.12 0.22,-0.11 0.19,-0.4 0.22,-0.72 0.02,-0.22 0.04,-0.45 0.04,-0.68 0,-0.08 0.01,-0.08 0.02,-0.16l0.05 -0.52c0.05,-0.41 0.03,-1 0.03,-1.46 0,-0.41 -0.01,-0.32 -0.03,-0.7 -0.01,-0.19 -0.06,-0.3 -0.01,-0.5 0.02,-0.07 0.01,-0.26 0.01,-0.35 -0,-0.12 -0.01,-0.07 -0.04,-0.15 -0.03,-0.08 -0.01,-0.76 -0.01,-0.92 0,-0.09 0.01,-0.1 0.02,-0.17 0.01,-0.18 -0.03,-0.58 0,-0.72 0.04,-0.2 0.03,-0.09 0.03,-0.34 0,-0.34 -0.04,-0.15 -0.05,-0.33 -0.01,-0.49 0,-1 0,-1.49 0.04,0.01 0.09,0.03 0.13,0.05 0.13,0.05 0.32,0.11 0.44,0.08 0.01,-0.03 0.01,-0.06 0.02,-0.08l0 -0.14c-0.02,-0.08 -0.06,-0.14 -0.15,-0.19 -0.12,-0.07 -0.27,-0.14 -0.44,-0.1 0,-0.16 0.03,-0.33 0.03,-0.49 -0,-0.19 -0.02,-0.35 -0.02,-0.52 0,-0.28 -0.11,-1.09 -0.28,-1.32 -0.23,-0.32 -0.65,-0.36 -0.88,-0.46 -0.16,-0.07 -0.51,-0.1 -0.69,-0.11 -0.09,-0 -0.18,0.01 -0.27,-0 -0.1,-0.01 -0.12,0.01 -0.24,0.01 -0.16,-0 -0.59,0.03 -0.74,0.07l-0.58 0.21c-0.2,0.1 -0.34,0.16 -0.45,0.36 -0.03,0.05 -0.05,0.14 -0.07,0.2 -0.03,0.12 -0.08,0.32 -0.09,0.45 0.03,-0.01 0.02,-0 0.04,-0.01 0,-0 0.02,-0.01 0.02,-0.02 0.06,-0.18 0.06,-0.43 0.16,-0.6 0.06,-0.11 0.26,-0.31 0.43,-0.32 0,-0.03 -0.01,-0.02 0.04,-0.02l-0 -0 0.07 -0.03c0.02,-0.02 0.25,-0.09 0.3,-0.1 0.02,0.04 -0.02,0.01 0.08,-0.03 0.22,-0.09 0.76,-0.11 1.03,-0.11 0.18,0 0.85,0 0.99,0.15 0.06,-0.01 0.1,0.02 0.17,0.04 0.08,0.03 0.12,0.01 0.17,0.05 0.05,0.01 0.04,0.01 0.07,0.04 0.17,0.01 0.39,0.23 0.45,0.34 0.09,0.18 0.09,0.41 0.16,0.6l0.07 0.58c0.01,0.16 0.03,0.48 0,0.62l0 0.14c0,0.06 0,0.14 -0.03,0.19l0 0.04c0.02,0.02 0.02,0.01 0.03,0.05 0.01,0.04 -0,0.05 -0.01,0.06l-0.02 0.03c0.05,0.01 0.03,-0.01 0.04,0.05l0.04 -0.05c-0.01,-0.03 -0.02,-0.03 0.01,-0.02 -0.01,-0.03 -0.01,-0.02 0.02,-0.02 0.08,-0.02 0.24,0.05 0.31,0.09 0.13,0.06 0.17,0.08 0.15,0.26l-0.14 -0.07c-0.05,0.04 -0.05,-0 0,0.03 0.06,0.04 0.12,-0.01 0.12,0.1 -0.07,0.03 -0.41,-0.09 -0.41,-0.09l-0.02 -0.01c-0,-0 -0.01,-0 -0.01,-0.01 -0,-0.02 -0.01,-0.01 -0.02,-0 0.02,-0.04 0.02,0.05 0.02,-0.05 0.13,-0 0.17,0.03 0.29,0.04l-0.02 -0.03c-0,-0 -0.01,-0.02 -0.02,-0.02l-0.22 -0.06 -0.09 0c-0.02,-0.04 -0.01,-0.04 -0.01,-0.1l-0.02 0.04c-0,0 -0,0.01 -0,0.01l-0.02 0.04 -0.14 -0.05c0,-0.11 0.01,-0.09 0.03,-0.11 0,-0 0.01,-0 0.01,-0.01 0,-0.01 0.01,-0 0.01,-0.01l-0.08 -0.02 0.01 0.25c-0.05,-0.09 -0.04,-0.01 -0.04,-0.14l0 0.03 -0.02 0.02 -0 0.03c0.02,0.08 0.05,0.06 0.08,0.09l0.02 0.01 0.02 0c-0,-0.03 -0.01,-0.03 0.03,-0.02l0.07 0.01 0 1.66c0.06,0.03 0.06,0.04 0.07,0.12 0,0.05 0,0.11 0,0.16 0,0.11 0.01,0.23 -0.05,0.28 -0.01,-0.09 -0.04,-0.07 0,-0.17 0.06,-0.13 -0.01,-0.27 -0.02,-0.3 -0.01,-0.02 -0.01,-0.04 -0.01,-0.06 0.01,0.17 0,0.4 0.01,0.59 0.01,0.18 0,0.41 0,0.6 0,0.39 0,0.79 -0,1.18 0.08,0.06 0.06,0.12 0.06,0.27 -0,0.11 0.02,0.22 -0.04,0.27 -0.07,-0.1 0.01,-0.13 0.01,-0.22 0.01,-0.1 -0.02,-0.16 -0.04,-0.21l0 0.39c-0,0.07 0.03,0.13 0.02,0.23 -0.01,0.06 -0.06,0.11 -0.1,0.13l-0.01 0.03c0.05,-0.03 0.08,-0.07 0.11,-0.1 0.08,0.16 0.05,1.05 0.05,1.31 -0,0.25 0.01,0.79 -0.01,1.01 -0,0.06 -0.01,0.11 -0.02,0.17 -0,0.01 -0.01,0.05 -0.01,0.05 -0.03,0.09 -0.08,1.06 -0.09,1.29 -0.02,0.07 -0.04,0.26 -0.06,0.35 0.05,0.17 -0.17,0.26 -0.29,0.26 -0.11,0.01 -0.01,-0.03 -0.16,0.01 -0.21,0.06 -0.76,0.06 -0.78,0.07 -0,0 -0.01,0 -0.01,0 -0.08,0.04 -0.17,0.03 -0.28,0.03 -0.14,0 -0.28,0 -0.41,-0 -0.22,-0.01 -0.61,0.02 -0.81,-0.01 -0.02,-0.03 -0.01,-0.03 -0.03,-0.07 -0.02,-0.03 -0,0.03 -0.01,-0.01 0.07,0 0.1,0.01 0.14,-0.03l-0.14 0.01 -0.09 0c0.07,0.03 0.03,0.01 0.06,0.07 -0.11,0.01 -0.36,-0.01 -0.47,-0.03 -0.27,-0.04 -0.23,0 -0.34,-0.11 -0,-0 -0.01,-0.01 -0.01,-0.01l-0.02 -0.02c-0.01,-0.06 -0.01,-0.05 -0.04,-0.1l-0.01 -0.01 -0.01 -0.06 0.02 -0.1 0.02 -0.02c0.05,-0.06 0.06,0.01 0.04,-0.08 -0.01,0.01 -0.01,0.01 -0.02,0.03 -0,0 -0,0.01 -0.01,0.01 -0.03,0.04 -0.02,0.08 -0.07,0.14l0.02 0.09 0.02 0.09c0.09,0.08 0.01,0.04 0.05,0.11 -0.15,-0.01 -0.3,-0.07 -0.31,-0.21 0.01,0.01 0.02,0.01 0.03,0.02 -0,0.02 -0.01,0.02 0.01,0.02l0.02 0.01 0.03 0.02 -0.03 -0.02 -0.02 -0.01c0,-0.02 0.01,-0.02 -0.01,-0.02l-0 -0.04 0 -0c-0.02,-0.01 -0.03,0.01 -0.05,-0.1 -0.02,-0.13 -0.07,-0.26 0,-0.27l-0.05 -0.03c-0.03,-0.3 -0.05,-0.63 -0.06,-0.93 -0.01,-0.34 -0.04,-0.29 -0.05,-0.46 -0.02,-0.28 -0,-1.1 -0.02,-1.47 -0.01,-0.22 -0.01,-0.52 0.02,-0.75 0.01,-0.13 -0,-0.16 0.04,-0.19l0.02 0 -0 0.02 0.02 0 -0 0.02 0.01 0 0 0.02 0.01 -0 -0.01 -0.01 -0.01 -0.02 -0.02 -0.02c-0.04,-0.06 -0.04,-0.07 -0.04,-0.16 0.01,-0.1 0.03,-0.07 0.04,-0.16 0.01,-0.1 0,-0.26 -0,-0.37 -0.16,0.21 0.07,0.27 -0.02,0.43 -0.05,-0.03 -0.03,0.01 -0.05,-0.06l-0 -0.39c0.01,-0.05 0.02,-0.08 0.05,-0.09 -0.03,-0.14 -0.03,-1.69 -0.01,-1.83 -0,-0.05 -0.06,0.06 -0.06,-0.28 0,-0.15 -0.02,-0.23 0.06,-0.31 0.02,-0.25 0,-0.99 0,-1.32 -0,-0.35 -0.03,-0.34 0.08,-0.31l0.03 0c0.07,-0.06 0.04,0.02 0.05,-0.08 0.01,-0.1 0.02,-0.14 -0.03,-0.21l-0.03 -0.07 -0.01 0.01 0.01 0.05c-0,0 -0.01,0.01 -0.01,0.02l-0.03 0.02c0.07,0.01 0.06,0.01 0.07,0.1l-0.1 0.03c0.06,0.13 -0.06,-0.1 0.02,0.04 0,0 0.01,0.01 0.01,0.01l0.02 0.05 -0.1 -0c0,-0.03 0.14,-0.09 -0.14,-0.05l-0.17 0.04c-0.01,0.01 -0.01,0.01 -0.03,0.02 -0.03,0.02 -0,0 -0.04,0.01l-0.01 -0c0,0.03 0.01,0.02 -0.03,0.02l-0.06 0.02 0.05 0.02c0.05,-0.04 0.07,-0.04 0.14,-0.05 0.07,-0 0.1,-0.01 0.16,-0.02 0,0.08 -0.01,0.06 -0.08,0.09 -0.06,0.02 -0.06,0.03 -0.13,0.03z"/>
   <path class="fil2" d="M1.22 3.64c-0.04,0.02 -0.1,-0.38 -0.11,-0.43 -0.02,-0.12 -0.1,-0.44 -0.04,-0.53 0.08,-0.11 0.73,-0.24 0.94,-0.26 0.7,-0.08 1.54,-0.06 2.16,0.15 0.23,0.08 0.28,0.06 0.24,0.33 -0.13,0.86 -0.12,0.76 -0.43,0.72 -0.69,-0.1 -0.97,-0.09 -1.69,-0.07 -0.23,0.01 -0.58,0.05 -0.81,0.09 -0.05,0.01 -0.15,0.03 -0.21,0.02 -0.09,-0.02 -0.03,0.01 -0.06,-0.03zm-0.21 -1.16c-0.05,0.1 -0.05,0.09 -0.06,0.22 -0,0.11 0.05,0.38 0.08,0.5 0.02,0.11 0.1,0.4 0.09,0.49l0.04 0.09c-0,0 -0.01,0 -0.01,0.01 -0,0 -0.01,0.01 -0.01,0.01 -0,0 -0.01,0.01 -0.01,0.01 -0,0 -0.01,0.01 -0.01,0.01 -0.02,0.02 -0.02,0.01 -0.04,0.03l0.02 0.02c0.01,0 0,-0.02 0.04,-0.05 0.03,-0.02 0.04,-0.02 0.08,-0.03 0.42,-0.11 1.07,-0.16 1.54,-0.16 0.4,0 1.21,0.04 1.54,0.16 0,0 0.03,0.01 0.03,0.01 0.06,-0.02 -0.01,0.03 0.03,-0.03 0.02,-0.15 0.07,-0.33 0.1,-0.48 0.03,-0.14 0.09,-0.38 0.09,-0.51 0.01,-0.18 0.02,-0.13 -0.04,-0.28 -0.34,-0.33 -1.15,-0.39 -1.75,-0.39 -0.53,0 -1.47,0.08 -1.75,0.39zm0.08 1.4c0,-0.03 0.01,-0.02 -0.02,-0.02 0.01,0.03 -0,0.03 0.02,0.02zm-0.03 0.02c-0,0.03 -0.01,0.03 0.02,0.02 -0.01,-0.04 -0,-0.03 -0.02,-0.02zm-0.02 0.06c0.03,-0.05 0,-0.02 -0,-0.03l0 0.03z"/>
   <path class="fil0" d="M3.48 11.96c0.35,0.06 0.68,-0.14 0.78,0.05 0.04,0.06 0.08,0.14 0.08,0.22l-0.08 0.01 0.05 0.02c0.02,0 0.05,-0 0.07,-0.01 0.09,-0.02 0.08,-0.02 0.09,-0.05l-0.01 -0.04 -0.01 -0.01 -0 -0.02 -0.01 -0.01 -0 -0 -0.06 0c0,-0.01 -0.01,-0.1 -0.01,-0.1 0.01,-0.05 -0.04,0.08 0.01,-0.04 0,-0 0.01,-0.01 0.01,-0.01 0,-0.01 0.01,-0.01 0.01,-0.02 0.03,0.06 0.05,0.07 0.06,0.09l0.02 -0.01 0.01 -0.02c-0.01,-0.03 -0.02,-0.03 0.01,-0.02 -0.01,-0.03 -0.01,-0.03 0.02,-0.02 -0.01,-0.03 -0.01,-0.02 0.02,-0.02l0.04 -0.25c0.04,0.02 0.11,0.03 0.14,0.05l-0.04 0.36 -0.03 0.05 -0.01 0.01 0.02 0.01 -0 -0.02 0.02 0.01c-0.01,-0.03 -0.02,-0.03 0.02,-0.02l-0 -0.04 0 -0 0.01 0 0.01 -0.03 0.01 -0 0.04 -0.17 0.06 -0.01c0.01,-0.23 0.06,-1.2 0.09,-1.29 0,-0 0.01,-0.05 0.01,-0.05 0.01,-0.05 0.01,-0.11 0.02,-0.17 0.02,-0.23 0.01,-0.77 0.01,-1.01 0,-0.26 0.03,-1.15 -0.05,-1.31 -0.02,0.03 -0.06,0.07 -0.11,0.1 -0.03,0.35 -0,0.77 -0,1.13 -0,0.36 -0,0.73 -0.02,1.1 -0.02,0.24 -0.02,1.16 -0.1,1.3 -0.05,-0.02 -0.09,-0.07 -0.12,-0.13 -0.07,-0.14 -0.03,-0.43 -0.02,-0.61 0.01,-0.14 0.02,-0.29 0.03,-0.43 0.02,-0.32 -0.04,-0.16 -0.05,-0.4l-0.01 -1.38c0,-0.18 0.05,-0.19 0.18,-0.26l-0 -0.23 -0.05 -0.05 0.05 -0.01 -0 -0.33c-0.06,0.06 -0.04,0.09 -0.12,0.11 -0.13,-0.18 -0.04,-1.91 -0.06,-2.27l-0.07 0.01 0.02 2.6c0.23,-0.09 0.14,-0.11 0.22,-0.03 -0.04,0.01 -0.06,0.03 -0.1,0.05 -0.03,0.01 -0.07,0.01 -0.12,0.03 0,0.6 0.02,1.24 0.01,1.84l0.01 0.96c0.05,0.18 -0,0.12 -0,0.32 0,0.26 0.02,0.26 -0.12,0.35 0.01,0 0.02,0.02 0.03,0.06l0.03 0.08 -0.05 -0.03c-0.09,-0.07 -0.03,-0.09 -0.15,-0.08l-0.61 0.06c-0.14,0.01 -0.25,-0.01 -0.27,0.04l0.18 0.01zm1.38 -4.18c-0.04,-0.04 -0.02,-0.19 -0.02,-0.26l0.03 -0.24c0,-0.39 0,-0.79 0,-1.18 0,-0.19 0.01,-0.42 0,-0.6 -0.01,-0.18 0,-0.41 -0.01,-0.59l-0.01 -0.03 -0 -0.58c0.01,0.06 -0.02,0.29 -0.02,0.27 -0,-0 -0,0.01 -0.01,0.02 0.02,0.25 -0.02,0.6 -0.02,0.87 0,0.3 0,0.6 -0,0.9 -0,0.29 -0.05,1.61 -0.01,1.79 0.04,-0.02 0.09,-0.07 0.1,-0.13 0.01,-0.1 -0.02,-0.16 -0.02,-0.23zm-0.65 4.49l-0.12 0.01c0.02,0.03 -0.02,0.02 0.07,0.02 0.04,-0 0.05,-0.01 0.07,-0.02l0.04 -0.01 -0.06 -0.01z"/>
   <path class="fil1" d="M4.64 3.12l-0.03 0.09 -0.13 0.77c-0.03,0.22 -0.03,0.61 -0.03,0.85 0,0.24 0.05,0.67 0.02,0.88 0.02,0.36 -0.07,2.1 0.06,2.27 0.09,-0.02 0.07,-0.04 0.12,-0.11 0.03,-0.07 0.06,-0.14 0.05,-0.24l0.02 -1.87c0,-0.06 0,0 -0.01,-0.04 -0.02,-0.07 -0,-0.07 0,-0.14 0,-0.09 -0,-0.21 -0,-0.3 0,-0.11 0.02,-0.2 0.02,-0.3l-0.02 -1.74c0,-0.03 0.01,-0.02 0.01,-0.04l0.02 0.01c0,0.05 0.01,0.02 0.02,0l0.02 -0 0.01 -0.01c-0.04,-0.01 -0.03,-0.02 -0.03,0.02l-0.02 -0 -0.02 -0.01c-0.02,-0.03 -0.06,-0.01 -0.08,-0.09zm0.36 0.01l-0.05 -0.03c0,-0.01 0.01,-0.06 0.01,-0.07 -0.01,-0.11 -0,-0.05 -0.02,-0.05 0.03,0.01 0.02,0.01 0.01,-0.02 0.03,0.01 0.02,0.01 0.02,-0.02 -0.03,0 -0.03,-0.01 -0.02,0.02 -0.03,-0.01 -0.02,-0.01 -0.01,0.02l-0.04 0.05c-0.01,-0.06 0.01,-0.03 -0.04,-0.05l0.02 -0.03c0,-0.01 0.02,-0.02 0.01,-0.06 -0.01,-0.04 -0.01,-0.03 -0.03,-0.05l0 0.08c-0.01,0.01 0.03,0.03 -0.05,0.01 -0.05,-0.01 -0.01,0.01 -0.05,-0.09 -0.04,0.02 -0.04,0.02 -0.06,0.08 -0.02,0.05 -0.02,0.06 -0.03,0.11 0,0.13 -0.01,0.05 0.04,0.14l-0.01 -0.25 0.08 0.02c-0,0 -0.01,0 -0.01,0.01 -0,0.01 -0.01,0.01 -0.01,0.01 -0.03,0.02 -0.03,-0 -0.03,0.11l0.14 0.05 0.02 -0.04c0,-0 0,-0.01 0,-0.01l0.02 -0.04c-0,0.06 -0.01,0.06 0.01,0.1l0.09 -0zm-0.35 -0.04l0.02 -0.02 -0.02 0.02z"/>
   <path class="fil1" d="M0.77 3.23c0.03,0.01 0.01,-0 0.03,0.01 0.01,0.39 -0.01,0.78 -0.01,1.17 -0,0.19 0.01,0.39 -0,0.59 -0,0.16 0.02,0.37 0.01,0.55l-0.05 0.01c0.05,0.01 0.07,-0.02 0.06,0.16 -0.04,0.02 -0.02,-0 -0.03,0.03 0.03,0.06 0.03,1.37 0.03,1.63 0.01,0.28 -0.03,0.28 0.06,0.49l0.01 0.01c0.04,0.06 0.03,0.07 0.11,0.07 0.08,-0.25 0.07,-1.62 0.06,-1.97 -0.02,-0.44 0.02,-0.98 0.01,-1.47 -0,-0.14 -0.03,-0.38 -0.01,-0.5 -0.04,-0.04 -0.03,-0.08 -0.04,-0.13 -0,-0.2 -0.09,-0.5 -0.13,-0.7 -0.03,-0.05 -0.04,-0.12 -0.05,-0.17 -0,-0.02 -0.01,-0.06 -0.02,-0.08 -0.02,-0.07 0,-0.06 -0.05,-0.06l0.03 0.07c0.04,0.07 0.04,0.11 0.03,0.21 -0.01,0.1 0.02,0.02 -0.05,0.08z"/>
   <path class="fil3" d="M4.44 12.08c0.05,-0.02 0.01,0 0.03,-0.03 0.03,0.01 0.02,0.02 0.02,-0.01 0.03,0 0.02,0.01 0.01,-0.02 0.03,0 0.02,0.01 0.01,-0.02 0.03,0.01 0.03,0.01 0.02,-0.02 0.03,0.01 0.02,0.01 0.02,-0.02 -0.04,0 -0.03,-0.01 -0.02,0.02 -0.03,-0.01 -0.03,-0.02 -0.02,0.02 -0.03,-0.01 -0.02,-0.01 -0.01,0.02l-0.01 0.02 -0.02 0.01c-0.01,-0.02 -0.03,-0.03 -0.06,-0.09 -0,0 -0.01,0.01 -0.01,0.02 -0,0.01 -0.01,0.01 -0.01,0.01 -0.05,0.12 -0.01,-0.01 -0.01,0.04 -0,0 0.01,0.09 0.01,0.1l0.06 0c-0.03,-0.04 -0.02,-0.05 -0.03,-0.09 0.03,0.02 0.01,-0 0.03,0.03zm0.03 -6.37c0.03,-0.21 -0.02,-0.63 -0.02,-0.88 -0,-0.24 0,-0.63 0.03,-0.85 0,-0.04 -0.02,-0.11 -0.03,-0.13 -0.01,-0.03 -0.01,-0.03 -0.03,-0.05 -0.04,-0.04 -0.02,-0.02 -0.06,-0.04 -0.04,0.06 0.02,0 -0.03,0.03 -0,0 -0.03,-0.01 -0.03,-0.01l0.03 0.09c0.04,-0.03 0.03,0.08 0.03,-0.05 0.09,0.13 0.05,0.16 0.04,0.34 -0.01,0.13 -0.02,0.27 -0.02,0.4 -0,0.29 0,0.57 0,0.86 -0,0.57 -0.01,1.14 0,1.71 0.02,1.13 0.01,2.27 0.01,3.4l-0.11 -0c-0.03,-0.53 0,-1.14 0,-1.68 -0,-0.56 0.01,-1.12 0,-1.68 -0.01,-0.82 0.03,-1.7 0.01,-2.52l0.03 -0.63c0.01,-0.09 0.03,-0.07 0,-0.16 -0.04,0.03 -0.02,0.01 -0.04,0.14l-0.03 0.54c-0.01,0.07 -0.02,0.72 0.01,0.73l-0.02 -0.01 -0.01 -0.01 0.01 0.01 0.02 0.01 -0.01 0.03c0,0.57 0.19,0.44 -1.28,0.45 -0.29,0 -0.58,0 -0.87,0 -0.23,0 -0.67,0.04 -0.85,-0.04 0.04,0.15 0.1,0.14 0.26,0.14 0.13,0 0.26,0 0.4,0l1.98 -0c0.16,-0 0.26,0.02 0.35,-0.06 0.03,0.38 -0,0.85 -0,1.24l-0 2.5c0,0.16 0.03,1.16 -0.02,1.22l-0.07 -0.01c0.02,0.04 0,0.06 0.07,0.01 0.06,0.01 0.02,0.01 0.04,0.02l0 0.16 0.14 0 0.01 0.15 -0.15 -0c-0,0.08 -0.02,0.13 0.03,0.17l-0.01 -0.15 0.12 -0 -0.01 0.15c0.04,0.02 0.03,-0 0.03,0.16l-0.15 -0 0 -0.15 -0.11 -0 -0.01 0.16 0.11 -0 -0 0.16 0.15 0 -0 0.14c-0.02,0.01 -0.01,0.01 -0.05,0.02 -0.01,0.03 0,0.02 -0.02,0.04 -0,0 -0.05,0.03 -0.05,0.03l0.01 -0.07c-0.03,-0.03 -0.01,0 -0.03,-0.05 -0,-0.01 -0,-0.05 -0,-0.06 -0,-0.09 0.01,-0.02 -0.03,-0.05l0 0.23c-0.13,0.03 -0.37,0.04 -0.52,0.05 -0.16,0.01 -0.4,0 -0.56,0.04 0.02,0.05 0.02,0.05 -0.02,0.08 0.09,0 0.28,0.02 0.34,-0.02l-0.18 -0.01c0.02,-0.05 0.13,-0.02 0.27,-0.04l0.61 -0.06c0.12,-0.01 0.06,0.01 0.15,0.08l0.05 0.03 -0.03 -0.08c-0.02,-0.03 -0.02,-0.05 -0.03,-0.06 0.14,-0.09 0.12,-0.09 0.12,-0.35 0,-0.2 0.06,-0.14 0,-0.32l-0.01 -0.96c0.01,-0.6 -0.01,-1.23 -0.01,-1.84 0.05,-0.02 0.09,-0.02 0.12,-0.03 0.04,-0.02 0.06,-0.03 0.1,-0.05 -0.08,-0.08 0.01,-0.05 -0.22,0.03l-0.02 -2.6 0.07 -0.01zm-0.34 5.85l-0.11 -0.01 0.01 -0.12 -0.04 0 0 0.15c0.02,0 0.07,0.01 0.09,0 0.08,-0.01 0.04,0.01 0.05,-0.02 0.01,-0.01 0.02,0.04 0.02,-0.05 0,-0.1 -0,-0.06 -0.03,-0.08l0.01 0.13zm0.04 -0.61l0 0.03 0.07 0 -0 0.14c0.06,-0.02 0.02,0.02 0.03,-0.06 0,-0.01 -0,-0.08 -0,-0.09l-0.09 -0.01zm0.49 -2.67l-0 -0.06 -0.05 0.01 0.05 0.05zm-0.38 3.16l0.11 0 0 0.14 -0.12 -0 0 -0.14zm-0.11 -0.15l0.07 -0 0 0.13 -0.07 -0 0 -0.13zm0.12 -0.49l0.11 -0.01 0 0.15 -0.11 0 0 -0.14zm-0.02 -0.22l0.15 0 0 0.19 -0.15 0 0 -0.2z"/>
   <path class="fil4" d="M0.77 3.23l-0.03 -0c0.03,0.37 -0.04,0.77 -0.03,1.15 0,0.26 0.04,0.56 0.04,0.87l0 0.22c-0.02,0.07 0,0.03 -0.04,0.07 -0.07,-0.06 -0.05,-0.02 -0.03,-0.14 0.01,-0.07 0.01,-0.12 0.01,-0.19 -0,-0.14 0.01,-0.25 -0.03,-0.36 -0.08,0.08 -0.06,0.16 -0.06,0.31 -0,0.34 0.05,0.23 0.06,0.28 -0.03,0.14 -0.02,1.69 0.01,1.83 -0.03,0.01 -0.05,0.04 -0.05,0.09l0 0.39c0.02,0.07 0,0.03 0.05,0.06 0.09,-0.15 -0.13,-0.21 0.02,-0.43 -0,-0.05 0,-0.08 -0.02,-0.11 0.02,-0.18 0,-1.02 0,-1.32l0 -0.33c-0,-0.09 0,-0.08 0.02,-0.11 0.07,0.03 0.06,0.01 0.06,0.1l-0.01 0.51c0,0.6 0.03,1.11 0.02,1.71 -0,0.18 0.03,0.29 -0.03,0.28l-0.01 0 -0 -0.02 -0.01 0 0 -0.02 -0.02 0 0 -0.02 -0.02 -0c0,0.03 -0.01,0.03 0.02,0.02 -0.01,0.03 -0.01,0.02 0.02,0.02 -0.01,0.03 -0.01,0.02 0.02,0.02 0.06,0.09 0.04,0.25 0.04,0.41 0,0.52 0,2.84 0.1,3.15 0.21,-0.06 0.17,-0.41 0.16,-0.56 -0.01,-0.22 -0.02,-0.46 -0.04,-0.69 -0,-0 -0,-0.02 -0,-0.01l-0.01 -0.03c-0.08,-0.34 -0.11,-0.54 -0.11,-0.92 -0,-0.17 -0.01,-0.35 -0.02,-0.52l-0.01 -0.4c0,-0.06 -0.01,-0.09 0.04,-0.08 -0,-0.05 -0.02,-0.57 0.02,-0.61l0.01 0.01 -0.01 -0.01c-0.09,-0.22 -0.06,-0.21 -0.06,-0.49 -0,-0.26 0,-1.57 -0.03,-1.63 0.01,-0.03 -0.01,-0.01 0.03,-0.03 0.01,-0.19 -0.01,-0.15 -0.06,-0.16l0.05 -0.01c0,-0.19 -0.02,-0.39 -0.01,-0.55 0.01,-0.19 -0,-0.39 0,-0.59 0,-0.39 0.02,-0.79 0.01,-1.17 -0.02,-0.01 0,-0.01 -0.03,-0.01z"/>
   <path class="fil4" d="M4.65 7.87l0 0.33 0 0.06 0 0.23c0.06,-0.02 0.01,-0.01 0.03,0.01 0.02,0.27 -0.04,1.33 -0.07,1.64 -0.01,0.06 -0.02,0.12 -0.04,0.17 -0.03,0.09 -0.05,0.48 -0.05,0.6 -0.02,0.25 -0.08,0.58 0.07,0.72l0.02 0.02c0,0 0.01,0 0.01,0.01 0.09,-0.17 0.06,-1.17 0.12,-1.27 0.02,-0.36 0.02,-0.73 0.02,-1.1 0,-0.36 -0.02,-0.78 0,-1.13l0.01 -0.03c-0.04,-0.18 0.01,-1.5 0.01,-1.79 0,-0.3 0,-0.6 0,-0.9 -0,-0.27 0.04,-0.62 0.02,-0.87l-0.02 -1.35 -0.02 0c-0.01,0.01 -0.02,0.04 -0.02,-0l-0.02 -0.01c-0.01,0.01 -0.01,0.01 -0.01,0.04l0.02 1.74c0,0.1 -0.02,0.19 -0.02,0.3 0,0.09 0.01,0.21 0,0.3 -0,0.06 -0.03,0.06 -0,0.14 0.01,0.04 0.01,-0.02 0.01,0.04l-0.02 1.87c0,0.1 -0.03,0.16 -0.05,0.24z"/>
   <path class="fil0" d="M1.16 0.74l0.02 -0.01c0,-0.05 -0,-0.03 0.01,-0.06 -0.02,0.01 -0.01,0 -0.03,0.02 -0.01,0.01 -0.01,0.01 -0.02,0.03 -0.02,0.07 0,0.02 -0.03,0.04l-0.02 0.02c-0.01,0.09 0.01,0.02 -0.03,0.05 -0.03,0.03 -0.04,0.03 -0.05,0.08 0.01,0.04 0.02,0.03 -0.02,0.03l0.01 -0c0.01,0.04 0.02,0.03 -0.02,0.03l0.01 0c0.01,0.04 0.02,0.03 -0.02,0.03l-0.01 0.05c0.01,0.03 0.02,0.03 -0.02,0.03l0.01 0.01c0.01,0.04 0.01,0.02 -0.02,0.01l0 0.02c0,0.03 0.01,0.02 -0.02,0.02 -0.04,0.02 -0.03,0.03 -0.08,0.06 0,-0.17 0.06,-0.3 0.08,-0.45 -0.01,-0.03 -0.02,-0.03 0.02,-0.03 0.03,-0.05 0.03,-0.06 0.08,-0.12 0.1,-0.12 0.07,-0.1 0.14,-0.12l-0.1 0.12c-0.04,0.04 -0.07,0.08 -0.08,0.16l-0.02 0.02 -0.01 0.03c0.11,-0.18 0.06,-0.1 0.08,-0.1 0.03,0.01 -0.03,0.05 0.03,-0.01l0.04 -0.05c0,-0.01 0.01,-0.01 0.01,-0.01l-0.01 0.04c-0,0 -0,0.01 -0.01,0.01l-0.04 0.06c-0.02,0.03 -0.03,0.07 -0.06,0.1 0.03,-0.12 0.02,-0.01 0.02,-0.11 -0,-0.01 -0,-0.01 -0.01,-0.01 -0.03,0.08 -0.05,0.11 -0.06,0.19 0,-0 0,-0.01 0.01,-0.01l0.04 -0.06c-0.01,0.05 -0.01,0.03 -0.01,0.08l0.03 -0.03c-0.01,-0.04 -0.02,-0.03 0.02,-0.03 0.02,-0.02 0.03,-0.04 0.04,-0.08 -0,-0.03 -0.01,-0.02 0.02,-0.02l0.02 -0.02c0.02,-0.07 -0,-0.02 0.03,-0.04 0.04,-0.03 0.12,-0.13 0.16,-0.18l0.02 -0.01c-0,-0.02 -0.01,-0.02 0.02,-0.02 -0,-0.02 -0.01,-0.02 0.01,-0.02 -0.02,-0.04 0.02,-0.02 -0.02,-0.03 -0.05,0.05 -0.08,0.03 -0.12,0.09 -0.02,0.03 -0.03,0.06 -0.07,0.09 -0.03,0.03 0.01,0 -0.03,0.02 0.01,-0.07 0.1,-0.14 0.15,-0.17 -0.02,-0.02 0.03,-0.03 -0.05,-0.01l-0.02 0.01c-0.03,-0.01 -0.01,0.01 -0.03,-0.02l0.02 -0.02c0,-0.03 -0.01,-0.03 0.02,-0.02 -0,-0.03 -0.01,-0.02 0.02,-0.01l0.02 -0.01 -0 -0c0,-0.03 -0.01,-0.03 0.02,-0.02 0.04,-0.01 0.01,0.02 0.05,-0.03l0.02 -0.02 0.01 -0.01 0 0 -0.04 0.02c-0.16,0.01 -0.36,0.22 -0.43,0.32 -0.1,0.17 -0.1,0.41 -0.16,0.6 -0.01,0.04 -0.01,0.02 -0.01,0.08l0.05 -0.05 -0.05 1.09 0.07 -0 -0.06 0.04 -0.01 0.33c-0,0.07 0,0.08 -0.02,0.1l-0.01 0.09c0.06,-0.01 0.06,-0 0.1,-0.02l-0.01 -0.05c0.02,-0.2 0.05,-0.38 0.08,-0.58 0.03,-0.18 0.08,-0.38 0.1,-0.56 0.07,0.02 0.14,0.01 0.19,-0.01l0 -0.13 -0.06 -0.02 -0.1 -0.01 0.02 -0.19c-0,-0.05 0.01,-0.07 0.01,-0.12 0,-0 0.01,-0.05 0.01,-0.05 0.02,-0.04 0.01,-0.02 0.03,-0.04 0.01,-0.05 0.02,-0.07 0.02,-0.14 0.01,-0.07 0.05,-0.12 0.06,-0.22l-0.02 0.03c-0,0 -0,0.01 -0.01,0.01l-0.06 0.13c0.02,-0.1 0.09,-0.21 0.13,-0.24z"/>
   <path class="fil0" d="M4.49 0.64c-0.03,0 -0.03,0.01 -0.02,-0.02 -0.02,-0.02 -0.01,0.02 -0.02,-0.04l-0.01 -0.02 -0.01 -0.02 -0.02 -0.01c-0.04,0.01 -0.02,-0.01 -0.03,0.03 0.05,0.04 0.1,0.09 0.13,0.16 -0.04,-0.01 -0.02,0.01 -0.05,-0.04l-0.02 0.06c-0.03,-0.11 -0.16,-0.21 -0.25,-0.28l0.18 0.18c0.01,0.02 0.01,0.02 0.02,0.04 0.01,0.02 0,0.01 0.03,0.04l0.01 0.02 -0 -0c0.04,0 0.03,-0.01 0.02,0.03l0.01 0.02c0.03,0.01 0.01,-0.03 0.03,0.02 0.01,0.05 0.02,0.02 0.03,0.08l-0.05 -0.05c-0.03,0 -0.03,0.01 -0.02,-0.02 -0,-0.02 0.02,-0.02 -0.01,-0.02 -0.04,0 -0.03,0.01 -0.02,-0.03l-0.01 -0.02 0 0 -0.03 -0.03 -0 0.01c0.05,0.04 0.02,0.01 0.02,0.04l-0.01 0.02 0.07 0.23 0.02 0.16 -0.18 0 0.04 0.17 -0.14 -0c0,0.04 0.02,0.14 0.01,0.15l0.13 -0 0.01 -0.02 -0.01 -0.13 0.18 -0 0.02 0.12c0.01,0.02 0.02,0.01 0.03,0.05l0.03 0.29c-0.01,0.12 0.06,0.38 0.08,0.51 0.04,0.18 0.06,0.35 0.09,0.54 0.04,0.1 -0.01,0.08 0.05,0.09 0.08,0.01 0.04,-0.01 0.05,-0.01l-0 -0.08 -0 -0.04c-0.01,-0.03 -0.04,-0.35 -0.01,-0.41 -0.01,0.14 0.01,0.2 0.01,0.33l0.03 -0.1 -0 -0.14c-0.01,-0.02 -0.01,-0.02 -0.01,-0.04 -0.01,-0.03 -0.01,-0.02 -0.02,-0.03 -0.06,-0.1 -0.05,-0.4 -0.06,-0.52 -0.01,-0.19 -0.05,-0.45 -0.05,-0.63 0.09,0.06 0.03,0.05 0.06,0.01 -0.07,-0.19 -0.07,-0.43 -0.16,-0.6 -0.06,-0.11 -0.28,-0.32 -0.45,-0.34l0 -0 0.03 0.01c0.03,-0 0.02,-0.01 0.02,0.02 0.04,0.05 0.02,0.02 0.05,0.03 0.04,0.01 0.03,-0 0.04,0.03l0 0c0.03,0.01 0.01,-0 0.04,0.02 0.03,0.02 0,-0 0.02,0.03 0.01,0.03 0.04,0.05 0.07,0.07 0.04,0.02 0.01,-0.03 0.04,0.04l-0.01 0.03c0.05,0.03 0.05,0.04 0.05,0.04 0.04,0 0.03,-0.01 0.02,0.03l0.02 0.03 0 0.05c0.02,0.01 0.02,-0.01 0.03,0.05l-0 0.02c0.03,0.02 0.03,-0.03 0.02,0.04l0.04 0.33c-0.04,-0.02 -0,0.01 -0.05,-0.04 -0.04,-0.04 -0.06,-0.08 -0.08,-0.14 -0.03,-0.02 -0.02,0.03 -0.03,-0.04l0.01 -0c-0.03,0 -0.02,0.01 -0.02,-0.03l0 -0c-0.03,0 -0.02,0.01 -0.02,-0.03 0.01,-0.03 0,-0.03 0.02,-0.03 0.04,0 0.03,-0.01 0.02,0.03 0.03,-0.07 -0.08,-0.12 -0.08,-0.2 0.02,0.01 0,-0 0.03,0.03l0.08 0.12c-0.02,-0.06 -0.04,-0.1 -0.07,-0.13 0,-0 0.01,-0 0.01,-0 0.05,-0.01 0.03,0.05 0.03,-0.01l0.01 -0c-0.04,0 -0.03,0.01 -0.02,-0.03 -0.01,-0.04 0,-0.02 -0.03,-0.05z"/>
   <path class="fil2" d="M3.09 12.31c-0.15,-0 -0.16,-0.07 -0.12,-0.21 0.03,-0.05 -0.02,-0.01 0.05,-0.05 0.08,-0.04 0.44,-0.03 0.53,-0.04 0.1,-0.01 0.21,-0.02 0.31,-0.03 0.13,-0.01 0.22,-0.05 0.26,0.06 0.03,0.04 0.06,0.09 0.07,0.15 -0.02,0.01 -0.01,0.01 -0.04,0.02 -0.17,0.08 -0.92,0.09 -1.06,0.08zm-1.36 -0.32c0.06,-0 0.09,-0 0.13,0.02l0.22 -0c0.09,-0 0.39,0.01 0.44,0.03 0.01,0.04 0.03,0.14 0.02,0.2 -0.01,0.06 -0.03,0.08 -0.16,0.07 -0.14,0 -0.24,0.01 -0.39,-0.01 -0.21,-0.01 -0.47,-0.03 -0.67,-0.08 -0,-0.08 0.06,-0.2 0.11,-0.23 0.06,-0.03 0.21,0 0.29,0zm-0.17 0.31l0.12 0.02 0.18 0.02 0.16 0.01 0.09 0 0.08 0.01 0.27 0.01 0.66 0.01 0.17 -0.01 0.15 -0c0,-0 0.05,-0.04 0.13,0l0.03 0.02c0,0 0.01,0 0.01,0.01 0.05,-0.05 -0.01,-0.04 0.08,-0.05l0.03 0 0.18 -0.02 0.18 -0.02 0.02 -0.01 0.12 -0.01 0.06 -0.02 0.08 -0.01c0.01,-0.09 -0.04,-0.16 -0.08,-0.22 -0.11,-0.19 -0.43,0 -0.78,-0.05 -0.06,0.04 -0.25,0.02 -0.34,0.02 -0.06,0.04 -0.28,0.02 -0.37,0.02 0.03,-0.02 0.03,-0.02 0.11,-0.02 0.03,-0 0.07,0 0.1,0l-0.44 0c0.05,-0.01 0.16,-0.01 0.2,0.02 -0.1,0 -0.27,0.02 -0.35,-0.02l-0.3 -0.01c-0,-0 -0.01,-0 -0.01,-0.01 -0.13,0.03 -0.45,-0.02 -0.6,-0.03 -0.15,-0.01 -0.17,-0.01 -0.23,0.09 -0.12,0.21 -0.11,0.25 0.3,0.27z"/>
   <path class="fil5" d="M2.59 8.82l-0.03 0.01 -0.04 0.02c-0.02,0.03 -0.06,0.05 -0.1,0.1 -0.03,0.05 -0.05,0.07 -0.06,0.13 -0.03,0.14 -0.01,0.21 0.02,0.33 0.09,0.08 0.3,0.44 0.65,0.09 -0.1,0.11 -0.51,0.11 -0.57,-0.03l0.28 0.11 0.23 -0.08c0.03,-0.01 0.01,-0 0.03,-0.01 0.16,-0.04 0.19,-0.44 -0.01,-0.61l-0.02 -0.01c-0,-0 -0.1,-0.12 -0.39,-0.05zm-0.01 0.29l0.1 -0c0.06,-0.15 0.01,-0.13 0.09,-0.18 0.02,0.05 0.03,0.13 0.06,0.18l0.08 0c0.12,0 0.02,-0.01 0.07,0.04l-0.11 0.09 0.05 0.18c-0.07,-0.02 -0.12,-0.07 -0.16,-0.1 -0.06,0.04 -0.12,0.09 -0.15,0.1l0.05 -0.2 -0.12 -0.09c0.03,-0.03 -0,-0.02 0.06,-0.03z"/>
   <path class="fil6" d="M1.21 11.86c0,-0 0.01,-0.01 0.01,-0.01 0,0 0.01,-0.01 0.01,-0.01 0.03,-0.02 -0,-0 0.03,-0.02 -0.01,-0.15 -0.03,-0.18 0.01,-0.24 0.09,0.01 0.05,-0.01 0.07,0.06 0.02,0.07 -0.02,0.1 0.09,0.1 0.04,0 0.07,-0.01 0.09,-0.01 0.02,-0.15 0,-0.39 0,-0.55l0 -0.48c-0.01,-0.06 -0,-0.06 -0.08,-0.07 -0.15,-0.02 -0.11,0.06 -0.11,0.14l-0.1 -0.03c0.04,0.04 0.04,0.04 0.12,0.05l-0 -0.15 0.14 0 0 0.14 -0.15 0 -0 0.15c-0.03,-0 -0.08,-0.01 -0.11,0.02l0.09 0c0,0.01 0,0.01 0,0.01l0.01 0.11 -0.1 -0c0.02,0.01 0.01,0.01 0.04,0.02 0.04,0.01 0.03,0.01 0.06,0 0,-0 0.01,-0.02 0.01,-0.01 0,0 0.01,-0.01 0.01,-0.01 0.01,-0.03 0.01,-0 0.01,-0.05 0,-0.02 -0,-0.06 -0,-0.08l0.14 0 0 0.14c-0.09,0.01 -0.16,-0.02 -0.16,0.08l0.03 0.08 -0 -0.15 0.13 0.01 -0 0.14 0.01 0.15 -0.15 0 0 0.16 0.15 0.01 -0 0.14 -0.14 -0 -0 -0.15 -0.11 -0.01c-0.04,0.06 -0.02,0.09 -0.02,0.16 -0.07,-0.01 -0.07,0.01 -0.12,-0.01l0.04 0.09 0.02 -0.04c0.03,-0.03 -0.07,-0.02 0.06,-0.02 -0.02,0.2 -0.07,-0.12 -0.04,0.08l0.02 0.04zm-0.11 -0.6l-0.01 -0.15 0.13 -0 -0 0.15c0.02,-0 0.02,-0.01 0.02,0.02l0.12 0.01c-0.03,-0.03 -0,-0.02 -0.05,-0.03 -0.04,-0.01 -0.03,-0 -0.06,0l0 -0.16 -0.14 -0.01 0 -0.15 -0.01 -0.18 0.13 0.01 -0.01 0.18c0,-0 0.01,-0.01 0.01,-0.01 0.01,0.02 0.03,-0.11 0.01,-0.15 -0.02,-0.05 -0.06,-0.04 -0.14,-0.04l-0 -0.18 0.15 -0c-0.02,-0.8 0,-1.63 -0,-2.44 -0,-0.41 -0,-0.81 -0,-1.22l0 -1.17c0.01,-0.03 0,-0.02 0.01,-0.03 -0.04,-0.11 -0.01,-0.27 -0.01,-0.38l0.01 -0.03c0.04,-0.02 0.06,-0.03 0.12,-0.04l-0.02 -0.13 -0.08 -0 -0.02 0.17c-0.03,-0 -0.02,-0.01 -0.01,0.03 -0.05,-0.15 0.03,-0.96 -0.04,-1.13 -0.01,0.25 0.01,0.53 0.01,0.78l0 2.39c-0,1.06 0.02,2.13 -0,3.19l-0.13 -0c-0.01,-0.27 0.01,-0.54 0.01,-0.81 -0,-0.28 0,-0.56 0,-0.84 0,-0.28 0,-0.56 0.01,-0.84 0,-0.27 -0.02,-0.58 -0,-0.83 0.03,-0.54 0.01,-1.13 0.02,-1.67 0,-0.19 0.01,-0.88 -0.01,-1.04l-0.02 -0.39c-0.01,-0.09 -0.01,-0.11 -0.01,-0.21 -0.03,0.01 -0.02,0.01 -0.02,-0.02 -0.03,0 -0.02,-0.01 -0.02,0.03 0.01,0.01 0.03,-0.03 0,0.03 -0,-0 -0.01,-0.01 -0.01,-0.01 -0.01,0.02 -0.01,-0.02 -0.01,-0.02 -0.01,-0.02 -0.01,-0.02 -0.02,-0.03 0,0.06 -0,0.09 0.04,0.13 0.03,-0.07 0.02,0.11 0.03,0.2 0.01,0.08 0.01,0.17 0.02,0.25 0.03,0.36 -0.01,3.8 -0.01,3.8 -0.01,0.04 -0.02,0.02 -0.07,0.05 0.04,0 0.02,-0 0.04,0.01 0.03,0.01 0.02,0.01 0.04,0.02 -0.02,0.52 -0.01,1.05 -0.01,1.57l-0.01 0.97c-0.01,0.1 0,0.12 0.01,0.21 0,0.17 -0.03,-0.03 -0.03,0.12 0,0 0,0.08 0,0.08 0.01,0.07 -0,-0.02 0.02,-0.01l0.03 0.12 0.11 -0 -0.01 0.15c0.04,-0.04 0.02,0.02 0.02,-0.06 0,-0.02 -0,-0.07 -0,-0.1l-0.14 -0.01 0 -0.15zm0.12 -7.48c-0.04,0.01 -0.05,0.01 -0.08,0.03 -0.03,0.03 -0.03,0.05 -0.04,0.05l-0.02 -0.02c0.02,-0.01 0.02,-0.01 0.04,-0.03 0,-0 0.01,-0.01 0.01,-0.01 0,-0 0.01,-0.01 0.01,-0.01 0,-0 0.01,-0 0.01,-0.01 0,-0 0.01,-0.01 0.01,-0.01l-0.04 -0.09c0.01,0.05 0.02,0.05 0,0.09 -0.02,0.04 -0.02,-0.01 -0.05,0.08 0.03,-0 0.02,-0.01 0.02,0.02 0.02,-0.02 0.01,-0.01 0.03,-0.03 0.01,-0.02 0.01,-0.01 0.02,-0.03 0.07,0.1 0.04,0.29 0.07,0.37 0.01,-0.15 -0.01,-0.22 -0.02,-0.32 0,-0 0,-0.04 0,-0.04l0.03 -0.05zm0.03 8.04l-0.01 0.03c0.08,-0.02 0.39,0.03 0.5,0.03 0.12,0.01 0.46,0.05 0.55,0.01l-1.04 -0.08zm1.1 0.14l-0.28 0c0,0 0.01,0 0.01,0.01l0.3 0.01c-0.03,-0.01 -0.02,-0.01 -0.04,-0.02l0.02 -0.05 -0.07 0.01c0.05,0.03 0.03,0 0.05,0.04zm-0.99 -0.53l0.13 -0 0 0.14 -0.13 0 0 -0.14zm-0 -0.62l0.14 0 0 0.13 -0.13 0 -0 -0.13z"/>
   <path class="fil1" d="M4.74 10.39c-0.06,0.1 -0.02,1.1 -0.12,1.27 -0,-0 -0.01,-0.01 -0.01,-0.01l-0.02 -0.02c-0.15,-0.15 -0.09,-0.48 -0.07,-0.72 0.01,-0.12 0.02,-0.51 0.05,-0.6 0.02,-0.06 0.03,-0.11 0.04,-0.17 0.03,-0.3 0.1,-1.37 0.07,-1.64 -0.02,-0.01 0.02,-0.02 -0.03,-0.01 -0.12,0.07 -0.17,0.08 -0.18,0.26l0.01 1.38c0.01,0.24 0.07,0.08 0.05,0.4 -0.01,0.14 -0.02,0.28 -0.03,0.43 -0.01,0.18 -0.06,0.47 0.02,0.61 0.03,0.06 0.07,0.11 0.12,0.13 0.08,-0.14 0.08,-1.07 0.1,-1.3z"/>
   <path class="fil3" d="M3.9 0.5l0.08 -0 0 -0.02 -0.07 0c-0.02,-0.03 -0.05,-0.06 -0.08,-0.1 -0.02,-0.03 -0.01,-0.02 -0.03,-0.05 -0.07,-0.07 -0.04,-0.01 -0.04,-0.05 0,-0.01 0.01,-0 0.01,-0.01 0.02,0.02 0,0.01 0.04,0.01 0,0 0.04,-0.01 0.04,-0.01 -0.01,0.03 -0.01,0.02 0.02,0.02 0,-0.03 0.01,-0.02 -0.02,-0.02l-0.08 -0.07c-0.14,-0.14 -0.81,-0.15 -0.99,-0.15 -0.27,-0 -0.81,0.02 -1.03,0.11 -0.05,0.05 -0.12,0.09 -0.17,0.17 0.08,-0.01 0.03,-0.03 0.07,0.02 0.01,-0.07 0.02,-0.05 0.08,-0.06l-0.05 0.08c0.01,0 0.01,-0.01 0.01,-0 0,0.01 0.03,-0.06 0.15,-0.1 0.41,-0.12 1.4,-0.1 1.8,0 0.2,0.05 0.18,0.16 0.22,0.36l0.28 1.43c-0.02,-0.1 -0.03,-0.28 -0.05,-0.4 -0.04,-0.26 -0.19,-1.05 -0.25,-1.21l0.06 0.05zm-2.29 -0.01l0 0.04 0.03 -0.03c0.08,-0.12 0.05,-0.09 0.03,-0.13l-0.06 0.12z"/>
   <path class="fil7" d="M1.54 5.57c-0.08,-0 -0.08,-0.01 -0.09,-0.08 0.05,-0.04 0.13,-0.04 0.18,0 -0.01,0.07 -0.01,0.08 -0.09,0.08zm0.81 0.1l0 -0.3c-0.06,0.01 -0.12,0 -0.18,0 -0.15,-0 -0.08,-0 -0.1,-0.01 -0,-0 -0.01,-0.01 -0.01,-0.01 -0.2,0 -0.47,-0.04 -0.73,-0.01 -0.02,0.08 -0.01,0.25 0,0.29 0,0 0.01,0.02 0.01,0.02 0,-0 0,0.01 0.01,0.02 0.09,0.08 0.39,-0.01 0.49,-0 0.08,0.01 -0.01,-0 0.06,0.02 0.06,0.02 0.4,0.01 0.46,0z"/>
   <path class="fil1" d="M0.97 10.46c-0.01,-0.15 0.01,-0.12 0.04,-0.24 0.03,-0.11 0.03,-1.52 0.01,-1.6 -0.02,-0.07 -0.08,-0.08 -0.15,-0.12 -0.05,-0.01 -0.04,0.02 -0.04,0.08l0.01 0.4c0.01,0.17 0.02,0.35 0.02,0.52 0,0.38 0.03,0.58 0.11,0.92l0.01 0.03c0,-0 0,0.01 0,0.01z"/>
   <path class="fil4" d="M3.78 5.43c0.06,-0.01 0.16,-0.01 0.24,-0.01 0.02,0.07 -0.03,0.03 0.03,0.05 0.04,0.01 0.06,-0 0.06,0.04 0.01,0.08 -0.02,0.04 -0.08,0.07l-0.19 0.02c-0.12,-0.01 -0.01,0 -0.07,-0.02 -0.09,-0.04 -0.15,0.04 -0.19,-0.09l0.21 -0.05zm0.42 0.27l0.01 -0.01 -0.01 -0.19c0,0 0.05,-0 -0.02,0.08 -0,-0.12 -0.02,-0.14 0.03,-0.22l0.02 -0.02c-0.05,-0.07 -0.12,-0.05 -0.23,-0.05 -0.09,0 -0.18,-0 -0.27,-0 -0.17,0 -0.36,-0.01 -0.52,0l0.27 0.02c-0,0 -0.01,0 -0.02,0.01 -0,0.01 -0.01,0.01 -0.02,0.01 -0.08,0.03 -0.11,0.01 -0.18,0.03 -0.1,0.02 -0.08,0.04 -0.06,0.18l0 0.11c0.13,0.05 0.33,0 0.48,0.02 0.16,0.02 0.32,0.03 0.49,-0 0.03,0.03 -0,-0.01 0.03,0.03z"/>
   <path class="fil1" d="M4.43 12.13l0 0 0.01 0.01 0 0.02 0.01 0.01 0.01 0.04 -0 0.08 -0 0.04c-0.05,0 -0.09,0.02 -0.13,0.03 0.08,-0.04 0.1,0 0.1,0 -0.02,0.03 0,0.01 -0.05,0.03l-0.68 0.07c-0.09,0.01 -0.17,-0 -0.26,0.01l-0.02 0.01c-0.11,0.02 -0.27,0.02 -0.38,0.02 -0.06,0 -0.14,-0 -0.19,-0 -0.15,-0.01 -0.05,-0.06 -0.13,-0.05 -0,0.07 -0.04,0.05 -0.13,0.05 -0.06,0 -0.12,0 -0.18,-0 -0.11,-0 -0.22,-0.01 -0.32,-0.01 -0.05,0.04 -0.08,0.03 -0.14,0.03 0.01,0.03 -0.01,-0.02 0.01,0.01 0.02,0.03 0.01,0.04 0.03,0.07 0.2,0.04 0.59,0.01 0.81,0.01 0.14,0 0.28,0 0.41,0 0.11,-0 0.2,0.01 0.28,-0.03 0,-0 0.01,-0 0.01,-0 0.02,-0.01 0.57,-0.01 0.78,-0.07 0.15,-0.04 0.05,-0.01 0.16,-0.01 0.13,-0.01 0.34,-0.1 0.29,-0.26 -0.01,0.02 -0,0.02 -0.02,0.04 -0.02,0.03 0,0.01 -0.03,0.02 0.01,0.03 0.01,0.03 -0.01,0.02 -0.01,0.02 0.02,0.04 -0.02,-0l-0.01 0.01c0.01,0.02 0.05,-0 -0.02,0.03l-0.17 0.04 0.05 -0.18c-0,-0 -0.01,-0.02 -0.01,-0.03 -0.03,-0.06 -0.05,-0.07 -0.05,-0.13 -0.03,-0.04 -0,-0.02 -0.03,-0.03 0.01,0.04 -0,0.04 0.03,0.09z"/>
   <path class="fil2" d="M4.2 5.7c-0.01,0.01 -0,0.01 -0.03,0.02l-0.48 0.01c-0.14,-0 -0.38,0.02 -0.51,-0.01 -0,-0.08 -0.01,-0.15 -0.01,-0.23 -0,-0.04 -0,-0.07 -0,-0.11 0.01,-0.11 0.02,-0.08 0.03,-0.09 0.16,-0.01 0.36,-0 0.52,-0 0.09,0 0.18,0 0.27,0 0.11,-0 0.17,-0.02 0.23,0.05 0.02,0.08 0.03,0.28 -0.01,0.35 0.01,0.03 0.02,0.03 -0.01,0.01zm-1.82 -0.03l-0 -0.07 -0 -0.22 0 -0.09 0.77 0 -0 0.09c0.02,0.06 0.02,0.22 -0,0.3l0 0.05c-0.07,-0 -0.14,0 -0.21,0 -0.22,0 -0.13,-0.03 -0.21,-0.01 -0.07,0.02 -0.25,0.01 -0.32,0.01 -0.02,-0.03 -0.01,-0 -0.01,-0.06zm-0.03 -0.3l-0 0.3 -0.01 0.06c-0.08,0.01 -1.01,0.03 -1.06,-0.03 -0.04,-0.05 -0.01,-0.25 0,-0.32 0.02,-0.09 0,0.07 0,-0.02 0,-0 -0.05,-0.08 0.09,-0.09 0.19,-0.01 0.72,0.01 0.95,0 0,0 0,0.01 0.01,0.01l0.01 0.04c0,0 0,0.04 0,0.04zm-0.97 -0.12c-0.06,0.01 -0.08,0.02 -0.12,0.04l-0.01 0.03c-0,0.11 -0.03,0.27 0.01,0.38 0.01,0.02 0.01,0 0.01,0.03 0.18,0.07 0.62,0.04 0.85,0.04 0.29,-0 0.58,0 0.87,-0 1.47,-0.01 1.28,0.12 1.28,-0.45 -0,-0 -0.01,-0.01 -0.01,-0.01 -0,-0 -0.01,-0.01 -0.01,-0.01 -0,-0 -0.01,-0.01 -0.01,-0.01 -0.04,-0.03 -0.06,-0.03 -0.12,-0.04l-1.31 0c0.03,-0.06 0.01,-0.19 -0.01,-0.25 -0.02,-0.08 0.01,-0.04 -0.05,-0.06 -0.04,0.07 -0.06,0.23 -0.03,0.31l-1.33 0z"/>
   <path class="fil8" d="M2.36 9.46l0.03 0.04c0,0 0.01,0.01 0.01,0.01l0.03 0.03c0,0 0.01,0.01 0.01,0.01l0.03 0.03c0.04,0.04 0.11,0.06 0.18,0.09l-0.05 -0.05c-0.02,-0.02 -0.02,-0.02 -0.04,-0.03l-0.17 -0.18c-0.03,-0.12 -0.05,-0.19 -0.02,-0.33 0.01,-0.06 0.03,-0.08 0.06,-0.13 0.04,-0.05 0.08,-0.07 0.1,-0.1 0,-0.04 -0.01,-0.02 0.04,-0.02l0.03 -0.01 0.1 -0.07c-0.09,0 -0.07,0 -0.12,0.03 -0.17,0.08 -0.19,0.16 -0.22,0.19 0,0.01 -0.01,0.02 -0.02,0.02 0.01,0.04 -0,0.06 -0.02,0.07 -0.01,0.01 -0.03,0 -0.02,0.04 0.01,0.05 0,-0 0.02,0.01 -0.02,0.05 -0.02,0.09 -0.07,0.1 0.07,-0.01 0.03,-0 0.05,0.02l-0.04 0.09c0.04,-0.01 0.05,-0.01 0.06,-0.04 -0,0.03 -0.01,0.06 0.01,0.1l0.04 0.07zm0.26 -0.71c-0.13,-0.01 -0.23,0.08 -0.31,0.12l-0.01 0.02c-0,-0 -0,-0.01 -0.01,-0.01 -0,-0 -0,-0.01 -0,-0.01l-0.03 -0.14c-0.02,-0.05 -0.05,-0.1 -0.07,-0.14 0.02,-0.03 0.1,-0.14 0.13,-0.17 0.14,0.04 0.24,0.05 0.37,-0.02 0.11,-0.07 0.09,-0.01 0.21,0.03 0.15,0.05 0.18,0 0.32,-0 0.01,0.03 0.08,0.12 0.11,0.14 -0.02,0.07 -0.04,0.09 -0.07,0.15 -0.02,0.05 -0.03,0.11 -0.04,0.17 -0.05,-0.04 -0.17,-0.11 -0.26,-0.12l-0.01 0.02c0.01,0.03 0.01,0.01 0.06,0.05l-0.33 -0.07c0.04,0.05 0.01,0.03 0.08,0.04l0.04 0c0.09,0 0.26,0.09 0.3,0.2 0.01,0.03 0,0 0.01,0.04 0.03,-0.03 0.05,-0.01 0.02,-0.08 -0,-0 -0.01,-0.01 -0.01,-0.01 -0.06,-0.1 -0.05,-0.09 -0.11,-0.12 0.03,0.01 0.06,0.03 0.09,0.04l0.09 0.05c0.01,-0 0.02,-0 0.02,-0 0,0 0.01,-0 0.01,0 0,0 0.01,0 0.01,0 0.02,0.01 0.03,0.03 0.03,0.04 0.03,0.06 0.02,0.05 0.02,0.12 0.02,-0.03 0,-0.02 0.04,-0.03 -0.02,-0.11 -0.07,-0.1 -0.05,-0.25 0.02,-0.11 0.07,-0.15 0.1,-0.22 -0.06,-0.08 -0.12,-0.15 -0.18,-0.22 -0.22,0.08 -0.27,0.03 -0.44,-0.06 -0.08,0.02 -0.09,0.07 -0.2,0.09 -0.13,0.03 -0.16,-0 -0.27,-0.03 -0.02,0.04 -0.05,0.08 -0.08,0.11 -0.04,0.05 -0.06,0.05 -0.09,0.12 0.05,0.09 0.17,0.27 0.06,0.39 0.04,0.04 0.03,0.07 0.05,0.09 -0.02,-0.05 -0.01,-0.05 -0.02,-0.12 0.04,-0.02 0.03,-0.03 0.07,-0.05 0,0 0.01,0 0.01,0.01 0,0.01 0.01,0.01 0.01,0.01 0.02,0.02 -0,0.01 0.03,0.01l0.03 -0.04c0.05,-0.05 0.12,-0.06 0.19,-0.09 0.09,-0.04 0.07,-0.01 0.05,-0.05z"/>
   <path class="fil4" d="M4.36 1.7l-0 0.03c0.02,0.02 0,-0.03 0.02,0.03 0.01,0.02 0.01,0.05 0.01,0.08l0.12 0.65c0.06,0.16 0.05,0.1 0.04,0.28l0.04 -0.06c0.02,0.15 0.05,0.34 0.03,0.5l0.03 -0.09 0 -0.03 0.02 -0.02 -0 -0.03c0.01,-0.05 0.01,-0.06 0.03,-0.11 0.02,-0.06 0.02,-0.06 0.06,-0.08 -0.02,-0.19 -0.05,-0.36 -0.09,-0.54 -0.03,-0.13 -0.09,-0.4 -0.08,-0.51 -0.03,-0.04 -0.02,-0.01 -0.03,-0.09 -0.16,0.01 -0.15,0.01 -0.17,-0.04l0 -0.03 -0.03 0 -0 0.05z"/>
   <path class="fil4" d="M2.91 8.58c-0.02,0.03 -0.02,0.02 -0.03,0.06 -0.01,0.01 -0.01,0.02 -0.02,0.03 -0.01,0.02 -0.01,0.01 -0.03,0.02 -0.04,-0.03 -0.05,-0.07 -0.06,-0.12 -0.01,0.02 -0,-0.01 -0.02,0.04 -0,0.01 -0,0.01 -0,0.01 -0.02,0.08 0.02,0.04 -0.03,0.07 -0.01,-0.02 -0.02,0.01 -0.02,-0.1 0,-0.04 0,-0.08 0,-0.11 0.12,0 0.1,0.02 0.13,0.13 0.07,-0.07 0.02,-0.12 0.13,-0.13l-0 0.19c-0.01,0.04 0,0.01 -0.02,0.03 -0.04,-0.01 -0.03,0.04 -0.03,-0.13zm-0.23 -0.19c-0,0.07 -0,0.07 -0.06,0.09 0.03,-0.01 0.03,-0.02 0.03,0.02 0.03,0.1 0.03,0.13 -0.08,0.14l-0.06 0.07c-0.04,-0.05 -0.03,-0.1 -0.03,-0.16 -0.02,0.03 -0.18,0.08 -0.17,0.31 0.08,-0.04 0.18,-0.13 0.31,-0.12l0.08 -0.02c0.03,-0 0.07,0 0.1,0l0.13 0.01c0.04,0.02 0.02,0.01 0.04,0.02 0.09,0.01 0.21,0.08 0.26,0.12 0.01,-0.06 0.02,-0.11 0.04,-0.17 0.02,-0.07 0.05,-0.09 0.07,-0.15 -0.03,-0.02 -0.1,-0.1 -0.11,-0.14 -0.13,0.01 -0.16,0.06 -0.32,0 -0.12,-0.04 -0.1,-0.1 -0.21,-0.03z"/>
   <path class="fil9" d="M1.23 11.28c0,-0.02 0.01,-0.02 -0.02,-0.02l-0.12 -0 -0 0.15 0.14 0.01c0,0.02 0.01,0.08 0,0.1 -0.01,0.08 0.01,0.02 -0.02,0.06l-0.13 -0 0.02 0.14c0.05,0.02 0.05,0 0.12,0.01 0,-0.08 -0.01,-0.1 0.02,-0.16l0.11 0.01 0 0.15 0.14 0 0 -0.14 -0.15 -0.01 -0 -0.16 0.15 -0 -0.01 -0.15 -0.12 -0 -0.03 -0.08c-0,-0.1 0.07,-0.07 0.16,-0.08l-0 -0.14 -0.14 -0c0,0.02 0,0.06 0,0.08 -0.01,0.04 -0,0.02 -0.01,0.05 -0,0 -0.01,0.02 -0.01,0.01 -0,-0 -0,0.01 -0.01,0.01 -0.04,0 -0.03,0.01 -0.06,-0 -0.03,-0.01 -0.02,-0 -0.04,-0.02l0 -0.12c0.03,-0.02 0.08,-0.02 0.11,-0.02l0 -0.15 0.15 -0 -0 -0.14 -0.14 -0 0 0.15c-0.08,-0.01 -0.08,-0.01 -0.12,-0.05l0.01 -0.18 -0.15 0 0 0.18c0.08,0 0.12,-0.01 0.14,0.04 0.01,0.04 -0,0.17 -0.01,0.15 -0,-0 -0,0.01 -0.01,0.01l-0.11 -0 -0 0.15 0.14 0.01 -0 0.16c0.03,-0 0.03,-0.01 0.06,-0 0.05,0.01 0.02,-0 0.05,0.03l-0 0.13 -0.11 0 -0 -0.14z"/>
   <path class="fil9" d="M4.38 11.26l-0.1 0c-0.04,-0.03 -0.03,-0.09 -0.03,-0.17l0.15 0 -0.01 -0.15 -0.14 -0 -0 -0.16c-0.02,-0.01 0.02,-0.01 -0.04,-0.02 -0.07,0.05 -0.05,0.03 -0.07,-0.01l-0 -0.11 -0.16 -0 -0 0.15c0.06,-0 0.12,-0 0.15,0.01 0.01,0.03 0.01,0.11 0.02,0.14l0.09 0.01c-0,0.02 0,0.08 0,0.09 -0.01,0.08 0.02,0.04 -0.03,0.06l-0.08 -0 -0 -0.14 -0.16 -0.01 -0 0.15 0.15 -0 0 0.15 -0.16 -0.01 -0 0.17 0.04 -0 0.1 0c0.03,0.02 0.03,-0.02 0.03,0.08 -0,0.1 -0.01,0.04 -0.02,0.05 -0.02,0.03 0.03,0.01 -0.05,0.02 -0.02,0 -0.07,-0 -0.09,-0l0.01 0.16 0.15 -0 0 -0.15 0.08 0c0.04,0.03 0.03,-0.04 0.03,0.05 -0,0.02 -0,0.05 0,0.06 0.01,0.05 -0.01,0.02 0.03,0.05l0.06 0c0.04,-0.01 0.03,-0 0.05,-0.02l0 -0.14 -0.15 -0 0 -0.16 -0.11 0 0.01 -0.16 0.11 0 -0 0.15 0.15 0c0,-0.16 0.02,-0.14 -0.03,-0.16z"/>
   <path class="fil10" d="M0.76 2.87l0.01 -0.01c0.05,0.01 0.03,-0.01 0.05,0.06 0.01,0.03 0.02,0.06 0.02,0.08 0.01,0.06 0.01,0.13 0.05,0.17 -0.01,-0.1 0.02,-0.42 0.07,-0.49 0,-0.13 0.01,-0.11 0.06,-0.22 -0.01,-0.08 0.1,-0.67 0.14,-0.75l-0.01 -0.01c-0.05,0.02 -0.12,0.03 -0.19,0.01 -0.02,0.17 -0.07,0.38 -0.1,0.56 -0.03,0.2 -0.06,0.38 -0.08,0.58z"/>
   <path class="fil1" d="M3.09 12.31c0.05,-0.11 0.09,-0.03 0.15,-0.04l0.36 -0.07c0.13,-0.01 0.03,-0.01 0.18,-0.06 0.08,-0.03 0.07,-0.01 0.13,-0.04 0.05,-0.03 0.14,-0.06 0.22,-0.05 -0.04,-0.12 -0.12,-0.07 -0.26,-0.06 -0.1,0.01 -0.21,0.01 -0.31,0.03 -0.09,0.01 -0.45,-0 -0.53,0.04 -0.07,0.04 -0.02,-0 -0.05,0.05 -0.04,0.14 -0.03,0.2 0.12,0.21z"/>
   <path class="fil0" d="M0.66 7.29c0.03,0.03 0.02,0.06 0.02,0.11 0,0.11 0.01,0.27 0,0.37 -0.01,0.09 -0.03,0.05 -0.04,0.16 -0,0.09 -0,0.1 0.04,0.16l0.02 0.02 0.01 0.02 0.01 0.01c0.06,0.01 0.03,-0.1 0.03,-0.28 0.01,-0.6 -0.02,-1.11 -0.02,-1.71l0.01 -0.51c-0,-0.1 0.01,-0.07 -0.06,-0.1 -0.02,0.03 -0.02,0.02 -0.02,0.11l-0 0.33c-0,0.3 0.02,1.15 -0,1.32z"/>
   <path class="fil11" d="M2 12.3c0.03,-0.06 0.03,-0.13 -0.02,-0.17 -0.02,-0.02 -0.04,-0.03 -0.06,-0.05 -0.03,-0.03 -0.04,-0.04 -0.06,-0.07 -0.04,0.01 -0.02,0.01 -0.07,0.01 -0.02,-0 -0.01,-0 -0.03,-0.01 -0.03,-0.01 -0.02,-0.01 -0.04,-0.02 -0.08,0 -0.23,-0.03 -0.29,-0 -0.05,0.02 -0.11,0.15 -0.11,0.23 0.2,0.05 0.46,0.07 0.67,0.08z"/>
   <path class="fil9" d="M2.88 9.79c0.01,0.08 -0.01,0.03 -0.06,0.05 -0.02,0.01 -0.02,0.03 -0.07,0.06 -0.06,-0.03 -0.03,-0.05 -0.11,-0.08l-0.1 -0.02c0.01,-0.11 0.06,-0.05 0.16,-0.03 0.16,0.03 0.11,-0.04 0.18,0.02zm0.11 -0.04c0.03,0.01 -0,-0.03 -0,-0 0,0 0,0 0,0zm0.03 -0.03c-0.01,0.07 0.01,0.04 -0.11,0.1 -0,-0.07 0.01,-0.01 -0.02,-0.09l0.13 -0.01zm-0.09 0.05c0,0.01 0.01,-0.02 -0,-0.01 -0.03,0.03 0,0 0,0.01zm0.24 -0.12c-0.01,0.03 0,0.01 -0.03,0.03 -0.02,0.01 -0.01,0 -0.03,0.02 -0.07,0.05 -0.03,0.02 -0.04,0.04 -0,-0 -0.01,-0 -0.01,-0.01l-0.03 -0.03c-0,-0.01 -0,-0.01 -0.01,-0.01l0.05 -0.03c0,-0 0,-0 0.01,-0 0.05,-0.03 0.01,-0.04 0.09,-0.01zm-0.81 0.02c-0.03,-0.03 -0.03,-0.02 -0.01,-0.06l0.02 0c0,0 0.01,0 0.01,0 0,0 0.02,0.02 0.02,0.02 0.07,0.07 0.12,0.02 0.14,0.13 -0.03,0 -0.03,0.01 -0.05,0l-0.07 -0.05c-0.02,-0.02 -0.04,-0.03 -0.06,-0.05zm0.81 -0.13l0.01 -0.03c-0.09,0 0.02,0.09 -0.3,0.19 -0.25,0.08 -0.08,0.02 -0.24,-0 -0.02,0.01 0,0.01 -0.03,0.01 -0.05,-0 -0.14,-0.06 -0.17,-0.12 -0.03,0 -0.02,0.01 -0.02,-0.02 -0.03,0.01 -0.02,0.01 -0.02,-0.02 -0.06,-0.02 -0.02,-0.01 -0.1,0.02 -0.04,-0.02 -0.01,-0.01 -0.05,-0.04 -0.05,-0.04 -0.01,-0.02 -0.07,-0.04 -0.02,0.04 -0.01,0 -0.02,0.06 0.06,0.11 0.14,0.21 0.25,0.25 0.06,0.03 0.12,0.04 0.18,0.07 0.09,0.03 0.1,0.06 0.16,0.09 0.29,-0.18 0.44,-0.14 0.57,-0.39 0.03,-0.06 0.03,-0.06 0.01,-0.1 -0.07,0.03 -0.09,0.11 -0.17,0.07z"/>
   <path class="fil12" d="M2.34 5.67c-0.05,0.01 -0.39,0.01 -0.46,-0 -0.07,-0.02 0.02,-0.01 -0.06,-0.02 -0.1,-0.01 -0.39,0.08 -0.49,0 -0,-0 -0.01,-0.02 -0.01,-0.02 -0,0 -0.01,-0.01 -0.01,-0.02 -0.01,-0.04 -0.02,-0.21 -0,-0.29 0.26,-0.03 0.53,0.01 0.73,0.01 0,0 0.01,0.01 0.01,0.01 0.02,0.01 -0.05,0.01 0.1,0.01 0.06,0 0.12,0.01 0.18,-0 0,-0 -0,-0.03 -0,-0.04l-0.01 -0.04c-0,-0 -0,-0.01 -0.01,-0.01 -0.23,0 -0.77,-0.01 -0.95,-0 -0.14,0.01 -0.09,0.09 -0.09,0.09 0,0.09 0.02,-0.07 0,0.02 -0.01,0.07 -0.04,0.27 -0,0.32 0.05,0.06 0.97,0.04 1.06,0.03l0.01 -0.06z"/>
   <path class="fil5" d="M0.65 4.86c0.03,0.11 0.03,0.22 0.03,0.36 0,0.07 0,0.12 -0.01,0.19 -0.02,0.12 -0.04,0.08 0.03,0.14 0.05,-0.04 0.03,-0.01 0.04,-0.07l-0 -0.22c0,-0.31 -0.03,-0.61 -0.04,-0.87 -0,-0.38 0.06,-0.78 0.03,-1.15 -0.11,-0.02 -0.09,-0.03 -0.08,0.31 0,0.33 0.02,1.07 -0,1.32z"/>
   <path class="fil13" d="M2.36 9.46c-0.05,0.07 -0.02,0.03 -0.07,0.07 0.04,0.01 0.05,-0 0.09,-0.01l0.02 0.04c0.03,-0 0.02,-0.01 0.02,0.02 0.03,-0 0.02,-0.01 0.02,0.02 0.03,0.02 0.06,0.04 0.09,0.07 0.04,0.03 0.06,0.04 0.11,0.05 0.16,0.02 -0.01,0.08 0.24,0 0.32,-0.11 0.21,-0.19 0.3,-0.19l-0.01 0.03c0.05,-0.03 0.01,0.02 0.02,-0.02 0.01,-0.03 -0.01,-0.01 -0.02,-0.01 0.01,-0.09 -0.01,-0.07 0.01,-0.11 0.06,-0.1 0.01,0.02 0.05,-0.06 -0.04,-0.1 -0.01,-0.12 -0.03,-0.23 -0.02,-0.11 -0.02,0.04 -0.06,-0.2l0.04 -0.01 -0.09 -0.05c-0.03,-0.01 -0.05,-0.03 -0.09,-0.04 0.06,0.03 0.05,0.02 0.11,0.12 0,0 0.01,0.01 0.01,0.01 0.03,0.07 0.01,0.04 -0.02,0.08 -0.01,-0.04 0,-0.01 -0.01,-0.04 -0.04,-0.11 -0.21,-0.19 -0.3,-0.2l-0.04 -0c-0.07,-0.01 -0.04,0 -0.08,-0.04l0.33 0.07c-0.05,-0.03 -0.05,-0.01 -0.06,-0.05l0.01 -0.02c-0.02,-0.01 0.01,-0 -0.04,-0.02l-0.13 -0.01c-0.03,-0 -0.07,-0 -0.1,-0l-0.08 0.02c0.03,0.03 0.04,0.01 -0.05,0.05 -0.07,0.03 -0.14,0.04 -0.19,0.09l-0.03 0.04 0.01 0.05c-0.03,-0.01 -0.02,-0.01 -0.02,0.02 0.01,0 0.02,-0.01 0.02,-0.02 0.02,-0.03 0.05,-0.11 0.22,-0.19 0.06,-0.03 0.04,-0.02 0.12,-0.03l-0.1 0.07 -0.03 0.01c-0.04,-0.01 -0.04,-0.02 -0.04,0.02l0.04 -0.02 0.03 -0.01c0.29,-0.07 0.39,0.05 0.39,0.05l0.02 0.01c0.21,0.16 0.17,0.57 0.01,0.61 -0.02,0.01 -0.01,-0 -0.03,0.01l-0.23 0.08 -0.28 -0.11c0.05,0.15 0.46,0.15 0.57,0.03 -0.35,0.36 -0.56,-0 -0.65,-0.09l0.17 0.18c0.02,0.01 0.02,0.01 0.04,0.03l0.05 0.05c-0.07,-0.03 -0.14,-0.04 -0.18,-0.09l-0.03 -0.03c-0,-0 -0.01,-0.01 -0.01,-0.01l-0.03 -0.03c-0,-0 -0.01,-0.01 -0.01,-0.01l-0.03 -0.04z"/>
   <path class="fil0" d="M4.54 2.77c0,0.13 -0.06,0.37 -0.09,0.51 -0.03,0.16 -0.08,0.34 -0.1,0.48 0.05,0.02 0.02,-0 0.06,0.04 0.02,0.02 0.02,0.02 0.03,0.05 0.01,0.02 0.03,0.09 0.03,0.13l0.13 -0.77c0.03,-0.15 -0.01,-0.35 -0.03,-0.5l-0.04 0.06z"/>
   <path class="fil9" d="M4.28 1.15c-0.02,0.03 0.03,0.03 -0.08,0.03 -0.03,0 -0.07,-0 -0.1,0l0.04 0.17 0.05 0 0.14 0 -0.04 -0.17 0.18 -0 -0.02 -0.16 -0.1 -0.02c-0.11,-0 -0.09,0.01 -0.09,0.03l0.03 0.12zm0.06 0.33l0.04 0.05 0.16 -0 -0 -0.06 -0.02 -0.12 -0.18 0 0.01 0.13zm0.03 0.22l0 -0.05 -0.01 -0.11 -0.18 -0c0,0.06 0.02,0.11 0.02,0.18l0.15 -0.01z"/>
   <path class="fil3" d="M4.53 0.93c0.01,-0.04 0.02,-0.03 -0.02,-0.03 -0,0.03 0.01,0.03 -0.02,0.03 -0,0.03 -0.01,0.03 0.02,0.03 0,-0.03 -0.01,-0.03 0.02,-0.03 -0.01,0.05 0.01,0.02 -0.02,0.03 -0,0.04 -0.02,0.03 0.02,0.03l0.01 -0.04c0.01,0.07 0.01,0.02 -0.02,0.04 0.01,0.07 -0,0.02 0.03,0.04l0 -0.04c0.02,0.08 0.03,0.09 0.06,0.15 0.03,-0.05 0.02,-0.08 0.01,-0.13 -0.03,-0.14 -0.02,-0.11 0.01,-0.14 0.01,-0.07 0,-0.02 -0.02,-0.04l-0.01 0.05c-0.01,-0.1 -0,-0.05 0.02,-0.07 -0.01,-0.06 -0.01,-0.03 -0.03,-0.05l0 0.05c-0,-0 -0.02,-0.04 -0.02,-0.06 -0,-0.05 -0.03,-0.01 0.01,-0.05l-0.02 -0.03c0.01,-0.04 0.02,-0.03 -0.02,-0.03 -0,0.04 0.01,0.03 -0.03,0.03 -0.01,0.04 -0.02,0.03 0.02,0.03 0,-0.04 -0.01,-0.03 0.03,-0.04 -0.01,0.06 0,0.02 -0.03,0.04 -0,0.06 0.02,0 -0.03,0.01 -0,0 -0.01,-0 -0.01,0 0.03,0.04 0.05,0.07 0.07,0.13l-0.08 -0.12c-0.03,-0.03 -0.02,-0.02 -0.03,-0.03 0,0.08 0.11,0.13 0.08,0.2zm-0.13 -0.4l0.02 0.01 0.01 0.02 0.01 0.02c0.01,0.07 0,0.02 0.02,0.04 -0.01,0.03 -0.01,0.02 0.02,0.02l0 -0.03 -0.03 0.01 -0 -0.05c0.08,0.09 -0.04,-0.07 0.04,0.01 -0.02,-0.07 0.01,-0.02 -0.04,-0.04 -0,0.03 0.01,0.02 -0.02,0.03l-0.01 -0.02 -0.01 -0.02c0,-0.02 0.01,-0.02 -0.02,-0.01 -0.02,-0.02 -0.02,-0.02 -0.04,-0.04l0.04 -0.01c-0.02,-0.04 0.01,-0.01 -0.02,-0.03 -0.03,-0.02 -0,-0 -0.04,-0.02 -0.02,0.02 -0,0.02 -0.06,0.01l0.03 -0.02c0,-0 0.02,0 0.03,0 -0.02,-0.04 -0,-0.02 -0.04,-0.03 -0.01,0.01 0.01,0.05 -0.06,0.01 -0.05,-0.03 -0.05,-0.01 0,-0.04 0,-0.03 0.01,-0.03 -0.02,-0.02l-0.04 0.03c-0.03,0.01 -0.04,-0.01 -0.06,-0.02 0.04,-0.03 -0.02,-0.05 0.08,-0.02l-0 0c-0.03,-0.03 -0.02,-0.03 -0.07,-0.04 0.01,0.03 0.01,-0.01 -0,0.05 -0.06,-0.02 -0.12,-0.07 -0.17,-0.06 -0.01,0.05 0.08,-0.02 -0.02,0.05 0,0.03 -0.01,0.03 0.02,0.02 0.04,-0.03 0.01,-0.03 0.09,-0 -0.02,0.01 -0.03,0.03 -0.06,0.02 0.02,0.04 0,0.02 0.04,0.03l0.02 0.01 -0.02 -0.01c0.03,-0.02 -0.01,-0.04 0.05,0.01l0.15 0.12c0,0 0.01,0.01 0.01,0.01l0.02 0.02c0.01,0.01 0.01,0.01 0.02,0.02l-0.1 -0.06c-0.02,-0.01 -0.01,0.03 -0.03,-0.01 -0,-0.01 -0.01,-0 -0.01,-0.01 0.03,0.04 -0,0 0.03,0.03 0.06,0.05 0.02,-0.01 0.11,0.1l-0.14 -0c-0.03,0.03 0,0.01 -0.05,0.03 -0,0 -0.04,0.01 -0.05,0.01 -0.06,0 -0.06,0 -0.1,-0.02 0,0.07 -0.01,0.01 0.01,0.05 0,0 0.01,-0 0.01,-0 0,0 0.01,-0 0.01,-0l0.17 -0.01c0.03,-0.04 -0.03,-0.02 0.07,-0.03 0.02,-0 0.06,-0 0.08,-0l0.06 0.09 0.03 0.03c0,-0.04 -0.01,-0.03 0.02,-0.04 -0.01,0.03 -0.02,0.02 0.01,0.02l-0.01 -0.02c-0.02,-0.03 -0.01,-0.02 -0.03,-0.04 -0.01,-0.02 -0.01,-0.02 -0.02,-0.04l-0.18 -0.18c0.09,0.08 0.22,0.17 0.25,0.28l0.02 -0.06c0.03,0.05 0.01,0.03 0.05,0.04 -0.03,-0.06 -0.08,-0.12 -0.13,-0.16 0.01,-0.04 -0.01,-0.02 0.03,-0.03zm-0.03 0.24c-0.01,-0.03 0.03,-0 -0.02,-0.04 0.01,0.07 -0,0.02 0.02,0.04zm-0.38 0.05l0.03 -0c-0,-0 -0.01,-0.02 -0.01,-0.03 -0.01,-0.04 -0.02,-0.07 -0.04,-0.09l-0 0.03c0,0 0,0.01 0,0.01 0,0 0,0.01 0,0.01l0.03 0.06zm0.44 -0.06c0.01,-0.04 0.02,-0.03 -0.02,-0.03 0,0.04 0.01,0.03 -0.02,0.04 0.01,-0.03 0.02,-0.02 -0.01,-0.02l0.01 0.02c-0.01,0.04 -0.02,0.03 0.02,0.03 0,-0.04 -0.01,-0.03 0.02,-0.03l0.01 0.02c0.01,0.05 0.01,0.01 -0.02,0.03 -0.01,0.03 -0.01,0.02 0.02,0.02 0,-0.03 -0.01,-0.03 0.02,-0.03 -0.02,-0.05 0,-0.02 -0.03,-0.02l-0.01 -0.02z"/>
   <path class="fil6" d="M1.09 12.42c0.1,0.01 0.26,0.04 0.36,0.03 0.05,0.03 0.19,0.03 0.27,0.03l0.05 0 0.2 0.03 0.14 -0.01c0.11,-0 0.21,0 0.32,0.01 0.06,0 0.12,0 0.18,0 0.09,-0 0.13,0.02 0.13,-0.05 0.08,-0.01 -0.01,0.04 0.13,0.05 0.05,0 0.14,0 0.19,0 0.11,-0 0.27,-0 0.38,-0.02l-0.16 -0c-0.03,-0.02 -0.02,0.03 -0.02,-0.04 -0.03,0.01 -0.07,0.02 -0.1,0.03 -0.07,0.03 -0.15,0.02 -0.22,-0.03 -0.02,-0.02 -0.05,-0.05 0.01,-0.07 0.03,-0.02 -0.03,-0.01 0.05,-0.02 0,-0 0.04,-0 0.05,-0 0.03,-0 0.04,0 0.07,-0l-0.66 -0.01c0.01,0.06 -0,0.02 0.02,0.03 -0,0 -0.01,0 -0.01,0.01 -0,0 -0.01,0 -0.01,0l-0.08 0.04c0.1,0.01 0.11,-0.02 0.22,0 -0.02,-0.02 -0,-0.01 -0.04,-0.02 -0.12,-0.05 0.08,0.03 -0.03,-0.01l-0.05 -0.02c0.06,-0.04 0.17,-0.03 0.25,-0.02l0 0.09 -0.02 0.01c-0,0 -0.01,0.01 -0.02,0.01 -0.02,0.01 -0.01,0 -0.03,0.01l-0.25 0c-0.07,0.03 -0.14,0 -0.24,-0 -0.05,-0 -0.07,-0 -0.11,-0.02 -0.04,-0.01 -0.03,-0.01 -0.09,-0.02 -0.16,-0.01 -0.14,0.03 -0.25,-0 -0.02,-0.01 -0.02,-0 -0.04,-0.02 -0.03,-0.01 -0.02,-0.01 -0.04,-0.03 0.13,-0.03 0.24,0.03 0.29,-0.01 -0.01,-0 -0.04,-0.01 -0.05,-0.01 -0.05,-0.02 -0.01,0.01 -0.05,-0.04 0,0 -0.14,0.07 -0.16,-0.02 -0,-0.01 -0.01,-0.01 -0.01,-0.01 -0.01,0.06 0.02,0.02 -0.02,0.05l-0.16 -0.02c-0.03,-0.01 -0.01,-0.01 -0.03,-0.02 0.05,-0.04 0.12,-0.03 0.21,-0.01l0 -0.02 -0.12 -0.02 -0.08 0.01 -0.04 0.03 -0.05 -0 0.02 0.01c0.07,0.05 0.02,0.03 0.08,0.05 0.03,0.01 0.12,0.01 0.15,0.01 -0.02,0.01 -0,0.01 -0.04,0.02 -0.04,0.01 -0.08,0 -0.13,0.01 -0.06,-0.04 -0.15,-0 -0.15,-0.07 -0.01,-0.06 -0.02,-0.01 0.03,-0.04 0,-0.04 0.01,-0.03 -0.03,-0.03 -0.03,0.05 0.04,0.03 -0.06,0.03 -0,0 -0.05,-0.01 -0.05,-0.01 -0.05,-0.01 -0.08,-0.02 -0.13,-0.02l0 0.01c0.03,0.05 0.03,0.04 0.04,0.1z"/>
   <path class="fil14" d="M3.09 12.31c0.15,0 0.9,-0.01 1.06,-0.08 0.02,-0.01 0.02,-0.01 0.04,-0.02 -0.01,-0.06 -0.04,-0.11 -0.07,-0.15 -0.08,-0 -0.16,0.03 -0.22,0.05 -0.06,0.03 -0.06,0.01 -0.13,0.04 -0.15,0.05 -0.05,0.05 -0.18,0.06l-0.36 0.07c-0.06,0.01 -0.1,-0.07 -0.15,0.04z"/>
   <path class="fil4" d="M4.54 11.95c-0,0.04 0.01,0.03 -0.02,0.02 0.01,0.03 0.01,0.02 -0.02,0.02 0.01,0.03 0.02,0.02 -0.01,0.02 0.01,0.03 0.01,0.02 -0.01,0.02 0,0.03 0.01,0.02 -0.02,0.01 -0.02,0.03 0.02,0.01 -0.03,0.03 0.01,0.06 0.02,0.06 0.05,0.13 0,0 0.01,0.02 0.01,0.03l0.05 -0.01 0.02 -0 0.03 -0.02 0.03 -0.01 0 -0.02 0.01 -0.01 0.03 -0.05 0.04 -0.36c-0.03,-0.01 -0.09,-0.03 -0.14,-0.05l-0.04 0.25zm-0.29 0.3l-0.06 0.02 0.06 0.01 -0.04 0.01c-0.06,0.09 -0.05,0.05 -0.13,0.09 -0,0 -0.01,0.02 -0.07,0.04 -0.05,0.02 -0.03,0 -0.08,0.04l0.21 -0.04c0.09,-0.02 0.04,-0.03 0.11,-0.07l0.21 -0.04 0 -0.08c-0.01,0.02 0,0.03 -0.09,0.05 -0.02,0 -0.05,0.01 -0.07,0.01l-0.05 -0.02zm0.2 -0.08l-0.01 -0.01 0.01 0.01zm-0.01 -0.03l-0.01 -0.01 0.01 0.01z"/>
   <path class="fil9" d="M1.07 1.03c0,0.07 -0.02,0.08 -0.02,0.14 0.04,0.04 0.04,0.02 0.18,0.02 -0,0.04 -0,0.05 -0.03,0.07l-0.01 0.08c-0.03,0.04 0,0.02 -0.05,0.04 -0,0 -0.04,0 -0.05,0 -0.03,0 -0.07,-0 -0.1,-0l-0.02 0.19 0.1 0.01c0.03,-0.02 0.03,-0.01 0.09,-0.02 0.01,-0.07 0.03,-0.14 0.03,-0.18 0.13,-0.01 0.13,0.01 0.19,-0.02l0.02 -0.1c-0.01,-0.06 0.02,-0.02 -0.02,-0.05 -0.02,0 -0.07,0 -0.08,0 -0.08,-0.01 -0.04,0.01 -0.06,-0.03l0.03 -0.11c-0.01,-0.06 0.04,-0.04 -0.06,-0.05 -0.03,-0 -0.09,-0.01 -0.12,0.01 -0,0 -0.01,0.01 -0.02,0.01z"/>
   <path class="fil9" d="M1.82 7.79l0 -0.26 0.04 0.08 0.01 0.05 0.01 0.05 0.01 0.05c0.03,0.03 0,0.02 0.05,0.03 -0.01,-0.03 -0.01,-0.03 0.02,-0.03l0.04 -0.14c0.02,-0.04 0.01,-0.02 0.03,-0.04l0 0.22 0.08 0 0.01 -0.39 -0.11 -0c-0.04,0.06 -0.06,0.16 -0.09,0.24l-0.02 -0.06c-0.02,-0.01 -0.02,0.03 -0.02,-0.05l-0.01 -0.05 -0.02 -0.05 -0.1 0 -0 0.36 0.07 0.01z"/>
   <path class="fil11" d="M0.19 3.35c0,-0 0.01,-0.05 0.06,-0.01 0.01,-0.02 -0.04,-0.03 0.05,-0.02l-0.02 -0.05 -0.06 -0 -0.05 -0.02 0.06 -0.02c0,-0.03 -0.01,-0.02 0.03,-0.02l0.01 0c0.01,-0.01 0.01,-0.01 0.03,-0.02 0.04,-0.02 0.01,-0 0.04,-0.01l0.17 -0.04c0.02,-0.01 -0,-0 0.03,-0.02 0,-0 0.02,-0.01 0.02,-0.01l0.02 -0.13c-0.03,0 -0.02,0.01 -0.02,-0.02l-0.07 -0.01c-0.1,0.01 -0.2,0.06 -0.28,0.1 -0.13,0.07 -0.14,0.07 -0.13,0.25 0.04,-0.03 0.05,-0.04 0.11,-0.04 -0,0 -0.01,0 -0.01,0.01 -0,0.01 -0.01,0.01 -0.01,0.01l-0.06 0.06c0.05,0.03 0.03,0.02 0.09,0.02z"/>
   <path class="fil4" d="M4.88 2.49c0.03,-0.15 0.01,-0.47 -0,-0.62l-0.07 -0.58c-0.03,0.04 0.03,0.05 -0.06,-0.01 -0.01,0.18 0.04,0.44 0.05,0.63 0.01,0.12 0,0.42 0.06,0.52 0.01,0.01 0,0 0.02,0.03 0.01,0.02 0,0.01 0.01,0.04zm-0.03 0.32c0.03,-0.04 0.03,-0.12 0.03,-0.19l-0.03 0.1c-0,-0.12 -0.02,-0.19 -0.01,-0.33 -0.03,0.06 -0,0.38 0.01,0.41z"/>
   <path class="fil3" d="M4.8 4.57c0,-0 0,-0.02 0.01,-0.02 0.01,0.02 0.03,-0.21 0.02,-0.27l0 0.58 0.02 0.01 -0 -1.66 -0.07 -0.01 -0.01 0.01 0.02 1.35z"/>
   <path class="fil9" d="M3.94 0.64c0.04,0.02 0.04,0.02 0.1,0.02 0,-0 0.04,-0.01 0.05,-0.01 0.05,-0.01 0.02,0 0.05,-0.03l-0.03 -0.12c-0.06,-0.03 -0.05,0 -0.12,-0l-0.08 0 0.03 0.14zm0.09 0.19l-0.03 0 0.03 0.12 0.03 0.04c0,0 0,0.01 0.01,0.01 0.2,0.01 0.14,0 0.16,-0.03l-0.01 -0.07 -0.03 -0.06 0.09 -0.02c0.01,0 0.05,0 0.05,0 0.05,-0.01 0.02,0.01 0.05,-0.03l0.01 -0.02c-0.03,-0.01 -0.02,0.03 -0.02,-0.04l0 -0.01 -0.06 -0.09c-0.03,0 -0.06,0 -0.08,0 -0.11,0.01 -0.05,-0.01 -0.07,0.03l0.05 0.14 -0.15 0.01z"/>
   <path class="fil15" d="M2.33 8.99c0.01,-0.03 -0,-0.03 0.02,-0.02l-0.01 -0.05c-0.03,0 -0.01,0 -0.03,-0.01 -0,-0 -0.01,-0.01 -0.01,-0.01 -0,-0 -0,-0.01 -0.01,-0.01 -0.04,0.02 -0.04,0.03 -0.07,0.05 0,0.07 0,0.07 0.02,0.12 -0.02,-0.02 -0.02,-0.05 -0.05,-0.09l-0.06 0.31c0.01,0.18 0.02,0.07 0.03,0.15 0.04,0.05 0,0.03 -0.01,0.08l0.02 0.04c0.01,-0.06 -0.01,-0.02 0.02,-0.06 0.06,0.02 0.02,0 0.07,0.04 0.04,0.03 0.01,0.02 0.05,0.04 0.07,-0.03 0.04,-0.04 0.1,-0.02 -0,0.03 -0.01,0.02 0.02,0.02 -0.01,0.03 -0.01,0.02 0.02,0.02 0.03,0.06 0.13,0.12 0.17,0.12 0.03,0 0.01,0.01 0.03,-0.01 -0.05,-0 -0.07,-0.02 -0.11,-0.05 -0.04,-0.03 -0.06,-0.04 -0.09,-0.07 0,-0.03 0.01,-0.02 -0.02,-0.02 0.01,-0.03 0.01,-0.02 -0.02,-0.02l-0.02 -0.04c-0.04,0.01 -0.05,0.02 -0.09,0.01 0.05,-0.04 0.02,-0 0.07,-0.07l-0.04 -0.07c-0.02,-0.03 -0.01,-0.07 -0.01,-0.1 -0.01,0.04 -0.02,0.03 -0.06,0.04l0.04 -0.09c-0.02,-0.03 0.02,-0.03 -0.05,-0.02 0.06,-0.02 0.06,-0.05 0.07,-0.1 -0.02,-0.02 -0.01,0.03 -0.02,-0.01 -0.01,-0.04 0.01,-0.03 0.02,-0.04 0.02,-0.02 0.03,-0.04 0.02,-0.07z"/>
   <path class="fil4" d="M0.85 12.13l0.05 0.05 0.02 0.01 0.04 0.04 0.06 0.01c0.04,-0.07 0.04,-0.1 0.07,-0.14 0,-0 0,-0.01 0.01,-0.01 0.01,-0.02 0.01,-0.02 0.02,-0.03 0.05,-0.08 0.06,-0.12 0.13,-0.19l0.01 -0.03 0 -0.01c-0.03,0.02 -0,-0 -0.03,0.02 -0,0 -0.01,0.01 -0.01,0.01 -0,-0 -0.01,0.01 -0.01,0.01 -0.05,0.07 -0.08,0.13 -0.13,0.2l-0.05 -0.05c-0.09,-0.07 -0.05,-0.08 -0.08,-0.32 -0.09,0.07 -0.1,0.04 -0.14,0.08 0.01,0.22 0.03,0.21 0.05,0.36zm0.22 -0l-0.02 0.02 0.02 -0.02z"/>
   <path class="fil4" d="M0.63 1.3l0 0.02c0.08,-0 0.03,0.01 0.04,0.06l-0.02 0.22c-0.02,0.25 -0.05,0.67 -0.02,0.9 0,-0.01 0.01,-0.04 0.02,-0.06 0.02,-0.05 0.02,-0.04 0.05,-0.06l0.05 -1.09 -0.05 0.05c-0,-0.05 -0,-0.03 0.01,-0.08 -0,0 -0.02,0.01 -0.02,0.02 -0.02,0.01 -0.01,0.01 -0.04,0.01z"/>
   <path class="fil15" d="M3.18 8.91l-0.04 0.01c0.04,0.24 0.03,0.09 0.06,0.2 0.02,0.1 -0.01,0.12 0.03,0.23 -0.04,0.08 0.02,-0.04 -0.05,0.06 -0.03,0.04 -0,0.02 -0.01,0.11 0.01,0 0.03,-0.02 0.02,0.01 -0.02,0.04 0.03,-0.01 -0.02,0.02 0.08,0.05 0.1,-0.03 0.17,-0.07l0.02 -0.03c-0,-0.08 0.01,-0.04 0.02,-0.11 0,-0.01 0,-0.08 0,-0.09 0,-0.05 -0.02,-0.16 -0.04,-0.2 -0.04,0.01 -0.02,-0.01 -0.04,0.03 -0,-0.07 0.01,-0.06 -0.02,-0.12 -0.01,-0.01 -0.02,-0.03 -0.03,-0.04 -0,-0 -0.01,-0 -0.01,-0 -0,-0 -0.01,0 -0.01,-0 -0,-0 -0.02,0 -0.02,0z"/>
   <path class="fil9" d="M4.2 5.7c0.03,0.01 0.02,0.01 0.01,-0.01 0.04,-0.07 0.03,-0.27 0.01,-0.35l-0.02 0.02c-0.05,0.07 -0.03,0.09 -0.03,0.22 0.08,-0.08 0.02,-0.08 0.02,-0.08l0.01 0.19 -0.01 0.01c-0.03,-0.04 -0,-0 -0.03,-0.03 -0.17,0.03 -0.33,0.02 -0.49,0 -0.15,-0.01 -0.35,0.03 -0.48,-0.02l-0 -0.11c-0.02,-0.14 -0.04,-0.16 0.06,-0.18 0.08,-0.02 0.11,0.01 0.18,-0.03 0.01,-0 0.01,-0 0.02,-0.01 0,-0.01 0.01,-0.01 0.02,-0.01l-0.27 -0.02c-0.01,0.01 -0.02,-0.02 -0.03,0.09 -0,0.04 -0,0.07 0,0.11 0,0.08 0.01,0.15 0.01,0.23 0.13,0.02 0.37,0 0.51,0.01l0.48 -0.01c0.02,-0.01 0.01,-0.01 0.03,-0.02z"/>
   <path class="fil11" d="M4.95 2.96c0,0.03 0.01,0.03 -0.01,0.02 0.02,0 0.02,-0.06 0.02,0.05 0,0.01 -0,0.06 -0.01,0.07l0.05 0.03 0.22 0.06c0.02,0 0.02,0 0.04,0.01 0.05,0.02 0.01,0.01 0.03,0.02l0.14 0.07c0.02,-0.18 -0.03,-0.2 -0.15,-0.26 -0.07,-0.03 -0.23,-0.11 -0.31,-0.09 0,0.03 0.01,0.02 -0.02,0.02z"/>
   <path class="fil14" d="M1.86 12.01c0.02,0.03 0.03,0.04 0.06,0.07 0.02,0.02 0.04,0.03 0.06,0.05 0.05,0.05 0.05,0.11 0.02,0.17 0.15,0.02 0.25,0.01 0.39,0.01 -0.01,-0.07 -0.02,-0.06 -0.08,-0.09 -0.12,-0.05 0.02,0.01 -0.15,-0.14l-0.08 -0.07 -0.22 0c-0.04,-0.02 -0.07,-0.02 -0.13,-0.02 0.02,0.01 0,0.01 0.04,0.02 0.02,0 0.01,0 0.03,0.01 0.05,0 0.03,0 0.07,-0.01z"/>
   <path class="fil1" d="M2.39 12.31c0.13,0 0.15,-0.01 0.16,-0.07 0.01,-0.06 -0.01,-0.16 -0.02,-0.2 -0.06,-0.02 -0.35,-0.03 -0.44,-0.03l0.08 0.07c0.16,0.15 0.03,0.09 0.15,0.14 0.06,0.02 0.06,0.02 0.08,0.09z"/>
   <path class="fil9" d="M3.57 7.58l-0 -0.1c0.15,-0 0.14,0.1 0,0.1zm-0.09 0.22l0.08 0c0.01,-0.06 -0.01,-0.1 0.02,-0.15 0.06,0.01 0.06,0.08 0.1,0.15l0.08 0 -0.06 -0.17c0.11,-0.09 0.08,-0.21 -0.06,-0.22 -0.05,-0 -0.11,-0 -0.16,0l-0.01 0.39z"/>
   <path class="fil5" d="M3.01 5.55c-0.13,-0 -0.4,0.03 -0.5,-0.02 -0.01,-0.09 -0.03,-0.06 0.07,-0.07l-0.07 -0.02c0.23,-0.02 0.04,-0.03 0.23,0 0.04,0.01 0.11,-0.04 0.2,-0.01 0.05,0.02 0.06,0.06 0.06,0.11zm-0.61 -0.14c0.02,-0.02 -0.01,-0.01 0.06,-0.02 0,-0 0.05,0 0.06,0l-0.04 0.08c-0.09,0 -0.07,0.02 -0.08,-0.06zm-0.02 0.18c0,-0 0.01,-0.02 0.01,-0.02l0.01 -0.03c0.18,0.02 0.01,0.06 0.27,0.06 0.11,-0 0.21,0.01 0.32,-0 0.1,-0.04 -0.08,0.05 0.03,-0.02 0.11,-0.07 0.06,0.02 0.12,-0.06 -0.01,-0.07 -0,-0.05 -0.1,-0.06 -0.03,-0.05 0.04,-0.05 -0.06,-0.06 0.1,-0.01 0.11,-0.03 0.17,0.01l0 -0.04c-0.06,0.01 -0.7,0.01 -0.77,-0l0 0.22z"/>
   <path class="fil9" d="M2.18 6.81c-0.05,-0.19 0.1,-0.26 0.13,-0.13 0.04,0.18 -0.1,0.24 -0.13,0.13zm0 -0.26c-0.2,0.09 -0.11,0.48 0.13,0.39 0.18,-0.07 0.11,-0.49 -0.13,-0.39z"/>
   <path class="fil11" d="M1.18 0.73l-0.02 0.01 -0 0.04 0.02 -0.05 0.03 -0.08 0.17 0.01c0.05,-0.01 0.04,-0.01 0.09,-0.01 0.01,0 0.04,0.01 0.05,0.01 0.05,-0 0.02,0.01 0.05,-0.01l-0.17 -0.01 -0.18 0.01c0.02,-0.06 0.05,-0.07 0.09,-0.11l0.03 -0.05 0.02 0.01c0,-0 0,-0.01 0.01,-0.01 0,-0 0,-0.01 0.01,-0.01 0,-0 0,-0.01 0.01,-0.01 0.01,-0.01 0.01,-0.01 0.02,-0.02l0.05 -0.02c0,-0.03 -0,-0.01 0.02,-0.02l0.04 -0.03c0.01,-0.05 0.02,-0.04 0.06,-0.05 0.05,-0.07 0.13,-0.12 0.17,-0.17 -0.1,0.05 -0.06,0.07 -0.08,0.03 -0.05,0.01 -0.28,0.08 -0.3,0.1 -0.01,0 -0.03,0.02 -0.04,0.02 -0.02,0.01 0.02,0 -0.04,0.01l-0.02 0.02c-0.04,0.05 -0.01,0.02 -0.05,0.03 0.01,0.04 0.02,0.03 -0.02,0.02l0 0c0,0.03 0,0.02 -0.02,0.01 0,0.03 0.01,0.02 -0.02,0.01 0.01,0.03 0.02,0.03 -0.02,0.02l-0.02 0.02c0.03,0.03 0.01,0.01 0.03,0.02 0,-0.03 -0,-0.02 0.02,-0.01 0.02,-0.04 0.14,-0.1 0.18,-0.12l0.05 -0.02c0.02,-0.01 0.01,0.03 0.03,-0.01 0,-0.01 0.01,-0 0.02,-0.01l-0.07 0.06c0.08,-0.04 0.03,-0.03 0.16,-0.08l-0.11 0.1c-0.02,0.02 -0.01,0.01 -0.03,0.02l-0.06 0.05c-0,-0 -0,0.01 -0.01,0.01l-0.02 0.01c0,0.02 0.01,0.02 -0.01,0.02 0,0.02 0.01,0.02 -0.02,0.02l-0.02 0.01c-0.05,0.04 -0.12,0.15 -0.16,0.18 0,0.03 -0.01,0.02 0.02,0.03l0.01 -0.02c0.01,-0.01 0.01,-0.01 0.02,-0.03 0.02,-0.02 0.01,-0.01 0.03,-0.02 -0.01,0.03 -0.01,0.01 -0.01,0.06zm-0.1 0.03l-0.02 0.02c-0,0.03 -0.01,0.02 0.02,0.02l0.01 -0.02 0.02 -0.02c-0.02,-0.02 0.01,-0.04 -0.03,-0zm-0.08 0.12c-0,0.04 0.01,0.03 -0.02,0.03 -0.01,0.03 -0.01,0.05 -0.03,0.09 -0,0.01 -0.02,0.04 -0.02,0.05 -0.01,0.04 -0.02,0.02 0.01,0.05l-0.01 -0.01c-0,-0.03 -0.01,-0.03 0.02,-0.03l0.01 -0.05c0,-0.04 -0.01,-0.03 0.02,-0.03l-0.01 -0c0,-0.04 -0.01,-0.03 0.02,-0.03l-0.01 0c0,-0.04 -0.01,-0.03 0.02,-0.03 0.01,-0.05 0.01,-0.05 0.05,-0.08 -0,-0.03 0.01,-0.03 -0.02,-0.03 -0.01,0.04 -0.02,0.06 -0.04,0.08zm-0.09 -0.16c0.01,0.04 0.02,0.04 -0.02,0.03 -0.01,0.15 -0.07,0.29 -0.08,0.45 0.05,-0.03 0.04,-0.03 0.08,-0.06 -0,-0.04 -0.01,-0.03 0.02,-0.02l-0 -0.02 -0.05 0.02c-0.04,0.02 0.01,-0 -0.03,0.02 0,-0.11 0.02,-0.24 0.06,-0.33l0.01 -0.03c-0,-0.05 -0.01,-0.03 0.02,-0.02 0,-0.08 0.04,-0.12 0.08,-0.16l0.1 -0.12c-0.07,0.02 -0.04,0 -0.14,0.12 -0.05,0.06 -0.04,0.07 -0.08,0.12z"/>
   <path class="fil16" d="M2.29 8.88l0.01 -0.02c-0.01,-0.24 0.15,-0.29 0.17,-0.31 0,0.06 -0.01,0.11 0.03,0.16l-0.01 -0.21 0.13 -0.02c-0,0.03 -0.01,0.02 0.03,0.02 0,-0.04 0.01,-0.03 -0.03,-0.02 0.06,-0.02 0.06,-0.03 0.06,-0.09 -0.13,0.07 -0.22,0.06 -0.37,0.02 -0.02,0.03 -0.11,0.14 -0.13,0.17 0.02,0.04 0.05,0.08 0.07,0.14l0.03 0.14c0,0 0,0.01 0,0.01 0,0 0,0.01 0.01,0.01z"/>
   <path class="fil6" d="M2.37 5.6l0 0.07c0.11,-0 0.24,0.01 0.36,0.01 0.13,-0 0.27,-0.01 0.4,-0 0,-0.08 -0,-0.17 -0,-0.26 -0.06,-0.05 -0.07,-0.02 -0.17,-0.01 0.09,0.01 0.03,0.01 0.06,0.06 0.1,0.01 0.08,-0.02 0.1,0.06 -0.05,0.08 -0.01,-0.02 -0.12,0.06 -0.11,0.07 0.08,-0.02 -0.03,0.02 -0.11,0.01 -0.21,0 -0.32,0 -0.26,0 -0.09,-0.04 -0.27,-0.06l-0.01 0.03c-0,0 -0.01,0.01 -0.01,0.02z"/>
   <path class="fil6" d="M2.37 5.37c0.06,0.01 0.71,0.01 0.77,0l0 -0.09 -0.77 0 -0 0.09z"/>
   <path class="fil1" d="M1.97 12.51l-0.2 -0.03 -0.05 -0c-0.08,-0 -0.22,-0.01 -0.27,-0.03 -0.1,0.01 -0.27,-0.02 -0.36,-0.03l0.02 0.02c0,0 0.01,0.01 0.01,0.01 0.11,0.11 0.07,0.07 0.34,0.11 0.11,0.02 0.36,0.04 0.47,0.03 -0.03,-0.06 0.01,-0.04 -0.06,-0.07l0.09 -0z"/>
   <path class="fil9" d="M3.59 6.66c0.01,0.01 0.01,0.01 0.03,0.04l0.02 0.09 -0.08 0 0.03 -0.13zm-0.16 0.28c0.14,-0 0.06,-0 0.12,-0.08l0.1 0c0.04,0.09 -0.01,0.08 0.12,0.08 -0.01,-0.03 -0.1,-0.39 -0.14,-0.4l-0.07 0c-0.04,0.1 -0.11,0.29 -0.12,0.4z"/>
   <path class="fil9" d="M3.26 7.52l0.03 0.13 -0.08 -0 0.05 -0.13zm-0.17 0.28c0.09,0 0.08,-0 0.1,-0.08l0.13 -0 0.03 0.08 0.08 -0c-0,-0.04 -0.09,-0.34 -0.13,-0.39l-0.09 -0c-0.02,0.08 -0.11,0.33 -0.11,0.4z"/>
   <path class="fil3" d="M0.92 0.82c-0.05,0.09 -0.06,0.22 -0.06,0.33 0.04,-0.02 -0.01,0 0.03,-0.02l0.05 -0.02c0.03,0.02 0.03,0.03 0.02,-0.01 -0.03,-0.03 -0.02,-0 -0.01,-0.05 0,-0.01 0.01,-0.04 0.02,-0.05 0.02,-0.04 0.02,-0.06 0.03,-0.09 0.03,-0.01 0.02,0 0.02,-0.03 -0.04,0 -0.03,-0.01 -0.02,0.03l-0.03 0.03c0.01,-0.05 0.01,-0.03 0.01,-0.08l-0.04 0.06c-0,0 -0,0.01 -0.01,0.01 0.01,-0.08 0.03,-0.11 0.06,-0.19 0,0 0.01,0.01 0.01,0.01 0.01,0.1 0.01,-0.01 -0.02,0.11 0.02,-0.04 0.04,-0.07 0.06,-0.1l0.04 -0.06c0,-0 0,-0.01 0.01,-0.01l0.01 -0.04c-0,0 -0.01,0 -0.01,0.01l-0.04 0.05c-0.06,0.06 0,0.02 -0.03,0.01 -0.02,-0.01 0.03,-0.09 -0.08,0.1zm0.1 0.09c-0.03,0 -0.02,-0.01 -0.02,0.03 0.04,0 0.03,0.01 0.02,-0.03zm-0.02 0.03c-0.03,0 -0.02,-0.01 -0.02,0.03 0.04,0 0.03,0.01 0.02,-0.03zm-0.01 0.03c-0.03,0 -0.02,-0.01 -0.02,0.03 0.04,0 0.03,0.01 0.02,-0.03zm-0.03 0.08c-0.03,-0 -0.02,-0.01 -0.02,0.03 0.03,0 0.03,0.01 0.02,-0.03zm-0.03 0.07c-0.03,-0.01 -0.02,-0.02 -0.02,0.02 0.03,0 0.02,0.01 0.02,-0.02zm0.02 -0.36c-0.03,-0 -0.02,-0.03 -0.02,0.02l0.02 -0.02zm-0.05 -0.02c0.04,0.01 0.02,0.01 0.02,-0.03 -0.03,0 -0.02,-0.01 -0.02,0.03zm0.42 -0.26c-0.02,-0 -0.02,-0.01 -0.01,0.02 -0.02,-0 -0.02,-0.01 -0.02,0.02l-0.02 0.01 0.02 -0.01c0.02,0 0.02,0.01 0.02,-0.02 0.02,0 0.02,0.01 0.01,-0.02l0.02 -0.01c0,-0 0.01,-0.01 0.01,-0.01l0.06 -0.05c0.02,-0.02 0.01,-0.01 0.03,-0.02l0.11 -0.1c-0.13,0.05 -0.08,0.04 -0.16,0.08l0.07 -0.06c-0.01,0 -0.01,-0 -0.02,0.01 -0.02,0.04 -0.01,0 -0.03,0.01l-0.05 0.02c-0.04,0.02 -0.16,0.08 -0.18,0.12 -0.03,-0.01 -0.02,-0.02 -0.02,0.01l0.02 -0.01c0.08,-0.02 0.02,-0.01 0.05,0.01 -0.05,0.04 -0.13,0.1 -0.15,0.17 0.04,-0.01 -0,0.01 0.03,-0.02 0.03,-0.03 0.04,-0.06 0.07,-0.09 0.04,-0.05 0.08,-0.04 0.12,-0.09 0.04,0.01 0.01,-0.02 0.02,0.03zm-0.14 -0.08c0.03,0.01 0.02,0.02 0.02,-0.01l-0.02 0.01c-0.03,-0.01 -0.03,-0.02 -0.02,0.01 -0.03,-0.01 -0.02,-0.01 -0.02,0.02 0.04,0 0.03,0.01 0.02,-0.02 0.03,0.01 0.02,0.01 0.02,-0.01zm0.02 -0.01c0.04,0.01 0.04,0.02 0.02,-0.02 -0.03,-0.01 -0.02,-0.01 -0.02,0.02zm0.17 -0.1l-0.07 0.03 -0.01 0.01 -0.02 0.02 0.02 -0.02c0.05,-0.01 0.01,-0 0.04,-0.01 0.01,-0.01 0.03,-0.02 0.04,-0.02zm-0.1 0.05l0.04 -0.02c-0.04,0 -0.04,-0.01 -0.04,0.02zm0.2 0.06c0.08,-0.01 0.02,0.01 0.04,-0.03l-0.04 0.03zm-0.11 0.09c0,-0 0.01,-0.01 0.01,-0 0,0 0.02,-0 0.02,-0 0,-0 0.03,-0 0.03,-0l0.1 -0c-0.02,-0.01 0.03,-0.04 -0.08,-0.03 -0,-0 -0,-0 -0,-0l0.02 -0.03 -0.05 0.02c-0.01,0.01 -0.01,0.01 -0.02,0.02 -0,0 -0.01,0.01 -0.01,0.01 -0,0 -0,0.01 -0.01,0.01 -0,0 -0,0.01 -0.01,0.01z"/>
   <path class="fil9" d="M1.84 6.62c0.14,-0.02 0.15,0.11 -0,0.1l0 -0.1zm-0.09 0.31l0.07 -0.02 0.01 -0.11c0.12,-0.01 0.23,-0.03 0.19,-0.17 -0.03,-0.1 -0.16,-0.09 -0.28,-0.08 -0.01,0.09 -0.02,0.32 0.01,0.39z"/>
   <path class="fil6" d="M3.84 12.37c0.03,0.01 0.02,0.01 0.02,-0.02 -0.03,0 -0.03,-0.01 -0.02,0.02l-0.15 0.01 -0.01 -0.03c0.03,0.01 0.03,0.01 0.03,-0.02l-0.03 -0 0.01 0.02c-0,0 -0,0.01 -0,0.01l-0.03 0.04c-0.08,0.01 -0.18,0.01 -0.19,0.09 0.09,-0.01 0.17,-0 0.26,-0.01l0.68 -0.07c0.05,-0.02 0.03,-0.01 0.05,-0.03 0,0 -0.02,-0.04 -0.1,-0 0.03,-0.02 0.08,-0.03 0.13,-0.03l0 -0.04 -0.21 0.04c-0.06,0.03 -0.01,0.05 -0.11,0.07l-0.21 0.04c0.05,-0.04 0.03,-0.02 0.08,-0.04 0.06,-0.02 0.07,-0.04 0.07,-0.04 0.08,-0.04 0.07,0.01 0.13,-0.09 -0.03,0.01 -0.03,0.02 -0.07,0.02 -0.09,0 -0.05,0.01 -0.07,-0.02l-0.02 0.01c-0.01,0.08 0,0.07 -0.07,0.09 -0.03,0.01 -0.1,0.01 -0.12,0.02 -0.06,0.02 -0.02,0.04 -0.08,0.05 -0.03,0.01 -0.11,0.01 -0.15,0.01 0.03,-0.04 0.05,-0.05 0.09,-0.06 0.12,-0.03 0.11,0.02 0.11,-0.03z"/>
   <path class="fil14" d="M2.35 11.96c0.02,0.02 0.01,0.01 0.04,0.02 0.08,0.04 0.25,0.02 0.35,0.02 -0.04,-0.03 -0.15,-0.03 -0.2,-0.02l0.44 -0c-0.04,-0 -0.07,-0 -0.1,-0 -0.08,0 -0.08,0 -0.11,0.02 0.09,0 0.3,0.02 0.37,-0.02 0.03,-0.04 0.04,-0.03 0.02,-0.08 -0.11,0.02 -0.65,0.02 -0.78,0.01l-0.02 0.05z"/>
   <path class="fil8" d="M3.35 9.44l-0.02 0.03c0.02,0.04 0.02,0.05 -0.01,0.1 -0.12,0.26 -0.28,0.21 -0.57,0.39 -0.06,-0.03 -0.07,-0.06 -0.16,-0.09 -0.06,-0.03 -0.12,-0.04 -0.18,-0.07 -0.11,-0.05 -0.19,-0.14 -0.25,-0.25l-0.02 -0.04c0.02,-0.06 0.05,-0.04 0.01,-0.08l-0.06 0.04c0.06,0.4 0.51,0.38 0.63,0.55 0.08,-0.03 0.1,-0.08 0.2,-0.12 0.18,-0.07 0.37,-0.12 0.46,-0.41l-0.02 -0.03c-0,-0 -0.01,-0.01 -0.01,-0.01 -0.01,-0.02 -0.01,-0.01 -0.02,-0.02z"/>
   <path class="fil9" d="M3.23 6.81c-0.17,-0.01 -0.02,0.05 -0.17,0.05 -0.06,-0.06 -0.07,-0.18 -0.01,-0.25 0.17,-0 0.01,0.1 0.18,0.05 -0.01,-0.17 -0.29,-0.2 -0.3,0.06 -0.01,0.31 0.31,0.26 0.31,0.08z"/>
   <path class="fil11" d="M4.12 0.3c-0.06,-0.05 -0.09,-0.03 -0.17,-0.05 -0.07,-0.02 -0.11,-0.05 -0.17,-0.04l0.08 0.07c0.03,-0.01 0.02,-0.02 0.02,0.02 0.05,0.03 0.03,0 0.05,0.04 0.1,-0.07 0,-0.01 0.02,-0.05 0.05,-0.01 0.11,0.04 0.17,0.06 0.02,-0.05 0.02,-0.01 0,-0.05zm-0.15 0.07c0.03,0.01 0.04,-0.01 0.06,-0.02 -0.08,-0.02 -0.05,-0.03 -0.09,0 0.04,0 0.02,-0.02 0.03,0.01zm0.06 0.04c0.06,0.02 0.04,0.03 0.09,0.08 0,0 0.01,0 0.01,0.01 0.01,0.04 0,-0 0.03,0.01l0.1 0.06c-0.01,-0.01 -0.01,-0.01 -0.02,-0.02l-0.02 -0.02c-0,-0 -0.01,-0.01 -0.01,-0.01l-0.15 -0.12c-0.07,-0.05 -0.03,-0.03 -0.05,-0.01l0.02 0.01zm0.35 0.34c0.03,0 0.02,-0.01 0.01,0.02 0.03,-0.01 0.02,0 0.02,-0.04l0 0c-0.03,0 -0.02,0 -0.01,-0.02 -0.03,0.01 -0.02,-0 -0.02,0.04l-0 -0zm0.04 0.07c0.03,-0.02 0.02,0.02 0.02,-0.03l-0.01 -0.02c-0.03,0 -0.02,-0 -0.02,0.03 0.03,-0 0.01,-0 0.01,0.02zm0.04 -0c-0.03,0 -0.02,-0 -0.02,0.03l0.05 0.05c-0.01,-0.06 -0.01,-0.03 -0.03,-0.08zm0.02 0.11c0.03,-0 0.02,0 0.02,-0.03 -0.02,0 -0.01,-0.01 -0.02,0.03zm0.01 0.03c0.03,-0.01 0.01,0.02 0.02,-0.03 -0.03,-0.01 -0.02,-0.01 -0.02,0.03l-0 0zm0.01 0.03c0.03,-0.02 0.03,0.03 0.02,-0.04l-0.01 0.04 -0.01 0zm0.03 0.04c0.02,0.05 0.04,0.1 0.08,0.14 0.05,0.05 0.01,0.02 0.05,0.04l-0.04 -0.33c-0.03,0.02 -0.04,-0 -0.01,0.14 0.01,0.05 0.02,0.09 -0.01,0.13 -0.04,-0.05 -0.04,-0.07 -0.06,-0.15l-0 0.04zm0.07 -0.2l0 -0.02c-0.02,0.03 -0.03,-0.03 -0.02,0.07l0.01 -0.05zm-0.02 -0.07l-0 -0.05c-0.04,0.03 -0.02,0 -0.01,0.05 0,0.02 0.02,0.05 0.02,0.06l-0 -0.05zm-0.02 -0.08c-0.03,0 -0.02,-0.01 -0.03,0.04l-0.01 0c0.04,-0.02 0.02,0.02 0.03,-0.04zm-0.07 -0.07l0.01 -0.03c-0.08,-0.09 0.04,0.07 -0.04,-0.01l0 0.05 0.03 -0.01 -0 0.03c0.04,0.03 0.02,0.01 0.03,0.05 0.03,-0.01 0.02,0 0.03,-0.03 -0,-0 0,-0.02 -0.05,-0.04zm-0.09 -0.13l-0.04 0.01c0.02,0.02 0.02,0.02 0.04,0.04 0.02,-0.01 0.02,-0.01 0.02,0.01l0.01 0.02 0.01 0.02c0.03,-0.01 0.02,0 0.02,-0.03 -0.03,-0.01 -0.06,-0.04 -0.07,-0.07zm-0.06 -0.05c-0,-0 -0.03,-0 -0.03,-0l-0.03 0.02c0.06,0.01 0.04,0.01 0.06,-0.01l-0 -0zm-0.09 -0.06c-0.06,0.03 -0.06,0.02 -0,0.04 0.07,0.04 0.04,-0 0.06,-0.01 -0.03,-0.01 -0.01,0.02 -0.05,-0.03zm-0.05 -0.03c-0.1,-0.03 -0.04,-0.01 -0.08,0.02 0.03,0.01 0.04,0.02 0.06,0.02l0.04 -0.03 -0.03 -0.01zm-0.21 0.14l0 0.02c0.07,0.01 0.06,-0.02 0.12,0 -0,-0.06 0,-0.01 -0.02,-0.03l-0.1 0z"/>
   <path class="fil3" d="M1.07 1.03c0,-0 0.02,-0.01 0.02,-0.01 0.03,-0.02 0.09,-0.01 0.12,-0.01 0.11,0.01 0.05,-0.01 0.06,0.05 0.05,-0.04 0.08,-0.03 0.15,-0.03 -0.03,0.1 -0.03,0.05 0.03,0.11l0.01 -0.12c0.01,-0.01 0.03,0.04 0.02,-0.05 0.02,-0.01 0.02,0.04 0.01,-0.04 -0.02,0.01 -0.02,-0.02 -0.01,0.04 -0.03,-0.01 -0.02,0.03 -0.02,0.05l-0.13 -0.01c-0.09,0 -0.02,0.01 -0.05,-0.03l-0.16 0.01c0,-0.05 0.01,-0.11 0.05,-0.14l0.13 0 0.01 0.01 -0.02 0.06c0.04,0 0.02,-0.04 0.02,-0.06 0.04,-0.04 0.11,-0.04 0.16,-0.03 0.04,0.01 0.02,-0.01 0.03,0.04 0,-0 0.01,-0.01 0.01,-0.01l0.08 -0.23c-0.02,0 -0.02,-0.01 -0.02,0.02 -0.03,0.02 -0,0.01 -0.05,0.01 -0,0 -0.04,-0 -0.05,-0.01 -0.05,-0 -0.04,-0 -0.09,0.01l-0.04 0.17 -0.19 -0 0.01 -0.04 0 -0.04c-0.04,0.02 -0.11,0.13 -0.13,0.24l0.06 -0.13c0,-0 0,-0.01 0.01,-0.01l0.02 -0.03c-0.01,0.1 -0.05,0.15 -0.06,0.22zm0.07 -0.32l-0.01 0.02c-0.03,-0 -0.02,0.01 -0.02,-0.03 -0.03,0.03 -0.01,-0.03 -0.03,0.04 0.04,-0.04 0.01,-0.02 0.03,0 0.03,-0.02 0.01,0.03 0.03,-0.04zm0.1 0.45c0.02,0.04 -0.02,0.02 0.06,0.03 0.01,0 0.06,-0 0.08,-0 0.04,0.03 0.01,-0.01 0.02,0.05 0.07,-0.09 0.03,-0.1 0.03,-0.13l-0.05 0.05 -0.14 0zm-0.18 -0.39c-0.03,0 -0.02,-0.01 -0.02,0.02 0.03,0.01 0.02,-0 0.02,0.03 0.03,-0.03 0.02,0.04 0.03,-0.05l-0.01 0.02c-0.03,0 -0.02,0.01 -0.02,-0.02zm0.33 -0.11l0.14 0.01 -0.04 0.13 -0.13 0 0.04 -0.13z"/>
   <path class="fil10" d="M3.99 5.55c-0.09,0.01 -0.16,0.03 -0.15,-0.07l0.17 -0 -0.02 0.08zm-0.42 -0.07c0.04,0.14 0.1,0.05 0.19,0.09 0.06,0.03 -0.05,0.02 0.07,0.02l0.19 -0.02c0.06,-0.03 0.09,0.01 0.08,-0.07 -0,-0.04 -0.03,-0.03 -0.06,-0.04 -0.06,-0.02 -0.01,0.02 -0.03,-0.05 -0.08,-0 -0.17,-0 -0.24,0.01l-0.21 0.05z"/>
   <path class="fil14" d="M2.91 9.11c-0.04,0.08 -0.04,0.02 -0.13,0.12 -0.06,-0.02 -0.17,-0.06 -0.2,-0.11 -0.06,0.01 -0.03,-0 -0.06,0.03l0.12 0.09 -0.05 0.2c0.04,-0.01 0.09,-0.06 0.15,-0.1 0.05,0.03 0.09,0.08 0.16,0.1l-0.05 -0.18 0.11 -0.09c-0.04,-0.05 0.06,-0.04 -0.07,-0.04z"/>
   <path class="fil0" d="M2.52 5.45l0.07 0.02c-0.1,0.01 -0.08,-0.02 -0.07,0.07 0.1,0.05 0.37,0.01 0.5,0.02 -0,-0.05 -0.01,-0.09 -0.06,-0.11 -0.09,-0.04 -0.16,0.01 -0.2,0.01 -0.19,-0.03 -0,-0.02 -0.23,-0z"/>
   <path class="fil4" d="M1.84 12.37c0.04,0.05 -0,0.01 0.05,0.04 0,0 0.03,0.01 0.05,0.01 -0.06,0.03 -0.16,-0.02 -0.29,0.01 0.02,0.01 0.01,0.01 0.04,0.03 0.02,0.01 0.01,0.01 0.04,0.02 0.11,0.03 0.09,-0.01 0.25,0l-0.04 -0.03c0.08,-0.01 0.16,-0 0.23,0.01 0.1,0.02 0.13,0.01 0.21,0.01l0.08 -0.04c0,-0 0.01,-0 0.01,-0 0,-0 0.01,-0 0.01,-0.01 -0.02,-0.01 -0.01,0.02 -0.02,-0.03l-0.27 -0.01 -0.08 -0.01 0.08 0.01c-0.01,0.04 0.01,0.04 -0.07,0.05 -0.03,0 -0.05,-0 -0.08,-0.01l-0.02 -0.06 -0.16 -0.01 -0.01 0.03zm-0.11 0.11l0.05 0 -0.05 -0z"/>
   <path class="fil9" d="M2.38 7.8c0.06,0 0.2,0.02 0.23,-0.01 0.08,-0.08 -0.11,-0.07 -0.15,-0.07 -0,-0.31 0.04,-0.31 -0.08,-0.32 -0.02,0.08 -0.02,0.32 -0,0.4z"/>
   <path class="fil9" d="M2.81 7.47l0.1 0.01 -0 0.24c0.01,0.12 -0.01,0.05 0.04,0.07 0.06,0.01 0.05,-0.04 0.05,-0.14 -0,-0.06 -0,-0.12 0,-0.17 0.03,-0.01 0.02,-0 0.04,-0.01 0.04,-0.01 -0.01,0.01 0.03,-0.01 0.04,-0.02 0.01,0.01 0.03,-0.02l-0 -0.05 -0.29 -0.01 -0.01 0.07z"/>
   <polygon class="fil9" points="2.47,6.93 2.72,6.94 2.72,6.86 2.56,6.86 2.56,6.54 2.48,6.54 "/>
   <path class="fil17" d="M3.14 5.42c-0,0.09 0,0.18 0,0.26 -0.12,-0 -0.27,0 -0.4,0 -0.12,0 -0.25,-0.01 -0.36,-0.01 0,0.06 -0,0.04 0.01,0.06 0.08,0 0.25,0.01 0.32,-0.01 0.09,-0.02 -0,0.01 0.21,0.01 0.07,-0 0.14,-0 0.21,-0l-0 -0.05c0.02,-0.07 0.02,-0.24 0,-0.3l-0 0.04z"/>
   <path class="fil1" d="M0.57 2.97l0.04 -0.03c0.03,-0.03 0.01,0.01 0.01,-0.01 -0.02,-0.01 0.01,-0.01 -0.06,0.02 -0.02,-0.04 -0.05,-0.03 -0.07,-0.01l0.07 0.01c-0,0.03 -0.01,0.02 0.02,0.02l-0.02 0.13c0,0 -0.02,0.01 -0.02,0.01 -0.03,0.02 -0.02,0.01 -0.03,0.02 0.29,-0.04 0.14,0.02 0.14,0.05l0.1 0 -0.02 -0.05c-0,-0 -0,-0.01 -0.01,-0.01 -0.09,-0.14 0.04,0.1 -0.02,-0.04l0.1 -0.03c-0.01,-0.09 0,-0.09 -0.07,-0.1l0.03 -0.02c0,-0 0,-0.01 0.01,-0.02 -0.05,0.02 -0.04,0.01 -0.1,0.02l0.01 -0.09c-0,-0.06 0.02,-0.12 -0.03,-0.12 0.01,0.23 -0.01,0.22 0.06,0.23 -0.09,0.03 -0.08,0.03 -0.13,-0z"/>
   <path class="fil3" d="M4.36 1.72c0,0.01 -0,0.04 0,0.05 0.02,0.07 0.02,0.04 0.03,0.06 -0,-0.02 -0,-0.05 -0.01,-0.08 -0.02,-0.07 -0.01,-0.02 -0.02,-0.03l0 -0.03 -0.15 0.01c-0,-0.07 -0.02,-0.12 -0.02,-0.18l0.18 0 0.01 0.11 0.03 0 -0 -0.09 0.13 0.01 0.02 0.13 -0.16 -0.02c0.02,0.04 0.01,0.04 0.17,0.04 0.01,0.08 0,0.05 0.03,0.09l-0.03 -0.29c-0.01,-0.03 -0.01,-0.03 -0.03,-0.05l0 0.06 -0.16 0 -0.04 -0.05 -0.01 0.02 -0.13 0c0,-0.01 -0.01,-0.11 -0.01,-0.15l-0.05 -0c0,0.07 0.03,0.19 0.04,0.25 0,0.01 0.01,0.05 0.01,0.05 0.01,0.08 0.02,0.09 0.18,0.07z"/>
   <path class="fil0" d="M3.99 0.47l0.1 -0c0.02,0.02 0.02,-0.02 0.02,0.03l0.03 0.12 0.14 0c-0.1,-0.11 -0.06,-0.05 -0.11,-0.1 -0.03,-0.03 0,0.01 -0.03,-0.03 -0.05,-0.05 -0.04,-0.06 -0.09,-0.08l-0.02 -0.01c-0.04,-0.01 -0.02,0.01 -0.04,-0.03 -0.01,-0.03 0.01,-0.01 -0.03,-0.01 -0.03,0.01 -0.02,0.01 -0.02,-0.02 -0.02,-0.04 0,-0.01 -0.05,-0.04 -0.03,0 -0.03,0.01 -0.02,-0.02 -0.01,0 -0.04,0.01 -0.04,0.01 -0.04,-0 -0.02,0 -0.04,-0.01 -0,0 -0.01,0 -0.01,0.01 -0,0.04 -0.03,-0.03 0.04,0.05 0.02,0.02 0.01,0.02 0.03,0.05 0.03,0.04 0.05,0.07 0.08,0.1l0.07 0z"/>
   <path class="fil1" d="M5.29 3.22c-0.02,-0.01 0.02,0 -0.03,-0.02 -0.02,-0.01 -0.02,-0.01 -0.04,-0.01 0,0 0.01,0.02 0.02,0.02l0.02 0.03c-0.12,-0.01 -0.15,-0.04 -0.29,-0.04 0,0.1 0,0.01 -0.02,0.05 0.01,-0.01 0.01,-0.02 0.02,0 0,0.01 0.01,0.01 0.01,0.01l0.02 0.01c0.01,0 0.35,0.12 0.41,0.09 -0.01,-0.1 -0.06,-0.06 -0.12,-0.1 -0.05,-0.04 -0.05,0 -0,-0.03z"/>
   <path class="fil8" d="M2.58 9.11c0.03,0.06 0.14,0.1 0.2,0.11 0.08,-0.1 0.08,-0.03 0.13,-0.12l-0.08 -0c-0.03,-0.05 -0.04,-0.12 -0.06,-0.18 -0.08,0.05 -0.03,0.02 -0.09,0.18l-0.1 0z"/>
   <path class="fil9" d="M2.77 6.94l0.08 0c0.03,-0.07 0.02,-0.3 0.01,-0.39l-0.09 -0 -0.01 0.4z"/>
   <path class="fil1" d="M3.25 12.46c0.06,-0.01 0.15,0 0.15,-0.05l-0.08 -0.01 -0.39 -0.01c-0.06,0.02 -0.03,0.05 -0.01,0.07 0.07,0.05 0.15,0.06 0.22,0.03 0.03,-0.01 0.08,-0.02 0.1,-0.03z"/>
   <path class="fil0" d="M2.72 8.69c0.05,-0.03 0.01,0.01 0.03,-0.07 0,-0.01 0,-0.01 0,-0.01 0.01,-0.05 0,-0.02 0.02,-0.04 0.01,0.04 0.02,0.09 0.06,0.12 0.02,-0.01 0.01,-0 0.03,-0.02 0.01,-0.01 0.01,-0.02 0.02,-0.03 0.02,-0.04 0.01,-0.03 0.03,-0.06 0,0.16 -0,0.11 0.03,0.13 0.02,-0.02 0.01,0.01 0.02,-0.03l0 -0.19c-0.11,0 -0.06,0.05 -0.13,0.13 -0.03,-0.11 -0.01,-0.13 -0.13,-0.13 -0,0.04 -0,0.08 -0,0.11 -0,0.11 0.01,0.08 0.02,0.1z"/>
   <path class="fil3" d="M1.31 1.53l-0.13 -0 0.02 -0.14 0.13 -0 -0.02 0.14zm-0.32 -0.16c0.03,0 0.07,0 0.1,0 0,0 0.05,-0 0.05,-0 0.05,-0.01 0.02,0.01 0.05,-0.04l-0.17 0.02c0.01,-0.17 0.01,-0.16 0.18,-0.15l-0.01 0.05c0.03,-0.03 0.02,-0.03 0.03,-0.07 -0.14,-0 -0.14,0.02 -0.18,-0.02 -0.02,0.02 -0.01,0 -0.03,0.04 -0,0 -0.01,0.05 -0.01,0.05 -0.01,0.05 -0.02,0.07 -0.01,0.12zm0.08 0.19l0.06 0.02c0,-0 0.02,-0.01 0.02,-0.01 0,-0 0.01,-0.01 0.01,-0.01 0.03,-0.02 0.13,-0.01 0.16,-0.01l-0.01 0.08c0.02,-0.02 0.01,0.02 0.03,-0.05l0.03 -0.23c-0.06,0.04 -0.07,0.01 -0.19,0.02 -0.01,0.05 -0.03,0.11 -0.03,0.18 -0.05,0 -0.06,-0.01 -0.09,0.02z"/>
   <path class="fil1" d="M2.76 0.58l-0 0.22c-0,0.16 -0.07,0.35 -0.04,0.46 0.22,0.03 0.05,-0.15 0.05,-0.46l-0.02 -0.22z"/>
   <path class="fil12" d="M0.85 12.13l-0.06 -0.21c-0.07,0.01 -0.02,0.14 -0,0.27 0.02,0.11 0.03,0.08 0.05,0.1 0.02,-0.04 -0.01,-0.02 0.03,-0.01 0,0 0.04,0.02 0.05,0.02 -0,-0 -0.01,-0.02 -0.01,-0.02 -0.03,-0.06 0.06,-0.04 0.06,-0.04 0,0 0.02,0.02 0.03,0.02 0.02,0.02 0.01,0 0.02,0.03 -0.02,0.04 -0,0.03 -0.04,0.04l0.07 0c-0.08,0.08 -0.16,0.01 -0.21,-0.03l0 0.04c0.02,-0 0.02,-0.01 0.01,0.02l0.02 0.01 0.03 0.02 0.17 0.04 -0.02 -0.09 -0.02 -0.09 -0.06 -0.01 -0.04 -0.04 -0.01 -0 -0 -0.01c-0.03,-0.01 -0.04,0.04 -0.02,-0.02 -0.04,0.01 -0.03,0.02 -0.02,-0.02 -0.03,0.06 -0.01,-0.07 -0.01,0.03l0.05 0.07c-0.03,0.02 0.03,0.03 -0.04,0.01 -0.06,-0.01 -0.06,-0.08 -0.06,-0.12l0.04 0.01c0,-0 0.01,-0 0.01,-0zm0.21 0.17l-0.01 0 0.01 0.01 -0 -0.01z"/>
   <path class="fil4" d="M3.42 12.36l0.07 0c-0.02,0.05 0,0.05 -0.08,0.05l-0.08 -0.01c-0.06,-0.03 -0.02,-0.01 -0.05,-0.04l-0.17 0.01c-0.02,0 -0.04,0 -0.07,0 -0.01,0 -0.05,0 -0.05,0 -0.08,0.01 -0.03,0 -0.05,0.02l0.39 0.01 0.08 0.01c-0,0.05 -0.1,0.04 -0.15,0.05 0.01,0.07 -0,0.02 0.02,0.04l0.16 0 0.02 -0.01c0.01,-0.08 0.11,-0.08 0.19,-0.09l0.03 -0.04c0,-0 0,-0.01 0,-0.01l-0.01 -0.02c-0.09,0.01 -0.03,-0 -0.08,0.05 -0,-0 -0.01,-0 -0.01,-0.01l-0.03 -0.02c-0.08,-0.04 -0.13,-0 -0.13,-0z"/>
   <path class="fil12" d="M4.7 12.08l-0.01 0 -0.01 0.03 -0.01 0 0 0.04c-0.03,-0.01 -0.02,-0.02 -0.02,0.02l-0.02 -0.01 0 0.02 -0.02 -0.01 -0 0.02 -0.03 0.01 -0.03 0.02 0.03 -0.02 0.03 -0.01c0.03,0 0.02,0.01 0.02,-0.01 0.03,0.01 0.02,0.01 0.02,-0.01 0.03,0.01 0.03,0.01 0.02,-0.02 0,-0 0.01,-0.01 0.01,-0.01l0.06 -0.08c-0.02,0.2 -0.07,0.13 -0.1,0.22l-0.03 0.01 0.03 -0.01 0.06 -0.03 -0.01 0.06c-0.03,-0.01 -0.02,-0.01 -0.01,0.02l-0.02 -0c0.04,0.04 0.01,0.02 0.02,0 0.03,0.01 0.02,0.01 0.01,-0.02 0.03,-0.02 0,0.01 0.03,-0.02 0.01,-0.02 0.01,-0.02 0.02,-0.04 0.02,-0.1 0.04,-0.28 0.06,-0.35l-0.06 0.01 -0.04 0.17zm-0.15 0.24c-0.01,-0.02 -0.02,0.02 -0.01,-0.05 0,-0.03 0,-0.02 0.02,-0.04l-0.05 0.01 -0.05 0.18 0.17 -0.04c0.07,-0.04 0.03,-0.01 0.02,-0.03 -0.07,0.01 -0.1,0.02 -0.15,-0.01l0.05 -0.01z"/>
   <path class="fil1" d="M1.97 12.46c0.06,0 0.05,0 0.09,0.02 0.04,0.01 0.06,0.01 0.11,0.02 0.09,0.01 0.16,0.03 0.24,0 0.06,-0.02 0.21,0.02 0.18,-0.05 -0.11,-0.02 -0.12,0.01 -0.22,-0 -0.08,-0 -0.11,0.01 -0.21,-0.01 -0.07,-0.01 -0.15,-0.02 -0.23,-0.01l0.04 0.03z"/>
   <path class="fil9" d="M2.21 7.8c0.09,-0 0.09,0.04 0.09,-0.17l-0.02 -0.23 -0.05 -0c-0.04,0.06 -0.02,0.3 -0.02,0.4z"/>
   <path class="fil9" d="M1.31 0.86c0,0.01 0.02,0.06 -0.02,0.06l-0.01 0.05c0.03,0.04 -0.04,0.03 0.05,0.03l0.13 0.01c0,-0.02 -0.02,-0.05 0.02,-0.05 -0,-0.06 -0.01,-0.03 0.01,-0.04l0 -0.06c-0.01,-0.04 0.01,-0.02 -0.03,-0.04 -0.06,-0.01 -0.13,-0.01 -0.16,0.03z"/>
   <path class="fil9" d="M3.31 6.94l0.05 -0c0.02,-0.02 0.01,-0 0.02,-0.04l-0 -0.36 -0.08 0c-0.01,0.07 -0.01,0.13 -0.01,0.2l0.01 0.18c0,0 0,0.01 0.01,0.01z"/>
   <path class="fil17" d="M4.85 7.78l-0 -0.39c0.03,0.05 0.05,0.11 0.04,0.21 -0.01,0.09 -0.08,0.12 -0.01,0.22 0.06,-0.05 0.04,-0.16 0.04,-0.27 0,-0.16 0.02,-0.22 -0.06,-0.27l-0.03 0.24c-0,0.07 -0.02,0.22 0.02,0.26z"/>
   <path class="fil0" d="M2.18 6.81c0.03,0.12 0.18,0.06 0.13,-0.13 -0.03,-0.14 -0.19,-0.07 -0.13,0.13z"/>
   <polygon class="fil9" points="1.18,0.73 1.16,0.78 1.15,0.82 1.34,0.83 1.38,0.66 1.21,0.65 "/>
   <path class="fil9" d="M1.13 1.59l-0 0.13 0.01 0.01 0.14 0.01 0.03 -0.1 0.01 -0.08c-0.04,0 -0.14,-0.01 -0.16,0.01 -0,0 -0.01,0.01 -0.01,0.01 -0,0 -0.01,0.01 -0.02,0.01z"/>
   <path class="fil4" d="M1.05 12.3l0.01 -0c0.04,0 0.08,0.01 0.13,0.02 0.01,0 0.05,0.01 0.05,0.01 0.1,0 0.03,0.02 0.06,-0.03 -0.03,-0.03 -0.21,-0.05 -0.26,-0.06l0.01 0.06zm0.41 0.14c0.05,-0.01 0.09,0 0.13,-0.01 0.03,-0.01 0.02,-0.01 0.04,-0.02 -0.03,-0 -0.12,-0 -0.15,-0.01 -0.06,-0.02 -0.01,0 -0.08,-0.05l-0.02 -0.01 -0.05 -0.01c-0.04,0.03 -0.03,-0.02 -0.03,0.04 0.01,0.07 0.09,0.03 0.15,0.07z"/>
   <path class="fil9" d="M1.4 0.63l0.17 0.01c0,-0.03 -0.01,-0.02 0.02,-0.02l0.03 -0.1 -0 -0.04 -0.1 -0.01 -0.1 0 -0.02 0.14z"/>
   <polygon class="fil9" points="4.26,10.76 4.41,10.75 4.41,10.56 4.26,10.56 "/>
   <path class="fil1" d="M1.06 12.41l-0.17 -0.04 -0.03 -0.02 -0.02 -0.01c-0.02,0 -0.02,0.01 -0.01,-0.02 -0.01,-0.01 -0.02,-0.01 -0.03,-0.02 0.01,0.14 0.16,0.21 0.31,0.21 -0.04,-0.07 0.04,-0.03 -0.05,-0.11z"/>
   <path class="fil4" d="M3.88 12.31l-0.02 0.04c-0,0.03 0.01,0.03 -0.02,0.02 -0,0.05 0.01,0 -0.11,0.03 -0.04,0.01 -0.07,0.03 -0.09,0.06 0.04,-0 0.12,-0.01 0.15,-0.01 0.07,-0.01 0.03,-0.03 0.08,-0.05 0.02,-0.01 0.09,-0.01 0.12,-0.02 0.07,-0.02 0.05,-0.01 0.07,-0.09l-0.18 0.02z"/>
   <polygon class="fil9" points="2.75,7.41 2.68,7.41 2.67,7.79 2.74,7.79 "/>
   <path class="fil17" d="M4.86 4.88l-0.02 -0.01 0.01 0.03c0,0.02 0,0.04 0.01,0.06 0.01,0.03 0.08,0.17 0.02,0.3 -0.05,0.1 -0.01,0.08 -0,0.17 0.06,-0.05 0.05,-0.17 0.05,-0.28 -0,-0.05 -0,-0.11 -0,-0.16 -0,-0.08 -0.01,-0.08 -0.07,-0.12z"/>
   <path class="fil1" d="M0.26 3.21c0.04,-0.01 0.01,0.01 0.04,-0.01 0.02,-0.01 0.02,-0.01 0.03,-0.02 -0.04,0.01 0,-0.01 -0.04,0.01 -0.03,0.01 -0.02,0.01 -0.03,0.02zm-0.05 0.05l0.06 0 0.02 0.05c-0.09,-0.02 -0.04,0 -0.05,0.02 -0.05,-0.04 -0.06,0.01 -0.06,0.01 0.05,0 0.05,0.01 0.06,-0.01 0.08,0.01 0.04,-0 0.05,-0.02 0.06,-0 0.07,-0.01 0.13,-0.03 0.07,-0.02 0.08,-0.01 0.08,-0.09 -0.05,0 -0.09,0.01 -0.16,0.02 -0.07,0 -0.09,0 -0.14,0.05zm0.01 -0.04c0.04,0 0.03,0.01 0.03,-0.02 -0.03,-0 -0.03,-0.01 -0.03,0.02z"/>
   <path class="fil6" d="M0.63 2.49l0.01 0.25c0.05,-0 0.02,0.05 0.03,0.12 0.03,-0.02 0.02,-0.04 0.02,-0.1l0.01 -0.33 0.06 -0.04 -0.07 0c-0.02,0.02 -0.03,0.01 -0.05,0.06 -0.01,0.01 -0.01,0.04 -0.02,0.06z"/>
   <path class="fil0" d="M1.19 1.34l0.01 -0.08 0.01 -0.05c-0.17,-0.01 -0.17,-0.02 -0.18,0.15l0.17 -0.02z"/>
   <polygon class="fil5" points="3.98,11.25 4.14,11.26 4.14,11.1 3.98,11.11 "/>
   <path class="fil18" d="M2.73 9.83c0.05,-0 0.08,0.03 0.06,-0.01 0,0.05 -0,0.05 -0.02,0.07 -0.05,0 -0.05,-0.01 -0.05,-0.05zm0.1 0.02c0.04,-0.02 0.06,0.03 0.06,-0.05 -0.07,-0.05 -0.01,0.01 -0.18,-0.02 -0.1,-0.02 -0.14,-0.08 -0.16,0.03l0.1 0.02c0.07,0.02 0.05,0.05 0.11,0.08 0.05,-0.03 0.04,-0.04 0.07,-0.06z"/>
   <path class="fil0" d="M4.22 0.9l0.01 0.07c0.05,0.03 0.09,0.02 0.17,0.02l-0.03 -0.14 -0.17 -0.01 0.01 0.06z"/>
   <path class="fil3" d="M2.59 12.45c0.03,0.08 -0.12,0.03 -0.18,0.05l0.25 -0c0.02,-0 0.02,-0 0.03,-0.01 0,-0 0.01,-0.01 0.02,-0.01l0.02 -0.01 -0 -0.09c-0.08,-0.01 -0.19,-0.02 -0.25,0.02l0.05 0.02c0.11,0.04 -0.09,-0.04 0.03,0.01 0.04,0.02 0.02,0.01 0.04,0.02z"/>
   <polygon class="fil0" points="1.1,10.94 1.21,10.95 1.22,10.77 1.09,10.76 "/>
   <path class="fil0" d="M2.55 8.53c0.1,0.01 0.09,0.06 0,0.07l-0 -0.07zm-0.04 0.18l0.06 -0.07c0.11,-0.02 0.11,-0.05 0.08,-0.14 -0.03,-0 -0.03,0.01 -0.03,-0.02l-0.13 0.02 0.01 0.21z"/>
   <path class="fil6" d="M4.22 0.9l-0.01 -0.06 0.17 0.01 0.03 0.14c-0.08,0 -0.12,0.01 -0.17,-0.02 -0.03,0.04 0.04,0.04 -0.16,0.03 -0,-0 -0.01,-0.01 -0.01,-0.01l-0.03 -0.04 0.05 0.07c0.08,-0 0.11,-0.01 0.17,0.02 0.01,-0.02 -0.01,-0.04 0.09,-0.03l0.1 0.02 -0.07 -0.23c-0.02,0.03 0,0.02 -0.05,0.03 -0,0 -0.04,-0 -0.05,-0l-0.09 0.02 0.03 0.06zm0.05 0.26c-0.08,0.02 -0.13,-0.01 -0.18,0.03 0.04,-0 0.07,0 0.1,-0 0.1,-0 0.05,-0 0.08,-0.03z"/>
   <path class="fil0" d="M1.28 0.98l0.01 -0.05 0.02 -0.06 -0.01 -0.01 -0.13 0c-0.03,0.03 -0.04,0.08 -0.05,0.14l0.16 -0.01z"/>
   <path class="fil0" d="M1.37 0.5l-0.02 -0.01 -0.03 0.05c-0.04,0.04 -0.07,0.05 -0.09,0.11l0.18 -0.01 0.02 -0.14c-0,0 -0.03,0 -0.03,0 -0,0 -0.02,0.01 -0.02,0 -0,-0 -0.01,0 -0.01,0z"/>
   <path class="fil19" d="M1.82 7.79c0.01,-0.01 0.01,0.04 0.01,-0.05l0 -0.08c0.01,-0.1 -0,-0.02 0.02,-0.05 -0.01,0.04 -0.01,0.04 0.01,0.05 -0.01,0.04 -0,0.04 0.01,0.05 -0,0.04 -0.01,0.02 0.01,0.05l0.01 0.04c0.09,0.01 0.03,0 0.05,-0.02 0.03,0.01 0.02,0.01 0.02,-0.03 -0.03,0 -0.02,-0.01 -0.02,0.03 -0.05,-0.01 -0.03,0 -0.05,-0.03l-0.01 -0.05 -0.01 -0.05 -0.01 -0.05 -0.04 -0.08 -0 0.26 -0.07 -0.01 0 -0.36 0.1 -0 0.02 0.05 0.01 0.05c-0,0.08 0.01,0.04 0.02,0.05 -0.01,-0.05 0,-0.03 -0.02,-0.05 0,-0.04 0.01,-0.02 -0.01,-0.05 0.01,-0.05 0.02,-0.05 -0.02,-0.05 -0,-0.02 0.04,-0.03 -0.11,-0.02 -0.02,0.08 -0.02,0.32 -0,0.4 0.02,0 0.02,0.01 0.04,0 0.03,-0 0.03,-0.01 0.03,-0.01z"/>
   <polygon class="fil0" points="1.1,11.26 1.22,11.26 1.22,11.11 1.09,11.11 "/>
   <polygon class="fil0" points="1.37,11.26 1.49,11.26 1.49,11.12 1.36,11.11 "/>
   <polygon class="fil0" points="1.33,1.39 1.2,1.39 1.18,1.53 1.31,1.53 "/>
   <polygon class="fil0" points="1.36,11.56 1.5,11.56 1.5,11.43 1.36,11.43 "/>
   <polygon class="fil0" points="4.39,1.65 4.39,1.67 4.54,1.69 4.52,1.56 4.39,1.55 "/>
   <polygon class="fil0" points="1.36,0.8 1.49,0.8 1.53,0.67 1.4,0.67 "/>
   <polygon class="fil0" points="1.36,10.94 1.5,10.94 1.5,10.81 1.36,10.81 "/>
   <path class="fil18" d="M2.75 7.41l-0.01 0.38 -0.07 0 0 -0.38 0.07 0zm0 0c-0.03,-0.02 -0.02,-0.02 -0.08,-0.01 -0.02,0.08 -0.02,0.32 -0,0.4l0.1 0 0.01 -0.35c-0.01,-0.07 0,-0.02 -0.02,-0.04z"/>
   <polygon class="fil0" points="4.28,10.93 4.39,10.93 4.39,10.78 4.28,10.78 "/>
   <path class="fil7" d="M4.68 12.15c0.01,0.03 0.02,0.03 -0.02,0.02 0.01,0.03 0.01,0.02 -0.02,0.01 0.01,0.02 0.01,0.02 -0.02,0.01l-0.03 0.01 -0.03 0.02 -0.02 0c-0.02,0.02 -0.02,0.01 -0.02,0.04 -0.01,0.07 -0,0.03 0.01,0.05l0.06 -0.03 0.03 -0.01c0.03,-0.09 0.08,-0.01 0.1,-0.22l-0.06 0.08c-0,0 -0.01,0.01 -0.01,0.01zm-0 -0.04l-0 0 0.01 -0 -0.01 -0zm0.01 -0.03l0.01 -0 -0.01 0z"/>
   <polygon class="fil0" points="4.29,11.26 4.38,11.26 4.39,11.11 4.27,11.11 "/>
   <polygon class="fil0" points="4.27,11.56 4.39,11.57 4.39,11.42 4.27,11.42 "/>
   <path class="fil20" d="M1.45 5.49c0.01,0.06 0.01,0.07 0.09,0.08 0.09,0 0.08,-0.01 0.09,-0.08 -0.05,-0.04 -0.13,-0.04 -0.18,0z"/>
   <polygon class="fil0" points="1.35,11.28 1.23,11.28 1.24,11.42 1.35,11.42 "/>
   <path class="fil7" d="M0.86 12.13l-0 -0 -0.01 -0c-0,0 -0.01,0 -0.01,0l-0.04 -0.01c0,0.04 0,0.11 0.06,0.12 0.07,0.01 0.01,0.01 0.04,-0.01l-0.05 -0.07c-0,-0.09 -0.02,0.03 0.01,-0.03zm0.04 0.05l0 -0.01 0 0.01 -0 -0.01zm0.01 0.11l0.06 0.03c0.04,-0.02 0.03,-0 0.04,-0.04 -0.02,-0.03 -0,-0.01 -0.02,-0.03 -0,-0 -0.02,-0.02 -0.03,-0.02 -0,0 -0.09,-0.01 -0.06,0.04 0,0 0.01,0.02 0.01,0.02z"/>
   <path class="fil6" d="M4.1 5.25c0.07,0 0.08,0 0.12,0.04 0,0 0.01,0.01 0.01,0.01 0,0 0.01,0.01 0.01,0.01 0,0 0.01,0.01 0.01,0.01l0.01 -0.03 -0.02 -0.01 -0.01 -0.01 -0.01 -0.13c-0.09,-0.03 -0.09,0.03 -0.11,0.12z"/>
   <path class="fil18" d="M2.35 9.62c-0.02,0.04 -0.03,0.02 0.01,0.06 0.02,0.02 0.04,0.03 0.06,0.05l0.07 0.05c0.02,0.01 0.03,0 0.05,-0 -0.02,-0.11 -0.07,-0.06 -0.14,-0.13 -0,-0 -0.02,-0.02 -0.02,-0.02 -0,-0 -0.01,-0 -0.01,-0l-0.02 -0z"/>
   <polygon class="fil0" points="4.13,11.55 4.12,11.42 4.02,11.42 4.02,11.54 "/>
   <path class="fil16" d="M3.99 5.55l0.02 -0.08 -0.17 0c-0,0.1 0.06,0.09 0.15,0.07z"/>
   <path class="fil3" d="M4.02 10.81l0.09 -0 -0 0.13 -0.09 0 0 -0.12zm-0.04 0.12c0.08,0.02 0.08,0.02 0.16,0.01l0 -0.15 -0.16 0.01 -0 0.13z"/>
   <path class="fil0" d="M1.23 11.09l0.1 0 -0.01 -0.11c-0,-0.01 -0,-0.01 -0,-0.01l-0.09 -0 -0 0.12z"/>
   <polygon class="fil0" points="4.23,11.1 4.23,10.96 4.17,10.96 4.15,10.96 4.15,11.1 "/>
   <polygon class="fil0" points="4.02,10.93 4.11,10.93 4.11,10.81 4.02,10.81 "/>
   <path class="fil4" d="M1.47 12.31c-0.04,0.01 -0.03,-0.01 -0.04,0.03l0.04 -0.03zm0.2 0.03l-0 -0c-0.09,-0.02 -0.16,-0.03 -0.21,0.01 0.02,0.01 0,0.01 0.03,0.02l0.16 0.02c0.04,-0.03 0.01,0.01 0.02,-0.05z"/>
   <path class="fil5" d="M1.66 12.34c0,0 0.01,0 0.01,0.01 0.02,0.09 0.16,0.02 0.16,0.02l0.01 -0.03 -0.18 -0.02 -0 0.02 0 0z"/>
   <path class="fil0" d="M1.84 6.72c0.15,0.02 0.14,-0.12 0,-0.1l-0 0.1z"/>
   <polygon class="fil0" points="4.16,11.4 4.23,11.4 4.23,11.27 4.16,11.27 "/>
   <path class="fil0" d="M3.57 7.58c0.14,0 0.15,-0.1 -0,-0.1l0 0.1z"/>
   <path class="fil5" d="M3.33 12.4l0.08 0.01c0.08,-0 0.06,0 0.08,-0.05l-0.07 -0 -0.15 0c0.03,0.03 -0.01,0.01 0.05,0.04z"/>
   <path class="fil5" d="M2.18 12.36l-0.08 -0.01 -0.09 -0 0.02 0.06c0.03,0 0.05,0.01 0.08,0.01 0.08,-0.01 0.05,-0.01 0.07,-0.05z"/>
   <path class="fil3" d="M4.64 12.28l-0.03 0.01 -0.06 0.03 -0.05 0.01c0.05,0.03 0.09,0.02 0.15,0.01l0.01 -0.01 0.02 0c-0.01,-0.03 -0.02,-0.03 0.01,-0.02l0.01 -0.06 -0.06 0.03z"/>
   <path class="fil3" d="M0.82 12.28c0.05,0.04 0.14,0.11 0.21,0.03l-0.07 -0 -0.06 -0.03c-0.01,-0 -0.05,-0.02 -0.05,-0.02 -0.03,-0.01 -0.01,-0.02 -0.03,0.01l-0 0z"/>
   <path class="fil5" d="M3.7 12.34c0,0.03 0.01,0.02 -0.03,0.02l0.01 0.03 0.15 -0.01c-0,-0.03 -0.01,-0.02 0.02,-0.02l0.02 -0.04 -0.18 0.02z"/>
   <path class="fil18" d="M2.92 9.77c0.02,-0.02 0.01,0.01 0,0.01 -0,-0 -0.03,0.03 -0,-0.01zm0.06 -0.02c0,-0.03 0.03,0.01 0,0 0,0 -0,-0 -0,-0zm-0.1 -0.01c0.02,0.08 0.02,0.02 0.02,0.09 0.12,-0.05 0.11,-0.03 0.11,-0.1l-0.13 0.01z"/>
   <path class="fil6" d="M2.39 5.41c0.01,0.08 -0.01,0.06 0.08,0.06l0.04 -0.08c-0,0 -0.05,-0 -0.06,-0 -0.06,0.01 -0.04,0.01 -0.06,0.02z"/>
   <path class="fil19" d="M4.14 10.79l-0 0.15c-0.08,0 -0.08,0.01 -0.16,-0.01l0.01 0.02 0.16 0.01 0.02 0 0 -0.03c-0.01,-0.04 -0.01,-0.12 -0.02,-0.14 -0.03,-0.01 -0.09,-0.01 -0.15,-0.01l-0.01 0.02 0.16 -0.01z"/>
   <path class="fil18" d="M3.02 9.71c0,0 0.01,0 0.01,0.01l0.03 0.03c0,0 0.01,0 0.01,0.01 0.01,-0.02 -0.03,0.01 0.04,-0.04 0.02,-0.02 0.01,-0 0.03,-0.02 0.03,-0.03 0.01,-0.01 0.03,-0.03 -0.08,-0.03 -0.04,-0.02 -0.09,0.01 -0,0 -0,0 -0.01,0l-0.05 0.03z"/>
   <path class="fil5" d="M3.56 6.79l0.08 -0 -0.02 -0.09c-0.01,-0.03 -0.01,-0.02 -0.03,-0.04l-0.03 0.13z"/>
   <polygon class="fil5" points="3.21,7.65 3.29,7.65 3.26,7.52 "/>
   <path class="fil9" d="M2.78 6.5c0.07,0.02 0.09,-0.03 0.11,-0.07l-0.07 0 -0.04 0.07z"/>
   <path class="fil10" d="M2.55 8.6c0.09,-0.01 0.1,-0.06 -0,-0.07l0 0.07z"/>
   <path class="fil0" d="M4.35 11.73l-0.06 -0 -0.01 0.07c0,-0 0.05,-0.03 0.05,-0.03 0.02,-0.02 0.01,-0.01 0.02,-0.04z"/>
   <path class="fil3" d="M2.73 9.83c-0,0.05 -0,0.06 0.05,0.05 0.01,-0.02 0.02,-0.02 0.02,-0.07 0.01,0.04 -0.01,0.01 -0.06,0.01z"/>
  </g>
 </g>
</svg>
