<?xml version="1.0" encoding="UTF-8"?>
<!DOCTYPE svg PUBLIC "-//W3C//DTD SVG 1.1//EN" "http://www.w3.org/Graphics/SVG/1.1/DTD/svg11.dtd">
<!-- Creator: CorelDRAW -->
<svg xmlns="http://www.w3.org/2000/svg" xml:space="preserve" width="1.8859mm" height="4.7mm" version="1.1" style="shape-rendering:geometricPrecision; text-rendering:geometricPrecision; image-rendering:optimizeQuality; fill-rule:evenodd; clip-rule:evenodd"
viewBox="0 0 5.08 12.66"
 xmlns:xlink="http://www.w3.org/1999/xlink"
 xmlns:xodm="http://www.corel.com/coreldraw/odm/2003">
 <defs>
  <style type="text/css">
   <![CDATA[
    .fil3 {fill:#05294D}
    .fil1 {fill:#101111}
    .fil13 {fill:#1E593A}
    .fil17 {fill:#294568}
    .fil2 {fill:#353638}
    .fil14 {fill:#545454}
    .fil15 {fill:#5D8BAB}
    .fil11 {fill:#721312}
    .fil5 {fill:#7C7B7C}
    .fil10 {fill:#887A4A}
    .fil12 {fill:#8EB8D9}
    .fil7 {fill:#9FA367}
    .fil9 {fill:#A3A3A3}
    .fil4 {fill:#C2C2C2}
    .fil8 {fill:#CAD9E7}
    .fil16 {fill:#D7C675}
    .fil6 {fill:#F6C336}
    .fil0 {fill:#F9F9FA}
   ]]>
  </style>
 </defs>
 <g id="Camada_x0020_1">
  <metadata id="CorelCorpID_0Corel-Layer"/>
  <g id="_1767064876944">
   <path class="fil0" d="M3.9 10.18c0.04,-0.03 0.02,0.01 0.03,-0.06l0.01 -4.79c-0,0 -0.01,0.01 -0.01,0.01l-0.07 0.04c-0.03,0.01 -0.05,0.01 -0.08,0.01 -0.55,0.07 -1.4,0.01 -2.06,0.05 -0.13,0.01 -0.2,-0.01 -0.31,-0.03 -0.19,-0.02 -0.16,0.02 -0.21,-0.14 -0.03,-0.09 -0.03,-0.32 0,-0.42 0,-0.09 -0.04,-0.1 0.02,-0.19 0.1,0 0.08,0.06 0.1,0.15l1.2 -0c-0.05,-0.12 0.01,-0.49 0.01,-0.67 -0,-0.15 -0.03,-0.65 0.02,-0.75 0.01,0.25 0,0.51 0,0.76 -0,0.17 0.07,0.55 0.02,0.66l1.22 0c0,-0.07 -0.01,-0.1 0.02,-0.13 0.02,-0.01 0,-0.01 0.04,-0.02 0,-0 0.01,0.01 0.01,0 0,-0 0.01,0.01 0.01,0.01 0.03,0.02 0.01,-0.01 0.03,0.03 0.01,0.03 0,0.03 0,0.06 -0,0.05 -0.01,0.05 -0,0.11l0.04 0.11c0.02,-0.05 0.01,-0.02 0.02,-0.19l0.01 -0.7c0,-0.14 0.06,-0.81 0.06,-0.85 -0.31,-0.13 -1.11,-0.19 -1.49,-0.19 -0.26,0 -0.53,0.03 -0.79,0.06 -0.22,0.03 -0.44,0.07 -0.65,0.13l-0.05 0.01c-0.01,-0.15 -0.08,-0.35 -0.1,-0.52 -0.01,-0.1 -0.02,-0.19 -0.03,-0.28 -0.01,-0.08 -0.02,-0.18 -0.02,-0.28l-0.04 -0.01c-0.02,-0.08 -0.03,-0.05 -0,-0.11 0.03,0.02 0.02,-0 0.04,0.05 0.01,0.02 0.01,0.04 0.01,0.06 0.06,-0.06 0.05,-0.15 0.27,-0.25 0.61,-0.28 1.67,-0.29 2.31,-0.15l0.27 0.07c0,0 0.01,0 0.01,0l0.14 0.05c0.13,0.05 0.23,0.12 0.29,0.23 0.04,-0.02 0.03,-0.02 0.02,0.02l0.05 -0.27c0,-0.29 -0.05,-0.63 -0.06,-0.88 0.01,-0.23 -0.14,-0.43 -0.26,-0.51l-0.02 -0.01 -0.02 -0.01c-0.11,-0.04 0.01,-0.04 -0.24,-0.14 0,0 0.01,0.02 0.01,0.03 0,0 0,0.01 0,0.01 0,0.01 0,0.01 0,0.01l0.04 0.15c0.08,0.23 0.27,1.21 0.27,1.37l-0.02 -0.14c-0.03,0.03 -0.01,0 -0.03,0.05 -0,0.01 0,0.04 0,0.04 -0.02,-0.21 -0.28,-1.41 -0.33,-1.57 -0.04,-0.01 -0.07,-0.02 -0.11,-0.03 -0.14,-0.04 -0.67,-0.1 -0.8,-0.11 -0.3,-0.01 -0.94,0.08 -0.98,0.07 0.01,-0.01 -0.01,-0 0.03,-0.02 0.06,-0.03 -0.01,-0 0.08,-0.02 0.15,-0.02 0.2,-0.04 0.38,-0.05 0.38,-0.02 0.9,-0.02 1.27,0.09 0.18,0.05 0.18,0.11 0.21,0.08l-0.06 -0.05c-0.03,0 -0.02,0.01 -0.02,-0.01 -0.03,0.01 -0.02,0.01 -0.02,-0.01 -0.03,0.01 -0.02,0.01 -0.02,-0.01 -0.03,0.01 -0.02,0.01 -0.02,-0.02 -0.03,0.01 -0.02,0.01 -0.02,-0.03 -0.09,-0.08 -0.88,-0.12 -1.06,-0.12 -0.26,0 -0.9,0.03 -0.99,0.19 0,0.03 0.01,0.03 -0.03,0.02 0.03,0.02 -0.03,0.04 0.06,-0 0.07,-0.03 0.09,-0.07 0.19,-0.05 -0.01,0.01 -0.01,0.01 -0.05,0.03 -0,0 -0.05,0.01 -0.05,0.01 -0.16,0.03 -0.13,0.04 -0.18,0.2 -0.06,0.21 -0.23,1.18 -0.27,1.25l0.01 -0.14c-0.01,0.04 -0,0.02 -0.02,0.03 0,-0.15 0.08,-0.48 0.12,-0.64l0.16 -0.62c-0.11,0.03 -0.11,0.06 -0.19,0.08l-0.02 0.03c-0.09,0.03 -0.28,0.23 -0.28,0.39l-0.02 0.05c-0,0.07 -0.03,0.13 -0.03,0.12 -0,-0 -0.01,0.01 -0.01,0.01l0.01 0c0.01,0.12 -0.03,0.39 -0.04,0.52l-0.02 0.53c-0.03,-0.02 -0.03,0.01 -0.03,-0.11 -0,-0.05 -0,-0.09 -0,-0.14l0.04 -0.73c-0.09,0.04 -0.07,0.1 -0.08,0.23 -0.01,-0.27 0.07,-0.55 0.07,-0.63 0,-0.01 0,-0.03 0.01,-0.03l-0.01 0.01c-0.13,0.13 -0.22,0.7 -0.23,0.9 -0.01,0.19 -0.01,0.38 -0.01,0.57 0,0.09 -0,0.19 0.01,0.28 0.02,0.1 0,0.18 0.02,0.28 0.11,-0.01 0.06,-0.1 0.13,-0.18 0.09,0.23 0.21,0.96 0.22,1.25 0.01,0.22 0.03,1.32 -0.04,1.45 -0.05,-0.01 -0.09,-0.07 -0.11,-0.12 -0.03,-0.02 -0,-0.02 -0.03,-0l-0.01 0.35c0.05,0.03 0.14,0.09 0.17,0.13 -0.07,-0.02 -0.1,-0.09 -0.17,-0.1l-0 0.24 0.01 0.02c0.14,0.08 0.14,0.22 0.14,0.43 -0,0.28 0,1.51 -0.04,1.62l-0.06 0 0 0.21 0.08 0.03c-0.04,0.01 -0.02,0 -0.04,0l-0.04 0.01 -0 0.19 0.02 0.01 0.02 0.01 0.01 0.02 0.01 0.03c0.03,0.02 0.03,0.05 0.03,0.1 0,0.07 0,0.28 -0.02,0.32 0.02,0.11 -0,0.95 -0.03,1.06l0.01 0.06c-0,0.08 -0,0.12 -0.04,0.17l-0 -0.13c-0.01,-0.04 0.02,0.01 -0.01,-0.04 -0,0.03 0.03,0.02 -0.03,0.02 0.04,0.15 0.03,0.56 0.05,0.75 0.01,0.22 0.06,0.52 -0.02,0.72 -0,0.16 0.03,0.39 -0.13,0.47l-0.04 -0.27c-0.04,-0.03 0.06,0.01 -0.02,0 -0.02,-0 0.01,0.01 -0.03,-0.01 0.06,-0.03 0.02,-0.07 0.01,-0.14 -0.04,-0.18 -0.07,-1.17 -0.05,-1.29 0,-0.08 -0.05,-0.26 -0.09,-0.31 -0.01,0.14 -0.04,1.85 0.1,1.92 0,0 0.01,0 0.01,0l0.06 0.04 0.01 0.03 -0 0.04c0.02,0.03 0.02,0.06 0.03,0.1l-0 0.01 0.05 0.06 0.11 0.04c0.01,-0.01 0.21,-0.4 0.21,-0.46 0,-0.02 -0,-0.05 -0,-0.08 -0,-0.05 0,-0.11 0,-0.16l0.02 -0.92c0.01,-0.29 0.06,-0.28 0.35,-0.28 0.3,-0 2.36,-0.03 2.47,0.02zm-2.97 2.02l0.02 0.01c0.02,0.01 0,0.01 0.04,0.01l0.25 0.02c0.21,0.02 0.44,0.06 0.65,0.04l0.25 -0.01c0.03,0 0.02,-0 0.05,0 0.04,0.01 0.02,0 0.05,0.02l0.16 0.01c0.04,-0 0.03,-0.01 0.03,0.02l0.09 -0.01 0.01 -0.07 -0.2 -0.02c-0.26,0.01 -1.13,-0.06 -1.3,-0.15 -0,-0.09 0.06,-0.22 0.11,-0.27 0.07,-0.07 0.24,-0.03 0.35,-0.02 0.23,0.02 0.53,0.02 0.75,0.05 -0.02,-0.03 -0.02,-0.03 -0.02,-0.08 0.1,-0.02 0.62,-0.02 0.7,0 0.02,0.07 0.03,0.05 -0.04,0.07l0.02 -0c0.23,0.01 0.51,-0.02 0.74,-0.04 0.1,-0.01 0.26,-0.05 0.33,0.02 0.04,0.04 0.12,0.19 0.12,0.27 -0.15,0.13 -1.23,0.17 -1.52,0.17l-0.01 0.08c0.09,0.01 0.09,0.01 0.14,-0.03 0.01,-0.02 -0.03,-0.02 0.04,-0.02 0.08,0.01 0.16,0 0.24,-0 0.04,-0 0.09,-0 0.13,0 0.07,0 0.07,-0.01 0.09,0.03 0.17,-0.01 0.32,-0.02 0.49,-0.04 0.14,-0.01 0.35,-0.05 0.49,-0.04 0.03,-0.12 0.06,-0.19 -0.01,-0.32 -0,-0 -0.03,-0.04 -0.04,-0.06l0.12 0.21 0.1 -0.03 0.01 -0.01 0.02 0c-0.01,-0.03 -0.02,-0.03 0.02,-0.01 -0.01,-0.03 -0.02,-0.03 0.01,-0.02l-0.01 -0.02 0.02 -0.02 -0 -0.01c0.02,-0.06 0.02,-0.11 0.05,-0.16l0.04 -0.03c0,-0 0.01,0 0.01,-0 0.02,-0.01 0,0.03 0.02,-0.03 0.11,-0.27 0.09,-1.66 0.07,-1.89l-0.09 0.25c0,0.23 -0.01,0.5 -0.02,0.73 -0.01,0.24 -0,0.5 -0.06,0.72l0.03 0.04c-0.01,0.01 0.02,0.03 -0.03,0 -0.02,0.03 -0.03,0.09 -0.04,0.14 -0.02,0.13 -0.03,0.1 -0.06,0.12 -0.12,-0.15 -0.08,-0.19 -0.09,-0.42 -0.05,-0.04 -0.08,-0.07 -0.15,-0.1 0.07,-0.03 0.12,0.05 0.15,0.08l0.01 -0.03c-0.08,-0.17 -0.04,-0.52 -0.02,-0.73 0.01,-0.16 0.06,-0.61 0.03,-0.74 -0.03,0.01 -0.02,0.08 -0.03,0.06 -0,-0 -0,0.01 -0.01,0.01 -0.04,-0.21 -0.05,-1.04 -0.05,-1.34 -0,-0.13 -0.03,-0.33 0.07,-0.38l0 -0.21c-0.06,0 -0.05,0.01 -0.11,0.02l0.11 -0.05 0 -0.16c-0,-0.09 0.01,-0.02 -0.03,-0.05 -0.03,-0.01 -0.01,0.01 -0.03,-0.01 -0.02,-0.21 -0.05,-1.59 -0.02,-1.82 0.04,-0.29 0.17,-0.06 0.13,-0.5l-0.01 -0.01c0.02,-0.1 0.02,-0.26 -0,-0.36 -0.04,0.06 -0.05,0.11 -0.12,0.13 -0.07,-0.12 -0.05,-1.21 -0.04,-1.42 0.01,-0.2 0.16,-1.18 0.23,-1.28 0.06,0.09 0.01,0.18 0.13,0.17 0.01,-0.37 0.02,-0.71 0.01,-1.08 -0.01,-0.22 -0.1,-0.78 -0.21,-0.92 -0.03,0 -0.03,0.01 -0.02,-0.02l0 -0 0.04 0.33c0.07,0.14 0.07,0.86 0.07,1.09 0,0.11 0.02,0.08 -0.02,0.13 -0.03,-0.03 -0.03,-0.04 -0.04,-0.07 -0,-0.02 0,-0.06 0.01,-0.08 0.01,-0.12 -0.03,-0.88 -0.04,-0.94 -0.03,-0.03 -0.02,-0.01 -0.05,-0.03 0.02,0.19 0.03,0.36 0.04,0.55 0.01,0.22 -0.01,0.34 -0.02,0.54l0.04 0.02 0.02 0.02 0.02 0.01c0.03,-0.01 0.02,-0.01 0.01,0.02l0.03 0.08c-0.05,-0.06 -0.06,-0.13 -0.17,-0.13 -0.03,0.37 -0.1,0.7 -0.16,1.04 0,0.07 -0.04,0.28 -0.06,0.39 -0.04,0.35 -0.03,2.64 -0.04,3.04 -0,0.59 -0.01,1.18 -0.01,1.77 -0,0.42 -0.03,1.43 -0,1.77 0.1,0.07 0.07,1.07 0.08,1.35 0,0.05 0,0.04 0.01,0.08l0.01 0.06c-0.02,0.11 0.06,-0.08 -0.01,0.02 -0.08,-0.22 -0.06,-0.49 -0.07,-0.77 -0,-0.14 -0,-0.27 -0.01,-0.41 -0,-0.13 0.02,-0.3 -0.08,-0.34 -0.09,-0.04 -2.14,-0.01 -2.52,-0.01 -0.3,0 -0.24,0.08 -0.25,0.6 -0,0.17 0.02,0.74 -0.05,0.88 -0.01,0.03 -0.03,0.04 -0.04,0.07 -0.02,0.04 -0.13,0.23 -0.13,0.28 -0,0.01 0.03,0.12 0.04,0.16zm0.63 -1.51c-0.01,0.04 0.01,0.15 -0.01,0.31 -0.03,-0.03 -0,0.03 -0.03,-0.04l-0.01 -0.16c0.03,-0.17 -0.03,-0.13 0.01,-0.2 0.08,0.03 0.05,0.01 0.04,0.09zm1.51 -1.91c0.02,0.02 0.02,-0.02 0.02,0.06 0.02,0.03 0.04,0.17 -0,0.21 0.03,0.07 0.05,0.05 0.03,0.12 -0.01,0.02 -0.04,0.08 -0.05,0.11 -0.09,0.17 -0.12,0.18 -0.34,0.28 -0.1,0.05 -0.12,0.09 -0.19,0.12 -0.05,-0.09 -0.23,-0.16 -0.33,-0.22 -0.11,-0.06 -0.15,-0.16 -0.2,-0.27 -0,-0 -0.02,-0.03 -0.02,-0.04 0.03,-0.11 0.04,0.01 0.04,-0.11 -0.03,-0.05 -0.03,-0.18 0.01,-0.26 0,-0 0.01,-0 0.01,-0.01 0,-0.01 0,-0.01 0.01,-0.01l0 -0.02 0.02 -0.03 -0 -0c0.02,-0.15 0.11,-0.15 -0.04,-0.37 0.04,-0.07 0.12,-0.17 0.16,-0.22 0.15,0.03 0.24,0.07 0.37,-0.06 0.07,0.02 0,-0 0.07,0.03 0.22,0.11 0.2,0.05 0.36,0.03 0.02,0.06 0.09,0.14 0.14,0.2 -0.17,0.36 -0.02,0.25 -0.02,0.45zm-0.04 -1.5c0.01,-0.05 -0.01,-0.04 0.04,-0.05 0.05,0.02 0.04,-0.06 0.04,0.16 -0,0.22 0.02,0.2 -0.05,0.2 -0.05,-0.06 -0.02,-0.24 -0.02,-0.31zm-0.33 0.31c-0.06,-0.02 -0.04,0.01 -0.04,-0.19 0,-0.25 -0.02,-0.16 0.04,-0.18 0.05,0.03 0.03,0.07 0.04,0.2 0,0.22 0.01,0.16 -0.04,0.17zm-0.97 -0.37c0.1,-0.01 0.08,0.03 0.08,0.13 -0,0.08 0,0.15 -0,0.23l-0.08 -0 0 -0.36zm1.68 0.36c0.01,-0.06 0.03,-0.13 0.05,-0.19l0.04 -0.15c0.03,-0.03 0,-0.01 0.05,-0.03 0.07,0.01 0.04,-0.01 0.06,0.07l0.07 0.29c-0.02,0 -0.01,0.01 -0.04,0 -0.05,-0.01 -0.04,-0.06 -0.08,-0.07 -0.13,-0.03 -0.01,0.09 -0.15,0.06zm-1.29 0.01c-0.02,-0.05 -0.01,-0.3 -0,-0.36 0.13,-0.01 0.07,0.09 0.17,0.17 0.01,-0.1 -0.03,-0.17 0.07,-0.17l-0 0.37c-0.12,0.01 -0.07,-0.06 -0.17,-0.2 -0.01,0.06 0.01,0.15 -0.02,0.2l-0.05 -0zm-0.08 -0.15l-0.09 -0 0 0.06c0.1,0 0.13,-0.02 0.13,0.08 -0.03,0.03 0.04,0.01 -0.05,0.03l-0.16 -0.01c-0.02,-0.06 -0.02,-0.31 -0.01,-0.37 0.06,-0.02 0.16,-0.02 0.22,0.01l-0.01 0.06c-0.05,0.02 -0.04,0 -0.08,0.01 -0.08,0.01 -0.03,-0.02 -0.05,0.04 0.05,0.03 0.06,0 0.11,0.03 0.01,0.05 -0,0.06 -0,0.06 -0,-0 -0.01,0.01 -0.01,0.01zm1.36 0.05c-0.05,0.2 -0.25,0.13 -0.25,-0.08 0,-0.19 0.14,-0.22 0.21,-0.16 0.07,0.07 0.01,0.09 0.01,0.09 -0.09,0.03 0,-0.01 -0.1,-0.04 -0.07,0.05 -0.05,0.15 -0.02,0.22 0.15,-0 -0,-0.08 0.14,-0.03zm-0.59 -0.26l0.18 0.01 0 0.05c-0.04,0.03 -0.07,0.01 -0.12,0.02l0 0.07 0.1 0.01 -0.01 0.07 -0.09 0 -0.01 0.14 -0.07 0 0.01 -0.37zm-0.34 0.1c-0.02,-0.08 -0.09,0.04 -0.08,-0.1l0.23 0.01c0.01,0.12 0,0.04 -0.07,0.08l-0 0.28 -0.07 -0 -0 -0.26zm-0.89 0.2c0.05,-0.03 0.04,-0.06 0.08,-0.05 0.06,0.01 0.02,0.09 -0.04,0.11 -0.12,0.05 -0.18,-0.07 -0.17,-0.18 0,-0.3 0.28,-0.17 0.24,-0.08 -0.03,0.05 -0.06,-0.01 -0.1,-0.03 -0.09,0.04 -0.08,0.19 0,0.23zm1.09 -0.33c0.02,-0.05 0.03,-0.09 0.09,-0.08 -0.01,0.05 -0.03,0.07 -0.09,0.08zm0.37 -0.49c0,-0.06 -0.01,-0.14 0.01,-0.19l0.07 -0 0 0.4 -0.07 -0 -0.01 -0.21zm-0.44 0.21c-0,-0 -0,-0.01 -0,-0.01 -0,-0 -0,-0.01 -0,-0.01 -0,-0 -0.03,-0.31 0.01,-0.38l0.07 -0c0,0.07 0.02,0.35 -0.02,0.4l-0.05 -0zm-0.28 -0.4l0.08 0 0 0.31c0.01,0 0.07,-0 0.08,-0 0.04,0.01 0.05,-0.02 0.05,0.06 -0.05,0.04 -0.16,0.03 -0.22,0.01l0 -0.39zm0.86 0.4c-0.01,-0.02 -0.01,-0 -0.01,-0.04l0.1 -0.37 0.08 0c0.04,0.07 0.1,0.3 0.11,0.4 -0.19,0.01 -0.01,-0.06 -0.15,-0.07 -0.15,-0.02 0.01,0.07 -0.14,0.08zm-1.13 -0.39c0.22,-0.11 0.29,0.31 0.11,0.39 -0.22,0.1 -0.28,-0.3 -0.11,-0.39zm-0.34 0.39c-0.05,-0.02 -0.04,0.02 -0.04,-0.08l0 -0.32c0.11,0 0.16,-0.01 0.23,0.04 0.05,0.19 0,0.2 -0.16,0.23 -0.01,0.14 0.01,0.12 -0.04,0.14zm1.28 -0.12c-0.03,0.19 -0.28,0.17 -0.27,-0.1 0.01,-0.26 0.26,-0.24 0.27,-0.08 -0.11,0.06 -0.03,0 -0.12,-0.04 -0.06,0.03 -0.06,0.05 -0.06,0.13 0,0.07 0.01,0.1 0.06,0.12 0.08,-0.03 0.03,-0.03 0.06,-0.05 0.02,-0.01 0.04,-0 0.06,0.02zm-0.39 -0.31c0.03,-0.08 0.02,-0.08 0.09,-0.08 -0.03,0.06 -0.03,0.07 -0.09,0.08zm-0.23 -0.82c0.05,0.05 0.03,0.02 0.04,0.1l-0.01 0.35c0,0.07 -0.02,-0.01 0.02,0.01 0.02,0.02 -0.01,0.04 0.15,0.04 0.09,-0 0.12,0.01 0.14,-0.06 0.01,-0.05 0.01,-0.13 0.01,-0.19 -0,-0.23 0.04,-0.27 -0.07,-0.29l0.01 0.02c0,0 0.01,0.01 0.01,0.02 0.02,0.04 0.02,-0.01 0.01,0.03 -0,-0 -0.01,-0 -0.01,-0.01l-0.19 -0.01c-0.02,-0.04 0.01,-0.03 -0.03,-0.03 -0.05,0 -0.01,0.03 -0.06,0.01 0.09,-0.08 0.08,-0.07 0.22,-0.06 0.09,0 0.13,0.03 0.15,0.11 0.01,0.04 0.02,0.4 -0.01,0.45 -0.05,0.1 -0.24,0.06 -0.34,0.05 -0.05,-0.12 -0.04,-0.38 -0.03,-0.55zm-0.41 -4.08c-0.03,-0.06 0,-0.04 0,-0.05l0.05 0c0.02,0.07 0.02,0.04 -0.01,0.07 -0.01,-0 -0.03,-0.01 -0.03,-0.02zm1.19 0.02c-0.03,-0.02 -0.07,-0.06 -0.01,-0.07 0.03,-0 0.04,0.01 0.04,0.03 0.01,0.05 -0.01,0.03 -0.03,0.04z"/>
   <path class="fil1" d="M1 12.36c0.17,0.01 0.36,0.05 0.53,0.07 0.35,0.03 0.77,0.05 1.12,0.04 0.11,-0 0.52,-0.04 0.59,-0.01 0.04,0.12 -0.08,0.09 -0.19,0.09 -0.22,0 -1.08,0.04 -1.24,-0.03 -0.07,-0.03 -0.17,-0.02 -0.3,-0.04l-0.43 -0.06c-0.08,-0.02 -0.06,-0.02 -0.09,-0.08zm1.48 -12.36l0.09 0c0.07,0 0.11,0.01 0.18,0.02 0.5,0.01 0.89,0.07 1.3,0.35 0.25,0.17 0.33,0.35 0.41,0.68 0.09,0.37 0.1,0.6 0.1,0.99l-0.02 0.63c0.09,-0.05 0.54,0.05 0.54,0.38l0 0.02c0,0.16 -0.01,0.21 -0.32,0.07 -0.13,-0.06 -0.11,-0.03 -0.22,-0.11l0 1.3c0,0.42 0.05,0.21 0.05,0.38l0 0.36c0,0.07 -0.03,0.06 -0.03,0.13l0 1.84c0,0.07 0.03,0.06 0.03,0.13l-0.01 0.66c0.01,0.13 0.05,0.28 0.06,0.41 0.02,0.3 0.02,0.61 0.02,0.93 0,0.42 0.04,1.62 0.01,1.86 -0.01,0.13 -0.02,0.3 -0.03,0.44 -0.01,0.14 -0.05,0.27 -0.08,0.4 -0.06,0.31 -0.02,0.52 -0.32,0.61l-0.85 0.1c-0.11,0 -0.1,0.04 -0.19,0.05 -0.07,0.01 -0.17,0 -0.24,0 -0.08,0 -0.11,0.01 -0.19,0.02l-0.5 0c-0.07,-0 -0.1,-0.02 -0.18,-0.02 -0.4,-0 -0.23,-0.04 -0.4,-0.05 -0.21,-0.01 -0.39,-0.04 -0.59,-0.07 -0.07,-0.01 -0.14,-0 -0.2,-0.02 -0.3,-0.08 -0.31,-0.21 -0.36,-0.53 -0.04,-0.26 -0.11,-0.48 -0.11,-0.78l0 -0.85c0.01,-0.8 -0.04,-1.38 0.03,-2.18 0.01,-0.13 0.05,-0.25 0.05,-0.4 0,-0.13 -0.03,-0.25 -0.03,-0.36 -0,-0.12 0.05,-0.35 0.05,-0.35l0 -1.84c0,-0.09 -0.03,-0.09 -0.03,-0.17 0,-0.1 -0.01,-0.32 0.02,-0.4 0.02,-0.06 0.02,-0.02 0.03,-0.08l0.02 -1.53c-0.07,0.05 -0.36,0.19 -0.47,0.19 -0.04,0 -0.07,-0.03 -0.08,-0.08l0 -0.12c0.02,-0.1 0.07,-0.2 0.17,-0.26 0.07,-0.04 0.28,-0.14 0.38,-0.09 0,-0.24 -0.06,-0.53 -0.02,-0.8 0.01,-0.09 0,-0.18 0,-0.27 0.01,-0.27 0.12,-0.7 0.21,-0.89 0.07,-0.14 0.12,-0.21 0.24,-0.31 0.42,-0.34 0.97,-0.4 1.5,-0.42zm-1.82 12.13l0 -0.01 -0.06 -0.35c0.02,0.04 0.03,0.05 0.03,0.11l0.01 -0.03 0 -0.04c-0.02,-0.01 -0.02,0.02 -0.01,-0.03l-0.06 -0.04c-0,-0 -0.01,-0 -0.01,-0 -0.14,-0.06 -0.11,-1.77 -0.1,-1.92 0.04,0.05 0.09,0.23 0.09,0.31 0,0 0.01,0.01 0.01,0.01l-0.01 -0.13c-0.12,-0.28 -0.09,-0.62 -0.09,-0.97 0,-0.34 0,-0.66 0.05,-1 0.01,-0.07 0.03,-0.13 0.03,-0.2 0.01,-0.08 -0,-0.14 0.03,-0.21 -0.01,-0 -0.02,0 -0.02,0 -0.02,0 0.01,0.01 -0.03,0 -0.02,-0.09 -0.02,-0.19 -0.01,-0.29 0,-0.05 -0,-0.1 0,-0.14 0,-0.1 0.02,-0.09 0.04,-0.1 0.05,0.08 -0.01,0.11 -0.02,0.19 -0.01,0.06 -0.01,0.16 0.02,0.21l0.01 0.1c0.02,-0.04 0.02,-0.08 0.02,-0.14 -0,-0.04 0,-0.08 -0,-0.13 -0,-0.08 0,-0.18 -0.02,-0.25 -0.04,-0.15 -0.01,-0.36 -0.01,-0.52 -0,-0.33 -0.02,-0.74 0,-1.07l0 -0.26 -0 -0.03c0,-0.06 0.01,-0.05 0.03,-0.1l-0.01 -0.09c-0,-0 -0,-0.01 -0.01,-0.01 -0,-0.01 -0,-0.01 -0.01,-0.01 0.01,0.03 0.02,0.05 0.01,0.09 -0.02,0.09 -0.01,0.04 -0.06,0.05 -0.03,-0.1 -0.03,-0.4 -0,-0.52 0.02,-0.02 0.01,-0.01 0.05,-0.03 -0.01,0.03 -0.01,0.02 0.02,0.01 0,-0.03 0.01,-0.02 -0.02,-0.01l0.02 -1.66c0.05,0.01 0.07,0.02 0.1,0.05 0.02,0.51 -0.06,1.08 -0.01,1.58 0.04,0.06 0.02,0.11 0.02,0.17 -0.01,0.22 0.08,0.31 0.09,0.37 0.02,0.05 0.06,0.11 0.11,0.12 0.07,-0.13 0.05,-1.23 0.04,-1.45 -0.02,-0.28 -0.13,-1.02 -0.22,-1.25 -0.07,0.08 -0.02,0.16 -0.13,0.18 -0.01,-0.1 -0,-0.18 -0.02,-0.28 -0.02,-0.09 -0.01,-0.19 -0.01,-0.28 -0,-0.19 -0,-0.38 0.01,-0.57 0.01,-0.2 0.11,-0.77 0.23,-0.9 0.02,-0.03 0.05,-0.09 0.08,-0.12l-0.03 0.09c0.11,-0.13 0.02,-0.1 0.1,-0.17 0.04,-0.04 0.12,-0.09 0.19,-0.12 -0.04,0.04 -0.08,0.06 -0.11,0.09 -0.03,0.02 -0.04,0.03 -0.06,0.05l0.05 -0.02c0.07,-0.05 0.2,-0.14 0.27,-0.16 -0.02,0.05 -0.03,0.04 -0.08,0.08 -0.03,0.03 -0.05,0.05 -0.08,0.08 -0.05,0.05 -0.11,0.1 -0.15,0.16 -0.13,0.17 -0.1,0.35 -0.2,0.44 0,-0.15 0.06,-0.29 0.06,-0.41 -0,0 -0.01,0.01 -0.01,0.01l-0.02 0.02c-0,-0 -0.01,0.01 -0.01,0.01 0,0.07 -0.07,0.36 -0.07,0.63 0.01,-0.13 -0.02,-0.19 0.08,-0.23 0.02,-0.05 -0,-0 0.02,-0.04 0.01,-0.02 0.01,-0.01 0.03,-0.03l-0.01 -0c0,-0.04 0,-0.05 0.01,-0.08 0.02,-0.06 0,-0.03 0.03,-0.05 -0.02,-0.08 -0,-0.04 0.02,-0.05 -0,-0.15 0.2,-0.36 0.28,-0.39 0.01,-0.03 -0.02,-0.02 0.02,-0.03l0.1 -0.09c0.05,-0.04 0.06,-0.05 0.11,-0.06l0.03 -0.02c0.09,-0.16 0.73,-0.19 0.99,-0.19 0.18,-0 0.97,0.04 1.06,0.12 0.03,0 0.03,-0.01 0.02,0.03 0.03,-0.01 0.02,-0.01 0.02,0.02 0.03,-0.01 0.02,-0.01 0.02,0.01 0.03,-0.01 0.02,-0.01 0.02,0.01 0.03,-0.01 0.02,-0.01 0.02,0.01l0.02 -0.01 0.03 0.02c-0.01,0.05 -0.01,0.02 0.01,0.01l0.03 0.02 0.03 0.03 -0.07 -0.07c-0.01,-0.02 -0.01,-0.03 -0,-0.03 0.08,0.01 0.23,0.06 0.27,0.13l0.02 0.01 0.01 0c0.03,-0 0.03,-0.01 0.03,0.02l0.01 0.01 0.01 0c0.03,-0 0.02,-0.01 0.02,0.02l0.02 0.02 0.02 0.01 0.03 0.01c0.04,-0.01 0.03,-0.02 0.03,0.03 0.01,0.02 0.02,0.03 0.05,0.07l0.01 0.03 0.01 0.02 0.02 -0.01 0 -0 -0.03 -0.04c0.04,0 0.03,-0.01 0.03,0.02 0.02,0.05 0.03,0.03 0.05,0.1 0.02,-0.01 0.02,-0.01 0.02,0.02 0.11,0.14 0.21,0.7 0.21,0.92 0.01,0.38 0,0.71 -0.01,1.08 -0.13,0.01 -0.07,-0.07 -0.13,-0.17 -0.07,0.09 -0.22,1.08 -0.23,1.28 -0.01,0.22 -0.03,1.31 0.04,1.42 0.07,-0.02 0.08,-0.07 0.12,-0.13 0,-0.02 0.07,-0.25 0.09,-0.27 0.01,-0.31 0.03,-0.6 0.02,-0.92 -0,-0.3 -0.03,-0.61 -0.03,-0.9 0,-0 0.01,0 0.01,0 0,0 0.01,0 0.01,0l0.01 0c0,0 0,0 0,0 0,-0 -0.01,0 0.01,-0.03 0.02,-0.04 0.03,-0.05 0.09,-0.05 0.01,0.29 0,0.6 0.01,0.9 0,0.15 0,0.31 0,0.46 0,0.24 -0.02,0.33 -0.02,0.43 0,0.09 -0.01,0.32 0,0.39 0.01,0.07 0.02,0 0.03,0.08 0,0.01 0,0.08 0,0.09 -0,0.06 -0,0.13 -0,0.19 0.02,0.44 0,1.07 0,1.55 0,0.13 -0.01,0.02 0.03,0.1 0.03,0.06 0.03,0.24 0.02,0.31 -0,0 -0,0.01 -0,0.01l-0.01 0.02c-0.03,-0.06 -0.01,-0.21 -0.03,-0.25 -0.03,0.04 -0,-0.01 -0.01,0.03l0 0.12c0,0.05 0,0.11 -0.01,0.14l-0 -0.26c-0.04,0.09 -0,0.27 -0.01,0.38 0.03,0.04 0.01,0.01 0.04,0.03 0,0 0,0.01 0,0.01 0,0 0,0.01 0,0.01 0,0 0,0.01 0,0.01 0,0.04 -0.01,0.15 0.01,0.22l0 0.01c0.06,0.35 0.06,0.68 0.06,1.05 0,0.3 0.05,0.78 -0.09,1 -0.02,0.08 -0.06,0.14 -0.06,0.23l0.06 -0.13 0.09 -0.25c0.02,0.23 0.03,1.62 -0.07,1.89 -0.02,0.05 -0.01,0.02 -0.02,0.03 -0,0 -0.01,0 -0.01,0l-0.04 0.03c0.03,0.07 0.02,0.17 -0,0.26l-0.03 0.06 -0.03 0.06c-0.03,0.06 0,0.02 -0.07,0.06l-0.06 0.04c-0,0 -0.01,0.01 -0.01,0.01 -0,0 -0.01,0.01 -0.01,0.01 -0,0 -0.01,0.01 -0.01,0.01 0.01,-0 0.06,-0.01 0.07,-0.01 0.07,-0.01 0.1,-0.04 0.14,-0.09 -0.04,0.2 -0.12,0.21 -0.3,0.25 0.05,-0.17 0.04,-0.13 0.1,-0.14 -0,-0 -0.01,-0.01 -0.01,-0.01 -0,0 -0.01,-0.01 -0.01,-0.01 -0.05,-0.08 -0,-0.08 0.01,-0.09l0.01 -0c-0,-0 -0.02,0.02 -0.01,-0.08 0.05,-0.01 0.11,-0.03 0.14,-0.08 0.03,0.01 0.03,0.02 0.02,-0.01 0.03,0.01 0.02,0.01 0.01,-0.02 0.02,-0.01 0.01,0.02 0.02,-0.02 0.01,-0.04 0.01,-0.01 -0.01,-0.03l0 0.01c0.01,0.03 0.01,0.02 -0.02,0.02l0.01 0.02c-0.03,-0.01 -0.02,-0.01 -0.01,0.02 -0.03,-0.01 -0.03,-0.02 -0.02,0.01l-0.02 -0c0.01,0.03 0.01,0.02 -0.01,0.01l-0.1 0.03 -0.12 -0.21c0.01,0.02 0.04,0.06 0.04,0.06 0.06,0.12 0.04,0.2 0.01,0.32l-0.01 0.09c-0.48,0.08 -1.1,0.14 -1.59,0.12l-0.01 -0.11 0.01 -0.08c0.29,-0 1.37,-0.04 1.52,-0.17 0,-0.08 -0.08,-0.22 -0.12,-0.27 -0.07,-0.07 -0.23,-0.03 -0.33,-0.02 -0.23,0.02 -0.51,0.05 -0.74,0.04 -0.09,0.04 -0.55,0.02 -0.67,0.01 -0.22,-0.03 -0.51,-0.03 -0.75,-0.05 -0.11,-0.01 -0.28,-0.05 -0.35,0.02 -0.05,0.05 -0.12,0.18 -0.11,0.27 0.17,0.1 1.04,0.17 1.3,0.15l0.21 0.01 -0 0.19c-0.24,0.04 -0.98,-0.04 -1.29,-0.07 -0.35,-0.04 -0.29,-0.05 -0.31,-0.16 -0.01,-0.04 -0.04,-0.14 -0.04,-0.16 0,-0.05 0.11,-0.25 0.13,-0.28 0.02,-0.03 0.03,-0.04 0.04,-0.07 0.07,-0.14 0.04,-0.71 0.05,-0.88 0.01,-0.52 -0.05,-0.6 0.25,-0.6 0.38,-0 2.43,-0.03 2.52,0.01 0.1,0.04 0.08,0.21 0.08,0.34 0.01,0.14 0,0.27 0.01,0.41 0.01,0.28 -0.01,0.55 0.07,0.77 0.07,-0.1 -0.01,0.08 0.01,-0.02l-0.01 -0.06c-0.01,-0.04 -0.01,-0.03 -0.01,-0.08 -0.02,-0.27 0.02,-1.27 -0.08,-1.35 -0,-0 -0.01,-0.01 -0.01,-0.01l-0.04 -0.04c-0.11,-0.05 -2.17,-0.02 -2.47,-0.02 -0.29,0 -0.34,-0.01 -0.35,0.28l-0.02 0.92c0,0.05 -0,0.11 0,0.16 0,0.02 0,0.06 0,0.08 -0,0.06 -0.21,0.45 -0.21,0.46l-0.11 -0.04c-0.02,-0.01 -0.01,-0 -0.03,-0.03 -0.02,-0.02 -0.01,-0 -0.02,-0.03l0 -0.01c-0.02,-0.03 -0.02,0.03 -0.02,-0.04 0.01,0.09 0.04,0.11 0.1,0.14 0.09,0.05 0.11,0.02 0.11,0.14l0 0.03 -0.02 0.04c-0.07,-0 -0.04,-0.01 -0.08,0.02l0.14 0.03 0.03 0.12c-0.16,-0.03 -0.27,-0.05 -0.3,-0.22 0.08,0.03 0.04,0.06 0.13,0.05l-0.02 -0.03c-0.04,-0.04 -0.06,-0.03 -0.09,-0.1zm3.84 -4.48c0,-0.07 0,-0.07 0.02,-0.13 0.01,0.02 0.02,0 0.02,0.06 -0,0.07 -0.03,0.06 -0.03,0.06zm0.03 -2.63l0 0.11 -0.03 0c0,-0.06 0.01,-0.09 0.01,-0.13 0,-0.08 0.02,-0.19 -0.01,-0.25l0 0.26c-0.05,-0.07 -0.01,-0.18 -0.01,-0.26 -0,-0.06 -0.04,-0.06 0.01,-0.14 0.03,0.02 0.04,-0.02 0.04,0.09 0.01,0.08 0.02,0.26 -0.01,0.32zm-4.39 -2.04l0.08 0.01c0.07,-0.02 0.08,-0.04 0.14,-0.06 0,-0 0.01,-0 0.01,-0 0.04,-0.01 0.05,-0.01 0.09,-0.02 0,0.13 -0.04,0.12 -0.14,0.16 -0.08,0.03 -0.15,0.07 -0.25,0.06 -0,-0.08 0,-0.07 0.06,-0.09 -0.05,-0.04 -0.01,-0.02 -0.06,-0.03 -0.08,-0.01 -0.02,0.02 -0.02,0.02 0.01,-0.18 0.21,-0.29 0.38,-0.32 0.1,-0.02 0.09,0.02 0.09,0.11l-0.38 0.16zm4.71 0.01c0.04,0.02 0.09,0.04 0.11,0.06 0.04,0.03 0.03,0.05 0.02,0.09 -0.07,-0 -0.2,-0.06 -0.27,-0.09 -0.12,-0.05 -0.16,-0.05 -0.11,-0.15 0.08,0.02 0.18,0.06 0.25,0.09zm-0.21 -0.28c0.07,0.01 0.11,0.03 0.18,0.06 0.17,0.08 0.13,0.06 0.19,0.24 -0.04,-0.05 -0.36,-0.15 -0.45,-0.2 -0.01,-0.09 -0.02,-0.13 0.08,-0.11z"/>
   <path class="fil2" d="M1 2.29c-0.02,0.15 0.04,0.55 0.08,0.68 0.04,0.12 0.12,0.13 0.25,0.1 0.23,-0.05 0.42,-0.09 0.66,-0.09 0.23,-0 0.2,-0.07 0.25,-0.13 0.09,-0.11 0.53,-0.09 0.65,-0.03 -0.01,0.02 -0.02,0.01 -0.02,0.03 -0,0.03 0.02,0.01 0.02,0.01 0.03,0.01 -0,-0.03 0.04,0.03 0.01,0.02 0.02,0.05 0.03,0.07 0.28,0 0.74,0.1 0.8,0.09 0.13,-0.01 0.15,-0.05 0.2,-0.04 0,0 0,0 0.01,0 0.06,0.01 0.1,-0.41 0.11,-0.48 0.04,-0.26 -0.02,-0.27 -0.23,-0.34 -0.29,-0.1 -0.63,-0.19 -0.98,-0.19 0.07,-0.03 0.04,0.01 0.08,-0.04 -0.08,-0.01 -0.18,-0.02 -0.27,-0.02 -0.21,-0.01 0.02,0.06 -0.24,0.06 -0.33,-0.01 -1.26,0.11 -1.44,0.31z"/>
   <path class="fil1" d="M1 2.29c0.18,-0.2 1.11,-0.32 1.44,-0.31 0.26,0 0.03,-0.06 0.24,-0.06 0.1,0 0.19,0.02 0.27,0.02 -0.04,0.05 -0.01,0.01 -0.08,0.04 0.36,0 0.69,0.09 0.98,0.19 0.21,0.07 0.27,0.09 0.23,0.34 -0.01,0.07 -0.05,0.49 -0.11,0.48 -0,0 -0,-0 -0.01,-0 -0.05,-0 -0.07,0.04 -0.2,0.04 -0.06,0 -0.52,-0.09 -0.8,-0.09 -0.01,-0.02 -0.01,-0.05 -0.03,-0.07 -0.04,-0.06 -0.01,-0.02 -0.04,-0.03 -0.01,-0 -0.02,0.02 -0.02,-0.01 0,-0.02 0.01,-0.01 0.02,-0.03 -0.12,-0.07 -0.57,-0.08 -0.65,0.03 -0.05,0.06 -0.02,0.13 -0.25,0.13 -0.24,0 -0.43,0.04 -0.66,0.09 -0.14,0.03 -0.21,0.03 -0.25,-0.1 -0.04,-0.13 -0.11,-0.53 -0.08,-0.68zm-0.11 -0.11l-0.04 0.01 0.04 0.01c0,0.1 0.02,0.21 0.02,0.28 0.01,0.09 0.02,0.18 0.03,0.28 0.02,0.17 0.09,0.37 0.1,0.52l0.05 -0.01c0.21,-0.07 0.43,-0.1 0.65,-0.13 0.25,-0.03 0.53,-0.06 0.79,-0.06 0.38,-0.01 1.18,0.06 1.49,0.19 0.04,-0.02 0.03,0 0.05,-0.02 0.06,-0.34 0.12,-0.66 0.16,-1.04 0.11,0 0.12,0.07 0.17,0.13l-0.03 -0.08c-0.03,0 -0.02,0.01 -0.01,-0.02 -0.03,0.01 -0.02,0.01 -0.02,-0.01 -0.02,0 -0.02,0.01 -0.02,-0.02l-0.04 -0.02c-0.07,-0.01 -0.04,0.01 -0.06,-0.03l-0.02 -0.02c-0.06,-0.11 -0.17,-0.18 -0.29,-0.23l-0.14 -0.05c-0,-0 -0.01,-0 -0.01,-0l-0.27 -0.07c-0.64,-0.14 -1.7,-0.13 -2.31,0.15 -0.22,0.1 -0.21,0.19 -0.27,0.25z"/>
   <path class="fil3" d="M0.87 9.81c-0.01,0.02 -0,-0 -0.03,0.03 -0.01,0.01 -0.01,0.02 -0.02,0.03 -0.07,0 -0.02,-0 -0.03,0.02 -0.09,-0.19 -0.07,-0.55 -0.08,-0.79 -0.01,-0.18 -0.05,-0.74 -0,-0.88 0.06,-0.01 0.08,0.01 0.12,0.03 -0,0.02 -0.01,0.02 0.02,0.01l0.02 0.01 0.01 0.02 0.01 0.03c0,0.1 -0,0.33 0.01,0.42 0.02,-0.05 0.02,-0.25 0.02,-0.32 -0,-0.05 -0,-0.08 -0.03,-0.1l-0.01 -0.03 -0.01 -0.02 -0.02 -0.01 -0.02 -0.01 0 -0.19 0.04 -0.01c0.02,-0 -0,0.01 0.04,-0l-0.08 -0.03 -0 -0.21 -0.06 -0.09c-0.04,-0.05 -0.03,-0.03 -0.04,-0.1 -0.03,-0.12 -0.04,-0.66 -0.04,-0.8 -0,-0.31 -0.02,-0.82 0.03,-1.1l0.06 0.02c-0,0.03 -0.01,0.02 0.01,0.02l-0.01 -0.02 0 -0.24c0.08,0.01 0.1,0.08 0.17,0.1 -0.03,-0.04 -0.12,-0.1 -0.17,-0.13l0.01 -0.35c0.02,-0.02 -0,-0.02 0.03,0 -0.01,-0.06 -0.1,-0.15 -0.09,-0.37 0,-0.06 0.01,-0.11 -0.02,-0.17 0.01,0.22 -0,0.44 -0.02,0.66l-0 0.12c-0.06,-0.02 -0.07,-0.08 -0.11,-0.13l0 0.03c0.03,0.04 0.09,0.11 0.1,0.15 0.02,0.07 0.01,0.18 -0.01,0.23 0.01,0.39 0,0.78 0,1.17 -0,0.38 0.02,0.79 -0.01,1.16l-0 0.03 0 0.15c-0,0.21 -0.03,3.02 0.06,3.26 0.01,0.03 0.01,0.02 0.02,0.04 0.07,-0.03 0.04,-0.04 0.08,-0.08 0.08,-0.2 0.03,-0.5 0.02,-0.72 -0.01,-0.19 -0.01,-0.59 -0.05,-0.75 0.05,-0 0.03,0 0.03,-0.02 0.03,0.05 0.01,-0 0.01,0.04l0 0.13c0.03,-0.05 0.03,-0.09 0.04,-0.17l-0.01 -0.06z"/>
   <path class="fil3" d="M4.28 5.11c0.02,0.1 0.02,0.26 0,0.36 0,0.01 0,0.02 0,0.02l0 0.24c0.06,-0.01 0.05,-0.07 0.08,0.02 0.05,0.15 0.01,1.43 0,1.64 -0,0.08 -0.01,0.18 -0.04,0.25 -0.07,0.15 -0.07,0.12 -0.12,0.18 0.04,0.02 0.03,-0.04 0.03,0.05l-0 0.16 -0.11 0.05c0.05,-0.01 0.05,-0.02 0.11,-0.02l-0 0.21c0.04,-0.02 0.07,-0.04 0.13,-0.03 0.06,0.13 -0,1.22 -0.03,1.5 -0.01,0.11 -0.01,0.15 -0.07,0.17 0.03,0.13 -0.02,0.58 -0.03,0.74 -0.02,0.21 -0.05,0.56 0.02,0.73 0.04,0.04 0.04,0.07 0.08,0.11 0.05,0.05 0.07,0.03 0.1,0.1 0.05,0.02 0.01,0.01 0.03,-0l-0.03 -0.04c-0.05,-0.02 -0.04,-0.02 -0.08,-0.05 0,-0.22 0.04,-0.48 0.05,-0.71 0.01,-0.25 0.01,-0.48 0.02,-0.73l0 -1.6c-0,-0.09 0,-0.18 0,-0.27 -0,-0.11 -0.05,-0.17 0.06,-0.19l0.06 -0.04c-0.02,-0.07 -0.01,-0.18 -0.01,-0.22 -0,-0 -0,-0.01 -0,-0.01 -0,-0 -0,-0.01 -0,-0.01 -0,-0 -0,-0.01 -0,-0.01 0,0.09 0.03,0.24 -0.04,0.28 -0.04,0.03 -0.01,0.01 -0.06,0.02 -0.01,-0.43 -0,-0.86 -0,-1.29 0,-0.3 -0.02,-1.04 -0.01,-1.25 0.01,-0.08 0.01,-0.05 0,-0.13l-0.04 -0.46c-0.01,0.02 -0.09,0.24 -0.09,0.27z"/>
   <path class="fil4" d="M1.45 0.27c0.03,0.01 0.03,0.01 0.03,-0.02l-0.03 0.02c-0.05,0.01 -0.06,0.03 -0.11,0.06l-0.1 0.09c-0.04,0.01 -0.01,-0 -0.02,0.03l0.02 -0.03c0.08,-0.02 0.08,-0.06 0.19,-0.08l-0.16 0.62c-0.03,0.16 -0.12,0.49 -0.12,0.64 0.01,-0.02 0,0 0.02,-0.03l-0.01 0.14c0.04,-0.07 0.21,-1.04 0.27,-1.25 0.05,-0.16 0.02,-0.17 0.18,-0.2 0,-0 0.05,-0.01 0.05,-0.01 0.04,-0.01 0.04,-0.02 0.05,-0.03 -0.1,-0.03 -0.12,0.02 -0.19,0.05 -0.1,0.04 -0.04,0.02 -0.06,0zm-0.63 0.41l0.01 -0.01c-0.01,0 -0.01,0.02 -0.01,0.03 0,-0 0.01,-0.01 0.01,-0.01l0.02 -0.02c0,-0 0.01,-0 0.01,-0.01 -0,0.12 -0.06,0.26 -0.06,0.41 0.1,-0.09 0.07,-0.27 0.2,-0.44 0.05,-0.06 0.1,-0.11 0.15,-0.16 0.03,-0.03 0.05,-0.05 0.08,-0.08 0.04,-0.04 0.06,-0.04 0.08,-0.08 -0.07,0.02 -0.2,0.11 -0.27,0.16l-0.05 0.02c0.02,-0.02 0.03,-0.03 0.06,-0.05 0.03,-0.03 0.07,-0.05 0.11,-0.09 -0.06,0.03 -0.14,0.09 -0.19,0.12 -0.08,0.07 0.01,0.04 -0.1,0.17l0.03 -0.09c-0.03,0.03 -0.06,0.09 -0.08,0.12zm0.05 0.34c0,-0 0.01,-0.02 0.01,-0.01 0,0.01 0.03,-0.05 0.03,-0.12l0.02 -0.05c-0.02,0.02 -0.03,-0.03 -0.02,0.05 -0.02,0.03 -0.01,-0.01 -0.03,0.05 -0.01,0.03 -0.01,0.05 -0.01,0.08zm0.01 0c-0.02,0.01 -0.02,0.01 -0.03,0.03 -0.03,0.04 0,-0.01 -0.02,0.04l-0.04 0.73c-0,0.05 0,0.09 0,0.14 0,0.12 0.01,0.09 0.03,0.11l0.02 -0.53c0.01,-0.13 0.05,-0.4 0.04,-0.52zm-0.05 1.16l0.04 -0.01c-0,-0.02 -0,-0.04 -0.01,-0.06 -0.02,-0.05 -0.01,-0.03 -0.04,-0.05 -0.02,0.07 -0.02,0.04 0,0.11zm3.04 -1.72l0.02 0.01 0.02 0.01c0,-0.02 0.01,-0.02 -0.02,-0.01 -0,-0.02 0,-0.02 -0.02,-0.01l0.1 0.04c0.06,0.05 0.08,0.1 0.12,0.16 0.06,0.09 0.14,0.35 0.15,0.41 -0,-0 -0.01,-0 -0.01,-0.01 -0,-0 -0.01,-0 -0.01,-0.01 -0,-0 -0.01,-0 -0.01,-0.01l-0.02 -0.02c-0.02,-0.02 -0.01,-0.02 -0.03,-0.04 0.01,0.25 0.06,0.59 0.06,0.88l-0.05 0.27c0.01,-0.04 0.02,-0.04 -0.02,-0.02l0.02 0.02c0.02,0.03 -0.02,0.02 0.06,0.03 0.02,-0.2 0.04,-0.31 0.02,-0.54 -0.01,-0.19 -0.02,-0.35 -0.04,-0.55 0.03,0.02 0.02,0.01 0.05,0.03 0.02,0.06 0.06,0.82 0.04,0.94 -0,0.02 -0.01,0.06 -0.01,0.08 0.01,0.03 0,0.04 0.04,0.07 0.04,-0.05 0.02,-0.02 0.02,-0.13 -0,-0.23 -0,-0.95 -0.07,-1.09 0,0.07 0.02,0.09 -0.02,0.13l-0.03 -0.02c0.02,-0.08 0.03,-0.08 0.01,-0.22 -0.02,-0.14 -0.06,-0.17 0,-0.22l-0 0c-0.01,0.03 -0.01,0.02 0.02,0.02 -0,-0.03 0.01,-0.03 -0.02,-0.02 -0.01,-0.07 -0.03,-0.05 -0.05,-0.1l0 0.01 -0 0c0.03,0.04 0.03,0.05 0.02,0.09 -0.06,-0.04 -0.04,-0.05 -0.04,-0.08 -0.03,0 -0.02,0.01 -0.01,-0.02 -0.05,-0.01 -0.01,0.01 -0.06,-0.02l-0.08 -0.08c-0,-0 -0,-0.01 -0.01,-0.01l-0.01 -0.02c0.09,0.02 0.08,0.07 0.14,0.1 -0.02,-0.03 -0.04,-0.04 -0.05,-0.07 -0.04,-0.01 -0.03,0.01 -0.03,-0.03l-0.03 -0.01 -0.02 -0.01 -0.02 -0.02 -0.02 -0.02 -0.01 -0 -0.01 -0.01 -0.03 -0.02 -0.01 -0 -0.02 -0.01 0.02 0.01 0.05 0.03c0.05,0.05 0.02,0.01 0.03,0.05 -0.07,-0.01 -0.17,-0.11 -0.26,-0.13l0.03 0.03c0,0 -0,0.05 0.02,0.02 0,-0 0.01,0.01 0.01,0.01 -0,-0 -0.01,-0 -0.01,-0.01l-0.07 -0.05 -0.03 -0.03c-0.04,0 -0.03,0.01 -0.03,-0.02 -0.02,0 -0.03,0.03 -0.01,-0.01 -0.03,-0 -0.02,0.01 -0.03,-0.02l-0.02 0.01c0,-0.02 0.01,-0.02 -0.02,-0.01 0,-0.03 0.01,-0.02 -0.02,-0.01 0,-0.03 0.01,-0.02 -0.02,-0.01 0.01,-0.03 0.01,-0.02 -0.02,-0.02 0.01,-0.03 0.01,-0.02 -0.02,-0.03 0,0.04 -0.01,0.03 0.02,0.03 -0.01,0.03 -0.01,0.02 0.02,0.02 -0.01,0.03 -0.01,0.02 0.02,0.01 -0,0.03 -0.01,0.02 0.02,0.01 -0,0.02 -0.01,0.02 0.02,0.01l0.06 0.05c-0.03,0.03 -0.03,-0.03 -0.21,-0.08 -0.38,-0.11 -0.89,-0.11 -1.27,-0.09 -0.18,0.01 -0.23,0.03 -0.38,0.05 -0.09,0.01 -0.02,-0.01 -0.08,0.02 -0.04,0.02 -0.02,0.01 -0.03,0.02 0.04,0.01 0.68,-0.08 0.98,-0.07 0.13,0 0.66,0.06 0.8,0.11 0.04,0.01 0.07,0.02 0.11,0.03 0.05,0.16 0.31,1.36 0.33,1.57 -0,-0.01 -0,-0.03 -0,-0.04 0.01,-0.05 -0,-0.02 0.03,-0.05l0.02 0.14c-0,-0.16 -0.19,-1.14 -0.27,-1.37l-0.04 -0.15c-0,-0.01 -0,-0.01 -0,-0.01 -0,-0 -0,-0.01 -0,-0.01 -0,-0 -0.01,-0.02 -0.01,-0.03 0.25,0.09 0.14,0.1 0.24,0.14zm0.41 1.74c0,0.02 -0.01,0.02 0.02,0.02 -0,0.02 -0.01,0.02 0.02,0.01 -0.01,0.03 -0.01,0.02 0.01,0.02 0,-0.03 0.01,-0.03 -0.01,-0.02l-0.02 -0.01 -0.02 -0.02z"/>
   <path class="fil5" d="M3.53 4.92c0.02,0 0.08,0 0.09,0 0.06,-0.01 0.04,-0.08 0.16,-0.03 0.02,0.05 -0.01,0.07 -0,0.09 0,0 0.07,0.05 0.02,0.13 -0.04,0.07 -0.15,0.08 -0.24,0.06 -0.05,-0.01 -0.1,-0.03 -0.14,-0.05l0 -0.11c0,-0 0.01,-0.01 0.02,-0.01 0.09,-0.04 0.07,-0.01 0.09,-0.07zm-0.62 0.07l-0 0.21c0.16,0.03 0.29,0.01 0.47,0.03l0.13 0.02c0,-0 0.01,0 0.01,0.01l0.31 0.01c0.09,-0.12 -0.01,-0.3 0.06,-0.37 -0.01,0.16 0.03,0.3 -0.03,0.39 -0.06,0.08 -0,-0.04 -0.01,0.02 -0.04,0.05 0.06,0.04 -0.06,0.04 -0.01,0.06 -0.02,0.01 0,0.06 0.03,-0.01 0.04,-0 0.08,-0.01l0.07 -0.04c0,-0 0.01,-0.01 0.01,-0.01l-0.01 4.79c-0.01,0.08 0.01,0.03 -0.03,0.06l0.04 0.04c0,0 0.01,0.01 0.01,0.01 -0.02,-0.34 0,-1.36 0,-1.77 0,-0.59 0,-1.18 0.01,-1.77 0,-0.41 -0.01,-2.69 0.04,-3.04 0.01,-0.11 0.06,-0.32 0.06,-0.39 -0.02,0.02 -0,0.01 -0.05,0.02 0.01,0.04 -0.05,0.71 -0.06,0.85l-0.01 0.7c-0,0.17 0.01,0.14 -0.02,0.19l-0.04 -0.11c-0.01,-0.06 0,-0.06 0,-0.11 0,-0.03 0.01,-0.03 -0,-0.06 -0.01,-0.04 -0,-0.02 -0.03,-0.03 -0,-0 -0.01,-0.01 -0.01,-0.01 -0,0 -0.01,-0.01 -0.01,-0 -0.03,0 -0.02,0 -0.04,0.02l0.06 -0c0.01,0.04 0.01,0.05 0.01,0.11 -0.02,-0.08 0.02,-0.07 -0.04,-0.1 -0.05,0.04 -0.02,0.02 -0.04,0.11l0.03 0.02c0.02,0.01 0.03,0.01 0.05,0.06 -0,-0 -0.01,-0.01 -0.01,-0.01 -0.1,-0.07 -0.33,-0.03 -0.45,-0.03 -0.13,0 -0.37,-0.01 -0.49,0.01 0.01,0.04 0.04,0.12 -0.03,0.12z"/>
   <path class="fil1" d="M4.21 7.82c0.05,-0.06 0.06,-0.02 0.12,-0.18 0.03,-0.08 0.03,-0.17 0.04,-0.25 0.01,-0.21 0.05,-1.48 -0,-1.64 -0.03,-0.1 -0.02,-0.04 -0.08,-0.02l-0 -0.24c-0,-0 -0,-0.02 -0,-0.02l0.01 0.01c0.05,0.44 -0.09,0.21 -0.13,0.5 -0.03,0.24 -0,1.61 0.02,1.82 0.02,0.02 -0,0.01 0.03,0.01z"/>
   <path class="fil6" d="M0.52 8.05c0.03,-0.02 0.01,-0.02 0.03,0.02l0.01 1.95 0.01 0.13c-0,-0 -0.01,-0.01 -0.01,-0.01 -0.01,0.12 0.01,1.11 0.05,1.29 0.02,0.07 0.05,0.11 -0.01,0.14 0.03,0.02 0.01,0.01 0.03,0.01 0.08,0.01 -0.03,-0.03 0.02,-0l0.04 0.27c0.16,-0.08 0.13,-0.31 0.13,-0.47 -0.05,0.04 -0.01,0.05 -0.08,0.08 -0.01,-0.02 -0.01,-0.01 -0.02,-0.04 -0.09,-0.24 -0.06,-3.05 -0.06,-3.26l-0.05 -0.03 0 -0.14 0.05 0.02 0 -0.03c-0.12,-0.02 -0.01,-0.18 -0.07,-0.32 -0.03,0.07 -0.02,0.12 -0.03,0.21 -0.01,0.07 -0.02,0.13 -0.03,0.2z"/>
   <path class="fil1" d="M1.22 5.19c-0.01,-0.1 -0.02,-0.24 0.01,-0.33l0.46 -0.01 0.16 -0 0.31 -0 -0.01 0.14 -0.01 0.23 -0.38 0.03c0,0 0.01,0 0.01,0 0.1,0.02 -0.09,-0.02 0.03,0 0.04,0.01 0.02,-0.01 0.07,0.01l-0.6 -0c-0.02,-0.03 -0.01,0.02 0.01,-0.01 0.02,-0.02 0.01,0.02 0.02,-0.03 -0.05,0 -0.03,0.01 -0.04,0.01 -0.01,0 -0.04,0.02 -0.04,-0.04zm2.64 -0.51l-0.06 0c-0.03,0.03 -0.02,0.07 -0.02,0.13l-1.22 0c0.05,-0.11 -0.02,-0.49 -0.02,-0.66 0,-0.25 0.01,-0.51 -0,-0.76 -0.05,0.1 -0.02,0.6 -0.02,0.75 0,0.19 -0.07,0.55 -0.01,0.67l-1.2 0c-0.07,0.01 -0.06,0.02 -0.12,0.03 -0.03,0.1 -0.03,0.32 -0,0.42 0.14,0.06 0.17,0.02 0.32,0.03 0.07,0.01 0.07,0.04 0.13,0.03 0.06,-0 0.04,-0.03 0.14,-0.04l1.59 0.01c0.05,0.01 0.05,0.04 0.12,0.02 0.07,-0.02 0.04,-0.03 0.14,-0.03 0.08,-0 0.13,0 0.21,-0.01 0.01,-0.06 -0.05,0.06 0.01,-0.02 0.06,-0.08 0.03,-0.23 0.03,-0.39 -0.07,0.08 0.02,0.26 -0.06,0.37l-0.31 -0.01c-0,-0 -0.01,-0.01 -0.01,-0.01l-0.13 -0.02c-0.18,-0.02 -0.32,-0 -0.47,-0.03l0 0.07c-0.07,0.01 -0.13,0.01 -0.2,0.01l-0.15 -0.01c-0.05,-0.01 0,-0 -0.04,0.01 -0.07,0.02 -0.25,0.01 -0.32,0.01 0.01,-0.11 -0.02,-0.27 -0,-0.41l0.73 0 -0.01 0.13c0.07,-0 0.04,-0.08 0.03,-0.12 0.11,-0.02 0.35,-0.01 0.49,-0.01 0.12,-0 0.35,-0.04 0.45,0.03 0,0 0.01,0.01 0.01,0.01 -0.02,-0.06 -0.03,-0.05 -0.05,-0.06l-0.03 -0.02c0.02,-0.09 -0.01,-0.08 0.04,-0.11 0.06,0.03 0.02,0.02 0.04,0.1 0,-0.06 0,-0.07 -0.01,-0.11z"/>
   <path class="fil1" d="M0.81 7.68c-0.11,-0.24 -0.05,-1.54 -0.05,-1.91 0.04,0.03 0.01,-0 0.04,0.04l0.03 1.7c-0,0.14 -0.04,0.1 -0.02,0.16zm0.03 0.13l0.06 -0c0.04,-0.11 0.04,-1.34 0.04,-1.62 0,-0.21 0,-0.35 -0.14,-0.43 -0.02,-0 -0.02,0 -0.01,-0.02l-0.06 -0.02c-0.05,0.28 -0.03,0.79 -0.03,1.1 0,0.14 0.01,0.68 0.04,0.8 0.01,0.06 0.01,0.05 0.04,0.1l0.06 0.09z"/>
   <path class="fil7" d="M2.97 9.11c-0.06,-0.01 -0.03,0.03 -0.05,-0.03 -0.02,0.03 -0.01,0.06 -0.01,0.07 0,0 0,0.01 0,0.01 0,0 0,0.01 0,0.01 0,0 0,0.01 0,0.01 0,0 -0,0.01 -0.01,0.01l0.05 -0.06c0,-0 -0,-0.01 0.01,-0.02zm0.04 0l0.06 0.02 0 -0.1c-0.01,0 -0.01,0 -0.02,0.01l-0.05 0.04c-0.02,0.02 -0.02,0.02 -0.05,0.04 0.1,0.02 -0.07,0 0.03,-0.01 0.03,-0 0,-0.03 0.02,0zm-0.16 0.12l0 -0c0,-0.03 -0.01,-0.03 0.02,-0.02l0.02 -0.01 -0.04 0.03zm-0.04 0.04l-0 -0.01c0,-0.03 -0.01,-0.03 0.03,-0.02 -0.03,-0.02 0.02,-0.03 -0.04,-0.01 -0,0 -0,0.01 -0,0.01 0.01,0.06 -0.03,-0.04 0.02,0.03zm-0.01 -0.15l-0.02 0.05c-0.04,0.04 -0.01,0.03 -0.06,0.06 -0.07,0.04 -0.09,0.09 -0.21,0.09 -0.08,-0.02 -0.09,-0.04 -0.14,-0.06 -0.05,-0.07 -0.09,-0.09 -0.13,-0.19 -0.03,-0.08 -0.04,-0.18 -0.03,-0.27 0.02,-0.19 0.15,-0.35 0.27,-0.35 0.08,-0.01 0.14,0.02 0.2,0.04l0.04 0.02c0.02,-0 0.02,-0.01 0.01,0.02 0.05,0.03 0.09,0.14 0.14,0.18 -0,0.06 -0.01,0.03 0.02,0.07l-0.02 -0.07c-0,-0.08 -0,-0.01 0.03,-0.04 0,0.04 0.01,0.02 0.05,-0.02 -0.02,0.08 -0.01,0.03 0.02,0.04l-0.02 0.01c-0.05,0.03 -0.03,-0.02 -0.03,0.02l0.07 0 -0.01 0.01c0,0 0,-0.07 0.06,-0.05 0.01,0.03 0.02,0.05 0.04,0.09l0.02 0.06 -0 0.21c0.04,-0.04 0.02,-0.19 0,-0.21 0,-0.07 0.01,-0.04 -0.02,-0.06 0.01,-0.2 -0.15,-0.09 0.02,-0.45 -0.05,-0.06 -0.12,-0.14 -0.14,-0.2 -0.16,0.02 -0.14,0.08 -0.36,-0.03 -0.06,-0.03 0.01,-0.01 -0.07,-0.03 -0.12,0.13 -0.21,0.09 -0.37,0.06 -0.04,0.04 -0.13,0.15 -0.16,0.22 0.15,0.22 0.07,0.22 0.04,0.37l0.03 0.02 0.03 -0.09c0,0 0.01,0 0.01,0.01l0.14 -0.09c-0.03,0.09 -0.04,0.08 -0.08,0.12 -0.03,0.04 -0.09,0.23 -0.05,0.34l0.13 0.2 -0.01 0.05 0.02 0.01c0.07,0.03 0.16,0.09 0.24,0.11 0.07,0.01 0.21,-0.03 0.25,-0.07l0.03 -0.01 -0.03 -0.03c0.02,0.01 -0,0.02 0.03,-0 0.03,-0.03 0.06,-0.11 0.07,-0.15 -0.03,0.02 -0.02,0.02 -0.05,0.03zm-0.77 -0.37c-0,0 -0.01,0 -0.01,0.01 -0,0.01 -0.01,0.01 -0.01,0.01 -0.04,0.08 -0.04,0.22 -0.01,0.26 0.03,0.02 0.01,-0.06 0.03,0.05 -0.03,0.01 -0.01,-0.02 -0.03,0.02l-0.01 0.02c0,0.06 0.01,0.02 0.02,0.03l0.08 -0.06c0.04,0.03 0.03,0.04 0.06,0.07 0.03,0.04 0.04,0.03 0.07,0.06 0.06,-0.03 0.03,0 0,-0.04l-0.12 -0.12c-0.15,-0.09 -0.02,-0.23 -0.08,-0.32zm0.02 -0.05l-0.02 0.03 0.03 0.03c0.01,-0.09 0,-0.03 -0.01,-0.06zm0.88 0.05l-0.01 -0.01 0.01 0.01zm-0.56 -0.56c0.06,-0.01 0.16,-0.07 0.19,-0.06 0,0 0.15,0.06 0.19,0.07 0.21,-0.04 0.19,-0.06 0.3,0.12l-0.08 0.17 -0 0.1 -0.02 -0.03c-0.1,-0.07 -0.13,-0.13 -0.29,-0.17 -0.02,-0.01 -0.08,-0.02 -0.08,-0.04 -0,-0 -0,-0.01 -0.01,-0.01 -0.05,0.06 -0.12,0.05 -0.2,0.08 -0.07,0.03 -0.12,0.08 -0.17,0.11l-0.04 0.03c-0.01,-0.08 -0.03,-0.17 -0.08,-0.23l0.11 -0.15c0.06,0.02 0.12,0.03 0.19,0.02z"/>
   <path class="fil1" d="M4.23 8.26c-0.09,0.05 -0.07,0.25 -0.07,0.38 0,0.3 0.01,1.13 0.05,1.34 0,-0 0.01,-0.02 0.01,-0.01 0.01,0.02 0,-0.05 0.03,-0.06 0.06,-0.03 0.05,-0.06 0.07,-0.17 0.03,-0.27 0.09,-1.37 0.03,-1.5 -0.06,-0.01 -0.09,0.01 -0.13,0.03z"/>
   <path class="fil1" d="M0.8 9.9c0.01,-0.02 -0.04,-0.02 0.03,-0.02 0.01,-0.01 0.01,-0.02 0.02,-0.03 0.03,-0.04 0.01,-0.02 0.03,-0.03 0.03,-0.11 0.05,-0.95 0.03,-1.06 -0.01,-0.09 -0.01,-0.32 -0.01,-0.42l-0.01 -0.03 -0.01 -0.02 -0.02 -0.01c-0.03,0 -0.02,0.01 -0.02,-0.01 -0.03,-0.02 -0.06,-0.04 -0.12,-0.03 -0.05,0.14 -0.01,0.7 0,0.88 0.01,0.23 -0.01,0.59 0.08,0.79z"/>
   <path class="fil4" d="M3.78 5.39c-0.02,-0.05 -0.01,0 0,-0.06 0.12,0 0.02,0.01 0.06,-0.04 -0.08,0.01 -0.13,0.01 -0.21,0.01 -0.11,0 -0.07,0.01 -0.14,0.03 -0.07,0.02 -0.07,-0.01 -0.12,-0.02l-1.59 -0.01c-0.1,0 -0.08,0.03 -0.14,0.04 -0.05,0 -0.05,-0.03 -0.13,-0.03 -0.15,-0.02 -0.18,0.02 -0.32,-0.03 0.05,0.15 0.02,0.11 0.21,0.14 0.12,0.02 0.18,0.04 0.31,0.03 0.66,-0.04 1.51,0.02 2.06,-0.05z"/>
   <path class="fil6" d="M4.47 7.95c0.07,-0.04 0.05,-0.19 0.04,-0.28 -0.03,-0.02 -0,0.01 -0.04,-0.03l-0.01 0.31zm0 0.02l0 0.24c0,0.08 -0,0.18 -0,0.27 -0.01,0.29 0,1.44 -0.06,1.55 -0,0.25 -0.01,0.48 -0.02,0.73 -0.01,0.23 -0.05,0.49 -0.05,0.71 0.05,0.03 0.03,0.03 0.08,0.05 0.05,-0.22 0.05,-0.48 0.06,-0.72 0.01,-0.23 0.02,-0.49 0.02,-0.73l-0.06 0.13c0,-0.09 0.04,-0.14 0.06,-0.23 -0.02,-0.16 0,-1.96 0.03,-2.05l0 -0.01 -0.06 0.04z"/>
   <path class="fil8" d="M4.51 5.49c-0.03,0.03 -0.02,0.03 -0.04,0.07 -0.03,0.05 -0.03,0.04 -0.06,0.05l-0 -0.18c-0.01,0.21 0.01,0.95 0.01,1.25 -0,0.43 -0.01,0.86 0,1.29 0.05,-0.01 0.03,0.01 0.06,-0.02l0.01 -0.31c0.01,-0.12 -0.03,-0.29 0.01,-0.38l0 0.26c0.02,-0.04 0.01,-0.09 0.01,-0.14l-0 -0.12c0,-0.03 -0.02,0.01 0.01,-0.03 0.02,0.05 -0,0.19 0.03,0.25l0.01 -0.02c0,-0 0,-0.01 0,-0.01 0.01,-0.07 0.01,-0.25 -0.02,-0.31 -0.04,-0.07 -0.03,0.03 -0.03,-0.1 -0,-0.48 0.02,-1.11 -0,-1.55z"/>
   <path class="fil8" d="M0.59 7.64c0.06,0.14 -0.05,0.3 0.07,0.32 0.03,-0.37 0.01,-0.78 0.01,-1.16 0,-0.39 0.01,-0.78 -0,-1.17 -0.04,-0.03 -0.07,-0.06 -0.09,-0.12 -0.02,0.33 -0.01,0.73 -0,1.07 0,0.17 -0.02,0.37 0.01,0.52 0.02,0.08 0.01,0.17 0.02,0.25 0,0.04 0,0.08 0,0.13 0,0.05 0,0.09 -0.02,0.14l-0.01 -0.1c-0.03,-0.05 -0.03,-0.15 -0.02,-0.21 0.01,-0.08 0.07,-0.11 0.02,-0.19 -0.02,0.01 -0.04,-0 -0.04,0.1 -0,0.05 -0,0.1 -0,0.14 -0,0.1 -0,0.19 0.01,0.29 0.03,0.01 0,0 0.03,0 0,0 0.02,-0 0.02,-0z"/>
   <path class="fil8" d="M4.37 4.84l0.04 0.46c0.1,-0.36 0.03,-0.5 0.08,-0.56 -0,-0.1 0.02,-0.19 0.02,-0.43 -0,-0.15 -0,-0.31 -0,-0.46 -0,-0.29 0.01,-0.61 -0.01,-0.9 -0.06,-0 -0.07,0.01 -0.09,0.05 -0.02,0.04 -0.01,0.03 -0.01,0.03 -0,0 -0,-0 -0,-0l-0.01 -0c-0,-0 -0.01,-0 -0.01,-0 -0,-0 -0,-0 -0.01,-0 -0,0.29 0.02,0.6 0.03,0.9 0,0.31 -0.01,0.61 -0.02,0.92z"/>
   <path class="fil8" d="M0.59 4.61c0.03,-0.01 0.02,-0.01 0.02,0.01 0.03,0.07 0.01,0.34 0.02,0.45 0.02,0.03 0.01,0.04 0.02,0.07 0,0.01 0.01,0.03 0.01,0.04 0.02,0.05 0.01,0.02 0.03,0.04 0.02,-0.21 0.03,-0.44 0.02,-0.66 -0.05,-0.5 0.02,-1.07 0.01,-1.58 -0.03,-0.02 -0.05,-0.04 -0.1,-0.05l-0.02 1.66z"/>
   <path class="fil2" d="M1 12.36c0.03,0.05 0,0.05 0.09,0.08l0.43 0.06c0.13,0.01 0.23,0 0.3,0.04 0.15,0.07 1.02,0.03 1.24,0.03 0.11,-0 0.23,0.03 0.19,-0.09 -0.06,-0.03 -0.48,0 -0.59,0.01 -0.35,0.01 -0.78,-0.01 -1.12,-0.04 -0.18,-0.02 -0.37,-0.06 -0.53,-0.07z"/>
   <path class="fil4" d="M2.3 4.97c0,-0 0.01,-0 0.01,-0 0.1,-0.03 0.46,-0.05 0.5,0.02 0.02,0.03 0.01,0.01 0.01,0.04 0,0.14 -0.07,0.11 -0.18,0.11 -0.06,-0 -0.12,0 -0.17,0 -0.04,0 -0.13,0.01 -0.15,-0.01 -0.04,-0.03 -0.03,-0.14 -0.01,-0.16zm0.6 0.23l0 -0.21 0.01 -0.13 -0.73 -0c-0.02,0.15 0.01,0.3 0,0.41 0.08,-0 0.26,0.01 0.32,-0.01 0.04,-0.01 -0.01,-0.02 0.04,-0.01l0.15 0.01c0.07,-0 0.13,0 0.2,-0.01l-0 -0.07z"/>
   <path class="fil3" d="M2.37 9.26c0.05,0.02 0.07,0.04 0.14,0.06l-0.01 -0.04c-0.07,0.01 -0.07,0 -0.14,-0.02 -0,-0.05 -0,-0.04 0.06,-0.05 0.03,-0 0.07,0 0.1,0 0.07,0 0.14,0 0.21,0l0.02 -0.02c-0.06,-0.01 -0.13,-0 -0.17,-0.03l-0.03 0c-0.04,0 -0.02,0.01 -0.06,-0.03 -0.04,0 -0.03,0.01 -0.03,-0.02 -0.04,-0.02 -0.04,-0.01 -0.06,-0.06 -0.06,-0.01 -0.02,0.01 -0.03,-0.02 -0.03,0.01 -0.02,0.01 -0.02,-0.02l-0 -0c-0.04,-0.07 -0.01,-0.46 -0.01,-0.48 0.05,-0.05 0.09,-0.04 0.13,-0.08 -0.12,-0 -0.25,0.16 -0.27,0.35 -0.01,0.09 -0.01,0.19 0.03,0.27 0.04,0.1 0.08,0.11 0.13,0.19zm0.41 -0.08l0.02 -0.05 0.06 -0.08c0.03,-0.11 0.02,-0.17 0.03,-0.27 -0.03,-0.04 -0.02,-0 -0.02,-0.07 -0.04,-0.04 -0.08,-0.16 -0.14,-0.18 0.01,-0.02 0.01,-0.02 -0.01,-0.02l-0.04 -0.02c0.02,0.01 0.01,0 0.02,0.03l0.02 -0.01 -0.01 0.02 0.02 -0 -0.01 0.51 0.07 -0.01c-0.01,0.04 -0.01,0.05 -0.02,0.08 -0,0 -0.01,0.03 -0.02,0.03 -0.03,0.04 0.01,-0 -0.02,0.02 0.03,0.03 -0,0.02 0.04,0.01z"/>
   <path class="fil8" d="M4.51 9.99c0.14,-0.22 0.09,-0.7 0.09,-1 -0,-0.36 0,-0.7 -0.06,-1.05 -0.02,0.09 -0.05,1.89 -0.03,2.05z"/>
   <path class="fil9" d="M3.17 12.3c-0.04,0.05 -0.16,0.05 -0.25,0.05 -0.05,0 -0.11,0 -0.16,0 -0.08,-0 -0.08,-0 -0.08,-0.07 0.06,-0 0.02,0 0.04,-0.02 -0.07,0 -0.02,-0 -0.04,0.02 -0.05,0.04 -0.05,0.04 -0.14,0.03l0.01 0.11c0.49,0.02 1.11,-0.04 1.59,-0.12l0.01 -0.09c-0.14,-0.01 -0.35,0.03 -0.49,0.04 -0.17,0.02 -0.32,0.03 -0.49,0.04z"/>
   <path class="fil5" d="M2.15 4.99c-0.44,0 -0.21,-0.11 -0.34,-0.1 0.07,-0 0.01,0.01 0.03,-0.03l-0.16 0 0 0.07c0.03,0.07 0.05,0.05 0.11,0.07l0 0.11c-0.06,0.02 -0.09,-0.01 -0.1,0.05 -0.01,0.06 0.03,0.05 0.08,0.04 -0.09,0 -0.17,0.02 -0.27,0.02 -0.1,-0 -0.2,-0.02 -0.29,-0.02 0.01,0.07 0.04,0.05 0.04,0.04 0.01,-0 -0.01,-0.01 0.04,-0.01 -0.02,0.05 -0,0.01 -0.02,0.03 -0.03,0.03 -0.04,-0.02 -0.01,0.01l0.6 0c-0.05,-0.02 -0.02,-0 -0.07,-0.01 -0.12,-0.02 0.07,0.02 -0.03,-0 -0,-0 -0.01,-0 -0.01,-0l0.38 -0.03 0.01 -0.23z"/>
   <path class="fil9" d="M2.31 12.23l0.2 0.02 -0.01 0.07 -0.09 0.01c0.01,-0.03 0.01,-0.02 -0.03,-0.02 0,0.03 -0.01,0.02 0.03,0.02l-0.01 0.04c-0.13,0.02 -0.32,0.01 -0.45,-0 -0.09,-0.01 -0.09,0.02 -0.12,-0.04 0.06,-0.03 0.31,-0.02 0.4,-0.02 -0.02,-0.02 -0.01,-0.01 -0.05,-0.02 -0.03,-0.01 -0.02,-0 -0.05,-0l-0.25 0.01c-0.21,0.01 -0.44,-0.02 -0.65,-0.04l-0.25 -0.02c-0.04,-0.01 -0.02,-0.01 -0.04,-0.01l-0.02 -0.01c0.02,0.11 -0.04,0.12 0.31,0.16 0.3,0.03 1.05,0.11 1.29,0.07l0 -0.19 -0.21 -0.01z"/>
   <path class="fil3" d="M2.73 9.5c0.23,-0.08 0.26,-0.17 0.34,-0.36l-0.06 -0.02c-0.05,0.04 -0.06,0.06 -0.12,0.08 0,0.03 0.01,0.02 -0.02,0.01l-0.02 0.02 -0 0c0,0.03 0.01,0.02 -0.02,0.01l-0.03 0.02 0 0.01 -0.02 0.01 -0.03 0.01c-0.04,0.04 -0.18,0.09 -0.25,0.07 -0.08,-0.02 -0.18,-0.07 -0.24,-0.11l-0.02 -0.01c-0.03,0 -0.03,0.01 -0.03,-0.02 -0.03,-0.03 -0.04,-0.03 -0.07,-0.06 -0.03,-0.03 -0.03,-0.04 -0.06,-0.07l-0.08 0.06c0.09,0.09 0.05,0.17 0.22,0.27 0.05,0.03 0.09,0.06 0.15,0.09 0.1,0.04 0.1,0.03 0.16,0.1 0.05,-0.05 0.11,-0.08 0.2,-0.11 -0.17,-0.09 -0.07,-0.01 -0.17,-0.04 0.08,0.12 0.02,0.08 0.01,0.09 -0.05,-0.03 -0.03,-0.06 -0.03,-0.08 -0,-0 0,-0.01 -0,-0.01 0,-0 -0.01,-0.06 -0.01,-0.07 0.1,0.01 0.11,0 0.19,-0.03 0.15,-0.06 0,0.02 0.16,-0.08l0.04 0.03c-0.06,0.02 -0.04,0.02 -0.1,0.1l-0.05 -0.04c0.05,0.07 0.01,0.05 -0.03,0.08 -0.03,0.03 -0.02,0.01 -0.02,0.05zm-0.36 -0.03l-0.06 -0.05c0,0 0.01,-0.01 0,0l-0.01 0.01c-0,0 -0.01,0 -0.01,0.01 -0.06,-0.05 -0.08,-0.03 -0.06,-0.11 -0.05,-0.01 -0.02,-0.01 -0.07,0.01 0.01,-0.05 0.01,-0.03 0.05,-0.06 0.01,0.06 0.05,0.06 0.12,0.09 0.02,0.01 -0.02,0.01 0.06,0.01l-0.05 0.07c0.07,-0.03 0.04,0.03 0.04,-0.06 0.08,0.07 -0,0.03 0.04,0.03l0.04 0.06c-0.06,-0.01 -0.02,-0.02 -0.05,-0.02l-0.03 0.02zm-0.08 -0.11c-0.01,0 -0,0.05 0.01,0.04 0,-0 0.04,-0.04 -0.01,-0.04zm-0.07 -0.01c0,0.03 0.04,-0 0.01,-0 -0,0 -0,0 -0,0 -0,0 -0.01,-0.03 -0.01,0z"/>
   <path class="fil3" d="M2.42 8.34c-0,-0.12 0.01,-0.09 0.02,-0.11 0.04,0.03 0.03,0.03 0.06,0.07 -0.02,0.01 -0,0 -0.03,0.01l-0.05 0.02zm-0.07 0.03l-0.02 -0.09 0.07 -0c-0,0.05 0.01,0.01 -0.01,0.05 -0,0 -0.01,0.02 -0.01,0.02l-0.01 0.02c-0,0 -0.01,0.01 -0.01,0.01zm0.37 -0.01c-0.01,-0.01 -0.03,-0.02 -0.04,-0.02l-0.04 -0.02c0.05,-0.03 0.04,-0.05 0.09,-0.08l-0.01 0.12zm-0.16 -0.11c-0,0.01 0.02,0.03 0.01,-0 -0,-0.04 -0.01,-0.03 -0.01,0zm0.04 0.07l-0.02 -0.02c-0,-0 -0.01,-0.01 -0.02,-0.01 -0,-0 -0.01,0 -0.01,-0l-0.01 0c-0,0 -0.01,0 -0.01,0 -0,0 -0.01,0 -0.01,-0l0.01 -0.08c0.1,0 0.07,0.01 0.07,0.1zm-0.24 -0.13c-0.17,0.08 -0.09,0.03 -0.15,0.13 -0.05,0.09 -0.11,0.08 -0.04,0.2 0.05,-0.03 0.1,-0.08 0.17,-0.11 0.08,-0.03 0.15,-0.02 0.2,-0.08 0,0 0.01,0 0.01,0.01 0.01,0.02 0.06,0.04 0.08,0.04 0.16,0.04 0.19,0.1 0.29,0.17l0.03 -0.07c-0.02,-0.03 -0.02,-0.05 -0.04,-0.08 -0.01,-0.03 -0.04,-0.05 -0.05,-0.08 -0.05,-0.08 -0.05,-0.07 -0.14,-0.13 -0.04,-0.01 -0.19,-0.07 -0.19,-0.07 -0.03,-0 -0.13,0.05 -0.19,0.06z"/>
   <path class="fil8" d="M0.52 8.05c-0.05,0.34 -0.04,0.66 -0.05,1 -0,0.35 -0.04,0.69 0.09,0.97l-0.01 -1.95c-0.01,-0.04 0,-0.04 -0.03,-0.02z"/>
   <path class="fil10" d="M2.92 9.08l0.01 -0.1 -0.05 0.11c-0,-0 -0.01,0.01 -0.01,0.01l-0.01 -0.05 -0.06 0.08c0.04,-0.01 0.02,-0.01 0.05,-0.03 -0.01,0.04 -0.04,0.12 -0.07,0.15 -0.03,0.03 -0.01,0.02 -0.03,0l0.03 0.03 -0.03 0.01 0.03 -0.01 0.02 -0.01c-0.05,-0.07 -0.01,0.03 -0.02,-0.03 -0,-0.01 0,-0.01 0,-0.01 0.06,-0.02 0.02,-0.01 0.04,0.01 -0.03,-0 -0.03,-0.01 -0.03,0.02l0.03 -0.02c0.03,0 0.02,0.01 0.02,-0.01l0.04 -0.03 -0.02 0.01c-0.03,-0.01 -0.02,-0.01 -0.02,0.02l0.02 -0.02c0.03,0.01 0.02,0.01 0.02,-0.01 0.06,-0.03 0.07,-0.05 0.12,-0.08 -0.01,-0.03 0.01,-0 -0.02,-0 -0.11,0.01 0.07,0.03 -0.03,0.01 0.03,-0.02 0.02,-0.01 0.05,-0.04l0.05 -0.04c0,-0.01 0.01,-0.01 0.02,-0.01l0 0.1c-0.08,0.2 -0.12,0.28 -0.34,0.36l0 0c-0.08,0.03 -0.15,0.07 -0.2,0.11 -0.05,-0.07 -0.06,-0.06 -0.16,-0.1 -0.06,-0.02 -0.11,-0.06 -0.15,-0.09 -0.17,-0.1 -0.12,-0.18 -0.22,-0.27 -0,-0 -0.01,0.03 -0.02,-0.03l0.01 -0.02c0.03,-0.04 -0,-0.01 0.03,-0.02 -0.02,-0.12 0,-0.03 -0.03,-0.05 -0,0.11 -0,-0 -0.04,0.11 0,0 0.02,0.03 0.02,0.04 0.06,0.11 0.1,0.21 0.2,0.27 0.11,0.06 0.28,0.13 0.33,0.22 0.07,-0.04 0.09,-0.08 0.19,-0.12 0.22,-0.1 0.24,-0.11 0.34,-0.28 0.02,-0.03 0.05,-0.08 0.05,-0.11 0.02,-0.08 0,-0.05 -0.03,-0.12l0 -0.21 -0.02 -0.06c-0.02,-0.03 -0.03,-0.06 -0.04,-0.09 -0.06,-0.02 -0.06,0.05 -0.06,0.05l0.02 0.06c0,-0 0,0.01 0.01,0.01 0.02,-0.03 0.02,0.03 0.03,-0.06l-0.03 0.19c-0,-0 -0,-0.01 -0,-0.01l-0 -0.05c0.01,-0.08 -0.02,-0.01 0.02,-0.05l-0.02 -0.01c-0,-0 -0,-0 -0.01,-0 -0.03,-0.03 0.01,0.03 -0.01,-0.02 -0.01,-0.02 0.01,-0.02 -0.01,-0.04 0,-0.02 -0.02,-0.01 0.02,-0.04l-0.07 -0 0.01 0.03 0.01 0.01c0.03,0.08 0.06,0.09 0.02,0.21l0.02 0c0,-0 0.01,-0 0.01,-0l0.02 0.05c-0,0 -0.01,0 -0.01,0 -0,0 -0.01,0 -0.01,-0l-0.02 0c0.01,0.03 0.01,0.01 0.02,0.05 0,0 -0,0.04 -0,0.05 -0.01,0.01 -0.01,0.02 -0.01,0.02l-0.05 0.06c0,-0 0.01,-0.01 0.01,-0.01 0,-0 0,-0.01 0,-0.01 -0,-0 -0,-0.01 -0,-0.01 0,-0 -0,-0.01 -0,-0.01 -0,-0.01 -0.01,-0.04 0.01,-0.07z"/>
   <path class="fil2" d="M0.81 7.68c-0.01,-0.06 0.02,-0.02 0.02,-0.16l-0.03 -1.7c-0.03,-0.05 0,-0.02 -0.04,-0.04 -0,0.37 -0.06,1.66 0.05,1.91z"/>
   <path class="fil9" d="M1.55 4.96c0.08,0.02 0.1,0.01 0.1,0.12l-0.06 0.04c-0.04,0.01 -0.04,0.01 -0.08,0.02 -0.13,0.03 -0.11,0.06 -0.2,-0.02 -0.04,-0.04 -0.04,-0.03 -0.03,-0.11 0.02,-0.02 0.02,-0.01 0.04,-0.03 0.04,-0.04 -0.01,-0.01 0.05,-0.03 0.07,-0.02 0.13,0.01 0.18,0.02zm-0.33 0.23c0.09,0 0.18,0.02 0.29,0.02 0.09,0 0.17,-0.02 0.27,-0.02 -0.04,0.01 -0.09,0.02 -0.08,-0.04 0.01,-0.05 0.04,-0.03 0.1,-0.05l-0 -0.11c-0.06,-0.02 -0.07,0 -0.11,-0.07l-0 -0.07 -0.46 0.01c-0.03,0.09 -0.02,0.23 -0.01,0.33z"/>
   <path class="fil2" d="M0.53 2.82c0.01,-0.09 0.02,-0.13 -0.09,-0.11 -0.16,0.03 -0.37,0.13 -0.38,0.32 -0,-0 -0.06,-0.03 0.02,-0.02 0.05,0.01 0.01,-0.01 0.06,0.03 -0.05,0.02 -0.06,0.02 -0.06,0.09 0.1,0.01 0.17,-0.03 0.25,-0.06 0.09,-0.04 0.14,-0.03 0.14,-0.16 -0.04,0.01 -0.05,0.01 -0.09,0.02 -0,0 -0.01,0 -0.01,0 -0.06,0.01 -0.07,0.03 -0.14,0.06l-0.08 -0.01 0.38 -0.16z"/>
   <path class="fil8" d="M4.41 10.03c0.06,-0.11 0.05,-1.26 0.06,-1.55 0,-0.09 0.01,-0.19 0,-0.27l-0 -0.24c-0.11,0.03 -0.06,0.08 -0.06,0.19 0,0.08 -0,0.18 -0,0.27l-0 1.6z"/>
   <path class="fil0" d="M2.3 4.97c-0.02,0.02 -0.03,0.13 0.01,0.16 0.03,0.02 0.12,0.01 0.15,0.01 0.06,-0 0.12,-0 0.17,-0 0.11,0 0.18,0.03 0.18,-0.11 -0,-0.03 0.01,-0.01 -0.01,-0.04 -0.04,-0.08 -0.41,-0.05 -0.5,-0.02 -0,0 -0.01,0 -0.01,0z"/>
   <path class="fil9" d="M2.66 9.08l-0.02 0.01 -0.02 0.01c-0.04,-0.01 -0.01,-0.01 -0.02,0.02l-0.01 0.02c-0.03,-0 -0.02,-0.01 -0.02,0.02l0.03 -0 -0 -0.01c0.03,0 0.02,0.01 0.01,-0.02l0.02 -0.02 0.02 -0.01c0.03,0.01 0.02,0.01 0.02,-0.01 0,-0 0.01,-0.01 0.01,-0.01 0.01,0.03 0.01,-0.01 0.01,-0.02 0.01,-0.01 -0,-0.01 0.02,-0.02l0.01 0.02 0.02 -0.02 0.01 -0.51 -0.02 0 0 0.2c0,0.1 0.02,0.22 -0.01,0.3 -0.06,-0.06 -0.11,-0.01 -0.08,-0.33l0.04 0.01c0.02,-0.04 0.02,0.02 0.01,-0.07 -0.01,-0 -0.03,0 -0.04,0 -0.05,0.01 -0.01,0.01 -0.01,0.01 -0.01,-0.05 -0,-0.07 -0.05,-0.09l-0.02 -0.06c-0.07,0.05 -0.02,0.05 -0.06,0.08 -0.04,0.03 0.05,-0 -0.03,0.01 0.05,0.05 0.04,-0.03 0.06,0.03 0.01,0.03 -0.04,0.02 -0.05,0.02l-0.05 0.06 0.06 -0.01c0,0.07 0.02,0.19 -0.02,0.25l-0.04 0.07c0,-0 0.01,-0.01 0.01,-0.01 0,0 0.01,-0 0.02,-0.01l0.02 -0.01c-0,0.02 -0.02,0.04 -0.01,0.05 0,0.03 0,0.02 0.01,0.03 0.01,0.01 0.03,0.03 0.04,0.04 0.02,-0.05 0.01,-0.04 0.02,-0.1 0,0.11 0.01,0.09 0.04,0.11l0.01 -0.13c0.02,0.06 -0.03,0.07 0.06,0.11 0.01,-0.06 0.02,-0.05 -0.01,-0.1l0.04 0.07zm-0.17 0.05l-0.03 -0.02c0,0.03 -0.01,0.02 0.03,0.02zm-0.12 -0.1c0.01,-0.03 0.01,-0.02 -0.02,-0.02 0,0.03 -0.01,0.02 0.02,0.02 0.01,0.03 -0.03,0.02 0.03,0.02 0.04,0.01 0.03,0.01 0.01,-0.02l-0.04 -0z"/>
   <path class="fil8" d="M2.35 5.66c-0.01,0.17 -0.02,0.43 0.03,0.55 0.1,0.01 0.29,0.06 0.34,-0.05 0.03,-0.06 0.02,-0.42 0.01,-0.45 -0.02,-0.09 -0.06,-0.11 -0.15,-0.11 -0.14,-0 -0.13,-0.02 -0.22,0.06 0.06,0.02 0.01,-0.01 0.06,-0.01 0.04,-0 0.01,-0.01 0.03,0.03l0.19 0.01c0,0 0.01,0 0.01,0.01 0.02,-0.04 0.01,0.01 -0.01,-0.03 -0,-0 -0.01,-0.01 -0.01,-0.02l-0.01 -0.02c0.1,0.02 0.06,0.06 0.07,0.29 0,0.05 0.01,0.14 -0.01,0.19 -0.02,0.07 -0.05,0.06 -0.14,0.06 -0.16,0 -0.12,-0.02 -0.15,-0.04 -0.03,-0.02 -0.01,0.05 -0.02,-0.01l0.01 -0.35c-0.01,-0.08 0,-0.05 -0.04,-0.1z"/>
   <path class="fil3" d="M2.04 6.79c-0.04,-0.19 0.08,-0.26 0.12,-0.14 0.05,0.17 -0.08,0.28 -0.12,0.14zm-0 -0.26c-0.17,0.08 -0.1,0.49 0.11,0.39 0.18,-0.08 0.11,-0.49 -0.11,-0.39z"/>
   <path class="fil11" d="M2.22 11.84c0.12,0.01 0.57,0.03 0.67,-0.01l-0.02 0c0.07,-0.02 0.05,-0 0.04,-0.07 -0.08,-0.02 -0.61,-0.02 -0.7,0 -0.01,0.05 -0,0.05 0.02,0.08z"/>
   <path class="fil3" d="M2.1 7.59l0.05 0c0.03,-0.05 0.01,-0.14 0.02,-0.2 0.1,0.14 0.04,0.21 0.17,0.2l0 -0.37c-0.1,-0 -0.06,0.06 -0.07,0.17 -0.09,-0.07 -0.04,-0.18 -0.17,-0.17 -0.01,0.07 -0.02,0.31 0,0.36z"/>
   <path class="fil3" d="M3.29 6.65c0.03,0.03 0.03,0.06 0.03,0.12l-0.06 -0 0.03 -0.12zm-0.13 0.27c0.15,-0.01 -0.01,-0.1 0.14,-0.08 0.14,0.02 -0.04,0.09 0.15,0.07 -0.02,-0.09 -0.07,-0.33 -0.11,-0.4l-0.08 -0 -0.1 0.37c0,0.03 -0,0.02 0.01,0.04z"/>
   <path class="fil2" d="M3.74 0.33l0.07 0.05c0,0 0.01,0 0.01,0.01 -0,-0 -0.01,-0.02 -0.01,-0.01 -0.02,0.03 -0.01,-0.02 -0.02,-0.02l-0.03 -0.03c0.1,0.02 0.19,0.12 0.26,0.13 -0.01,-0.04 0.02,0 -0.03,-0.05l-0.05 -0.03 -0.02 -0.01c-0.04,-0.07 -0.19,-0.12 -0.27,-0.13 -0,0 -0.01,0.01 0,0.03l0.07 0.07zm0.22 0.03l0.03 0.02c0,-0.03 0.01,-0.03 -0.03,-0.02zm0.05 0.03l0.02 0.02c0,-0.03 0.01,-0.02 -0.02,-0.02zm0.17 0.18c-0.01,0.03 -0.02,0.03 0.01,0.02 0,0.03 -0.01,0.04 0.04,0.08 0,-0.03 0.01,-0.05 -0.02,-0.09l-0.02 0.01 -0.01 -0.02 -0.01 -0.03c-0.06,-0.03 -0.06,-0.08 -0.14,-0.1l0.01 0.02c0,0 0,0.01 0.01,0.01l0.08 0.08c0.05,0.03 0.01,0.02 0.06,0.02zm-0.08 -0.13l-0.03 -0.01 -0.02 -0.01 0.02 0.01 0.03 0.01c-0,0.03 -0.01,0.02 0.03,0.03 0,-0.04 0.01,-0.04 -0.03,-0.03zm0.12 0.12c-0,-0.03 0.01,-0.02 -0.03,-0.02l0.03 0.04 0 -0.01zm0.07 0.56c0.04,-0.04 0.02,-0.06 0.02,-0.13l-0.04 -0.33c-0.06,0.04 -0.02,0.07 -0,0.22 0.02,0.14 0.01,0.13 -0.01,0.22l0.03 0.02zm-0.4 -0.67c0.02,-0 0.02,-0.01 0.02,0.01 0.02,-0 0.02,-0.01 0.02,0.01 0.12,0.07 0.27,0.27 0.26,0.51 0.02,0.02 0.01,0.02 0.03,0.04l0.02 0.02c0,0 0.01,0.01 0.01,0.01 0,0 0.01,0 0.01,0.01 0,0 0.01,0 0.01,0.01 -0.01,-0.05 -0.09,-0.32 -0.15,-0.41 -0.04,-0.06 -0.07,-0.11 -0.12,-0.16l-0.1 -0.04zm-0.18 -0.16l-0.03 -0.02c-0,0.04 -0.01,0.03 0.03,0.02zm-0.04 -0.04l-0.03 -0.02c0,0.03 -0,0.02 0.03,0.02z"/>
   <path class="fil4" d="M1.28 5c-0.01,0.09 -0.01,0.08 0.03,0.11 0.08,0.08 0.07,0.04 0.2,0.02 0.04,-0.01 0.04,-0 0.08,-0.02l0.06 -0.04c-0,-0.11 -0.02,-0.1 -0.1,-0.12 -0.05,-0.01 -0.12,-0.04 -0.18,-0.02 -0.06,0.02 -0.01,-0 -0.05,0.03 -0.02,0.02 -0.01,0.01 -0.04,0.03z"/>
   <path class="fil3" d="M1.74 6.59l0.07 0.01c0.02,0.05 0.02,0.02 0,0.08l-0.08 0 0 -0.1zm-0.04 0.33c0.05,-0.02 0.03,0 0.04,-0.14 0.16,-0.03 0.21,-0.04 0.16,-0.23 -0.07,-0.05 -0.12,-0.04 -0.23,-0.04l-0 0.32c0.01,0.11 -0.01,0.06 0.04,0.08z"/>
   <path class="fil3" d="M2.97 6.8c-0.03,-0.02 -0.04,-0.03 -0.06,-0.02 -0.04,0.02 0.02,0.02 -0.06,0.05 -0.05,-0.02 -0.06,-0.04 -0.06,-0.12 -0,-0.08 0.01,-0.1 0.06,-0.13 0.1,0.04 0.01,0.09 0.12,0.04 -0.01,-0.17 -0.26,-0.18 -0.27,0.08 -0.01,0.26 0.24,0.29 0.27,0.1z"/>
   <path class="fil2" d="M4.57 2.82c0.1,0.05 0.41,0.15 0.45,0.2 -0.06,-0.18 -0.03,-0.16 -0.19,-0.24 -0.06,-0.03 -0.11,-0.05 -0.18,-0.06 -0.1,-0.02 -0.09,0.02 -0.08,0.11z"/>
   <path class="fil12" d="M2.57 8.58c0.04,-0.02 0.05,-0.01 0.08,-0.02 0.05,-0.02 -0,-0.01 0.05,-0.04 -0.01,-0.03 0,-0.02 -0.02,-0.03 -0.06,-0.02 -0.12,-0.05 -0.2,-0.04 -0.05,0.04 -0.08,0.03 -0.13,0.08 -0.01,0.01 -0.03,0.41 0.01,0.48l-0.01 -0.27c0.07,0.06 0.01,0.11 0.05,0.14l-0.02 -0.16c0.03,-0.01 0.02,-0.01 0.04,-0l0.05 -0.06c0.01,-0 0.05,0.01 0.05,-0.02 -0.02,-0.06 -0,0.02 -0.06,-0.03 0.08,-0.01 -0.01,0.02 0.03,-0.01 0.04,-0.03 -0.01,-0.03 0.06,-0.08l0.02 0.06z"/>
   <path class="fil6" d="M4.43 11.57c-0.03,-0.07 -0.05,-0.05 -0.1,-0.1 -0.04,-0.04 -0.04,-0.07 -0.08,-0.11l-0.01 0.03c-0.03,-0.04 -0.08,-0.11 -0.15,-0.08 0.07,0.03 0.11,0.06 0.15,0.1 0.01,0.22 -0.02,0.27 0.09,0.42 0.02,-0.02 0.03,0.01 0.06,-0.12 0.01,-0.05 0.01,-0.1 0.04,-0.14z"/>
   <path class="fil3" d="M3.53 7.45c-0.04,-0.02 -0.04,0.03 -0.03,-0.06 0,-0.02 0.02,-0.06 0.02,-0.07l0.03 0.13 -0.03 0zm-0.13 0.13c0.13,0.03 0.01,-0.09 0.15,-0.06 0.04,0.01 0.03,0.06 0.08,0.07 0.02,0 0.02,0 0.04,-0l-0.07 -0.29c-0.02,-0.08 0,-0.06 -0.06,-0.07 -0.04,0.01 -0.02,-0.01 -0.05,0.03l-0.04 0.15c-0.02,0.06 -0.03,0.12 -0.05,0.19z"/>
   <path class="fil13" d="M2.04 8.71l0 0c0.02,0.03 0.02,-0.03 0.01,0.06l-0.03 -0.03 -0 0.02c0.06,0.09 -0.07,0.23 0.08,0.32l0.12 0.12c0.02,0.04 0.06,0.01 -0,0.04 0,0.03 -0.01,0.02 0.03,0.02l0.02 0.01 -0.02 -0.01 0.01 -0.05 -0.13 -0.2c-0.04,-0.11 0.02,-0.3 0.05,-0.34 0.03,-0.04 0.05,-0.04 0.08,-0.12l-0.14 0.09c-0,-0.01 -0.01,-0.01 -0.01,-0.01l-0.03 0.09 -0.03 -0.02z"/>
   <path class="fil6" d="M4.4 5.3c0.01,0.08 0.01,0.05 -0,0.13l0 0.18c0.03,-0.01 0.03,-0 0.06,-0.05 0.02,-0.03 0.01,-0.03 0.04,-0.07 -0,-0.06 0,-0.13 0,-0.19 0,-0.02 -0,-0.08 -0,-0.09 -0.01,-0.08 -0.01,-0.02 -0.03,-0.08 -0.02,-0.07 -0,-0.3 -0,-0.39 -0.05,0.07 0.02,0.21 -0.08,0.56z"/>
   <path class="fil9" d="M3.52 4.97c0.08,-0.01 0.02,-0.03 0.23,-0.03l0 0.18c-0.08,0 -0.16,0.01 -0.23,-0.03l0 -0.12zm0.01 -0.05c-0.02,0.06 -0,0.03 -0.09,0.07 -0,0 -0.01,0 -0.02,0.01l0 0.11c0.05,0.02 0.09,0.04 0.14,0.05 0.09,0.02 0.19,0.02 0.24,-0.06 0.05,-0.08 -0.02,-0.13 -0.02,-0.13 -0,-0.01 0.02,-0.04 0,-0.09 -0.12,-0.04 -0.1,0.02 -0.16,0.03 -0.01,0 -0.08,-0 -0.09,-0z"/>
   <path class="fil5" d="M0.6 5.12l0.02 -0.05c-0,-0.11 0.01,-0.38 -0.02,-0.45 -0.03,0.01 -0.03,0.02 -0.02,-0.01 -0.04,0.02 -0.03,0.01 -0.05,0.03 -0.03,0.11 -0.03,0.42 0,0.52 0.05,-0.02 0.04,0.04 0.06,-0.05 0.01,-0.04 -0.01,-0.06 -0.01,-0.09 0,0 0.01,0.01 0.01,0.01 0,0.01 0,0.01 0.01,0.01l0.01 0.09z"/>
   <path class="fil3" d="M1.57 7.52c-0.08,-0.04 -0.09,-0.19 0,-0.23 0.05,0.02 0.07,0.08 0.1,0.03 0.05,-0.09 -0.23,-0.22 -0.24,0.08 -0,0.11 0.05,0.23 0.17,0.18 0.05,-0.02 0.09,-0.1 0.04,-0.11 -0.04,-0.01 -0.03,0.02 -0.08,0.05z"/>
   <path class="fil3" d="M3.38 7.49c-0.15,-0.05 0.01,0.03 -0.14,0.03 -0.03,-0.07 -0.05,-0.17 0.02,-0.22 0.1,0.03 0.01,0.07 0.1,0.04 0,-0 0.06,-0.02 -0.01,-0.09 -0.06,-0.06 -0.2,-0.03 -0.21,0.16 -0,0.21 0.19,0.28 0.25,0.08z"/>
   <path class="fil2" d="M4.99 3.14c0.01,-0.04 0.02,-0.06 -0.02,-0.09 -0.02,-0.02 -0.07,-0.04 -0.11,-0.06 -0.08,-0.03 -0.17,-0.07 -0.25,-0.09 -0.04,0.1 -0,0.1 0.11,0.15 0.07,0.03 0.19,0.08 0.27,0.09z"/>
   <path class="fil6" d="M0.57 5.25l-0 0.26c0.03,0.06 0.05,0.08 0.09,0.12 0.02,-0.05 0.03,-0.17 0.01,-0.23 -0.01,-0.04 -0.07,-0.11 -0.1,-0.15zm0.11 -0.02c-0.02,-0.02 -0.01,0 -0.03,-0.04 -0,-0.01 -0.01,-0.03 -0.01,-0.04 -0.01,-0.04 -0.01,-0.04 -0.02,-0.07l-0.02 0.05c-0.02,0.05 -0.03,0.04 -0.03,0.1 0.03,0.05 0.04,0.1 0.11,0.13l0 -0.12z"/>
   <path class="fil3" d="M1.93 7.44l0.09 0 -0 -0.06 -0.11 -0.01 0 -0.07c0.04,-0.01 0.04,-0 0.08,-0.01 0.07,-0.01 0.02,0.01 0.05,-0.02 -0.02,-0.05 0.02,-0.04 -0.19,-0.03l-0 0.36c0.23,0.01 0.17,0.01 0.19,-0.04l-0.07 -0.02c-0.01,-0 -0.04,0 -0.05,-0 -0.01,-0.03 -0.01,-0.02 -0.01,-0.05 0.01,-0.04 0,-0.01 0.02,-0.03z"/>
   <path class="fil3" d="M2.3 6.91c0.06,0.01 0.18,0.02 0.22,-0.01 0,-0.08 -0.01,-0.06 -0.05,-0.06 -0.01,-0 -0.07,0 -0.08,0l-0 -0.31 -0.08 -0 -0 0.39z"/>
   <path class="fil0" d="M2.42 8.72c-0.02,-0 -0.02,-0.01 -0.04,0l0.02 0.16c-0.04,-0.03 0.02,-0.07 -0.05,-0.14l0.01 0.27 0 0c0.03,0 0.03,-0.01 0.02,0.02l0.04 0c0.02,0.04 0.03,0.04 -0.01,0.02 0.02,0.04 0.02,0.04 0.06,0.06l0.03 0.02c0.04,0.03 0.02,0.03 0.06,0.03 0,-0.03 -0.01,-0.02 0.02,-0.02l0.01 -0.02c0.01,-0.03 -0.02,-0.04 0.02,-0.02l0.02 -0.01 0.02 -0.01 -0.04 -0.07c0.03,0.06 0.02,0.05 0.01,0.1 -0.09,-0.04 -0.04,-0.05 -0.06,-0.11l-0.01 0.13c-0.03,-0.02 -0.04,-0 -0.04,-0.11 -0,0.06 0.01,0.05 -0.02,0.1 -0.01,-0.01 -0.03,-0.03 -0.04,-0.04 -0.01,-0.01 -0.01,0 -0.01,-0.03 -0,-0.01 0.01,-0.03 0.01,-0.05l-0.02 0.01c-0.01,0.01 -0.02,0.01 -0.02,0.01 -0,-0 -0.01,0 -0.01,0.01l0.04 -0.07c0.04,-0.06 0.02,-0.18 0.02,-0.25l-0.06 0.01z"/>
   <path class="fil3" d="M2.78 7.59l0.07 -0 0.01 -0.14 0.09 0 0.01 -0.07 -0.1 -0.01 0 -0.07c0.05,-0.01 0.08,0 0.12,-0.02l-0 -0.05 -0.18 -0.01 -0.01 0.37z"/>
   <path class="fil12" d="M2.73 8.2c0.08,0.05 0.09,0.05 0.14,0.13 0.01,0.02 0.04,0.05 0.05,0.08 0.02,0.03 0.02,0.05 0.04,0.08l-0.03 0.07 0.02 0.03 0 -0.1 0.08 -0.17c-0.11,-0.18 -0.1,-0.16 -0.3,-0.12z"/>
   <path class="fil1" d="M2.42 12.33c-0.03,0.01 -0.03,0.01 -0.03,-0.02l-0.16 -0.01c-0.09,0 -0.34,-0.01 -0.4,0.02 0.03,0.06 0.03,0.03 0.12,0.04 0.13,0.02 0.32,0.02 0.45,0l0.01 -0.04z"/>
   <path class="fil2" d="M4.4 12.16l-0.17 0.06 0 -0.04c-0.01,0.02 -0.05,0.02 -0.01,0.09 0,0 0.01,0.01 0.01,0.01 0,-0 0.01,0.01 0.01,0.01 -0.06,0.01 -0.05,-0.03 -0.1,0.14 0.19,-0.04 0.27,-0.05 0.3,-0.25 -0.04,0.05 -0.08,0.08 -0.14,0.09 -0.01,0 -0.06,0.01 -0.07,0.01 0,-0 0.01,-0.01 0.01,-0.01 0,-0 0.01,-0.01 0.01,-0.01 0,-0 0.01,-0.01 0.01,-0.01l0.06 -0.04c0.07,-0.04 0.03,-0 0.07,-0.06z"/>
   <path class="fil4" d="M3.52 4.97l-0 0.12c0.07,0.04 0.15,0.03 0.23,0.03l0 -0.18c-0.2,0 -0.15,0.02 -0.23,0.03z"/>
   <path class="fil14" d="M2.15 4.99l0.01 -0.14 -0.31 0c-0.03,0.04 0.04,0.03 -0.03,0.03 0.13,-0.01 -0.1,0.11 0.34,0.1z"/>
   <path class="fil3" d="M2.38 7.22c-0.01,0.14 0.06,0.02 0.08,0.1l0 0.26 0.07 0 0 -0.28c0.08,-0.04 0.08,0.04 0.07,-0.08l-0.23 -0.01z"/>
   <path class="fil1" d="M2.69 12.29c-0,0.07 0.01,0.06 0.08,0.07 0.05,0 0.11,-0 0.16,-0 0.08,-0 0.2,-0 0.25,-0.05 -0.02,-0.04 -0.02,-0.03 -0.09,-0.03 -0.04,-0 -0.09,-0 -0.13,-0 -0.08,0 -0.16,0.01 -0.24,0 -0.01,0.02 0.02,0.02 -0.04,0.02z"/>
   <path class="fil2" d="M0.87 12.22c-0.07,-0 -0.11,-0.02 -0.16,-0.06l-0.03 -0.04c0.03,0.07 0.05,0.06 0.09,0.1l0.02 0.03c-0.09,0 -0.05,-0.02 -0.13,-0.05 0.03,0.17 0.14,0.2 0.3,0.22l-0.03 -0.12 -0.14 -0.03c0.04,-0.02 0.01,-0.02 0.08,-0.02l0.02 -0.04z"/>
   <path class="fil3" d="M2.58 6.92l0.05 0c0.05,-0.06 0.03,-0.33 0.02,-0.4l-0.07 0c-0.04,0.07 -0.01,0.37 -0.01,0.38 0,0 0,0.01 0,0.01 0,0 0,0.01 0,0.01z"/>
   <path class="fil15" d="M2.17 8.53c-0.07,-0.12 -0.02,-0.11 0.04,-0.2 0.06,-0.1 -0.02,-0.05 0.15,-0.13 -0.07,0.01 -0.13,-0 -0.19,-0.02l-0.11 0.15c0.05,0.07 0.07,0.15 0.08,0.23l0.04 -0.03z"/>
   <path class="fil15" d="M2.73 9.5l-0 -0c-0,-0.04 -0.01,-0.02 0.02,-0.05 0.03,-0.04 0.08,-0.02 0.03,-0.08l0.05 0.04c0.06,-0.07 0.05,-0.07 0.1,-0.1l-0.04 -0.03c-0.16,0.1 -0.01,0.02 -0.16,0.08 -0.09,0.04 -0.09,0.04 -0.19,0.03 0,0.01 0.01,0.07 0.01,0.07 0,0 0,0.01 0,0.01 0,0.02 -0.02,0.05 0.03,0.08 0.01,-0.01 0.08,0.03 -0.01,-0.09 0.1,0.03 -0,-0.06 0.17,0.04z"/>
   <path class="fil3" d="M3.04 6.92l0.07 0 -0 -0.4 -0.07 0c-0.02,0.04 -0.01,0.13 -0.01,0.19l0.01 0.21z"/>
   <path class="fil16" d="M2.92 9.08c0.03,0.06 -0.01,0.02 0.05,0.03 0,-0.01 0,-0.04 0,-0.05 -0,-0.03 -0,-0.02 -0.02,-0.05l0.02 0c0,0 0.01,0 0.01,0 0,0 0,0 0.01,-0l-0.02 -0.05c-0,0 -0.01,0 -0.01,0l-0.02 0c0.04,-0.12 0.01,-0.13 -0.02,-0.21l-0.01 -0.01 -0.01 -0.03c0,-0.04 -0.02,0 0.03,-0.02l0.02 -0.01c-0.03,-0 -0.04,0.05 -0.02,-0.04 -0.04,0.04 -0.04,0.05 -0.05,0.02 -0.03,0.03 -0.03,-0.04 -0.03,0.04l0.02 0.07c-0.01,0.11 0.01,0.16 -0.03,0.27l0.01 0.05c0,-0 0.01,-0.01 0.01,-0.01l0.05 -0.11 -0.01 0.1zm0.05 -0.34l0.01 -0.01c-0.04,0.03 -0.01,0.02 -0.02,0.04 0.02,0.02 0.01,0.02 0.01,0.04 0.01,0.05 -0.02,-0.01 0.01,0.02 0,0 0,0 0.01,0l0.02 0.01c-0.04,0.03 -0.01,-0.04 -0.02,0.05l0 0.05c0,0 0,0.01 0,0.01l0.03 -0.19c-0.01,0.09 -0,0.02 -0.03,0.06 -0,-0 -0.01,-0.02 -0.01,-0.01l-0.02 -0.06z"/>
   <path class="fil11" d="M4.41 11.94c0.02,0.02 0.02,-0.01 0.01,0.03 -0.01,0.04 -0,0.01 -0.02,0.02 0.01,0.03 0.02,0.03 -0.01,0.02 0.01,0.03 0.02,0.03 -0.02,0.01 -0.03,0.05 -0.09,0.06 -0.14,0.08 -0.01,0.1 0.01,0.08 0.01,0.08 0.07,-0.02 0.13,-0.05 0.18,-0.08l0.01 -0 0.03 -0.06c0.02,-0.09 0.03,-0.18 0,-0.26 -0.03,0.05 -0.03,0.1 -0.05,0.16zm-0.08 0.09c0.02,0.01 0.02,0.01 0.01,-0.01l-0.01 0.01zm0.06 -0.06c0.03,0 0.02,0.01 0.02,-0.02l-0.02 0.02z"/>
   <path class="fil0" d="M2.7 9.04c0.03,-0.09 0.02,-0.21 0.01,-0.3 -0.01,0.01 -0.01,0.02 -0.01,0.01 -0,-0 -0.01,0 -0.02,0.01l-0.03 -0.03 -0.04 -0.01c-0.03,0.31 0.02,0.27 0.08,0.33z"/>
   <path class="fil0" d="M2.04 6.79c0.03,0.14 0.17,0.03 0.12,-0.14 -0.04,-0.12 -0.16,-0.04 -0.12,0.14z"/>
   <path class="fil3" d="M3.02 7.28c0,0.08 -0.03,0.26 0.02,0.31 0.08,-0.01 0.05,0.02 0.05,-0.2 0,-0.23 0.01,-0.14 -0.04,-0.16 -0.05,0.02 -0.03,0 -0.04,0.05z"/>
   <path class="fil3" d="M1.72 7.59l0.08 0c0.01,-0.08 0,-0.16 0,-0.23 0,-0.1 0.03,-0.14 -0.08,-0.13l-0 0.36z"/>
   <path class="fil3" d="M2.69 7.59c0.04,-0.02 0.04,0.04 0.04,-0.17 -0,-0.13 0.02,-0.17 -0.04,-0.2 -0.06,0.02 -0.04,-0.07 -0.04,0.18 -0,0.2 -0.02,0.17 0.04,0.19z"/>
   <path class="fil15" d="M2.37 9.26c0.06,0.03 0.06,0.04 0.14,0.02l0.01 0.04c0.12,0 0.14,-0.04 0.21,-0.09l0.01 -0.02c-0.07,-0 -0.14,-0 -0.21,-0 -0.03,-0 -0.07,-0.01 -0.1,-0 -0.07,0.01 -0.06,0 -0.06,0.05z"/>
   <path class="fil11" d="M0.68 11.95c-0.01,-0.04 -0.02,-0.07 -0.03,-0.1l-0.01 0.03c-0.01,-0.05 -0.01,-0.07 -0.03,-0.11l0.06 0.35 0 -0.03c0.05,0.06 0.11,0.05 0.19,0.1 0,-0.12 -0.02,-0.09 -0.11,-0.14 -0.07,-0.03 -0.09,-0.05 -0.1,-0.14 0,0.07 0,0.01 0.02,0.04zm-0 0.01c0.01,0.03 -0,0.01 0.02,0.03 0.02,0.02 0.02,0.02 0.03,0.03l-0.05 -0.06zm-0.04 -0.18c-0.01,0.06 -0.01,0.02 0.01,0.03l-0.01 -0.03z"/>
   <path class="fil9" d="M1.93 7.44c-0.02,0.02 -0.01,-0.01 -0.02,0.03 -0,0.04 -0,0.02 0.01,0.05 0.02,0 0.04,-0 0.05,0l0.07 0.02c-0.02,0.05 0.04,0.04 -0.19,0.04l0 -0.36c0.22,-0.01 0.17,-0.01 0.19,0.03 -0.03,0.04 0.01,0.02 -0.05,0.02 -0.03,0 -0.04,-0 -0.08,0.01l0 0.07 0.11 0.01 0 0.06c0,-0 0.01,-0.01 0.01,-0.01 0,0 0.01,-0 0,-0.06 -0.05,-0.03 -0.06,0 -0.11,-0.03 0.02,-0.06 -0.03,-0.02 0.05,-0.04 0.04,-0.01 0.03,0.01 0.08,-0.01l0.01 -0.06c-0.06,-0.03 -0.16,-0.03 -0.22,-0.01 -0.01,0.06 -0.02,0.32 0.01,0.37l0.16 0.01c0.09,-0.02 0.02,-0 0.05,-0.03 -0,-0.1 -0.03,-0.08 -0.13,-0.08l-0 -0.06z"/>
   <path class="fil9" d="M4.52 5l0.02 0.02c0.03,-0.05 0.02,-0.24 0.01,-0.32 -0.01,-0.11 -0.01,-0.07 -0.04,-0.09 -0.05,0.07 -0.01,0.08 -0.01,0.14 0,0.08 -0.03,0.19 0.01,0.26l-0 -0.26c0.03,0.07 0.01,0.17 0.01,0.25z"/>
   <path class="fil13" d="M2.73 9.04l-0.02 0.02 -0.01 -0.02c-0.03,0.01 -0.02,0.01 -0.02,0.02 -0,0 -0,0.04 -0.01,0.02 -0,-0 -0,0.01 -0.01,0.01 0,0.03 0.01,0.02 -0.02,0.01l-0.02 0.01 -0.02 0.02c0.01,0.03 0.01,0.02 -0.01,0.02l0 0.01c0.05,0.03 0.11,0.03 0.17,0.03l-0.02 0.02 -0.01 0.02c0.04,-0.03 0.02,-0.02 0.06,-0.06 -0.04,0.01 -0,0.02 -0.04,-0.01 0.03,-0.02 -0.01,0.02 0.02,-0.02 0,-0 0.01,-0.03 0.02,-0.03 0.01,-0.03 0.02,-0.04 0.02,-0.08l-0.07 0.01z"/>
   <path class="fil14" d="M1.2 4.85c0.06,-0.01 0.05,-0.02 0.12,-0.03 -0.02,-0.09 -0,-0.15 -0.1,-0.15 -0.06,0.08 -0.02,0.09 -0.02,0.19z"/>
   <path class="fil14" d="M1.54 11c0.02,-0.17 0,-0.27 0.01,-0.31 0.01,-0.08 0.04,-0.06 -0.04,-0.09 -0.04,0.07 0.02,0.03 -0.01,0.2l0.01 0.16c0.02,0.07 0,0.01 0.03,0.04z"/>
   <path class="fil8" d="M2.57 8.58c0.05,0.02 0.05,0.03 0.05,0.09 0,0 -0.04,0 0.01,-0.01 0.01,-0 0.03,-0 0.04,-0 0,0.08 0.01,0.03 -0.01,0.07l0.03 0.03c0.01,-0 0.02,-0.01 0.02,-0.01 0,0 0,-0 0.01,-0.01l-0 -0.2 0.01 -0.02 -0.02 0.01c-0.05,0.03 0,0.01 -0.05,0.04 -0.04,0.02 -0.04,0 -0.08,0.02z"/>
   <path class="fil15" d="M2.3 9.39c-0.01,0.01 -0.01,-0.03 -0.01,-0.04 0.05,-0.01 0.01,0.03 0.01,0.04zm-0.07 -0.04c-0,-0.04 0.01,-0 0.01,-0 0,0 0,0 0,0 0.03,-0 -0.01,0.04 -0.01,0zm0.18 0.1c0.03,0 -0,0.01 0.05,0.02l-0.04 -0.06c-0.04,-0 0.05,0.04 -0.04,-0.03 0,0.08 0.03,0.03 -0.04,0.06l0.05 -0.07c-0.08,0.01 -0.04,0.01 -0.06,-0.01 -0.07,-0.03 -0.11,-0.03 -0.12,-0.09 -0.04,0.03 -0.04,0.01 -0.05,0.06 0.04,-0.02 0.01,-0.01 0.07,-0.01 -0.02,0.08 0,0.06 0.06,0.11 0,-0 0.01,-0.01 0.01,-0.01l0.01 -0.01c0.01,-0.01 0,-0 0,-0l0.06 0.05 0.03 -0.02z"/>
   <path class="fil0" d="M1.73 6.7l0.08 -0c0.02,-0.06 0.02,-0.04 -0,-0.08l-0.07 -0.01 -0 0.1z"/>
   <path class="fil9" d="M0.67 12.12l-0 0.01 0.03 0.04c0.05,0.04 0.1,0.05 0.16,0.06l-0 -0.03c-0.09,-0.05 -0.15,-0.04 -0.19,-0.1l-0 0.03z"/>
   <polygon class="fil0" points="0.66,8.15 0.66,7.99 0.61,7.97 0.61,8.11 "/>
   <path class="fil9" d="M4.24 12.18l-0.01 0 -0 0.04 0.17 -0.06 0.03 -0.06 -0.01 0c-0.05,0.03 -0.11,0.06 -0.18,0.08z"/>
   <path class="fil9" d="M2.72 8.24c-0.05,0.03 -0.05,0.04 -0.09,0.08l0.04 0.02c0.01,0.01 0.03,0.02 0.04,0.02l0.01 -0.12z"/>
   <path class="fil8" d="M2.56 8.26c0,-0.03 0.01,-0.04 0.01,-0 0,0.03 -0.02,0.02 -0.01,0zm0.04 0.07c-0,-0.09 0.03,-0.1 -0.07,-0.1l-0.01 0.08c0,0 0.01,0 0.01,0 0,0 0.01,0 0.01,0l0.01 -0c0,0 0.01,0 0.01,0 0,0 0.01,0.01 0.02,0.01l0.02 0.02z"/>
   <path class="fil12" d="M2.49 8.31c-0.03,-0.04 -0.02,-0.04 -0.06,-0.07 -0.01,0.02 -0.03,-0.01 -0.02,0.11l0.05 -0.02c0.03,-0.01 0.01,-0 0.03,-0.01z"/>
   <path class="fil8" d="M3.53 7.45l0.03 0 -0.03 -0.13c-0.01,0.01 -0.02,0.05 -0.02,0.07 -0.01,0.09 -0.01,0.04 0.03,0.06z"/>
   <path class="fil0" d="M3.26 6.76l0.06 0c-0,-0.06 -0.01,-0.09 -0.03,-0.12l-0.03 0.12z"/>
   <path class="fil3" d="M2.58 6.49c0.07,-0.01 0.07,-0.02 0.09,-0.08 -0.08,-0 -0.07,0 -0.09,0.08z"/>
   <path class="fil17" d="M2.66 7.2c0.06,-0 0.07,-0.02 0.09,-0.08 -0.06,-0.02 -0.07,0.02 -0.09,0.08z"/>
   <path class="fil8" d="M2.34 8.37c0,-0 0.01,-0.01 0.01,-0.01l0.01 -0.02c0,-0 0.01,-0.01 0.01,-0.02 0.02,-0.04 0.01,0 0.01,-0.05l-0.07 0 0.02 0.09z"/>
   <path class="fil14" d="M1.94 1.54c-0,0.01 -0.03,-0 -0,0.05 0.01,0.01 0.02,0.01 0.03,0.02 0.03,-0.03 0.03,0 0.01,-0.07l-0.05 -0z"/>
   <path class="fil14" d="M3.13 1.61c0.02,-0.01 0.03,0.01 0.03,-0.04 -0,-0.02 -0.01,-0.03 -0.04,-0.03 -0.06,0.01 -0.02,0.05 0.01,0.07z"/>
  </g>
 </g>
</svg>
