<?xml version="1.0" encoding="UTF-8"?>
<!DOCTYPE svg PUBLIC "-//W3C//DTD SVG 1.1//EN" "http://www.w3.org/Graphics/SVG/1.1/DTD/svg11.dtd">
<!-- Creator: CorelDRAW -->
<svg xmlns="http://www.w3.org/2000/svg" xml:space="preserve" width="1.9916mm" height="4.7mm" version="1.1" style="shape-rendering:geometricPrecision; text-rendering:geometricPrecision; image-rendering:optimizeQuality; fill-rule:evenodd; clip-rule:evenodd"
viewBox="0 0 6.8 16.05"
 xmlns:xlink="http://www.w3.org/1999/xlink"
 xmlns:xodm="http://www.corel.com/coreldraw/odm/2003">
 <defs>
  <style type="text/css">
   <![CDATA[
    .fil19 {fill:black}
    .fil5 {fill:#0770CF}
    .fil14 {fill:#08325B}
    .fil10 {fill:#0B5396}
    .fil0 {fill:#101010}
    .fil12 {fill:#188DEE}
    .fil13 {fill:#239348}
    .fil3 {fill:#343433}
    .fil18 {fill:#3E9FCC}
    .fil16 {fill:#636363}
    .fil9 {fill:#6A7B85}
    .fil11 {fill:#710C09}
    .fil20 {fill:#927749}
    .fil15 {fill:#A65C16}
    .fil6 {fill:#ACACAC}
    .fil7 {fill:#B11510}
    .fil2 {fill:#C69E4E}
    .fil4 {fill:#D8241B}
    .fil17 {fill:#E15D1C}
    .fil1 {fill:#E5E5E5}
    .fil8 {fill:#F5CE32}
    .fil21 {fill:url(#id0)}
   ]]>
  </style>
  <linearGradient id="id0" gradientUnits="userSpaceOnUse" x1="1.36" y1="6.26" x2="5.39" y2="6.26">
   <stop offset="0" style="stop-opacity:1; stop-color:#141414"/>
   <stop offset="0.509804" style="stop-opacity:1; stop-color:#141414"/>
   <stop offset="0.658824" style="stop-opacity:1; stop-color:#EDEEEF"/>
   <stop offset="0.8" style="stop-opacity:1; stop-color:#5A5858"/>
   <stop offset="1" style="stop-opacity:1; stop-color:#141414"/>
  </linearGradient>
 </defs>
 <g id="Camada_x0020_1">
  <metadata id="CorelCorpID_0Corel-Layer"/>
  <g id="_1765057006640">
   <path class="fil0" d="M4.43 15.77c-0.07,0 -0.13,0.01 -0.2,0.01 -0.11,0 -0.11,0 -0.11,-0.09 0.14,-0.04 0.18,0.04 0.35,-0.04 0.02,0.11 0.01,0.05 -0.02,0.08l-0.02 0.01c-0.08,0.03 0.01,-0.03 -0.01,0.02zm-1.24 -15.77l0.4 0c0.15,0 0.28,0.01 0.36,0.02 0.12,0.01 0.01,0 0.09,0.03 0.15,0.04 0.61,0.02 0.91,0.17 0.34,0.17 0.76,0.35 0.95,0.67 0.15,0.24 0.2,0.5 0.27,0.81 0.05,0.23 0.11,1.24 0.07,1.53 -0.02,0.16 0,0.37 -0.01,0.54 -0.02,0.31 -0.1,0.63 -0.1,0.72l0 1.34c0.27,0.06 0.66,0.18 0.66,0.5 0,0.19 -0.14,0.12 -0.37,0.05 -0.39,-0.11 -0.31,-0.23 -0.31,0.69 0,0.09 0.03,0.11 0.04,0.2 0.06,0.35 -0.04,0.53 -0.04,0.64l0 0.76c0,0.1 0.12,0.26 0.03,0.65 -0.03,0.13 -0.02,0.41 -0.01,0.55 0.01,0.1 0.02,0.15 0.02,0.28 -0,0.33 0.04,0.65 0.04,0.86l0.01 0.59c-0.04,0.23 0.04,0.85 -0.07,1.43 -0.08,0.42 -0.04,1.29 -0.12,1.71 -0.07,0.33 -0.12,0.31 -0.23,0.67 -0.1,0.32 -0.12,0.4 -0.42,0.48 -0.14,0.04 -0.36,0.07 -0.52,0.08l-0.83 0.06 -0.93 0c-0.43,-0.01 -0.88,-0.03 -1.18,-0.07 -0.97,-0.13 -0.68,-0.26 -0.92,-0.76 -0.13,-0.27 -0.15,-0.27 -0.19,-0.63 -0.05,-0.43 -0.02,-1.19 -0.11,-1.56 -0.1,-0.44 -0.07,-1.43 -0.07,-1.89l0.08 -1.71c0,-0.09 -0.04,-0.09 -0.04,-0.2l0 -0.3c0,-0.13 0.04,-0.15 0.04,-0.28l0 -0.74c0,-0.13 -0.04,-0.15 -0.04,-0.28 0,-0.42 0.02,-0.3 0.04,-0.5l0 -0.82c-0.09,0.04 -0.5,0.16 -0.62,0.16 -0.02,0 -0.05,-0.04 -0.06,-0.1l0 -0.08c0.01,-0.09 0.08,-0.2 0.25,-0.29 0.12,-0.06 0.3,-0.12 0.43,-0.15 0,-0.13 0,-0.25 0,-0.38 0,-0.15 -0.02,-0.24 -0.02,-0.36 -0,-0.2 0.02,-0.57 -0.01,-0.73 -0.07,-0.29 -0.1,-0.7 -0.11,-1.02l0 -0.46c0,-0.47 0.01,-0.91 0.11,-1.3 0.09,-0.37 0.19,-0.73 0.45,-0.93l0.44 -0.26c0.52,-0.28 0.44,-0.24 1.09,-0.32 0.03,-0 0.11,-0.02 0.15,-0.03 0.09,-0.03 0.24,-0.04 0.42,-0.05zm-0.8 15.71c0.07,-0.03 0.28,-0.03 0.35,-0.01 -0.02,0.09 -0.08,0.09 -0.26,0.07 -0.14,-0.02 -0.06,-0.01 -0.09,-0.06zm0.77 -0.08c0.05,-0.04 0.42,-0.03 0.43,-0.02 0.09,0.01 0.03,-0 0.06,0.02 -0.01,0.09 0.04,0.06 -0.08,0.08l-0.31 0c-0.12,-0.01 -0.09,-0 -0.11,-0.08zm-2.16 -0.73c0.07,0.09 0.13,0.54 0.15,0.67 -0.11,-0.2 -0.16,-0.43 -0.15,-0.67zm4.66 0.67c0.01,-0.05 0.04,-0.16 0.06,-0.26l0.07 -0.3c-0,0.36 -0.04,0.31 -0.13,0.56zm-3.72 -3.57c0.07,-0.01 0.12,-0.01 0.15,-0.04l0 3.42c0.07,-0.04 0.04,-0.32 0.04,-0.43l0 -2.95c0.01,-0.11 -0.01,-0.02 0.03,-0.08 0,-0.01 0.01,-0.01 0.02,-0.03 0.03,-0.09 0.02,0.01 -0,-0.03 0.03,0.14 0.01,0.7 0.01,0.88l-0 2.53c0,0.13 -0.01,0.15 0.12,0.14 -0.11,-0.09 -0.08,-0.05 -0.07,-0.38 0,-0.15 0,-0.31 0,-0.46l0.01 -2.82c0.14,-0.06 0.17,-0.01 0.27,-0.04 -0.03,0.05 -0.02,3.31 -0,3.66 -0.07,0.02 -0.02,-0.02 -0.09,0.04 0.07,-0.13 0.02,-0.71 0.02,-0.9l0 -2.71c0,-0.09 0.02,-0.02 -0.01,-0.09l-0.02 0.03c-0.03,0.09 -0.01,3.06 -0.01,3.45 0,0.17 0.02,0.19 -0.03,0.19 -0.04,0 -0.04,0.01 -0.03,-0.17l0 -0.7c-0,-0.31 -0,-0.63 -0,-0.94 0,-0.35 0.01,-1.63 -0.01,-1.86 -0.01,0.01 -0.01,0.01 -0.01,0.02 -0,0.01 -0.01,0.01 -0.01,0.02 -0.04,0.1 -0.02,1.69 -0.02,1.8 0,0.61 -0.01,1.24 0.01,1.85 0.04,0.01 0.09,0.03 0.11,0.02l-0.23 -0c-0.01,0.03 0.02,-0.01 -0.01,-0.02 -0.05,-0.02 -0.11,-0 -0.2,-0.14 -0.08,-0.12 -0.05,-0.99 -0.02,-1.19 0.01,-0.08 0.05,-0.13 0.05,-0.21 0.01,-0.09 -0.01,-0.13 -0.02,-0.22 -0.01,-0.2 0.06,-0.21 0.03,-0.33 -0.05,-0.16 -0.09,0.03 -0.08,-0.31 0,-0.26 -0.03,-0.78 0,-1.01zm2.42 3.39c0.01,-0.38 0.03,-3.61 0.01,-3.67l0.18 0c-0.03,0.04 -0,1.67 -0,1.86 0,0.08 -0.02,1.74 0.02,1.8 0.01,0.01 0.03,0.02 0.04,0.03 0.04,0.02 0.02,0.01 0.06,0.01 -0,-0 -0.01,-0.01 -0.01,-0.01 -0,0 -0.06,-0.01 -0.06,-0.13l0.01 -3.56c0.09,0.12 0.05,0.69 0.05,0.81l0 2.84c0,-0.01 0.01,-0.02 0.01,-0.02 0.03,0.06 0.02,-0.37 0.02,-0.37 0,-0.51 0.02,-2.98 -0.01,-3.09 0.08,0.16 0.08,-0.12 0.08,0.36l0.02 3.13c-0.13,0.04 -0.15,0.07 -0.33,0.05 0.07,-0.03 -0.01,-0.01 0.1,-0.01 -0,-0 -0.01,-0.01 -0.01,-0.01l-0.04 -0.02c-0,-0 -0.01,-0 -0.01,-0.01 -0.03,-0.58 -0,-1.25 -0,-1.85 0,-0.31 -0,-0.62 -0,-0.92l-0.01 -0.82c-0.03,-0.11 0.01,-0.05 -0.06,-0.06 0.03,0.23 0.01,2.39 0.01,2.81l0 0.7c0,0.12 0.02,0.13 -0.07,0.15zm0.93 0.39l0.07 -0.06c0.07,-0.06 0.09,-0.12 0.16,-0.2l0.15 -0.27c0,-0.01 0.01,-0.02 0.02,-0.03l0.02 -0.03c-0,0.15 -0.03,0.3 -0.08,0.41 -0.06,0.13 -0.19,0.17 -0.33,0.18zm-4.17 -0.61c0.02,0.03 -0.01,-0.02 0.03,0.04l0.06 0.12c0.04,0.07 0.05,0.11 0.09,0.17 0.17,0.26 0.15,0.16 0.24,0.28 -0.09,-0.01 -0.11,-0.02 -0.19,-0.05 -0.1,-0.04 -0.11,-0.02 -0.14,-0.12 -0.06,-0.15 -0.08,-0.27 -0.09,-0.45zm2.6 -3.45l0.18 0.01 0 3.57c-0.01,0.12 -0.05,0.09 -0.07,0.02 -0,-0.02 -0,-0.1 -0,-0.12 0.01,-0.61 0.02,-3.36 -0.01,-3.48 -0,0.01 -0.01,0.01 -0.01,0.02 -0,0.01 -0.01,0.01 -0.01,0.02 -0.01,0.04 -0.01,-0.01 -0.02,0.06l0 1.77c0,0.21 0.04,1.75 0,1.81l-0.06 0c-0.02,-0.4 0.01,-3.62 -0.02,-3.67zm1.93 -0.71c-0.06,0.06 -0.05,0.06 -0.14,0.08 0.02,-0.12 0.06,-0.23 0.08,-0.34 0.02,-0.19 0.01,-0.09 0.1,-0.24 0.1,-0.16 0.18,-0.33 0.19,-0.57 0.14,-0.02 0.16,-0.04 0.22,-0.14 0.06,0.87 0.04,1.83 0.03,2.71 -0,0.24 -0.02,0.4 -0.05,0.63 -0.03,0.21 -0.02,0.45 -0.03,0.65 -0.01,0.36 -0.1,0.49 -0.19,0.83 -0.02,0.08 -0.07,0.2 -0.08,0.25 0,-0.31 0.04,-0.68 0.05,-1l0.07 -2.01c0.01,-0.24 0.03,-0.83 -0.01,-1.03 -0.08,-0 -0.13,0.06 -0.18,0.12l-0.03 0.07 0.12 -0.07c0.08,-0.08 0.05,-0.07 0.04,-0.07 0,0.36 0.01,0.71 -0,1.06 -0,0.11 -0.02,0.84 -0.05,0.93 -0.02,0.08 -0.03,-0 -0.02,0.06 -0,-0.25 -0.02,-0.6 0.01,-0.83 0.01,-0.05 0.02,-0.74 -0.01,-0.82l-0.02 -0.04c-0.05,0.03 0.01,-0.05 -0.02,0.03l0.01 0.43c-0.02,0.47 0,1.07 -0.07,1.51 0.07,-0.03 0.14,-0.13 0.13,-0.2l-0.02 0.37c0,-0.01 0.04,-0 -0.01,-0.01 -0.02,-0 0.01,-0.01 -0.02,0 -0.04,0.02 -0.12,0.15 -0.15,0.19 0,0 0.01,0 0.01,0 0.07,-0 0.01,-0.02 0.05,0 -0.01,0.18 0.01,0.34 -0,0.52 -0.01,0.18 -0.04,0.27 -0.02,0.44 -0.13,-0.06 -0.08,-0.2 -0.08,-0.44 0,-0.18 0,-0.33 0.05,-0.48l-0.03 -0.01c-0,-0 -0,-0.04 -0,-0.05l0.03 -1.77c0.02,-0.47 -0.04,-0.35 -0.01,-0.64 0.07,-0.05 0.14,-0.06 0.06,-0.13zm-2.26 0.72c0.01,-0 0.09,-0.01 0.12,-0.01l-0.01 0.03c-0.02,0.08 -0.02,0.68 -0.01,0.93 -0.04,-0.03 -0.02,-0.01 -0.07,-0.03l-0 -0.91c-0.11,0.14 0.02,0.72 -0.05,0.95 -0.06,0.18 0,0.25 0.01,0.42 0,0.08 -0.01,0.16 -0.01,0.22 -0,0.06 0.02,0.13 0.02,0.22l0 1.45c0,0.26 0.04,0.38 -0.06,0.39 -0.03,-0.57 -0,-1.25 0,-1.83l-0 -1.75c-0.01,-0.07 -0.02,-0.05 -0.03,-0.07 -0,-0.01 -0.01,-0.01 -0.01,-0.02 -0.06,0.2 0.01,3.46 -0.02,3.6 -0.01,0.07 -0.05,0.11 -0.06,-0.02 -0,-0.03 0,-0.09 0,-0.12l0 -3.25c0.01,-0.25 -0.02,-0.19 -0.05,-0.22l-0 3.68c-0.09,-0.01 -0.05,-0.06 -0.05,-0.17l0 -2.57c0,-0.13 0.04,-0.87 -0.05,-0.91l-0.01 3.64c-0.08,-0.02 -0.06,-0.07 -0.06,-0.18l0 -3.47 0.4 0zm-2.4 0.21c-0.01,-0.25 0.04,-0.89 -0.04,-1.08l0.05 0.07c0,0.01 0.01,0.01 0.01,0.01 0.12,0.14 0.19,0.03 0.22,0.36 0.02,0.29 0.01,1.27 0.02,1.69l0 0.24c-0.01,0.08 -0.01,0.05 -0.02,0.08 -0.15,-0.05 -0.08,-0.03 -0.1,-0.21 -0.01,-0.08 -0.02,-0.16 -0.03,-0.25 -0.01,-0.16 0.03,-0.43 -0.05,-0.52l-0.01 0.61 -0.05 -0.99zm2.63 3.18c0.02,-1.09 -0,-2.15 0.01,-3.24 0,-0.16 -0.02,-0.14 -0.06,-0.16l0.11 0c-0.02,0.64 0,1.31 0,1.95l0.01 1.46c-0,0.05 0.01,0.2 0.01,0.22 -0.02,0.09 -0.07,0 -0.08,-0.08 -0.04,0.04 -0.03,0.08 -0.09,0.09 -0.04,-0.08 -0.01,-2.73 -0.01,-3.25 0,-0.27 -0.04,-0.36 0.05,-0.4l0.05 3.4zm-1.57 -3.32c0.07,-0.02 0.07,-0.03 0.13,-0.06 -0,-0.02 -0.01,-0.08 -0.01,-0.09 -0,-0 -0.01,-0.02 -0.01,-0.03 -0.01,0.03 -0,0 -0,0.02 -0,0.12 0.05,0.33 -0.3,0.26 -0.04,-0.01 -0.04,-0 -0.06,-0.02 0.01,-0.06 -0.04,-0.07 0.09,-0.05 0.11,0.02 -0.01,0.01 0.1,0.04 0.03,-0.08 -0.02,-0.05 0.06,-0.07zm0.04 -0.88c-0.08,-0.03 -0.07,0.02 -0.07,0.02 0.02,0.01 -0.04,0.04 0.06,0.03l-0.49 0.04c-0.02,-0.02 0.01,0.05 -0.02,-0.03 -0,-0 -0,-0.01 -0,-0.01 -0,-0 -0,-0.01 -0,-0.01 -0,-0.01 -0.01,-0.05 -0.01,-0.06 -0,-0.05 0,-0.04 0.04,-0.09 0.15,0.03 0.37,0.09 0.51,0.11zm3.3 -0.02c0.12,-0.04 0.09,-0.03 0.13,-0.16 0.01,0.08 -0.11,0.54 -0.14,0.64 -0.08,0.21 0.01,0.25 -0.23,0.25 0.05,-0.06 0.08,0 0.11,-0.26 0.04,-0.35 0.09,-0.23 0.13,-0.48zm-4.34 3.96c-0,-0.05 -0.13,-0.45 -0.16,-0.52 -0.08,-0.23 -0.11,-0.3 -0.11,-0.57 -0.01,-0.45 -0.07,-0.83 -0.09,-1.28 -0.03,-0.89 -0.01,-1.8 0.02,-2.68l0.03 0.04c0,0 0.01,0.01 0.01,0.01 0.04,0.04 -0.01,0.01 0.04,0.04 0.04,0.02 0.09,0.02 0.13,0.03 0.08,0.27 0.02,0.36 0.2,0.58 0.14,0.18 0.05,0.04 0.11,0.27 0.03,0.1 0.06,0.2 0.08,0.3 -0.08,-0.02 -0.15,-0.08 -0.2,-0.12 -0.08,-0.07 -0.07,-0.12 -0.19,-0.13 -0.04,0.37 0.03,2.57 0.06,3.06 0.02,0.26 0.07,0.73 0.05,0.97zm0.56 -3.45c0,0.07 -0.04,0.09 0.04,0.16 0.01,0.01 0.02,0.02 0.03,0.03l0.02 0.02c-0.26,0.19 -0.35,-0.75 -0.43,-0.97 0.11,0.24 0.07,0.22 0.2,0.23l-0.01 0.15c0,0 0.01,0 0.01,0 0,0 0.01,0 0.01,0 0,0 0.02,-0 0.04,0.03 0.06,0.1 0.07,0.22 0.06,0.32 0.04,0.02 0.03,-0.05 0.03,0.01zm4.11 -1.48c0.04,-0.1 0.04,-0.08 0.13,-0.12 0.09,-0.04 0.03,-0.04 0.13,-0.09l0.02 0.03c0,0 0,0.01 0.01,0.02l0.03 0.1c-0.11,0.03 -0.17,0.01 -0.31,0.06zm-4.98 -0.45c0.01,-0.07 0.04,-0.11 0.04,-0.2l-0.01 -0.48c-0.06,-0.3 -0.03,-0.33 -0.03,-0.67 -0,-0.34 0.08,-0.41 0.04,-0.9 -0.02,-0.16 -0.03,-0 -0.04,-0.42 -0.01,-0.77 0.01,-0.4 0.07,-0.66 0.02,-0.12 -0.02,-0.12 0.1,-0.13l0 2.71c0.01,0.3 0.03,0.58 0.03,0.88 0.06,-0.07 0.03,-0.3 0.03,-0.46 0.01,-0.35 0.02,-0.56 -0,-0.92 -0.01,-0.19 0.04,-0.11 0.04,-0.42 -0.03,0.03 -0.01,0 0.06,0.1 0.02,0.03 0.03,0.05 0.05,0.08 0.02,0.03 0.03,0.04 0.04,0.06 0.04,0.06 0.03,0.26 0.02,0.27 -0.02,0.05 0.05,-0.08 -0.02,0.03 -0,0 -0.01,0.02 -0.01,0.01 -0,-0 -0.01,0.01 -0.01,0.01 0.04,0.04 0.09,0.22 0.1,0.29 0.04,0.17 -0.09,0.9 -0.13,0.99 -0,0.13 -0.07,-0.26 -0.07,-0.27l-0.02 -0.79c0,-0.14 0.02,-0.22 0.02,-0.36 0.04,0.05 0.04,0.04 0.07,0.12 0.05,-0.06 0.02,-0.01 0.02,-0.05 0.01,-0.09 0,-0.01 -0.01,-0.04 -0.01,-0.02 -0.02,-0.04 -0.02,-0.04 -0,-0 -0,-0.01 -0.01,-0.01 -0,-0 -0,-0.01 -0.01,-0.01 -0.03,-0.06 -0.05,-0.09 -0.07,-0.14 -0.05,0.06 -0.02,0.01 -0.04,0.06 -0.03,0.07 -0.02,0.73 -0.02,0.8l0.02 0.72c0.01,0.08 -0.01,0.04 0.02,0.06 -0.04,-0.05 -0.02,-0.03 -0.07,-0.05l0 0.05c-0.05,-0.01 -0.09,-0.02 -0.13,-0.04l-0.06 -0.09c0.02,-0.02 0.01,0.01 -0.01,-0.06zm5.3 -0.14c-0,-0.01 -0,-0.08 -0,-0.08 0.04,0 0.02,-0.02 0.04,-0.01l0.01 -0.12c0,-0 0.01,0.01 0.01,0.01 0.01,-0.28 -0.11,-0.15 -0.04,-0.35l0.02 -0.04c0.04,0.05 0.01,-0.06 0.04,0.08 0.03,0.13 0.03,0.44 -0.02,0.58 -0.06,-0.05 -0.03,0 -0.06,-0.08zm-5.29 0.07c-0.06,-0.04 -0.02,0.05 -0.06,-0.07 -0.03,-0.11 -0.01,-0.45 0.02,-0.57 0,0.01 0.01,0.01 0.01,0.02 0.08,0.16 0.01,0.1 -0.01,0.21l0.01 0.25c0.01,0.02 0.02,-0.01 0.01,0.02 0.02,0.03 0.04,-0.02 0.02,0.15zm3.13 -1.02c-0.06,-0.05 -0.03,-0.22 -0.03,-0.29 -0,-0.11 0.01,-0.19 0.01,-0.29 0.11,-0.03 1.05,-0.02 1.22,-0.01 0.07,0.11 0.06,0.39 0.03,0.48 -0.04,0.1 -0.1,0.11 -0.22,0.1 -0.11,-0 -0.23,0 -0.34,0 -0.22,0 -0.45,0 -0.67,-0zm-0.89 -0.5l0.01 -0.09 0.83 -0.01 0.01 0.09 -0.02 0.5 -0.81 0 -0.01 -0.14c-0.03,-0.09 -0.02,-0.25 -0.01,-0.36zm-0.03 0l0 0.15 -0 0.14 0 0.17c-0.02,0.06 0.03,0.03 -0.08,0.04 -0.02,0 -0.09,-0 -0.12,-0 -1.23,-0.02 -1.03,0.1 -1.04,-0.5 0.03,-0.06 0.01,-0.03 0.11,-0.04l-0.05 -0.03c-0,-0 -0,-0 -0,-0.01 0,-0.02 0.01,-0.01 0.04,-0.01 0.05,-0.01 0.11,-0 0.16,-0l0.98 -0 0.01 0.09zm-1.78 0.03c-0,-0 -0.01,-0.01 -0.01,-0.01l-0.09 -0.06c-0.08,-0.09 -0.08,-0.61 -0.08,-0.73 -0,-0.28 -0,-0.67 0.04,-0.94 0.19,0.35 0.15,1.29 0.13,1.75zm4.45 -0.1c-0.01,-0.28 -0.03,-0.59 -0.02,-0.88 0.01,-0.13 0.06,-0.65 0.12,-0.76 0.03,0.03 0,-0.02 0.02,0.04l0.01 0.18c-0,0.21 0.04,0.27 0.04,0.64 0,0.22 0.01,0.5 -0.1,0.71 -0.03,0.06 -0.02,0.04 -0.07,0.08zm0.49 -0.47c0.03,0.12 0.02,0.17 0.01,0.29 -0.02,0.27 -0.05,0.21 -0.1,0.24 -0,-0.06 -0.01,-0.1 0.01,-0.16 0.05,-0.18 0.03,-0.09 0.03,-0.34l-0.02 -0.01 0.01 -0.19c0.05,0.03 0.05,0.1 0.06,0.17zm-5.42 0.33c0.08,0.04 0.05,0.04 0.06,0.06l-0.02 0.1c-0.06,-0.05 -0.05,-0.06 -0.06,-0.17 -0.01,-0.12 -0.01,-0.4 0.05,-0.49 0.01,0.07 0.02,0.08 0.03,0.15 -0.02,0.1 -0.04,-0.12 -0.06,0.35zm5.35 1.75c0.03,0.08 -0.05,0.18 -0.1,0.23 -0.09,-0.02 0.01,-0 -0.1,-0.06l0.05 -0.54c-0.02,-0.16 0,-2.36 -0.02,-2.89 -0,-0.16 0.02,-0.13 0.05,-0.14 0.06,0.04 0.02,-0.03 0.04,0.08 0.05,0.2 0.07,0.14 0.07,0.26 0.02,0.47 -0.06,1.01 -0.05,1.33 0.01,0.21 0.04,0.11 0.04,0.44 -0,0.15 -0,0.29 -0,0.44 0,0.19 -0.11,0.7 -0.01,0.85zm-2.85 -2.69c0,-0.02 0.03,-0.09 0.04,-0.09 0.05,-0.04 0.02,-0.02 0.1,-0.03 -0.04,0.1 -0.03,0.12 -0.14,0.12zm-0.69 -0.72l0.13 -0 -0.01 0.56 -0.12 0 -0 -0.56zm0.75 0.56c-0.02,-0.03 -0.03,-0.02 -0.03,-0.13l0 -0.43 0.11 0c0.03,0.06 0.02,0.12 0.02,0.29l-0 0.22c-0.01,0.06 -0.01,0.03 -0.02,0.05l-0.08 -0zm1.37 -0.56l0.13 0.01 -0.01 0.55c-0.15,0.01 -0.34,0.03 -0.37,-0.11 -0.05,-0.21 0.07,-0.24 0.24,-0.24l0 -0.2zm-0.59 -0.01c0.34,-0.08 0.37,0.51 0.11,0.56 -0.19,0.04 -0.27,-0.06 -0.29,-0.22 -0.02,-0.19 0.02,-0.31 0.18,-0.35zm-0.26 0c-0,0.61 0.05,0.57 -0.13,0.56l-0 -0.44c-0.17,-0.03 -0.21,0.03 -0.22,-0.05 -0.02,-0.11 0.02,-0.05 0.03,-0.05 0.04,-0.02 0.27,-0.01 0.33,-0.01zm-1.07 0.19c0.05,-0.3 0.42,-0.26 0.42,0.08 0.01,0.39 -0.36,0.4 -0.42,0.12 0.17,-0.05 0.08,0.01 0.17,0.05 0.16,0.08 0.15,-0.28 0.07,-0.32 -0.12,-0.06 -0.11,0.13 -0.14,0.08 -0,-0 -0.01,0.01 -0.01,0.01l-0.1 -0.02zm-0.75 -0.19l0.13 -0 0.03 0.1 0.14 -0c0.08,-0.09 -0.01,-0.11 0.18,-0.1 -0.04,0.14 -0.12,0.44 -0.18,0.56l-0.13 -0.01 -0.17 -0.56zm1.68 -0.82l0.13 0 -0.01 0.56 -0.12 0 -0 -0.28 0 -0.04 0 -0.16 -0 -0.09zm-0.74 0l0.14 0 -0.01 0.56 -0.13 -0 -0 -0.56zm-1.78 5.07c0.04,-0.01 0.05,0.02 0.09,0.03 -0.07,-0.04 -0.07,-0.05 -0.08,-0.14 -0.02,-0.16 0.06,-0.14 0.08,-0.28 0.02,-0.1 -0,-0.08 -0.02,-0.15 -0.02,-0.09 0.06,-0.5 0.08,-0.61 0.08,-0.46 0.07,-0.92 0.05,-1.39 -0.03,-0.67 -0.14,-1.3 -0.23,-1.94 -0.03,-0.17 -0.05,-0.33 -0.19,-0.42 -0.01,-0 -0.03,-0.02 -0.03,-0.02l0.02 0.38c-0.04,0.04 -0.09,0.08 -0.17,0.09l0 -0.52 0.07 0.02c-0,-0 -0.01,-0.01 -0.01,-0.01 -0.03,-0.02 -0.01,-0.01 -0.03,-0.02 -0.02,-0.41 0,-2.65 0.05,-2.98 0.07,-0.01 0.03,0 0.06,-0.02l-0.01 1.46c0,0.48 -0.02,0.99 0.01,1.47 0.04,-0.16 0.02,-2.11 0.03,-2.47 0.01,-0.41 -0.03,-0.77 0.19,-1.08 0.15,-0.21 0.41,-0.48 0.65,-0.6 -0.16,0.71 -0.41,3.05 -0.46,3.96 -0.02,0.28 -0.08,0.05 -0.07,0.54 -0.02,0.01 -0.05,0.02 -0.08,0.03 -0.05,0.02 -0.08,0.01 -0.03,0.05l0.06 -0.04c0.05,-0.03 -0.02,-0 0.05,-0.03 0.04,0.4 0.14,0.82 0.2,1.21l0.08 0.38c0.04,0.47 0.06,1.35 0,1.81l-0.06 -0.06c-0,-0 -0.01,-0 -0.01,-0.01 -0,-0 -0,-0.01 -0.01,-0.01 0.09,0.13 0.06,0.15 0.03,0.31 -0.02,0.12 -0.05,0.25 -0.07,0.37 -0.02,0.13 -0.04,0.25 -0.06,0.38 -0.01,0.08 -0.01,0.31 -0.08,0.34 0.13,0.04 0.1,0.17 0.4,0.26 0.77,0.24 2.2,0.23 2.99,0.11 0.19,-0.03 0.38,-0.06 0.55,-0.11 0.07,-0.02 0.36,-0.16 0.35,-0.25l-0.16 -1.11c-0.05,-0.29 -0.06,-0.11 0.03,-0.3 -0.02,0.03 -0.05,0.06 -0.08,0.09 -0.04,-0.31 -0.06,-1.5 0.01,-1.87 0.01,-0.06 0.04,-0.12 0.05,-0.21l0.21 -1.32c0,-0.01 0.01,-0.06 0.01,-0.06 0.03,-0.21 -0.05,-0.34 -0.07,-0.52 -0.1,-1.09 -0.23,-2.96 -0.44,-3.96 0.06,0.03 0.1,0.06 0.16,0.11 0.06,0.06 0.07,0.06 0.14,0.11 0.09,0.06 0.18,0.17 0.24,0.24 0.18,0.2 0.25,0.34 0.28,0.68 0.07,0.57 0.02,1.33 0.03,1.93 0.08,-0.23 -0.02,-1.49 0.01,-1.85 0.05,0.04 0,0.02 0.07,0.01 0,0.52 0.02,1.04 0.02,1.57l0 1.2c0,0.18 0.05,0.24 -0.11,0.28l-0 -0.43c-0.02,0.13 -0.02,0.3 -0.01,0.44 0,0.04 -0.01,-0 0.01,0.03l0.15 -0.09 -0 0.52c-0.27,-0.09 -0.1,-0.25 -0.17,-0.43 -0.08,0.03 -0.11,0.14 -0.14,0.22l-0.07 0.28c-0.17,1.02 -0.29,2.15 -0.17,3.18 0.02,0.19 0.07,0.42 0.08,0.6 0.01,0.14 -0,-0 -0.03,0.12 -0.03,0.12 0.04,0.16 0.06,0.27 0.01,0.05 0,0.1 0.01,0.15 0,-0.13 -0,0.01 0.08,-0.07l0.08 -0.13c0.01,0.19 0,0.23 -0.07,0.37 -0.04,0.08 -0.12,0.19 -0.18,0.24 -0.38,0.3 -1.71,0.34 -2.18,0.34 -0.52,-0 -1.37,-0.05 -1.86,-0.24l-0.21 -0.11c-0.18,-0.15 -0.27,-0.36 -0.28,-0.67 0.02,0.02 0.01,0 0.02,0.04 0,0.01 0.01,0.02 0.01,0.03 0.01,0.03 0.01,0.06 0.02,0.08 0.04,0.11 0.03,0.03 0.12,0.09l-0.02 0.09zm1.98 -4.51c0,-0.09 0.05,-0.2 0.08,-0.29 0.09,-0.3 0.05,-0.27 0.23,-0.27l0.16 0.56 -0.13 0 -0.11 -0.37 -0.1 0.37 -0.13 0zm0.86 -0.36c-0.24,0.01 -0.06,-0.19 0.05,-0.21 0.17,-0.03 0.24,0.06 0.27,0.2 0.07,0.43 -0.37,0.51 -0.43,0.19 0.01,-0 0.08,-0.01 0.09,-0 0.06,0.02 0.08,0.13 0.17,0.06 0.06,-0.09 0.05,-0.24 -0.01,-0.33l-0.08 -0c-0.04,0.05 -0.02,0.03 -0.06,0.09zm-1.43 -0.08c-0.14,-0.02 -0.08,0.04 -0.09,-0.08 0.04,-0.04 -0,-0.03 0.07,-0.05l0.29 0 -0.01 0.56 -0.12 0 -0.01 -0.44c-0.03,-0 -0.11,0 -0.13,0zm-0.18 -1.28c0.1,-0.25 0.16,-0.35 0.08,-0.69 -0.06,-0.26 -0.11,-0.43 -0.01,-0.71 0.18,-0.54 0.48,-0.46 0.93,-0.73 0.42,0.24 0.77,0.21 0.94,0.72 0.19,0.58 -0.24,0.77 0.06,1.4 -0.08,0.11 -0.26,0.29 -0.33,0.47 -0.55,-0.06 -0.54,0.09 -0.67,0.09 -0.11,-0 -0.18,-0.16 -0.67,-0.08 -0.02,-0.08 -0.11,-0.17 -0.16,-0.24l-0.17 -0.23zm-1.48 -2.26c0.02,-0.06 0.04,-0.08 0.01,-0.13l0.01 0.04 -0.03 0c-0.04,-0.16 -0.05,-0.26 0.06,-0.41 0.19,-0.27 0.57,-0.54 0.91,-0.64 0,0 0.04,-0.02 -0.01,0.03 -0.04,0.06 -0.09,0.19 -0.04,0.27l-0.09 0.04c-0.06,0.04 -0.08,0.06 -0.12,0.09l-0.07 0.04c-0.04,0.03 -0.06,0.04 -0.11,0.09 -0.05,0.04 -0.06,0.04 -0.11,0.08 -0.03,0.08 -0.23,0.18 -0.33,0.4 -0.04,0.08 -0.05,0.13 -0.07,0.13l-0.08 0.42c-0.03,-0.23 0,-0.43 0.02,-0.64l0.06 0.18zm5.03 -0.14c0.07,0.02 0.03,-0.04 0.05,0.07l0.01 0.56c-0.05,-0.07 -0.04,-0.16 -0.07,-0.26 -0.02,-0.09 -0.04,-0.17 -0.07,-0.25l0.02 -0.01 -0.02 0.01c-0,-0 -0.03,-0.06 -0.04,-0.09 -0.04,-0.11 -0.03,-0.07 -0.06,-0.09 -0,-0 -0.01,-0 -0.01,-0.01l-0.06 -0.06c-0.27,-0.31 -0.1,-0.12 -0.41,-0.4l0.01 -0c-0.09,-0.04 -0.07,-0.04 -0.14,-0.09 -0.04,-0.03 -0.09,-0.05 -0.14,-0.06 0.03,-0.12 0.02,-0.18 -0.04,-0.26l-0.02 -0.06c0.29,0.06 0.48,0.23 0.65,0.37 0.15,0.12 0.39,0.3 0.33,0.63zm-1.12 -0.89c-0.41,-0.13 -0.72,-0.13 -1.14,-0.19 0.01,-0.08 0.51,0.01 0.6,0.02 0.15,0.02 0.48,0.04 0.54,0.17zm-1.43 -0.34c-0.07,0.05 -0.03,0.07 0.02,0.11 -0.07,0.01 -0.16,0.02 -0.21,-0.02 -0.05,-0.04 0.01,0.03 -0.01,-0.08 0.06,0.09 -0.07,-0.04 0.21,-0.05 0.17,-0 0.25,-0.01 0.3,0.08 -0.04,0.02 0.02,0.02 -0.02,0 -0,-0 -0.01,-0.01 -0.01,-0.02 -0.01,0.08 -0.02,0.05 -0.03,0.09l-0.2 0.01c0.09,-0.12 0.11,-0 0.21,-0.08 -0.07,-0.15 -0.04,0.05 -0.18,-0.02 0.07,-0.02 0.02,0.04 0.11,-0.04 -0.16,0 -0.27,-0.03 -0.33,0.06 0.04,0.03 -0.06,0.04 0.06,0.02 0.06,-0.01 0.02,-0.02 0.02,-0.02 0.04,-0.05 -0.07,-0.04 0.07,-0.03zm-1.4 0.46c-0.31,0.15 -0.04,-0.27 0.11,-0.4 0.11,-0.1 0.61,-0.15 0.72,-0.13 -0.2,0.02 -0.44,0.02 -0.61,0.12 -0.08,0.05 -0.21,0.21 -0.23,0.31 -0.02,0.06 0,0.04 0.02,0.11zm1.78 -0.55c0.12,-0.03 0.73,0.02 0.85,0.07 0.13,0.04 0.19,0.14 0.25,0.23 0.05,0.08 0.14,0.2 0.1,0.32l-0.13 -0.07c0.02,-0.06 0.06,-0.07 0.01,-0.15 -0.08,-0.17 -0.14,-0.26 -0.32,-0.3 -0.25,-0.06 -0.51,-0.07 -0.77,-0.09z"/>
   <path class="fil1" d="M1.15 10.26l0.02 -0.09c-0.09,-0.05 -0.08,0.02 -0.12,-0.09 -0.01,-0.02 -0.01,-0.05 -0.02,-0.08 -0,-0.01 -0.01,-0.02 -0.01,-0.03 -0.02,-0.04 -0,-0.02 -0.02,-0.04 0.01,0.3 0.09,0.52 0.28,0.67l0.21 0.11c0.5,0.19 1.34,0.23 1.86,0.24 0.47,0 1.8,-0.04 2.18,-0.34 0.07,-0.05 0.14,-0.16 0.18,-0.24 0.07,-0.15 0.08,-0.19 0.07,-0.37l-0.08 0.13c-0.08,0.08 -0.08,-0.06 -0.08,0.07 -0.01,-0.05 -0,-0.09 -0.01,-0.15 -0.02,-0.12 -0.09,-0.15 -0.06,-0.27 0.03,-0.12 0.04,0.02 0.03,-0.12 -0.01,-0.18 -0.06,-0.41 -0.08,-0.6 -0.12,-1.04 -0,-2.16 0.17,-3.18l0.07 -0.28c0.03,-0.09 0.06,-0.19 0.14,-0.22 0.07,0.19 -0.1,0.35 0.17,0.43l0 -0.52 -0.15 0.09c-0.02,-0.04 -0.01,0.01 -0.01,-0.03 -0,-0.14 -0.01,-0.3 0.01,-0.44l0 0.43c0.16,-0.04 0.11,-0.1 0.11,-0.28l-0 -1.2c-0,-0.53 -0.02,-1.05 -0.02,-1.57 -0.07,0 -0.02,0.02 -0.07,-0.01 -0.03,0.36 0.07,1.62 -0.01,1.85 -0.01,-0.59 0.04,-1.35 -0.03,-1.93 -0.04,-0.34 -0.11,-0.48 -0.28,-0.68 -0.07,-0.07 -0.16,-0.18 -0.24,-0.24 -0.06,-0.04 -0.07,-0.05 -0.14,-0.11 -0.05,-0.05 -0.09,-0.08 -0.16,-0.11 0.21,1 0.34,2.87 0.44,3.96 0.02,0.18 0.1,0.31 0.07,0.52 0,0 -0.01,0.04 -0.01,0.06l-0.21 1.32c-0.01,0.09 -0.04,0.15 -0.05,0.21 -0.07,0.37 -0.05,1.56 -0.01,1.87 0.03,-0.03 0.06,-0.06 0.08,-0.09 -0.09,0.19 -0.08,0.02 -0.03,0.3l0.16 1.11c0.01,0.09 -0.28,0.23 -0.35,0.25 -0.17,0.05 -0.36,0.09 -0.55,0.11 -0.79,0.12 -2.22,0.13 -2.99,-0.11 -0.3,-0.09 -0.27,-0.22 -0.4,-0.26 0.07,-0.03 0.07,-0.26 0.08,-0.34 0.02,-0.13 0.04,-0.25 0.06,-0.38 0.02,-0.13 0.04,-0.25 0.07,-0.37 0.03,-0.16 0.06,-0.18 -0.03,-0.31 0,0 0.01,0 0.01,0.01 0,0 0.01,0.01 0.01,0.01l0.06 0.06c0.06,-0.46 0.04,-1.34 -0,-1.81l-0.08 -0.38c-0.07,-0.39 -0.17,-0.81 -0.2,-1.21 -0.07,0.02 -0,-0 -0.05,0.03l-0.06 0.04c-0.05,-0.04 -0.02,-0.03 0.03,-0.05 0.03,-0.01 0.06,-0.02 0.08,-0.03 -0.02,-0.49 0.05,-0.26 0.07,-0.54 0.05,-0.91 0.31,-3.25 0.46,-3.96 -0.24,0.12 -0.5,0.39 -0.65,0.6 -0.22,0.3 -0.18,0.66 -0.19,1.08 -0.01,0.37 0.01,2.32 -0.03,2.47 -0.02,-0.48 -0,-0.99 -0.01,-1.47l0.01 -1.46c-0.03,0.03 0.01,0.01 -0.06,0.02 -0.05,0.33 -0.07,2.57 -0.05,2.98 0.02,0.01 0.01,0 0.03,0.02 0,0 0.01,0.01 0.01,0.01l-0.07 -0.02 -0 0.52c0.08,-0.02 0.13,-0.06 0.17,-0.09l-0.02 -0.38c0,0 0.03,0.02 0.03,0.02 0.15,0.09 0.17,0.25 0.19,0.42 0.1,0.64 0.21,1.27 0.23,1.94 0.02,0.47 0.03,0.93 -0.05,1.39 -0.02,0.12 -0.1,0.53 -0.08,0.61 0.02,0.07 0.03,0.04 0.02,0.15 -0.02,0.14 -0.1,0.12 -0.08,0.28 0.01,0.09 0.01,0.1 0.08,0.14 -0.03,-0.01 -0.05,-0.04 -0.09,-0.03z"/>
   <path class="fil2" d="M3.63 4.25c-0.09,-0.09 -0.07,-0.26 0.08,-0.23 0.09,0.02 0.12,0.26 -0.08,0.23zm0.18 -0.06c-0.02,-0.12 -0.01,-0.12 0.09,-0.14 -0.01,-0.12 -0.03,-0.07 0.03,-0.1 0.01,0.02 0.01,0 0.02,0.04l0.02 0.18c-0.07,0.01 -0.1,0.03 -0.16,0.02zm-0.52 0.16c0.04,-0.09 -0,-0.08 0.02,-0.28l0.09 -0c0.07,-0.01 0.06,-0.02 0.14,-0l0.01 0.17c-0.01,0.04 -0.01,0.03 -0.02,0.05 -0.06,-0.03 -0.03,0.05 -0.04,-0.06 -0,-0.01 -0,-0.08 -0,-0.1l-0.12 -0.01c0.01,0.2 0.01,0.23 -0.07,0.25zm-0.2 -0.27c0.09,-0.06 0.19,-0.06 0.19,0.07 0,0.17 -0.13,0.17 -0.19,0.03 0.12,0.03 0.01,0.02 0.12,0.04l0 -0.13c-0.09,0.01 -0.07,0.05 -0.12,-0.01zm-0.04 0.17c-0.06,-0.02 -0.05,-0.01 -0.04,-0.08 0,-0.05 0.01,-0.1 0.02,-0.15 0.05,0.02 0.05,0 0.05,0.08 -0,0.06 -0.01,0.11 -0.03,0.16zm-0.22 -0.29c0.09,0.05 -0.02,0.06 0.08,0.07 0.05,0 -0.01,-0.04 0.1,-0.01 -0.03,0.04 -0.03,0.05 -0.06,0.1 -0.05,0.1 -0.02,0.08 -0.1,0.07l-0.04 -0.18c0,-0.05 -0,-0.03 0.02,-0.06zm0.9 -1.04c-0.02,0.05 -0,0.03 -0.03,0.06 0.04,0.03 -0.08,0.03 0.06,0.03l0.03 -0.06 0.05 0.03 -0.07 0.07c0.19,0.11 0.06,0.4 0.04,0.55 -0.11,0.04 -0.03,0.04 -0.13,0.1 0,0.05 -0.01,0.02 0,0.05 -0.18,-0.05 -0.15,0.1 -0.23,0.15 -0.12,0.08 -0.13,-0.09 -0.2,-0.14 -0.11,-0.06 -0.11,-0.01 -0.16,0 0.04,-0.02 0.08,-0.11 0.21,-0.05 -0.02,-0.1 0.02,-0.03 -0.05,-0.07 0.01,-0.04 0.02,-0.03 -0.02,-0.03l-0.14 0.1c-0.05,-0.04 -0,0.01 -0.05,-0.05 0.01,-0.04 -0.03,-0.04 0.02,-0.04 0.05,0.02 0,0.04 0.05,0 0.06,-0.05 0.02,-0.02 -0.01,-0.05l-0.04 0.04c-0.11,-0.03 -0.06,-0.03 -0.1,-0.15 -0,-0 -0,-0.01 -0.01,-0.01l-0.01 -0.03c-0,-0 -0,-0.01 -0.01,-0.01 -0.04,-0.13 0.02,-0.31 0.1,-0.37 -0.01,-0.04 -0.01,-0.01 -0.03,-0.04 -0.06,-0.08 0.01,0.03 -0.02,-0.02 0.05,0.01 0.09,0.03 0.12,0.04 -0.02,-0.05 -0.04,-0.06 -0.06,-0.12l0.12 -0 0.01 -0.01c0.09,-0.05 0.14,-0.04 0.18,-0.11l0.02 -0.02c0.01,-0.01 0.06,-0.08 0.06,-0.02 0.03,-0 0.02,-0.01 0.01,0.02l0.03 0.04 0.21 0.09 0.08 0.04c-0,-0 0.04,0.01 -0.01,-0.01 -0.07,-0.03 -0.01,-0 -0.02,0zm-0.19 -0.32c-0.03,-0.04 -0.02,0.04 -0.02,-0.06 -0.01,-0.2 0.06,-0.16 0.06,-0.16 0.03,0.05 0.02,0.06 0.01,0.13 -0.02,0.12 -0,0.07 -0.05,0.09zm-0.28 -0.12c0.01,0.12 0,0.09 -0.02,0.12 -0.07,-0.03 -0.07,-0.17 -0.04,-0.21 0.06,0.01 0.04,-0.01 0.06,0.1zm0.46 0.1c0.03,-0.04 0.01,0.05 0.03,-0.06 0.02,-0.09 -0.08,-0.04 -0.11,-0.07 0.02,-0.07 0.1,-0.04 0.16,-0.03 0.01,0.03 0.03,0.06 0.02,0.1 -0.01,0.14 -0.16,0.14 -0.2,0 0.11,0.02 0.01,0 0.1,0.05zm-0.4 0.01c-0.02,-0.03 -0.02,-0 -0.02,-0.06 0,-0 0.02,-0.06 0.02,-0.06 0.04,-0.11 0.03,-0.08 0.07,-0.09 0.06,0.04 0.09,0.14 0.09,0.22 -0.1,-0.01 -0.06,-0.03 -0.1,-0.13 -0.03,0.07 -0.01,0.08 -0.07,0.13zm-0.31 -0.16c0.01,-0.01 0.03,-0.01 0.05,-0.02 0.04,-0.01 0.03,-0.01 0.07,-0 0.02,0.07 0.05,0.16 0.01,0.21 -0.07,-0.02 -0.01,0.08 -0.07,-0.15 -0.12,0.04 -0.07,0.01 -0.1,-0.01 0.02,-0.02 0.01,-0.01 0.03,-0.03zm0.25 -0.18c0.07,-0.09 0.04,-0.07 0.06,-0.12 0.03,0.04 0.03,0.07 0.06,0.12l-0.12 0zm0.27 -0.11l-0 0.11c-0.06,0 -0.03,0.02 -0.06,-0.05 -0.05,0.07 0.01,0.02 -0.08,0.05l-0 -0.09 0.08 -0.01c0,-0 0.01,-0 0.01,-0l0.05 -0zm-1.13 1.9l0.17 0.23c0.05,0.07 0.14,0.16 0.16,0.24 0.49,-0.07 0.56,0.08 0.67,0.08 0.13,0 0.12,-0.15 0.67,-0.09 0.06,-0.18 0.24,-0.35 0.33,-0.47 -0.3,-0.63 0.12,-0.82 -0.06,-1.4 -0.16,-0.51 -0.52,-0.48 -0.94,-0.72 -0.45,0.26 -0.75,0.18 -0.93,0.73 -0.09,0.28 -0.05,0.45 0.01,0.71 0.08,0.33 0.02,0.43 -0.08,0.69z"/>
   <path class="fil3" d="M1.94 11.99c-0.03,0.23 0,0.75 -0,1.01 -0,0.34 0.04,0.15 0.08,0.31 0.04,0.12 -0.04,0.13 -0.03,0.33 0,0.09 0.03,0.13 0.02,0.22 -0.01,0.08 -0.04,0.13 -0.05,0.21 -0.03,0.2 -0.06,1.07 0.02,1.19 0.09,0.13 0.15,0.12 0.2,0.14 0.03,0.01 0,0.04 0.01,0.02l0.23 0c-0.02,0.01 -0.07,-0.01 -0.11,-0.02 -0.02,-0.61 -0.01,-1.24 -0.01,-1.85 0,-0.11 -0.03,-1.7 0.02,-1.8 0,-0.01 0.01,-0.01 0.01,-0.02 0,-0.01 0.01,-0.01 0.01,-0.02 0.03,0.23 0.01,1.51 0.01,1.86 0,0.31 0,0.63 0,0.94l0 0.7c-0,0.18 -0.01,0.17 0.03,0.17 0.05,-0 0.03,-0.02 0.03,-0.19 -0,-0.39 -0.02,-3.35 0.01,-3.45l0.02 -0.03c0.04,0.07 0.01,0 0.01,0.09l-0 2.71c0,0.2 0.05,0.78 -0.02,0.9 0.07,-0.06 0.02,-0.02 0.09,-0.04 -0.01,-0.34 -0.02,-3.61 0,-3.66 -0.1,0.03 -0.13,-0.02 -0.27,0.04l-0.01 2.82c-0,0.15 0,0.31 -0,0.46 -0,0.33 -0.03,0.3 0.07,0.38 -0.13,0 -0.12,-0.01 -0.12,-0.14l0 -2.53c0,-0.18 0.02,-0.75 -0.01,-0.88 0.02,0.04 0.03,-0.06 0,0.03 -0.01,0.02 -0.01,0.02 -0.02,0.03 -0.04,0.06 -0.02,-0.03 -0.03,0.08l-0 2.95c-0,0.11 0.03,0.4 -0.04,0.43l-0 -3.42c-0.02,0.03 -0.08,0.03 -0.15,0.04z"/>
   <path class="fil1" d="M1.05 14.86c0.02,-0.24 -0.04,-0.71 -0.05,-0.97 -0.03,-0.49 -0.11,-2.69 -0.06,-3.06 0.13,0 0.11,0.05 0.19,0.13 0.05,0.04 0.11,0.1 0.2,0.12 -0.02,-0.1 -0.06,-0.2 -0.08,-0.3 -0.06,-0.23 0.04,-0.1 -0.11,-0.27 -0.18,-0.22 -0.12,-0.32 -0.2,-0.58 -0.04,-0.01 -0.09,-0.01 -0.13,-0.03 -0.05,-0.03 -0.01,0.01 -0.04,-0.04 -0,-0 -0.01,-0.01 -0.01,-0.01l-0.03 -0.04c-0.04,0.89 -0.06,1.79 -0.02,2.68 0.02,0.45 0.08,0.83 0.09,1.28 0,0.27 0.03,0.34 0.11,0.57 0.02,0.07 0.16,0.48 0.16,0.52z"/>
   <path class="fil1" d="M5.65 11l0.05 -0.06c0.05,-0.06 0.1,-0.12 0.18,-0.12 0.04,0.2 0.01,0.79 0.01,1.03l-0.07 2.01c-0.02,0.32 -0.05,0.69 -0.05,1 0.01,-0.05 0.06,-0.17 0.08,-0.25 0.09,-0.34 0.18,-0.48 0.19,-0.83 0.01,-0.21 0,-0.45 0.03,-0.65 0.03,-0.23 0.05,-0.39 0.05,-0.63 0.01,-0.88 0.03,-1.84 -0.03,-2.71 -0.05,0.1 -0.08,0.12 -0.22,0.14 -0.01,0.25 -0.09,0.41 -0.19,0.57 -0.1,0.15 -0.08,0.05 -0.1,0.24 -0.01,0.12 -0.05,0.23 -0.08,0.34 0.09,-0.03 0.08,-0.02 0.14,-0.08z"/>
   <path class="fil3" d="M4.36 15.38c0.09,-0.02 0.07,-0.03 0.07,-0.15l-0 -0.7c-0,-0.42 0.02,-2.58 -0.01,-2.81 0.07,0.02 0.03,-0.05 0.06,0.06l0.01 0.82c-0,0.31 0,0.62 0,0.92 0,0.59 -0.03,1.26 0,1.85 0,0 0.01,0.01 0.01,0.01l0.04 0.02c0,-0 0.01,0.01 0.01,0.01 -0.11,-0 -0.03,-0.03 -0.1,0.01 0.18,0.03 0.2,-0 0.33,-0.05l-0.02 -3.13c0,-0.48 0.01,-0.2 -0.08,-0.36 0.03,0.1 0.02,2.58 0.01,3.09 0,0.01 0.01,0.44 -0.02,0.37 -0,-0 -0.01,0.01 -0.01,0.02l-0 -2.84c-0,-0.12 0.04,-0.69 -0.05,-0.81l-0.01 3.56c0,0.12 0.06,0.13 0.06,0.13 0,-0 0.01,0.01 0.01,0.01 -0.04,-0 -0.02,0.01 -0.06,-0.01 -0.01,-0 -0.03,-0.02 -0.04,-0.03 -0.04,-0.05 -0.02,-1.72 -0.02,-1.8 0,-0.19 -0.03,-1.83 0,-1.86l-0.18 -0c0.02,0.05 0,3.29 -0.01,3.67z"/>
   <path class="fil3" d="M2.99 11.72l-0 3.47c-0,0.1 -0.02,0.16 0.06,0.18l0.01 -3.64c0.09,0.04 0.05,0.78 0.05,0.91l-0 2.57c-0,0.11 -0.04,0.16 0.05,0.17l0 -3.68c0.04,0.03 0.06,-0.03 0.05,0.22l-0 3.25c0,0.04 -0,0.09 -0,0.12 0.01,0.12 0.05,0.08 0.06,0.02 0.03,-0.14 -0.05,-3.4 0.02,-3.6 0,0.01 0.01,0.01 0.01,0.02 0,0.02 0.02,0 0.03,0.07l0 1.75c-0,0.58 -0.04,1.27 -0,1.83 0.1,-0.01 0.07,-0.13 0.06,-0.39l-0 -1.45c0,-0.08 -0.02,-0.15 -0.02,-0.22 0,-0.06 0.01,-0.14 0.01,-0.22 -0.01,-0.18 -0.07,-0.25 -0.01,-0.42 0.08,-0.23 -0.06,-0.81 0.05,-0.95l0 0.91c0.05,0.01 0.02,-0 0.07,0.03 -0,-0.25 -0.01,-0.84 0.01,-0.93l0.01 -0.03c-0.03,0 -0.11,0.01 -0.12,0.01l-0.4 -0z"/>
   <path class="fil3" d="M5.71 10.94l-0.05 0.06c0.08,0.08 0.01,0.08 -0.06,0.13 -0.03,0.29 0.03,0.18 0.01,0.64l-0.03 1.77c0,0.01 0,0.05 0,0.05l0.03 0.01c-0.04,0.16 -0.04,0.3 -0.05,0.48 -0,0.25 -0.05,0.39 0.08,0.44 -0.02,-0.17 0,-0.26 0.02,-0.44 0.01,-0.19 -0.01,-0.34 0,-0.52 -0.04,-0.02 0.02,-0 -0.05,0 -0,0 -0.01,0 -0.01,0 0.03,-0.04 0.11,-0.17 0.15,-0.19 0.03,-0.02 0,-0.01 0.02,-0 0.05,0.01 0.01,0 0.01,0.01l0.02 -0.37c0.01,0.06 -0.06,0.16 -0.13,0.2 0.07,-0.43 0.05,-1.04 0.07,-1.51l-0.01 -0.43c0.03,-0.08 -0.03,0 0.02,-0.03l0.02 0.04c0.02,0.08 0.01,0.77 0.01,0.82 -0.03,0.23 -0.01,0.58 -0.01,0.83 -0.01,-0.06 -0,0.02 0.02,-0.06 0.02,-0.09 0.04,-0.82 0.05,-0.93 0.01,-0.36 0,-0.71 0,-1.06 0,0 0.04,-0 -0.04,0.07l-0.12 0.07 0.03 -0.07z"/>
   <path class="fil1" d="M0.74 9.47c0.03,0.06 0.02,0.05 0.1,0.07 0.1,0.04 0.07,0.01 0.1,0.12l-0 -0.05 0 -0.01c0,-0.3 -0.02,-0.58 -0.03,-0.88l-0 -2.71c-0.12,0.01 -0.08,0.01 -0.1,0.13 -0.06,0.26 -0.08,-0.11 -0.07,0.66 0.01,0.42 0.02,0.26 0.04,0.42 0.05,0.49 -0.04,0.56 -0.04,0.9 0,0.34 -0.02,0.37 0.03,0.67l0.01 0.48c-0,0.09 -0.03,0.14 -0.04,0.2z"/>
   <path class="fil3" d="M3.57 11.72c-0.1,0.04 -0.05,0.13 -0.05,0.4 -0,0.52 -0.02,3.17 0.01,3.25 0.06,-0.01 0.05,-0.05 0.09,-0.09 0,0.08 0.05,0.17 0.08,0.08 0,-0.02 -0.01,-0.17 -0.01,-0.22l-0.01 -1.46c-0,-0.64 -0.02,-1.31 -0,-1.95l-0.11 0c0.04,0.02 0.06,-0 0.06,0.16 -0.01,1.09 0.01,2.15 -0.01,3.24l-0.05 -3.4z"/>
   <path class="fil1" d="M5.92 9.05l-0.01 0.5c0.04,-0.02 0.05,-0.02 0.08,-0.04l0.06 -0.09c-0.1,-0.16 0.01,-0.67 0.01,-0.85 -0,-0.15 -0,-0.29 0,-0.44 0,-0.33 -0.03,-0.23 -0.04,-0.44 -0.02,-0.32 0.06,-0.86 0.05,-1.33 -0,-0.13 -0.03,-0.06 -0.07,-0.26 -0.03,-0.11 0.02,-0.04 -0.04,-0.08 -0.03,0.01 -0.06,-0.01 -0.05,0.14 0.02,0.53 -0.01,2.74 0.02,2.89z"/>
   <path class="fil3" d="M1.05 12.93l0.01 -0.61c0.08,0.1 0.04,0.36 0.05,0.52 0,0.09 0.02,0.17 0.03,0.25 0.02,0.18 -0.04,0.16 0.1,0.21 0.01,-0.03 0.01,-0 0.02,-0.08l-0 -0.24c-0.01,-0.41 0,-1.39 -0.02,-1.69 -0.03,-0.33 -0.1,-0.22 -0.22,-0.36 -0,-0 -0.01,-0.01 -0.01,-0.01l-0.05 -0.07c0.09,0.19 0.03,0.83 0.04,1.08l0.05 0.99z"/>
   <path class="fil3" d="M3.72 11.71c0.03,0.05 0,3.27 0.02,3.67l0.06 -0c0.04,-0.06 -0,-1.6 -0,-1.81l-0 -1.77c0.01,-0.06 0,-0.02 0.02,-0.06 0,-0.01 0.01,-0.01 0.01,-0.02 0,-0.01 0.01,-0.01 0.01,-0.02 0.03,0.13 0.02,2.88 0.01,3.48 -0,0.02 -0,0.1 0,0.12 0.01,0.07 0.05,0.1 0.07,-0.02l-0 -3.57 -0.18 -0.01z"/>
   <path class="fil4" d="M3.87 8.2c0.15,-0 0.59,-0.02 0.73,0.03 0.11,0.04 0.28,0.02 0.4,0.01 -0.05,-0.04 -0.06,-0.05 -0.14,-0.05 0.03,0.04 0.07,0.02 0.14,0.01l-0.03 -0.02c-0,-0 -0.01,-0.01 -0.01,-0.01 -0.05,-0.05 -0.03,0.04 -0,-0.02 0.01,-0.03 0.02,-0.06 0,-0.1 -0.03,-0.07 -0.06,-0.06 0.02,-0.07l-0.09 -0.03 0.09 -0.04c-0.07,-0 -0.12,-0.02 -0.19,-0.02 -0.19,0 -0.44,0.02 -0.62,0.01l-0.3 -0.01 -0 0.32z"/>
   <path class="fil5" d="M2.97 8.34l-0 -0.17c-0.25,-0 -0.56,0.05 -0.8,0.02l-0.13 -0 -0.01 -0.15 0.13 -0c0.16,0 0.7,0.03 0.81,-0l-0 -0.15 -0.39 0.01 -0.61 0.02c-0.06,0.17 -0.09,0.11 -0.08,0.26 0.01,0.12 -0.04,0.13 -0.04,0.13 0.01,0 0.02,0 0.03,0.01 0,0 0.01,0 0.01,0.01 0.17,0.1 0.71,-0.03 1.07,0.03z"/>
   <path class="fil6" d="M3.01 8l0.06 0.07c0.14,-0.04 0.01,-0.03 0.11,-0.05 0.02,-0.01 0.09,-0.01 0.11,-0l0.22 -0c0.17,-0.01 -0.02,0.02 0.14,0.01 0.07,-0.01 0.13,0.07 0.13,0.07 -0.02,0.05 -0.01,0.02 -0.04,0.05 -0.09,0.09 -0.08,0.01 -0.1,0.11 -0.02,-0.08 -0.01,-0.03 -0.03,-0.06 -0.06,0.01 -0.03,-0.05 -0.05,0.06l-0.01 -0.06 -0.17 0c-0.06,0.08 0.04,-0.11 -0.03,0.07l-0.01 -0.08c-0.15,0.03 -0.07,-0 -0.2,0.02 -0,-0.01 -0.01,-0.01 -0.01,-0.02l-0.05 -0.07c-0.11,0.03 0.01,-0.03 -0.06,0.03 -0,0 -0.01,0.05 -0.02,0.03 -0,-0 -0,0.01 -0.01,0.02l-0 0.04 0.01 0.14 0.81 -0 0.02 -0.5 -0.84 0 0.01 0.12z"/>
   <path class="fil7" d="M3.87 8.2l0.02 0.18c0.22,0 0.45,0 0.67,0 0.11,-0 0.23,-0 0.34,-0 0.12,0 0.18,-0.01 0.22,-0.1l-0.01 -0.42c-0.06,-0 -0.87,-0.01 -0.94,0.04 0.18,0.01 0.43,-0.01 0.62,-0.01 0.07,-0 0.12,0.02 0.19,0.02l-0.09 0.04 0.09 0.03c-0.09,0.01 -0.06,0 -0.02,0.07 0.02,0.05 0.01,0.07 -0,0.1 -0.02,0.06 -0.04,-0.03 0,0.02 0,0 0.01,0.01 0.01,0.01l0.03 0.02c-0.07,0.01 -0.11,0.03 -0.14,-0.01 0.09,0 0.1,0.01 0.14,0.05 -0.12,0.01 -0.29,0.03 -0.4,-0.01 -0.14,-0.05 -0.58,-0.03 -0.73,-0.03z"/>
   <path class="fil3" d="M1.19 7.91c0.01,-0.46 0.06,-1.4 -0.13,-1.75 -0.04,0.27 -0.04,0.66 -0.04,0.94 0,0.13 0,0.64 0.08,0.73l0.09 0.06c0,0 0.01,0.01 0.01,0.01z"/>
   <path class="fil3" d="M0.94 9.61l-0 0.01c0.05,0.03 0.03,-0 0.07,0.05 -0.03,-0.02 -0.01,0.02 -0.02,-0.06l-0.02 -0.72c-0,-0.07 -0,-0.73 0.02,-0.8 0.02,-0.05 -0.01,-0 0.04,-0.06 0.02,0.05 0.04,0.08 0.07,0.14 0,0 0,0.01 0.01,0.01 0,0 0,0.01 0.01,0.01 0,0 0.02,0.02 0.02,0.04 0.01,0.03 0.02,-0.05 0.01,0.04 -0.01,0.05 0.02,-0.01 -0.02,0.05 -0.02,-0.09 -0.03,-0.08 -0.07,-0.12 0,0.15 -0.02,0.23 -0.02,0.36l0.02 0.79c0,0.01 0.06,0.4 0.07,0.27 0.03,-0.09 0.17,-0.82 0.13,-0.99 -0.02,-0.08 -0.07,-0.25 -0.1,-0.29 0,-0 0.01,-0.02 0.01,-0.01 0,0 0.01,-0.01 0.01,-0.01 0.07,-0.11 0,0.02 0.02,-0.03 0,-0.01 0.02,-0.2 -0.02,-0.27 -0.01,-0.01 -0.02,-0.03 -0.04,-0.06 -0.02,-0.03 -0.03,-0.05 -0.05,-0.08 -0.07,-0.1 -0.09,-0.07 -0.06,-0.1 0,0.31 -0.05,0.23 -0.04,0.42 0.02,0.36 0.01,0.57 0,0.92 -0.01,0.15 0.02,0.39 -0.03,0.46z"/>
   <path class="fil3" d="M5.64 7.81c0.05,-0.04 0.04,-0.02 0.07,-0.08 0.12,-0.21 0.11,-0.49 0.1,-0.71 -0,-0.37 -0.04,-0.43 -0.04,-0.64l-0.01 -0.18c-0.02,-0.06 0.01,-0.01 -0.02,-0.04 -0.06,0.1 -0.11,0.63 -0.12,0.76 -0.01,0.29 0,0.6 0.02,0.88z"/>
   <path class="fil8" d="M3.53 3.13l0.02 0.06c0.04,0.12 0.04,0.09 0.02,0.24l-0.03 0.19c0.13,-0.02 0.06,-0.02 0.13,-0.1l0.03 -0.01c0.04,-0.01 0,0.02 0.04,-0.01l-0.04 -0.05c0.08,-0.14 0.03,-0.41 -0.27,-0.47l-0.03 0 -0.03 -0.01 -0.05 0.02c-0.15,0.02 -0.2,0.09 -0.24,0.2 -0.07,0.17 -0.01,0.22 0.04,0.35 0.04,0.04 0.04,0.05 0.1,0.05 0.04,-0 0.03,-0.01 0.02,0.03 0.1,0 0.02,0 0.05,-0.02 -0.03,-0.1 -0.09,-0.13 -0.1,-0.25l0 -0.08c0,-0.07 -0.01,-0.03 0.02,-0.06 0,-0.07 -0.01,-0.03 0.02,-0.04l0.04 -0.06 0 -0.02 0.06 -0.03c0,-0 0.01,-0 0.01,-0.01 0.02,0.06 -0.01,-0.02 0,0.08 0,0.01 0,0 0.01,0.05 0,0.07 -0.02,0.14 0.03,0.2 0.05,-0.04 0.04,-0.17 0.02,-0.25 -0.02,-0.09 0.03,-0.02 -0.04,-0.08 0,-0 0.01,-0.02 0.06,-0.01 0.08,0.03 -0,-0.01 0.01,0.01 0,0 -0.02,0 0,0.05 0.05,-0.06 0.02,-0.01 0.1,-0.05l-0 0.05z"/>
   <path class="fil6" d="M0.92 1.65c0.02,0.05 0.01,0.07 -0.01,0.13l-0 0.03c0.02,0 0.03,-0.05 0.07,-0.13 0.11,-0.22 0.31,-0.32 0.33,-0.4 0.03,-0.04 0.01,-0.04 0.08,-0.06 -0.01,-0.05 -0.07,-0.16 0.13,-0.22l0.02 0.11 0.07 -0.04c0.02,-0.09 -0.08,-0.14 0.08,-0.19 0.03,0.03 0.01,-0.03 0.04,0.05 0.03,0.08 0.01,-0.01 0,0.05l0.09 -0.04c-0.05,-0.08 0.01,-0.21 0.04,-0.27 -0,0 -0.01,0.01 -0.01,0.01 -0,0 -0.01,0.01 -0.01,0.01 -0,0 -0.01,0.01 -0.01,0.01l-0.41 0.26c-0.11,0.06 -0.07,0.07 -0.12,0.12 -0.01,0.01 -0,0 -0.04,0.02 -0.17,0.11 -0.33,0.34 -0.33,0.56zm-0.02 0.04l0.03 0 -0.03 0z"/>
   <path class="fil9" d="M5.29 1.11c0.31,0.27 0.14,0.09 0.41,0.4l0.06 0.06c0,0 0.01,0 0.01,0.01 0.03,0.02 0.02,-0.02 0.06,0.09 0.01,0.03 0.04,0.09 0.04,0.09l0.02 -0.01 0.03 -0.03 0.02 -0.08c-0.04,-0.01 -0.04,-0.05 -0.06,-0.11 -0.02,-0.06 -0.05,-0.11 -0.06,-0.17 -0.06,0.06 -0.04,0.03 -0.01,0.11 0.02,0.06 0.03,0.05 0.04,0.11 -0.02,-0.03 0,0.01 -0.03,-0.03l-0.13 -0.18c-0.09,-0.11 -0.04,-0.04 -0.11,-0.06 -0.11,-0.04 -0.05,-0.03 -0.03,-0.12 -0.08,-0.06 -0.07,-0.09 -0.16,-0.07 0.01,-0.12 0.02,-0.07 -0.05,-0.1 -0.05,0.05 -0.04,0.03 -0.05,0.11zm0.49 0.2c-0.06,0.07 -0.02,0.01 -0.03,0.08l0.05 -0.05 -0.02 -0.03zm-0.04 -0.05c-0.03,0.05 -0.03,-0.01 -0.02,0.06 0.02,0.01 -0.01,0.02 0.05,0l-0.03 -0.06zm-0.03 -0.03c-0.07,-0.08 -0.09,-0.1 -0.16,-0.17 -0.05,-0.01 0.01,-0.04 -0.07,0.03 0.1,0.05 0.12,0.06 0.16,0.14l0.04 0.06c0.02,-0.02 0.03,-0.02 0.03,-0.06zm-0.23 -0.2c0.02,-0.05 0.02,-0.04 -0.02,-0.02 0.01,-0.03 0.02,-0.02 -0.01,-0.04l-0.04 0.05 0.05 -0.01c-0.02,0.05 -0.02,0.04 0.02,0.02 0.01,0.02 -0.06,0.07 0.04,-0l-0.04 0zm-0.09 -0.1l-0.02 -0.02c-0.04,-0.01 -0.05,0.02 -0.07,0.03l0.1 0.05c0.02,-0.06 0.04,-0.03 -0.01,-0.07zm-0.41 -0.24c0.06,0.08 0.07,0.14 0.04,0.26 0.05,0.02 0.1,0.04 0.14,0.06 0.08,0.06 0.05,0.06 0.14,0.09 -0.01,-0.03 -0.04,-0.08 -0.04,-0.09 -0.01,-0.03 -0.01,-0.06 -0.01,-0.11 0.09,0 0.01,0.02 0.09,-0.02 -0.07,-0.03 -0.04,-0.01 -0.09,-0.04l-0.07 -0.06c-0.06,-0.05 -0.13,-0.05 -0.2,-0.09z"/>
   <path class="fil10" d="M1.73 7.89c0.02,0.6 -0.18,0.48 1.04,0.5 0.03,0 0.1,0 0.12,0 0.11,-0.01 0.06,0.02 0.08,-0.04 -0.36,-0.06 -0.91,0.07 -1.07,-0.03 -0,-0 -0.01,-0 -0.01,-0.01 -0.01,-0.01 -0.02,-0.01 -0.03,-0.01 0,-0 0.05,-0.02 0.04,-0.13 -0.01,-0.15 0.01,-0.09 0.08,-0.26l0.61 -0.02c-0.03,-0.02 -0.01,-0.01 -0.05,-0.02l-0.38 -0.01c-0.08,0 -0.15,-0.01 -0.22,-0 -0.08,0 -0.12,0.02 -0.2,0.03z"/>
   <path class="fil9" d="M3.37 3.83l-0.03 -0.1c0.03,0 0.03,0 0.05,0.01 0.04,0.02 0.03,0.01 0.05,0.03 -0.02,0.06 -0,0.05 -0.07,0.06zm-0.18 -0.47c0.01,0.12 0.07,0.15 0.1,0.25 -0.03,0.03 0.05,0.02 -0.05,0.02 0.07,0.04 0.03,-0.03 0.05,0.07 -0.12,-0.05 -0.16,0.03 -0.21,0.05 0.05,-0.01 0.06,-0.07 0.16,-0 0.07,0.04 0.08,0.22 0.2,0.14 0.08,-0.05 0.05,-0.2 0.23,-0.15 -0.02,-0.03 -0,-0 -0,-0.05 -0.01,-0.07 0,-0.01 -0.02,-0.06 -0.01,-0.02 -0.01,0.01 -0.05,-0.05l0.06 -0.06c-0.07,0.08 -0.01,0.07 -0.13,0.1l0.03 -0.19c-0.05,0.12 -0,0.05 -0.1,0.13l-0.03 0.01 0.03 -0.01c0.05,-0.03 0.01,-0.01 0.07,-0.04l-0 0.1c-0.07,0.02 -0.03,0.02 -0.12,-0l-0.03 0.1c-0.03,-0.07 -0.04,-0.05 -0.05,-0.12 -0.01,-0.15 0.07,-0.11 0.07,-0.11l0.01 0.04 -0.01 -0.04c0.02,-0.06 0.06,-0.06 0.05,-0.15 -0,-0.09 -0.04,-0.08 -0.04,-0.19l0.04 0.05c0,0 0,0.01 0.01,0.01l0.03 0.12c0.05,0.1 0,0.01 0.05,0.06 -0.08,-0.36 -0.05,-0.16 -0.09,-0.26 0.05,-0.02 -0,-0.04 0.06,-0l0.02 0.06 -0.02 -0.06 0 -0.05c-0.08,0.04 -0.04,-0.01 -0.1,0.05 -0.02,-0.05 0,-0.05 -0,-0.05 -0.01,-0.02 0.07,0.02 -0.01,-0.01 -0.04,-0.02 -0.06,0.01 -0.06,0.01 0.07,0.05 0.03,-0.01 0.04,0.08 0.02,0.08 0.03,0.2 -0.02,0.25 -0.05,-0.06 -0.03,-0.13 -0.03,-0.2 -0,-0.04 -0.01,-0.04 -0.01,-0.05 -0.01,-0.11 0.02,-0.02 -0,-0.08 -0,0 -0.01,0 -0.01,0.01l-0.06 0.03c0.03,0.03 0.01,0.01 0.03,0.05 -0.05,-0.02 -0.03,0.02 -0.03,-0.04l-0.04 0.06c-0.03,0.01 -0.02,-0.03 -0.02,0.04 -0.03,0.03 -0.02,-0.01 -0.02,0.06l0.02 -0.06 0.02 -0.04c0.02,-0.02 0.01,0.03 0.02,-0.02 0,-0.01 0.01,-0 0.01,-0.01 -0,0.1 -0,0.05 -0.02,0.1 -0.04,0.1 -0.05,0.07 -0.02,0.1 0.08,-0.17 0.03,-0.17 0.12,-0.19l-0.06 0.27 0.06 -0.09c0.01,0.11 0.04,0.12 -0.07,0.23l-0.09 -0.2z"/>
   <path class="fil1" d="M3.01 8.2c0,-0.01 0,-0.02 0.01,-0.02 0.01,0.02 0.01,-0.03 0.02,-0.03 0.06,-0.06 -0.05,0 0.06,-0.03l0.05 0.07c0,0 0.01,0.01 0.01,0.02 0.14,-0.02 0.06,0.01 0.2,-0.02l0.01 0.08c0.06,-0.18 -0.04,0.01 0.03,-0.07l0.17 0 0.01 0.06c0.02,-0.11 -0.01,-0.05 0.05,-0.06 0.03,0.03 0.01,-0.02 0.03,0.06 0.02,-0.1 0.01,-0.02 0.1,-0.11 0.03,-0.04 0.02,-0.01 0.04,-0.05 -0.01,-0 -0.06,-0.08 -0.13,-0.07 -0.16,0.02 0.03,-0.02 -0.14,-0.01l-0.22 0c-0.03,-0 -0.09,-0 -0.11,0 -0.1,0.02 0.04,0.01 -0.11,0.05l-0.06 -0.07 0 0.2z"/>
   <path class="fil1" d="M4.97 0.69c0.07,0.04 0.13,0.04 0.2,0.09l0.07 0.06c0.05,0.03 0.02,0.01 0.09,0.04l0.03 0.03 0.02 0.02 0.05 0.04c0.03,0.01 0.02,0 0.01,0.04 0.05,-0.02 0.05,-0.03 0.02,0.02l0.04 -0 0.03 0.03c0.08,0.07 0.09,0.09 0.16,0.17l0.03 0.03 0.03 0.06 0.01 -0.01 0.02 0.03 0.02 0.01c0.02,0.07 0.04,0.11 0.06,0.17 0.02,0.06 0.02,0.1 0.06,0.11 0.06,-0.33 -0.18,-0.51 -0.33,-0.63 -0.17,-0.14 -0.36,-0.31 -0.65,-0.37l0.02 0.06z"/>
   <path class="fil11" d="M3.89 8.38l-0.02 -0.18 0 -0.32 0.3 0.01c0.07,-0.05 0.88,-0.04 0.94,-0.04l0.01 0.42c0.03,-0.09 0.04,-0.37 -0.03,-0.48 -0.17,-0.01 -1.11,-0.03 -1.22,0.01 -0,0.1 -0.01,0.18 -0.01,0.29 0,0.07 -0.03,0.25 0.03,0.29z"/>
   <path class="fil12" d="M2.17 8.19c0.23,0.03 0.55,-0.02 0.8,-0.02l0 -0.14c-0.11,0.03 -0.65,0.01 -0.81,0 -0,0.03 0,0.1 0,0.1 0,0.01 0,0.02 0,0.02 0.01,0.06 -0.01,-0.01 0.01,0.03z"/>
   <path class="fil13" d="M3.05 3.62l0.04 -0.04 0.02 -0.02c-0.05,-0.14 -0.1,-0.18 -0.04,-0.35 0.05,-0.12 0.1,-0.19 0.24,-0.2l0.05 -0.02c-0.04,-0.05 -0.03,-0.01 -0.03,-0.08 -0.08,0.02 -0.08,0.04 -0.19,0.08l0.01 -0.08 0.01 -0.01 -0.01 0.01 -0.12 0c0.02,0.06 0.04,0.08 0.06,0.12 -0.03,-0.01 -0.07,-0.03 -0.12,-0.04 0.04,0.06 -0.04,-0.05 0.02,0.02 0.02,0.03 0.02,0 0.03,0.04 -0.08,0.05 -0.14,0.23 -0.1,0.37 0,0 0,0.01 0.01,0.01l0.01 0.03c0,0 0,0.01 0.01,0.01 0.04,0.12 -0.01,0.12 0.1,0.15z"/>
   <path class="fil13" d="M3.72 2.91c0.01,-0.01 -0.05,-0.03 0.02,-0 0.05,0.02 0.01,0.01 0.01,0.01l-0.08 -0.04c0.01,0 0.02,0.01 0.02,0.01 0,0 0.01,0.01 0.01,0.01 0,-0 0.01,0.01 0.01,0.01zm-0.03 0.06c-0.07,0.04 0.07,-0.04 -0.04,0.02 -0.03,-0.01 -0.09,-0.05 -0.1,-0.05 -0.09,-0.02 -0.08,-0.01 -0.12,0.03 0.3,0.06 0.34,0.33 0.27,0.47l0.04 0.05c-0.04,0.03 -0,-0 -0.04,0.01l-0.03 0.01 -0.06 0.06c0.04,0.06 0.03,0.04 0.05,0.05 0.03,0.05 0.02,-0.02 0.02,0.06 0.1,-0.06 0.02,-0.06 0.13,-0.1 0.02,-0.14 0.15,-0.44 -0.04,-0.55l0.07 -0.07 -0.05 -0.03 -0.03 0.06c-0.14,0 -0.02,0.01 -0.06,-0.03z"/>
   <path class="fil3" d="M1.7 11.62l-0.02 -0.02c-0.01,-0.01 -0.03,-0.02 -0.03,-0.03 -0.08,-0.08 -0.04,-0.09 -0.04,-0.16 -0,-0.06 0.01,0.01 -0.03,-0.01 0.01,-0.1 -0,-0.22 -0.06,-0.32 -0.02,-0.04 -0.04,-0.03 -0.04,-0.03 -0,-0 -0.01,-0 -0.01,-0 -0,-0 -0.01,-0 -0.01,-0l0.01 -0.15c-0.13,-0.02 -0.1,0 -0.2,-0.23 0.09,0.22 0.17,1.16 0.43,0.97z"/>
   <path class="fil1" d="M0.9 1.69l0.03 0 -0.01 -0.04c0,-0.22 0.16,-0.45 0.33,-0.56 0.03,-0.02 0.02,-0.01 0.04,-0.02 0.05,-0.05 0.01,-0.06 0.12,-0.12l0.41 -0.26c0,-0 0.01,-0.01 0.01,-0.01 0,-0 0.01,-0.01 0.01,-0.01 0,-0 0.01,-0.01 0.01,-0.01 0.05,-0.05 0.01,-0.03 0.01,-0.03 -0.34,0.11 -0.72,0.38 -0.91,0.64 -0.11,0.15 -0.1,0.25 -0.06,0.41z"/>
   <path class="fil3" d="M5.4 10.9c-0.04,0.25 -0.09,0.13 -0.13,0.48 -0.03,0.26 -0.06,0.2 -0.11,0.26 0.24,-0 0.15,-0.04 0.23,-0.25 0.04,-0.1 0.15,-0.56 0.14,-0.64 -0.04,0.12 -0.01,0.12 -0.13,0.16z"/>
   <path class="fil14" d="M1.73 7.89c0.08,-0.01 0.12,-0.03 0.2,-0.03 0.07,-0 0.14,0.01 0.22,0l0.38 0.01c0.04,0.01 0.03,0 0.05,0.02l0.39 -0.01 -0.01 -0.09 -0.98 0c-0.05,0 -0.11,-0 -0.16,0 -0.03,0 -0.04,-0.01 -0.04,0.01 -0,0 0,0 0,0.01l0.05 0.03c-0.1,0.01 -0.08,-0.01 -0.11,0.04z"/>
   <path class="fil3" d="M3 7.88c-0.02,0.11 -0.02,0.27 0.01,0.36l0 -0.04 -0 -0.2 -0.01 -0.12 0.84 -0 -0.01 -0.09 -0.83 0.01 -0.01 0.09z"/>
   <path class="fil4" d="M1.31 15.49c-0.04,-0.06 -0.06,-0.1 -0.09,-0.17l-0.06 -0.12c-0.04,-0.06 -0.01,-0.01 -0.03,-0.04 0.01,0.17 0.03,0.3 0.09,0.45 0.04,0.09 0.04,0.07 0.14,0.12 0.08,0.03 0.1,0.04 0.19,0.05 -0.09,-0.12 -0.07,-0.02 -0.24,-0.28z"/>
   <path class="fil4" d="M5.29 15.77c0.14,-0.01 0.27,-0.05 0.33,-0.18 0.05,-0.11 0.08,-0.26 0.08,-0.41l-0.02 0.03c-0,0 -0.01,0.02 -0.02,0.03l-0.15 0.27c-0.06,0.09 -0.08,0.14 -0.16,0.2l-0.07 0.06z"/>
   <path class="fil6" d="M3.76 0.31c0.26,0.02 0.52,0.03 0.77,0.09 0.18,0.04 0.23,0.14 0.32,0.3 0.04,0.09 0.01,0.09 -0.01,0.15l0.13 0.07c0.04,-0.12 -0.05,-0.24 -0.1,-0.32 -0.06,-0.09 -0.12,-0.19 -0.25,-0.23 -0.13,-0.04 -0.73,-0.1 -0.85,-0.07z"/>
   <path class="fil9" d="M3.35 2.77c-0.05,0.07 -0.1,0.05 -0.18,0.11l-0.01 0.01 -0.01 0.08c0.12,-0.04 0.12,-0.06 0.19,-0.08l0.04 -0.07c0,-0 0.01,-0 0.01,-0.01 0,-0.01 0.01,-0.01 0.02,-0.01 0,0 0,0.01 0,0.01l0.03 0.11c-0.09,0.03 0,-0 -0.04,0.05l0.03 -0c0.03,-0.04 0.03,-0.05 0.12,-0.03 0.02,0 0.08,0.04 0.1,0.05 0.11,-0.06 -0.03,0.02 0.04,-0.02 0.03,-0.03 0.01,-0.01 0.03,-0.06 -0,-0 -0.01,-0.01 -0.01,-0.01 -0,0 -0.01,-0.01 -0.01,-0.01 -0,-0 -0.02,-0.01 -0.02,-0.01l-0.21 -0.09c-0.05,0 -0.05,0.05 -0.03,-0.04l-0.01 -0.02 -0.06 0.02 -0.02 0.02z"/>
   <path class="fil3" d="M1.59 11l0.49 -0.04c-0.1,0.01 -0.04,-0.01 -0.06,-0.03 0,-0 -0.01,-0.05 0.07,-0.02 -0.14,-0.02 -0.36,-0.08 -0.51,-0.11 -0.03,0.05 -0.04,0.04 -0.04,0.09 0,0.01 0.01,0.05 0.01,0.06 0,0 0,0.01 0,0.01 0,0 0,0.01 0,0.01 0.03,0.08 -0,0.01 0.02,0.03z"/>
   <path class="fil6" d="M5.54 1.05l-0.03 -0.03c-0.1,0.07 -0.04,0.03 -0.04,0 -0.05,0.02 -0.04,0.03 -0.02,-0.02l-0.05 0.01 0.04 -0.05 -0.05 -0.04c0.05,0.03 0.04,0.01 0.01,0.07l-0.1 -0.05c0.02,-0.01 0.03,-0.04 0.07,-0.03l-0.03 -0.03c-0.08,0.04 0,0.02 -0.09,0.02 0,0.05 -0,0.07 0.01,0.11 0,0.01 0.03,0.06 0.04,0.09l-0.01 0c0.01,-0.08 -0,-0.06 0.05,-0.11 0.07,0.03 0.05,-0.02 0.05,0.1 0.09,-0.02 0.08,0.02 0.16,0.07 -0.01,0.09 -0.07,0.08 0.03,0.12 0.06,0.02 0.02,-0.04 0.11,0.06l0.13 0.18c0.03,0.04 0,-0 0.03,0.03 -0.01,-0.06 -0.01,-0.05 -0.04,-0.11 -0.03,-0.08 -0.06,-0.05 0.01,-0.11l-0.02 -0.01 -0.05 0.05c0.01,-0.07 -0.03,-0.01 0.03,-0.08l-0.01 0.01c-0.06,0.01 -0.03,0.01 -0.05,-0 -0.01,-0.07 -0.01,-0.01 0.02,-0.06l-0.03 -0.03c0,0.03 -0.01,0.04 -0.03,0.06l-0.04 -0.06c-0.05,-0.08 -0.06,-0.09 -0.16,-0.14 0.07,-0.07 0.01,-0.05 0.07,-0.03z"/>
   <path class="fil6" d="M3.68 0.56c0.41,0.06 0.73,0.06 1.14,0.19 -0.06,-0.13 -0.38,-0.15 -0.54,-0.17 -0.09,-0.01 -0.59,-0.09 -0.6,-0.02z"/>
   <path class="fil0" d="M4.16 6.46c0.06,-0.12 0.06,-0.22 -0.01,-0.33 -0.13,-0.01 -0.14,0.02 -0.14,0.16 -0,0.14 0.01,0.19 0.15,0.18z"/>
   <path class="fil6" d="M1.98 0.87c-0.02,-0.07 -0.04,-0.05 -0.02,-0.11 0.03,-0.1 0.15,-0.26 0.23,-0.31 0.17,-0.1 0.41,-0.1 0.61,-0.12 -0.11,-0.02 -0.6,0.03 -0.72,0.13 -0.15,0.14 -0.42,0.55 -0.11,0.4z"/>
   <path class="fil9" d="M3.59 15.61c-0.01,-0 -0.38,-0.01 -0.43,0.02 0.02,0.08 -0.01,0.07 0.11,0.08l0.31 -0c0.12,-0.02 0.07,0.01 0.08,-0.08 -0.04,-0.03 0.03,-0.01 -0.06,-0.02z"/>
   <path class="fil15" d="M5.89 1.74l-0.02 0.01c0.03,0.09 0.05,0.16 0.07,0.25 0.02,0.1 0.02,0.19 0.07,0.26l-0.01 -0.56c-0.03,-0.11 0.01,-0.05 -0.05,-0.07l-0.02 0.08 -0.03 0.03z"/>
   <path class="fil1" d="M3.24 3.18l-0.02 0.04 -0.02 0.06 -0 0.08 0.09 0.2c0.11,-0.11 0.08,-0.11 0.07,-0.23l-0.06 0.09 0.06 -0.27c-0.09,0.03 -0.04,0.02 -0.12,0.19 -0.03,-0.03 -0.02,0 0.02,-0.1 0.02,-0.05 0.02,0 0.02,-0.1 -0,0 -0.01,-0 -0.01,0.01 -0.01,0.05 -0,-0 -0.02,0.02zm0.05 -0.08l-0 0.02c0,0.06 -0.02,0.02 0.03,0.04 -0.02,-0.04 -0,-0.02 -0.03,-0.05z"/>
   <path class="fil9" d="M6.04 9.25c0,0 -0,0.07 0,0.08 0.03,0.08 0,0.03 0.06,0.08 0.05,-0.13 0.05,-0.45 0.02,-0.58 -0.03,-0.14 0,-0.03 -0.04,-0.08l-0.02 0.04c-0.07,0.2 0.06,0.07 0.04,0.35 -0,-0 -0.01,-0.02 -0.01,-0.01l-0.01 0.12c-0.02,-0.01 0,0.01 -0.04,0.01z"/>
   <path class="fil1" d="M3.41 3.49l0.01 0.04 0.02 0.04 0.03 -0.01c0.09,-0.08 0.04,-0.01 0.1,-0.13 0.02,-0.14 0.02,-0.11 -0.02,-0.24l-0.02 -0.06c-0.07,-0.04 -0.01,-0.02 -0.06,0 0.04,0.1 0.01,-0.1 0.09,0.26 -0.05,-0.05 0,0.03 -0.05,-0.06l-0.03 -0.12c-0,-0 -0,-0.01 -0.01,-0.01l-0.04 -0.05c-0,0.1 0.03,0.09 0.04,0.19 0,0.09 -0.03,0.09 -0.05,0.15z"/>
   <path class="fil6" d="M3.41 0.52c-0.05,-0.04 -0.09,-0.05 -0.02,-0.11 -0.14,-0.01 -0.03,-0.02 -0.07,0.03 -0,0 0.04,0.01 -0.02,0.02 -0.13,0.02 -0.02,0.01 -0.06,-0.02 0.06,-0.09 0.17,-0.06 0.33,-0.06 -0.08,0.08 -0.03,0.02 -0.11,0.04 0.14,0.08 0.11,-0.12 0.18,0.02 -0.1,0.08 -0.12,-0.04 -0.21,0.08l0.2 -0.01c0.01,-0.04 0.02,-0.01 0.03,-0.09 0,0.01 0.01,0.02 0.01,0.02 0.04,0.02 -0.02,0.02 0.02,0 -0.05,-0.09 -0.13,-0.08 -0.3,-0.08 -0.28,0.01 -0.15,0.14 -0.21,0.05 0.02,0.11 -0.03,0.04 0.01,0.08 0.05,0.04 0.14,0.03 0.21,0.02z"/>
   <path class="fil16" d="M6.08 7.36c-0,0.25 0.02,0.17 -0.03,0.34 -0.02,0.06 -0.01,0.09 -0.01,0.16 0.05,-0.03 0.08,0.03 0.1,-0.24 0.01,-0.12 0.02,-0.17 -0.01,-0.29l-0 0.06c-0.05,-0.07 -0.01,0.06 -0.03,-0.03 -0,-0.01 -0.01,-0.01 -0.01,-0.01l-0.02 -0.01 0.02 0.01z"/>
   <path class="fil6" d="M1.01 14.9c-0.02,0.23 0.04,0.47 0.15,0.67 -0.02,-0.13 -0.08,-0.58 -0.15,-0.67z"/>
   <path class="fil0" d="M3.29 4.35c0.08,-0.01 0.08,-0.05 0.07,-0.25l0.12 0.01c0,0.02 -0,0.09 0,0.1 0.02,0.11 -0.02,0.04 0.04,0.06 0.01,-0.02 0.01,-0.01 0.02,-0.05l-0.01 -0.17c-0.08,-0.02 -0.07,-0.01 -0.14,0l-0.09 0c-0.02,0.19 0.02,0.19 -0.02,0.28z"/>
   <path class="fil16" d="M4.23 15.78c0.07,0 0.13,-0.01 0.2,-0.01 0.02,-0.06 -0.08,0.01 0.01,-0.02l0.02 -0.01c0.03,-0.03 0.04,0.02 0.02,-0.08 -0.17,0.09 -0.22,0 -0.35,0.04 -0,0.09 0,0.09 0.11,0.09z"/>
   <path class="fil0" d="M3.69 4.08c0.04,0.05 0.04,0.07 0,0.13 -0.03,-0.01 -0.05,0.02 -0.06,-0.06 -0.01,-0.07 0.02,-0.06 0.06,-0.07zm-0.06 0.17c0.2,0.03 0.17,-0.21 0.08,-0.23 -0.15,-0.03 -0.17,0.14 -0.08,0.23z"/>
   <path class="fil17" d="M0.91 1.81l0 -0.03 -0.06 -0.18c-0.02,0.21 -0.05,0.41 -0.02,0.64l0.08 -0.42z"/>
   <path class="fil6" d="M0.75 7.83l0.02 -0.1c-0.01,-0.01 0.02,-0.02 -0.06,-0.06 0.01,-0.46 0.03,-0.25 0.06,-0.35 -0.01,-0.07 -0.02,-0.09 -0.03,-0.15 -0.07,0.09 -0.06,0.37 -0.05,0.49 0.01,0.1 0.01,0.11 0.06,0.17z"/>
   <path class="fil9" d="M6.06 9.42l-0.06 0.09c-0.03,0.02 -0.04,0.02 -0.08,0.04l0.01 -0.5 -0.05 0.54c0.1,0.05 0.01,0.04 0.1,0.06 0.05,-0.05 0.12,-0.15 0.1,-0.23z"/>
   <path class="fil3" d="M5.72 9.92c0.14,-0.05 0.2,-0.03 0.31,-0.06l-0.03 -0.1c-0,-0.01 -0,-0.01 -0.01,-0.02l-0.02 -0.03c-0.1,0.05 -0.04,0.05 -0.13,0.09 -0.09,0.04 -0.09,0.02 -0.13,0.12z"/>
   <path class="fil6" d="M0.75 9.4c0.02,-0.16 -0,-0.12 -0.02,-0.15 0.01,-0.03 -0,-0 -0.01,-0.02l-0.01 -0.25c0.02,-0.11 0.09,-0.05 0.01,-0.21 -0,-0 -0.01,-0.01 -0.01,-0.02 -0.03,0.12 -0.05,0.46 -0.02,0.57 0.04,0.12 0,0.03 0.06,0.07z"/>
   <path class="fil3" d="M2.18 11.73c-0.07,0.03 -0.06,0.05 -0.13,0.06 -0.07,0.02 -0.03,-0.01 -0.06,0.07 -0.11,-0.03 0.01,-0.02 -0.1,-0.04 -0.13,-0.02 -0.08,-0.01 -0.09,0.05 0.02,0.02 0.02,0.01 0.06,0.02 0.35,0.07 0.3,-0.14 0.3,-0.26 0,-0.02 -0.01,0 0,-0.02 0,0.01 0.01,0.03 0.01,0.03 0,0.01 0.01,0.07 0.01,0.09z"/>
   <path class="fil9" d="M2.4 15.71c0.04,0.05 -0.05,0.04 0.09,0.06 0.19,0.02 0.24,0.02 0.26,-0.07 -0.08,-0.02 -0.28,-0.02 -0.35,0.01z"/>
   <path class="fil0" d="M3.91 4.1c-0,0.07 0.02,0.05 -0.05,0.04l0.05 -0.04zm-0.09 0.09c0.06,0.02 0.1,-0 0.16,-0.02l-0.02 -0.18c-0.01,-0.04 -0.01,-0.02 -0.02,-0.04 -0.06,0.03 -0.05,-0.02 -0.03,0.1 -0.09,0.02 -0.11,0.03 -0.09,0.14z"/>
   <path class="fil0" d="M2.91 4.02c-0.1,-0.01 0.01,-0.01 -0.08,-0.07 -0.02,0.03 -0.02,0 -0.02,0.06l0.04 0.18c0.08,0.01 0.06,0.02 0.1,-0.07 0.03,-0.05 0.03,-0.06 0.06,-0.1 -0.11,-0.03 -0.05,0.01 -0.1,0.01z"/>
   <path class="fil0" d="M3.21 4.22c-0.12,-0.02 -0,-0.01 -0.12,-0.04 0.06,0.14 0.19,0.14 0.19,-0.03 -0,-0.13 -0.1,-0.13 -0.19,-0.07 0.05,0.07 0.04,0.03 0.12,0.01l0 0.13z"/>
   <path class="fil0" d="M3.31 2.58c0.07,-0.05 0.04,-0.05 0.07,-0.13 0.04,0.1 0.01,0.12 0.1,0.13 -0.01,-0.07 -0.04,-0.18 -0.09,-0.22 -0.05,0.02 -0.03,-0.01 -0.07,0.09 -0,0.01 -0.02,0.06 -0.02,0.06 -0.01,0.06 -0,0.03 0.02,0.06z"/>
   <path class="fil8" d="M3.47 3.55l-0.03 0.01 -0.02 -0.04 -0.01 -0.04c0,0 -0.08,-0.05 -0.07,0.11 0,0.07 0.02,0.06 0.05,0.12l0.03 -0.1c0.09,0.02 0.04,0.03 0.12,0l0 -0.1c-0.07,0.03 -0.03,0 -0.07,0.04z"/>
   <path class="fil0" d="M3.63 2.45c0.04,0.03 0.13,-0.02 0.11,0.07 -0.02,0.11 0,0.01 -0.03,0.06 -0.1,-0.04 0.01,-0.03 -0.1,-0.05 0.03,0.13 0.18,0.13 0.2,-0 0,-0.04 -0.01,-0.07 -0.02,-0.1 -0.05,-0.01 -0.14,-0.04 -0.16,0.03z"/>
   <path class="fil9" d="M1.3 1.28c0.06,-0.04 0.07,-0.04 0.11,-0.08 0.05,-0.05 0.07,-0.05 0.11,-0.09l-0.02 -0.11c-0.2,0.06 -0.14,0.16 -0.13,0.22 -0.07,0.02 -0.05,0.02 -0.08,0.06z"/>
   <path class="fil18" d="M2.17 8.19c-0.02,-0.04 0,0.03 -0.01,-0.03 -0,-0 -0,-0.02 -0,-0.02 -0,-0 -0,-0.07 -0,-0.1l-0.13 0 0.01 0.15 0.13 0z"/>
   <path class="fil0" d="M2.97 2.45c0.02,0.02 -0.03,0.05 0.1,0.01 0.06,0.23 -0,0.13 0.07,0.15 0.04,-0.05 0.01,-0.14 -0.01,-0.21 -0.04,-0 -0.03,-0.01 -0.07,0 -0.02,0 -0.03,0.01 -0.05,0.02 -0.03,0.02 -0.02,0.01 -0.03,0.03z"/>
   <path class="fil9" d="M1.61 1.06c0.04,-0.03 0.07,-0.05 0.12,-0.09 0.01,-0.06 0.03,0.03 -0,-0.05 -0.03,-0.08 -0.01,-0.02 -0.04,-0.05 -0.16,0.05 -0.05,0.1 -0.08,0.19z"/>
   <path class="fil19" d="M4.64 6.46l-0 -0.14c-0.18,0 -0.2,0.14 0,0.14z"/>
   <path class="fil1" d="M5.67 15.56c0.09,-0.25 0.13,-0.2 0.13,-0.56l-0.07 0.3c-0.01,0.1 -0.05,0.21 -0.06,0.26z"/>
   <path class="fil0" d="M3.53 2.59c0.05,-0.02 0.03,0.03 0.05,-0.09 0.01,-0.07 0.02,-0.08 -0.01,-0.13 0,0 -0.07,-0.04 -0.06,0.16 0,0.1 -0.01,0.02 0.02,0.06z"/>
   <path class="fil9" d="M0.94 9.66c-0.02,-0.11 0.01,-0.08 -0.1,-0.12 -0.08,-0.03 -0.07,-0.01 -0.1,-0.07 0.01,0.07 0.03,0.04 0.01,0.06l0.06 0.09c0.03,0.02 0.08,0.03 0.13,0.04z"/>
   <path class="fil20" d="M3.35 2.77l0.02 -0.02 0.06 -0.02 0.01 0.02c-0.03,0.09 -0.03,0.05 0.03,0.04l-0.03 -0.04c0.01,-0.03 0.01,-0.02 -0.01,-0.02 0,-0.07 -0.05,0 -0.06,0.02l-0.02 0.02zm-0.01 0.13c-0,0.07 -0.01,0.03 0.03,0.08l-0.05 0.02 0.05 -0.02 0.03 0.01c0.05,-0.06 -0.05,-0.02 0.04,-0.05l-0.03 -0.11c-0,-0 -0,-0.01 -0,-0.01 -0.01,0 -0.01,-0 -0.02,0.01 -0,0.01 -0.01,0.01 -0.01,0.01l-0.04 0.07z"/>
   <path class="fil0" d="M3.23 2.59c0.02,-0.02 0.03,0 0.02,-0.12 -0.01,-0.11 0,-0.08 -0.06,-0.1 -0.03,0.04 -0.03,0.18 0.04,0.21z"/>
   <path class="fil0" d="M3.05 4.25c0.01,-0.04 0.02,-0.1 0.03,-0.16 0.01,-0.07 0,-0.06 -0.05,-0.08 -0.01,0.05 -0.02,0.1 -0.02,0.15 -0.01,0.07 -0.02,0.06 0.04,0.08z"/>
   <path class="fil0" d="M3.38 2.15l0 0.09c0.09,-0.03 0.02,0.02 0.08,-0.05 0.03,0.06 -0.01,0.05 0.06,0.05l0 -0.11 -0.05 0c-0,0 -0.01,0 -0.01,0l-0.08 0.01z"/>
   <path class="fil16" d="M3.09 3.57c0.02,0.03 0.07,-0.01 0.01,0.05 -0.05,0.04 -0,0.02 -0.05,-0 -0.05,-0.01 -0.01,-0.01 -0.02,0.04 0.05,0.06 0,0.02 0.05,0.05l0.14 -0.1c-0.06,-0.01 -0.06,-0.01 -0.1,-0.05l-0.02 0.02z"/>
   <path class="fil6" d="M6.06 7.36l0.02 0.01c0,0 0.01,0 0.01,0.01 0.02,0.09 -0.02,-0.05 0.03,0.03l0 -0.06c-0.01,-0.07 -0.01,-0.13 -0.06,-0.17l-0.01 0.19z"/>
   <polygon class="fil3" points="2.28,6.23 2.17,6.22 2.23,6.41 "/>
   <path class="fil2" d="M3.64 4.15c0.01,0.08 0.03,0.05 0.06,0.06 0.04,-0.06 0.04,-0.07 0,-0.13 -0.04,0.01 -0.06,0 -0.06,0.07z"/>
   <path class="fil0" d="M3.25 2.24l0.12 -0c-0.03,-0.05 -0.03,-0.08 -0.06,-0.12 -0.03,0.05 0,0.03 -0.06,0.12z"/>
   <path class="fil4" d="M3.37 3.83c0.07,-0.01 0.05,0.01 0.07,-0.06 -0.02,-0.02 -0.01,-0.01 -0.05,-0.03 -0.02,-0.01 -0.03,-0.01 -0.05,-0.01l0.03 0.1z"/>
   <path class="fil2" d="M3.86 4.14c0.07,0.01 0.04,0.04 0.05,-0.04l-0.05 0.04z"/>
   <path class="fil6" d="M3.18 0.57c-0.41,0.08 -0.73,0.1 -1.12,0.26 0.05,-0.13 0.37,-0.17 0.53,-0.2 0.09,-0.02 0.58,-0.13 0.6,-0.06z"/>
   <path class="fil21" d="M1.64 7.15c-0.07,-0.25 -0.18,-0.76 -0.23,-1.07 -0.05,-0.31 -0.06,-0.41 -0.02,-0.5 0.04,-0.08 0.12,-0.15 0.25,-0.21 0.13,-0.06 0.32,-0.11 0.6,-0.15 0.29,-0.04 0.68,-0.06 1.04,-0.06 0.36,-0 0.7,0.02 0.99,0.05 0.29,0.03 0.53,0.08 0.7,0.13 0.17,0.06 0.27,0.12 0.33,0.18 0.06,0.06 0.09,0.11 0.09,0.26 -0,0.15 -0.03,0.4 -0.08,0.67 -0.04,0.28 -0.1,0.59 -0.15,0.74 -0.04,0.15 -0.07,0.14 -0.1,0.14 -0.02,-0 -0.04,-0 -0.19,-0.02 -0.14,-0.02 -0.41,-0.05 -0.71,-0.07 -0.29,-0.02 -0.62,-0.04 -0.96,-0.03 -0.34,0.01 -0.71,0.05 -0.95,0.08 -0.24,0.03 -0.36,0.05 -0.44,0.07 -0.08,0.02 -0.11,0.04 -0.19,-0.21z"/>
   <g>
    <path class="fil1" d="M4.16 6.64c-0.15,0.02 -0.15,-0.04 -0.15,-0.18 0,-0.13 0.02,-0.16 0.14,-0.16 0.07,0.11 0.07,0.21 0.01,0.33zm-0.1 -0.45c-0.16,0.04 -0.2,0.15 -0.18,0.35 0.02,0.16 0.1,0.26 0.29,0.22 0.25,-0.06 0.22,-0.65 -0.11,-0.56z"/>
    <path class="fil1" d="M2.23 6.59l-0.06 -0.18 0.11 0.01 -0.04 0.18zm-0.08 0.17l0.13 0c0.06,-0.12 0.14,-0.42 0.18,-0.56 -0.19,-0.01 -0.1,0.01 -0.18,0.1l-0.14 0 -0.03 -0.1 -0.13 0 0.17 0.56z"/>
    <path class="fil1" d="M3.99 5.58c0.04,-0.06 0.01,-0.05 0.06,-0.09l0.08 0c0.06,0.08 0.07,0.23 0.01,0.33 -0.09,0.07 -0.11,-0.05 -0.17,-0.06 -0.01,-0 -0.07,0 -0.09,0 0.06,0.33 0.5,0.24 0.43,-0.19 -0.02,-0.14 -0.1,-0.23 -0.27,-0.2 -0.11,0.02 -0.28,0.21 -0.05,0.21z"/>
    <path class="fil1" d="M3.13 5.94l0.13 -0 0.1 -0.37 0.11 0.37 0.13 -0 -0.16 -0.56c-0.18,-0 -0.14,-0.03 -0.23,0.27 -0.03,0.09 -0.08,0.2 -0.08,0.29z"/>
    <path class="fil1" d="M4.64 6.65c-0.2,-0 -0.18,-0.14 -0,-0.14l0 0.14zm-0.01 -0.25c-0.17,0.01 -0.29,0.04 -0.24,0.24 0.03,0.14 0.22,0.13 0.37,0.11l0.01 -0.55 -0.13 -0.01 -0 0.2z"/>
    <path class="fil1" d="M2.73 6.38l0.1 0.02c0,-0 0.01,-0.02 0.01,-0.01 0.02,0.05 0.02,-0.14 0.14,-0.08 0.08,0.04 0.08,0.4 -0.07,0.32 -0.08,-0.04 0,-0.1 -0.17,-0.05 0.06,0.28 0.43,0.26 0.42,-0.12 -0.01,-0.34 -0.38,-0.38 -0.42,-0.08z"/>
    <path class="fil1" d="M3.66 6.31l0 0.44c0.18,0 0.13,0.04 0.13,-0.56 -0.06,-0 -0.29,-0.01 -0.33,0.01 -0.01,0.01 -0.05,-0.06 -0.03,0.05 0.02,0.09 0.05,0.02 0.22,0.05z"/>
    <path class="fil1" d="M2.48 5.42c0.01,0.11 -0.04,0.06 0.09,0.07 0.02,0 0.1,-0 0.13,-0l0.01 0.44 0.12 -0 0.01 -0.56 -0.29 -0c-0.07,0.02 -0.03,0.01 -0.07,0.05z"/>
    <polygon class="fil1" points="2.93,5.94 3.07,5.94 3.07,5.37 2.93,5.37 "/>
    <path class="fil1" d="M3.27 6.76l0.08 0c0.01,-0.02 0.01,0.01 0.02,-0.05l0 -0.22c0,-0.17 0.01,-0.23 -0.02,-0.29l-0.11 -0 -0 0.43c0,0.12 0.01,0.11 0.03,0.13z"/>
    <polygon class="fil1" points="3.67,5.46 3.67,5.62 3.67,5.66 3.67,5.94 3.79,5.94 3.8,5.37 3.67,5.37 "/>
    <polygon class="fil1" points="2.53,6.76 2.64,6.76 2.66,6.19 2.52,6.19 "/>
    <path class="fil1" d="M3.21 6.91c0.11,-0 0.1,-0.02 0.14,-0.12 -0.08,0 -0.05,-0.02 -0.1,0.03 -0.01,0.01 -0.03,0.08 -0.04,0.09z"/>
   </g>
  </g>
 </g>
</svg>
